<svg xmlns="http://www.w3.org/2000/svg" xmlns:xlink="http://www.w3.org/1999/xlink" xmlns:lucid="lucid" width="1350.8" height="1202"><g transform="translate(-278.9999999898735 -78.99999998724323)" lucid:page-tab-id="0_0"><path d="M1040 166a6 6 0 0 1 6-6h308a6 6 0 0 1 6 6v308a6 6 0 0 1-6 6h-308a6 6 0 0 1-6-6z" stroke="#5a6c86" stroke-width="2" fill="#fff" fill-opacity="0"/><path d="M1040 160h56v56h-56v-56z" stroke="#fff" stroke-opacity="0" fill="#5a6c86"/><path d="M1079.25 208h-22.5c-.44 0-.8-.36-.8-.8v-38.4c0-.44.36-.8.8-.8h22.5c.44 0 .8.36.8.8v38.4c0 .44-.36.8-.8.8zm-21.66-1.6h20.8v-36.8h-20.8z" stroke="#fff" stroke-opacity="0" fill="#fff"/><path d="M1060.08 173.76h15.84v1.6h-15.84v-1.6zM1060.08 180.78h15.84v1.6h-15.84v-1.6zM1060.08 187.8h15.84v1.6h-15.84v-1.6z" stroke="#fff" stroke-opacity="0" fill="#fff"/><use xlink:href="#a" transform="matrix(1,0,0,1,1111,180) translate(0 21.52777777777778)"/><use xlink:href="#b" transform="matrix(1,0,0,1,1111,180) translate(81.41276041666667 21.52777777777778)"/><path d="M1040 526a6 6 0 0 1 6-6h308a6 6 0 0 1 6 6v408a6 6 0 0 1-6 6h-308a6 6 0 0 1-6-6z" stroke="#5a6c86" stroke-width="2" fill="#fff" fill-opacity="0"/><path d="M1040 520h56v56h-56v-56z" stroke="#fff" stroke-opacity="0" fill="#5a6c86"/><path d="M1079.25 568h-22.5c-.44 0-.8-.36-.8-.8v-38.4c0-.44.36-.8.8-.8h22.5c.44 0 .8.36.8.8v38.4c0 .44-.36.8-.8.8zm-21.66-1.6h20.8v-36.8h-20.8z" stroke="#fff" stroke-opacity="0" fill="#fff"/><path d="M1060.08 533.76h15.84v1.6h-15.84v-1.6zM1060.08 540.78h15.84v1.6h-15.84v-1.6zM1060.08 547.8h15.84v1.6h-15.84v-1.6z" stroke="#fff" stroke-opacity="0" fill="#fff"/><use xlink:href="#c" transform="matrix(1,0,0,1,1111,540) translate(0 21.52777777777778)"/><use xlink:href="#d" transform="matrix(1,0,0,1,1111,540) translate(81.41276041666667 21.52777777777778)"/><path d="M1040 966a6 6 0 0 1 6-6h308a6 6 0 0 1 6 6v308a6 6 0 0 1-6 6h-308a6 6 0 0 1-6-6z" stroke="#5a6c86" stroke-width="2" fill="#fff" fill-opacity="0"/><path d="M1040 960h56v56h-56v-56z" stroke="#fff" stroke-opacity="0" fill="#5a6c86"/><path d="M1079.25 1008h-22.5c-.44 0-.8-.36-.8-.8v-38.4c0-.44.36-.8.8-.8h22.5c.44 0 .8.36.8.8v38.4c0 .44-.36.8-.8.8zm-21.66-1.6h20.8v-36.8h-20.8z" stroke="#fff" stroke-opacity="0" fill="#fff"/><path d="M1060.08 973.76h15.84v1.6h-15.84v-1.6zM1060.08 980.78h15.84v1.6h-15.84v-1.6zM1060.08 987.8h15.84v1.6h-15.84v-1.6z" stroke="#fff" stroke-opacity="0" fill="#fff"/><use xlink:href="#c" transform="matrix(1,0,0,1,1111,980) translate(0 21.52777777777778)"/><use xlink:href="#e" transform="matrix(1,0,0,1,1111,980) translate(81.41276041666667 21.52777777777778)"/><path d="M280 86a6 6 0 0 1 6-6h308a6 6 0 0 1 6 6v388a6 6 0 0 1-6 6H286a6 6 0 0 1-6-6z" fill-opacity="0"/><path d="M306.53 80h20.54m10.26 0h20.54m10.26 0h20.54m10.26 0h20.54m10.26 0h20.54m10.26 0h20.54m10.26 0h20.54m10.26 0h20.54m10.26 0h20.54m10.26 0H594l.94.07.9.22.88.35.8.5.72.6.6.72.5.8.37.88.23.9.07.95v9.95m0 9.95v19.9m0 9.94v19.9m0 9.95v19.9m0 9.94v19.9m0 9.94v19.9m0 9.95v19.9m0 9.94v19.9m0 9.95v19.9m0 9.95v19.9m0 9.94v19.9m0 9.96v19.9m0 9.94v19.9m0 9.95V474l-.07.94-.22.9-.35.88-.5.8-.6.72-.72.6-.8.5-.88.37-.9.23-.95.07h-10.27m-10.26 0h-20.54m-10.26 0h-20.54m-10.26 0h-20.54m-10.26 0h-20.54m-10.26 0h-20.54m-10.26 0h-20.54m-10.26 0h-20.54m-10.26 0h-20.54m-10.26 0h-20.54m-10.26 0H286l-.94-.07-.9-.22-.88-.35-.8-.5-.72-.6-.6-.72-.5-.8-.37-.88-.23-.9-.07-.95v-9.95m0-9.95v-19.9m0-9.94v-19.9m0-9.95v-19.9m0-9.94v-19.9m0-9.94v-19.9m0-9.95v-19.9m0-9.94v-19.9m0-9.95v-19.9m0-9.95v-19.9m0-9.94v-19.9m0-9.96v-19.9m0-9.95v-19.9m0-9.95V86l.07-.94.22-.9.35-.88.5-.8.6-.72.72-.6.8-.5.88-.37.9-.23.95-.07h10.27" stroke="#0e76d4" stroke-width="2" fill="none"/><path d="M290 90h36v36h-36V90z" stroke="#000" stroke-opacity="0" fill-opacity="0"/><path d="M291 120.16c0 .13.06.23.16.3l2.32 1.27 3.9 2.28c.18.07.38.04.47-.12l1.33-2.24c.07-.16.02-.33-.13-.42l-4.6-2.6c-.1-.06-.15-.16-.15-.3v-20.6c0-.14.06-.24.16-.3l4.6-2.6c.14-.1.2-.26.12-.42l-1.33-2.24c-.1-.16-.3-.23-.46-.16l-3.84 2.2-2.4 1.36c-.1.06-.16.16-.16.3v24.3z" stroke="#000" stroke-opacity="0" fill="#949494"/><path d="M294.28 97.53l.12-.1 4.6-2.6.06-.04c.12-.1.15-.28.06-.4l-1.32-2.24-.03-.06c-.08-.14-.26-.2-.4-.1l-3.87 2.22-2.38 1.33s-.1 0-.12.13l1.8 1.02zM299 121.2l-4.6-2.62c-.07-.04-.1-.1-.14-.18l-3.24 2h.1l2.3 1.3 4 2.23s0 .02.03.03c.15.07.33 0 .4-.15l1.32-2.23v-.04c.05-.15-.04-.3-.18-.34z" stroke="#000" stroke-opacity="0" fill="#a3a3a3"/><path d="M325 120.16c0 .13-.06.23-.16.3l-2.33 1.27-3.9 2.28c-.17.07-.36.04-.46-.12l-1.32-2.24c-.08-.16-.03-.33.12-.42l4.6-2.6c.1-.06.15-.16.15-.3v-20.6c0-.14-.06-.24-.16-.3l-4.6-2.6c-.15-.1-.2-.26-.12-.42l1.32-2.24c.08-.16.28-.23.45-.16l3.83 2.18 2.4 1.35c.1.06.16.16.16.28v24.36z" stroke="#000" stroke-opacity="0" fill="#949494"/><path d="M321.7 97.53l-.1-.1-4.6-2.6c-.15-.07-.22-.24-.15-.38 0-.02 0-.03.02-.05l1.32-2.24c.04-.16.2-.24.37-.2l.06.04 3.86 2.18 2.37 1.33c0 .02 0 .02.12.14l-1.8 1zM317 121.2l4.6-2.62c.08-.04.12-.1.15-.18l3.24 2-2.3 1.3-4 2.23c-.14.1-.33.06-.42-.08l-.03-.04-1.32-2.23c-.08-.13-.04-.3.08-.38z" stroke="#000" stroke-opacity="0" fill="#a3a3a3"/><path d="M318.62 101.84v12.28l-10.66 6.2V108l10.66-6.18z" stroke="#000" stroke-opacity="0" fill="#32bedd"/><path d="M318.62 101.86l-10.64 6.18-10.64-6.18 10.64-6.17 10.64 6.16z" stroke="#000" stroke-opacity="0" fill="#9cebff"/><path d="M307.96 108.03v12.28l-10.62-6.17v-12.3l10.62 6.2z" stroke="#000" stroke-opacity="0" fill="#50e6ff"/><path d="M297.34 114.17l10.62-6.13v12.3l-10.62-6.17z" stroke="#000" stroke-opacity="0" fill="#9cebff"/><path d="M318.62 114.17l-10.66-6.13v12.3l10.66-6.17z" stroke="#000" stroke-opacity="0" fill="#50e6ff"/><use xlink:href="#f" transform="matrix(1,0,0,1,356,100) translate(0 21.52777777777778)"/><path d="M310 80c-16.56 0-30 13.44-30 30 0 16.62 13.44 30 30 30 16.62 0 30-13.44 30-30 0-16.62-13.38-30-30-30zm7.92 56.04V131c0-2.04-1.14-3.78-2.7-4.92h.3c2.88-.3 5.34-1.2 5.34-1.2s3.66-1.14 5.7-3.48c2.1-2.58 2.7-6.18 2.7-6.18s.6-3.96 0-7.14c-.6-2.94-3-5.16-3-5.16s.78-2.1.66-4.14c0-2.04-.96-4.08-.96-4.08s-1.74-.18-3.66.6c-2.22.96-4.74 2.7-4.74 2.7s-1.74-.6-3.78-.78c-1.86-.36-4.08-.36-4.08-.36s-2.22 0-4.14.36c-2.04.3-3.78.78-3.78.78s-2.52-1.74-4.74-2.7c-1.86-.78-3.6-.6-3.6-.6s-.96 2.04-.96 4.08c0 2.1.6 4.14.6 4.14s-2.16 2.04-2.94 5.16c-.84 3.18 0 7.14 0 7.14s.42 3.6 2.64 6.18c2.1 2.34 5.7 3.48 5.7 3.48s2.52.9 5.34 1.2h.48c-1.08 1.14-2.22 2.88-2.22 4.92v5.04c-11.16-3.3-19.26-13.74-19.26-26.04 0-15 12.18-27.12 27.18-27.12S337.36 95 337.36 110c0 12.3-8.22 22.74-19.44 26.04z" stroke="#000" stroke-opacity="0"/><path d="M818 425.42l57.98 8.62v5.08c0 7.55-25.98 13.65-58 13.65-32 0-57.98-6.1-57.98-13.64v-5.53z" fill="#8c3123"/><path d="M818.02 462.13c24.2 0 44.93-3.53 53.58-8.5l2.88-4.78 1.15-4.4v5.45l-19 81c0 5.08-17.3 9.1-38.6 9.1-21.33 0-38.6-4.02-38.6-9.1l-19.02-81v-5.35l4.38 9.27c8.76 4.87 29.27 8.3 53.24 8.3z" fill="#8c3123"/><path d="M818 420c32 0 58 6.12 58 13.62 0 7.5-26 13.57-58 13.57s-58-6.02-58-13.58c0-7.56 26-13.62 58-13.62z" fill="#e05243"/><path d="M818 456.6c29.84 0 54.4-5.2 57.62-12.06l-19.02 81c0 5.05-17.28 9.1-38.6 9.1-21.33 0-38.6-4.05-38.6-9.1l-19.03-81c3.23 6.85 27.77 12.07 57.62 12.07z" fill="#e05243"/><path d="M804.35 464.38h25.1v24.96h-25.1v-24.96zM796.75 498.17c6.84 0 12.4 5.5 12.4 12.3 0 6.8-5.56 12.3-12.4 12.3-6.83 0-12.38-5.5-12.38-12.3 0-6.8 5.55-12.3 12.38-12.3zM848.8 522.2H824l12.4-22.94 12.4 22.94z" fill="#fff"/><use xlink:href="#g" transform="matrix(1,0,0,1,760,540) translate(44.008029513888886 21.52777777777778)"/><path d="M1120 266a6 6 0 0 1 6-6h148a6 6 0 0 1 6 6v148a6 6 0 0 1-6 6h-148a6 6 0 0 1-6-6z" stroke="#3a414a" stroke-width="2" fill="#fff"/><use xlink:href="#h" transform="matrix(1,0,0,1,1125,265) translate(21.48980034722223 82.46527777777777)"/><a xlink:href="http://Express.js" target="_blank" transform="matrix(1,0,0,1,1125,265)"><path class="lucid-link lucid-hotspot lucid-overlay-hotspot" fill-opacity="0" d="M21.5 60.94h107v26.9h-107z"/></a><path d="M1120 767a6 6 0 0 1 6-6h148a6 6 0 0 1 6 6v148a6 6 0 0 1-6 6h-148a6 6 0 0 1-6-6z" stroke="#3a414a" stroke-width="2" fill="#fff"/><use xlink:href="#i" transform="matrix(1,0,0,1,1125,766) translate(38.753255208333336 68.40277777777777)"/><use xlink:href="#j" transform="matrix(1,0,0,1,1125,766) translate(38.57964409722222 95.29079861111111)"/><path d="M1120 606a6 6 0 0 1 6-6h148a6 6 0 0 1 6 6v148a6 6 0 0 1-6 6h-148a6 6 0 0 1-6-6z" stroke="#3a414a" stroke-width="2" fill="#fff"/><use xlink:href="#k" transform="matrix(1,0,0,1,1125,605) translate(9.429253472222229 82.46527777777777)"/><use xlink:href="#j" transform="matrix(1,0,0,1,1125,605) translate(67.73003472222223 82.46527777777777)"/><path d="M1375.5 320H1514a6 6 0 0 1 6 6v339.07" stroke="#3a414a" fill="none"/><path d="M1362 320l13-7.5v15zM1520 679.83l-4.63-14.26h9.27z" stroke="#3a414a" fill="#3a414a"/><path d="M490.4 1139.27c0 3.97-3.3 7.17-7.3 7.17h-95.8c-4 0-7.3-3.2-7.3-7.17v-71.98c0-3.98 3.3-7.17 7.3-7.17h95.8c4 0 7.3 3.2 7.3 7.16v71.97z" stroke="#000" stroke-opacity="0" fill="#3e3e3e"/><path d="M387.1 1072.1h96.1v62.35h-96.1v-62.34z" stroke="#000" stroke-opacity="0" fill="#3999c6"/><path d="M442.4 1066.57c0 .9-.74 1.65-1.66 1.65h-10.6c-.92 0-1.66-.74-1.66-1.65 0-.9.74-1.65 1.66-1.65h10.6c.92 0 1.66.74 1.66 1.65" stroke="#000" stroke-opacity="0" fill="#fff"/><path d="M454.4 1060.13h-67.18c-4.02 0-7.22 3.2-7.22 7.16v71.97c0 3.97 3.2 7.17 7.22 7.17h28.8l38.38-86.3z" stroke="#000" stroke-opacity="0" fill="#fff" fill-opacity=".15"/><path d="M500 1174.13c0 3.2-2.6 5.87-5.85 5.87h-43.5c-3.26 0-5.85-2.68-5.85-5.87v-74.57c0-3.2 2.6-5.87 5.85-5.87h43.5c3.26 0 5.85 2.67 5.85 5.86v74.57z" stroke="#000" stroke-opacity="0" fill="#3e3e3e"/><path d="M449.6 1103.28h45.6V1168h-45.6v-64.72z" stroke="#000" stroke-opacity="0" fill="#59b4d9"/><path d="M482.26 1098.9c0 .8-1.05 1.45-2.35 1.45h-15c-1.3 0-2.36-.65-2.36-1.45 0-.8 1.05-1.46 2.35-1.46h15c1.3 0 2.36.65 2.36 1.45" stroke="#000" stroke-opacity="0" fill="#fff"/><path d="M488.2 1093.7h-37.5c-3.25 0-5.9 2.67-5.9 5.86v74.57c0 3.28 2.65 5.87 5.9 5.87h5.13l32.38-86.3z" stroke="#000" stroke-opacity="0" fill="#fff" fill-opacity=".15"/><path d="M388.3 1060h93.85c.97 0 1.45.52 1.45 1.47V1145c0 .96-.48 1.48-1.45 1.48h-93.83c-.97 0-1.46-.52-1.46-1.47v-83.53c0-.95.5-1.47 1.45-1.47z" stroke="#000" stroke-opacity="0" stroke-width="0" fill-opacity="0"/><path d="M381.56 1067.37h107.4c1 0 1.44.5 1.44 1.43v69c0 .94-.44 1.44-1.43 1.44h-107.4c-1 0-1.44-.5-1.44-1.43v-69c0-.93.44-1.43 1.43-1.43z" stroke="#000" stroke-opacity="0" stroke-width="0" fill-opacity="0"/><path d="M452.02 1093.68h40.57c.95 0 1.42.52 1.42 1.47v83.26c0 .96-.47 1.47-1.43 1.47H452c-.96 0-1.44-.5-1.44-1.46v-83.25c0-.95.48-1.47 1.44-1.47z" stroke="#000" stroke-opacity="0" stroke-width="0" fill-opacity="0"/><path d="M446.27 1099.65h52.3c.93 0 1.43.44 1.43 1.4v71.65c0 .97-.5 1.4-1.43 1.4h-52.3c-.94 0-1.44-.43-1.44-1.4v-71.64c0-.96.5-1.4 1.44-1.4z" stroke="#000" stroke-opacity="0" stroke-width="0" fill-opacity="0"/><use xlink:href="#l" transform="matrix(1,0,0,1,350,1189) translate(27.31082519531249 16.589501953125)"/><use xlink:href="#m" transform="matrix(1,0,0,1,350,1189) translate(95.1535986328125 16.589501953125)"/><path d="M440 481.5v562.1" stroke="#3a414a" fill="none"/><path d="M440.48 481.5h-.96v-.5h.96z" stroke="#3a414a" stroke-width=".05" fill="#3a414a"/><path d="M440 1058.38l-4.63-14.27 9.26.02z" stroke="#3a414a" fill="#3a414a"/><path d="M1038.5 1120H516.38" stroke="#3a414a" fill="none"/><path d="M1039 1120.47h-.5v-.94h.5z" stroke="#3a414a" stroke-width=".05" fill="#3a414a"/><path d="M501.62 1120l14.26-4.63v9.27z" stroke="#3a414a" fill="#3a414a"/><path d="M760 796.15c-.12 1.28.96 2.57 3.24 3.56l48.84 19.94c4.32 1.8 11.52 1.8 15.84 0l48.84-19.93c2.28-.98 3.36-2.27 3.24-3.55v-11.43c.12 1.24-.96 2.53-3.24 3.48l-48.84 19.94c-4.32 1.8-11.52 1.8-15.84 0l-48.84-19.94c-2.52-1.06-3.6-2.5-3.12-3.85l-.12 11.8z" stroke="#000" stroke-opacity="0" fill="#ba141a"/><path d="M876.76 781.7c4.32 1.77 4.32 4.72 0 6.48l-48.84 20c-4.32 1.76-11.52 1.76-15.84 0l-48.84-20c-4.32-1.76-4.32-4.7 0-6.48l48.84-19.98c4.32-1.77 11.52-1.77 15.84 0l48.84 19.98z" stroke="#000" stroke-opacity="0" fill="#ba141a"/><path d="M760 775.96c-.12 1.28.96 2.56 3.24 3.55l48.84 19.95c4.32 1.8 11.52 1.8 15.84 0l48.84-19.94c2.28-.98 3.36-2.26 3.24-3.54v-11.44c.12 1.25-.96 2.53-3.24 3.48l-48.84 19.94c-4.32 1.8-11.52 1.8-15.84 0L763.24 768c-2.52-1.06-3.6-2.5-3.12-3.84l-.12 11.8z" stroke="#000" stroke-opacity="0" fill="#ba141a"/><path d="M876.76 761.5c4.32 1.77 4.32 4.72 0 6.5l-48.84 19.97c-4.32 1.77-11.52 1.77-15.84 0L763.24 768c-4.32-1.78-4.32-4.73 0-6.5l48.84-19.98c4.32-1.77 11.52-1.77 15.84 0l48.84 20z" stroke="#000" stroke-opacity="0" fill="#ba141a"/><path d="M760 755.76c-.12 1.28.96 2.57 3.24 3.56l48.84 19.93c4.32 1.8 11.52 1.8 15.84 0l48.84-19.93c2.28-1 3.36-2.28 3.24-3.56v-11.43c.12 1.24-.96 2.52-3.24 3.48l-48.84 19.95c-4.32 1.8-11.52 1.8-15.84 0l-48.84-19.94c-2.52-1.05-3.6-2.48-3.12-3.84l-.12 11.8z" stroke="#000" stroke-opacity="0" fill="#ba141a"/><path d="M760 796.15c-.12 1.28.96 2.57 3.24 3.56l48.84 19.94c4.32 1.8 11.52 1.8 15.84 0l48.84-19.93c2.28-.98 3.36-2.27 3.24-3.55v-11.43c.12 1.24-.96 2.53-3.24 3.48l-48.84 19.94c-4.32 1.8-11.52 1.8-15.84 0l-48.84-19.94c-2.52-1.06-3.6-2.5-3.12-3.85l-.12 11.8z" stroke="#000" stroke-opacity="0" fill="#93171b"/><path d="M760 775.96c-.12 1.28.96 2.56 3.24 3.55l48.84 19.95c4.32 1.8 11.52 1.8 15.84 0l48.84-19.94c2.28-.98 3.36-2.26 3.24-3.54v-11.44c.12 1.25-.96 2.53-3.24 3.48l-48.84 19.94c-4.32 1.8-11.52 1.8-15.84 0L763.24 768c-2.52-1.06-3.6-2.5-3.12-3.84l-.12 11.8z" stroke="#000" stroke-opacity="0" fill="#93171b"/><path d="M760 755.76c-.12 1.28.96 2.57 3.24 3.56l48.84 19.93c4.32 1.8 11.52 1.8 15.84 0l48.84-19.93c2.28-1 3.36-2.28 3.24-3.56v-11.43c.12 1.24-.96 2.52-3.24 3.48l-48.84 19.95c-4.32 1.8-11.52 1.8-15.84 0l-48.84-19.94c-2.52-1.05-3.6-2.48-3.12-3.84l-.12 11.8z" stroke="#000" stroke-opacity="0" fill="#93171b"/><path d="M876.76 741.3c4.32 1.78 4.32 4.73 0 6.5l-48.84 19.98c-4.32 1.77-11.52 1.77-15.84 0l-48.84-20c-4.32-1.75-4.32-4.7 0-6.47l48.84-19.97c4.32-1.77 11.52-1.77 15.84 0l48.84 19.98z" stroke="#000" stroke-opacity="0" fill="#ba141a"/><path d="M805 748.32c-5.6 2.47-14.6 2.47-20.2 0-5.54-2.48-5.54-6.48 0-8.97 5.6-2.46 14.6-2.46 20.2 0 5.54 2.5 5.54 6.5 0 8.97zM801.2 754.68l28.55-3.4-7.65 12.68-20.9-9.28z" stroke="#000" stroke-opacity="0" fill="#fff"/><path d="M845.94 751.5l-17.07-7.6 17.07-7.58v15.17z" stroke="#000" stroke-opacity="0" fill="#76191c"/><path d="M814.53 734.63l-11.16-1 9.92-2.5-1.32-5 8.4 3.4 10.34-2.1-4.73 4.6 7.7 3.73-11.32-.58-5.6 4.4-2.25-4.95z" stroke="#000" stroke-opacity="0" fill="#fff"/><path d="M863.02 743.9l-17.08-7.58v15.17l17.08-7.6z" fill="#93171b"/><use xlink:href="#n" transform="matrix(1,0,0,1,730,830) translate(68.2862255859375 16.589501953125)"/><path d="M1375.5 1120H1514a6 6 0 0 0 6-6V795.08" stroke="#3a414a" fill="none"/><path d="M1362 1120l13-7.5v15zM1520 780.32l4.63 14.26h-9.27z" stroke="#3a414a" fill="#3a414a"/><path d="M1118.5 680H826a6 6 0 0 0-6 6v17.84" stroke="#3a414a" fill="none"/><path d="M1119 680.48h-.5v-.96h.5z" stroke="#3a414a" stroke-width=".05" fill="#3a414a"/><path d="M820 718.6l-4.63-14.26h9.26z" stroke="#3a414a" fill="#3a414a"/><path d="M1118.5 841H823.85a3.85 3.85 0 0 1-3.85-3.85" stroke="#3a414a" fill="none"/><path d="M1119 841.48h-.5v-.96h.5z" stroke="#3a414a" stroke-width=".05" fill="#3a414a"/><path d="M820 822.4l4.63 14.25h-9.26z" stroke="#3a414a" fill="#3a414a"/><path d="M1118.5 897.55H512.05a6 6 0 0 1-6-6V497.38" stroke="#3a414a" fill="none"/><path d="M1119 898.02h-.5v-.94h.5z" stroke="#3a414a" stroke-width=".05" fill="#3a414a"/><path d="M506.05 482.62l4.63 14.26h-9.26z" stroke="#3a414a" fill="#3a414a"/><path d="M868.2 483.73h119.14a6 6 0 0 1 6 6V632a6 6 0 0 0 6 6h103.28" stroke="#3a414a" fill="none"/><path d="M868.2 484.2h-.62l.22-.94h.4z" stroke="#3a414a" stroke-width=".05" fill="#3a414a"/><path d="M1117.38 638l-14.26 4.63v-9.26z" stroke="#3a414a" fill="#3a414a"/><path d="M360 206a6 6 0 0 1 6-6h148a6 6 0 0 1 6 6v148a6 6 0 0 1-6 6H366a6 6 0 0 1-6-6z" stroke="#3a414a" stroke-width="2" fill="#fff"/><use xlink:href="#a" transform="matrix(1,0,0,1,365,205) translate(16.910807291666664 82.46527777777777)"/><use xlink:href="#o" transform="matrix(1,0,0,1,365,205) translate(98.32356770833334 82.46527777777777)"/><path d="M751.96 483.73h-101.3a6 6 0 0 1-6-6V286a6 6 0 0 0-6-6H521.5" stroke="#3a414a" fill="none"/><path d="M766.72 483.73l-14.26 4.63v-9.27z" stroke="#3a414a" fill="#3a414a"/><path d="M521.5 280.48h-.5v-.96h.5z" stroke="#3a414a" stroke-width=".05" fill="#3a414a"/><path d="M1024.5 320H786a6 6 0 0 1-6-6v-61.5a6 6 0 0 0-6-6H537.38" stroke="#3a414a" fill="none"/><path d="M1038 320l-13 7.5v-15zM522.62 246.5l14.26-4.63v9.26z" stroke="#3a414a" fill="#3a414a"/><path d="M1022.62 243.6H1005a6 6 0 0 1-6-6V216a6 6 0 0 0-6-6H647a6 6 0 0 1-6-6v-34.15a6 6 0 0 0-6-6h-19.5" stroke="#3a414a" fill="none"/><path d="M1037.38 243.6l-14.26 4.64v-9.28zM602 163.85l13-7.5v15z" stroke="#3a414a" fill="#3a414a"/><path d="M1104.06 1100.13l2.86.26 2.34.44 1.82.52 1.82.6 1.56.57 1.3.7 1.3.72 1.04.72 1.04.78 1.04.84.78.83.78.9.52.92.78 1.03.52 1.1.52 1.17.26 1.23.52 1.37.26 1.5.26 1.67v4.67l-.52 2-.52 1.82-.52 1.62-.78 1.5-.78 1.28-1.04 1.24-1.04 1.03-1.3.97-1.3.84-1.3.72-1.56.6-1.82.44-1.04.2 2.6.7 1.82.8 1.56.9 1.3.97 1.04 1.1.78 1.3.78 1.55.78 1.94.26 2.66.26.6.52 14.7h-17.16V1161.8l-.26-9.87-.52-3.37-.52-1.7-.52-1.15-.78-.77-.78-.65-1.04-.58-1.56-.46-3.12-.26-.52-.06H1070v-13.36h27.56l3.9-.26 2.08-.5 1.3-.53 1.04-.6.78-.63.52-.72.52-.84.52-1.04.26-1.36v-3.24l-.26-1.23-.52-1.03-.52-.9-.78-.85-.78-.78-1.3-.65-1.56-.66-2.34-.45-2.86-.2H1070V1100h30.68zM1089.24 1154.33l.78.32.78.52.26.6.52.9v7.5H1070v-9.97h17.94zM1304 1130.15l7.8-10.77h16.9l-16.38 21.53 17.68 23.87h-18.2l-8.84-12.32-9.1 12.32h-16.9l17.68-23.15-16.12-22.23 17.94-.02zM1238.48 1117.96l2.08.13 1.82.3 1.56.47 1.3.45 1.04.58 1.04.65 1.04.72.78.84.78.92.78 1.03.78 1.24.52 1.35.78 1.68.26 2 .52 2.54v31.64h-16.38V1137.3l-.52-2.46-.52-1.24-.52-.77-.52-.58-.52-.45-.78-.4-1.04-.3-1.56-.14h-.26l-1.3.13-1.04.25-.78.4-.78.46-.52.58-.52.7-.78 1.05-.52 1.35-.52 2.27-.26 4.15v22.24h-16.38v-24.1l-.26-3-.26-2.46-.52-1.3-.52-.84-.52-.58-.78-.45-.78-.4-1.04-.3-1.56-.14h-.26l-1.04.13-1.04.25-.78.4-.78.46-.78.58-.52.78-.52.97-.78 1.48-.52 2.2-.26 4.1v22.23h-16.38v-45.37h16.38v6.8l1.04-1.55 1.04-1.37 1.04-1.22 1.3-1.03 1.56-.9 1.56-.8 1.82-.57 2.08-.4 2.6-.2 2.6.14 2.08.4 1.82.5 1.56.72 1.3.72 1.04.9 1.04 1.04 1.04 1.23.78 1.5.78 1.88.78-1.42 1.04-1.36 1.04-1.3 1.3-1.17 1.56-1.03 1.56-.9 1.82-.72 1.82-.6 2.08-.38 2.6-.13zM1152.94 1116.53l2.08.2 2.08.32 1.56.46 1.82.6 1.56.64 1.3.7 1.3.85 1.3.84 1.04.97 1.3 1.05.78 1.16 1.04 1.24.78 1.3.78 1.43.78 1.55.52 1.62.52 1.75.26 1.87.26 2V1143.78h-31.46v.2l.26 1.93.52 1.5.78 1.22 1.04 1.04 1.04.9 1.56.72 1.82.52 2.34.2 2.6-.2 1.82-.52 1.3-.7 1.04-.85 1.04-1.17 1.04-1.62 13 1.17-.26.85-.52 1.75-.52 1.56-.78 1.36-.52 1.3-1.04 1.22-.78 1.1-1.04 1.04-1.04.98-1.04.84-1.3.84-1.56.78-1.3.7-1.82.6-1.82.52-2.08.38-2.34.33-2.86.06h-.52l-2.6-.12-2.08-.26-2.08-.45-1.82-.45-1.56-.65-1.56-.65-1.56-.78-1.3-.78-1.3-.9-1.04-.9-1.04-1.05-1.04-1.03-.78-1.1-1.04-1.23-.52-1.23-.78-1.35-.52-1.43-.52-1.5-.52-1.6-.26-1.76-.26-1.88v-2.46l.26-2.02v-1.94l.52-1.82.52-1.68.52-1.7.52-1.54.78-1.5 1.04-1.42.78-1.36 1.04-1.23 1.04-1.16 1.3-1.1 1.3-.97 1.3-.98 1.56-.85 1.3-.7 1.82-.66 1.56-.6 1.82-.38 1.82-.4 1.82-.2 2.08-.05zm-3.9 11.87l-1.56.45-1.3.65-1.04.9-1.04 1.17-.78 1.7-.78 2.58h15.86v-1.55l-.78-1.82-.78-1.5-1.04-1.1-1.3-.84-1.56-.5-2.08-.27zM1275.4 1164.83h-16.38v-45.38h16.38zm0-49.66h-16.38v-14.46h16.38z" stroke="#000" stroke-opacity="0" stroke-width=".67" fill="#121212"/><path d="M1359.16 619.18l-5.04-2.86c0-.55-.12-.88-.12-1.32l4.32-3.74c.24-.22.36-.44.48-.66.36-.77-.12-1.65-1.08-1.98l-5.52-1.87c-.12-.55-.24-.88-.36-1.32l3.36-4.4c.24-.22.24-.44.36-.66.12-.88-.48-1.76-1.44-1.87l-5.88-.88c-.24-.44-.48-.77-.72-1.2l2.52-4.96c.12-.22.12-.44.12-.66 0-.88-.84-1.65-1.8-1.54l-5.88.22c-.36-.44-.6-.77-.96-1.1l1.32-5.28c.12-.22.12-.44 0-.77-.12-.77-1.08-1.32-2.04-1.1l-5.76 1.2c-.36-.32-.72-.54-1.2-.87l.24-5.4c0-.32 0-.54-.12-.76-.36-.77-1.44-1.1-2.28-.77l-5.4 2.3c-.48-.32-.84-.43-1.32-.65l-.96-5.4c0-.2-.12-.43-.24-.65-.6-.66-1.68-.88-2.52-.33l-4.8 3.08c-.48-.1-.84-.22-1.32-.33l-2.16-5.06c-.12-.34-.24-.45-.36-.67-.72-.55-1.8-.55-2.52.1l-3.96 3.97c-.6 0-1.08-.1-1.56-.1l-3.12-4.63c-.12-.22-.24-.44-.48-.55-.84-.44-1.92-.22-2.4.55l-3.12 4.62c-.48 0-.96.1-1.44.1l-4.08-3.96c-.24-.22-.36-.33-.72-.44-.84-.33-1.8.1-2.16 1l-2.04 5.05-1.44.33-4.8-3.08c-.24-.22-.48-.33-.84-.33-.84-.1-1.8.44-1.92 1.32l-.96 5.38c-.48.22-.84.44-1.32.66l-5.4-2.3c-.24-.12-.48-.12-.72-.12-.96 0-1.8.77-1.68 1.65l.24 5.4c-.48.32-.84.54-1.2.87l-5.76-1.2c-.24-.12-.48-.12-.84 0-.84.1-1.44.98-1.2 1.86l1.32 5.28c-.36.33-.6.66-.96 1.1l-5.88-.22c-.36 0-.6 0-.84.1-.84.34-1.2 1.33-.84 2.1l2.52 4.95c-.24.45-.48.78-.72 1.22l-5.88.88c-.24 0-.48.1-.72.22-.84.55-.96 1.54-.36 2.3l3.36 4.4-.36 1.33-5.52 1.87-.72.33c-.6.66-.6 1.65.12 2.3L1246 615c0 .44-.12.88-.12 1.32l-5.04 2.86c-.24.1-.48.22-.6.44-.48.77-.24 1.76.6 2.2l5.04 2.86c0 .44.12.88.12 1.43l-4.32 3.64c-.24.22-.36.33-.48.66-.36.77.12 1.65 1.08 1.98l5.52 1.98c.12.44.24.77.36 1.2l-3.36 4.4c-.24.23-.24.45-.36.78-.12.77.48 1.65 1.44 1.76l5.88.88c.24.44.48.77.72 1.2l-2.52 4.96c-.12.22-.12.44-.12.66 0 .88.84 1.65 1.8 1.54l5.88-.22c.36.44.6.77.96 1.1l-1.32 5.28c-.12.22-.12.55 0 .77.24.88 1.08 1.32 2.04 1.1l5.76-1.2c.36.32.72.54 1.2.87l-.24 5.4c0 .32 0 .54.12.76.36.77 1.44 1.1 2.28.77l5.4-2.3c.48.2.84.43 1.32.65l.96 5.4c0 .2.12.43.36.65.48.77 1.56.88 2.4.33l4.8-3.08 1.44.33 2.04 5.06c.12.34.24.45.48.67.6.55 1.68.55 2.4-.1L1294 670c.48 0 .96.1 1.44.1l3.12 4.63c.12.22.24.44.48.55.84.44 1.92.22 2.4-.55l3.12-4.62c.48 0 .96-.1 1.56-.1l3.96 3.96c.24.22.48.33.72.44.84.33 1.92-.1 2.16-1l2.16-5.05 1.32-.33 4.8 3.08c.24.22.48.22.72.33.96.1 1.92-.44 2.04-1.32l.96-5.38c.48-.22.84-.44 1.32-.66l5.4 2.3c.24.12.48.12.72.12.96 0 1.8-.77 1.68-1.65l-.24-5.4c.48-.32.84-.54 1.2-.87l5.76 1.2c.24.12.48.12.84 0 .96-.1 1.44-.98 1.2-1.86l-1.32-5.28c.36-.33.6-.66.96-1.1l5.88.22c.36 0 .6 0 .84-.1.84-.34 1.2-1.33.84-2.1l-2.52-4.95c.24-.45.48-.78.72-1.22l5.88-.88c.24 0 .48-.1.72-.33.84-.44.96-1.43.36-2.2l-3.36-4.4c.12-.44.24-.77.36-1.2l5.52-2c.36-.1.48-.2.72-.43.6-.55.6-1.54-.12-2.2l-4.32-3.63c0-.54.12-.98.12-1.42l5.04-2.86c.24-.1.48-.22.6-.44.48-.77.24-1.76-.6-2.2zm-33.72 38.28c-1.92-.44-3.12-2.2-2.64-3.96.48-1.65 2.28-2.75 4.2-2.42 1.92.44 3 2.2 2.64 3.96-.48 1.65-2.28 2.75-4.2 2.42zm-1.68-10.56c-1.8-.44-3.48.66-3.84 2.2l-1.8 7.7c-6 2.42-11.52 3.52-18.12 3.52-6.6 0-12.84-1.32-18.48-3.74l-1.8-7.6c-.36-1.64-2.04-2.63-3.84-2.3l-7.32 1.43c-1.44-1.3-2.64-2.52-3.84-4.06h35.88c.36 0 .6-.1.6-.44v-11.66c0-.33-.24-.33-.6-.33h-10.56v-7.36h11.4c.96 0 5.52.22 6.96 5.5.48 1.65 1.44 6.93 2.04 8.58.72 1.87 3.48 5.72 6.36 5.72h17.88c.24 0 .48 0 .72-.1-1.32 1.53-2.64 3.07-4.08 4.4l-7.56-1.55zm-49.56 10.45c-1.92.33-3.84-.88-4.2-2.64-.36-1.75.84-3.4 2.64-3.84 1.92-.33 3.84.77 4.32 2.53.36 1.75-.84 3.5-2.76 3.95zm-13.68-50.6c.84 1.65 0 3.52-1.8 4.3-1.8.76-3.84 0-4.68-1.66-.84-1.66 0-3.64 1.8-4.3 1.8-.77 3.96 0 4.68 1.65zm-4.08 9.13l7.56-3.2c1.68-.65 2.4-2.4 1.68-3.95l-1.56-3.2h6.24v25.64h-12.6c-1.56-5.28-2.04-9.9-1.44-15.3zm33.6-2.53v-7.6h14.88c.72 0 5.4.78 5.4 3.97 0 2.64-3.6 3.63-6.48 3.63h-13.8zm53.88 6.82c0 1-.12 1.98-.12 2.97h-4.56c-.48 0-.6.22-.6.66v1.87c0 4.5-2.76 5.5-5.16 5.72-2.28.2-4.8-.9-5.16-2.2-1.32-6.94-3.6-8.48-7.2-11 4.44-2.54 9-6.4 9-11.45 0-5.5-4.08-8.9-6.84-10.56-3.96-2.43-8.28-2.87-9.36-2.87h-46.56c6.72-6.93 14.64-11 24.48-12.76l5.52 5.28c1.2 1.2 3.24 1.32 4.56.1l6.12-5.38c13.2 2.3 23.4 9.02 30.12 19.7l-4.2 8.68c-.72 1.43 0 3.2 1.56 3.96l8.16 3.2c.12 1.32.24 2.75.24 4.07zm-46.56-44c1.44-1.32 3.72-1.2 5.04.1 1.32 1.33 1.32 3.3-.12 4.63-1.44 1.2-3.72 1.2-5.04-.1-1.32-1.33-1.32-3.42.12-4.63zm41.76 30.7c.72-1.66 2.88-2.32 4.68-1.66 1.8.78 2.52 2.76 1.8 4.3-.84 1.65-2.88 2.42-4.68 1.76-1.8-.77-2.64-2.75-1.8-4.4z" stroke="#000" stroke-opacity="0" stroke-width="12.5"/><path d="M1546.16 680c-4.8 0-9.48.62-14.16 1.76l-.36.1c-2.88-.4-5.76-.72-8.76-.72-6.12-.1-11.28 1.14-15.48 3.2-4.2-1.23-12.72-3.3-21.84-2.9-6.24.32-13.2 1.88-18.24 6.44-5.16 4.45-7.8 11.5-7.2 21.04.12 2.6.96 6.84 2.52 12.33 1.44 5.6 3.48 12.03 6.12 17.93s5.4 11.3 9.84 14.93c2.28 1.77 5.28 3.33 8.88 3.12 2.52 0 4.8-.93 6.72-2.28.96 1.03 2.04 1.45 3 1.86 1.2.52 2.28.94 3.48 1.15 2.16.5 5.76 1.03 10.08.5 1.44-.2 3-.6 4.44-1.23.12 1.45.12 2.8.24 4.25.24 4.46.36 8.6 1.92 12.23.24.62.96 3.63 3.72 6.32 2.88 2.7 8.28 4.36 14.52 3.32 4.32-.83 9.96-2.28 13.56-6.63 3.72-4.35 5.4-10.67 5.64-20.83l.36-1.45.84.1h.12c4.68.2 9.72-.4 13.92-2.07 3.84-1.45 6.6-2.9 8.76-5.5.48-.6 1.08-1.44 1.2-2.8.12-1.34-.84-3.4-2.28-4.34-3.12-1.96-5.04-1.24-7.08-.93-2.04.42-4.08.63-6.24.63 6-8.4 10.32-17.3 12.72-25.2 1.44-4.66 2.28-9 2.28-12.74.12-3.73-.24-7.05-3-9.95-8.4-9-20.16-11.5-29.28-11.6h-.96zm-.24 2.8c8.64-.1 19.68 1.97 27.72 10.47 1.68 1.86 2.28 4.66 2.16 8.08 0 3.42-.84 7.57-2.16 12.02-2.64 8.82-7.8 18.97-14.88 28.1l.72.3c1.56.52 4.92 1.04 11.76-.2 1.68-.3 2.88-.52 4.2.3.72.53 1.08 1.15.96 1.88 0 .5-.24 1.03-.72 1.45-1.2 1.65-3.84 3.2-7.2 4.56-2.88 1.14-7.08 1.76-10.8 1.76-1.92 0-3.72-.1-5.16-.52h-.12c-.48 4.56-1.8 13.58-2.64 17.72-.72 3.32-1.92 6.02-4.2 8-2.28 1.95-5.4 3.1-9.72 3.92-5.4.94-9.24-.1-11.76-1.86-2.52-1.76-3.72-4.15-4.44-5.6-.48-.93-.72-2.28-.96-3.94-.24-1.76-.36-3.83-.48-6.22-.12-3.62-.24-7.25-.12-10.88-2.28 1.66-5.04 2.8-8.04 3.32-3.6.4-6.72 0-8.64-.42-.84-.2-1.8-.52-2.64-.93-.84-.3-1.68-.82-2.28-1.65-.36-.52-.48-1.14-.24-1.66.12-.63.48-1.04 1.08-1.46.96-.72 2.4-1.04 4.44-1.45 3.6-.63 4.92-1.05 5.76-1.56.6-.42 1.44-1.35 2.76-2.7v-.2c-2.4 0-4.8-.52-6.84-1.56-.84.73-4.8 4.25-9.6 9.12-2.04 1.97-4.2 3.1-6.6 3.2-2.4.12-4.44-.92-6.36-2.37-3.6-2.9-6.48-7.98-9-13.8-2.52-5.7-4.56-12.1-6-17.5-1.44-5.5-2.28-9.85-2.4-11.92-.6-9 1.92-15.02 6.24-18.86 4.32-3.83 10.2-5.28 15.96-5.6 10.32-.5 20.16 2.5 22.08 3.22 3.84-2.18 8.76-3.52 15-3.52 2.88.1 5.76.4 8.64 1.03l.12-.1 3.72-.93c3.6-.63 7.08-1.04 10.68-1.04zm.84 2.9h-.72c-3 0-6 .3-8.88.83 6.48 2.38 11.28 6 14.76 9.64 2.4 2.6 4.32 5.4 5.76 8.3.6 1.13.96 2.17 1.2 2.9.12.3.24.62.24 1.03 0 .1 0 .3-.12.62.24 3.84-.96 6.33-1.08 9.95-.12 2.7.72 5.7.84 9.12.24 3.1-.24 6.52-2.64 9.94.12.2.36.42.6.63 6.48-8.5 11.04-17.94 13.56-26.02 1.32-4.35 2.04-8.3 2.04-11.3.12-3.1-.6-5.4-1.44-6.32-6.96-7.46-16.32-9.33-24.12-9.33zm-24.72 1.04c-6.12 0-10.44 1.55-13.8 3.94-3.36 2.38-5.64 5.6-7.2 8.9-1.8 4.05-2.4 7.9-2.64 10.48h.12c1.8-.93 4.2-1.76 6.84-2.28 2.52-.52 5.4-.62 7.92.2 2.52.84 4.56 2.7 5.28 5.7 3.72 14-1.08 19.3-2.88 23.22-.6 1.46-1.2 2.9-1.68 4.36.24 0 .48-.1.72-.1 1.2-.1 2.16.2 2.76.4 1.8.63 3 1.98 3.6 3.43.24.4.36.82.36 1.23.12.1.12.3.12.52-.24 5.4-.12 10.78.12 16.17.12 2.28.24 4.35.48 6 .24 1.57.48 2.8.72 3.23.72 1.34 1.68 3.2 3.36 4.45 1.8 1.14 4.2 1.97 8.88 1.14 3.96-.72 6.36-1.66 7.92-3.1 1.68-1.36 2.64-3.43 3.24-6.43.96-4.45 2.88-17.6 3.12-20.1-.12-1.87.12-3.32.96-4.46.72-1.03 1.8-1.76 2.76-2.18.48-.1.96-.3 1.32-.4l-1.2-1.36c-1.44-1.45-2.64-3-3.48-4.77-.36-.72-.84-1.34-1.32-2.07-.72-1.03-1.56-2.28-2.4-3.83-1.8-2.9-3.84-6.43-4.8-9.85-1.08-3.42-1.2-7.05 1.44-9.54 2.28-2.17 6.36-3.1 12.48-2.6-.24-.4-.36-.82-.6-1.44-1.44-2.7-3.24-5.28-5.4-7.57-5.16-5.6-13.56-11.08-26.52-11.3zm-34.2.2c-.6 0-1.32.1-1.92.1-5.28.22-10.2 1.56-13.68 4.67-3.48 3.12-5.88 8.2-5.4 16.7.12 1.66.96 6.12 2.4 11.5 1.44 5.3 3.48 11.6 5.88 17.2 2.52 5.5 5.4 10.38 8.28 12.66 1.32 1.14 2.64 1.65 3.72 1.55 1.08 0 2.4-.6 4.08-2.16 3-3.12 6.12-6.02 9.36-8.92-4.68-3.32-6.96-8.5-6-13.58.48-3.2.6-6.22.48-8.5 0-2.38-.24-3.83-.24-4.87v-.1c0-4.98 1.08-9.85 3-14.5 1.44-3.33 3.6-6.54 6.84-9.24-3.12-.83-8.76-2.17-14.88-2.38-.6 0-1.32-.1-1.92-.1zm63.84 22.8c-3.48.1-5.4.84-6.48 1.87-1.44 1.36-1.56 3.85-.6 6.85.84 3.1 2.76 6.43 4.44 9.23.84 1.45 1.8 2.7 2.4 3.73.72 1.05 1.2 1.77 1.56 2.5.24.52.6 1.03.96 1.55 1.32-2.5 1.56-4.77 1.44-7.25-.24-3-1.08-6.12-.96-9.23.12-3.73 1.08-6.1 1.08-8.9-1.2-.22-2.52-.32-3.84-.32zm-42.36.53c-1.08 0-2.16.1-3.24.3-2.04.52-4.08 1.15-5.88 1.98-.6.3-1.2.62-1.8 1.03h-.12c0 .73.12 2.18.24 4.46 0 2.5 0 5.6-.6 9.02-1.2 7.36 5.16 13.47 12.72 13.47.36-1.45 1.08-3 1.8-4.66 2.16-4.67 6.24-8.2 2.76-21.66-.48-2.17-1.68-3-3.24-3.52-.84-.3-1.68-.4-2.64-.4zm40.8.93h.24c.36 0 .6 0 .96.1.24 0 .48.1.72.2.12.1.24.32.36.53 0 .2-.12.4-.24.62-.12.2-.36.4-.48.62-.6.52-1.32.83-2.04.94-.72 0-1.44-.1-2.16-.5-.24-.12-.48-.33-.6-.53-.24-.1-.36-.3-.36-.52 0-.2 0-.4.24-.52.12-.2.36-.3.6-.4.48-.22 1.2-.43 1.92-.53h.84zm-40.32.72h.84c.84.1 1.44.32 2.04.52.24.1.48.3.72.52.12.2.24.4.24.73-.12.2-.24.5-.36.6-.24.32-.48.42-.72.63-.72.42-1.56.52-2.4.42-.84-.1-1.56-.42-2.16-.94-.24-.2-.36-.4-.6-.7-.12-.22-.24-.53-.24-.74.12-.52.6-.73 1.08-.83.48-.2.96-.2 1.56-.2zm46.68 31.72c-.72.2-1.44.3-1.92.52-.48.2-.96.52-1.2.93-.36.5-.6 1.34-.6 2.8.24.2.6.3.84.3.84.3 2.4.42 3.96.42 3.36-.1 7.32-.73 9.48-1.56 1.8-.62 3.48-1.55 4.92-2.6-7.2 1.25-11.28.84-13.8 0-.6-.2-1.2-.5-1.68-.82zm-41.4.42h-.12c-.24 0-.6.1-1.44.83-1.8 1.64-2.4 2.68-3.84 3.72-1.56.93-3.48 1.45-7.32 2.17-1.2.1-1.92.4-2.28.62.12.1.12.1.36.2.48.2 1.2.42 1.8.62 1.68.3 4.32.73 7.2.3 2.88-.4 5.76-1.54 8.28-4.44.48-.52.48-1.35.12-2.08-.36-.82-1.2-1.55-1.68-1.76-.36-.1-.72-.2-1.08-.2z" stroke="#000" stroke-opacity="0" stroke-width="15.63"/><path d="M1449.86 731.82h-74.37" stroke="#3a414a" fill="none"/><path d="M1464.63 731.82l-14.27 4.64v-9.27zM1362 731.82l13-7.5v15z" stroke="#3a414a" fill="#3a414a"/><defs><path d="M789 20c-398 0-667-293-667-764 0-473 273-766 655-766 315 0 558 198 612 487h-196c-61-191-204-311-415-311-262 0-471 207-471 590 0 380 208 588 482 588 249 0 420-165 425-427H828v-166h572v163c0 370-256 606-611 606" id="p"/><path d="M158 0v-1118h174v172h12c41-113 157-188 290-188 26 0 70 2 91 3v181c-11-2-60-10-108-10-161 0-279 109-279 260V0H158" id="q"/><path d="M471 26C259 26 90-98 90-318c0-256 228-303 435-329 202-27 287-16 287-108 0-139-79-219-234-219-161 0-248 86-283 164l-173-57c86-203 278-265 451-265 150 0 419 46 419 395V0H815v-152h-12C765-73 660 26 471 26zm31-159c199 0 310-134 310-271v-155c-30 35-226 55-295 64-131 17-246 59-246 186 0 116 97 176 231 176" id="r"/><path d="M481 0L54-1118h197c107 314 236 620 325 951 87-331 217-637 324-951h197L670 0H481" id="s"/><path d="M158 0v-1118h180V0H158zm91-1301c-68 0-125-53-125-119s57-119 125-119c69 0 126 53 126 119s-57 119-126 119" id="t"/><path d="M598-1118v154H368v674c0 100 37 144 132 144 23 0 62-6 92-12L629-6c-37 13-88 20-134 20-193 0-307-107-307-290v-688H20v-154h168v-266h180v266h230" id="u"/><path d="M140 405l46-156c120 36 205 19 263-150l32-93L54-1118h197c107 313 237 620 324 950 87-331 219-637 326-950h196L606 167c-68 178-176 259-334 259-64 0-113-12-132-21" id="v"/><g id="a"><use transform="matrix(0.010850694444444444,0,0,0.010850694444444444,0,0)" xlink:href="#p"/><use transform="matrix(0.010850694444444444,0,0,0.010850694444444444,16.57986111111111,0)" xlink:href="#q"/><use transform="matrix(0.010850694444444444,0,0,0.010850694444444444,24.94574652777778,0)" xlink:href="#r"/><use transform="matrix(0.010850694444444444,0,0,0.010850694444444444,37.09852430555556,0)" xlink:href="#s"/><use transform="matrix(0.010850694444444444,0,0,0.010850694444444444,49.58767361111111,0)" xlink:href="#t"/><use transform="matrix(0.010850694444444444,0,0,0.010850694444444444,54.96961805555556,0)" xlink:href="#u"/><use transform="matrix(0.010850694444444444,0,0,0.010850694444444444,62.67361111111112,0)" xlink:href="#v"/></g><path d="M657 26c-323 0-524-166-541-416h195c15 169 171 246 346 246 202 0 356-106 356-265 5-203-294-238-475-293-239-73-380-191-380-389 0-252 224-419 512-419 294 0 499 171 508 396H992c-17-145-151-228-328-228-193 0-321 102-321 242 0 156 175 211 284 241l149 41c160 44 422 134 422 412 0 244-197 432-541 432" id="w"/><path d="M628 24c-324 0-524-230-524-574 0-343 198-582 503-582 237 0 487 146 487 559v75H286c9 234 145 362 343 362 132 0 231-58 273-172l174 48C1024-91 857 24 628 24zM287-650h624c-17-190-120-322-304-322-192 0-309 151-320 322" id="x"/><g id="b"><use transform="matrix(0.010850694444444444,0,0,0.010850694444444444,0,0)" xlink:href="#w"/><use transform="matrix(0.010850694444444444,0,0,0.010850694444444444,14.2578125,0)" xlink:href="#x"/><use transform="matrix(0.010850694444444444,0,0,0.010850694444444444,27.213541666666664,0)" xlink:href="#q"/><use transform="matrix(0.010850694444444444,0,0,0.010850694444444444,35.92664930555555,0)" xlink:href="#s"/><use transform="matrix(0.010850694444444444,0,0,0.010850694444444444,47.98177083333333,0)" xlink:href="#x"/><use transform="matrix(0.010850694444444444,0,0,0.010850694444444444,60.937499999999986,0)" xlink:href="#q"/></g><g id="c"><use transform="matrix(0.010850694444444444,0,0,0.010850694444444444,0,0)" xlink:href="#p"/><use transform="matrix(0.010850694444444444,0,0,0.010850694444444444,16.57986111111111,0)" xlink:href="#q"/><use transform="matrix(0.010850694444444444,0,0,0.010850694444444444,24.94574652777778,0)" xlink:href="#r"/><use transform="matrix(0.010850694444444444,0,0,0.010850694444444444,37.09852430555556,0)" xlink:href="#s"/><use transform="matrix(0.010850694444444444,0,0,0.010850694444444444,49.58767361111111,0)" xlink:href="#t"/><use transform="matrix(0.010850694444444444,0,0,0.010850694444444444,54.96961805555556,0)" xlink:href="#u"/><use transform="matrix(0.010850694444444444,0,0,0.010850694444444444,62.67361111111112,0)" xlink:href="#v"/></g><path d="M180 0v-1490h510c348 0 508 209 508 474 0 266-160 477-507 477H370V0H180zm190-706h312c236 0 327-133 327-310 0-176-91-307-329-307H370v617" id="y"/><path d="M158 418v-1536h174v179h20c37-59 106-193 324-193 279 0 474 222 474 576 0 356-194 580-473 580-213 0-288-135-325-197h-14v591H158zm492-555c209 0 317-186 317-421 0-232-105-413-317-413-206 0-314 166-314 413 0 249 111 421 314 421" id="z"/><path d="M338-1490V0H158v-1490h180" id="A"/><path d="M338-670V0H158v-1118h173l1 207c72-158 192-221 342-221 226 0 378 139 378 422V0H872v-695c0-172-96-275-252-275-161 0-282 109-282 300" id="B"/><g id="d"><use transform="matrix(0.010850694444444444,0,0,0.010850694444444444,0,0)" xlink:href="#y"/><use transform="matrix(0.010850694444444444,0,0,0.010850694444444444,14.192708333333332,0)" xlink:href="#t"/><use transform="matrix(0.010850694444444444,0,0,0.010850694444444444,19.57465277777778,0)" xlink:href="#z"/><use transform="matrix(0.010850694444444444,0,0,0.010850694444444444,33.181423611111114,0)" xlink:href="#x"/><use transform="matrix(0.010850694444444444,0,0,0.010850694444444444,46.13715277777778,0)" xlink:href="#A"/><use transform="matrix(0.010850694444444444,0,0,0.010850694444444444,51.51909722222222,0)" xlink:href="#t"/><use transform="matrix(0.010850694444444444,0,0,0.010850694444444444,56.901041666666664,0)" xlink:href="#B"/><use transform="matrix(0.010850694444444444,0,0,0.010850694444444444,70.03038194444444,0)" xlink:href="#x"/></g><path d="M645 0H180v-1490h484c435 0 692 280 692 742 0 466-257 748-711 748zM370-168h263c363 0 539-218 539-580 0-358-176-574-521-574H370v1154" id="C"/><path d="M538 24C308 24 148-78 108-271l171-41c32 123 123 178 257 178 156 0 256-77 256-169 0-77-54-128-164-154l-186-44c-203-48-300-148-300-305 0-192 176-326 414-326 230 0 351 112 402 269l-163 42c-31-80-94-158-238-158-133 0-233 69-233 162 0 83 57 129 188 160l169 40c203 48 298 149 298 302 0 196-179 339-441 339" id="D"/><path d="M338-670V0H158v-1490h180v566c73-149 190-208 336-208 226 0 379 139 379 422V0H872v-695c0-172-96-275-252-275-161 0-282 109-282 300" id="E"/><path d="M677 24c-213 0-288-135-325-197h-20V0H158v-1490h180v551h14c37-59 106-193 324-193 279 0 474 222 474 576 0 356-194 580-473 580zm-27-161c209 0 317-186 317-421 0-232-105-413-317-413-206 0-314 166-314 413 0 249 111 421 314 421" id="F"/><path d="M613 24c-304 0-509-231-509-576 0-350 205-580 509-580 305 0 511 230 511 580 0 345-206 576-511 576zm0-161c226 0 329-195 329-415 0-222-103-419-329-419-223 0-326 196-326 419 0 220 103 415 326 415" id="G"/><path d="M577 24c-279 0-473-224-473-580 0-354 195-576 474-576 218 0 287 134 324 193h14v-551h180V0H922v-173h-20C865-111 790 24 577 24zm27-161c203 0 314-172 314-421 0-247-108-413-314-413-212 0-317 181-317 413 0 235 108 421 317 421" id="H"/><g id="e"><use transform="matrix(0.010850694444444444,0,0,0.010850694444444444,0,0)" xlink:href="#C"/><use transform="matrix(0.010850694444444444,0,0,0.010850694444444444,16.03732638888889,0)" xlink:href="#r"/><use transform="matrix(0.010850694444444444,0,0,0.010850694444444444,28.515625,0)" xlink:href="#D"/><use transform="matrix(0.010850694444444444,0,0,0.010850694444444444,40.24522569444444,0)" xlink:href="#E"/><use transform="matrix(0.010850694444444444,0,0,0.010850694444444444,53.385416666666664,0)" xlink:href="#F"/><use transform="matrix(0.010850694444444444,0,0,0.010850694444444444,66.9921875,0)" xlink:href="#G"/><use transform="matrix(0.010850694444444444,0,0,0.010850694444444444,80.53385416666666,0)" xlink:href="#r"/><use transform="matrix(0.010850694444444444,0,0,0.010850694444444444,93.01215277777777,0)" xlink:href="#q"/><use transform="matrix(0.010850694444444444,0,0,0.010850694444444444,101.00911458333333,0)" xlink:href="#H"/></g><path d="M180 0v-1490h190v644h782v-644h190V0h-190v-678H370V0H180" id="I"/><path d="M537 14c-226 0-379-139-379-422v-710h180v695c0 172 97 275 253 275 160 0 281-109 281-300v-670h181V0H879v-209C806-46 684 14 537 14" id="J"/><g id="f"><use transform="matrix(0.010850694444444444,0,0,0.010850694444444444,0,0)" xlink:href="#p"/><use transform="matrix(0.010850694444444444,0,0,0.010850694444444444,16.57986111111111,0)" xlink:href="#t"/><use transform="matrix(0.010850694444444444,0,0,0.010850694444444444,21.961805555555557,0)" xlink:href="#u"/><use transform="matrix(0.010850694444444444,0,0,0.010850694444444444,29.231770833333336,0)" xlink:href="#I"/><use transform="matrix(0.010850694444444444,0,0,0.010850694444444444,45.74652777777778,0)" xlink:href="#J"/><use transform="matrix(0.010850694444444444,0,0,0.010850694444444444,58.88671875,0)" xlink:href="#F"/></g><path d="M635 20c-292 0-500-160-510-396h192c11 142 145 229 315 229 187 0 323-105 323-260 0-161-125-274-346-274H488v-165h121c174 0 294-100 294-254 0-148-104-245-266-245-152 0-291 85-297 230H157c8-234 222-395 484-395 278 0 448 188 448 400 0 168-95 291-247 336v12c190 31 301 169 301 357 0 244-216 425-508 425" id="K"/><g id="g"><use transform="matrix(0.010850694444444444,0,0,0.010850694444444444,0,0)" xlink:href="#w"/><use transform="matrix(0.010850694444444444,0,0,0.010850694444444444,14.2578125,0)" xlink:href="#K"/></g><path d="M180 0v-1490h908v168H370v486h669v168H370v500h727V0H180" id="L"/><path d="M65 0l393-574-370-544h210c88 136 192 297 267 435 67-142 176-302 264-435h206L661-564 1053 0H844c-94-144-206-310-287-458C484-308 366-142 273 0H65" id="M"/><path d="M295 13c-75 0-135-60-135-135s60-135 135-135 135 60 135 135S370 13 295 13" id="N"/><path d="M157-1118h181V80c1 225-123 350-364 338V252c126 9 184-48 183-172v-1198zm91-183c-68 0-125-53-125-119s57-119 125-119c69 0 126 53 126 119s-57 119-126 119" id="O"/><g id="h"><use transform="matrix(0.010850694444444444,0,0,0.010850694444444444,0,0)" xlink:href="#L"/><use transform="matrix(0.010850694444444444,0,0,0.010850694444444444,13.35720486111111,0)" xlink:href="#M"/><use transform="matrix(0.010850694444444444,0,0,0.010850694444444444,25.48828125,0)" xlink:href="#z"/><use transform="matrix(0.010850694444444444,0,0,0.010850694444444444,39.09505208333333,0)" xlink:href="#q"/><use transform="matrix(0.010850694444444444,0,0,0.010850694444444444,47.09201388888888,0)" xlink:href="#x"/><use transform="matrix(0.010850694444444444,0,0,0.010850694444444444,60.04774305555554,0)" xlink:href="#D"/><use transform="matrix(0.010850694444444444,0,0,0.010850694444444444,71.77734374999999,0)" xlink:href="#D"/><use transform="matrix(0.010850694444444444,0,0,0.010850694444444444,83.50694444444443,0)" xlink:href="#N"/><use transform="matrix(0.010850694444444444,0,0,0.010850694444444444,89.90885416666666,0)" xlink:href="#O"/><use transform="matrix(0.010850694444444444,0,0,0.010850694444444444,95.29079861111111,0)" xlink:href="#D"/><path fill="#8080ff" d="M-1.1 4.54h109.23v1.52H-1.1z"/></g><g id="i"><use transform="matrix(0.010850694444444444,0,0,0.010850694444444444,0,0)" xlink:href="#p"/><use transform="matrix(0.010850694444444444,0,0,0.010850694444444444,16.57986111111111,0)" xlink:href="#t"/><use transform="matrix(0.010850694444444444,0,0,0.010850694444444444,21.961805555555557,0)" xlink:href="#u"/><use transform="matrix(0.010850694444444444,0,0,0.010850694444444444,29.231770833333336,0)" xlink:href="#I"/><use transform="matrix(0.010850694444444444,0,0,0.010850694444444444,45.74652777777778,0)" xlink:href="#J"/><use transform="matrix(0.010850694444444444,0,0,0.010850694444444444,58.88671875,0)" xlink:href="#F"/></g><path d="M409 0L70-1118h191c89 329 165 560 243 925 75-353 154-601 240-925h192c85 325 161 564 235 922 77-354 157-598 244-922h191L1267 0h-179c-86-307-176-590-250-913C763-588 675-308 588 0H409" id="P"/><path d="M158 0v-1490h180v865h22l478-493h223L593-638 1096 0H865L456-523 338-412V0H158" id="Q"/><g id="j"><use transform="matrix(0.010850694444444444,0,0,0.010850694444444444,0,0)" xlink:href="#P"/><use transform="matrix(0.010850694444444444,0,0,0.010850694444444444,17.784288194444446,0)" xlink:href="#G"/><use transform="matrix(0.010850694444444444,0,0,0.010850694444444444,31.10894097222222,0)" xlink:href="#q"/><use transform="matrix(0.010850694444444444,0,0,0.010850694444444444,39.82204861111111,0)" xlink:href="#Q"/><use transform="matrix(0.010850694444444444,0,0,0.010850694444444444,51.51909722222222,0)" xlink:href="#x"/><use transform="matrix(0.010850694444444444,0,0,0.010850694444444444,64.47482638888889,0)" xlink:href="#q"/></g><path d="M180 0v-1490h528c311 0 458 177 458 395 0 191-114 278-244 313v14c139 9 302 137 302 371 0 225-148 397-499 397H180zm190-168h350c232 0 321-102 321-231 0-149-120-277-311-277H370v508zm0-668h328c160 0 286-101 286-255 0-129-87-231-280-231H370v486" id="R"/><g id="k"><use transform="matrix(0.010850694444444444,0,0,0.010850694444444444,0,0)" xlink:href="#R"/><use transform="matrix(0.010850694444444444,0,0,0.010850694444444444,14.539930555555555,0)" xlink:href="#J"/><use transform="matrix(0.010850694444444444,0,0,0.010850694444444444,27.68012152777778,0)" xlink:href="#t"/><use transform="matrix(0.010850694444444444,0,0,0.010850694444444444,33.06206597222222,0)" xlink:href="#A"/><use transform="matrix(0.010850694444444444,0,0,0.010850694444444444,38.444010416666664,0)" xlink:href="#H"/></g><path d="M613 24c-304 0-509-231-509-576 0-350 205-580 509-580 216 0 392 114 453 309l-173 49c-33-115-133-197-280-197-223 0-326 196-326 419 0 220 103 415 326 415 150 0 252-85 285-206l172 49C1010-95 832 24 613 24" id="S"/><g id="l"><use transform="matrix(0.008173828125000001,0,0,0.008173828125000001,0,0)" xlink:href="#C"/><use transform="matrix(0.008173828125000001,0,0,0.008173828125000001,12.08091796875,0)" xlink:href="#x"/><use transform="matrix(0.008173828125000001,0,0,0.008173828125000001,21.513515625000004,0)" xlink:href="#s"/><use transform="matrix(0.008173828125000001,0,0,0.008173828125000001,30.921591796875006,0)" xlink:href="#t"/><use transform="matrix(0.008173828125000001,0,0,0.008173828125000001,34.97581054687501,0)" xlink:href="#S"/><use transform="matrix(0.008173828125000001,0,0,0.008173828125000001,44.53918945312501,0)" xlink:href="#x"/><use transform="matrix(0.008173828125000001,0,0,0.008173828125000001,54.29874023437501,0)" xlink:href="#D"/></g><g id="m"><use transform="matrix(0.008173828125000001,0,0,0.008173828125000001,0,0)" xlink:href="#p"/><use transform="matrix(0.008173828125000001,0,0,0.008173828125000001,12.489609375000002,0)" xlink:href="#q"/><use transform="matrix(0.008173828125000001,0,0,0.008173828125000001,18.513720703125003,0)" xlink:href="#G"/><use transform="matrix(0.008173828125000001,0,0,0.008173828125000001,28.551181640625003,0)" xlink:href="#J"/><use transform="matrix(0.008173828125000001,0,0,0.008173828125000001,38.4496875,0)" xlink:href="#z"/><use transform="matrix(0.008173828125000001,0,0,0.008173828125000001,48.699667968750006,0)" xlink:href="#D"/></g><path d="M180 0v-1490h510c348 0 508 194 508 460 0 198-88 351-276 417L1256 0h-220L726-579c-117 2-238 0-356 1V0H180zm190-747h312c235 0 327-108 327-283 0-177-92-293-329-293H370v576" id="T"/><g id="n"><use transform="matrix(0.008173828125000001,0,0,0.008173828125000001,0,0)" xlink:href="#T"/><use transform="matrix(0.008173828125000001,0,0,0.008173828125000001,10.527890625000001,0)" xlink:href="#x"/><use transform="matrix(0.008173828125000001,0,0,0.008173828125000001,20.287441406250004,0)" xlink:href="#H"/><use transform="matrix(0.008173828125000001,0,0,0.008173828125000001,30.537421875000007,0)" xlink:href="#t"/><use transform="matrix(0.008173828125000001,0,0,0.008173828125000001,34.59164062500001,0)" xlink:href="#D"/></g><path d="M783 20c-382 0-661-292-661-764 0-473 279-766 661-766 302 0 548 182 601 489h-190c-42-204-217-313-411-313-268 0-476 208-476 590 0 381 209 588 476 588 195 0 369-110 411-313h190c-52 303-296 489-601 489" id="U"/><path d="M180 0v-1490h190v1322h690V0H180" id="V"/><path d="M370-1490V0H180v-1490h190" id="W"/><g id="o"><use transform="matrix(0.010850694444444444,0,0,0.010850694444444444,0,0)" xlink:href="#U"/><use transform="matrix(0.010850694444444444,0,0,0.010850694444444444,16.23263888888889,0)" xlink:href="#V"/><use transform="matrix(0.010850694444444444,0,0,0.010850694444444444,28.79774305555556,0)" xlink:href="#W"/></g></defs></g></svg>