<svg width="179" height="175" xmlns="http://www.w3.org/2000/svg"><g fill="#007DF6" fill-rule="evenodd"><g transform="translate(0 .378)"><ellipse cx="2.5" cy="2.643" rx="2.5" ry="2.643"/><ellipse cx="17.5" cy="2.643" rx="2.5" ry="2.643"/><ellipse cx="31.5" cy="2.643" rx="2.5" ry="2.643"/><ellipse cx="46.5" cy="2.643" rx="2.5" ry="2.643"/><ellipse cx="60.5" cy="2.643" rx="2.5" ry="2.643"/><ellipse cx="75.5" cy="2.643" rx="2.5" ry="2.643"/><ellipse cx="89.5" cy="2.643" rx="2.5" ry="2.643"/><ellipse cx="104.5" cy="2.643" rx="2.5" ry="2.643"/><ellipse cx="118.5" cy="2.643" rx="2.5" ry="2.643"/><ellipse cx="133.5" cy="2.643" rx="2.5" ry="2.643"/><ellipse cx="147.5" cy="2.643" rx="2.5" ry="2.643"/><ellipse cx="162.5" cy="2.643" rx="2.5" ry="2.643"/><ellipse cx="176.5" cy="2.643" rx="2.5" ry="2.643"/></g><g transform="translate(0 29.078)"><ellipse cx="2.5" cy="2.643" rx="2.5" ry="2.643"/><ellipse cx="17.5" cy="2.643" rx="2.5" ry="2.643"/><ellipse cx="31.5" cy="2.643" rx="2.5" ry="2.643"/><ellipse cx="46.5" cy="2.643" rx="2.5" ry="2.643"/><ellipse cx="60.5" cy="2.643" rx="2.5" ry="2.643"/><ellipse cx="75.5" cy="2.643" rx="2.5" ry="2.643"/><ellipse cx="89.5" cy="2.643" rx="2.5" ry="2.643"/><ellipse cx="104.5" cy="2.643" rx="2.5" ry="2.643"/><ellipse cx="118.5" cy="2.643" rx="2.5" ry="2.643"/><ellipse cx="133.5" cy="2.643" rx="2.5" ry="2.643"/><ellipse cx="147.5" cy="2.643" rx="2.5" ry="2.643"/><ellipse cx="162.5" cy="2.643" rx="2.5" ry="2.643"/><ellipse cx="176.5" cy="2.643" rx="2.5" ry="2.643"/></g><g transform="translate(0 14.728)"><ellipse cx="2.5" cy="2.643" rx="2.5" ry="2.643"/><ellipse cx="17.5" cy="2.643" rx="2.5" ry="2.643"/><ellipse cx="31.5" cy="2.643" rx="2.5" ry="2.643"/><ellipse cx="46.5" cy="2.643" rx="2.5" ry="2.643"/><ellipse cx="60.5" cy="2.643" rx="2.5" ry="2.643"/><ellipse cx="75.5" cy="2.643" rx="2.5" ry="2.643"/><ellipse cx="89.5" cy="2.643" rx="2.5" ry="2.643"/><ellipse cx="104.5" cy="2.643" rx="2.5" ry="2.643"/><ellipse cx="118.5" cy="2.643" rx="2.5" ry="2.643"/><ellipse cx="133.5" cy="2.643" rx="2.5" ry="2.643"/><ellipse cx="147.5" cy="2.643" rx="2.5" ry="2.643"/><ellipse cx="162.5" cy="2.643" rx="2.5" ry="2.643"/><ellipse cx="176.5" cy="2.643" rx="2.5" ry="2.643"/></g><g transform="translate(0 42.673)"><ellipse cx="2.5" cy="2.643" rx="2.5" ry="2.643"/><ellipse cx="17.5" cy="2.643" rx="2.5" ry="2.643"/><ellipse cx="31.5" cy="2.643" rx="2.5" ry="2.643"/><ellipse cx="46.5" cy="2.643" rx="2.5" ry="2.643"/><ellipse cx="60.5" cy="2.643" rx="2.5" ry="2.643"/><ellipse cx="75.5" cy="2.643" rx="2.5" ry="2.643"/><ellipse cx="89.5" cy="2.643" rx="2.5" ry="2.643"/><ellipse cx="104.5" cy="2.643" rx="2.5" ry="2.643"/><ellipse cx="118.5" cy="2.643" rx="2.5" ry="2.643"/><ellipse cx="133.5" cy="2.643" rx="2.5" ry="2.643"/><ellipse cx="147.5" cy="2.643" rx="2.5" ry="2.643"/><ellipse cx="162.5" cy="2.643" rx="2.5" ry="2.643"/><ellipse cx="176.5" cy="2.643" rx="2.5" ry="2.643"/></g><g transform="translate(0 57.023)"><ellipse cx="2.5" cy="2.643" rx="2.5" ry="2.643"/><ellipse cx="17.5" cy="2.643" rx="2.5" ry="2.643"/><ellipse cx="31.5" cy="2.643" rx="2.5" ry="2.643"/><ellipse cx="46.5" cy="2.643" rx="2.5" ry="2.643"/><ellipse cx="60.5" cy="2.643" rx="2.5" ry="2.643"/><ellipse cx="75.5" cy="2.643" rx="2.5" ry="2.643"/><ellipse cx="89.5" cy="2.643" rx="2.5" ry="2.643"/><ellipse cx="104.5" cy="2.643" rx="2.5" ry="2.643"/><ellipse cx="118.5" cy="2.643" rx="2.5" ry="2.643"/><ellipse cx="133.5" cy="2.643" rx="2.5" ry="2.643"/><ellipse cx="147.5" cy="2.643" rx="2.5" ry="2.643"/><ellipse cx="162.5" cy="2.643" rx="2.5" ry="2.643"/><ellipse cx="176.5" cy="2.643" rx="2.5" ry="2.643"/></g><g transform="translate(0 70.618)"><ellipse cx="2.5" cy="2.643" rx="2.5" ry="2.643"/><ellipse cx="17.5" cy="2.643" rx="2.5" ry="2.643"/><ellipse cx="31.5" cy="2.643" rx="2.5" ry="2.643"/><ellipse cx="46.5" cy="2.643" rx="2.5" ry="2.643"/><ellipse cx="60.5" cy="2.643" rx="2.5" ry="2.643"/><ellipse cx="75.5" cy="2.643" rx="2.5" ry="2.643"/><ellipse cx="89.5" cy="2.643" rx="2.5" ry="2.643"/><ellipse cx="104.5" cy="2.643" rx="2.5" ry="2.643"/><ellipse cx="118.5" cy="2.643" rx="2.5" ry="2.643"/><ellipse cx="133.5" cy="2.643" rx="2.5" ry="2.643"/><ellipse cx="147.5" cy="2.643" rx="2.5" ry="2.643"/><ellipse cx="162.5" cy="2.643" rx="2.5" ry="2.643"/><ellipse cx="176.5" cy="2.643" rx="2.5" ry="2.643"/></g><g transform="translate(0 84.968)"><ellipse cx="2.5" cy="2.643" rx="2.5" ry="2.643"/><ellipse cx="17.5" cy="2.643" rx="2.5" ry="2.643"/><ellipse cx="31.5" cy="2.643" rx="2.5" ry="2.643"/><ellipse cx="46.5" cy="2.643" rx="2.5" ry="2.643"/><ellipse cx="60.5" cy="2.643" rx="2.5" ry="2.643"/><ellipse cx="75.5" cy="2.643" rx="2.5" ry="2.643"/><ellipse cx="89.5" cy="2.643" rx="2.5" ry="2.643"/><ellipse cx="104.5" cy="2.643" rx="2.5" ry="2.643"/><ellipse cx="118.5" cy="2.643" rx="2.5" ry="2.643"/><ellipse cx="133.5" cy="2.643" rx="2.5" ry="2.643"/><ellipse cx="147.5" cy="2.643" rx="2.5" ry="2.643"/><ellipse cx="162.5" cy="2.643" rx="2.5" ry="2.643"/><ellipse cx="176.5" cy="2.643" rx="2.5" ry="2.643"/></g><g transform="translate(0 99.319)"><ellipse cx="2.5" cy="2.643" rx="2.5" ry="2.643"/><ellipse cx="17.5" cy="2.643" rx="2.5" ry="2.643"/><ellipse cx="31.5" cy="2.643" rx="2.5" ry="2.643"/><ellipse cx="46.5" cy="2.643" rx="2.5" ry="2.643"/><ellipse cx="60.5" cy="2.643" rx="2.5" ry="2.643"/><ellipse cx="75.5" cy="2.643" rx="2.5" ry="2.643"/><ellipse cx="89.5" cy="2.643" rx="2.5" ry="2.643"/><ellipse cx="104.5" cy="2.643" rx="2.5" ry="2.643"/><ellipse cx="118.5" cy="2.643" rx="2.5" ry="2.643"/><ellipse cx="133.5" cy="2.643" rx="2.5" ry="2.643"/><ellipse cx="147.5" cy="2.643" rx="2.5" ry="2.643"/><ellipse cx="162.5" cy="2.643" rx="2.5" ry="2.643"/><ellipse cx="176.5" cy="2.643" rx="2.5" ry="2.643"/></g><g transform="translate(0 112.914)"><ellipse cx="2.5" cy="2.643" rx="2.5" ry="2.643"/><ellipse cx="17.5" cy="2.643" rx="2.5" ry="2.643"/><ellipse cx="31.5" cy="2.643" rx="2.5" ry="2.643"/><ellipse cx="46.5" cy="2.643" rx="2.5" ry="2.643"/><ellipse cx="60.5" cy="2.643" rx="2.5" ry="2.643"/><ellipse cx="75.5" cy="2.643" rx="2.5" ry="2.643"/><ellipse cx="89.5" cy="2.643" rx="2.5" ry="2.643"/><ellipse cx="104.5" cy="2.643" rx="2.5" ry="2.643"/><ellipse cx="118.5" cy="2.643" rx="2.5" ry="2.643"/><ellipse cx="133.5" cy="2.643" rx="2.5" ry="2.643"/><ellipse cx="147.5" cy="2.643" rx="2.5" ry="2.643"/><ellipse cx="162.5" cy="2.643" rx="2.5" ry="2.643"/><ellipse cx="176.5" cy="2.643" rx="2.5" ry="2.643"/></g><g transform="translate(0 127.264)"><ellipse cx="2.5" cy="2.643" rx="2.5" ry="2.643"/><ellipse cx="17.5" cy="2.643" rx="2.5" ry="2.643"/><ellipse cx="31.5" cy="2.643" rx="2.5" ry="2.643"/><ellipse cx="46.5" cy="2.643" rx="2.5" ry="2.643"/><ellipse cx="60.5" cy="2.643" rx="2.5" ry="2.643"/><ellipse cx="75.5" cy="2.643" rx="2.5" ry="2.643"/><ellipse cx="89.5" cy="2.643" rx="2.5" ry="2.643"/><ellipse cx="104.5" cy="2.643" rx="2.5" ry="2.643"/><ellipse cx="118.5" cy="2.643" rx="2.5" ry="2.643"/><ellipse cx="133.5" cy="2.643" rx="2.5" ry="2.643"/><ellipse cx="147.5" cy="2.643" rx="2.5" ry="2.643"/><ellipse cx="162.5" cy="2.643" rx="2.5" ry="2.643"/><ellipse cx="176.5" cy="2.643" rx="2.5" ry="2.643"/></g><g transform="translate(0 140.859)"><ellipse cx="2.5" cy="2.643" rx="2.5" ry="2.643"/><ellipse cx="17.5" cy="2.643" rx="2.5" ry="2.643"/><ellipse cx="31.5" cy="2.643" rx="2.5" ry="2.643"/><ellipse cx="46.5" cy="2.643" rx="2.5" ry="2.643"/><ellipse cx="60.5" cy="2.643" rx="2.5" ry="2.643"/><ellipse cx="75.5" cy="2.643" rx="2.5" ry="2.643"/><ellipse cx="89.5" cy="2.643" rx="2.5" ry="2.643"/><ellipse cx="104.5" cy="2.643" rx="2.5" ry="2.643"/><ellipse cx="118.5" cy="2.643" rx="2.5" ry="2.643"/><ellipse cx="133.5" cy="2.643" rx="2.5" ry="2.643"/><ellipse cx="147.5" cy="2.643" rx="2.5" ry="2.643"/><ellipse cx="162.5" cy="2.643" rx="2.5" ry="2.643"/><ellipse cx="176.5" cy="2.643" rx="2.5" ry="2.643"/></g><g transform="translate(0 155.209)"><ellipse cx="2.5" cy="2.643" rx="2.5" ry="2.643"/><ellipse cx="17.5" cy="2.643" rx="2.5" ry="2.643"/><ellipse cx="31.5" cy="2.643" rx="2.5" ry="2.643"/><ellipse cx="46.5" cy="2.643" rx="2.5" ry="2.643"/><ellipse cx="60.5" cy="2.643" rx="2.5" ry="2.643"/><ellipse cx="75.5" cy="2.643" rx="2.5" ry="2.643"/><ellipse cx="89.5" cy="2.643" rx="2.5" ry="2.643"/><ellipse cx="104.5" cy="2.643" rx="2.5" ry="2.643"/><ellipse cx="118.5" cy="2.643" rx="2.5" ry="2.643"/><ellipse cx="133.5" cy="2.643" rx="2.5" ry="2.643"/><ellipse cx="147.5" cy="2.643" rx="2.5" ry="2.643"/><ellipse cx="162.5" cy="2.643" rx="2.5" ry="2.643"/><ellipse cx="176.5" cy="2.643" rx="2.5" ry="2.643"/></g><g transform="translate(0 169.56)"><ellipse cx="2.5" cy="2.643" rx="2.5" ry="2.643"/><ellipse cx="17.5" cy="2.643" rx="2.5" ry="2.643"/><ellipse cx="31.5" cy="2.643" rx="2.5" ry="2.643"/><ellipse cx="46.5" cy="2.643" rx="2.5" ry="2.643"/><ellipse cx="60.5" cy="2.643" rx="2.5" ry="2.643"/><ellipse cx="75.5" cy="2.643" rx="2.5" ry="2.643"/><ellipse cx="89.5" cy="2.643" rx="2.5" ry="2.643"/><ellipse cx="104.5" cy="2.643" rx="2.5" ry="2.643"/><ellipse cx="118.5" cy="2.643" rx="2.5" ry="2.643"/><ellipse cx="133.5" cy="2.643" rx="2.5" ry="2.643"/><ellipse cx="147.5" cy="2.643" rx="2.5" ry="2.643"/><ellipse cx="162.5" cy="2.643" rx="2.5" ry="2.643"/><ellipse cx="176.5" cy="2.643" rx="2.5" ry="2.643"/></g></g></svg>