<?xml version="1.0" encoding="UTF-8"?>
<svg width="320px" height="321px" viewBox="0 0 320 321" version="1.1" xmlns="http://www.w3.org/2000/svg" xmlns:xlink="http://www.w3.org/1999/xlink">
    <title>path3</title>
    <g id="First-Draft" stroke="none" stroke-width="1" fill="none" fill-rule="evenodd">
        <g id="Workshop-(List)" transform="translate(-748, -2098)" fill="#5600D1" fill-rule="nonzero">
            <g id="Group-3" transform="translate(240, 2079)">
                <g id="Group-16" transform="translate(488, 0)">
                    <g id="Rust_programming_language_black_logo" transform="translate(20, 19.8)">
                        <path d="M317.813957,156.074368 L304.37973,147.758392 C304.266606,146.449849 304.138195,145.144363 303.997554,143.844991 L315.542307,133.077025 C316.716349,131.982495 317.242223,130.362103 316.924253,128.793685 C316.615455,127.219153 315.511733,125.922839 314.010548,125.363345 L299.252465,119.844839 C298.88252,118.566869 298.494229,117.298071 298.096767,116.035388 L307.302607,103.249574 C308.241229,101.950203 308.433846,100.259491 307.822365,98.7766792 C307.210884,97.2999819 305.874799,96.2421408 304.294122,95.9822665 L288.731943,93.4507854 C288.126577,92.2706505 287.496752,91.1088597 286.860812,89.9562409 L293.400596,75.6020095 C294.070168,74.1405989 293.932585,72.4407155 293.039823,71.1138281 C292.150119,69.780826 290.642819,69.0012032 289.034625,69.0623501 L273.240083,69.612672 C272.423756,68.591519 271.592143,67.5795381 270.745242,66.5859012 L274.374379,51.2013447 C274.741268,49.6390418 274.2796,48.0033626 273.142246,46.8690879 C272.014065,45.7378705 270.375297,45.2700968 268.812964,45.6369781 L253.431171,49.2629885 C252.434458,48.4191614 251.422457,47.5845065 250.398227,46.7681955 L250.951617,30.973955 C251.012765,29.3749639 250.233128,27.8554638 248.9001,26.9688339 C247.564015,26.0760894 245.873271,25.9415663 244.414887,26.60501 L230.063439,33.1477267 C228.904683,32.5117991 227.74287,31.8819862 226.568828,31.2735747 L224.031183,15.7086349 C223.774362,14.1310453 222.7165,12.7919285 221.236717,12.1804596 C219.759992,11.5659334 218.066191,11.7646608 216.766795,12.7002082 L203.971564,21.9058718 C202.711914,21.5053597 201.44615,21.1201343 200.168155,20.753253 L194.649543,5.9923948 C194.090039,4.48818141 192.7937,3.38448012 191.219138,3.07263101 C189.647633,2.76383923 188.030266,3.28664511 186.938774,4.45455062 L176.170601,16.0082547 C174.871205,15.8645595 173.562637,15.7330937 172.257126,15.6260866 L163.940991,2.18905851 C163.100205,0.828540301 161.61125,0 160.009171,0 C158.407092,0 156.918137,0.828540301 156.080408,2.18905851 L147.764273,15.6260866 C146.455704,15.7330937 145.147136,15.8645595 143.84774,16.0082547 L133.07651,4.45455062 C131.985017,3.28664511 130.364594,2.76383923 128.796146,3.07263101 C127.221584,3.38753747 125.925245,4.48818141 125.365741,5.9923948 L119.847129,20.753253 C118.569134,21.1201343 117.30337,21.508417 116.040662,21.9058718 L103.248489,12.7002082 C101.949093,11.7616035 100.255292,11.5628761 98.7755093,12.1804596 C97.2987838,12.7919285 96.237865,14.1310453 95.9810432,15.7086349 L93.4433989,31.2735747 C92.2693563,31.8819862 91.1075433,32.5087418 89.9487876,33.1477267 L75.5973393,26.60501 C74.1389582,25.9385089 72.4390423,26.0760894 71.1121296,26.9688339 C69.779102,27.8554638 68.9994643,29.3749639 69.0606123,30.973955 L69.6109448,46.7681955 C68.5897723,47.5845065 67.577772,48.4191614 66.5780014,49.2629885 L51.1962083,45.6369781 C49.6338755,45.2731542 47.9951077,45.7378705 46.8638687,46.8690879 C45.7265149,48.0033626 45.2648471,49.6390418 45.6317354,51.2013447 L49.2547576,66.5859012 C48.4139719,67.5825954 47.5823583,68.591519 46.7660318,69.612672 L30.9714894,69.0623501 C29.3785826,69.0164899 27.8559961,69.780826 26.9662919,71.1138281 C26.0735303,72.4407155 25.9390046,74.1405989 26.602461,75.6020095 L33.1453027,89.9562409 C32.509363,91.1088597 31.879538,92.2706505 31.2711149,93.4507854 L15.7089351,95.9822665 C14.1282579,96.2390834 12.7952303,97.2969245 12.1806924,98.7766792 C11.5692118,100.259491 11.767943,101.950203 12.7004508,103.249574 L21.9062904,116.035388 C21.5057706,117.298071 21.1174805,118.566869 20.7505922,119.844839 L5.9894519,125.363345 C4.49132458,125.922839 3.3876022,127.219153 3.07574712,128.793685 C2.76389205,130.36516 3.28670791,131.982495 4.45769315,133.077025 L16.0055032,143.844991 C15.8618052,145.144363 15.7333943,146.452906 15.6233278,147.758392 L2.18910034,156.074368 C0.828556134,156.915138 0,158.401007 0,160.006113 C0,161.611219 0.828556134,163.097088 2.18910034,163.934801 L15.6233278,172.250777 C15.7333943,173.55932 15.8618052,174.864806 16.0055032,176.164178 L4.45769315,186.935202 C3.28670791,188.026674 2.76389205,189.647066 3.07574712,191.215484 C3.3876022,192.790016 4.49132458,194.083273 5.9894519,194.645824 L20.7505922,200.16433 C21.1174805,201.4423 21.5057706,202.711098 21.9062904,203.973781 L12.7004508,216.762652 C11.7648856,218.065081 11.5661544,219.755793 12.1806924,221.23249 C12.7952303,222.715302 14.1313153,223.773143 15.7119925,224.026902 L31.2711149,226.558384 C31.879538,227.738518 32.5032482,228.900309 33.1453027,230.059043 L26.602461,244.407159 C25.9359472,245.865516 26.0735303,247.562342 26.9662919,248.895344 C27.8590535,250.231403 29.3785826,251.011026 30.9714894,250.946822 L46.759917,250.393443 C47.5823583,251.42071 48.4109145,252.426577 49.2547576,253.426328 L45.6317354,268.813942 C45.2648471,270.373188 45.7265149,272.002752 46.8638687,273.137027 C47.9920503,274.277416 49.6338755,274.732961 51.1962083,274.366079 L66.5780014,270.743126 C67.577772,271.593068 68.5897723,272.418551 69.6109448,273.231804 L69.0606123,289.029102 C68.9994643,290.628093 69.779102,292.144536 71.1121296,293.037281 C72.4390423,293.926968 74.1389582,294.061491 75.5973393,293.39499 L89.9487876,286.855331 C91.1044859,287.497373 92.2662989,288.121071 93.4433989,288.729483 L95.9810432,304.28525 C96.237865,305.868955 97.2957264,307.208072 98.7755093,307.816483 C100.252235,308.431009 101.949093,308.232282 103.248489,307.299792 L116.034548,298.088014 C117.297255,298.488526 118.566077,298.879866 119.844071,299.246747 L125.362683,314.001491 C125.922188,315.499589 127.218527,316.609405 128.793089,316.91514 C130.364594,317.233103 131.98196,316.70724 133.073453,315.53322 L143.844683,303.985631 C145.144079,304.135441 146.452647,304.260792 147.761215,304.376971 L156.077351,317.810941 C156.915079,319.165345 158.404034,320 160.006113,320 C161.608192,320 163.097147,319.168402 163.937933,317.810941 L172.254069,304.376971 C173.562637,304.260792 174.868148,304.135441 176.167544,303.985631 L186.935716,315.53322 C188.027209,316.70724 189.647633,317.233103 191.21608,316.91514 C192.790643,316.606348 194.086981,315.499589 194.646486,314.001491 L200.165098,299.246747 C201.443092,298.879866 202.711914,298.488526 203.974622,298.088014 L216.763737,307.299792 C218.063133,308.232282 219.756934,308.431009 221.23366,307.816483 C222.713443,307.208072 223.771304,305.865897 224.028126,304.28525 L226.56577,288.729483 C227.739813,288.121071 228.901626,287.488201 230.060382,286.855331 L244.41183,293.39499 C245.870214,294.061491 247.567072,293.926968 248.897043,293.037281 C250.23007,292.144536 251.006651,290.631151 250.94856,289.029102 L250.398227,273.231804 C251.4194,272.415494 252.4314,271.593068 253.428113,270.743126 L268.809906,274.366079 C270.372239,274.732961 272.011007,274.277416 273.139189,273.137027 C274.276543,272.002752 274.73821,270.373188 274.371322,268.813942 L270.7483,253.426328 C271.592143,252.426577 272.423756,251.42071 273.237026,250.393443 L289.031568,250.946822 C290.624475,251.011026 292.147061,250.231403 293.036766,248.895344 C293.929527,247.562342 294.06711,245.865516 293.397539,244.407159 L286.857755,230.059043 C287.496752,228.900309 288.123519,227.738518 288.728885,226.558384 L304.291065,224.026902 C305.874799,223.773143 307.207827,222.715302 307.819308,221.23249 C308.430788,219.755793 308.238172,218.065081 307.299549,216.762652 L298.09371,203.973781 C298.491172,202.711098 298.879462,201.4423 299.249408,200.16433 L314.007491,194.645824 C315.508675,194.083273 316.615455,192.790016 316.921195,191.215484 C317.239165,189.644009 316.713292,188.026674 315.539249,186.935202 L303.994497,176.164178 C304.135137,174.864806 304.263548,173.556263 304.376672,172.250777 L317.8109,163.934801 C319.171444,163.097088 320,161.608162 320,160.006113 C320,158.404065 319.174501,156.915138 317.813957,156.074368 L317.813957,156.074368 Z M227.898798,267.517628 C222.768476,266.410869 219.506227,261.354022 220.606892,256.208511 C221.7045,251.069116 226.758387,247.797757 231.885651,248.904516 C237.015973,250.002103 240.284336,255.068122 239.183671,260.20446 C238.083006,265.340799 233.026062,268.615215 227.898798,267.517628 Z M223.334096,236.644562 C218.653212,235.641753 214.048764,238.619607 213.045935,243.309573 L208.276387,265.567042 C193.558051,272.24734 177.213176,275.958956 159.999998,275.958956 C142.392416,275.958956 125.692883,272.063899 110.711609,265.099269 L105.945119,242.841799 C104.942291,238.157948 100.337842,235.17398 95.6600159,236.179846 L76.0100887,240.398981 C72.3626073,236.644562 68.9688903,232.645556 65.8503395,228.423364 L161.461437,228.423364 C162.543758,228.423364 163.265305,228.227694 163.265305,227.243229 L163.265305,193.422886 C163.265305,192.438421 162.543758,192.242751 161.461437,192.242751 L133.498432,192.242751 L133.498432,170.804653 L163.742259,170.804653 C166.503094,170.804653 178.5034,171.593448 182.34044,186.932144 C183.541999,191.649627 186.180538,206.994437 187.984405,211.90759 C189.782158,217.416924 197.10158,228.423364 204.901015,228.423364 L252.544524,228.423364 C253.085684,228.423364 253.663533,228.362217 254.271957,228.252152 C250.966904,232.743391 247.340825,236.9931 243.436518,240.96459 L223.334096,236.644562 L223.334096,236.644562 Z M91.0953137,267.052912 C85.9649919,268.15967 80.9141626,264.888312 79.8104403,259.748916 C78.7128327,254.600348 81.9750814,249.546558 87.1054031,248.4398 C92.2357249,247.342213 97.2896115,250.613571 98.3902765,255.752967 C99.4878841,260.889306 96.222578,265.952268 91.0953137,267.052912 Z M54.8253453,119.979362 C56.9532976,124.78245 54.7886565,130.41102 49.9915917,132.535875 C45.1945268,134.666844 39.5811354,132.499187 37.4531832,127.693041 C35.3252309,122.886896 37.489872,117.267497 42.2869368,115.136528 C47.0870591,113.008617 52.6973931,115.173217 54.8253453,119.979362 Z M43.6780551,146.403988 L64.1473662,137.308389 C68.5194521,135.366976 70.4945342,130.242867 68.5530835,125.861692 L64.3369252,116.328893 L80.91722,116.328893 L80.91722,191.062616 L47.466177,191.062616 C44.5647019,180.863316 43.0084839,170.098407 43.0084839,158.972731 C43.0084839,154.72608 43.2377891,150.528346 43.6780551,146.403988 L43.6780551,146.403988 Z M133.504547,139.145853 L133.504547,117.117688 L172.987845,117.117688 C175.027133,117.117688 187.388212,119.4749 187.388212,128.717252 C187.388212,136.391186 177.907206,139.142796 170.110829,139.142796 L133.504547,139.142796 L133.504547,139.145853 Z M276.994574,158.972731 C276.994574,161.895552 276.887564,164.7878 276.673546,167.658646 L264.670183,167.658646 C263.468624,167.658646 262.985554,168.447441 262.985554,169.624518 L262.985554,175.13691 C262.985554,188.112279 255.66919,190.934208 249.257816,191.652684 C243.15218,192.340586 236.38309,189.096744 235.548419,185.360669 C231.946799,165.102706 225.945117,160.776564 216.467169,153.301357 C228.228997,145.832265 240.46778,134.813596 240.46778,120.064967 C240.46778,104.139261 229.549795,94.1081144 222.108077,89.1888475 C211.667047,82.3067655 200.107007,80.9279032 196.988456,80.9279032 L72.8487343,80.9279032 C89.6827936,62.1405226 112.497133,48.8319029 138.301611,43.9890696 L152.934341,59.3399952 C156.242451,62.8039663 161.721316,62.9323748 165.182296,59.6212709 L181.554688,43.9615535 C215.861803,50.3483457 244.907129,71.7038955 261.646412,101.002426 L250.437974,126.317236 C248.502638,130.698411 250.47772,135.82252 254.846748,137.763933 L276.425897,147.348708 C276.7989,151.17956 276.994574,155.050158 276.994574,158.972731 Z M152.940456,30.9311521 C156.731635,27.2990271 162.745546,27.4427223 166.374683,31.2399439 C169.997705,35.0463375 169.860122,41.0662484 166.059771,44.6953161 C162.268591,48.3274411 156.25468,48.1868033 152.625543,44.383467 C149.005578,40.583188 149.143161,34.5632771 152.940456,30.9311521 L152.940456,30.9311521 Z M264.168769,120.441021 C266.293664,115.637933 271.907055,113.470276 276.70412,115.601245 C281.501185,117.729156 283.665826,123.35467 281.537874,128.157758 C279.412979,132.963903 273.799588,135.13156 268.999465,133.000591 C264.208515,130.872679 262.043874,125.250223 264.168769,120.441021 L264.168769,120.441021 Z" id="path3"></path>
                    </g>
                </g>
            </g>
        </g>
    </g>
</svg>