<svg width="3000" height="1281" viewBox="0 0 3000 1281" fill="none" xmlns="http://www.w3.org/2000/svg"><g clip-path="url(#clip0_193_452)"><mask id="mask0_193_452" style="mask-type:luminance" maskUnits="userSpaceOnUse" x="0" y="0" width="3000" height="1281"><path d="M3000 0.5H0V1280.5H3000V0.5Z" fill="white"/></mask><g mask="url(#mask0_193_452)"><path d="M3000 0.5H0V1280.5H3000V0.5Z" fill="#001891"/><g opacity="0.25"><path d="M1500 -791.5C2268.24 -791.5 2892 -167.745 2892 600.5C2892 1368.74 2268.24 1992.5 1500 1992.5C731.755 1992.5 108 1368.74 108 600.5C108 -167.745 731.755 -791.5 1500 -791.5Z" stroke="#E78397" stroke-width="3" stroke-dasharray="10 10"/></g><mask id="mask1_193_452" style="mask-type:alpha" maskUnits="userSpaceOnUse" x="5" y="1263" width="201" height="201"><path d="M105.091 1263.9C160.281 1263.9 205.09 1308.71 205.089 1363.9C205.088 1419.09 160.278 1463.9 105.088 1463.9C49.8975 1463.9 5.08831 1419.09 5.08924 1363.9C5.09018 1308.71 49.9009 1263.9 105.091 1263.9Z" fill="#FF0000"/></mask><g mask="url(#mask1_193_452)"><path d="M1492 -932C2336.41 -932 3022 -246.407 3022 598C3022 1442.41 2336.41 2128 1492 2128C647.593 2128 -38 1442.41 -38 598C-38 -246.407 647.593 -932 1492 -932Z" stroke="#E78397" stroke-width="3.06" stroke-dasharray="10.2 10.2"/></g><mask id="mask2_193_452" style="mask-type:luminance" maskUnits="userSpaceOnUse" x="77" y="1231" width="139" height="64"><path d="M83.0387 1231.5L215.31 1245.4L210.187 1294.13L77.916 1280.23L83.0387 1231.5Z" fill="white"/></mask><g mask="url(#mask2_193_452)"><path d="M199.011 1281.8L181.801 1279.99C180.423 1279.85 179.397 1278.62 179.537 1277.29L181.982 1254.03C182.125 1252.67 183.383 1251.69 184.761 1251.83L193.465 1252.75C194.174 1252.82 194.685 1253.45 194.61 1254.16C194.536 1254.87 193.905 1255.38 193.196 1255.31L184.492 1254.39L182.097 1277.55L199.281 1279.24L200.831 1264.11C200.905 1263.41 201.537 1262.89 202.245 1262.97C202.954 1263.04 203.465 1263.67 203.391 1264.38L201.789 1279.62C201.648 1280.96 200.39 1281.95 199.011 1281.8ZM201.976 1265.53L192.229 1264.5C191.54 1264.43 191.011 1263.78 191.084 1263.09L192.05 1253.89C192.104 1253.38 192.467 1252.96 192.962 1252.79C193.436 1252.65 193.977 1252.8 194.314 1253.2L203.096 1263.4C203.431 1263.81 203.491 1264.37 203.243 1264.85C203.016 1265.3 202.508 1265.58 201.976 1265.53ZM193.78 1262.06L199.018 1262.61L194.298 1257.14L193.78 1262.06Z" stroke="#001790" stroke-width="11.88" stroke-linecap="square" stroke-linejoin="round"/><path d="M199.007 1281.8L181.803 1279.99C180.413 1279.85 179.396 1278.63 179.538 1277.28L181.983 1254.02C182.125 1252.67 183.373 1251.69 184.763 1251.84L193.473 1252.75C194.179 1252.83 194.692 1253.46 194.618 1254.17C194.544 1254.87 193.91 1255.39 193.203 1255.31L184.494 1254.4L182.098 1277.54L199.277 1279.24L200.83 1264.1C200.904 1263.4 201.538 1262.88 202.246 1262.96C202.953 1263.03 203.466 1263.67 203.392 1264.37L201.79 1279.61C201.648 1280.97 200.4 1281.95 199.007 1281.8Z" fill="#FF8686"/><path d="M201.977 1265.52L192.238 1264.5C191.531 1264.42 191.018 1263.79 191.092 1263.08L192.058 1253.9C192.111 1253.39 192.463 1252.96 192.956 1252.8C193.444 1252.65 193.977 1252.8 194.314 1253.19L203.088 1263.4C203.432 1263.8 203.496 1264.37 203.251 1264.84C203.008 1265.3 202.501 1265.58 201.977 1265.52ZM193.787 1262.07L199.023 1262.62L194.306 1257.13L193.787 1262.07Z" fill="#FF8686"/><path d="M155.878 1274L156.637 1266.77L161.055 1267.24C163.767 1267.52 164.965 1269.18 164.74 1271.33C164.511 1273.5 162.661 1274.71 160.169 1274.45L155.878 1274ZM156.916 1264.12L157.659 1257.06L161.381 1257.45C163.937 1257.72 165.338 1259.27 165.115 1261.38C164.897 1263.46 163.258 1264.79 160.765 1264.53L156.916 1264.12ZM154.853 1254.02L152.501 1276.39L160.325 1277.21C164.426 1277.64 167.503 1275.38 167.874 1271.85C168.136 1269.36 166.893 1266.93 164.403 1266.03C166.436 1265.51 168.003 1263.95 168.255 1261.55C168.626 1258.02 166.399 1255.23 162.14 1254.79L154.853 1254.02Z" fill="#FF8686"/><path d="M155.878 1274L156.637 1266.77L161.055 1267.24C163.767 1267.52 164.965 1269.18 164.74 1271.33C164.511 1273.5 162.661 1274.71 160.169 1274.45L155.878 1274ZM156.916 1264.12L157.659 1257.06L161.381 1257.45C163.937 1257.72 165.338 1259.27 165.115 1261.38C164.897 1263.46 163.258 1264.79 160.765 1264.53L156.916 1264.12ZM154.853 1254.02L152.501 1276.39L160.325 1277.21C164.426 1277.64 167.503 1275.38 167.874 1271.85C168.136 1269.36 166.893 1266.93 164.403 1266.03C166.436 1265.51 168.003 1263.95 168.255 1261.55C168.626 1258.02 166.399 1255.23 162.14 1254.79L154.853 1254.02Z" stroke="#001790" stroke-width="13.5"/><path d="M150.931 1260.88L146.83 1260.45L139.561 1266.48L141.073 1252.09L138.139 1251.78L135.738 1274.63L138.672 1274.93L139.153 1270.36L141.49 1268.47L145.74 1275.68L149.462 1276.07L143.79 1266.6L150.931 1260.88Z" fill="#FF8686"/><path d="M150.931 1260.88L146.83 1260.45L139.561 1266.48L141.073 1252.09L138.139 1251.78L135.738 1274.63L138.672 1274.93L139.153 1270.36L141.49 1268.47L145.74 1275.68L149.462 1276.07L143.79 1266.6L150.931 1260.88Z" stroke="#001790" stroke-width="13.5"/><path d="M123.095 1273.3L125.244 1252.85L122.531 1252.57C121.825 1254.73 119.703 1256.1 116.858 1255.86L116.629 1258.04L121.582 1258.56L120.067 1272.98L123.095 1273.3Z" fill="#FF8686"/><path d="M123.095 1273.3L125.244 1252.85L122.531 1252.57C121.825 1254.73 119.703 1256.1 116.858 1255.86L116.629 1258.04L121.582 1258.56L120.067 1272.98L123.095 1273.3Z" stroke="#001790" stroke-width="13.5"/><path d="M91.5494 1259.55L91.2873 1262.04L97.1867 1262.66L96.5334 1268.88L99.1211 1269.15L99.7744 1262.93L105.705 1263.56L105.967 1261.07L100.036 1260.44L100.683 1254.29L98.0954 1254.02L97.4488 1260.17L91.5494 1259.55Z" fill="#FF8686"/><path d="M91.5494 1259.55L91.2873 1262.04L97.1867 1262.66L96.5334 1268.88L99.1211 1269.15L99.7744 1262.93L105.705 1263.56L105.967 1261.07L100.036 1260.44L100.683 1254.29L98.0954 1254.02L97.4488 1260.17L91.5494 1259.55Z" stroke="#001790" stroke-width="13.5"/><path d="M155.878 1274L156.637 1266.77L161.055 1267.24C163.767 1267.52 164.965 1269.18 164.74 1271.33C164.511 1273.5 162.661 1274.71 160.169 1274.45L155.878 1274ZM156.916 1264.12L157.659 1257.06L161.381 1257.45C163.937 1257.72 165.338 1259.27 165.115 1261.38C164.897 1263.46 163.258 1264.79 160.765 1264.53L156.916 1264.12ZM154.853 1254.02L152.501 1276.39L160.325 1277.21C164.426 1277.64 167.503 1275.38 167.874 1271.85C168.136 1269.36 166.893 1266.93 164.403 1266.03C166.436 1265.51 168.003 1263.95 168.255 1261.55C168.626 1258.02 166.399 1255.23 162.14 1254.79L154.853 1254.02Z" fill="#FF8686"/><path d="M150.931 1260.88L146.83 1260.45L139.561 1266.48L141.073 1252.09L138.139 1251.78L135.738 1274.63L138.672 1274.93L139.153 1270.36L141.49 1268.47L145.74 1275.68L149.462 1276.07L143.79 1266.6L150.931 1260.88Z" fill="#FF8686"/><path d="M123.095 1273.3L125.244 1252.85L122.531 1252.57C121.825 1254.73 119.703 1256.1 116.858 1255.86L116.629 1258.04L121.582 1258.56L120.067 1272.98L123.095 1273.3Z" fill="#FF8686"/><path d="M91.5494 1259.55L91.2873 1262.04L97.1867 1262.66L96.5334 1268.88L99.1211 1269.15L99.7744 1262.93L105.705 1263.56L105.967 1261.07L100.036 1260.44L100.683 1254.29L98.0954 1254.02L97.4488 1260.17L91.5494 1259.55Z" fill="#FF8686"/></g><mask id="mask3_193_452" style="mask-type:alpha" maskUnits="userSpaceOnUse" x="2797" y="-198" width="201" height="201"><path d="M2897.46 -197.482C2952.65 -197.482 2997.46 -152.672 2997.46 -97.4816C2997.46 -42.2916 2952.65 2.51842 2897.46 2.51842C2842.27 2.51842 2797.46 -42.2916 2797.46 -97.4816C2797.46 -152.672 2842.27 -197.482 2897.46 -197.482Z" fill="#FF0000"/></mask><g mask="url(#mask3_193_452)"><path d="M1491.53 -931.5C2335.94 -931.5 3021.53 -245.907 3021.53 598.5C3021.53 1442.91 2335.94 2128.5 1491.53 2128.5C647.123 2128.5 -38.47 1442.91 -38.47 598.5C-38.47 -245.907 647.123 -931.5 1491.53 -931.5Z" stroke="#E78397" stroke-width="3.06" stroke-dasharray="10.2 10.2"/></g><mask id="mask4_193_452" style="mask-type:luminance" maskUnits="userSpaceOnUse" x="2845" y="-16" width="138" height="64"><path d="M2850.44 -15.3555L2982.72 -1.45318L2977.59 47.2784L2845.32 33.3761L2850.44 -15.3555Z" fill="white"/></mask><g mask="url(#mask4_193_452)"><path d="M2966.42 34.9451L2949.21 33.1363C2947.83 32.9914 2946.8 31.7686 2946.94 30.4296L2949.39 7.17389C2949.53 5.81517 2950.79 4.83249 2952.17 4.97736L2960.87 5.89216C2961.58 5.96666 2962.09 6.59774 2962.02 7.30663C2961.94 8.01553 2961.31 8.52656 2960.6 8.45205L2951.9 7.53726L2949.5 30.6986L2966.69 32.3852L2968.24 17.258C2968.31 16.5491 2968.94 16.0381 2969.65 16.1126C2970.36 16.1871 2970.87 16.8182 2970.8 17.5271L2969.19 32.7683C2969.05 34.1073 2967.8 35.09 2966.42 34.9451ZM2969.38 18.6725L2959.63 17.648C2958.95 17.5756 2958.42 16.9227 2958.49 16.2335L2959.46 7.03758C2959.51 6.5256 2959.87 6.10581 2960.37 5.93887C2960.84 5.78956 2961.38 5.94597 2961.72 6.33974L2970.5 16.5405C2970.84 16.9539 2970.9 17.5177 2970.65 17.9893C2970.42 18.4433 2969.91 18.7284 2969.38 18.6725ZM2961.19 15.2029L2966.42 15.7535L2961.7 10.2801L2961.19 15.2029Z" stroke="#001790" stroke-width="11.88" stroke-linecap="square" stroke-linejoin="round"/><path d="M2966.41 34.9467L2949.21 33.1384C2947.82 32.9923 2946.8 31.7706 2946.94 30.4197L2949.39 7.16601C2949.53 5.8132 2950.78 4.83342 2952.17 4.97954L2960.88 5.89495C2961.59 5.96925 2962.1 6.6025 2962.02 7.30943C2961.95 8.01439 2961.32 8.52915 2960.61 8.45485L2951.9 7.53944L2949.5 30.6888L2966.68 32.3848L2968.24 17.248C2968.31 16.541 2968.94 16.0282 2969.65 16.1027C2970.36 16.177 2970.87 16.8103 2970.8 17.5172L2969.2 32.7585C2969.05 34.1093 2967.81 35.093 2966.41 34.9467Z" fill="#FF8686"/><path d="M2969.38 18.6646L2959.64 17.641C2958.94 17.5667 2958.42 16.9334 2958.5 16.2265L2959.46 7.04235C2959.52 6.53234 2959.87 6.10146 2960.36 5.94614C2960.85 5.79039 2961.38 5.94598 2961.72 6.33778L2970.49 16.5456C2970.84 16.9461 2970.9 17.5142 2970.66 17.9823C2970.41 18.4464 2969.91 18.7197 2969.38 18.6646ZM2961.19 15.2136L2966.43 15.7639L2961.71 10.277L2961.19 15.2136Z" fill="#FF8686"/><path d="M2923.28 27.1443L2924.04 19.9193L2928.46 20.3836C2931.17 20.6687 2932.37 22.3258 2932.15 24.4713C2931.92 26.6481 2930.07 27.8572 2927.57 27.5953L2923.28 27.1443ZM2924.32 17.269L2925.06 10.2024L2928.79 10.5937C2931.34 10.8623 2932.74 12.4131 2932.52 14.5263C2932.3 16.6083 2930.66 17.9355 2928.17 17.6735L2924.32 17.269ZM2922.26 7.16364L2919.91 29.5323L2927.73 30.3546C2931.83 30.7857 2934.91 28.5254 2935.28 24.9916C2935.54 22.4998 2934.3 20.0723 2931.81 19.1727C2933.84 18.6523 2935.41 17.0949 2935.66 14.697C2936.03 11.1633 2933.8 8.37721 2929.55 7.9296L2922.26 7.16364Z" fill="#FF8686"/><path d="M2923.28 27.1443L2924.04 19.9193L2928.46 20.3836C2931.17 20.6687 2932.37 22.3258 2932.15 24.4713C2931.92 26.6481 2930.07 27.8572 2927.57 27.5953L2923.28 27.1443ZM2924.32 17.269L2925.06 10.2024L2928.79 10.5937C2931.34 10.8623 2932.74 12.4131 2932.52 14.5263C2932.3 16.6083 2930.66 17.9355 2928.17 17.6735L2924.32 17.269ZM2922.26 7.16364L2919.91 29.5323L2927.73 30.3546C2931.83 30.7857 2934.91 28.5254 2935.28 24.9916C2935.54 22.4998 2934.3 20.0723 2931.81 19.1727C2933.84 18.6523 2935.41 17.0949 2935.66 14.697C2936.03 11.1633 2933.8 8.37721 2929.55 7.9296L2922.26 7.16364Z" stroke="#001790" stroke-width="13.5"/><path d="M2918.34 14.0247L2914.24 13.5936L2906.97 19.624L2908.48 5.23758L2905.55 4.9292L2903.14 27.7705L2906.08 28.0789L2906.56 23.5042L2908.9 21.6122L2913.15 28.8217L2916.87 29.2129L2911.2 19.7491L2918.34 14.0247Z" fill="#FF8686"/><path d="M2918.34 14.0247L2914.24 13.5936L2906.97 19.624L2908.48 5.23758L2905.55 4.9292L2903.14 27.7705L2906.08 28.0789L2906.56 23.5042L2908.9 21.6122L2913.15 28.8217L2916.87 29.2129L2911.2 19.7491L2918.34 14.0247Z" stroke="#001790" stroke-width="13.5"/><path d="M2890.5 26.4416L2892.65 5.99732L2889.94 5.71218C2889.23 7.87144 2887.11 9.243 2884.26 9.00814L2884.03 11.185L2888.99 11.7056L2887.47 26.1233L2890.5 26.4416Z" fill="#FF8686"/><path d="M2890.5 26.4416L2892.65 5.99732L2889.94 5.71218C2889.23 7.87144 2887.11 9.243 2884.26 9.00814L2884.03 11.185L2888.99 11.7056L2887.47 26.1233L2890.5 26.4416Z" stroke="#001790" stroke-width="13.5"/><path d="M2858.96 12.6955L2858.69 15.1883L2864.59 15.8083L2863.94 22.0228L2866.53 22.2948L2867.18 16.0803L2873.11 16.7037L2873.37 14.2109L2867.44 13.5875L2868.09 7.43573L2865.5 7.16375L2864.85 13.3156L2858.96 12.6955Z" fill="#FF8686"/><path d="M2858.96 12.6955L2858.69 15.1883L2864.59 15.8083L2863.94 22.0228L2866.53 22.2948L2867.18 16.0803L2873.11 16.7037L2873.37 14.2109L2867.44 13.5875L2868.09 7.43573L2865.5 7.16375L2864.85 13.3156L2858.96 12.6955Z" stroke="#001790" stroke-width="13.5"/><path d="M2923.28 27.1443L2924.04 19.9193L2928.46 20.3836C2931.17 20.6687 2932.37 22.3258 2932.15 24.4713C2931.92 26.6481 2930.07 27.8572 2927.57 27.5953L2923.28 27.1443ZM2924.32 17.269L2925.06 10.2024L2928.79 10.5937C2931.34 10.8623 2932.74 12.4131 2932.52 14.5263C2932.3 16.6083 2930.66 17.9355 2928.17 17.6735L2924.32 17.269ZM2922.26 7.16364L2919.91 29.5323L2927.73 30.3546C2931.83 30.7857 2934.91 28.5254 2935.28 24.9916C2935.54 22.4998 2934.3 20.0723 2931.81 19.1727C2933.84 18.6523 2935.41 17.0949 2935.66 14.697C2936.03 11.1633 2933.8 8.37721 2929.55 7.9296L2922.26 7.16364Z" fill="#FF8686"/><path d="M2918.34 14.0247L2914.24 13.5936L2906.97 19.624L2908.48 5.23758L2905.55 4.9292L2903.14 27.7705L2906.08 28.0789L2906.56 23.5042L2908.9 21.6122L2913.15 28.8217L2916.87 29.2129L2911.2 19.7491L2918.34 14.0247Z" fill="#FF8686"/><path d="M2890.5 26.4416L2892.65 5.99732L2889.94 5.71218C2889.23 7.87144 2887.11 9.243 2884.26 9.00814L2884.03 11.185L2888.99 11.7056L2887.47 26.1233L2890.5 26.4416Z" fill="#FF8686"/><path d="M2858.96 12.6955L2858.69 15.1883L2864.59 15.8083L2863.94 22.0228L2866.53 22.2948L2867.18 16.0803L2873.11 16.7037L2873.37 14.2109L2867.44 13.5875L2868.09 7.43573L2865.5 7.16375L2864.85 13.3156L2858.96 12.6955Z" fill="#FF8686"/></g><g opacity="0.25"><path d="M1491.53 -933.5C2335.94 -933.5 3021.53 -247.907 3021.53 596.5C3021.53 1440.91 2335.94 2126.5 1491.53 2126.5C647.123 2126.5 -38.47 1440.91 -38.47 596.5C-38.47 -247.907 647.123 -933.5 1491.53 -933.5Z" stroke="#E78397" stroke-width="3.06" stroke-dasharray="10.2 10.2"/></g><mask id="mask5_193_452" style="mask-type:alpha" maskUnits="userSpaceOnUse" x="2055" y="921" width="201" height="201"><path d="M2155.79 921.972C2210.98 921.97 2255.79 966.778 2255.79 1021.97C2255.79 1077.16 2210.98 1121.97 2155.79 1121.97C2100.6 1121.97 2055.79 1077.17 2055.79 1021.98C2055.79 966.785 2100.6 921.973 2155.79 921.972Z" fill="#FF0000"/></mask><g mask="url(#mask5_193_452)"><path d="M1500 -211.5C1948.14 -211.5 2312 152.357 2312 600.5C2312 1048.64 1948.14 1412.5 1500 1412.5C1051.86 1412.5 688 1048.64 688 600.5C688 152.357 1051.86 -211.5 1500 -211.5Z" stroke="#E78397" stroke-width="3" stroke-dasharray="10 10"/></g><mask id="mask6_193_452" style="mask-type:luminance" maskUnits="userSpaceOnUse" x="2071" y="1078" width="176" height="68"><path d="M2077.1 1078.91L2246.17 1096.67L2241.05 1145.4L2071.98 1127.64L2077.1 1078.91Z" fill="white"/></mask><g mask="url(#mask6_193_452)"><path d="M2226.39 1132.7L2209.18 1130.89C2207.8 1130.75 2206.78 1129.53 2206.92 1128.19L2209.36 1104.93C2209.5 1103.57 2210.76 1102.59 2212.14 1102.74L2220.84 1103.65C2221.55 1103.72 2222.06 1104.36 2221.99 1105.06C2221.92 1105.77 2221.28 1106.28 2220.58 1106.21L2211.87 1105.3L2209.48 1128.46L2226.66 1130.14L2228.21 1115.02C2228.29 1114.31 2228.92 1113.8 2229.63 1113.87C2230.33 1113.94 2230.85 1114.58 2230.77 1115.28L2229.17 1130.53C2229.03 1131.86 2227.77 1132.85 2226.39 1132.7ZM2229.36 1116.43L2219.61 1115.41C2218.92 1115.33 2218.39 1114.68 2218.46 1113.99L2219.43 1104.8C2219.48 1104.28 2219.85 1103.86 2220.34 1103.7C2220.82 1103.55 2221.36 1103.7 2221.69 1104.1L2230.48 1114.3C2230.81 1114.71 2230.87 1115.28 2230.62 1115.75C2230.4 1116.2 2229.89 1116.49 2229.36 1116.43ZM2221.16 1112.96L2226.4 1113.51L2221.68 1108.04L2221.16 1112.96Z" stroke="#001790" stroke-width="7.92"/><path d="M2226.39 1132.7L2209.18 1130.9C2207.79 1130.75 2206.78 1129.53 2206.92 1128.18L2209.36 1104.92C2209.5 1103.57 2210.75 1102.59 2212.14 1102.74L2220.85 1103.65C2221.56 1103.73 2222.07 1104.36 2222 1105.07C2221.92 1105.77 2221.29 1106.29 2220.58 1106.21L2211.87 1105.3L2209.48 1128.45L2226.66 1130.14L2228.21 1115.01C2228.28 1114.3 2228.92 1113.79 2229.63 1113.86C2230.33 1113.93 2230.85 1114.57 2230.77 1115.27L2229.17 1130.52C2229.03 1131.87 2227.78 1132.85 2226.39 1132.7Z" fill="#FF8686"/><path d="M2229.36 1116.42L2219.62 1115.4C2218.91 1115.32 2218.4 1114.69 2218.47 1113.98L2219.44 1104.8C2219.49 1104.29 2219.84 1103.86 2220.34 1103.7C2220.82 1103.55 2221.36 1103.7 2221.69 1104.1L2230.47 1114.3C2230.81 1114.7 2230.88 1115.27 2230.63 1115.74C2230.39 1116.2 2229.88 1116.48 2229.36 1116.42ZM2221.17 1112.97L2226.4 1113.52L2221.69 1108.03L2221.17 1112.97Z" fill="#FF8686"/><path d="M2183.26 1124.9L2184.02 1117.68L2188.43 1118.14C2191.15 1118.43 2192.35 1120.08 2192.12 1122.23C2191.89 1124.41 2190.04 1125.62 2187.55 1125.35L2183.26 1124.9ZM2184.3 1115.03L2185.04 1107.96L2188.76 1108.35C2191.32 1108.62 2192.72 1110.17 2192.5 1112.28C2192.28 1114.37 2190.64 1115.69 2188.15 1115.43L2184.3 1115.03ZM2182.23 1104.92L2179.88 1127.29L2187.71 1128.11C2191.81 1128.54 2194.88 1126.28 2195.26 1122.75C2195.52 1120.26 2194.27 1117.83 2191.78 1116.93C2193.82 1116.41 2195.38 1114.85 2195.64 1112.46C2196.01 1108.92 2193.78 1106.14 2189.52 1105.69L2182.23 1104.92Z" fill="#FF8686"/><path d="M2183.26 1124.9L2184.02 1117.68L2188.43 1118.14C2191.15 1118.43 2192.35 1120.08 2192.12 1122.23C2191.89 1124.41 2190.04 1125.62 2187.55 1125.35L2183.26 1124.9ZM2184.3 1115.03L2185.04 1107.96L2188.76 1108.35C2191.32 1108.62 2192.72 1110.17 2192.5 1112.28C2192.28 1114.37 2190.64 1115.69 2188.15 1115.43L2184.3 1115.03ZM2182.23 1104.92L2179.88 1127.29L2187.71 1128.11C2191.81 1128.54 2194.88 1126.28 2195.26 1122.75C2195.52 1120.26 2194.27 1117.83 2191.78 1116.93C2193.82 1116.41 2195.38 1114.85 2195.64 1112.46C2196.01 1108.92 2193.78 1106.14 2189.52 1105.69L2182.23 1104.92Z" stroke="#001790" stroke-width="9"/><path d="M2178.31 1111.78L2174.21 1111.35L2166.94 1117.38L2168.45 1103L2165.52 1102.69L2163.12 1125.53L2166.05 1125.84L2166.53 1121.26L2168.87 1119.37L2173.12 1126.58L2176.84 1126.97L2171.17 1117.51L2178.31 1111.78Z" fill="#FF8686"/><path d="M2178.31 1111.78L2174.21 1111.35L2166.94 1117.38L2168.45 1103L2165.52 1102.69L2163.12 1125.53L2166.05 1125.84L2166.53 1121.26L2168.87 1119.37L2173.12 1126.58L2176.84 1126.97L2171.17 1117.51L2178.31 1111.78Z" stroke="#001790" stroke-width="9"/><path d="M2136.18 1112.36C2135.88 1115.17 2136.09 1117.81 2137.23 1119.97C2138.35 1122.1 2140.26 1123.61 2143.16 1123.91C2146.07 1124.22 2148.25 1123.14 2149.79 1121.29C2151.36 1119.41 2152.1 1116.88 2152.4 1114.07C2152.69 1111.26 2152.49 1108.62 2151.35 1106.46C2150.23 1104.34 2148.31 1102.83 2145.41 1102.52C2142.51 1102.22 2140.32 1103.29 2138.79 1105.14C2137.22 1107.02 2136.47 1109.56 2136.18 1112.36ZM2139.24 1112.69C2139.57 1109.56 2140.37 1107.41 2141.73 1106.25C2142.61 1105.51 2143.67 1105.11 2145.12 1105.27C2146.57 1105.42 2147.53 1106.03 2148.23 1106.93C2149.33 1108.36 2149.66 1110.62 2149.34 1113.75C2149.01 1116.87 2148.21 1119.02 2146.84 1120.18C2145.97 1120.92 2144.9 1121.32 2143.45 1121.17C2142 1121.01 2141.05 1120.4 2140.34 1119.5C2139.25 1118.08 2138.91 1115.81 2139.24 1112.69Z" fill="#FF8686"/><path d="M2136.18 1112.36C2135.88 1115.17 2136.09 1117.81 2137.23 1119.97C2138.35 1122.1 2140.26 1123.61 2143.16 1123.91C2146.07 1124.22 2148.25 1123.14 2149.79 1121.29C2151.36 1119.41 2152.1 1116.88 2152.4 1114.07C2152.69 1111.26 2152.49 1108.62 2151.35 1106.46C2150.23 1104.34 2148.31 1102.83 2145.41 1102.52C2142.51 1102.22 2140.32 1103.29 2138.79 1105.14C2137.22 1107.02 2136.47 1109.56 2136.18 1112.36ZM2139.24 1112.69C2139.57 1109.56 2140.37 1107.41 2141.73 1106.25C2142.61 1105.51 2143.67 1105.11 2145.12 1105.27C2146.57 1105.42 2147.53 1106.03 2148.23 1106.93C2149.33 1108.36 2149.66 1110.62 2149.34 1113.75C2149.01 1116.87 2148.21 1119.02 2146.84 1120.18C2145.97 1120.92 2144.9 1121.32 2143.45 1121.17C2142 1121.01 2141.05 1120.4 2140.34 1119.5C2139.25 1118.08 2138.91 1115.81 2139.24 1112.69Z" stroke="#001790" stroke-width="9"/><path d="M2117.1 1110.36C2116.81 1113.17 2117.01 1115.8 2118.15 1117.97C2119.27 1120.09 2121.18 1121.6 2124.09 1121.91C2126.99 1122.21 2129.17 1121.13 2130.71 1119.29C2132.28 1117.41 2133.02 1114.87 2133.32 1112.06C2133.61 1109.26 2133.41 1106.62 2132.27 1104.46C2131.15 1102.33 2129.24 1100.82 2126.33 1100.52C2123.43 1100.21 2121.24 1101.29 2119.71 1103.14C2118.14 1105.01 2117.4 1107.55 2117.1 1110.36ZM2120.16 1110.68C2120.49 1107.56 2121.29 1105.41 2122.66 1104.25C2123.53 1103.51 2124.59 1103.11 2126.04 1103.26C2127.5 1103.41 2128.45 1104.02 2129.16 1104.93C2130.25 1106.35 2130.59 1108.62 2130.26 1111.74C2129.93 1114.87 2129.13 1117.02 2127.76 1118.18C2126.89 1118.92 2125.83 1119.31 2124.37 1119.16C2122.92 1119.01 2121.97 1118.4 2121.26 1117.5C2120.17 1116.07 2119.83 1113.8 2120.16 1110.68Z" fill="#FF8686"/><path d="M2117.1 1110.36C2116.81 1113.17 2117.01 1115.8 2118.15 1117.97C2119.27 1120.09 2121.18 1121.6 2124.09 1121.91C2126.99 1122.21 2129.17 1121.13 2130.71 1119.29C2132.28 1117.41 2133.02 1114.87 2133.32 1112.06C2133.61 1109.26 2133.41 1106.62 2132.27 1104.46C2131.15 1102.33 2129.24 1100.82 2126.33 1100.52C2123.43 1100.21 2121.24 1101.29 2119.71 1103.14C2118.14 1105.01 2117.4 1107.55 2117.1 1110.36ZM2120.16 1110.68C2120.49 1107.56 2121.29 1105.41 2122.66 1104.25C2123.53 1103.51 2124.59 1103.11 2126.04 1103.26C2127.5 1103.41 2128.45 1104.02 2129.16 1104.93C2130.25 1106.35 2130.59 1108.62 2130.26 1111.74C2129.93 1114.87 2129.13 1117.02 2127.76 1118.18C2126.89 1118.92 2125.83 1119.31 2124.37 1119.16C2122.92 1119.01 2121.97 1118.4 2121.26 1117.5C2120.17 1116.07 2119.83 1113.8 2120.16 1110.68Z" stroke="#001790" stroke-width="9"/><path d="M2112.01 1120.16L2114.15 1099.72L2111.44 1099.43C2110.73 1101.59 2108.61 1102.96 2105.77 1102.73L2105.54 1104.9L2110.49 1105.42L2108.98 1119.84L2112.01 1120.16Z" fill="#FF8686"/><path d="M2112.01 1120.16L2114.15 1099.72L2111.44 1099.43C2110.73 1101.59 2108.61 1102.96 2105.77 1102.73L2105.54 1104.9L2110.49 1105.42L2108.98 1119.84L2112.01 1120.16Z" stroke="#001790" stroke-width="9"/><path d="M2080.46 1106.41L2080.2 1108.91L2086.1 1109.53L2085.44 1115.74L2088.03 1116.01L2088.68 1109.8L2094.62 1110.42L2094.88 1107.93L2088.95 1107.31L2089.59 1101.15L2087.01 1100.88L2086.36 1107.03L2080.46 1106.41Z" fill="#FF8686"/><path d="M2080.46 1106.41L2080.2 1108.91L2086.1 1109.53L2085.44 1115.74L2088.03 1116.01L2088.68 1109.8L2094.62 1110.42L2094.88 1107.93L2088.95 1107.31L2089.59 1101.15L2087.01 1100.88L2086.36 1107.03L2080.46 1106.41Z" stroke="#001790" stroke-width="9"/><path d="M2183.26 1124.9L2184.02 1117.68L2188.43 1118.14C2191.15 1118.43 2192.35 1120.08 2192.12 1122.23C2191.89 1124.41 2190.04 1125.62 2187.55 1125.35L2183.26 1124.9ZM2184.3 1115.03L2185.04 1107.96L2188.76 1108.35C2191.32 1108.62 2192.72 1110.17 2192.5 1112.28C2192.28 1114.37 2190.64 1115.69 2188.15 1115.43L2184.3 1115.03ZM2182.23 1104.92L2179.88 1127.29L2187.71 1128.11C2191.81 1128.54 2194.88 1126.28 2195.26 1122.75C2195.52 1120.26 2194.27 1117.83 2191.78 1116.93C2193.82 1116.41 2195.38 1114.85 2195.64 1112.46C2196.01 1108.92 2193.78 1106.14 2189.52 1105.69L2182.23 1104.92Z" fill="#FF8686"/><path d="M2178.31 1111.78L2174.21 1111.35L2166.94 1117.38L2168.45 1103L2165.52 1102.69L2163.12 1125.53L2166.05 1125.84L2166.53 1121.26L2168.87 1119.37L2173.12 1126.58L2176.84 1126.97L2171.17 1117.51L2178.31 1111.78Z" fill="#FF8686"/><path d="M2136.18 1112.36C2135.88 1115.17 2136.09 1117.81 2137.23 1119.97C2138.35 1122.1 2140.26 1123.61 2143.16 1123.91C2146.07 1124.22 2148.25 1123.14 2149.79 1121.29C2151.36 1119.41 2152.1 1116.88 2152.4 1114.07C2152.69 1111.26 2152.49 1108.62 2151.35 1106.46C2150.23 1104.34 2148.31 1102.83 2145.41 1102.52C2142.51 1102.22 2140.32 1103.29 2138.79 1105.14C2137.22 1107.02 2136.47 1109.56 2136.18 1112.36ZM2139.24 1112.69C2139.57 1109.56 2140.37 1107.41 2141.73 1106.25C2142.61 1105.51 2143.67 1105.11 2145.12 1105.27C2146.57 1105.42 2147.53 1106.03 2148.23 1106.93C2149.33 1108.36 2149.66 1110.62 2149.34 1113.75C2149.01 1116.87 2148.21 1119.02 2146.84 1120.18C2145.97 1120.92 2144.9 1121.32 2143.45 1121.17C2142 1121.01 2141.05 1120.4 2140.34 1119.5C2139.25 1118.08 2138.91 1115.81 2139.24 1112.69Z" fill="#FF8686"/><path d="M2117.1 1110.36C2116.81 1113.17 2117.01 1115.8 2118.15 1117.97C2119.27 1120.09 2121.18 1121.6 2124.09 1121.91C2126.99 1122.21 2129.17 1121.13 2130.71 1119.29C2132.28 1117.41 2133.02 1114.87 2133.32 1112.06C2133.61 1109.26 2133.41 1106.62 2132.27 1104.46C2131.15 1102.33 2129.24 1100.82 2126.33 1100.52C2123.43 1100.21 2121.24 1101.29 2119.71 1103.14C2118.14 1105.01 2117.4 1107.55 2117.1 1110.36ZM2120.16 1110.68C2120.49 1107.56 2121.29 1105.41 2122.66 1104.25C2123.53 1103.51 2124.59 1103.11 2126.04 1103.26C2127.5 1103.41 2128.45 1104.02 2129.16 1104.93C2130.25 1106.35 2130.59 1108.62 2130.26 1111.74C2129.93 1114.87 2129.13 1117.02 2127.76 1118.18C2126.89 1118.92 2125.83 1119.31 2124.37 1119.16C2122.92 1119.01 2121.97 1118.4 2121.26 1117.5C2120.17 1116.07 2119.83 1113.8 2120.16 1110.68Z" fill="#FF8686"/><path d="M2112.01 1120.16L2114.15 1099.72L2111.44 1099.43C2110.73 1101.59 2108.61 1102.96 2105.77 1102.73L2105.54 1104.9L2110.49 1105.42L2108.98 1119.84L2112.01 1120.16Z" fill="#FF8686"/><path d="M2080.46 1106.41L2080.2 1108.91L2086.1 1109.53L2085.44 1115.74L2088.03 1116.01L2088.68 1109.8L2094.62 1110.42L2094.88 1107.93L2088.95 1107.31L2089.59 1101.15L2087.01 1100.88L2086.36 1107.03L2080.46 1106.41Z" fill="#FF8686"/></g><g opacity="0.25"><path d="M1500 -211.5C1948.14 -211.5 2312 152.357 2312 600.5C2312 1048.64 1948.14 1412.5 1500 1412.5C1051.86 1412.5 688 1048.64 688 600.5C688 152.357 1051.86 -211.5 1500 -211.5Z" stroke="#E78397" stroke-width="3" stroke-dasharray="10 10"/></g><mask id="mask7_193_452" style="mask-type:alpha" maskUnits="userSpaceOnUse" x="1336" y="68" width="201" height="201"><path d="M1436.42 68.6921C1491.61 68.6921 1536.42 113.502 1536.42 168.692C1536.42 223.882 1491.61 268.692 1436.42 268.692C1381.23 268.692 1336.42 223.882 1336.42 168.692C1336.42 113.502 1381.23 68.6921 1436.42 68.6921Z" fill="#FF0000"/></mask><g mask="url(#mask7_193_452)"><path d="M1500 178.5C1732.9 178.5 1922 367.598 1922 600.5C1922 833.402 1732.9 1022.5 1500 1022.5C1267.1 1022.5 1078 833.402 1078 600.5C1078 367.598 1267.1 178.5 1500 178.5Z" stroke="#E78397" stroke-width="3" stroke-dasharray="10 10"/></g><mask id="mask8_193_452" style="mask-type:luminance" maskUnits="userSpaceOnUse" x="1471" y="141" width="175" height="68"><path d="M1476.76 141.646L1645.83 159.416L1640.71 208.148L1471.64 190.378L1476.76 141.646Z" fill="white"/></mask><g mask="url(#mask8_193_452)"><path d="M1626.05 195.449L1608.84 193.64C1607.46 193.495 1606.43 192.272 1606.57 190.933L1609.02 167.677C1609.16 166.319 1610.42 165.336 1611.8 165.481L1620.5 166.396C1621.21 166.47 1621.72 167.101 1621.65 167.81C1621.57 168.519 1620.94 169.03 1620.23 168.955L1611.53 168.041L1609.13 191.202L1626.32 192.889L1627.87 177.761C1627.94 177.053 1628.57 176.541 1629.28 176.616C1629.99 176.691 1630.5 177.322 1630.43 178.03L1628.83 193.272C1628.68 194.611 1627.43 195.593 1626.05 195.449ZM1629.01 179.176L1619.27 178.151C1618.58 178.079 1618.05 177.426 1618.12 176.737L1619.09 167.541C1619.14 167.029 1619.5 166.609 1620 166.442C1620.47 166.293 1621.01 166.449 1621.35 166.843L1630.13 177.044C1630.47 177.457 1630.53 178.021 1630.28 178.493C1630.05 178.947 1629.54 179.232 1629.01 179.176ZM1620.82 175.706L1626.05 176.257L1621.33 170.783L1620.82 175.706Z" stroke="#001790" stroke-width="7.92"/><path d="M1626.04 195.45L1608.84 193.642C1607.45 193.496 1606.43 192.274 1606.58 190.923L1609.02 167.669C1609.16 166.317 1610.41 165.337 1611.8 165.483L1620.51 166.398C1621.22 166.473 1621.73 167.106 1621.65 167.813C1621.58 168.518 1620.95 169.033 1620.24 168.958L1611.53 168.043L1609.13 191.192L1626.31 192.888L1627.87 177.751C1627.94 177.044 1628.57 176.532 1629.28 176.606C1629.99 176.68 1630.5 177.314 1630.43 178.021L1628.83 193.262C1628.68 194.613 1627.44 195.596 1626.04 195.45Z" fill="#FF8686"/><path d="M1629.01 179.168L1619.27 178.144C1618.57 178.07 1618.05 177.437 1618.13 176.73L1619.09 167.546C1619.15 167.036 1619.5 166.605 1619.99 166.45C1620.48 166.294 1621.01 166.449 1621.35 166.841L1630.12 177.049C1630.47 177.449 1630.53 178.018 1630.29 178.486C1630.04 178.95 1629.54 179.223 1629.01 179.168ZM1620.82 175.717L1626.06 176.267L1621.34 170.78L1620.82 175.717Z" fill="#FF8686"/><path d="M1582.91 187.648L1583.67 180.423L1588.09 180.887C1590.8 181.172 1592 182.829 1591.78 184.975C1591.55 187.151 1589.7 188.361 1587.2 188.099L1582.91 187.648ZM1583.95 177.772L1584.7 170.706L1588.42 171.097C1590.97 171.366 1592.37 172.916 1592.15 175.03C1591.93 177.112 1590.29 178.439 1587.8 178.177L1583.95 177.772ZM1581.89 167.667L1579.54 190.036L1587.36 190.858C1591.46 191.289 1594.54 189.029 1594.91 185.495C1595.17 183.003 1593.93 180.576 1591.44 179.676C1593.47 179.156 1595.04 177.598 1595.29 175.2C1595.66 171.667 1593.44 168.881 1589.18 168.433L1581.89 167.667Z" fill="#FF8686"/><path d="M1582.91 187.648L1583.67 180.423L1588.09 180.887C1590.8 181.172 1592 182.829 1591.78 184.975C1591.55 187.151 1589.7 188.361 1587.2 188.099L1582.91 187.648ZM1583.95 177.772L1584.7 170.706L1588.42 171.097C1590.97 171.366 1592.37 172.916 1592.15 175.03C1591.93 177.112 1590.29 178.439 1587.8 178.177L1583.95 177.772ZM1581.89 167.667L1579.54 190.036L1587.36 190.858C1591.46 191.289 1594.54 189.029 1594.91 185.495C1595.17 183.003 1593.93 180.576 1591.44 179.676C1593.47 179.156 1595.04 177.598 1595.29 175.2C1595.66 171.667 1593.44 168.881 1589.18 168.433L1581.89 167.667Z" stroke="#001790" stroke-width="9"/><path d="M1574.07 189.461L1576.42 167.092L1572.29 166.658L1562.42 184.026L1556.45 164.993L1552.25 164.552L1549.9 186.921L1552.96 187.242L1554.79 169.827L1560.53 188.038L1563.37 188.337L1572.84 171.724L1571.01 189.139L1574.07 189.461Z" fill="#FF8686"/><path d="M1574.07 189.461L1576.42 167.092L1572.29 166.658L1562.42 184.026L1556.45 164.993L1552.25 164.552L1549.9 186.921L1552.96 187.242L1554.79 169.827L1560.53 188.038L1563.37 188.337L1572.84 171.724L1571.01 189.139L1574.07 189.461Z" stroke="#001790" stroke-width="9"/><path d="M1530 175.228C1530.56 175.095 1531.2 175.035 1531.83 175.102C1533.85 175.314 1535.88 176.675 1535.6 179.357C1535.38 181.408 1533.69 182.984 1530.88 182.689C1528.42 182.43 1526.64 180.52 1526.8 177.794L1523.7 178.169C1523.53 181.534 1525.89 184.908 1530.62 185.405C1535.39 185.906 1538.37 183.06 1538.73 179.622C1539.17 175.426 1536.07 173.059 1533.07 172.744L1539.48 167.962L1539.77 165.185L1525.88 163.726L1525.59 166.566L1535.37 167.594L1528.76 172.513L1530 175.228Z" fill="#FF8686"/><path d="M1530 175.228C1530.56 175.095 1531.2 175.035 1531.83 175.102C1533.85 175.314 1535.88 176.675 1535.6 179.357C1535.38 181.408 1533.69 182.984 1530.88 182.689C1528.42 182.43 1526.64 180.52 1526.8 177.794L1523.7 178.169C1523.53 181.534 1525.89 184.908 1530.62 185.405C1535.39 185.906 1538.37 183.06 1538.73 179.622C1539.17 175.426 1536.07 173.059 1533.07 172.744L1539.48 167.962L1539.77 165.185L1525.88 163.726L1525.59 166.566L1535.37 167.594L1528.76 172.513L1530 175.228Z" stroke="#001790" stroke-width="9"/><path d="M1515.59 181.273C1515.46 182.503 1516.3 183.549 1517.54 183.678C1518.76 183.807 1519.84 182.964 1519.97 181.733C1520.1 180.503 1519.23 179.423 1518 179.293C1516.77 179.164 1515.72 180.042 1515.59 181.273Z" fill="#FF8686"/><path d="M1515.59 181.273C1515.46 182.503 1516.3 183.549 1517.54 183.678C1518.76 183.807 1519.84 182.964 1519.97 181.733C1520.1 180.503 1519.23 179.423 1518 179.293C1516.77 179.164 1515.72 180.042 1515.59 181.273Z" stroke="#001790" stroke-width="9"/><path d="M1511.19 182.852L1513.34 162.408L1510.63 162.123C1509.92 164.282 1507.8 165.654 1504.95 165.419L1504.72 167.595L1509.68 168.116L1508.16 182.534L1511.19 182.852Z" fill="#FF8686"/><path d="M1511.19 182.852L1513.34 162.408L1510.63 162.123C1509.92 164.282 1507.8 165.654 1504.95 165.419L1504.72 167.595L1509.68 168.116L1508.16 182.534L1511.19 182.852Z" stroke="#001790" stroke-width="9"/><path d="M1479.65 169.106L1479.38 171.599L1485.28 172.219L1484.63 178.433L1487.22 178.705L1487.87 172.491L1493.8 173.114L1494.06 170.621L1488.13 169.998L1488.78 163.846L1486.19 163.574L1485.55 169.726L1479.65 169.106Z" fill="#FF8686"/><path d="M1479.65 169.106L1479.38 171.599L1485.28 172.219L1484.63 178.433L1487.22 178.705L1487.87 172.491L1493.8 173.114L1494.06 170.621L1488.13 169.998L1488.78 163.846L1486.19 163.574L1485.55 169.726L1479.65 169.106Z" stroke="#001790" stroke-width="9"/><path d="M1582.91 187.648L1583.67 180.423L1588.09 180.887C1590.8 181.172 1592 182.829 1591.78 184.975C1591.55 187.151 1589.7 188.361 1587.2 188.099L1582.91 187.648ZM1583.95 177.772L1584.7 170.706L1588.42 171.097C1590.97 171.366 1592.37 172.916 1592.15 175.03C1591.93 177.112 1590.29 178.439 1587.8 178.177L1583.95 177.772ZM1581.89 167.667L1579.54 190.036L1587.36 190.858C1591.46 191.289 1594.54 189.029 1594.91 185.495C1595.17 183.003 1593.93 180.576 1591.44 179.676C1593.47 179.156 1595.04 177.598 1595.29 175.2C1595.66 171.667 1593.44 168.881 1589.18 168.433L1581.89 167.667Z" fill="#FF8686"/><path d="M1574.07 189.461L1576.42 167.092L1572.29 166.658L1562.42 184.026L1556.45 164.993L1552.25 164.552L1549.9 186.921L1552.96 187.242L1554.79 169.827L1560.53 188.038L1563.37 188.337L1572.84 171.724L1571.01 189.139L1574.07 189.461Z" fill="#FF8686"/><path d="M1530 175.228C1530.56 175.095 1531.2 175.035 1531.83 175.102C1533.85 175.314 1535.88 176.675 1535.6 179.357C1535.38 181.408 1533.69 182.984 1530.88 182.689C1528.42 182.43 1526.64 180.52 1526.8 177.794L1523.7 178.169C1523.53 181.534 1525.89 184.908 1530.62 185.405C1535.39 185.906 1538.37 183.06 1538.73 179.622C1539.17 175.426 1536.07 173.059 1533.07 172.744L1539.48 167.962L1539.77 165.185L1525.88 163.726L1525.59 166.566L1535.37 167.594L1528.76 172.513L1530 175.228Z" fill="#FF8686"/><path d="M1515.59 181.273C1515.46 182.503 1516.3 183.549 1517.54 183.678C1518.76 183.807 1519.84 182.964 1519.97 181.733C1520.1 180.503 1519.23 179.423 1518 179.293C1516.77 179.164 1515.72 180.042 1515.59 181.273Z" fill="#FF8686"/><path d="M1511.19 182.852L1513.34 162.408L1510.63 162.123C1509.92 164.282 1507.8 165.654 1504.95 165.419L1504.72 167.595L1509.68 168.116L1508.16 182.534L1511.19 182.852Z" fill="#FF8686"/><path d="M1479.65 169.106L1479.38 171.599L1485.28 172.219L1484.63 178.433L1487.22 178.705L1487.87 172.491L1493.8 173.114L1494.06 170.621L1488.13 169.998L1488.78 163.846L1486.19 163.574L1485.55 169.726L1479.65 169.106Z" fill="#FF8686"/></g><g opacity="0.25"><path d="M1500 178.5C1732.9 178.5 1922 367.598 1922 600.5C1922 833.402 1732.9 1022.5 1500 1022.5C1267.1 1022.5 1078 833.402 1078 600.5C1078 367.598 1267.1 178.5 1500 178.5Z" stroke="#E78397" stroke-width="3" stroke-dasharray="10 10"/></g><mask id="mask9_193_452" style="mask-type:alpha" maskUnits="userSpaceOnUse" x="1579" y="655" width="201" height="201"><path d="M1679.89 655.013C1735.08 655.013 1779.89 699.823 1779.89 755.013C1779.89 810.203 1735.08 855.013 1679.89 855.013C1624.7 855.013 1579.89 810.203 1579.89 755.013C1579.89 699.823 1624.7 655.013 1679.89 655.013Z" fill="#FF0000"/></mask><g mask="url(#mask9_193_452)"><path d="M1500 319.5C1344.81 319.5 1219 445.308 1219 600.5C1219 755.692 1344.81 881.5 1500 881.5C1655.19 881.5 1781 755.692 1781 600.5C1781 445.308 1655.19 319.5 1500 319.5Z" stroke="#E78397" stroke-width="3" stroke-dasharray="10 10"/></g><mask id="mask10_193_452" style="mask-type:luminance" maskUnits="userSpaceOnUse" x="1558" y="798" width="175" height="67"><path d="M1563.58 798.178L1732.65 815.948L1727.52 864.68L1558.46 846.91L1563.58 798.178Z" fill="white"/></mask><g mask="url(#mask10_193_452)"><path d="M1712.87 851.981L1695.66 850.172C1694.28 850.027 1693.25 848.804 1693.39 847.465L1695.84 824.209C1695.98 822.851 1697.24 821.868 1698.62 822.013L1707.32 822.928C1708.03 823.002 1708.54 823.633 1708.47 824.342C1708.39 825.051 1707.76 825.562 1707.05 825.487L1698.35 824.573L1695.95 847.734L1713.14 849.421L1714.69 834.293C1714.76 833.585 1715.39 833.073 1716.1 833.148C1716.81 833.222 1717.32 833.854 1717.25 834.562L1715.65 849.804C1715.5 851.143 1714.25 852.125 1712.87 851.981ZM1715.83 835.708L1706.09 834.683C1705.4 834.611 1704.87 833.958 1704.94 833.269L1705.91 824.073C1705.96 823.561 1706.32 823.141 1706.82 822.974C1707.29 822.825 1707.83 822.981 1708.17 823.375L1716.95 833.576C1717.29 833.989 1717.35 834.553 1717.1 835.025C1716.87 835.479 1716.36 835.764 1715.83 835.708ZM1707.64 832.238L1712.87 832.789L1708.15 827.315L1707.64 832.238Z" stroke="#001790" stroke-width="7.92"/><path d="M1712.86 851.982L1695.66 850.174C1694.27 850.028 1693.25 848.806 1693.39 847.455L1695.84 824.201C1695.98 822.849 1697.23 821.869 1698.62 822.015L1707.33 822.93C1708.04 823.005 1708.55 823.638 1708.47 824.345C1708.4 825.05 1707.77 825.565 1707.06 825.49L1698.35 824.575L1695.95 847.724L1713.13 849.42L1714.69 834.283C1714.76 833.576 1715.39 833.064 1716.1 833.138C1716.81 833.212 1717.32 833.846 1717.25 834.553L1715.65 849.794C1715.5 851.145 1714.26 852.128 1712.86 851.982Z" fill="#FF8686"/><path d="M1715.83 835.7L1706.09 834.676C1705.39 834.602 1704.87 833.969 1704.95 833.262L1705.91 824.078C1705.97 823.568 1706.32 823.137 1706.81 822.982C1707.3 822.826 1707.83 822.981 1708.17 823.373L1716.94 833.581C1717.29 833.981 1717.35 834.55 1717.11 835.018C1716.86 835.482 1716.36 835.755 1715.83 835.7ZM1707.64 832.249L1712.88 832.799L1708.16 827.312L1707.64 832.249Z" fill="#FF8686"/><path d="M1669.73 844.18L1670.49 836.955L1674.91 837.419C1677.62 837.704 1678.82 839.361 1678.6 841.507C1678.37 843.683 1676.52 844.893 1674.03 844.631L1669.73 844.18ZM1670.77 834.304L1671.52 827.238L1675.24 827.629C1677.79 827.898 1679.19 829.448 1678.97 831.562C1678.75 833.644 1677.11 834.971 1674.62 834.709L1670.77 834.304ZM1668.71 824.199L1666.36 846.568L1674.18 847.39C1678.28 847.821 1681.36 845.561 1681.73 842.027C1681.99 839.535 1680.75 837.108 1678.26 836.208C1680.29 835.688 1681.86 834.13 1682.11 831.732C1682.48 828.199 1680.26 825.413 1676 824.965L1668.71 824.199Z" fill="#FF8686"/><path d="M1669.73 844.18L1670.49 836.955L1674.91 837.419C1677.62 837.704 1678.82 839.361 1678.6 841.507C1678.37 843.683 1676.52 844.893 1674.03 844.631L1669.73 844.18ZM1670.77 834.304L1671.52 827.238L1675.24 827.629C1677.79 827.898 1679.19 829.448 1678.97 831.562C1678.75 833.644 1677.11 834.971 1674.62 834.709L1670.77 834.304ZM1668.71 824.199L1666.36 846.568L1674.18 847.39C1678.28 847.821 1681.36 845.561 1681.73 842.027C1681.99 839.535 1680.75 837.108 1678.26 836.208C1680.29 835.688 1681.86 834.13 1682.11 831.732C1682.48 828.199 1680.26 825.413 1676 824.965L1668.71 824.199Z" stroke="#001790" stroke-width="9"/><path d="M1660.89 845.993L1663.24 823.624L1659.11 823.19L1649.24 840.558L1643.27 821.525L1639.07 821.084L1636.72 843.453L1639.78 843.775L1641.61 826.359L1647.35 844.57L1650.19 844.869L1659.66 828.256L1657.83 845.671L1660.89 845.993Z" fill="#FF8686"/><path d="M1660.89 845.993L1663.24 823.624L1659.11 823.19L1649.24 840.558L1643.27 821.525L1639.07 821.084L1636.72 843.453L1639.78 843.775L1641.61 826.359L1647.35 844.57L1650.19 844.869L1659.66 828.256L1657.83 845.671L1660.89 845.993Z" stroke="#001790" stroke-width="9"/><path d="M1610.57 835.09C1610.52 838.338 1613.15 841.486 1617.51 841.944C1622.05 842.421 1625.34 839.609 1625.75 835.76C1626.19 831.533 1623.53 828.669 1619.52 828.248C1617.91 828.079 1616.22 828.411 1615.2 829.325L1617.33 823.616L1626.07 824.534L1626.36 821.694L1615.57 820.56L1611.86 830.441C1612.86 830.929 1613.73 831.435 1614.76 831.958C1615.74 831.136 1617.19 830.714 1618.64 830.866C1621 831.115 1622.91 832.75 1622.61 835.558C1622.35 838.082 1620.22 839.486 1617.79 839.231C1615.24 838.962 1613.55 837.062 1613.63 834.518L1610.57 835.09Z" fill="#FF8686"/><path d="M1610.57 835.09C1610.52 838.338 1613.15 841.486 1617.51 841.944C1622.05 842.421 1625.34 839.609 1625.75 835.76C1626.19 831.533 1623.53 828.669 1619.52 828.248C1617.91 828.079 1616.22 828.411 1615.2 829.325L1617.33 823.616L1626.07 824.534L1626.36 821.694L1615.57 820.56L1611.86 830.441C1612.86 830.929 1613.73 831.435 1614.76 831.958C1615.74 831.136 1617.19 830.714 1618.64 830.866C1621 831.115 1622.91 832.75 1622.61 835.558C1622.35 838.082 1620.22 839.486 1617.79 839.231C1615.24 838.962 1613.55 837.062 1613.63 834.518L1610.57 835.09Z" stroke="#001790" stroke-width="9"/><path d="M1598.13 826.16C1598.14 825.841 1598.14 825.522 1598.17 825.238C1598.41 822.904 1599.87 821.175 1602.55 821.457C1605.14 821.728 1606.22 823.597 1606.02 825.457C1605.86 827.035 1604.82 828.394 1602.77 829.422L1599.13 831.272C1595.42 833.148 1593.83 835.564 1593.41 838.901L1607.74 840.407L1608.04 837.535L1597.53 836.431C1597.95 835.2 1599.08 834.457 1600.33 833.822L1604.64 831.66C1607.13 830.422 1608.87 828.436 1609.15 825.754C1609.51 822.347 1607.29 819.211 1602.9 818.75C1598.42 818.279 1595.51 821.13 1595.14 824.633C1595.11 824.885 1595.08 825.169 1595.08 825.456L1598.13 826.16Z" fill="#FF8686"/><path d="M1598.13 826.16C1598.14 825.841 1598.14 825.522 1598.17 825.238C1598.41 822.904 1599.87 821.175 1602.55 821.457C1605.14 821.728 1606.22 823.597 1606.02 825.457C1605.86 827.035 1604.82 828.394 1602.77 829.422L1599.13 831.272C1595.42 833.148 1593.83 835.564 1593.41 838.901L1607.74 840.407L1608.04 837.535L1597.53 836.431C1597.95 835.2 1599.08 834.457 1600.33 833.822L1604.64 831.66C1607.13 830.422 1608.87 828.436 1609.15 825.754C1609.51 822.347 1607.29 819.211 1602.9 818.75C1598.42 818.279 1595.51 821.13 1595.14 824.633C1595.11 824.885 1595.08 825.169 1595.08 825.456L1598.13 826.16Z" stroke="#001790" stroke-width="9"/><path d="M1569.54 825.961L1569.27 828.454L1575.17 829.074L1574.52 835.288L1577.11 835.56L1577.76 829.346L1583.69 829.969L1583.95 827.476L1578.02 826.853L1578.67 820.701L1576.08 820.429L1575.44 826.581L1569.54 825.961Z" fill="#FF8686"/><path d="M1569.54 825.961L1569.27 828.454L1575.17 829.074L1574.52 835.288L1577.11 835.56L1577.76 829.346L1583.69 829.969L1583.95 827.476L1578.02 826.853L1578.67 820.701L1576.08 820.429L1575.44 826.581L1569.54 825.961Z" stroke="#001790" stroke-width="9"/><path d="M1669.73 844.18L1670.49 836.955L1674.91 837.419C1677.62 837.704 1678.82 839.361 1678.6 841.507C1678.37 843.683 1676.52 844.893 1674.03 844.631L1669.73 844.18ZM1670.77 834.304L1671.52 827.238L1675.24 827.629C1677.79 827.898 1679.19 829.448 1678.97 831.562C1678.75 833.644 1677.11 834.971 1674.62 834.709L1670.77 834.304ZM1668.71 824.199L1666.36 846.568L1674.18 847.39C1678.28 847.821 1681.36 845.561 1681.73 842.027C1681.99 839.535 1680.75 837.108 1678.26 836.208C1680.29 835.688 1681.86 834.13 1682.11 831.732C1682.48 828.199 1680.26 825.413 1676 824.965L1668.71 824.199Z" fill="#FF8686"/><path d="M1660.89 845.993L1663.24 823.624L1659.11 823.19L1649.24 840.558L1643.27 821.525L1639.07 821.084L1636.72 843.453L1639.78 843.775L1641.61 826.359L1647.35 844.57L1650.19 844.869L1659.66 828.256L1657.83 845.671L1660.89 845.993Z" fill="#FF8686"/><path d="M1610.57 835.09C1610.52 838.338 1613.15 841.486 1617.51 841.944C1622.05 842.421 1625.34 839.609 1625.75 835.76C1626.19 831.533 1623.53 828.669 1619.52 828.248C1617.91 828.079 1616.22 828.411 1615.2 829.325L1617.33 823.616L1626.07 824.534L1626.36 821.694L1615.57 820.56L1611.86 830.441C1612.86 830.929 1613.73 831.435 1614.76 831.958C1615.74 831.136 1617.19 830.714 1618.64 830.866C1621 831.115 1622.91 832.75 1622.61 835.558C1622.35 838.082 1620.22 839.486 1617.79 839.231C1615.24 838.962 1613.55 837.062 1613.63 834.518L1610.57 835.09Z" fill="#FF8686"/><path d="M1598.13 826.16C1598.14 825.841 1598.14 825.522 1598.17 825.238C1598.41 822.904 1599.87 821.175 1602.55 821.457C1605.14 821.728 1606.22 823.597 1606.02 825.457C1605.86 827.035 1604.82 828.394 1602.77 829.422L1599.13 831.272C1595.42 833.148 1593.83 835.564 1593.41 838.901L1607.74 840.407L1608.04 837.535L1597.53 836.431C1597.95 835.2 1599.08 834.457 1600.33 833.822L1604.64 831.66C1607.13 830.422 1608.87 828.436 1609.15 825.754C1609.51 822.347 1607.29 819.211 1602.9 818.75C1598.42 818.279 1595.51 821.13 1595.14 824.633C1595.11 824.885 1595.08 825.169 1595.08 825.456L1598.13 826.16Z" fill="#FF8686"/><path d="M1569.54 825.961L1569.27 828.454L1575.17 829.074L1574.52 835.288L1577.11 835.56L1577.76 829.346L1583.69 829.969L1583.95 827.476L1578.02 826.853L1578.67 820.701L1576.08 820.429L1575.44 826.581L1569.54 825.961Z" fill="#FF8686"/></g><g opacity="0.25"><path d="M1500 319.5C1344.81 319.5 1219 445.308 1219 600.5C1219 755.692 1344.81 881.5 1500 881.5C1655.19 881.5 1781 755.692 1781 600.5C1781 445.308 1655.19 319.5 1500 319.5Z" stroke="#E78397" stroke-width="3" stroke-dasharray="10 10"/></g><path d="M2426.64 1134.52L2419.96 1139.88C2419.7 1140.09 2419.42 1140.26 2419.11 1140.38C2418.92 1140.46 2418.72 1140.52 2418.51 1140.56C2417.41 1140.78 2416.23 1140.46 2415.4 1139.6L2415.2 1139.4C2413.98 1138.15 2413.91 1136.17 2415.04 1134.83L2420.56 1128.29L2426.64 1134.52Z" fill="white"/><path d="M2426.64 1134.52L2419.96 1139.88C2419.7 1140.09 2419.42 1140.26 2419.11 1140.38C2418.92 1140.46 2418.72 1140.52 2418.51 1140.56C2417.41 1140.78 2416.23 1140.46 2415.4 1139.6L2415.2 1139.4C2413.98 1138.15 2413.91 1136.17 2415.04 1134.83L2420.56 1128.29L2426.64 1134.52Z" fill="#4F62E9"/><path d="M2426.64 1134.52L2419.96 1139.88C2419.7 1140.09 2419.42 1140.26 2419.11 1140.38C2418.87 1140.23 2418.65 1140.05 2418.44 1139.84L2418.24 1139.64C2417.02 1138.39 2416.95 1136.41 2418.08 1135.07L2422.3 1130.07L2426.64 1134.52Z" fill="white"/><path d="M2414.95 1140.04L2414.75 1139.84C2413.3 1138.35 2413.22 1136.02 2414.56 1134.43L2420.53 1127.36L2427.57 1134.57L2420.36 1140.37C2420.06 1140.61 2419.72 1140.81 2419.35 1140.96C2419.14 1141.05 2418.9 1141.12 2418.64 1141.17C2417.29 1141.45 2415.91 1141.02 2414.95 1140.04ZM2420.6 1129.22L2415.52 1135.23C2414.59 1136.33 2414.65 1137.94 2415.65 1138.96L2415.85 1139.17C2416.51 1139.84 2417.46 1140.14 2418.39 1139.95C2418.57 1139.91 2418.73 1139.86 2418.88 1139.8C2419.13 1139.7 2419.37 1139.56 2419.57 1139.39L2425.71 1134.46L2420.6 1129.22Z" fill="#0D1333"/><path d="M2417.76 1137.1C2416.9 1136.22 2416.12 1135.25 2415.44 1134.2L2416.48 1133.52C2417.76 1135.48 2419.39 1137.14 2421.31 1138.46L2420.6 1139.49C2419.57 1138.79 2418.62 1137.99 2417.76 1137.1Z" fill="#0D1333"/><path d="M2443.24 1151.53L2436.57 1156.89C2436.31 1157.11 2436.02 1157.27 2435.72 1157.39C2435.53 1157.47 2435.32 1157.53 2435.12 1157.57C2434.02 1157.8 2432.84 1157.47 2432 1156.62L2431.81 1156.42C2430.58 1155.16 2430.51 1153.18 2431.64 1151.85L2437.17 1145.3L2443.24 1151.53Z" fill="white"/><path d="M2443.24 1151.53L2436.57 1156.89C2436.31 1157.11 2436.02 1157.27 2435.72 1157.39C2435.53 1157.47 2435.32 1157.53 2435.12 1157.57C2434.02 1157.8 2432.84 1157.47 2432 1156.62L2431.81 1156.42C2430.58 1155.16 2430.51 1153.18 2431.64 1151.85L2437.17 1145.3L2443.24 1151.53Z" fill="#4F62E9"/><path d="M2443.24 1151.53L2436.57 1156.89C2436.31 1157.11 2436.02 1157.27 2435.72 1157.39C2435.48 1157.25 2435.25 1157.07 2435.05 1156.86L2434.85 1156.66C2433.62 1155.4 2433.55 1153.42 2434.68 1152.09L2438.91 1147.09L2443.24 1151.53Z" fill="white"/><path d="M2431.56 1157.05L2431.36 1156.85C2429.9 1155.36 2429.82 1153.03 2431.17 1151.44L2437.13 1144.37L2444.17 1151.59L2436.96 1157.38C2436.66 1157.62 2436.32 1157.82 2435.95 1157.97C2435.74 1158.06 2435.5 1158.13 2435.25 1158.19C2433.89 1158.46 2432.52 1158.04 2431.56 1157.05ZM2437.2 1146.23L2432.12 1152.25C2431.19 1153.35 2431.25 1154.95 2432.25 1155.98L2432.45 1156.18C2433.11 1156.86 2434.06 1157.15 2434.99 1156.96C2435.17 1156.92 2435.34 1156.87 2435.48 1156.82C2435.74 1156.71 2435.97 1156.57 2436.17 1156.41L2442.31 1151.47L2437.2 1146.23Z" fill="#0D1333"/><path d="M2434.36 1154.12C2433.5 1153.23 2432.73 1152.26 2432.04 1151.22L2433.09 1150.54C2434.37 1152.49 2435.99 1154.15 2437.91 1155.48L2437.21 1156.51C2436.18 1155.8 2435.23 1155 2434.36 1154.12Z" fill="#0D1333"/><path d="M2508.45 1099.82L2452.02 1150.18L2450.21 1151.8C2447.8 1153.95 2444.12 1153.82 2441.86 1151.51L2418.87 1127.95C2416.61 1125.64 2416.57 1121.96 2418.79 1119.59L2472.07 1062.76C2475.28 1059.63 2478.88 1056.9 2482.8 1054.7C2490.99 1050.09 2499.62 1046.31 2508.57 1043.39L2533.87 1035.14C2536.12 1034.41 2538.24 1036.58 2537.45 1038.81L2537.04 1039.97L2528.52 1064.11C2525.46 1072.77 2521.47 1081.27 2516.78 1089.24C2514.49 1093.13 2511.67 1096.67 2508.45 1099.82Z" fill="#4F62E9"/><path d="M2508.44 1099.82L2452.02 1150.18C2438.57 1135.89 2438.01 1124.53 2438.32 1119.61C2438.6 1115.33 2439.78 1112.1 2475.61 1074.65C2482.05 1067.92 2491.49 1058.05 2506.91 1050.56C2509.69 1049.21 2512.91 1047.84 2512.91 1047.84C2520.95 1045.22 2528.99 1042.59 2537.04 1039.97L2528.52 1064.11C2525.46 1072.77 2521.47 1081.27 2516.78 1089.24C2514.49 1093.13 2511.67 1096.67 2508.44 1099.82Z" fill="white"/><path d="M2441.41 1151.95L2418.42 1128.39C2415.93 1125.83 2415.88 1121.78 2418.33 1119.17L2471.62 1062.33C2474.93 1059.09 2478.59 1056.35 2482.5 1054.15C2490.7 1049.54 2499.41 1045.72 2508.37 1042.8L2533.68 1034.55C2534.95 1034.14 2536.31 1034.47 2537.25 1035.43C2538.18 1036.39 2538.48 1037.76 2538.04 1039.02L2529.11 1064.32C2526.05 1072.96 2522.09 1081.45 2517.32 1089.56C2515.04 1093.43 2512.2 1097.03 2508.88 1100.27L2508.86 1100.29L2450.63 1152.26C2447.96 1154.65 2443.91 1154.51 2441.41 1151.95ZM2536.35 1036.3C2535.74 1035.68 2534.89 1035.47 2534.06 1035.74L2508.76 1043.99C2499.87 1046.88 2491.24 1050.67 2483.11 1055.24C2479.3 1057.38 2475.73 1060.06 2472.51 1063.2L2419.24 1120.02C2417.25 1122.14 2417.29 1125.44 2419.32 1127.52L2442.3 1151.07C2444.34 1153.16 2447.63 1153.27 2449.8 1151.33L2508.02 1099.36C2511.25 1096.21 2514.02 1092.69 2516.24 1088.92C2520.97 1080.88 2524.9 1072.46 2527.93 1063.9L2536.86 1038.61C2537.15 1037.79 2536.96 1036.92 2536.35 1036.3Z" fill="#0D1333"/><path d="M2488.77 1098.18C2484.4 1102.45 2477.4 1102.36 2473.14 1097.99C2468.88 1093.62 2468.96 1086.62 2473.33 1082.36C2477.7 1078.1 2484.7 1078.18 2488.97 1082.55C2493.23 1086.92 2493.14 1093.92 2488.77 1098.18Z" fill="white"/><path d="M2472.69 1098.43C2468.19 1093.82 2468.29 1086.41 2472.9 1081.91C2477.5 1077.41 2484.91 1077.5 2489.41 1082.11C2493.91 1086.72 2493.82 1094.13 2489.21 1098.63C2484.6 1103.13 2477.19 1103.04 2472.69 1098.43ZM2488.52 1082.99C2484.5 1078.87 2477.88 1078.79 2473.77 1082.81C2469.65 1086.82 2469.57 1093.44 2473.59 1097.56C2477.6 1101.67 2484.22 1101.75 2488.34 1097.74C2492.45 1093.72 2492.53 1087.1 2488.52 1082.99Z" fill="#0D1333"/><path d="M2486.38 1095.73C2484.81 1097.25 2482.76 1097.97 2480.75 1097.88C2478.87 1097.81 2477.02 1097.04 2475.6 1095.59C2472.66 1092.58 2472.72 1087.76 2475.73 1084.82C2478.22 1082.39 2481.95 1082.01 2484.83 1083.65C2485.43 1084 2486 1084.43 2486.51 1084.95C2489.44 1087.96 2489.39 1092.79 2486.38 1095.73Z" fill="white"/><path d="M2486.38 1095.73C2484.81 1097.25 2482.76 1097.97 2480.75 1097.88C2480.15 1097.54 2479.58 1097.11 2479.08 1096.59C2476.14 1093.58 2476.19 1088.75 2479.21 1085.81C2480.76 1084.29 2482.81 1083.57 2484.83 1083.65C2485.43 1084 2486 1084.43 2486.51 1084.95C2489.44 1087.96 2489.39 1092.79 2486.38 1095.73Z" fill="#4F62E9"/><path d="M2475.15 1096.03C2471.98 1092.78 2472.04 1087.55 2475.29 1084.37C2478.55 1081.2 2483.78 1081.26 2486.95 1084.51C2490.13 1087.77 2490.06 1093 2486.81 1096.17C2483.56 1099.35 2478.33 1099.28 2475.15 1096.03ZM2486.06 1085.39C2483.37 1082.63 2478.93 1082.57 2476.17 1085.27C2473.41 1087.96 2473.35 1092.4 2476.05 1095.16C2478.74 1097.92 2483.18 1097.97 2485.94 1095.28C2488.7 1092.58 2488.75 1088.15 2486.06 1085.39Z" fill="#0D1333"/><path d="M2494.18 1077.45C2491.5 1074.71 2491.56 1070.29 2494.3 1067.61C2497.05 1064.93 2501.47 1064.98 2504.15 1067.73C2506.83 1070.48 2506.78 1074.89 2504.03 1077.57C2501.28 1080.26 2496.87 1080.2 2494.18 1077.45ZM2503.26 1068.6C2501.06 1066.35 2497.43 1066.3 2495.18 1068.5C2492.92 1070.7 2492.88 1074.33 2495.08 1076.58C2497.28 1078.83 2500.9 1078.88 2503.16 1076.68C2505.41 1074.48 2505.46 1070.86 2503.26 1068.6Z" fill="#0D1333"/><path d="M2502.22 1075.72C2501.43 1076.49 2500.41 1076.9 2499.38 1076.95C2499.11 1076.97 2498.83 1076.95 2498.55 1076.91C2497.63 1076.78 2496.74 1076.36 2496.04 1075.64C2494.36 1073.91 2494.39 1071.15 2496.12 1069.46C2497.53 1068.08 2499.65 1067.85 2501.3 1068.78C2501.32 1068.79 2501.34 1068.8 2501.36 1068.81C2501.7 1069.01 2502.01 1069.25 2502.3 1069.54C2503.98 1071.27 2503.94 1074.03 2502.22 1075.72Z" fill="white"/><path d="M2502.22 1075.72C2501.43 1076.49 2500.41 1076.9 2499.38 1076.95C2499.28 1076.95 2499.18 1076.94 2499.08 1076.92C2498.74 1076.73 2498.43 1076.49 2498.14 1076.2C2496.46 1074.47 2496.49 1071.7 2498.22 1070.02C2499.08 1069.18 2500.19 1068.77 2501.3 1068.78C2501.32 1068.79 2501.34 1068.8 2501.36 1068.81C2501.7 1069.01 2502.01 1069.25 2502.3 1069.54C2503.98 1071.27 2503.94 1074.03 2502.22 1075.72Z" fill="#4F62E9"/><path d="M2495.59 1076.08C2493.67 1074.11 2493.71 1070.94 2495.68 1069.02C2497.65 1067.09 2500.82 1067.13 2502.74 1069.1C2504.66 1071.07 2504.62 1074.24 2502.65 1076.16C2500.68 1078.09 2497.52 1078.05 2495.59 1076.08ZM2501.85 1069.98C2500.4 1068.5 2498.03 1068.47 2496.55 1069.91C2495.08 1071.35 2495.05 1073.73 2496.49 1075.2C2497.93 1076.68 2500.3 1076.71 2501.78 1075.27C2503.26 1073.83 2503.29 1071.45 2501.85 1069.98Z" fill="#0D1333"/><path d="M2467.84 1112.02C2465.33 1114.46 2461.32 1114.41 2458.88 1111.91C2456.43 1109.4 2456.48 1105.39 2458.99 1102.95C2461.49 1100.5 2465.5 1100.55 2467.95 1103.06C2470.39 1105.56 2470.34 1109.57 2467.84 1112.02Z" fill="white"/><path d="M2458.43 1112.35C2455.75 1109.6 2455.8 1105.18 2458.55 1102.5C2461.3 1099.82 2465.71 1099.87 2468.39 1102.62C2471.08 1105.37 2471.02 1109.78 2468.27 1112.47C2465.53 1115.15 2461.11 1115.09 2458.43 1112.35ZM2467.5 1103.49C2465.3 1101.24 2461.68 1101.19 2459.42 1103.39C2457.17 1105.59 2457.12 1109.22 2459.32 1111.47C2461.52 1113.73 2465.15 1113.77 2467.4 1111.57C2469.66 1109.37 2469.7 1105.75 2467.5 1103.49Z" fill="#0D1333"/><path d="M2466.46 1110.61C2465.67 1111.38 2464.65 1111.8 2463.63 1111.84C2463.35 1111.86 2463.07 1111.84 2462.79 1111.81C2461.87 1111.68 2460.98 1111.25 2460.29 1110.53C2458.6 1108.81 2458.64 1106.04 2460.36 1104.36C2461.78 1102.97 2463.9 1102.74 2465.54 1103.67C2465.57 1103.68 2465.58 1103.69 2465.61 1103.7C2465.94 1103.9 2466.26 1104.14 2466.54 1104.43C2468.22 1106.16 2468.19 1108.92 2466.46 1110.61Z" fill="white"/><path d="M2466.46 1110.61C2465.67 1111.38 2464.65 1111.8 2463.63 1111.84C2463.52 1111.84 2463.42 1111.83 2463.32 1111.81C2462.99 1111.62 2462.67 1111.38 2462.39 1111.09C2460.7 1109.36 2460.74 1106.59 2462.46 1104.91C2463.32 1104.07 2464.43 1103.66 2465.54 1103.67C2465.57 1103.68 2465.58 1103.69 2465.61 1103.7C2465.94 1103.9 2466.26 1104.14 2466.54 1104.43C2468.22 1106.16 2468.19 1108.92 2466.46 1110.61Z" fill="#4F62E9"/><path d="M2459.84 1110.97C2457.92 1109 2457.95 1105.83 2459.92 1103.91C2461.9 1101.99 2465.06 1102.03 2466.99 1104C2468.91 1105.97 2468.87 1109.13 2466.9 1111.06C2464.93 1112.98 2461.76 1112.94 2459.84 1110.97ZM2466.09 1104.87C2464.65 1103.39 2462.28 1103.36 2460.8 1104.8C2459.32 1106.25 2459.29 1108.62 2460.73 1110.1C2462.17 1111.57 2464.55 1111.6 2466.03 1110.16C2467.5 1108.72 2467.53 1106.35 2466.09 1104.87Z" fill="#0D1333"/><path d="M2507.59 1043.84L2508.34 1042.85C2516.26 1048.84 2523.29 1055.84 2529.24 1063.67L2528.24 1064.42C2522.37 1056.69 2515.42 1049.76 2507.59 1043.84Z" fill="#0D1333"/><path d="M2427.21 1115C2427.21 1115 2423.85 1118.49 2407.88 1125.25C2398.59 1129.18 2391.37 1131.16 2386.59 1132.1C2385.61 1132.28 2384.74 1132.43 2383.97 1132.55C2382.88 1132.71 2382.02 1131.37 2382.68 1130.53C2382.85 1130.31 2383.03 1130.09 2383.22 1129.87C2411.04 1097.98 2445.66 1090.81 2445.99 1090.7C2449.68 1089.42 2449.58 1090.99 2447.6 1093.85C2442.84 1100.71 2427.21 1115 2427.21 1115Z" fill="white"/><path d="M2427.21 1115C2427.21 1115 2423.85 1118.49 2407.88 1125.25C2398.59 1129.18 2391.37 1131.16 2386.59 1132.1C2385.61 1132.28 2384.74 1132.43 2383.97 1132.55C2382.88 1132.71 2382.02 1131.37 2382.68 1130.53C2382.85 1130.31 2383.03 1130.09 2383.22 1129.87C2411.04 1097.98 2445.66 1090.81 2445.99 1090.7C2449.68 1089.42 2449.58 1090.99 2447.6 1093.85C2442.84 1100.71 2427.21 1115 2427.21 1115Z" fill="#4F62E9"/><path d="M2427.21 1115C2427.21 1115 2423.85 1118.49 2407.88 1125.25C2398.59 1129.18 2391.37 1131.16 2386.59 1132.1C2411.39 1104.05 2441.34 1095.43 2447.6 1093.85C2442.84 1100.71 2427.21 1115 2427.21 1115Z" fill="white"/><path d="M2382.41 1132.59C2382.29 1132.46 2382.18 1132.32 2382.09 1132.16C2381.7 1131.49 2381.74 1130.71 2382.19 1130.14C2382.36 1129.92 2382.55 1129.69 2382.75 1129.46C2408.39 1100.08 2439.66 1091.54 2445.67 1090.13L2445.82 1090.09C2447.07 1089.66 2448.65 1089.25 2449.33 1090.16C2449.9 1090.92 2449.53 1092.17 2448.11 1094.2C2443.4 1101.01 2428.44 1114.72 2427.65 1115.45C2427.35 1115.75 2423.64 1119.26 2408.12 1125.83C2398.39 1129.95 2391.1 1131.85 2386.71 1132.71C2385.81 1132.88 2384.92 1133.04 2384.06 1133.16C2383.45 1133.25 2382.84 1133.03 2382.41 1132.59ZM2448.33 1090.91C2448.33 1090.91 2447.95 1090.68 2446.19 1091.29C2446.18 1091.29 2446.1 1091.31 2445.96 1091.35C2440.01 1092.74 2409.08 1101.19 2383.69 1130.28C2383.51 1130.49 2383.34 1130.7 2383.17 1130.92C2382.98 1131.16 2383.12 1131.45 2383.17 1131.54C2383.29 1131.75 2383.55 1131.98 2383.88 1131.93C2384.72 1131.8 2385.59 1131.65 2386.47 1131.48C2390.81 1130.63 2398 1128.76 2407.64 1124.68C2423.19 1118.09 2426.73 1114.6 2426.77 1114.56L2426.78 1114.55L2426.79 1114.54C2426.95 1114.4 2442.42 1100.22 2447.09 1093.49C2448.51 1091.44 2448.33 1090.92 2448.33 1090.91Z" fill="#0D1333"/><path d="M2455.41 1143.89C2455.41 1143.89 2451.84 1147.17 2444.69 1162.97C2440.53 1172.16 2438.38 1179.34 2437.33 1184.09C2437.11 1185.06 2436.95 1185.93 2436.81 1186.7C2436.63 1187.79 2437.95 1188.68 2438.79 1188.04C2439.02 1187.87 2439.24 1187.7 2439.47 1187.51C2472.03 1160.48 2480.05 1126.04 2480.17 1125.72C2481.53 1122.06 2479.96 1122.12 2477.05 1124.03C2470.07 1128.62 2455.41 1143.89 2455.41 1143.89Z" fill="white"/><path d="M2455.41 1143.89C2455.41 1143.89 2451.84 1147.17 2444.69 1162.97C2440.53 1172.16 2438.38 1179.34 2437.33 1184.09C2437.11 1185.06 2436.95 1185.93 2436.81 1186.7C2436.63 1187.79 2437.95 1188.68 2438.79 1188.04C2439.02 1187.87 2439.24 1187.7 2439.47 1187.51C2472.03 1160.48 2480.05 1126.04 2480.17 1125.72C2481.53 1122.06 2479.96 1122.12 2477.05 1124.03C2470.07 1128.62 2455.41 1143.89 2455.41 1143.89Z" fill="#4F62E9"/><path d="M2455.41 1143.89C2455.41 1143.89 2451.84 1147.17 2444.69 1162.97C2440.53 1172.16 2438.38 1179.34 2437.33 1184.09C2465.97 1159.98 2475.32 1130.26 2477.05 1124.03C2470.07 1128.62 2455.41 1143.89 2455.41 1143.89Z" fill="white"/><path d="M2436.73 1188.26C2436.3 1187.81 2436.09 1187.2 2436.2 1186.59C2436.35 1185.73 2436.52 1184.85 2436.72 1183.96C2437.69 1179.58 2439.76 1172.35 2444.12 1162.71C2451.07 1147.36 2454.66 1143.74 2454.97 1143.45C2455.72 1142.67 2469.79 1128.06 2476.71 1123.51C2478.78 1122.14 2480.04 1121.8 2480.78 1122.39C2481.67 1123.09 2481.23 1124.66 2480.75 1125.94L2480.73 1126.05C2479.17 1132.02 2469.87 1163.08 2439.87 1187.99C2439.63 1188.19 2439.4 1188.37 2439.17 1188.54C2438.59 1188.97 2437.82 1188.99 2437.15 1188.59C2436.99 1188.49 2436.85 1188.38 2436.73 1188.26ZM2455.83 1144.35C2455.77 1144.41 2452.2 1147.89 2445.26 1163.23C2440.94 1172.76 2438.9 1179.91 2437.94 1184.23C2437.75 1185.1 2437.58 1185.97 2437.43 1186.8C2437.37 1187.13 2437.59 1187.4 2437.8 1187.52C2437.88 1187.57 2438.17 1187.72 2438.42 1187.54C2438.64 1187.38 2438.85 1187.21 2439.07 1187.03C2468.78 1162.36 2477.97 1131.64 2479.52 1125.73C2479.55 1125.6 2479.58 1125.52 2479.58 1125.5C2480.24 1123.75 2480 1123.38 2480 1123.36C2480 1123.37 2479.49 1123.18 2477.4 1124.55C2470.56 1129.05 2456.01 1144.17 2455.86 1144.33L2455.85 1144.34L2455.83 1144.35Z" fill="#0D1333"/></g></g><defs><clipPath id="clip0_193_452"><rect width="3000" height="1280" fill="white" transform="translate(0 0.5)"/></clipPath></defs></svg>