<?xml version="1.0" encoding="UTF-8"?>
<svg width="800px" height="575px" viewBox="0 0 800 575" version="1.1" xmlns="http://www.w3.org/2000/svg" xmlns:xlink="http://www.w3.org/1999/xlink">
    <title>Artboard</title>
    <g id="Artboard" stroke="none" stroke-width="1" fill="none" fill-rule="evenodd">
        <rect fill="#F9F7EC" x="0" y="0" width="800" height="575"></rect>
        <path d="M519.0597,36.0803172 L530.259858,57.3682175 L534.464023,58.0835015 L552.036118,41.697593 C554.435961,39.4468698 557.8323,38.5999388 561.009455,39.4599494 C564.18661,40.31996 566.690306,42.7639468 567.624373,45.9171121 L574.469279,69.0161901 L578.423822,70.5255048 L598.945402,57.8800721 C601.741383,56.1475656 605.235731,55.9838462 608.181762,57.4473245 C611.127792,58.9108027 613.105902,61.7930352 613.410356,65.0657228 L615.597836,89.0835141 L619.118824,91.2949884 L641.735917,82.849388 C644.820471,81.710831 648.27475,82.2421971 650.873533,84.2550125 C653.472316,86.2678279 654.848001,89.4773769 654.512637,92.745243 L651.963862,116.697412 L655.005313,119.578234 L678.831103,115.706514 C682.089331,115.161848 685.360697,116.349613 687.5219,118.836702 C689.70938,121.284416 690.425402,124.716467 689.44662,127.879466 L682.286401,150.860423 C683.094389,151.956317 683.915515,153.104709 684.756348,154.325285 L708.818623,155.178376 C712.103127,155.283372 715.092025,157.081425 716.721139,159.962248 C718.350253,162.84307 718.396236,166.327619 716.826243,169.195317 L705.337049,190.325723 L707.058129,194.210568 L730.48321,199.749097 C733.688886,200.510317 736.296782,202.885847 737.321547,205.963536 C738.404406,209.083757 737.765749,212.542904 735.639881,215.071923 L720.189575,233.577434 C720.531164,234.955504 720.839907,236.32045 721.128943,237.672271 L743.082567,247.692808 C746.064896,249.051192 748.140703,251.866392 748.574257,255.127824 C749.010076,258.394618 747.71066,261.652245 745.145235,263.724356 L726.364442,278.883126 L726.476115,283.050147 L746.051758,297.158959 C748.731913,299.062008 750.190233,302.211882 749.980025,305.604559 C749.756678,308.885678 747.838528,311.818999 744.921889,313.334876 L723.612028,324.51693 L723.040524,327.896482 L722.896006,328.716762 L739.298818,346.277311 C741.578264,348.665966 742.419097,352.091454 741.53885,355.267577 C740.666573,358.431736 738.219487,360.920973 735.068377,361.849502 L711.958609,368.67423 L710.441168,372.650946 L723.099646,393.125129 C724.840673,395.919898 725.007404,399.416389 723.540196,402.363828 C722.072988,405.311268 719.181474,407.288529 715.900013,407.588301 L691.864014,409.766964 L689.650259,413.290886 L698.104572,435.87811 C699.244303,438.959485 698.712389,442.410205 696.697497,445.006309 C694.682605,447.602414 691.469745,448.976681 688.198508,448.641663 L664.208492,446.095514 C663.262555,447.119224 662.30348,448.129808 661.331267,449.140393 L665.174136,472.935068 C665.719364,476.189938 664.523805,479.464495 662.04072,481.623471 C659.564204,483.802134 656.128613,484.530543 652.982058,483.539645 L629.977394,476.386805 C628.880369,477.200523 627.730793,478.020803 626.508958,478.860769 L625.661556,502.898247 C625.530175,506.179366 623.717129,509.158622 620.86618,510.79262 C618.010806,512.424145 614.51313,512.461395 611.623586,510.891053 L590.471382,499.420261 L586.582529,501.139567 L581.038287,524.547071 C580.276282,527.710069 577.885163,530.308716 574.817437,531.325863 C571.694516,532.414392 568.228374,531.775762 565.699654,529.64593 L547.175053,514.218108 C545.795561,514.54622 544.429207,514.861207 543.075992,515.149946 L533.045117,537.080945 C531.691902,540.066764 528.873797,542.133869 525.602432,542.573539 C522.331389,543.004736 519.071413,541.704576 516.997032,539.141488 L501.822624,520.386612 L497.664442,520.49817 L483.541076,540.053639 C481.61441,542.718163 478.448307,544.201597 475.165591,543.977858 C471.879712,543.759465 468.946126,541.843902 467.4273,538.924934 L456.246849,517.623909 L452.857241,517.052995 C452.58347,517.005229 452.309761,516.957106 452.036115,516.908625 L434.46402,533.248598 C432.066278,535.522525 428.650715,536.37429 425.464479,535.492884 C422.297056,534.621506 419.805251,532.176941 418.875765,529.029079 L412.037428,505.943126 L408.076316,504.420686 L387.561306,517.072681 C384.76497,518.808386 381.268351,518.973876 378.320273,517.510046 C375.372196,516.046215 373.393084,513.161821 373.089782,509.887031 L370.908871,485.869239 L367.387883,483.664327 L344.77079,492.109928 C341.686236,493.248485 338.231957,492.717119 335.633174,490.704303 C333.034391,488.691488 331.658706,485.481939 331.99407,482.214073 L334.450879,459.029686 L338.727303,459.029686 L336.224511,482.64718 C336.036497,484.456015 336.796598,486.233645 338.234786,487.348561 C339.672973,488.463476 341.585436,488.757678 343.292763,488.126649 L367.913404,478.932954 L370.974561,480.91475 L374.948811,483.382151 L377.326792,509.519545 C377.507426,511.322746 378.606249,512.905377 380.23359,513.706196 C381.86093,514.507015 383.786652,514.412773 385.327843,513.456888 L407.649331,499.695875 L415.519002,502.727629 L422.955119,527.834752 C423.470091,529.572426 424.845791,530.921902 426.594349,531.404609 C428.347679,531.890389 430.227598,531.422139 431.547381,530.170909 L450.702607,512.354432 L455.235222,513.161588 L457.061406,513.456888 L458.999263,513.739064 L471.211049,536.949701 C472.043239,538.555801 473.654901,539.610887 475.461196,539.732089 C477.279422,539.858007 479.034407,539.039693 480.105485,537.566551 L495.463825,516.285213 L502.735716,516.10147 L503.806464,516.055535 L520.31438,536.464095 C521.45822,537.875855 523.254726,538.591728 525.057204,538.354019 C526.868492,538.120971 528.432165,536.97298 529.195679,535.315703 L540.119938,511.416032 L541.17098,511.206041 C543.161389,510.799182 545.158367,510.346387 547.214467,509.827971 L548.258939,509.565481 L568.445499,526.391059 C569.818422,527.552576 571.730003,527.900374 573.457652,527.309773 C575.176093,526.728996 576.480582,525.314577 576.919519,523.556173 L582.949868,498.088127 L587.922607,495.909464 L590.629038,494.662638 L613.673117,507.15714 C615.268928,508.018976 617.197617,507.994148 618.770667,507.091517 C620.343179,506.191398 621.344705,504.549497 621.424546,502.740753 L622.350776,476.557424 L623.237592,475.953698 C625.076914,474.706872 626.752011,473.512545 628.315435,472.344467 L629.182544,471.688243 L654.256446,479.477619 C655.98968,480.028078 657.88494,479.629487 659.248892,478.427661 C660.632324,477.239449 661.292662,475.414812 660.989679,473.617541 L656.81179,447.709825 L659.689015,444.717444 L662.546533,441.633192 L688.645201,444.415581 C690.455901,444.603402 692.235365,443.844084 693.351431,442.407378 C694.467496,440.970673 694.762001,439.060181 694.130322,437.354613 L684.927142,412.74622 L687.305123,409.071367 L689.380929,405.724626 L715.512442,403.355658 C717.328824,403.189799 718.92922,402.094947 719.74063,400.4631 C720.55204,398.831252 720.458409,396.895808 719.49326,395.349727 L705.698344,373.038118 L706.637712,370.741335 L708.752933,365.202806 L733.879387,357.76779 C735.619755,357.256508 736.9731,355.884712 737.459496,354.138872 C737.947913,352.384199 737.476313,350.502234 736.217954,349.184382 L718.337115,330.048896 L719.151672,325.520952 L719.447277,323.703212 L719.729745,321.76079 L742.964325,309.555027 C744.568263,308.726081 745.623805,307.122018 745.749584,305.322383 C745.877091,303.749196 745.302485,302.200078 744.179591,301.08974 L743.58838,300.59101 L722.27852,285.248497 L722.088018,277.984099 L722.048604,276.921017 L742.478218,260.42355 C743.891434,259.28089 744.608046,257.486235 744.370092,255.685614 C744.136803,253.876193 742.987628,252.314132 741.328642,251.551404 L717.404316,240.644965 L717.187539,239.581882 C716.77399,237.564063 716.31624,235.555536 715.814616,233.557748 L715.551856,232.50779 L732.381653,212.361719 C733.55824,210.970139 733.910523,209.060784 733.307883,207.341606 C732.720199,205.61432 731.286847,204.308788 729.510997,203.883307 L704.023247,197.846048 L701.573008,192.294395 L700.587656,190.181354 L713.095047,167.161023 C713.959369,165.561973 713.932019,163.629601 713.022788,162.055602 C712.133745,160.478063 710.485318,159.478086 708.674105,159.417582 L682.463764,158.492306 L681.859416,157.606404 C681.018583,156.379266 680.217164,155.230874 679.415745,154.128418 L677.582992,151.667579 L685.386973,126.619516 C685.937999,124.888068 685.538997,122.994761 684.335932,121.632215 C683.146493,120.250208 681.319974,119.59055 679.520849,119.893222 L653.586407,124.112741 L650.590939,121.238481 L647.503506,118.383907 L650.282196,92.305573 C650.47021,90.4967384 649.710109,88.7191084 648.271921,87.604193 C646.833734,86.4892775 644.921271,86.1950758 643.213944,86.8261042 L618.586734,96.026362 L615.532146,94.0445661 L611.557896,91.5706024 L609.179915,65.4725815 C609.012726,63.6601778 607.917747,62.0635991 606.286266,61.253379 C604.654786,60.4431589 602.71962,60.5349176 601.172295,61.4958653 L578.857376,75.2634407 L570.987705,72.2251245 L563.551589,47.1180016 C563.036616,45.3803273 561.660916,44.030852 559.912358,43.5481441 C558.159046,43.0610146 556.278459,43.5294309 554.959327,44.7818449 L535.797531,62.6442569 L530.332117,61.6796079 L527.507444,61.2596247 L515.28909,38.0489886 C514.4569,36.4428884 512.845237,35.3878022 511.038942,35.2665997 C509.224214,35.1415126 507.472515,35.9569731 506.401222,37.425576 L491.029744,58.7069141 L483.764422,58.9037812 L482.700243,58.9431546 L466.185758,38.5345942 C465.041918,37.1228343 463.245412,36.4069609 461.442934,36.6446697 C459.63409,36.879845 458.073332,38.0275179 457.311028,39.6829859 L446.386769,63.5695325 L442.333691,64.4423102 L438.247768,65.4266459 L418.054639,48.6076297 C416.666475,47.4379679 414.762754,47.0885632 413.049055,47.6889163 C411.319987,48.2759956 410.013107,49.70787 409.587188,51.48189 L403.55027,76.9433737 L397.986321,79.3976507 L395.8711,80.3819864 L372.820452,67.8743607 C371.220888,67.008908 369.286533,67.0337456 367.709765,67.939983 C366.128641,68.8293114 365.127327,70.4790313 365.069023,72.2907469 L364.149362,98.4740768 L363.255977,99.0778027 C362.034142,99.9112069 360.877997,100.718362 359.780972,101.505831 L357.311025,103.343257 L332.237123,95.5538809 C330.505861,95.0059119 328.613761,95.4043623 327.251247,96.603839 C325.865392,97.790638 325.202482,99.6154969 325.503891,101.413959 L329.734331,127.321675 L326.850537,130.314056 L323.993019,133.391746 L297.894352,130.622481 C296.083651,130.434661 294.304187,131.193979 293.188122,132.630684 C292.072056,134.06739 291.777551,135.977881 292.40923,137.683449 L301.61241,162.278718 L299.234429,165.966695 L297.152054,169.313437 L271.02711,171.675843 C269.212837,171.84286 267.614611,172.93671 266.803555,174.56651 C265.9925,176.196309 266.084353,178.129481 267.046292,179.675211 L280.808363,201.947447 L275.815917,201.947447 L263.426769,181.906372 C261.692475,179.113272 261.528587,175.622525 262.993575,172.67953 C264.458563,169.736535 267.343768,167.760464 270.619832,167.456323 L294.6624,165.271098 L296.876155,161.753739 L288.421843,139.159953 C287.282111,136.078578 287.814025,132.627858 289.828917,130.031753 C291.843809,127.435649 295.056669,126.061381 298.327906,126.3964 L322.317922,128.942548 C323.276997,127.912277 324.236072,126.89513 325.195147,125.89767 L321.312864,102.102994 C320.770442,98.8592777 321.957629,95.5674228 324.44628,93.4145913 C326.916227,91.2359282 330.358387,90.5075198 333.498373,91.4984177 L356.503038,98.6512572 C357.606631,97.8375397 358.756207,97.0238222 359.971474,96.1772935 L360.825445,72.1463777 C360.930549,68.8652586 362.743595,65.8728781 365.62082,64.2520052 C368.47198,62.61579 371.96915,62.5760339 374.856845,64.1470094 L396.009049,75.6243638 L399.897902,73.8984952 L405.442144,50.4975542 C406.204149,47.3017443 408.588699,44.6965358 411.662994,43.6728266 C414.787846,42.5817827 418.257172,43.2205387 420.787346,45.3527596 L439.305379,60.7740191 C440.68487,60.4459072 442.051224,60.137482 443.411008,59.8487435 L453.435314,37.9177438 C454.795098,34.9319255 457.613203,32.8648205 460.878,32.4251506 C464.142796,31.9920429 467.414162,33.2979282 469.4834,35.8572011 L484.657807,54.6120775 L488.822558,54.5005195 L502.939355,34.94505 C504.844368,32.2873436 508.036905,30.8042778 511.31484,31.0208316 C514.605913,31.2373855 517.542259,33.153559 519.0597,36.073755 L519.0597,36.0803172 Z" id="Path" fill="#EC907C" fill-rule="nonzero"></path>
        <path d="M500.565215,301.969242 C506.343716,301.226479 525.926417,300.746642 535.38036,325.119763 C536.40896,327.742437 537.97479,332.415924 539.78958,337.8256 C542.914688,347.126562 546.806332,358.708396 549.178008,363.329298 C553.108961,371.670585 566.126969,386.289199 577.041917,384.974576 L652.254163,375.417262 C652.974838,375.338385 653.747925,375.154338 654.573426,374.891413 L659.670562,373.248133 L657.063029,377.94134 C652.693642,385.804285 647.771878,393.345183 642.335057,400.506854 L641.620933,401.440236 L607.860593,398.515199 C604.775964,398.240982 601.710505,399.218807 599.350079,401.229897 C596.97171,403.2292 595.490029,406.100514 595.235681,409.203089 L592.071263,446.485814 L591.154041,447.044529 C568.346444,461.143908 542.782577,470.155747 516.197307,473.468464 C508.244762,474.487951 500.235691,475 492.21849,475 C472.924059,475 453.865486,472.015804 435.317936,466.06056 L434.315543,465.731904 L425.143318,439.47887 L429.618053,439.47887 L437.597889,462.340175 C462.809534,470.292542 489.441901,472.656379 515.653525,469.268241 C541.286813,466.074501 565.952932,457.460262 588.022381,443.994602 L591.009906,408.854714 C591.35714,404.628199 593.368478,400.717193 596.604963,397.995923 C599.820732,395.255599 603.999275,393.926861 608.201276,394.308403 L639.648905,397.016528 C643.763089,391.51022 647.575211,385.783121 651.068325,379.86069 L577.559493,389.194518 C564.443211,390.883809 549.84627,374.720512 545.378086,365.228929 C542.88193,360.377968 539.114766,349.111644 535.773456,339.186236 C534.409908,334.985507 532.961709,330.812913 531.429752,326.671019 C523.089579,305.137485 506.088204,305.551591 501.08279,306.18261 L455.45097,311.966954 L459.198479,341.716886 L501.24658,336.379514 C505.583732,335.840519 506.500955,338.239707 506.697502,339.718658 L513.445639,393.28957 C513.635635,394.775095 513.308056,397.338611 509.003662,397.890753 L429.834256,407.934477 L429.834256,403.66195 L508.472983,393.683957 C508.722251,393.655669 508.96951,393.611763 509.213313,393.552495 L502.52414,340.507433 C502.366902,340.527152 502.124493,340.533725 501.777259,340.573164 L455.542693,346.449531 L450.733826,308.299154 L500.565215,301.969242 Z M401.629664,439.465724 C403.791688,439.616906 405.9013,440.175621 407.847122,441.109004 C414.123747,444.153522 417.961414,450.684599 417.57755,457.668589 C417.193686,464.65258 412.663524,470.720705 406.091296,473.054357 C401.783955,474.576593 397.049569,474.314022 392.935705,472.324741 C388.802759,470.344313 385.631835,466.786605 384.130369,462.445345 C380.995548,453.430895 385.713659,443.569933 394.684979,440.385961 C396.152535,439.860111 397.659401,439.597186 399.179369,439.505163 L400.319346,439.465724 L401.629664,439.465724 L401.629664,439.465724 Z M400.397965,443.633064 C395.210046,443.624752 390.510878,446.703166 388.431981,451.471969 C386.353083,456.240772 387.290103,461.792382 390.818014,465.608619 C394.345925,469.424855 399.793307,470.779425 404.689256,469.057901 C411.466987,466.646198 415.031905,459.19635 412.669092,452.381901 C410.84778,447.145411 405.925955,443.636347 400.397965,443.633064 L400.397965,443.633064 Z M622.824424,411.90464 L624.187154,411.970371 C631.131278,412.588464 637.024712,417.333237 639.130187,424.000929 C641.235662,430.668621 639.140567,437.952559 633.81799,442.469639 C630.673228,445.131752 626.794687,446.544972 622.745804,446.544972 C613.510649,446.47235 605.966835,439.122954 605.623135,429.863585 C605.279435,420.604217 612.257503,412.712233 621.461693,411.950652 L622.817872,411.90464 L622.824424,411.90464 Z M614.333564,419.24024 C610.322708,422.653988 608.746368,428.149697 610.33516,433.180171 C611.923951,438.210644 616.367325,441.792611 621.605828,442.265872 C625.041623,442.56935 628.455553,441.480499 631.085978,439.242238 C635.11566,435.837957 636.705977,430.334311 635.115984,425.295497 C633.525992,420.256683 629.068489,416.673981 623.820265,416.216606 C620.382028,415.909091 616.964551,416.998321 614.333564,419.24024 L614.333564,419.24024 Z M502.64862,97.4663943 L503.729632,97.5321254 C557.911276,100.706941 607.854042,127.144022 641.247493,170.197945 L643.114696,172.656291 L643.763303,173.504223 L630.823914,216.867083 C629.096057,222.694435 632.077905,228.882868 637.703083,231.143895 L638.653063,231.472551 L675.813678,242.68629 L676.082293,243.882598 C678.159147,253.025805 679.561187,262.307048 680.288414,271.654021 L680.589787,276.334081 L680.701164,278.306017 L659.788491,280.961556 C659.493669,281.007568 659.395395,281.0733 659.395395,281.0733 C659.332259,281.254573 659.309886,281.447617 659.329879,281.638588 L659.356086,282.046121 L660.456753,290.768649 C662.63188,307.990218 656.086843,318.211416 640.487508,322.004105 C638.358242,322.529955 636.143805,322.77316 633.962125,322.77316 C625.353337,322.77316 617.098334,319.006764 615.093548,313.459052 C606.052355,284.261262 596.801511,278.069385 581.798371,269.011628 L580.566672,268.268866 L576.923989,266.066871 L579.223596,264.160667 C601.741409,245.427281 612.014301,226.746479 609.721245,208.611247 C606.589585,183.778007 587.085504,170.644917 575.731599,165.031474 C559.28711,156.920247 541.859882,156.571871 536.192757,157.11744 L535.629321,157.183171 L335,182.654004 L337.686152,178.749572 C360.511889,145.614484 393.721895,120.380284 431.465602,107.404949 L434.71519,106.326957 L435.796202,105.985155 L462.841163,128.097124 C467.487063,131.907329 474.260318,131.542775 478.473255,127.255765 L479.246343,126.388113 L502.64862,97.4663943 L502.64862,97.4663943 Z M504.581339,101.817798 L482.548344,129.050226 C479.901502,132.349932 476.042616,134.440183 471.849598,134.867436 C468.081401,135.260003 464.298131,134.280166 461.190163,132.106726 L460.187769,131.344244 L434.924841,110.698081 C399.769012,122.299634 368.517931,144.746832 346.019773,174.42446 L343.936368,177.231181 L535.098642,152.96323 C540.805076,152.240187 559.542622,152.305918 577.598802,161.212493 C589.712691,167.19403 610.52709,181.260503 613.90771,208.065678 C616.305592,227.088281 606.307867,246.386956 584.18315,265.481864 C599.409043,274.684229 609.649177,281.612295 619.103121,312.08527 C620.662399,316.384089 630.60116,320.038743 639.491667,317.869614 C648.310106,315.726778 658.098181,310.928401 656.440628,292.957497 L656.257184,291.287925 L655.156517,282.57197 C654.979624,281.112738 655.182723,279.863846 655.772366,278.877878 C656.396808,277.865275 657.39562,277.142066 658.55024,276.866504 L659.25126,276.754761 L676.246083,274.585632 C675.746519,266.581252 674.731084,258.617706 673.206146,250.744933 L672.229959,246.032007 L637.434468,235.541311 C629.438841,233.107842 624.673029,224.893003 626.512968,216.715901 L626.788135,215.657629 L639.111675,174.345582 C606.681307,131.613742 557.76059,105.242393 504.581339,101.817798 L504.581339,101.817798 Z M531.855605,232.41908 C532.654899,238.748993 529.7722,244.270412 523.515432,248.411476 C517.507625,252.388213 510.169845,253.998626 505.786831,254.629646 L504.830299,254.761108 L444.961876,262.359633 L440.035081,223.275873 L504.450307,215.098914 C507.712999,214.684808 529.759097,215.769372 531.855605,232.41908 L531.855605,232.41908 Z M505.282359,219.28599 L504.967883,219.312283 L444.752225,226.956819 L448.617663,257.633561 L504.293069,250.560886 C510.831555,249.732673 516.990049,247.668714 521.183066,244.881712 C526.070552,241.647738 528.252225,237.631563 527.662588,232.964649 C526.070552,220.357408 508.780908,219.062504 505.282359,219.28599 L505.282359,219.28599 Z M668.724859,191.981258 C677.831514,194.755638 682.993116,204.390173 680.275311,213.541085 C678.973688,217.945721 675.967504,221.643592 671.928586,223.808295 C669.434949,225.167831 666.642652,225.881754 663.804615,225.885401 C658.348531,225.874961 653.217226,223.28224 649.960516,218.890321 C646.703806,214.498402 645.703548,208.822249 647.261852,203.576238 C648.564811,199.168683 651.573321,195.468483 655.615128,193.302455 C659.634356,191.124973 664.354263,190.649302 668.724859,191.981258 L668.724859,191.981258 Z M657.626466,197.042559 C652.994245,199.555211 650.322175,204.615817 650.85225,209.872177 C651.382324,215.128537 655.010569,219.549608 660.050554,221.080451 C663.348413,222.09077 666.912461,221.730826 669.943454,220.081338 C674.574361,217.566229 677.244983,212.505303 676.715051,207.24892 C676.185119,201.992538 672.55847,197.570663 667.519366,196.036872 C664.220712,195.027809 660.656332,195.390155 657.626466,197.042559 L657.626466,197.042559 Z M478.453601,80.8824175 C485.831609,86.9219257 486.953444,97.809808 480.962859,105.23582 C477.949128,108.982497 473.513702,111.269942 468.757248,111.585452 L467.564859,111.62489 C463.613993,111.624337 459.785117,110.251725 456.72853,107.740178 C449.354737,101.701182 448.233116,90.8183254 454.219271,83.3933486 C457.095067,79.8258419 461.272241,77.5588275 465.822136,77.0963016 C470.368046,76.6107822 474.918143,77.974614 478.453601,80.8824175 L478.453601,80.8824175 Z M467.604169,81.2437275 C463.677082,81.2214415 459.95364,82.9949202 457.488515,86.0620345 C452.9755,91.6790849 453.823843,99.8969006 459.388475,104.466765 C462.061123,106.657378 465.493658,107.689196 468.926594,107.333919 C472.35953,106.978641 475.509851,105.265558 477.680513,102.573707 C480.825487,98.6575941 481.459728,93.2813806 479.312867,88.7368718 C477.166007,84.192363 472.616667,81.2810321 467.604169,81.2437275 L467.604169,81.2437275 Z" id="Shape" fill="#EC907C" fill-rule="nonzero"></path>
        <path d="M197.517138,333.004865 C198.024118,333.038719 198.494445,333.281092 198.816328,333.674374 L199.026298,333.989437 L201.959318,339.588367 L202.746706,339.713079 L203.534094,339.844355 L208.153437,335.538496 C208.573253,335.149053 209.149644,334.975955 209.714468,335.069696 C210.279292,335.163438 210.768922,335.513459 211.040526,336.017654 L211.184881,336.365536 L212.98275,342.430497 L214.472226,343.001548 L219.85271,339.68026 C220.340773,339.375672 220.942687,339.315481 221.481366,339.517393 C222.020045,339.719306 222.434208,340.160354 222.602006,340.710778 L222.674184,341.084916 L223.24504,347.386173 L223.91432,347.799694 L224.570476,348.226341 L230.508694,346.007773 C231.031465,345.813971 231.613621,345.865389 232.094358,346.147824 C232.575096,346.430258 232.903539,346.913819 232.988966,347.464939 L233.002089,347.937534 L232.33281,354.238791 L232.910227,354.777024 L233.474522,355.32182 L239.727695,354.297866 C240.363141,354.191198 241.008006,354.425322 241.427141,354.914864 C241.743002,355.272057 241.907703,355.738083 241.88645,356.214498 L241.80115,356.673965 L239.924542,362.71267 L240.390413,363.369051 L240.843161,364.018869 L247.16195,364.242038 C247.720049,364.26113 248.23968,364.531331 248.575957,364.977306 C248.912234,365.42328 249.029185,365.99732 248.894203,366.539372 L248.723603,366.979147 L245.705282,372.532131 L246.03336,373.25415 L246.354877,373.989297 L252.496503,375.433335 C253.042784,375.562713 253.502062,375.930746 253.747509,376.4358 C253.992955,376.940855 253.9986,377.529495 253.762886,378.039167 L253.506985,378.432996 L249.451937,383.290216 L249.63566,384.064745 L249.7997,384.839275 L255.567316,387.464799 C256.073396,387.699518 256.447745,388.148687 256.587518,388.688904 C256.727291,389.229121 256.617787,389.803565 256.289089,390.254418 L255.967572,390.6023 L251.046397,394.579969 L251.085767,396.155284 L256.230035,399.863837 C256.694782,400.205385 256.976739,400.741723 256.995581,401.318327 C257.012605,401.89493 256.764521,402.447764 256.321897,402.817551 L256.00038,403.027593 L250.403364,405.961616 L250.285255,406.749274 L250.140901,407.536931 L254.45185,412.157853 C254.841682,412.57691 255.015759,413.152818 254.923349,413.717739 C254.830939,414.28266 254.482441,414.773027 253.979417,415.04593 L253.625093,415.196897 L247.562205,416.988818 L247.280058,417.737092 L246.991349,418.478803 L250.311502,423.861127 C250.615985,424.349357 250.676157,424.951477 250.474313,425.49034 C250.272469,426.029203 249.831572,426.443508 249.281336,426.611363 L248.907327,426.677002 L242.608223,427.254617 L242.194844,427.924126 L241.768342,428.580507 L243.986152,434.520755 C244.179887,435.043705 244.128487,435.626059 243.846149,436.106961 C243.563811,436.587863 243.080415,436.916419 242.529484,437.001875 L242.057051,437.015003 L235.757947,436.345494 L235.219899,436.923109 L234.675289,437.494161 L235.68577,443.749472 C235.791554,444.381792 235.560299,445.023556 235.075544,445.442935 C234.716818,445.760521 234.248278,445.925391 233.769793,445.902402 L233.303921,445.817072 L227.26728,443.939823 L226.624247,444.405853 L225.974652,444.858756 L225.751558,451.179705 C225.732474,451.737996 225.462364,452.257804 225.016542,452.594196 C224.570721,452.930588 223.996876,453.047579 223.45501,452.912551 L223.008824,452.741892 L217.457738,449.722539 L216.735966,450.05073 L216.007632,450.372357 L214.550964,456.522647 C214.413986,457.060628 214.045994,457.51037 213.545875,457.751015 C213.045757,457.991661 212.464809,457.998528 211.959146,457.769771 L211.55889,457.520346 L206.696769,453.463911 L205.929066,453.647698 L205.161363,453.811793 L202.523613,459.574819 C202.288974,460.081071 201.839959,460.455548 201.299927,460.595369 C200.759894,460.73519 200.185646,460.625648 199.734947,460.296838 L199.393746,459.968647 L195.417436,455.04579 L194.630049,455.078609 L193.842661,455.0983 L190.141937,460.237763 C189.803021,460.69986 189.27045,460.980316 188.697799,460.999173 C188.125147,461.016199 187.576076,460.769632 187.208917,460.329657 L186.998947,460.014594 L184.059365,454.415664 L183.271977,454.290951 L182.484589,454.153111 L177.871808,458.452407 C177.45189,458.844475 176.873765,459.019228 176.30707,458.925389 C175.740375,458.83155 175.249381,458.479762 174.978157,457.973249 L174.833802,457.625367 L173.042495,451.560406 L171.553019,450.989355 L166.172535,454.310643 C165.684472,454.615231 165.082557,454.675422 164.543878,454.47351 C164.0052,454.271597 163.591036,453.830549 163.423238,453.280125 L163.351061,452.905987 L162.773643,446.60473 L162.104363,446.191209 L161.448207,445.764562 L155.516551,447.98313 C154.993779,448.176932 154.411624,448.125514 153.930887,447.84308 C153.450149,447.560645 153.121706,447.077084 153.036279,446.525964 L153.023155,446.053369 L153.692435,439.752112 L153.108456,439.213879 L152.544161,438.669083 L146.29755,439.693037 C145.659953,439.802141 145.01198,439.567794 144.591542,439.076039 C144.278052,438.717839 144.115744,438.251925 144.138794,437.776405 L144.224095,437.310374 L146.100703,431.271669 L145.634832,430.628415 L145.175522,429.972034 L138.863295,429.748865 C138.305195,429.729773 137.785565,429.459572 137.449288,429.013597 C137.113011,428.567623 136.996059,427.993583 137.131041,427.451531 L137.301642,427.011756 L140.313401,421.458772 L139.985323,420.736753 L139.670368,420.001607 L133.52218,418.551004 C132.898431,418.397703 132.39757,417.933876 132.196743,417.323572 C132.038744,416.872477 132.064674,416.377286 132.268921,415.945172 L132.524822,415.551343 L136.57987,410.694124 L136.396146,409.926158 L136.232107,409.151628 L130.46449,406.51954 C129.95841,406.284821 129.584061,405.835652 129.444288,405.295435 C129.304515,404.755218 129.41402,404.180774 129.742718,403.729921 L130.064234,403.388603 L134.985409,399.410934 L134.94604,397.835619 L129.808333,394.13363 C129.343939,393.794786 129.061853,393.260517 129.042988,392.685798 C129.025946,392.111078 129.274133,391.560233 129.716471,391.193043 L130.031426,390.983001 L135.628443,388.048978 L135.746551,387.261321 L135.890905,386.473664 L131.579956,381.852741 C131.190646,381.432781 131.017607,380.856194 131.111317,380.291176 C131.205026,379.726159 131.554928,379.236362 132.05895,378.964665 L132.406714,378.820261 L138.469601,377.021777 L139.040457,375.531792 L135.720305,370.149468 C135.413161,369.660806 135.351489,369.056783 135.553533,368.516097 C135.755578,367.97541 136.198207,367.559964 136.750471,367.392667 L137.12448,367.327029 L143.423584,366.755978 L144.263464,365.430088 L142.045655,359.48984 C141.851919,358.966889 141.903319,358.384535 142.185657,357.903633 C142.467995,357.422731 142.951391,357.094176 143.502322,357.008719 L143.974755,356.995592 L150.273859,357.6651 L150.811908,357.080921 L151.356518,356.522997 L150.332913,350.267686 C150.223846,349.629872 150.458114,348.981676 150.9497,348.561096 C151.307778,348.247498 151.773533,348.085134 152.248891,348.108193 L152.714762,348.193522 L158.751403,350.070772 L159.394436,349.604741 L160.050593,349.145275 L160.273686,342.830889 C160.292771,342.272599 160.562881,341.752791 161.008702,341.416399 C161.454524,341.080007 162.028368,340.963015 162.570235,341.098043 L163.00986,341.268702 L168.560945,344.288055 L169.282717,343.959865 L170.017613,343.631674 L171.467719,337.494511 C171.597493,336.949825 171.964354,336.491933 172.467526,336.246616 C172.970698,336.001299 173.557266,335.994356 174.066099,336.227696 L174.466355,336.483685 L179.321914,340.540119 L180.089617,340.356333 L180.863882,340.192237 L183.49507,334.416084 C183.729709,333.909832 184.178724,333.535355 184.718757,333.395534 C185.258789,333.255713 185.833037,333.365255 186.283736,333.694065 L186.624937,334.022256 L190.601247,338.945113 L192.176023,338.905731 L195.876746,333.766267 C196.255547,333.246285 196.875627,332.95847 197.517138,333.004865 L197.517138,333.004865 Z M195.7652,349.736018 L190.043514,356.78555 C188.984439,358.084356 187.150124,358.443067 185.680072,357.638845 L185.161708,357.284399 L178.567334,351.902075 C168.967762,355.000193 156.782933,362.732362 150.52976,376.450725 L149.748934,378.275465 L154.958818,387.98334 C155.846234,389.449132 155.534398,391.343069 154.223922,392.446731 L153.777736,392.761794 L146.08758,397.408972 C146.08758,419.161439 161.047951,431.094446 163.475731,433.011078 L163.666016,433.16861 L171.26431,430.503703 C172.875713,429.937244 174.659599,430.627657 175.470274,432.131528 L175.693368,432.636941 L178.711688,441.255224 C185.212464,443.327885 192.087353,443.955125 198.855697,443.093091 C204.734196,442.355157 210.418945,440.506369 215.607377,437.645129 L217.523354,436.529281 L218.297619,427.425276 C218.441725,425.753655 219.75803,424.423098 221.427486,424.261519 L222.057396,424.261519 L230.272478,424.976975 C242.97567,412.282566 239.235578,388.862891 238.710652,386.250494 L238.677844,386.079835 L229.616321,383.355854 C228.009389,382.871993 226.977088,381.309207 227.162295,379.640737 L227.286965,379.023739 L230.475886,368.390366 C222.200836,357.380398 209.510525,350.560323 195.7652,349.736018 L195.7652,349.736018 Z M168.495329,435.820389 C167.053461,436.341734 166.062042,437.673881 165.976285,439.20517 C165.890528,440.736459 166.727001,442.171044 168.101635,442.85023 C168.829969,443.198112 169.650165,443.309697 170.430991,443.165293 L171.014971,443.007762 C172.889916,442.236572 173.83358,440.13237 173.162709,438.218687 C172.491839,436.305004 170.441106,435.251251 168.495329,435.820389 L168.495329,435.820389 Z M226.079637,428.711783 C224.053395,428.650876 222.332662,430.184313 222.159986,432.204792 C221.98731,434.225271 223.42287,436.028638 225.430042,436.312675 C227.456283,436.373581 229.177016,434.840145 229.349692,432.819666 C229.522368,430.799187 228.086809,428.99582 226.079637,428.711783 Z M110.267988,347.550269 L124.76905,347.773438 L124.76905,375.866546 L109.027852,375.866546 L109.027852,375.40708 C107.321845,367.136679 102.453163,362.266331 90.7866973,362.266331 C79.015247,362.266331 72.6702122,372.236759 72.6702122,390.595736 C72.6702122,408.954714 80.6031461,418.918578 95.3207397,418.918578 C106.304802,418.918578 112.9976,411.107644 116.370245,405.22647 L128.148257,412.020013 C121.698237,423.231001 109.802117,432.525357 93.0438762,432.525357 C65.0587951,432.525357 50,417.796166 50,390.6023 C50,363.408434 64.2714071,348.685808 90.7801357,348.685808 C97.6615004,348.681494 104.394092,350.689186 110.14988,354.461961 L110.14988,350.261122 L110.267988,347.550269 Z M257.601402,349.571922 L273.460708,350.031389 L283.887037,349.690071 L323.308929,398.419798 L323.308929,363.408434 C321.268282,363.408434 319.686944,363.631604 316.734239,363.972922 L314.017751,364.31424 L314.240844,349.690071 L330.093589,350.031389 L330.10015,350.031389 L345.966018,349.690071 L346.189111,364.31424 L343.472623,363.972922 C340.519918,363.631604 338.93858,363.408434 336.904495,363.408434 L336.904495,431.737699 C336.904495,431.737699 323.768239,431.396381 323.308929,431.396381 L320.251239,431.396381 L280.271614,381.990581 L280.271614,417.796166 C282.3057,417.796166 283.893599,417.559869 286.833181,417.225115 L289.543108,416.870669 L289.320015,431.494838 L273.460708,431.271669 L257.601402,431.494838 L257.378309,416.870669 L260.101359,417.211987 C263.054064,417.559869 264.62884,417.783039 266.662925,417.783039 L266.662925,371.337517 C266.662925,365.659821 264.399185,362.60765 260.101359,361.360526 L257.378309,360.566305 L257.601402,349.571922 L257.601402,349.571922 Z M427.519728,348.67268 L430,379.824524 L416.640651,381.524551 C413.924162,364.301113 402.592337,363.401871 382.20555,363.401871 L382.20555,388.889146 C391.608274,388.889146 396.601627,382.430357 400.558251,375.630249 L405.991228,379.030303 L405.991228,410.077125 L400.558251,412.348204 C396.588503,405.55466 391.37862,397.960332 382.20555,397.960332 L382.20555,417.783039 C384.246197,417.783039 385.834096,417.566433 388.773678,417.106966 L391.490166,416.647499 L390.932433,431.494838 C390.932433,431.494838 375.407767,431.15352 370.880286,431.15352 C369.30551,431.15352 366.398736,431.192903 363.27543,431.245414 L360.913266,431.29136 C355.788683,431.383254 350.828139,431.488274 350.828139,431.488274 L350.263844,416.647499 L352.986894,417.106966 C355.933037,417.559869 357.520937,417.783039 359.555022,417.783039 L359.555022,363.401871 C357.527498,363.401871 355.828052,363.62504 352.875348,364.189528 L350.158859,364.648994 L350.723154,349.808219 L378.531072,349.808219 C388.86554,349.749145 427.519728,348.67268 427.519728,348.67268 L427.519728,348.67268 Z M145.864486,384.478265 C144.46759,384.444469 143.164146,385.177855 142.467553,386.389557 C141.770959,387.60126 141.792855,389.097088 142.524614,390.287869 C143.256374,391.478649 144.580725,392.173544 145.976033,392.098849 C148.020998,391.989376 149.614157,390.283261 149.584174,388.23489 C149.554191,386.186518 147.911778,384.527797 145.864486,384.478265 Z M232.450918,376.004386 C232.060605,377.309392 232.395915,378.723568 233.33054,379.714207 C234.265165,380.704846 235.657114,381.121448 236.982052,380.807081 C238.30699,380.492715 239.363628,379.495141 239.753941,378.190135 C240.357313,376.172771 239.211604,374.048078 237.19493,373.4445 C235.178256,372.840923 233.054289,373.987022 232.450918,376.004386 L232.450918,376.004386 Z M184.203719,345.50236 L183.724725,345.994646 C182.437637,347.580812 182.625871,349.899239 184.151965,351.256845 C185.678059,352.614451 188.001817,352.53068 189.426263,351.066707 C190.850709,349.602735 190.871628,347.276768 189.473744,345.787395 C188.075859,344.298021 185.753984,344.172441 184.203719,345.50236 L184.203719,345.50236 Z" id="Shape" fill="#36245B" fill-rule="nonzero"></path>
        <path d="M112.90106,228 C135.688108,228 150.739501,239.73529 150.739501,258.386491 C150.739501,275.066426 137.649907,285.667745 118.524008,288.205996 C135.963678,291.02774 141.448842,305.017788 150.870725,305.017788 C153.265563,305.017788 155.798187,303.897002 158.750727,302.90148 L159.177205,331.171663 C154.538436,332.866028 149.328843,334 144.401382,334 C130.760647,334 125.413269,322.693245 118.661794,311.801841 C113.038845,302.62458 105.867453,293.856077 96.1568771,292.155119 L94.4772098,291.871626 L94.4772098,314.201642 C97.0098331,314.201642 98.9781931,313.918149 102.639343,313.502799 L106.0118,313.074263 L105.723107,331.310113 L80.4099967,330.881577 L52.2755704,331.310113 L52,312.797363 L55.3724569,313.364349 C59.0270454,314.063192 63.8101603,314.214828 66.3493448,314.214828 L66.3493448,246.084214 C63.8101603,246.084214 59.309177,246.367707 55.6611497,247.073143 L52.0065612,247.923622 L52.2886928,229.397686 L94.188517,228.428536 C94.7527802,228.428536 112.336797,228 112.90106,228 L112.90106,228 Z M359.772777,244.679935 L359.772777,274.651076 L343.179502,274.651076 C343.179502,267.161587 333.324579,260.515985 323.902696,260.515985 C314.762944,260.515985 309.835483,262.638885 309.835483,266.733051 C309.835483,281.580172 366.799822,274.789526 366.799822,307.872497 C366.799822,323.985446 352.030561,332.595721 324.604744,332.595721 C316.304826,332.595721 306.036548,329.206991 299.140726,323.41846 L298.714248,332.602314 L282.403105,332.8924 L282.403105,300.092922 L300.551384,300.092922 C301.67335,311.399677 312.925808,317.049757 324.604744,317.049757 C334.728676,317.049757 340.076054,314.788407 340.076054,310.694241 C340.076054,296.565742 285.211298,302.914666 285.211298,269.554795 C285.211298,253.586889 299.002941,244.963428 324.604744,244.963428 C331.776136,244.963428 338.527611,247.092922 344.439252,251.325538 L344.727945,244.970021 L359.772777,244.679935 L359.772777,244.679935 Z M411.422545,229.397686 L411.684993,246.51275 L428.711307,246.229257 L429,264.175022 L425.620982,263.884936 C421.028142,263.575072 416.435302,263.390471 411.8359,263.324543 L411.8359,302.90148 C411.8359,311.669984 421.119999,313.074263 427.025079,313.074263 L427.451557,330.031098 C423.646061,331.44197 417.885327,332.569349 411.547208,332.569349 C398.470736,332.569349 383.701474,327.479662 383.701474,309.098769 L383.701474,263.311357 C381.16229,263.311357 374.975078,263.588257 371.320489,263.878343 L367.948033,264.161836 L368.236725,246.216072 L385.256479,246.506157 L389.337545,229.397686 L411.422545,229.397686 L411.422545,229.397686 Z M205.591135,246.117179 C205.591135,252.050753 204.187038,257.714019 204.187038,263.212464 L204.187038,285.291952 C204.187038,304.800224 208.412451,312.00622 219.664909,312.00622 L235.136219,306.217689 L235.136219,263.232243 C232.603596,263.232243 230.635236,263.515736 226.974086,263.931086 L223.601629,264.359622 L223.890322,246.130364 L249.216554,246.5589 L264.687864,246.130364 C264.674742,252.030974 263.264084,257.681055 263.264084,263.192686 L263.264084,314.076378 C265.803268,314.076378 270.579822,313.937928 274.240972,313.232492 L277.613429,312.665506 L277.337858,331.046399 L246.388677,332.463864 L238.646461,316.792636 L207.001793,329.384998 C184.35253,329.384998 176.052611,320.049509 176.052611,294.752706 L176.052611,263.205871 C173.513427,263.205871 168.736873,263.337729 165.075724,264.062943 L161.703267,264.629929 L161.978837,246.103993 L190.113263,246.539122 L205.591135,246.110586 L205.591135,246.117179 Z M102.488435,245.385371 C99.8114656,245.385371 97.1410571,245.517229 94.4772098,245.517229 L94.4772098,276.899241 L94.4640874,276.899241 L94.4640874,276.912427 C97.1410571,276.912427 99.9492508,277.044284 102.62622,277.044284 C115.564907,277.044284 122.598514,271.961189 122.598514,260.792885 C122.598514,251.048638 115.8536,245.385371 102.488435,245.385371 L102.488435,245.385371 Z" id="Shape" fill="#E65479" fill-rule="nonzero"></path>
        <path d="M235.175215,210.006665 C241.297906,210.006665 246.448324,214.871857 246.448324,221.003332 C246.448324,227.101484 241.297906,232 235.181785,232 C229.026247,232 223.948092,227.101484 223.948092,221.003332 C223.948092,215.19176 228.500694,210.519842 234.216081,210.046653 L235.175215,210.006665 Z M170.47966,210.006665 C174.631527,210.006665 178.888505,211.786125 178.888505,216.13814 C178.888505,220.823387 174.237362,222.236292 170.80813,223.32263 C167.79934,224.302333 166.045307,225.322024 166.045307,227.174796 L166.045307,227.388064 L178.49434,227.388064 L178.49434,231.306877 L161.105111,231.306877 L161.105111,228.007876 C161.105111,222.922751 165.289825,220.530142 170.223452,219.143896 C171.405946,218.823993 174.014002,218.024235 174.014002,216.178128 C174.014002,214.6186 172.227123,214.112087 170.617617,214.112087 C167.68766,214.112087 165.716837,215.524992 163.68032,217.264465 L161,213.998788 C163.608056,211.932748 166.150418,210 170.47309,210 L170.47966,210.006665 Z M300.948154,210.006665 C305.100022,210.006665 309.357,211.786125 309.357,216.13814 C309.357,220.823387 304.705857,222.236292 301.276625,223.32263 C298.267835,224.302333 296.513802,225.322024 296.513802,227.174796 L296.513802,227.388064 L308.962835,227.388064 L308.962835,231.306877 L291.573605,231.306877 L291.573605,228.007876 C291.573605,222.922751 295.75832,220.530142 300.691947,219.143896 C301.874441,218.823993 304.482497,218.024235 304.482497,216.178128 C304.482497,214.6186 302.695617,214.112087 301.086112,214.112087 C298.149585,214.112087 296.185331,215.524992 294.148814,217.264465 L291.455356,213.998788 C294.076551,211.932748 296.612343,210 300.941585,210 L300.948154,210.006665 Z M365.591154,210.006665 C369.749591,210.006665 374,211.786125 374,216.13814 C374,220.823387 369.355427,222.236292 365.919625,223.32263 C362.917404,224.302333 361.163372,225.322024 361.163372,227.174796 L361.163372,227.388064 L373.612405,227.388064 L373.612405,231.306877 L356.229744,231.306877 L356.229744,228.007876 C356.229744,222.922751 360.414459,220.530142 365.348086,219.143896 C366.53058,218.823993 369.138636,218.024235 369.138636,216.178128 C369.138636,214.6186 367.351756,214.112087 365.742251,214.112087 C362.805724,214.112087 360.841471,215.524992 358.804953,217.264465 L356.111495,213.998788 C358.73269,211.932748 361.268482,210 365.597724,210 L365.591154,210.006665 Z M235.181785,214.292033 C231.634303,214.292033 228.809456,217.304453 228.809456,221.003332 C228.809456,224.6289 231.634303,227.75462 235.181785,227.75462 C238.650433,227.75462 241.58039,224.622236 241.58039,221.003332 C241.58039,217.304453 238.650433,214.292033 235.181785,214.292033 Z" id="Shape" fill="#E65479" fill-rule="nonzero"></path>
    </g>
</svg>