<svg height="575" viewBox="0 0 800 575" width="800" xmlns="http://www.w3.org/2000/svg"><g fill="none" fill-rule="evenodd"><path d="m0 0h800v575h-800z" fill="#f9f7ec"/><g fill-rule="nonzero"><path d="m519.0597 36.0803172 11.200158 21.2879003 4.204165.715284 17.572095-16.3859085c2.399843-2.2507232 5.796182-3.0976542 8.973337-2.2376436s5.680851 3.3039974 6.614918 6.4571627l6.844906 23.099078 3.954543 1.5093147 20.52158-12.6454327c2.795981-1.7325065 6.290329-1.8962259 9.23636-.4327476 2.94603 1.4634782 4.92414 4.3457107 5.228594 7.6183983l2.18748 24.0177913 3.520988 2.2114743 22.617093-8.4456004c3.084554-1.138557 6.538833-.6071909 9.137616 1.4056245s3.974468 5.2223644 3.639104 8.4902305l-2.548775 23.952169 3.041451 2.880822 23.82579-3.87172c3.258228-.544666 6.529594.643099 8.690797 3.130188 2.18748 2.447714 2.903502 5.879765 1.92472 9.042764l-7.160219 22.980957c.807988 1.095894 1.629114 2.244286 2.469947 3.464862l24.062275.853091c3.284504.104996 6.273402 1.903049 7.902516 4.783872 1.629114 2.880822 1.675097 6.365371.105104 9.233069l-11.489194 21.130406 1.72108 3.884845 23.425081 5.538529c3.205676.76122 5.813572 3.13675 6.838337 6.214439 1.082859 3.120221.444202 6.579368-1.681666 9.108387l-15.450306 18.505511c.341589 1.37807.650332 2.743016.939368 4.094837l21.953624 10.020537c2.982329 1.358384 5.058136 4.173584 5.49169 7.435016.435819 3.266794-.863597 6.524421-3.429022 8.596532l-18.780793 15.15877.111673 4.167021 19.575643 14.108812c2.680155 1.903049 4.138475 5.052923 3.928267 8.4456-.223347 3.281119-2.141497 6.21444-5.058136 7.730317l-21.309861 11.182054-.571504 3.379552-.144518.82028 16.402812 17.560549c2.279446 2.388655 3.120279 5.814143 2.240032 8.990266-.872277 3.164159-3.319363 5.653396-6.470473 6.581925l-23.109768 6.824728-1.517441 3.976716 12.658478 20.474183c1.741027 2.794769 1.907758 6.29126.44055 9.238699-1.467208 2.94744-4.358722 4.924701-7.640183 5.224473l-24.035999 2.178663-2.213755 3.523922 8.454313 22.587224c1.139731 3.081375.607817 6.532095-1.407075 9.128199-2.014892 2.596105-5.227752 3.970372-8.498989 3.635354l-23.990016-2.546149c-.945937 1.02371-1.905012 2.034294-2.877225 3.044879l3.842869 23.794675c.545228 3.25487-.650331 6.529427-3.133416 8.688403-2.476516 2.178663-5.912107 2.907072-9.058662 1.916174l-23.004664-7.15284c-1.097025.813718-2.246601 1.633998-3.468436 2.473964l-.847402 24.037478c-.131381 3.281119-1.944427 6.260375-4.795376 7.894373-2.855374 1.631525-6.35305 1.668775-9.242594.098433l-21.152204-11.470792-3.888853 1.719306-5.544242 23.407504c-.762005 3.162998-3.153124 5.761645-6.22085 6.778792-3.122921 1.088529-6.589063.449899-9.117783-1.679933l-18.524601-15.427822c-1.379492.328112-2.745846.643099-4.099061.931838l-10.030875 21.930999c-1.353215 2.985819-4.17132 5.052924-7.442685 5.492594-3.271043.431197-6.531019-.868963-8.6054-3.432051l-15.174408-18.754876-4.158182.111558-14.123366 19.555469c-1.926666 2.664524-5.092769 4.147958-8.375485 3.924219-3.285879-.218393-6.219465-2.133956-7.738291-5.052924l-11.180451-21.301025-3.389608-.570914c-.273771-.047766-.54748-.095889-.821126-.14437l-17.572095 16.339973c-2.397742 2.273927-5.813305 3.125692-8.999541 2.244286-3.167423-.871378-5.659228-3.315943-6.588714-6.463805l-6.838337-23.085953-3.961112-1.52244-20.51501 12.651995c-2.796336 1.735705-6.292955 1.901195-9.241033.437365-2.948077-1.463831-4.927189-4.348225-5.230491-7.623015l-2.180911-24.017792-3.520988-2.204912-22.617093 8.445601c-3.084554 1.138557-6.538833.607191-9.137616-1.405625-2.598783-2.012815-3.974468-5.222364-3.639104-8.49023l2.456809-23.184387h4.276424l-2.502792 23.617494c-.188014 1.808835.572087 3.586465 2.010275 4.701381 1.438187 1.114915 3.35065 1.409117 5.057977.778088l24.620641-9.193695 3.061157 1.981796 3.97425 2.467401 2.377981 26.137394c.180634 1.803201 1.279457 3.385832 2.906798 4.186651 1.62734.800819 3.553062.706577 5.094253-.249308l22.321488-13.761013 7.869671 3.031754 7.436117 25.107123c.514972 1.737674 1.890672 3.08715 3.63923 3.569857 1.75333.48578 3.633249.01753 4.953032-1.2337l19.155226-17.816477 4.532615.807156 1.826184.2953 1.937857.282176 12.211786 23.210637c.83219 1.6061 2.443852 2.661186 4.250147 2.782388 1.818226.125918 3.573211-.692396 4.644289-2.165538l15.35834-21.281338 7.271891-.183743 1.070748-.045935 16.507916 20.40856c1.14384 1.41176 2.940346 2.127633 4.742824 1.889924 1.811288-.233048 3.374961-1.381039 4.138475-3.038316l10.924259-23.899671 1.051042-.209991c1.990409-.406859 3.987387-.859654 6.043487-1.37807l1.044472-.26249 20.18656 16.825578c1.372923 1.161517 3.284504 1.509315 5.012153.918714 1.718441-.580777 3.02293-1.995196 3.461867-3.7536l6.030349-25.468046 4.972739-2.178663 2.706431-1.246826 23.044079 12.494502c1.595811.861836 3.5245.837008 5.09755-.065623 1.572512-.900119 2.574038-2.54202 2.653879-4.350764l.92623-26.183329.886816-.603726c1.839322-1.246826 3.514419-2.441153 5.077843-3.609231l.867109-.656224 25.073902 7.789376c1.733234.550459 3.628494.151868 4.992446-1.049958 1.383432-1.188212 2.04377-3.012849 1.740787-4.81012l-4.177889-25.907716 2.877225-2.992381 2.857518-3.084252 26.098668 2.782389c1.8107.187821 3.590164-.571497 4.70623-2.008203 1.116065-1.436705 1.41057-3.347197.778891-5.052765l-9.20318-24.608393 2.377981-3.674853 2.075806-3.346741 26.131513-2.368968c1.816382-.165859 3.416778-1.260711 4.228188-2.892558.81141-1.631848.717779-3.567292-.24737-5.113373l-13.794916-22.311609.939368-2.296783 2.115221-5.538529 25.126454-7.435016c1.740368-.511282 3.093713-1.883078 3.580109-3.628918.488417-1.754673.016817-3.636638-1.241542-4.95449l-17.880839-19.135486.814557-4.527944.295605-1.81774.282468-1.942422 23.23458-12.205763c1.603938-.828946 2.65948-2.433009 2.785259-4.232644.127507-1.573187-.447099-3.122305-1.569993-4.232643l-.591211-.49873-21.30986-15.342513-.190502-7.264398-.039414-1.063082 20.429614-16.497467c1.413216-1.14266 2.129828-2.937315 1.891874-4.737936-.233289-1.809421-1.382464-3.371482-3.04145-4.13421l-23.924326-10.906439-.216777-1.063083c-.413549-2.017819-.871299-4.026346-1.372923-6.024134l-.26276-1.049958 16.829797-20.146071c1.176587-1.39158 1.52887-3.300935.92623-5.020113-.587684-1.727286-2.021036-3.032818-3.796886-3.458299l-25.48775-6.037259-2.450239-5.551653-.985352-2.113041 12.507391-23.020331c.864322-1.59905.836972-3.531422-.072259-5.105421-.889043-1.577539-2.53747-2.577516-4.348683-2.63802l-26.210341-.925276-.604348-.885902c-.840833-1.227138-1.642252-2.37553-2.443671-3.477986l-1.832753-2.460839 7.803981-25.048063c.551026-1.731448.152024-3.624755-1.051041-4.987301-1.189439-1.382007-3.015958-2.041665-4.815083-1.738993l-25.934442 4.219519-2.995468-2.87426-3.087433-2.854574 2.77869-26.078334c.188014-1.8088346-.572087-3.5864646-2.010275-4.70138-1.438187-1.1149155-3.35065-1.4091172-5.057977-.7780888l-24.62721 9.2002578-3.054588-1.9817959-3.97425-2.4739637-2.377981-26.0980209c-.167189-1.8124037-1.262168-3.4089824-2.893649-4.2192025-1.63148-.8102201-3.566646-.7184614-5.113971.2424863l-22.314919 13.7675754-7.869671-3.0383162-7.436116-25.1071229c-.514973-1.7376743-1.890673-3.0871496-3.639231-3.5698575-1.753312-.4871295-3.633899-.0187132-4.953031 1.2337008l-19.161796 17.862412-5.465414-.964649-2.824673-.4199832-12.218354-23.2106361c-.83219-1.6061002-2.443853-2.6611864-4.250148-2.7823889-1.814728-.1250871-3.566427.6903734-4.63772 2.1589763l-15.371478 21.2813381-7.265322.1968671-1.064179.0393734-16.514485-20.4085604c-1.14384-1.4117599-2.940346-2.1276333-4.742824-1.8899245-1.808844.2351753-3.369602 1.3828482-4.131906 3.0383162l-10.924259 23.8865466-4.053078.8727777-4.085923.9843357-20.193129-16.8190162c-1.388164-1.1696618-3.291885-1.5190665-5.005584-.9187134-1.729068.5870793-3.035948 2.0189537-3.461867 3.7929737l-6.036918 25.4614837-5.563949 2.454277-2.115221.9843357-23.050648-12.5076257c-1.599564-.8654527-3.533919-.8406151-5.110687.0656223-1.581124.8893284-2.582438 2.5390483-2.640742 4.3507639l-.919661 26.1833299-.893385.6037259c-1.221835.8334042-2.37798 1.6405593-3.475005 2.4280283l-2.469947 1.837426-25.073902-7.7893761c-1.731262-.547969-3.623362-.1495186-4.985876 1.0499581-1.385855 1.186799-2.048765 3.0116579-1.747356 4.81012l4.23044 25.907716-2.883794 2.992381-2.857518 3.07769-26.098667-2.769265c-1.810701-.18782-3.590165.571498-4.70623 2.008203-1.116066 1.436706-1.410571 3.347197-.778892 5.052765l9.20318 24.595269-2.377981 3.687977-2.082375 3.346742-26.124944 2.362406c-1.814273.167017-3.412499 1.260867-4.223555 2.890667-.811055 1.629799-.719202 3.562971.242737 5.108701l13.762071 22.272236h-4.992446l-12.389148-20.041075c-1.734294-2.7931-1.898182-6.283847-.433194-9.226842s4.350193-4.919066 7.626257-5.223207l24.042568-2.185225 2.213755-3.517359-8.454312-22.593786c-1.139732-3.081375-.607818-6.532095 1.407074-9.1282 2.014892-2.596104 5.227752-3.970372 8.498989-3.635353l23.990016 2.546148c.959075-1.030271 1.91815-2.047418 2.877225-3.044878l-3.882283-23.794676c-.542422-3.2437163.644765-6.5355712 3.133416-8.6884027 2.469947-2.1786631 5.912107-2.9070715 9.052093-1.9161736l23.004665 7.1528395c1.103593-.8137175 2.253169-1.627435 3.468436-2.4739637l.853971-24.0309158c.105104-3.2811191 1.91815-6.2734996 4.795375-7.8943725 2.85116-1.6362152 6.34833-1.6759713 9.236025-.1049958l21.152204 11.4773544 3.888853-1.7258686 5.544242-23.400941c.762005-3.1958099 3.146555-5.8010184 6.22085-6.8247276 3.124852-1.0910439 6.594178-.4522879 9.124352 1.679933l18.518033 15.4212595c1.379491-.3281119 2.745845-.6365371 4.105629-.9252756l10.024306-21.9309997c1.359784-2.9858183 4.177889-5.0529233 7.442686-5.4925932 3.264796-.4331077 6.536162.8727776 8.6054 3.4320505l15.174407 18.7548764 4.164751-.111558 14.116797-19.5554695c1.905013-2.6577064 5.09755-4.1407722 8.375485-3.9242184 3.291073.2165539 6.227419 2.1327274 7.74486 5.0529234z" fill="#ec907c"/><path d="m500.565215 301.969242c5.778501-.742763 25.361202-1.2226 34.815145 23.150521 1.0286 2.622674 2.59443 7.296161 4.40922 12.705837 3.125108 9.300962 7.016752 20.882796 9.388428 25.503698 3.930953 8.341287 16.948961 22.959901 27.863909 21.645278l75.212246-9.557314c.720675-.078877 1.493762-.262924 2.319263-.525849l5.097136-1.64328-2.607533 4.693207c-4.369387 7.862945-9.291151 15.403843-14.727972 22.565514l-.714124.933382-33.76034-2.925037c-3.084629-.274217-6.150088.703608-8.510514 2.714698-2.378369 1.999303-3.86005 4.870617-4.114398 7.973192l-3.164418 37.282725-.917222.558715c-22.807597 14.099379-48.371464 23.111218-74.956734 26.423935-7.952545 1.019487-15.961616 1.531536-23.978817 1.531536-19.294431 0-38.353004-2.984196-56.900554-8.93944l-1.002393-.328656-9.172225-26.253034h4.474735l7.979836 22.861305c25.211645 7.952367 51.844012 10.316204 78.055636 6.928066 25.633288-3.19374 50.299407-11.807979 72.368856-25.273639l2.987525-35.139888c.347234-4.226515 2.358572-8.137521 5.595057-10.858791 3.215769-2.740324 7.394312-4.069062 11.596313-3.68752l31.447629 2.708125c4.114184-5.506308 7.926306-11.233407 11.41942-17.155838l-73.508832 9.333828c-13.116282 1.689291-27.713223-14.474006-32.181407-23.965589-2.496156-4.850961-6.26332-16.117285-9.60463-26.042693-1.363548-4.200729-2.811747-8.373323-4.343704-12.515217-8.340173-21.533534-25.341548-21.119428-30.346962-20.488409l-45.63182 5.784344 3.747509 29.749932 42.048101-5.337372c4.337152-.538995 5.254375 1.860193 5.450922 3.339144l6.748137 53.570912c.189996 1.485525-.137583 4.049041-4.441977 4.601183l-79.169406 10.043724v-4.272527l78.638727-9.977993c.249268-.028288.496527-.072194.74033-.131462l-6.689173-53.045062c-.157238.019719-.399647.026292-.746881.065731l-46.234566 5.876367-4.808867-38.150377zm-98.935551 137.496482c2.162024.151182 4.271636.709897 6.217458 1.64328 6.276625 3.044518 10.114292 9.575595 9.730428 16.559585-.383864 6.983991-4.914026 13.052116-11.486254 15.385768-4.307341 1.522236-9.041727 1.259665-13.155591-.729616-4.132946-1.980428-7.30387-5.538136-8.805336-9.879396-3.134821-9.01445 1.58329-18.875412 10.55461-22.059384 1.467556-.52585 2.974422-.788775 4.49439-.880798l1.139977-.039439zm-1.231699 4.16734c-5.187919-.008312-9.887087 3.070102-11.965984 7.838905-2.078898 4.768803-1.141878 10.320413 2.386033 14.13665 3.527911 3.816236 8.975293 5.170806 13.871242 3.449282 6.777731-2.411703 10.342649-9.861551 7.979836-16.676-1.821312-5.23649-6.743137-8.745554-12.271127-8.748837zm222.426459-31.728424 1.36273.065731c6.944124.618093 12.837558 5.362866 14.943033 12.030558s.01038 13.95163-5.312197 18.46871c-3.144762 2.662113-7.023303 4.075333-11.072186 4.075333-9.235155-.072622-16.778969-7.422018-17.122669-16.681387-.3437-9.259368 6.634368-17.151352 15.838558-17.912933l1.356179-.046012zm-8.49086 7.3356c-4.010856 3.413748-5.587196 8.909457-3.998404 13.939931 1.588791 5.030473 6.032165 8.61244 11.270668 9.085701 3.435795.303478 6.849725-.785373 9.48015-3.023634 4.029682-3.404281 5.619999-8.907927 4.030006-13.946741-1.589992-5.038814-6.047495-8.621516-11.295719-9.078891-3.438237-.307515-6.855714.781715-9.486701 3.023634zm-111.684944-321.7738457 1.081012.0657311c54.181644 3.1748156 104.12441 29.6118966 137.517861 72.6658196l1.867203 2.458346.648607.847932-12.939389 43.36286c-1.727857 5.827352 1.253991 12.015785 6.879169 14.276812l.94998.328656 37.160615 11.213739.268615 1.196308c2.076854 9.143207 3.478894 18.42445 4.206121 27.771423l.301373 4.68006.111377 1.971936-20.912673 2.655539c-.294822.046012-.393096.111744-.393096.111744-.063136.181273-.085509.374317-.065516.565288l.026207.407533 1.100667 8.722528c2.175127 17.221569-4.36991 27.442767-19.969245 31.235456-2.129266.52585-4.343703.769055-6.525383.769055-8.608788 0-16.863791-3.766396-18.868577-9.314108-9.041193-29.19779-18.292037-35.389667-33.295177-44.447424l-1.231699-.742762-3.642683-2.201995 2.299607-1.906204c22.517813-18.733386 32.790705-37.414188 30.497649-55.54942-3.13166-24.83324-22.635741-37.96633-33.989646-43.579773-16.444489-8.111227-33.871717-8.459603-39.538842-7.914034l-.563436.065731-200.629321 25.470833 2.686152-3.904432c22.825737-33.135088 56.035743-58.369288 93.77945-71.344623l3.249588-1.077992 1.081012-.341802 27.044961 22.111969c4.6459 3.810205 11.419155 3.445651 15.632092-.841359l.773088-.867652zm1.932719 4.3514037-22.032995 27.232428c-2.646842 3.299706-6.505728 5.389957-10.698746 5.81721-3.768197.392567-7.551467-.58727-10.659435-2.76071l-1.002394-.762482-25.262928-20.646163c-35.155829 11.601553-66.40691 34.048751-88.905068 63.726379l-2.083405 2.806721 191.162274-24.267951c5.706434-.723043 24.44398-.657312 42.50016 8.249263 12.113889 5.981537 32.928288 20.04801 36.308908 46.853185 2.397882 19.022603-7.599843 38.321278-29.72456 57.416186 15.225893 9.202365 25.466027 16.130431 34.919971 46.603406 1.559278 4.298819 11.498039 7.953473 20.388546 5.784344 8.818439-2.142836 18.606514-6.941213 16.948961-24.912117l-.183444-1.669572-1.100667-8.715955c-.176893-1.459232.026206-2.708124.615849-3.694092.624442-1.012603 1.623254-1.735812 2.777874-2.011374l.70102-.111743 16.994823-2.169129c-.499564-8.00438-1.514999-15.967926-3.039937-23.840699l-.976187-4.712926-34.795491-10.490696c-7.995627-2.433469-12.761439-10.648308-10.9215-18.82541l.275167-1.058272 12.32354-41.312047c-32.430368-42.73184-81.351085-69.103189-134.530336-72.527784zm27.274266 130.601282c.799294 6.329913-2.083405 11.851332-8.340173 15.992396-6.007807 3.976737-13.345587 5.58715-17.728601 6.21817l-.956532.131462-59.868423 7.598525-4.926795-39.08376 64.415226-8.176959c3.262692-.414106 25.30879.670458 27.405298 17.320166zm-26.573246-13.13309-.314476.026293-60.215658 7.644536 3.865438 30.676742 55.675406-7.072675c6.538486-.828213 12.69698-2.892172 16.889997-5.679174 4.887486-3.233974 7.069159-7.250149 6.479522-11.917063-1.592036-12.607241-18.88168-13.902145-22.380229-13.678659zm163.4425-27.304732c9.106655 2.77438 14.268257 12.408915 11.550452 21.559827-1.301623 4.404636-4.307807 8.102507-8.346725 10.26721-2.493637 1.359536-5.285934 2.073459-8.123971 2.077106-5.456084-.01044-10.587389-2.603161-13.844099-6.99508s-4.256968-10.068072-2.698664-15.314083c1.302959-4.407555 4.311469-8.107755 8.353276-10.273783 4.019228-2.177482 8.739135-2.653153 13.109731-1.321197zm-11.098393 5.061301c-4.632221 2.512652-7.304291 7.573258-6.774216 12.829618.530074 5.25636 4.158319 9.677431 9.198304 11.208274 3.297859 1.010319 6.861907.650375 9.8929-.999113 4.630907-2.515109 7.301529-7.576035 6.771597-12.832418-.529932-5.256382-4.156581-9.678257-9.195685-11.212048-3.298654-1.009063-6.863034-.646717-9.8929 1.005687zm-179.172865-116.1601415c7.378008 6.0395082 8.499843 16.9273905 2.509258 24.3534025-3.013731 3.746677-7.449157 6.034122-12.205611 6.349632l-1.192389.039438c-3.950866-.000553-7.779742-1.373165-10.836329-3.884712-7.373793-6.038996-8.495414-16.9218526-2.509259-24.3468294 2.875796-3.5675067 7.05297-5.8345211 11.602865-6.297047 4.54591-.4855194 9.096007.8783124 12.631465 3.7861159zm-10.849432.36131c-3.927087-.022286-7.650529 1.7511927-10.115654 4.818307-4.513015 5.6170504-3.664672 13.8348661 1.89996 18.4047305 2.672648 2.190613 6.105183 3.222431 9.538119 2.867154 3.432936-.355278 6.583257-2.068361 8.753919-4.760212 3.144974-3.9161129 3.779215-9.2923264 1.632354-13.8368352-2.14686-4.5445088-6.6962-7.4558397-11.708698-7.4931443z" fill="#ec907c"/><path d="m197.517138 333.004865c.50698.033854.977307.276227 1.29919.669509l.20997.315063 2.93302 5.59893.787388.124712.787388.131276 4.619343-4.305859c.419816-.389443.996207-.562541 1.561031-.4688.564824.093742 1.054454.443763 1.326058.947958l.144355.347882 1.797869 6.064961 1.489476.571051 5.380484-3.321288c.488063-.304588 1.089977-.364779 1.628656-.162867.538679.201913.952842.642961 1.12064 1.193385l.072178.374138.570856 6.301257.66928.413521.656156.426647 5.938218-2.218568c.522771-.193802 1.104927-.142384 1.585664.140051.480738.282434.809181.765995.894608 1.317115l.013123.472595-.669279 6.301257.577417.538233.564295.544796 6.253173-1.023954c.635446-.106668 1.280311.127456 1.699446.616998.315861.357193.480562.823219.459309 1.299634l-.0853.459467-1.876608 6.038705.465871.656381.452748.649818 6.318789.223169c.558099.019092 1.07773.289293 1.414007.735268.336277.445974.453228 1.020014.318246 1.562066l-.1706.439775-3.018321 5.552984.328078.722019.321517.735147 6.141626 1.444038c.546281.129378 1.005559.497411 1.251006 1.002465.245446.505055.251091 1.093695.015377 1.603367l-.255901.393829-4.055048 4.85722.183723.774529.16404.77453 5.767616 2.625524c.50608.234719.880429.683888 1.020202 1.224105s.030269 1.114661-.298429 1.565514l-.321517.347882-4.921175 3.977669.03937 1.575315 5.144268 3.708553c.464747.341548.746704.877886.765546 1.45449.017024.576603-.23106 1.129437-.673684 1.499224l-.321517.210042-5.597016 2.934023-.118109.787658-.144354.787657 4.310949 4.620922c.389832.419057.563909.994965.471499 1.559886s-.440908 1.055288-.943932 1.328191l-.354324.150967-6.062888 1.791921-.282147.748274-.288709.741711 3.320153 5.382324c.304483.48823.364655 1.09035.162811 1.629213s-.642741.953168-1.192977 1.121023l-.374009.065639-6.299104.577615-.413379.669509-.426502.656381 2.21781 5.940248c.193735.52295.142335 1.105304-.140003 1.586206s-.765734.809458-1.316665.894914l-.472433.013128-6.299104-.669509-.538048.577615-.54461.571052 1.010481 6.255311c.105784.63232-.125471 1.274084-.610226 1.693463-.358726.317586-.827266.482456-1.305751.459467l-.465872-.08533-6.036641-1.877249-.643033.46603-.649595.452903-.223094 6.320949c-.019084.558291-.289194 1.078099-.735016 1.414491-.445821.336392-1.019666.453383-1.561532.318355l-.446186-.170659-5.551086-3.019353-.721772.328191-.728334.321627-1.456668 6.15029c-.136978.537981-.50497.987723-1.005089 1.228368-.500118.240646-1.081066.247513-1.586729.018756l-.400256-.249425-4.862121-4.056435-.767703.183787-.767703.164095-2.63775 5.763026c-.234639.506252-.683654.880729-1.223686 1.02055-.540033.139821-1.114281.030279-1.56498-.298531l-.341201-.328191-3.97631-4.922857-.787387.032819-.787388.019691-3.700724 5.139463c-.338916.462097-.871487.742553-1.444138.76141-.572652.017026-1.121723-.229541-1.488882-.669516l-.20997-.315063-2.939582-5.59893-.787388-.124713-.787388-.13784-4.612781 4.299296c-.419918.392068-.998043.566821-1.564738.472982s-1.057689-.445627-1.328913-.95214l-.144355-.347882-1.791307-6.064961-1.489476-.571051-5.380484 3.321288c-.488063.304588-1.089978.364779-1.628657.162867-.538678-.201913-.952842-.642961-1.12064-1.193385l-.072177-.374138-.577418-6.301257-.66928-.413521-.656156-.426647-5.931656 2.218568c-.522772.193802-1.104927.142384-1.585664-.14005-.480738-.282435-.809181-.765996-.894608-1.317116l-.013124-.472595.66928-6.301257-.583979-.538233-.564295-.544796-6.246611 1.023954c-.637597.109104-1.28557-.125243-1.706008-.616998-.31349-.3582-.475798-.824114-.452748-1.299634l.085301-.466031 1.876608-6.038705-.465871-.643254-.45931-.656381-6.312227-.223169c-.5581-.019092-1.07773-.289293-1.414007-.735268-.336277-.445974-.453229-1.020014-.318247-1.562066l.170601-.439775 3.011759-5.552984-.328078-.722019-.314955-.735146-6.148188-1.450603c-.623749-.153301-1.12461-.617128-1.325437-1.227432-.157999-.451095-.132069-.946286.072178-1.3784l.255901-.393829 4.055048-4.857219-.183724-.767966-.164039-.77453-5.767617-2.632088c-.50608-.234719-.880429-.683888-1.020202-1.224105s-.030268-1.114661.29843-1.565514l.321516-.341318 4.921175-3.977669-.039369-1.575315-5.137707-3.701989c-.464394-.338844-.74648-.873113-.765345-1.447832-.017042-.57472.231145-1.125565.673483-1.492755l.314955-.210042 5.597017-2.934023.118108-.787657.144354-.787657-4.310949-4.620923c-.38931-.41996-.562349-.996547-.468639-1.561565.093709-.565017.443611-1.054814.947633-1.326511l.347764-.144404 6.062887-1.798484.570856-1.489985-3.320152-5.382324c-.307144-.488662-.368816-1.092685-.166772-1.633371.202045-.540687.644674-.956133 1.196938-1.12343l.374009-.065638 6.299104-.571051.83988-1.32589-2.217809-5.940248c-.193736-.522951-.142336-1.105305.140002-1.586207s.765734-.809457 1.316665-.894914l.472433-.013127 6.299104.669508.538049-.584179.54461-.557924-1.023605-6.255311c-.109067-.637814.125201-1.28601.616787-1.70659.358078-.313598.823833-.475962 1.299191-.452903l.465871.085329 6.036641 1.87725.643033-.466031.656157-.459466.223093-6.314386c.019085-.55829.289195-1.078098.735016-1.41449.445822-.336392 1.019666-.453384 1.561533-.318356l.439625.170659 5.551085 3.019353.721772-.32819.734896-.328191 1.450106-6.137163c.129774-.544686.496635-1.002578.999807-1.247895s1.08974-.25226 1.598573-.01892l.400256.255989 4.855559 4.056434.767703-.183786.774265-.164096 2.631188-5.776153c.234639-.506252.683654-.880729 1.223687-1.02055.540032-.139821 1.11428-.030279 1.564979.298531l.341201.328191 3.97631 4.922857 1.574776-.039382 3.700723-5.139464c.378801-.519982.998881-.807797 1.640392-.761402zm-1.751938 16.731153-5.721686 7.049532c-1.059075 1.298806-2.89339 1.657517-4.363442.853295l-.518364-.354446-6.594374-5.382324c-9.599572 3.098118-21.784401 10.830287-28.037574 24.54865l-.780826 1.82474 5.209884 9.707875c.887416 1.465792.57558 3.359729-.734896 4.463391l-.446186.315063-7.690156 4.647178c0 21.752467 14.960371 33.685474 17.388151 35.602106l.190285.157532 7.598294-2.664907c1.611403-.566459 3.395289.123954 4.205964 1.627825l.223094.505413 3.01832 8.618283c6.500776 2.072661 13.375665 2.699901 20.144009 1.837867 5.878499-.737934 11.563248-2.586722 16.75168-5.447962l1.915977-1.115848.774265-9.104005c.144106-1.671621 1.460411-3.002178 3.129867-3.163757h.62991l8.215082.715456c12.703192-12.694409 8.9631-36.114084 8.438174-38.726481l-.032808-.170659-9.061523-2.723981c-1.606932-.483861-2.639233-2.046647-2.454026-3.715117l.12467-.616998 3.188921-10.633373c-8.27505-11.009968-20.965361-17.830043-34.710686-18.654348zm-27.269871 86.084371c-1.441868.521345-2.433287 1.853492-2.519044 3.384781s.750716 2.965874 2.12535 3.64506c.728334.347882 1.54853.459467 2.329356.315063l.58398-.157531c1.874945-.77119 2.818609-2.875392 2.147738-4.789075-.67087-1.913683-2.721603-2.967436-4.66738-2.398298zm57.584308-7.108606c-2.026242-.060907-3.746975 1.47253-3.919651 3.493009s1.262884 3.823846 3.270056 4.107883c2.026241.060906 3.746974-1.47253 3.91965-3.493009s-1.262883-3.823846-3.270055-4.107883zm-115.811649-81.161514 14.501062.223169v28.093108h-15.741198v-.459466c-1.706007-8.270401-6.574689-13.140749-18.2411547-13.140749-11.7714503 0-18.1164851 9.970428-18.1164851 28.329405 0 18.358978 7.9329339 28.322842 22.6505275 28.322842 10.9840623 0 17.6768603-7.810934 21.0495053-13.692108l11.778012 6.793543c-6.45002 11.210988-18.34614 20.505344-35.1043808 20.505344-27.9850811 0-43.0438762-14.729191-43.0438762-41.923057s14.2714071-41.916492 40.7801357-41.916492c6.8813647-.004314 13.6139563 2.003378 19.3697443 5.776153v-4.200839zm147.333414 2.021653 15.859306.459467 10.426329-.341318 39.421892 48.729727v-35.011364c-2.040647 0-3.621985.22317-6.57469.564488l-2.716488.341318.223093-14.624169 15.852745.341318h.006561l15.865868-.341318.223093 14.624169-2.716488-.341318c-2.952705-.341318-4.534043-.564488-6.568128-.564488v68.329265s-13.136256-.341318-13.595566-.341318h-3.05769l-39.979625-49.4058v35.805585c2.034086 0 3.621985-.236297 6.561567-.571051l2.709927-.354446-.223093 14.624169-15.859307-.223169-15.859306.223169-.223093-14.624169 2.72305.341318c2.952705.347882 4.527481.571052 6.561566.571052v-46.445522c0-5.677696-2.26374-8.729867-6.561566-9.976991l-2.72305-.794221zm169.918326-.899242 2.480272 31.151844-13.359349 1.700027c-2.716489-17.223438-14.048314-18.12268-34.435101-18.12268v25.487275c9.402724 0 14.396077-6.458789 18.352701-13.258897l5.432977 3.400054v31.046822l-5.432977 2.271079c-3.969748-6.793544-9.179631-14.387872-18.352701-14.387872v19.822707c2.040647 0 3.628546-.216606 6.568128-.676073l2.716488-.459467-.557733 14.847339s-15.524666-.341318-20.052147-.341318c-1.574776 0-4.48155.039383-7.604856.091894l-2.362164.045946c-5.124583.091894-10.085127.196914-10.085127.196914l-.564295-14.840775 2.72305.459467c2.946143.452903 4.534043.676073 6.568128.676073v-54.381168c-2.027524 0-3.72697.223169-6.679674.787657l-2.716489.459466.564295-14.840775h27.807918c10.334468-.059074 48.988656-1.135539 48.988656-1.135539zm-281.655242 35.805585c-1.396896-.033796-2.70034.69959-3.396933 1.911292-.696594 1.211703-.674698 2.707531.057061 3.898312.73176 1.19078 2.056111 1.885675 3.451419 1.81098 2.044965-.109473 3.638124-1.815588 3.608141-3.863959-.029983-2.048372-1.672396-3.707093-3.719688-3.756625zm86.586432-8.473879c-.390313 1.305006-.055003 2.719182.879622 3.709821s2.326574 1.407241 3.651512 1.092874c1.324938-.314366 2.381576-1.31194 2.771889-2.616946.603372-2.017364-.542337-4.142057-2.559011-4.745635-2.016674-.603577-4.140641.542522-4.744012 2.559886zm-48.247199-30.502026-.478994.492286c-1.287088 1.586166-1.098854 3.904593.42724 5.262199s3.849852 1.273835 5.274298-.190138c1.424446-1.463972 1.445365-3.789939.047481-5.279312-1.397885-1.489374-3.71976-1.614954-5.270025-.285035z" fill="#36245b"/><path d="m112.90106 228c22.787048 0 37.838441 11.73529 37.838441 30.386491 0 16.679935-13.089594 27.281254-32.215493 29.819505 17.43967 2.821744 22.924834 16.811792 32.346717 16.811792 2.394838 0 4.927462-1.120786 7.880002-2.116308l.426478 28.270183c-4.638769 1.694365-9.848362 2.828337-14.775823 2.828337-13.640735 0-18.988113-11.306755-25.739588-22.198159-5.622949-9.177261-12.794341-17.945764-22.5049169-19.646722l-1.6796673-.283493v22.330016c2.5326233 0 4.5009833-.283493 8.1621332-.698843l3.372457-.428536-.288693 18.23585-25.3131103-.428536-28.1344263.428536-.2755704-18.51275 3.3724569.566986c3.6545885.698843 8.4377034.850479 10.9768879.850479v-68.130614c-2.5391845 0-7.0401678.283493-10.6881951.988929l-3.6545885.850479.2821316-18.525936 41.8998242-.96915c.5642632 0 18.14828-.428536 18.712543-.428536zm246.871717 16.679935v29.971141h-16.593275c0-7.489489-9.854923-14.135091-19.276806-14.135091-9.139752 0-14.067213 2.1229-14.067213 6.217066 0 14.847121 56.964339 8.056475 56.964339 41.139446 0 16.112949-14.769261 24.723224-42.195078 24.723224-8.299918 0-18.568196-3.38873-25.464018-9.177261l-.426478 9.183854-16.311143.290086v-32.799478h18.148279c1.121966 11.306755 12.374424 16.956835 24.05336 16.956835 10.123932 0 15.47131-2.26135 15.47131-6.355516 0-14.128499-54.864756-7.779575-54.864756-41.139446 0-15.967906 13.791643-24.591367 39.393446-24.591367 7.171392 0 13.922867 2.129494 19.834508 6.36211l.288693-6.355517zm51.649768-15.282249.262448 17.115064 17.026314-.283493.288693 17.945765-3.379018-.290086c-4.59284-.309864-9.18568-.494465-13.785082-.560393v39.576937c0 8.768504 9.284099 10.172783 15.189179 10.172783l.426478 16.956835c-3.805496 1.410872-9.56623 2.538251-15.904349 2.538251-13.076472 0-27.845734-5.089687-27.845734-23.47058v-45.787412c-2.539184 0-8.726396.2769-12.380985.566986l-3.372456.283493.288692-17.945764 17.019754.290085 4.081066-17.108471zm-205.83141 16.719493c0 5.933574-1.404097 11.59684-1.404097 17.095285v22.079488c0 19.508272 4.225413 26.714268 15.477871 26.714268l15.47131-5.788531v-42.985446c-2.532623 0-4.500983.283493-8.162133.698843l-3.372457.428536.288693-18.229258 25.326232.428536 15.47131-.428536c-.013122 5.90061-1.42378 11.550691-1.42378 17.062322v50.883692c2.539184 0 7.315738-.13845 10.976888-.843886l3.372457-.566986-.275571 18.380893-30.949181 1.417465-7.742216-15.671228-31.644668 12.592362c-22.649263 0-30.949182-9.335489-30.949182-34.632292v-31.546835c-2.539184 0-7.315738.131858-10.976887.857072l-3.372457.566986.27557-18.525936 28.134426.435129 15.477872-.428536zm-103.1027-.731808c-2.6769694 0-5.3473779.131858-8.0112252.131858v31.382012h-.0131224v.013186c2.6769697 0 5.4851634.131857 8.1621326.131857 12.938687 0 19.972294-5.083095 19.972294-16.251399 0-9.744247-6.744914-15.407514-20.110079-15.407514z" fill="#e65479"/><path d="m235.175215 210.006665c6.122691 0 11.273109 4.865192 11.273109 10.996667 0 6.098152-5.150418 10.996668-11.266539 10.996668-6.155538 0-11.233693-4.898516-11.233693-10.996668 0-5.811572 4.552602-10.48349 10.267989-10.956679zm-64.695555 0c4.151867 0 8.408845 1.77946 8.408845 6.131475 0 4.685247-4.651143 6.098152-8.080375 7.18449-3.00879.979703-4.762823 1.999394-4.762823 3.852166v.213268h12.449033v3.918813h-17.389229v-3.299001c0-5.085125 4.184714-7.477734 9.118341-8.86398 1.182494-.319903 3.79055-1.119661 3.79055-2.965768 0-1.559528-1.786879-2.066041-3.396385-2.066041-2.929957 0-4.90078 1.412905-6.937297 3.152378l-2.68032-3.265677c2.608056-2.06604 5.150418-3.998788 9.47309-3.998788zm130.468494 0c4.151868 0 8.408846 1.77946 8.408846 6.131475 0 4.685247-4.651143 6.098152-8.080375 7.18449-3.00879.979703-4.762823 1.999394-4.762823 3.852166v.213268h12.449033v3.918813h-17.38923v-3.299001c0-5.085125 4.184715-7.477734 9.118342-8.86398 1.182494-.319903 3.79055-1.119661 3.79055-2.965768 0-1.559528-1.78688-2.066041-3.396385-2.066041-2.936527 0-4.900781 1.412905-6.937298 3.152378l-2.693458-3.265677c2.621195-2.06604 5.156987-3.998788 9.486229-3.998788zm64.643 0c4.158437 0 8.408846 1.77946 8.408846 6.131475 0 4.685247-4.644573 6.098152-8.080375 7.18449-3.002221.979703-4.756253 1.999394-4.756253 3.852166v.213268h12.449033v3.918813h-17.382661v-3.299001c0-5.085125 4.184715-7.477734 9.118342-8.86398 1.182494-.319903 3.79055-1.119661 3.79055-2.965768 0-1.559528-1.78688-2.066041-3.396385-2.066041-2.936527 0-4.90078 1.412905-6.937298 3.152378l-2.693458-3.265677c2.621195-2.06604 5.156987-3.998788 9.486229-3.998788zm-130.409369 4.285368c-3.547482 0-6.372329 3.01242-6.372329 6.711299 0 3.625568 2.824847 6.751288 6.372329 6.751288 3.468648 0 6.398605-3.132384 6.398605-6.751288 0-3.698879-2.929957-6.711299-6.398605-6.711299z" fill="#e65479"/></g></g></svg>