<svg height="80" width="56" xmlns="http://www.w3.org/2000/svg"><path d="M19.224 19.167h17.552v17.5H19.224zm0 19.166h17.552v17.5H19.224zM38.448 0H56v17.5H38.448zM19.224 0h17.552v17.5H19.224zM0 0h17.552v17.5H0zm0 65.833v2.704h4.13V80h3.44V68.537h4.131v-2.704zm18.225 5.105c-.113.95-.2 1.954-.28 2.993-.08 1.04-.16 2.085-.22 3.125A148.335 148.335 0 0 0 17.553 80h2.54c.036-1.238.076-2.476.12-3.713.052-1.327.124-2.674.23-4.035l.522 1.499c.186.561.373 1.13.56 1.683.193.555.366 1.095.54 1.6.18.513.32.943.446 1.303h1.673l.46-1.302.572-1.6c.194-.555.387-1.123.594-1.684l.553-1.531c.093 1.372.173 2.73.22 4.067.046 1.337.1 2.577.126 3.713h2.546c-.047-.922-.113-1.898-.173-2.944-.074-1.04-.147-2.086-.227-3.125a86.865 86.865 0 0 0-.273-2.993 75.574 75.574 0 0 0-.347-2.605H26.03c-.18.354-.367.797-.58 1.317-.227.52-.447 1.087-.687 1.69-.24.61-.48 1.24-.706 1.87-.233.638-.446 1.234-.653 1.788-.2-.554-.406-1.15-.626-1.787-.227-.63-.454-1.261-.68-1.871-.227-.603-.453-1.17-.66-1.69-.206-.52-.386-.963-.546-1.317h-2.326a53.408 53.408 0 0 0-.34 2.605zm13.536-2.605h2.508V80H31.76zm-19.224 0h2.508V80h-2.508zm31.762 0v2.217h-5.013v2.155H43.3v2.217h-4.014V80h-2.51V68.333zm5.105 6.892l-2.287-3.692-1.983-3.2h2.692s.285.227 1.48 2.26c1.06 1.8 1.278 2.429 1.278 2.429s.204-.654 1.23-2.418c1.03-1.773 1.495-2.27 1.495-2.27H56l-4.236 6.89V80h-2.36z" fill="#fff"/></svg>