<svg height="80" viewBox="0 0 56 80" width="56" xmlns="http://www.w3.org/2000/svg"><path d="m71.2238806 19.1666667h17.5522388v17.5h-17.5522388zm0 19.1666666h17.5522388v17.5h-17.5522388zm19.2238806-38.3333333h17.5522388v17.5h-17.5522388zm-19.2238806 0h17.5522388v17.5h-17.5522388zm-19.2238806 0h17.5522388v17.5h-17.5522388zm0 65.8333333v2.7038943h4.1303005v11.4627724h3.4406324v-11.4627724h4.1305596v-2.7038943zm18.225138 5.1048484c-.113348.9492266-.1998618 1.9537329-.2798686 2.9929018-.0798207 1.0392333-.1598894 2.0853605-.219755 3.1245294-.0733757 1.0461917-.1267961 2.0228004-.1732756 2.9443871h2.5388341c.0365446-1.2379423.0765584-2.4757714.1200411-3.7134713.0526768-1.326456.1251848-2.6732715.2305383-4.034068l.5224296 1.4985448c.1864137.5610443.3730754 1.1291113.5596131 1.683455.1933547.5543436.3666303 1.0944486.5399059 1.6002131.1799686.5127873.3199029.9422683.446451 1.3025531h1.6724563l.4598992-1.3025531.5729992-1.6002131c.1934167-.5543437.3865855-1.1224107.5931404-1.6835194l.5534159-1.5309524c.0931449 1.3715561.1729037 2.7296465.2196931 4.06654.0467274 1.3371512.0999619 2.5771441.1265482 3.7134713h2.5455271c-.0464795-.9215867-.1131001-1.8981954-.1730276-2.9443871-.0733137-1.0391689-.1466893-2.0852961-.226696-3.1245294-.0733757-1.0391689-.1732756-2.0436752-.2732375-2.9929663-.113348-.9559271-.2264481-1.8289347-.3464892-2.6047839h-2.205731c-.1799687.3532621-.3666923.7967885-.5796923 1.3162764-.226758.5196811-.446761 1.087748-.6866572 1.6904132-.2398342.6096234-.4797304 1.2402505-.7061785 1.8705555-.2332031.6373278-.446451 1.2332923-.6530679 1.7873783-.1998619-.554086-.4064167-1.1500505-.6264197-1.7873783-.2264481-.630305-.4532061-1.2608677-.6796542-1.8705555-.226696-.6026652-.4531441-1.1707321-.659761-1.6904777-.2065549-.5194234-.3865235-.9629498-.546351-1.3162119h-2.3258341c-.1264862.7758492-.2331412 1.6488568-.3397961 2.6048484zm13.536056-2.6048484h2.5074627v11.6666667h-2.5074627zm-19.2238806 0h2.5074627v11.6666667h-2.5074627zm31.7611941 0v2.2169083h-5.0128481v2.1546689h4.0141398v2.2169083h-4.0141398v5.0781812h-2.50954v-11.6666667zm5.1058995 6.8913992-2.2877802-3.6920923-1.9822984-3.1993069h2.6914809s.2848717.2269492 1.4807457 2.259319c1.059065 1.80027 1.277458 2.4290962 1.277458 2.4290962s.204083-.6534848 1.229755-2.4180868c1.030015-1.7727142 1.494812-2.2703284 1.494812-2.2703284h2.69142l-4.236197 6.8913992v4.7752675h-2.359396z" fill="#fff" transform="translate(-52)"/></svg>