<?xml version="1.0" encoding="UTF-8"?>
<svg width="1440px" height="597px" viewBox="0 0 1440 597" version="1.1" xmlns="http://www.w3.org/2000/svg" xmlns:xlink="http://www.w3.org/1999/xlink">
    <title>Group 8</title>
    <g id="Blog-posts" stroke="none" stroke-width="1" fill="none" fill-rule="evenodd">
        <g id="Getting-started-with-code-mods" transform="translate(0.000000, -1004.000000)">
            <g id="Group-7" transform="translate(0.000000, 1003.999946)">
                <rect id="Rectangle" fill="#FFFFFF" x="0" y="74.0000535" width="1440" height="499"></rect>
                <rect id="Rectangle" fill="#F4F6F8" x="0" y="114.000054" width="1440" height="458"></rect>
                <g id="Group-5" transform="translate(123.455588, 0.000000)">
                    <g id="undraw_programming_re_kg9v">
                        <ellipse id="Oval" fill="#DDE9F6" fill-rule="nonzero" cx="752.496362" cy="194.225125" rx="31.496362" ry="31.5"></ellipse>
                        <path d="M76.9911071,467.725125 C119.512121,467.725125 153.982214,502.199199 153.982214,544.725125 C153.982214,554.707886 152.082727,564.246948 148.625505,573.000518 L5.35670946,573.000518 C1.89948686,564.246948 0,554.707886 0,544.725125 C0,502.199199 34.4700928,467.725125 76.9911071,467.725125 Z" id="Combined-Shape" fill="#DDE9F6" fill-rule="nonzero"></path>
                        <path d="M868.280864,499.712931 C906.494776,470.603219 924.746674,421.687308 913.320181,375.024461 C913.036258,373.865037 912.736592,372.708245 912.421183,371.554086 C904.845913,343.855572 886.104457,317.530532 858.789571,308.68009 C835.854395,301.248854 810.819981,306.963348 786.893025,304.008211 C739.923139,298.20707 703.508325,260.19854 677.885913,220.403208 C652.263444,180.607751 632.571705,136.062518 598.52502,103.185701 C542.404605,48.993835 450.858122,37.3262746 381.276857,72.6011143 C311.695689,107.87607 267.37321,186.13641 269.263449,264.13263 C271.153774,342.128926 317.451336,416.698726 384.686886,456.262861 C409.386523,470.797071 437.953933,481.093433 466.384345,477.490506 C491.053063,474.364292 513.467577,461.107736 538.020192,457.172101 C576.622574,450.984325 614.979014,468.439745 648.367155,488.780619 C681.755199,509.121463 714.005763,533.231514 751.946793,542.661506 C788.787451,551.817973 834.429388,525.499536 868.280864,499.712931 Z" id="Path" fill="#DDE9F6" fill-rule="nonzero" transform="translate(592.948884, 298.500055) rotate(-10.000000) translate(-592.948884, -298.500055) "></path>
                        <path d="M227.544412,439.179088 C235.909067,449.091483 244.956381,458.406917 254.620188,467.057262 L958.070429,468.020239 C967.734236,459.369893 976.78155,450.05446 985.146206,440.142064 L227.544412,439.179088 Z" id="Path" fill="#3F3D56" fill-rule="nonzero"></path>
                        <path d="M704.576775,349.911651 L704.576775,432.442604 C704.578505,434.632557 706.353174,436.407435 708.542875,436.409172 L830.831111,436.409172 C833.020818,436.407446 834.795495,434.632563 834.797221,432.442604 L834.797221,349.911651 C834.792019,347.723844 833.018669,345.952249 830.831111,345.949464 L708.542885,345.949464 C706.355328,345.952254 704.581981,347.723846 704.576775,349.911651 L704.576775,349.911651 Z" id="Path" fill="#3F3D56" fill-rule="nonzero"></path>
                        <path d="M707.445594,350.938531 L707.445594,431.424496 C707.447618,432.594449 708.395438,433.542378 709.565255,433.544403 L829.81315,433.544403 C830.982969,433.542383 831.930792,432.594451 831.932812,431.424496 L831.932812,350.938531 C831.932812,349.767068 830.984475,348.816753 829.81315,348.814204 L709.565255,348.814204 C708.393935,348.816764 707.445594,349.767072 707.445594,350.938531 L707.445594,350.938531 Z" id="Path" fill="#4299F5" fill-rule="nonzero"></path>
                        <path d="M702.01924,448.538325 C702.473108,449.107491 703.162617,449.437422 703.890531,449.43377 L834.832481,449.43377 C835.557695,449.432832 836.243926,449.105289 836.700769,448.541992 C837.157611,447.978694 837.336466,447.239566 837.187708,446.529691 L835.155099,436.873712 C834.983931,436.073644 834.419227,435.41473 833.654848,435.123174 C833.382465,435.016297 833.09242,434.961581 832.799824,434.961874 L705.91508,434.961874 C705.622483,434.961576 705.332438,435.016293 705.060056,435.123174 C704.295653,435.414695 703.730936,436.073625 703.559806,436.873712 L701.527197,446.529691 C701.380738,447.239172 701.561454,447.976897 702.01924,448.538325 L702.01924,448.538325 Z" id="Path" fill="#2F2E41" fill-rule="nonzero"></path>
                        <rect id="Rectangle" fill="#3F3D56" fill-rule="nonzero" transform="translate(829.853374, 437.910891) rotate(-180.000000) translate(-829.853374, -437.910891) " x="827.836898" y="436.700867" width="4.03295231" height="2.42004703" rx="0.48819"></rect>
                        <rect id="Rectangle" fill="#3F3D56" fill-rule="nonzero" transform="translate(821.787469, 437.910891) rotate(-180.000000) translate(-821.787469, -437.910891) " x="819.770993" y="436.700867" width="4.03295231" height="2.42004703" rx="0.48819"></rect>
                        <rect id="Rectangle" fill="#3F3D56" fill-rule="nonzero" transform="translate(813.721564, 437.910891) rotate(-180.000000) translate(-813.721564, -437.910891) " x="811.705088" y="436.700867" width="4.03295231" height="2.42004703" rx="0.48819"></rect>
                        <rect id="Rectangle" fill="#3F3D56" fill-rule="nonzero" transform="translate(805.655660, 437.910891) rotate(-180.000000) translate(-805.655660, -437.910891) " x="803.639184" y="436.700867" width="4.03295231" height="2.42004703" rx="0.48819"></rect>
                        <rect id="Rectangle" fill="#3F3D56" fill-rule="nonzero" transform="translate(797.589746, 437.910891) rotate(-180.000000) translate(-797.589746, -437.910891) " x="795.573269" y="436.700867" width="4.03295231" height="2.42004703" rx="0.48819"></rect>
                        <rect id="Rectangle" fill="#3F3D56" fill-rule="nonzero" transform="translate(789.523841, 437.910891) rotate(-180.000000) translate(-789.523841, -437.910891) " x="787.507365" y="436.700867" width="4.03295231" height="2.42004703" rx="0.48819"></rect>
                        <rect id="Rectangle" fill="#3F3D56" fill-rule="nonzero" transform="translate(781.457936, 437.910891) rotate(-180.000000) translate(-781.457936, -437.910891) " x="779.44146" y="436.700867" width="4.03295231" height="2.42004703" rx="0.48819"></rect>
                        <rect id="Rectangle" fill="#3F3D56" fill-rule="nonzero" transform="translate(773.392032, 437.910891) rotate(-180.000000) translate(-773.392032, -437.910891) " x="771.375556" y="436.700867" width="4.03295231" height="2.42004703" rx="0.48819"></rect>
                        <rect id="Rectangle" fill="#3F3D56" fill-rule="nonzero" transform="translate(765.326127, 437.910891) rotate(-180.000000) translate(-765.326127, -437.910891) " x="763.309651" y="436.700867" width="4.03295231" height="2.42004703" rx="0.48819"></rect>
                        <rect id="Rectangle" fill="#3F3D56" fill-rule="nonzero" transform="translate(757.260222, 437.910891) rotate(-180.000000) translate(-757.260222, -437.910891) " x="755.243746" y="436.700867" width="4.03295231" height="2.42004703" rx="0.48819"></rect>
                        <rect id="Rectangle" fill="#3F3D56" fill-rule="nonzero" transform="translate(749.194308, 437.910891) rotate(-180.000000) translate(-749.194308, -437.910891) " x="747.177832" y="436.700867" width="4.03295231" height="2.42004703" rx="0.48819"></rect>
                        <rect id="Rectangle" fill="#3F3D56" fill-rule="nonzero" transform="translate(741.128404, 437.910891) rotate(-180.000000) translate(-741.128404, -437.910891) " x="739.111927" y="436.700867" width="4.03295231" height="2.42004703" rx="0.48819"></rect>
                        <rect id="Rectangle" fill="#3F3D56" fill-rule="nonzero" transform="translate(733.062489, 437.910891) rotate(-180.000000) translate(-733.062489, -437.910891) " x="731.046013" y="436.700867" width="4.03295231" height="2.42004703" rx="0.48819"></rect>
                        <rect id="Rectangle" fill="#3F3D56" fill-rule="nonzero" transform="translate(724.996594, 437.910891) rotate(-180.000000) translate(-724.996594, -437.910891) " x="722.980118" y="436.700867" width="4.03295231" height="2.42004703" rx="0.48819"></rect>
                        <rect id="Rectangle" fill="#3F3D56" fill-rule="nonzero" transform="translate(716.930690, 437.910891) rotate(-180.000000) translate(-716.930690, -437.910891) " x="714.914214" y="436.700867" width="4.03295231" height="2.42004703" rx="0.48819"></rect>
                        <rect id="Rectangle" fill="#3F3D56" fill-rule="nonzero" transform="translate(708.864775, 437.910891) rotate(-180.000000) translate(-708.864775, -437.910891) " x="706.848299" y="436.700867" width="4.03295231" height="2.42004703" rx="0.48819"></rect>
                        <rect id="Rectangle" fill="#3F3D56" fill-rule="nonzero" transform="translate(829.948688, 441.944309) rotate(-180.000000) translate(-829.948688, -441.944309) " x="827.932212" y="440.734285" width="4.03295231" height="2.42004703" rx="0.48819"></rect>
                        <rect id="Rectangle" fill="#3F3D56" fill-rule="nonzero" transform="translate(821.882783, 441.944309) rotate(-180.000000) translate(-821.882783, -441.944309) " x="819.866307" y="440.734285" width="4.03295231" height="2.42004703" rx="0.48819"></rect>
                        <rect id="Rectangle" fill="#3F3D56" fill-rule="nonzero" transform="translate(813.816869, 441.944309) rotate(-180.000000) translate(-813.816869, -441.944309) " x="811.800393" y="440.734285" width="4.03295231" height="2.42004703" rx="0.48819"></rect>
                        <rect id="Rectangle" fill="#3F3D56" fill-rule="nonzero" transform="translate(805.750964, 441.944309) rotate(-180.000000) translate(-805.750964, -441.944309) " x="803.734488" y="440.734285" width="4.03295231" height="2.42004703" rx="0.48819"></rect>
                        <rect id="Rectangle" fill="#3F3D56" fill-rule="nonzero" transform="translate(797.685060, 441.944309) rotate(-180.000000) translate(-797.685060, -441.944309) " x="795.668583" y="440.734285" width="4.03295231" height="2.42004703" rx="0.48819"></rect>
                        <rect id="Rectangle" fill="#3F3D56" fill-rule="nonzero" transform="translate(789.619155, 441.944309) rotate(-180.000000) translate(-789.619155, -441.944309) " x="787.602679" y="440.734285" width="4.03295231" height="2.42004703" rx="0.48819"></rect>
                        <rect id="Rectangle" fill="#3F3D56" fill-rule="nonzero" transform="translate(781.553250, 441.944309) rotate(-180.000000) translate(-781.553250, -441.944309) " x="779.536774" y="440.734285" width="4.03295231" height="2.42004703" rx="0.48819"></rect>
                        <rect id="Rectangle" fill="#3F3D56" fill-rule="nonzero" transform="translate(773.487346, 441.944309) rotate(-180.000000) translate(-773.487346, -441.944309) " x="771.47087" y="440.734285" width="4.03295231" height="2.42004703" rx="0.48819"></rect>
                        <rect id="Rectangle" fill="#3F3D56" fill-rule="nonzero" transform="translate(765.421432, 441.944309) rotate(-180.000000) translate(-765.421432, -441.944309) " x="763.404955" y="440.734285" width="4.03295231" height="2.42004703" rx="0.48819"></rect>
                        <rect id="Rectangle" fill="#3F3D56" fill-rule="nonzero" transform="translate(757.355527, 441.944309) rotate(-180.000000) translate(-757.355527, -441.944309) " x="755.339051" y="440.734285" width="4.03295231" height="2.42004703" rx="0.48819"></rect>
                        <rect id="Rectangle" fill="#3F3D56" fill-rule="nonzero" transform="translate(749.289622, 441.944309) rotate(-180.000000) translate(-749.289622, -441.944309) " x="747.273146" y="440.734285" width="4.03295231" height="2.42004703" rx="0.48819"></rect>
                        <rect id="Rectangle" fill="#3F3D56" fill-rule="nonzero" transform="translate(741.223718, 441.944309) rotate(-180.000000) translate(-741.223718, -441.944309) " x="739.207241" y="440.734285" width="4.03295231" height="2.42004703" rx="0.48819"></rect>
                        <rect id="Rectangle" fill="#3F3D56" fill-rule="nonzero" transform="translate(733.157813, 441.944309) rotate(-180.000000) translate(-733.157813, -441.944309) " x="731.141337" y="440.734285" width="4.03295231" height="2.42004703" rx="0.48819"></rect>
                        <rect id="Rectangle" fill="#3F3D56" fill-rule="nonzero" transform="translate(725.091899, 441.944309) rotate(-180.000000) translate(-725.091899, -441.944309) " x="723.075423" y="440.734285" width="4.03295231" height="2.42004703" rx="0.48819"></rect>
                        <rect id="Rectangle" fill="#3F3D56" fill-rule="nonzero" transform="translate(717.025994, 441.944309) rotate(-180.000000) translate(-717.025994, -441.944309) " x="715.009518" y="440.734285" width="4.03295231" height="2.42004703" rx="0.48819"></rect>
                        <rect id="Rectangle" fill="#3F3D56" fill-rule="nonzero" transform="translate(708.960090, 441.944309) rotate(-180.000000) translate(-708.960090, -441.944309) " x="706.943613" y="440.734285" width="4.03295231" height="2.42004703" rx="0.48819"></rect>
                        <rect id="Rectangle" fill="#3F3D56" fill-rule="nonzero" transform="translate(777.117002, 446.784412) rotate(-180.000000) translate(-777.117002, -446.784412) " x="760.985188" y="445.574389" width="32.2636281" height="2.42004703" rx="0.48819"></rect>
                        <rect id="Rectangle" fill="#FFFFFF" fill-rule="nonzero" x="724.027774" y="366.422608" width="5.74431085" height="3.00656723" rx="1.50328362"></rect>
                        <rect id="Rectangle" fill="#FFFFFF" fill-rule="nonzero" x="755.343056" y="366.422608" width="5.74431085" height="3.00656723" rx="1.50328362"></rect>
                        <rect id="Rectangle" fill="#FFFFFF" fill-rule="nonzero" x="764.215717" y="366.422608" width="5.74431085" height="3.00656723" rx="1.50328362"></rect>
                        <rect id="Rectangle" fill="#FFFFFF" fill-rule="nonzero" x="732.545628" y="366.171974" width="20.0238751" height="3.00656723" rx="1.50328362"></rect>
                        <rect id="Rectangle" fill="#FFFFFF" fill-rule="nonzero" x="774.299345" y="366.171974" width="20.0238751" height="3.00656723" rx="1.50328362"></rect>
                        <rect id="Rectangle" fill="#FFFFFF" fill-rule="nonzero" x="732.378513" y="373.208378" width="5.74431085" height="3.00656723" rx="1.50328362"></rect>
                        <rect id="Rectangle" fill="#FFFFFF" fill-rule="nonzero" x="763.693796" y="373.208378" width="5.74431085" height="3.00656723" rx="1.50328362"></rect>
                        <rect id="Rectangle" fill="#FFFFFF" fill-rule="nonzero" x="772.566456" y="373.208378" width="5.74431085" height="3.00656723" rx="1.50328362"></rect>
                        <rect id="Rectangle" fill="#FFFFFF" fill-rule="nonzero" x="740.896377" y="372.957734" width="20.0238751" height="3.00656723" rx="1.50328362"></rect>
                        <rect id="Rectangle" fill="#FFFFFF" fill-rule="nonzero" x="782.650084" y="372.957734" width="20.0238751" height="3.00656723" rx="1.50328362"></rect>
                        <rect id="Rectangle" fill="#FFFFFF" fill-rule="nonzero" x="740.729253" y="379.994137" width="5.74431085" height="3.00656723" rx="1.50328362"></rect>
                        <rect id="Rectangle" fill="#FFFFFF" fill-rule="nonzero" x="772.044535" y="379.994137" width="5.74431085" height="3.00656723" rx="1.50328362"></rect>
                        <rect id="Rectangle" fill="#FFFFFF" fill-rule="nonzero" x="780.917206" y="379.994137" width="5.74431085" height="3.00656723" rx="1.50328362"></rect>
                        <rect id="Rectangle" fill="#FFFFFF" fill-rule="nonzero" x="749.247117" y="379.743503" width="20.0238751" height="3.00656723" rx="1.50328362"></rect>
                        <rect id="Rectangle" fill="#FFFFFF" fill-rule="nonzero" x="791.000824" y="379.743503" width="20.0238751" height="3.00656723" rx="1.50328362"></rect>
                        <rect id="Rectangle" fill="#FFFFFF" fill-rule="nonzero" x="749.080002" y="386.779897" width="5.74431085" height="3.00656723" rx="1.50328362"></rect>
                        <rect id="Rectangle" fill="#FFFFFF" fill-rule="nonzero" x="780.395284" y="386.779897" width="5.74431085" height="3.00656723" rx="1.50328362"></rect>
                        <rect id="Rectangle" fill="#FFFFFF" fill-rule="nonzero" x="789.267945" y="386.779897" width="5.74431085" height="3.00656723" rx="1.50328362"></rect>
                        <rect id="Rectangle" fill="#FFFFFF" fill-rule="nonzero" x="757.597856" y="386.529263" width="20.0238751" height="3.00656723" rx="1.50328362"></rect>
                        <rect id="Rectangle" fill="#FFFFFF" fill-rule="nonzero" x="755.343056" y="413.762965" width="5.74431085" height="3.00656723" rx="1.50328362"></rect>
                        <rect id="Rectangle" fill="#FFFFFF" fill-rule="nonzero" x="764.215717" y="413.762965" width="5.74431085" height="3.00656723" rx="1.50328362"></rect>
                        <rect id="Rectangle" fill="#FFFFFF" fill-rule="nonzero" x="774.299345" y="414.013609" width="20.0238751" height="3.00656723" rx="1.50328362"></rect>
                        <rect id="Rectangle" fill="#FFFFFF" fill-rule="nonzero" x="724.027774" y="413.762965" width="5.74431085" height="3.00656723" rx="1.50328362"></rect>
                        <rect id="Rectangle" fill="#FFFFFF" fill-rule="nonzero" x="732.545628" y="414.013609" width="20.0238751" height="3.00656723" rx="1.50328362"></rect>
                        <rect id="Rectangle" fill="#FFFFFF" fill-rule="nonzero" x="732.378513" y="406.977206" width="5.74431085" height="3.00656723" rx="1.50328362"></rect>
                        <rect id="Rectangle" fill="#FFFFFF" fill-rule="nonzero" x="763.693796" y="406.977206" width="5.74431085" height="3.00656723" rx="1.50328362"></rect>
                        <rect id="Rectangle" fill="#FFFFFF" fill-rule="nonzero" x="772.566456" y="406.977206" width="5.74431085" height="3.00656723" rx="1.50328362"></rect>
                        <rect id="Rectangle" fill="#FFFFFF" fill-rule="nonzero" x="740.896377" y="407.227839" width="20.0238751" height="3.00656723" rx="1.50328362"></rect>
                        <rect id="Rectangle" fill="#FFFFFF" fill-rule="nonzero" x="740.729253" y="400.191446" width="5.74431085" height="3.00656723" rx="1.50328362"></rect>
                        <rect id="Rectangle" fill="#FFFFFF" fill-rule="nonzero" x="772.044535" y="400.191446" width="5.74431085" height="3.00656723" rx="1.50328362"></rect>
                        <rect id="Rectangle" fill="#FFFFFF" fill-rule="nonzero" x="780.917206" y="400.191446" width="5.74431085" height="3.00656723" rx="1.50328362"></rect>
                        <rect id="Rectangle" fill="#FFFFFF" fill-rule="nonzero" x="749.247117" y="400.44208" width="20.0238751" height="3.00656723" rx="1.50328362"></rect>
                        <rect id="Rectangle" fill="#FFFFFF" fill-rule="nonzero" x="749.080002" y="393.405677" width="5.74431085" height="3.00656723" rx="1.50328362"></rect>
                        <rect id="Rectangle" fill="#FFFFFF" fill-rule="nonzero" x="780.395284" y="393.405677" width="5.74431085" height="3.00656723" rx="1.50328362"></rect>
                        <rect id="Rectangle" fill="#FFFFFF" fill-rule="nonzero" x="789.267945" y="393.405677" width="5.74431085" height="3.00656723" rx="1.50328362"></rect>
                        <rect id="Rectangle" fill="#FFFFFF" fill-rule="nonzero" x="757.597856" y="393.65632" width="20.0238751" height="3.00656723" rx="1.50328362"></rect>
                        <path d="M412.11609,345.953316 L412.11609,444.716203 L481.297977,444.716203 L481.297977,345.953316 C481.300384,344.495127 480.351238,343.206013 478.958209,342.775493 C478.638371,342.669841 478.303272,342.617781 477.966458,342.621239 L415.457233,342.621239 C414.572249,342.619699 413.722878,342.969878 413.096196,343.594826 C412.469515,344.219774 412.116926,345.068229 412.11609,345.953316 L412.11609,345.953316 Z M439.114837,379.888614 C439.152425,375.836152 442.447847,372.570781 446.500015,372.570781 C450.552183,372.570781 453.847605,375.836152 453.885193,379.888614 L453.885193,391.348036 C453.864441,395.412508 450.56407,398.696447 446.500015,398.696447 C442.435961,398.696447 439.13559,395.412508 439.114837,391.348036 L439.114837,379.888614 Z" id="Shape" fill="#2F2E41" fill-rule="nonzero"></path>
                        <path d="M411.904317,441.557707 L411.904317,451.081547 C411.907562,452.108214 412.736129,452.94117 413.762648,452.949721 L479.65153,452.949721 C480.679475,452.94457 481.509861,452.109623 481.509861,451.081547 L481.509861,441.557707 L411.904317,441.557707 Z" id="Path" fill="#3F3D56" fill-rule="nonzero"></path>
                        <path d="M303.283408,197.154229 L303.283408,377.481163 C303.287199,382.266127 307.164785,386.144161 311.949197,386.147953 L579.14436,386.147953 C583.92878,386.144182 587.806379,382.266136 587.810149,377.481163 L587.810149,197.154229 C587.798765,192.373977 583.924069,188.50314 579.14436,188.497069 L311.949197,188.497069 C307.169496,188.503161 303.294813,192.373986 303.283408,197.154229 Z" id="Path" fill="#3F3D56" fill-rule="nonzero"></path>
                        <path d="M309.551662,199.397897 L309.551662,375.256696 C309.556077,377.813003 311.627034,379.884199 314.183045,379.888614 L576.92014,379.888614 C579.47616,379.88422 581.547129,377.813011 581.551523,375.256696 L581.551523,199.397897 C581.551523,196.8383 579.479436,194.761909 576.92014,194.75635 L314.183045,194.75635 C311.623758,194.76193 309.551662,196.838309 309.551662,199.397897 Z" id="Path" fill="#FFFFFF" fill-rule="nonzero"></path>
                        <path d="M358.311168,452.30446 C358.852973,452.9839 359.676072,453.377755 360.545016,453.3734 L516.856594,453.3734 C517.72232,453.372283 518.541513,452.981277 519.086872,452.30884 C519.632231,451.636402 519.845741,450.754064 519.668161,449.906648 L517.24174,438.379817 C517.037397,437.42475 516.36328,436.638189 515.45081,436.290158 C515.125667,436.162582 514.779443,436.097266 514.430173,436.097609 L362.961809,436.097609 C362.612538,436.09726 362.266313,436.162577 361.941171,436.290158 C361.028675,436.638152 360.354544,437.424729 360.150241,438.379817 L357.723821,449.906648 C357.54898,450.753588 357.764699,451.634246 358.311168,452.30446 Z" id="Path" fill="#2F2E41" fill-rule="nonzero"></path>
                        <path d="M568.393495,218.981694 L322.551453,218.981694 C322.019966,218.969897 321.595263,218.535614 321.595263,218.003935 C321.595263,217.472257 322.019966,217.037973 322.551453,217.026177 L568.393495,217.026177 C568.924982,217.037973 569.349685,217.472257 569.349685,218.003935 C569.349685,218.535614 568.924982,218.969897 568.393495,218.981694 L568.393495,218.981694 Z" id="Path" fill="#3F3D56" fill-rule="nonzero"></path>
                        <ellipse id="Oval" fill="#3F3D56" fill-rule="nonzero" cx="339.286237" cy="206.176126" rx="5.72946347" ry="5.85782559"></ellipse>
                        <ellipse id="Oval" fill="#3F3D56" fill-rule="nonzero" cx="359.078919" cy="206.176126" rx="5.72946347" ry="5.85782559"></ellipse>
                        <ellipse id="Oval" fill="#3F3D56" fill-rule="nonzero" cx="378.87161" cy="206.176126" rx="5.72946347" ry="5.85782559"></ellipse>
                        <path d="M556.475012,201.766887 L542.417176,201.766887 C541.839222,201.780357 541.377715,202.252798 541.377715,202.830977 C541.377715,203.409155 541.839222,203.881596 542.417176,203.895066 L556.475012,203.895066 C557.05677,203.886856 557.524071,203.41286 557.524071,202.830977 C557.524071,202.249093 557.05677,201.775097 556.475012,201.766887 Z" id="Path" fill="#3F3D56" fill-rule="nonzero"></path>
                        <path d="M556.475012,205.76324 L542.417176,205.76324 C541.838727,205.77603 541.376472,206.248673 541.376472,206.82733 C541.376472,207.405987 541.838727,207.878629 542.417176,207.891419 L556.475012,207.891419 C557.057631,207.884407 557.526252,207.410058 557.526252,206.82733 C557.526252,206.244601 557.057631,205.770252 556.475012,205.76324 L556.475012,205.76324 Z" id="Path" fill="#3F3D56" fill-rule="nonzero"></path>
                        <path d="M556.475012,209.759536 L542.417176,209.759536 C541.839222,209.773006 541.377715,210.245447 541.377715,210.823625 C541.377715,211.401803 541.839222,211.874244 542.417176,211.887714 L556.475012,211.887714 C557.05677,211.879504 557.524071,211.405509 557.524071,210.823625 C557.524071,210.241742 557.05677,209.767746 556.475012,209.759536 Z" id="Path" fill="#3F3D56" fill-rule="nonzero"></path>
                        <path d="M895.383796,445.737392 C896.254094,448.271631 898.658483,449.955998 901.33729,449.908044 L926.845357,449.251506 C929.546793,449.198879 931.890978,447.373364 932.604111,444.766923 L936.213778,406.163875 C937.494455,406.744115 938.888654,407.030621 940.294335,407.002426 C943.616774,406.919014 946.64234,405.069233 948.231331,402.149878 C949.820322,399.230523 949.731332,395.685113 947.997884,392.84917 C946.264436,390.013227 943.14988,388.317598 939.827441,388.40101 C939.265601,388.3992 938.705178,388.45749 938.155733,388.574885 C936.94742,387.267461 935.242753,386.531866 933.462679,386.549427 L894.225421,387.563076 C893.899934,387.575088 893.5761,387.615299 893.257558,387.683255 C891.516635,388.007826 890.001219,389.069728 889.101736,390.595376 C888.202253,392.121025 888.006658,393.961238 888.565342,395.641911 L895.383796,445.737392 Z M936.95402,403.542797 L939.522598,394.343732 C939.814783,393.281093 939.821545,392.160177 939.542202,391.09409 C939.666835,391.093762 939.776785,391.034684 939.901418,391.034385 C943.568352,390.958552 946.605158,393.864672 946.691025,397.531808 C946.776892,401.198944 943.879436,404.244049 940.212972,404.339969 C939.074385,404.375567 937.947647,404.099955 936.95402,403.542797 L936.95402,403.542797 Z" id="Shape" fill="#2F2E41" fill-rule="nonzero"></path>
                        <path d="M893.257558,387.683236 C894.093499,392.463568 903.491942,395.824116 914.792862,395.239993 C925.18479,394.761144 933.681827,391.111712 935.23855,386.786503 C934.662423,386.616087 934.063324,386.536209 933.462679,386.549726 L894.225421,387.563057 C893.899934,387.575069 893.5761,387.61528 893.257558,387.683236 L893.257558,387.683236 Z" id="Path" fill="#3F3D56" fill-rule="nonzero"></path>
                        <path d="M916.864005,424.52472 C916.915666,424.511647 916.964778,424.490029 917.009311,424.46076 L922.548821,420.834517 C922.684871,420.745813 922.766998,420.594401 922.766998,420.431975 C922.766998,420.269549 922.685111,420.118074 922.549129,420.029266 L916.791405,416.257604 C916.647634,416.162454 916.463949,416.151503 916.309893,416.228898 C916.155838,416.306293 916.054957,416.460203 916.045444,416.63236 C916.035932,416.804518 916.119241,416.968608 916.263832,417.062508 L921.40641,420.431174 L916.482316,423.655162 C916.285428,423.783917 916.210436,424.036136 916.304987,424.251565 C916.399538,424.466994 916.635931,424.582516 916.863967,424.52473 L916.864005,424.52472 Z" id="Path" fill="#4299F5" fill-rule="nonzero"></path>
                        <path d="M908.114678,424.928246 C908.30486,424.880095 908.446806,424.721348 908.473487,424.526967 C908.500169,424.332586 908.406248,424.141455 908.236076,424.043829 L903.129943,421.116053 L908.065206,417.449779 C908.203163,417.347256 908.275952,417.178912 908.256153,417.008162 C908.236354,416.837412 908.126975,416.690196 907.969219,416.62197 C907.811462,416.553743 907.629295,416.574871 907.491338,416.677395 L901.965819,420.782227 C901.835386,420.878909 901.762527,421.034876 901.772075,421.196965 C901.781623,421.359054 901.872291,421.505386 902.013173,421.586082 L907.756906,424.879154 C907.865267,424.941354 907.993571,424.95896 908.114678,424.928246 Z" id="Path" fill="#4299F5" fill-rule="nonzero"></path>
                        <path d="M914.313318,423.858241 C914.335951,423.852587 914.357571,423.843457 914.377407,423.831175 C914.430459,423.798968 914.46853,423.746985 914.483229,423.686683 C914.497929,423.62638 914.488051,423.562707 914.455773,423.509694 L910.640633,417.236528 C910.573272,417.126401 910.429471,417.091619 910.319237,417.15879 C910.209003,417.225962 910.173968,417.369717 910.240934,417.480084 L914.056074,423.753245 C914.109533,423.840862 914.213827,423.88343 914.313318,423.858241 L914.313318,423.858241 Z" id="Path" fill="#4299F5" fill-rule="nonzero"></path>
                        <rect id="Rectangle" fill="#4299F5" fill-rule="nonzero" x="429.15358" y="272.137621" width="48.8357269" height="10.444156" rx="3.26417"></rect>
                        <rect id="Rectangle" fill="#E6E6E6" fill-rule="nonzero" x="404.351581" y="293.025923" width="98.4397241" height="10.444156" rx="3.26417"></rect>
                        <rect id="Rectangle" fill="#E6E6E6" fill-rule="nonzero" x="404.351581" y="313.914226" width="98.4397241" height="10.444156" rx="3.26417"></rect>
                        <path d="M606.412612,397.491009 C563.244596,397.510689 527.990165,431.989765 527.016179,475.141267 C526.042192,518.292768 559.705045,554.327 602.828221,556.293886 C603.667097,556.338023 604.51459,556.364505 605.362083,556.364505 C605.715131,556.382159 606.059528,556.382159 606.412612,556.382159 C650.294813,556.382159 685.868366,520.813164 685.868366,476.936584 C685.868366,433.060005 650.294813,397.491009 606.412612,397.491009 L606.412612,397.491009 Z M646.690816,543.170782 C634.581266,550.567091 620.663439,554.472633 606.474161,554.456206 C605.831609,554.456206 605.197692,554.447351 604.555158,554.429745 C604.28224,554.429745 604.009467,554.420942 603.736837,554.403336 C565.289057,553.066811 533.64097,523.727018 529.398459,485.486924 C525.155948,447.24683 549.603293,411.682364 586.822972,401.949342 C624.042651,392.216319 662.767631,411.261092 677.784305,446.68372 C692.80098,482.106348 679.563545,523.183798 646.690816,543.170782 L646.690816,543.170782 Z" id="Shape" fill="#3F3D56" fill-rule="nonzero"></path>
                        <ellipse id="Oval" fill="#959595" cx="606.354937" cy="476.59409" rx="79.3593705" ry="79.3685369"></ellipse>
                        <path d="M751.335774,465.320023 C751.326145,467.005232 751.306888,469.364525 751.229859,472.282345 C751.22023,472.686795 751.210601,473.100875 751.200973,473.524584 C751.0758,478.888365 750.950628,483.385466 750.748426,488.383314 C750.738797,488.729986 750.729169,489.067028 750.709911,489.413699 C750.440309,496.385651 750.016648,504.503544 749.284871,517.359282 C747.92723,541.106287 745.558581,520.623773 743.180304,528.953521 C743.06476,529.367601 742.939587,529.85872 742.824043,530.436506 C742.463904,532.532855 741.856259,534.579047 741.013856,536.532148 C739.752503,537.28327 738.452634,538.005502 737.172023,538.727735 C733.522763,540.759615 729.815779,542.71441 726.079861,544.573003 C723.980757,545.613018 721.872139,546.633773 719.753835,547.616009 C719.416832,547.770086 719.089458,547.924162 718.762084,548.068608 C707.914584,553.086621 696.735048,557.353032 685.302509,560.837679 C683.068662,561.511763 680.844442,562.166587 678.591337,562.773262 C676.241946,563.428086 673.892554,564.044391 671.514276,564.622177 C653.821834,568.966159 635.717679,571.416264 617.507153,571.93117 C615.051846,572.008208 612.577282,572.037098 610.093089,572.037098 C608.860621,572.037098 607.647411,572.027468 606.414943,572.017838 C606.039426,572.017838 605.663908,572.008208 605.28839,571.998579 C604.200353,571.969689 603.0738,571.95043 601.937619,571.92154 C579.964005,571.236093 558.169395,567.731076 537.088631,561.492503 L536.193166,561.232499 C534.806639,560.80879 533.429742,560.39471 532.052844,559.95174 C525.697894,557.939119 519.436059,555.685754 513.267339,553.191644 C508.558927,551.29458 503.905078,549.259489 499.30579,547.086372 C499.263808,547.075013 499.224522,547.055368 499.190246,547.028594 C498.227381,546.585624 497.254887,546.123395 496.292021,545.651537 C496.166849,545.584129 496.032048,545.51672 495.897247,545.449312 C492.30572,543.696694 488.752746,541.860619 485.238326,539.941085 C482.282329,533.152052 478.12275,531.852081 475.542271,525.881626 C474.791237,524.107862 474.248407,522.252977 473.924657,520.35414 C473.924657,520.33488 473.915028,520.315621 473.915028,520.286731 C474.184631,523.869005 472.769218,513.931085 473.9054,520.248212 C473.895771,520.132655 473.886142,520.007468 473.876514,519.863022 C473.847628,519.51635 473.809171,519.09264 473.751399,518.563003 C470.448771,486.312915 470.660601,449.430908 469.225931,419.039365 C469.129606,417.074892 469.03011,415.193878 468.927443,413.396321 C468.898557,412.799276 468.860043,412.21186 468.82148,411.634074 C468.88888,411.460738 468.96591,411.277773 469.052567,411.104437 C469.071012,411.054511 469.093556,411.006198 469.119968,410.95999 C469.148363,410.900232 469.180523,410.842337 469.216255,410.786655 C469.235512,410.757765 469.264398,410.719246 469.283655,410.690357 C469.297729,410.657308 469.313807,410.625149 469.331798,410.594059 C469.418456,410.459243 469.514743,410.314796 469.620658,410.179979 C469.668801,410.122201 469.707316,410.074004 469.755459,410.025903 C469.788705,409.976703 469.827472,409.93147 469.871003,409.891086 C469.900547,409.844804 469.93617,409.802699 469.976918,409.765899 C470.015433,409.72738 470.053948,409.679231 470.102091,409.631131 C470.122678,409.600822 470.148814,409.574682 470.17912,409.554093 C470.255272,409.466585 470.33905,409.38602 470.429465,409.313348 C470.773003,408.997215 471.139937,408.707497 471.527132,408.446669 C471.661885,408.360002 471.806363,408.273334 471.941164,408.177036 C472.911527,407.59649 473.933265,407.106515 474.993447,406.713311 C475.359336,406.578495 475.725225,406.453308 476.12,406.318491 C476.26443,406.279972 476.399231,406.231823 476.543661,406.183674 C476.755491,406.116266 476.967321,406.048858 477.188781,406.000709 C478.286447,405.673297 479.470772,405.394033 480.751383,405.13403 C480.905441,405.10514 481.069128,405.076251 481.232815,405.037732 C481.463903,404.989583 481.704619,404.951064 481.945336,404.912545 C482.27271,404.854766 482.609713,404.796988 482.946716,404.739209 C485.806426,404.28661 489.051283,403.949568 492.633142,403.728084 C492.970145,403.708824 493.307148,403.689565 493.644151,403.670305 C494.038926,403.651046 494.433701,403.631786 494.838104,403.612527 C495.175107,403.593267 495.521739,403.583637 495.86837,403.574007 C496.205373,403.554748 496.552005,403.545118 496.908265,403.535488 C497.880759,403.506599 498.882139,403.47771 499.902777,403.45845 C502.81063,403.400672 505.872542,403.419931 509.088513,403.48734 C510.580954,403.525859 512.102282,403.564378 513.662124,403.631786 C513.768087,403.631786 513.864326,403.641416 513.960612,403.641416 C515.318252,403.689565 516.685521,403.747343 518.091305,403.824381 C519.073428,403.87253 520.065179,403.920679 521.056882,403.978458 C521.990862,404.036236 522.93447,404.094015 523.887707,404.161423 C524.629113,404.199942 525.37052,404.257721 526.121555,404.30587 C526.757046,404.354019 527.392537,404.402167 528.028028,404.440686 L528.894607,404.498465 C529.366411,404.536984 529.838215,404.565873 530.319648,404.614022 C531.3788,404.70069 532.437952,404.787358 533.516361,404.874026 C534.585142,404.970324 535.67318,405.066621 536.761218,405.162919 C537.849256,405.259217 538.946922,405.365144 540.044589,405.471072 C540.160133,405.480701 540.266048,405.490331 540.371963,405.499961 C541.373343,405.605936 542.374723,405.702186 543.385732,405.808113 C543.61682,405.827373 543.857536,405.846632 544.088624,405.875522 C545.052549,405.972378 546.035278,406.085759 547.008032,406.189144 C547.306578,406.221356 547.603535,406.252566 547.902958,406.285297 C548.66496,406.368287 549.416139,406.440231 550.183476,406.530336 C551.194484,406.645893 552.224808,406.751821 553.22613,406.886638 C554.006051,406.973306 554.785972,407.059973 555.565893,407.156271 C556.788733,407.300718 558.030829,407.454794 559.272925,407.6185 C559.744729,407.676278 560.216534,407.734057 560.688338,407.801465 C564.231682,408.244435 567.813542,408.735553 571.453173,409.24593 C576.970392,410.025942 582.574269,410.873361 588.216661,411.788189 C593.868739,412.703017 599.552855,413.669203 605.269008,414.686749 C606.713306,414.946752 608.157604,415.206756 609.611531,415.476389 C610.26628,415.601519 610.921028,415.72669 611.575777,415.851902 C612.692701,416.054127 613.809625,416.265982 614.926548,416.477837 C616.043472,416.689692 617.160396,416.901547 618.27732,417.123031 C619.606075,417.383035 620.944458,417.643039 622.273212,417.903043 C631.025659,419.636401 639.729905,421.485316 648.222436,423.420899 C649.618591,423.738633 651.014746,424.066093 652.401272,424.383876 C655.174324,425.02907 657.9217,425.683894 660.6434,426.348348 C661.394435,426.521684 662.135842,426.704649 662.877248,426.887615 C664.72595,427.349844 666.574651,427.812072 668.394467,428.283931 L668.712213,428.370599 C670.050596,428.698011 671.360093,429.035053 672.66959,429.381724 C675.760388,430.190625 678.799833,431.009155 681.787925,431.837315 C683.771428,432.386212 685.732464,432.941528 687.671033,433.503265 C690.569258,434.341054 693.409711,435.188474 696.173135,436.045523 C696.85677,436.257378 697.540404,436.469233 698.21441,436.671458 C700.236427,437.297393 702.229559,437.932957 704.164918,438.568522 C705.705503,439.06927 707.207573,439.579647 708.690386,440.090025 C710.173199,440.600403 711.627126,441.11078 713.052167,441.621158 C713.966889,441.94857 714.871982,442.295242 715.777076,442.622654 C717.076944,443.104142 718.357555,443.58563 719.60928,444.067119 C719.994426,444.211565 720.369944,444.365641 720.745462,444.510088 C720.986178,444.616015 721.217266,444.702683 721.448353,444.798981 C721.9009,444.981946 722.363075,445.155282 722.805994,445.338248 C723.25854,445.511584 723.701458,445.694549 724.144377,445.887144 C724.577666,446.06048 725.020584,446.243446 725.444245,446.426411 C725.877534,446.599747 726.301195,446.782713 726.724856,446.975308 C727.081116,447.119755 727.427748,447.273831 727.764751,447.427907 C728.448385,447.72643 729.13202,448.024953 729.796397,448.333105 C730.123771,448.487181 730.451145,448.631628 730.77852,448.785704 L731.529555,449.132376 C731.63547,449.190154 731.741385,449.238303 731.8473,449.286452 C732.088017,449.402009 732.338362,449.527196 732.579078,449.642753 C733.137492,449.902757 733.686373,450.18202 734.225578,450.442024 C734.947727,450.807955 735.650619,451.173886 736.324625,451.530188 C737.008259,451.896061 737.672636,452.26205 738.308127,452.618294 C738.414043,452.676072 738.510329,452.733909 738.616244,452.791687 C738.760674,452.868677 738.905104,452.955393 739.049534,453.032431 C739.540595,453.311695 740.012399,453.600588 740.484203,453.879793 C741.408554,454.447949 742.284762,455.006476 743.103197,455.565002 C743.286142,455.690189 743.459458,455.815376 743.642402,455.930933 C744.249007,456.364273 744.826726,456.787983 745.365931,457.221322 C745.365931,457.230952 745.365931,457.230952 745.37556,457.230952 C745.558504,457.365769 745.73182,457.510215 745.905136,457.645032 C746.049566,457.779849 746.203624,457.895406 746.348054,458.030222 C746.848744,458.463562 747.310919,458.877584 747.73458,459.301352 C747.876611,459.432126 748.011602,459.570347 748.138984,459.715432 C748.195042,459.761858 748.246621,459.813443 748.293042,459.869508 C748.485615,460.062103 748.658931,460.254699 748.822618,460.447294 C748.848013,460.473782 748.8706,460.502825 748.890019,460.533962 C749.121106,460.803595 749.332937,461.073229 749.535139,461.342862 C749.631425,461.477679 749.73734,461.612496 749.823998,461.747312 C749.939542,461.911018 750.055086,462.084354 750.151372,462.24806 C750.23803,462.382877 750.31506,462.527324 750.392089,462.662198 C750.596433,463.009237 750.770397,463.373295 750.912036,463.750304 C751.020258,464.00592 751.107211,464.270029 751.17201,464.539945 C751.244964,464.795773 751.299689,465.056453 751.335774,465.320023 L751.335774,465.320023 Z" id="Path" fill="#2F2E41" fill-rule="nonzero"></path>
                        <path d="M751.335774,465.320023 C751.326145,467.005232 751.306888,469.364525 751.229859,472.282345 C751.22023,472.686795 751.200973,473.100875 751.191344,473.524584 C751.095058,477.617235 750.950628,482.672863 750.748426,488.383314 C750.738797,488.729986 750.729169,489.067028 750.709911,489.413699 C750.440309,496.385651 750.016648,504.503544 749.284871,517.359282 C747.92723,541.106287 745.558581,520.623773 743.180304,528.953521 C736.575047,524.88976 729.334298,520.633403 721.59286,516.261489 C720.196705,515.471848 718.787712,514.678997 717.365881,513.882937 C701.883004,505.245036 684.589941,496.192997 666.536214,487.227742 C665.823693,486.871441 665.101544,486.51514 664.389024,486.168468 C623.033953,465.724473 577.89482,445.839005 541.32519,432.569187 C534.267387,430.007669 527.527329,427.696525 521.191674,425.664596 C507.846359,421.398609 496.311231,418.413382 487.433611,417.122993 C478.190103,415.774826 471.806305,416.256314 469.225825,419.039316 C469.1295,417.074844 469.030004,415.19383 468.927337,413.396273 C468.888784,412.799228 468.850269,412.211812 468.811793,411.634026 C468.871212,411.475501 468.948434,411.324217 469.02319,411.171633 C469.033888,411.14936 469.041485,411.126373 469.05251,411.104398 C469.070955,411.054473 469.093498,411.006159 469.11991,410.959952 C469.148305,410.900193 469.180465,410.842298 469.216197,410.786616 C469.247509,410.718362 469.286259,410.653772 469.331741,410.594021 C469.418399,410.459204 469.514685,410.314757 469.6206,410.179941 C469.698487,410.078944 469.782071,409.982474 469.870945,409.891 C469.900489,409.844718 469.936112,409.802613 469.976861,409.765813 C470.015375,409.727294 470.05389,409.679145 470.102033,409.631044 C470.12262,409.600735 470.148757,409.574596 470.179062,409.554006 C470.255214,409.466499 470.338992,409.385934 470.429407,409.313262 C470.772945,408.997128 471.139879,408.707411 471.527074,408.446583 C471.661827,408.359915 471.806305,408.273247 471.941106,408.176949 C472.911469,407.596404 473.933208,407.106428 474.99339,406.713225 C475.359278,406.578408 475.725167,406.453221 476.119942,406.318404 C476.264372,406.279885 476.399173,406.231736 476.543603,406.183588 C476.755433,406.116179 476.967264,406.048771 477.188723,406.000622 C478.286389,405.67321 479.470714,405.393947 480.751325,405.133943 C481.136471,405.056905 481.540875,404.979867 481.945278,404.912458 C482.272652,404.85468 482.609655,404.796901 482.946658,404.739123 C485.806369,404.286524 489.051225,403.949482 492.633085,403.727997 C492.970087,403.708738 493.30709,403.689478 493.644093,403.670218 C494.038868,403.650959 494.433643,403.631699 494.838046,403.61244 C495.175049,403.59318 495.521681,403.583551 495.868312,403.573921 C496.205315,403.554661 496.551947,403.545032 496.908207,403.535402 C497.880701,403.506512 498.882081,403.477623 499.902719,403.458364 C502.810572,403.410215 505.872485,403.429474 509.088455,403.496883 C510.580897,403.525772 512.102224,403.573921 513.662066,403.641329 C513.758353,403.641329 513.864268,403.650959 513.960554,403.650959 C515.318195,403.689478 516.695092,403.756886 518.091247,403.824295 C519.07337,403.872444 520.065121,403.920592 521.056825,403.978371 C521.990804,404.03615 522.934412,404.093928 523.887649,404.161337 C524.629055,404.199856 525.370462,404.257634 526.121497,404.305783 C526.756988,404.353932 527.392479,404.402081 528.02797,404.4406 C528.788634,404.498378 529.549298,404.556157 530.31959,404.613936 C531.378742,404.700604 532.437894,404.787271 533.516303,404.873939 C534.585084,404.970237 535.673122,405.066535 536.76116,405.162832 C537.849198,405.25913 538.946865,405.365057 540.044531,405.470985 C540.160075,405.480615 540.26599,405.490244 540.371905,405.499874 C541.373286,405.60585 542.374666,405.702099 543.385674,405.808027 C548.989551,406.376183 554.757115,407.040637 560.688367,407.801388 C564.231711,408.253987 567.81999,408.738686 571.453202,409.255483 C576.970421,410.035494 582.574298,410.882914 588.21669,411.788112 C593.868768,412.70294 599.552883,413.669126 605.269037,414.686672 C606.713335,414.946675 608.157633,415.206679 609.61156,415.476312 C611.383233,415.803686 613.154905,416.137518 614.926577,416.477808 C616.043501,416.689663 617.160425,416.901518 618.277349,417.123003 C619.606103,417.383006 620.944486,417.64301 622.273241,417.903014 C631.025688,419.636372 639.729934,421.485287 648.222465,423.42087 C649.61862,423.738604 651.014774,424.066064 652.401301,424.383847 C655.174353,425.029041 657.921729,425.683865 660.643429,426.348319 C661.394464,426.531285 662.13587,426.71425 662.877277,426.897216 C664.735607,427.359445 666.57468,427.821673 668.394496,428.283902 L668.394496,428.293532 C668.500411,428.312791 668.606326,428.341681 668.712241,428.37057 C670.040996,428.707612 671.360121,429.044654 672.669618,429.391325 C675.760417,430.200226 678.799862,431.015546 681.787954,431.837286 C683.771457,432.395764 685.735703,432.944709 687.671062,433.503236 C690.569287,434.350655 693.40974,435.198075 696.173164,436.045494 C696.856799,436.257349 697.540433,436.469204 698.214439,436.671429 C700.236456,437.306993 702.219959,437.939348 704.164947,438.568493 C705.705532,439.069241 707.207602,439.579618 708.690415,440.089996 C710.173228,440.600374 711.627155,441.110751 713.052195,441.621129 C713.976546,441.948541 714.88164,442.285583 715.777105,442.612995 C717.086602,443.094483 718.357584,443.575972 719.609309,444.06709 C719.994455,444.211536 720.369973,444.365612 720.74549,444.510059 C721.448382,444.779692 722.132017,445.058956 722.806022,445.338219 C723.258569,445.511555 723.701487,445.69452 724.144405,445.887116 C724.577695,446.060451 725.020613,446.243417 725.444274,446.426383 C725.877563,446.599718 726.301224,446.782684 726.724885,446.975279 C727.081145,447.119726 727.427777,447.273802 727.76478,447.427878 C728.448414,447.726401 729.132048,448.024924 729.796426,448.333076 C730.1238,448.487153 730.451174,448.631599 730.778548,448.785675 L731.529583,449.132347 C731.635499,449.190126 731.741414,449.238274 731.847329,449.286423 C732.665765,449.671614 733.455314,450.056805 734.225607,450.441995 C734.947756,450.807926 735.650648,451.173858 736.324653,451.530159 C737.123832,451.953811 737.884495,452.367949 738.616273,452.791658 C738.760703,452.868648 738.905133,452.955364 739.049563,453.032402 C739.540624,453.311666 740.012428,453.600559 740.484232,453.879764 C741.408583,454.44792 742.284791,455.006447 743.103226,455.564973 C743.912033,456.1235 744.663068,456.672396 745.36596,457.221293 C745.36596,457.230923 745.36596,457.230923 745.375589,457.230923 C745.712592,457.500556 746.039966,457.77019 746.348083,458.030194 C746.848773,458.463533 747.310948,458.877555 747.734609,459.301323 C747.87664,459.432097 748.011631,459.570318 748.139012,459.715403 C748.195071,459.761829 748.24665,459.813414 748.293071,459.869479 C748.495273,460.090964 748.697474,460.312448 748.890105,460.533933 C749.121193,460.803566 749.333023,461.0732 749.535225,461.342833 C749.631512,461.47765 749.737427,461.612467 749.824085,461.747284 C749.939629,461.91099 750.055173,462.084325 750.151459,462.248031 C750.238117,462.382848 750.315146,462.527295 750.392175,462.662169 C750.59652,463.009208 750.770483,463.373266 750.912123,463.750275 C751.017462,464.006965 751.104341,464.270849 751.172096,464.539916 C751.245022,464.795756 751.299719,465.056445 751.335774,465.320023 L751.335774,465.320023 Z" id="Path" fill="#3F3D56"></path>
                    </g>
                    <path d="M676.549165,293.201776 C675.886802,293.1053 675.215386,293.043906 674.544412,293.000054 C682.171337,310.455944 682.699845,330.165794 676.019204,348.000054 C676.690628,347.921119 677.352992,347.815872 678.015355,347.693085 C691.372005,345.122907 700.897766,333.336718 700.534358,319.830407 C700.17095,306.324096 690.024983,295.059922 676.549183,293.201776 L676.549165,293.201776 Z" id="Path" fill="#959595" fill-rule="nonzero"></path>
                    <path d="M538.544412,293.000054 C537.873412,293.043906 537.202006,293.1053 536.539643,293.201776 C523.063845,295.059901 512.917871,306.324084 512.554465,319.83041 C512.19106,333.336736 521.716832,345.122931 535.073482,347.693085 C535.735845,347.815872 536.398207,347.921119 537.069622,348.000054 C530.388991,330.165794 530.917498,310.455944 538.544412,293.000054 L538.544412,293.000054 Z" id="Path" fill="#959595" fill-rule="nonzero"></path>
                    <path d="M677.611479,292.968674 C662.429917,256.703685 622.228359,237.852139 584.637598,249.370825 C547.046836,260.889511 524.309743,299.02693 532.05367,337.570983 C539.797598,376.115037 575.500439,402.512379 614.623399,398.619944 C653.746359,394.727508 683.547547,361.813017 683.544412,322.498813 C683.540812,312.359798 681.524185,302.322384 677.611479,292.968674 L677.611479,292.968674 Z M676.928989,348.489574 C663.467621,384.673363 624.608955,404.595833 587.369723,394.405761 C550.130491,384.215688 526.830787,347.284321 533.669878,309.288425 C540.508969,271.292529 575.224235,244.802531 613.679667,248.235769 C652.135099,251.669007 681.607703,283.889641 681.607703,322.496072 C681.604907,331.369727 680.020564,340.171864 676.928989,348.48961 L676.928989,348.489574 Z" id="Shape" fill="#C7C5DA" fill-rule="nonzero"></path>
                    <circle id="Oval" fill="#C6C6C6" fill-rule="nonzero" cx="607.044412" cy="322.500054" r="76.5"></circle>
                    <path d="M646.036281,305.000054 L568.052542,305.000054 C559.487638,305.000054 552.544412,311.93964 552.544412,320.500054 C552.544412,329.060467 559.487638,336.000054 568.052542,336.000054 L646.036281,336.000054 C654.601185,336.000054 661.544412,329.060467 661.544412,320.500054 C661.544412,311.93964 654.601185,305.000054 646.036281,305.000054 L646.036281,305.000054 Z" id="Path" fill="#959595" fill-rule="nonzero"></path>
                </g>
            </g>
        </g>
    </g>
</svg>