
<svg xmlns="http://www.w3.org/2000/svg" width="626.667" height="545.56"><path d="M626.667 545.56H0V.005h626.667V545.56" fill="#fff"/><path d="M155.024 443.656h-1.805l-6.896-24.235c-.574-1.992-1.004-3.625-1.29-4.898a61.858 61.858 0 01-.977 4.297c-.423 1.617-2.733 9.896-6.928 24.836h-1.85l-8.635-31.412h2.299l5.5 20.24c.214.815.415 1.57.6 2.266.187.695.355 1.346.506 1.955.15.61.287 1.195.408 1.76.123.568.233 1.136.333 1.709.344-1.947 1.074-4.904 2.191-8.873l5.372-19.057h2.427l6.296 21.872c.73 2.521 1.252 4.556 1.568 6.103.185-1.032.426-2.128.718-3.287.295-1.162 2.503-9.39 6.628-24.688h2.214l-8.679 31.412M166.95 431.948c0 3.208.705 5.71 2.117 7.507 1.409 1.797 3.405 2.696 5.982 2.696 2.579 0 4.574-.899 5.983-2.696 1.412-1.797 2.116-4.3 2.116-7.507 0-3.224-.712-5.724-2.136-7.5-1.427-1.776-3.428-2.665-6.005-2.665-2.579 0-4.566.886-5.963 2.654-1.396 1.768-2.093 4.274-2.093 7.511zm18.433 0c0 3.81-.923 6.783-2.771 8.924-1.848 2.143-4.397 3.213-7.648 3.213-2.048 0-3.853-.494-5.415-1.481-1.561-.99-2.757-2.407-3.588-4.256-.83-1.845-1.245-3.981-1.245-6.4 0-3.81.923-6.779 2.77-8.907 1.849-2.128 4.383-3.19 7.606-3.19 3.21 0 5.725 1.078 7.552 3.232 1.827 2.156 2.739 5.112 2.739 8.865M218.825 443.656v-15.317c0-2.279-.444-3.942-1.332-4.986-.888-1.046-2.248-1.57-4.081-1.57-2.392 0-4.161.66-5.308 1.977-1.145 1.317-1.719 3.388-1.719 6.21v13.686h-2.169v-15.964c0-3.937-1.804-5.91-5.413-5.91-2.45 0-4.232.715-5.35 2.14-1.117 1.423-1.677 3.705-1.677 6.843v12.89h-2.127v-23.354h1.763l.45 3.202h.13a6.69 6.69 0 012.75-2.696c1.187-.638 2.5-.956 3.931-.956 3.682 0 6.044 1.382 7.09 4.146h.086c.759-1.33 1.78-2.357 3.062-3.073 1.282-.716 2.738-1.073 4.372-1.073 2.549 0 4.461.68 5.736 2.042 1.274 1.36 1.912 3.523 1.912 6.487v15.276h-2.106M235.103 421.741c-2.248 0-4.054.74-5.414 2.224-1.361 1.483-2.157 3.62-2.385 6.412h14.437c0-2.705-.588-4.822-1.761-6.349-1.175-1.523-2.8-2.287-4.877-2.287zm.622 22.344c-3.393 0-6.04-1.046-7.937-3.137-1.899-2.092-2.847-5.019-2.847-8.786 0-3.725.916-6.707 2.751-8.949 1.832-2.243 4.303-3.362 7.41-3.362 2.751 0 4.92.958 6.511 2.877 1.588 1.92 2.384 4.527 2.384 7.821v1.719h-16.821c.027 3.208.776 5.659 2.244 7.348 1.468 1.69 3.57 2.535 6.305 2.535 1.334 0 2.504-.091 3.514-.279 1.01-.185 2.289-.587 3.836-1.203v1.935c-1.32.572-2.538.96-3.655 1.17-1.116.207-2.348.311-3.695.311M264.968 443.656v-15.147c0-2.347-.496-4.057-1.483-5.124-.989-1.068-2.521-1.602-4.598-1.602-2.792 0-4.838.706-6.134 2.117-1.296 1.412-1.945 3.699-1.945 6.865v12.89h-2.125v-23.354h1.804l.408 3.202h.13c1.516-2.436 4.218-3.652 8.099-3.652 5.299 0 7.95 2.844 7.95 8.529v15.276h-2.106M292.148 443.656h-2.213v-29.35H279.73v-2.062h22.624v2.063h-10.207v29.349M312.647 421.741c-2.248 0-4.054.74-5.414 2.224-1.361 1.483-2.156 3.62-2.385 6.412h14.436c0-2.705-.585-4.822-1.76-6.349-1.175-1.523-2.8-2.287-4.877-2.287zm.622 22.344c-3.393 0-6.04-1.046-7.937-3.137-1.899-2.092-2.847-5.019-2.847-8.786 0-3.725.916-6.707 2.751-8.949 1.832-2.243 4.303-3.362 7.41-3.362 2.751 0 4.92.958 6.511 2.877 1.588 1.92 2.386 4.527 2.386 7.821v1.719H304.72c.028 3.208.776 5.659 2.245 7.348 1.467 1.69 3.568 2.535 6.304 2.535 1.334 0 2.506-.091 3.512-.279 1.011-.185 2.29-.587 3.836-1.203v1.935c-1.317.572-2.536.96-3.653 1.17-1.117.207-2.348.311-3.695.311M335.99 444.085c-3.335 0-5.95-1.052-7.84-3.158-1.891-2.104-2.837-5.042-2.837-8.808 0-3.867.982-6.88 2.943-9.036 1.964-2.154 4.648-3.232 8.057-3.232 2.019 0 3.954.352 5.799 1.052l-.577 1.89c-2.022-.672-3.776-1.01-5.266-1.01-2.865 0-5.034.886-6.508 2.654-1.477 1.768-2.213 4.315-2.213 7.638 0 3.152.736 5.617 2.213 7.401 1.474 1.784 3.536 2.675 6.187 2.675 2.12 0 4.09-.377 5.907-1.139v1.977c-1.49.732-3.443 1.096-5.864 1.096M363.415 443.656v-15.147c0-2.347-.495-4.057-1.482-5.124-.989-1.068-2.521-1.602-4.6-1.602-2.79 0-4.834.706-6.132 2.117-1.297 1.412-1.945 3.699-1.945 6.865v12.89h-2.125v-33.428h2.125v10.635l-.107 2.983h.151c.872-1.402 1.977-2.418 3.308-3.049 1.333-.63 2.987-.945 4.963-.945 5.3 0 7.95 2.844 7.95 8.529v15.276h-2.106M400.5 443.656v-15.317c0-2.279-.444-3.942-1.333-4.986-.888-1.046-2.247-1.57-4.08-1.57-2.394 0-4.162.66-5.308 1.977-1.146 1.317-1.719 3.388-1.719 6.21v13.686h-2.17v-15.964c0-3.937-1.803-5.91-5.413-5.91-2.45 0-4.232.715-5.349 2.14-1.117 1.423-1.677 3.705-1.677 6.843v12.89h-2.127v-23.354h1.763l.45 3.202h.13a6.69 6.69 0 012.75-2.696c1.188-.638 2.498-.956 3.93-.956 3.682 0 6.044 1.382 7.092 4.146h.085c.757-1.33 1.779-2.357 3.06-3.073 1.284-.716 2.74-1.073 4.372-1.073 2.55 0 4.461.68 5.737 2.042 1.274 1.36 1.912 3.523 1.912 6.487v15.276H400.5M413.993 442.15c2.492 0 4.458-.71 5.898-2.138 1.441-1.424 2.16-3.403 2.16-5.94v-2.296l-4.082.172c-3.281.156-5.62.668-7.016 1.533-1.396.867-2.093 2.22-2.093 4.052 0 1.462.445 2.594 1.341 3.404.896.81 2.159 1.214 3.792 1.214zm8.594 1.506l-.536-3.696h-.172c-1.175 1.503-2.38 2.568-3.62 3.19-1.24.624-2.703.935-4.394.935-2.292 0-4.076-.588-5.349-1.762-1.276-1.175-1.913-2.8-1.913-4.875 0-2.279.95-4.048 2.845-5.308 1.899-1.26 4.647-1.927 8.24-1.997l4.448-.13v-1.548c0-2.219-.45-3.896-1.355-5.025-.9-1.133-2.356-1.699-4.358-1.699-2.164 0-4.407.602-6.727 1.805l-.795-1.849c2.563-1.202 5.099-1.804 7.607-1.804 2.563 0 4.48.667 5.745 2 1.268 1.331 1.904 3.408 1.904 6.228v15.535h-1.57M432.483 433.408l11.924-13.107h2.578l-9.196 9.97 9.99 13.385h-2.556l-8.874-11.794-3.825 3.478v8.316h-2.125v-33.43h2.125v16.758l-.148 6.424h.107M458.737 421.741c-2.246 0-4.052.74-5.413 2.224-1.36 1.483-2.157 3.62-2.385 6.412h14.437c0-2.705-.587-4.822-1.761-6.349-1.174-1.523-2.799-2.287-4.878-2.287zm.623 22.344c-3.393 0-6.039-1.046-7.937-3.137-1.899-2.092-2.847-5.019-2.847-8.786 0-3.725.917-6.707 2.75-8.949 1.834-2.243 4.305-3.362 7.411-3.362 2.751 0 4.92.958 6.511 2.877 1.588 1.92 2.385 4.527 2.385 7.821v1.719h-16.822c.028 3.208.776 5.659 2.245 7.348 1.468 1.69 3.57 2.535 6.304 2.535 1.333 0 2.505-.091 3.513-.279 1.011-.185 2.29-.587 3.836-1.203v1.935c-1.318.572-2.537.96-3.653 1.17-1.117.207-2.35.311-3.696.311M481.953 419.85c.988 0 2.047.1 3.18.3l-.409 2.042a12.505 12.505 0 00-3.028-.364c-1.992 0-3.625.844-4.899 2.534-1.276 1.69-1.913 3.825-1.913 6.403v12.89h-2.125v-23.354h1.804l.214 4.211h.151c.959-1.719 1.984-2.924 3.072-3.619 1.09-.696 2.407-1.042 3.953-1.042M503.043 437.575c0 2.092-.795 3.699-2.386 4.822-1.589 1.126-3.846 1.688-6.768 1.688-3.122 0-5.6-.478-7.433-1.44v-2.3a16.406 16.406 0 007.433 1.764c2.307 0 4.056-.382 5.252-1.152 1.198-.765 1.795-1.785 1.795-3.06 0-1.173-.477-2.164-1.428-2.965-.952-.803-2.517-1.59-4.695-2.363-2.336-.845-3.974-1.572-4.92-2.18-.945-.608-1.658-1.296-2.137-2.064-.479-.765-.719-1.701-.719-2.802 0-1.747.732-3.13 2.2-4.146 1.47-1.019 3.522-1.526 6.156-1.526 2.522 0 4.912.472 7.175 1.417l-.793 1.935c-2.292-.946-4.42-1.42-6.382-1.42-1.905 0-3.416.316-4.533.945-1.117.63-1.675 1.505-1.675 2.623 0 1.216.432 2.19 1.3 2.923.864.729 2.56 1.546 5.08 2.447 2.104.76 3.639 1.443 4.598 2.053.96.608 1.678 1.298 2.158 2.071.482.774.722 1.686.722 2.73" fill="#666"/><path d="M264.517 313.159h-50.2V150.16h50.2v162.999" fill="#4285f4"/><path d="M415.016 313.159h-50.5V150.16h50.5v162.999" fill="#00bfa5"/><path d="M364.816 313.159h50.2l-75.093-138.306h-50.2l75.093 138.306" fill="#1ce9b6"/><path d="M264.517 313.159h-50.201l75.095-138.306h50.2L264.517 313.16" fill="#4fc3f7"/><path d="M184.799 337.893v-211.89h54.948V93.895h-74.444c-6.966 0-12.667 5.701-12.667 12.666v248.866c0 6.966 5.701 14 12.667 14h74.444v-31.534h-54.948" fill="#4285f4"/><path d="M444.535 337.893v-211.89h-54.948V93.895h74.445c6.964 0 12.665 5.701 12.665 12.666v248.866c0 6.966-5.701 14-12.665 14h-74.445v-31.534h54.948" fill="#00bfa5"/></svg>
