<svg viewBox="0 0 577 854" xmlns="http://www.w3.org/2000/svg" fill-rule="evenodd" clip-rule="evenodd" stroke-linejoin="round" stroke-miterlimit="1.41421"><path d="M260.98 702.59c-.8.49-6.22 4.13-6.22 12.64 0 8.51 9.1 13.44 10.14 14a76.6 76.6 0 0 1 10.22.67c-6.49-7.79-5.26-23.36-5.07-25.37-1.33-1.67-6.84-1.96-9.07-1.94zm62.76-228.69c1.54 1.26 6.08 1.89 13.51 1.89 2.82 0 4.65.09 5.75.16-2.07-2.06-7.31-6.76-11.95-6.76a7.713 7.713 0 0 0-7.31 4.71z" fill="#fff" fill-rule="nonzero"/><path d="M576.68 479.38V454.7l-.2.1v24.58h.2zm-22.82-109.99c-6.67.4-14.31-.27-20.2 4 7.65-1 8.91 3.35 15.13 6.11 7.55 3.35 14.91-2.9 22.52.11a25.132 25.132 0 0 1 5.37 2.94v-19.94a12.656 12.656 0 0 0-11 1.39c-5.06 3.25-5.48 5-11.82 5.39zM297.79 166l123.86 43.4v123L314.59 348l14.83 18.8c9.53-6.596 22.766-4.36 29.6 5h.67c3.034.003 6.033.647 8.8 1.89 4.82-2.76 9.92-4.8 16-4.1 10.5 1.21 20 6.95 29.89 10.56a24.838 24.838 0 0 1-.3-3.88c.014-13.319 10.489-24.486 23.78-25.35a33.487 33.487 0 0 1-3.66-15.22c0-18.367 15.114-33.48 33.48-33.48h.06c3.306 0 6.595.485 9.76 1.44-2.54-13.87 1.32-33.21 36.76-33.21 1.37 0 2.83 0 4.32.14a10.212 10.212 0 0 1 9.68-7h.16c1.53-17.225 16.136-30.59 33.428-30.59 5.14 0 10.211 1.18 14.822 3.45v-186L375.36 0 14.96 69v185A206.04 206.04 0 0 1 .23 272.27a.491.491 0 0 0 .343.84H.59a.532.532 0 0 0 .37-.15 228.03 228.03 0 0 0 26.89-36.8c13.07-22.27 19.76-31.89 33.5-37.41 14.6-5.86 48.23-29.43 62-39.29a15.011 15.011 0 0 1 13.3-2.05l13.52 4.35c-8.89 5-40 20.11-50 23-.26.06-26.1 6.19-35.22 24.66-3.85 7.79-40.37 41.61-40.73 41.95a.5.5 0 0 0 0 .71c.097.101.23.159.37.16a.51.51 0 0 0 .33-.13c1.51-1.4 37-34.29 41-42.25 8.92-18 34.3-24.06 34.58-24.13 10.54-3.08 43.91-19.39 51.24-23.72a13.505 13.505 0 0 1 9.87-1.54c8.5 1.92 23.93 5.11 32.17 5.11h.18c9.71 0 18.21 2.58 25.15 7.83 4.37 3.3 11.23 5.91 14.92 7.16a2.314 2.314 0 0 1 1.57 2c.214 1.942.294 3.897.24 5.85l1-.37L297.79 166z" fill="#1580f2" fill-rule="nonzero"/><path d="M14.96 450.13C29.3 437 43.77 419.66 69.88 419.66c14.58 0 25.89 5.63 55.47 19.75 17.91 8.55 33.5 7.17 38.28 7.17 4.48 0 10.48 3.25 21.74 8.81l95.1-106.83-83.25-9c1.65-.23 3.31-.42 5-.53 4.827-.299 9.667-.356 14.5-.17a79.28 79.28 0 0 0 34.77-6.95c6.26-2.81 10.68-4.37 12.77-4.51a38.905 38.905 0 0 0 12.12-3 16.678 16.678 0 0 0 10.3-9.33 19.527 19.527 0 0 0 1.13-3.45c1.56-6.84-.4-14.43-3.21-17.22a12.68 12.68 0 0 0-1.56-1.3.448.448 0 0 0-.19-.14c-13.18-9.38-53.24-8.81-63.79-8.09-4.62.31-8.1 1.54-12.13 3a69.995 69.995 0 0 1-20.81 4.53 63.342 63.342 0 0 1-24.92-2.84v-52.98c-2.05-.2-3.62-.35-4.27-.4a.502.502 0 0 0-.51-.18c-6.22 1.25-15.66-.12-17.9-.47.51-3.15 1.19-6.48 2.07-10 0-.08 1.72-7.44 14.94-15.25h.1a62.946 62.946 0 0 0 12.64 2.2.392.392 0 0 0 .17.11l.39.17 1.4-.51 3-1.08c-5 1.16-13.75-.92-16.47-1.63.65-.36 1.32-.73 2-1.09a57.028 57.028 0 0 0 11.42-9.39c.55 0 1.8.09 3.55.09a62.159 62.159 0 0 0 15.38-1.78l2.65.69c2.89.77 6.54 1.74 10.5 2.57l1.8-.65c-4.56-.9-8.79-2-12-2.88l-1.06-.28a19.495 19.495 0 0 0 8.71-5.21.505.505 0 0 0-.76-.66c-6.44 7.38-23.46 7.29-27.87 7.14a25.19 25.19 0 0 0 5.88-10.87.522.522 0 0 0-.39-.6.501.501 0 0 0-.59.39c-2.36 11.27-17.54 20.49-17.67 20.57-16.63 8.66-18.57 17.33-18.64 17.68-.93 3.7-1.63 7.2-2.15 10.5v.06a93.179 93.179 0 0 0-1.26 18.18.478.478 0 0 0-.06.24.49.49 0 0 0 .08.24c.49 10.81 3.1 18 5 21.94-.5-.56-1-1.11-1.41-1.67a50.324 50.324 0 0 1-9.86-20.12.51.51 0 0 0-1 .18 51.553 51.553 0 0 0 10 20.54 48.928 48.928 0 0 0 4.41 4.65l.08.06c8.17 7.67 21.52 14.69 42.69 13.24a70.796 70.796 0 0 0 21.07-4.59c4-1.39 7.38-2.6 11.87-2.91 9.51-.65 47.6-1.17 61.73 7-5.67-.1-21.34.11-22.6 5.36a.855.855 0 0 0 0 .16c.08.87 2 21.37 6.28 24.68.386.327.874.511 1.38.52.116.01.233.01.35 0 3.62-.63 9.36-1 12.37-1.22-.846.441-1.721.822-2.62 1.14a39.212 39.212 0 0 1-11.81 2.92c-2.25.15-6.66 1.7-13.12 4.59a78.172 78.172 0 0 1-34.33 6.87c-5.42-.18-10.34-.12-14.6.17-17.15 1.17-32.78 9.21-37.17 11.65-3.33 1.85-8.17 3.12-13.29 4.45-6.95 1.82-14.15 3.7-19.39 7.35-31.12 21.65-65.15 29.19-80.35 30.22-13.37.92-48.13 16.15-51.35 17.57l-.2.08a.51.51 0 0 0 .2 1 .45.45 0 0 0 .2 0c.15-.07 6.15-2.72 14.17-5.94v75.05l-.02-29.29zm123.39-213.65c3.886.624 7.814.959 11.75 1a40 40 0 0 0 2.7-.09c.2 4.45-.94 8.11-3.43 10.86-4 4.39-10.24 5.28-12.12 5.46a91.764 91.764 0 0 1 1.1-17.23zm127.73 86.09a1.17 1.17 0 0 1-1-.29c-3.28-2.52-5.35-18-5.88-23.9 1.21-4.33 17-4.7 23.21-4.46.506.36.984.757 1.43 1.19 2.56 2.55 4.4 9.87 2.93 16.29a16.1 16.1 0 0 1-6.39 9.83c-1.12.06-9.53.52-14.3 1.34z" fill="#1580f2" fill-rule="nonzero"/><path d="M576.68 790.48v-.79c-.22.34-.45.67-.67 1l.67-.21zM255.02 507.72l-108.31-8.91 17.3-19.43h-149v96.83h180.81a106.806 106.806 0 0 1 59.2-68.49z" fill="#9eb1db" fill-rule="nonzero"/><path d="M239.68 695.1c.58 1-1.58 2.36-1.58 2.36l-.15 3.77c.084-.328.137-.662.16-1a4.27 4.27 0 0 0 0 .48l-.05.92 18.74 3.64c.436-.603.917-1.171 1.44-1.7a106.224 106.224 0 0 1-19.38-10.35c.219.649.494 1.278.82 1.88zm-54.99-6.19c-.94-.1-1.17-.53-2.24-.94-1.56-.6-1.84-.12-2.36-.5v-2.18a87.421 87.421 0 0 1 .06-12.64c.338-.867.56-1.775.66-2.7a2.058 2.058 0 0 1 .69-1.53l-.1-2.73 2.58-.79-.65-.65 1.16-1.08.16-.51h-.88c-.88 0-.86-1.83-.86-1.83-.43-.25 0-.66.15-.72a.348.348 0 0 0 .08-.5c-.16-.18.2-1.26.28-1.59.08-.33.44-1.15 2.2-1.35h.77c2.1 0 2.42 1.34 2.59 3.35 0 .32.05.65.08 1 .054.713.213 1.413.47 2.08.13.34.27.65.41.93.14.28.19.36.28.53.239.369.405.779.49 1.21.029.192.029.388 0 .58v.05a4.91 4.91 0 0 1-.17.57 7.349 7.349 0 0 1-.36.83c-.137.269 0 5.42.06 6 .025.472-.005.945-.09 1.41v.08l.76 10.89-.06.09a2.91 2.91 0 0 1-.21.26l-.21.23-.16.15c-.096.104-.2.201-.31.29l-.26.21a6.22 6.22 0 0 1-1.2.77c.198 1.243.255 2.504.17 3.76l41.68 8.09c-.08-1.46-.15-2.36-.15-2.36-2.27-.29-1.76-3.21-1.76-3.21l.36-4.5c-1.77 0-2-4-1.47-5.9-30.09-27.023-42.295-68.949-31.41-107.9H14.96v82.1l170.16 33-.43-2.35zm-21.06-242.33c-4.78 0-20.37 1.38-38.28-7.17-29.58-14.12-40.93-19.75-55.47-19.75-26.11 0-40.58 17.33-54.92 30.47v29.25h149.05l21.36-24c-11.26-5.55-17.26-8.8-21.74-8.8zm412.85 32.8v-25.65c-2.52-3.73-3.31-7.27-5-10-3.91-6.3-20.67-27.57-33.5-30.18-12.83-2.61-22.4-9.79-27.62-14.35-5.22-4.56-17.22-6-21.57-6-19.15 0-43.69 24.42-62 24.42-10.44 0-30.4-2.82-56.28.34l49.45 61.35 156.52.07z" fill="#453b69" fill-rule="nonzero"/><path d="M273.09 581.2c.031 52.912 39.035 98.361 91.33 106.42 15.29-10.2 23.35-28.49 23.35-46.06 0-3.6-1.27-11.19-2.62-19.22-1.62-9.71-3.3-19.75-3.3-25.54 0-10.25-22.26-47.5-23.3-49.24-.2-.18-.9-.86-2-2a220.093 220.093 0 0 0-83.47 32.73c.02.95.01 1.93.01 2.91z" fill="#f37a78" fill-rule="nonzero"/><path d="M421.65 332.4l-123.23-19.25-11.71 1.92a16.68 16.68 0 0 1-10.29 9.33 38.905 38.905 0 0 1-12.12 3c-2.09.14-6.51 1.7-12.77 4.51a79.28 79.28 0 0 1-34.77 6.95 144.601 144.601 0 0 0-14.5.17c-1.68.11-3.34.3-5 .53l83.25 9-95.09 106.83-21.36 24-17.3 19.43 108.31 8.91c-38.324 17.055-63.133 55.251-63.133 97.199a106.439 106.439 0 0 0 35.343 79.191c-.49 1.95-.3 5.9 1.47 5.9l-.36 4.5s-.51 2.92 1.76 3.21c0 0 .07.9.15 2.36.16 2.72.41 7.37.5 11.7l-.71 4.45-.2 1.29s.16.58 1.55.77a1.482 1.482 0 0 0 1.38-.88v1.07s-.1 1 1.6 1c.219-.006.432-.068.62-.18a1.404 1.404 0 0 0 .6-1.68c.46-.22 1.2-.65 1.2-1.15a31.66 31.66 0 0 1 .67-3.56 2.81 2.81 0 0 0-.67 1.49l-.11-8.56c0-.4-.6-3.07-.6-3.07 1.21-.54 1.65-1.09 1.82-1.57l.15-3.77s2.16-1.39 1.58-2.36a11.992 11.992 0 0 1-.83-1.92 106.224 106.224 0 0 0 19.38 10.35c.669-.68 1.414-1.28 2.22-1.79.74-1.48 7-11.78 37-11.78 5.84 0 10.34 1.19 15.1 2.45a83.053 83.053 0 0 0 23.87 3.39 49.66 49.66 0 0 0 28-8.16c-52.295-8.059-91.299-53.508-91.33-106.42v-2.94a220.093 220.093 0 0 1 83.47-32.73c-4-4.35-13-15.61-20.91-34.9-.24-.27-1-1.15-2.14-2.45l-35.76 3.06.47-134.24.28.09h39.08l-8.16-10.29-14.83-18.8 107.06-15.6zM233.02 681.07a4.45 4.45 0 0 1 .8-1.53 1.185 1.185 0 0 0-.2-1.51 1.694 1.694 0 0 1-.49-.68c-.48-1.21 1.24-2.05 2.07-1.06.091.112.172.233.24.36l.06.12c.05.106.09.216.12.33a1.09 1.09 0 0 1 0 .14c.04.17.06.345.06.52a7.479 7.479 0 0 1-.87 3.2v.46c.201.029.399.079.59.15.78.29 1.45.85 2 1.09 1.3.53 1.14 2.72.76 5.12a13.928 13.928 0 0 0-5.14-6.71z" fill="#2a1210" fill-rule="nonzero"/><path d="M298.5 377.1l-.28-.09-.43 134.23 35.76-3.06c-4.45-5.24-14-17.46-14-25.69 0-3.88 1.1-6.9 3.18-8.74a8.728 8.728 0 0 1 8.32-5.56c6.07 0 12.7 7.05 13.54 8 1.26.51 11.77 4.9 17 11.07a152.758 152.758 0 0 0 16.49 17.13l50.7-4.34c-.07-.74-.12-1.51-.12-2.33a7.788 7.788 0 0 1 2-5.1l-10.65-13.21L370.56 418l-3.63-4.52-25.51-31.57-3.88-4.82H298.5v.01zm123.16-167.7l-123.87-43.43.58 147.18 123.29 19.25v-123z" fill="#f37a78" fill-rule="nonzero"/><path d="M234.42 719.51c-1.7 0-1.6-1-1.6-1v-1.07a1.482 1.482 0 0 1-1.38.88c-1.39-.19-1.55-.77-1.55-.77l.2-1.29-2.23.1-3.93-.82a6.336 6.336 0 0 0-3.21-1.85 18.681 18.681 0 0 1-3.72-1.24l-31.18-6.56s-9.23-2.27-12.73-2.08c-1.58-.79-5.66-1.64-7-1.28a17 17 0 0 1-3.65.32l-.66-.14a11.27 11.27 0 0 0-3-1 6.432 6.432 0 0 0-3.81.3c-.45.27-.42 1 1.28 1.43.967.193 1.946.324 2.93.39l1.36.31s-1.68 1.54-.32 2.3c1.36.76 21.94 5.14 21.94 5.14s4.07 0 6-.21c0 0 10.85 2.1 28.35 6.24l1.14-.7 16.77 3.32s.41-.09.67-.9a1.279 1.279 0 0 1-.62.18h-.05z" fill="#453b69" fill-rule="nonzero"/><path d="M238.11 700.19a5.542 5.542 0 0 1-.16 1c-.17.48-.61 1-1.82 1.57 0 0 .59 2.67.6 3.07l.11 8.56a2.81 2.81 0 0 1 .67-1.49l.54-11.34.05-.92c-.004-.15-.001-.3.01-.45zm-.63-17.52c-.59-.24-1.26-.8-2-1.09a2.87 2.87 0 0 0-.59-.15V681a7.479 7.479 0 0 0 .87-3.2c0-.175-.02-.35-.06-.52a1.09 1.09 0 0 0 0-.14 1.913 1.913 0 0 0-.12-.33l-.06-.12a2.278 2.278 0 0 0-.24-.36c-.83-1-2.55-.15-2.07 1.06.104.264.272.498.49.68.424.386.509 1.027.2 1.51a4.45 4.45 0 0 0-.8 1.53 13.928 13.928 0 0 1 5.22 6.72c.3-2.44.46-4.63-.84-5.16z" fill="#f37a78" fill-rule="nonzero"/><path d="M183.87 700.63a2.578 2.578 0 0 0 1.11-.41 5.504 5.504 0 0 1-1.43.39l.32.02zm-.92-1.24s-1.08.26-1.08-.32c0-.58.36-.94 2.28-2 .259-.135.495-.311.7-.52l-23.34-5.05c.33-.455.454-1.029.34-1.58l-38-6.47c-3.11-.65-5.13-1.06-5.56-1.11a15.75 15.75 0 0 0-4 0c-2.34-.42-7.46-2.39-9.23-.56-1 1 7.9 2.68 7.9 2.68-1.14 2.55 16.24 5.9 21.09 6.45 5.27.73 10.88 1.46 16.25 2.14l5.6 1.88c.732-.265 1.45-.568 2.15-.91 10.08 1.24 18 2.19 19.14 2.43 4.22.9 3.79 3.14 5.34 3.88-.11-.26.42-.94.42-.94z" fill="#453b69" fill-rule="nonzero"/><path d="M189.53 663.06a7.321 7.321 0 0 1-.47-2.08c0-.35 0-.68-.08-1 0 .32.05.65.08 1 .054.713.213 1.413.47 2.08zm.64 23.94zm-1.75 1.23a6.22 6.22 0 0 0 1.2-.77 3.47 3.47 0 0 1-.28.22c-.48-2.49.19-1.11.19-3.33 0-2.44-1.85-4.45-.43-6.62a9.194 9.194 0 0 0 1-2.52c.085-.465.115-.938.09-1.41-.06-.62-.06-6-.06-6 .137-.269.257-.546.36-.83-.14-.65-.43-1.34-1.09-1.47-1.31-.27-1.68-1.36-1.25-3.26.43-1.9-1.08-3.64-2.28-4.29-.66-.35-.64-.85-.25-1.24-1.76.2-2.13 1.05-2.2 1.35-.07.3-.44 1.41-.28 1.59a.351.351 0 0 1-.08.5c-.11.06-.58.47-.15.72 0 0 0 1.83.86 1.83h.88l-.16.51-1.16 1.08.65.65-2.58.79.1 2.73a2.058 2.058 0 0 0-.69 1.53c-.1.925-.322 1.833-.66 2.7a87.421 87.421 0 0 0-.06 12.64v2.18c.52.38.8-.1 2.36.5 1.07.41 1.3.84 2.24.94l.43 2.41.48 2.73c.17.911-.109 1.85-.75 2.52a2.784 2.784 0 0 1-.7.52c-1.92 1-2.28 1.4-2.28 2 0 .6 1.08.32 1.08.32s-.57.68-.33 1v.05c.266.172.589.233.9.17a5.504 5.504 0 0 0 1.43-.39c.507-.2.996-.444 1.46-.73.79-.5 2.52-.58 2.52-1.76 0-.9-.7-1.64-.7-3 0-.77.22-1.53.31-2.73a16.809 16.809 0 0 0-.12-3.83zm-2.69-21.8l-.74 2.33-.73-1.19 1.47-1.14zm1.3 8.48c-.71.76-1.39 3-2 3.61 0 0-1-1.39-.66-2.26.34-.87 2.32-1.57 2.32-2.71a13.071 13.071 0 0 1 .65-4.18c.442-1.349.38 4.78-.33 5.54h.02zm3.51 11.67l-.21.23.21-.23zm.31-.39l-.76-10.89.76 10.89z" fill="#2a1210" fill-rule="nonzero"/><path d="M186.63 673.55c0 1.14-2 1.85-2.32 2.71-.32.86.66 2.26.66 2.26.65-.61 1.33-2.85 2-3.61.67-.76.27-5.54.27-5.54a13.051 13.051 0 0 0-.61 4.18zm-.92-7.12l-1.47 1.14.73 1.19.74-2.33zm3.8 17.92c0 2.22-.67.84-.19 3.33a3.47 3.47 0 0 0 .28-.22l.26-.21c.11-.089.214-.186.31-.29l.16-.15.21-.23a2.91 2.91 0 0 0 .21-.26l.06-.09-.76-10.89v-.08a9.194 9.194 0 0 1-1 2.52c-1.39 2.12.46 4.13.46 6.57zm-3.64-26.44c1.2.65 2.72 2.39 2.28 4.29-.44 1.9-.06 3 1.25 3.26.66.13 1 .82 1.09 1.47a4.91 4.91 0 0 0 .17-.57v-.05a1.944 1.944 0 0 0 0-.58 3.453 3.453 0 0 0-.49-1.21c-.09-.17-.19-.34-.28-.53-.09-.19-.28-.59-.41-.93a7.321 7.321 0 0 1-.47-2.08c0-.35 0-.68-.08-1-.17-2-.49-3.35-2.59-3.35h-.77c-.34.43-.36.93.3 1.28z" fill="#f37a78" fill-rule="nonzero"/><path d="M558.04 670.67c3.24 4.7 21.105 36.221 18.64 31.39V479.38H420.01l10.65 13.21a7.788 7.788 0 0 0-2 5.1c0 .82.05 1.59.12 2.33l-50.7 4.34a152.758 152.758 0 0 1-16.49-17.13c-5.24-6.17-15.75-10.56-17-11.07-.84-.92-7.47-8-13.54-8a8.728 8.728 0 0 0-8.32 5.56c-2.08 1.84-3.18 4.86-3.18 8.74 0 8.23 9.55 20.45 14 25.69 1.1 1.3 1.9 2.18 2.14 2.45 7.87 19.29 17 30.55 20.91 34.9 1.07 1.17 1.77 1.85 2 2 1 1.74 23.3 39 23.3 49.24 0 5.79 1.68 15.83 3.3 25.54 1.35 8 2.62 15.62 2.62 19.22 0 17.57-8.06 35.86-23.35 46.06a49.66 49.66 0 0 1-28 8.16 83.087 83.087 0 0 1-23.82-3.37c-4.76-1.26-9.26-2.45-15.1-2.45-30.09 0-36.3 10.3-37 11.78-.806.51-1.551 1.11-2.22 1.79a14.508 14.508 0 0 0-1.44 1.7l-18.74-3.64-.54 11.34a31.66 31.66 0 0 0-.67 3.56c0 .5-.74.93-1.2 1.15a1.404 1.404 0 0 1-.6 1.68c-.26.81-.67.9-.67.9l-16.75-3.39-1.14.7c-17.5-4.14-28.35-6.24-28.35-6.24-1.89.16-6 .21-6 .21s-20.51-4.34-21.94-5.14c-1.43-.8.32-2.3.32-2.3l-1.36-.31a22.753 22.753 0 0 1-2.93-.39c-1.7-.4-1.73-1.16-1.28-1.43a6.432 6.432 0 0 1 3.81-.3 11.27 11.27 0 0 1 3 1l.66.14a17 17 0 0 0 3.65-.32c1.32-.36 5.4.49 7 1.28 3.5-.19 12.73 2.08 12.73 2.08l31.18 6.56c1.193.543 2.44.958 3.72 1.24a6.336 6.336 0 0 1 3.21 1.85l3.93.82 2.23-.1.71-4.45c-.09-4.33-.34-9-.5-11.7l-41.8-7.97c-.09 1.2-.31 2-.31 2.73 0 1.37.7 2.11.7 3 0 1.18-1.73 1.26-2.52 1.76-.464.286-.953.53-1.46.73a2.578 2.578 0 0 1-1.11.41h-.32a1.214 1.214 0 0 1-.9-.17v-.05c-1.55-.74-1.12-3-5.34-3.88-1.12-.24-9.06-1.19-19.14-2.43-.7.342-1.418.645-2.15.91l-5.6-1.88c-5.37-.68-11-1.41-16.25-2.14-4.85-.55-22.23-3.9-21.09-6.45 0 0-8.92-1.63-7.9-2.68 1.77-1.83 6.89.14 9.23.56a15.75 15.75 0 0 1 4 0c.43 0 2.45.46 5.56 1.11l38 6.47a2.002 2.002 0 0 1-.34 1.58l23.34 5.05c.641-.67.92-1.609.75-2.52l-.48-2.73-170.16-33v145.85L375.36 854l119-22.5 28.639-5.018c-36-20.88-55.219-20.602-55.449-20.652a.41.41 0 0 0-.22 0c-.42.09-42.88 8.87-103.36-35.21-3.65-2.66-9.5-4.92-15.68-7.31-5.67-2.2-11.53-4.47-15.94-7.16-1.62-1-3.27-2-4.92-3.1-7.81-5-15.88-10.11-24-11a37.907 37.907 0 0 1-12.89-3.44c-.65-1.77-6.68-19.26.05-36.23a.491.491 0 0 0-.28-.65.5.5 0 0 0-.65.28c-6.16 15.52-1.85 31.46-.42 35.9a24.442 24.442 0 0 1-7.28-6.55.44.44 0 0 0-.26-.18 48.33 48.33 0 0 0-5-1c-7.44-7.4-5.63-25.5-5.61-25.68a.55.55 0 0 0-.07-.33c-1.4-2.14-7-2.44-9.27-2.47 1.67-2.56 9.3-10.7 35.74-10.7 5.71 0 9.95 1.12 14.85 2.41a83.637 83.637 0 0 0 24.08 3.37c34 0 52.38-28.45 52.38-55.22 0-3.68-1.28-11.31-2.63-19.39-1.54-9.21-3.29-19.66-3.29-25.37 0-10.72-22.52-48.22-23.48-49.81a.354.354 0 0 0-.09-.12c-.12-.11-12.45-11.5-22.71-36.7l-.1-.15c-.16-.17-15.94-17.43-15.94-27.53 0-3.43.91-6.1 2.62-7.77 1.84 1.41 6.35 2.07 14.08 2.07 2.31-.043 4.62.047 6.92.27.84.35 11.56 4.8 16.67 10.82 9.62 11.33 15.14 16 19.16 19.45a43.558 43.558 0 0 1 9.56 10.35c10 15 36.11 57 36.37 57.42a.181.181 0 0 0 .07.08c.031.019 0 .05.06.06h.17c3.842.65 7.789-.222 11-2.43l.22-.14.12-.09c3-2 6-5.35 8.11-11a.503.503 0 0 0-.27-.58.491.491 0 0 0-.64.29 24.501 24.501 0 0 1-4.55 7.8l3.26-32a.54.54 0 0 0-.05-.28 58.008 58.008 0 0 1-5.31-24 .5.5 0 0 0-.34-.48c-.33-.11-8.12-2.87-8.12-14.73 0-4.58 4.71-7.1 6.27-7.1a.489.489 0 0 0 .4-.2c.093-.127 1.64-2.05 6.09-2.05 9.89 0 14.61 4.67 25.29 16.17 10.68 11.5 13.4 15.78 13.4 25.28v1.76c.17 4.66.88 15.31 2.46 26.65a.481.481 0 0 0 .06.37c.83 5.89 1.89 11.95 3.25 17.46a.327.327 0 0 0 0 .17c2.25 9.14 5.29 16.71 9.32 19.33a.512.512 0 0 0 .7-.15.502.502 0 0 0-.15-.69c-3.78-2.45-6.7-9.83-8.91-18.84.1-1.41.81-11.22 1.72-16.13.122-.782.323-1.549.6-2.29 1.37-3.13-1.07-12-1.17-12.34a.502.502 0 0 0-.62-.35.491.491 0 0 0-.34.61c.68 2.46 2.23 9.35 1.21 11.68a11.459 11.459 0 0 0-.55 2l-4.2-1.05c-1.51-10.7-2.26-20.87-2.43-26.13a21.815 21.815 0 0 1 12.06-1.14c8.09 1.41 31.17 8.28 31.17 20.9 0 3.72-.27 10-.59 17.33-.82 18.79-1.94 44.52.64 50.26 5.61 12.52 15.79 22.57 15.89 22.68a.54.54 0 0 0 .35.14h.003a.498.498 0 1 0 .347-.86A86.528 86.528 0 0 1 527.42 621c5-4.46 11.67-8.94 22.71-8.94 2.48 0 5.57 2.25 7.71 5.61 1.58 2.5 4.83 9.26.72 18-6.9 14.71-5.23 28.17-.52 35zm-287.99 33.82c-.19 2-1.42 17.58 5.07 25.37a76.6 76.6 0 0 0-10.22-.67c-1-.52-10.14-5.3-10.14-14s5.42-12.15 6.22-12.64c2.23.02 7.74.31 9.07 1.94zm67.2-228.7c-7.43 0-12-.63-13.51-1.89a7.713 7.713 0 0 1 7.31-4.71c4.64 0 9.88 4.7 11.95 6.76-1.1-.07-2.93-.16-5.75-.16z" fill="#9eb1db" fill-rule="nonzero"/><path d="M168.81 212.77l-.39-.17a.392.392 0 0 1-.17-.11 62.946 62.946 0 0 1-12.64-2.2h-.1c-13.22 7.81-14.92 15.17-14.94 15.25-.88 3.52-1.56 6.85-2.07 10 2.24.35 11.68 1.72 17.9.47a.5.5 0 0 1 .52.22c.65 0 2.22.2 4.27.4v-21.1l7.62-2.76zm-19.39 35.48c2.49-2.75 3.63-6.41 3.43-10.86a40 40 0 0 1-2.7.09 79.329 79.329 0 0 1-11.75-1 91.764 91.764 0 0 0-1.1 17.23c1.83-.18 8.12-1.07 12.12-5.46zm25.76-37.85a.469.469 0 0 1 .34-.07l26.71-9.69c-4-.83-7.61-1.8-10.5-2.57l-2.65-.69a62.159 62.159 0 0 1-15.38 1.78c-1.75 0-3-.06-3.55-.09a57.028 57.028 0 0 1-11.42 9.39c-.7.36-1.37.73-2 1.09 2.72.71 11.48 2.79 16.47 1.63l1.71-.62c.093-.048.183-.101.27-.16zm111.64 101c1.47-6.42-.37-13.74-2.93-16.29-.446-.433-.924-.83-1.43-1.19-6.24-.24-22 .13-23.21 4.46.53 5.88 2.6 21.38 5.88 23.9.269.248.64.355 1 .29 4.77-.82 13.18-1.28 14.35-1.34a16.094 16.094 0 0 0 6.34-9.83z" fill="#fff" fill-rule="nonzero"/><path d="M174.89 210.56l.63-.23a.469.469 0 0 0-.34.07c-.093.059-.19.113-.29.16z" fill="#1580f2" fill-rule="nonzero"/><path d="M175.52 210.33l-.63.23-1.71.62-3 1.08-1.4.51-7.62 2.76v74a63.342 63.342 0 0 0 24.92 2.84 69.995 69.995 0 0 0 20.81-4.53c4-1.42 7.51-2.65 12.13-3 10.55-.72 50.61-1.29 63.79 8.09.075.029.14.077.19.14a12.68 12.68 0 0 1 1.56 1.3c2.81 2.79 4.77 10.38 3.21 17.22a19.527 19.527 0 0 1-1.13 3.45l11.78-1.89-.63-147.15-61 22.13-1 .37-31.76 11.5-1.8.65-26.71 9.68z" fill="#453b69" fill-rule="nonzero"/></svg>