<svg height="200" width="336" xmlns="http://www.w3.org/2000/svg"><g fill="none"><path d="M0 0h336v200H0z" fill="#fde5db"/><path d="M207.896 96.727V80.364h12.32c3.87 0 7.582.76 10.526 2.124h7.803c4.296 0 8.548 1.042 11.381 2.888 6.14 3.834 7.934 10.507 7.934 14.719 0 3.266-1.274 10.27-7.934 14.53-2.833 1.845-7.083 2.887-11.38 2.887h-7.805c-2.942 1.363-6.652 2.124-10.523 2.124h-12.32V104.91h7.332v8.182h8.198v-8.182h8.198v-8.182h-8.198v-8.182h-8.198v8.182h-7.334zm27.562-11.066c4.512 4.166 6.195 9.955 6.195 14.434 0 1.563-.335 8.828-6.216 14.246h1.454c3.165 0 7.982 0 11.997-2.839 2.125-1.8 5.477-5.444 5.477-11.55 0-4.639-2.312-8.945-5.95-11.595-3.116-2.035-6.376-2.696-11.524-2.696zm-85.33-3.173h3.305v12.537h.095c2.927-4.213 7.272-5.206 10.06-5.206 8.454 0 13.884 6.627 13.884 13.536 0 7.43-5.762 13.63-13.884 13.63-2.693 0-7.179-.945-10.06-5.159h-.095v4.544h-3.305zm13.46 10.312c-5.952 0-10.343 4.97-10.343 10.65 0 6.057 4.771 10.554 10.343 10.554 6.329 0 10.579-4.732 10.579-10.507 0-6.578-4.913-10.697-10.58-10.697zm19.784 11.833c.236 5.064 4.96 9.371 10.011 9.371 4.722-.095 8.077-2.887 9.258-6.105h3.494c-1.794 5.158-6.752 9.086-12.704 9.086-7.225 0-13.46-5.868-13.46-13.536 0-7.335 5.903-13.488 13.412-13.63a13.419 13.419 0 0 1 11.525 6.627c1.746 2.791 2.124 5.678 1.983 8.187h-23.52zm20.167-2.982c-1.043-6.105-6.001-8.851-10.11-8.851-4.061 0-9.115 2.746-10.06 8.851z" fill="#e2011a"/><path d="M80.9 104.633c.237 5.064 4.959 9.371 10.012 9.371 4.722-.095 8.075-2.887 9.258-6.105h3.492c-1.794 5.158-6.752 9.086-12.702 9.086-7.226 0-13.46-5.868-13.46-13.536 0-7.335 5.903-13.488 13.412-13.63a13.417 13.417 0 0 1 11.524 6.627c1.747 2.791 2.125 5.678 1.984 8.187zm20.167-2.982c-1.04-6.105-5.998-8.851-10.107-8.851-4.062 0-9.117 2.746-10.06 8.851zm6.561-11.17h3.306v2.982l-.095-.095v.095h.095c1.464-2.556 4.629-3.644 7.037-3.644 2.171 0 6.752.993 8.69 4.97 1.935-3.977 6.516-4.97 8.69-4.97 3.965 0 10.342 2.366 10.342 11.17v15.381h-3.306v-15.004c0-2.839-.52-4.212-1.18-5.395-1.09-1.846-3.073-3.171-5.857-3.171-2.788 0-4.772 1.325-5.857 3.171-.66 1.183-1.18 2.556-1.18 5.395v15.006h-3.306v-15.006c0-2.839-.52-4.212-1.18-5.395-1.086-1.846-3.07-3.171-5.856-3.171-2.787 0-4.771 1.325-5.857 3.171-.66 1.183-1.18 2.556-1.18 5.395v15.006h-3.306V90.48z" fill="#1a171b"/></g></svg>