<svg width="336" height="200" xmlns="http://www.w3.org/2000/svg" xmlns:xlink="http://www.w3.org/1999/xlink" style="background:#fff5f3"><defs><linearGradient x1="100%" y1="50%" x2=".319%" y2="50%" id="a"><stop stop-color="#FFDFDA" offset="0%"/><stop stop-color="#DAF4F5" offset="100%"/></linearGradient><path id="b" d="M.243.006h12.24v36.812H.243z"/><path id="d" d="M.225.006h12.24v36.812H.224z"/><path id="f" d="M.243.006h12.24v36.812H.243z"/><path id="h" d="M.243.006h12.24v36.812H.243z"/></defs><g fill="none" fill-rule="evenodd"><path fill="#FFF5F3" d="M0 0h336v200H0z"/><path fill="url(#a)" d="M0 0h336v200H0z"/><path fill="#E64741" d="M49 84.22v28.395h21.493v-5.106H54.791v-7.3H68.57v-4.933H54.79v-6.03h15.01V84.22zM100.838 91.694c.897.36 1.713.99 2.444 1.887.589.733.987 1.632 1.193 2.697.128.707.193 1.741.193 3.101l-.04 13.236H99.01v-13.37c0-.796-.129-1.45-.385-1.965-.488-.976-1.385-1.464-2.694-1.464-1.513 0-2.56.63-3.135 1.888-.295.668-.443 1.47-.443 2.408v12.503h-5.524v-12.503c0-1.246-.127-2.15-.383-2.716-.462-1.015-1.367-1.522-2.714-1.522-1.565 0-2.617.507-3.156 1.522-.295.578-.442 1.439-.442 2.581v12.638h-5.562v-20.96h5.332v3.063c.678-1.09 1.32-1.868 1.924-2.33 1.063-.822 2.443-1.234 4.136-1.234 1.603 0 2.898.354 3.886 1.06.796.655 1.4 1.496 1.81 2.523.718-1.232 1.609-2.138 2.674-2.716 1.128-.578 2.387-.867 3.771-.867.925 0 1.835.18 2.733.54M123.027 106.932c.788-1.143 1.184-2.645 1.184-4.508 0-1.49-.195-2.722-.582-3.699-.738-1.85-2.096-2.775-4.074-2.775-2.006 0-3.383.907-4.133 2.717-.388.964-.582 2.21-.582 3.737 0 1.798.4 3.288 1.203 4.47.801 1.182 2.023 1.772 3.666 1.772 1.423 0 2.53-.571 3.318-1.714m4.583-12.79c1.57 1.99 2.353 4.557 2.353 7.703 0 3.263-.773 5.966-2.32 8.111-1.547 2.144-3.707 3.217-6.48 3.217-1.74 0-3.14-.347-4.196-1.041-.631-.41-1.316-1.13-2.05-2.157v2.64h-5.407V84.26h5.483v10.094c.698-.977 1.467-1.721 2.305-2.235.994-.642 2.26-.963 3.796-.963 2.775 0 4.948.995 6.516 2.986M139.243 96.785c-.775.8-1.262 1.882-1.461 3.25h9.449c-.1-1.457-.587-2.562-1.462-3.318-.873-.755-1.958-1.132-3.252-1.132-1.407 0-2.5.4-3.274 1.2m8.205-4.743c1.462.656 2.67 1.691 3.624 3.106.86 1.248 1.415 2.696 1.67 4.342.148.964.208 2.353.18 4.166h-15.275c.085 2.107.817 3.583 2.194 4.43.838.529 1.845.791 3.023.791 1.25 0 2.264-.32 3.046-.963.426-.347.802-.828 1.128-1.445h5.6c-.148 1.245-.826 2.51-2.034 3.794-1.879 2.043-4.51 3.064-7.891 3.064-2.79 0-5.253-.86-7.388-2.584-2.133-1.722-3.2-4.525-3.2-8.406 0-3.636.963-6.427 2.889-8.367 1.926-1.94 4.426-2.912 7.5-2.912 1.826 0 3.47.328 4.934.984M167.346 91.126c.071.007.228.016.471.028v5.626a14.577 14.577 0 0 0-1.577-.096c-2.207 0-3.689.72-4.446 2.157-.422.81-.635 2.055-.635 3.738v10.036h-5.52V91.617h5.232v3.66c.847-1.399 1.585-2.356 2.214-2.87 1.026-.86 2.36-1.29 4.002-1.29.102 0 .188.003.26.009"/><g transform="translate(168.23 82.177)"><mask id="c" fill="#fff"><use xlink:href="#b"/></mask><path d="M4.246 24.527c0-1.618-.488-2.857-1.462-3.718-.59-.526-1.437-.942-2.54-1.252v-2.33c1.244-.425 2.123-.893 2.635-1.407.91-.886 1.367-2.24 1.367-4.064V6.593c0-.655.11-1.342.325-2.061.386-1.246 1.038-2.235 1.96-2.967C7.376.898 8.367.455 9.507.235c.691-.14 1.683-.217 2.977-.23v3.082c-1.06.23-1.78.538-2.162.923-.588.59-.88 1.623-.88 3.098v4.464c0 1.437-.192 2.577-.576 3.425-.656 1.424-1.938 2.577-3.849 3.462 1.732.706 2.896 1.527 3.492 2.462.596.937.908 2.233.933 3.887v4.868c0 1.424.343 2.45 1.033 3.077.383.373 1.051.7 2.009.983v3.082l-1.364-.04c-1.83-.05-3.433-.6-4.81-1.646-1.376-1.047-2.063-2.572-2.063-4.574v-6.031z" fill="#E64741" mask="url(#c)"/></g><g transform="translate(178.854 82.177)"><mask id="e" fill="#fff"><use xlink:href="#d"/></mask><path d="M4.228 24.527c0-1.618-.489-2.857-1.463-3.718-.589-.526-1.436-.942-2.54-1.252v-2.33c1.244-.425 2.124-.893 2.636-1.407.91-.886 1.367-2.24 1.367-4.064V6.593c0-.655.109-1.342.325-2.061.386-1.246 1.037-2.235 1.96-2.967C7.356.898 8.348.455 9.487.235c.692-.14 1.683-.217 2.977-.23v3.082c-1.059.23-1.779.538-2.161.923-.588.59-.88 1.623-.88 3.098v4.464c0 1.437-.192 2.577-.577 3.425-.655 1.424-1.937 2.577-3.848 3.462 1.731.706 2.895 1.527 3.491 2.462.597.937.908 2.233.933 3.887v4.868c0 1.424.344 2.45 1.033 3.077.384.373 1.052.7 2.01.983v3.082l-1.364-.04c-1.831-.05-3.433-.6-4.81-1.646-1.376-1.047-2.063-2.572-2.063-4.574v-6.031z" fill="#E64741" mask="url(#e)"/></g><g transform="translate(168.23 82.177)"><mask id="g" fill="#fff"><use xlink:href="#f"/></mask><path d="M4.246 24.527c0-1.618-.488-2.857-1.462-3.718-.59-.526-1.437-.942-2.54-1.252v-2.33c1.244-.425 2.123-.893 2.635-1.407.91-.886 1.367-2.24 1.367-4.064V6.593c0-.655.11-1.342.325-2.061.386-1.246 1.038-2.235 1.96-2.967C7.376.898 8.367.455 9.507.235c.691-.14 1.683-.217 2.977-.23v3.082c-1.06.23-1.78.538-2.162.923-.588.59-.88 1.623-.88 3.098v4.464c0 1.437-.192 2.577-.576 3.425-.656 1.424-1.938 2.577-3.849 3.462 1.732.706 2.896 1.527 3.492 2.462.596.937.908 2.233.933 3.887v4.868c0 1.424.343 2.45 1.033 3.077.383.373 1.051.7 2.009.983v3.082l-1.364-.04c-1.83-.05-3.433-.6-4.81-1.646-1.376-1.047-2.063-2.572-2.063-4.574v-6.031z" fill="#E64741" mask="url(#g)"/></g><g transform="translate(168.23 82.177)"><mask id="i" fill="#fff"><use xlink:href="#h"/></mask><path d="M4.246 24.527c0-1.618-.488-2.857-1.462-3.718-.59-.526-1.437-.942-2.54-1.252v-2.33c1.244-.425 2.123-.893 2.635-1.407.91-.886 1.367-2.24 1.367-4.064V6.593c0-.655.11-1.342.325-2.061.386-1.246 1.038-2.235 1.96-2.967C7.376.898 8.367.455 9.507.235c.691-.14 1.683-.217 2.977-.23v3.082c-1.06.23-1.78.538-2.162.923-.588.59-.88 1.623-.88 3.098v4.464c0 1.437-.192 2.577-.576 3.425-.656 1.424-1.938 2.577-3.849 3.462 1.732.706 2.896 1.527 3.492 2.462.596.937.908 2.233.933 3.887v4.868c0 1.424.343 2.45 1.033 3.077.383.373 1.051.7 2.009.983v3.082l-1.364-.04c-1.83-.05-3.433-.6-4.81-1.646-1.376-1.047-2.063-2.572-2.063-4.574v-6.031z" fill="#E64741" mask="url(#i)"/></g><path d="M205.652 83.96c.28.019.665.048 1.154.086v4.47c-.308-.04-.825-.068-1.549-.087-.726-.02-1.226.141-1.5.481-.278.34-.416.717-.416 1.128v1.771h3.6v3.872h-3.6v16.934h-5.444V95.681h-3.08v-3.872h3.002v-1.348c0-2.247.379-3.795 1.136-4.642.795-1.259 2.712-1.888 5.753-1.888.346 0 .66.01.944.029M215.56 96.785c-.776.8-1.262 1.882-1.46 3.25h9.447c-.1-1.457-.587-2.562-1.461-3.318-.874-.755-1.959-1.132-3.254-1.132-1.406 0-2.498.4-3.272 1.2m8.204-4.743c1.462.656 2.67 1.691 3.624 3.106.859 1.248 1.417 2.696 1.67 4.342.148.964.209 2.353.183 4.166h-15.277c.085 2.107.817 3.583 2.194 4.43.837.529 1.844.791 3.023.791 1.25 0 2.264-.32 3.045-.963.426-.347.803-.828 1.129-1.445h5.599c-.148 1.245-.825 2.51-2.033 3.794-1.88 2.043-4.51 3.064-7.892 3.064-2.79 0-5.253-.86-7.387-2.584-2.133-1.722-3.2-4.525-3.2-8.406 0-3.636.963-6.427 2.888-8.367 1.928-1.94 4.427-2.912 7.501-2.912 1.825 0 3.47.328 4.933.984M236.266 105.91c.116.977.367 1.67.754 2.082.683.731 1.946 1.096 3.79 1.096 1.082 0 1.941-.16 2.58-.48.638-.32.957-.803.957-1.445 0-.617-.257-1.085-.772-1.406-.513-.32-2.425-.874-5.737-1.657-2.382-.591-4.06-1.33-5.037-2.216-.974-.873-1.462-2.13-1.462-3.776 0-1.938.763-3.604 2.286-4.998 1.523-1.393 3.667-2.09 6.431-2.09 2.622 0 4.759.523 6.412 1.57 1.651 1.046 2.6 2.854 2.843 5.422h-5.484c-.077-.705-.275-1.264-.599-1.675-.603-.745-1.632-1.117-3.087-1.117-1.195 0-2.047.185-2.555.558-.51.373-.762.81-.762 1.31 0 .629.27 1.085.81 1.368.54.295 2.447.802 5.727 1.52 2.182.516 3.82 1.291 4.912 2.332 1.077 1.053 1.616 2.37 1.616 3.95 0 2.08-.775 3.778-2.324 5.094-1.548 1.316-3.942 1.974-7.182 1.974-3.304 0-5.743-.695-7.317-2.09-1.575-1.392-2.361-3.169-2.361-5.326h5.56zM251.774 95.72v-3.91h2.926v-5.856h5.424v5.856h3.407v3.91h-3.407v11.096c0 .86.11 1.397.329 1.609.218.211.885.317 2 .317.167 0 .344-.003.53-.01.185-.006.369-.015.548-.028v4.103l-2.597.097c-2.592.09-4.363-.36-5.312-1.349-.616-.63-.922-1.6-.922-2.91V95.72h-2.926zM266.935 118.995v-3.082c.961-.284 1.637-.617 2.02-1.001.655-.642.995-1.662 1.021-3.059v-4.868c0-1.821.353-3.172 1.062-4.05.708-.878 1.834-1.644 3.38-2.299-1.688-.821-2.848-1.755-3.487-2.8-.636-1.045-.955-2.407-.955-4.087v-4.464c0-1.424-.227-2.392-.683-2.905-.456-.513-1.242-.885-2.358-1.117v-3.08c1.287.011 2.276.09 2.97.23 1.144.218 2.148.662 3.008 1.33.863.667 1.46 1.488 1.795 2.465.334.976.503 1.83.503 2.562v5.162c0 1.836.414 3.185 1.249 4.045.513.514 1.43.99 2.751 1.426v2.331c-1.09.309-1.917.706-2.481 1.194-1.015.874-1.52 2.132-1.52 3.776v6.03c0 1.952-.676 3.463-2.026 4.536-1.35 1.071-2.977 1.635-4.88 1.686l-1.369.039z" fill="#E64741"/><path d="M277.543 118.995v-3.082c.962-.284 1.636-.617 2.02-1.001.655-.642.995-1.662 1.02-3.059v-4.868c0-1.821.353-3.172 1.063-4.05.707-.878 1.833-1.644 3.38-2.299-1.688-.821-2.85-1.755-3.486-2.8-.639-1.045-.958-2.407-.958-4.087v-4.464c0-1.424-.228-2.392-.682-2.905-.457-.513-1.242-.885-2.357-1.117v-3.08c1.285.011 2.276.09 2.97.23 1.144.218 2.147.662 3.009 1.33.86.667 1.459 1.488 1.793 2.465.335.976.502 1.83.502 2.562v5.162c0 1.836.416 3.185 1.25 4.045.513.514 1.43.99 2.751 1.426v2.331c-1.09.309-1.918.706-2.48 1.194-1.015.874-1.521 2.132-1.521 3.776v6.03c0 1.952-.676 3.463-2.025 4.536-1.352 1.071-2.977 1.635-4.88 1.686l-1.37.039z" fill="#E64741"/><path d="M266.935 118.995v-3.082c.961-.284 1.637-.617 2.02-1.001.655-.642.995-1.662 1.021-3.059v-4.868c0-1.821.353-3.172 1.062-4.05.708-.878 1.834-1.644 3.38-2.299-1.688-.821-2.848-1.755-3.487-2.8-.636-1.045-.955-2.407-.955-4.087v-4.464c0-1.424-.227-2.392-.683-2.905-.456-.513-1.242-.885-2.358-1.117v-3.08c1.287.011 2.276.09 2.97.23 1.144.218 2.148.662 3.008 1.33.863.667 1.46 1.488 1.795 2.465.334.976.503 1.83.503 2.562v5.162c0 1.836.414 3.185 1.249 4.045.513.514 1.43.99 2.751 1.426v2.331c-1.09.309-1.917.706-2.481 1.194-1.015.874-1.52 2.132-1.52 3.776v6.03c0 1.952-.676 3.463-2.026 4.536-1.35 1.071-2.977 1.635-4.88 1.686l-1.369.039z" fill="#E64741"/><path d="M266.935 118.995v-3.082c.961-.284 1.637-.617 2.02-1.001.655-.642.995-1.662 1.021-3.059v-4.868c0-1.821.353-3.172 1.062-4.05.708-.878 1.834-1.644 3.38-2.299-1.688-.821-2.848-1.755-3.487-2.8-.636-1.045-.955-2.407-.955-4.087v-4.464c0-1.424-.227-2.392-.683-2.905-.456-.513-1.242-.885-2.358-1.117v-3.08c1.287.011 2.276.09 2.97.23 1.144.218 2.148.662 3.008 1.33.863.667 1.46 1.488 1.795 2.465.334.976.503 1.83.503 2.562v5.162c0 1.836.414 3.185 1.249 4.045.513.514 1.43.99 2.751 1.426v2.331c-1.09.309-1.917.706-2.481 1.194-1.015.874-1.52 2.132-1.52 3.776v6.03c0 1.952-.676 3.463-2.026 4.536-1.35 1.071-2.977 1.635-4.88 1.686l-1.369.039z" fill="#E64741"/></g></svg>