<svg height="200" width="336" xmlns="http://www.w3.org/2000/svg"><g fill="none"><path d="M0 0h336v200H0z" fill="#08152d"/><path d="M213.186 96.68c.206 1.356.28 2.76.814 4.04v.775c-1.754.096-3.472.51-5.21.742-.16.94-.073 1.909-.305 2.838-.283 1.811-.65 3.608-.955 5.414-.616 2.387-1.133 4.805-1.898 7.153-1.28 4.403-3.084 8.645-5.273 12.678-2.652 4.855-5.973 9.381-10.029 13.17-3.548 3.345-7.714 6.072-12.293 7.793-1.29.397-2.551.915-3.89 1.126-.45.199-.89.413-1.35.591h-7.826c-.857-.256-1.75-.34-2.619-.542-1.506-.221-2.909-.828-4.352-1.281-3.372-1.387-6.549-3.28-9.298-5.673a33.242 33.242 0 0 1-4.686-4.633c-1.919-2.112-3.525-4.479-5.085-6.86a68.428 68.428 0 0 1-5.091-9.87c-1.24-2.982-2.228-6.059-3.103-9.165-.55-2.382-1.288-4.728-1.599-7.158-.298-1.846-.757-3.687-.789-5.559-1.788-.222-3.55-.645-5.349-.764v-.956c.49-1.51.589-3.102.836-4.661.446-2.541.876-5.087 1.182-7.65.355-2.066.682-4.133 1.024-6.203.08-.884.219-1.762.443-2.622 1.407-.012 2.78.379 4.187.42.737.277 1.551.044 2.276.363.677.257 1.424-.004 2.11.213.705.233 1.485-.066 2.166.267.437.147 1.048.347 1.39-.076.054-.666-.705-.902-1.085-1.314a9.06 9.06 0 0 1 .024-1.625c.097-.363.237-.722.202-1.104-.05-.643.196-1.258.499-1.813.262-.247.563-.447.846-.67.817.754.74 1.947 1.091 2.918.388.504 1.02.742 1.453 1.203.41.316.52.839.62 1.319.125.651.389 1.264.622 1.882.63-.006 1.28-.102 1.887.117 1.13.366 2.33.036 3.476.291 1.017.193 2.055.022 3.078.097.924.374 1.931.133 2.892.272.563.075 1.12-.084 1.677-.157a12.102 12.102 0 0 1-2.4-.689c-1.658-.858-3.58-.976-5.25-1.803-.55-.36-.736-1.044-1.111-1.554a25.176 25.176 0 0 0-1.789-3.107 143.62 143.62 0 0 1-2.38-3.223c1.06-1.595 2.236-3.113 3.352-4.67.38-.725.86-1.405 1.59-1.814.172.238.286.531.122.808-.257.708-.338 1.467-.645 2.157.908 1.03 2.167 1.675 3.033 2.743.076.489-.065.994-.025 1.49.043.833-.31 1.622-.29 2.455-.004.413-.028.827-.074 1.238 1.157.769 2.3 1.568 3.516 2.244.63.397 1.335.743 1.77 1.371.65.909 1.355 1.783 1.9 2.76 2.763.036 5.525.01 8.288.007 4.817-.027 9.638.05 14.455-.014 1.831-.69 3.862.073 5.712-.514 1.077-.082 2.172.114 3.238-.12 1.083-.279 2.226.122 3.296-.261.912-.342 1.929.075 2.83-.31.603-.243 1.264-.117 1.896-.173-.985-1.355-1.842-2.797-2.839-4.143-.422-.486-.144-1.169-.333-1.736-.266-.854.052-1.773-.241-2.62-.13-.362-.075-.75-.061-1.124 1.819.914 2.834 2.813 4.547 3.869 1.295.925 2.088 2.585 3.746 2.95 1.276.545 2.553 1.1 3.835 1.634.228.106.48.133.725.093 1.347-.163 2.699-.282 4.038-.5.147.527.281 1.06.364 1.603.316 2.69.853 5.345 1.274 8.018.337 2.547.813 5.07 1.2 7.609zm-5.815 8.359c.299-.856.04-1.791.38-2.64-.865.133-1.759.05-2.604.308-.55.131-1.142 0-1.675.224-.768.318-1.622.028-2.412.257-.826.23-1.714-.05-2.52.278-.79.308-1.663-.032-2.463.223-1.017.376-2.146-.064-3.161.326-1.106.425-2.412-.204-3.468.373-1.364.38-2.869-.143-4.239.312-1.633.03-3.265-.01-4.896.025-.376-.008-.672.315-1.048.306-7.232-.023-14.464-.003-21.696-.01-.245-.084-.475-.2-.717-.284-1.687-.06-3.374-.004-5.06-.037-1.37-.456-2.878.071-4.242-.316-1.059-.564-2.358.052-3.465-.368-1.018-.39-2.145.048-3.162-.326-.8-.256-1.674.086-2.464-.225-.805-.327-1.694-.048-2.519-.277-.789-.228-1.644.062-2.412-.256-.581-.244-1.233-.067-1.826-.262-.729-.244-1.503-.107-2.255-.086a5.93 5.93 0 0 0 .272 2.024c.043 1.027.284 2.028.539 3.021.463 3.122 1.246 6.19 2.112 9.226.424.985.536 2.09 1.098 3.013.283.938.67 1.842 1 2.766.88 1.988 1.65 4.028 2.69 5.944.381.628.58 1.354 1.04 1.935.44.546.602 1.253 1.02 1.81.566.695.857 1.564 1.436 2.253.433.517.682 1.163 1.142 1.66.497.523.78 1.202 1.233 1.762.237.29.551.516.75.838.422.776 1.22 1.257 1.706 1.987.406.683 1.045 1.178 1.586 1.744.58.543 1.078 1.196 1.781 1.59.494.309.827.813 1.332 1.109.564.303.909.876 1.466 1.188 1.226.766 2.364 1.694 3.718 2.238.778.321 1.455.848 2.267 1.094.778.217 1.459.67 2.236.887 1.034.422 2.172.452 3.212.843.54-.003 1.076.015 1.55.309 2.11.051 4.224.013 6.34.02.444.04.792-.337 1.234-.308.741.08 1.39-.348 2.117-.41 1.515-.22 2.869-.976 4.338-1.363 2.374-1.12 4.716-2.332 6.843-3.875.645-.604 1.402-1.074 2.119-1.588.53-.473.978-1.046 1.607-1.4.876-.69 1.637-1.516 2.377-2.341.44-.815 1.233-1.345 1.832-2.037.92-1.298 1.912-2.552 2.838-3.85.496-.623.833-1.352 1.342-1.965 1.024-1.86 2.21-3.638 3.07-5.585.355-.68.78-1.336.926-2.103 1.334-2.605 2.188-5.42 3.11-8.183.007-.1.025-.3.033-.398.31-.387.416-.873.517-1.345.32-1.47.843-2.893 1.066-4.385.276-1.327.462-2.665.787-3.983.158-.552.053-1.142.242-1.687zm3.713-4.208c.565-.296 1.218-.117 1.826-.188-.035-.4-.247-.744-.37-1.116-.049-.52.12-1.09-.173-1.562.034-1.846-.474-3.65-.747-5.46-.01-.542-.119-1.072-.235-1.597-.473-2.707-.786-5.433-1.328-8.126-.058-.778-.147-1.553-.404-2.295-1.282-.065-2.526.336-3.778.536-1.707.03-3.359.583-5.07.586-.907.264-1.856.19-2.781.32-.92.336-1.92.02-2.847.316-.787.302-1.643.073-2.454.242-1.115.304-2.283.014-3.407.264-1.306.315-2.658.068-3.98.22l-.192.266c-1.58.14-3.179-.009-4.765.09-1.462.715-3.11-.067-4.647.277-6.117.05-12.236-.013-18.356.02-.434.016-.782-.35-1.22-.319a145.418 145.418 0 0 0-3.71-.003c-.387.047-.702-.213-1.061-.3-1.133-.101-2.282.07-3.41-.088-1.136-.35-2.382.142-3.482-.347-.782-.212-1.599-.036-2.39-.13-.863-.417-1.853-.06-2.744-.26-.843-.568-1.916-.013-2.812-.394-.655-.222-1.41.161-2.02-.214-.554-.361-1.25.002-1.826-.28-.59-.279-1.29.055-1.866-.25-.645-.397-1.448.017-2.1-.363-.438-.14-1.212-.387-1.379.225-.418.63.008 1.427-.406 2.052-.23.414-.132.91.004 1.338-.669.58-.092 1.5-.582 2.15-.223.434.013.95-.163 1.4-.221.507-.08 1.062-.128 1.593-.106.321-.353.613-.322.968-.02.3.08.63-.098.903-.305.5.043 1.139-.273 1.635-.373.524.005 1.21-.342 1.748-.256.413-.126.88-.048 1.322-.227.549-.372 1.113-.303 1.714-.28.495-.226 1.054-.257 1.603-.225.412-.363.853-.304 1.33.6.053 1.25-.127 1.802.18.582.305 1.266.008 1.868.24.59.233 1.261-.067 1.83.244a1.9 1.9 0 0 0 1.313.1c.513-.185.893.377 1.402.308.502.048 1.054-.139 1.519.117.682.422 1.52.026 2.25.273.802.318 1.721-.12 2.497.278.68.334 1.462.074 2.167.115.94.483 2.019.195 3.028.27 1.011.569 2.205.218 3.307.322 1.3.377 2.679.083 4.004.212.92.409 1.941.275 2.918.305 1.064-.045 2.151.118 3.192-.148.27.164.512.437.86.368 6.94.005 13.878.007 20.817 0 .348.07.59-.204.861-.368 1.158.277 2.364.102 3.544.147.858-.01 1.75.056 2.557-.3.957-.098 1.936.05 2.901-.053 1.129-.39 2.36.006 3.508-.229 1.093-.689 2.565.223 3.595-.579.568.143 1.16.11 1.743.098.438 0 .788-.37 1.233-.331.675-.013 1.377.109 2.033-.106.733-.241 1.567.143 2.25-.277.67-.344 1.504.123 2.16-.285.599-.407 1.321.18 1.946-.195.607-.352 1.32-.06 1.958-.286.61-.225 1.295.06 1.887-.246zM170.14 55.599c-.7-.844-1.535-1.578-2.327-2.336.373-.702.158-1.492.283-2.235.358-.72.007-1.545.3-2.282.19-.524.146-1.08.176-1.625.22-.207.566-.068.84-.121.538 1.18 1.756 1.82 2.411 2.915.4.652 1.104 1.044 1.48 1.71.573.814 1.47 1.37 1.97 2.245.366.618 1.02.994 1.41 1.591.527.91 1.499 1.453 2.042 2.351.436.762 1.241 1.211 1.733 1.93.286.44.683.796.957 1.246-.506.349-1.013.061-1.506-.132-.773.055-1.434-.455-2.213-.348-1.12-.327-2.328-.32-3.437-.702-.36-.034-.733-.022-1.062-.193-.466-.261-1.013-.106-1.519-.18-.36-.258-.394-.728-.569-1.1-.312-.916-.693-1.805-.969-2.734zm-12.776 2.735c-.316-.505-.107-1.14-.425-1.652-.012-.562-.099-1.162.149-1.69.458.17.896.462 1.133.9.991 1.35 1.868 2.79 3.016 4.02.438.725 1.106 1.267 1.543 1.992a308.374 308.374 0 0 0 5.108 5.068c1.226.429 2.457.845 3.695 1.245.483.803.478 1.753.725 2.628.376.97.633 1.978.87 2.988.8.973 1.956 1.56 2.909 2.365.653.54 1.442.9 2.05 1.5.753.494 1.678.691 2.371 1.29.75.453 1.616.712 2.31 1.263-.417.236-.934.32-1.373.087-.53-.302-1.169-.159-1.708-.442-1.098-.151-2.18-.45-3.292-.538-.52-.163-1.017-.358-1.575-.318a2.903 2.903 0 0 0-1.407-.32c-1.004-.382-2.12-.272-3.112-.667-.303-.061-.615-.019-.917-.082-.257-.106-.485-.314-.781-.281-1.908-.007-3.817.004-5.723-.007-.076-1.351-.157-2.698-.13-4.054-.713-.296-1.206-.901-1.746-1.424-.426-.424-1.045-.614-1.394-1.122-.128-1.208-.58-2.377-.58-3.606-.268-.544-.093-1.177-.386-1.707-.29-.5.047-1.129-.293-1.614-.198-.865-.384-1.742-.4-2.63-.264-.49-.08-1.073-.361-1.55-.312-.504.028-1.142-.276-1.642zm27.144 8.101c-.376-.287-1.114-.338-1.122-.914.002-2.13-.034-4.259.02-6.387.283-.02.58-.124.862-.026 1.632 1.595 3.198 3.26 4.859 4.828.373.345.566.83.902 1.206 1.407 1.435 2.853 2.835 4.268 4.261.298.735-.822.612-1.239.465-.684-.452-1.54-.037-2.244-.419-.901-.031-1.916-.079-2.593-.755-1.257-.715-2.54-1.41-3.713-2.259zm-41.25 20.46a27.6 27.6 0 0 0-.272 1.687c-1.04.07-2.054-.217-3.092-.198-.373.877-.443 1.826-.364 2.768l.373.033c.595.164 1.397-.225 1.84.267.097.742.03 1.491-.5 2.067-.699-.33-1.465-.425-2.231-.386-.084.87-.328 1.713-.423 2.58 1.066.622 2.376.279 3.45.91-.054.417-.106.837-.229 1.245-.066.171-.142.34-.224.506-.407-.029-.842.039-1.216-.155-1.325-.437-2.763-.38-4.112-.72.074-1.44.508-2.827.607-4.26.429-1.829.55-3.708.943-5.542.104-.526-.04-1.115.253-1.592.356-.086.717.032 1.07.071 1.099.134 2.198.265 3.302.322l.133.063c.228.113.461.222.693.335h-.001zm57.027 8.79a3.973 3.973 0 0 0 .305 1.762c-.649.596-1.548.322-2.34.399-.58-.864-1.035-1.804-1.491-2.737-.622-.993-.885-2.212-1.765-3.04.447 2.012.548 4.078.983 6.09-.723.083-1.438.225-2.138.425-.043-.713-.08-1.427-.233-2.124-.132-.617-.083-1.267-.313-1.86-.43-.728.089-1.649-.385-2.357-.344-.66.113-1.484-.296-2.133-.174-.584.044-1.225-.148-1.811-.158-.534-.098-1.09-.075-1.636.702-.08 1.5.198 2.11-.263.466.42.451 1.083.737 1.607.706 1.333 1.444 2.68 1.839 4.14l.066.441.48.036c-.072-.292-.133-.582-.228-.865-.453-.556-.129-1.286-.36-1.914-.2-.645.08-1.362-.26-1.973-.246-.466-.133-1.015-.13-1.52.201-.344.606-.2.933-.235.328 0 .62-.175.933-.256.096.416.26.808.4 1.212.047.553-.118 1.146.213 1.64.28.463-.04 1.05.237 1.514.23.417.036.92.192 1.36.193.618.226 1.257.234 1.895.363.7.026 1.532.5 2.202zm-51.726-8.375c.766 0 1.522.144 2.284.202.027.066.08.201.11.268-.474.785-.77 1.67-1.36 2.385-.429.865-.838 1.74-1.32 2.582-.326.488-.009 1.052.15 1.54.09.922.701 1.698.789 2.624.072.851.61 1.584.677 2.43-.65-.217-1.325-.266-2.007-.242-.514.062-.632-.555-.642-.94-.187-.794-.541-1.558-.59-2.382-.083.065-.166.128-.25.191-.477.913-.926 1.84-1.346 2.78-.817-.048-1.667.046-2.45-.23.13-.51.423-.956.71-1.392.526-.837.887-1.769 1.47-2.57.289-.606.77-1.166.756-1.867.046-.718-.391-1.339-.447-2.04-.346-1.222-.728-2.43-1.056-3.66a29.426 29.426 0 0 1 2.268-.002c.195.335.334.702.38 1.09.104.808.428 1.573.435 2.394.204-.43.482-.83.575-1.302.131-.685.627-1.212.864-1.857zm43.337 6.867c.506.816.243 1.81.293 2.72-.217.49-.468.972-.735 1.436-.334.367-.856.481-1.27.733-.699.078-1.408.044-2.109.029-.88-.32-1.634-.973-1.988-1.852-.037-.667.083-1.357-.248-1.97-.003-1.045.003-2.105-.28-3.121a52.164 52.164 0 0 1-.01-2.994c.234-.703.747-1.29 1.37-1.682.382-.283.888-.156 1.332-.19.652.043 1.413-.152 1.96.3.552.52 1.161 1.11 1.225 1.91.225.739.253 1.5.228 2.266.365.758.148 1.608.232 2.415zm-1.979 2.204c-.04-.614.116-1.276-.17-1.85-.392-.785.103-1.734-.32-2.506-.359-.676-.038-1.468-.227-2.186-.193-.257-.368-.699-.768-.602-.363-.025-.55.347-.813.533.015.46-.093.948.054 1.388.566.884.074 1.973.362 2.929.253.735 0 1.525.155 2.276.15.446.633.576.982.832.26-.26.556-.494.745-.814zm-35.161-8.67c1.285.096 2.37 1.007 2.88 2.162.02 1 .013 2 .002 3-.2.502-.458.976-.735 1.44-.29.435-.812.598-1.237.864-.533.416-1.243.2-1.863.232-.139.335-.307.658-.412 1.007-.038 1.025.048 2.058-.033 3.082-.084.08-.256.234-.34.314-.594-.31-1.231-.482-1.906-.404 0-.954-.12-1.932.112-2.869.215-1.004-.206-2.112.273-3.055.076-.782-.066-1.58.06-2.354.534-.988.179-2.14.291-3.209l.245-.202c.888-.022 1.774 0 2.663-.008zm.92 3.56c.157-.58-.408-.922-.742-1.295-.323.006-.649.004-.972.002-.33 1.007-.032 2.09-.239 3.121.546.014 1.103.027 1.613-.201-.04-.572.158-1.098.34-1.627zm29.11 4.297c.128.9.01 1.815.064 2.721.116.369.304.716.34 1.108-.432.04-.905-.062-1.277.215-.317.24-.714.126-1.044-.013.008-.523.085-1.074-.248-1.522-.279-1.256.226-2.647-.3-3.862-.068-1.153.11-2.321-.156-3.457-.081-.976-.02-1.958-.04-2.936.56-.172 1.155-.111 1.734-.103.312.19.2.56.25.863.593 1.079.196 2.348.321 3.52.533 1.077-.016 2.342.356 3.466zM164.01 88.4c.3.477.093 1.102.125 1.64l-.217.245c-1.026.054-2.056-.01-3.083.028.011.884.028 1.769-.02 2.653.772.226 1.586.092 2.378.108-.099.702-.221 1.4-.253 2.108-.777.016-1.554.002-2.33.018.034.891.034 1.783-.002 2.673 1.078.037 2.157-.033 3.233.05.034.755.044 1.51-.002 2.264-1.804-.357-3.651-.142-5.477-.21-.302-1.286-.083-2.611-.02-3.91.057-.208.227-.384.22-.61.01-1.625-.013-3.252.007-4.878.49-.768.242-1.682.325-2.538.923.042 1.896-.163 2.774.198.776.096 1.606-.161 2.342.16zm17.026-.353c.227.594.05 1.29.095 1.925-.633.124-1.436-.22-1.942.227-.01.476-.01.953.005 1.43.09.352.34.666.31 1.046 0 1.226.006 2.452-.003 3.679-.067.449.382.773.338 1.224-.026.798.094 1.616-.128 2.397-.714.005-1.426.013-2.137.002l-.002-.159c-.074-1.567.171-3.17-.254-4.703-.165-1.597-.013-3.207-.093-4.81-.56-.015-1.12.019-1.68-.016-.393-.217-.151-.693-.326-1.024-.113-.248-.192-.517-.11-.786.287-.207.566-.511.955-.445 1.656.01 3.316-.03 4.97.013zm-6.938.335c.213.997.018 2.022.116 3.027.064.304.2.595.173.914-.004 2.458.007 4.916 0 7.375-.44.594-1.392.437-2.064.444-.001-.532.053-1.083-.213-1.564-.119-2.367.085-4.756-.133-7.122.045-1.021-.098-2.06.098-3.07a3.672 3.672 0 0 1 2.023-.004zm-5.065.04a5.13 5.13 0 0 1 1.855 1.974c.026 2.69.03 5.384.001 8.076-.56.396-.989.93-1.48 1.4-.487.26-1.07.299-1.614.294-.98-.01-1.958.006-2.935-.014-.021-2.667-.01-5.333 0-7.997.285-1.246.121-2.527.18-3.794 1.327.04 2.673-.077 3.993.062zm-.241 8.658c.005-1.88.002-3.76 0-5.64.038-.317-.187-.552-.34-.801a38.96 38.96 0 0 0-1.324-.007c.027 2.417.027 4.835 0 7.252.44.004.884.003 1.324-.005.145-.252.365-.49.34-.8zm37.34-8.154c.551.43.938 1.02 1.2 1.659.04.579.043 1.163-.004 1.743a5.45 5.45 0 0 1-1.191 1.646c-1.004.331-2.158.374-3.153.004a4.81 4.81 0 0 1-1.24-1.47 15.618 15.618 0 0 1-.002-2.11c.402-.892 1.177-1.594 2.143-1.81.766-.199 1.535.058 2.247.338zm-1.796 3.863c.644-.198 1.168-.686 1.346-1.34-.122-.431-.44-.768-.685-1.132-.37-.013-.812-.12-1.07.228-.258.31-.798.556-.749 1.01.352.442.81.787 1.158 1.233zM131.7 88.643c1.106-.41 2.235.218 3.051.933.772.77.51 1.906.51 2.88-.343.86-1.133 1.505-2.026 1.73-.65.078-1.31.051-1.951-.08-.552-.062-.826-.59-1.15-.973-1.173-1.487-.367-4.137 1.566-4.49zm1.004 3.964c.467-.252.775-.703 1.027-1.153-.226-.419-.499-.816-.877-1.113-.717-.252-1.484.311-1.666.994-.016.745.789 1.372 1.516 1.272zm14.697 16.663c-.711.073-1.388-.218-2.097-.202-.096.623.138 1.312-.224 1.873-.32.553.064 1.257-.254 1.82-.289.526-.16 1.14-.218 1.713-.4-.04-.93.169-1.184-.24-.018-.593-.13-1.233.164-1.776.355-.558-.044-1.263.276-1.826.33-.53.14-1.171.213-1.756-.384-.007-.768-.01-1.152-.008-.313-.305-.933-.808-.405-1.219.547-.028 1.108-.037 1.643.12.51.135 1.069-.06 1.552.198.53.265 1.25-.156 1.677.312.027.33.013.66.01.99zm46.858 3.09c.16.572.043 1.188.06 1.78-.4-.055-.96.222-1.21-.21.021-.623.061-1.263-.284-1.816.026-.678-.185-1.39-.857-1.688-.28.18-.56.356-.834.537.053.881-.176 1.817.235 2.637.02.262 0 .525-.002.79-.412.09-.831.146-1.252.17.155-.604-.274-1.12-.204-1.714-.006-.394.053-.811-.16-1.166-.345-.557.041-1.25-.267-1.811-.36-.609-.254-1.353-.106-2.008.346-.096.691-.195 1.043-.262.145.334.216.688.104 1.045-.144.495.204.928.353 1.376.187-.182.367-.369.568-.53.79-.178 1.656 0 2.245.563.464.693.158 1.592.568 2.305zm-6.387-1.364c.417.819.224 1.739.296 2.618.426.04.85.104 1.27.196-.014.346-.023.692-.05 1.037-.543.02-1.109.137-1.639-.023-.918-.722-.902-1.982-.853-3.038.05-.554-.61-.557-.986-.688-.164.944-.296 1.891-.645 2.79-.187.411-.081.876-.12 1.312-.38.014-.757.019-1.134.01-.554-.835-1.028-1.748-1.217-2.74-.396.804-.429 1.708-.634 2.563-.128.18-.28.342-.415.516a19.801 19.801 0 0 1-.725-.017c-.358-.177-.4-.618-.55-.944-.505-1.166-.9-2.371-1.423-3.53.137-.406.607-.2.929-.231.397-.022.51.437.61.736.273.695.442 1.434.809 2.088.21-1.063.456-2.12.822-3.145l.97.001c.208.954.645 1.837.96 2.759l.316.024c-.067-1.017.24-1.985.326-2.99.613-.063 1.224-.164 1.843-.148-.062-.441 0-.872.176-1.281.332.032.65.134.956.258.07.29.152.575.23.864.261-.008.523-.014.787-.018.155.287.322.568.5.845-.452.172-.935.17-1.41.176zm-21.71 4.354c-.383-.485-.625-1.065-.886-1.622-.013-.585-.028-1.172.01-1.754.443-.666.602-1.636 1.424-1.961.47-.203.96-.363 1.438-.552a16.233 16.233 0 0 1 1.586 0c.341.161.67.352.996.545l-.227.654c-.933-.002-1.866-.011-2.799 0-.32.37-.749.66-.955 1.113-.583.996-.248 2.507.829 3.04.582.454 1.368.193 2.05.231a34.432 34.432 0 0 1 .003-1.607c-.389.001-.778.025-1.164.07a35.404 35.404 0 0 0-.239-.65l.232-.472c.808 0 1.617-.015 2.425.02.031 1.1.018 2.2.014 3.299-.984.427-2.076.21-3.116.257-.613.044-1.111-.334-1.62-.61zm-18.464-5.207c.873-.14 2.033-.18 2.516.718.503.562.414 1.322.383 2.017-.25.383-.753.19-1.132.193-.635-.377-1.367-.298-2.074-.297.053.314-.104.8.322.896.68.534 1.573.28 2.367.343.013.285.022.575.03.864-.811.021-1.627.069-2.434-.01-.665-.087-1.082-.662-1.458-1.155a10.84 10.84 0 0 1-.002-1.898c.187-.367.35-.744.543-1.108.306-.199.617-.39.94-.563zm-.373 1.722c.72.027 1.44.03 2.156.015-.098-.376-.383-.641-.643-.914-.699-.143-1.12.429-1.513.898zm4.417-1.36c1.006-.02 2.159-.138 2.905.686.104 1.438.036 2.891.019 4.335a1.88 1.88 0 0 1-1.44-.342c-.273.207-.567.456-.938.358-.568-.181-1.058-.54-1.509-.92.01-.548-.135-1.161.26-1.617.519-.832 1.62-.72 2.456-.925-.055-.884-1.304-.653-1.833-.337-.148-.229-.47-.434-.376-.744.141-.174.304-.331.456-.493zm1.816 3.435c.063-.274.023-.56.019-.84-.204.014-.433-.02-.605.12-.428.083-1.053.123-1.101.682-.09.48.456.652.76.88.327-.259.7-.484.927-.842zm3.221 1.833a98.342 98.342 0 0 1-1.085-.01c.011-1.323-.134-2.668.152-3.97.055-.317-.072-.686.119-.962.47-.128.855.141 1.222.397.658-.808 1.771-.313 2.367.313.618-.663 1.61-.374 2.407-.309.446.557.685 1.246.651 1.958-.09.89-.044 1.79-.044 2.685-.386.187-.815.26-1.224.087-.048-1.164.036-2.33-.002-3.494a12.547 12.547 0 0 1-.813-.485c-.245.223-.5.439-.76.646.018 1.034.01 2.067 0 3.101a2.396 2.396 0 0 1-1.479.016c.123-.249.295-.49.271-.78-.013-.884.05-1.773-.03-2.65-.246-.421-.77-.247-1.165-.284-.903 1.06-.163 2.524-.587 3.74zm19.1.062c-1.1-.262-1.417-1.52-1.696-2.456.29-.707.457-1.57 1.107-2.041.26-.248.64-.176.965-.203.594.002 1.19-.025 1.786.032.754.459 1.115 1.352 1.155 2.197.253 1.667-1.764 3.232-3.317 2.471zm-.213-3.159c.074.575-.212 1.284.244 1.747.374.463 1.143.564 1.633.238.254-.43.547-.881.427-1.402a4.1 4.1 0 0 0-.784-1.239c-.637-.141-1.123.204-1.52.656zm-13.83 10.901c.098-.199.323-.287.495-.407.653-.384 1.269-.864 2.008-1.073.008.179.02.54.026.72.264-.102.53-.198.8-.288.862.714 1.404 1.715 2.042 2.618-.246.23-.495.456-.753.672a17.695 17.695 0 0 0 1.974 2.623c.546-.238.71-.848 1.085-1.258.317-.382.56-.816.882-1.193a25.93 25.93 0 0 1-.613-.68c.456-.891.958-1.795 1.7-2.484.524-.12 1.019-.405 1.556-.432.763.263 1.395.789 2.072 1.211-.179.203-.356.407-.533.611.734.069 1.471.125 2.208.174l.304.373c-.633.371-.868 1.084-1.374 1.576-.305.336-.66.625-.96.967-.378.547-.68 1.147-1.123 1.652a17.034 17.034 0 0 1-1.097-1.16c-.418.87-1.232 1.438-1.69 2.282-.107.166-.289.354-.122.553.366.447.797.843 1.262 1.19-.443.65-1.169.999-1.757 1.497-.24.16-.498.417-.811.272-.312-.296-.6-.615-.917-.903-.466.296-.741 1.043-1.365.98-.749-.62-1.59-1.135-2.224-1.89a6.82 6.82 0 0 1 1.389-1.162l.061-.225c-.68-.814-1.445-1.603-1.887-2.573-.065 0-.197.005-.264.006-.162.45-.485.802-.826 1.13-.592-.539-.946-1.266-1.47-1.861-.553-.912-1.609-1.418-2.038-2.409.59-.486 1.329-.594 2.073-.49-.043-.207-.099-.41-.114-.619zm-.996 3.195c.38.327.705.709.957 1.143.417.535 1.126 1.093.982 1.84-.402.41-.773.85-1.109 1.315-.586-.284-1.229-.497-1.702-.963-.448-.446-1.113-.663-1.403-1.255-.45-.557-.573-1.275-.933-1.882-.236-.387-.15-.874-.105-1.302.485-.476 1.163-.86 1.859-.622.594.48.87 1.233 1.452 1.726zm17.607 1.92c-.914.985-1.926 1.988-3.256 2.373a11.931 11.931 0 0 0-.965-1.313c-.055-.279-.018-.564-.018-.842 1.278-1.158 2.061-2.765 3.415-3.858.688-.252 1.37.147 1.846.617.076.314.076.661-.072.956-.293.697-.462 1.47-.95 2.067zm-7.127 4.489c.38-.318.789-.67 1.318-.656.812 1.01 1.59 2.04 2.273 3.144-.56.663-1.292 1.137-2.017 1.6-.681.22-.977-.437-1.249-.907-.649-.666-1.2-1.418-1.74-2.169.466-.345.983-.623 1.415-1.012zm-4.489 1.428c-.635.472-.884 1.256-1.503 1.742-.36.261-.362.928-.894.935-1.035-.099-1.707-1-2.427-1.647.743-1.104 1.405-2.28 2.438-3.154.913.334 1.532 1.1 2.361 1.569l.027.556zm5.137 11.525c.346.278.686.576.952.94-.426.052-.855.06-1.284.059-.508-.551-.365-1.303-.363-1.984l-.397-.327c.032-.254.076-.507.127-.755.116-.358.622-.375.917-.557-.098.62.445.881.987.888l-.112.46c-.28.078-.56.154-.838.226.005.35.007.699.01 1.05zm6.93-2.677c.603.385 1.146 1.005 1.218 1.736-.554.028-1.105.091-1.65.19l.009.375c.528-.05 1.058-.104 1.589-.067l.009.53a2.946 2.946 0 0 1-1.972.394c-.488-.562-.983-1.22-.896-2.004-.182.073-.364.147-.545.222.036.656.112 1.311.067 1.97-.29-.002-.58-.006-.87-.013-.04-.672.114-1.378-.125-2.022-.451.564-.185 1.309-.245 1.969-.63.124-1.213.463-1.874.407a17.96 17.96 0 0 0-.653-.578 72.33 72.33 0 0 1 .01-2.314l.546.072c-.04.619.213 1.184.383 1.769.013.323.665.222.534-.133.03-.62-.016-1.236.028-1.855.397-.024.769.1 1.133.247l-.059-.16a8.656 8.656 0 0 0 1.66-.459c.098.246.193.496.282.749.164-.623.84-.933 1.422-1.025h-.002zm-.94 1.454a6.023 6.023 0 0 0 1.1-.38c-.446-.314-.907-.07-1.1.38zm-8.657-.517c.344.08.704.14 1.01.326.508.63.528 1.484.524 2.257l-.814.108c-.04-.548.013-1.111-.124-1.648-.216-.333-.635-.179-.956-.168a33.264 33.264 0 0 0-.044 1.963l-.613.109c-.456-.943-.14-2.04-.213-3.049.412.003.823.037 1.23.102zm-3.025 2.046c.61-.042 1.22.01 1.71.419-.339.232-.692.447-1.057.636a16.168 16.168 0 0 0-1.322-.544c-.187-.61-.424-1.326-.01-1.9.262-.673 1.07-.736 1.69-.755.174.28.39.533.612.778-.007.324-.017.65-.028.979a44.516 44.516 0 0 0-1.605.003c0 .096.007.287.008.384zm.426-1.479c-.353-.132-.52.278-.734.475.44.031.883.031 1.326-.006-.19-.167-.364-.357-.59-.469zm5.06-31.707c-.32-.592-.16-1.281-.18-1.921.442-.035.88.013 1.314.066.244-.114.468-.261.717-.36.282-.04.534.14.804.198a5.403 5.403 0 0 1-.141.995c-.376.067-.753.137-1.133.183-.248 1.152-.05 2.346-.116 3.515a1.398 1.398 0 0 1-1.255-.058c-.002-.873.042-1.749-.01-2.618zm-7.3 31.508c.18-.274.722-.79.857-.216-.067.354-.239.68-.325 1.034a2.551 2.551 0 0 1-.74 1.521c-.241.02-.483.03-.725.028-.182-.897-.508-1.77-.898-2.598-.248.871.147 1.817-.243 2.659-.575-.252-1.166-.447-1.803-.388-.517.087-.593-.49-.813-.817a22.6 22.6 0 0 0-.02.823l-.64-.033c-.214-.424-.438-.839-.654-1.259-.269.006-.54.016-.809.022-.195.303-.382.613-.583.914-.225-.072-.447-.15-.667-.235l.048-.583c.613-.915 1.104-1.901 1.626-2.866.275-.02.547-.04.821-.054.213.888.34 1.827.776 2.64.233-.426.489-.84.786-1.224a12.89 12.89 0 0 1 1.24-.013c.034-.415.122-.817.233-1.215.291.047.577.13.869.186 0 .332-.004.663-.015.999.376.13.74.293 1.057.538.01.34.017.682.033 1.024.472-.039.366-.594.589-.888zm-2.963 1.324a1.09 1.09 0 0 0-.004-1.267c-.338.057-.823-.103-.943.332-.239.291.053.638.139.931.269-.001.538-.001.808.004zm-3.58-1.232c.24 0 .483-.003.725-.01a11.81 11.81 0 0 0-.244-1.069c-.263.31-.47.664-.48 1.08v-.001z" fill="#fff"/></g></svg>