<svg height="200" width="336" xmlns="http://www.w3.org/2000/svg"><g fill="none"><path d="m0 0h336v200h-336z" fill="#6b5aed"/><path d="m138.985 98.282c0 1.086.109 2.097.326 3.034s.57 1.751 1.059 2.444a5.122 5.122 0 0 0 1.894 1.629c.774.394 1.704.59 2.79.59 1.031 0 1.982-.176 2.85-.53.87-.352 1.535-.719 1.996-1.099v-13.358c-.38-.109-.89-.204-1.527-.285-.638-.082-1.527-.123-2.668-.123-2.036 0-3.665.666-4.887 1.996s-1.833 3.231-1.833 5.702zm-3.197-4.623c.502-1.37 1.215-2.531 2.138-3.482.923-.95 2.037-1.683 3.34-2.2 1.303-.515 2.77-.773 4.398-.773 1.765 0 3.32.13 4.664.387 1.344.258 2.464.496 3.36.713v29.54l-3.788.694v-10.644c-.461.298-1.16.61-2.097.936s-2.016.489-3.238.489c-1.52 0-2.871-.271-4.053-.815a8.422 8.422 0 0 1 -2.993-2.28c-.815-.978-1.432-2.145-1.853-3.503-.42-1.357-.631-2.837-.631-4.44 0-1.71.25-3.25.753-4.622zm41.922 4.582c0 1.684-.244 3.204-.733 4.562-.489 1.357-1.174 2.525-2.057 3.502a9.047 9.047 0 0 1 -3.156 2.26c-1.222.53-2.552.795-3.991.795-1.44 0-2.77-.265-3.992-.794a9.047 9.047 0 0 1 -3.156-2.26c-.882-.978-1.568-2.146-2.057-3.503-.488-1.358-.733-2.878-.733-4.562 0-1.656.245-3.17.733-4.54.489-1.372 1.175-2.546 2.057-3.524a9.047 9.047 0 0 1 3.156-2.26c1.222-.53 2.553-.794 3.992-.794s2.77.264 3.99.794a9.047 9.047 0 0 1 3.157 2.26c.883.978 1.568 2.152 2.057 3.523s.733 2.885.733 4.541zm-3.95 0c0-2.39-.537-4.283-1.61-5.681-1.072-1.399-2.531-2.098-4.377-2.098-1.847 0-3.306.7-4.379 2.098-1.072 1.398-1.608 3.292-1.608 5.681 0 2.39.536 4.283 1.608 5.682 1.073 1.398 2.532 2.097 4.379 2.097 1.846 0 3.305-.699 4.378-2.097 1.072-1.399 1.609-3.292 1.609-5.682zm8.097-9.978c.87-.217 2.023-.448 3.462-.692 1.44-.245 3.096-.367 4.969-.367 1.683 0 3.082.238 4.195.713s2.002 1.14 2.668 1.995c.665.856 1.133 1.88 1.405 3.075.271 1.195.407 2.512.407 3.95v11.893h-3.788v-11.078c0-1.303-.088-2.416-.264-3.34-.177-.922-.469-1.669-.876-2.24a3.465 3.465 0 0 0 -1.63-1.241c-.678-.258-1.52-.387-2.524-.387-.408 0-.828.013-1.263.04-.434.028-.848.062-1.242.102-.394.041-.747.089-1.059.143s-.536.095-.672.122v17.88h-3.788v-20.569zm25.733-.61h8.024v3.176h-8.024v9.774c0 1.06.082 1.935.245 2.627.163.693.407 1.236.733 1.63.326.393.733.671 1.222.834.488.163 1.058.245 1.71.245 1.14 0 2.057-.13 2.75-.387a75.957 75.957 0 0 0 1.445-.55l.733 3.136c-.38.19-1.045.428-1.996.713-.95.285-2.036.427-3.258.427-1.439 0-2.627-.183-3.563-.55-.937-.366-1.69-.916-2.26-1.649s-.971-1.636-1.202-2.708c-.23-1.073-.346-2.315-.346-3.727v-18.897l3.787-.652v6.557zm30.335 10.588c0 1.684-.244 3.204-.733 4.562-.488 1.357-1.174 2.525-2.056 3.502a9.047 9.047 0 0 1 -3.157 2.26c-1.222.53-2.552.795-3.991.795-1.44 0-2.77-.265-3.991-.794a9.047 9.047 0 0 1 -3.157-2.26c-.882-.978-1.568-2.146-2.056-3.503-.49-1.358-.734-2.878-.734-4.562 0-1.656.245-3.17.734-4.54.488-1.372 1.174-2.546 2.056-3.524a9.047 9.047 0 0 1 3.157-2.26c1.221-.53 2.552-.794 3.99-.794 1.44 0 2.77.264 3.992.794a9.047 9.047 0 0 1 3.157 2.26c.882.978 1.568 2.152 2.056 3.523.489 1.371.733 2.885.733 4.541zm-3.95 0c0-2.39-.536-4.283-1.609-5.681-1.072-1.399-2.532-2.098-4.378-2.098s-3.306.7-4.378 2.098c-1.073 1.398-1.61 3.292-1.61 5.68 0 2.39.536 4.283 1.609 5.682 1.072 1.398 2.532 2.097 4.378 2.097s3.306-.699 4.378-2.097c1.073-1.399 1.609-3.292 1.609-5.682zm-132.205-4.714a12.953 12.953 0 0 1 -3.77-8.454 12.877 12.877 0 0 1 8.426 3.782 12.962 12.962 0 0 1 3.77 8.455 12.878 12.878 0 0 1 -8.426-3.783zm18.254 0a12.878 12.878 0 0 1 -8.426 3.783 12.962 12.962 0 0 1 3.77-8.455 12.877 12.877 0 0 1 8.426-3.782 12.953 12.953 0 0 1 -3.77 8.454zm0 8.885a12.953 12.953 0 0 1 3.77 8.455 12.877 12.877 0 0 1 -8.426-3.783 12.962 12.962 0 0 1 -3.77-8.455 12.878 12.878 0 0 1 8.426 3.783zm-18.254 0c2.242-2.258 5.288-3.608 8.47-3.784-.173 3.184-1.558 6.195-3.814 8.456a12.877 12.877 0 0 1 -8.426 3.783 12.953 12.953 0 0 1 3.77-8.455z" fill="#f5f6fa"/></g></svg>