<svg height="200" width="336" xmlns="http://www.w3.org/2000/svg"><g fill="none"><path d="M0 0h336v200H0z" fill="#cb3b43"/><path d="M158.627 77.322h19.746v19.47h-19.746zm0 21.324h19.746v19.469h-19.746zM180.254 56H200v19.469h-19.746zm-21.627 0h19.746v19.469h-19.746zM137 56h19.746v19.469H137zm0 73.24v3.008h4.647V145h3.87v-12.752h4.647v-3.008zm20.503 5.68a84.157 84.157 0 0 0-.315 3.329c-.09 1.155-.18 2.32-.246 3.476a159.16 159.16 0 0 0-.196 3.275h2.856c.042-1.377.086-2.753.135-4.13.06-1.477.14-2.976.26-4.49l.587 1.668c.21.625.42 1.256.63 1.873.217.616.412 1.217.608 1.78.202.57.36 1.049.501 1.45h1.882l.518-1.45.644-1.78c.218-.617.435-1.248.668-1.873l.623-1.703c.107 1.506.189 3.014.246 4.523.053 1.488.112 2.868.143 4.132h2.863c-.052-1.025-.126-2.112-.195-3.276-.081-1.155-.164-2.32-.255-3.477a95.588 95.588 0 0 0-.308-3.329 83.19 83.19 0 0 0-.389-2.897h-2.48a19.28 19.28 0 0 0-.653 1.465c-.255.577-.503 1.21-.773 1.88-.27.678-.539 1.38-.794 2.08-.263.71-.502 1.373-.735 1.989a148.38 148.38 0 0 1-.704-1.989c-.255-.7-.51-1.402-.766-2.08-.254-.67-.51-1.303-.742-1.88a35.018 35.018 0 0 0-.614-1.465h-2.617a60.22 60.22 0 0 0-.382 2.898zm15.228-2.899h2.82V145h-2.82zm-21.626 0h2.821V145h-2.821zm35.73 0v2.466h-5.638v2.397h4.515v2.466h-4.514V145h-2.824v-12.979h8.462zm5.745 7.667l-2.573-4.108-2.23-3.56h3.026s.322.253 1.666 2.514c1.192 2.003 1.438 2.702 1.438 2.702s.23-.726 1.383-2.69c1.16-1.971 1.682-2.525 1.682-2.525H200l-4.766 7.667V145h-2.654z" fill="#fff"/></g></svg>