<?xml version="1.0" encoding="UTF-8" standalone="no"?><!DOCTYPE svg PUBLIC "-//W3C//DTD SVG 1.1//EN" "http://www.w3.org/Graphics/SVG/1.1/DTD/svg11.dtd"><svg width="100%" height="100%" viewBox="0 0 1701 993" version="1.1" xmlns="http://www.w3.org/2000/svg" xmlns:xlink="http://www.w3.org/1999/xlink" xml:space="preserve" xmlns:serif="http://www.serif.com/" style="fill-rule:evenodd;clip-rule:evenodd;stroke-linejoin:round;stroke-miterlimit:1.41421;"><path id="Base-Shape" d="M927.024,212.185l-653.715,255.13l25.351,258.462l726.524,140.537l325.291,-158.945l-60.651,-212.858l-362.8,-282.326Z" style="fill:#e15d44;"/><path id="Lettering" d="M1070.14,710.912l198.214,0l-198.214,43.659l0,-43.659Zm-299.014,0l0,44.711l-202.988,-44.711l202.988,0Zm186.22,-130.955c0,0 -3.86,-13.705 10.543,-40.058c14.403,-26.358 25.66,-11.95 25.66,-11.95c0,0 12.288,13.356 -1.761,33.39c-14.059,20.014 -34.442,18.618 -34.442,18.618Zm-110.678,18.966c-16.518,43.235 -56.571,25.655 -56.571,25.655c0,0 -4.568,-15.461 8.434,-58.68c12.996,-43.21 43.569,-26.358 43.569,-26.358c0,0 21.081,16.173 4.568,59.383m-29.869,-180.954c0,0 24.956,-65.004 30.926,-33.37c5.96,31.615 -52.361,125.785 -52.361,125.785c0.703,-21.081 21.435,-92.415 21.435,-92.415m-356.646,161.988c1.057,-41.814 28.462,-60.087 37.953,-50.945c9.491,9.131 5.97,28.806 -11.949,41.105c-17.915,12.298 -26.004,9.84 -26.004,9.84m755.804,-6.943c1.411,14.05 -7.027,18.857 -7.027,18.857c0,0 -34.791,26.009 -61.483,18.274c-26.707,-7.731 -28.114,-55.933 -28.114,-55.933l-2.469,0l-27.051,74.271c0,0 -10.882,37.2 -27.051,30.527c-16.163,-6.683 -15.814,-25.669 -15.814,-25.669c0,0 -25.291,29.125 -71.683,25.619c-40.576,-3.072 -53.688,-36.337 -53.688,-36.337c0,0 -27.121,20.134 -103.391,35.145c-34.119,3.716 -58.307,-17.121 -58.307,-17.121c-3.167,3.172 -23.545,12.907 -23.545,12.907c0,0 -29.161,12.478 -40.407,-7.895c-11.241,-20.363 -3.865,-86.459 -3.865,-86.459l-2.11,0c0,0 -16.867,36.217 -25.654,67.139c-8.778,30.921 -19.68,30.906 -19.68,30.906c0,0 -20.019,1.745 -24.588,-15.117c-4.568,-16.867 7.387,-79.427 7.387,-79.427l-1.766,0.294c0,0 -1.052,-1.835 -16.503,30.856c-26.358,63.942 -32.682,66.581 -47.793,63.808c-15.117,-2.783 -15.81,-22.159 -15.81,-22.159l-20.727,10.902c0,0 -50.596,20.458 -76.939,0.439c-17.55,-13.336 -23.555,-27.794 -25.625,-42.756l0.01,0c0,0 -22.437,0.26 -36.846,-5.366c-14.413,-5.631 0.11,-21.226 0.11,-21.226c0,0 4.429,-7.017 12.857,0c8.439,7.017 24.179,3.855 24.179,3.855c1.401,-11.077 3.74,-25.694 10.608,-41.13c14.408,-32.333 36.472,-43.255 54.391,-43.609c17.914,-0.349 30.572,4.509 41.464,19.969c24.244,60.092 -64.65,90.51 -64.65,90.51c0,0 -2.464,15.729 21.78,15.38c24.248,-0.339 61.139,-26.707 61.139,-26.707c1.76,-20.024 15.814,-82.923 19.675,-92.399c3.865,-9.496 18.627,-7.735 18.627,-7.735c0,0 11.596,-2.464 13.7,9.83c2.105,12.303 -8.428,62.196 -8.428,62.196l1.75,2.12c1.058,-4.928 26.707,-47.794 26.707,-47.794c0,0 14.758,-25.649 37.25,-24.602c22.483,1.052 -1.057,69.937 -1.057,69.937l1.756,2.105l1.76,-3.167c2.813,-7.746 36.188,-58.327 36.188,-58.327c0,0 12.653,-14.762 24.243,-11.251c11.591,3.516 12.299,8.783 13.007,18.632c0.698,9.83 -9.137,68.152 -9.137,68.152c0,0 -5.625,38.302 7.022,37.599c12.653,-0.688 26.353,-14.044 26.353,-14.044c0,0 9.84,-75.199 16.518,-137.385c6.678,-62.197 35.49,-104.01 35.49,-104.01c0,0 8.423,-13.002 30.691,-21.795c14.668,-5.166 30.657,-1.725 38.173,30.228c15.815,67.104 -55.513,146.517 -55.513,146.517c0,0 18.971,-30.213 42.87,-15.805c52.701,33.016 9.486,105.766 9.486,105.766c15.461,-4.923 43.215,-23.545 43.215,-23.545c0,0 0.564,-8.03 0.883,-9.87c9.431,-54.027 41.788,-73.528 47.843,-78.091c6.269,-4.708 61.603,-25.889 64.062,31.385c2.458,57.274 -69.214,77.303 -69.214,77.303c0,0 6.334,16.523 32.677,12.299c26.348,-4.21 56.566,-29.864 56.566,-29.864c1.052,-23.54 16.523,-79.762 19.68,-87.846c3.161,-8.08 22.487,-8.434 24.602,-3.871c2.808,9.142 0.339,49.2 0.339,49.2l2.11,-0.708c7.74,-22.832 23.894,-40.746 23.894,-40.746c0,0 13.002,-12.653 23.545,-9.581c10.538,3.087 6.683,39.799 6.683,39.799c0,0 -5.616,40.073 12.288,41.833c17.92,1.751 38.303,-14.039 38.303,-14.039c0,0 12.643,-5.242 14.054,8.827Zm-359.112,152.904c-0.539,2.848 -2.194,4.503 -4.972,4.962l-6.125,0c-2.932,-0.299 -4.583,-1.925 -4.967,-4.852l0,-4.614c-0.544,-5.785 -3.701,-9.027 -9.481,-9.715c-6.084,0.688 -9.401,3.93 -9.94,9.715l0,37.091c0.539,6.014 3.856,9.291 9.94,9.835c5.78,-0.544 8.937,-3.821 9.481,-9.835l0,-4.963c0.384,-2.927 2.12,-4.543 5.202,-4.862l5.665,0c2.923,0.394 4.658,2.01 5.197,4.862l0,4.963c-1.775,15.415 -10.289,23.819 -25.545,25.201c-15.565,-1.232 -23.969,-9.636 -25.201,-25.201l0,-37.45c1.162,-15.565 9.561,-24.148 25.201,-25.774c15.416,1.626 23.929,10.209 25.545,25.774l0,4.863Zm36.429,-30.634c15.495,1.541 24.009,10.054 25.55,25.55l0,37.674c-1.616,15.41 -10.135,23.814 -25.55,25.196c-15.406,-1.462 -23.845,-9.855 -25.311,-25.196l0,-37.674c1.312,-15.496 9.75,-24.009 25.311,-25.55Zm9.944,63.333l0,-37.324c-0.623,-6.015 -3.93,-9.292 -9.944,-9.83c-6.005,0.618 -9.282,3.895 -9.82,9.83l0,37.324c0.538,6.015 3.815,9.222 9.82,9.611c6.014,-0.389 9.321,-3.596 9.944,-9.611Zm77.837,20.003c-0.075,2.703 -1.461,4.05 -4.159,4.05l-0.694,0l-0.922,0l-4.623,0l-0.464,0l-0.689,0c-3.166,0.154 -5.361,-1.192 -6.598,-4.05c-5.775,-13.56 -11.475,-27.121 -17.101,-40.686l0,39.883c-0.309,2.997 -1.925,4.618 -4.858,4.853l-5.895,0c-2.773,-0.235 -4.314,-1.701 -4.623,-4.394l0,-78.256l0,-0.568c0.155,-2.324 1.466,-3.362 3.93,-3.127l7.286,0c3.083,-0.235 5.357,1.122 6.818,4.039c5.546,13.805 11.212,27.515 16.987,41.161l0,-40.343c0.314,-2.852 1.93,-4.468 4.862,-4.857l6.01,0c2.693,0.224 4.309,1.69 4.848,4.394l0,56.63c-0.07,6.938 -0.115,13.835 -0.115,20.692l0,0.579Zm57.529,-82.417c2.848,0.474 4.503,2.13 4.972,4.977l0,6.01c-0.469,3.082 -2.159,4.703 -5.087,4.853l-27.51,0c-1.541,0.149 -2.394,1.007 -2.548,2.543l0,14.912c0.154,1.541 1.007,2.344 2.548,2.434l17.456,0c2.843,0.384 4.434,1.96 4.738,4.723l0,6.249c-0.304,3.012 -1.93,4.548 -4.858,4.628l-17.336,0c-1.541,0.225 -2.394,1.122 -2.548,2.658l0,27.849c-0.225,2.928 -1.806,4.559 -4.738,4.863l-5.895,0c-2.768,-0.15 -4.314,-1.581 -4.618,-4.284l0,-15.605l0,-1.491l0,-55.025l0,-5.426c0.07,-2.699 1.421,-4.329 4.044,-4.868l41.38,0Zm-437.856,-258.521c2.204,0.299 3.521,1.491 3.94,3.581l0,4.653c-0.419,2.269 -1.761,3.521 -4.03,3.761l-31.51,0c-2.269,-0.24 -3.521,-1.492 -3.755,-3.761l0,-4.653c0,-0.658 0.174,-1.257 0.533,-1.79c8.893,-11.222 17.546,-22.767 25.959,-34.642c0,-1.312 0.03,-2.593 0.09,-3.85c-0.893,-4.055 -3.371,-6.234 -7.431,-6.534c-4.713,0.419 -7.252,2.988 -7.606,7.701l0,3.401c-0.299,2.264 -1.581,3.521 -3.85,3.761l-4.563,0c-2.329,-0.305 -3.521,-1.581 -3.581,-3.851l0,-3.76c0.952,-12.054 7.486,-18.677 19.6,-19.874c11.994,1.256 18.558,7.879 19.695,19.874c-0.06,1.671 -0.18,3.311 -0.359,4.922c-0.838,2.27 -2.03,4.294 -3.581,6.085c-6.025,8.354 -12.114,16.682 -18.259,24.976l18.708,0Zm32.58,-55.853c11.995,1.251 18.588,7.874 19.785,19.869l0,29.091c-1.197,11.994 -7.79,18.498 -19.785,19.515c-12.054,-1.077 -18.617,-7.581 -19.69,-19.515l0,-29.091c1.073,-11.995 7.636,-18.618 19.69,-19.869Zm7.7,49.05l0,-28.642c-0.478,-4.713 -3.042,-7.312 -7.7,-7.791c-4.713,0.539 -7.281,3.132 -7.695,7.791l0,28.642c0.473,4.653 3.042,7.191 7.695,7.605c4.658,-0.414 7.222,-2.952 7.7,-7.605Zm47.618,-45.115l0,3.671c-0.12,9.79 -0.179,19.575 -0.179,29.36l0,27.121c-0.24,2.209 -1.432,3.461 -3.581,3.76l-4.743,0c-2.15,-0.239 -3.372,-1.401 -3.671,-3.491l0,-48.067c-2.863,1.85 -5.79,3.64 -8.772,5.371c-0.893,0.713 -1.851,1.132 -2.863,1.252c-1.611,-0.414 -2.419,-1.492 -2.419,-3.222l0,-5.731c-0.239,-2.383 0.773,-4.144 3.047,-5.276c1.072,-0.658 2.145,-1.347 3.222,-2.06c2.204,-1.316 4.384,-2.688 6.533,-4.119c0.833,-0.539 1.671,-1.013 2.504,-1.432c0.718,-0.658 1.611,-0.982 2.688,-0.982l4.474,0c2.149,0.354 3.401,1.641 3.76,3.845Zm50.484,16.293l0,29.805c-0.779,6.448 -3.791,11.55 -9.037,15.306c-6.569,3.82 -13.282,4.059 -20.144,0.718c-6.504,-3.821 -9.845,-9.551 -10.025,-17.186l0,-1.252c0.12,-2.329 1.282,-3.641 3.492,-3.94l4.658,0c2.144,0.299 3.396,1.611 3.755,3.94l0,0.892c-0.06,0.36 -0.03,0.719 0.09,1.078c0.838,3.815 3.192,5.964 7.072,6.443c4.059,-0.119 6.653,-2.119 7.79,-5.999c0.115,-1.013 0.145,-2.115 0.085,-3.312l0,-8.414c-2.324,1.138 -4.743,1.641 -7.247,1.522l-0.095,0l-0.264,0l-0.09,0c-0.957,0 -1.85,-0.055 -2.683,-0.175c-2.209,-0.364 -4.299,-1.047 -6.269,-2.065c-2.03,-0.952 -3.76,-2.294 -5.192,-4.024c-3.162,-3.462 -4.862,-7.551 -5.102,-12.264c-0.059,-0.359 -0.059,-0.748 0,-1.162l0,0.089l0,-0.807l0,0.628c-0.059,-0.479 -0.059,-0.928 0,-1.347c0,-1.012 0.12,-2.024 0.359,-3.037c1.013,-4.419 3.282,-8.119 6.803,-11.102c1.671,-1.431 3.551,-2.503 5.641,-3.221c2.144,-0.898 4.294,-1.347 6.443,-1.347l0.354,0c0.719,0.239 1.467,0.419 2.24,0.539c2.149,0.239 4.239,0.808 6.269,1.7c1.905,0.958 3.695,2.24 5.371,3.851c3.102,3.401 4.893,7.461 5.366,12.174l0.36,0l0,1.79l0,-0.628l0,0.807l0,-0.089l0,0.089Zm-18.259,8.324c0.893,-0.119 1.85,-0.449 2.863,-0.987c1.91,-1.252 2.922,-3.067 3.047,-5.456c0.055,-0.958 0.085,-1.94 0.085,-2.958c0,-0.833 -0.085,-1.671 -0.27,-2.503c-0.234,-1.257 -0.892,-2.359 -1.965,-3.312c-1.197,-1.012 -2.448,-1.641 -3.76,-1.88c-0.539,0 -1.072,-0.03 -1.611,-0.09c-0.479,0.06 -0.957,0.09 -1.431,0.09c-1.137,0.12 -2.21,0.538 -3.222,1.252c-0.898,0.658 -1.586,1.491 -2.06,2.508c-0.598,1.372 -0.808,2.773 -0.628,4.205c-0.12,1.371 -0.06,2.688 0.179,3.94c0.24,1.431 0.923,2.568 2.06,3.401c1.072,0.957 2.294,1.551 3.671,1.79c0.474,0.06 0.952,0.09 1.431,0.09c0.539,0 1.072,-0.03 1.611,-0.09Z" style="fill:#fefefe;"/></svg>