<svg xmlns="http://www.w3.org/2000/svg" width="58" height="77"><path fill="#FC1B52" d="M1.77 37.246l7.362-4.828a.944.944 0 0 1 .485-.114 1.77 1.77 0 0 1 1.625 1.743 1.09 1.09 0 0 1-.456.943l-5.508 3.628 5.505 3.601c.304.228.475.593.456.972a1.792 1.792 0 0 1-1.625 1.743.746.746 0 0 1-.485-.143L1.768 39.99A1.725 1.725 0 0 1 1 38.619a1.69 1.69 0 0 1 .77-1.373zm17.572 12.581V47.97c-3.166-.343-5.476-2.171-5.476-6.457v-7.97c0-4.802 2.91-6.542 6.674-6.542 3.765 0 6.703 1.743 6.703 6.542v7.971c0 4.258-2.339 6.114-5.533 6.457v1.857A1.125 1.125 0 0 1 20.54 51a1.143 1.143 0 0 1-1.198-1.172zm4.193-16.285c0-2.228-1.14-3.285-2.995-3.285-1.883 0-2.967 1.057-2.967 3.285v7.971c0 1.686.628 2.686 1.77 3.058v-1.515a1.107 1.107 0 0 1 1.197-1.142 1.08 1.08 0 0 1 1.17 1.142v1.515c1.14-.372 1.823-1.372 1.823-3.058l.002-7.97zm16.775-5.4c0-.8.913-1.142 1.854-1.142.913 0 1.855.343 1.855 1.142v13.371c0 4.772-3.023 6.543-6.845 6.543-3.85 0-6.846-1.771-6.846-6.543v-13.37c-.002-.8.91-1.143 1.852-1.143.913 0 1.855.343 1.855 1.142v13.371c0 2.232 1.169 3.286 3.137 3.286 1.969 0 3.138-1.057 3.138-3.286v-13.37zm15.947 11.845L48.87 44.79a.627.627 0 0 1-.457.143 1.817 1.817 0 0 1-1.654-1.743 1.218 1.218 0 0 1 .457-.972l5.533-3.6-5.533-3.627a1.163 1.163 0 0 1-.457-.943 1.794 1.794 0 0 1 1.654-1.744c.16-.01.32.03.457.115l7.387 4.828c.462.304.74.819.743 1.372a1.687 1.687 0 0 1-.743 1.368z"/></svg>