<?xml version="1.0" encoding="UTF-8"?>
<svg width="69px" height="80px" viewBox="0 0 69 80" version="1.1" xmlns="http://www.w3.org/2000/svg" xmlns:xlink="http://www.w3.org/1999/xlink">
    <!-- Generator: Sketch 50.2 (55047) - http://www.bohemiancoding.com/sketch -->
    <title>Combined Shape</title>
    <desc>Created with Sketch.</desc>
    <defs></defs>
    <g id="Desktop" stroke="none" stroke-width="1" fill="none" fill-rule="evenodd">
        <g id="Work" transform="translate(-894.000000, -1312.000000)" fill="#FFFFFF">
            <g id="Cases" transform="translate(80.000000, 496.000000)">
                <g id="Expedition" transform="translate(576.000000, 784.000000)">
                    <g id="Info" transform="translate(96.000000, 0.000000)">
                        <g id="Logo" transform="translate(142.000000, 32.000000)">
                            <path d="M67.6731019,37.4942306 C67.827933,38.5184979 67.8835134,39.5771721 68.2844863,40.5445357 L68.2844863,41.1281299 C66.9677602,41.2009137 65.6788244,41.5132226 64.3740084,41.6880362 C64.2535842,42.3985389 64.3197514,43.1290241 64.1463935,43.8303958 C63.9333353,45.1974088 63.65808,46.5525118 63.4291417,47.9155549 C62.9672951,49.7179477 62.5782323,51.5428373 62.0052249,53.3147933 C61.044478,56.637707 59.6906984,59.8388731 58.04843,62.8825614 C56.0581225,66.5468975 53.5662681,69.9624452 50.5225798,72.8235122 C47.8600142,75.3471269 44.7342786,77.4049249 41.2975574,78.7044474 C40.3301939,79.0035229 39.3840038,79.3952324 38.3795866,79.5540335 C38.0421342,79.7035712 37.7112986,79.8664747 37.3672294,80 L36.0399166,80 L31.4942343,80 C30.8510897,79.806792 30.1814783,79.7432715 29.5290703,79.5910871 C28.3989356,79.4243459 27.3455547,78.9664693 26.2630604,78.6237235 C23.732829,77.5769594 21.3494887,76.1477492 19.2863973,74.3427097 C18.0040782,73.2959456 16.8210098,72.1261106 15.7702756,70.8464381 C14.3304787,69.2519425 13.1249135,67.4654297 11.9537551,65.6681979 C10.4888147,63.2888277 9.19458548,60.8022666 8.13326459,58.2191016 C7.20427797,55.9680955 6.46188268,53.6469523 5.80550468,51.3033123 C5.39262174,49.5048895 4.83946446,47.7342569 4.6052328,45.9001038 C4.38158787,44.5066239 4.03751875,43.1184374 4.01369858,41.7051073 C2.67182903,41.5370428 1.34980961,41.2181172 0,41.1281299 L0,40.406908 C0.366565944,39.2675099 0.441996481,38.0659147 0.627264467,36.889463 C0.962070184,34.970616 1.28496582,33.0504457 1.51390411,31.1157185 C1.78121935,29.5568208 2.02603776,27.9952763 2.28276626,26.4337319 C2.34364002,25.7667671 2.44686076,25.1037724 2.61492529,24.4553345 C3.67095281,24.4460711 4.70051347,24.7411765 5.75654099,24.7716134 C6.30969827,24.9808339 6.92108262,24.8046969 7.46497649,25.0455453 C7.97314011,25.2400767 8.5329141,25.0428986 9.04769443,25.2069931 C9.57703153,25.3831301 10.161949,25.1567061 10.6727593,25.4081412 C11.0009483,25.519302 11.4601483,25.6701631 11.7168768,25.3512375 C11.7579004,24.8484996 11.1875397,24.669716 10.9016976,24.3587304 C10.8765541,23.9511409 10.8725841,23.5382579 10.9202244,23.1334474 C10.9930083,22.8593831 11.0975524,22.5880978 11.0724088,22.2996091 C11.0340319,21.8139423 11.2192999,21.349449 11.4455915,20.9312727 C11.6427696,20.7446814 11.8690612,20.5938203 12.080796,20.4257558 C12.6935037,20.9947931 12.6366,21.8946662 12.8999452,22.6277981 C13.1910806,23.0089208 13.6648373,23.1875721 13.9903796,23.5356112 C14.2973951,23.7738129 14.3807657,24.1694924 14.4548729,24.530765 C14.5488303,25.0230485 14.7473317,25.4848951 14.9220129,25.9520351 C15.3944463,25.9467417 15.8827598,25.8752812 16.3379897,26.0395081 C17.1862524,26.3159544 18.0861255,26.0671659 18.9462983,26.2590506 C19.7085437,26.4046183 20.4879926,26.2763864 21.2568547,26.3331578 C21.948963,26.6150298 22.7045917,26.4324085 23.4258135,26.538276 C23.8479598,26.5951797 24.2674595,26.4748878 24.6843124,26.4204984 C24.064988,26.3172777 23.4668371,26.1267164 22.8845663,25.8991014 C21.6393008,25.2519868 20.1968572,25.1633228 18.9436516,24.538705 C18.5307686,24.2674198 18.3918176,23.7513161 18.1099456,23.3662234 C17.7142661,22.5563376 17.2749164,21.7676253 16.7680761,21.02126 C16.1580151,20.2206376 15.5691275,19.4054585 14.9815634,18.588956 C15.7782157,17.3847141 16.659562,16.2386993 17.4972379,15.0635709 C17.7817566,14.5170303 18.1430292,14.0048967 18.6908931,13.6952345 C18.8192573,13.8752091 18.9052746,14.0963397 18.7822038,14.3052955 C18.5889957,14.8386026 18.5281219,15.41161 18.2978603,15.9330071 C18.9793818,16.7099416 19.9242486,17.1967994 20.5740098,18.0027152 C20.6309136,18.3719278 20.5250462,18.7530505 20.555483,19.1275565 C20.5872433,19.7561443 20.3225747,20.3516486 20.3371315,20.9802364 C20.3358081,21.2925453 20.3146347,21.6035308 20.2815511,21.9145164 C21.1496639,22.4954638 22.0071901,23.0975848 22.9202966,23.6083951 C23.3927299,23.9087939 23.922067,24.1694924 24.2476093,24.6432491 C24.7359228,25.3287407 25.2652599,25.9890887 25.6741728,26.7261906 C27.7465276,26.7526575 29.8202057,26.734263 31.8925604,26.731484 C35.5079329,26.7116339 39.1246286,26.7685376 42.740001,26.7208973 C44.1136308,26.1995002 45.6381217,26.7764776 47.0263082,26.3331578 C47.8335473,26.271093 48.6566665,26.4191751 49.4559655,26.2418472 C50.268498,26.0314357 51.1260241,26.3344812 51.9292931,26.0448014 C52.6134613,25.7866173 53.3757068,26.1015728 54.0532583,25.8117608 C54.5045181,25.6278161 55.0007717,25.7230968 55.4745284,25.6808822 C54.7361031,24.6578059 54.0929585,23.5700181 53.3452699,22.5536909 C53.0276676,22.187125 53.2367558,21.672477 53.0951581,21.2435816 C52.8953333,20.5991137 53.133535,19.9056821 52.9138601,19.2665075 C52.8159328,18.9927079 52.8582798,18.7014401 52.8675431,18.4182448 C54.2332329,19.1077064 54.9954783,20.5408866 56.2804441,21.3388623 C57.2517777,22.0363962 57.8472819,23.2894695 59.0912241,23.5647248 C60.0493243,23.9762844 61.0074244,24.3944607 61.9694946,24.7980802 C62.1402058,24.8774808 62.3281205,24.8973309 62.5133885,24.8682174 C63.5244224,24.7451465 64.5381029,24.6552915 65.5438434,24.4898737 C65.6523575,24.8880675 65.7542549,25.2903637 65.816452,25.6992766 C66.0533304,27.7292844 66.4556266,29.7341487 66.7719055,31.7522464 C67.024664,33.6737401 67.3819665,35.5780303 67.6731019,37.4942306 Z M63.3100408,43.8026056 C63.5336858,43.1568143 63.3391544,42.4514726 63.5945595,41.8109747 C62.9461216,41.9115488 62.2751868,41.8480283 61.6413056,42.0425597 C61.2284227,42.1418104 60.7837795,42.043883 60.38413,42.2119476 C59.8084759,42.452796 59.1666547,42.2331211 58.5737971,42.406479 C57.9544727,42.5785135 57.287508,42.368102 56.6827403,42.6155671 C56.0898828,42.8484754 55.4348281,42.5917469 54.8353538,42.7836316 C54.0717851,43.0681503 53.2248457,42.7359913 52.4626003,43.0297734 C51.6328644,43.3513457 50.6522674,42.8762656 49.8609084,43.3116454 C48.8366411,43.5988108 47.7078297,43.2044546 46.6795924,43.5472004 C45.4555004,43.5696972 44.230085,43.5392604 43.0059929,43.5657272 C42.7241209,43.5604338 42.5017993,43.8039289 42.2199273,43.7973122 C36.7928987,43.7801087 31.36587,43.7946655 25.9401647,43.7893721 C25.7562201,43.7258517 25.5828622,43.6385111 25.4015642,43.5749906 C24.1364485,43.529997 22.8700095,43.5723439 21.6048939,43.5472004 C20.5766565,43.2031313 19.4451985,43.6014575 18.4222545,43.309131 C17.6269255,42.8828823 16.6516219,43.347508 15.821886,43.0310967 C15.0583172,42.7359913 14.2127012,43.066827 13.4491324,42.7850873 C12.8483348,42.5917469 12.1932802,42.8497988 11.6004226,42.6155671 C10.995655,42.368102 10.3286902,42.5785135 9.71068915,42.406479 C9.1178316,42.2344444 8.47601036,42.452796 7.90035626,42.2132709 C7.46365315,42.0293263 6.97533967,42.1616605 6.53069651,42.0147695 C5.98283261,41.8308249 5.40188513,41.9340456 4.83814112,41.9499257 C4.81432095,42.4699994 4.88975149,42.9821331 5.0419359,43.4783866 C5.07369613,44.2525421 5.25499409,45.0081708 5.44555545,45.7573151 C5.79359459,48.1140563 6.38115878,50.4299061 7.03092007,52.7206124 C7.34852233,53.464331 7.43321627,54.2981693 7.85536261,54.9954386 C8.06709745,55.703427 8.35823285,56.3849485 8.60437461,57.0823501 C9.26604599,58.5830208 9.84302343,60.1220684 10.6237957,61.5684821 C10.9096377,62.0422388 11.0591754,62.5901027 11.4045679,63.0294525 C11.7340802,63.4410121 11.8558278,63.9743192 12.16946,64.3951422 C12.594253,64.9191859 12.8126046,65.5755639 13.246661,66.0943143 C13.5722033,66.4847004 13.7587946,66.9730139 14.1041871,67.3475199 C14.4773698,67.7431994 14.6904279,68.255333 15.0292037,68.6774794 C15.2065316,68.8958309 15.44341,69.0665421 15.5916244,69.3100372 C15.9092266,69.896278 16.5073776,70.258874 16.8726202,70.8107079 C17.176989,71.3254882 17.6560391,71.6986709 18.0623053,72.1261106 C18.4976851,72.5363468 18.8708677,73.0286304 19.3988815,73.3263825 C19.7694174,73.5592908 20.0182059,73.9404135 20.3980053,74.1627351 C20.8214749,74.3916734 21.0795268,74.8244065 21.4977031,75.0599615 C22.4174263,75.6382623 23.2723057,76.3383106 24.2873096,76.7485468 C24.8722271,76.9907186 25.3803907,77.3890447 25.9891284,77.5743127 C26.5727226,77.7384072 27.0835329,78.079962 27.667127,78.2439242 C28.4426059,78.5615264 29.296162,78.5853466 30.0769342,78.880452 C30.4818771,78.8778053 30.8854966,78.8910388 31.2401525,79.1133604 C32.8241937,79.1517373 34.4108817,79.1226238 35.9975697,79.1292405 C36.3310521,79.1596773 36.5917506,78.8739676 36.9239096,78.8963321 C37.4797136,78.9558826 37.9667037,78.6329869 38.5119209,78.5853466 C39.6486723,78.4212521 40.6649996,77.849568 41.7673441,77.5584326 C43.5485635,76.7128166 45.3059626,75.7971957 46.901914,74.6325218 C47.3862574,74.1772919 47.9539715,73.822636 48.492572,73.4348966 C48.8895748,73.077594 49.2257039,72.644861 49.6981372,72.3775457 C50.3545153,71.8587954 50.9261993,71.2341776 51.4820033,70.6108831 C51.812839,69.9955288 52.4070199,69.5958792 52.8556331,69.0744822 C53.546418,68.0940175 54.29146,67.1476951 54.9862149,66.1684215 C55.3580742,65.6986348 55.6108327,65.1481242 55.9932787,64.6849543 C56.7608175,63.2808876 57.6514272,61.9404737 58.2958951,60.4701076 C58.5632104,59.9566506 58.882136,59.4617204 58.9906501,58.8834196 C59.9924206,56.9169323 60.6329184,54.7929672 61.3250267,52.707379 C61.3303201,52.6319484 61.3435535,52.4810874 61.3501702,52.4071125 C61.5817552,52.1146538 61.6624791,51.7479555 61.7379097,51.3919763 C61.978758,50.2816917 62.3704675,49.2084607 62.5372087,48.082296 C62.7449735,47.0806579 62.8839245,46.070815 63.1274195,45.0756613 C63.2465204,44.6601317 63.1684432,44.2141652 63.3100408,43.8026056 Z M66.0956774,40.6265829 C66.5204704,40.4042614 67.0101072,40.5392423 67.4666604,40.4849853 C67.4401936,40.1832631 67.2813925,39.9238879 67.1887585,39.6433393 C67.1517049,39.2503065 67.2787458,38.8202201 67.0590709,38.4642409 C67.0842144,37.070761 66.7030917,35.7103646 66.4979735,34.3434839 C66.4913568,33.9344386 66.4093096,33.5347891 66.321969,33.1377863 C65.9673131,31.0945451 65.7317581,29.0380704 65.3254919,27.0054159 C65.2818216,26.4178518 65.2156544,25.8329343 65.0224464,25.2731603 C64.0603762,25.2241966 63.1274195,25.5272421 62.1865228,25.6781032 C60.9055271,25.7006 59.6668782,26.1187763 58.3832358,26.1200996 C57.7017142,26.3186011 56.9897558,26.2630207 56.2963242,26.3622714 C55.6068627,26.6150298 54.855204,26.3768281 54.160449,26.6004731 C53.5689148,26.828088 52.9270936,26.6547301 52.3183559,26.7830944 C51.4820033,27.0120327 50.604627,26.7923578 49.7616577,26.9815958 C48.7810607,27.2197975 47.7673802,27.0332061 46.7748731,27.148337 C46.7391428,27.198624 46.666359,27.299198 46.6306287,27.3494851 C45.4449136,27.4553525 44.2459651,27.341545 43.0562799,27.4156522 C41.9592288,27.955576 40.7219033,27.3666885 39.5692718,27.6260637 C34.9785958,27.6631173 30.3865964,27.6168003 25.794597,27.6406205 C25.4690547,27.6525306 25.2083562,27.3772753 24.8788438,27.3997721 C23.9511806,27.3852153 23.0221939,27.3891853 22.0945307,27.3984487 C21.8047186,27.4328557 21.5691636,27.2370009 21.2992017,27.1721571 C20.4496156,27.0954033 19.5867961,27.2237675 18.7411801,27.1046667 C17.887624,26.8413214 16.9533441,27.2118574 16.1275782,26.8426448 C15.5413373,26.6825203 14.9286296,26.8161779 14.3344487,26.7447174 C13.6873341,26.4297618 12.9449389,26.6997238 12.2753274,26.5488627 C11.6427696,26.1200996 10.8381772,26.538276 10.1645957,26.2511106 C9.67363556,26.0843694 9.10724485,26.3728581 8.64936826,26.0896628 C8.23383864,25.8170541 7.71244159,26.0909861 7.27970851,25.8779279 C6.83638868,25.6675164 6.31234495,25.9202749 5.87828853,25.6900132 C5.39526842,25.3896144 4.79314747,25.7032467 4.30351065,25.4162136 C3.97532164,25.3102139 3.39437417,25.1236225 3.26865661,25.5867925 C2.95502438,26.0605492 3.27527332,26.6626702 2.96428778,27.1337802 C2.79092987,27.4474124 2.86503707,27.8205951 2.96693446,28.1448141 C2.46538756,28.5815172 2.89812064,29.2762721 2.53023135,29.7672323 C2.36349016,30.0940979 2.54081809,30.4844841 2.40848382,30.8232598 C2.24174263,31.2058382 2.34761005,31.6252055 2.3118798,32.0261784 C2.23115589,32.2683501 2.04721125,32.488025 2.06970807,32.7554726 C2.0551513,32.9829552 2.1292585,33.2317436 1.99692422,33.4381851 C1.76798592,33.8153378 2.02868445,34.2970345 1.79180609,34.6715405 C1.51125743,35.06722 1.79577612,35.584647 1.5350776,35.9909133 C1.3431929,36.3032222 1.44112026,36.6552313 1.49934734,36.9887137 C1.32863613,37.40292 1.22012202,37.8290364 1.27173239,38.2816196 C1.06132089,38.6561256 1.10234452,39.0782719 1.07852435,39.4911549 C0.910459817,39.8034638 0.807239082,40.1356228 0.850909393,40.495572 C1.30084593,40.5354046 1.78915941,40.4002913 2.20336569,40.630553 C2.6400688,40.862138 3.15220245,40.638493 3.60478567,40.8131743 C4.04810549,40.9891789 4.55097574,40.7616962 4.97841545,40.9971189 C5.289401,41.1453333 5.63214677,41.1612134 5.96298246,41.0725495 C6.34807521,40.9335985 6.63391724,41.3572005 7.01503996,41.3054578 C7.39219264,41.341188 7.80639892,41.1995904 8.15443807,41.3927984 C8.66657172,41.711724 9.29515953,41.4126485 9.84302343,41.5992399 C10.4451444,41.8387649 11.134606,41.5079292 11.7168768,41.8096514 C12.2276871,42.0610865 12.8139279,41.8652318 13.343265,41.8956686 C14.0486067,42.2595879 14.8584925,42.0425597 15.6154445,42.0994634 C16.3737199,42.5295498 17.269623,42.2635579 18.0967122,42.3429585 C19.0720158,42.6274772 20.1068699,42.4051556 21.1007003,42.503083 C21.7914852,42.8114218 22.5577006,42.7095244 23.2908325,42.7333446 C24.0888082,42.6989377 24.9053107,42.8220086 25.6860829,42.6208605 C25.8885544,42.7452547 26.0698523,42.9516962 26.3318742,42.8987625 C31.5392279,42.9027325 36.7452583,42.9040558 41.9526121,42.8987625 C42.2133106,42.9516962 42.3946086,42.7452547 42.5984034,42.6208605 C43.4665162,42.8299486 44.3716826,42.6976144 45.256999,42.7320213 C45.9014669,42.7240812 46.5710783,42.7743682 47.175846,42.5057297 C47.8944211,42.4316225 48.6288763,42.5427833 49.3527448,42.4660294 C50.1996842,42.1722473 51.1233774,42.4699994 51.9848735,42.2926715 C52.805346,41.7725978 53.9103372,42.460736 54.6831694,41.8559684 C55.1092858,41.9644825 55.5539289,41.939339 55.9906321,41.9300756 C56.3188211,41.9300756 56.5821663,41.6495269 56.9156486,41.6799638 C57.4224889,41.6707004 57.9491793,41.762011 58.4414628,41.5992399 C58.9906501,41.4179419 59.6165912,41.707754 60.1300482,41.3914751 C60.6315951,41.1309089 61.2575362,41.4841091 61.7511431,41.1757702 C62.1997563,40.8687547 62.7423268,41.3107512 63.2107901,41.0288791 C63.66602,40.7628872 64.2006505,40.9838855 64.6797006,40.8131743 C65.1375772,40.6424631 65.6523575,40.8581679 66.0956774,40.6265829 Z M35.3716286,6.48967288 C34.8462615,5.85314502 34.2203204,5.2986644 33.6261395,4.72698033 C33.9053648,4.19631988 33.743917,3.60081564 33.8378743,3.03971831 C34.1065129,2.49714778 33.8431677,1.87385334 34.0628426,1.31804939 C34.2057636,0.922369902 34.17268,0.502870248 34.1951768,0.0913106502 C34.3605947,-0.0648437951 34.6199699,0.0397002827 34.825088,0 C35.2287075,0.890609676 36.1431374,1.37362978 36.6354209,2.20071901 C36.9344964,2.69167917 37.4625101,2.98810795 37.7443821,3.49097819 C38.1757919,4.10500923 38.84805,4.52450889 39.222556,5.18485692 C39.4978113,5.65067357 39.9887714,5.93519227 40.2812302,6.38645215 C40.6769097,7.07194369 41.4060715,7.48217995 41.8136611,8.15973144 C42.1405268,8.73538554 42.7452944,9.07416129 43.114507,9.61673182 C43.3288886,9.94889085 43.6266407,10.2175294 43.8317588,10.5576285 C43.4532828,10.8196504 43.0721601,10.6026222 42.7016241,10.4570545 C42.122,10.4994014 41.6257464,10.1143087 41.0421523,10.1950326 C40.2005063,9.94756751 39.2953398,9.95286088 38.4629572,9.66437216 C38.1929953,9.63922864 37.91377,9.64849204 37.6663049,9.51880445 C37.3156191,9.32162638 36.9067062,9.43940389 36.5269068,9.38382349 C36.2569449,9.18929211 36.230478,8.83463625 36.0994671,8.55276424 C35.8652354,7.86197932 35.57807,7.19104454 35.3716286,6.48967288 Z M25.7853469,8.55407435 C25.5484685,8.17295163 25.7059463,7.69390156 25.4664213,7.30748547 C25.4571579,6.88269245 25.3923141,6.43010922 25.577582,6.03178305 C25.9216512,6.1601473 26.2498402,6.3798222 26.4284914,6.71065789 C27.1722101,7.72963181 27.8299114,8.81609621 28.6914076,9.74508283 C29.0195966,10.2916234 29.5211435,10.7005363 29.8493325,11.2484002 C31.1144481,12.533366 32.3875039,13.8183318 33.6817331,15.0728608 C34.6014563,15.3970797 35.5264729,15.710712 36.4554595,16.0124341 C36.8167321,16.6185251 36.8127621,17.3357769 36.9993534,17.9961249 C37.2812254,18.7279335 37.4744334,19.4888556 37.6517614,20.251101 C38.2512356,20.9855562 39.1193485,21.4275527 39.8339536,22.0362904 C40.3249137,22.4438799 40.9164479,22.7164885 41.3716779,23.1677484 C41.9380686,23.5409311 42.6315002,23.6904688 43.1528972,24.1417287 C43.7153179,24.4844745 44.3637558,24.6790058 44.8851529,25.0945355 C44.5715206,25.2731867 44.1837812,25.3367072 43.8542689,25.1607026 C43.457266,24.9330877 42.978216,25.0402784 42.5732731,24.8272202 C41.7488305,24.7134128 40.9376214,24.4871211 40.1025921,24.420954 C39.7135294,24.2978831 39.3403467,24.1509921 38.9208471,24.1801056 C38.5900114,24.0054244 38.2366789,23.9352872 37.8648195,23.9392572 C37.1118375,23.6507685 36.2754849,23.7341391 35.5304429,23.436387 C35.302828,23.39007 35.0685963,23.4218302 34.8423047,23.3741899 C34.6490966,23.2947893 34.4783854,23.1373115 34.2560638,23.162455 C32.824207,23.1571617 31.3923501,23.1651017 29.9618166,23.1571617 C29.9049129,22.1368644 29.8440391,21.1205372 29.8638892,20.0975932 C29.3292588,19.8739483 28.9587228,19.417395 28.5537799,19.0230389 C28.2348543,18.70279 27.770361,18.5585456 27.5083391,18.1760995 C27.4117351,17.2643164 27.0729594,16.3816468 27.0729594,15.4539835 C26.8718113,15.0437472 27.0028222,14.5660205 26.7831473,14.166371 C26.5647957,13.787895 26.8175542,13.3141382 26.5621491,12.9475723 C26.415258,12.2951643 26.2749837,11.6334929 26.2630736,10.9625582 C26.0645722,10.5933455 26.2021998,10.1526724 25.9917883,9.79272317 C25.7575567,9.4129238 26.0129618,8.93122703 25.7853469,8.55407435 Z M46.1528755,14.6679444 C45.8710035,14.4509161 45.3165229,14.4125392 45.3112295,13.9771594 C45.3125529,12.3706213 45.286086,10.7640832 45.3257863,9.15886846 C45.5388445,9.14298834 45.7624894,9.06358778 45.9729009,9.13769497 C47.1983163,10.3419369 48.3734447,11.5977892 49.6187102,12.7821809 C49.8992589,13.0428794 50.0435032,13.408122 50.2962617,13.6913174 C51.3522892,14.7751351 52.4374303,15.8311626 53.4987512,16.9083636 C53.7223961,17.4628443 52.8820735,17.3702103 52.5684412,17.2590495 C52.0563076,16.917627 51.4144863,17.2312593 50.8851492,16.9427706 C50.2089211,16.9189504 49.4466757,16.8832201 48.938512,16.3737332 C47.996292,15.832486 47.0342218,15.3084422 46.1528755,14.6679444 Z M15.2012515,30.1100178 C15.1244976,30.5321641 15.0477437,30.9556338 14.9974567,31.3830735 C14.2166845,31.4360072 13.4557624,31.218979 12.6776368,31.2335358 C12.3970882,31.8952071 12.3454778,32.6111356 12.4037049,33.3217706 C12.4738421,33.3283873 12.6141164,33.3402974 12.6842536,33.3469141 C13.1302201,33.4713084 13.732341,33.1762029 14.0645001,33.5493856 C14.1372839,34.1091596 14.0869969,34.6742269 13.6886707,35.1082833 C13.164627,34.8581716 12.5902962,34.7880344 12.0146421,34.8171479 C11.952445,35.4735259 11.7685004,36.1100538 11.6983632,36.7651085 C12.4976622,37.2335718 13.4809059,36.97552 14.2868216,37.4506 C14.245798,37.7655556 14.2074211,38.0831579 14.1147871,38.3901734 C14.0645001,38.519861 14.0075963,38.6469019 13.9467226,38.7726194 C13.6410304,38.751446 13.3154881,38.801733 13.033616,38.6561653 C12.0397856,38.3266529 10.9612613,38.3689999 9.94890408,38.1122714 C10.0044845,37.025807 10.3300268,35.9790429 10.404134,34.8965485 C10.7257063,33.516302 10.8170169,32.0990019 11.1121224,30.7147854 C11.1901996,30.3177826 11.0816855,29.8731394 11.3013604,29.5131902 C11.5686756,29.4483464 11.8399609,29.5370103 12.1046294,29.5674472 C12.929072,29.6680213 13.7535145,29.767272 14.5819271,29.8096189 L14.6811778,29.8572593 C14.8532123,29.9432766 15.0278936,30.0253238 15.2012515,30.1100178 Z M57.9928496,36.7426249 C57.9743228,37.2057949 58.04049,37.6451446 58.2217879,38.0739077 C57.7347978,38.5225209 57.059893,38.3160794 56.4657121,38.3743065 C56.0303323,37.7218985 55.6889099,37.0125868 55.3474875,36.3085685 C54.8803475,35.5582331 54.6831694,34.6385099 54.0228214,34.0152155 C54.3576271,35.5330896 54.434381,37.0919874 54.7599233,38.6111849 C54.2173528,38.673382 53.6813989,38.7792494 53.1560319,38.9301105 C53.1242716,38.3928333 53.0964814,37.8542328 52.9813506,37.3275424 C52.8820999,36.8630491 52.9191535,36.3720889 52.7457956,35.9247991 C52.4229,35.3742885 52.8132861,34.6795335 52.4573069,34.1462264 C52.1992551,33.6473262 52.5420008,33.0253551 52.2349853,32.5357183 C52.1052977,32.0950451 52.2680689,31.6107017 52.1238245,31.1687052 C52.006047,30.766409 52.0510407,30.345586 52.0682441,29.9340264 C52.5949345,29.874476 53.1930855,30.0835641 53.6509621,29.735525 C54.0016479,30.0531272 53.9897378,30.5533508 54.2041193,30.9490303 C54.7347798,31.9547708 55.2879371,32.9724214 55.5843658,34.0734425 C55.6002459,34.1846033 55.6174494,34.2944408 55.6346529,34.4056016 C55.7246402,34.4122183 55.9046148,34.4267751 55.9946021,34.4333918 C55.940345,34.2137169 55.894028,33.994042 55.8225675,33.7796605 C55.4837918,33.3614841 55.7259635,32.8096502 55.5539289,32.3358935 C55.4017445,31.8489034 55.612156,31.3076562 55.3580742,30.8471329 C55.1728062,30.4951237 55.2575002,30.0809174 55.2601469,29.6997947 C55.4110079,29.4404196 55.7153768,29.5489337 55.9601952,29.5224668 C56.2063369,29.5224668 56.4260118,29.3901325 56.6602435,29.3292588 C56.731704,29.642891 56.8547749,29.9393198 56.959319,30.2436886 C56.9963726,30.6605416 56.8719783,31.1091548 57.1207668,31.4810141 C57.3298549,31.8316999 57.0903299,32.2736964 57.2980947,32.6243822 C57.4714526,32.9393378 57.3245616,33.3178138 57.4423391,33.6512962 C57.5865834,34.1171129 57.6117269,34.5988096 57.6183436,35.0818297 C57.8896289,35.6085201 57.6368704,36.237108 57.9928496,36.7426249 Z M19.179233,30.4236632 C19.7535638,30.4236632 20.3212778,30.530854 20.8929619,30.5745243 C20.9128121,30.6248113 20.9538357,30.7267087 20.9750092,30.7769957 C20.6203533,31.3698533 20.3980317,32.0381414 19.9547119,32.5767419 C19.6331396,33.2304732 19.3261241,33.8908212 18.9635282,34.5260258 C18.7200331,34.8939151 18.9582348,35.3200314 19.0773357,35.6879207 C19.1448261,36.383999 19.6027027,36.9702398 19.6688699,37.6689648 C19.7231269,38.3107861 20.1267465,38.8639433 20.1770335,39.5017945 C19.68872,39.3390234 19.1832031,39.3019698 18.6710694,39.3204966 C18.2846533,39.3668136 18.1973127,38.9009969 18.1893727,38.6111849 C18.0490983,38.0117106 17.7831064,37.4347331 17.7460528,36.8127621 C17.6997358,36.8498157 17.6071019,36.9212762 17.5594615,36.9570064 C17.1955423,37.642498 16.8713233,38.349163 16.549751,39.0545047 C15.9357199,39.0187744 15.2978687,39.0902349 14.7103046,38.8811468 C14.8082319,38.496054 15.0279068,38.159925 15.2436117,37.831736 C15.6379678,37.1991781 15.9092531,36.4964831 16.3472795,35.8903922 C16.5629844,35.4338389 16.924257,35.0116926 16.9136702,34.4823555 C16.9480772,33.9397849 16.6198882,33.4713216 16.5775412,32.9433078 C16.3194893,32.0196146 16.032324,31.1078314 15.7861822,30.1814915 C16.3525729,30.152378 16.920287,30.164288 17.488001,30.1788448 C17.6335687,30.4316033 17.7381128,30.7081819 17.7725197,31.0006407 C17.8505969,31.6107017 18.094092,32.1890025 18.0993854,32.8083269 C18.2515698,32.4841079 18.4606579,32.1823857 18.5307951,31.8264065 C18.6287225,31.3089795 19.0019051,30.9106534 19.179233,30.4236632 Z M51.6976949,35.6045501 C52.0788176,36.2212278 51.8803162,36.9715632 51.9173698,37.6583781 C51.7545987,38.028914 51.566684,38.39151 51.3655359,38.7421958 C51.1167474,39.0187744 50.7237146,39.1047917 50.4127291,39.2953531 C49.8886854,39.3535801 49.3567016,39.3284366 48.8313345,39.3165265 C48.1709865,39.0756782 47.6045958,38.5833947 47.3386039,37.9190766 C47.3108137,37.4162064 47.400801,36.8948093 47.1533359,36.4316393 C47.1506892,35.6442504 47.1546592,34.843628 46.9429244,34.0774126 C46.9138109,33.3257539 46.9230743,32.5701252 46.9363077,31.8171431 C47.1109889,31.287806 47.4960817,30.8444862 47.9632217,30.5480574 C48.250387,30.3336759 48.6301864,30.4302799 48.9636688,30.4038131 C49.4519823,30.4368966 50.022343,30.2900056 50.4325792,30.631428 C50.8481089,31.0244608 51.3046621,31.469104 51.3523025,32.0725483 C51.5216903,32.6296756 51.5428638,33.2040064 51.524337,33.7836305 C51.798269,34.3553146 51.6354978,34.9958124 51.6976949,35.6045501 Z M50.2129043,37.2693153 C50.1837908,36.804822 50.300245,36.3059218 50.0858634,35.8731887 C49.790758,35.2803311 50.1626173,34.5644027 49.8450151,33.9808086 C49.5763765,33.4713216 49.8172249,32.8731707 49.6743038,32.3319235 C49.5300595,32.1373921 49.3990485,31.8039097 49.0986497,31.8766936 C48.8260411,31.8581668 48.6857668,32.1387154 48.4885887,32.2789898 C48.5004988,32.6257056 48.4184516,32.9949182 48.528289,33.3270772 C48.9544054,33.994042 48.5851928,34.8158378 48.8008976,35.5370596 C48.9901356,36.0915403 48.8008976,36.6883678 48.9173518,37.2547585 C49.0298359,37.5922109 49.3924318,37.6901383 49.6544537,37.8833463 C49.8489851,37.6874916 50.0713067,37.5101637 50.2129043,37.2693153 Z M23.829433,30.7253986 C24.7928266,30.7981825 25.6066824,31.4849973 25.9904518,32.3570802 C26.0050085,33.1113856 25.9997152,33.8670143 25.9917751,34.6213197 C25.840914,34.9997957 25.647706,35.3584216 25.4399412,35.7077841 C25.222913,36.0359731 24.8312035,36.159044 24.5122779,36.3601921 C24.111305,36.6738243 23.5793212,36.5110531 23.1135046,36.5348733 C23.0102839,36.7876318 22.8845663,37.0324502 22.8051657,37.294472 C22.7760522,38.0686276 22.840896,38.8480764 22.7800222,39.6209086 C22.7165018,39.680459 22.5881375,39.7982365 22.5246171,39.857787 C22.0786506,39.6235553 21.6009238,39.4938677 21.0940835,39.5534181 C21.0954069,38.8335197 21.0040962,38.0950944 21.1787775,37.3884294 C21.3402253,36.630154 21.0239464,35.7938014 21.3838956,35.081843 C21.4407994,34.4916321 21.3349319,33.8895111 21.4288893,33.305917 C21.8285388,32.5595517 21.5625469,31.6901155 21.6472408,30.8841997 C21.6935578,30.8458228 21.7848685,30.7690689 21.8311855,30.730692 C22.4968269,30.7148119 23.1624683,30.730692 23.829433,30.7253986 Z M24.5202179,33.4117844 C24.6366721,32.9750813 24.2132024,32.7157061 23.9630906,32.4351574 C23.7195956,32.4391275 23.4761005,32.4378041 23.2339288,32.4364808 C22.9851403,33.1960795 23.2087853,34.012582 23.0539542,34.7920309 C23.4641904,34.8012943 23.8823667,34.811881 24.2648128,34.6398465 C24.2343759,34.2084367 24.3825903,33.8114339 24.5202179,33.4117844 Z M46.3633267,36.655271 C46.4586074,37.3341459 46.3712668,38.0249308 46.4109671,38.709099 C46.4983077,38.987001 46.638582,39.2490228 46.6663722,39.5454516 C46.3421532,39.5745652 45.9874974,39.4978113 45.7082721,39.7068994 C45.4700704,39.8881974 45.1723183,39.8021801 44.9235298,39.697636 C44.9301465,39.3032799 44.9883736,38.8864269 44.7382618,38.5489745 C44.5291737,37.6014611 44.9076497,36.550727 44.5132936,35.6336504 C44.4616832,34.7642142 44.5953408,33.8815446 44.3955161,33.0253418 C44.3346423,32.2882399 44.3809593,31.547168 44.3664025,30.8087427 C44.7872255,30.6790551 45.233192,30.7253721 45.6672484,30.7306655 C45.9014801,30.8735865 45.8181095,31.1541352 45.8551631,31.3830735 C46.2998063,32.1969293 46.0020542,33.1550294 46.0960115,34.0390224 C46.495661,34.8515549 46.0841014,35.8070083 46.3633267,36.655271 Z M30.7730125,31.2454591 C30.9979807,31.6054083 30.8431496,32.0765183 30.8669698,32.4827846 C30.8259462,32.5291015 30.7438989,32.6217355 30.7041987,32.6680525 C29.9340132,32.7090762 29.161181,32.6614358 28.3909955,32.689226 C28.3989356,33.3561908 28.412169,34.0244789 28.3764387,34.6914436 C28.9547395,34.8621548 29.5661239,34.7602574 30.1603048,34.7734909 C30.0861976,35.302828 29.9935636,35.8295184 29.9697434,36.3641489 C29.3874726,36.3760589 28.8038785,36.3654722 28.2216076,36.3773823 C28.2467512,37.0496404 28.2467512,37.7232219 28.2202843,38.39548 C29.0288467,38.4232702 29.8387325,38.3703365 30.6459716,38.4325336 C30.6724384,39.001571 30.6790551,39.5719317 30.6446482,40.1409691 C29.2908686,39.8723305 27.9053287,40.0337783 26.5343456,39.982168 C26.308054,39.0121577 26.4734719,38.0117106 26.5197889,37.032437 C26.5634592,36.8749592 26.6891767,36.7413015 26.6852067,36.5719137 C26.6931468,35.3451749 26.6759433,34.1171129 26.6905001,32.8903741 C27.0583894,32.3094267 26.871798,31.6199651 26.9339951,30.9741738 C27.6274267,31.005934 28.3565886,30.8511029 29.0156133,31.1237115 C29.5978841,31.1964954 30.2211785,31.001964 30.7730125,31.2454591 Z M43.5485767,30.9794275 C43.7192879,31.4267173 43.5856303,31.9534077 43.6200372,32.4324578 C43.1449571,32.5250918 42.5428362,32.2657166 42.1630368,32.603169 C42.1550968,32.9617949 42.1564201,33.3217442 42.1670068,33.6816934 C42.2344973,33.9476853 42.422412,34.1845636 42.3999152,34.471729 C42.3985918,35.3967456 42.4038852,36.3217622 42.3972685,37.2481021 C42.3469815,37.5868779 42.6844339,37.8316963 42.6513503,38.1717954 C42.6301768,38.7739163 42.7214875,39.3919174 42.5547463,39.9808049 C42.0187925,39.9847749 41.484162,39.9900683 40.9508549,39.9834516 L40.9495315,39.8630274 C40.8939511,38.679959 41.0778958,37.4704237 40.7589702,36.3124988 C40.6345759,35.1082569 40.7497068,33.8921049 40.688833,32.683893 C40.2693333,32.6719829 39.8485103,32.6971264 39.4290107,32.6706595 C39.1339052,32.506565 39.3152032,32.1479391 39.1841923,31.8978274 C39.0994983,31.711236 39.0399479,31.5074412 39.102145,31.3049698 C39.3165265,31.1488154 39.5256147,30.9185537 39.8180735,30.9688407 C41.0606923,30.9767808 42.3059578,30.9463439 43.5485767,30.9794275 Z M38.3425595,31.2322124 C38.502684,31.9838711 38.3557929,32.7580266 38.4299001,33.516302 C38.4775405,33.7452403 38.5807612,33.9649152 38.5609111,34.2057636 C38.556941,36.0610901 38.5648811,37.9164167 38.5609111,39.7717432 C38.2300754,40.2203564 37.5154703,40.1025789 37.0112767,40.1065489 C37.0099534,39.7055761 37.050977,39.2900465 36.8510199,38.9261272 C36.7624883,37.1396145 36.9146727,35.3372216 36.7517692,33.5520323 C36.7848528,32.7805234 36.6777943,31.9971045 36.8246854,31.2348591 C37.3209389,31.0959081 37.846306,31.0853214 38.3425595,31.2322124 Z M34.5418794,31.2626625 C35.1175335,31.6186417 35.6230504,32.1440088 35.934036,32.7514231 C35.9538861,34.7827543 35.9565328,36.8154087 35.9353593,38.8467399 C35.5158597,39.1458153 35.1929641,39.5494349 34.8237514,39.9027674 C34.4585088,40.0986221 34.0218057,40.129059 33.6128928,40.125089 C32.8784376,40.1184723 32.1439823,40.1303823 31.4108505,40.1145022 C31.3949703,38.1016979 31.4042337,36.0902169 31.4108505,34.0787359 C31.625232,33.1391626 31.5021611,32.171799 31.5458314,31.2163455 C32.5423085,31.2454591 33.552019,31.1581185 34.5418794,31.2626625 Z M34.3605815,37.7960057 C34.3645515,36.3773823 34.3632281,34.9587589 34.3619048,33.5401354 C34.389695,33.3006104 34.2203071,33.1232824 34.1064996,32.9353678 C33.7743406,32.9274277 33.4435049,32.9274277 33.1126692,32.9300744 C33.1338427,34.7536407 33.1325194,36.5785304 33.1126692,38.40342 C33.4435049,38.4060667 33.775664,38.4047434 34.1064996,38.39945 C34.2150138,38.2088887 34.3804316,38.0302374 34.3605815,37.7960057 Z M62.3797574,31.6424354 C62.7939636,31.9666544 63.0837757,32.4112976 63.2809538,32.8943177 C63.3100673,33.3310208 63.312714,33.7716939 63.2783071,34.2097204 C63.0652489,34.6768604 62.75294,35.09636 62.3837274,35.4523392 C61.6307454,35.702451 60.7652792,35.7342112 60.0175905,35.4549859 C59.6377912,35.1519404 59.3175422,34.7734644 59.0872806,34.3460247 C59.050227,33.8166876 59.0515503,33.2820571 59.0859572,32.75272 C59.3876794,32.0804619 59.9686269,31.5498014 60.6938187,31.3870303 C61.2694728,31.2361692 61.8464502,31.4307006 62.3797574,31.6424354 Z M61.0325944,34.5577595 C61.5156145,34.4082218 61.9086473,34.0403325 62.0436283,33.5467257 C61.9509943,33.2211833 61.7127926,32.9671015 61.528848,32.6918462 C61.250946,32.6825828 60.918787,32.6018589 60.7255789,32.8638808 C60.5323709,33.0981125 60.127428,33.2833805 60.1644816,33.6274496 C60.4278268,33.9596086 60.7718959,34.2203071 61.0325944,34.5577595 Z M6.52808952,31.429364 C7.35782543,31.1183785 8.20476479,31.5934585 8.81879583,32.1333824 C9.39696428,32.7143298 9.19991855,33.5705326 9.19991855,34.3063112 C8.94319005,34.9547491 8.3503325,35.4417393 7.67939772,35.6124505 C7.19373093,35.6680309 6.69483071,35.6547974 6.2156483,35.5529 C5.80157435,35.5052597 5.59645622,35.1056102 5.35296115,34.8171215 C4.47293822,33.6949268 5.07770586,31.6953559 6.52808952,31.429364 Z M7.28239489,34.4201186 C7.63175738,34.2308806 7.86334236,33.8894582 8.05258038,33.5506825 C7.8831925,33.2344035 7.67807438,32.9340047 7.39355568,32.7103598 C6.85627853,32.5197984 6.28062443,32.9445915 6.14432012,33.4593718 C6.13241004,34.0231158 6.73585433,34.4955492 7.28239489,34.4201186 Z M18.3097572,46.9958846 C17.77645,47.051465 17.2682864,46.8317901 16.7363026,46.8437002 C16.6635188,47.3134868 16.8395234,47.8348839 16.5682381,48.2570302 C16.328713,48.6752065 16.6158784,49.205867 16.3776767,49.63066 C16.1606485,50.0276628 16.2572525,50.4908328 16.2135822,50.9235659 C15.9145068,50.893129 15.5161806,51.0506068 15.3256192,50.7422679 C15.3123858,50.2949781 15.2276919,49.811958 15.4486901,49.4017217 C15.714682,48.9808987 15.4156065,48.4489149 15.6564549,48.0241219 C15.90392,47.6244724 15.760999,47.1401289 15.8165794,46.6994558 C15.5280907,46.6941624 15.239602,46.6915157 14.9511132,46.6928391 C14.7155582,46.4625774 14.2510649,46.0827781 14.6467444,45.7731159 C15.058304,45.7519424 15.479127,45.7453257 15.8800999,45.8631032 C16.2625459,45.9650006 16.6820456,45.8181095 17.0446415,46.0126409 C17.4416443,46.2124657 17.9815682,45.8948634 18.3031404,46.2481959 C18.3229906,46.4969843 18.3124038,46.7457728 18.3097572,46.9958846 Z M53.4710007,49.3275616 C53.5901015,49.760427 53.5027609,50.224788 53.5159943,50.6707545 C53.2155955,50.6297308 52.7947725,50.838819 52.6081812,50.5132767 C52.6240613,50.0421667 52.6544982,49.5604699 52.395123,49.1422936 C52.4136498,48.6314833 52.256172,48.0928828 51.7519784,47.8692379 C51.5428903,48.0042188 51.3324788,48.1365531 51.1260373,48.2741807 C51.1657376,48.9386311 50.993703,49.6451638 51.3020419,50.2631649 C51.3165987,50.4616663 51.3033652,50.6601677 51.3007186,50.8599925 C50.9923797,50.935423 50.6761008,50.9632132 50.3611452,50.9883567 C50.4775994,50.5331268 50.1560271,50.1440641 50.2076374,49.6954509 C50.2036674,49.3976987 50.2473377,49.0827432 50.0872133,48.8154279 C49.8291614,48.3959283 50.1189735,47.8705612 49.8873885,47.4484149 C49.6174266,46.9892149 49.6968271,46.4267943 49.8079879,45.9331874 C50.0673631,45.8604036 50.3267383,45.7862964 50.5914068,45.734686 C50.6999209,45.9874445 50.7528547,46.2535687 50.6694841,46.5235306 C50.56097,46.8965809 50.8216685,47.2234466 50.9341526,47.5622223 C51.0731036,47.4245947 51.2094079,47.2844527 51.360269,47.1612495 C51.9531265,47.0275919 52.6028878,47.1625728 53.0448843,47.5873658 C53.3929235,48.1100862 53.1626618,48.7889611 53.4710007,49.3275616 Z M48.6778135,48.2993904 C48.9914457,48.9173915 48.845878,49.6108231 48.9001351,50.2751412 C49.220384,50.305578 49.5379863,50.3532184 49.8529419,50.4233555 C49.8436785,50.6840541 49.8357384,50.9447526 49.8158883,51.2054511 C49.4082987,51.2213312 48.9835057,51.3086718 48.5865029,51.1882477 C47.8970413,50.6430304 47.9089514,49.691547 47.946005,48.8948947 C47.9843819,48.4767183 47.4881284,48.475395 47.2062564,48.3761443 C47.0831855,49.0881027 46.9839348,49.8027078 46.7219129,50.4815826 C46.5816386,50.7912448 46.6610392,51.143254 46.6319256,51.4727664 C46.3474069,51.4820297 46.0642116,51.4859998 45.7810162,51.4793831 C45.3654866,50.8481486 45.0095074,50.1600103 44.8679097,49.4123217 C44.5714809,50.0184127 44.5463374,50.6999342 44.3915063,51.3457254 C44.2962256,51.4820297 44.1824182,51.6037773 44.0805208,51.7347882 C43.8978995,51.7334649 43.7166015,51.7294948 43.5366269,51.7215548 C43.2679883,51.5892205 43.2362281,51.2557381 43.123744,51.0095964 C42.7452679,50.1308968 42.4475158,49.220437 42.0558064,48.3457074 C42.1590271,48.0386919 42.5123596,48.1948463 42.753208,48.1710262 C43.0509601,48.1551461 43.135654,48.5018619 43.2110846,48.7268301 C43.4162027,49.2508739 43.5432436,49.8093245 43.8184989,50.3029314 C43.9759767,49.4996623 44.1599213,48.7016866 44.4351766,47.9288544 C44.6773484,47.9301778 44.9195201,47.9288544 45.1630152,47.9301778 C45.3191696,48.6500762 45.6473586,49.3157177 45.8829136,50.0117959 C45.942464,50.0170893 46.0602415,50.0263527 46.119792,50.0303227 C46.0708283,49.2627839 46.3010899,48.5322987 46.3646104,47.7740233 C46.8251337,47.726383 47.2830102,47.6496291 47.7475036,47.6615392 C47.7011866,47.3293802 47.7475036,47.0038379 47.8798378,46.695499 C48.1286263,46.7193192 48.366828,46.796073 48.5970896,46.8900304 C48.6500233,47.1083819 48.7108971,47.3240868 48.7704475,47.5424384 C48.9663022,47.5358216 49.162157,47.5305283 49.359335,47.5278816 C49.4771125,47.7449098 49.6015068,47.9566446 49.7351644,48.1657328 C49.3963886,48.2954204 49.0337927,48.294097 48.6778135,48.2993904 Z M32.388814,51.5852637 C32.1003253,51.2185654 31.9190273,50.7806713 31.7231726,50.3611717 C31.7125858,49.9191752 31.7019991,49.4758554 31.7311126,49.0365056 C32.0632717,48.533503 32.1823725,47.8018268 32.7990502,47.5570084 C33.1523828,47.4035006 33.5189487,47.2830764 33.8775746,47.1401554 C34.2732541,47.1216286 34.6715802,47.1189819 35.0685831,47.1401554 C35.3239882,47.2619029 35.57013,47.4061473 35.8149484,47.551715 C35.7580446,47.7158095 35.7011409,47.879904 35.6455605,48.0453218 C34.9455122,48.0439985 34.2454639,48.0372495 33.5454156,48.0453218 C33.3058905,48.3245472 32.9829949,48.5428987 32.8281638,48.8856445 C32.3914607,49.6373032 32.6415724,50.7767013 33.4501349,51.1789975 C33.886838,51.5217433 34.4770489,51.3245652 34.9878592,51.3536787 C34.9799191,50.9486035 34.9799191,50.5451163 34.9905058,50.1414968 C34.6980471,50.1375267 34.4069117,50.1653169 34.1170996,50.1944305 C34.0588725,50.0290126 33.9993221,49.8662415 33.9384484,49.7034703 C33.9821187,49.613483 34.0681359,49.4361551 34.1118063,49.3474911 C34.7178972,49.3474911 35.3253116,49.335581 35.9314025,49.3620479 C35.9552227,50.1917838 35.944636,51.0215197 35.9419893,51.852579 C35.203564,52.1741512 34.3844149,52.0100567 33.6036426,52.0456547 C33.1444427,52.0787382 32.7699367,51.7943519 32.388814,51.5852637 Z M18.5334418,47.6548828 C19.1884964,47.5503387 20.0579326,47.5185785 20.4205286,48.1974533 C20.7976812,48.620923 20.7301908,49.1952538 20.7076939,49.7192975 C20.5211026,50.0077862 20.1426266,49.8622185 19.8594312,49.8648652 C19.3817045,49.5803465 18.8325172,49.6398969 18.3018568,49.6412203 C18.3415571,49.8780986 18.2237796,50.2446646 18.5440285,50.3174484 C19.0548388,50.7197446 19.7231269,50.5291833 20.3199545,50.5755003 C20.3305412,50.7912051 20.337158,51.0095567 20.3424513,51.2279082 C19.7337137,51.2437884 19.1223293,51.2795186 18.5162383,51.2212915 C18.0173381,51.1551244 17.7037059,50.721068 17.4218339,50.3492086 C17.3781636,49.8741286 17.3808102,49.3911085 17.4205105,48.9160284 C17.5607849,48.6394498 17.6838557,48.3549311 17.8281001,48.0796758 C18.0583617,47.9301381 18.2912701,47.7845704 18.5334418,47.6548828 Z M18.2528931,48.9544054 C18.792817,48.9755789 19.3327408,48.9769022 19.8713413,48.9663155 C19.7972341,48.6817968 19.5828526,48.481972 19.3883212,48.2768539 C18.8642775,48.1683398 18.5479986,48.5997495 18.2528931,48.9544054 Z M21.5665169,47.9288544 C22.3221456,47.9129743 23.1876118,47.8243104 23.7473858,48.4462815 C23.825463,49.5314225 23.7738526,50.6284737 23.7606192,51.7175848 C23.3715564,51.7797819 22.9983738,51.6937646 22.6807715,51.4595329 C22.4756534,51.6156874 22.2546551,51.803602 21.9767532,51.7294948 C21.5506368,51.5931905 21.1827475,51.3219053 20.8452951,51.0347399 C20.8519118,50.621857 20.7433977,50.158687 21.0398265,49.8159412 C21.4288893,49.1873534 22.2546551,49.270724 22.883243,49.1172162 C22.840896,48.4502515 21.9039693,48.6236094 21.5069665,48.8631344 C21.3958057,48.6897765 21.153634,48.5349454 21.2250945,48.3007138 C21.3309619,48.1695705 21.4527094,48.0519253 21.5665169,47.9288544 Z M22.92956,50.5212829 C22.9772003,50.3135181 22.9467634,50.0978132 22.9441167,49.8874017 C22.790609,49.8966651 22.6185744,49.8715216 22.4902102,49.977389 C22.1686379,50.0395861 21.7001745,50.070023 21.6644443,50.4921694 C21.5956305,50.8547653 22.0058667,50.9844529 22.234805,51.1564874 C22.4796234,50.9606327 22.7588487,50.7912448 22.92956,50.5212829 Z M25.3473072,51.9041364 C25.0746986,51.902813 24.8034133,51.9014897 24.5334514,51.8961963 C24.5413914,50.8983959 24.431554,49.883392 24.6472589,48.9014717 C24.6882825,48.6619466 24.5930018,48.3827213 24.7359228,48.1736332 C25.0892553,48.0783525 25.3777441,48.2808239 25.6529993,48.474032 C26.1466062,47.863971 26.9816355,48.238477 27.4289253,48.709587 C27.8934186,48.2106868 28.6371373,48.427715 29.2352882,48.4766786 C29.5700939,48.8961783 29.7487452,49.416252 29.7236017,49.9548525 C29.6561112,50.6271106 29.6905181,51.3046621 29.6905181,51.9808903 C29.400706,52.1224879 29.0791337,52.1780683 28.7721182,52.0470574 C28.736388,51.1683578 28.7985851,50.2883349 28.7707949,49.4096353 C28.5630301,49.2945045 28.3579119,49.1740803 28.1607339,49.0443927 C27.9767892,49.2124572 27.7849045,49.3752284 27.5903731,49.5313828 C27.6036066,50.3121551 27.5983132,51.0916039 27.5916965,51.8723762 C27.2277772,51.9967704 26.8479779,51.995447 26.4800886,51.8842862 C26.5727226,51.6963716 26.7024102,51.5137503 26.6838834,51.2953987 C26.67462,50.628434 26.720937,49.9574992 26.6613865,49.2945045 C26.4774419,48.9769022 26.0844091,49.1092365 25.786657,49.0814463 C25.1104288,49.8807453 25.6649094,50.9857365 25.3473072,51.9041364 Z M39.679096,51.9505063 C38.8533301,51.7533282 38.6164518,50.8044915 38.4060403,50.0965031 C38.6243918,49.564387 38.748786,48.9134347 39.2370995,48.5561321 C39.4316309,48.3695408 39.7161496,48.4237979 39.960968,48.4039477 C40.4069345,48.4052711 40.8542244,48.3854209 41.3001909,48.4277679 C41.8665816,48.7744837 42.1378668,49.4480652 42.1683037,50.0859164 C42.3575417,51.3444153 40.8436376,52.5248371 39.679096,51.9505063 Z M39.5189715,49.567166 C39.5745519,50.0012224 39.3601704,50.5358529 39.7015928,50.8852154 C39.9834648,51.2359012 40.5604423,51.3113318 40.9283316,51.06519 C41.1175696,50.740971 41.3385678,50.3995486 41.2472572,50.0065158 C41.1109529,49.6611233 40.9071581,49.3461678 40.659693,49.0722358 C40.1819662,48.9650451 39.8167236,49.2257436 39.5189715,49.567166 Z M29.1413309,57.7943747 C29.2154381,57.6435136 29.3835026,57.5773465 29.5131902,57.4873592 C30.002827,57.1962238 30.4646736,56.8349512 31.0204776,56.6761501 C31.0257709,56.8124544 31.0350343,57.0837396 31.0390044,57.2200439 C31.2375058,57.1432901 31.4373305,57.0705062 31.6384786,57.0030157 C32.2855932,57.5416162 32.6931828,58.2972449 33.1722329,58.9787665 C32.9869649,59.1521244 32.8003736,59.3228356 32.6071655,59.4856067 C33.0398986,60.1869784 33.5321821,60.8552665 34.0879861,61.4666509 C34.4982223,61.2866762 34.6212932,60.826153 34.9018419,60.5151674 C35.1400436,60.228002 35.3213415,59.899813 35.5635133,59.6166177 C35.4073588,59.4459065 35.2538511,59.2765186 35.1043133,59.1031607 C35.4457358,58.4295792 35.8228884,57.7480577 36.3800157,57.227984 C36.7730485,57.1366734 37.1435845,56.9222918 37.547204,56.9024417 C38.1202115,57.0996198 38.5939682,57.4966226 39.1021318,57.8155482 C38.9684742,57.9690559 38.8348166,58.1225637 38.7024823,58.2773948 C39.2529929,58.3290052 39.8061501,58.3713521 40.3593074,58.4084057 C40.4162111,58.4785429 40.5300186,58.6201406 40.5869224,58.6902777 C40.1118423,58.9695031 39.9358377,59.5081036 39.5560384,59.8786395 C39.3271001,60.1327214 39.0597848,60.3510729 38.8348166,60.6091247 C38.5516212,61.0220077 38.3253296,61.4745909 37.9931706,61.8557136 C37.7073285,61.575165 37.4281032,61.2866762 37.1700514,60.9809841 C36.8564191,61.6373621 36.2450348,62.0661251 35.9009657,62.702653 C35.8202418,62.8283705 35.6852608,62.9699682 35.809655,63.119506 C36.0849103,63.4569584 36.4078059,63.7560338 36.7571684,64.0180557 C36.4250094,64.5090159 35.8797922,64.7723611 35.439119,65.1481904 C35.2591444,65.2672913 35.064613,65.463146 34.8303814,65.3533085 C34.5961497,65.1296636 34.3804448,64.8888152 34.1422431,64.671787 C33.7928806,64.8954319 33.5864392,65.459176 33.1179758,65.412859 C32.5555552,64.9430723 31.9243207,64.5553328 31.4492406,63.9849721 C31.7562561,63.6475197 32.1056186,63.3524143 32.4907114,63.1075959 C32.5026215,63.0652489 32.5264416,62.980555 32.5370284,62.938208 C32.0275414,62.324177 31.4532107,61.7273494 31.1210516,60.9955408 C31.0720879,60.9968642 30.9728372,60.9995109 30.9225502,61.0008342 C30.8008027,61.3409333 30.5586309,61.6056018 30.3032258,61.8530669 C29.8585826,61.4468007 29.5939141,60.8976135 29.1995579,60.4490003 C28.7853517,59.760862 27.9926693,59.378416 27.6710971,58.6307273 C28.1144169,58.2641614 28.6675741,58.1834375 29.2260248,58.2615147 C29.1942646,58.1053602 29.1519176,57.9518525 29.1413309,57.7943747 Z M28.3936554,60.2054655 C28.6794975,60.4516073 28.9229925,60.740096 29.1122305,61.068285 C29.4245394,61.4719045 29.9565232,61.8927275 29.8493325,62.4564715 C29.554227,62.7714271 29.2630916,63.0916761 29.0169499,63.4489786 C28.5762767,63.2345971 28.09458,63.0744726 27.7399241,62.7224634 C27.403795,62.3863344 26.9048948,62.2222399 26.6865433,61.77495 C26.3490909,61.354127 26.2577802,60.8128798 25.9878183,60.3550032 C25.8104904,60.0625445 25.8753342,59.6946552 25.9084177,59.3717596 C26.272337,59.0131337 26.7805006,58.7233216 27.303221,58.9032962 C27.7491875,59.2645688 27.955629,59.8336062 28.3936554,60.2054655 Z M41.6058831,61.6545523 C40.9203915,62.3982709 40.1607928,63.155223 39.1629923,63.445035 C38.9419941,63.0996426 38.7051157,62.7661602 38.4391238,62.4538513 C38.3967769,62.2447632 38.4245671,62.0290583 38.4245671,61.8186468 C39.3839906,60.9452406 39.9715547,59.7317353 40.987882,58.9072927 C41.5039857,58.7167314 42.014796,59.0184535 42.3734219,59.3731094 C42.4303256,59.6099877 42.4303256,59.8720096 42.3191648,60.0943312 C42.0994899,60.6196983 41.972449,61.2032924 41.6058831,61.6545523 Z M36.2582947,65.0422568 C36.5428134,64.8014084 36.8498289,64.5367399 37.2468317,64.5473266 C37.8555694,65.3097044 38.4404869,66.0876976 38.9526205,66.9200802 C38.5331209,67.4203038 37.9826103,67.7776063 37.4387164,68.1282921 C36.9279061,68.292519 36.7055845,67.7987798 36.5017897,67.4428006 C36.0147996,66.9399303 35.6005933,66.373672 35.1956504,65.8059579 C35.5463363,65.5465827 35.9340757,65.3360389 36.2582947,65.0422568 Z M32.8903609,66.1194843 C32.4126342,66.4754635 32.2260428,67.0669977 31.7615495,67.4335636 C31.4915876,67.6307417 31.4902643,68.1349353 31.0906147,68.1389053 C30.3138125,68.0647981 29.8096189,67.3846 29.2696951,66.8962865 C29.8268224,66.0625805 30.3243993,65.1759409 31.0985548,64.5169162 C31.7840463,64.7683513 32.249863,65.3453288 32.8705107,65.6999846 C32.8758041,65.8045287 32.8850675,66.0149402 32.8903609,66.1194843 Z M36.7439615,74.8165194 C37.00466,75.0269309 37.2587418,75.2518991 37.4585666,75.5258311 C37.1383176,75.5655314 36.8167453,75.5721481 36.495173,75.5708247 C36.1140503,75.1552951 36.2212411,74.5875811 36.2225644,74.0741241 C36.1471339,74.011927 35.9989195,73.8875327 35.9248123,73.826659 C35.9486325,73.6347743 35.981716,73.4442129 36.020093,73.2576216 C36.1074336,72.9876597 36.487233,72.9744262 36.7082312,72.8367986 C36.6354474,73.3052619 37.0417136,73.50244 37.4493032,73.50641 C37.4281297,73.5937506 37.3857827,73.7671085 37.3646092,73.8544492 C37.1555211,73.9126763 36.9451096,73.96958 36.7360214,74.0251604 C36.7399914,74.2885056 36.7413148,74.5518508 36.7439615,74.8165194 Z M41.9446588,72.7970718 C42.397242,73.0868839 42.8048316,73.5553472 42.8577653,74.1071812 C42.4422357,74.129678 42.0293527,74.1746716 41.6204398,74.2514255 C41.6217632,74.3215627 41.6257332,74.4631604 41.6270565,74.5332975 C42.022736,74.4962439 42.4210622,74.4552203 42.8193884,74.4830105 C42.8207117,74.6153448 42.8233584,74.7490024 42.8260051,74.88266 C42.3734219,75.160562 41.8692283,75.2518727 41.3451845,75.1804121 C40.9799419,74.7556191 40.609406,74.2606889 40.6742498,73.6678314 C40.5723524,73.708855 40.3672342,73.7922256 40.2653368,73.8345726 C40.2918037,74.3295028 40.3487074,74.8244329 40.3143005,75.3220098 C40.0972723,75.3206865 39.8802441,75.3167164 39.6632159,75.3114231 C39.632779,74.8045828 39.7479098,74.272599 39.5692585,73.7856089 C39.2304828,74.2117252 39.4303076,74.7741459 39.3853139,75.2717228 C38.9115572,75.3656801 38.4748541,75.6224086 37.9786006,75.5787383 C37.8171527,75.4305239 37.6557049,75.2823095 37.4889637,75.1433585 C37.4836704,74.5610877 37.482347,73.9788169 37.4955804,73.3965461 C37.5988012,73.4097795 37.8039193,73.4375697 37.9058167,73.4508032 C37.8767032,73.9179432 38.0659412,74.3453829 38.1929821,74.786056 C38.2022455,75.0295511 38.6918823,74.9541205 38.5939549,74.685482 C38.6164518,74.218342 38.5820449,73.7525253 38.6151284,73.2867087 C38.9128805,73.2681819 39.1921059,73.3608159 39.4647145,73.4719766 L39.4210442,73.3515525 C39.8471605,73.2800919 40.2626902,73.1596678 40.6663097,73.0048367 C40.7404169,73.191428 40.8105541,73.3793427 40.8780445,73.569904 C41.0011154,73.1001173 41.509279,72.8658857 41.9446588,72.7970718 Z M41.2393171,73.894123 C41.5211891,73.8226625 41.7990911,73.7326752 42.0637596,73.6082809 C41.7302773,73.3700793 41.3848848,73.5540239 41.2393171,73.894123 Z M34.7430407,73.5037766 C35.0010926,73.5646503 35.2710545,73.609644 35.5013161,73.7499183 C35.8824389,74.2263217 35.8969956,74.8694663 35.8943489,75.4530605 C35.6905542,75.4795273 35.4867594,75.5073175 35.2829646,75.5351077 C35.2538511,75.1209014 35.2935513,74.6961084 35.1903306,74.2911655 C35.0275594,74.0397304 34.7139272,74.1561846 34.4730788,74.1641246 C34.4439653,74.6577315 34.4399953,75.1513383 34.4399953,75.6462685 C34.3248644,75.6661186 34.0946028,75.7084656 33.979472,75.7283157 C33.6380495,75.0163573 33.8749279,74.1892681 33.8193475,73.4270227 C34.1290097,73.4217293 34.4373486,73.4614296 34.7430407,73.5037766 Z M32.4721978,75.0480779 C32.9313977,75.0163176 33.3892743,75.0560179 33.7571636,75.3643568 C33.5017585,75.539038 33.2370899,75.7018092 32.963158,75.8447302 C32.6376157,75.6925458 32.30678,75.5562415 31.9706509,75.434494 C31.8303766,74.9739707 31.6530486,74.4327235 31.9640342,73.9999904 C32.1598889,73.4918268 32.7659799,73.4441864 33.2317966,73.4296297 C33.3628075,73.6413645 33.5242553,73.8319259 33.6909965,74.0171939 C33.6857031,74.2620123 33.6777631,74.508154 33.669823,74.7556191 C33.2688501,74.7516491 32.866554,74.7476791 32.4655811,74.7582658 C32.4669044,74.8310497 32.4708745,74.975294 32.4721978,75.0480779 Z M32.7937701,73.9324999 C32.5277782,73.8319259 32.4020606,74.1415881 32.2419362,74.2898025 C32.5727719,74.3136226 32.9049309,74.3136226 33.2370899,74.2858324 C33.0954922,74.1601149 32.9644813,74.0158705 32.7937701,73.9324999 Z M36.5904272,50.0024796 C36.3509022,49.5551898 36.4686797,49.0351161 36.4554463,48.552096 C36.786282,48.5256291 37.114471,48.5626827 37.4413366,48.6010596 C37.6239579,48.5163657 37.7920225,48.4052049 37.9786138,48.3297744 C38.1903486,48.2993375 38.3795866,48.4356418 38.5820581,48.4806354 C38.566178,48.7333939 38.5383878,48.984829 38.4761907,49.2309708 C38.1943187,49.2812578 37.9111233,49.3341915 37.6266046,49.3685984 C37.4400133,50.2380346 37.5882277,51.139231 37.539264,52.0219007 C37.2229851,52.1595283 36.9000894,52.1396782 36.597044,51.9782303 C36.5957206,51.3192057 36.6288042,50.6588576 36.5904272,50.0024796 Z M31.1117618,73.7816653 C31.2467427,73.5752238 31.6543323,73.1861611 31.7549063,73.6188942 C31.7046193,73.8862094 31.5762551,74.1323511 31.5114113,74.398343 C31.4611242,74.8337228 31.2665929,75.236019 30.9556073,75.5470046 C30.7743094,75.5628847 30.5930114,75.5695014 30.4117134,75.568178 C30.2754091,74.8906265 30.0305907,74.2316019 29.738132,73.6069841 C29.5515406,74.2646854 29.8479694,74.9792905 29.5555107,75.614495 C29.1241009,75.4239337 28.6807811,75.2770426 28.2030544,75.3207129 C27.8153149,75.3868801 27.7584112,74.9515003 27.5929934,74.7053586 C27.58373,74.9118 27.5797599,75.1182415 27.5784366,75.3260063 C27.4580124,75.3193896 27.217164,75.3074795 27.0967398,75.3008628 C26.9366154,74.9819372 26.7685508,74.668305 26.607103,74.3507027 C26.4046316,74.3546727 26.2021601,74.3626128 25.9996887,74.3665828 C25.8527976,74.5955211 25.7125233,74.8297528 25.5616622,75.0573677 C25.3922744,75.0031107 25.2255332,74.9435603 25.0614387,74.8800398 C25.0707021,74.7702024 25.0892289,74.5492041 25.0984923,74.4393667 C25.5576922,73.7485817 25.9255815,73.0048631 26.3186143,72.2770246 C26.5237324,72.2611445 26.7275272,72.2479111 26.9339687,72.236001 C27.0940931,72.9069358 27.1893738,73.6149241 27.5162395,74.2289552 C27.6909207,73.9073829 27.8828054,73.595074 28.1064504,73.3052619 C28.4161126,73.2854118 28.7257748,73.2840884 29.035437,73.2946752 C29.0619038,72.9823663 29.128071,72.6779975 29.2114416,72.3775987 C29.4297931,72.4133289 29.6441746,72.475526 29.8625262,72.517873 C29.8638495,72.7693081 29.8598795,73.0194199 29.8519394,73.2721784 C30.1338115,73.3701057 30.4077434,73.4931766 30.6446218,73.6784446 C30.6525618,73.9351731 30.6578552,74.1932249 30.6697653,74.4512768 C31.0244211,74.4221632 30.9450206,74.0026636 31.1117618,73.7816653 Z M28.8885459,74.7807891 C29.089694,74.4724502 29.089694,74.1323511 28.8858992,73.8253356 C28.6318174,73.8676826 28.2678982,73.7472584 28.1779109,74.0754474 C27.9992596,74.2951223 28.2189345,74.5571442 28.2824549,74.7781424 C28.483603,74.7768191 28.6860745,74.7768191 28.8885459,74.7807891 Z M26.2034835,73.8518025 C26.3834581,73.8518025 26.564756,73.8491558 26.746054,73.8425391 C26.6984137,73.5712538 26.6362165,73.3012919 26.5634327,73.0366233 C26.3662546,73.2695317 26.2101002,73.5381703 26.2034835,73.8518025 Z" id="Combined-Shape"></path>
                        </g>
                    </g>
                </g>
            </g>
        </g>
    </g>
</svg>