<svg height="80" viewBox="0 0 69 80" width="69" xmlns="http://www.w3.org/2000/svg"><path d="m67.6731019 37.4942306c.1548311 1.0242673.2104115 2.0829415.6113844 3.0503051v.5835942c-1.3167261.0727838-2.6056619.3850927-3.9104779.5599063-.1204242.7105027-.054257 1.4409879-.2276149 2.1423596-.2130582 1.367013-.4883135 2.722116-.7172518 4.0851591-.4618466 1.8023928-.8509094 3.6272824-1.4239168 5.3992384-.9607469 3.3229137-2.3145265 6.5240798-3.9567949 9.5677681-1.9903075 3.6643361-4.4821619 7.0798838-7.5258502 9.9409508-2.6625656 2.5236147-5.7883012 4.5814127-9.2250224 5.8809352-.9673635.2990755-1.9135536.690785-2.9179708.8495861-.3374524.1495377-.668288.3124412-1.0123572.4459665h-1.3273128-4.5456823c-.6431446-.193208-1.312756-.2567285-1.965164-.4089129-1.1301347-.1667412-2.1835156-.6246178-3.2660099-.9673636-2.5302314-1.0467641-4.9135717-2.4759743-6.9766631-4.2810138-1.2823191-1.0467641-2.4653875-2.2165991-3.5161217-3.4962716-1.4397969-1.5944956-2.6453621-3.3810084-3.8165205-5.1782402-1.4649404-2.3793702-2.75916962-4.8659313-3.82049051-7.4490963-.92898662-2.2510061-1.67138191-4.5721493-2.32775991-6.9157893-.41288294-1.7984228-.96604022-3.5690554-1.20027188-5.4032085-.22364493-1.3934799-.56771405-2.7816664-.59153422-4.1949965-1.34186955-.1680645-2.66388897-.4869901-4.01369858-.5769774v-.7212219c.36656594-1.1393981.44199648-2.3409933.62726447-3.517445.33480571-1.918847.65770135-3.8390173.88663964-5.7737445.26731524-1.5588977.51213365-3.1204422.76886215-4.6819866.06087376-.6669648.1640945-1.3299595.33215903-1.9783974 1.05602752-.0092634 2.08558818.285842 3.1416157.3162789.55315728.2092205 1.16454163.0330835 1.7084355.2739319.50816362.1945314 1.06793761-.0026467 1.58271794.1614478.5293371.176137 1.11425457-.050287 1.62506487.2011481.328189.1111608.787389.2620219 1.0441175-.0569037.0410236-.5027379-.5293371-.6815215-.8151792-.9925071-.0251435-.4075895-.0291135-.8204725.0185268-1.225283.0727839-.2740643.177328-.5453496.1521844-.8338383-.0383769-.4856668.1468911-.9501601.3731827-1.3683364.1971781-.1865913.4234697-.3374524.6352045-.5055169.6127077.5690373.555804 1.4689104.8191492 2.2020423.2911354.3811227.7648921.559774 1.0904344.9078131.3070155.2382017.3903861.6338812.4644933.9951538.0939574.4922835.2924588.9541301.46714 1.4212701.4724334-.0052934.9607469-.0767539 1.4159768.087473.8482627.2764463 1.7481358.0276578 2.6083086.2195425.7622454.1455677 1.5416943.0173358 2.3105564.0741072.6921083.281872 1.447737.0992507 2.1689588.2051182.4221463.0569037.841646-.0633882 1.2584989-.1177776-.6193244-.1032207-1.2174753-.293782-1.7997461-.521397-1.2452655-.6471146-2.6877091-.7357786-3.9409147-1.3603964-.412883-.2712852-.551834-.7873889-.833706-1.1724816-.3956795-.8098858-.8350292-1.5985981-1.3418695-2.3449634-.610061-.8006224-1.1989486-1.6158015-1.7865127-2.432304.7966523-1.2042419 1.6779986-2.3502567 2.5156745-3.5253851.2845187-.5465406.6457913-1.0586742 1.1936552-1.3683364.1283642.1799746.2143815.4011052.0913107.610061-.1932081.5333071-.2540819 1.1063145-.4843435 1.6277116.6815215.7769345 1.6263883 1.2637923 2.2761495 2.0697081.0569038.3692126-.0489636.7503353-.0185268 1.1248413.0317603.6285878-.2329083 1.2240921-.2183515 1.8526799-.0013234.3123089-.0224968.6232944-.0555804.93428.8681128.5809474 1.725639 1.1830684 2.6387455 1.6938787.4724333.3003988 1.0017704.5610973 1.3273127 1.034854.4883135.6854916 1.0176506 1.3458396 1.4265635 2.0829415 2.0723548.0264669 4.1460329.0080724 6.2183876.0052934 3.6153725-.0198501 7.2320682.0370536 10.8474406-.0105867 1.3736298-.5213971 2.8981207.0555803 4.2863072-.3877395.8072391-.0620648 1.6303583.0860173 2.4296573-.0913106.8125325-.2104115 1.6700586.092634 2.4733276-.1970458.6841682-.2581841 1.4464137.0567714 2.1239652-.2330406.4512598-.1839447.9475134-.088664 1.4212701-.1308786-.7384253-1.0230763-1.3815699-2.1108641-2.1292585-3.1271913-.3176023-.3665659-.1085141-.8812139-.2501118-1.3101093-.1998248-.6444679.0383769-1.3378995-.181298-1.9770741-.0979273-.2737996-.0555803-.5650674-.046317-.8482627 1.3656898.6894616 2.1279352 2.1226418 3.412901 2.9206175.9713336.6975339 1.5668378 1.9506072 2.81078 2.2258625.9581002.4115596 1.9162003.8297359 2.8782705 1.2333554.1707112.0794006.3586259.0992507.5438939.0701372 1.0110339-.1230709 2.0247144-.2129259 3.0304549-.3783437.1085141.3981938.2104115.80049.2726086 1.2094029.2368784 2.0300078.6391746 4.0348721.9554535 6.0529698.2527585 1.9214937.610061 3.8257839.9011964 5.7419842zm-4.3630611 6.308375c.223645-.6457913.0291136-1.351133.2845187-1.9916309-.6484379.1005741-1.3193727.0370536-1.9532539.231585-.4128829.0992507-.8575261.0013233-1.2571756.1693879-.5756541.2408484-1.2174753.0211735-1.8103329.1945314-.6193244.1720345-1.2862891-.038377-1.8910568.2090881-.5928575.2329083-1.2479122-.0238202-1.8473865.1680645-.7635687.2845187-1.6105081-.0476403-2.3727535.2461418-.8297359.3215723-1.8103329-.1535078-2.6016919.281872-1.0242673.2871654-2.1530787-.1071908-3.181316.235555-1.224092.0224968-2.4495074-.00794-3.6735995.0185268-.281872-.0052934-.5041936.2382017-.7860656.231585-5.4270286-.0172035-10.8540573-.0026467-16.2797626-.0079401-.1839446-.0635204-.3573025-.150861-.5386005-.2143815-1.2651157-.0449936-2.5315547-.0026467-3.7966703-.0277902-1.0282374-.3440691-2.1596954.0542571-3.1826394-.2380694-.795329-.4262487-1.7706326.038377-2.6003685-.2780343-.7635688-.2951054-1.6091848.0357303-2.3727536-.2460094-.6007976-.1933404-1.2558522.0647115-1.8487098-.1695202-.6047676-.2474651-1.2717324-.0370536-1.88973345-.2090881-.59285755-.1720346-1.23467879.046317-1.81033289-.1932081-.43670311-.1839446-.92501659-.0516104-1.36965975-.1985014-.5478639-.1839446-1.12881138-.0807239-1.69255539-.0648438-.02382017.5200737.05161037 1.0322074.20379478 1.5284609.03176023.7741555.21305819 1.5297842.40361955 2.2789285.34803914 2.3567412.93560333 4.672591 1.58536462 6.9632973.31760226.7437186.4022962 1.5775569.82444254 2.2748262.21173484.7079884.50287024 1.3895099.749012 2.0869115.66167138 1.5006707 1.23864882 3.0397183 2.01942109 4.486132.285842.4737567.4353797 1.0216206.7807722 1.4609704.3295123.4115596.4512599.9448667.7648921 1.3656897.424793.5240437.6431446 1.1804217 1.077201 1.6991721.3255423.3903861.5121336.8786996.8575261 1.2532056.3731827.3956795.5862408.9078131.9250166 1.3299595.1773279.2183515.4142063.3890627.5624207.6325578.3176022.5862408.9157532.9488368 1.2809958 1.5006707.3043688.5147803.7834189.887963 1.1896851 1.3154027.4353798.4102362.8085624.9025198 1.3365762 1.2002719.3705359.2329083.6193244.614031.9991238.8363526.4234696.2289383.6815215.6616714 1.0996978.8972264.9197232.5783008 1.7746026 1.2783491 2.7896065 1.6885853.5849175.2421718 1.0930811.6404979 1.7018188.8257659.5835942.1640945 1.0944045.5056493 1.6779986.6696115.7754789.3176022 1.629035.3414224 2.4098072.6365278.4049429-.0026467.8085624.0105868 1.1632183.2329084 1.5840412.0383769 3.1707292.0092634 4.7574172.0158801.3334824.0304368.5941809-.2552729.9263399-.2329084.555804.0595505 1.0427941-.2633452 1.5880113-.3109855 1.1367514-.1640945 2.1530787-.7357786 3.2554232-1.026914 1.7812194-.845616 3.5386185-1.7612369 5.1345699-2.9259108.4843434-.4552299 1.0520575-.8098858 1.590658-1.1976252.3970028-.3573026.7331319-.7900356 1.2055652-1.0573509.6563781-.5187503 1.2280621-1.1433681 1.7838661-1.7666626.3308357-.6153543.9250166-1.0150039 1.3736298-1.5364009.6907849-.9804647 1.4358269-1.9267871 2.1305818-2.9060607.3718593-.4697867.6246178-1.0202973 1.0070638-1.4834672.7675388-1.4040667 1.6581485-2.7444806 2.3026164-4.2148467.2673153-.513457.5862409-1.0083872.694755-1.586688 1.0017705-1.9664873 1.6422683-4.0904524 2.3343766-6.1760406.0052934-.0754306.0185268-.2262916.0251435-.3002665.231585-.2924587.3123089-.659157.3877395-1.0151362.2408483-1.1102846.6325578-2.1835156.799299-3.3096803.2077648-1.0016381.3467158-2.011481.5902108-3.0066347.1191009-.4155296.0410237-.8614961.1826213-1.2730557zm2.7856366-3.1760227c.424793-.2223215.9144298-.0873406 1.370983-.1415976-.0264668-.3017222-.1852679-.5610974-.2779019-.841646-.0370536-.3930328.0899873-.8231192-.1296876-1.1790984.0251435-1.3934799-.3559792-2.7538763-.5610974-4.120757-.0066167-.4090453-.0886639-.8086948-.1760045-1.2056976-.3546559-2.0432412-.5902109-4.0997159-.9964771-6.1323704-.0436703-.5875641-.1098375-1.1724816-.3030455-1.7322556-.9620702-.0489637-1.8950269.2540818-2.8359236.4049429-1.2809957.0224968-2.5196446.4406731-3.803287.4419964-.6815216.1985015-1.39348.1429211-2.0869116.2421718-.6894615.2527584-1.4411202.0145567-2.1358752.2382017-.5915342.2276149-1.2333554.054257-1.8420931.1826213-.8363526.2289383-1.7137289.0092634-2.5566982.1985014-.980597.2382017-1.9942775.0516103-2.9867846.1667412-.0357303.050287-.1085141.150861-.1442444.2011481-1.1857151.1058674-2.3846636-.0079401-3.5743488.0661671-1.0970511.5399238-2.3343766-.0489637-3.4870081.2104115-4.590676.0370536-9.1826754-.0092634-13.7746748.0145568-.3255423.0119101-.5862408-.2633452-.9157532-.2408484-.9276632-.0145568-1.8566499-.0105868-2.7843131-.0013234-.2898121.034407-.5253671-.1614478-.795329-.2262916-.8495861-.0767538-1.7124056.0516104-2.5580216-.0674904-.8535561-.2633453-1.787836.1071907-2.6136019-.2620219-.5862409-.1601245-1.1989486-.0264669-1.7931295-.0979274-.6471146-.3149556-1.3895098-.0449936-2.0591213-.1958547-.6325578-.4287631-1.4371502-.0105867-2.1107317-.2977521-.49096014-.1667412-1.05735085.1217475-1.51522744-.1614478-.41552962-.2726087-.93692667.0013233-1.36965975-.2117349-.44331983-.2104115-.96736356.042347-1.40141998-.1879147-.48302011-.3003988-1.08514106.0132335-1.57477788-.2737996-.32818901-.1059997-.90913648-.2925911-1.03485404.1705789-.31363223.4737567.00661671 1.0758777-.30436883 1.5469877-.17335791.3136322-.09925071.6868149.00264668 1.0110339-.5015469.4367031-.06881382 1.131458-.43670311 1.6224182-.16674119.3268656.01058674.7172518-.12174753 1.0560275-.16674119.3825784-.06087377.8019457-.09660402 1.2029186-.08072391.2421717-.26466855.4618466-.24217173.7292942-.01455677.2274826.05955043.476271-.07278385.6827125-.2289383.3771527.03176023.8588494-.20511813 1.2333554-.28054866.3956795.00397003.9131065-.25672849 1.3193728-.1918847.3123089-.09395734.664318-.03573026.9978004-.17071121.4142063-.27922532.8403227-.22761495 1.2929059-.2104115.374506-.16938787.7966523-.19320804 1.2095353-.16806453.3123089-.27128527.6444679-.22761496 1.0044171.44993654.0398326.93825002-.0952807 1.3524563.134981.43670311.231585.94883676.00794 1.40141998.1826213.44331982.1760046.94619007-.0514781 1.37362978.1839446.31098555.1482144.65373132.1640945.98456701.0754306.38509275-.138951.67093478.284651 1.0520575.2329083.37715268.0357302.79135896-.1058674 1.13939811.0873406.51213365.3189256 1.14072146.0198501 1.68858536.2064415.60212097.239525 1.29158257-.0913107 1.87385337.2104115.5108103.2514351 1.0970511.0555804 1.6263882.0860172.7053417.3639193 1.5152275.1468911 2.2721795.2037948.7582754.4300864 1.6541785.1640945 2.4812677.2434951.9753036.2845187 2.0101577.0621971 3.0039881.1601245.6907849.3083388 1.4570003.2064414 2.1901322.2302616.7979757-.0344069 1.6144782.088664 2.3952504-.1124841.2024715.1243942.3837694.3308357.6457913.277902 5.2073537.00397 10.4133841.0052933 15.6207379 0 .2606985.0529337.4419965-.1535078.6457913-.277902.8681128.2090881 1.7732792.0767539 2.6585956.1111608.6444679-.0079401 1.3140793.0423469 1.918847-.2262916.7185751-.0741072 1.4530303.0370536 2.1768988-.0397003.8469394-.2937821 1.7706326.00397 2.6321287-.1733579.8204725-.5200737 1.9254637.1680645 2.6982959-.4367031.4261164.1085141.8707595.0833706 1.3074627.0741072.328189 0 .5915342-.2805487.9250165-.2501118.5068403-.0092634 1.0335307.0820472 1.5258142-.0807239.5491873-.181298 1.1751284.1085141 1.6885854-.2077648.5015469-.2605662 1.127488.092634 1.6210949-.2157049.4486132-.3070155.9911837.134981 1.459647-.1468911.4552299-.2659919.9898604-.0449936 1.4689105-.2157048.4578766-.1707112.9726569.0449936 1.4159768-.1865914zm-30.7240488-34.13691002c-.5253671-.63652786-1.1513082-1.19100848-1.7454891-1.76269255.2792253-.53066045.1177775-1.12616469.2117348-1.68726202.2686386-.54257053.0052934-1.16586497.2249683-1.72166892.142921-.39567949.1098374-.81517914.1323342-1.22673874.1654179-.15615445.4247931-.05161037.6299112-.09131065.4036195.89060968 1.3180494 1.37362978 1.8103329 2.20071901.2990755.49096016.8270892.78738894 1.1089612 1.29025918.4314098.61403104 1.1036679 1.0335307 1.4781739 1.69387873.2752553.46581665.7662154.75033535 1.0586742 1.20159523.3956795.68549154 1.1248413 1.0957278 1.5324309 1.77327929.3268657.5756541.9316333.91442985 1.3008459 1.45700038.2143816.33215903.5121337.60079758.7172518.94089668-.378476.2620219-.7595987.0449937-1.1301347-.100574-.5796241.0423469-1.0758777-.3427458-1.6594718-.2620219-.841646-.24746509-1.7468125-.24217172-2.5791951-.53066044-.2699619-.02514352-.5491872-.01588012-.7966523-.14556771-.3506858-.19717807-.7595987-.07940056-1.1393981-.13498096-.2699619-.19453138-.2964288-.54918724-.4274397-.83105925-.2342317-.69078492-.5213971-1.3617197-.7278385-2.06309136zm-9.5862817 2.06440147c-.2368784-.38112272-.0794006-.86017279-.3189256-1.24658888-.0092634-.42479302-.0741072-.87737625.1111607-1.27570242.3440692.12836425.6722582.34803915.8509094.67887484.7437187 1.01897392 1.40142 2.10543832 2.2629162 3.03442494.328189.54654057.8297359.95545347 1.1579249 1.50331737 1.2651156 1.2849658 2.5381714 2.5699316 3.8324006 3.8244606.9197232.3242189 1.8447398.6378512 2.7737264.9395733.3612726.606091.3573026 1.3233428.5438939 1.9836908.281872.7318086.47508 1.4927307.652408 2.2549761.5994742.7344552 1.4675871 1.1764517 2.1821922 1.7851894.4909601.4075895 1.0824943.6801981 1.5377243 1.131458.5663907.3731827 1.2598223.5227204 1.7812193.9739803.5624207.3427458 1.2108586.5372771 1.7322557.9528068-.3136323.1786512-.7013717.2421717-1.030884.0661671-.3970029-.2276149-.8760529-.1204242-1.2809958-.3334824-.8244426-.1138074-1.6356517-.3400991-2.470681-.4062662-.3890627-.1230709-.7622454-.2699619-1.181745-.2408484-.3308357-.1746812-.6841682-.2448184-1.0560276-.2408484-.752982-.2884887-1.5893346-.2051181-2.3343766-.5028702-.2276149-.046317-.4618466-.0145568-.6881382-.0621971-.1932081-.0794006-.3639193-.2368784-.5862409-.2117349-1.4318568-.0052933-2.8637137.0026467-4.2942472-.0052933-.0569037-1.0202973-.1177775-2.0366245-.0979274-3.0595685-.5346304-.2236449-.9051664-.6801982-1.3101093-1.0745543-.3189256-.3202489-.7834189-.4644933-1.0454408-.8469394-.096604-.9117831-.4353797-1.7944527-.4353797-2.722116-.2011481-.4102363-.0701372-.887963-.2898121-1.2876125-.2183516-.378476.0344069-.8522328-.2209982-1.2187987-.1468911-.652408-.2871654-1.3140794-.2990755-1.9850141-.1985014-.3692127-.0608738-.8098858-.2712853-1.16983503-.2342316-.37979937.0211735-.86149614-.2064414-1.23864882zm20.3675286 6.11387005c-.281872-.2170283-.8363526-.2554052-.841646-.690785.0013234-1.6065381-.0251435-3.2130762.0145568-4.81829094.2130582-.01588012.4367031-.09528068.6471146-.02117349 1.2254154 1.20424193 2.4005438 2.46009423 3.6458093 3.64448593.2805487.2606985.424793.6259411.6775515.9091365 1.0560275 1.0838177 2.1411686 2.1398452 3.2024895 3.2170462.2236449.5544807-.6166777.4618467-.93031.3506859-.5121336-.3414225-1.1539549-.0277902-1.683292-.3162789-.6762281-.0238202-1.4384735-.0595505-1.9466372-.5690374-.94222-.5412472-1.9042902-1.065291-2.7856365-1.7057888zm-30.951624 15.4420734c-.0767539.4221463-.1535078.845616-.2037948 1.2730557-.7807722.0529337-1.5416943-.1640945-2.3198199-.1495377-.2805486.6616713-.332159 1.3775998-.2739319 2.0882348.0701372.0066167.2104115.0185268.2805487.0251435.4459665.1243943 1.0480874-.1707112 1.3802465.2024715.0727838.559774.0224968 1.1248413-.3758294 1.5588977-.5240437-.2501117-1.0983745-.3202489-1.6740286-.2911354-.0621971.656378-.2461417 1.2929059-.3162789 1.9479606.799299.4684633 1.7825427.2104115 2.5884584.6854915-.0410236.3149556-.0794005.6325579-.1720345.9395734-.050287.1296876-.1071908.2567285-.1680645.382446-.3056922-.0211734-.6312345.0291136-.9131066-.1164541-.9938304-.3295124-2.0723547-.2871654-3.08471192-.5438939.05558042-1.0864644.38112272-2.1332285.45522992-3.2157229.3215723-1.3802465.4128829-2.7975466.7079884-4.1817631.0780772-.3970028-.0304369-.841646.189238-1.2015952.2673152-.0648438.5386005.0238201.803269.054257.8244426.1005741 1.6488851.1998248 2.4772977.2421717l.0992507.0476404c.1720345.0860173.3467158.1680645.5200737.2527585zm42.7915981 6.6326071c-.0185268.46317.0476404.9025197.2289383 1.3312828-.4869901.4486132-1.1618949.2421717-1.7560758.3003988-.4353798-.652408-.7768022-1.3617197-1.1182246-2.065738-.46714-.7503354-.6643181-1.6700586-1.3246661-2.293353.3348057 1.5178741.4115596 3.0767719.7371019 4.5959694-.5425705.0621971-1.0785244.1680645-1.6038914.3189256-.0317603-.5372772-.0595505-1.0758777-.1746813-1.6025681-.0992507-.4644933-.0621971-.9554535-.235555-1.4027433-.3228956-.5505106.0674905-1.2452656-.2884887-1.7785727-.2580518-.4989002.0846939-1.1208713-.2223216-1.6105081-.1296876-.4406732.0330836-.9250166-.1111608-1.3670131-.1177775-.4022962-.0727838-.8231192-.0555804-1.2346788.5266904-.0595504 1.1248414.1495377 1.582718-.1985014.3506858.3176022.3387757.8178258.5531572 1.2135053.5306605 1.0057405 1.0838178 2.0233911 1.3802465 3.1244122.0158801.1111608.0330836.2209983.0502871.3321591.0899873.0066167.2699619.0211735.3599492.0277902-.0542571-.2196749-.1005741-.4393498-.1720346-.6537313-.3387757-.4181764-.096604-.9700103-.2686386-1.443767-.1521844-.4869901.0582271-1.0282373-.1958547-1.4887606-.185268-.3520092-.100574-.7662155-.0979273-1.1473382.150861-.2593751.4552299-.150861.7000483-.1773279.2461417 0 .4658166-.1323343.7000483-.193208.0714605.3136322.1945314.610061.2990755.9144298.0370536.416853-.0873407.8654662.1614478 1.2373255.2090881.3506858-.0304369.7926823.1773279 1.1433681.1733579.3149556.0264669.6934316.1442444 1.026914.1442443.4658167.1693878.9475134.1760045 1.4305335.2712853.5266904.0185268 1.1552783.374506 1.6607952zm-38.8136166-6.3189617c.5743308 0 1.1420448.1071908 1.7137289.1508611.0198502.050287.0608738.1521844.0820473.2024714-.3546559.5928576-.5769775 1.2611457-1.0202973 1.7997462-.3215723.6537313-.6285878 1.3140793-.9911837 1.9492839-.2434951.3678893-.0052934.7940056.1138075 1.1618949.0674904.6960783.525367 1.2823191.5915342 1.9810441.054257.6418213.4578766 1.1949785.5081636 1.8328297-.4883135-.1627711-.9938304-.1998247-1.5059641-.1812979-.3864161.046317-.4737567-.4194997-.4816967-.7093117-.1402744-.5994743-.4062663-1.1764518-.4433199-1.7984228-.046317.0370536-.1389509.1085141-.1865913.1442443-.3639192.6854916-.6881382 1.3921566-1.0097105 2.0974983-.6140311-.0357303-1.2518823.0357302-1.8394464-.1733579.0979273-.3850928.3176022-.7212218.5333071-1.0494108.3943561-.6325579.6656414-1.3352529 1.1036678-1.9413438.2157049-.4565533.5769775-.8786996.5663907-1.4080367.034407-.5425706-.293782-1.0110339-.336129-1.5390477-.2580519-.9236932-.5452172-1.8354764-.791359-2.7618163.5663907-.0291135 1.1341048-.0172035 1.7018188-.0026467.1455677.2527585.2501118.5293371.2845187.8217959.0780772.610061.3215723 1.1883618.3268657 1.8076862.1521844-.324219.3612725-.6259412.4314097-.9819204.0979274-.517427.47111-.9157531.6484379-1.4027433zm32.5184619 5.1808869c.3811227.6166777.1826213 1.3670131.2196749 2.053828-.1627711.3705359-.3506858.7331319-.5518339 1.0838177-.2487885.2765786-.6418213.3625959-.9528068.5531573-.5240437.058227-1.0560275.0330835-1.5813946.0211734-.660348-.2408483-1.2267387-.7331318-1.4927306-1.3974499-.0277902-.5028702.0621971-1.0242673-.185268-1.4874373-.0026467-.7873889.0013233-1.5880113-.2104115-2.3542267-.0291135-.7516587-.0198501-1.5072874-.0066167-2.2602695.1746812-.5293371.559774-.9726569 1.026914-1.2690857.2871653-.2143815.6669647-.1177775 1.0004471-.1442443.4883135.0330835 1.0586742-.1138075 1.4689104.2276149.4155297.3930328.8720829.837676.9197233 1.4411203.1693878.5571273.1905613 1.1314581.1720345 1.7110822.273932.5716841.1111608 1.2121819.1733579 1.8209196zm-1.4847906 1.6647652c-.0291135-.4644933.0873407-.9633935-.1270409-1.3961266-.2951054-.5928576.0767539-1.308786-.2408483-1.8923801-.2686386-.509487-.0277902-1.1076379-.1707113-1.6488851-.1442443-.1945314-.2752553-.5280138-.5756541-.4552299-.2726086-.0185268-.4128829.2620218-.610061.4022962.0119101.3467158-.0701371.7159284.0397003 1.0480874.4261164.6669648.0569038 1.4887606.2726086 2.2099824.189238.5544807 0 1.1513082.1164542 1.7176989.1124841.3374524.47508.4353798.7371019.6285878.1945314-.1958547.416853-.3731826.5584506-.614031zm-26.3834713-6.5439167c.9633936.0727839 1.7772494.7595987 2.1610188 1.6316816.0145567.7543054.0092634 1.5099341.0013233 2.2642395-.1508611.378476-.3440691.7371019-.5518339 1.0864644-.2170282.328189-.6087377.4512599-.9276633.652408-.4009729.3136322-.9329567.150861-1.3987733.1746812-.1032207.2527585-.2289383.4975769-.3083389.7595987-.0291135.7741556.0357303 1.5536044-.0251435 2.3264366-.0635204.0595504-.1918847.1773279-.2554051.2368784-.4459665-.2342317-.9236933-.3639193-1.4305336-.3043689.0013234-.7198984-.0899873-1.4583237.084694-2.1649887.1614478-.7582754-.1548311-1.594628.2051181-2.3065864.0569038-.5902109-.0489637-1.1923319.0449937-1.775926.3996495-.7463653.1336576-1.6158015.2183515-2.4217173.046317-.0383769.1376277-.1151308.1839447-.1535077.6656414-.0158801 1.3312828 0 1.9982475-.0052934zm.6907849 2.6863858c.1164542-.4367031-.3070155-.6960783-.5571273-.976627-.243495.0039701-.4869901.0026467-.7291618.0013234-.2487885.7595987-.0251435 1.5761012-.1799746 2.3555501.4102362.0092634.8284125.0198501 1.2108586-.1521844-.0304369-.4314098.1177775-.8284126.2554051-1.2280621zm21.8431088 3.2434866c.0952807.6788749.0079401 1.3696598.0476404 2.053828.0873406.277902.2276149.5399238.2554051.8363526-.324219.0291136-.6788748-.0476403-.9581001.1614478-.2382017.181298-.5359538.0952807-.7847423-.0092634.0066167-.3943561.0648438-.8112091-.185268-1.1486615-.2090881-.9475134.1693879-1.9982475-.2249682-2.9153241-.0516104-.8694362.0820472-1.7521058-.1177775-2.6083086-.0608738-.7371019-.0145568-1.4781738-.0291136-2.2165991.420823-.1296876.8667895-.0833706 1.3008459-.0780772.2342317.142921.1508611.4234697.1879147.652408.4446432.8138558.1468911 1.7719559.2408484 2.6559489.3996495.8125325-.0119101 1.7679859.2673152 2.6162486zm-15.5903142-5.4098119c.2249682.3599492.0701371.8310592.0939573 1.2373255-.0410236.0463169-.1230709.1389509-.1627711.1852679-.7701855.0410237-1.5430177-.0066167-2.3132032.0211735.0079401.6669648.0211735 1.3352529-.0145568 2.0022176.5783008.1707112 1.1896852.0688138 1.7838661.0820473-.0741072.5293371-.1667412 1.0560275-.1905614 1.590658-.5822708.01191-1.1658649.0013233-1.7481358.0132334.0251436.6722581.0251436 1.3458396-.0013233 2.0180977.8085624.0277902 1.6184482-.0251435 2.4256873.0370536.0264668.5690374.0330835 1.1393981-.0013234 1.7084355-1.3537796-.2686386-2.7393195-.1071908-4.1103026-.1588011-.2262916-.9700103-.0608737-1.9704574-.0145567-2.949731.0436703-.1574778.1693878-.2911355.1654178-.4605233.0079401-1.2267388-.0092634-2.4548008.0052934-3.6815396.3678893-.5809474.1812979-1.270409.243495-1.9162003.6934316.0317602 1.4225935-.1230709 2.0816182.1495377.5822708.0727839 1.2055652-.1217475 1.7573992.1217476zm12.7755642-.2660316c.1707112.4472898.0370536.9739802.0714605 1.4530303-.4750801.092634-1.077201-.1667412-1.4570004.1707112-.00794.3586259-.0066167.7185752.00397 1.0785244.0674905.2659919.2554052.5028702.2329084.7900356-.0013234.9250166.00397 1.8500332-.0026467 2.7763731-.050287.3387758.2871654.5835942.2540818.9236933-.0211735.6021209.0701372 1.220122-.096604 1.8090095-.5359538.00397-1.0705843.0092634-1.6038914.0026467l-.0013234-.1204242c-.0555804-1.1830684.1283643-2.3926037-.1905613-3.5505286-.1243943-1.2042419-.0092634-2.4203939-.0701372-3.6286058-.4194997-.0119101-.8403227.0132334-1.2598223-.0132335-.2951055-.1640945-.1138075-.5227204-.2448184-.7728321-.084694-.1865914-.1442444-.3903862-.0820473-.5928576.2143815-.1561544.4234697-.3864161.7159285-.3361291 1.2426188.0079401 2.4878843-.0224968 3.7305032.0105868zm-5.2060172.2527849c.1601245.7516587.0132334 1.5258142.0873406 2.2840896.0476404.2289383.1508611.4486132.131011.6894616-.0039701 1.8553265.00397 3.7106531 0 5.5659796-.3308357.4486132-1.0454408.3308357-1.5496344.3348057-.0013233-.4009728.0397003-.8165024-.1602568-1.1804217-.0885316-1.7865127.0636528-3.5889056-.0992507-5.3740949.0330836-.7715089-.0739749-1.5549278.0729162-2.3171732.4962535-.138951 1.0216206-.1495377 1.5178741-.0026467zm-3.8006801.0304501c.5756541.3559792 1.081171.8813463 1.3921566 1.4887606.0198501 2.0313312.0224968 4.0639856.0013233 6.0953168-.4194996.2990754-.7423952.702695-1.1116079 1.0560275-.3652426.1958547-.8019457.2262916-1.2108586.2223216-.7344552-.0066167-1.4689105.0052933-2.2020423-.0105868-.0158802-2.0128043-.0066168-4.0242853 0-6.0357663.2143815-.9395733.0913106-1.9069369.1349809-2.8623904.9964771.0291136 2.0061876-.058227 2.996048.046317zm-.1812979 6.5333432c.00397-1.4186234.0026466-2.8372468.0013233-4.2558703.0277902-.239525-.1415977-.416853-.2554052-.6047676-.332159-.0079401-.6629947-.0079401-.9938304-.0052934.0211735 1.8235663.0198502 3.648456 0 5.4733456.3308357.0026467.6629948.0013234.9938304-.00397.1085142-.1905613.273932-.3692126.2540819-.6034443zm28.0191759-6.1535703c.4142062.324219.7040183.7688622.9011964 1.2518823.0291135.4367031.0317602.8773762-.0026467 1.3154027-.2130582.46714-.5253671.8866396-.8945797 1.2426188-.752982.2501118-1.6184482.281872-2.3661369.0026467-.3797993-.3030455-.7000483-.6815215-.9303099-1.1089612-.0370536-.5293371-.0357303-1.0639676-.0013234-1.5933047.3017222-.6722581.8826697-1.2029186 1.6078615-1.3656897.5756541-.1508611 1.1526315.0436703 1.6859387.2554051zm-1.347163 2.9153241c.4830201-.1495377.8760529-.517427 1.0110339-1.0110338-.092634-.3255424-.3308357-.5796242-.5147803-.8548795-.277902-.0092634-.610061-.0899873-.8032691.1720346-.193208.2342317-.5981509.4194997-.5610973.7635688.2633452.332159.6074143.5928575.8681128.9303099zm-54.50450488-3.1283955c.82973591-.3109855 1.67667527.1640945 2.29070631.7040184.57816845.5809474.38112272 1.4371502.38112272 2.1729288-.2567285.6484379-.84958605 1.1354281-1.52052083 1.3061393-.48566679.0555804-.98456701.0423469-1.46374942-.0595505-.41407395-.0476403-.61919208-.4472898-.86268715-.7357785-.88002293-1.1221947-.27525529-3.1217656 1.17512837-3.3877575zm.75430537 2.9907546c.34936249-.189238.58094747-.5306604.77018549-.8694361-.16938788-.316279-.374506-.6166778-.6590247-.8403227-.53727715-.1905614-1.11293125.2342317-1.24923556.749012-.01191008.563744.59153421 1.0361774 1.13807477.9607468zm11.02736231 12.575766c-.5333072.0555804-1.0414708-.1640945-1.5734546-.1521844-.0727838.4697866.1032208.9911837-.1680645 1.41333-.2395251.4181763.0476403.9488368-.1905614 1.3736298-.2170282.3970028-.1204242.8601728-.1640945 1.2929059-.2990754-.0304369-.6974016.1270409-.887963-.181298-.0132334-.4472898-.0979273-.9303099.1230709-1.3405462.2659919-.420823-.0330836-.9528068.2077648-1.3775998.2474651-.3996495.1045441-.883993.1601245-1.3246661-.2884887-.0052934-.5769774-.0079401-.8654662-.0066167-.235555-.2302617-.7000483-.610061-.3043688-.9197232.4115596-.0211735.8323826-.0277902 1.2333555.0899873.382446.1018974.8019457-.0449937 1.1645416.1495377.3970028.1998248.9369267-.1177775 1.2584989.235555.0198502.2487884.0092634.4975769.0066168.7476887zm35.1612435 2.331677c.1191008.4328654.0317602.8972264.0449936 1.3431929-.3003988-.0410237-.7212218.1680645-.9078131-.1574778.0158801-.47111.046317-.9528068-.2130582-1.3709831.0185268-.5108103-.138951-1.0494108-.6431446-1.2730557-.2090881.1349809-.4194996.2673152-.6259411.4049428.0397003.6644504-.1323343 1.3709831.1760046 1.9889842.0145568.1985014.0013233.3970028-.0013233.5968276-.3083389.0754305-.6246178.1032207-.9395734.1283642.1164542-.4552299-.2051181-.8442926-.1535078-1.2929058-.00397-.2977522.0397003-.6127077-.1204241-.880023-.2580519-.4194996.0317602-.9448667-.1998248-1.367013-.2699619-.4592-.1905614-1.0216206-.0794006-1.5152275.2593752-.0727838.5187504-.146891.7834189-.1985014.1085141.2527585.1614479.5188827.0780773.7888446-.1085141.3730503.1521844.699916.2646685 1.0386917.138951-.1376276.2752553-.2777696.4261164-.4009728.5928575-.1336576 1.2426188.0013233 1.6846153.4261163.3480392.5227204.1177775 1.2015953.4261164 1.7401958zm-4.7931872-1.0281712c.3136322.6180011.1680645 1.3114327.2223216 1.9757508.3202489.0304368.6378512.0780772.9528068.1482143-.0092634.2606986-.0172035.5213971-.0370536.7820956-.4075896.0158801-.8323826.1032207-1.2293854-.0172034-.6894616-.5452173-.6775515-1.4967007-.6404979-2.293353.0383769-.4181764-.4578766-.4194997-.7397486-.5187504-.1230709.7119584-.2223216 1.4265635-.4843435 2.1054383-.1402743.3096622-.0608737.6616714-.0899873.9911838-.2845187.0092633-.567714.0132334-.8509094.0066167-.4155296-.6312345-.7715088-1.3193728-.9131065-2.0670614-.2964288.606091-.3215723 1.2876125-.4764034 1.9334037-.0952807.1363043-.2090881.2580519-.3109855.3890628-.1826213-.0013233-.3639193-.0052934-.5438939-.0132334-.2686386-.1323343-.3003988-.4658167-.4128829-.7119584-.3784761-.8786996-.6762282-1.7891594-1.0679376-2.663889.1032207-.3070155.4565532-.1508611.6974016-.1746812.2977521-.0158801.382446.3308357.4578766.5558039.2051181.5240438.332159 1.0824944.6074143 1.5761013.1574778-.8032691.3414224-1.6012448.6166777-2.374077.2421718.0013234.4843435 0 .7278386.0013234.1561544.7198984.4843434 1.3855399.7198984 2.0816181.0595504.0052934.1773279.0145568.2368784.0185268-.0489637-.7675388.1812979-1.498024.2448184-2.2562994.4605233-.0476403.9183998-.1243942 1.3828932-.1124841-.046317-.332159 0-.6577013.1323342-.9660402.2487885.0238202.4869902.100574.7172518.1945314.0529337.2183515.1138075.4340564.1733579.652408.1958547-.0066168.3917095-.0119101.5888875-.0145568.1177775.2170282.2421718.428763.3758294.6378512-.3387758.1296876-.7013717.1283642-1.0573509.1336576zm-16.2889995 3.2858733c-.2884887-.3666983-.4697867-.8045924-.6656414-1.224092-.0105868-.4419965-.0211735-.8853163.00794-1.3246661.3321591-.5030026.4512599-1.2346788 1.0679376-1.4794972.3533326-.1535078.7198985-.273932 1.0785244-.416853.3956795-.0185268.7940056-.0211735 1.1910085 0 .2554051.1217475.5015469.2659919.7463653.4115596-.0569038.1640945-.1138075.328189-.1693879.4936068-.7000483-.0013233-1.4000966-.0080723-2.1001449 0-.2395251.2792254-.5624207.4975769-.7172518.8403227-.4367031.7516587-.1865914 1.8910568.6219711 2.293353.4367031.3427458 1.026914.1455677 1.5377243.1746812-.0079401-.4050752-.0079401-.8085624.0026466-1.2121819-.2924587-.0039701-.5835941.0238201-.8734062.0529337-.0582271-.1654179-.1177775-.328189-.1786512-.4909602.0436703-.0899873.1296875-.2673152.1733579-.3559792.6060909 0 1.2135053-.0119101 1.8195962.0145568.0238202.8297359.0132335 1.6594718.0105868 2.4905311-.7384253.3215722-1.5575744.1574777-2.3383467.1930757-.4591999.0330835-.8337059-.2513028-1.2148286-.460391zm-13.8553722-3.9303809c.6550546-.1045441 1.5244908-.1363043 1.8870868.5425705.3771526.4234697.3096622.9978005.2871653 1.5218442-.1865913.2884887-.5650673.142921-.8482627.1455677-.4777267-.2845187-1.026914-.2249683-1.5575744-.2236449.0397003.2368783-.0780772.6034443.2421717.6762281.5108103.4022962 1.1790984.2117349 1.775926.2580519.0105867.2157048.0172035.4340564.0224968.6524079-.6087376.0158802-1.220122.0516104-1.826213-.0066167-.4989002-.0661671-.8125324-.5002235-1.0944044-.8720829-.0436703-.47508-.0410237-.9581001-.0013234-1.4331802.1402744-.2765786.2633452-.5610973.4075896-.8363526.2302616-.1495377.46317-.2951054.7053417-.424793zm-.2805487 1.2995226c.5399239.0211735 1.0798477.0224968 1.6184482.0119101-.0741072-.2845187-.2884887-.4843435-.4830201-.6894616-.5240437-.1085141-.8403226.3228956-1.1354281.6775515zm3.3136238-1.025551c.7556287-.0158801 1.6210949-.104544 2.1808689.5174271.0780772 1.085141.0264668 2.1821922.0132334 3.2713033-.3890628.0621971-.7622454-.0238202-1.0798477-.2580519-.2051181.1561545-.4261164.3440691-.7040183.2699619-.4261164-.1363043-.7940057-.4075895-1.1314581-.6947549.0066167-.4128829-.1018974-.8760529.1945314-1.2187987.3890628-.6285878 1.2148286-.5452172 1.8434165-.698725-.042347-.6669647-.9792737-.4936068-1.3762765-.2540818-.1111608-.1733579-.3533325-.328189-.281872-.5624206.1058674-.1311433.2276149-.2487885.3414224-.3718594zm1.3630431 2.5924285c.0476403-.2077648.0172034-.4234697.0145567-.6338812-.1535077.0092634-.3255423-.0158801-.4539065.0899873-.3215723.0621971-.7900357.092634-.8257659.5147804-.0688138.3625959.3414224.4922835.5703607.664318.2448184-.1958547.5240437-.3652426.694755-.6352045zm2.4177472 1.3828535c-.2726086-.0013234-.5438939-.0026467-.8138558-.0079401.00794-.9978004-.1018974-2.0128043.1138075-2.9947246.0410236-.2395251-.0542571-.5187504.0886639-.7278385.3533325-.0952807.6418213.1071907.9170765.3003988.4936069-.610061 1.3286362-.235555 1.775926.235555.4644933-.4989002 1.208212-.281872 1.8063629-.2329084.3348057.4194997.513457.9395734.4883135 1.4781739-.0674905.6722581-.0330836 1.3498096-.0330836 2.0260378-.2898121.1415976-.6113844.197178-.9183999.0661671-.0357302-.8786996.0264669-1.7587225-.0013233-2.6374221-.2077648-.1151308-.412883-.235555-.610061-.3652426-.1839447.1680645-.3758294.3308357-.5703608.4869901.0132335.7807723.0079401 1.5602211.0013234 2.3409934-.3639193.1243942-.7437186.1230708-1.1116079.01191.092634-.1879146.2223216-.3705359.2037948-.5888875-.0092634-.6669647.0370536-1.3378995-.0224969-2.0008942-.1839446-.3176023-.5769774-.185268-.8747295-.2130582-.6762282.799299-.1217476 1.9042902-.4393498 2.8226901zm14.3317888.0463699c-.8257659-.1971781-1.0626442-1.1460148-1.2730557-1.8540032.2183515-.5321161.3427457-1.1830684.8310592-1.540371.1945314-.1865913.4790501-.1323342.7238685-.1521844.4459665.0013234.8932564-.0185268 1.3392229.0238202.5663907.3467158.8376759 1.0202973.8681128 1.6581485.189238 1.2584989-1.3246661 2.4389207-2.4892077 1.8645899zm-.1601245-2.3833403c.0555804.4340564-.1588011.9686869.1826213 1.3180494.281872.3506858.8588495.4261164 1.2267388.1799746.189238-.324219.4102362-.6656414.3189256-1.0586742-.1363043-.3453925-.3400991-.660348-.5875642-.93428-.4777268-.1071907-.8429694.1535078-1.1407215.4949302zm-10.3776406 8.2272087c.0741072-.1508611.2421717-.2170282.3718593-.3070155.4896368-.2911354.9514834-.652408 1.5072874-.8112091.0052933.1363043.0145567.4075895.0185268.5438938.1985014-.0767538.3983261-.1495377.5994742-.2170282.6471146.5386005 1.0547042 1.2942292 1.5337543 1.9757508-.185268.1733579-.3718593.3440691-.5650674.5068402.4327331.7013717.9250166 1.3696598 1.4808206 1.9810442.4102362-.1799747.5333071-.6404979.8138558-.9514835.2382017-.2871654.4194996-.6153544.6616714-.8985497-.1561545-.1707112-.3096622-.3400991-.4592-.513457.3414225-.6735815.7185751-1.355103 1.2757024-1.8751767.3930328-.0913106.7635688-.3056922 1.1671883-.3255423.5730075.1971781 1.0467642.5941809 1.5549278.9131065-.1336576.1535077-.2673152.3070155-.3996495.4618466.5505106.0516104 1.1036678.0939573 1.6568251.1310109.0569037.0701372.1707112.2117349.227615.281872-.4750801.2792254-.6510847.8178259-1.030884 1.1883618-.2289383.2540819-.4962536.4724334-.7212218.7304852-.2831954.412883-.509487.8654662-.841646 1.2465889-.2858421-.2805486-.5650674-.5690374-.8231192-.8747295-.3136323.656378-.9250166 1.085141-1.2690857 1.7216689-.0807239.1257175-.2157049.2673152-.0913107.416853.2752553.3374524.5981509.6365278.9475134.8985497-.332159.4909602-.8773762.7543054-1.3180494 1.1301347-.1799746.1191009-.374506.3149556-.6087376.2051181-.2342317-.2236449-.4499366-.4644933-.6881383-.6815215-.3493625.2236449-.5558039.787389-1.0242673.741072-.5624206-.4697867-1.1936551-.8575262-1.6687352-1.4278869.3070155-.3374524.656378-.6325578 1.0414708-.8773762.0119101-.042347.0357302-.1270409.046317-.1693879-.509487-.614031-1.0838177-1.2108586-1.4159768-1.9426672-.0489637.0013234-.1482144.0039701-.1985014.0052934-.1217475.3400991-.3639193.6047676-.6193244.8522327-.4446432-.4062662-.7093117-.9554534-1.1036679-1.4040666-.4142062-.6881383-1.2068886-1.0705843-1.5284608-1.818273.4433198-.3665659.996477-.4472898 1.5549277-.3692126-.0317602-.1561545-.0741072-.3096622-.0846939-.46714zm-.7476755 2.4110908c.2858421.2461418.5293371.5346305.7185751.8628195.3123089.4036195.8442927.8244425.737102 1.3881865-.2951055.3149556-.5862409.6352046-.8323826.9925071-.4406732-.2143815-.9223699-.374506-1.2770258-.7265152-.3361291-.336129-.8350293-.5002235-1.0533808-.9475134-.3374524-.420823-.4287631-.9620702-.698725-1.4199468-.1773279-.2924587-.1124841-.660348-.0794006-.9832436.3639193-.3586259.8720829-.648438 1.3948033-.4684634.4459665.3612726.652408.93031 1.0904344 1.3021693zm13.2122277 1.4490868c-.6854916.7437186-1.4450903 1.5006707-2.4428908 1.7904827-.2209982-.3453924-.4578766-.6788748-.7238685-.9911837-.0423469-.2090881-.0145567-.424793-.0145567-.6352045.9594235-.8734062 1.5469876-2.0869115 2.5633149-2.9113541.5161037-.1905613 1.026914.1111608 1.3855399.4658167.0569037.2368783.0569037.4989002-.0542571.7212218-.2196749.5253671-.3467158 1.1089612-.7132817 1.5602211zm-5.3475884 3.3877045c.2845187-.2408484.5915342-.5055169.988537-.4949302.6087377.7623778 1.1936552 1.540371 1.7057888 2.3727536-.4194996.5002236-.9700102.8575261-1.5139041 1.2082119-.5108103.1642269-.7331319-.3295123-.9369267-.6854915-.4869901-.5028703-.9011964-1.0691286-1.3061393-1.6368427.3506859-.2593752.7384253-.469919 1.0626443-.7637011zm-3.3679338 1.0772275c-.4777267.3559792-.6643181.9475134-1.1288114 1.3140793-.2699619.1971781-.2712852.7013717-.6709348.7053417-.7768022-.0741072-1.2809958-.7543053-1.8209196-1.2426188.5571273-.833706 1.0547042-1.7203456 1.8288597-2.3793703.6854915.2514351 1.1513082.8284126 1.7719559 1.1830684.0052934.1045441.0145568.3149556.0198502.4194997zm3.8536006 8.6970351c.2606985.2104115.5147803.4353797.7146051.7093117-.320249.0397003-.6418213.046317-.9633936.0449936-.3811227-.4155296-.2739319-.9832436-.2726086-1.4967006-.0754305-.0621971-.2236449-.1865914-.2977521-.2474651.0238202-.1918847.0569037-.3824461.0952807-.5690374.0873406-.2699619.46714-.2831954.6881382-.420823-.0727838.4684633.3334824.6656414.741072.6696114-.0211735.0873406-.0635205.2606985-.084694.3480392-.2090881.0582271-.4194996.1151308-.6285878.1707112.00397.2633452.0052934.5266904.0079401.791359zm5.2006973-2.0194476c.4525832.2898121.8601728.7582754.9131065 1.3101094-.4155296.0224968-.8284126.0674904-1.2373255.1442443.0013234.0701372.0052934.2117349.0066167.281872.3956795-.0370536.7940057-.0780772 1.1923319-.050287.0013233.1323343.00397.2659919.0066167.3996495-.4525832.277902-.9567768.3692127-1.4808206.2977521-.3652426-.424793-.7357785-.9197232-.6709347-1.5125807-.1018974.0410236-.3070156.1243942-.408913.1667412.0264669.4949302.0833706.9898603.0489637 1.4874372-.2170282-.0013233-.4340564-.0052934-.6510846-.0105867-.0304369-.5068403.0846939-1.0388241-.0939574-1.5258142-.3387757.4261163-.1389509.988537-.1839446 1.4861139-.4737567.0939573-.9104598.3506858-1.4067133.3070155-.1614479-.1482144-.3228957-.2964288-.4896369-.4353798-.0052933-.5822708-.0066167-1.1645416.0066167-1.7468124.1032208.0132334.3083389.0410236.4102363.0542571-.0291135.46714.1601245.8945797.2871654 1.3352528.0092634.2434951.4989002.1680645.4009728-.100574.0224969-.46714-.01191-.9329567.0211735-1.3987733.2977521-.0185268.5769775.0741072.8495861.1852679l-.0436703-.1204241c.4261163-.0714606.841646-.1918847 1.2452655-.3467158.0741072.1865913.1442444.374506.2117348.5650673.1230709-.4697867.6312345-.7040183 1.0666143-.7728322zm-.7053417 1.0970512c.281872-.0714605.559774-.1614478.8244425-.2858421-.3334823-.2382016-.6788748-.054257-.8244425.2858421zm-6.4962764-.3903464c.2580519.0608737.5280138.1058674.7582754.2461417.3811228.4764034.3956795 1.119548.3930328 1.7031422-.2037947.0264668-.4075895.054257-.6113843.0820472-.0291135-.4142063.0105867-.8389993-.092634-1.2439422-.1627712-.2514351-.4764034-.1349809-.7172518-.1270409-.0291135.4936069-.0330835.9872137-.0330835 1.4821439-.1151309.0198501-.3453925.0621971-.4605233.0820472-.3414225-.7119584-.1045441-1.5390476-.1601245-2.301293.3096622-.0052934.6180011.0344069.9236932.0767539zm-2.2708429 1.5443013c.4591999-.0317603.9170765.00794 1.2849658.3162789-.2554051.1746812-.5200737.3374524-.7940056.4803734-.3255423-.1521844-.656378-.2884887-.9925071-.4102362-.1402743-.4605233-.3176023-1.0017705-.0066167-1.4345036.1958547-.5081636.8019457-.555804 1.2677624-.5703607.1310109.2117348.2924587.4022962.4591999.5875642-.0052934.2448184-.0132334.4909601-.0211735.7384252-.4009729-.00397-.803269-.00794-1.2042419.0026467.0013233.0727839.0052934.2170282.0066167.2898121zm.3215723-1.115578c-.2659919-.100574-.3917095.2090882-.5518339.3573026.3308357.0238201.6629947.0238201.9951537-.0039701-.1415977-.1257175-.2726086-.2699619-.4433198-.3533325zm3.7966571-23.9300203c-.239525-.4472898-.1217475-.9673635-.1349809-1.4503836.3308357-.0264669.6590247.0105867.9858903.0489636.1826213-.0846939.3506859-.1958547.5372772-.2712852.2117348-.0304369.4009728.1058674.6034443.150861-.0158801.2527585-.0436703.5041936-.1058674.7503354-.281872.050287-.5650674.1032207-.8495861.1376276-.1865913.8694362-.0383769 1.7706326-.0873406 2.6533023-.3162789.1376276-.6391746.1177775-.94222-.0436704-.0013234-.6590246.0317602-1.3193727-.0066168-1.9757507zm-5.4786654 23.7791857c.1349809-.2064415.5425705-.5955042.6431445-.1627711-.050287.2673152-.1786512.5134569-.243495.7794488-.0502871.4353798-.2448184.837676-.555804 1.1486616-.1812979.0158801-.3625959.0224968-.5438939.0211734-.1363043-.6775515-.3811227-1.3365761-.6735814-1.9611939-.1865914.6577013.1098374 1.3723064-.1826213 2.0075109-.4314098-.1905613-.8747296-.3374524-1.3524563-.2937821-.3877395.0661672-.4446432-.3692126-.610061-.6153543-.0092634.2064414-.0132335.4128829-.0145568.6206477-.1204242-.0066167-.3612726-.0185268-.4816968-.0251435-.1601244-.3189256-.328189-.6325578-.4896368-.9501601-.2024714.00397-.4049429.0119101-.6074143.0158801-.1468911.2289383-.2871654.46317-.4380265.6907849-.1693878-.054257-.336129-.1138074-.5002235-.1773279.0092634-.1098374.0277902-.3308357.0370536-.4406731.4591999-.690785.8270892-1.4345036 1.220122-2.1623421.2051181-.0158801.4089129-.0291135.6153544-.0410236.1601244.6709348.2554051 1.3789231.5822708 1.9929542.1746812-.3215723.3665659-.6338812.5902109-.9236933.3096622-.0198501.6193244-.0211735.9289866-.0105867.0264668-.3123089.092634-.6166777.1760046-.9170765.2183515.0357302.432733.0979273.6510846.1402743.0013233.2514351-.0026467.5015469-.0105868.7543054.2818721.0979273.555804.2209982.7926824.4062662.00794.2567285.0132334.5147803.0251435.7728322.3546558-.0291136.2752553-.4486132.4419965-.6696115zm-2.2232159.9991238c.2011481-.3083389.2011481-.648438-.0026467-.9554535-.2540818.042347-.618001-.0780772-.7079883.2501118-.1786513.2196749.0410236.4816968.104544.702695.2011481-.0013233.4036196-.0013233.606091.0026467zm-2.6850624-.9289866c.1799746 0 .3612725-.0026467.5425705-.0092634-.0476403-.2712853-.1098375-.5412472-.1826213-.8059158-.1971781.2329084-.3533325.501547-.3599492.8151792z" fill="#fff" fill-rule="evenodd"/></svg>