<svg width="50" height="50" viewBox="0 0 50 50" fill="none" xmlns="http://www.w3.org/2000/svg">
<g clip-path="url(#clip0_131_46)">
<path d="M41.6077 19.3461C41.4914 19.3461 41.3733 19.3192 41.2627 19.2624L25 10.903L8.7374 19.2625C8.3664 19.4533 7.91015 19.3072 7.71943 18.9357C7.52841 18.5643 7.6748 18.1085 8.04619 17.9176L24.6545 9.38052C24.8715 9.26899 25.1288 9.26899 25.3458 9.38052L41.9541 17.9176C42.3254 18.1085 42.4718 18.5643 42.2809 18.9357C42.1467 19.1964 41.8819 19.3461 41.6077 19.3461Z" fill="black"/>
<path d="M41.6077 19.3461C41.4914 19.3461 41.3733 19.3192 41.2627 19.2624L25 10.903L8.7374 19.2625C8.3664 19.4533 7.91015 19.3072 7.71943 18.9357C7.52841 18.5643 7.6748 18.1085 8.04619 17.9176L24.6545 9.38052C24.8715 9.26899 25.1288 9.26899 25.3458 9.38052L41.9541 17.9176C42.3254 18.1085 42.4718 18.5643 42.2809 18.9357C42.1467 19.1964 41.8819 19.3461 41.6077 19.3461Z" fill="#7B7179"/>
<path d="M49.496 21.1328H0.504004C0.225586 21.1328 0 21.3585 0 21.6368V24.5607H50V21.6368C50 21.3585 49.7743 21.1328 49.496 21.1328Z" fill="#FF4755"/>
<path d="M6.84151 17.6426C5.87901 17.6426 5.09883 18.4238 5.09883 19.3875V21.1323H8.58428V19.3874C8.58418 18.4237 7.80401 17.6426 6.84151 17.6426Z" fill="#FF9A00"/>
<path d="M5.09883 19.418H8.58428V21.1319H5.09883V19.418Z" fill="#EF8800"/>
<path d="M43.1585 17.6426C44.121 17.6426 44.9012 18.4238 44.9012 19.3875V21.1323H41.4157V19.3874C41.4158 18.4237 42.196 17.6426 43.1585 17.6426Z" fill="#FF9A00"/>
<path d="M41.4158 19.418H44.9012V21.1319H41.4158V19.418Z" fill="#EF8800"/>
<path d="M0 22.7432H50V24.56H0V22.7432Z" fill="#FC2B3A"/>
<path d="M49.496 50.001H0.504004C0.225684 50.001 0 49.7753 0 49.497V24.5605H50V49.4969C50 49.7753 49.7743 50.001 49.496 50.001Z" fill="#FF9A00"/>
<path d="M0.504004 50.0004H49.4959C49.7742 50.0004 49.9999 49.7747 49.9999 49.4964V48.1836H0V49.4964C0 49.7747 0.225684 50.0004 0.504004 50.0004Z" fill="#EF8800"/>
<path d="M5.28974 46.5894C4.48281 46.5894 3.8287 45.9352 3.8287 45.1282V29.4327C3.8287 28.6258 4.4829 27.9717 5.28974 27.9717C6.09667 27.9717 6.75077 28.6258 6.75077 29.4327V45.1283C6.75077 45.9352 6.09667 46.5894 5.28974 46.5894Z" fill="#FFE55A"/>
<path d="M11.8598 46.5895C11.0528 46.5895 10.3987 45.9345 10.3987 45.1266V29.4346C10.3987 28.6267 11.0528 27.9717 11.8598 27.9717C12.6667 27.9717 13.3209 28.6267 13.3209 29.4346V45.1265C13.3209 45.9345 12.6668 46.5895 11.8598 46.5895Z" fill="#FFE55A"/>
<path d="M18.4299 46.5894C17.6229 46.5894 16.9688 45.9352 16.9688 45.1282V29.4327C16.9688 28.6258 17.6229 27.9717 18.4299 27.9717C19.2368 27.9717 19.8909 28.6258 19.8909 29.4327V45.1283C19.891 45.9352 19.2368 46.5894 18.4299 46.5894Z" fill="#FFE55A"/>
<path d="M25 46.5895C24.1931 46.5895 23.539 45.9345 23.539 45.1266V29.4346C23.539 28.6267 24.1931 27.9717 25 27.9717C25.8069 27.9717 26.461 28.6267 26.461 29.4346V45.1265C26.461 45.9345 25.8069 46.5895 25 46.5895Z" fill="#FFE55A"/>
<path d="M31.5701 46.5894C30.7632 46.5894 30.1091 45.9352 30.1091 45.1282V29.4327C30.1091 28.6258 30.7632 27.9717 31.5701 27.9717C32.377 27.9717 33.0311 28.6259 33.0311 29.4327V45.1282C33.0311 45.9352 32.377 46.5894 31.5701 46.5894Z" fill="#FFE55A"/>
<path d="M38.1402 46.5895C37.3333 46.5895 36.6791 45.9345 36.6791 45.1266V29.4346C36.6791 28.6267 37.3332 27.9717 38.1402 27.9717C38.9472 27.9717 39.6013 28.6267 39.6013 29.4346V45.1265C39.6013 45.9345 38.9472 46.5895 38.1402 46.5895Z" fill="#FFE55A"/>
<path d="M44.7102 46.5894C43.9033 46.5894 43.2491 45.9352 43.2491 45.1282V29.4327C43.2491 28.6258 43.9033 27.9717 44.7102 27.9717C45.5171 27.9717 46.1712 28.6259 46.1712 29.4327V45.1282C46.1714 45.9352 45.5172 46.5894 44.7102 46.5894Z" fill="#FFE55A"/>
<path d="M5.28976 44.7734C4.48282 44.7734 3.82872 44.1185 3.82872 43.3105V45.1273C3.82872 45.9353 4.48292 46.5902 5.28976 46.5902C6.09669 46.5902 6.75079 45.9353 6.75079 45.1273V43.3105C6.75079 44.1185 6.09669 44.7734 5.28976 44.7734Z" fill="#FFD500"/>
<path d="M11.8598 44.7734C11.0528 44.7734 10.3987 44.1185 10.3987 43.3105V45.1273C10.3987 45.9353 11.0528 46.5902 11.8598 46.5902C12.6667 46.5902 13.3209 45.9353 13.3209 45.1273V43.3105C13.3209 44.1185 12.6668 44.7734 11.8598 44.7734Z" fill="#FFD500"/>
<path d="M18.4299 44.7734C17.6229 44.7734 16.9688 44.1185 16.9688 43.3105V45.1273C16.9688 45.9353 17.6229 46.5902 18.4299 46.5902C19.2368 46.5902 19.8909 45.9353 19.8909 45.1273V43.3105C19.891 44.1185 19.2368 44.7734 18.4299 44.7734Z" fill="#FFD500"/>
<path d="M25 44.7734C24.1931 44.7734 23.539 44.1185 23.539 43.3105V45.1273C23.539 45.9353 24.1931 46.5902 25 46.5902C25.8069 46.5902 26.461 45.9353 26.461 45.1273V43.3105C26.461 44.1185 25.8069 44.7734 25 44.7734Z" fill="#FFD500"/>
<path d="M31.5701 44.7734C30.7632 44.7734 30.1091 44.1185 30.1091 43.3105V45.1273C30.1091 45.9353 30.7632 46.5902 31.5701 46.5902C32.3771 46.5902 33.0313 45.9353 33.0313 45.1273V43.3105C33.0312 44.1185 32.3771 44.7734 31.5701 44.7734Z" fill="#FFD500"/>
<path d="M38.1402 44.7734C37.3333 44.7734 36.6792 44.1185 36.6792 43.3105V45.1273C36.6792 45.9353 37.3333 46.5902 38.1402 46.5902C38.9472 46.5902 39.6014 45.9353 39.6014 45.1273V43.3105C39.6013 44.1185 38.9472 44.7734 38.1402 44.7734Z" fill="#FFD500"/>
<path d="M44.7103 44.7734C43.9033 44.7734 43.2491 44.1185 43.2491 43.3105V45.1273C43.2491 45.9353 43.9032 46.5902 44.7102 46.5902C45.5171 46.5902 46.1712 45.9353 46.1712 45.1273V43.3105C46.1714 44.1185 45.5172 44.7734 44.7103 44.7734Z" fill="#FFD500"/>
<path d="M26.611 5.75742C26.0837 5.45576 25.7561 4.86846 25.7561 4.22461V3.73848C25.7561 3.3209 25.4176 2.98242 25 2.98242C24.5824 2.98242 24.2439 3.3209 24.2439 3.73848V4.22461C24.2439 5.40938 24.8633 6.49971 25.8603 7.07002C26.4416 7.40254 26.7768 8.02578 26.7353 8.69678C26.6939 9.3627 26.2549 9.94023 25.6604 10.1913L25.6612 10.1926L23.7033 11.5699C24.1068 11.7459 24.5445 11.8383 24.9968 11.8383C25.0663 11.8383 25.136 11.8361 25.2061 11.8317C26.837 11.7304 28.1432 10.4229 28.2444 8.79043C28.322 7.54014 27.6961 6.37793 26.611 5.75742Z" fill="#CAC0C9"/>
<path d="M23.7849 9.82695C23.4478 9.49668 23.2613 9.05703 23.2613 8.5832C23.2613 8.16563 22.9229 7.82715 22.5053 7.82715C22.0877 7.82715 21.7492 8.16563 21.7492 8.5832C21.7492 9.29014 21.9833 9.97754 22.4026 10.5375L23.7849 9.82695Z" fill="#CAC0C9"/>
<path d="M30.1089 0.504004V1.71973C30.1089 2.83467 29.2066 3.73789 28.0928 3.73789H21.9072C20.7934 3.73789 19.8911 2.83467 19.8911 1.71973V0.504004C19.8911 0.432422 19.9063 0.363867 19.9335 0.302344C20.0111 0.125 20.1885 0 20.3951 0H29.6048C29.8114 0 29.9889 0.125 30.0665 0.302441C30.0938 0.363867 30.1089 0.432422 30.1089 0.504004Z" fill="#FF4755"/>
<path d="M30.0665 0.302734C29.882 1.22617 29.0695 1.92168 28.0927 1.92168H21.9072C20.9304 1.92168 20.1179 1.22607 19.9334 0.302734C19.9062 0.364258 19.891 0.432813 19.891 0.504395V1.72002C19.891 2.83496 20.7933 3.73818 21.9071 3.73818H28.0926C29.2065 3.73818 30.1087 2.83496 30.1087 1.72002V0.504297L30.0665 0.302734Z" fill="#FC2B3A"/>
</g>
<defs>
<clipPath id="clip0_131_46">
<rect width="50" height="50" fill="white"/>
</clipPath>
</defs>
</svg>
