<?xml version="1.0" encoding="UTF-8" standalone="no"?>
<!DOCTYPE svg PUBLIC "-//W3C//DTD SVG 1.1//EN" "http://www.w3.org/Graphics/SVG/1.1/DTD/svg11.dtd">
<svg width="100%" height="100%" viewBox="0 0 284 450" version="1.1" xmlns="http://www.w3.org/2000/svg" xmlns:xlink="http://www.w3.org/1999/xlink" xml:space="preserve" xmlns:serif="http://www.serif.com/" style="fill-rule:evenodd;clip-rule:evenodd;stroke-linejoin:round;stroke-miterlimit:1.41421;">
    <g transform="matrix(1,0,0,1,-153.424,-1334.82)">
        <g transform="matrix(4.16667,0,0,4.16667,0,0)">
            <path d="M50.066,422.857L49.106,422.694C48.769,422.638 48.541,422.319 48.597,421.982C48.598,421.981 48.598,421.98 48.598,421.979L50.196,412.622C50.303,412.033 50.862,411.638 51.453,411.734C52.355,413.001 52.456,412.401 52.355,413.001L50.757,422.358C50.696,422.682 50.392,422.901 50.066,422.857Z" style="fill:white;fill-rule:nonzero;"/>
        </g>
        <g transform="matrix(4.16667,0,0,4.16667,0,0)">
            <path d="M49.776,420.9C50.384,420.9 50.877,421.393 50.877,422L50.877,427.226C50.877,427.834 50.384,428.328 49.776,428.328C49.167,428.328 48.675,427.834 48.675,427.226L48.675,422C48.675,421.393 49.167,420.9 49.776,420.9Z" style="fill:white;fill-rule:nonzero;"/>
        </g>
        <g transform="matrix(4.16667,0,0,4.16667,0,0)">
            <path d="M50.554,421.221C50.984,421.651 50.984,422.348 50.554,422.779L45.996,427.335C45.566,427.766 44.869,427.766 44.439,427.335C44.009,426.906 44.009,426.209 44.439,425.778L48.996,421.221C49.426,420.792 50.123,420.792 50.554,421.221Z" style="fill:white;fill-rule:nonzero;"/>
        </g>
        <g transform="matrix(4.16667,0,0,4.16667,0,0)">
            <path d="M55.115,427.336C54.685,427.766 53.988,427.766 53.558,427.336L49.001,422.779C48.571,422.349 48.571,421.652 49.001,421.221C49.431,420.792 50.128,420.792 50.558,421.221L55.115,425.779C55.545,426.209 55.545,426.906 55.115,427.336Z" style="fill:white;fill-rule:nonzero;"/>
        </g>
        <g transform="matrix(4.16667,0,0,4.16667,0,0)">
            <path d="M85.696,422.857L86.655,422.694C86.993,422.638 87.221,422.319 87.164,421.982C87.164,421.981 87.164,421.98 87.164,421.979L85.657,413.341C85.601,413.004 85.282,412.777 84.945,412.833C84.944,412.833 84.943,412.833 84.942,412.834L83.982,412.997C83.645,413.052 83.417,413.372 83.473,413.709C83.474,413.709 83.474,413.71 83.474,413.711L84.98,422.349C85.036,422.686 85.355,422.914 85.693,422.858C85.694,422.858 85.695,422.858 85.696,422.857Z" style="fill:white;fill-rule:nonzero;"/>
        </g>
        <g transform="matrix(4.16667,0,0,4.16667,0,0)">
            <path d="M85.986,428.328C85.378,428.328 84.885,427.834 84.885,427.226L84.885,422C84.885,421.393 85.378,420.9 85.986,420.9C86.594,420.9 87.087,421.393 87.087,422L87.087,427.226C87.087,427.834 86.594,428.328 85.986,428.328Z" style="fill:white;fill-rule:nonzero;"/>
        </g>
        <g transform="matrix(4.16667,0,0,4.16667,0,0)">
            <path d="M91.321,427.335C90.891,427.765 90.194,427.765 89.764,427.335L85.207,422.778C84.777,422.348 84.777,421.651 85.207,421.221C85.637,420.791 86.334,420.791 86.765,421.221L91.321,425.778C91.751,426.208 91.751,426.905 91.321,427.335Z" style="fill:white;fill-rule:nonzero;"/>
        </g>
        <g transform="matrix(4.16667,0,0,4.16667,0,0)">
            <path d="M86.763,421.22C87.193,421.651 87.193,422.348 86.763,422.778L82.206,427.334C81.776,427.765 81.078,427.765 80.648,427.334C80.218,426.905 80.218,426.208 80.648,425.777L85.205,421.22C85.636,420.791 86.333,420.791 86.763,421.22Z" style="fill:white;fill-rule:nonzero;"/>
        </g>
        <g transform="matrix(4.16667,0,0,4.16667,0,0)">
            <path d="M76.976,330.856C75.937,330.856 75.096,331.698 75.096,332.737C75.096,333.776 75.937,334.618 76.976,334.618C78.016,334.618 78.857,333.776 78.857,332.737C78.855,331.7 78.014,330.859 76.976,330.856ZM76.976,336.542C74.877,336.542 73.176,334.84 73.176,332.742C73.176,330.643 74.877,328.941 76.976,328.941C79.076,328.941 80.777,330.643 80.777,332.742C80.774,334.839 79.074,336.54 76.976,336.542Z" style="fill:white;fill-rule:nonzero;"/>
        </g>
        <g transform="matrix(4.16667,0,0,4.16667,0,0)">
            <path d="M86.326,327.598C94.077,332.453 98.34,334.984 100.343,336.144C95.328,339.277 86.549,343.048 80.677,345.063C79.717,345.392 74.883,347.276 73.939,352.017C72.951,356.983 76.603,363.181 84.814,370.455L84.953,370.555C92.833,375.516 97.998,379.486 97.998,389.066C97.998,404.274 84.857,416.647 68.704,416.647C53.205,416.647 40.375,405.22 39.495,390.634L39.387,388.834L39.316,388.866C38.118,360.614 48.743,344.439 54.462,335.73L54.968,334.959C56.51,332.439 58.324,330.073 60.355,327.931C68.724,319.368 79.097,323.024 86.326,327.598ZM81.468,347.311C88.608,344.861 99.01,340.215 103.365,336.982L104.895,335.839L103.202,334.94C102.788,334.715 98.833,332.543 87.614,325.509C76.313,318.414 66.021,318.671 58.633,326.235C56.472,328.497 54.55,330.997 52.923,333.661L52.472,334.348C46.868,342.885 35.207,360.65 37.009,390.784L37.118,392.588L37.262,392.522C39.114,407.668 52.578,419.047 68.728,419.047C86.2,419.047 100.418,405.578 100.423,389.022C100.423,378.226 94.307,373.527 86.346,368.529C78.985,362.024 75.517,356.463 76.315,352.451C76.995,349.024 80.727,347.568 81.468,347.311Z" style="fill:white;fill-rule:nonzero;"/>
        </g>
        <g transform="matrix(4.16667,0,0,4.16667,0,0)">
            <path d="M84.024,369.271C79.747,368.611 72.357,367.178 65.657,364.442C57.029,360.918 52.105,356.343 51.021,350.841C48.806,339.608 60.228,328.029 60.346,327.912C63.715,324.481 67.679,322.742 72.125,322.742C76.468,322.742 81.249,324.356 86.336,327.541C94.137,332.415 98.391,334.939 100.382,336.092C95.438,339.194 86.634,342.975 80.701,345.015C78.895,345.633 74.61,347.543 73.818,351.925C72.979,356.583 76.413,362.417 84.024,369.271ZM81.468,347.306C88.621,344.853 99.032,340.205 103.379,336.972L104.91,335.83L103.22,334.934C103.187,334.917 99.388,332.875 87.618,325.495C76.307,318.41 66.009,318.66 58.624,326.196C56.381,328.545 54.398,331.15 52.731,333.937C49.029,340.084 47.616,346.092 48.645,351.313C50.115,358.748 57.211,364.527 69.739,368.491C75.605,370.294 81.673,371.543 87.78,372.205L91.685,372.555L88.657,370.059C77.389,360.824 75.664,355.332 76.201,352.349C76.786,349.105 80.379,347.669 81.468,347.306Z" style="fill:white;fill-rule:nonzero;"/>
        </g>
        <g transform="matrix(4.16667,0,0,4.16667,0,0)">
            <path d="M45.503,383.84C45.61,383.873 45.722,383.891 45.834,383.893L49.428,383.984C49.774,383.996 50.111,383.87 50.364,383.634C50.884,383.124 50.892,382.288 50.382,381.768C50.275,381.659 50.15,381.57 50.013,381.503C49.853,381.431 49.68,381.392 49.505,381.388L45.934,381.297L45.891,381.297C45.168,381.305 44.588,381.898 44.596,382.622C44.602,383.192 44.976,383.692 45.522,383.859L45.503,383.84Z" style="fill:white;fill-rule:nonzero;"/>
        </g>
        <g transform="matrix(4.16667,0,0,4.16667,0,0)">
            <path d="M45.627,390.621C44.924,390.791 44.492,391.498 44.661,392.202C44.77,392.655 45.113,393.016 45.56,393.149C45.782,393.208 46.015,393.208 46.237,393.149L49.725,392.319C50.429,392.151 50.863,391.444 50.694,390.74C50.571,390.226 50.151,389.836 49.629,389.752C49.569,389.747 49.508,389.747 49.447,389.752C49.335,389.751 49.224,389.765 49.116,389.791L45.627,390.621Z" style="fill:white;fill-rule:nonzero;"/>
        </g>
        <g transform="matrix(4.16667,0,0,4.16667,0,0)">
            <path d="M46.611,400.256C46.402,400.943 46.789,401.669 47.476,401.879C47.48,401.88 47.485,401.881 47.489,401.882C47.822,401.981 48.181,401.945 48.487,401.782L51.635,400.079C52.272,399.732 52.508,398.936 52.163,398.298C51.996,397.995 51.717,397.767 51.386,397.665C51.265,397.632 51.141,397.617 51.016,397.617C50.797,397.617 50.581,397.671 50.388,397.775L47.24,399.484C46.936,399.647 46.71,399.925 46.611,400.256Z" style="fill:white;fill-rule:nonzero;"/>
        </g>
        <g transform="matrix(4.16667,0,0,4.16667,0,0)">
            <path d="M52.571,405.655C52.041,406.152 52.014,406.984 52.511,407.514C53.008,408.044 53.84,408.071 54.37,407.574L56.966,405.108C57.22,404.869 57.369,404.539 57.379,404.191C57.394,403.663 57.086,403.178 56.602,402.967C56.117,402.747 55.547,402.843 55.162,403.212L52.571,405.655Z" style="fill:white;fill-rule:nonzero;"/>
        </g>
        <g transform="matrix(4.16667,0,0,4.16667,0,0)">
            <path d="M63.79,406.744C63.646,406.648 63.482,406.587 63.31,406.566C63.243,406.561 63.176,406.561 63.109,406.566C62.66,406.568 62.245,406.805 62.015,407.19L60.134,410.247C59.951,410.54 59.893,410.895 59.975,411.23C60.054,411.569 60.265,411.863 60.56,412.046C60.662,412.1 60.767,412.143 60.877,412.175C61.442,412.348 62.051,412.118 62.36,411.615L64.241,408.562C64.62,407.944 64.427,407.134 63.807,406.754C63.802,406.75 63.796,406.748 63.79,406.744Z" style="fill:white;fill-rule:nonzero;"/>
        </g>
    </g>
</svg>
