<svg width="44" height="44" xmlns="http://www.w3.org/2000/svg" xmlns:xlink="http://www.w3.org/1999/xlink"><defs><path d="M23.248 20.5l6.183 6.183a1.943 1.943 0 1 1-2.748 2.748L20.5 23.248l-6.183 6.183a1.943 1.943 0 1 1-2.748-2.748l6.183-6.183-6.183-6.183a1.943 1.943 0 1 1 2.748-2.748l6.183 6.183 6.183-6.183a1.943 1.943 0 1 1 2.748 2.748L23.248 20.5z" id="b"/><filter x="-36.8%" y="-26.3%" width="173.7%" height="173.7%" filterUnits="objectBoundingBox" id="a"><feOffset dy="2" in="SourceAlpha" result="shadowOffsetOuter1"/><feMorphology radius="4" in="SourceAlpha" result="shadowInner"/><feOffset dy="2" in="shadowInner" result="shadowInner"/><feComposite in="shadowOffsetOuter1" in2="shadowInner" operator="out" result="shadowOffsetOuter1"/><feGaussianBlur stdDeviation="2" in="shadowOffsetOuter1" result="shadowBlurOuter1"/><feColorMatrix values="0 0 0 0 0.456499787 0 0 0 0 0.377822741 0 0 0 0 0.377822741 0 0 0 0.498556386 0" in="shadowBlurOuter1"/></filter></defs><g transform="translate(2 2)" fill-rule="nonzero" fill="none"><circle stroke="#E888A8" stroke-width="4" cx="20" cy="20" r="20"/><use fill="#000" filter="url(#a)" xlink:href="#b"/><path stroke="#E183A1" stroke-width="4" d="M20.58 20.5l-7.597-7.597a.057.057 0 1 1-.08.08l15.114 15.114a.057.057 0 1 1 .08-.08L20.58 20.5l7.517-7.517a.057.057 0 1 1-.08-.08L12.903 28.017a.057.057 0 1 1 .08.08L20.58 20.5z" stroke-linejoin="square"/></g></svg>