<svg height="48" width="48" xmlns="http://www.w3.org/2000/svg"><g fill="none" fill-rule="evenodd"><path d="M-168-2775h320v4423h-320z" fill="#fff"/><path d="M24 0c13.255 0 24 11.016 24 24.607 0 10.87-6.869 20.09-16.4 23.347-1.216.243-1.648-.525-1.648-1.18 0-.812.029-3.461.029-6.754 0-2.294-.768-3.792-1.63-4.555 5.345-.61 10.961-2.69 10.961-12.142 0-2.688-.931-4.881-2.472-6.605.25-.621 1.073-3.124-.235-6.513 0 0-2.011-.66-6.593 2.522A22.55 22.55 0 0 0 24 11.9a22.5 22.5 0 0 0-6.007.828c-4.587-3.182-6.603-2.522-6.603-2.522-1.303 3.389-.48 5.892-.232 6.513-1.534 1.724-2.472 3.917-2.472 6.605 0 9.427 5.604 11.54 10.934 12.161-.686.614-1.308 1.7-1.524 3.29-1.368.63-4.843 1.716-6.984-2.044 0 0-1.27-2.364-3.68-2.537 0 0-2.34-.031-.162 1.495 0 0 1.572.756 2.664 3.6 0 0 1.408 4.392 8.085 2.904.012 2.057.034 3.996.034 4.582 0 .65-.442 1.41-1.64 1.183C6.877 44.705 0 35.479 0 24.607 0 11.016 10.747 0 24 0" fill="#000" fill-rule="nonzero"/></g></svg>