<svg height="48" viewBox="0 0 48 48" width="48" xmlns="http://www.w3.org/2000/svg"><g fill="none" fill-rule="evenodd"><path d="m-168-2775h320v4423h-320z" fill="#fff"/><path d="m24 0c13.2552 0 24 11.016 24 24.6072 0 10.8696-6.8688 20.0904-16.3992 23.3472-1.2168.2424-1.6488-.5256-1.6488-1.1808 0-.8112.0288-3.4608.0288-6.7536 0-2.2944-.768-3.792-1.6296-4.5552 5.3448-.6096 10.9608-2.6904 10.9608-12.1416 0-2.688-.9312-4.8816-2.472-6.6048.2496-.6216 1.0728-3.1248-.2352-6.5136 0 0-2.0112-.66-6.5928 2.5224-1.9575375-.5456287-3.9798462-.8241502-6.012-.828-2.030589.003665-4.0513368.2821939-6.0072.828-4.5864-3.1824-6.6024-2.5224-6.6024-2.5224-1.3032 3.3888-.48 5.892-.2328 6.5136-1.5336 1.7232-2.472 3.9168-2.472 6.6048 0 9.4272 5.604 11.5392 10.9344 12.1608-.6864.6144-1.308 1.6992-1.524 3.2904-1.368.6288-4.8432 1.716-6.984-2.0448 0 0-1.2696-2.364-3.6792-2.5368 0 0-2.34-.0312-.1632 1.4952 0 0 1.572.756 2.664 3.6 0 0 1.4088 4.392 8.0856 2.904.012 2.0568.0336 3.996.0336 4.5816 0 .6504-.4416 1.4112-1.6392 1.1832-9.5376-3.252-16.4136-12.4776-16.4136-23.3496 0-13.5912 10.7472-24.6072 24-24.6072" fill="#000" fill-rule="nonzero"/></g></svg>