<?xml version="1.0" encoding="UTF-8" standalone="no"?>
<!DOCTYPE svg PUBLIC "-//W3C//DTD SVG 1.1//EN" "http://www.w3.org/Graphics/SVG/1.1/DTD/svg11.dtd">
<svg width="100%" height="100%" viewBox="0 0 449 415" version="1.1" xmlns="http://www.w3.org/2000/svg" xmlns:xlink="http://www.w3.org/1999/xlink" xml:space="preserve" xmlns:serif="http://www.serif.com/" style="fill-rule:evenodd;clip-rule:evenodd;stroke-linejoin:round;stroke-miterlimit:1.41421;">
    <g transform="matrix(1,0,0,1,-70.8625,-687.222)">
        <g transform="matrix(4.16667,0,0,4.16667,0,0)">
            <path d="M70.866,173.754C45.993,173.754 25.829,193.918 25.829,218.791C25.829,243.665 45.993,263.829 70.866,263.829C95.739,263.829 115.903,243.665 115.903,218.791C115.903,193.918 95.739,173.754 70.866,173.754ZM70.866,176.676C94.126,176.676 112.982,195.531 112.982,218.791C112.982,242.051 94.126,260.907 70.866,260.907C47.606,260.907 28.75,242.051 28.75,218.791C28.777,195.542 47.617,176.702 70.866,176.676Z" style="fill:white;fill-rule:nonzero;"/>
        </g>
        <g transform="matrix(4.16667,0,0,4.16667,0,0)">
            <path d="M47.554,255.229L47.666,255.314C48.276,255.77 48.399,256.634 47.943,257.243L43.049,263.773C42.593,264.381 41.729,264.505 41.12,264.049L41.007,263.964C40.398,263.508 40.274,262.644 40.731,262.036L45.625,255.505C46.081,254.896 46.945,254.773 47.554,255.229Z" style="fill:white;fill-rule:nonzero;"/>
        </g>
        <g transform="matrix(4.16667,0,0,4.16667,0,0)">
            <path d="M44.374,196.02C44.434,196.256 44.555,196.473 44.725,196.647L47.34,199.335C47.881,199.877 48.76,199.877 49.302,199.335C49.685,198.953 49.81,198.382 49.623,197.875C49.554,197.705 49.451,197.551 49.321,197.422L46.706,194.715C46.169,194.168 45.291,194.16 44.744,194.697C44.394,195.041 44.252,195.543 44.37,196.02L44.374,196.02Z" style="fill:white;fill-rule:nonzero;"/>
        </g>
        <g transform="matrix(4.16667,0,0,4.16667,0,0)">
            <path d="M39.072,201.887C38.884,202.201 38.83,202.578 38.921,202.933C39.011,203.292 39.238,203.6 39.554,203.79L42.772,205.709C43.432,206.1 44.283,205.884 44.674,205.225C44.675,205.224 44.676,205.223 44.676,205.222C44.863,204.905 44.919,204.527 44.832,204.17C44.733,203.812 44.499,203.507 44.18,203.318L40.961,201.399C40.748,201.272 40.504,201.205 40.255,201.205C40.141,201.206 40.026,201.22 39.914,201.249C39.56,201.341 39.257,201.57 39.072,201.887Z" style="fill:white;fill-rule:nonzero;"/>
        </g>
        <g transform="matrix(4.16667,0,0,4.16667,0,0)">
            <path d="M35.416,211.021C35.546,211.494 35.916,211.864 36.39,211.994L39.997,213.012C40.351,213.113 40.732,213.069 41.054,212.89C41.537,212.62 41.809,212.086 41.745,211.537C41.682,210.989 41.3,210.531 40.771,210.373L37.163,209.355C37.042,209.32 36.915,209.302 36.788,209.302C36.022,209.288 35.39,209.897 35.376,210.664C35.373,210.784 35.387,210.904 35.416,211.021Z" style="fill:white;fill-rule:nonzero;"/>
        </g>
        <g transform="matrix(4.16667,0,0,4.16667,0,0)">
            <path d="M92.546,222.336L92.516,222.336C92.421,222.388 92.331,222.45 92.248,222.521C92.223,222.542 92.198,222.564 92.176,222.589C92.1,222.651 92.032,222.721 91.971,222.798L91.908,222.881C91.847,222.962 91.792,223.046 91.742,223.134L91.742,223.188C91.689,223.289 91.647,223.395 91.616,223.504C91.613,223.512 91.613,223.521 91.616,223.529C91.579,223.644 91.557,223.763 91.548,223.884C91.536,224.012 91.536,224.141 91.548,224.269C91.561,224.401 91.587,224.531 91.625,224.658C91.664,224.787 91.717,224.911 91.781,225.028C91.843,225.138 91.915,225.243 91.995,225.34L92.035,225.379C92.11,225.467 92.193,225.548 92.283,225.622L92.312,225.622C92.408,225.693 92.509,225.757 92.614,225.812C92.722,225.868 92.834,225.914 92.95,225.948L92.979,225.948C93.095,225.982 93.214,226.005 93.334,226.017C93.464,226.03 93.595,226.03 93.724,226.017C93.854,226.005 93.983,225.981 94.109,225.943C94.237,225.901 94.363,225.849 94.483,225.788C94.595,225.721 94.701,225.646 94.8,225.564L94.844,225.525C94.928,225.45 95.006,225.368 95.078,225.281L95.078,225.248C95.152,225.155 95.217,225.056 95.272,224.95C95.327,224.842 95.373,224.73 95.409,224.614C95.441,224.498 95.464,224.379 95.477,224.259C95.487,224.129 95.487,223.999 95.477,223.87C95.465,223.747 95.44,223.626 95.404,223.509C95.364,223.386 95.312,223.267 95.248,223.154C95.186,223.042 95.115,222.936 95.034,222.837L94.99,222.789C94.917,222.706 94.837,222.629 94.751,222.56C94.733,222.549 94.717,222.536 94.703,222.521C94.614,222.455 94.521,222.395 94.425,222.341L94.381,222.341C94.278,222.288 94.171,222.246 94.06,222.214L94.026,222.214C93.914,222.185 93.8,222.163 93.685,222.151L93.636,222.151C93.533,222.145 93.429,222.145 93.325,222.151L93.232,222.151C93.141,222.162 93.052,222.182 92.964,222.209L92.852,222.243C92.756,222.276 92.661,222.315 92.57,222.36L92.526,222.36L92.546,222.336Z" style="fill:white;fill-rule:nonzero;"/>
        </g>
        <g transform="matrix(4.16667,0,0,4.16667,0,0)">
            <path d="M94.684,255.007L94.802,254.929C95.434,254.507 96.29,254.678 96.712,255.311L101.239,262.101C101.661,262.734 101.49,263.589 100.857,264.011L100.74,264.09C100.106,264.512 99.25,264.341 98.828,263.708L94.302,256.918C93.88,256.285 94.051,255.429 94.684,255.007Z" style="fill:white;fill-rule:nonzero;"/>
        </g>
        <g transform="matrix(4.16667,0,0,4.16667,0,0)">
            <path d="M124.544,214.342C122.428,188.16 101.301,167.114 75.111,165.097C43.506,162.662 17.007,187.691 17.007,218.792C17.007,234.279 23.588,248.251 34.088,258.085L34.096,258.077C34.358,258.303 34.695,258.446 35.069,258.446C35.895,258.446 36.565,257.776 36.565,256.95C36.565,256.5 36.363,256.103 36.05,255.829L36.056,255.822C26.187,246.539 20.006,233.377 20.006,218.792C20.038,190.779 42.854,167.963 70.865,167.932L70.866,167.932C98.91,167.932 121.726,190.748 121.726,218.792C121.726,233.404 115.523,246.587 105.622,255.873L105.638,255.891C105.33,256.165 105.133,256.559 105.133,257.003C105.133,257.83 105.802,258.5 106.628,258.5C107.091,258.5 107.499,258.286 107.773,257.956C119.19,247.192 125.933,231.522 124.544,214.342Z" style="fill:white;fill-rule:nonzero;"/>
        </g>
        <g transform="matrix(4.16667,0,0,4.16667,0,0)">
            <path d="M74.548,254.069C71.48,254.069 67.945,253.494 65.22,251.403C62.835,249.572 61.562,246.925 61.438,243.534C61.141,235.401 67.337,234.07 72.317,233C76.62,232.075 79.281,231.318 79.943,228.608C80.111,227.922 80.805,227.504 81.489,227.67C82.175,227.836 82.595,228.529 82.427,229.215C81.337,233.677 76.83,234.645 72.854,235.499C67.982,236.547 63.775,237.451 63.994,243.44C64.088,246.033 65.025,248.03 66.777,249.374C70.15,251.961 75.882,251.846 80.122,250.876C85.909,249.551 90.219,246.321 94.534,240.077C95.698,238.392 97.065,236.868 98.388,235.395C100.261,233.307 102.03,231.335 103.231,228.977C104.367,226.746 104.728,225.219 104.368,224.171C103.981,223.045 102.696,222.076 99.783,220.713C97.894,219.83 93.468,217.76 91.154,218.939C90.033,219.51 88.421,221.464 87.399,223.038L86.529,224.377L83.229,220.963C82.736,220.458 82.745,219.649 83.25,219.156C83.756,218.661 84.563,218.672 85.058,219.175L86.165,220.348C87.094,219.108 88.557,217.392 89.995,216.66C93.019,215.123 97.188,216.676 100.868,218.398C103.972,219.85 106.045,221.183 106.786,223.338C107.395,225.111 107.002,227.208 105.51,230.137C104.158,232.793 102.192,234.984 100.292,237.103C99.022,238.516 97.709,239.98 96.637,241.532C91.928,248.348 87.159,251.888 80.693,253.37C79.599,253.62 77.256,254.069 74.548,254.069Z" style="fill:white;fill-rule:nonzero;"/>
        </g>
        <g transform="matrix(4.16667,0,0,4.16667,0,0)">
            <path d="M72.432,251.855L72.572,251.834C73.325,251.727 74.023,252.25 74.131,253.002L75.249,258.793C75.357,259.546 74.834,260.245 74.081,260.353L73.941,260.374C73.188,260.481 72.49,259.959 72.381,259.205L71.264,253.415C71.156,252.662 71.679,251.962 72.432,251.855Z" style="fill:white;fill-rule:nonzero;"/>
        </g>
        <g transform="matrix(4.16667,0,0,4.16667,0,0)">
            <path d="M69.67,250.951L69.788,251.027C70.428,251.44 70.611,252.292 70.198,252.932L67.241,258.035C66.828,258.673 65.975,258.857 65.336,258.445L65.217,258.368C64.578,257.955 64.394,257.102 64.807,256.462L67.765,251.361C68.178,250.721 69.03,250.538 69.67,250.951Z" style="fill:white;fill-rule:nonzero;"/>
        </g>
        <g transform="matrix(4.16667,0,0,4.16667,0,0)">
            <path d="M94.378,241.801L94.427,241.669C94.694,240.956 95.488,240.594 96.2,240.86L101.818,242.657C102.531,242.924 102.892,243.717 102.626,244.43L102.576,244.563C102.31,245.275 101.516,245.637 100.804,245.371L95.186,243.574C94.473,243.308 94.111,242.514 94.378,241.801Z" style="fill:white;fill-rule:nonzero;"/>
        </g>
        <g transform="matrix(4.16667,0,0,4.16667,0,0)">
            <path d="M92.26,243.791L92.384,243.724C93.053,243.361 93.889,243.609 94.252,244.278L97.31,249.32C97.673,249.989 97.425,250.826 96.756,251.188L96.632,251.255C95.963,251.619 95.127,251.371 94.764,250.702L91.705,245.659C91.343,244.991 91.591,244.154 92.26,243.791Z" style="fill:white;fill-rule:nonzero;"/>
        </g>
    </g>
</svg>
