<svg height="48" viewBox="0 0 48 48" width="48" xmlns="http://www.w3.org/2000/svg"><g fill="none" fill-rule="evenodd"><path d="m-104-2775h320v4423h-320z" fill="#fff"/><circle cx="24" cy="24" fill="#03a9f4" r="24"/><path d="m40 14.8386588c-1.1251172.4916664-2.3173234.8151731-3.537842.9599982 1.2825577-.7569144 2.2448221-1.9505839 2.7079573-3.359166-1.2091141.707753-2.5309612 1.2053773-3.9086238 1.4714455-1.1664341-1.2255931-2.7914003-1.9172563-4.4893765-1.910893-3.3978614 0-6.1549785 2.7119949-6.1549785 6.0579196 0 .4717233.0549924.9351707.1591446 1.3804112-4.9379462-.23897-9.5444072-2.538953-12.6832385-6.3326777-1.6321558 2.7719696-.795805 6.3277876 1.9039023 8.0946054-.976642-.0319203-1.9321187-.2910009-2.7896126-.7564124v.0711723c0 2.9379255 2.1222053 5.3859209 4.9343147 5.9453681-.5270623.1429174-1.0709249.2155544-1.6172754.2159996-.3974448 0-.784891-.0446896-1.1581725-.1125515.7807249 2.4016506 3.0520761 4.1569576 5.7475351 4.2090955-2.5873564 1.9944173-5.8619677 2.8954042-9.1137342 2.5075814 2.8217452 1.777735 6.0946698 2.7209687 9.4361894 2.7194432 11.3200944 0 17.5142342-9.2325343 17.5142342-17.2435537 0-.2615167-.0099987-.523861-.0233301-.7787571 1.2080415-.8519464 2.2494036-1.9157163 3.0729065-3.1390286" fill="#fff" fill-rule="nonzero"/></g></svg>