<svg height="48" width="48" xmlns="http://www.w3.org/2000/svg"><g fill="none" fill-rule="evenodd"><path d="M-104-2775h320v4423h-320z" fill="#fff"/><circle cx="24" cy="24" fill="#03a9f4" r="24"/><path d="M40 14.839a12.52 12.52 0 0 1-3.538.96 6.124 6.124 0 0 0 2.708-3.36 12.387 12.387 0 0 1-3.909 1.472A6.166 6.166 0 0 0 30.772 12c-3.398 0-6.155 2.712-6.155 6.058 0 .472.055.935.16 1.38a17.561 17.561 0 0 1-12.684-6.332 6.017 6.017 0 0 0 1.904 8.094 6.279 6.279 0 0 1-2.79-.756v.071c0 2.938 2.123 5.386 4.935 5.945a6.2 6.2 0 0 1-1.618.216c-.397 0-.785-.044-1.158-.112.78 2.402 3.052 4.157 5.748 4.209A12.506 12.506 0 0 1 10 33.281 17.69 17.69 0 0 0 19.436 36c11.32 0 17.514-9.233 17.514-17.244 0-.261-.01-.523-.023-.778A12.132 12.132 0 0 0 40 14.838" fill="#fff" fill-rule="nonzero"/></g></svg>