<svg clip-rule="evenodd" fill-rule="evenodd" stroke-linejoin="round" stroke-miterlimit="1.41421" viewBox="0 0 257 158" xmlns="http://www.w3.org/2000/svg"><path d="m0 0h256.445v157.773h-256.445z" fill="#001d36"/><path d="m146.758 27.405-102.469 39.93 3.974 40.452 113.881 21.996 50.989-24.877-9.507-33.314z" fill="#e15d44"/><g fill="#fefefe"><path d="m169.19 105.461v6.833l31.07-6.833zm-46.87 0h-31.818l31.818 6.998zm29.19-20.496s-.605-2.145 1.653-6.27c2.257-4.125 4.022-1.87 4.022-1.87s1.926 2.09-.276 5.226c-2.204 3.132-5.399 2.914-5.399 2.914m-17.348 2.968c-2.59 6.767-8.868 4.016-8.868 4.016s-.716-2.42 1.322-9.185c2.037-6.762 6.829-4.125 6.829-4.125s3.305 2.532.717 9.294m-4.682-28.321s3.912-10.174 4.847-5.223c.934 4.948-8.207 19.687-8.207 19.687.11-3.299 3.36-14.464 3.36-14.464m-55.904 25.353c.166-6.544 4.461-9.404 5.949-7.974s.936 4.509-1.873 6.434c-2.808 1.925-4.076 1.54-4.076 1.54m118.471-1.087c-.221-2.202-2.203-1.381-2.203-1.381s-3.195 2.471-6.004 2.197c-2.806-.276-1.926-6.547-1.926-6.547s.604-5.746-1.048-6.229c-1.652-.481-3.69 1.499-3.69 1.499s-2.532 2.804-3.746 6.377l-.33.111s.387-6.269-.053-7.7c-.332-.714-3.361-.659-3.857.606-.495 1.265-2.92 10.064-3.085 13.749 0 0-4.736 4.015-8.866 4.674-4.129.661-5.122-1.925-5.122-1.925s11.234-3.135 10.849-12.099-9.059-5.649-10.042-4.912c-.949.714-6.021 3.766-7.499 12.222-.05.288-.138 1.545-.138 1.545s-4.351 2.914-6.774 3.685c0 0 6.774-11.386-1.487-16.554-3.746-2.255-6.72 2.474-6.72 2.474s11.181-12.429 8.702-22.932c-1.178-5.001-3.685-5.539-5.984-4.731-3.49 1.377-4.811 3.412-4.811 3.412s-4.516 6.544-5.563 16.278c-1.047 9.733-2.589 21.502-2.589 21.502s-2.147 2.091-4.131 2.198c-1.982.111-1.1-5.884-1.1-5.884s1.541-9.128 1.432-10.667c-.111-1.541-.222-2.365-2.039-2.916-1.817-.549-3.8 1.761-3.8 1.761s-5.232 7.917-5.672 9.129l-.276.496-.276-.33s3.69-10.781.166-10.946c-3.526-.164-5.839 3.851-5.839 3.851s-4.02 6.709-4.186 7.48l-.274-.332s1.651-7.809 1.321-9.734c-.33-1.924-2.148-1.539-2.148-1.539s-2.314-.275-2.92 1.211c-.605 1.483-2.808 11.328-3.084 14.461 0 0-5.782 4.127-9.583 4.18-3.8.055-3.414-2.407-3.414-2.407s13.934-4.761 10.134-14.166c-1.708-2.419-3.692-3.18-6.5-3.125s-6.267 1.765-8.525 6.825c-1.077 2.416-1.444 4.704-1.663 6.438 0 0-2.467.495-3.79-.604-1.321-1.098-2.015 0-2.015 0s-2.277 2.441-.018 3.322 5.776.84 5.776.84h-.002c.325 2.342 1.266 4.605 4.017 6.692 4.129 3.133 12.06-.069 12.06-.069l3.249-1.706s.109 3.033 2.478 3.468c2.369.434 3.36.021 7.492-9.986 2.422-5.117 2.586-4.83 2.586-4.83l.277-.046s-1.874 9.792-1.158 12.431c.717 2.639 3.854 2.366 3.854 2.366s1.709.003 3.085-4.837c1.378-4.839 4.022-10.508 4.022-10.508h.33s-1.156 10.345.606 13.532c1.763 3.189 6.334 1.236 6.334 1.236s3.194-1.524 3.691-2.02c0 0 3.791 3.261 9.139 2.679 11.955-2.349 16.206-5.5 16.206-5.5s2.056 5.206 8.416 5.687c7.272.549 11.236-4.01 11.236-4.01s-.055 2.972 2.479 4.018c2.534 1.044 4.24-4.778 4.24-4.778l4.24-11.624h.387s.221 7.544 4.407 8.754c4.184 1.21 9.638-2.86 9.638-2.86s1.322-.753 1.101-2.952m-56.29 23.931c-.085.446-.344.705-.78.777h-.96c-.459-.047-.718-.301-.778-.759v-.723c-.085-.905-.58-1.412-1.486-1.52-.954.108-1.474.615-1.558 1.52v5.806c.084.941.604 1.454 1.558 1.539.906-.085 1.401-.598 1.486-1.539v-.777c.06-.458.332-.711.815-.761h.888c.458.061.73.314.815.761v.777c-.279 2.412-1.613 3.728-4.004 3.944-2.44-.193-3.757-1.508-3.951-3.944v-5.862c.183-2.436 1.499-3.779 3.951-4.034 2.416.255 3.75 1.598 4.004 4.034zm7.269 5.118v-5.842c-.098-.941-.616-1.454-1.559-1.538-.941.097-1.455.61-1.539 1.538v5.842c.084.942.598 1.443 1.539 1.504.943-.061 1.461-.562 1.559-1.504m-1.559-9.912c2.429.241 3.763 1.573 4.005 3.999v5.896c-.253 2.412-1.589 3.727-4.005 3.943-2.415-.228-3.738-1.542-3.967-3.943v-5.896c.205-2.426 1.528-3.758 3.967-3.999m13.76 13.043c-.012.423-.23.634-.652.634h-1.159c-.496.024-.84-.187-1.034-.634a719.414 719.414 0 0 1 -2.681-6.368v6.242c-.048.469-.302.723-.761.76h-.924c-.435-.037-.677-.267-.725-.688v-12.337c.024-.364.23-.526.616-.489h1.142c.483-.037.84.175 1.069.632a378.233 378.233 0 0 0 2.662 6.442v-6.314c.05-.447.303-.699.763-.76h.942c.422.035.675.264.759.687v8.864c-.01 1.085-.017 2.165-.017 3.238zm9.017-12.899c.446.074.706.333.779.779v.94c-.073.483-.338.736-.797.76h-4.312c-.242.023-.375.157-.4.398v2.334c.025.241.158.367.4.381h2.736c.446.06.695.306.743.739v.978c-.048.471-.303.712-.762.724h-2.717c-.242.035-.375.176-.4.416v4.359c-.035.458-.283.713-.742.761h-.924c-.434-.023-.676-.247-.724-.671v-12.137c.011-.422.223-.677.634-.761z"/><path d="m95.673 62.697c.345.047.552.234.617.561v.728c-.065.355-.276.551-.631.589h-4.94c-.355-.038-.551-.234-.588-.589v-.728a.49.49 0 0 1 .083-.28 126.19 126.19 0 0 0 4.069-5.422c0-.205.005-.406.014-.603-.139-.634-.528-.975-1.164-1.022-.739.065-1.137.467-1.192 1.205v.532c-.047.355-.248.551-.604.589h-.715c-.365-.048-.552-.248-.562-.603v-.588c.15-1.887 1.174-2.924 3.073-3.111 1.88.197 2.909 1.233 3.087 3.111-.01.261-.028.518-.056.77a3.072 3.072 0 0 1 -.562.952 368.394 368.394 0 0 1 -2.862 3.909zm6.314-1.064v-4.483c-.075-.738-.477-1.145-1.207-1.219-.739.084-1.142.49-1.207 1.219v4.483c.075.728.477 1.125 1.207 1.19.73-.065 1.132-.462 1.207-1.19m-1.207-7.677c1.88.196 2.913 1.232 3.101 3.109v4.554c-.188 1.877-1.221 2.895-3.101 3.054-1.89-.169-2.919-1.187-3.087-3.054v-4.554c.168-1.877 1.197-2.913 3.087-3.109m8.671.616v.574a370.57 370.57 0 0 0 -.029 4.595v4.245c-.037.346-.224.542-.561.589h-.743c-.337-.038-.529-.22-.576-.547v-7.523c-.448.29-.907.57-1.375.841a.887.887 0 0 1 -.449.196c-.252-.065-.379-.234-.379-.505v-.896c-.037-.374.121-.649.478-.826.168-.103.336-.211.505-.323.346-.206.687-.42 1.024-.644.131-.085.262-.159.393-.224a.597.597 0 0 1 .421-.154h.701c.337.055.533.257.59.602m3.718 7.046c.056.683.425 1.074 1.108 1.178.664-.104 1.029-.495 1.095-1.178-.047-.69-.412-1.088-1.095-1.19-.683.112-1.052.509-1.108 1.19m1.108-5.757c-.683.121-1.052.518-1.108 1.19.056.692.425 1.088 1.108 1.191.683-.093 1.048-.49 1.095-1.191-.066-.681-.431-1.078-1.095-1.19m3.073 1.19v.014c-.028.916-.318 1.719-.87 2.41a3.13 3.13 0 0 1 .87 2.143c-.187 1.869-1.211 2.892-3.073 3.069-1.889-.177-2.914-1.2-3.073-3.069a3 3 0 0 1 .856-2.143 3.675 3.675 0 0 1 -.856-2.41v-.014c.15-1.868 1.175-2.904 3.073-3.109 1.871.205 2.895 1.241 3.073 3.109"/></g></svg>