<?xml version="1.0" encoding="UTF-8" standalone="no"?><!DOCTYPE svg PUBLIC "-//W3C//DTD SVG 1.1//EN" "http://www.w3.org/Graphics/SVG/1.1/DTD/svg11.dtd"><svg width="100%" height="100%" viewBox="0 0 257 158" version="1.1" xmlns="http://www.w3.org/2000/svg" xmlns:xlink="http://www.w3.org/1999/xlink" xml:space="preserve" xmlns:serif="http://www.serif.com/" style="fill-rule:evenodd;clip-rule:evenodd;stroke-linejoin:round;stroke-miterlimit:1.41421;"><rect x="0" y="0" width="256.445" height="157.773" style="fill:#001d36;"/><path id="Fill-1" d="M146.758,27.405l-102.469,39.93l3.974,40.452l113.881,21.996l50.989,-24.877l-9.507,-33.314l-56.868,-44.187Z" style="fill:#e15d44;"/><path id="Fill-2" d="M169.19,105.461l0,6.833l31.07,-6.833l-31.07,0Z" style="fill:#fefefe;"/><path id="Fill-3" d="M122.32,105.461l-31.818,0l31.818,6.998l0,-6.998Z" style="fill:#fefefe;"/><path id="Fill-4" d="M151.51,84.965c0,0 -0.605,-2.145 1.653,-6.27c2.257,-4.125 4.022,-1.87 4.022,-1.87c0,0 1.926,2.09 -0.276,5.226c-2.204,3.132 -5.399,2.914 -5.399,2.914m-17.348,2.968c-2.59,6.767 -8.868,4.016 -8.868,4.016c0,0 -0.716,-2.42 1.322,-9.185c2.037,-6.762 6.829,-4.125 6.829,-4.125c0,0 3.305,2.532 0.717,9.294m-4.682,-28.321c0,0 3.912,-10.174 4.847,-5.223c0.934,4.948 -8.207,19.687 -8.207,19.687c0.11,-3.299 3.36,-14.464 3.36,-14.464m-55.904,25.353c0.166,-6.544 4.461,-9.404 5.949,-7.974c1.488,1.43 0.936,4.509 -1.873,6.434c-2.808,1.925 -4.076,1.54 -4.076,1.54m118.471,-1.087c-0.221,-2.202 -2.203,-1.381 -2.203,-1.381c0,0 -3.195,2.471 -6.004,2.197c-2.806,-0.276 -1.926,-6.547 -1.926,-6.547c0,0 0.604,-5.746 -1.048,-6.229c-1.652,-0.481 -3.69,1.499 -3.69,1.499c0,0 -2.532,2.804 -3.746,6.377l-0.33,0.111c0,0 0.387,-6.269 -0.053,-7.7c-0.332,-0.714 -3.361,-0.659 -3.857,0.606c-0.495,1.265 -2.92,10.064 -3.085,13.749c0,0 -4.736,4.015 -8.866,4.674c-4.129,0.661 -5.122,-1.925 -5.122,-1.925c0,0 11.234,-3.135 10.849,-12.099c-0.385,-8.964 -9.059,-5.649 -10.042,-4.912c-0.949,0.714 -6.021,3.766 -7.499,12.222c-0.05,0.288 -0.138,1.545 -0.138,1.545c0,0 -4.351,2.914 -6.774,3.685c0,0 6.774,-11.386 -1.487,-16.554c-3.746,-2.255 -6.72,2.474 -6.72,2.474c0,0 11.181,-12.429 8.702,-22.932c-1.178,-5.001 -3.685,-5.539 -5.984,-4.731c-3.49,1.377 -4.811,3.412 -4.811,3.412c0,0 -4.516,6.544 -5.563,16.278c-1.047,9.733 -2.589,21.502 -2.589,21.502c0,0 -2.147,2.091 -4.131,2.198c-1.982,0.111 -1.1,-5.884 -1.1,-5.884c0,0 1.541,-9.128 1.432,-10.667c-0.111,-1.541 -0.222,-2.365 -2.039,-2.916c-1.817,-0.549 -3.8,1.761 -3.8,1.761c0,0 -5.232,7.917 -5.672,9.129l-0.276,0.496l-0.276,-0.33c0,0 3.69,-10.781 0.166,-10.946c-3.526,-0.164 -5.839,3.851 -5.839,3.851c0,0 -4.02,6.709 -4.186,7.48l-0.274,-0.332c0,0 1.651,-7.809 1.321,-9.734c-0.33,-1.924 -2.148,-1.539 -2.148,-1.539c0,0 -2.314,-0.275 -2.92,1.211c-0.605,1.483 -2.808,11.328 -3.084,14.461c0,0 -5.782,4.127 -9.583,4.18c-3.8,0.055 -3.414,-2.407 -3.414,-2.407c0,0 13.934,-4.761 10.134,-14.166c-1.708,-2.419 -3.692,-3.18 -6.5,-3.125c-2.808,0.055 -6.267,1.765 -8.525,6.825c-1.077,2.416 -1.444,4.704 -1.663,6.438c0,0 -2.467,0.495 -3.79,-0.604c-1.321,-1.098 -2.015,0 -2.015,0c0,0 -2.277,2.441 -0.018,3.322c2.259,0.881 5.776,0.84 5.776,0.84l-0.002,0c0.325,2.342 1.266,4.605 4.017,6.692c4.129,3.133 12.06,-0.069 12.06,-0.069l3.249,-1.706c0,0 0.109,3.033 2.478,3.468c2.369,0.434 3.36,0.021 7.492,-9.986c2.422,-5.117 2.586,-4.83 2.586,-4.83l0.277,-0.046c0,0 -1.874,9.792 -1.158,12.431c0.717,2.639 3.854,2.366 3.854,2.366c0,0 1.709,0.003 3.085,-4.837c1.378,-4.839 4.022,-10.508 4.022,-10.508l0.33,0c0,0 -1.156,10.345 0.606,13.532c1.763,3.189 6.334,1.236 6.334,1.236c0,0 3.194,-1.524 3.691,-2.02c0,0 3.791,3.261 9.139,2.679c11.955,-2.349 16.206,-5.5 16.206,-5.5c0,0 2.056,5.206 8.416,5.687c7.272,0.549 11.236,-4.01 11.236,-4.01c0,0 -0.055,2.972 2.479,4.018c2.534,1.044 4.24,-4.778 4.24,-4.778l4.24,-11.624l0.387,0c0,0 0.221,7.544 4.407,8.754c4.184,1.21 9.638,-2.86 9.638,-2.86c0,0 1.322,-0.753 1.101,-2.952" style="fill:#fefefe;"/><path id="Fill-6" d="M135.757,107.809c-0.085,0.446 -0.344,0.705 -0.78,0.777l-0.96,0c-0.459,-0.047 -0.718,-0.301 -0.778,-0.759l0,-0.723c-0.085,-0.905 -0.58,-1.412 -1.486,-1.52c-0.954,0.108 -1.474,0.615 -1.558,1.52l0,5.806c0.084,0.941 0.604,1.454 1.558,1.539c0.906,-0.085 1.401,-0.598 1.486,-1.539l0,-0.777c0.06,-0.458 0.332,-0.711 0.815,-0.761l0.888,0c0.458,0.061 0.73,0.314 0.815,0.761l0,0.777c-0.279,2.412 -1.613,3.728 -4.004,3.944c-2.44,-0.193 -3.757,-1.508 -3.951,-3.944l0,-5.862c0.183,-2.436 1.499,-3.779 3.951,-4.034c2.416,0.255 3.75,1.598 4.004,4.034l0,0.761Z" style="fill:#fefefe;"/><path id="Fill-8" d="M143.026,112.927l0,-5.842c-0.098,-0.941 -0.616,-1.454 -1.559,-1.538c-0.941,0.097 -1.455,0.61 -1.539,1.538l0,5.842c0.084,0.942 0.598,1.443 1.539,1.504c0.943,-0.061 1.461,-0.562 1.559,-1.504m-1.559,-9.912c2.429,0.241 3.763,1.573 4.005,3.999l0,5.896c-0.253,2.412 -1.589,3.727 -4.005,3.943c-2.415,-0.228 -3.738,-1.542 -3.967,-3.943l0,-5.896c0.205,-2.426 1.528,-3.758 3.967,-3.999" style="fill:#fefefe;"/><path id="Fill-10" d="M155.227,116.058c-0.012,0.423 -0.23,0.634 -0.652,0.634l-0.109,0l-0.145,0l-0.724,0l-0.073,0l-0.108,0c-0.496,0.024 -0.84,-0.187 -1.034,-0.634c-0.906,-2.123 -1.799,-4.245 -2.681,-6.368l0,6.242c-0.048,0.469 -0.302,0.723 -0.761,0.76l-0.924,0c-0.435,-0.037 -0.677,-0.267 -0.725,-0.688l0,-12.248l0,-0.089c0.024,-0.364 0.23,-0.526 0.616,-0.489l1.142,0c0.483,-0.037 0.84,0.175 1.069,0.632c0.869,2.161 1.757,4.306 2.662,6.442l0,-6.314c0.05,-0.447 0.303,-0.699 0.763,-0.76l0.942,0c0.422,0.035 0.675,0.264 0.759,0.687l0,8.864c-0.01,1.085 -0.017,2.165 -0.017,3.238l0,0.091Z" style="fill:#fefefe;"/><path id="Fill-12" d="M164.244,103.159c0.446,0.074 0.706,0.333 0.779,0.779l0,0.94c-0.073,0.483 -0.338,0.736 -0.797,0.76l-4.312,0c-0.242,0.023 -0.375,0.157 -0.4,0.398l0,2.334c0.025,0.241 0.158,0.367 0.4,0.381l2.736,0c0.446,0.06 0.695,0.306 0.743,0.739l0,0.978c-0.048,0.471 -0.303,0.712 -0.762,0.724l-2.717,0c-0.242,0.035 -0.375,0.176 -0.4,0.416l0,4.359c-0.035,0.458 -0.283,0.713 -0.742,0.761l-0.924,0c-0.434,-0.023 -0.676,-0.247 -0.724,-0.671l0,-2.442l0,-0.233l0,-8.612l0,-0.85c0.011,-0.422 0.223,-0.677 0.634,-0.761l6.486,0Z" style="fill:#fefefe;"/><path id="Fill-14" d="M95.673,62.697c0.345,0.047 0.552,0.234 0.617,0.561l0,0.728c-0.065,0.355 -0.276,0.551 -0.631,0.589l-4.94,0c-0.355,-0.038 -0.551,-0.234 -0.588,-0.589l0,-0.728c0,-0.103 0.027,-0.197 0.083,-0.28c1.394,-1.757 2.751,-3.564 4.069,-5.422c0,-0.205 0.005,-0.406 0.014,-0.603c-0.139,-0.634 -0.528,-0.975 -1.164,-1.022c-0.739,0.065 -1.137,0.467 -1.192,1.205l0,0.532c-0.047,0.355 -0.248,0.551 -0.604,0.589l-0.715,0c-0.365,-0.048 -0.552,-0.248 -0.562,-0.603l0,-0.588c0.15,-1.887 1.174,-2.924 3.073,-3.111c1.88,0.197 2.909,1.233 3.087,3.111c-0.01,0.261 -0.028,0.518 -0.056,0.77c-0.132,0.355 -0.319,0.672 -0.562,0.952c-0.944,1.308 -1.899,2.611 -2.862,3.909l2.933,0Z" style="fill:#fefefe;"/><path id="Fill-16" d="M101.987,61.633l0,-4.483c-0.075,-0.738 -0.477,-1.145 -1.207,-1.219c-0.739,0.084 -1.142,0.49 -1.207,1.219l0,4.483c0.075,0.728 0.477,1.125 1.207,1.19c0.73,-0.065 1.132,-0.462 1.207,-1.19m-1.207,-7.677c1.88,0.196 2.913,1.232 3.101,3.109l0,4.554c-0.188,1.877 -1.221,2.895 -3.101,3.054c-1.89,-0.169 -2.919,-1.187 -3.087,-3.054l0,-4.554c0.168,-1.877 1.197,-2.913 3.087,-3.109" style="fill:#fefefe;"/><path id="Fill-18" d="M109.451,54.572l0,0.574c-0.019,1.532 -0.029,3.064 -0.029,4.595l0,4.245c-0.037,0.346 -0.224,0.542 -0.561,0.589l-0.743,0c-0.337,-0.038 -0.529,-0.22 -0.576,-0.547l0,-7.523c-0.448,0.29 -0.907,0.57 -1.375,0.841c-0.14,0.111 -0.29,0.177 -0.449,0.196c-0.252,-0.065 -0.379,-0.234 -0.379,-0.505l0,-0.896c-0.037,-0.374 0.121,-0.649 0.478,-0.826c0.168,-0.103 0.336,-0.211 0.505,-0.323c0.346,-0.206 0.687,-0.42 1.024,-0.644c0.131,-0.085 0.262,-0.159 0.393,-0.224c0.112,-0.103 0.252,-0.154 0.421,-0.154l0.701,0c0.337,0.055 0.533,0.257 0.59,0.602" style="fill:#fefefe;"/><path id="Fill-20" d="M113.169,61.618c0.056,0.683 0.425,1.074 1.108,1.178c0.664,-0.104 1.029,-0.495 1.095,-1.178c-0.047,-0.69 -0.412,-1.088 -1.095,-1.19c-0.683,0.112 -1.052,0.509 -1.108,1.19m1.108,-5.757c-0.683,0.121 -1.052,0.518 -1.108,1.19c0.056,0.692 0.425,1.088 1.108,1.191c0.683,-0.093 1.048,-0.49 1.095,-1.191c-0.066,-0.681 -0.431,-1.078 -1.095,-1.19m3.073,1.19l0,0.014c-0.028,0.916 -0.318,1.719 -0.87,2.41c0.562,0.598 0.851,1.313 0.87,2.143c-0.187,1.869 -1.211,2.892 -3.073,3.069c-1.889,-0.177 -2.914,-1.2 -3.073,-3.069c0,-0.83 0.286,-1.545 0.856,-2.143c-0.57,-0.691 -0.856,-1.494 -0.856,-2.41l0,-0.014c0.15,-1.868 1.175,-2.904 3.073,-3.109c1.871,0.205 2.895,1.241 3.073,3.109" style="fill:#fefefe;"/></svg>