<svg height="478" viewBox="0 0 1440 478" width="1440" xmlns="http://www.w3.org/2000/svg" xmlns:xlink="http://www.w3.org/1999/xlink"><defs><path id="a" d="m0 0h1440v478h-1440z"/><mask id="b" fill="#fff"><use fill="#fff" fill-rule="evenodd" xlink:href="#a"/></mask></defs><g fill="none" fill-rule="evenodd"><use fill="#e04e39" xlink:href="#a"/><g fill-rule="nonzero"><path d="m-57-220h382.01v382.01h-382.01z" fill="#ffeab0" mask="url(#b)" transform="matrix(.96529053 -.26117847 .26117847 .96529053 12.224112 33.99282)"/><path d="m778.256712 117.256712h382.01v382.01h-382.01z" fill="#bdcbef" mask="url(#b)" transform="matrix(.96529053 -.26117847 .26117847 .96529053 -46.868762 263.849894)"/><g mask="url(#b)"><g transform="translate(884.86746 170.727698)"><path d="m28.57151 36.139927h466v382.01h-466z" fill="#ffeab0" transform="matrix(.98662911 .16298157 -.16298157 .98662911 40.517881 -39.594207)"/><path d="m380.643878 113.295994 25.911247 4.103938.555918.091402c8.659575 1.476608 14.978329 5.051505 18.956263 10.724693 4.062572 5.793893 5.385109 13.165701 3.967612 22.115423l-7.236693 45.690684-.084259.550124c-.88822 6.00694-.50168 10.54793 1.159617 13.62297 1.71164 3.168223 5.306363 5.427561 10.784168 6.778014l8.216708 2.02568-3.394532 21.432228-8.440523-.612566-.478617-.031462c-5.38242-.316424-9.339839.731991-11.872257 3.145246-2.606901 2.484233-4.407719 6.866602-5.402454 13.147109l-7.236693 45.690684-.093356.568071c-1.47556 8.661538-4.980263 15.0745-10.514109 19.238887-5.654146 4.254916-12.953994 5.673957-21.899544 4.257121l-25.911247-4.103938 3.506439-22.138786 15.963179 2.52832.385409.056986c3.057189.419316 5.488458-.039252 7.293806-1.375703 1.880571-1.392137 3.106842-3.893851 3.678815-7.505142l7.162088-45.219647.09702-.585407c1.1758-6.790196 3.888269-12.196003 8.137406-16.217423 4.37054-4.136317 9.110588-6.363168 14.220142-6.680554-4.761397-1.880792-8.575098-5.502662-11.441103-10.865611s-3.739469-11.577208-2.620393-18.642778l7.162089-45.219646.05958-.397744c.481943-3.416689.068902-6.042318-1.239125-7.876887-1.358335-1.905129-3.656955-3.114189-6.895861-3.627182l-15.963179-2.528319zm-79.015067-12.514757 25.911247 4.103938.555918.091402c8.659574 1.476607 14.978329 5.051505 18.956263 10.724692 4.062572 5.793894 5.385109 13.165702 3.967612 22.115423l-7.236693 45.690685-.084259.550124c-.88822 6.00694-.501681 10.54793 1.159617 13.62297 1.71164 3.168222 5.306363 5.42756 10.784168 6.778014l8.216707 2.02568-3.394531 21.432228-8.440523-.612566-.478617-.031462c-5.38242-.316425-9.339839.73199-11.872258 3.145245-2.606901 2.484233-4.407718 6.866603-5.402453 13.14711l-7.236693 45.690684-.093356.568071c-1.475561 8.661538-4.980264 15.0745-10.514109 19.238887-5.654147 4.254916-12.953995 5.673957-21.899544 4.257121l-25.911248-4.103939 3.50644-22.138785 15.963179 2.528319.385408.056987c3.05719.419316 5.488459-.039252 7.293807-1.375703 1.88057-1.392137 3.106842-3.893851 3.678814-7.505142l7.162089-45.219647.097019-.585407c1.175801-6.790196 3.888269-12.196004 8.137406-16.217423 4.370541-4.136317 9.110589-6.363168 14.220143-6.680555-4.761397-1.880791-8.575098-5.502661-11.441103-10.86561s-3.739469-11.577208-2.620393-18.642778l7.162088-45.219646.059581-.397744c.481943-3.416689.068902-6.042318-1.239125-7.876887-1.358335-1.905129-3.656955-3.11419-6.895861-3.627182l-15.96318-2.528319zm-83.367572-5.4784581c5.654146-4.2549167 12.953994-5.6739571 21.899544-4.2571213l25.911247 4.1039384-3.506439 22.138785-15.963179-2.528319-.385409-.056987c-3.057189-.419315-5.488458.039252-7.293806 1.375704-1.880571 1.392137-3.106842 3.893851-3.678815 7.505142l-7.162088 45.219646-.097034.585498c-1.176136 6.792316-3.894817 12.237347-8.156043 16.335092-4.382975 4.214823-9.12924 6.480928-14.238794 6.798314 4.761397 1.880791 8.581315 5.463408 11.459755 10.747851 2.878439 5.284442 3.75812 11.459449 2.639044 18.525018l-7.162089 45.219647-.05958.397744c-.481944 3.416689-.068902 6.042317 1.239125 7.876886 1.358335 1.905129 3.656955 3.11419 6.895861 3.627182l15.963179 2.528319-3.506439 22.138786-25.911247-4.103939-.555918-.091402c-8.659575-1.476607-14.978329-5.051504-18.956264-10.724692-4.062571-5.793894-5.385108-13.165701-3.967611-22.115423l7.236693-45.690684.084259-.550124c.88822-6.00694.50168-10.54793-1.159617-13.62297-1.71164-3.168223-5.306363-5.427561-10.784168-6.778014l-8.216708-2.02568 3.394532-21.432229 8.440523.612567.478617.031461c5.38242.316425 9.339839-.73199 11.872257-3.145245 2.606901-2.484233 4.407719-6.866603 5.402454-13.147109l7.236693-45.690685.093356-.56807c1.47556-8.661538 4.980263-15.0745006 10.514109-19.2388871zm-79.015067-12.5147572c5.654146-4.2549167 12.953994-5.6739572 21.899544-4.2571213l25.911247 4.1039384-3.506439 22.1387852-15.963179-2.528319-.385409-.056987c-3.057189-.419316-5.488458.039252-7.293806 1.375704-1.880571 1.392136-3.106842 3.89385-3.678815 7.505142l-7.162088 45.219646-.097034.585498c-1.176136 6.792316-3.894817 12.237347-8.156043 16.335092-4.382975 4.214823-9.12924 6.480928-14.238794 6.798314 4.761397 1.880791 8.581315 5.463408 11.459754 10.747851 2.878439 5.284442 3.758121 11.459448 2.639044 18.525018l-7.162088 45.219647-.059581.397743c-.481943 3.416689-.068901 6.042318 1.239125 7.876887 1.358335 1.905129 3.656956 3.11419 6.895862 3.627182l15.963179 2.528319-3.506439 22.138785-25.911247-4.103938-.555918-.091402c-8.659575-1.476607-14.978329-5.051505-18.956264-10.724692-4.062571-5.793894-5.385108-13.165701-3.967612-22.115423l7.236694-45.690684.084259-.550124c.888219-6.006941.50168-10.547931-1.159618-13.62297-1.71164-3.168223-5.306362-5.427561-10.784167-6.778014l-8.2167078-2.02568 3.3945315-21.432229 8.4405223.612566.478618.031462c5.38242.316425 9.339839-.73199 11.872257-3.145245 2.606901-2.484233 4.407719-6.866603 5.402453-13.147109l7.236694-45.690685.093355-.568071c1.475561-8.6615375 4.980264-15.0744998 10.51411-19.2388863z" fill="#bdcbef"/></g></g></g><g mask="url(#b)" stroke="#090928" stroke-width="22.8"><g transform="matrix(.90630779 .42261826 -.42261826 .90630779 896.239939 -153.388733)"><path d="m0 323.551869 72.7665112-271.5683166c8.0143522-29.9099691 38.7300278-47.6673929 68.6200578-39.6583833 29.883459 8.0072488 86.21891-7.35949994 78.210488 22.52834l72.987754-34.03474872"/><path d="m545.703359 323.551869-72.766511-271.5683166c-8.014352-29.9099691-38.730028-47.6673929-68.620058-39.6583833-29.883459 8.0072488-47.605944 38.7673564-39.597522 68.6551964"/><path d="m224.352 337.090763h93.024"/><circle cx="109.44" cy="337.090763" r="109.44"/><circle cx="437.76" cy="337.090763" r="109.44"/></g></g><g mask="url(#b)" stroke-width="22.8"><g transform="matrix(.96592583 -.25881905 .25881905 .96592583 2.902076 15.872738)"><g fill="none" stroke="#a9b6d6"><path d="m0 328.171869 72.7665112-271.5683167c8.0143522-29.9099691 38.7300278-47.6673928 68.6200578-39.6583832 29.883459 8.0072488 47.605944 38.7673564 39.597522 68.6551964"/><path d="m545.703359 328.171869-72.766511-271.5683167c-8.014352-29.9099691-38.730028-47.6673928-68.620058-39.6583832-28.226454 7.5632556-44.593459-19.83329791-39.684964 8.420053.288148 1.6585843-16.894999-6.0652645-16.450941-4.4080163l-51.035277-20.15457466"/><path d="m224.352 341.710763h93.024"/></g><circle cx="109.44" cy="341.710763" fill="#bdcbef" fill-rule="nonzero" r="109.44" stroke="#bdcbef"/><circle cx="437.76" cy="341.710763" fill="#bdcbef" fill-rule="nonzero" r="109.44" stroke="#bdcbef"/></g></g></g></svg>