<svg fill="none" height="59" viewBox="0 0 304 59" width="304" xmlns="http://www.w3.org/2000/svg"><g clip-rule="evenodd" fill-rule="evenodd"><path d="m47.7019 42.1154c.8253-1.3048 1.4398-2.8564 1.4398-4.6504 0-4.3989-3.5678-7.965-7.9689-7.965s-7.9689 3.5661-7.9689 7.965v13.8541c1.5308-.2567 3.0083-.6704 4.4154-1.2241.8065-.3219 1.5646-.6762 2.2618-1.0412 1.4931-.7924 2.8846-1.7507 4.1499-2.8502.1518-.1491.3276-.3147.5207-.4966.3514-.3308.7601-.7157 1.1861-1.1542.7101-.7642 1.3667-1.5786 1.9641-2.4374z" fill="#ffa800"/><g fill="#242f6d"><path d="m25.8253 51.3191v-13.8541c0-8.472 6.8713-15.34 15.3475-15.34 3.9171 0 7.4913 1.4667 10.2032 3.8805-1.6762-10.5588-10.8257-18.6305-21.8614-18.6305-12.2253 0-22.13594 9.9057-22.13594 22.125 0 10.9629 7.97734 20.0635 18.44664 21.8191z"/><path d="m82.7684 44.8385c-3.1124 0-5.9092-.6586-8.3906-1.9758-2.4815-1.3172-4.4302-3.1388-5.8461-5.4649-1.416-2.3261-2.124-4.9464-2.124-7.861s.708-5.5349 2.124-7.861c1.4159-2.3261 3.3646-4.1477 5.8461-5.4649 2.4814-1.3172 5.2782-1.9757 8.3906-1.9757 3.1123 0 5.9091.6585 8.3906 1.9757 2.4814 1.3172 4.4301 3.1388 5.8461 5.4649s2.1239 4.9464 2.1239 7.861-.7079 5.5349-2.1239 7.861-3.3647 4.1477-5.8461 5.4649c-2.4815 1.3172-5.2783 1.9758-8.3906 1.9758zm-.0001-6.8942c1.4861 0 2.832-.3503 4.0376-1.0509 1.2057-.7007 2.159-1.6885 2.86-2.9637.701-1.2751 1.0515-2.7394 1.0515-4.3929s-.3505-3.1178-1.0515-4.3929c-.701-1.2752-1.6543-2.263-2.86-2.9637-1.2056-.7006-2.5515-1.0509-4.0376-1.0509-1.486 0-2.8319.3503-4.0375 1.0509-1.2057.7007-2.159 1.6885-2.86 2.9637-.701 1.2751-1.0515 2.7394-1.0515 4.3929s.3505 3.1178 1.0515 4.3929c.701 1.2752 1.6543 2.263 2.86 2.9637 1.2056.7006 2.5515 1.0509 4.0375 1.0509zm34.4647-16.857c2.832 0 5.11.8407 6.835 2.5222 1.724 1.6815 2.586 4.2178 2.586 7.6088v13.0316h-7.991v-11.7284c0-3.1108-1.247-4.6662-3.743-4.6662-1.374 0-2.474.4484-3.302 1.3452-.827.8968-1.24 2.242-1.24 4.0356v11.0138h-7.991v-22.7843h7.612v2.4802c.897-.9248 1.963-1.6324 3.197-2.1229 1.233-.4904 2.579-.7356 4.037-.7356zm27.526-6.2636c2.663 0 4.976.4414 6.939 1.3242s3.477 2.1439 4.542 3.7833c1.066 1.6395 1.599 3.5662 1.599 5.7802s-.533 4.1337-1.599 5.7591c-1.065 1.6255-2.579 2.8796-4.542 3.7624s-4.276 1.3242-6.939 1.3242h-5.132v7.6928h-8.327v-29.4262zm-.505 15.1755c1.71 0 3-.3713 3.869-1.114.869-.7426 1.304-1.8006 1.304-3.1738s-.435-2.4382-1.304-3.1949c-.869-.7566-2.159-1.135-3.869-1.135h-4.627v8.6177zm24.329-5.8012c.813-1.0369 1.871-1.8146 3.175-2.333 1.304-.5185 2.797-.7777 4.479-.7777v7.1884c-.729-.0841-1.332-.1261-1.808-.1261-1.711 0-3.049.4624-4.017 1.3872-.967.9248-1.451 2.3401-1.451 4.2458v10.4673h-7.991v-22.7843h7.613zm21.427 20.4303c-2.44 0-4.641-.5045-6.604-1.5134-1.962-1.0089-3.497-2.4101-4.605-4.2037s-1.661-3.8254-1.661-6.0955c0-2.242.553-4.2598 1.661-6.0534s2.636-3.1878 4.584-4.1827c1.949-.9949 4.157-1.4923 6.625-1.4923 2.467 0 4.682.4974 6.645 1.4923 1.962.9949 3.491 2.3821 4.584 4.1617 1.094 1.7796 1.64 3.8044 1.64 6.0744 0 2.2701-.546 4.3019-1.64 6.0955-1.093 1.7936-2.622 3.1948-4.584 4.2037-1.963 1.0089-4.178 1.5134-6.645 1.5134zm0-6.3477c1.401 0 2.551-.4834 3.448-1.4503.898-.9669 1.346-2.305 1.346-4.0146 0-1.6815-.448-2.9986-1.346-3.9515-.897-.9529-2.047-1.4293-3.448-1.4293-1.402 0-2.552.4764-3.449 1.4293-.898.9529-1.346 2.27-1.346 3.9515 0 1.7096.448 3.0477 1.346 4.0146.897.9669 2.047 1.4503 3.449 1.4503zm40.058-25.2225v31.1918h-7.612v-2.27c-1.486 1.7656-3.715 2.6484-6.688 2.6484-2.074 0-3.967-.4835-5.677-1.4503-1.711-.9669-3.064-2.3471-4.059-4.1407s-1.493-3.8675-1.493-6.2216.498-4.4209 1.493-6.2005 2.348-3.1458 4.059-4.0987c1.71-.9528 3.603-1.4292 5.677-1.4292 2.72 0 4.823.7847 6.309 2.3541v-10.3833zm-12.617 25.2225c1.374 0 2.509-.4834 3.406-1.4503.898-.9669 1.346-2.305 1.346-4.0146 0-1.6815-.441-2.9986-1.325-3.9515-.883-.9529-2.025-1.4293-3.427-1.4293s-2.552.4764-3.449 1.4293-1.346 2.27-1.346 3.9515c0 1.7096.449 3.0477 1.346 4.0146s2.047 1.4503 3.449 1.4503zm40.984-16.815v22.7843h-7.613v-2.4381c-.841.9248-1.85 1.6254-3.028 2.1018-1.178.4765-2.425.7147-3.743.7147-2.944 0-5.293-.8688-7.045-2.6064-1.752-1.7375-2.629-4.3438-2.629-7.8189v-12.7374h7.991v11.4342c0 1.7095.323 2.9566.968 3.7413s1.584 1.1771 2.818 1.1771c1.261 0 2.292-.4414 3.091-1.3242s1.199-2.235 1.199-4.0566v-10.9718zm16.043 23.1627c-2.524 0-4.781-.5045-6.771-1.5134-1.991-1.0089-3.54-2.4101-4.648-4.2037-1.107-1.7936-1.661-3.8254-1.661-6.0955 0-2.27.554-4.2948 1.661-6.0744 1.108-1.7796 2.657-3.1668 4.648-4.1617 1.99-.9949 4.247-1.4923 6.771-1.4923 2.58 0 4.809.5535 6.687 1.6605 1.879 1.1069 3.211 2.6413 3.996 4.6031l-6.183 3.1528c-1.037-2.0459-2.551-3.0688-4.542-3.0688-1.43 0-2.615.4765-3.554 1.4293-.939.9529-1.409 2.27-1.409 3.9515 0 1.7096.47 3.0477 1.409 4.0146s2.124 1.4503 3.554 1.4503c1.991 0 3.505-1.0229 4.542-3.0687l6.183 3.1528c-.785 1.9617-2.117 3.4961-3.996 4.6031-1.878 1.107-4.107 1.6605-6.687 1.6605zm29.081-1.3032c-.673.4204-1.493.7427-2.46.9669s-1.998.3363-3.091.3363c-2.972 0-5.258-.7287-6.856-2.186s-2.397-3.6292-2.397-6.5158v-7.6508h-3.323v-5.9693h3.323v-5.9273h7.991v5.9273h5.215v5.9693h-5.215v7.5667c0 .8128.217 1.4503.652 1.9127.434.4625 1.016.6937 1.745.6937.926 0 1.739-.2383 2.44-.7147z"/></g></g></svg>