<svg viewBox="0 0 213 81" xmlns="http://www.w3.org/2000/svg" fill-rule="evenodd" clip-rule="evenodd" stroke-linejoin="round" stroke-miterlimit="2"><path d="M117.095.498c3.731-1.314 7.798-.439 9.71 7.689 3.177 13.483-7.478 28.92-12.093 34.81l-.146.183.067-.064c1.915-1.858 5.07-3.84 8.696-1.833l.26.15c11.126 6.97 5.445 20.902 3.192 25.438l-.157.311c-.196.39-.404.775-.622 1.153 3.932-1.252 10.991-5.989 10.991-5.989s.144-2.042.225-2.51c1.97-11.288 7.875-16.65 10.775-18.85l.244-.182c.513-.38.911-.651 1.15-.83 1.594-1.198 15.67-6.586 16.294 7.982.544 12.674-13.183 18.177-16.762 19.394l-.23.077c-.392.13-.613.191-.613.191s1.611 4.203 8.312 3.128c6.701-1.07 14.387-7.596 14.387-7.596.111-2.487.855-6.408 1.745-10.29l.2-.862c1.21-5.158 2.616-10.053 3.06-11.191.805-2.055 5.72-2.145 6.258-.985.307.997.366 3.438.334 5.902l-.01.615a158.98 158.98 0 0 1-.237 5.997l.536-.18c1.97-5.807 6.078-10.364 6.078-10.364.16-.154 3.372-3.199 5.988-2.437 2.68.786 1.7 10.123 1.7 10.123s-.038.274-.082.734l-.027.298c-.22 2.601-.423 9.249 3.235 9.609 4.558.445 9.742-3.571 9.742-3.571s3.216-1.334 3.575 2.245c.36 3.573-1.788 4.796-1.788 4.796-.248.185-8.944 6.588-15.638 4.648-6.793-1.966-7.15-14.226-7.15-14.226h-.628l-6.88 18.89-.02.069-.038.117c-.413 1.314-3.053 9.135-6.823 7.579-3.79-1.566-4.01-5.79-4.022-6.444v-.085s-.09.104-.27.286l-.132.132c-1.573 1.553-7.74 6.861-17.83 6.098-10.32-.781-13.657-9.242-13.657-9.242s-6.898 5.12-26.297 8.94c-8.678.944-14.83-4.356-14.83-4.356-.806.807-5.99 3.283-5.99 3.283l-.044.019c-.62.253-7.502 2.92-10.233-2.027-2.86-5.18-.983-21.99-.983-21.99h-.537s-4.29 9.211-6.525 17.076c-2.13 7.502-4.75 7.845-4.988 7.86h-.017s-.12.011-.33.014h-.17c-1.313-.017-4.816-.394-5.754-3.858-1.162-4.29 1.878-20.202 1.878-20.202l-.449.074-.008-.004c-.02.002-.04.01-.074.042l-.028.027c-.197.202-.73.967-2.142 3.775l-.23.46c-.475.956-1.04 2.123-1.715 3.549-5.9 14.312-7.853 16.549-10.857 16.4l-.206-.015a11.186 11.186 0 0 1-1.093-.156c-3.845-.708-4.022-5.636-4.022-5.636l-5.27 2.773s-12.87 5.204-19.57.112c-4.465-3.392-5.992-7.07-6.519-10.875h-.174c-.99-.003-5.912-.083-9.195-1.365-3.666-1.432.028-5.399.028-5.399s1.126-1.785 3.27 0c2.147 1.785 6.15.98 6.15.98.357-2.817.951-6.535 2.698-10.46 3.665-8.225 9.277-11.003 13.835-11.093 4.556-.089 7.776 1.147 10.546 5.08 6.166 15.284-16.444 23.02-16.444 23.02s-.626 4.001 5.54 3.913c6.167-.087 15.55-6.793 15.55-6.793.194-2.194.967-6.412 1.863-10.695l.194-.918c1.14-5.354 2.42-10.591 2.948-11.89.983-2.414 4.738-1.967 4.738-1.967h.005l.04-.008c.374-.063 2.943-.39 3.44 2.509.238 1.396-.163 4.695-.68 7.921l-.109.666a191.038 191.038 0 0 1-1.348 7.197l-.007.035.445.54c.123-.574 1.556-3.169 3.074-5.814l.34-.588c1.692-2.936 3.38-5.755 3.38-5.755s3.752-6.524 9.473-6.257c4.241.198 2.044 9.885.626 14.878l-.127.44a60.783 60.783 0 0 1-.767 2.47l.446.535.448-.805c.3-.823 1.955-3.55 3.783-6.444l.394-.623.396-.623a609.485 609.485 0 0 1 4.631-7.146c1.56-2.371 3.218-3.754 6.167-2.861 2.948.894 3.128 2.234 3.308 4.739.074 1.045-.32 4.244-.803 7.614l-.105.724a471.63 471.63 0 0 1-1.376 8.76l-.034.197-.006.04s-1.43 9.741 1.786 9.563c3.218-.175 6.703-3.573 6.703-3.573s1.602-12.24 3.112-25.236l.113-.975.28-2.445.056-.49.11-.975.11-.974.106-.97.107-.966c.07-.642.14-1.28.207-1.912 1.7-15.82 9.027-26.455 9.027-26.455s2.142-3.307 7.806-5.544zm.684 49.78s-7.776-4.286-11.082 6.705c-3.216 10.692-2.205 14.704-2.147 14.916.002.01 10.19 4.48 14.391-6.516 4.2-10.99-1.162-15.104-1.162-15.104v-.001zm-87.495-2.677c-2.414-2.325-9.384 2.322-9.653 12.958 0 0 2.057.625 6.614-2.503 4.558-3.128 5.453-8.133 3.04-10.455zm126.016-.27s-2.863-3.665-6.526 3.039c-3.664 6.703-2.682 10.189-2.682 10.189s.056.004.16.005h.12c1.12-.01 5.398-.352 8.48-4.74 3.574-5.096.448-8.493.448-8.493zm-41.734-4.15l-.067.067c-1.149 1.145-1.814 2.205-1.814 2.205s.725-.808 1.854-2.237l.027-.036v.001zm4.644-32.311c-.865-4.587-3.3-1.187-5.234 2.585l-.2.398a70.683 70.683 0 0 0-2.425 5.485l-.007.02-.033.111c-.228.793-1.629 5.67-2.95 10.898l-.183.731c-.122.489-.243.98-.36 1.468l-.177.731c-.928 3.892-1.683 7.594-1.75 9.566 0 0 14.835-23.952 13.32-31.993z" fill="rgb(254,254,254)"/></svg>