<?xml version="1.0" encoding="UTF-8" standalone="no"?><!DOCTYPE svg PUBLIC "-//W3C//DTD SVG 1.1//EN" "http://www.w3.org/Graphics/SVG/1.1/DTD/svg11.dtd"><svg width="100%" height="100%" viewBox="0 0 1701 993" version="1.1" xmlns="http://www.w3.org/2000/svg" xmlns:xlink="http://www.w3.org/1999/xlink" xml:space="preserve" xmlns:serif="http://www.serif.com/" style="fill-rule:evenodd;clip-rule:evenodd;stroke-linejoin:round;stroke-miterlimit:1.41421;"><rect x="-7.369" y="-11.963" width="1718.12" height="1016.61" style="fill:#38c892;"/><path id="logo" d="M212.598,546.944l0,-103.28c0,-23.184 19.322,-41.63 42.88,-41.63l59.289,0c41.554,0 75.166,33.462 75.166,74.826c0,25.823 -12.175,48.482 -32.291,62.445c-3.342,2.319 -1.337,6.935 2.923,4.939c8.732,-3.951 15.409,-8.978 22.488,-19.693c11.91,16.86 9.794,38.991 -5.295,54.011c-15.085,15.019 -43.669,17.917 -57.964,-1.316l-22.763,-26.876c-1.322,22.13 -19.321,39.257 -42.348,39.257c-22.763,0 -42.085,-19.233 -42.085,-42.683Zm81.58,-80.67l0,25.073c1.852,1.107 3.705,1.107 6.669,1.107c7.778,0 13.332,-5.902 13.332,-13.643c0,-7.742 -5.554,-14.378 -13.332,-14.378c-2.964,0 -4.817,0.734 -6.669,1.841Zm103.696,34.827l0,-56.646c0,-23.188 19.058,-42.421 42.616,-42.421c23.29,0 41.817,19.233 41.817,42.421l0,51.638c0,3.164 2.384,6.59 5.825,6.59c3.175,0 5.822,-3.426 5.822,-6.59l0,-51.638c0,-23.188 19.058,-42.421 42.615,-42.421c22.496,0 41.818,19.233 41.818,42.421l0,56.646c0,49.006 -41.027,89.845 -90.255,89.845c-49.495,0 -90.258,-40.839 -90.258,-89.845Zm307.71,11.468c15.662,-1 28.065,-9.479 38.161,-17.697c7.632,8.309 11.976,13.975 11.976,36.265c0,27.663 -30.701,57.699 -58.755,57.699l-69.879,0c-22.495,0 -41.553,-19.758 -41.553,-42.417l0,-103.017c0,-23.45 18.527,-41.63 41.553,-41.63l66.437,0c28.585,0 53.201,23.188 53.201,53.22c0,25.032 -18.264,46.109 -41.821,51.641c-4.08,0.571 -3.954,6.309 0.68,5.936Zm157.069,-98.941c16.147,-16.598 42.352,-16.598 58.231,0c15.88,16.073 15.88,42.683 0,59.281l-36.259,36.888l0,36.884c0,23.184 -19.057,41.893 -42.352,41.893c-23.026,0 -42.084,-18.709 -42.084,-41.893l0,-36.884l-36.259,-36.888c-15.88,-16.598 -15.88,-43.208 0,-59.281c15.879,-16.598 41.553,-16.598 57.433,0l20.91,21.077l20.38,-21.077Zm120.52,174.946c-23.818,0 -42.876,-18.18 -42.876,-41.102l0,-104.07c0,-22.922 18.26,-42.155 42.085,-42.155l40.759,0c51.612,0 92.638,42.155 92.638,93.53c0,51.904 -42.348,93.797 -94.491,93.797l-38.115,0Zm56.283,-93.378c0,-7.682 -5.875,-14.267 -14.329,-14.267l-7.716,0l0,27.435l7.716,0c8.454,0 14.329,-5.852 14.329,-13.168Zm146.465,80.202c-16.407,16.335 -43.143,16.335 -59.549,0c-16.147,-16.069 -16.147,-41.888 0,-58.224l100.575,-101.435c12.969,-15.02 35.469,-18.971 52.67,-8.697c12.969,6.586 21.178,20.287 21.178,36.097l0,104.071c0,22.921 -20.647,41.364 -41.821,41.364c-20.219,0 -34.238,-11.435 -39.697,-27.272l17.579,-26.994c3.175,-3.825 -1.673,-7.316 -5.145,-3.434l-45.79,44.524Zm232.128,-161.77c16.147,-16.598 42.348,-16.598 58.227,0c15.884,16.073 15.884,42.683 0,59.281l-36.259,36.888l0,36.884c0,23.184 -19.057,41.893 -42.348,41.893c-23.026,0 -42.084,-18.709 -42.084,-41.893l0,-36.884l-36.263,-36.888c-15.88,-16.598 -15.88,-43.208 0,-59.281c15.883,-16.598 41.557,-16.598 57.437,0l20.91,21.077l20.38,-21.077Z" style="fill:#493397;"/></svg>