<svg width="200" height="200" viewBox="0 0 200 200" fill="none" xmlns="http://www.w3.org/2000/svg">
<g clip-path="url(#clip0_1_7)">
<path d="M-68 0H268V200H-68V0Z" fill="#4B3568"/>
<path d="M63.041 105.424C61.294 99.382 56.969 94.696 53.128 89.894C51.299 87.609 49.532 85.358 48.373 82.63C46.461 78.132 46.013 73.167 45.681 68.34C38.079 71.038 33.571 80.169 30.476 86.909C27.294 93.836 24.288 101.008 24.34 108.794C24.426 121.887 35.632 131.966 48.699 129.02C59.482 126.589 66.264 116.2 63.041 105.424V105.424ZM93.414 120.791C95.793 120.791 98.48 120.04 100.507 118.758C101.123 118.405 101.167 117.874 100.771 117.255L100.154 116.327C99.758 115.753 99.229 115.664 98.612 116.018C97.158 116.769 95.22 117.255 93.722 117.255C90.022 117.255 87.731 114.427 87.422 109.609H101.3C101.96 109.609 102.401 109.256 102.445 108.549C102.489 108.063 102.489 107.532 102.489 107.046C102.489 100.196 99.229 95.953 93.414 95.953C87.29 95.953 83.237 100.903 83.237 108.372C83.237 115.842 87.29 120.792 93.414 120.792V120.791ZM87.466 106.56C87.863 101.92 89.889 99.488 93.414 99.488C96.762 99.488 98.524 101.919 98.656 106.56H87.466ZM116.19 117.079C115.76 117.197 115.315 117.256 114.869 117.255C113.767 117.255 113.15 116.769 113.15 115.399V88.484C113.15 87.776 112.754 87.379 112.049 87.379H110.199C109.494 87.379 109.097 87.776 109.097 88.484V115.311C109.097 118.626 110.992 120.791 114.164 120.791C115.001 120.791 115.97 120.659 116.939 120.393C117.599 120.173 117.864 119.73 117.732 119.023L117.512 117.918C117.38 117.168 116.895 116.946 116.19 117.078V117.079ZM123.724 91.666H125.75C126.455 91.666 126.851 91.268 126.851 90.561V88.484C126.851 87.776 126.455 87.379 125.751 87.379H123.724C123.019 87.379 122.622 87.776 122.622 88.484V90.561C122.622 91.268 123.019 91.666 123.724 91.666V91.666ZM123.812 120.084H125.662C126.367 120.084 126.763 119.686 126.763 118.979V97.765C126.763 97.058 126.367 96.66 125.662 96.66H123.812C123.107 96.66 122.71 97.058 122.71 97.765V118.979C122.71 119.686 123.107 120.084 123.812 120.084V120.084ZM131.962 120.084H133.768C134.341 120.084 134.825 119.864 135.134 119.377L140.553 110.803L145.971 119.377C146.28 119.863 146.764 120.084 147.337 120.084H149.275C150.157 120.084 150.465 119.51 149.98 118.758L143.108 108.063L149.275 97.986C149.716 97.234 149.408 96.66 148.526 96.66H146.676C146.103 96.66 145.663 96.88 145.355 97.411L140.685 105.367L136.147 97.411C135.839 96.881 135.398 96.66 134.825 96.66H132.843C131.962 96.66 131.653 97.234 132.094 97.986L138.306 108.196L131.257 118.758C130.772 119.51 131.081 120.084 131.962 120.084V120.084ZM155.487 91.666H157.514C158.219 91.666 158.615 91.268 158.615 90.561V88.484C158.615 87.776 158.219 87.379 157.514 87.379H155.487C154.782 87.379 154.386 87.776 154.386 88.484V90.561C154.386 91.268 154.782 91.666 155.487 91.666ZM155.575 120.084H157.425C158.13 120.084 158.527 119.686 158.527 118.979V97.765C158.527 97.058 158.13 96.66 157.426 96.66H155.576C154.87 96.66 154.474 97.058 154.474 97.765V118.979C154.474 119.686 154.87 120.084 155.575 120.084V120.084ZM177.867 96.085C177.476 95.9974 177.077 95.9532 176.677 95.953C174.255 95.953 171.655 97.765 170.51 100.77V97.765C170.51 97.058 170.113 96.66 169.409 96.66H167.646C166.941 96.66 166.545 97.058 166.545 97.765V118.979C166.545 119.686 166.941 120.084 167.646 120.084H169.496C170.202 120.084 170.598 119.686 170.598 118.979V106.206C171.479 102.45 173.682 100.063 176.148 100.063C176.458 100.063 176.81 100.107 177.118 100.151C177.735 100.24 178.131 100.063 178.264 99.311L178.616 97.367C178.748 96.704 178.528 96.174 177.867 96.085Z" fill="white"/>
</g>
<defs>
<clipPath id="clip0_1_7">
<rect width="200" height="200" fill="white"/>
</clipPath>
</defs>
</svg>
