<svg width="200" height="200" viewBox="0 0 200 200" fill="none" xmlns="http://www.w3.org/2000/svg">
<g clip-path="url(#clip0_1_3)">
<path d="M-68 0H268V200H-68V0Z" fill="#E15D44"/>
<path d="M171.486 106.156C171.486 106.156 167.886 108.939 164.717 108.628C161.547 108.318 162.543 101.263 162.543 101.263C162.543 101.263 163.227 94.793 161.36 94.249C159.498 93.71 157.2 95.935 157.2 95.935C157.2 95.935 154.343 99.093 152.976 103.118L152.6 103.241C152.6 103.241 153.036 96.182 152.54 94.574C152.169 93.77 148.752 93.834 148.193 95.254C147.633 96.68 144.9 106.581 144.712 110.73C144.712 110.73 139.369 115.248 134.713 115.989C130.053 116.733 128.935 113.823 128.935 113.823C128.935 113.823 141.607 110.296 141.171 100.207C140.74 90.119 130.953 93.852 129.847 94.679C128.774 95.483 123.055 98.919 121.386 108.436C121.331 108.756 121.23 110.172 121.23 110.172C121.23 110.172 116.322 113.448 113.589 114.316C113.589 114.316 121.229 101.505 111.915 95.689C109.295 94.118 107.012 95.563 105.653 96.89C104.819 97.705 116.946 84.49 114.148 72.666C112.818 67.036 109.993 66.434 107.402 67.347C103.467 68.892 101.976 71.181 101.976 71.181C101.976 71.181 96.881 78.546 95.698 89.502C94.519 100.454 92.781 113.699 92.781 113.699C92.781 113.699 90.355 116.052 88.121 116.176C85.883 116.295 86.878 109.551 86.878 109.551C86.878 109.551 88.616 99.28 88.498 97.544C88.368 95.812 88.245 94.884 86.195 94.268C84.145 93.646 81.907 96.246 81.907 96.246C81.907 96.246 76.009 105.156 75.513 106.517L75.197 107.079L74.89 106.704C74.89 106.704 79.05 94.574 75.078 94.391C71.101 94.204 68.492 98.722 68.492 98.722C68.492 98.722 63.956 106.275 63.768 107.138L63.46 106.768C63.46 106.768 65.323 97.982 64.951 95.812C64.575 93.646 62.529 94.08 62.529 94.08C62.529 94.08 59.919 93.77 59.236 95.442C58.553 97.114 56.067 108.189 55.756 111.717C55.756 111.717 49.234 116.359 44.946 116.418C40.662 116.482 41.098 113.713 41.098 113.713C41.098 113.713 56.815 108.353 52.527 97.773C50.6 95.049 48.367 94.195 45.197 94.254C42.029 94.318 38.098 96.241 35.553 101.934C34.333 104.648 33.893 107.23 33.64 109.176C33.64 109.176 30.893 109.738 29.403 108.5C27.907 107.262 27.141 108.5 27.141 108.5C27.141 108.5 24.582 111.753 27.128 112.74C29.678 113.731 33.649 114.193 33.649 114.193C34.016 115.925 35.076 118.872 38.181 121.215C42.841 124.743 51.779 120.891 51.779 120.891L55.444 118.844C55.444 118.844 55.567 122.194 58.241 122.682C60.911 123.171 62.03 122.672 66.689 111.41C69.423 105.654 69.611 105.964 69.611 105.964C69.918 105.9 67.808 116.916 68.616 119.886C69.423 122.86 72.963 122.55 72.963 122.55C72.963 122.55 74.89 122.92 76.444 117.473C77.994 112.027 80.98 106.023 80.98 106.023C81.347 106.023 80.045 117.286 82.03 120.877C84.02 124.469 89.176 122.084 89.176 122.084C89.176 122.084 92.781 120.274 93.34 119.717C93.34 119.717 97.615 123.345 103.646 122.687C117.129 120.041 121.926 116.468 121.926 116.468C121.926 116.468 124.243 122.317 131.42 122.86C139.616 123.477 144.092 118.342 144.092 118.342C144.092 118.342 144.028 121.682 146.885 122.86C149.747 124.034 151.669 117.423 151.669 117.423L156.453 104.292C156.888 104.292 157.136 112.832 161.86 114.192C166.58 115.554 172.73 111.004 172.73 111.004C172.73 111.004 174.22 110.186 173.972 107.71C173.72 105.233 171.486 106.156 171.486 106.156V106.156ZM47.06 99.961C48.734 101.569 48.115 105.032 44.946 107.198C41.781 109.368 40.35 108.934 40.35 108.934C40.538 101.569 45.386 98.348 47.06 99.961V99.961ZM108.87 74.525C109.924 80.095 99.614 96.68 99.614 96.68C99.738 92.966 103.403 80.405 103.403 80.405C103.403 80.405 107.81 68.955 108.87 74.525ZM98.679 116.793C98.679 116.793 97.872 114.07 100.169 106.458C102.472 98.846 107.874 101.816 107.874 101.816C107.874 101.816 111.603 104.662 108.682 112.274C105.765 119.886 98.679 116.793 98.679 116.793V116.793ZM130.113 101.88C132.659 97.238 134.649 99.773 134.649 99.773C134.649 99.773 136.823 102.126 134.337 105.653C131.852 109.181 128.251 108.934 128.251 108.934C128.251 108.934 127.568 106.517 130.113 101.88V101.88Z" fill="white"/>
</g>
<defs>
<clipPath id="clip0_1_3">
<rect width="200" height="200" fill="white"/>
</clipPath>
</defs>
</svg>
