<svg width="200" height="200" viewBox="0 0 200 200" fill="none" xmlns="http://www.w3.org/2000/svg">
<g clip-path="url(#clip0_1_7)">
<path d="M-123 -33H324V233H-123V-33Z" fill="#08152D"/>
<path d="M160.614 95.5844C160.888 97.3879 160.986 99.2552 161.696 100.958V101.988C159.363 102.116 157.077 102.667 154.765 102.975C154.552 104.225 154.668 105.514 154.36 106.75C153.983 109.158 153.495 111.548 153.089 113.95C152.27 117.125 151.582 120.341 150.564 123.464C148.861 129.32 146.461 134.962 143.549 140.326C140.021 146.783 135.603 152.802 130.207 157.842C125.487 162.291 119.944 165.917 113.853 168.206C112.137 168.734 110.459 169.423 108.678 169.704C108.079 169.969 107.494 170.253 106.882 170.49H96.4703C95.3302 170.15 94.1422 170.038 92.9861 169.769C90.9826 169.475 89.1161 168.668 87.1964 168.065C82.7105 166.221 78.4839 163.703 74.8267 160.52C72.5497 158.678 70.4615 156.614 68.5927 154.358C66.0398 151.549 63.9032 148.401 61.8278 145.235C59.2182 141.05 56.9531 136.659 55.055 132.108C53.4053 128.141 52.0909 124.049 50.9269 119.918C50.1952 116.75 49.2134 113.63 48.7996 110.398C48.4032 107.943 47.7926 105.494 47.75 103.004C45.3713 102.709 43.0272 102.147 40.6339 101.988V100.717C41.2858 98.7086 41.4175 96.5912 41.7461 94.5177C42.3394 91.1382 42.9115 87.752 43.3186 84.3432C43.7908 81.5954 44.2259 78.8463 44.6809 76.0932C44.7873 74.9175 44.9722 73.7498 45.2702 72.606C47.142 72.59 48.9686 73.11 50.8404 73.1646C51.8209 73.533 52.9038 73.2231 53.8683 73.6474C54.769 73.9892 55.7627 73.6421 56.6754 73.9307C57.6133 74.2406 58.6509 73.8429 59.5569 74.2858C60.1383 74.4813 60.9511 74.7473 61.4061 74.1847C61.4779 73.2989 60.4682 72.985 59.9627 72.4371C59.9085 71.7172 59.9192 70.9938 59.9946 70.2758C60.1236 69.793 60.3099 69.3156 60.2633 68.8075C60.1968 67.9523 60.5241 67.1344 60.9272 66.3962C61.2757 66.0677 61.6762 65.8017 62.0527 65.5051C63.1396 66.5079 63.0371 68.0946 63.5041 69.3861C64.0203 70.0564 64.861 70.3729 65.4371 70.986C65.9825 71.4063 66.1289 72.1019 66.2619 72.7403C66.4282 73.6061 66.7794 74.4214 67.0894 75.2434C67.9275 75.2354 68.7922 75.1077 69.5998 75.399C71.1031 75.8858 72.6995 75.4469 74.2241 75.786C75.5771 76.0427 76.958 75.8153 78.3189 75.915C79.5482 76.4124 80.8879 76.0919 82.1663 76.2768C82.9153 76.3765 83.6563 76.1651 84.3973 76.068C83.3043 75.8734 82.2343 75.5663 81.2045 75.1516C78.9988 74.0105 76.4418 73.8535 74.2201 72.7536C73.4884 72.2748 73.241 71.3651 72.7421 70.6868C72.048 69.2546 71.2526 67.8736 70.3621 66.5545C69.2868 65.1404 68.2313 63.7114 67.1958 62.2679C68.606 60.1465 70.1705 58.1276 71.6552 56.0568C72.1607 55.0925 72.7993 54.1881 73.7705 53.6442C73.9993 53.9607 74.1509 54.3504 73.9328 54.7188C73.5909 55.6605 73.4831 56.6699 73.0747 57.5876C74.2826 58.9575 75.9576 59.8154 77.1096 61.2358C77.2108 61.8862 77.0232 62.5578 77.0764 63.2175C77.1336 64.3254 76.664 65.3748 76.6906 66.4827C76.6853 67.032 76.6533 67.5826 76.5921 68.1292C78.1314 69.152 79.652 70.2146 81.2697 71.1137C82.1078 71.6417 83.0457 72.1019 83.6244 72.9372C84.4891 74.1461 85.427 75.3085 86.1521 76.608C89.8279 76.6558 93.5023 76.6213 97.1781 76.6173C103.586 76.5814 110 76.6838 116.408 76.5986C118.844 75.6809 121.546 76.6957 124.007 75.915C125.44 75.806 126.897 76.0666 128.315 75.7554C129.756 75.3844 131.276 75.9177 132.7 75.4083C133.913 74.9534 135.266 75.508 136.465 74.996C137.267 74.6728 138.146 74.8404 138.987 74.7659C137.677 72.9638 136.537 71.0459 135.21 69.2557C134.649 68.6093 135.019 67.7009 134.767 66.9468C134.413 65.811 134.837 64.5887 134.447 63.4622C134.274 62.9808 134.347 62.4647 134.366 61.9673C136.785 63.1829 138.136 65.7086 140.415 67.1131C142.138 68.3433 143.192 70.5511 145.398 71.0366C147.096 71.7614 148.795 72.4996 150.5 73.2098C150.803 73.3508 151.139 73.3867 151.465 73.3335C153.257 73.1167 155.055 72.9584 156.837 72.6685C157.032 73.3694 157.21 74.0783 157.321 74.8005C157.741 78.3782 158.456 81.9093 159.016 85.4644C159.464 88.8519 160.097 92.2075 160.612 95.5844H160.614ZM152.877 106.702C153.275 105.563 152.931 104.32 153.383 103.191C152.232 103.368 151.043 103.257 149.919 103.6C149.187 103.775 148.4 103.6 147.69 103.898C146.669 104.321 145.533 103.935 144.482 104.24C143.383 104.546 142.201 104.174 141.129 104.61C140.078 105.019 138.917 104.567 137.852 104.906C136.499 105.406 134.997 104.821 133.647 105.34C132.176 105.905 130.438 105.069 129.033 105.836C127.219 106.341 125.217 105.646 123.394 106.251C121.222 106.291 119.05 106.238 116.881 106.284C116.38 106.274 115.987 106.703 115.486 106.691C105.865 106.661 96.2442 106.687 86.623 106.678C86.2971 106.566 85.9911 106.412 85.6692 106.3C83.4249 106.22 81.1806 106.295 78.9376 106.251C77.115 105.645 75.1088 106.345 73.2942 105.831C71.8853 105.081 70.1572 105.9 68.6845 105.341C67.3302 104.823 65.8309 105.405 64.4779 104.908C63.4136 104.567 62.2509 105.022 61.1999 104.608C60.129 104.174 58.9463 104.545 57.8487 104.24C56.7991 103.937 55.6616 104.322 54.6399 103.9C53.867 103.575 52.9996 103.81 52.2107 103.551C51.2408 103.227 50.2112 103.409 49.2107 103.437C49.1747 104.348 49.2971 105.259 49.5726 106.129C49.6298 107.495 49.9504 108.826 50.2896 110.147C50.9056 114.299 51.9473 118.379 53.0994 122.417C53.6634 123.727 53.8124 125.197 54.5601 126.424C54.9366 127.672 55.4514 128.874 55.8905 130.103C57.0612 132.747 58.0855 135.46 59.4691 138.009C59.976 138.844 60.2407 139.81 60.8527 140.582C61.438 141.308 61.6536 142.249 62.2096 142.99C62.9626 143.914 63.3498 145.07 64.12 145.986C64.6961 146.674 65.0273 147.533 65.6393 148.194C66.3005 148.889 66.677 149.793 67.2796 150.537C67.5949 150.923 68.0127 151.224 68.2774 151.652C68.8388 152.684 69.9004 153.324 70.547 154.295C71.0871 155.203 71.9372 155.861 72.6569 156.614C73.4285 157.336 74.0911 158.205 75.0263 158.729C75.6835 159.14 76.1265 159.81 76.7984 160.204C77.5487 160.607 78.0076 161.369 78.7486 161.784C80.3797 162.803 81.8936 164.037 83.6949 164.76C84.7299 165.187 85.6306 165.888 86.7108 166.215C87.7458 166.504 88.6518 167.106 89.6855 167.395C91.0611 167.956 92.575 167.996 93.9586 168.516C94.677 168.512 95.3901 168.536 96.0207 168.927C98.8277 168.995 101.64 168.945 104.455 168.954C105.046 169.007 105.509 168.506 106.097 168.544C107.083 168.651 107.946 168.081 108.913 167.999C110.929 167.706 112.73 166.701 114.684 166.186C117.843 164.697 120.958 163.085 123.788 161.032C124.646 160.229 125.653 159.604 126.607 158.92C127.312 158.291 127.908 157.529 128.745 157.058C129.91 156.141 130.923 155.042 131.907 153.945C132.492 152.861 133.547 152.156 134.344 151.236C135.568 149.509 136.888 147.841 138.12 146.115C138.78 145.286 139.228 144.317 139.905 143.502C141.267 141.028 142.845 138.663 143.989 136.074C144.462 135.169 145.027 134.297 145.221 133.277C146.996 129.812 148.132 126.068 149.359 122.393C149.368 122.26 149.392 121.994 149.403 121.864C149.815 121.349 149.956 120.703 150.09 120.075C150.516 118.12 151.212 116.227 151.509 114.243C151.876 112.478 152.123 110.699 152.556 108.946C152.766 108.211 152.626 107.427 152.877 106.702V106.702ZM157.817 101.105C158.569 100.712 159.437 100.95 160.246 100.855C160.2 100.323 159.918 99.8657 159.754 99.3709C159.689 98.6793 159.914 97.9212 159.524 97.2934C159.569 94.8383 158.893 92.4389 158.53 90.0316C158.517 89.3108 158.372 88.6059 158.218 87.9076C157.588 84.3073 157.172 80.6817 156.451 77.1C156.374 76.0653 156.255 75.0346 155.913 74.0477C154.208 73.9613 152.553 74.4946 150.887 74.7606C148.616 74.8005 146.419 75.536 144.142 75.54C142.936 75.8911 141.673 75.7927 140.443 75.9656C139.219 76.4124 137.888 75.9922 136.655 76.3858C135.608 76.7875 134.469 76.4829 133.39 76.7077C131.907 77.112 130.353 76.7263 128.858 77.0588C127.12 77.4778 125.322 77.1493 123.563 77.3514L123.308 77.7052C121.206 77.8914 119.078 77.6932 116.968 77.8249C115.023 78.7759 112.831 77.7358 110.786 78.1933C102.649 78.2598 94.5081 78.176 86.3663 78.2199C85.7889 78.2412 85.3259 77.7544 84.7432 77.7956C83.0981 77.7733 81.4528 77.772 79.8076 77.7917C79.2928 77.8542 78.8737 77.5084 78.3961 77.3927C76.8888 77.2583 75.3602 77.4858 73.8596 77.2756C72.3483 76.8101 70.6907 77.4645 69.2273 76.8141C68.1869 76.5321 67.1 76.7662 66.0477 76.6412C64.8996 76.0866 63.5826 76.5614 62.3972 76.2954C61.2757 75.54 59.8483 76.2781 58.6563 75.7714C57.7849 75.4761 56.7804 75.9855 55.9689 75.4868C55.2319 75.0066 54.306 75.4894 53.5397 75.1144C52.7548 74.7433 51.8236 75.1875 51.0573 74.7819C50.1992 74.2539 49.1309 74.8045 48.2635 74.2991C47.6808 74.1129 46.6511 73.7844 46.429 74.5983C45.8729 75.4362 46.4396 76.4962 45.8888 77.3275C45.5828 77.8781 45.7132 78.5378 45.8941 79.107C45.0041 79.8784 45.7718 81.102 45.1199 81.9665C44.8232 82.5437 45.1372 83.23 44.903 83.8285C44.609 84.5028 44.7966 85.241 44.7327 85.9472C44.5917 86.3741 44.2631 86.7625 44.3044 87.2347C44.2778 87.6337 44.4108 88.0726 44.174 88.4356C43.7682 89.1006 44.2312 89.9505 43.8108 90.6102C43.3146 91.3071 43.8175 92.2195 43.3558 92.935C43.0152 93.4843 43.1882 94.1054 43.292 94.6933C42.99 95.4235 42.7971 96.1736 42.8889 96.9729C42.5164 97.6313 42.5882 98.3747 42.547 99.1049C42.2476 99.6529 42.064 100.239 42.1425 100.874C42.9408 100.944 43.8055 100.705 44.5398 101.113C45.3141 101.519 46.2241 101.124 47.0249 101.432C47.8099 101.742 48.7025 101.343 49.4595 101.757C50.0073 102.008 50.6268 102.055 51.2063 101.89C51.8887 101.644 52.3943 102.391 53.0714 102.3C53.7393 102.363 54.4736 102.115 55.0922 102.455C55.9995 103.016 57.1144 102.49 58.0855 102.818C59.1525 103.241 60.3751 102.659 61.4074 103.188C62.3121 103.632 63.3524 103.286 64.2903 103.341C65.5409 103.983 66.9763 103.6 68.3186 103.7C69.6636 104.457 71.2521 103.99 72.7181 104.128C74.4476 104.63 76.2822 104.239 78.0449 104.41C79.2688 104.954 80.6271 104.776 81.9269 104.816C83.3424 104.756 84.7885 104.973 86.1734 104.619C86.5326 104.837 86.8545 105.2 87.3175 105.109C96.5502 105.115 105.78 105.118 115.012 105.109C115.474 105.202 115.796 104.837 116.157 104.619C117.698 104.987 119.302 104.755 120.872 104.815C122.013 104.801 123.2 104.889 124.273 104.416C125.547 104.285 126.849 104.482 128.133 104.345C129.635 103.826 131.272 104.353 132.8 104.041C134.254 103.124 136.212 104.337 137.582 103.27C138.338 103.461 139.126 103.417 139.901 103.401C140.484 103.401 140.95 102.909 141.542 102.961C142.44 102.943 143.373 103.106 144.246 102.82C145.221 102.499 146.331 103.01 147.239 102.451C148.131 101.994 149.24 102.615 150.113 102.072C150.91 101.531 151.87 102.312 152.702 101.813C153.509 101.345 154.458 101.733 155.307 101.432C156.118 101.133 157.03 101.512 157.817 101.105V101.105ZM103.347 40.9467C102.416 39.8241 101.305 38.8479 100.251 37.8398C100.747 36.9061 100.461 35.8554 100.628 34.8672C101.104 33.9096 100.637 32.8124 101.027 31.8322C101.28 31.1353 101.221 30.3958 101.261 29.6709C101.554 29.3956 102.014 29.5805 102.378 29.51C103.094 31.0794 104.715 31.9306 105.586 33.3869C106.118 34.2541 107.055 34.7755 107.555 35.6612C108.317 36.7439 109.51 37.4833 110.176 38.6471C110.663 39.469 111.533 39.9691 112.051 40.7631C112.753 41.9734 114.046 42.6956 114.768 43.89C115.348 44.9034 116.419 45.5006 117.074 46.4569C117.454 47.0421 117.982 47.5155 118.347 48.114C117.674 48.5782 116.999 48.1952 116.343 47.9385C115.315 48.0116 114.435 47.3333 113.399 47.4756C111.909 47.0407 110.302 47.05 108.827 46.542C108.348 46.4968 107.852 46.5127 107.414 46.2853C106.794 45.9382 106.066 46.1443 105.393 46.0459C104.914 45.7027 104.869 45.0776 104.636 44.5829C104.221 43.3646 103.714 42.1822 103.347 40.9467V40.9467ZM86.3503 44.5842C85.9299 43.9126 86.208 43.068 85.7849 42.3871C85.7689 41.6396 85.6532 40.8416 85.9831 40.1394C86.5924 40.3655 87.1751 40.7538 87.4904 41.3364C88.8088 43.1319 89.9755 45.0471 91.5028 46.683C92.0855 47.6472 92.9742 48.3681 93.5555 49.3323C95.7944 51.6055 98.0597 53.8524 100.351 56.0728C101.982 56.6433 103.62 57.1966 105.267 57.7286C105.909 58.7966 105.903 60.0601 106.231 61.2238C106.731 62.5139 107.073 63.8546 107.389 65.1979C108.453 66.492 109.991 67.2727 111.259 68.3433C112.127 69.0615 113.177 69.5403 113.986 70.3383C114.988 70.9953 116.218 71.2574 117.14 72.054C118.138 72.6565 119.29 73.001 120.213 73.7338C119.658 74.0477 118.971 74.1594 118.387 73.8495C117.682 73.4479 116.831 73.6381 116.114 73.2617C114.654 73.0608 113.214 72.6632 111.735 72.5461C111.043 72.3293 110.382 72.07 109.64 72.1232C109.061 71.8261 108.418 71.6797 107.768 71.6976C106.432 71.1895 104.947 71.3358 103.628 70.8105C103.225 70.7294 102.809 70.7852 102.408 70.7014C102.066 70.5604 101.762 70.2838 101.369 70.3277C98.8304 70.3184 96.2907 70.333 93.7551 70.3184C93.654 68.5216 93.5462 66.73 93.5821 64.9266C92.6336 64.5329 91.9777 63.7282 91.2593 63.0326C90.6926 62.4687 89.8691 62.216 89.4048 61.5404C89.2345 59.9337 88.6332 58.379 88.6332 56.7444C88.2767 56.0209 88.5095 55.179 88.1197 54.4741C87.7339 53.8091 88.1822 52.9725 87.7299 52.3275C87.4665 51.177 87.219 50.0106 87.1978 48.8296C86.8465 48.1779 87.0913 47.4025 86.7175 46.7681C86.3024 46.0978 86.7547 45.2492 86.3503 44.5842V44.5842ZM122.462 55.3585C121.961 54.9768 120.98 54.909 120.969 54.1429C120.972 51.31 120.924 48.4785 120.995 45.6482C121.372 45.6216 121.767 45.4833 122.142 45.6136C124.313 47.735 126.397 49.9494 128.606 52.0349C129.103 52.4937 129.359 53.1388 129.806 53.6389C131.678 55.5474 133.602 57.4094 135.484 59.306C135.881 60.2835 134.391 60.1199 133.836 59.9244C132.926 59.3233 131.787 59.8752 130.851 59.3672C129.652 59.3259 128.302 59.2621 127.401 58.363C125.729 57.4121 124.022 56.4877 122.462 55.3585ZM67.5843 82.5703C67.4405 83.3143 67.3198 84.0626 67.2224 84.8141C65.8389 84.9072 64.4899 84.5254 63.109 84.5507C62.6127 85.7171 62.5196 86.9793 62.6247 88.2322L63.1209 88.276C63.9125 88.4942 64.9794 87.9768 65.5688 88.6312C65.6978 89.618 65.6087 90.6142 64.9036 91.3803C63.9737 90.9414 62.9546 90.815 61.9356 90.8669C61.8238 92.024 61.4992 93.1452 61.3729 94.2983C62.791 95.1255 64.5338 94.6694 65.9626 95.5086C65.8907 96.0632 65.8216 96.6218 65.6579 97.1644C65.5701 97.3919 65.469 97.6166 65.3599 97.8374C64.8185 97.7988 64.2398 97.8893 63.7422 97.6313C61.9795 97.0501 60.0664 97.1259 58.2718 96.6737C58.3702 94.7585 58.9476 92.9137 59.0793 91.0079C59.65 88.5753 59.811 86.0762 60.3338 83.637C60.4722 82.9374 60.2806 82.1541 60.6704 81.5196C61.144 81.4053 61.6243 81.5622 62.0939 81.6141C63.556 81.7923 65.018 81.9665 66.4867 82.0423L66.6637 82.1261C66.967 82.2764 67.277 82.4214 67.5856 82.5717H67.5843V82.5703ZM143.451 94.261C143.406 95.0629 143.545 95.8643 143.856 96.6045C142.993 97.3972 141.797 97.0328 140.743 97.1352C139.972 95.9861 139.366 94.7359 138.76 93.495C137.932 92.1743 137.582 90.553 136.412 89.4518C137.006 92.1277 137.141 94.8755 137.719 97.5515C136.758 97.6618 135.806 97.8507 134.875 98.1167C134.818 97.1684 134.769 96.2188 134.565 95.2918C134.39 94.4712 134.455 93.6067 134.149 92.818C133.577 91.8497 134.267 90.6248 133.637 89.6832C133.179 88.8054 133.787 87.7095 133.243 86.8463C133.011 86.0696 133.301 85.217 133.046 84.4377C132.836 83.7274 132.915 82.988 132.946 82.2618C133.88 82.1554 134.942 82.5251 135.753 81.912C136.373 82.4706 136.353 83.3524 136.734 84.0493C137.673 85.8222 138.655 87.6137 139.18 89.5555L139.268 90.142L139.907 90.1899C139.811 89.8016 139.73 89.4159 139.603 89.0395C139.001 88.3 139.432 87.3291 139.124 86.4938C138.858 85.636 139.231 84.6824 138.778 83.8698C138.451 83.25 138.601 82.5198 138.605 81.8481C138.873 81.3906 139.412 81.5821 139.847 81.5356C140.283 81.5356 140.671 81.3029 141.088 81.1951C141.216 81.7484 141.434 82.2698 141.62 82.8071C141.683 83.5426 141.463 84.3313 141.903 84.9883C142.276 85.6041 141.85 86.3848 142.219 87.0019C142.525 87.5565 142.267 88.2255 142.474 88.8107C142.731 89.6326 142.775 90.4825 142.785 91.3311C143.268 92.2621 142.82 93.3686 143.451 94.2597V94.261ZM74.6365 83.1223C75.6556 83.1223 76.6613 83.3138 77.6751 83.391C77.711 83.4787 77.7815 83.6583 77.8214 83.7474C77.1908 84.7914 76.797 85.9685 76.0121 86.9194C75.4414 88.0699 74.8973 89.2336 74.256 90.3535C73.8223 91.0025 74.2441 91.7527 74.4556 92.4017C74.5753 93.628 75.3882 94.66 75.5052 95.8916C75.601 97.0235 76.3168 97.9983 76.4059 99.1235C75.5412 98.8349 74.6432 98.7697 73.7359 98.8017C73.0521 98.8841 72.8951 98.0635 72.8818 97.5515C72.633 96.4954 72.162 95.4793 72.0969 94.3834C71.9864 94.4699 71.876 94.5536 71.7643 94.6374C71.1297 95.8517 70.5324 97.0846 69.9736 98.3348C68.8867 98.271 67.7559 98.396 66.7142 98.0289C66.8872 97.3506 67.277 96.7574 67.6588 96.1776C68.3586 95.0644 68.8388 93.8248 69.6144 92.7595C69.9989 91.9535 70.6388 91.2087 70.6202 90.2764C70.6814 89.3214 70.1 88.4955 70.0255 87.5632C69.5652 85.9379 69.057 84.3313 68.6206 82.6954C69.626 82.6557 70.6325 82.6548 71.6379 82.6927C71.8973 83.1383 72.0822 83.6264 72.1434 84.1424C72.2818 85.217 72.7128 86.2345 72.7221 87.3264C72.9935 86.7545 73.3634 86.2225 73.4871 85.5948C73.6614 84.6837 74.3212 83.9828 74.6365 83.1249V83.1223ZM132.29 92.2554C132.963 93.3407 132.613 94.6627 132.68 95.873C132.391 96.5247 132.057 97.1658 131.702 97.7829C131.258 98.271 130.563 98.4226 130.013 98.7578C129.083 98.8615 128.139 98.8163 127.207 98.7963C126.036 98.3707 125.033 97.5022 124.562 96.3332C124.513 95.4461 124.673 94.5284 124.232 93.7131C124.228 92.3232 124.236 90.9134 123.86 89.5622C123.817 88.2352 123.813 86.9073 123.846 85.5801C124.158 84.6451 124.84 83.8644 125.669 83.3431C126.177 82.9667 126.85 83.1356 127.441 83.0904C128.308 83.1476 129.321 82.8882 130.049 83.4894C130.783 84.181 131.593 84.9657 131.678 86.0297C131.978 87.0125 132.015 88.0247 131.982 89.0435C132.467 90.0516 132.178 91.1821 132.29 92.2554ZM129.657 95.1867C129.604 94.3701 129.812 93.4896 129.431 92.7262C128.91 91.6822 129.568 90.42 129.006 89.3932C128.528 88.4942 128.955 87.4408 128.704 86.4859C128.447 86.144 128.214 85.5562 127.682 85.6852C127.199 85.652 126.95 86.1467 126.6 86.3941C126.62 87.0059 126.477 87.6549 126.672 88.2401C127.425 89.4158 126.771 90.8642 127.154 92.1357C127.49 93.1132 127.154 94.1639 127.36 95.1628C127.559 95.756 128.202 95.9289 128.666 96.2693C129.012 95.9235 129.406 95.6123 129.657 95.1867V95.1867ZM82.8807 83.6556C84.5902 83.7833 86.0337 84.9949 86.7122 86.5311C86.7388 87.8611 86.7295 89.1911 86.7148 90.5211C86.4488 91.1887 86.1055 91.8192 85.737 92.4363C85.3512 93.0148 84.6568 93.2316 84.0914 93.5854C83.3823 94.1387 82.4377 93.8514 81.6129 93.894C81.428 94.3395 81.2045 94.7691 81.0648 95.2333C81.0143 96.5965 81.1287 97.9704 81.0209 99.3323C80.9092 99.4387 80.6803 99.6435 80.5686 99.7499C79.7784 99.3376 78.9309 99.1089 78.0329 99.2126C78.0329 97.9438 77.8733 96.6431 78.1819 95.3969C78.4679 94.0615 77.9079 92.5879 78.5451 91.3337C78.6462 90.2937 78.4573 89.2323 78.6249 88.2029C79.3353 86.8888 78.8631 85.3567 79.0121 83.9349L79.338 83.6663C80.5194 83.637 81.698 83.6663 82.8807 83.6556ZM84.1047 88.3904C84.3135 87.619 83.5619 87.1642 83.1175 86.6681C82.6878 86.676 82.2541 86.6734 81.8244 86.6707C81.3854 88.01 81.7819 89.4504 81.5065 90.8217C82.2329 90.8403 82.9739 90.8576 83.6523 90.5543C83.5991 89.7936 83.8625 89.094 84.1047 88.3904ZM122.831 94.1054C123.002 95.3024 122.845 96.5194 122.917 97.7244C123.071 98.2151 123.321 98.6766 123.369 99.198C122.794 99.2512 122.165 99.1155 121.67 99.4839C121.248 99.8031 120.72 99.6515 120.281 99.4667C120.292 98.7711 120.394 98.0382 119.951 97.4424C119.58 95.7719 120.252 93.9219 119.552 92.3059C119.462 90.7724 119.698 89.219 119.344 87.7081C119.237 86.4101 119.318 85.104 119.291 83.8032C120.036 83.5745 120.828 83.6556 121.598 83.6663C122.013 83.919 121.864 84.4111 121.931 84.8141C122.72 86.2491 122.191 87.9369 122.358 89.4956C123.067 90.9281 122.336 92.6105 122.831 94.1054ZM95.1919 84.572C95.591 85.2064 95.3156 86.0377 95.3582 86.7532L95.0695 87.079C93.7045 87.1509 92.3343 87.0657 90.968 87.1163C90.9826 88.292 91.0052 89.4691 90.9414 90.6448C91.9684 90.9454 93.0513 90.7671 94.105 90.7884C93.9732 91.7221 93.811 92.6504 93.7684 93.592C92.7347 93.6133 91.701 93.5947 90.6687 93.616C90.7139 94.801 90.7139 95.9874 90.666 97.1711C92.1001 97.2203 93.5356 97.1272 94.967 97.2376C95.0123 98.2417 95.0256 99.2459 94.9644 100.249C92.5644 99.7739 90.1072 100.06 87.678 99.9694C87.2762 98.259 87.5676 96.4968 87.6514 94.7691C87.7272 94.4925 87.9534 94.2584 87.9441 93.9578C87.9574 91.7966 87.9268 89.6326 87.9534 87.4701C88.6053 86.4486 88.2753 85.233 88.3858 84.0945C89.6137 84.1504 90.9081 83.8777 92.0762 84.3579C93.1085 84.4855 94.2127 84.1437 95.1919 84.5707V84.572ZM117.843 84.1025C118.145 84.8925 117.909 85.8182 117.969 86.6628C117.127 86.8277 116.059 86.3701 115.385 86.9647C115.372 87.5977 115.372 88.2321 115.392 88.8666C115.512 89.3347 115.844 89.7523 115.804 90.2577C115.804 91.8883 115.812 93.5189 115.8 95.1508C115.711 95.748 116.309 96.1789 116.25 96.7787C116.216 97.8401 116.375 98.928 116.08 99.9667C115.13 99.9734 114.183 99.984 113.237 99.9694L113.234 99.7579C113.136 97.6738 113.462 95.5418 112.896 93.5029C112.677 91.3789 112.879 89.2376 112.773 87.1056C112.028 87.0857 111.283 87.1309 110.538 87.0844C110.015 86.7958 110.337 86.1627 110.104 85.7224C109.954 85.3926 109.848 85.0348 109.957 84.6771C110.339 84.4017 110.71 83.9974 111.228 84.0852C113.431 84.0985 115.639 84.0453 117.84 84.1025H117.843ZM108.613 84.5481C108.896 85.8741 108.636 87.2373 108.767 88.574C108.852 88.9783 109.033 89.3653 108.997 89.7896C108.992 93.0587 109.006 96.3279 108.997 99.5983C108.412 100.388 107.145 100.18 106.251 100.189C106.25 99.4813 106.322 98.7485 105.968 98.1087C105.809 94.9606 106.081 91.7833 105.791 88.6365C105.851 87.2785 105.66 85.8967 105.921 84.5534C106.8 84.2997 107.733 84.2979 108.613 84.5481V84.5481ZM101.874 84.6012C102.917 85.2395 103.77 86.1463 104.342 87.2267C104.377 90.8044 104.382 94.3874 104.343 97.9678C103.598 98.4944 103.028 99.2047 102.374 99.8298C101.727 100.176 100.951 100.227 100.227 100.221C98.9235 100.207 97.6224 100.229 96.3227 100.202C96.2947 96.655 96.3094 93.1093 96.3227 89.5661C96.7018 87.909 96.4836 86.2052 96.5621 84.5201C98.3275 84.5733 100.118 84.4177 101.874 84.6026V84.6012ZM101.554 96.1164C101.56 93.616 101.556 91.1156 101.554 88.6152C101.604 88.1936 101.305 87.881 101.101 87.5499C100.514 87.5368 99.9271 87.5337 99.3399 87.5406C99.3758 90.7552 99.3758 93.9711 99.3399 97.1857C99.9253 97.191 100.516 97.1897 101.101 97.1791C101.294 96.8439 101.587 96.5274 101.554 96.1151V96.1164ZM151.229 85.2716C151.962 85.8435 152.477 86.6282 152.826 87.478C152.879 88.2481 152.883 89.0248 152.82 89.7962C152.434 90.6188 151.897 91.3614 151.236 91.9854C149.9 92.4256 148.365 92.4828 147.041 91.9907C146.365 91.4567 145.804 90.7917 145.392 90.0356C145.327 89.1013 145.327 88.1638 145.389 87.2293C145.924 86.043 146.955 85.1093 148.24 84.822C149.259 84.5574 150.282 84.8992 151.229 85.2716ZM148.84 90.4094C149.697 90.146 150.394 89.497 150.631 88.6272C150.468 88.0539 150.045 87.6057 149.719 87.1216C149.227 87.1043 148.639 86.962 148.296 87.4248C147.953 87.8371 147.234 88.1643 147.299 88.7681C147.768 89.356 148.377 89.8149 148.84 90.408V90.4094ZM52.208 84.8952C53.6794 84.3499 55.1814 85.1851 56.2669 86.1361C57.294 87.1602 56.9454 88.6711 56.9454 89.9665C56.4891 91.1103 55.4381 91.9681 54.2501 92.2674C53.3854 92.3711 52.5073 92.3352 51.6546 92.161C50.9202 92.0785 50.5557 91.3763 50.1247 90.8669C48.5642 88.8892 49.6364 85.3647 52.208 84.8952V84.8952ZM53.5437 90.1673C54.165 89.8321 54.5747 89.2323 54.91 88.6338C54.6093 88.0765 54.2461 87.5485 53.7433 87.1535C52.7894 86.8184 51.769 87.5671 51.5269 88.4755C51.5056 89.4664 52.5765 90.3003 53.5437 90.1673V90.1673ZM73.096 112.329C72.1501 112.426 71.2494 112.039 70.3062 112.06C70.1785 112.889 70.4898 113.805 70.0082 114.552C69.5825 115.287 70.0933 116.223 69.6703 116.972C69.2858 117.672 69.4574 118.488 69.3803 119.25C68.8481 119.197 68.143 119.475 67.8051 118.931C67.7812 118.143 67.6322 117.291 68.0233 116.569C68.4956 115.827 67.9648 114.889 68.3905 114.141C68.8295 113.436 68.5767 112.583 68.6738 111.805C68.163 111.796 67.6521 111.792 67.1413 111.794C66.7249 111.389 65.9001 110.72 66.6025 110.173C67.3302 110.136 68.0765 110.124 68.7883 110.333C69.4667 110.512 70.2104 110.253 70.853 110.596C71.5581 110.949 72.5159 110.389 73.084 111.011C73.1199 111.45 73.1013 111.889 73.0973 112.328L73.096 112.329ZM135.434 116.439C135.647 117.2 135.491 118.019 135.514 118.806C134.982 118.733 134.237 119.101 133.904 118.527C133.932 117.698 133.985 116.847 133.526 116.112C133.561 115.21 133.28 114.263 132.386 113.867C132.013 114.106 131.641 114.34 131.276 114.581C131.347 115.753 131.042 116.997 131.589 118.088C131.616 118.436 131.589 118.786 131.586 119.139C131.038 119.258 130.481 119.333 129.921 119.365C130.127 118.561 129.556 117.875 129.649 117.085C129.641 116.561 129.72 116.007 129.437 115.534C128.978 114.794 129.491 113.872 129.081 113.126C128.602 112.316 128.743 111.326 128.94 110.455C129.401 110.327 129.86 110.196 130.328 110.107C130.521 110.551 130.615 111.022 130.466 111.497C130.275 112.155 130.738 112.731 130.936 113.327C131.185 113.085 131.424 112.836 131.692 112.622C132.743 112.385 133.895 112.622 134.678 113.37C135.295 114.292 134.888 115.488 135.434 116.436V116.439ZM126.937 114.625C127.492 115.714 127.235 116.938 127.331 118.107C127.897 118.16 128.461 118.245 129.02 118.367C129.002 118.827 128.99 119.288 128.954 119.746C128.231 119.773 127.478 119.929 126.773 119.716C125.552 118.756 125.573 117.08 125.638 115.675C125.705 114.939 124.827 114.935 124.327 114.76C124.109 116.016 123.933 117.275 123.469 118.471C123.22 119.018 123.361 119.636 123.309 120.216C122.803 120.235 122.302 120.241 121.8 120.229C121.063 119.119 120.433 117.904 120.181 116.585C119.654 117.654 119.611 118.857 119.338 119.994C119.168 120.233 118.965 120.449 118.786 120.68C118.464 120.679 118.143 120.671 117.821 120.658C117.345 120.422 117.289 119.836 117.09 119.402C116.418 117.851 115.892 116.249 115.196 114.707C115.379 114.167 116.004 114.441 116.432 114.4C116.96 114.371 117.111 114.981 117.244 115.379C117.607 116.303 117.832 117.286 118.32 118.156C118.6 116.742 118.927 115.336 119.414 113.973L120.704 113.974C120.981 115.243 121.562 116.418 121.981 117.644L122.402 117.676C122.313 116.323 122.721 115.036 122.835 113.699C123.651 113.615 124.464 113.481 125.287 113.502C125.205 112.916 125.287 112.342 125.521 111.798C125.963 111.841 126.386 111.977 126.793 112.142C126.886 112.527 126.995 112.906 127.099 113.291C127.446 113.28 127.795 113.272 128.146 113.267C128.352 113.648 128.575 114.022 128.811 114.391C128.21 114.619 127.567 114.617 126.936 114.625H126.937ZM98.0548 120.415C97.5453 119.77 97.2233 118.999 96.8761 118.258C96.8588 117.48 96.8388 116.699 96.8894 115.925C97.4787 115.04 97.6903 113.75 98.7838 113.317C99.4091 113.047 100.061 112.834 100.697 112.583C101.4 112.549 102.104 112.549 102.807 112.583C103.26 112.797 103.698 113.051 104.132 113.308L103.83 114.178C102.589 114.175 101.347 114.163 100.106 114.178C99.6805 114.67 99.1098 115.056 98.8357 115.658C98.0601 116.983 98.5058 118.992 99.9386 119.701C100.713 120.305 101.759 119.958 102.666 120.009C102.651 119.296 102.652 118.584 102.67 117.871C102.152 117.873 101.635 117.904 101.121 117.964C101.018 117.675 100.912 117.387 100.803 117.1L101.112 116.472C102.187 116.472 103.263 116.452 104.338 116.499C104.379 117.962 104.362 119.425 104.357 120.886C103.048 121.454 101.595 121.166 100.211 121.228C99.3958 121.287 98.7333 120.784 98.0561 120.417L98.0548 120.415ZM73.4911 113.49C74.6525 113.304 76.1957 113.251 76.8383 114.445C77.5074 115.193 77.389 116.203 77.3478 117.128C77.0152 117.637 76.346 117.38 75.8418 117.384C74.997 116.883 74.0232 116.988 73.0827 116.989C73.1532 117.407 72.9443 118.053 73.511 118.181C74.4157 118.891 75.6037 118.553 76.66 118.637C76.6773 119.016 76.6893 119.402 76.6999 119.786C75.621 119.814 74.5354 119.878 73.4618 119.773C72.5771 119.657 72.0224 118.893 71.5222 118.237C71.4474 117.397 71.4465 116.553 71.5195 115.713C71.7683 115.225 71.9851 114.723 72.2419 114.239C72.649 113.974 73.0627 113.72 73.4924 113.49H73.4911ZM72.9948 115.78C73.9527 115.816 74.9106 115.82 75.8631 115.8C75.7327 115.3 75.3536 114.948 75.0077 114.585C74.0778 114.395 73.5177 115.155 72.9948 115.779V115.78ZM78.871 113.972C80.2094 113.945 81.7433 113.788 82.7357 114.884C82.8741 116.797 82.7836 118.729 82.761 120.65C82.4275 120.707 82.0858 120.697 81.7565 120.619C81.4272 120.54 81.1172 120.396 80.8453 120.195C80.4821 120.47 80.091 120.801 79.5974 120.671C78.8418 120.43 78.1899 119.953 77.5899 119.447C77.6032 118.718 77.4103 117.903 77.9358 117.297C78.6263 116.19 80.091 116.339 81.2032 116.066C81.13 114.891 79.4684 115.198 78.7646 115.618C78.5677 115.314 78.1393 115.041 78.2644 114.629C78.452 114.397 78.6688 114.188 78.871 113.973V113.972ZM81.287 118.54C81.3708 118.176 81.3176 117.795 81.3122 117.423C81.0408 117.442 80.7362 117.396 80.5074 117.583C79.938 117.693 79.1065 117.746 79.0427 118.49C78.9229 119.128 79.6493 119.357 80.0537 119.66C80.4888 119.316 80.985 119.016 81.287 118.54ZM85.5721 120.978C85.0909 120.976 84.6097 120.972 84.1286 120.965C84.1432 119.205 83.9503 117.416 84.3308 115.685C84.404 115.263 84.235 114.772 84.4891 114.405C85.1144 114.235 85.6266 114.593 86.1148 114.933C86.9902 113.859 88.4709 114.517 89.2638 115.35C90.086 114.468 91.4057 114.852 92.466 114.939C93.0593 115.679 93.3773 116.596 93.332 117.543C93.2123 118.726 93.2735 119.923 93.2735 121.114C92.76 121.362 92.1892 121.46 91.6451 121.229C91.5813 119.681 91.693 118.131 91.6425 116.582C91.2739 116.381 90.9132 116.166 90.5609 115.937C90.235 116.234 89.8957 116.521 89.5498 116.797C89.5738 118.172 89.5631 119.546 89.5498 120.921C88.9126 121.135 88.2239 121.143 87.5822 120.942C87.7458 120.611 87.9747 120.29 87.9428 119.905C87.9255 118.729 88.0093 117.547 87.9028 116.38C87.5756 115.82 86.8785 116.052 86.353 116.003C85.1517 117.412 86.1361 119.359 85.5721 120.977V120.978ZM110.982 121.061C109.518 120.712 109.097 119.039 108.726 117.794C109.111 116.854 109.334 115.706 110.198 115.08C110.544 114.75 111.05 114.845 111.482 114.81C112.272 114.812 113.065 114.776 113.858 114.852C114.861 115.463 115.341 116.65 115.395 117.774C115.731 119.991 113.048 122.073 110.982 121.061ZM110.699 116.859C110.797 117.624 110.416 118.567 111.023 119.183C111.521 119.798 112.544 119.933 113.196 119.499C113.533 118.927 113.923 118.327 113.764 117.634C113.518 117.027 113.165 116.469 112.721 115.987C111.873 115.799 111.227 116.258 110.699 116.859ZM92.2997 131.357C92.43 131.093 92.7294 130.976 92.9582 130.816C93.8269 130.305 94.6464 129.667 95.6296 129.389C95.6402 129.627 95.6562 130.107 95.6641 130.347C96.0154 130.211 96.3692 130.083 96.7284 129.964C97.8752 130.913 98.5962 132.245 99.445 133.446C99.1177 133.751 98.7865 134.052 98.4433 134.339C99.2086 135.581 100.088 136.749 101.069 137.828C101.796 137.511 102.014 136.7 102.513 136.155C102.935 135.647 103.258 135.069 103.686 134.568C103.409 134.271 103.137 133.97 102.871 133.664C103.477 132.479 104.145 131.276 105.132 130.36C105.829 130.2 106.488 129.821 107.202 129.785C108.217 130.135 109.058 130.835 109.959 131.396C109.721 131.666 109.485 131.937 109.25 132.209C110.226 132.3 111.207 132.375 112.187 132.44L112.592 132.936C111.749 133.43 111.437 134.378 110.764 135.032C110.358 135.479 109.886 135.863 109.487 136.318C108.984 137.046 108.582 137.844 107.993 138.515C107.482 138.024 106.995 137.509 106.533 136.973C105.977 138.13 104.894 138.885 104.285 140.008C104.143 140.228 103.9 140.479 104.123 140.743C104.609 141.338 105.183 141.864 105.801 142.326C105.212 143.19 104.246 143.655 103.464 144.317C103.145 144.53 102.802 144.872 102.385 144.679C101.97 144.285 101.587 143.861 101.165 143.478C100.545 143.871 100.179 144.865 99.3492 144.781C98.3528 143.956 97.234 143.272 96.3905 142.267C96.935 141.672 97.5565 141.153 98.2384 140.722L98.3195 140.423C97.4149 139.34 96.3972 138.291 95.8091 137.001C95.7227 137.001 95.5471 137.007 95.4579 137.009C95.2424 137.607 94.8127 138.075 94.3591 138.511C93.5715 137.795 93.1005 136.828 92.4034 136.036C91.6678 134.823 90.2629 134.15 89.6922 132.832C90.4771 132.186 91.4602 132.042 92.45 132.181C92.3928 131.905 92.3183 131.635 92.2983 131.357H92.2997ZM90.9746 135.607C91.4802 136.042 91.9125 136.55 92.2478 137.127C92.8025 137.838 93.7458 138.581 93.5542 139.574C93.0194 140.119 92.5258 140.705 92.0788 141.323C91.2992 140.945 90.4438 140.662 89.8146 140.042C89.2186 139.449 88.3339 139.161 87.9481 138.373C87.3494 137.632 87.1858 136.677 86.7069 135.87C86.3929 135.355 86.5073 134.708 86.5671 134.138C87.2124 133.505 88.1144 132.995 89.0403 133.311C89.8305 133.95 90.1977 134.951 90.972 135.607H90.9746ZM114.398 138.16C113.182 139.47 111.836 140.804 110.067 141.316C109.679 140.706 109.25 140.122 108.783 139.57C108.71 139.199 108.759 138.82 108.759 138.45C110.459 136.91 111.501 134.773 113.302 133.319C114.217 132.984 115.125 133.515 115.758 134.14C115.859 134.557 115.859 135.019 115.662 135.411C115.272 136.338 115.047 137.366 114.398 138.16ZM104.917 144.131C105.422 143.708 105.966 143.24 106.67 143.258C107.75 144.602 108.785 145.971 109.694 147.44C108.949 148.322 107.975 148.952 107.011 149.568C106.105 149.86 105.711 148.987 105.349 148.361C104.486 147.476 103.753 146.475 103.034 145.477C103.654 145.018 104.342 144.648 104.917 144.131V144.131ZM98.9448 146.03C98.1 146.658 97.7688 147.7 96.9453 148.347C96.4664 148.694 96.4637 149.581 95.7559 149.59C94.379 149.459 93.485 148.26 92.5272 147.4C93.5156 145.932 94.3963 144.367 95.7706 143.205C96.9852 143.649 97.8087 144.668 98.9115 145.292L98.9475 146.031L98.9448 146.03ZM105.779 161.358C106.239 161.728 106.691 162.124 107.045 162.608C106.479 162.678 105.908 162.688 105.337 162.687C104.661 161.954 104.852 160.954 104.854 160.048L104.326 159.613C104.369 159.275 104.427 158.939 104.495 158.609C104.649 158.133 105.323 158.11 105.715 157.868C105.585 158.693 106.307 159.04 107.028 159.049L106.879 159.661C106.507 159.765 106.134 159.866 105.764 159.962C105.771 160.427 105.774 160.891 105.778 161.358H105.779ZM114.998 157.798C115.8 158.31 116.523 159.134 116.619 160.107C115.882 160.144 115.149 160.228 114.424 160.359L114.435 160.858C115.138 160.792 115.843 160.72 116.549 160.769L116.561 161.474C115.775 161.951 114.847 162.136 113.938 161.998C113.289 161.25 112.63 160.375 112.746 159.333C112.504 159.43 112.262 159.528 112.021 159.628C112.069 160.5 112.17 161.371 112.11 162.248C111.724 162.245 111.338 162.24 110.953 162.231C110.899 161.337 111.104 160.398 110.786 159.541C110.186 160.292 110.54 161.282 110.46 162.16C109.622 162.325 108.847 162.776 107.967 162.702C107.684 162.438 107.394 162.182 107.099 161.933C107.087 160.907 107.091 159.881 107.112 158.855L107.838 158.951C107.785 159.774 108.122 160.526 108.348 161.304C108.365 161.733 109.232 161.599 109.058 161.127C109.098 160.302 109.037 159.483 109.095 158.66C109.624 158.628 110.118 158.793 110.603 158.988L110.524 158.775C111.279 158.646 112.019 158.441 112.733 158.165C112.863 158.492 112.989 158.825 113.108 159.161C113.326 158.332 114.225 157.92 115 157.798H114.997H114.998ZM113.748 159.732C114.251 159.611 114.741 159.442 115.211 159.226C114.618 158.809 114.004 159.133 113.748 159.732ZM102.231 159.044C102.688 159.15 103.167 159.23 103.574 159.478C104.25 160.315 104.277 161.451 104.272 162.479L103.189 162.623C103.135 161.894 103.206 161.145 103.024 160.431C102.736 159.988 102.179 160.193 101.752 160.208C101.707 161.077 101.687 161.948 101.693 162.819L100.878 162.964C100.271 161.709 100.692 160.25 100.594 158.908C101.143 158.912 101.689 158.958 102.231 159.044ZM98.2065 161.765C99.018 161.709 99.8295 161.778 100.481 162.322C100.03 162.631 99.5608 162.917 99.0752 163.168C98.4999 162.901 97.9131 162.66 97.3164 162.445C97.0677 161.634 96.7524 160.681 97.3031 159.918C97.6517 159.023 98.7266 158.939 99.5514 158.914C99.7829 159.286 100.07 159.623 100.366 159.948C100.356 160.379 100.343 160.813 100.328 161.25C99.6167 161.239 98.9048 161.24 98.1932 161.254C98.1932 161.382 98.2025 161.636 98.2038 161.765H98.2065ZM98.7732 159.798C98.3036 159.623 98.0814 160.168 97.7967 160.43C98.3821 160.471 98.9714 160.471 99.5608 160.422C99.308 160.2 99.0765 159.947 98.7758 159.798H98.7732ZM105.505 117.628C105.079 116.84 105.292 115.924 105.265 115.073C105.853 115.026 106.436 115.09 107.013 115.161C107.338 115.009 107.636 114.814 107.967 114.682C108.342 114.629 108.678 114.868 109.037 114.945C109.016 115.391 108.953 115.834 108.849 116.269C108.349 116.358 107.848 116.451 107.342 116.512C107.012 118.044 107.275 119.632 107.188 121.187C106.923 121.305 106.634 121.36 106.344 121.346C106.054 121.333 105.771 121.252 105.518 121.11C105.515 119.949 105.574 118.784 105.505 117.628ZM95.7932 159.533C96.0327 159.169 96.7537 158.483 96.9333 159.246C96.8442 159.717 96.6154 160.151 96.5009 160.621C96.4125 161.388 96.0652 162.102 95.5165 162.644C95.1959 162.671 94.8739 162.684 94.552 162.682C94.3098 161.489 93.8761 160.327 93.3573 159.226C93.0274 160.385 93.5529 161.643 93.034 162.763C92.2691 162.428 91.4828 162.168 90.6354 162.247C89.9476 162.362 89.8465 161.595 89.5538 161.16C89.5383 161.525 89.5294 161.89 89.5272 162.255L88.6758 162.211C88.3911 161.647 88.0931 161.095 87.8057 160.536C87.4478 160.544 87.0873 160.558 86.7295 160.566C86.47 160.969 86.2213 161.381 85.9539 161.781C85.6545 161.685 85.3592 161.582 85.0665 161.469L85.1304 160.693C85.9459 159.476 86.5991 158.165 87.2935 156.881C87.6594 156.855 88.0212 156.828 88.3858 156.81C88.6691 157.991 88.8381 159.24 89.4181 160.321C89.7281 159.754 90.0687 159.204 90.4638 158.693C91.0131 158.661 91.5636 158.655 92.1134 158.676C92.1586 158.124 92.2757 157.589 92.4234 157.06C92.8105 157.122 93.191 157.233 93.5795 157.307C93.5795 157.749 93.5742 158.189 93.5595 158.636C94.0597 158.809 94.544 159.025 94.9657 159.351C94.979 159.803 94.9883 160.258 95.0096 160.713C95.6375 160.661 95.4965 159.923 95.7932 159.532V159.533ZM91.8513 161.294C92.0262 161.048 92.1197 160.753 92.1187 160.451C92.1178 160.149 92.0224 159.855 91.846 159.609C91.3963 159.685 90.7511 159.472 90.5915 160.051C90.2735 160.438 90.662 160.899 90.7764 161.289C91.1343 161.288 91.4921 161.288 91.8513 161.294ZM87.0887 159.656C87.408 159.656 87.7312 159.652 88.0532 159.642C87.967 159.164 87.8587 158.689 87.7286 158.221C87.3787 158.633 87.1033 159.104 87.09 159.657V159.656H87.0887Z" fill="white"/>
</g>
<defs>
<clipPath id="clip0_1_7">
<rect width="200" height="200" fill="white"/>
</clipPath>
</defs>
</svg>
