<svg width="200" height="200" viewBox="0 0 200 200" fill="none" xmlns="http://www.w3.org/2000/svg">
<g clip-path="url(#clip0_1_7)">
<path d="M-68 0H268V200H-68V0Z" fill="#48D5B5"/>
<path d="M169.392 103.516C169.289 101.403 167.964 99.389 164.599 99.389C161.642 99.389 160.011 101.603 159.807 103.516H169.392ZM174.797 110.359C173.674 113.981 170.309 117 165.108 117C159.298 117 154.095 112.875 154.095 105.83C154.095 99.19 159.092 94.761 164.497 94.761C171.024 94.761 175 98.887 175 105.628C175 106.433 174.899 107.34 174.899 107.34H159.703C159.805 110.157 162.253 112.07 165.005 112.07C167.657 112.07 169.186 110.761 169.799 108.85L174.797 110.359ZM137.78 104.32C137.78 101.904 139.207 99.992 141.755 99.992C144.509 99.992 145.732 101.804 145.732 104.119V116.295H151.443V103.112C151.443 98.482 148.996 94.76 143.795 94.76C141.551 94.76 139.003 95.765 137.677 97.88V95.263H132.069V116.193H137.779V104.32H137.78ZM122.79 95.365H128.501V116.296H122.791V95.366L122.79 95.365ZM125.647 85C127.585 85 129.216 86.61 129.216 88.523C129.216 90.433 127.686 91.944 125.646 91.944C123.709 91.944 122.078 90.334 122.078 88.523C122.078 86.611 123.709 85 125.646 85H125.647ZM93.729 104.32C93.729 101.907 95.158 99.993 97.706 99.993C100.46 99.993 101.683 101.805 101.683 104.12V116.296H107.394V103.113C107.394 98.484 104.947 94.761 99.746 94.761C97.502 94.761 94.954 95.767 93.628 97.881V95.263H88.02V116.193H93.73V104.32H93.729ZM78.536 95.367H84.246V116.297H78.536V95.367ZM81.288 85C83.226 85 84.857 86.61 84.857 88.523C84.857 90.433 83.327 91.944 81.289 91.944C79.351 91.944 77.719 90.334 77.719 88.523C77.822 86.611 79.351 85 81.288 85V85ZM64.973 112.773C63.138 112.773 62.219 111.567 62.219 110.359C62.219 108.748 63.341 107.944 64.87 107.743L69.664 107.037V107.944C69.664 111.567 67.42 112.774 64.973 112.774V112.773ZM56.509 110.66C56.509 113.98 59.262 117 63.851 117C67.014 117 69.051 115.59 70.071 113.88C70.071 114.685 70.173 115.792 70.274 116.396H75.578C75.476 115.692 75.272 114.183 75.272 113.076V102.711C75.272 98.484 72.723 94.761 65.992 94.761C60.282 94.761 57.223 98.384 56.918 101.704L62.016 102.811C62.219 101 63.545 99.389 66.095 99.389C68.541 99.389 69.664 100.597 69.664 102.107C69.664 102.811 69.255 103.415 68.032 103.616L62.832 104.421C59.264 104.824 56.509 106.937 56.509 110.661V110.66ZM54.776 101C54.164 100.9 53.551 100.8 53.042 100.8C50.085 100.8 47.535 102.208 47.535 106.736V116.296H41.825V95.366H47.434V98.486C48.758 95.666 51.614 95.164 53.45 95.164C53.96 95.164 54.369 95.164 54.776 95.264V101ZM38.664 95.667V100.597H32.036C32.647 100.296 33.158 99.792 33.668 99.389C34.688 98.384 35.401 97.176 35.911 95.667H38.664ZM26.631 100.597H25V95.667H34.28C33.668 97.176 32.75 98.384 31.424 99.289C30.2 100.095 28.569 100.497 26.631 100.597V100.597ZM36.932 111.667C37.646 111.667 38.359 111.567 38.665 111.467V116.195C38.155 116.396 37.136 116.699 35.505 116.699C31.425 116.699 28.875 114.283 28.875 110.259V101.905H34.484V109.352C34.484 111.062 35.3 111.667 36.932 111.667ZM34.484 94.359V89.427H29.385V92.344C29.385 93.149 29.181 93.854 28.773 94.357L34.483 94.359H34.484ZM119.63 111.667H118.61C116.978 111.667 116.164 111.063 116.164 109.252V85.905H110.554V110.257C110.554 114.284 113.103 116.697 117.182 116.697C118.202 116.697 119.018 116.597 119.628 116.396L119.63 111.666V111.667Z" fill="white"/>
</g>
<defs>
<clipPath id="clip0_1_7">
<rect width="200" height="200" fill="white"/>
</clipPath>
</defs>
</svg>
