<svg height="24" viewBox="0 0 112 24" width="112" xmlns="http://www.w3.org/2000/svg"><path d="m56 40c0-6.7080745 5.2732919-12 12.0559006-12 3.5962733 0 6.931677 1.5465839 9.0372671 4.1552795.3913043.4844721.5217391.8012422.5217391 1.1552795 0 .6708075-.5962733 1.2298137-1.3043478 1.2298137-.4658385 0-.8385093-.1677019-1.1552795-.5590062-1.826087-2.2919255-4.2111801-3.447205-7.0621118-3.447205-5.2732919 0-9.242236 4.0807453-9.242236 9.4658385s3.9689441 9.4658385 9.242236 9.4658385c2.8509317 0 5.2360248-1.1925466 7.0621118-3.447205.3167702-.3913043.7080745-.5590062 1.1552795-.5590062.7080745 0 1.3043478.5590062 1.3043478 1.2298137 0 .3540373-.1490683.6708074-.5217391 1.1552795-2.0310559 2.6086956-5.4223602 4.1552795-9.0372671 4.1552795-6.7826087-.0186335-12.0559006-5.2919255-12.0559006-12zm26.6645963 10.5093168v-20.7018634c0-.8012422.5590062-1.4347826 1.378882-1.4347826.7826087 0 1.3788819.6335404 1.3788819 1.4347826v19.6956522h9.8757764c.7453417 0 1.2670808.5217391 1.2670808 1.2298137 0 .6708074-.5217391 1.2298136-1.2670808 1.2298136h-11.1801242c-.8571428 0-1.4534161-.6335404-1.4534161-1.4534161zm62.5155277.242236c0 .6708074-.559006 1.2298137-1.304348 1.2298137-.428571 0-.801242-.2422361-1.192546-.7453417l-7.006211-9.3913043h-5.273292v8.7204969c0 .7826087-.596274 1.3975155-1.378882 1.3975155-.801243 0-1.378882-.6335404-1.378882-1.3975155v-20.757764c0-.7826087.596273-1.3975155 1.397515-1.3975155h6.745342c4.434782 0 7.416149 2.7018633 7.416149 6.7080745 0 3.0931677-1.751553 5.4223603-4.602485 6.3354037l6.093168 8.273292c.31677.3354037.484472.689441.484472 1.0248447zm-14.757764-11.3478261h5.310559c2.925466 0 4.677019-1.621118 4.677019-4.2484472 0-2.6086956-1.78882-4.2857143-4.677019-4.2857143h-5.310559zm22.751553-9.9503106v21.0931678c0 .8012422-.596273 1.4347826-1.378882 1.4347826-.801242 0-1.378882-.6335404-1.378882-1.4347826v-21.0931678c0-.8012422.559006-1.4347826 1.378882-1.4347826.782609-.0186335 1.378882.6149069 1.378882 1.4347826zm14.627329 21.2981367c0 .6708074-.559006 1.2298137-1.267081 1.2298137-.354037 0-.708074-.1677019-1.099378-.5590063l-11.086957-11.3291925c-.242236-.2795031-.428571-.5962733-.428571-.9503106 0-.3540372.167702-.6708074.465838-.9875776l10.062112-9.5962733c.428571-.3913043.708075-.5590062 1.062112-.5590062.708074 0 1.267081.5590062 1.267081 1.2298137 0 .3913043-.167702.7080745-.596274 1.0993788l-9.204969 8.8322982 10.304348 10.5838509c.372671.3167702.521739.5962733.521739 1.0062112zm-45.503105-.9689441-8.906833-20.8322981c-.279503-.6335404-.708074-.9503106-1.304347-.9503106-.596274 0-1.024845.3167702-1.304348.9503106l-8.906833 20.8136646c-.149068.3540372-.204969.6335403-.204969.8757764 0 .7080745.596274 1.3416149 1.341615 1.3416149.596274 0 1.062112-.3540373 1.304348-.9130435l1.695652-4.0434783.055901-.1490683 1.024845-2.4596273 4.993789-12.2981367 4.84472 12.3167702 1.062112 2.4596273 1.863354 4.1925466c.279503.5590062.708074.9130435 1.341615.9130435.708074 0 1.341615-.6335404 1.341615-1.3416149 0-.242236-.074534-.5403727-.242236-.8757764z" transform="translate(-56 -28)"/></svg>