<svg height="40" viewBox="0 0 132 40" width="132" xmlns="http://www.w3.org/2000/svg"><path d="m62.3904927 29.4687249c-.0808903.8866292.6548261 1.5040001 1.084315 2.1906089.3331909.4115806.5970473 1.0481842 1.2075763 1.0674169 3.0930903.182711 6.1900325.2827213 9.2831228.4519694.9687574.0461586 1.8277352.8866292 1.883588 1.8578825.1155575 1.1001126-.7896432 2.2252278-1.929811 2.2098416-2.0184051-.0250026-4.0329583-.2481023-6.0532894-.2500256.8127547 1.1712738 1.8970697 2.1271409 2.8600492 3.1714785.3197092.2827213.5854916.7520001 1.0669814.7423837 3.0853864.1461688 6.1746248.2461791 9.2600112.3981177 1.2518734.0576982 2.1936674 1.4405321 1.7795862 2.6252688-.2638564.8308543-1.126686 1.4039899-1.9895157 1.3924502-1.4444693.0019233-2.8870127-.2057903-4.331482-.1365524.3967476.5635192.9918689.9308645 1.5349894 1.3385986 1.7141036 1.1674272 3.4224293 2.444481 5.46202 2.9829976 1.8932177.5942917 4.1273303.7269975 5.8298781-.450046 1.4810625-1.0366446 2.4613757-2.6483481 3.1431652-4.2927472.9860911-2.2790795.7607539-4.8735758.140595-7.2180466-.3331909-1.0847265-.6432703-2.2079184-1.2884666-3.1541691-.7838653-.7558466-1.457951-1.6270896-2.3419662-2.2733096-.9398681-.7712328-2.0646282-1.2732073-3.2221296-1.6193966-2.9910144-1.0039489-6.068697-1.7540257-9.1829729-2.2713864-3.9886612-.6654527-8.0351013-1.0924195-12.0853932-.9597136-1.128612.0442353-2.1050733 1.0693402-2.1108512 2.1963787m-13.0137055-9.2740264c2.9101242-.3269565 5.8472118-.1519386 8.7688917-.1134731 6.5964099.267335 13.1831899.9750998 19.6524865 2.3098518 3.152795.7039182 6.2824785 1.5540053 9.273493 2.7829772 3.1393133 1.3674477 5.8202483 3.6503738 7.8964322 6.3506502 2.8446416 3.8023123 4.6897104 8.4066299 4.9940119 13.1590395.1271135 2.1502201-.1020758 4.3465988-.9071267 6.3583432-1.1151303 3.0137701-2.8504195 6.0063841-5.6603938 7.7257909-2.7964926 1.6559388-6.2458853 1.4059132-9.2773449.6269873-1.1998725-.3038773-2.3766335-.7039182-3.4917638-1.2443582-5.5910592-2.950302-10.6062567-6.8564711-15.3498939-11.0049728-6.4307773-5.7101999-12.3492496-12.0300777-17.3721509-19.0173315-.7337904-1.1443479-1.8181054-2.1983019-1.881662-3.6369108-.2253372-2.0117444 1.3269858-4.0542612 3.3550207-4.2965937zm85.4720808 8.1565851c1.417505-.5462098 3.143165.7481535 2.915902 2.2771562-.092446 1.5232328-2.00685 2.4790999-3.285687 1.6559387-1.623583-.7404604-1.334689-3.4945885.369785-3.9330949zm-22.004025.446161c2.559599.0019233 5.121125-.0038465 7.682651.0019233 3.482134-.0596215 7.166493 1.5270794 8.896005 4.6658623 1.367431 2.3733199 1.679436 5.2601539 1.136315 7.9200416-.53349 2.5964196-2.147444 4.9947421-4.470151 6.3160312-1.631287.905862-3.495615 1.3712942-5.36187 1.3809106-2.628934.0134629-5.255942.0019233-7.88295.0057698zm3.769102 2.9810744v14.2803081c1.303874-.0057698 2.607748.0076931 3.909697-.0057698 1.465655-.0269258 2.979458-.3885013 4.129256-1.334752 1.450247-1.1789669 2.132037-3.0618519 2.276484-4.8774224.148298-1.9867419-.148299-4.1177293-1.365505-5.7544353-1.03424-1.4809208-2.86005-2.2733096-4.635784-2.3079286-1.438691-.0019232-2.877383.0019233-4.314148 0zm48.085401.4808185c-.001926-1.1539643-.001926-2.3079286 0-3.4618929h12.135468c-.001926.9827929 0 1.9636626-.001926 2.9464555-1.542693 1.692481-3.043015 3.4215041-4.587634 5.1101385 1.479136.1500154 3.00257.6558364 4.011772 1.8021076 1.12476 1.1039592 1.63514 2.7233557 1.486841 4.2792843.017333 2.0867521-.988017 4.2100463-2.802271 5.3082357-2.031887 1.3828339-4.641561 1.5405423-6.995083 1.0866497-1.627436-.3096471-3.100794-1.1058824-4.489411-1.9752022.533491-1.0404911 1.074685-2.0771357 1.612028-3.1157036 1.473359.9981791 3.175907 1.777105 4.988234 1.8001843 1.147872.0519284 2.399745-.161555 3.277982-.9577904.988017-.9424041 1.074686-2.6675807.202226-3.7138417-.38134-.4692788-.897497-.8231612-1.465655-1.0154886-1.529211-.5212072-3.222129-.5385166-4.762897-.0576982-.001926-.9808696 0-1.959816-.001926-2.9406857 1.463729-1.6982507 2.927458-3.3965015 4.391187-5.0947523zm-9.080878 2.1194477c1.708326-.3346496 3.697841.2327162 4.69934 1.7232534.806977 1.0597239 1.007277 2.4348646 1.026536 3.7330745.001926 3.0349261 0 6.0717754 0 9.1086248h-3.480208c0-3.0368494.003852-6.0736987 0-9.1124714-.013481-.7558466-.111705-1.5886242-.656752-2.163683-.962979-.9962559-2.788788-.905862-3.651618.1750179-.466082.5539028-.622085 1.2982098-.618233 2.0059746-.001926 3.0330028 0 6.0640823-.001926 9.0951619h-3.478282c-.001926-3.0233865 0-6.0486962 0-9.0720826-.013482-.8308543-.094372-1.7790283-.741494-2.381013-.893645-.7135346-2.257224-.6750691-3.164351.0019233-.446823.3519591-1.101649.7404604-.982239 1.4059131.003852 3.3484197 0 6.6968395.001926 10.0452592h-3.397392v-14.32839c.820458.0288491 1.652473-.0730844 2.465228.0634681.676011.2288695.55275 1.1039591.718382 1.6597853 1.130538-1.4463019 3.044942-2.3290846 4.876529-1.8790386 1.240317.3154169 2.056924 1.4155296 2.54034 2.5348749.676011-1.5078466 2.226408-2.4617905 3.844214-2.6156524zm-21.817284 14.6611933v-14.4245536h3.480208v14.4245536zm5.804841 3.8791471c-.429489-.2230997-.469934-.6000614-.213781-.9885627.179114.1500153.629788.119243.597047.4385064.09052.2673351-.261931.3692686-.383266.5500563zm-26.13332-.5153604c.714531-.4231203 1.581213-.0788543 2.264928.2423325-.104001.1788644-.208003.3558056-.312005.5346701-.537343-.2500256-1.741067-.5885218-1.739141.3365729.468008.6154476 1.463729.4442763 1.974108 1.0404911.369784.498128.252301 1.3462917-.344747 1.6213199-.83394.4346599-1.831587.1423222-2.523006-.4250435.130965-.1634783.263856-.3269566.398673-.4885116.494972.3058005 1.080463.6404502 1.679437.4308133.369784-.0827007.398673-.6789156.063556-.8270077-.591269-.3115704-1.38669-.2634885-1.827735-.8270077-.329339-.5231305-.213781-1.3385986.365932-1.6386293zm14.820275-.2865871h.622085v4.2312024c-.159855 0-.477638-.0019232-.635567-.0019232.00963-.0903939.030815-.2692584.040445-.357729-.546972.5135141-1.454099.5558262-2.016479.0500052-.818533-.7116114-.593195-2.2271511.412155-2.6521946.550825-.21733 1.12476.0461585 1.585065.3481125-.011556-.5385167-.00963-1.0789566-.007704-1.6174733zm-1.355875 1.8098007c-.697198.3538824-.668308 1.5040001.069334 1.7963377.595122.3808083 1.290393-.2500256 1.24417-.8770128.092446-.6923786-.69142-1.2597444-1.313504-.9193249zm13.984369-1.7982803c.156003.0019233.469934.0076931.627863.0115397-.003852 1.4097597-.003852 2.8195194 0 4.2273558-.157929.0019233-.469934.0019233-.625937.0019233.001926-1.4136062.005778-2.8272125-.001926-4.2408188zm4.223571.1826534c.398673-.4135039 1.001498-.2346394 1.448321-.013463-.061631.1038568-.184892.3115704-.248449.4154272-.260004-.0365422-.55275-.1807878-.781939.0153862-.078964.1788644-.144447.3634987-.2003.5519796.288894.021156.577788.0384654.868608.0538516-.001926.1288594-.003852.3846548-.005778.5135141h-.785791v2.500256h-.620159c-.001926-.8327776-.001926-1.6655551-.001926-2.500256-.09052.0019233-.273486.0019233-.365933.0019233-.003851-.1288593-.015407-.3846547-.019259-.5135141.084742-.0057698.256152-.0153862.340895-.0192327.08089-.344266.034667-.786619.37171-1.0058722zm19.552336-.176922c.156003-.0019233.468008-.0038465.624011-.0057698.001926 1.4136062-.011556 2.8272125.007704 4.2408187-.215707.0019233-.427563.0038466-.639418.0076931.019259-1.4136062.005777-2.8291357.007703-4.242742zm5.385001-.0172902h.622085c0 .5654425.003852 1.1328082-.013482 1.700174.412156-.4615857 1.118983-.7558466 1.689066-.386578 1.078537.5019745 1.005351 2.2733096-.038519 2.7791307-.548898.3519591-1.172909-.0192328-1.654399-.3038773.005778.1461688.013482.2942609.023112.442353h-.627863zm.989943 1.8713454c-.56238.4288901-.48149 1.4770743.194522 1.7578723.660604.3461893 1.400172-.4365832 1.249947-1.1001127-.067408-.6442967-.912904-1.053954-1.444469-.6577596zm6.299812-1.8482469c.156003-.0038466.469934-.0115397.625937-.0134629-.003852 1.411683-.00963 2.8252892.001926 4.2388955-.157929.0038465-.473786.0096163-.631715.0134629.00963-1.4136063.001926-2.8272125.003852-4.2388955zm-43.81944.2653925c.206078 0 .412155-.0019232.622085-.0019232-.001926.3038772-.001926.6096778 0 .913555.26193.0019233.525787.0019233.791569.0038466-.001926.1327059-.005778.3961944-.007704.5289003-.248449-.0019233-.494971-.0019233-.741494-.0019233.073186.6423735-.202226 1.411683.2003 1.9694324.260004-.0173095.518083-.0730844.778087-.1173197.283116.6635295-.677937.7789259-1.090093.5673658-.864755-.5019745-.466082-1.6482457-.548898-2.4617905-.094372-.0019233-.283116-.0076931-.375562-.0096164-.001926-.119243-.001926-.3538824-.001926-.4712021l.375562-.0115396c-.001926-.301954-.001926-.6058313-.001926-.9077853zm-17.052403 2.663715c-.225337-1.1635806 1.101648-2.1271408 2.153222-1.6328594.710679.2481023.855126 1.0443377.845496 1.7040206-.806977.0134629-1.613954-.0115397-2.42093.0269258.292745.8231612 1.334689.8904758 1.925959.3404195.07126.1115499.211855.3384962.283116.4519693-.870534.8712431-2.711751.4346599-2.786863-.8904758zm.57201-.4788951c.629788.0384654 1.261503.0365422 1.893217.0038465-.140595-.259642-.231115-.6019847-.560454-.6769924-.55275-.2423325-1.153649.1384757-1.332763.6731459zm3.39354-.7558466c.564306-.6539131 1.717955-.7096881 2.289965-.0365422.350525.3558056.288894.8904757.346673 1.3462916-.810829.0076931-1.621658-.0115396-2.430561.021156.20993.3000308.416007.6885321.837792.6943019.41023.098087.766532-.161555 1.111279-.3384962.073186.1173197.217633.3519591.29082.4692788-.612455.4250435-1.477211.603908-2.132037.1711714-.797347-.4519694-.905201-1.6694017-.313931-2.3271613zm.177188.7673862c.629788.0230793 1.261503.0230793 1.893218-.0038465-.148299-.3654221-.396748-.7558466-.845496-.7423837-.508454-.0730844-.887868.3058005-1.047722.7462302zm9.625943-.9808119c.616307-.4558159 1.598546-.4096574 2.08774.2134834.317783.3577289.256153.8654732.312005 1.3059029-.808902.0134629-1.617805-.0096164-2.424782.0250025.288894.8250845 1.31543.8712431 1.922107.3731152.107854.1442455.217633.2904143.329339.4385064-.595121.4346599-1.450247.6154476-2.106999.2077136-.93409-.4788952-.97261-1.9886652-.11941-2.563724zm-.015407.9789463c.206077-.96933 1.683288-.9789463 1.900921-.0096163-.63364.0365422-1.269207.0346189-1.900921.0096163zm5.643098-.9213058c.69142-.484665 1.943293-.7077648 2.36893.2173299.19067.8000819.053927 1.636706.092446 2.4521741-.20993 0-.417933 0-.624011.0019233l.025038-.3154169c-.475712.3288798-1.12476.5385167-1.658251.2134834-.546972-.259642-.612455-1.1981996-.050075-1.4713045.548898-.2500256 1.170983-.1923274 1.758401-.2346394-.088594-.8731663-1.068908-.7770026-1.640917-.4500461-.067409-.1038567-.202226-.309647-.271561-.4135038zm.429489 1.9251971c-.219559-.8558569.926386-.6327571 1.430988-.64622.088594.7539233-.951424 1.1635806-1.430988.64622zm2.94094-2.2848301h.62401c0 1.0097188-.001926 2.0175142 0 3.027233-.208003.0019233-.416007.0019233-.622084.0038465-.001926-1.0097187 0-2.0213607-.001926-3.0310795zm7.663314 0c.159854 0 .477638.0019233.635566.0019233-.013481.1346291-.038519.4058108-.052001.5404399.302376-.2615652.650975-.4615857 1.022685-.6116011-.005778.153862-.01926.4596625-.025038.6135244-.269634.1211662-.627862.1596317-.764606.4577392-.335116.6192941-.148298 1.3578313-.194521 2.0271306h-.622085zm2.956366.0807583c.86283-.4019643 2.056925.0980869 2.226409 1.0731868.27156 1.011642-.693345 2.1656063-1.756475 1.8982712-.764605-.0307724-1.375134-.7673862-1.350097-1.5155397-.046223-.6116011.348599-1.1847367.880163-1.4559183zm.188744.5615959c-.656752.3596522-.62401 1.4097597.040445 1.734793.602826.4096573 1.465655-.1346292 1.452174-.8327776.104001-.7539233-.887868-1.2751305-1.492619-.9020154zm2.860069-.6442198c.157928.0019233.475712.0038466.635566.0038466-.011555.1365524-.032741.4096573-.044297.5462097.431415-.7154578 1.488767-.8212379 1.972182-.0961636.554677-.5673658 1.656325-.7481536 2.101222.042312.356302.786619.111705 1.6963275.18104 2.5348749h-.622085c-.01926-.6846855.065483-1.3809106-.073186-2.0559797-.22919-.638527-1.365505-.4558159-1.430988.1980972-.061631.632757-.017334 1.2693607-.025037 1.9059643h-.624011c-.021186-.7019949.065482-1.4155295-.061631-2.1098314-.209929-.5154373-1.013054-.4192737-1.276911-.0096163-.132891.6808389-.048149 1.3809106-.065482 2.0713659h-.666382zm8.418367.1749603c.570084-.3327264 1.263429-.1230896 1.717955.3058005-.009629-.119243-.030815-.3577289-.042371-.4769719.169485 0 .506528-.0019233.676012-.0019233-.023112 1.0270282.050075 2.057903-.040445 3.0830079-.061631.7385372-.805051 1.2405117-1.509952 1.2039694-.458378.0326957-.866682-.2019437-1.271133-.3731151.067408-.1250128.202226-.3788849.269634-.5038977.46223.1673248 1.016907.4692788 1.488767.1577084.410229-.2134834.364006-.730844.466082-1.1116522-.479564.3192634-1.101649.688532-1.669807.3519591-.964905-.5135141-1.003425-2.0559797-.084742-2.6348851zm.437193.4038875c-.579714.3731151-.579714 1.334752.042371 1.6655551.496897.3461893 1.249947-.1000103 1.246095-.6943019.130965-.6692993-.676011-1.3520615-1.288466-.9712532zm5.234776-.4923389c1.068907-.5423632 2.507598.4308133 2.251446 1.6501689-.11941 1.1405014-1.511878 1.7309465-2.444042 1.0962661-.988017-.6212174-.874386-2.2694631.192596-2.746435zm.188744.5635192c-.6529.3615755-.612455 1.4059132.050075 1.7309465.600899.4038875 1.461803-.1365525 1.450247-.8327776.105928-.7558466-.895571-1.2828236-1.500322-.8981689zm6.78706-.2923568c.670234-.4404297 1.791142-.7000717 2.305373.0942404.306228.8135448.09052 1.72133.156003 2.5714171-.152151.0057698-.456452.0153862-.608603.0192327-.001926-.0827008-.007704-.2481023-.011556-.3308031-.458378.344266-1.099723.5365934-1.625509.2250231-.570084-.2538722-.631715-1.2443582-.030816-1.4905373.546973-.2269463 1.151724-.1846342 1.731437-.2211764-.084742-.8712431-1.072759-.7789259-1.638991-.4500461-.069334-.1038568-.208003-.3134937-.277338-.4173504zm.375562 1.8001843c.042371-.7673863.991869-.463509 1.494544-.5135142.096298.7789259-1.155575 1.228972-1.494544.5135142z" fill-rule="evenodd" transform="translate(-46 -20)"/></svg>