<?xml version="1.0" encoding="UTF-8"?>
<svg width="132px" height="40px" viewBox="0 0 132 40" version="1.1" xmlns="http://www.w3.org/2000/svg" xmlns:xlink="http://www.w3.org/1999/xlink">
    <!-- Generator: Sketch 50.2 (55047) - http://www.bohemiancoding.com/sketch -->
    <title>Combined Shape</title>
    <desc>Created with Sketch.</desc>
    <defs></defs>
    <g id="Desktop" stroke="none" stroke-width="1" fill="none" fill-rule="evenodd">
        <g id="Work" transform="translate(-510.000000, -2676.000000)" fill="#000000">
            <g id="Clients" transform="translate(80.000000, 1824.000000)">
                <g id="logos" transform="translate(128.000000, 448.000000)">
                    <g id="14" transform="translate(256.000000, 384.000000)">
                        <path d="M62.3904927,29.4687249 C62.3096024,30.3553541 63.0453188,30.972725 63.4748077,31.6593338 C63.8079986,32.0709144 64.071855,32.707518 64.682384,32.7267507 C67.7754743,32.9094617 70.8724165,33.009472 73.9655068,33.1787201 C74.9342642,33.2248787 75.793242,34.0653493 75.8490948,35.0366026 C75.9646523,36.1367152 75.0594516,37.2618304 73.9192838,37.2464442 C71.9008787,37.2214416 69.8863255,36.9983419 67.8659944,36.9964186 C68.6787491,38.1676924 69.7630641,39.1235595 70.7260436,40.1678971 C71.0457528,40.4506184 71.3115352,40.9198972 71.793025,40.9102808 C74.8784114,41.0564496 77.9676498,41.1564599 81.0530362,41.3083985 C82.3049096,41.3660967 83.2467036,42.7489306 82.8326224,43.9336673 C82.568766,44.7645216 81.7059364,45.3376572 80.8431067,45.3261175 C79.3986374,45.3280408 77.956094,45.1203272 76.5116247,45.1895651 C76.9083723,45.7530843 77.5034936,46.1204296 78.0466141,46.5281637 C79.7607177,47.6955909 81.4690434,48.9726447 83.5086341,49.5111613 C85.4018518,50.105453 87.6359644,50.2381588 89.3385122,49.0611153 C90.8195747,48.0244707 91.7998879,46.4127672 92.4816774,44.7683681 C93.4677685,42.4892886 93.2424313,39.8947923 92.6222724,37.5503215 C92.2890815,36.465595 91.9790021,35.3424031 91.3338058,34.3961524 C90.5499405,33.6403058 89.8758548,32.7690628 88.9918396,32.1228428 C88.0519715,31.35161 86.9272114,30.8496355 85.76971,30.5034462 C82.7786956,29.4994973 79.701013,28.7494205 76.5867371,28.2320598 C72.5980759,27.5666071 68.5516358,27.1396403 64.5013439,27.2723462 C63.3727319,27.3165815 62.3962706,28.3416864 62.3904927,29.4687249 M49.3767872,20.1946985 C52.2869114,19.867742 55.223999,20.0427599 58.1456789,20.0812254 C64.7420888,20.3485604 71.3288688,21.0563252 77.7981654,22.3910772 C80.9509604,23.0949954 84.0806439,23.9450825 87.0716584,25.1740544 C90.2109717,26.5415021 92.8919067,28.8244282 94.9680906,31.5247046 C97.8127322,35.3270169 99.657801,39.9313345 99.9621025,44.6837441 C100.089216,46.8339642 99.8600267,49.0303429 99.0549758,51.0420873 C97.9398455,54.0558574 96.2045563,57.0484714 93.394582,58.7678782 C90.5980894,60.423817 87.1486967,60.1737914 84.1172371,59.3948655 C82.9173646,59.0909882 81.7406036,58.6909473 80.6254733,58.1505073 C75.0344141,55.2002053 70.0192166,51.2940362 65.2755794,47.1455345 C58.8448021,41.4353346 52.9263298,35.1154568 47.9034285,28.128203 C47.1696381,26.9838551 46.0853231,25.9299011 46.0217665,24.4912922 C45.7964293,22.4795478 47.3487523,20.437031 49.3767872,20.1946985 Z M134.848868,28.3512836 C136.266373,27.8050738 137.992033,29.0994371 137.76477,30.6284398 C137.672324,32.1516726 135.75792,33.1075397 134.479083,32.2843785 C132.8555,31.5439181 133.144394,28.78979 134.848868,28.3512836 Z M112.844843,28.7974446 C115.404442,28.7993679 117.965968,28.7935981 120.527494,28.7993679 C124.009628,28.7397464 127.693987,30.3264473 129.423499,33.4652302 C130.79093,35.8385501 131.102935,38.7253841 130.559814,41.3852718 C130.026324,43.9816914 128.41237,46.3800139 126.089663,47.701303 C124.458376,48.607165 122.594048,49.0725972 120.727793,49.0822136 C118.098859,49.0956765 115.471851,49.0841369 112.844843,49.0879834 L112.844843,28.7974446 Z M116.613945,31.778519 L116.613945,46.0588271 C117.917819,46.0530573 119.221693,46.0665202 120.523642,46.0530573 C121.989297,46.0261315 123.5031,45.664556 124.652898,44.7183053 C126.103145,43.5393384 126.784935,41.6564534 126.929382,39.8408829 C127.07768,37.854141 126.781083,35.7231536 125.563877,34.0864476 C124.529637,32.6055268 122.703827,31.813138 120.928093,31.778519 C119.489402,31.7765958 118.05071,31.7804423 116.613945,31.778519 Z M164.699346,32.2593375 C164.69742,31.1053732 164.69742,29.9514089 164.699346,28.7974446 L176.834814,28.7974446 C176.832888,29.7802375 176.834814,30.7611072 176.832888,31.7439001 C175.290195,33.4363811 173.789873,35.1654042 172.245254,36.8540386 C173.72439,37.004054 175.247824,37.509875 176.257026,38.6561462 C177.381786,39.7601054 177.892166,41.3795019 177.743867,42.9354305 C177.7612,45.0221826 176.75585,47.1454768 174.941596,48.2436662 C172.909709,49.6265001 170.300035,49.7842085 167.946513,49.3303159 C166.319077,49.0206688 164.845719,48.2244335 163.457102,47.3551137 C163.990593,46.3146226 164.531787,45.277978 165.06913,44.2394101 C166.542489,45.2375892 168.245037,46.0165151 170.057364,46.0395944 C171.205236,46.0915228 172.457109,45.8780394 173.335346,45.081804 C174.323363,44.1393999 174.410032,42.4142233 173.537572,41.3679623 C173.156232,40.8986835 172.640075,40.5448011 172.071917,40.3524737 C170.542706,39.8312665 168.849788,39.8139571 167.30902,40.2947755 C167.307094,39.3139059 167.30902,38.3349595 167.307094,37.3540898 C168.770823,35.6558391 170.234552,33.9575883 171.698281,32.2593375 L164.699346,32.2593375 Z M155.618468,34.3787852 C157.326794,34.0441356 159.316309,34.6115014 160.317808,36.1020386 C161.124785,37.1617625 161.325085,38.5369032 161.344344,39.8351131 C161.34627,42.8700392 161.344344,45.9068885 161.344344,48.9437379 L157.864136,48.9437379 C157.864136,45.9068885 157.867988,42.8700392 157.864136,39.8312665 C157.850655,39.0754199 157.752431,38.2426423 157.207384,37.6675835 C156.244405,36.6713276 154.418596,36.7617215 153.555766,37.8426014 C153.089684,38.3965042 152.933681,39.1408112 152.937533,39.848576 C152.935607,42.8815788 152.937533,45.9126583 152.935607,48.9437379 L149.457325,48.9437379 C149.455399,45.9203514 149.457325,42.8950417 149.457325,39.8716553 C149.443843,39.040801 149.362953,38.092627 148.715831,37.4906423 C147.822186,36.7771077 146.458607,36.8155732 145.55148,37.4925656 C145.104657,37.8445247 144.449831,38.233026 144.569241,38.8984787 C144.573093,42.2468984 144.569241,45.5953182 144.571167,48.9437379 L141.173775,48.9437379 L141.173775,34.6153479 C141.994233,34.644197 142.826248,34.5422635 143.639003,34.678816 C144.315014,34.9076855 144.191753,35.7827751 144.357385,36.3386013 C145.487923,34.8922994 147.402327,34.0095167 149.233914,34.4595627 C150.474231,34.7749796 151.290838,35.8750923 151.774254,36.9944376 C152.450265,35.486591 154.000662,34.5326471 155.618468,34.3787852 Z M133.801184,49.0399785 L133.801184,34.6154249 L137.281392,34.6154249 L137.281392,49.0399785 L133.801184,49.0399785 Z M139.606025,52.9191256 C139.176536,52.6960259 139.136091,52.3190642 139.392244,51.9305629 C139.571358,52.0805782 140.022032,52.0498059 139.989291,52.3690693 C140.079811,52.6364044 139.72736,52.7383379 139.606025,52.9191256 Z M113.472705,52.4037652 C114.187236,51.9806449 115.053918,52.3249109 115.737633,52.6460977 C115.633632,52.8249621 115.52963,53.0019033 115.425628,53.1807678 C114.888285,52.9307422 113.684561,52.592246 113.686487,53.5173407 C114.154495,54.1327883 115.150216,53.961617 115.660595,54.5578318 C116.030379,55.0559598 115.912896,55.9041235 115.315848,56.1791517 C114.481908,56.6138116 113.484261,56.3214739 112.792842,55.7541082 C112.923807,55.5906299 113.056698,55.4271516 113.191515,55.2655966 C113.686487,55.5713971 114.271978,55.9060468 114.870952,55.6964099 C115.240736,55.6137092 115.269625,55.0174943 114.934508,54.8694022 C114.343239,54.5578318 113.547818,54.6059137 113.106773,54.0423945 C112.777434,53.519264 112.892992,52.7037959 113.472705,52.4037652 Z M128.29298,52.1171781 L128.915065,52.1171781 L128.915065,56.3483805 C128.75521,56.3483805 128.437427,56.3464573 128.279498,56.3464573 C128.289128,56.2560634 128.310313,56.0771989 128.319943,55.9887283 C127.772971,56.5022424 126.865844,56.5445545 126.303464,56.0387335 C125.484931,55.3271221 125.710269,53.8115824 126.715619,53.3865389 C127.266444,53.1692089 127.840379,53.4326974 128.300684,53.7346514 C128.289128,53.1961347 128.291054,52.6556948 128.29298,52.1171781 Z M126.937105,53.9269788 C126.239907,54.2808612 126.268797,55.4309789 127.006439,55.7233165 C127.601561,56.1041248 128.296832,55.4732909 128.250609,54.8463037 C128.343055,54.1539251 127.559189,53.5865593 126.937105,53.9269788 Z M140.921474,52.1286985 C141.077477,52.1306218 141.391408,52.1363916 141.549337,52.1402382 C141.545485,53.5499979 141.545485,54.9597576 141.549337,56.367594 C141.391408,56.3695173 141.079403,56.3695173 140.9234,56.3695173 C140.925326,54.9559111 140.929178,53.5423048 140.921474,52.1286985 Z M145.145045,52.3113519 C145.543718,51.897848 146.146543,52.0767125 146.593366,52.2978889 C146.531735,52.4017457 146.408474,52.6094593 146.344917,52.7133161 C146.084913,52.6767739 145.792167,52.5325283 145.562978,52.7287023 C145.484014,52.9075667 145.418531,53.092201 145.362678,53.2806819 C145.651572,53.3018379 145.940466,53.3191473 146.231286,53.3345335 C146.22936,53.4633929 146.227434,53.7191883 146.225508,53.8480476 L145.439717,53.8480476 L145.439717,56.3483036 L144.819558,56.3483036 C144.817632,55.515526 144.817632,54.6827485 144.817632,53.8480476 C144.727112,53.8499709 144.544146,53.8499709 144.451699,53.8499709 C144.447848,53.7211116 144.436292,53.4653162 144.43244,53.3364568 C144.517182,53.330687 144.688592,53.3210706 144.773335,53.3172241 C144.854225,52.9729581 144.808002,52.5306051 145.145045,52.3113519 Z M164.697381,52.1344299 C164.853384,52.1325066 165.165389,52.1305834 165.321392,52.1286601 C165.323318,53.5422663 165.309836,54.9558726 165.329096,56.3694788 C165.113389,56.3714021 164.901533,56.3733254 164.689678,56.3771719 C164.708937,54.9635657 164.695455,53.5480362 164.697381,52.1344299 Z M170.082382,52.1171397 L170.704467,52.1171397 C170.704467,52.6825822 170.708319,53.2499479 170.690985,53.8173137 C171.103141,53.355728 171.809968,53.0614671 172.380051,53.4307357 C173.458588,53.9327102 173.385402,55.7040453 172.341532,56.2098664 C171.792634,56.5618255 171.168623,56.1906336 170.687133,55.9059891 C170.692911,56.0521579 170.700615,56.20025 170.710245,56.3483421 L170.082382,56.3483421 L170.082382,52.1171397 Z M171.072325,53.9884851 C170.509945,54.4173752 170.590835,55.4655594 171.266847,55.7463574 C171.927451,56.0925467 172.667019,55.3097742 172.516794,54.6462447 C172.449386,54.001948 171.60389,53.5922907 171.072325,53.9884851 Z M177.372137,52.1402382 C177.52814,52.1363916 177.842071,52.1286985 177.998074,52.1267753 C177.994222,53.5384583 177.988444,54.9520645 178,56.3656708 C177.842071,56.3695173 177.526214,56.3752871 177.368285,56.3791337 C177.377915,54.9655274 177.370211,53.5519212 177.372137,52.1402382 Z M133.552697,52.4056307 C133.758775,52.4056307 133.964852,52.4037075 134.174782,52.4037075 C134.172856,52.7075847 134.172856,53.0133853 134.174782,53.3172625 C134.436712,53.3191858 134.700569,53.3191858 134.966351,53.3211091 C134.964425,53.453815 134.960573,53.7173035 134.958647,53.8500094 C134.710198,53.8480861 134.463676,53.8480861 134.217153,53.8480861 C134.290339,54.4904596 134.014927,55.2597691 134.417453,55.8175185 C134.677457,55.800209 134.935536,55.7444341 135.19554,55.7001988 C135.478656,56.3637283 134.517603,56.4791247 134.105447,56.2675646 C133.240692,55.7655901 133.639365,54.6193189 133.556549,53.8057741 C133.462177,53.8038508 133.273433,53.798081 133.180987,53.7961577 C133.179061,53.6769147 133.179061,53.4422753 133.179061,53.3249556 L133.554623,53.313416 C133.552697,53.011462 133.552697,52.7075847 133.552697,52.4056307 Z M116.500294,55.0693457 C116.274957,53.9057651 117.601942,52.9422049 118.653516,53.4364863 C119.364195,53.6845886 119.508642,54.480824 119.499012,55.1405069 C118.692035,55.1539698 117.885058,55.1289672 117.078082,55.1674327 C117.370827,55.9905939 118.412771,56.0579085 119.004041,55.5078522 C119.075301,55.6194021 119.215896,55.8463484 119.287157,55.9598215 C118.416623,56.8310646 116.575406,56.3944814 116.500294,55.0693457 Z M117.072304,54.5904506 C117.702092,54.628916 118.333807,54.6269928 118.965521,54.5942971 C118.824926,54.3346551 118.734406,53.9923124 118.405067,53.9173047 C117.852317,53.6749722 117.251418,54.0557804 117.072304,54.5904506 Z M120.465844,53.834604 C121.03015,53.1806909 122.183799,53.1249159 122.755809,53.7980618 C123.106334,54.1538674 123.044703,54.6885375 123.102482,55.1443534 C122.291653,55.1520465 121.480824,55.1328138 120.671921,55.1655094 C120.881851,55.4655402 121.087928,55.8540415 121.509713,55.8598113 C121.919943,55.9578983 122.276245,55.6982563 122.620992,55.5213151 C122.694178,55.6386348 122.838625,55.8732742 122.911812,55.9905939 C122.299357,56.4156374 121.434601,56.5945019 120.779775,56.1617653 C119.982428,55.7097959 119.874574,54.4923636 120.465844,53.834604 Z M120.643032,54.6019902 C121.27282,54.6250695 121.904535,54.6250695 122.53625,54.5981437 C122.387951,54.2327216 122.139502,53.8422971 121.690754,53.85576 C121.1823,53.7826756 120.802886,54.1615605 120.643032,54.6019902 Z M130.268975,53.6211783 C130.885282,53.1653624 131.867521,53.2115209 132.356715,53.8346617 C132.674498,54.1923906 132.612868,54.7001349 132.66872,55.1405646 C131.859818,55.1540275 131.050915,55.1309482 130.243938,55.1655671 C130.532832,55.9906516 131.559368,56.0368102 132.166045,55.5386823 C132.273899,55.6829278 132.383678,55.8290966 132.495384,55.9771887 C131.900263,56.4118486 131.045137,56.5926363 130.388385,56.1849023 C129.454295,55.7060071 129.415775,54.1962371 130.268975,53.6211783 Z M130.253568,54.6001246 C130.459645,53.6307946 131.936856,53.6211783 132.154489,54.5905083 C131.520849,54.6270505 130.885282,54.6251272 130.253568,54.6001246 Z M135.896666,53.6788188 C136.588086,53.1941538 137.839959,52.971054 138.265596,53.8961487 C138.456266,54.6962306 138.319523,55.5328547 138.358042,56.3483228 C138.148112,56.3483228 137.940109,56.3483228 137.734031,56.3502461 L137.759069,56.0348292 C137.283357,56.363709 136.634309,56.5733459 136.100818,56.2483126 C135.553846,55.9886706 135.488363,55.050113 136.050743,54.7770081 C136.599641,54.5269825 137.221726,54.5846807 137.809144,54.5423687 C137.72055,53.6692024 136.740236,53.7653661 136.168227,54.0923226 C136.100818,53.9884659 135.966001,53.7826756 135.896666,53.6788188 Z M136.326155,55.6040159 C136.106596,54.748159 137.252541,54.9712588 137.757143,54.9577959 C137.845737,55.7117192 136.805719,56.1213765 136.326155,55.6040159 Z M139.267095,53.3191858 L139.891105,53.3191858 C139.891105,54.3289046 139.889179,55.3367 139.891105,56.3464188 C139.683102,56.3483421 139.475098,56.3483421 139.269021,56.3502653 C139.267095,55.3405466 139.269021,54.3289046 139.267095,53.3191858 Z M146.930409,53.3191858 C147.090263,53.3191858 147.408047,53.3211091 147.565975,53.3211091 C147.552494,53.4557382 147.527456,53.7269199 147.513974,53.861549 C147.81635,53.5999838 148.164949,53.3999633 148.536659,53.2499479 C148.530881,53.4038099 148.517399,53.7096104 148.511621,53.8634723 C148.241987,53.9846385 147.883759,54.023104 147.747015,54.3212115 C147.411899,54.9405056 147.598717,55.6790428 147.552494,56.3483421 L146.930409,56.3483421 L146.930409,53.3191858 Z M149.886775,53.3999441 C150.749605,52.9979798 151.9437,53.498031 152.113184,54.4731309 C152.384744,55.4847729 151.419839,56.6387372 150.356709,56.3714021 C149.592104,56.3406297 148.981575,55.6040159 149.006612,54.8558624 C148.960389,54.2442613 149.355211,53.6711257 149.886775,53.3999441 Z M150.075519,53.96154 C149.418767,54.3211922 149.451509,55.3712997 150.115964,55.696333 C150.71879,56.1059903 151.581619,55.5617038 151.568138,54.8635554 C151.672139,54.1096321 150.68027,53.5884249 150.075519,53.96154 Z M152.935588,53.3173202 C153.093516,53.3192435 153.4113,53.3211668 153.571154,53.3211668 C153.559599,53.4577192 153.538413,53.7308241 153.526857,53.8673765 C153.958272,53.1519187 155.015624,53.0461386 155.499039,53.7712129 C156.053716,53.2038471 157.155364,53.0230593 157.600261,53.8135249 C157.956563,54.6001439 157.711966,55.5098524 157.781301,56.3483998 L157.159216,56.3483998 C157.139956,55.6637143 157.224699,54.9674892 157.08603,54.2924201 C156.85684,53.6538931 155.720525,53.8366042 155.655042,54.4905173 C155.593411,55.1232743 155.637708,55.759878 155.630005,56.3964816 L155.005994,56.3964816 C154.984808,55.6944867 155.071476,54.9809521 154.944363,54.2866502 C154.734434,53.7712129 153.931309,53.8673765 153.667452,54.2770339 C153.534561,54.9578728 153.619303,55.6579445 153.60197,56.3483998 L152.935588,56.3483998 L152.935588,53.3173202 Z M161.353955,53.4922805 C161.924039,53.1595541 162.617384,53.3691909 163.07191,53.798081 C163.062281,53.678838 163.041095,53.4403521 163.029539,53.3211091 C163.199024,53.3211091 163.536067,53.3191858 163.705551,53.3191858 C163.682439,54.346214 163.755626,55.3770888 163.665106,56.4021937 C163.603475,57.1407309 162.860055,57.6427054 162.155154,57.6061631 C161.696776,57.6388588 161.288472,57.4042194 160.884021,57.233048 C160.951429,57.1080352 161.086247,56.8541631 161.153655,56.7291503 C161.615885,56.8964751 162.170562,57.1984291 162.642422,56.8868587 C163.052651,56.6733753 163.006428,56.1560147 163.108504,55.7752065 C162.62894,56.0944699 162.006855,56.4637385 161.438697,56.1271656 C160.473792,55.6136515 160.435272,54.0711859 161.353955,53.4922805 Z M161.791148,53.896168 C161.211434,54.2692831 161.211434,55.23092 161.833519,55.5617231 C162.330416,55.9079124 163.083466,55.4617128 163.079614,54.8674212 C163.210579,54.1981219 162.403603,53.5153597 161.791148,53.896168 Z M167.025924,53.4038291 C168.094831,52.8614659 169.533522,53.8346424 169.27737,55.053998 C169.15796,56.1944994 167.765492,56.7849445 166.833328,56.1502641 C165.845311,55.5290467 165.958942,53.880801 167.025924,53.4038291 Z M167.214668,53.9673483 C166.561768,54.3289238 166.602213,55.3732615 167.264743,55.6982948 C167.865642,56.1021823 168.726546,55.5617423 168.71499,54.8655172 C168.820918,54.1096706 167.819419,53.5826936 167.214668,53.9673483 Z M174.001728,53.6749915 C174.671962,53.2345618 175.79287,52.9749198 176.307101,53.7692319 C176.613329,54.5827767 176.397621,55.4905619 176.463104,56.340649 C176.310953,56.3464188 176.006652,56.3560352 175.854501,56.3598817 C175.852575,56.2771809 175.846797,56.1117794 175.842945,56.0290786 C175.384567,56.3733446 174.743222,56.565672 174.217436,56.2541017 C173.647352,56.0002295 173.585721,55.0097435 174.18662,54.7635644 C174.733593,54.5366181 175.338344,54.5789302 175.918057,54.542388 C175.833315,53.6711449 174.845298,53.7634621 174.279066,54.0923419 C174.209732,53.9884851 174.071063,53.7788482 174.001728,53.6749915 Z M174.37729,55.4751758 C174.419661,54.7077895 175.369159,55.0116668 175.871834,54.9616616 C175.968132,55.7405875 174.716259,56.1906336 174.37729,55.4751758 Z" id="Combined-Shape"></path>
                    </g>
                </g>
            </g>
        </g>
    </g>
</svg>