<?xml version="1.0" encoding="UTF-8" standalone="no"?>
<!DOCTYPE svg PUBLIC "-//W3C//DTD SVG 1.1//EN" "http://www.w3.org/Graphics/SVG/1.1/DTD/svg11.dtd">
<svg width="100%" height="100%" viewBox="0 0 497 311" version="1.1" xmlns="http://www.w3.org/2000/svg" xmlns:xlink="http://www.w3.org/1999/xlink" xml:space="preserve" xmlns:serif="http://www.serif.com/" style="fill-rule:evenodd;clip-rule:evenodd;stroke-linejoin:round;stroke-miterlimit:1.41421;">
    <g transform="matrix(1,0,0,1,0,-2.11992)">
        <g transform="matrix(4.16667,0,0,4.16667,0,0)">
            <path d="M28.296,0.509C17.633,0.471 6.433,5.305 0,10.814C0,10.814 0,31.954 0,45.624C0,59.908 10.305,63.638 28.296,75C46.286,63.638 56.592,59.908 56.592,45.624C56.592,31.954 56.592,10.814 56.592,10.814C50.158,5.305 38.958,0.471 28.296,0.509Z" style="fill-rule:nonzero;"/>
        </g>
        <g transform="matrix(4.16667,0,0,4.16667,0,0)">
            <path d="M14.873,21.131C15.105,20.78 15.345,20.418 15.613,20.031C18.568,15.766 23.791,13.674 29.585,14.436C35.093,15.159 39.615,18.31 41.105,22.462C42.426,26.143 41.904,29.116 41.484,31.505C41.122,33.569 40.809,35.351 41.904,36.78C42.349,37.361 42.983,37.81 43.853,38.146C44.579,38.427 45.373,37.943 45.461,37.174C45.528,36.592 45.201,36.039 44.659,35.815C44.287,35.661 44.022,35.482 43.865,35.278C43.43,34.709 43.645,33.484 43.918,31.933C44.363,29.398 44.973,25.925 43.431,21.628C41.631,16.614 36.323,12.829 29.907,11.986C24.322,11.253 18.62,12.849 14.794,17.097C13.978,18.015 13.476,18.679 12.99,19.806C12.673,20.541 12.797,21.072 13.33,21.438C13.855,21.798 14.525,21.658 14.873,21.131ZM18.804,24.382C19.365,23.419 19.895,22.509 20.806,21.662C22.963,19.66 25.886,18.693 28.827,19.009C31.602,19.308 34.046,20.705 35.533,22.843C37.593,25.803 37.076,28.742 36.576,31.584C36.149,34.013 35.707,36.526 37.079,38.725C38.115,40.385 40.077,41.643 43.141,42.583C43.789,42.782 44.474,42.396 44.638,41.737C44.804,41.074 44.423,40.398 43.769,40.196C41.391,39.46 39.877,38.541 39.175,37.417C38.304,36.021 38.631,34.163 39.009,32.012C39.541,28.989 40.203,25.228 37.561,21.432C35.665,18.706 32.578,16.928 29.092,16.553C25.44,16.16 21.807,17.362 19.125,19.852C17.944,20.948 17.267,22.112 16.669,23.139C15.728,24.756 14.935,26.113 12.257,26.997C11.831,27.138 11.496,27.5 11.426,28.035C11.312,28.92 12.161,29.625 13.012,29.346C16.6,28.167 17.717,26.25 18.804,24.382ZM29.908,36.31C31.476,34.517 32.725,32.529 33.618,30.402C34.516,28.265 34.361,26.111 33.183,24.337C31.95,22.483 29.719,21.331 27.361,21.331C26.028,21.331 24.745,21.7 23.651,22.398C22.455,23.163 21.51,24.31 20.919,25.718C19.684,28.656 16.445,31.018 12.039,32.278C11.489,32.436 11.112,32.943 11.122,33.516C11.136,34.315 11.905,34.884 12.673,34.664C17.826,33.192 21.669,30.311 23.196,26.675C24.044,24.655 25.718,23.801 27.36,23.801C30.086,23.801 32.722,26.155 31.34,29.446C28.422,36.393 21.589,40.865 13.867,42.83C13.527,42.917 13.238,43.142 13.071,43.451C12.904,43.76 12.872,44.126 12.986,44.458C13.191,45.054 13.817,45.391 14.428,45.236C18.214,44.277 21.716,42.773 24.679,40.824C26.679,39.508 28.438,37.99 29.908,36.31ZM28.673,28.353C28.938,27.724 28.642,27 28.013,26.736C27.384,26.472 26.66,26.767 26.395,27.396C24.377,32.201 19.276,35.907 12.555,37.54C11.916,37.695 11.504,38.317 11.61,38.966C11.725,39.661 12.407,40.117 13.099,39.95C19.72,38.345 26.044,34.612 28.673,28.353ZM24.181,55.539C23.746,55.742 23.477,56.187 23.498,56.666C23.54,57.621 24.632,58.057 25.319,57.734C28.562,56.21 27.436,56.26 31.094,57.886C31.755,58.18 32.851,57.781 32.902,56.821C32.928,56.329 32.648,55.872 32.197,55.672C27.434,53.565 28.711,53.423 24.181,55.539ZM25.506,49.427C24.289,50.058 22.454,51.009 19.302,52.107C18.893,52.249 18.586,52.592 18.491,53.015C18.285,53.929 19.147,54.775 19.998,54.481C23.379,53.312 25.346,52.293 26.643,51.621C27.631,51.108 28.237,51.003 29.371,51.618C30.806,52.395 33.069,53.621 36.226,54.898C37.119,55.258 38.029,54.464 37.861,53.525C37.784,53.1 37.495,52.745 37.096,52.583C34.083,51.362 31.922,50.191 30.548,49.446C28.385,48.274 28.133,48.066 25.506,49.427ZM26.009,43.527C24.389,44.472 21.674,46.057 16.034,47.732C15.252,47.964 14.896,48.869 15.305,49.57C15.542,50.011 16.111,50.286 16.674,50.119C21.831,48.594 24.693,47.124 26.486,46.104C28.266,45.092 28.433,45.075 30.118,46.317C31.752,47.521 34.527,49.274 39.456,51.08C40.021,51.287 40.623,51.033 40.882,50.601C41.319,49.929 41.018,49.023 40.263,48.746C34.379,46.585 31.818,44.541 30.544,43.523C28.893,42.205 28.338,42.167 26.009,43.527ZM42.399,44.701C43.068,44.919 43.403,45.659 43.134,46.302C42.877,46.917 42.189,47.23 41.557,47.021C36.563,45.375 33.243,43.031 31.472,39.918C31.135,39.325 31.342,38.571 31.935,38.233C32.528,37.896 33.282,38.103 33.62,38.697C35.089,41.28 37.98,43.262 42.399,44.701Z" style="fill:rgb(235,72,49);fill-rule:nonzero;"/>
        </g>
        <g transform="matrix(4.16667,0,0,4.16667,0,0)">
            <path d="M68.115,11.034C68.115,10.925 68.211,10.831 68.319,10.831L74.62,10.831C74.73,10.831 74.824,10.925 74.824,11.034L74.824,11.301C74.824,11.412 74.73,11.506 74.62,11.506L68.869,11.506L68.869,15.842L73.849,15.842C73.96,15.842 74.054,15.936 74.054,16.047L74.054,16.313C74.054,16.423 73.96,16.517 73.849,16.517L68.869,16.517L68.869,21.168L74.62,21.168C74.73,21.168 74.824,21.262 74.824,21.373L74.824,21.624C74.824,21.735 74.73,21.829 74.62,21.829L68.319,21.829C68.211,21.829 68.115,21.735 68.115,21.624L68.115,11.034Z" style="fill:rgb(35,31,32);fill-rule:nonzero;"/>
        </g>
        <g transform="matrix(4.16667,0,0,4.16667,0,0)">
            <path d="M78.617,10.782C78.634,10.721 78.697,10.674 78.76,10.674L78.932,10.674C79.01,10.674 79.059,10.705 79.089,10.782L82.327,20.431C82.341,20.431 82.341,20.431 82.357,20.431L85.609,10.782C85.642,10.705 85.689,10.674 85.766,10.674L85.94,10.674C86.001,10.674 86.065,10.721 86.081,10.782L88.313,21.624C88.343,21.782 88.28,21.829 88.139,21.829L87.761,21.829C87.667,21.829 87.589,21.749 87.573,21.655L85.799,12.448C85.783,12.448 85.766,12.448 85.766,12.448L82.592,21.859C82.562,21.953 82.468,21.986 82.374,21.986L82.31,21.986C82.231,21.986 82.137,21.97 82.106,21.859L78.932,12.448C78.932,12.448 78.916,12.448 78.901,12.448L77.125,21.655C77.109,21.749 77.031,21.829 76.937,21.829L76.559,21.829C76.418,21.829 76.355,21.782 76.388,21.624L78.617,10.782Z" style="fill:rgb(35,31,32);fill-rule:nonzero;"/>
        </g>
        <g transform="matrix(4.16667,0,0,4.16667,0,0)">
            <path d="M94.409,21.168C95.932,21.168 97.001,20.257 97.001,18.826C97.001,17.428 95.918,16.597 94.424,16.597L91.376,16.597L91.376,21.168L94.409,21.168ZM94.315,15.92C95.791,15.92 96.655,14.994 96.655,13.705C96.655,12.34 95.713,11.522 94.205,11.522L91.376,11.522L91.376,15.92L94.315,15.92ZM95.807,16.235C96.89,16.55 97.802,17.367 97.802,18.843C97.802,20.602 96.388,21.829 94.346,21.829L90.857,21.829C90.749,21.829 90.653,21.735 90.653,21.624L90.653,11.034C90.653,10.925 90.749,10.831 90.857,10.831L94.205,10.831C96.136,10.831 97.456,11.945 97.456,13.674C97.456,14.9 96.766,15.795 95.807,16.204L95.807,16.235Z" style="fill:rgb(35,31,32);fill-rule:nonzero;"/>
        </g>
        <g transform="matrix(4.16667,0,0,4.16667,0,0)">
            <path d="M100.463,11.034C100.463,10.925 100.559,10.831 100.668,10.831L106.968,10.831C107.079,10.831 107.173,10.925 107.173,11.034L107.173,11.301C107.173,11.412 107.079,11.506 106.968,11.506L101.217,11.506L101.217,15.842L106.198,15.842C106.308,15.842 106.402,15.936 106.402,16.047L106.402,16.313C106.402,16.423 106.308,16.517 106.198,16.517L101.217,16.517L101.217,21.168L106.968,21.168C107.079,21.168 107.173,21.262 107.173,21.373L107.173,21.624C107.173,21.735 107.079,21.829 106.968,21.829L100.668,21.829C100.559,21.829 100.463,21.735 100.463,21.624L100.463,11.034Z" style="fill:rgb(35,31,32);fill-rule:nonzero;"/>
        </g>
        <g transform="matrix(4.16667,0,0,4.16667,0,0)">
            <path d="M113.623,16.864C115.131,16.864 116.402,15.701 116.402,14.146C116.402,12.652 115.131,11.553 113.607,11.553L110.306,11.553L110.306,16.864L113.623,16.864ZM109.552,11.034C109.552,10.925 109.631,10.831 109.756,10.831L113.654,10.831C115.571,10.831 117.156,12.229 117.156,14.146C117.156,15.732 116.057,17.052 114.565,17.475L116.858,21.545C116.938,21.671 116.905,21.829 116.748,21.829L116.339,21.829C116.151,21.829 116.088,21.782 116.01,21.641L113.764,17.569C113.56,17.586 113.386,17.586 113.181,17.586L110.292,17.586L110.292,21.624C110.292,21.735 110.198,21.829 110.04,21.829L109.756,21.829C109.648,21.829 109.552,21.735 109.552,21.624L109.552,11.034Z" style="fill:rgb(35,31,32);fill-rule:nonzero;"/>
        </g>
        <g transform="matrix(4.16667,0,0,4.16667,0,0)">
            <path d="M67.409,36.456C67.252,36.331 67.189,36.235 67.33,35.984L67.896,35.011C68.021,34.79 68.288,34.79 68.429,34.9C69.073,35.387 69.78,35.875 70.802,35.875C71.62,35.875 72.233,35.34 72.233,34.665C72.233,33.864 71.556,33.314 70.236,32.779C68.76,32.182 67.283,31.24 67.283,29.386C67.283,27.986 68.319,26.37 70.818,26.37C72.421,26.37 73.645,27.185 73.96,27.422C74.117,27.516 74.164,27.784 74.054,27.939L73.457,28.837C73.332,29.025 73.095,29.149 72.907,29.025C72.233,28.599 71.587,28.16 70.724,28.16C69.827,28.16 69.341,28.663 69.341,29.26C69.341,29.997 69.923,30.5 71.194,31.019C72.719,31.632 74.479,32.544 74.479,34.571C74.479,36.188 73.081,37.682 70.865,37.682C68.885,37.682 67.863,36.848 67.409,36.456Z" style="fill:rgb(35,31,32);fill-rule:nonzero;"/>
        </g>
        <g transform="matrix(4.16667,0,0,4.16667,0,0)">
            <path d="M76.418,26.826C76.418,26.668 76.561,26.527 76.717,26.527L78.178,26.527C78.335,26.527 78.478,26.668 78.478,26.826L78.478,37.226C78.478,37.383 78.335,37.524 78.178,37.524L76.717,37.524C76.561,37.524 76.418,37.383 76.418,37.226L76.418,26.826Z" style="fill:rgb(35,31,32);fill-rule:nonzero;"/>
        </g>
        <g transform="matrix(4.16667,0,0,4.16667,0,0)">
            <path d="M82.415,26.605C82.431,26.478 82.525,26.37 82.697,26.37L82.95,26.37C83.075,26.37 83.169,26.431 83.216,26.527L86.672,33.942C86.704,33.942 86.704,33.942 86.719,33.942L90.177,26.527C90.224,26.431 90.301,26.37 90.442,26.37L90.694,26.37C90.867,26.37 90.961,26.478 90.978,26.605L92.831,37.163C92.879,37.383 92.752,37.524 92.549,37.524L91.119,37.524C90.978,37.524 90.851,37.398 90.82,37.287L89.893,31.334C89.878,31.334 89.846,31.334 89.846,31.334L87.097,37.508C87.066,37.602 86.972,37.682 86.829,37.682L86.547,37.682C86.406,37.682 86.326,37.602 86.279,37.508L83.5,31.334C83.5,31.334 83.467,31.334 83.453,31.334L82.541,37.287C82.525,37.398 82.398,37.524 82.257,37.524L80.843,37.524C80.639,37.524 80.514,37.383 80.545,37.163L82.415,26.605Z" style="fill:rgb(35,31,32);fill-rule:nonzero;"/>
        </g>
        <g transform="matrix(4.16667,0,0,4.16667,0,0)">
            <path d="M98.82,31.616C99.7,31.616 100.375,30.909 100.375,29.983C100.375,29.119 99.7,28.458 98.82,28.458L96.935,28.458L96.935,31.616L98.82,31.616ZM94.892,26.826C94.892,26.668 95.018,26.527 95.192,26.527L98.883,26.527C100.817,26.527 102.403,28.097 102.403,29.997C102.403,31.947 100.817,33.533 98.899,33.533L96.935,33.533L96.935,37.226C96.935,37.383 96.794,37.524 96.637,37.524L95.192,37.524C95.018,37.524 94.892,37.383 94.892,37.226L94.892,26.826Z" style="fill:rgb(35,31,32);fill-rule:nonzero;"/>
        </g>
        <g transform="matrix(4.16667,0,0,4.16667,0,0)">
            <path d="M104.136,26.826C104.136,26.668 104.263,26.527 104.434,26.527L105.881,26.527C106.039,26.527 106.18,26.668 106.18,26.826L106.18,35.638L110.185,35.638C110.359,35.638 110.484,35.779 110.484,35.936L110.484,37.226C110.484,37.383 110.359,37.524 110.185,37.524L104.434,37.524C104.263,37.524 104.136,37.383 104.136,37.226L104.136,26.826Z" style="fill:rgb(35,31,32);fill-rule:nonzero;"/>
        </g>
        <g transform="matrix(4.16667,0,0,4.16667,0,0)">
            <path d="M112.063,26.826C112.063,26.668 112.19,26.527 112.364,26.527L118.757,26.527C118.93,26.527 119.055,26.668 119.055,26.826L119.055,28.113C119.055,28.27 118.93,28.411 118.757,28.411L114.107,28.411L114.107,30.989L117.988,30.989C118.144,30.989 118.287,31.13 118.287,31.287L118.287,32.591C118.287,32.763 118.144,32.889 117.988,32.889L114.107,32.889L114.107,35.638L118.757,35.638C118.93,35.638 119.055,35.779 119.055,35.936L119.055,37.226C119.055,37.383 118.93,37.524 118.757,37.524L112.364,37.524C112.19,37.524 112.063,37.383 112.063,37.226L112.063,26.826Z" style="fill:rgb(35,31,32);fill-rule:nonzero;"/>
        </g>
        <g transform="matrix(4.16667,0,0,4.16667,0,0)">
            <path d="M74.352,49.574L71.667,43.323L71.634,43.323L68.901,49.574L74.352,49.574ZM66.592,53.032L71.432,42.174C71.462,42.113 71.54,42.066 71.62,42.066L71.667,42.066C71.744,42.066 71.824,42.08 71.871,42.174L76.661,53.032C76.694,53.126 76.694,53.22 76.52,53.22L76.112,53.22C76.003,53.22 75.924,53.141 75.893,53.079L74.62,50.187L68.617,50.187L67.36,53.079C67.33,53.141 67.252,53.22 67.142,53.22L66.702,53.22C66.592,53.22 66.545,53.157 66.592,53.032Z" style="fill:rgb(35,31,32);fill-rule:nonzero;"/>
        </g>
        <g transform="matrix(4.16667,0,0,4.16667,0,0)">
            <path d="M78.049,42.425C78.049,42.317 78.143,42.223 78.254,42.223L78.585,42.223C78.695,42.223 78.789,42.317 78.789,42.425L78.789,49.198C78.789,51.224 80.06,52.654 82.151,52.654C84.256,52.654 85.544,51.24 85.544,49.213L85.544,42.425C85.544,42.301 85.607,42.223 85.764,42.223L86.079,42.223C86.187,42.223 86.283,42.317 86.283,42.425L86.283,49.276C86.283,51.679 84.648,53.378 82.151,53.378C79.668,53.378 78.049,51.679 78.049,49.276L78.049,42.425Z" style="fill:rgb(35,31,32);fill-rule:nonzero;"/>
        </g>
        <g transform="matrix(4.16667,0,0,4.16667,0,0)">
            <path d="M91.362,42.897L88.362,42.897C88.204,42.897 88.157,42.803 88.157,42.662L88.157,42.425C88.157,42.301 88.251,42.223 88.362,42.223L95.116,42.223C95.243,42.223 95.321,42.317 95.321,42.425L95.321,42.693C95.321,42.803 95.243,42.897 95.116,42.897L92.1,42.897L92.1,53.016C92.1,53.126 92.006,53.22 91.848,53.22L91.566,53.22C91.456,53.22 91.362,53.126 91.362,53.016L91.362,42.897Z" style="fill:rgb(35,31,32);fill-rule:nonzero;"/>
        </g>
        <g transform="matrix(4.16667,0,0,4.16667,0,0)">
            <path d="M97.309,42.425C97.309,42.317 97.405,42.223 97.514,42.223L97.845,42.223C97.969,42.223 98.049,42.317 98.049,42.425L98.049,47.251L105.103,47.251L105.103,42.425C105.103,42.317 105.199,42.223 105.307,42.223L105.638,42.223C105.763,42.223 105.842,42.317 105.842,42.425L105.842,53.016C105.842,53.126 105.763,53.22 105.638,53.22L105.307,53.22C105.199,53.22 105.103,53.126 105.103,53.016L105.103,47.909L98.049,47.909L98.049,53.016C98.049,53.126 97.969,53.22 97.845,53.22L97.514,53.22C97.405,53.22 97.309,53.126 97.309,53.016L97.309,42.425Z" style="fill:rgb(35,31,32);fill-rule:nonzero;"/>
        </g>
    </g>
</svg>
