<svg height="24" viewBox="0 0 110 24" width="110" xmlns="http://www.w3.org/2000/svg"><path d="m71.3727908 41.0087361c-.6338204-3.7311552-3.6581231-5.4084873-6.1638308-5.4084873-2.4771033 0-5.5590994 1.6773321-6.1350647 5.4084873zm79.0878032 9.692857c-1.795325.833691-4.05871 1.2984069-6.419211 1.2984069h-7.514376v-24h1.292852 6.221524c2.360545 0 4.623591.464607 6.418874 1.2982447h4.759604c2.620933 0 5.2131.6363021 6.941319 1.7644767 3.744421 2.3428448 4.83882 6.4212804 4.83882 8.995375 0 1.9957267-.777327 6.2760393-4.83882 8.8790199-1.728219 1.1283369-4.320386 1.7644768-6.941319 1.7644768zm2.876183-19.4650692c2.752121 2.5460091 3.777758 6.084035 3.777758 8.8215725 0 .9546566-.203847 5.3952101-3.790742 8.7058665h.887644c1.929904 0 4.867586 0 7.316408-1.7354286 1.295922-1.0992886 3.340889-3.3262651 3.340889-7.0575825 0-2.834555-1.41147-5.466746-3.629357-7.0858194-1.900814-1.2438807-3.888412-1.6486085-7.02794-1.6486085zm-94.2628817 11.5946232c.1441529 3.0946907 3.0243026 5.7268817 6.1062988 5.7268817 2.8803113-.0577719 4.9252791-1.7644767 5.6453973-3.7314797h2.1312656c-1.0943988 3.1527872-4.118863 5.5535661-7.747897 5.5535661-4.4068456 0-8.20896-3.5865631-8.20896-8.2722527 0-4.4831634 3.6004296-8.2428799 8.1801941-8.3300246 3.456115.0290482 5.9044524 2.0828713 7.0277787 4.0497119 1.0657944 1.7063804 1.2960835 3.4708571 1.2097857 5.0035973zm16.3007554-8.6479323 2.0162018-.0001623v1.8220864l-.0575319-.0580965v.0580965h.0575319c.8927139-1.5617883 2.8227794-2.227301 4.2917819-2.227301 1.3246878 0 4.1187014.6075785 5.2997211 3.0367565 1.1808582-2.429178 3.9747101-3.0367565 5.2998828-3.0367565 2.4190866 0 6.3074988 1.4462445 6.3074988 6.8260081v9.4002651h-2.0160402v-9.1688529c0-1.7352663-.3169102-2.5739324-.7199566-3.2972169-.6625863-1.1281746-1.8723721-1.9377925-3.571502-1.9377925-1.6996148 0-2.9094005.8096179-3.5718253 1.9377925-.403208.7232845-.7201182 1.5619506-.7201182 3.2972169v9.1688529h-2.0162018v-9.1688529c0-1.7352663-.3169102-2.5739324-.7199566-3.2972169-.6624248-1.1281746-1.8723721-1.9377925-3.571502-1.9377925-1.6994532 0-2.9092389.8096179-3.5718253 1.9377925-.4030464.7232845-.7199566 1.5619506-.7199566 3.2972169v9.1688529h-2.0162018v-15.8210586zm25.9202163-4.8849701h2.01604v7.6615909h.057855c1.78559-2.5744192 4.435612-3.1819977 6.134904-3.1819977 5.155891.0001623 8.468015 4.0497119 8.468015 8.2720904 0 4.5410976-3.513809 8.3301869-8.468015 8.3301869-1.641922 0-4.377919-.5785303-6.134904-3.1526249h-.057855v2.7766208h-2.01604zm8.208799 6.3020041c-3.629034 0-6.307984 3.0369189-6.307984 6.5076137 0 3.7024315 2.9094 6.4500041 6.307984 6.4500041 3.859807 0 6.452136-2.8921646 6.452136-6.4209559 0-4.0206637-2.99586-6.5366619-6.452136-6.5366619zm12.066505 7.2308983c.14383 3.0946907 3.024464 5.7268817 6.106299 5.7268817 2.880311-.0577719 4.92544-1.7644767 5.645236-3.7314797h2.13175c-1.09456 3.1527872-4.118863 5.5535661-7.74822 5.5535661-4.406684 0-8.208799-3.5865631-8.208799-8.2722527 0-4.4831634 3.60043-8.2428799 8.180033-8.3300246 3.456438.0290482 5.904775 2.0828713 7.028102 4.0497119 1.065794 1.7063804 1.295922 3.4708571 1.209301 5.0035973zm12.298895-1.822411c-.633658-3.7311552-3.658123-5.4084873-6.16383-5.4084873-2.477104 0-5.5591 1.6773321-6.135065 5.4084873z" transform="translate(-57 -28)"/></svg>