<?xml version="1.0" encoding="UTF-8" standalone="no"?>
<!DOCTYPE svg PUBLIC "-//W3C//DTD SVG 1.1//EN" "http://www.w3.org/Graphics/SVG/1.1/DTD/svg11.dtd">
<svg width="100%" height="100%" viewBox="0 0 497 306" version="1.1" xmlns="http://www.w3.org/2000/svg" xmlns:xlink="http://www.w3.org/1999/xlink" xml:space="preserve" xmlns:serif="http://www.serif.com/" style="fill-rule:evenodd;clip-rule:evenodd;stroke-linejoin:round;stroke-miterlimit:1.41421;">
    <g transform="matrix(1,0,0,1,0,-3.06994)">
        <g transform="matrix(4.16667,0,0,4.16667,0,0)">
            <path d="M27.829,0.737C17.342,0.7 6.327,5.455 0,10.873C0,10.873 0,31.664 0,45.109C0,59.157 10.135,62.825 27.829,74C45.523,62.825 55.658,59.157 55.658,45.109C55.658,31.664 55.658,10.873 55.658,10.873C49.331,5.455 38.315,0.7 27.829,0.737Z" style="fill:rgb(239,70,39);fill-rule:nonzero;"/>
        </g>
        <g transform="matrix(4.16667,0,0,4.16667,0,0)">
            <path d="M14.628,21.02C14.856,20.675 15.092,20.318 15.355,19.937C18.261,15.743 23.398,13.686 29.097,14.435C34.514,15.146 38.961,18.245 40.427,22.329C41.727,25.949 41.213,28.873 40.8,31.223C40.444,33.252 40.136,35.005 41.213,36.411C41.651,36.982 42.274,37.423 43.13,37.754C43.844,38.03 44.624,37.554 44.711,36.798C44.777,36.226 44.455,35.681 43.923,35.461C43.556,35.31 43.295,35.133 43.142,34.933C42.713,34.374 42.925,33.169 43.193,31.643C43.632,29.15 44.232,25.735 42.714,21.508C40.944,16.577 35.724,12.855 29.414,12.026C23.921,11.304 18.313,12.874 14.55,17.052C13.748,17.955 13.254,18.608 12.776,19.716C12.464,20.439 12.586,20.961 13.11,21.321C13.626,21.675 14.285,21.538 14.628,21.02ZM18.494,24.217C19.045,23.27 19.567,22.375 20.463,21.542C22.584,19.573 25.459,18.622 28.352,18.933C31.081,19.227 33.485,20.601 34.947,22.703C36.973,25.615 36.465,28.505 35.973,31.3C35.553,33.689 35.118,36.16 36.468,38.323C37.487,39.956 39.416,41.194 42.429,42.118C43.066,42.313 43.741,41.933 43.902,41.286C44.065,40.633 43.69,39.969 43.047,39.77C40.709,39.046 39.219,38.143 38.529,37.037C37.672,35.664 37.994,33.837 38.366,31.721C38.889,28.748 39.54,25.049 36.942,21.315C35.077,18.635 32.041,16.886 28.612,16.517C25.02,16.13 21.447,17.313 18.81,19.761C17.649,20.84 16.982,21.984 16.394,22.994C15.468,24.584 14.689,25.919 12.055,26.789C11.636,26.927 11.306,27.283 11.238,27.809C11.125,28.68 11.961,29.373 12.798,29.099C16.326,27.94 17.425,26.054 18.494,24.217ZM29.414,35.948C30.957,34.185 32.185,32.23 33.064,30.138C33.947,28.036 33.795,25.917 32.635,24.173C31.423,22.349 29.229,21.216 26.909,21.216C25.599,21.216 24.337,21.579 23.261,22.266C22.084,23.018 21.155,24.146 20.574,25.531C19.36,28.42 16.174,30.743 11.84,31.983C11.299,32.138 10.929,32.637 10.938,33.2C10.952,33.986 11.709,34.545 12.464,34.33C17.532,32.881 21.312,30.048 22.814,26.472C23.647,24.486 25.294,23.645 26.909,23.645C29.59,23.645 32.183,25.961 30.823,29.197C27.953,36.03 21.233,40.428 13.639,42.361C13.304,42.446 13.02,42.668 12.855,42.971C12.691,43.275 12.66,43.635 12.772,43.962C12.974,44.548 13.589,44.88 14.19,44.727C17.913,43.783 21.357,42.305 24.272,40.387C26.239,39.094 27.969,37.6 29.414,35.948ZM28.201,28.122C28.46,27.504 28.17,26.792 27.551,26.532C26.932,26.272 26.22,26.563 25.96,27.181C23.975,31.907 18.958,35.552 12.348,37.158C11.719,37.311 11.314,37.922 11.419,38.56C11.532,39.244 12.203,39.692 12.883,39.528C19.395,37.95 25.615,34.278 28.201,28.122ZM23.782,54.86C23.355,55.06 23.09,55.497 23.11,55.969C23.152,56.908 24.226,57.337 24.901,57.019C28.091,55.52 26.983,55.569 30.581,57.168C31.232,57.457 32.309,57.065 32.359,56.121C32.385,55.637 32.109,55.187 31.666,54.991C26.982,52.918 28.237,52.779 23.782,54.86ZM25.085,48.849C23.888,49.469 22.084,50.405 18.984,51.484C18.581,51.624 18.28,51.962 18.186,52.377C17.983,53.276 18.831,54.109 19.668,53.819C22.994,52.67 24.928,51.667 26.204,51.006C27.176,50.502 27.771,50.399 28.886,51.003C30.298,51.768 32.523,52.974 35.629,54.229C36.507,54.584 37.402,53.803 37.236,52.879C37.161,52.461 36.877,52.112 36.484,51.953C33.521,50.752 31.396,49.6 30.044,48.867C27.917,47.714 27.669,47.51 25.085,48.849ZM25.58,43.046C23.987,43.976 21.316,45.535 15.769,47.182C15.001,47.41 14.65,48.3 15.052,48.99C15.286,49.423 15.846,49.693 16.399,49.53C21.471,48.029 24.286,46.584 26.05,45.581C27.8,44.585 27.964,44.568 29.622,45.79C31.228,46.974 33.957,48.698 38.806,50.475C39.361,50.679 39.953,50.428 40.208,50.004C40.637,49.343 40.342,48.451 39.599,48.179C33.812,46.053 31.294,44.043 30.04,43.043C28.416,41.746 27.871,41.708 25.58,43.046ZM41.7,44.201C42.357,44.415 42.687,45.143 42.423,45.776C42.17,46.38 41.493,46.688 40.871,46.483C35.96,44.864 32.694,42.559 30.953,39.497C30.621,38.913 30.825,38.172 31.408,37.84C31.991,37.508 32.733,37.712 33.065,38.295C34.51,40.837 37.354,42.786 41.7,44.201Z" style="fill:white;fill-rule:nonzero;"/>
        </g>
        <g transform="matrix(4.16667,0,0,4.16667,0,0)">
            <path d="M68.955,11.089C68.955,10.982 69.049,10.89 69.156,10.89L75.353,10.89C75.461,10.89 75.554,10.982 75.554,11.089L75.554,11.352C75.554,11.46 75.461,11.553 75.353,11.553L69.696,11.553L69.696,15.818L74.595,15.818C74.703,15.818 74.796,15.911 74.796,16.019L74.796,16.28C74.796,16.389 74.703,16.481 74.595,16.481L69.696,16.481L69.696,21.056L75.353,21.056C75.461,21.056 75.554,21.149 75.554,21.257L75.554,21.505C75.554,21.613 75.461,21.706 75.353,21.706L69.156,21.706C69.049,21.706 68.955,21.613 68.955,21.505L68.955,11.089Z" style="fill:rgb(35,31,32);fill-rule:nonzero;"/>
        </g>
        <g transform="matrix(4.16667,0,0,4.16667,0,0)">
            <path d="M79.284,10.841C79.3,10.781 79.363,10.735 79.425,10.735L79.594,10.735C79.67,10.735 79.718,10.765 79.749,10.841L82.932,20.331C82.947,20.331 82.947,20.331 82.963,20.331L86.161,10.841C86.193,10.765 86.239,10.735 86.315,10.735L86.486,10.735C86.546,10.735 86.609,10.781 86.625,10.841L88.82,21.505C88.85,21.659 88.788,21.706 88.649,21.706L88.277,21.706C88.185,21.706 88.108,21.627 88.092,21.535L86.347,12.48C86.331,12.48 86.315,12.48 86.315,12.48L83.194,21.736C83.164,21.828 83.071,21.86 82.979,21.86L82.916,21.86C82.838,21.86 82.745,21.844 82.715,21.736L79.594,12.48C79.594,12.48 79.578,12.48 79.564,12.48L77.817,21.535C77.801,21.627 77.724,21.706 77.632,21.706L77.26,21.706C77.121,21.706 77.059,21.659 77.091,21.505L79.284,10.841Z" style="fill:rgb(35,31,32);fill-rule:nonzero;"/>
        </g>
        <g transform="matrix(4.16667,0,0,4.16667,0,0)">
            <path d="M94.816,21.056C96.313,21.056 97.364,20.16 97.364,18.753C97.364,17.378 96.299,16.56 94.83,16.56L91.833,16.56L91.833,21.056L94.816,21.056ZM94.723,15.895C96.174,15.895 97.025,14.984 97.025,13.716C97.025,12.373 96.098,11.569 94.615,11.569L91.833,11.569L91.833,15.895L94.723,15.895ZM96.191,16.204C97.256,16.514 98.152,17.318 98.152,18.769C98.152,20.5 96.761,21.706 94.753,21.706L91.322,21.706C91.216,21.706 91.121,21.613 91.121,21.505L91.121,11.089C91.121,10.982 91.216,10.89 91.322,10.89L94.615,10.89C96.514,10.89 97.813,11.985 97.813,13.686C97.813,14.892 97.133,15.772 96.191,16.174L96.191,16.204Z" style="fill:rgb(35,31,32);fill-rule:nonzero;"/>
        </g>
        <g transform="matrix(4.16667,0,0,4.16667,0,0)">
            <path d="M100.77,11.089C100.77,10.982 100.864,10.89 100.971,10.89L107.168,10.89C107.276,10.89 107.369,10.982 107.369,11.089L107.369,11.352C107.369,11.46 107.276,11.553 107.168,11.553L101.512,11.553L101.512,15.818L106.41,15.818C106.519,15.818 106.611,15.911 106.611,16.019L106.611,16.28C106.611,16.389 106.519,16.481 106.41,16.481L101.512,16.481L101.512,21.056L107.168,21.056C107.276,21.056 107.369,21.149 107.369,21.257L107.369,21.505C107.369,21.613 107.276,21.706 107.168,21.706L100.971,21.706C100.864,21.706 100.77,21.613 100.77,21.505L100.77,11.089Z" style="fill:rgb(35,31,32);fill-rule:nonzero;"/>
        </g>
        <g transform="matrix(4.16667,0,0,4.16667,0,0)">
            <path d="M113.712,16.823C115.196,16.823 116.446,15.679 116.446,14.15C116.446,12.681 115.196,11.599 113.696,11.599L110.45,11.599L110.45,16.823L113.712,16.823ZM109.708,11.089C109.708,10.982 109.787,10.89 109.909,10.89L113.743,10.89C115.628,10.89 117.188,12.264 117.188,14.15C117.188,15.71 116.106,17.008 114.639,17.424L116.894,21.426C116.973,21.551 116.941,21.706 116.786,21.706L116.384,21.706C116.199,21.706 116.137,21.659 116.06,21.521L113.851,17.517C113.65,17.533 113.479,17.533 113.278,17.533L110.436,17.533L110.436,21.505C110.436,21.613 110.344,21.706 110.189,21.706L109.909,21.706C109.803,21.706 109.708,21.613 109.708,21.505L109.708,11.089Z" style="fill:rgb(35,31,32);fill-rule:nonzero;"/>
        </g>
        <g transform="matrix(4.16667,0,0,4.16667,0,0)">
            <path d="M68.261,36.091C68.106,35.969 68.044,35.874 68.183,35.627L68.74,34.67C68.862,34.453 69.126,34.453 69.264,34.562C69.897,35.04 70.593,35.52 71.598,35.52C72.402,35.52 73.005,34.994 73.005,34.331C73.005,33.543 72.34,33.002 71.041,32.475C69.59,31.888 68.137,30.962 68.137,29.139C68.137,27.762 69.156,26.172 71.614,26.172C73.19,26.172 74.394,26.974 74.703,27.207C74.858,27.299 74.904,27.563 74.796,27.716L74.209,28.598C74.086,28.783 73.853,28.905 73.668,28.783C73.005,28.365 72.37,27.933 71.521,27.933C70.639,27.933 70.161,28.427 70.161,29.014C70.161,29.74 70.734,30.234 71.984,30.745C73.483,31.348 75.214,32.244 75.214,34.238C75.214,35.828 73.839,37.297 71.66,37.297C69.712,37.297 68.707,36.477 68.261,36.091Z" style="fill:rgb(35,31,32);fill-rule:nonzero;"/>
        </g>
        <g transform="matrix(4.16667,0,0,4.16667,0,0)">
            <path d="M77.121,26.62C77.121,26.465 77.262,26.327 77.415,26.327L78.852,26.327C79.007,26.327 79.148,26.465 79.148,26.62L79.148,36.849C79.148,37.004 79.007,37.143 78.852,37.143L77.415,37.143C77.262,37.143 77.121,37.004 77.121,36.849L77.121,26.62Z" style="fill:rgb(35,31,32);fill-rule:nonzero;"/>
        </g>
        <g transform="matrix(4.16667,0,0,4.16667,0,0)">
            <path d="M83.019,26.403C83.035,26.278 83.127,26.172 83.296,26.172L83.545,26.172C83.668,26.172 83.761,26.232 83.807,26.327L87.206,33.619C87.238,33.619 87.238,33.619 87.252,33.619L90.653,26.327C90.699,26.232 90.776,26.172 90.914,26.172L91.161,26.172C91.332,26.172 91.425,26.278 91.441,26.403L93.264,36.787C93.31,37.004 93.186,37.143 92.987,37.143L91.58,37.143C91.441,37.143 91.316,37.018 91.286,36.909L90.374,31.054C90.359,31.054 90.327,31.054 90.327,31.054L87.624,37.127C87.594,37.219 87.501,37.297 87.361,37.297L87.083,37.297C86.944,37.297 86.866,37.219 86.82,37.127L84.086,31.054C84.086,31.054 84.054,31.054 84.04,31.054L83.143,36.909C83.127,37.018 83.003,37.143 82.864,37.143L81.473,37.143C81.272,37.143 81.15,37.004 81.18,36.787L83.019,26.403Z" style="fill:rgb(35,31,32);fill-rule:nonzero;"/>
        </g>
        <g transform="matrix(4.16667,0,0,4.16667,0,0)">
            <path d="M99.153,31.332C100.02,31.332 100.683,30.636 100.683,29.726C100.683,28.875 100.02,28.226 99.153,28.226L97.3,28.226L97.3,31.332L99.153,31.332ZM95.29,26.62C95.29,26.465 95.415,26.327 95.586,26.327L99.216,26.327C101.118,26.327 102.677,27.87 102.677,29.74C102.677,31.657 101.118,33.217 99.232,33.217L97.3,33.217L97.3,36.849C97.3,37.004 97.161,37.143 97.007,37.143L95.586,37.143C95.415,37.143 95.29,37.004 95.29,36.849L95.29,26.62Z" style="fill:rgb(35,31,32);fill-rule:nonzero;"/>
        </g>
        <g transform="matrix(4.16667,0,0,4.16667,0,0)">
            <path d="M104.382,26.62C104.382,26.465 104.507,26.327 104.675,26.327L106.098,26.327C106.253,26.327 106.392,26.465 106.392,26.62L106.392,35.287L110.332,35.287C110.502,35.287 110.625,35.426 110.625,35.581L110.625,36.849C110.625,37.004 110.502,37.143 110.332,37.143L104.675,37.143C104.507,37.143 104.382,37.004 104.382,36.849L104.382,26.62Z" style="fill:rgb(35,31,32);fill-rule:nonzero;"/>
        </g>
        <g transform="matrix(4.16667,0,0,4.16667,0,0)">
            <path d="M112.179,26.62C112.179,26.465 112.303,26.327 112.474,26.327L118.762,26.327C118.933,26.327 119.055,26.465 119.055,26.62L119.055,27.886C119.055,28.041 118.933,28.18 118.762,28.18L114.189,28.18L114.189,30.715L118.006,30.715C118.159,30.715 118.299,30.853 118.299,31.008L118.299,32.29C118.299,32.459 118.159,32.584 118.006,32.584L114.189,32.584L114.189,35.287L118.762,35.287C118.933,35.287 119.055,35.426 119.055,35.581L119.055,36.849C119.055,37.004 118.933,37.143 118.762,37.143L112.474,37.143C112.303,37.143 112.179,37.004 112.179,36.849L112.179,26.62Z" style="fill:rgb(35,31,32);fill-rule:nonzero;"/>
        </g>
        <g transform="matrix(4.16667,0,0,4.16667,0,0)">
            <path d="M75.089,48.994L72.448,42.845L72.416,42.845L69.729,48.994L75.089,48.994ZM67.457,52.395L72.217,41.715C72.247,41.655 72.323,41.609 72.402,41.609L72.448,41.609C72.524,41.609 72.603,41.623 72.649,41.715L77.361,52.395C77.393,52.487 77.393,52.58 77.222,52.58L76.82,52.58C76.713,52.58 76.635,52.501 76.605,52.441L75.353,49.597L69.449,49.597L68.213,52.441C68.183,52.501 68.106,52.58 67.998,52.58L67.566,52.58C67.457,52.58 67.411,52.517 67.457,52.395Z" style="fill:rgb(35,31,32);fill-rule:nonzero;"/>
        </g>
        <g transform="matrix(4.16667,0,0,4.16667,0,0)">
            <path d="M78.725,41.963C78.725,41.856 78.818,41.764 78.926,41.764L79.252,41.764C79.361,41.764 79.453,41.856 79.453,41.963L79.453,48.624C79.453,50.616 80.703,52.023 82.76,52.023C84.83,52.023 86.096,50.632 86.096,48.638L86.096,41.963C86.096,41.84 86.159,41.764 86.313,41.764L86.623,41.764C86.729,41.764 86.824,41.856 86.824,41.963L86.824,48.7C86.824,51.064 85.216,52.734 82.76,52.734C80.317,52.734 78.725,51.064 78.725,48.7L78.725,41.963Z" style="fill:rgb(35,31,32);fill-rule:nonzero;"/>
        </g>
        <g transform="matrix(4.16667,0,0,4.16667,0,0)">
            <path d="M91.819,42.427L88.868,42.427C88.713,42.427 88.667,42.334 88.667,42.196L88.667,41.963C88.667,41.84 88.76,41.764 88.868,41.764L95.511,41.764C95.636,41.764 95.712,41.856 95.712,41.963L95.712,42.226C95.712,42.334 95.636,42.427 95.511,42.427L92.544,42.427L92.544,52.379C92.544,52.487 92.452,52.58 92.297,52.58L92.02,52.58C91.911,52.58 91.819,52.487 91.819,52.379L91.819,42.427Z" style="fill:rgb(35,31,32);fill-rule:nonzero;"/>
        </g>
        <g transform="matrix(4.16667,0,0,4.16667,0,0)">
            <path d="M97.668,41.963C97.668,41.856 97.762,41.764 97.869,41.764L98.195,41.764C98.317,41.764 98.396,41.856 98.396,41.963L98.396,46.708L105.333,46.708L105.333,41.963C105.333,41.856 105.427,41.764 105.534,41.764L105.859,41.764C105.982,41.764 106.06,41.856 106.06,41.963L106.06,52.379C106.06,52.487 105.982,52.58 105.859,52.58L105.534,52.58C105.427,52.58 105.333,52.487 105.333,52.379L105.333,47.356L98.396,47.356L98.396,52.379C98.396,52.487 98.317,52.58 98.195,52.58L97.869,52.58C97.762,52.58 97.668,52.487 97.668,52.379L97.668,41.963Z" style="fill:rgb(35,31,32);fill-rule:nonzero;"/>
        </g>
    </g>
</svg>
