<?xml version="1.0" encoding="UTF-8"?>
<svg width="130px" height="40px" viewBox="0 0 130 40" version="1.1" xmlns="http://www.w3.org/2000/svg" xmlns:xlink="http://www.w3.org/1999/xlink">
    <!-- Generator: Sketch 50.2 (55047) - http://www.bohemiancoding.com/sketch -->
    <title>Combined Shape</title>
    <desc>Created with Sketch.</desc>
    <defs></defs>
    <g id="Desktop" stroke="none" stroke-width="1" fill="none" fill-rule="evenodd">
        <g id="Work" transform="translate(-1023.000000, -2676.000000)" fill="#000000" fill-rule="nonzero">
            <g id="Clients" transform="translate(80.000000, 1824.000000)">
                <g id="logos" transform="translate(128.000000, 448.000000)">
                    <g id="16" transform="translate(768.000000, 384.000000)">
                        <path d="M74.0828042,29.077042 L74.0828042,31.263125 L84.2715427,29.9411381 L88.1044573,34.2148283 L74.0828042,35.3145945 L74.0828042,37.78593 L90.7164854,37.2441682 L93.5913229,40.4958979 L90.7408365,43.4930484 L74.0828042,42.6230571 L74.0828042,44.9520342 L88.1044573,46.241997 L84.2715427,50.3103031 L74.0828042,48.894078 L74.0828042,50.9914523 L82.1809906,52.530051 L79.5940208,55.3546141 L74.0828042,54.1540995 L74.0828042,54.1965067 L67.8603552,60 L47,40.4958979 L67.8603552,20 L74.0828042,25.817361 L74.0828042,25.874912 L79.5940208,24.6744373 L82.1809906,27.5650999 L74.0828042,29.077042 Z M102.529671,50.4371372 L102.529671,31.0703964 L116.326304,31.0703964 L116.326304,33.5042337 L104.978112,33.5042337 L104.978112,39.5358865 L113.848965,39.5358865 L113.848965,41.9704324 L104.978112,41.9704324 L104.978112,48.0315415 L116.326304,48.0315415 L116.326304,50.4371372 L102.529671,50.4371372 Z M133.530972,50.4371372 L129.056039,43.6583477 C128.303884,42.5336444 127.072591,41.9710397 125.364784,41.9710397 L122.410427,41.9710397 L122.410427,50.4371372 L119.960066,50.4371372 L119.960066,31.0703964 L128.322476,31.0703964 C129.955107,31.0703964 131.382018,31.5681164 132.601085,32.5654795 C133.859964,33.6536408 134.489049,34.9716825 134.489049,36.5210218 C134.489049,37.7931076 134.067705,38.8994893 133.223098,39.8401668 C132.415169,40.7814517 131.35504,41.4184562 130.040487,41.750472 C130.508614,41.7877225 131.15821,42.4221965 131.982912,43.6583477 L136.462292,50.4371372 L133.530972,50.4371372 Z M130.828612,34.279207 C130.134052,33.7638741 129.296518,33.5049423 128.322476,33.5049423 L122.410427,33.5049423 L122.410427,39.5358865 L128.322476,39.5358865 C129.318949,39.5358865 130.153957,39.2687556 130.828612,38.7349998 C131.616737,38.1629813 132.011709,37.423234 132.011709,36.5210218 C132.011709,35.6162789 131.616737,34.8702557 130.828612,34.279207 Z M152.595615,47.6153071 C150.680067,49.4960548 148.363788,50.4373396 145.640209,50.4373396 L138.261541,50.4373396 L138.261541,31.0704977 L145.640209,31.0704977 C148.363788,31.0704977 150.680067,32.0212976 152.595615,33.9215815 C154.53036,35.8193349 155.494197,38.0989063 155.494197,40.7539186 C155.494197,43.4279612 154.53036,45.7150232 152.595615,47.6153071 Z M150.879927,35.6359164 C149.433213,34.215132 147.686303,33.5044362 145.640614,33.5044362 L140.713014,33.5044362 L140.713014,48.0311366 L145.640614,48.0311366 C147.649726,48.0311366 149.395322,47.3204407 150.879927,45.8996563 C152.324722,44.44233 153.046159,42.7272865 153.046159,40.7539186 C153.046159,38.7611157 152.324722,37.0554861 150.879927,35.6359164 Z M158.903646,36.1970027 L161.352087,36.1970027 L161.352087,50.4370359 L158.903646,50.4370359 L158.903646,36.1970027 Z M158.903646,31.0708013 L161.352087,31.0708013 L161.352087,33.9955765 L158.903646,33.9955765 L158.903646,31.0708013 Z M165.014646,50.4371372 L165.014646,31.0703964 L167.463088,31.0703964 L167.463088,48.0315415 L176.333333,48.0315415 L176.333333,50.4371372 L165.014646,50.4371372 Z" id="Combined-Shape"></path>
                    </g>
                </g>
            </g>
        </g>
    </g>
</svg>