<svg height="40" viewBox="0 0 130 40" width="130" xmlns="http://www.w3.org/2000/svg"><path d="m74.0828042 29.077042v2.186083l10.1887385-1.3219869 3.8329146 4.2736902-14.0216531 1.0997662v2.4713355l16.6336812-.5417618 2.8748375 3.2517297-2.8504864 2.9971505-16.6580323-.8699913v2.3289771l14.0216531 1.2899628-3.8329146 4.0683061-10.1887385-1.4162251v2.0973743l8.0981864 1.5385987-2.5869698 2.8245631-5.5112166-1.2005146v.0424072l-6.222449 5.8034933-20.8603552-19.5041021 20.8603552-20.4958979 6.222449 5.817361v.057551l5.5112166-1.2004747 2.5869698 2.8906626zm28.4468668 21.3600952v-19.3667408h13.796633v2.4338373h-11.348192v6.0316528h8.870853v2.4345459h-8.870853v6.0611091h11.348192v2.4055957zm31.001301 0-4.474933-6.7787895c-.752155-1.1247033-1.983448-1.687308-3.691255-1.687308h-2.954357v8.4660975h-2.450361v-19.3667408h8.36241c1.632631 0 3.059542.49772 4.278609 1.4950831 1.258879 1.0881613 1.887964 2.406203 1.887964 3.9555423 0 1.2720858-.421344 2.3784675-1.265951 3.319145-.807929.9412849-1.868058 1.5782894-3.182611 1.9103052.468127.0372505 1.117723.6717245 1.942425 1.9078757l4.47938 6.7787895zm-2.70236-16.1579302c-.69456-.5153329-1.532094-.7742647-2.506136-.7742647h-5.912049v6.0309442h5.912049c.996473 0 1.831481-.2671309 2.506136-.8008867.788125-.5720185 1.183097-1.3117658 1.183097-2.213978 0-.9047429-.394972-1.6507661-1.183097-2.2418148zm21.767003 13.3361001c-1.915548 1.8807477-4.231827 2.8220325-6.955406 2.8220325h-7.378668v-19.3668419h7.378668c2.723579 0 5.039858.9507999 6.955406 2.8510838 1.934745 1.8977534 2.898582 4.1773248 2.898582 6.8323371 0 2.6740426-.963837 4.9611046-2.898582 6.8613885zm-1.715688-11.9793907c-1.446714-1.4207844-3.193624-2.1314802-5.239313-2.1314802h-4.9276v14.5267004h4.9276c2.009112 0 3.754708-.7106959 5.239313-2.1314803 1.444795-1.4573263 2.166232-3.1723698 2.166232-5.1457377 0-1.9928029-.721437-3.6984325-2.166232-5.1180022zm8.023719.5610863h2.448441v14.2400332h-2.448441zm0-5.1262014h2.448441v2.9247752h-2.448441zm6.111 19.3663359v-19.3667408h2.448442v16.9611451h8.870245v2.4055957z" transform="translate(-47 -20)"/></svg>