<svg height="40" width="130" xmlns="http://www.w3.org/2000/svg"><path d="M27.083 9.077v2.186l10.189-1.322 3.832 4.274-14.021 1.1v2.47l16.633-.54 2.875 3.25-2.85 2.998-16.658-.87v2.329l14.021 1.29-3.832 4.068-10.19-1.416v2.097l8.099 1.54-2.587 2.824-5.511-1.2v.042L20.86 40 0 20.496 20.86 0l6.223 5.817v.058l5.511-1.2 2.587 2.89zm28.447 21.36V11.07h13.796v2.434H57.978v6.032h8.871v2.434h-8.87v6.062h11.347v2.405zm31.001 0l-4.475-6.779c-.752-1.124-1.983-1.687-3.691-1.687H75.41v8.466h-2.45V11.07h8.362c1.633 0 3.06.498 4.28 1.495 1.258 1.089 1.887 2.407 1.887 3.956 0 1.272-.421 2.378-1.266 3.32-.808.94-1.868 1.577-3.183 1.91.469.037 1.118.671 1.943 1.907l4.48 6.78zM83.829 14.28c-.695-.515-1.532-.774-2.507-.774H75.41v6.03h5.912c.997 0 1.832-.266 2.507-.8.788-.572 1.183-1.312 1.183-2.214 0-.905-.395-1.65-1.183-2.242zm21.767 13.336c-1.916 1.881-4.232 2.822-6.956 2.822h-7.378V11.07h7.378c2.724 0 5.04.951 6.956 2.852 1.934 1.897 2.898 4.177 2.898 6.832 0 2.674-.964 4.961-2.898 6.861zm-1.716-11.98c-1.447-1.42-3.194-2.13-5.24-2.13h-4.927V28.03h4.928c2.009 0 3.754-.71 5.239-2.131 1.445-1.458 2.166-3.173 2.166-5.146 0-1.993-.721-3.699-2.166-5.118zm8.024.562h2.448v14.24h-2.448zm0-5.126h2.448v2.925h-2.448zm6.11 19.366V11.07h2.45v16.962h8.87v2.405z"/></svg>