<svg height="28" viewBox="0 0 151 28" width="151" xmlns="http://www.w3.org/2000/svg"><path d="m163.605634 34.2690058c.981582.1637427 1.472373 1.5555556 1.472373 3.1111112 0 1.2280701-.327194 1.3918128-1.472373 1.3918128-1.06338 0-1.390574-.1637427-1.390574-1.3918128 0-1.5555556.327194-2.9473685 1.390574-3.1111112zm-1.963164-.3274853c-1.881365 1.3099415-2.372156 2.2105263-2.453954 5.5672514 0 .4912281-.081799 2.6198831-.081799 3.8479532v4.1754386c0 .9005848.899784 1.1461989 1.63597 1.1461989h.736186c.163597 0 .245396.1637427.245396.245614v.4093567c0 .1637427-.081799.2456141-.245396.2456141h-7.52546c-.163597 0-.245396-.0818714-.245396-.2456141v-.4093567c0-.1637427.081799-.245614.245396-.245614h.245395c.817985-.0818714 2.044962-.1637427 2.044962-1.1461989v-7.2865497c0-2.2923976-.163597-6.6315789 5.3987-6.3040935zm-17.750271 6.3859649v.0818713h5.725894v-.4093567c0-2.4561404-.490791-5.0760234-3.517335-5.0760234-2.944745 0-3.599133 3.0292398-3.599133 5.4035088v.1637427 1.0643275.245614c0 3.1929824.163597 7.122807 4.417118 7.122807 2.781149 0 4.580715-1.3918129 4.826111-4.1754386 0 0 0-.1637427.163597-.1637427h.654388c.327194 0 .245395.3274854.245395.3274854-.081798.4912281-.163597 1.0643275-.327194 1.5555556-1.06338 3.1111111-3.680932 3.5204678-6.216685 3.5204678-5.071506 0-6.87189-3.8479532-6.87189-8.4327485 0-4.3391813 2.700168-7.5321638 7.199084-7.5321638 4.417118 0 6.543879 2.7836257 6.543879 6.877193 0 .4912281-.081799.6549708-.490791.6549708h-8.752438c-.163597 0-.245395-.0818714-.245395-.2456141v-.7368421c0-.1637427.081798-.245614.245395-.245614zm-16.032502 0v.0818713h5.807692v-.4093567c0-2.4561404-.490791-5.0760234-3.517335-5.0760234-2.944745 0-3.599133 3.0292398-3.599133 5.4035088v.1637427 1.0643275.245614c0 3.1929824.163597 7.122807 4.417118 7.122807 2.862947 0 4.580715-1.3918129 4.826111-4.1754386 0 0 0-.1637427.163596-.1637427h.654388c.327194 0 .245396.3274854.245396.3274854-.163597.4912281-.245396 1.0643275-.408993 1.5555556-1.06338 3.1111111-3.680931 3.5204678-6.216684 3.5204678-5.071506 0-6.871073-3.8479532-6.871073-8.4327485 0-4.3391813 2.69935-7.5321638 7.198267-7.5321638 4.417118 0 6.543878 2.7836257 6.543878 6.877193 0 .4912281-.081798.6549708-.490791.6549708h-8.752437c-.163597 0-.245396-.0818714-.245396-.2456141v-.7368421c0-.1637427.163597-.245614.245396-.245614zm-4.989708 7.6140351c.081799.0818713 0 .1637427.163597.1637427-.981582 1.3918128-2.453954 1.8011695-3.926327 1.8011695-3.271939 0-3.680932-1.6374269-3.680932-4.4210526v-13.2631579c0-.491228.408993-.9005848.899784-.9005848h1.06338c.490791 0 .899783.4093568.899783.9005848v2.0467836h3.435536c.163597 0 .245396.0818714.245396.2456141v.6549707c0 .1637427-.081799.2456141-.245396.2456141h-3.435536v10.0701754c0 1.3918129.081799 3.1929825 1.881365 3.1929825.736187 0 1.63597-.6549708 2.126761-1.2280702 0 0 .081798-.0818713.163597 0 0 .0818713.327194.4093567.408992.4912281zm-13.578548-14c2.69935.0818713 3.926327 1.3099415 3.926327 3.3567251 0 1.2280702-.327194 1.3918129-1.472373 1.3918129-1.308775 0-1.390574-.3274854-1.472372-1.2280702 0-.7368421 0-2.374269-1.390574-2.374269-1.554172 0-2.372156 1.2280702-2.372156 4.4210526v3.8479532 4.1754386c0 .9005848.899783 1.1461989 1.635969 1.1461989h.736187c.163597 0 .245395.1637427.245395.245614v.4093567c0 .1637427-.081798.2456141-.245395.2456141h-7.607259c-.163597 0-.245396-.0818714-.245396-.2456141v-.4093567c0-.1637427.081799-.245614.245396-.245614h.245395c.817985-.0818714 2.044962-.1637427 2.044962-1.1461989v-7.2865497c0-2.7017544.081799-6.4678362 5.725894-6.3040935zm-18.5682557 6.3859649v.0818713h5.8894908v-.4093567c0-2.4561404-.4907909-5.0760234-3.5173348-5.0760234-2.9447454 0-3.5991333 3.0292398-3.5991333 5.4035088v.1637427 1.0643275.245614c0 3.1929824.2453955 7.122807 4.4171181 7.122807 2.7811484 0 4.5807151-1.3918129 4.8261105-4.1754386 0 0 .0817985-.1637427.2453955-.1637427h.5725894c.2453954 0 .1635969.3274854.1635969.3274854-.0817985.4912281-.1635969 1.0643275-.3271939 1.5555556-1.0633803 3.1111111-3.6809318 3.5204678-6.2166847 3.5204678-5.071506 0-6.8710726-3.8479532-6.8710726-8.4327485 0-4.3391813 2.6175514-7.5321638 7.116468-7.5321638 4.4171181 0 6.5438787 2.7836257 6.5438787 6.877193 0 .4912281-.0817985.6549708-.4907909.6549708h-8.7524377c-.163597 0-.2453955-.0818714-.2453955-.2456141v-.7368421c0-.1637427.0817985-.245614.2453955-.245614zm-17.1776815 8.0233918c.0817985-.0818714.2453954-.245614.5725894-.5730994.0817985-.0818714.1635969-.0818714.2453954 0 0 0 .0817985.0818713.163597.1637427.4907909.491228 1.3087757.7368421 2.208559.7368421 3.8445287 0 4.0081257-4.0935673 4.0081257-7.0409357 0-2.8654971-.163597-6.7953216-3.9263272-6.7953216-2.8629469 0-3.9263272 2.2105263-3.9263272 4.748538v12.3625731c0 .9824561.9815818 1.1461988 1.7995667 1.1461988h.5725893c.163597 0 .2453955.0818713.2453955.245614v.4093568c0 .1637427-.163597.245614-.2453955.245614h-7.5254604c-.163597 0-.2453955-.0818713-.2453955-.245614v-.4093568c0-.1637427.0817985-.245614.2453955-.245614h.163597c.8179848-.0818713 2.1267605 0 2.1267605-1.1461988v-17.4385965c.0817985-.4093567.4089924-.7368421.8997833-.7368421h.9815818c.4907909 0 .8997833.4093567.8997833.9005848v1.6374269h.163597c.9815818-1.883041 2.7811484-2.4561404 4.8261105-2.4561404 4.744312 0 6.1348863 3.7660819 6.1348863 7.8596491 0 4.7485381-1.7177682 8.1052632-6.9528711 8.1052632-1.2269773 0-2.2903575-.3274854-3.1901409-1.0643275-.0817984 0-.0817984 0-.1635969-.0818713-.2453955-.1637427-.163597-.2456141-.0817985-.3274854zm-6.0530878.3274854c.163597 0 .2453955.0818713.163597.3274854v.4093567c0 .1637427-.0817985.245614-.2453954.245614h-7.2800651c-.1635969 0-.2453954-.0818713-.2453954-.245614v-.4093567c0-.1637427.163597-.2456141.2453954-.2456141h1.0633803c.2453955 0 .4907909-.1637427.4907909-.4093567 0-.3274854-.2453954-.5730994-.4089924-.8187135l-2.8629469-4.4210526-2.9447454 4.4210526c-.2453954.4093568-.3271939.6549708-.3271939.8187135 0 .3274854.2453954.4093567.4907909.4912281h1.1451787c.163597 0 .2453955.1637427.2453955.245614v.4093567c0 .1637427-.163597.2456141-.2453955.2456141h-5.7258938c-.163597 0-.2453954-.0818714-.2453954-.2456141v-.4093567c0-.1637427.0817984-.245614.2453954-.245614h.8997833c.9815818-.0818714 1.3087758-.4093568 1.9631636-1.3099416l3.7627302-5.5672514-3.5173347-5.7309942c-.4907909-.9005848-.8179849-1.0643275-1.6359697-1.0643275h-.9815818c-.163597 0-.2453954-.0818713-.2453954-.245614v-.4093567c0-.1637427.0817984-.2456141.2453954-.2456141h8.0162514c.1635969 0 .2453954.0818714.2453954.2456141v.4093567c0 .1637427-.0817985.245614-.2453954.245614h-.9815818c-.327194 0-.7361864 0-.8179849.0818714-.2453954.0818713-.2453954.3274854-.2453954.4093567 0 .1637427.1635969.3274854.2453954.4912281l2.535753 4.2573099 2.8629469-4.2573099c.0817985-.0818714.2453955-.3274854.2453955-.5730994 0-.3274854-.163597-.4912281-.4089924-.4912281h-1.3087758c-.1635969 0-.2453954-.0818713-.2453954-.245614v-.4093568c0-.1637427.0817985-.245614.2453954-.245614h5.4804984c.0817985 0 .163597.0818713.163597.245614v.4093568c0 .1637427-.163597.245614-.2453955.245614h-.4089924c-1.1451788.0818713-1.4723727.3274854-2.208559 1.3099415l-3.4363543 5.0760234 3.7635482 5.6491228c.163597.2456141.3271939.4912281.4907909.6549708.5725894.7368421 1.3087757.9005848 1.7995666.9005848zm-27.0752979-8.3508772v-.0818714h5.8894908v-.4093567c0-2.4561403-.4907909-5.0760234-3.5173348-5.0760234-2.9447454 0-3.5991333 3.0292398-3.5991333 5.4035088v.1637427 1.0643275.245614c0 3.1929825.163597 7.122807 4.4171181 7.122807 2.7811485 0 4.5807151-1.3918128 4.8261105-4.1754386 0 0 0-.1637427.163597-.1637427h.6543879c.3271939 0 .2453954.3274854.2453954.3274854-.1635969.5730994-.2453954 1.1461988-.4089924 1.6374269-1.0633803 3.1111111-3.6809317 3.5204678-6.2166847 3.5204678-5.071506 0-6.8710726-3.8479532-6.8710726-8.4327485 0-4.3391813 2.6175515-7.5321637 7.116468-7.4502924 4.4171181 0 6.5438787 2.7836257 6.5438787 6.877193 0 .4912281-.0817985.6549708-.4907909.6549708h-8.7524377c-.163597 0-.2453955-.0818714-.2453955-.2456141v-.7368421c0-.1637427.0817985-.245614.2453955-.245614zm140.2843989-7.5321638h3.926327v-.245614c0-1.4736842-.327194-3.1929825-2.372156-3.1929825-1.963164 0-2.453955 1.9649123-2.453955 3.4385965v.0818714.6549707.1637427c0 2.0467837.163597 4.5847954 3.026544 4.5847954 1.881365 0 3.108343-.9005848 3.27194-2.7017544 0 0 .081798-.0818714.163597-.0818714h.408992c.245396 0 .163597.1637427.163597.1637427-.081798.3274854-.081798.6549708-.245395.9824562-.736187 2.0467836-2.535753 2.2923976-4.253522 2.2923976-3.517334 0-4.744312-2.4561403-4.744312-5.4035088 0-2.7836257 1.799567-4.8304093 4.907909-4.8304093 3.026544 0 4.498917 1.8830409 4.498917 4.4210526 0 .2456141-.081798.4093567-.327194.4093567h-5.971289c-.081799 0-.163597-.0818713-.163597-.1637426v-.4093568c0-.0818713.081798-.1637427.163597-.1637427zm-7.607259 4.748538.163597.1637427c.163597.1637427.163597.1637427-.245396.4912281-.654387.4912281-1.472372.7368421-2.372156.7368421-2.944745 0-4.171722-2.2923976-4.171722-4.9122807 0-2.7017544 1.06338-5.2397661 4.171722-5.2397661 1.226978 0 2.453955.3274854 3.190141 1.3918129v-3.6023392c0-.3274854.245396-.5730994.57259-.5730994h.736186c.327194 0 .572589.245614.572589.5730994v.8187135 10.0701754c0 .7368421 1.226978.7368421 1.63597.7368421.081798 0 .163597.0818714.163597.1637427v.245614c0 .0818714-.081799.1637427-.163597.1637427h-3.353738c-.081798 0-.163597-.0818713-.163597-.1637427v-5.4035087c0-1.8011696-.572589-3.7660819-2.781148-3.7660819-2.453955 0-2.535753 2.8654971-2.535753 4.6666667 0 1.6374269.408992 4.1754386 2.535753 4.1754386.654388 0 1.145179-.2456141 1.554171-.4912281.245395-.2456141.408992-.3274854.490791-.2456141z" transform="translate(-36 -26)"/></svg>