<?xml version="1.0" encoding="UTF-8"?>
<svg width="69px" height="80px" viewBox="0 0 69 80" version="1.1" xmlns="http://www.w3.org/2000/svg" xmlns:xlink="http://www.w3.org/1999/xlink">
    <!-- Generator: Sketch 50.2 (55047) - http://www.bohemiancoding.com/sketch -->
    <title>Combined Shape</title>
    <desc>Created with Sketch.</desc>
    <defs></defs>
    <g id="Desktop" stroke="none" stroke-width="1" fill="none" fill-rule="evenodd">
        <g id="Work" transform="translate(-798.000000, -2656.000000)" fill="#000000">
            <g id="Clients" transform="translate(80.000000, 1824.000000)">
                <g id="logos" transform="translate(128.000000, 448.000000)">
                    <g id="15" transform="translate(512.000000, 384.000000)">
                        <path d="M145.673102,37.4942306 C145.827933,38.5184979 145.883513,39.5771721 146.284486,40.5445357 L146.284486,41.1281299 C144.96776,41.2009137 143.678824,41.5132226 142.374008,41.6880362 C142.253584,42.3985389 142.319751,43.1290241 142.146393,43.8303958 C141.933335,45.1974088 141.65808,46.5525118 141.429142,47.9155549 C140.967295,49.7179477 140.578232,51.5428373 140.005225,53.3147933 C139.044478,56.637707 137.690698,59.8388731 136.04843,62.8825614 C134.058123,66.5468975 131.566268,69.9624452 128.52258,72.8235122 C125.860014,75.3471269 122.734279,77.4049249 119.297557,78.7044474 C118.330194,79.0035229 117.384004,79.3952324 116.379587,79.5540335 C116.042134,79.7035712 115.711299,79.8664747 115.367229,80 L114.039917,80 L109.494234,80 C108.85109,79.806792 108.181478,79.7432715 107.52907,79.5910871 C106.398936,79.4243459 105.345555,78.9664693 104.26306,78.6237235 C101.732829,77.5769594 99.3494887,76.1477492 97.2863973,74.3427097 C96.0040782,73.2959456 94.8210098,72.1261106 93.7702756,70.8464381 C92.3304787,69.2519425 91.1249135,67.4654297 89.9537551,65.6681979 C88.4888147,63.2888277 87.1945855,60.8022666 86.1332646,58.2191016 C85.204278,55.9680955 84.4618827,53.6469523 83.8055047,51.3033123 C83.3926217,49.5048895 82.8394645,47.7342569 82.6052328,45.9001038 C82.3815879,44.5066239 82.0375188,43.1184374 82.0136986,41.7051073 C80.671829,41.5370428 79.3498096,41.2181172 78,41.1281299 L78,40.406908 C78.3665659,39.2675099 78.4419965,38.0659147 78.6272645,36.889463 C78.9620702,34.970616 79.2849658,33.0504457 79.5139041,31.1157185 C79.7812194,29.5568208 80.0260378,27.9952763 80.2827663,26.4337319 C80.34364,25.7667671 80.4468608,25.1037724 80.6149253,24.4553345 C81.6709528,24.4460711 82.7005135,24.7411765 83.756541,24.7716134 C84.3096983,24.9808339 84.9210826,24.8046969 85.4649765,25.0455453 C85.9731401,25.2400767 86.5329141,25.0428986 87.0476944,25.2069931 C87.5770315,25.3831301 88.161949,25.1567061 88.6727593,25.4081412 C89.0009483,25.519302 89.4601483,25.6701631 89.7168768,25.3512375 C89.7579004,24.8484996 89.1875397,24.669716 88.9016976,24.3587304 C88.8765541,23.9511409 88.8725841,23.5382579 88.9202244,23.1334474 C88.9930083,22.8593831 89.0975524,22.5880978 89.0724088,22.2996091 C89.0340319,21.8139423 89.2192999,21.349449 89.4455915,20.9312727 C89.6427696,20.7446814 89.8690612,20.5938203 90.080796,20.4257558 C90.6935037,20.9947931 90.6366,21.8946662 90.8999452,22.6277981 C91.1910806,23.0089208 91.6648373,23.1875721 91.9903796,23.5356112 C92.2973951,23.7738129 92.3807657,24.1694924 92.4548729,24.530765 C92.5488303,25.0230485 92.7473317,25.4848951 92.9220129,25.9520351 C93.3944463,25.9467417 93.8827598,25.8752812 94.3379897,26.0395081 C95.1862524,26.3159544 96.0861255,26.0671659 96.9462983,26.2590506 C97.7085437,26.4046183 98.4879926,26.2763864 99.2568547,26.3331578 C99.948963,26.6150298 100.704592,26.4324085 101.425813,26.538276 C101.84796,26.5951797 102.267459,26.4748878 102.684312,26.4204984 C102.064988,26.3172777 101.466837,26.1267164 100.884566,25.8991014 C99.6393008,25.2519868 98.1968572,25.1633228 96.9436516,24.538705 C96.5307686,24.2674198 96.3918176,23.7513161 96.1099456,23.3662234 C95.7142661,22.5563376 95.2749164,21.7676253 94.7680761,21.02126 C94.1580151,20.2206376 93.5691275,19.4054585 92.9815634,18.588956 C93.7782157,17.3847141 94.659562,16.2386993 95.4972379,15.0635709 C95.7817566,14.5170303 96.1430292,14.0048967 96.6908931,13.6952345 C96.8192573,13.8752091 96.9052746,14.0963397 96.7822038,14.3052955 C96.5889957,14.8386026 96.5281219,15.41161 96.2978603,15.9330071 C96.9793818,16.7099416 97.9242486,17.1967994 98.5740098,18.0027152 C98.6309136,18.3719278 98.5250462,18.7530505 98.555483,19.1275565 C98.5872433,19.7561443 98.3225747,20.3516486 98.3371315,20.9802364 C98.3358081,21.2925453 98.3146347,21.6035308 98.2815511,21.9145164 C99.1496639,22.4954638 100.00719,23.0975848 100.920297,23.6083951 C101.39273,23.9087939 101.922067,24.1694924 102.247609,24.6432491 C102.735923,25.3287407 103.26526,25.9890887 103.674173,26.7261906 C105.746528,26.7526575 107.820206,26.734263 109.89256,26.731484 C113.507933,26.7116339 117.124629,26.7685376 120.740001,26.7208973 C122.113631,26.1995002 123.638122,26.7764776 125.026308,26.3331578 C125.833547,26.271093 126.656666,26.4191751 127.455966,26.2418472 C128.268498,26.0314357 129.126024,26.3344812 129.929293,26.0448014 C130.613461,25.7866173 131.375707,26.1015728 132.053258,25.8117608 C132.504518,25.6278161 133.000772,25.7230968 133.474528,25.6808822 C132.736103,24.6578059 132.092959,23.5700181 131.34527,22.5536909 C131.027668,22.187125 131.236756,21.672477 131.095158,21.2435816 C130.895333,20.5991137 131.133535,19.9056821 130.91386,19.2665075 C130.815933,18.9927079 130.85828,18.7014401 130.867543,18.4182448 C132.233233,19.1077064 132.995478,20.5408866 134.280444,21.3388623 C135.251778,22.0363962 135.847282,23.2894695 137.091224,23.5647248 C138.049324,23.9762844 139.007424,24.3944607 139.969495,24.7980802 C140.140206,24.8774808 140.328121,24.8973309 140.513389,24.8682174 C141.524422,24.7451465 142.538103,24.6552915 143.543843,24.4898737 C143.652358,24.8880675 143.754255,25.2903637 143.816452,25.6992766 C144.05333,27.7292844 144.455627,29.7341487 144.771905,31.7522464 C145.024664,33.6737401 145.381967,35.5780303 145.673102,37.4942306 Z M141.310041,43.8026056 C141.533686,43.1568143 141.339154,42.4514726 141.59456,41.8109747 C140.946122,41.9115488 140.275187,41.8480283 139.641306,42.0425597 C139.228423,42.1418104 138.78378,42.043883 138.38413,42.2119476 C137.808476,42.452796 137.166655,42.2331211 136.573797,42.406479 C135.954473,42.5785135 135.287508,42.368102 134.68274,42.6155671 C134.089883,42.8484754 133.434828,42.5917469 132.835354,42.7836316 C132.071785,43.0681503 131.224846,42.7359913 130.4626,43.0297734 C129.632864,43.3513457 128.652267,42.8762656 127.860908,43.3116454 C126.836641,43.5988108 125.70783,43.2044546 124.679592,43.5472004 C123.4555,43.5696972 122.230085,43.5392604 121.005993,43.5657272 C120.724121,43.5604338 120.501799,43.8039289 120.219927,43.7973122 C114.792899,43.7801087 109.36587,43.7946655 103.940165,43.7893721 C103.75622,43.7258517 103.582862,43.6385111 103.401564,43.5749906 C102.136449,43.529997 100.87001,43.5723439 99.6048939,43.5472004 C98.5766565,43.2031313 97.4451985,43.6014575 96.4222545,43.309131 C95.6269255,42.8828823 94.6516219,43.347508 93.821886,43.0310967 C93.0583172,42.7359913 92.2127012,43.066827 91.4491324,42.7850873 C90.8483348,42.5917469 90.1932802,42.8497988 89.6004226,42.6155671 C88.995655,42.368102 88.3286902,42.5785135 87.7106892,42.406479 C87.1178316,42.2344444 86.4760104,42.452796 85.9003563,42.2132709 C85.4636532,42.0293263 84.9753397,42.1616605 84.5306965,42.0147695 C83.9828326,41.8308249 83.4018851,41.9340456 82.8381411,41.9499257 C82.814321,42.4699994 82.8897515,42.9821331 83.0419359,43.4783866 C83.0736961,44.2525421 83.2549941,45.0081708 83.4455554,45.7573151 C83.7935946,48.1140563 84.3811588,50.4299061 85.0309201,52.7206124 C85.3485223,53.464331 85.4332163,54.2981693 85.8553626,54.9954386 C86.0670974,55.703427 86.3582329,56.3849485 86.6043746,57.0823501 C87.266046,58.5830208 87.8430234,60.1220684 88.6237957,61.5684821 C88.9096377,62.0422388 89.0591754,62.5901027 89.4045679,63.0294525 C89.7340802,63.4410121 89.8558278,63.9743192 90.16946,64.3951422 C90.594253,64.9191859 90.8126046,65.5755639 91.246661,66.0943143 C91.5722033,66.4847004 91.7587946,66.9730139 92.1041871,67.3475199 C92.4773698,67.7431994 92.6904279,68.255333 93.0292037,68.6774794 C93.2065316,68.8958309 93.44341,69.0665421 93.5916244,69.3100372 C93.9092266,69.896278 94.5073776,70.258874 94.8726202,70.8107079 C95.176989,71.3254882 95.6560391,71.6986709 96.0623053,72.1261106 C96.4976851,72.5363468 96.8708677,73.0286304 97.3988815,73.3263825 C97.7694174,73.5592908 98.0182059,73.9404135 98.3980053,74.1627351 C98.8214749,74.3916734 99.0795268,74.8244065 99.4977031,75.0599615 C100.417426,75.6382623 101.272306,76.3383106 102.28731,76.7485468 C102.872227,76.9907186 103.380391,77.3890447 103.989128,77.5743127 C104.572723,77.7384072 105.083533,78.079962 105.667127,78.2439242 C106.442606,78.5615264 107.296162,78.5853466 108.076934,78.880452 C108.481877,78.8778053 108.885497,78.8910388 109.240152,79.1133604 C110.824194,79.1517373 112.410882,79.1226238 113.99757,79.1292405 C114.331052,79.1596773 114.591751,78.8739676 114.92391,78.8963321 C115.479714,78.9558826 115.966704,78.6329869 116.511921,78.5853466 C117.648672,78.4212521 118.665,77.849568 119.767344,77.5584326 C121.548563,76.7128166 123.305963,75.7971957 124.901914,74.6325218 C125.386257,74.1772919 125.953971,73.822636 126.492572,73.4348966 C126.889575,73.077594 127.225704,72.644861 127.698137,72.3775457 C128.354515,71.8587954 128.926199,71.2341776 129.482003,70.6108831 C129.812839,69.9955288 130.40702,69.5958792 130.855633,69.0744822 C131.546418,68.0940175 132.29146,67.1476951 132.986215,66.1684215 C133.358074,65.6986348 133.610833,65.1481242 133.993279,64.6849543 C134.760818,63.2808876 135.651427,61.9404737 136.295895,60.4701076 C136.56321,59.9566506 136.882136,59.4617204 136.99065,58.8834196 C137.992421,56.9169323 138.632918,54.7929672 139.325027,52.707379 C139.33032,52.6319484 139.343554,52.4810874 139.35017,52.4071125 C139.581755,52.1146538 139.662479,51.7479555 139.73791,51.3919763 C139.978758,50.2816917 140.370467,49.2084607 140.537209,48.082296 C140.744973,47.0806579 140.883924,46.070815 141.12742,45.0756613 C141.24652,44.6601317 141.168443,44.2141652 141.310041,43.8026056 Z M144.095677,40.6265829 C144.52047,40.4042614 145.010107,40.5392423 145.46666,40.4849853 C145.440194,40.1832631 145.281392,39.9238879 145.188758,39.6433393 C145.151705,39.2503065 145.278746,38.8202201 145.059071,38.4642409 C145.084214,37.070761 144.703092,35.7103646 144.497974,34.3434839 C144.491357,33.9344386 144.40931,33.5347891 144.321969,33.1377863 C143.967313,31.0945451 143.731758,29.0380704 143.325492,27.0054159 C143.281822,26.4178518 143.215654,25.8329343 143.022446,25.2731603 C142.060376,25.2241966 141.12742,25.5272421 140.186523,25.6781032 C138.905527,25.7006 137.666878,26.1187763 136.383236,26.1200996 C135.701714,26.3186011 134.989756,26.2630207 134.296324,26.3622714 C133.606863,26.6150298 132.855204,26.3768281 132.160449,26.6004731 C131.568915,26.828088 130.927094,26.6547301 130.318356,26.7830944 C129.482003,27.0120327 128.604627,26.7923578 127.761658,26.9815958 C126.781061,27.2197975 125.76738,27.0332061 124.774873,27.148337 C124.739143,27.198624 124.666359,27.299198 124.630629,27.3494851 C123.444914,27.4553525 122.245965,27.341545 121.05628,27.4156522 C119.959229,27.955576 118.721903,27.3666885 117.569272,27.6260637 C112.978596,27.6631173 108.386596,27.6168003 103.794597,27.6406205 C103.469055,27.6525306 103.208356,27.3772753 102.878844,27.3997721 C101.951181,27.3852153 101.022194,27.3891853 100.094531,27.3984487 C99.8047186,27.4328557 99.5691636,27.2370009 99.2992017,27.1721571 C98.4496156,27.0954033 97.5867961,27.2237675 96.7411801,27.1046667 C95.887624,26.8413214 94.9533441,27.2118574 94.1275782,26.8426448 C93.5413373,26.6825203 92.9286296,26.8161779 92.3344487,26.7447174 C91.6873341,26.4297618 90.9449389,26.6997238 90.2753274,26.5488627 C89.6427696,26.1200996 88.8381772,26.538276 88.1645957,26.2511106 C87.6736356,26.0843694 87.1072449,26.3728581 86.6493683,26.0896628 C86.2338386,25.8170541 85.7124416,26.0909861 85.2797085,25.8779279 C84.8363887,25.6675164 84.312345,25.9202749 83.8782885,25.6900132 C83.3952684,25.3896144 82.7931475,25.7032467 82.3035106,25.4162136 C81.9753216,25.3102139 81.3943742,25.1236225 81.2686566,25.5867925 C80.9550244,26.0605492 81.2752733,26.6626702 80.9642878,27.1337802 C80.7909299,27.4474124 80.8650371,27.8205951 80.9669345,28.1448141 C80.4653876,28.5815172 80.8981206,29.2762721 80.5302314,29.7672323 C80.3634902,30.0940979 80.5408181,30.4844841 80.4084838,30.8232598 C80.2417426,31.2058382 80.3476101,31.6252055 80.3118798,32.0261784 C80.2311559,32.2683501 80.0472112,32.488025 80.0697081,32.7554726 C80.0551513,32.9829552 80.1292585,33.2317436 79.9969242,33.4381851 C79.7679859,33.8153378 80.0286844,34.2970345 79.7918061,34.6715405 C79.5112574,35.06722 79.7957761,35.584647 79.5350776,35.9909133 C79.3431929,36.3032222 79.4411203,36.6552313 79.4993473,36.9887137 C79.3286361,37.40292 79.220122,37.8290364 79.2717324,38.2816196 C79.0613209,38.6561256 79.1023445,39.0782719 79.0785243,39.4911549 C78.9104598,39.8034638 78.8072391,40.1356228 78.8509094,40.495572 C79.3008459,40.5354046 79.7891594,40.4002913 80.2033657,40.630553 C80.6400688,40.862138 81.1522024,40.638493 81.6047857,40.8131743 C82.0481055,40.9891789 82.5509757,40.7616962 82.9784155,40.9971189 C83.289401,41.1453333 83.6321468,41.1612134 83.9629825,41.0725495 C84.3480752,40.9335985 84.6339172,41.3572005 85.01504,41.3054578 C85.3921926,41.341188 85.8063989,41.1995904 86.1544381,41.3927984 C86.6665717,41.711724 87.2951595,41.4126485 87.8430234,41.5992399 C88.4451444,41.8387649 89.134606,41.5079292 89.7168768,41.8096514 C90.2276871,42.0610865 90.8139279,41.8652318 91.343265,41.8956686 C92.0486067,42.2595879 92.8584925,42.0425597 93.6154445,42.0994634 C94.3737199,42.5295498 95.269623,42.2635579 96.0967122,42.3429585 C97.0720158,42.6274772 98.1068699,42.4051556 99.1007003,42.503083 C99.7914852,42.8114218 100.557701,42.7095244 101.290833,42.7333446 C102.088808,42.6989377 102.905311,42.8220086 103.686083,42.6208605 C103.888554,42.7452547 104.069852,42.9516962 104.331874,42.8987625 C109.539228,42.9027325 114.745258,42.9040558 119.952612,42.8987625 C120.213311,42.9516962 120.394609,42.7452547 120.598403,42.6208605 C121.466516,42.8299486 122.371683,42.6976144 123.256999,42.7320213 C123.901467,42.7240812 124.571078,42.7743682 125.175846,42.5057297 C125.894421,42.4316225 126.628876,42.5427833 127.352745,42.4660294 C128.199684,42.1722473 129.123377,42.4699994 129.984874,42.2926715 C130.805346,41.7725978 131.910337,42.460736 132.683169,41.8559684 C133.109286,41.9644825 133.553929,41.939339 133.990632,41.9300756 C134.318821,41.9300756 134.582166,41.6495269 134.915649,41.6799638 C135.422489,41.6707004 135.949179,41.762011 136.441463,41.5992399 C136.99065,41.4179419 137.616591,41.707754 138.130048,41.3914751 C138.631595,41.1309089 139.257536,41.4841091 139.751143,41.1757702 C140.199756,40.8687547 140.742327,41.3107512 141.21079,41.0288791 C141.66602,40.7628872 142.200651,40.9838855 142.679701,40.8131743 C143.137577,40.6424631 143.652358,40.8581679 144.095677,40.6265829 Z M113.371629,6.48967288 C112.846261,5.85314502 112.22032,5.2986644 111.626139,4.72698033 C111.905365,4.19631988 111.743917,3.60081564 111.837874,3.03971831 C112.106513,2.49714778 111.843168,1.87385334 112.062843,1.31804939 C112.205764,0.922369902 112.17268,0.502870248 112.195177,0.0913106502 C112.360595,-0.0648437951 112.61997,0.0397002827 112.825088,0 C113.228708,0.890609676 114.143137,1.37362978 114.635421,2.20071901 C114.934496,2.69167917 115.46251,2.98810795 115.744382,3.49097819 C116.175792,4.10500923 116.84805,4.52450889 117.222556,5.18485692 C117.497811,5.65067357 117.988771,5.93519227 118.28123,6.38645215 C118.67691,7.07194369 119.406072,7.48217995 119.813661,8.15973144 C120.140527,8.73538554 120.745294,9.07416129 121.114507,9.61673182 C121.328889,9.94889085 121.626641,10.2175294 121.831759,10.5576285 C121.453283,10.8196504 121.07216,10.6026222 120.701624,10.4570545 C120.122,10.4994014 119.625746,10.1143087 119.042152,10.1950326 C118.200506,9.94756751 117.29534,9.95286088 116.462957,9.66437216 C116.192995,9.63922864 115.91377,9.64849204 115.666305,9.51880445 C115.315619,9.32162638 114.906706,9.43940389 114.526907,9.38382349 C114.256945,9.18929211 114.230478,8.83463625 114.099467,8.55276424 C113.865235,7.86197932 113.57807,7.19104454 113.371629,6.48967288 Z M103.785347,8.55407435 C103.548469,8.17295163 103.705946,7.69390156 103.466421,7.30748547 C103.457158,6.88269245 103.392314,6.43010922 103.577582,6.03178305 C103.921651,6.1601473 104.24984,6.3798222 104.428491,6.71065789 C105.17221,7.72963181 105.829911,8.81609621 106.691408,9.74508283 C107.019597,10.2916234 107.521143,10.7005363 107.849332,11.2484002 C109.114448,12.533366 110.387504,13.8183318 111.681733,15.0728608 C112.601456,15.3970797 113.526473,15.710712 114.45546,16.0124341 C114.816732,16.6185251 114.812762,17.3357769 114.999353,17.9961249 C115.281225,18.7279335 115.474433,19.4888556 115.651761,20.251101 C116.251236,20.9855562 117.119348,21.4275527 117.833954,22.0362904 C118.324914,22.4438799 118.916448,22.7164885 119.371678,23.1677484 C119.938069,23.5409311 120.6315,23.6904688 121.152897,24.1417287 C121.715318,24.4844745 122.363756,24.6790058 122.885153,25.0945355 C122.571521,25.2731867 122.183781,25.3367072 121.854269,25.1607026 C121.457266,24.9330877 120.978216,25.0402784 120.573273,24.8272202 C119.748831,24.7134128 118.937621,24.4871211 118.102592,24.420954 C117.713529,24.2978831 117.340347,24.1509921 116.920847,24.1801056 C116.590011,24.0054244 116.236679,23.9352872 115.86482,23.9392572 C115.111838,23.6507685 114.275485,23.7341391 113.530443,23.436387 C113.302828,23.39007 113.068596,23.4218302 112.842305,23.3741899 C112.649097,23.2947893 112.478385,23.1373115 112.256064,23.162455 C110.824207,23.1571617 109.39235,23.1651017 107.961817,23.1571617 C107.904913,22.1368644 107.844039,21.1205372 107.863889,20.0975932 C107.329259,19.8739483 106.958723,19.417395 106.55378,19.0230389 C106.234854,18.70279 105.770361,18.5585456 105.508339,18.1760995 C105.411735,17.2643164 105.072959,16.3816468 105.072959,15.4539835 C104.871811,15.0437472 105.002822,14.5660205 104.783147,14.166371 C104.564796,13.787895 104.817554,13.3141382 104.562149,12.9475723 C104.415258,12.2951643 104.274984,11.6334929 104.263074,10.9625582 C104.064572,10.5933455 104.2022,10.1526724 103.991788,9.79272317 C103.757557,9.4129238 104.012962,8.93122703 103.785347,8.55407435 Z M124.152876,14.6679444 C123.871004,14.4509161 123.316523,14.4125392 123.31123,13.9771594 C123.312553,12.3706213 123.286086,10.7640832 123.325786,9.15886846 C123.538844,9.14298834 123.762489,9.06358778 123.972901,9.13769497 C125.198316,10.3419369 126.373445,11.5977892 127.61871,12.7821809 C127.899259,13.0428794 128.043503,13.408122 128.296262,13.6913174 C129.352289,14.7751351 130.43743,15.8311626 131.498751,16.9083636 C131.722396,17.4628443 130.882073,17.3702103 130.568441,17.2590495 C130.056308,16.917627 129.414486,17.2312593 128.885149,16.9427706 C128.208921,16.9189504 127.446676,16.8832201 126.938512,16.3737332 C125.996292,15.832486 125.034222,15.3084422 124.152876,14.6679444 Z M93.2012515,30.1100178 C93.1244976,30.5321641 93.0477437,30.9556338 92.9974567,31.3830735 C92.2166845,31.4360072 91.4557624,31.218979 90.6776368,31.2335358 C90.3970882,31.8952071 90.3454778,32.6111356 90.4037049,33.3217706 C90.4738421,33.3283873 90.6141164,33.3402974 90.6842536,33.3469141 C91.1302201,33.4713084 91.732341,33.1762029 92.0645001,33.5493856 C92.1372839,34.1091596 92.0869969,34.6742269 91.6886707,35.1082833 C91.164627,34.8581716 90.5902962,34.7880344 90.0146421,34.8171479 C89.952445,35.4735259 89.7685004,36.1100538 89.6983632,36.7651085 C90.4976622,37.2335718 91.4809059,36.97552 92.2868216,37.4506 C92.245798,37.7655556 92.2074211,38.0831579 92.1147871,38.3901734 C92.0645001,38.519861 92.0075963,38.6469019 91.9467226,38.7726194 C91.6410304,38.751446 91.3154881,38.801733 91.033616,38.6561653 C90.0397856,38.3266529 88.9612613,38.3689999 87.9489041,38.1122714 C88.0044845,37.025807 88.3300268,35.9790429 88.404134,34.8965485 C88.7257063,33.516302 88.8170169,32.0990019 89.1121224,30.7147854 C89.1901996,30.3177826 89.0816855,29.8731394 89.3013604,29.5131902 C89.5686756,29.4483464 89.8399609,29.5370103 90.1046294,29.5674472 C90.929072,29.6680213 91.7535145,29.767272 92.5819271,29.8096189 L92.6811778,29.8572593 C92.8532123,29.9432766 93.0278936,30.0253238 93.2012515,30.1100178 Z M135.99285,36.7426249 C135.974323,37.2057949 136.04049,37.6451446 136.221788,38.0739077 C135.734798,38.5225209 135.059893,38.3160794 134.465712,38.3743065 C134.030332,37.7218985 133.68891,37.0125868 133.347487,36.3085685 C132.880347,35.5582331 132.683169,34.6385099 132.022821,34.0152155 C132.357627,35.5330896 132.434381,37.0919874 132.759923,38.6111849 C132.217353,38.673382 131.681399,38.7792494 131.156032,38.9301105 C131.124272,38.3928333 131.096481,37.8542328 130.981351,37.3275424 C130.8821,36.8630491 130.919154,36.3720889 130.745796,35.9247991 C130.4229,35.3742885 130.813286,34.6795335 130.457307,34.1462264 C130.199255,33.6473262 130.542001,33.0253551 130.234985,32.5357183 C130.105298,32.0950451 130.268069,31.6107017 130.123825,31.1687052 C130.006047,30.766409 130.051041,30.345586 130.068244,29.9340264 C130.594935,29.874476 131.193085,30.0835641 131.650962,29.735525 C132.001648,30.0531272 131.989738,30.5533508 132.204119,30.9490303 C132.73478,31.9547708 133.287937,32.9724214 133.584366,34.0734425 C133.600246,34.1846033 133.617449,34.2944408 133.634653,34.4056016 C133.72464,34.4122183 133.904615,34.4267751 133.994602,34.4333918 C133.940345,34.2137169 133.894028,33.994042 133.822568,33.7796605 C133.483792,33.3614841 133.725964,32.8096502 133.553929,32.3358935 C133.401745,31.8489034 133.612156,31.3076562 133.358074,30.8471329 C133.172806,30.4951237 133.2575,30.0809174 133.260147,29.6997947 C133.411008,29.4404196 133.715377,29.5489337 133.960195,29.5224668 C134.206337,29.5224668 134.426012,29.3901325 134.660243,29.3292588 C134.731704,29.642891 134.854775,29.9393198 134.959319,30.2436886 C134.996373,30.6605416 134.871978,31.1091548 135.120767,31.4810141 C135.329855,31.8316999 135.09033,32.2736964 135.298095,32.6243822 C135.471453,32.9393378 135.324562,33.3178138 135.442339,33.6512962 C135.586583,34.1171129 135.611727,34.5988096 135.618344,35.0818297 C135.889629,35.6085201 135.63687,36.237108 135.99285,36.7426249 Z M97.179233,30.4236632 C97.7535638,30.4236632 98.3212778,30.530854 98.8929619,30.5745243 C98.9128121,30.6248113 98.9538357,30.7267087 98.9750092,30.7769957 C98.6203533,31.3698533 98.3980317,32.0381414 97.9547119,32.5767419 C97.6331396,33.2304732 97.3261241,33.8908212 96.9635282,34.5260258 C96.7200331,34.8939151 96.9582348,35.3200314 97.0773357,35.6879207 C97.1448261,36.383999 97.6027027,36.9702398 97.6688699,37.6689648 C97.7231269,38.3107861 98.1267465,38.8639433 98.1770335,39.5017945 C97.68872,39.3390234 97.1832031,39.3019698 96.6710694,39.3204966 C96.2846533,39.3668136 96.1973127,38.9009969 96.1893727,38.6111849 C96.0490983,38.0117106 95.7831064,37.4347331 95.7460528,36.8127621 C95.6997358,36.8498157 95.6071019,36.9212762 95.5594615,36.9570064 C95.1955423,37.642498 94.8713233,38.349163 94.549751,39.0545047 C93.9357199,39.0187744 93.2978687,39.0902349 92.7103046,38.8811468 C92.8082319,38.496054 93.0279068,38.159925 93.2436117,37.831736 C93.6379678,37.1991781 93.9092531,36.4964831 94.3472795,35.8903922 C94.5629844,35.4338389 94.924257,35.0116926 94.9136702,34.4823555 C94.9480772,33.9397849 94.6198882,33.4713216 94.5775412,32.9433078 C94.3194893,32.0196146 94.032324,31.1078314 93.7861822,30.1814915 C94.3525729,30.152378 94.920287,30.164288 95.488001,30.1788448 C95.6335687,30.4316033 95.7381128,30.7081819 95.7725197,31.0006407 C95.8505969,31.6107017 96.094092,32.1890025 96.0993854,32.8083269 C96.2515698,32.4841079 96.4606579,32.1823857 96.5307951,31.8264065 C96.6287225,31.3089795 97.0019051,30.9106534 97.179233,30.4236632 Z M129.697695,35.6045501 C130.078818,36.2212278 129.880316,36.9715632 129.91737,37.6583781 C129.754599,38.028914 129.566684,38.39151 129.365536,38.7421958 C129.116747,39.0187744 128.723715,39.1047917 128.412729,39.2953531 C127.888685,39.3535801 127.356702,39.3284366 126.831335,39.3165265 C126.170986,39.0756782 125.604596,38.5833947 125.338604,37.9190766 C125.310814,37.4162064 125.400801,36.8948093 125.153336,36.4316393 C125.150689,35.6442504 125.154659,34.843628 124.942924,34.0774126 C124.913811,33.3257539 124.923074,32.5701252 124.936308,31.8171431 C125.110989,31.287806 125.496082,30.8444862 125.963222,30.5480574 C126.250387,30.3336759 126.630186,30.4302799 126.963669,30.4038131 C127.451982,30.4368966 128.022343,30.2900056 128.432579,30.631428 C128.848109,31.0244608 129.304662,31.469104 129.352302,32.0725483 C129.52169,32.6296756 129.542864,33.2040064 129.524337,33.7836305 C129.798269,34.3553146 129.635498,34.9958124 129.697695,35.6045501 Z M128.212904,37.2693153 C128.183791,36.804822 128.300245,36.3059218 128.085863,35.8731887 C127.790758,35.2803311 128.162617,34.5644027 127.845015,33.9808086 C127.576376,33.4713216 127.817225,32.8731707 127.674304,32.3319235 C127.530059,32.1373921 127.399049,31.8039097 127.09865,31.8766936 C126.826041,31.8581668 126.685767,32.1387154 126.488589,32.2789898 C126.500499,32.6257056 126.418452,32.9949182 126.528289,33.3270772 C126.954405,33.994042 126.585193,34.8158378 126.800898,35.5370596 C126.990136,36.0915403 126.800898,36.6883678 126.917352,37.2547585 C127.029836,37.5922109 127.392432,37.6901383 127.654454,37.8833463 C127.848985,37.6874916 128.071307,37.5101637 128.212904,37.2693153 Z M101.829433,30.7253986 C102.792827,30.7981825 103.606682,31.4849973 103.990452,32.3570802 C104.005009,33.1113856 103.999715,33.8670143 103.991775,34.6213197 C103.840914,34.9997957 103.647706,35.3584216 103.439941,35.7077841 C103.222913,36.0359731 102.831203,36.159044 102.512278,36.3601921 C102.111305,36.6738243 101.579321,36.5110531 101.113505,36.5348733 C101.010284,36.7876318 100.884566,37.0324502 100.805166,37.294472 C100.776052,38.0686276 100.840896,38.8480764 100.780022,39.6209086 C100.716502,39.680459 100.588138,39.7982365 100.524617,39.857787 C100.078651,39.6235553 99.6009238,39.4938677 99.0940835,39.5534181 C99.0954069,38.8335197 99.0040962,38.0950944 99.1787775,37.3884294 C99.3402253,36.630154 99.0239464,35.7938014 99.3838956,35.081843 C99.4407994,34.4916321 99.3349319,33.8895111 99.4288893,33.305917 C99.8285388,32.5595517 99.5625469,31.6901155 99.6472408,30.8841997 C99.6935578,30.8458228 99.7848685,30.7690689 99.8311855,30.730692 C100.496827,30.7148119 101.162468,30.730692 101.829433,30.7253986 Z M102.520218,33.4117844 C102.636672,32.9750813 102.213202,32.7157061 101.963091,32.4351574 C101.719596,32.4391275 101.476101,32.4378041 101.233929,32.4364808 C100.98514,33.1960795 101.208785,34.012582 101.053954,34.7920309 C101.46419,34.8012943 101.882367,34.811881 102.264813,34.6398465 C102.234376,34.2084367 102.38259,33.8114339 102.520218,33.4117844 Z M124.363327,36.655271 C124.458607,37.3341459 124.371267,38.0249308 124.410967,38.709099 C124.498308,38.987001 124.638582,39.2490228 124.666372,39.5454516 C124.342153,39.5745652 123.987497,39.4978113 123.708272,39.7068994 C123.47007,39.8881974 123.172318,39.8021801 122.92353,39.697636 C122.930147,39.3032799 122.988374,38.8864269 122.738262,38.5489745 C122.529174,37.6014611 122.90765,36.550727 122.513294,35.6336504 C122.461683,34.7642142 122.595341,33.8815446 122.395516,33.0253418 C122.334642,32.2882399 122.380959,31.547168 122.366403,30.8087427 C122.787226,30.6790551 123.233192,30.7253721 123.667248,30.7306655 C123.90148,30.8735865 123.81811,31.1541352 123.855163,31.3830735 C124.299806,32.1969293 124.002054,33.1550294 124.096011,34.0390224 C124.495661,34.8515549 124.084101,35.8070083 124.363327,36.655271 Z M108.773012,31.2454591 C108.997981,31.6054083 108.84315,32.0765183 108.86697,32.4827846 C108.825946,32.5291015 108.743899,32.6217355 108.704199,32.6680525 C107.934013,32.7090762 107.161181,32.6614358 106.390996,32.689226 C106.398936,33.3561908 106.412169,34.0244789 106.376439,34.6914436 C106.95474,34.8621548 107.566124,34.7602574 108.160305,34.7734909 C108.086198,35.302828 107.993564,35.8295184 107.969743,36.3641489 C107.387473,36.3760589 106.803878,36.3654722 106.221608,36.3773823 C106.246751,37.0496404 106.246751,37.7232219 106.220284,38.39548 C107.028847,38.4232702 107.838732,38.3703365 108.645972,38.4325336 C108.672438,39.001571 108.679055,39.5719317 108.644648,40.1409691 C107.290869,39.8723305 105.905329,40.0337783 104.534346,39.982168 C104.308054,39.0121577 104.473472,38.0117106 104.519789,37.032437 C104.563459,36.8749592 104.689177,36.7413015 104.685207,36.5719137 C104.693147,35.3451749 104.675943,34.1171129 104.6905,32.8903741 C105.058389,32.3094267 104.871798,31.6199651 104.933995,30.9741738 C105.627427,31.005934 106.356589,30.8511029 107.015613,31.1237115 C107.597884,31.1964954 108.221179,31.001964 108.773012,31.2454591 Z M121.548577,30.9794275 C121.719288,31.4267173 121.58563,31.9534077 121.620037,32.4324578 C121.144957,32.5250918 120.542836,32.2657166 120.163037,32.603169 C120.155097,32.9617949 120.15642,33.3217442 120.167007,33.6816934 C120.234497,33.9476853 120.422412,34.1845636 120.399915,34.471729 C120.398592,35.3967456 120.403885,36.3217622 120.397268,37.2481021 C120.346981,37.5868779 120.684434,37.8316963 120.65135,38.1717954 C120.630177,38.7739163 120.721487,39.3919174 120.554746,39.9808049 C120.018792,39.9847749 119.484162,39.9900683 118.950855,39.9834516 L118.949532,39.8630274 C118.893951,38.679959 119.077896,37.4704237 118.75897,36.3124988 C118.634576,35.1082569 118.749707,33.8921049 118.688833,32.683893 C118.269333,32.6719829 117.84851,32.6971264 117.429011,32.6706595 C117.133905,32.506565 117.315203,32.1479391 117.184192,31.8978274 C117.099498,31.711236 117.039948,31.5074412 117.102145,31.3049698 C117.316527,31.1488154 117.525615,30.9185537 117.818073,30.9688407 C119.060692,30.9767808 120.305958,30.9463439 121.548577,30.9794275 Z M116.34256,31.2322124 C116.502684,31.9838711 116.355793,32.7580266 116.4299,33.516302 C116.47754,33.7452403 116.580761,33.9649152 116.560911,34.2057636 C116.556941,36.0610901 116.564881,37.9164167 116.560911,39.7717432 C116.230075,40.2203564 115.51547,40.1025789 115.011277,40.1065489 C115.009953,39.7055761 115.050977,39.2900465 114.85102,38.9261272 C114.762488,37.1396145 114.914673,35.3372216 114.751769,33.5520323 C114.784853,32.7805234 114.677794,31.9971045 114.824685,31.2348591 C115.320939,31.0959081 115.846306,31.0853214 116.34256,31.2322124 Z M112.541879,31.2626625 C113.117534,31.6186417 113.62305,32.1440088 113.934036,32.7514231 C113.953886,34.7827543 113.956533,36.8154087 113.935359,38.8467399 C113.51586,39.1458153 113.192964,39.5494349 112.823751,39.9027674 C112.458509,40.0986221 112.021806,40.129059 111.612893,40.125089 C110.878438,40.1184723 110.143982,40.1303823 109.41085,40.1145022 C109.39497,38.1016979 109.404234,36.0902169 109.41085,34.0787359 C109.625232,33.1391626 109.502161,32.171799 109.545831,31.2163455 C110.542309,31.2454591 111.552019,31.1581185 112.541879,31.2626625 Z M112.360581,37.7960057 C112.364551,36.3773823 112.363228,34.9587589 112.361905,33.5401354 C112.389695,33.3006104 112.220307,33.1232824 112.1065,32.9353678 C111.774341,32.9274277 111.443505,32.9274277 111.112669,32.9300744 C111.133843,34.7536407 111.132519,36.5785304 111.112669,38.40342 C111.443505,38.4060667 111.775664,38.4047434 112.1065,38.39945 C112.215014,38.2088887 112.380432,38.0302374 112.360581,37.7960057 Z M140.379757,31.6424354 C140.793964,31.9666544 141.083776,32.4112976 141.280954,32.8943177 C141.310067,33.3310208 141.312714,33.7716939 141.278307,34.2097204 C141.065249,34.6768604 140.75294,35.09636 140.383727,35.4523392 C139.630745,35.702451 138.765279,35.7342112 138.017591,35.4549859 C137.637791,35.1519404 137.317542,34.7734644 137.087281,34.3460247 C137.050227,33.8166876 137.05155,33.2820571 137.085957,32.75272 C137.387679,32.0804619 137.968627,31.5498014 138.693819,31.3870303 C139.269473,31.2361692 139.84645,31.4307006 140.379757,31.6424354 Z M139.032594,34.5577595 C139.515615,34.4082218 139.908647,34.0403325 140.043628,33.5467257 C139.950994,33.2211833 139.712793,32.9671015 139.528848,32.6918462 C139.250946,32.6825828 138.918787,32.6018589 138.725579,32.8638808 C138.532371,33.0981125 138.127428,33.2833805 138.164482,33.6274496 C138.427827,33.9596086 138.771896,34.2203071 139.032594,34.5577595 Z M84.5280895,31.429364 C85.3578254,31.1183785 86.2047648,31.5934585 86.8187958,32.1333824 C87.3969643,32.7143298 87.1999185,33.5705326 87.1999185,34.3063112 C86.9431901,34.9547491 86.3503325,35.4417393 85.6793977,35.6124505 C85.1937309,35.6680309 84.6948307,35.6547974 84.2156483,35.5529 C83.8015743,35.5052597 83.5964562,35.1056102 83.3529612,34.8171215 C82.4729382,33.6949268 83.0777059,31.6953559 84.5280895,31.429364 Z M85.2823949,34.4201186 C85.6317574,34.2308806 85.8633424,33.8894582 86.0525804,33.5506825 C85.8831925,33.2344035 85.6780744,32.9340047 85.3935557,32.7103598 C84.8562785,32.5197984 84.2806244,32.9445915 84.1443201,33.4593718 C84.13241,34.0231158 84.7358543,34.4955492 85.2823949,34.4201186 Z M96.3097572,46.9958846 C95.77645,47.051465 95.2682864,46.8317901 94.7363026,46.8437002 C94.6635188,47.3134868 94.8395234,47.8348839 94.5682381,48.2570302 C94.328713,48.6752065 94.6158784,49.205867 94.3776767,49.63066 C94.1606485,50.0276628 94.2572525,50.4908328 94.2135822,50.9235659 C93.9145068,50.893129 93.5161806,51.0506068 93.3256192,50.7422679 C93.3123858,50.2949781 93.2276919,49.811958 93.4486901,49.4017217 C93.714682,48.9808987 93.4156065,48.4489149 93.6564549,48.0241219 C93.90392,47.6244724 93.760999,47.1401289 93.8165794,46.6994558 C93.5280907,46.6941624 93.239602,46.6915157 92.9511132,46.6928391 C92.7155582,46.4625774 92.2510649,46.0827781 92.6467444,45.7731159 C93.058304,45.7519424 93.479127,45.7453257 93.8800999,45.8631032 C94.2625459,45.9650006 94.6820456,45.8181095 95.0446415,46.0126409 C95.4416443,46.2124657 95.9815682,45.8948634 96.3031404,46.2481959 C96.3229906,46.4969843 96.3124038,46.7457728 96.3097572,46.9958846 Z M131.471001,49.3275616 C131.590102,49.760427 131.502761,50.224788 131.515994,50.6707545 C131.215596,50.6297308 130.794773,50.838819 130.608181,50.5132767 C130.624061,50.0421667 130.654498,49.5604699 130.395123,49.1422936 C130.41365,48.6314833 130.256172,48.0928828 129.751978,47.8692379 C129.54289,48.0042188 129.332479,48.1365531 129.126037,48.2741807 C129.165738,48.9386311 128.993703,49.6451638 129.302042,50.2631649 C129.316599,50.4616663 129.303365,50.6601677 129.300719,50.8599925 C128.99238,50.935423 128.676101,50.9632132 128.361145,50.9883567 C128.477599,50.5331268 128.156027,50.1440641 128.207637,49.6954509 C128.203667,49.3976987 128.247338,49.0827432 128.087213,48.8154279 C127.829161,48.3959283 128.118973,47.8705612 127.887388,47.4484149 C127.617427,46.9892149 127.696827,46.4267943 127.807988,45.9331874 C128.067363,45.8604036 128.326738,45.7862964 128.591407,45.734686 C128.699921,45.9874445 128.752855,46.2535687 128.669484,46.5235306 C128.56097,46.8965809 128.821668,47.2234466 128.934153,47.5622223 C129.073104,47.4245947 129.209408,47.2844527 129.360269,47.1612495 C129.953127,47.0275919 130.602888,47.1625728 131.044884,47.5873658 C131.392923,48.1100862 131.162662,48.7889611 131.471001,49.3275616 Z M126.677814,48.2993904 C126.991446,48.9173915 126.845878,49.6108231 126.900135,50.2751412 C127.220384,50.305578 127.537986,50.3532184 127.852942,50.4233555 C127.843678,50.6840541 127.835738,50.9447526 127.815888,51.2054511 C127.408299,51.2213312 126.983506,51.3086718 126.586503,51.1882477 C125.897041,50.6430304 125.908951,49.691547 125.946005,48.8948947 C125.984382,48.4767183 125.488128,48.475395 125.206256,48.3761443 C125.083185,49.0881027 124.983935,49.8027078 124.721913,50.4815826 C124.581639,50.7912448 124.661039,51.143254 124.631926,51.4727664 C124.347407,51.4820297 124.064212,51.4859998 123.781016,51.4793831 C123.365487,50.8481486 123.009507,50.1600103 122.86791,49.4123217 C122.571481,50.0184127 122.546337,50.6999342 122.391506,51.3457254 C122.296226,51.4820297 122.182418,51.6037773 122.080521,51.7347882 C121.897899,51.7334649 121.716602,51.7294948 121.536627,51.7215548 C121.267988,51.5892205 121.236228,51.2557381 121.123744,51.0095964 C120.745268,50.1308968 120.447516,49.220437 120.055806,48.3457074 C120.159027,48.0386919 120.51236,48.1948463 120.753208,48.1710262 C121.05096,48.1551461 121.135654,48.5018619 121.211085,48.7268301 C121.416203,49.2508739 121.543244,49.8093245 121.818499,50.3029314 C121.975977,49.4996623 122.159921,48.7016866 122.435177,47.9288544 C122.677348,47.9301778 122.91952,47.9288544 123.163015,47.9301778 C123.31917,48.6500762 123.647359,49.3157177 123.882914,50.0117959 C123.942464,50.0170893 124.060242,50.0263527 124.119792,50.0303227 C124.070828,49.2627839 124.30109,48.5322987 124.36461,47.7740233 C124.825134,47.726383 125.28301,47.6496291 125.747504,47.6615392 C125.701187,47.3293802 125.747504,47.0038379 125.879838,46.695499 C126.128626,46.7193192 126.366828,46.796073 126.59709,46.8900304 C126.650023,47.1083819 126.710897,47.3240868 126.770448,47.5424384 C126.966302,47.5358216 127.162157,47.5305283 127.359335,47.5278816 C127.477113,47.7449098 127.601507,47.9566446 127.735164,48.1657328 C127.396389,48.2954204 127.033793,48.294097 126.677814,48.2993904 Z M110.388814,51.5852637 C110.100325,51.2185654 109.919027,50.7806713 109.723173,50.3611717 C109.712586,49.9191752 109.701999,49.4758554 109.731113,49.0365056 C110.063272,48.533503 110.182373,47.8018268 110.79905,47.5570084 C111.152383,47.4035006 111.518949,47.2830764 111.877575,47.1401554 C112.273254,47.1216286 112.67158,47.1189819 113.068583,47.1401554 C113.323988,47.2619029 113.57013,47.4061473 113.814948,47.551715 C113.758045,47.7158095 113.701141,47.879904 113.645561,48.0453218 C112.945512,48.0439985 112.245464,48.0372495 111.545416,48.0453218 C111.305891,48.3245472 110.982995,48.5428987 110.828164,48.8856445 C110.391461,49.6373032 110.641572,50.7767013 111.450135,51.1789975 C111.886838,51.5217433 112.477049,51.3245652 112.987859,51.3536787 C112.979919,50.9486035 112.979919,50.5451163 112.990506,50.1414968 C112.698047,50.1375267 112.406912,50.1653169 112.1171,50.1944305 C112.058873,50.0290126 111.999322,49.8662415 111.938448,49.7034703 C111.982119,49.613483 112.068136,49.4361551 112.111806,49.3474911 C112.717897,49.3474911 113.325312,49.335581 113.931403,49.3620479 C113.955223,50.1917838 113.944636,51.0215197 113.941989,51.852579 C113.203564,52.1741512 112.384415,52.0100567 111.603643,52.0456547 C111.144443,52.0787382 110.769937,51.7943519 110.388814,51.5852637 Z M96.5334418,47.6548828 C97.1884964,47.5503387 98.0579326,47.5185785 98.4205286,48.1974533 C98.7976812,48.620923 98.7301908,49.1952538 98.7076939,49.7192975 C98.5211026,50.0077862 98.1426266,49.8622185 97.8594312,49.8648652 C97.3817045,49.5803465 96.8325172,49.6398969 96.3018568,49.6412203 C96.3415571,49.8780986 96.2237796,50.2446646 96.5440285,50.3174484 C97.0548388,50.7197446 97.7231269,50.5291833 98.3199545,50.5755003 C98.3305412,50.7912051 98.337158,51.0095567 98.3424513,51.2279082 C97.7337137,51.2437884 97.1223293,51.2795186 96.5162383,51.2212915 C96.0173381,51.1551244 95.7037059,50.721068 95.4218339,50.3492086 C95.3781636,49.8741286 95.3808102,49.3911085 95.4205105,48.9160284 C95.5607849,48.6394498 95.6838557,48.3549311 95.8281001,48.0796758 C96.0583617,47.9301381 96.2912701,47.7845704 96.5334418,47.6548828 Z M96.2528931,48.9544054 C96.792817,48.9755789 97.3327408,48.9769022 97.8713413,48.9663155 C97.7972341,48.6817968 97.5828526,48.481972 97.3883212,48.2768539 C96.8642775,48.1683398 96.5479986,48.5997495 96.2528931,48.9544054 Z M99.5665169,47.9288544 C100.322146,47.9129743 101.187612,47.8243104 101.747386,48.4462815 C101.825463,49.5314225 101.773853,50.6284737 101.760619,51.7175848 C101.371556,51.7797819 100.998374,51.6937646 100.680772,51.4595329 C100.475653,51.6156874 100.254655,51.803602 99.9767532,51.7294948 C99.5506368,51.5931905 99.1827475,51.3219053 98.8452951,51.0347399 C98.8519118,50.621857 98.7433977,50.158687 99.0398265,49.8159412 C99.4288893,49.1873534 100.254655,49.270724 100.883243,49.1172162 C100.840896,48.4502515 99.9039693,48.6236094 99.5069665,48.8631344 C99.3958057,48.6897765 99.153634,48.5349454 99.2250945,48.3007138 C99.3309619,48.1695705 99.4527094,48.0519253 99.5665169,47.9288544 Z M100.92956,50.5212829 C100.9772,50.3135181 100.946763,50.0978132 100.944117,49.8874017 C100.790609,49.8966651 100.618574,49.8715216 100.49021,49.977389 C100.168638,50.0395861 99.7001745,50.070023 99.6644443,50.4921694 C99.5956305,50.8547653 100.005867,50.9844529 100.234805,51.1564874 C100.479623,50.9606327 100.758849,50.7912448 100.92956,50.5212829 Z M103.347307,51.9041364 C103.074699,51.902813 102.803413,51.9014897 102.533451,51.8961963 C102.541391,50.8983959 102.431554,49.883392 102.647259,48.9014717 C102.688282,48.6619466 102.593002,48.3827213 102.735923,48.1736332 C103.089255,48.0783525 103.377744,48.2808239 103.652999,48.474032 C104.146606,47.863971 104.981635,48.238477 105.428925,48.709587 C105.893419,48.2106868 106.637137,48.427715 107.235288,48.4766786 C107.570094,48.8961783 107.748745,49.416252 107.723602,49.9548525 C107.656111,50.6271106 107.690518,51.3046621 107.690518,51.9808903 C107.400706,52.1224879 107.079134,52.1780683 106.772118,52.0470574 C106.736388,51.1683578 106.798585,50.2883349 106.770795,49.4096353 C106.56303,49.2945045 106.357912,49.1740803 106.160734,49.0443927 C105.976789,49.2124572 105.784905,49.3752284 105.590373,49.5313828 C105.603607,50.3121551 105.598313,51.0916039 105.591696,51.8723762 C105.227777,51.9967704 104.847978,51.995447 104.480089,51.8842862 C104.572723,51.6963716 104.70241,51.5137503 104.683883,51.2953987 C104.67462,50.628434 104.720937,49.9574992 104.661387,49.2945045 C104.477442,48.9769022 104.084409,49.1092365 103.786657,49.0814463 C103.110429,49.8807453 103.664909,50.9857365 103.347307,51.9041364 Z M117.679096,51.9505063 C116.85333,51.7533282 116.616452,50.8044915 116.40604,50.0965031 C116.624392,49.564387 116.748786,48.9134347 117.2371,48.5561321 C117.431631,48.3695408 117.71615,48.4237979 117.960968,48.4039477 C118.406935,48.4052711 118.854224,48.3854209 119.300191,48.4277679 C119.866582,48.7744837 120.137867,49.4480652 120.168304,50.0859164 C120.357542,51.3444153 118.843638,52.5248371 117.679096,51.9505063 Z M117.518972,49.567166 C117.574552,50.0012224 117.36017,50.5358529 117.701593,50.8852154 C117.983465,51.2359012 118.560442,51.3113318 118.928332,51.06519 C119.11757,50.740971 119.338568,50.3995486 119.247257,50.0065158 C119.110953,49.6611233 118.907158,49.3461678 118.659693,49.0722358 C118.181966,48.9650451 117.816724,49.2257436 117.518972,49.567166 Z M107.141331,57.7943747 C107.215438,57.6435136 107.383503,57.5773465 107.51319,57.4873592 C108.002827,57.1962238 108.464674,56.8349512 109.020478,56.6761501 C109.025771,56.8124544 109.035034,57.0837396 109.039004,57.2200439 C109.237506,57.1432901 109.437331,57.0705062 109.638479,57.0030157 C110.285593,57.5416162 110.693183,58.2972449 111.172233,58.9787665 C110.986965,59.1521244 110.800374,59.3228356 110.607166,59.4856067 C111.039899,60.1869784 111.532182,60.8552665 112.087986,61.4666509 C112.498222,61.2866762 112.621293,60.826153 112.901842,60.5151674 C113.140044,60.228002 113.321342,59.899813 113.563513,59.6166177 C113.407359,59.4459065 113.253851,59.2765186 113.104313,59.1031607 C113.445736,58.4295792 113.822888,57.7480577 114.380016,57.227984 C114.773049,57.1366734 115.143585,56.9222918 115.547204,56.9024417 C116.120211,57.0996198 116.593968,57.4966226 117.102132,57.8155482 C116.968474,57.9690559 116.834817,58.1225637 116.702482,58.2773948 C117.252993,58.3290052 117.80615,58.3713521 118.359307,58.4084057 C118.416211,58.4785429 118.530019,58.6201406 118.586922,58.6902777 C118.111842,58.9695031 117.935838,59.5081036 117.556038,59.8786395 C117.3271,60.1327214 117.059785,60.3510729 116.834817,60.6091247 C116.551621,61.0220077 116.32533,61.4745909 115.993171,61.8557136 C115.707329,61.575165 115.428103,61.2866762 115.170051,60.9809841 C114.856419,61.6373621 114.245035,62.0661251 113.900966,62.702653 C113.820242,62.8283705 113.685261,62.9699682 113.809655,63.119506 C114.08491,63.4569584 114.407806,63.7560338 114.757168,64.0180557 C114.425009,64.5090159 113.879792,64.7723611 113.439119,65.1481904 C113.259144,65.2672913 113.064613,65.463146 112.830381,65.3533085 C112.59615,65.1296636 112.380445,64.8888152 112.142243,64.671787 C111.792881,64.8954319 111.586439,65.459176 111.117976,65.412859 C110.555555,64.9430723 109.924321,64.5553328 109.449241,63.9849721 C109.756256,63.6475197 110.105619,63.3524143 110.490711,63.1075959 C110.502621,63.0652489 110.526442,62.980555 110.537028,62.938208 C110.027541,62.324177 109.453211,61.7273494 109.121052,60.9955408 C109.072088,60.9968642 108.972837,60.9995109 108.92255,61.0008342 C108.800803,61.3409333 108.558631,61.6056018 108.303226,61.8530669 C107.858583,61.4468007 107.593914,60.8976135 107.199558,60.4490003 C106.785352,59.760862 105.992669,59.378416 105.671097,58.6307273 C106.114417,58.2641614 106.667574,58.1834375 107.226025,58.2615147 C107.194265,58.1053602 107.151918,57.9518525 107.141331,57.7943747 Z M106.393655,60.2054655 C106.679497,60.4516073 106.922993,60.740096 107.112231,61.068285 C107.424539,61.4719045 107.956523,61.8927275 107.849332,62.4564715 C107.554227,62.7714271 107.263092,63.0916761 107.01695,63.4489786 C106.576277,63.2345971 106.09458,63.0744726 105.739924,62.7224634 C105.403795,62.3863344 104.904895,62.2222399 104.686543,61.77495 C104.349091,61.354127 104.25778,60.8128798 103.987818,60.3550032 C103.81049,60.0625445 103.875334,59.6946552 103.908418,59.3717596 C104.272337,59.0131337 104.780501,58.7233216 105.303221,58.9032962 C105.749188,59.2645688 105.955629,59.8336062 106.393655,60.2054655 Z M119.605883,61.6545523 C118.920392,62.3982709 118.160793,63.155223 117.162992,63.445035 C116.941994,63.0996426 116.705116,62.7661602 116.439124,62.4538513 C116.396777,62.2447632 116.424567,62.0290583 116.424567,61.8186468 C117.383991,60.9452406 117.971555,59.7317353 118.987882,58.9072927 C119.503986,58.7167314 120.014796,59.0184535 120.373422,59.3731094 C120.430326,59.6099877 120.430326,59.8720096 120.319165,60.0943312 C120.09949,60.6196983 119.972449,61.2032924 119.605883,61.6545523 Z M114.258295,65.0422568 C114.542813,64.8014084 114.849829,64.5367399 115.246832,64.5473266 C115.855569,65.3097044 116.440487,66.0876976 116.952621,66.9200802 C116.533121,67.4203038 115.98261,67.7776063 115.438716,68.1282921 C114.927906,68.292519 114.705585,67.7987798 114.50179,67.4428006 C114.0148,66.9399303 113.600593,66.373672 113.19565,65.8059579 C113.546336,65.5465827 113.934076,65.3360389 114.258295,65.0422568 Z M110.890361,66.1194843 C110.412634,66.4754635 110.226043,67.0669977 109.76155,67.4335636 C109.491588,67.6307417 109.490264,68.1349353 109.090615,68.1389053 C108.313813,68.0647981 107.809619,67.3846 107.269695,66.8962865 C107.826822,66.0625805 108.324399,65.1759409 109.098555,64.5169162 C109.784046,64.7683513 110.249863,65.3453288 110.870511,65.6999846 C110.875804,65.8045287 110.885068,66.0149402 110.890361,66.1194843 Z M114.743961,74.8165194 C115.00466,75.0269309 115.258742,75.2518991 115.458567,75.5258311 C115.138318,75.5655314 114.816745,75.5721481 114.495173,75.5708247 C114.11405,75.1552951 114.221241,74.5875811 114.222564,74.0741241 C114.147134,74.011927 113.998919,73.8875327 113.924812,73.826659 C113.948632,73.6347743 113.981716,73.4442129 114.020093,73.2576216 C114.107434,72.9876597 114.487233,72.9744262 114.708231,72.8367986 C114.635447,73.3052619 115.041714,73.50244 115.449303,73.50641 C115.42813,73.5937506 115.385783,73.7671085 115.364609,73.8544492 C115.155521,73.9126763 114.94511,73.96958 114.736021,74.0251604 C114.739991,74.2885056 114.741315,74.5518508 114.743961,74.8165194 Z M119.944659,72.7970718 C120.397242,73.0868839 120.804832,73.5553472 120.857765,74.1071812 C120.442236,74.129678 120.029353,74.1746716 119.62044,74.2514255 C119.621763,74.3215627 119.625733,74.4631604 119.627057,74.5332975 C120.022736,74.4962439 120.421062,74.4552203 120.819388,74.4830105 C120.820712,74.6153448 120.823358,74.7490024 120.826005,74.88266 C120.373422,75.160562 119.869228,75.2518727 119.345185,75.1804121 C118.979942,74.7556191 118.609406,74.2606889 118.67425,73.6678314 C118.572352,73.708855 118.367234,73.7922256 118.265337,73.8345726 C118.291804,74.3295028 118.348707,74.8244329 118.314301,75.3220098 C118.097272,75.3206865 117.880244,75.3167164 117.663216,75.3114231 C117.632779,74.8045828 117.74791,74.272599 117.569259,73.7856089 C117.230483,74.2117252 117.430308,74.7741459 117.385314,75.2717228 C116.911557,75.3656801 116.474854,75.6224086 115.978601,75.5787383 C115.817153,75.4305239 115.655705,75.2823095 115.488964,75.1433585 C115.48367,74.5610877 115.482347,73.9788169 115.49558,73.3965461 C115.598801,73.4097795 115.803919,73.4375697 115.905817,73.4508032 C115.876703,73.9179432 116.065941,74.3453829 116.192982,74.786056 C116.202245,75.0295511 116.691882,74.9541205 116.593955,74.685482 C116.616452,74.218342 116.582045,73.7525253 116.615128,73.2867087 C116.912881,73.2681819 117.192106,73.3608159 117.464714,73.4719766 L117.421044,73.3515525 C117.847161,73.2800919 118.26269,73.1596678 118.66631,73.0048367 C118.740417,73.191428 118.810554,73.3793427 118.878045,73.569904 C119.001115,73.1001173 119.509279,72.8658857 119.944659,72.7970718 Z M119.239317,73.894123 C119.521189,73.8226625 119.799091,73.7326752 120.06376,73.6082809 C119.730277,73.3700793 119.384885,73.5540239 119.239317,73.894123 Z M112.743041,73.5037766 C113.001093,73.5646503 113.271055,73.609644 113.501316,73.7499183 C113.882439,74.2263217 113.896996,74.8694663 113.894349,75.4530605 C113.690554,75.4795273 113.486759,75.5073175 113.282965,75.5351077 C113.253851,75.1209014 113.293551,74.6961084 113.190331,74.2911655 C113.027559,74.0397304 112.713927,74.1561846 112.473079,74.1641246 C112.443965,74.6577315 112.439995,75.1513383 112.439995,75.6462685 C112.324864,75.6661186 112.094603,75.7084656 111.979472,75.7283157 C111.63805,75.0163573 111.874928,74.1892681 111.819348,73.4270227 C112.12901,73.4217293 112.437349,73.4614296 112.743041,73.5037766 Z M110.472198,75.0480779 C110.931398,75.0163176 111.389274,75.0560179 111.757164,75.3643568 C111.501758,75.539038 111.23709,75.7018092 110.963158,75.8447302 C110.637616,75.6925458 110.30678,75.5562415 109.970651,75.434494 C109.830377,74.9739707 109.653049,74.4327235 109.964034,73.9999904 C110.159889,73.4918268 110.76598,73.4441864 111.231797,73.4296297 C111.362807,73.6413645 111.524255,73.8319259 111.690996,74.0171939 C111.685703,74.2620123 111.677763,74.508154 111.669823,74.7556191 C111.26885,74.7516491 110.866554,74.7476791 110.465581,74.7582658 C110.466904,74.8310497 110.470874,74.975294 110.472198,75.0480779 Z M110.79377,73.9324999 C110.527778,73.8319259 110.402061,74.1415881 110.241936,74.2898025 C110.572772,74.3136226 110.904931,74.3136226 111.23709,74.2858324 C111.095492,74.1601149 110.964481,74.0158705 110.79377,73.9324999 Z M114.590427,50.0024796 C114.350902,49.5551898 114.46868,49.0351161 114.455446,48.552096 C114.786282,48.5256291 115.114471,48.5626827 115.441337,48.6010596 C115.623958,48.5163657 115.792022,48.4052049 115.978614,48.3297744 C116.190349,48.2993375 116.379587,48.4356418 116.582058,48.4806354 C116.566178,48.7333939 116.538388,48.984829 116.476191,49.2309708 C116.194319,49.2812578 115.911123,49.3341915 115.626605,49.3685984 C115.440013,50.2380346 115.588228,51.139231 115.539264,52.0219007 C115.222985,52.1595283 114.900089,52.1396782 114.597044,51.9782303 C114.595721,51.3192057 114.628804,50.6588576 114.590427,50.0024796 Z M109.111762,73.7816653 C109.246743,73.5752238 109.654332,73.1861611 109.754906,73.6188942 C109.704619,73.8862094 109.576255,74.1323511 109.511411,74.398343 C109.461124,74.8337228 109.266593,75.236019 108.955607,75.5470046 C108.774309,75.5628847 108.593011,75.5695014 108.411713,75.568178 C108.275409,74.8906265 108.030591,74.2316019 107.738132,73.6069841 C107.551541,74.2646854 107.847969,74.9792905 107.555511,75.614495 C107.124101,75.4239337 106.680781,75.2770426 106.203054,75.3207129 C105.815315,75.3868801 105.758411,74.9515003 105.592993,74.7053586 C105.58373,74.9118 105.57976,75.1182415 105.578437,75.3260063 C105.458012,75.3193896 105.217164,75.3074795 105.09674,75.3008628 C104.936615,74.9819372 104.768551,74.668305 104.607103,74.3507027 C104.404632,74.3546727 104.20216,74.3626128 103.999689,74.3665828 C103.852798,74.5955211 103.712523,74.8297528 103.561662,75.0573677 C103.392274,75.0031107 103.225533,74.9435603 103.061439,74.8800398 C103.070702,74.7702024 103.089229,74.5492041 103.098492,74.4393667 C103.557692,73.7485817 103.925581,73.0048631 104.318614,72.2770246 C104.523732,72.2611445 104.727527,72.2479111 104.933969,72.236001 C105.094093,72.9069358 105.189374,73.6149241 105.516239,74.2289552 C105.690921,73.9073829 105.882805,73.595074 106.10645,73.3052619 C106.416113,73.2854118 106.725775,73.2840884 107.035437,73.2946752 C107.061904,72.9823663 107.128071,72.6779975 107.211442,72.3775987 C107.429793,72.4133289 107.644175,72.475526 107.862526,72.517873 C107.86385,72.7693081 107.85988,73.0194199 107.851939,73.2721784 C108.133811,73.3701057 108.407743,73.4931766 108.644622,73.6784446 C108.652562,73.9351731 108.657855,74.1932249 108.669765,74.4512768 C109.024421,74.4221632 108.945021,74.0026636 109.111762,73.7816653 Z M106.888546,74.7807891 C107.089694,74.4724502 107.089694,74.1323511 106.885899,73.8253356 C106.631817,73.8676826 106.267898,73.7472584 106.177911,74.0754474 C105.99926,74.2951223 106.218934,74.5571442 106.282455,74.7781424 C106.483603,74.7768191 106.686074,74.7768191 106.888546,74.7807891 Z M104.203483,73.8518025 C104.383458,73.8518025 104.564756,73.8491558 104.746054,73.8425391 C104.698414,73.5712538 104.636217,73.3012919 104.563433,73.0366233 C104.366255,73.2695317 104.2101,73.5381703 104.203483,73.8518025 Z" id="Combined-Shape"></path>
                    </g>
                </g>
            </g>
        </g>
    </g>
</svg>