<?xml version="1.0" encoding="UTF-8"?>
<svg width="113px" height="48px" viewBox="0 0 113 48" version="1.1" xmlns="http://www.w3.org/2000/svg" xmlns:xlink="http://www.w3.org/1999/xlink">
    <!-- Generator: Sketch 50.2 (55047) - http://www.bohemiancoding.com/sketch -->
    <title>Combined Shape</title>
    <desc>Created with Sketch.</desc>
    <defs></defs>
    <g id="Desktop" stroke="none" stroke-width="1" fill="none" fill-rule="evenodd">
        <g id="Work" transform="translate(-263.000000, -2288.000000)" fill="#000000">
            <g id="Clients" transform="translate(80.000000, 1824.000000)">
                <g id="logos" transform="translate(128.000000, 448.000000)">
                    <g id="1">
                        <path d="M64.7121765,37.6016502 C64.4401743,37.8133444 64.5682989,38.2608367 64.8907108,38.3362921 C66.2895793,38.5060667 67.6936989,38.6391616 69.1020193,38.6947051 C71.9722204,38.8749596 74.8539737,38.6947051 77.7063213,38.3541079 C78.0150806,38.3624919 78.3007354,37.9988389 78.1085485,37.7190252 C78.0098296,37.4748432 77.7147229,37.5146669 77.5036324,37.5314348 C75.6920346,37.7609449 73.8667841,37.9024237 72.0404835,37.8856558 C71.5857462,37.9380554 71.1310089,37.9391034 70.6773218,37.8867038 C68.8478705,37.8992797 67.0205197,37.747321 65.2057713,37.5293388 C65.0440402,37.5314348 64.8424015,37.4758912 64.7121765,37.6016502 M79.9316986,30.6817637 C78.6693562,30.9343296 77.7336266,32.2401267 77.9268637,33.5134362 C78.043436,34.4471964 78.7155651,35.2897814 79.6082365,35.5978908 C80.2079016,35.8326409 80.8632274,35.7309857 81.491248,35.7519456 C82.0489051,35.7341297 82.6275662,35.816921 83.1673698,35.6366665 C84.0411376,35.3736207 84.7458229,34.6043951 84.9180559,33.7083625 C85.1091926,32.8626336 84.814086,31.9299213 84.178714,31.3399022 C83.6704164,30.8305785 82.9373757,30.5832525 82.2242888,30.6241242 C81.4607922,30.6524199 80.6878438,30.5633407 79.9316986,30.6817637 M59.4758711,30.7215874 C58.5674467,30.9668173 57.8417574,31.7538588 57.6621729,32.6739951 C57.4216767,33.7534262 57.980384,34.9470882 58.9675735,35.4490761 C59.8518433,35.936392 60.8915429,35.693258 61.8514272,35.7540415 C62.8533196,35.8368329 63.8856678,35.3138852 64.3582585,34.4199486 C64.8791585,33.4914283 64.7363311,32.2327908 63.9990896,31.4583252 C63.4655871,30.8620182 62.6485303,30.5685806 61.855628,30.6230762 C61.063776,30.6649958 60.2530203,30.5329489 59.4758711,30.7215874 M64.2269833,16.3022752 C66.5468787,16.1419325 68.8699248,16.0004537 71.1971716,16.0214135 C74.2501077,16.0193176 77.2967427,16.2310118 80.3370764,16.4772898 C80.5681208,16.5066335 80.8705788,16.453186 81.0218079,16.6764081 C81.9176299,17.765271 82.7420382,18.9253974 83.3616571,20.1955628 C84.2091698,22.0043958 84.6092967,23.9819554 84.9506122,25.9385551 C85.7582173,25.9301712 86.5668725,25.9228352 87.3744776,25.9385551 C87.6296766,26.2110329 87.6401786,26.6585251 87.7283955,27.0127462 C87.5645641,27.9119227 86.6571899,28.3887588 86.0837798,28.9850658 C86.3526314,29.8465146 86.7086497,30.6775717 87.0100576,31.5285407 C87.1066762,31.7884425 87.0835717,32.0693042 87.0856721,32.3407339 C87.1024753,36.1868619 87.1350316,40.031942 87.1150778,43.877022 C87.1287304,44.2742107 87.0373628,44.721703 86.6960473,44.969029 C86.3232257,45.2614185 85.82438,45.2729464 85.3717431,45.2687545 C84.6754594,45.2519866 83.9760251,45.2980982 83.2818418,45.2289308 C82.8103013,45.1922511 82.3167065,45.2404587 81.8682704,45.0643962 C81.5374569,44.8851896 81.3316174,44.5341126 81.220296,44.1851315 C81.1562337,43.5710086 81.2276474,42.9495497 81.1845891,42.3333309 C75.6153699,42.3427628 70.0461506,42.3343788 64.4769313,42.3375228 C63.5075952,42.3490507 62.5372089,42.314467 61.568923,42.3553387 C61.6193327,43.0585408 61.6403367,43.7942307 61.3840875,44.4649451 C61.2675151,44.7824865 60.9850109,45.0308604 60.6415949,45.0643962 C59.4328129,45.2509386 58.1946251,45.2383627 56.9837427,45.079068 C56.3305172,45.0193325 55.7623582,44.5089608 55.5848741,43.8895979 C55.51136,39.6976328 55.4788037,35.4993797 55.5197616,31.3021745 C55.5460166,30.9762492 55.5029583,30.5979244 55.7298019,30.3306866 C56.0984227,29.8894823 56.7033388,29.6075726 56.8335638,29.0007857 C56.7442967,28.2640478 55.9755491,27.9433625 55.5302636,27.4403266 C54.9347993,26.9676826 54.9621045,26.1303375 55.04297,25.4480952 C55.912537,25.4522872 56.7821039,25.465911 57.6506207,25.4439032 C57.8197032,25.1756175 57.8249542,24.8308283 57.9257735,24.5331988 C58.4949828,22.5042877 59.0683929,20.4334569 60.1984099,18.6330078 C60.6489464,17.9119898 61.1120853,17.1888758 61.6791942,16.5537931 C62.5130543,16.3986904 63.3805208,16.3976424 64.2269833,16.3022752 Z M66.6245937,17.8501583 C65.402159,17.9476215 64.1482182,17.9675334 62.95939,18.2672589 C61.6802444,19.9880606 60.4609603,21.8461491 59.9810181,23.9641395 C59.8738976,24.3728561 59.9054036,24.9565873 60.313932,25.1735215 C67.5130642,25.1986733 74.7142969,25.1745695 81.9144793,25.1850494 C82.1686281,25.1986733 82.5267468,25.1798094 82.6076124,24.8832279 C82.6653734,24.3110246 82.5214958,23.7440614 82.3629154,23.1991059 C81.8105093,21.4437205 80.8170186,19.8664936 79.6964534,18.4202656 C79.6050859,18.3311863 79.5357726,18.1739876 79.3866439,18.1823716 C75.1501305,17.7443112 70.8789605,17.6164563 66.6245937,17.8501583 Z M75.8516757,20.2290986 C77.1287209,19.694623 78.7512824,20.7960619 78.6641157,22.1867463 C78.7932905,23.4537678 77.4847393,24.5646385 76.2528528,24.3319845 C75.4504987,24.2261373 74.748964,23.6141104 74.5189699,22.8427888 C74.1923572,21.7927016 74.8004239,20.5717917 75.8516757,20.2290986 Z M101.879852,16.5276143 C104.453896,16.2415127 107.044744,16.0979379 109.634541,16.0182905 C113.352255,15.9334032 117.067868,16.1744412 120.769829,16.4835987 C120.915807,16.5056065 121.094341,16.4877906 121.187809,16.6292694 C122.165547,17.7904438 123.042465,19.0501293 123.683088,20.4292859 C124.457087,22.1773353 124.816256,24.0668636 125.171224,25.9322881 C125.979879,25.9218082 126.789585,25.9155203 127.59719,25.9312401 C127.815632,26.2162938 127.856589,26.6459702 127.932204,27.0033352 C127.817732,27.7316892 127.179209,28.2252931 126.641506,28.6664974 C126.520733,28.7912084 126.208823,28.8760957 126.333797,29.1024618 C126.593197,29.9062711 126.910358,30.6901686 127.205464,31.480354 C127.260075,31.6239288 127.28423,31.7758876 127.28633,31.9288943 C127.301033,35.9447969 127.353543,39.9606995 127.320987,43.9766022 C127.332539,44.3695989 127.192862,44.7919394 126.849446,45.0141135 C126.426215,45.319079 125.88221,45.2771594 125.388616,45.2740154 C124.366769,45.2645835 123.337572,45.315935 122.324127,45.1545444 C121.801127,45.0864249 121.483966,44.5624293 121.383147,44.0887372 C121.354791,43.5081501 121.384197,42.9244189 121.369494,42.3427837 C114.841441,42.3469757 108.313387,42.3480237 101.786384,42.3417357 C101.81474,43.0690417 101.857798,43.8340753 101.567942,44.5194616 C101.45137,44.8118512 101.186719,45.0298334 100.871658,45.0717531 C99.9149248,45.2373357 98.9350867,45.2299997 97.967851,45.1786482 C97.3923405,45.1231046 96.7422657,45.1252006 96.290679,44.7101961 C95.9745683,44.4136145 95.7057166,44.0059459 95.7361725,43.5563577 C95.7162187,39.3622965 95.6448049,35.1682354 95.7172689,30.9741742 C95.6595078,30.3537634 96.2476207,30.0184062 96.6298941,29.6411293 C96.9092477,29.3948514 97.1245391,28.9683189 96.9008461,28.6172418 C96.4818157,27.9643432 95.692064,27.6394659 95.3234432,26.9467437 C95.1438588,26.4646677 95.1680134,25.9312401 95.2247243,25.4282043 C96.1079439,25.4229644 96.9901132,25.4292523 97.8722826,25.4261083 C98.520257,23.0199203 99.1356752,20.5403729 100.505138,18.4223825 C100.93047,17.769484 101.351601,17.1019135 101.879852,16.5276143 Z M104.83932,37.9391243 C104.593573,38.101563 104.639782,38.5197115 104.918085,38.6192707 C105.749845,38.944148 106.639366,39.0961067 107.518385,39.2302496 C109.929648,39.5540789 112.379768,39.5687508 114.799433,39.3214248 C115.891642,39.18833 116.997505,39.0248433 118.028803,38.6234627 C118.453084,38.4903678 118.271399,37.7672538 117.828214,37.8678609 C115.803425,38.5364794 113.650512,38.6695743 111.532255,38.6873901 C109.582031,38.6716702 107.609752,38.5584872 105.720439,38.0428755 C105.435835,37.9915239 105.115523,37.7452459 104.83932,37.9391243 Z M119.864555,30.7320882 C118.85111,30.998278 118.061359,31.9404222 117.997297,32.9863175 C117.914331,33.8750141 118.350164,34.7783826 119.086356,35.2814184 C119.600954,35.6513594 120.248929,35.7697824 120.872749,35.7351987 C121.604739,35.7027109 122.349332,35.8054141 123.073971,35.6618393 C124.044358,35.4333772 124.829908,34.5886962 124.981137,33.6046324 C125.126065,32.7547114 124.805754,31.841911 124.150428,31.2780917 C123.632679,30.8138316 122.924843,30.6000413 122.23591,30.641961 C121.446159,30.6807367 120.640654,30.5581217 119.864555,30.7320882 Z M99.6838804,30.7016965 C98.5076546,30.9437825 97.6118326,32.0986689 97.6937483,33.2975709 C97.7158026,34.3015466 98.4099859,35.2426427 99.3572677,35.576952 C99.8540131,35.7802623 100.399068,35.7289107 100.923118,35.7341507 C101.411462,35.7268147 101.901906,35.7498705 102.39025,35.7226228 C103.371138,35.6524073 104.26591,34.9481572 104.574669,34.0185889 C104.872927,33.1938198 104.689141,32.2244278 104.122033,31.5579054 C103.608484,30.9280626 102.784076,30.5948014 101.976471,30.640913 C101.212974,30.6723527 100.440026,30.5811775 99.6838804,30.7016965 Z M103.178951,18.250512 C101.950216,19.928346 100.763488,21.7099312 100.241538,23.7482743 C100.111313,24.2261583 100.063003,24.8224654 100.488335,25.1735424 C107.738927,25.1609665 114.990569,25.1735424 122.241161,25.1683025 C122.475356,25.1819264 122.792517,25.0813192 122.800919,24.8004575 C122.824023,24.268078 122.689597,23.7430343 122.54572,23.2347585 C121.97546,21.377718 120.901104,19.7239877 119.701774,18.2127843 C116.429346,17.8753311 113.139064,17.7076525 109.848782,17.768436 C107.621304,17.8218835 105.379124,17.8648512 103.178951,18.250512 Z M142.198154,16.4878116 C146.278187,16.1063428 150.382375,15.8768327 154.480262,16.0696631 C156.714041,16.1713182 158.954121,16.2865973 161.176347,16.5349712 C162.162487,17.6542259 163.016301,18.9002875 163.676877,20.2385724 C164.497085,22.0348295 164.909814,23.9861893 165.230126,25.9249731 C166.058735,25.9333571 166.887344,25.9061093 167.715953,25.9365011 C167.879784,26.4143851 168.173841,26.9876363 167.864031,27.4707603 C167.505913,28.0806912 166.930402,28.5229436 166.367494,28.9327082 C166.574384,29.6537262 166.86529,30.3464484 167.122589,31.0496506 C167.223408,31.3378482 167.383039,31.6197578 167.366236,31.9341552 C167.38829,35.9144261 167.429248,39.894697 167.404043,43.874968 C167.425047,44.2952125 167.310575,44.7605206 166.944055,45.0099425 C166.558631,45.2897562 166.063986,45.2887082 165.609248,45.2740363 C164.52439,45.2572685 163.42903,45.3306279 162.354674,45.1451334 C161.86843,45.0633901 161.599579,44.5750261 161.468303,44.1474457 C161.432596,43.5563786 161.455701,42.9632155 161.459902,42.3721485 C158.504634,42.3134609 155.544116,42.3637645 152.586748,42.3469967 C149.021314,42.3386127 145.455879,42.3616685 141.890444,42.3354688 C141.864189,43.1046944 141.965009,43.9294635 141.589037,44.6358096 C141.391599,45.0350943 140.907456,45.1011178 140.51258,45.1398935 C139.399366,45.2425966 138.270399,45.2499325 137.164537,45.078062 C136.405241,44.9669749 135.747815,44.237573 135.816078,43.4589154 C135.791924,39.301534 135.726811,35.1431045 135.795074,30.9867711 C135.726811,30.3736962 136.29497,30.032051 136.682495,29.671542 C136.961848,29.4231681 137.209696,28.9997796 136.989153,28.6361266 C136.569073,27.9528363 135.727861,27.629007 135.379194,26.8922691 C135.230066,26.425913 135.255271,25.9239252 135.294128,25.4428972 C136.183649,25.4030735 137.07527,25.4449931 137.965841,25.4198413 C138.395373,23.6634079 138.89737,21.9164065 139.603105,20.2480043 C140.174415,18.966311 140.951564,17.7862728 141.807479,16.678546 C141.884143,16.5328752 142.045874,16.4961955 142.198154,16.4878116 Z M141.792776,37.611124 C141.45041,37.7463149 141.516573,38.3206141 141.882043,38.3813976 C143.943589,38.9294971 146.052394,39.3046779 148.173801,39.534188 C152.879754,40.0707596 157.677075,39.6138354 162.243352,38.3855896 C162.734847,38.3185181 162.65083,37.5220448 162.156185,37.5671084 C159.374201,38.3027983 156.516603,38.7733464 153.6401,38.9012013 C149.786911,39.0584 145.921118,38.5689881 142.192903,37.609028 C142.055326,37.5555805 141.921951,37.5555805 141.792776,37.611124 Z M159.771177,30.7321092 C158.84595,30.9899151 158.102407,31.8104922 157.958529,32.7610203 C157.757941,33.8090116 158.313498,34.9335063 159.254478,35.4323501 C159.811085,35.7572274 160.471662,35.7656114 161.097582,35.7467475 C161.887334,35.7142598 162.723294,35.8662185 163.466837,35.5214294 C164.362659,35.1200487 164.99488,34.1758086 164.965475,33.1886008 C164.99173,32.2192088 164.384713,31.2885926 163.511996,30.878828 C162.929134,30.5801505 162.259105,30.6241661 161.624783,30.631502 C161.007265,30.6535099 160.373993,30.5602386 159.771177,30.7321092 Z M139.593653,30.7006695 C138.944629,30.8494842 138.359667,31.2634408 138.01205,31.8314521 C137.466995,32.6729891 137.496401,33.8394034 138.083464,34.6526446 C138.546602,35.3390789 139.36786,35.7488435 140.192268,35.7488435 C140.822389,35.7498915 141.453561,35.7436035 142.084732,35.7477955 C142.80727,35.7509395 143.530859,35.443878 144.015002,34.9041625 C144.769047,34.0835853 144.88877,32.7610203 144.277553,31.8272601 C143.791309,31.0119229 142.815672,30.5696705 141.880993,30.6283581 C141.119596,30.6650378 140.345598,30.5560467 139.593653,30.7006695 Z M143.265158,18.236909 C142.774714,18.8709438 142.324178,19.5343223 141.900946,20.2144686 C141.152153,21.4322345 140.476873,22.7380316 140.235327,24.1591078 C140.159712,24.5552485 140.296238,25.2490188 140.82554,25.1829953 C148.002618,25.1788034 155.180746,25.1840433 162.358874,25.1798513 C162.594119,25.1945232 162.866122,25.0708602 162.897628,24.8109584 C162.91023,24.1203321 162.719093,23.4443778 162.49435,22.7967191 C161.915689,21.1691887 160.965257,19.7051448 159.906654,18.3500921 C159.832089,18.2327171 159.699764,18.1876535 159.569539,18.1782215 C156.308663,17.8533442 153.029933,17.6909056 149.753304,17.756929 C147.586738,17.8271445 145.404419,17.8554402 143.265158,18.236909 Z M116.28969,20.2406579 C117.1225,19.8916768 118.144346,20.2050262 118.698852,20.8987964 C119.297467,21.6271504 119.325823,22.7443091 118.750312,23.4936229 C118.208408,24.2534166 117.129851,24.5678139 116.264485,24.2125449 C115.274145,23.8562279 114.653476,22.6719977 114.982189,21.6648781 C115.153372,21.0161715 115.656418,20.46912 116.28969,20.2406579 Z M157.234941,20.2311946 C158.508835,19.692527 160.137698,20.7887259 160.053682,22.1804584 C160.187057,23.4495758 158.876406,24.5656865 157.642419,24.3319845 C156.840065,24.2261373 156.14063,23.6141104 155.908536,22.8438368 C155.581923,21.7947976 156.186839,20.5791277 157.234941,20.2311946 Z M110.726751,20.7698726 C111.624673,20.4827229 112.65282,21.2540445 112.632867,22.1930447 C112.693778,23.0670695 111.854667,23.8279111 110.997703,23.7503598 C110.447397,23.6822403 109.931748,23.3343072 109.721708,22.8134556 C109.382493,22.0002143 109.856133,20.9805188 110.726751,20.7698726 Z M144.967535,20.7635846 C145.741534,20.5361705 146.628954,21.074838 146.807489,21.8534955 C146.847396,22.2255325 146.86945,22.6332011 146.668862,22.9664623 C146.409462,23.4432983 145.87911,23.7314959 145.345608,23.7618877 C144.807905,23.7346399 144.274402,23.4464423 144.013952,22.9664623 C143.810213,22.6342491 143.827016,22.2255325 143.874275,21.8545435 C143.998199,21.3263559 144.445585,20.8987755 144.967535,20.7635846 Z M151.158495,20.7530942 C152.087923,20.5015763 153.090866,21.3347294 153.017352,22.2925934 C153.014201,23.2284496 151.982903,23.9924353 151.089182,23.6853738 C150.30153,23.4810155 149.760677,22.5545912 150.055783,21.7811737 C150.205962,21.2739459 150.645996,20.8778052 151.158495,20.7530942 Z M94.5242608,50.8126389 C96.1804288,50.3420908 97.9605206,50.6764 99.5074676,51.3617863 C99.4980158,52.002109 99.5001162,52.6434796 99.5064174,53.2848503 C98.400555,52.8006783 97.22853,52.2924026 95.9924427,52.4139696 C95.5818139,52.4558892 95.1050223,52.5931761 94.910735,52.9945567 C94.7605562,53.4148012 95.0997713,53.7795022 95.447388,53.9608047 C96.7706421,54.641999 98.4184085,54.8589332 99.4024474,56.0787951 C99.9653555,56.7851412 100.068275,57.774445 99.8277791,58.6243659 C99.5977849,59.4428471 98.9225053,60.0737379 98.1506071,60.3933752 C97.1130078,60.8387715 95.9504346,60.8052358 94.8519237,60.6752849 C94.0380174,60.5233262 93.2577176,60.2110248 92.5446307,59.7949722 C92.5645846,59.09701 92.5530323,58.3990478 92.5498817,57.7021336 C93.6063846,58.3875199 94.7847108,59.0351785 96.0848604,58.981731 C96.5868568,58.9366673 97.2600361,58.8067164 97.3965623,58.2345132 C97.5131347,57.7849249 97.1728693,57.4024081 96.7947967,57.2200576 C95.6290729,56.6185106 94.2375558,56.4267282 93.2398642,55.5233597 C92.4060041,54.8065337 92.1424035,53.565712 92.4963214,52.5460165 C92.8029803,51.6594158 93.6431416,51.0536769 94.5242608,50.8126389 Z M111.370514,50.6491417 C112.072048,50.3934319 112.946866,50.9729711 112.877553,51.7390527 C112.933214,52.2116968 112.596099,52.6340372 112.18232,52.8205797 C111.730733,52.9463387 111.170975,52.900227 110.869568,52.4967504 C110.325563,51.9255951 110.61962,50.8786518 111.370514,50.6491417 Z M142.100506,50.6166435 C142.793639,50.3756055 143.655854,50.8713054 143.670557,51.6300511 C143.78818,52.3332533 143.116051,53.0175916 142.409265,52.9232724 C141.716132,52.9180324 141.173178,52.1907265 141.327557,51.523156 C141.382168,51.1081514 141.719283,50.7644103 142.100506,50.6166435 Z M62.6065222,50.7089087 C63.4361815,50.7068127 64.2658408,50.7078607 65.0965503,50.7078607 C65.0986507,52.0367137 65.0933997,53.3655666 65.0986507,54.6954676 C66.7506179,54.6986115 68.4015348,54.6954676 70.053502,54.6954676 C70.0598032,53.3655666 70.0503514,52.0356657 70.0577028,50.7057647 C70.8873621,50.7110047 71.7170214,50.7047167 72.5466807,50.7089087 C72.5477309,54.0216092 72.5445803,57.3332616 72.5477309,60.6459621 C71.7170214,60.658538 70.8863119,60.65225 70.0556024,60.6491061 C70.053502,59.3108212 70.058753,57.9725363 70.0524518,56.6342514 C68.4015348,56.6269155 66.7506179,56.6311075 65.0997009,56.6321555 C65.0933997,57.9704403 65.0986507,59.3087252 65.0976005,60.6480581 C64.2658408,60.653298 63.4340811,60.660634 62.6023214,60.6428181 C62.610723,57.3311656 62.6023214,54.0195132 62.6065222,50.7089087 Z M101.787424,50.7214427 C102.483707,50.7277306 103.178941,50.7308746 103.875225,50.7203947 C103.916183,52.8844967 103.876275,55.0506947 103.895178,57.2158447 C103.993897,57.1445813 104.090516,57.0680779 104.16403,56.9695667 C104.940129,55.9603511 105.743533,54.9731433 106.517532,53.9628797 C107.345091,53.9513518 108.1737,53.9681197 109.002309,53.9523998 C108.12329,55.0517427 107.241121,56.1468936 106.386257,57.2640523 C107.299932,58.385403 108.204156,59.5130416 109.117831,60.6343923 C108.251415,60.6144804 107.383948,60.6333443 106.517532,60.6218164 C105.819148,59.709016 105.096609,58.8150794 104.386673,57.9127589 C104.234394,57.7230725 104.107319,57.5029943 103.890978,57.3761874 C103.885727,58.4608583 103.90358,59.5455293 103.883626,60.6291523 C103.183142,60.6228644 102.483707,60.6249604 101.784273,60.6281043 C101.798976,57.3258838 101.792675,54.0236632 101.787424,50.7214427 Z M123.988718,50.6900029 C125.402289,50.6910509 126.816911,50.6900029 128.230482,50.6900029 C129.720718,50.6428433 131.309673,51.0211682 132.424988,52.0576316 C133.445784,52.972528 133.972985,54.3674044 133.921525,55.7256011 C133.966684,57.0785578 133.456286,58.4828662 132.408184,59.3715628 C131.452501,60.188996 130.193309,60.5400731 128.960372,60.6448722 C127.302104,60.665832 125.642785,60.6553521 123.983467,60.6553521 C123.981366,57.3332197 123.971915,54.0110873 123.988718,50.6900029 Z M126.529156,52.5774352 C126.524955,54.3904602 126.529156,56.2045331 126.527055,58.018606 C126.519704,58.2816518 126.517603,58.5478416 126.564862,58.8087914 C127.33256,58.7752557 128.105508,58.8349912 128.870055,58.74172 C129.639853,58.623297 130.394948,58.2240123 130.813978,57.5522499 C131.369535,56.6908011 131.433597,55.5904102 131.1889,54.6157783 C130.984111,53.8444567 130.431705,53.1643104 129.686062,52.8582969 C128.690471,52.4160446 127.582508,52.6235469 126.529156,52.5774352 Z M77.0047971,53.8654689 C78.2618885,53.6579667 79.6576065,53.9304444 80.6143401,54.8097091 C81.6277847,55.7392774 81.827323,57.2997364 81.4082926,58.5594219 C81.0942823,59.4952781 80.2793258,60.1953363 79.3603994,60.5128777 C78.0108903,60.9939057 76.389379,60.8471869 75.238358,59.9595383 C73.8037825,58.8444756 73.6010936,56.5430867 74.712207,55.1377304 C75.2761652,54.4397682 76.128929,54.0184757 77.0047971,53.8654689 Z M77.3209078,55.1408743 C76.6855358,55.3630485 76.3904292,56.0536747 76.3179653,56.6751336 C76.2392001,57.4171114 76.2497022,58.2272087 76.6372266,58.8905872 C77.0741104,59.6556208 78.3017961,59.7447001 78.8521018,59.0614097 C79.2501282,58.5646619 79.3246925,57.9002354 79.3351946,57.2861125 C79.3351946,56.6698936 79.2658812,55.9991792 78.8615536,55.5045273 C78.4971337,55.063323 77.8439082,54.9627158 77.3209078,55.1408743 Z M85.4000985,54.4806293 C85.866388,54.1536561 86.3778362,53.8570745 86.9596479,53.8172509 C88.0728617,53.674724 89.2291337,54.2144396 89.8393008,55.1513438 C90.4767732,56.0704321 90.579693,57.2682862 90.319243,58.3340933 C90.1197046,59.1651504 89.606156,59.938568 88.8500109,60.3588125 C87.793508,60.9488316 86.4503001,60.90272 85.3948475,60.3336607 C85.4000985,61.5556185 85.3979981,62.7775764 85.3958977,63.9995342 C84.6880618,63.9995342 83.9791757,64.0005822 83.2713398,63.9995342 C83.2692394,60.6417701 83.2692394,57.284006 83.2713398,53.9262419 C83.9781255,53.923098 84.6859614,53.924146 85.3937973,53.9262419 C85.3948475,54.1106884 85.3979981,54.2951349 85.4000985,54.4806293 Z M85.3958977,55.844066 C85.4032491,56.8773854 85.3895965,57.9117528 85.4032491,58.9450722 C85.8726892,59.2531817 86.4460993,59.4617319 87.0111078,59.3192051 C87.6622328,59.1976381 88.1190705,58.5960911 88.2324923,57.9693923 C88.3522153,57.3007739 88.3270105,56.5587961 87.9657411,55.963537 C87.6958393,55.5076608 87.1497344,55.2739587 86.631985,55.3064465 C86.1625449,55.3095904 85.7561169,55.5715883 85.3958977,55.844066 Z M117.02482,54.4848003 C117.525767,54.160971 118.060319,53.8455257 118.676788,53.8287578 C119.653475,53.7197667 120.652217,54.1546831 121.268685,54.9123808 C122.054236,55.846141 122.23277,57.172898 121.930312,58.3309284 C121.722372,59.2301049 121.126908,60.0527781 120.277295,60.4426308 C119.249147,60.9341387 118.019361,60.8335316 117.016419,60.3304958 C117.02377,61.5472136 117.019569,62.7639315 117.018519,63.9806494 C116.315934,63.9764575 115.613349,63.9785534 114.910764,63.9806494 C114.926517,60.6386052 114.922317,57.296561 114.912865,53.9555647 C115.611249,53.9608047 116.310683,53.9618527 117.010118,53.9555647 C117.013268,54.1305793 117.019569,54.3076898 117.02482,54.4848003 Z M117.012218,55.8429971 C117.030071,56.8773645 117.013268,57.9117319 117.02062,58.9471473 C117.704301,59.4795268 118.805962,59.5623181 119.427682,58.8926517 C119.99269,58.2292732 120.052552,57.2661692 119.826758,56.455024 C119.693383,55.8985406 119.238645,55.4101767 118.661034,55.3179534 C118.061369,55.1712346 117.458554,55.4604802 117.012218,55.8429971 Z M138.583349,53.9073781 C139.303787,53.5688769 140.080937,53.9482498 140.648045,54.404126 C140.436955,55.0381607 140.244768,55.6784834 140.042079,56.3156621 C139.555836,56.0295605 139.008681,55.6826753 138.420568,55.8618819 C137.666523,56.1678953 137.373517,57.0062883 137.08051,57.6969146 C137.004896,58.6778345 137.066858,59.6702822 137.046904,60.655394 C136.327516,60.658538 135.607078,60.655394 134.88874,60.65749 C134.872987,58.4116447 134.877187,56.1647513 134.886639,53.918906 C135.606027,53.91681 136.326466,53.9115701 137.046904,53.92205 C137.060557,54.5518927 137.012247,55.1848795 137.084711,55.8115783 C137.360914,55.0475926 137.846107,54.2951349 138.583349,53.9073781 Z M154.295437,54.8002457 C155.699556,53.3896494 158.349215,53.4168972 159.62416,54.9878362 C160.25113,55.7172381 160.441217,56.7086379 160.416012,57.6444941 C158.803952,57.6696459 157.189792,57.6235343 155.577733,57.6675499 C155.626042,58.2722409 155.915898,58.8957957 156.473555,59.1881853 C157.376728,59.6849331 158.523548,59.5612702 159.407818,59.0802422 C159.716578,58.9314274 159.971777,58.6924854 160.289988,58.5604385 C160.289988,59.0100267 160.288937,59.458567 160.287887,59.9081553 C159.302798,60.662709 158.01,60.8859311 156.797017,60.7748441 C155.694305,60.7203485 154.567439,60.2361765 153.923665,59.3128962 C153.000538,57.9641314 153.163319,55.9813319 154.295437,54.8002457 Z M156.532366,55.1618027 C156.110185,55.3116655 155.814028,55.6952303 155.696406,56.1165228 C155.679602,56.2297058 155.526273,56.5147595 155.752066,56.4948476 C156.65524,56.4675999 157.577317,56.5378153 158.469988,56.4613119 C158.463687,56.0808911 158.278851,55.7109502 158.016301,55.4405684 C157.631927,55.0590996 157.028061,55.009844 156.532366,55.1618027 Z M110.701577,53.9513937 C111.39051,53.9660656 112.079442,53.9608257 112.769424,53.9534897 C112.838738,56.1773272 112.806181,58.4032607 112.795679,60.6281462 C112.097295,60.6250023 111.399961,60.6187143 110.702627,60.6344342 C110.709979,58.4064047 110.712079,56.1783752 110.701577,53.9513937 Z M141.427306,53.9199226 C142.140392,53.9136346 142.853479,53.9167786 143.566566,53.9178266 C143.571817,56.1636719 143.568667,58.4095172 143.568667,60.6553626 C142.85453,60.6585066 142.140392,60.6574586 141.427306,60.6553626 C141.423105,58.4105652 141.422055,56.1647199 141.427306,53.9199226 Z M145.09147,53.9199226 C145.863368,53.9241145 146.636316,53.8958188 147.407164,53.9345944 C147.797839,55.0213614 148.233673,56.0924085 148.649553,57.1697435 C148.693661,57.2996945 148.695762,57.4390773 148.73987,57.5711242 C148.84489,57.5417805 148.84594,57.3782938 148.902651,57.2965505 C149.320632,56.1689119 149.792172,55.0622331 150.19755,53.9304025 C150.969448,53.9021067 151.741346,53.9178266 152.514295,53.9220185 C151.510302,56.2181675 150.444347,58.4870686 149.431953,60.7800735 C149.022374,60.8052253 148.597043,60.849241 148.194815,60.7695936 C147.330499,58.9691446 146.536547,57.1320159 145.696386,55.3189909 C145.504199,54.8484428 145.242699,54.4061905 145.09147,53.9199226 Z" id="Combined-Shape"></path>
                    </g>
                </g>
            </g>
        </g>
    </g>
</svg>