<svg height="48" viewBox="0 0 113 48" width="113" xmlns="http://www.w3.org/2000/svg"><path d="m64.7121765 37.6016502c-.2720022.2116942-.1438776.6591865.1785343.7346419 1.3988685.1697746 2.8029881.3028695 4.2113085.358413 2.8702011.1802545 5.7519544 0 8.604302-.3405972.3087593.008384.5944141-.355269.4022272-.6350827-.0987189-.244182-.3938256-.2043583-.6049161-.1875904-1.8115978.2295101-3.6368483.3709889-5.4631489.354221-.4547373.0523996-.9094746.0534476-1.3631617.001048-1.8294513.0125759-3.6568021-.1393828-5.4715505-.357365-.1617311.002096-.3633698-.0534476-.4935948.0723114m15.2195221-6.9198865c-1.2623424.2525659-2.198072 1.558363-2.0048349 2.8316725.1165723.9337602.7887014 1.7763452 1.6813728 2.0844546.5996651.2347501 1.2549909.1330949 1.8830115.1540548.5576571-.0178159 1.1363182.0649754 1.6761218-.1152791.8737678-.2630458 1.5784531-1.0322714 1.7506861-1.928304.1911367-.8457289-.1039699-1.7784412-.7393419-2.3684603-.5082976-.5093237-1.2413383-.7566497-1.9544252-.715778-.7634966.0282957-1.536445-.0607835-2.2925902.0576395m-20.4558275.0398237c-.9084244.2452299-1.6341137 1.0322714-1.8136982 1.9524077-.2404962 1.0794311.3182111 2.2730931 1.3054006 2.775081.8842698.4873159 1.9239694.2441819 2.8838537.3049654 1.0018924.0827914 2.0342406-.4401563 2.5068313-1.3340929.5209-.9285203.3780726-2.1871578-.3591689-2.9616234-.5335025-.596307-1.3505593-.8897446-2.1434616-.835249-.791852.0419196-1.6026077-.0901273-2.3797569.0985112m4.7511122-14.4193122c2.3198954-.1603427 4.6429415-.3018215 6.9701883-.2808617 3.0529361-.0020959 6.0995711.2095983 9.1399048.4558763.2310444.0293437.5335024-.0241038.6847315.1991183.895822 1.0888629 1.7202303 2.2489893 2.3398492 3.5191547.8475127 1.808833 1.2476396 3.7863926 1.5889551 5.7429923.8076051-.0083839 1.6162603-.0157199 2.4238654 0 .255199.2724778.265701.71997.3539179 1.0741911-.1638314.8991765-1.0712056 1.3760126-1.6446157 1.9723196.2688516.8614488.6248699 1.6925059.9262778 2.5434749.0966186.2599018.0735141.5407635.0756145.8121932.0168032 3.846128.0493595 7.6912081.0294057 11.5362881.0136526.3971887-.077715.844681-.4190305 1.092007-.3728216.2923895-.8716673.3039174-1.3243042.2997255-.6962837-.0167679-1.395718.0293437-2.0899013-.0398237-.4715405-.0366797-.9651353.0115279-1.4135714-.1645346-.3308135-.1792066-.536653-.5302836-.6479744-.8792647-.0640623-.6141229.0073514-1.2355818-.0357069-1.8518006-5.5692192.0094319-11.1384385.0010479-16.7076578.0041919-.9693361.0115279-1.9397224-.0230558-2.9080083.0178159.0504097.7032021.0714137 1.438892-.1848355 2.1096064-.1165724.3175414-.3990766.5659153-.7424926.5994511-1.208782.1865424-2.4469698.1739665-3.6578522.0146718-.6532255-.0597355-1.2213845-.5701072-1.3988686-1.1894701-.0735141-4.1919651-.1060704-8.3902182-.0651125-12.5874234.026255-.3259253-.0168033-.7042501.2100403-.9714879.3686208-.4412043.9735369-.723114 1.1037619-1.3299009-.0892671-.7367379-.8580147-1.0574232-1.3033002-1.5604591-.5954643-.472644-.5681591-1.3099891-.4872936-1.9922314.869567.004192 1.7391339.0178158 2.6076507-.004192.1690825-.2682857.1743335-.6130749.2751528-.9107044.5692093-2.0289111 1.1426194-4.0997419 2.2726364-5.900191.4505365-.721018.9136754-1.444132 1.4807843-2.0792147.8338601-.1551027 1.7013266-.1561507 2.5477891-.2515179zm2.3976104 1.5478831c-1.2224347.0974632-2.4763755.1173751-3.6652037.4171006-1.2791456 1.7208017-2.4984297 3.5788902-2.9783719 5.6968806-.1071205.4087166-.0756145.9924478.3329139 1.209382 7.1991322.0251518 14.4003649.001048 21.6005473.0115279.2541488.0136239.6122675-.00524.6931331-.3018215.057761-.5722033-.0861166-1.1391665-.244697-1.684122-.5524061-1.7553854-1.5458968-3.3326123-2.666462-4.7788403-.0913675-.0890793-.1606808-.246278-.3098095-.237894-4.2365134-.4380604-8.5076834-.5659153-12.7620502-.3322133zm9.227082 2.3789403c1.2770452-.5344756 2.8996067.5669633 2.81244 1.9576477.1291748 1.2670215-1.1793764 2.3778922-2.4112629 2.1452382-.8023541-.1058472-1.5038888-.7178741-1.7338829-1.4891957-.3266127-1.0500872.281454-2.2709971 1.3327058-2.6136902zm26.0281763-3.7014843c2.574044-.2861016 5.164892-.4296764 7.754689-.5093238 3.717714-.0848873 7.433327.1561507 11.135288.4653082.145978.0220078.324512.0041919.41798.1456707.977738 1.1611744 1.854656 2.4208599 2.495279 3.8000165.773999 1.7480494 1.133168 3.6375777 1.488136 5.5030022.808655-.0104799 1.618361-.0167678 2.425966-.001048.218442.2850537.259399.7147301.335014 1.0720951-.114472.728354-.752995 1.2219579-1.290698 1.6631622-.120773.124711-.432683.2095983-.307709.4359644.2594.8038093.576561 1.5877068.871667 2.3778922.054611.1435748.078766.2955336.080866.4485403.014703 4.0159026.067213 8.0318052.034657 12.0477079.011552.3929967-.128125.8153372-.471541 1.0375113-.423231.3049655-.967236.2630459-1.46083.2599019-1.021847-.0094319-2.051044.0419196-3.064489-.119471-.523-.0681195-.840161-.5921151-.94098-1.0658072-.028356-.5805871.00105-1.1643183-.013653-1.7459535-6.528053.004192-13.056107.00524-19.58311-.001048.028356.727306.071414 1.4923396-.218442 2.1777259-.116572.2923896-.381223.5103718-.696284.5522915-.9567332.1655826-1.9365713.1582466-2.903807.1068951-.5755105-.0555436-1.2255853-.0534476-1.677172-.4684521-.3161107-.2965816-.5849624-.7042502-.5545065-1.1538384-.0199538-4.1940612-.0913676-8.3881223-.0189036-12.5821835-.0577611-.6204108.5303518-.955768.9126252-1.3330449.2793536-.2462779.494645-.6728104.270952-1.0238875-.4190304-.6528986-1.2087821-.9777759-1.5774029-1.6704981-.1795844-.482076-.1554298-1.0155036-.0987189-1.5185394.8832196-.0052399 1.7653889.001048 2.6475583-.002096.6479744-2.406188 1.2633926-4.8857354 2.6328554-7.0037258.425332-.6528985.846463-1.320469 1.374714-1.8947682zm2.959468 21.41151c-.245747.1624387-.199538.5805872.078765.6801464.83176.3248773 1.721281.476836 2.6003.6109789 2.411263.3238293 4.861383.3385012 7.281048.0911752 1.092209-.1330948 2.198072-.2965815 3.22937-.6979621.424281-.1330949.242596-.8562089-.200589-.7556018-2.024789.6686185-4.177702.8017134-6.295959.8195292-1.950224-.0157199-3.922503-.1289029-5.811816-.6445146-.284604-.0513516-.604916-.2976296-.881119-.1037512zm15.025235-7.2070361c-1.013445.2661898-1.803196 1.208334-1.867258 2.2542293-.082966.8886966.352867 1.7920651 1.089059 2.2951009.514598.369941 1.162573.488364 1.786393.4537803.73199-.0324878 1.476583.0702154 2.201222-.0733594.970387-.2284621 1.755937-1.0731431 1.907166-2.0572069.144928-.849921-.175383-1.7627214-.830709-2.3265407-.517749-.4642601-1.225585-.6780504-1.914518-.6361307-.789751.0387757-1.595256-.0838393-2.371355.0901272zm-20.1806746-.0303917c-1.1762258.242086-2.0720478 1.3969724-1.9901321 2.5958744.0220543 1.0039757.7162376 1.9450718 1.6635194 2.2793811.4967454.2033103 1.0418003.1519587 1.5658503.1571987.488344-.007336.978788.0157198 1.467132-.0115279.980888-.0702155 1.87566-.7744656 2.184419-1.7040339.298258-.8247691.114472-1.7941611-.452636-2.4606835-.513549-.6298428-1.337957-.963104-2.145562-.9169924-.763497.0314397-1.536445-.0597355-2.2925906.0607835zm3.4950706-12.4511845c-1.228735 1.677834-2.415463 3.4594192-2.937413 5.4977623-.130225.477884-.178535 1.0741911.246797 1.4252681 7.250592-.0125759 14.502234 0 21.752826-.0052399.234195.0136239.551356-.0869833.559758-.367845.023104-.5323795-.111322-1.0574232-.255199-1.565699-.57026-1.8570405-1.644616-3.5107708-2.843946-5.0219742-3.272428-.3374532-6.56271-.5051318-9.852992-.4443483-2.227478.0534475-4.469658.0964152-6.669831.482076zm39.019203-1.7627004c4.080033-.3814688 8.184221-.6109789 12.282108-.4181485 2.233779.1016551 4.473859.2169342 6.696085.4653081.98614 1.1192547 1.839954 2.3653163 2.50053 3.7036012.820208 1.7962571 1.232937 3.7476169 1.553249 5.6864007.828609.008384 1.657218-.0188638 2.485827.011528.163831.477884.457888 1.0511352.148078 1.5342592-.358118.6099309-.933629 1.0521833-1.496537 1.4619479.20689.721018.497796 1.4137402.755095 2.1169424.100819.2881976.26045.5701072.243647.8845046.022054 3.9802709.063012 7.9605418.037807 11.9408128.021004.4202445-.093468.8855526-.459988 1.1349745-.385424.2798137-.880069.2787657-1.334807.2640938-1.084858-.0167678-2.180218.0565916-3.254574-.1289029-.486244-.0817433-.755095-.5701073-.886371-.9976877-.035707-.5910671-.012602-1.1842302-.008401-1.7752972-2.955268-.0586876-5.915786-.008384-8.873154-.0251518-3.565434-.008384-7.130869.0146718-10.696304-.0115279-.026255.7692256.074565 1.5939947-.301407 2.3003408-.197438.3992847-.681581.4653082-1.076457.5040839-1.113214.1027031-2.242181.110039-3.348043-.0618315-.759296-.1110871-1.416722-.840489-1.348459-1.6191466-.024154-4.1573814-.089267-8.3158109-.021004-12.4721443-.068263-.6130749.499896-.9547201.887421-1.3152291.279353-.2483739.527201-.6717624.306658-1.0354154-.42008-.6832903-1.261292-1.0071196-1.609959-1.7438575-.149128-.4663561-.123923-.9683439-.085066-1.4493719.889521-.0398237 1.781142.0020959 2.671713-.0230559.429532-1.7564334.931529-3.5034348 1.637264-5.171837.57131-1.2816933 1.348459-2.4617315 2.204374-3.5694583.076664-.1456708.238395-.1823505.390675-.1907344zm-.405378 21.1233124c-.342366.1351909-.276203.7094901.089267.7702736 2.061546.5480995 4.170351.9232803 6.291758 1.1527904 4.705953.5365716 9.503274.0796474 14.069551-1.1485984.491495-.0670715.407478-.8635448-.087167-.8184812-2.781984.7356899-5.639582 1.206238-8.516085 1.3340929-3.853189.1571987-7.718982-.3322132-11.447197-1.2921733-.137577-.0534475-.270952-.0534475-.400127.002096zm17.978401-6.8790148c-.925227.2578059-1.66877 1.078383-1.812648 2.0289111-.200588 1.0479913.354969 2.172486 1.295949 2.6713298.556607.3248773 1.217184.3332613 1.843104.3143974.789752-.0324877 1.625712.119471 2.369255-.2253181.895822-.4013807 1.528043-1.3456208 1.498638-2.3328286.026255-.969392-.580762-1.9000082-1.453479-2.3097728-.582862-.2986775-1.252891-.2546619-1.887213-.247326-.617518.0220079-1.25079-.0712634-1.853606.1006072zm-20.177524-.0314397c-.649024.1488147-1.233986.5627713-1.581603 1.1307826-.545055.841537-.515649 2.0079513.071414 2.8211925.463138.6864343 1.284396 1.0961989 2.108804 1.0961989.630121.001048 1.261293-.00524 1.892464-.001048.722538.003144 1.446127-.3039175 1.93027-.843633.754045-.8205772.873768-2.1431422.262551-3.0769024-.486244-.8153372-1.461881-1.2575896-2.39656-1.198902-.761397.0366797-1.535395-.0723114-2.28734.0723114zm3.671505-12.4637605c-.490444.6340348-.94098 1.2974133-1.364212 1.9775596-.748793 1.2177659-1.424073 2.523563-1.665619 3.9446392-.075615.3961407.060911 1.089911.590213 1.0238875 7.177078-.0041919 14.355206.001048 21.533334-.003144.235245.0146719.507248-.1089911.538754-.3688929.012602-.6906263-.178535-1.3665806-.403278-2.0142393-.578661-1.6275304-1.529093-3.0915743-2.587696-4.446627-.074565-.117375-.20689-.1624386-.337115-.1718706-3.260876-.3248773-6.539606-.4873159-9.816235-.4212925-2.166566.0702155-4.348885.0985112-6.488146.47998zm-26.975468 2.0037489c.83281-.3489811 1.854656-.0356317 2.409162.6581385.598615.728354.626971 1.8455127.05146 2.5948265-.541904.7597937-1.620461 1.074191-2.485827.718922-.99034-.356317-1.611009-1.5405472-1.282296-2.5476668.171183-.6487066.674229-1.1957581 1.307501-1.4242202zm40.945251-.0094633c1.273894-.5386676 2.902757.5575313 2.818741 1.9492638.133375 1.2691174-1.177276 2.3852281-2.411263 2.1515261-.802354-.1058472-1.501789-.7178741-1.733883-1.4881477-.326613-1.0490392.278303-2.2647091 1.326405-2.6126422zm-46.50819.538678c.897922-.2871497 1.926069.4841719 1.906116 1.4231721.060911.8740248-.7782 1.6348664-1.635164 1.5573151-.550306-.0681195-1.065955-.4160526-1.275995-.9369042-.339215-.8132413.134425-1.8329368 1.005043-2.043583zm34.240784-.006288c.773999-.2274141 1.661419.3112534 1.839954 1.0899109.039907.372037.061961.7797056-.138627 1.1129668-.2594.476836-.789752.7650336-1.323254.7954254-.537703-.0272478-1.071206-.3154454-1.331656-.7954254-.203739-.3322132-.186936-.7409298-.139677-1.1119188.123924-.5281876.57131-.955768 1.09326-1.0909589zm6.19096-.0104904c.929428-.2515179 1.932371.5816352 1.858857 1.5394992-.003151.9358562-1.034449 1.6998419-1.92817 1.3927804-.787652-.2043583-1.328505-1.1307826-1.033399-1.9042001.150179-.5072278.590213-.9033685 1.102712-1.0280795zm-56.6342342 30.0595447c1.656168-.4705481 3.4362598-.1362389 4.9832068.5491474-.0094518.6403227-.0073514 1.2816933-.0010502 1.923064-1.1058624-.484172-2.2778874-.9924477-3.5139747-.8708807-.4106288.0419196-.8874204.1792065-1.0817077.5805871-.1501788.4202445.1890363.7849455.536653.966248 1.3232541.6811943 2.9710205.8981285 3.9550594 2.1179904.5629081.7063461.6658276 1.6956499.4253317 2.5455708-.2299942.8184812-.9052738 1.449372-1.677172 1.7690093-1.0375993.4453963-2.2001725.4118606-3.2986834.2819097-.8139063-.1519587-1.5942061-.4642601-2.307293-.8803127.0199539-.6979622.0084016-1.3959244.005251-2.0928386 1.0565029.6853863 2.2348291 1.3330449 3.5349787 1.2795974.5019964-.0450637 1.1751757-.1750146 1.3117019-.7472178.1165724-.4495883-.223693-.8321051-.6017656-1.0144556-1.1657238-.601547-2.5572409-.7933294-3.5549325-1.6966979-.8338601-.716826-1.0974607-1.9576477-.7435428-2.9773432.3066589-.8866007 1.1468202-1.4923396 2.0279394-1.7333776zm16.8462532-.1634972c.701534-.2557098 1.576352.3238294 1.507039 1.089911.055661.4726441-.281454.8949845-.695233 1.081527-.451587.125759-1.011345.0796473-1.312752-.3238293-.544005-.5711553-.249948-1.6180986.500946-1.8476087zm30.729992-.0324982c.693133-.241038 1.555348.2546619 1.570051 1.0134076.117623.7032022-.554506 1.3875405-1.261292 1.2932213-.693133-.00524-1.236087-.7325459-1.081708-1.4001164.054611-.4150046.391726-.7587457.772949-.9065125zm-79.4939838.0922652c.8296593-.002096 1.6593186-.001048 2.4900281-.001048.0021004 1.328853-.0031506 2.6577059.0021004 3.9876069 1.6519672.0031439 3.3028841 0 4.9548513 0 .0063012-1.329901-.0031506-2.6598019.0042008-3.9897029.8296593.00524 1.6593186-.001048 2.4889779.003144.0010502 3.3127005-.0021004 6.6243529.0010502 9.9370534-.8307095.0125759-1.661419.0062879-2.4921285.003144-.0021004-1.3382849.0031506-2.6765698-.0031506-4.0148547-1.650917-.0073359-3.3018339-.0031439-4.9527509-.0020959-.0063012 1.3382848-.0010502 2.6765697-.0021004 4.0159026-.8317597.0052399-1.6635194.0125759-2.4952791-.00524.0084016-3.3116525 0-6.6233049.0042008-9.9339094zm39.1809018.012534c.696283.0062879 1.391517.0094319 2.087801-.001048.040958 2.164102.00105 4.3303.019953 6.49545.098719-.0712634.195338-.1477668.268852-.246278.776099-1.0092156 1.579503-1.9964234 2.353502-3.006687.827559-.0115279 1.656168.00524 2.484777-.0104799-.879019 1.0993429-1.761188 2.1944938-2.616052 3.3116525.913675 1.1213507 1.817899 2.2489893 2.731574 3.37034-.866416-.0199119-1.733883-.001048-2.600299-.0125759-.698384-.9128004-1.420923-1.806737-2.130859-2.7090575-.152279-.1896864-.279354-.4097646-.495695-.5365715-.005251 1.0846709.012602 2.1693419-.007352 3.2529649-.700484-.0062879-1.399919-.0041919-2.099353-.001048.014703-3.3022205.008402-6.6044411.003151-9.9066616zm22.201294-.0314398c1.413571.001048 2.828193 0 4.241764 0 1.490236-.0471596 3.079191.3311653 4.194506 1.3676287 1.020796.9148964 1.547997 2.3097728 1.496537 3.6679695.045159 1.3529567-.465239 2.7572651-1.513341 3.6459617-.955683.8174332-2.214875 1.1685103-3.447812 1.2733094-1.658268.0209598-3.317587.0104799-4.976905.0104799-.002101-3.3221324-.011552-6.6442648.005251-9.9653492zm2.540438 1.8874323c-.004201 1.813025 0 3.6270979-.002101 5.4411708-.007351.2630458-.009452.5292356.037807.7901854.767698-.0335357 1.540646.0261998 2.305193-.0670714.769798-.118423 1.524893-.5177077 1.943923-1.1894701.555557-.8614488.619619-1.9618397.374922-2.9364716-.204789-.7713216-.757195-1.4514679-1.502838-1.7574814-.995591-.4422523-2.103554-.23475-3.156906-.2808617zm-49.5243589 1.2880337c1.2570914-.2075022 2.6528094.0649755 3.609543.9442402 1.0134446.9295683 1.2129829 2.4900273.7939525 3.7497128-.3140103.9358562-1.1289668 1.6359144-2.0478932 1.9534558-1.3495091.481028-2.9710204.3343092-4.1220414-.5533394-1.4345755-1.1150627-1.6372644-3.4164516-.526151-4.8218079.5639582-.6979622 1.416722-1.1192547 2.2925901-1.2722615zm.3161107 1.2754054c-.635372.2221742-.9304786.9128004-1.0029425 1.5342593-.0787652.7419778-.0682631 1.5520751.3192613 2.2154536.4368838.7650336 1.6645695.8541129 2.2148752.1708225.3980264-.4967478.4725907-1.1611743.4830928-1.7752972 0-.6162189-.0693134-1.2869333-.473641-1.7815852-.3644199-.4412043-1.0176454-.5418115-1.5406458-.363653zm8.0791907-.660245c.4662895-.3269732.9777377-.6235548 1.5595494-.6633784 1.1132138-.1425269 2.2694858.3971887 2.8796529 1.3340929.6374724.9190883.7403922 2.1169424.4799422 3.1827495-.1995384.8310571-.713087 1.6044747-1.4692321 2.0247192-1.0565029.5900191-2.3997108.5439075-3.4551634-.0251518.005251 1.2219578.0031506 2.4439157.0010502 3.6658735-.7078359 0-1.416722.001048-2.1245579 0-.0021004-3.3577641-.0021004-6.7155282 0-10.0732923.7067857-.0031439 1.4146216-.0020959 2.1224575 0 .0010502.1844465.0042008.368893.0063012.5543874zm-.0042008 1.3634367c.0073514 1.0333194-.0063012 2.0676868.0073514 3.1010062.4694401.3081095 1.0428502.5166597 1.6078587.3741329.651125-.121567 1.1079627-.723114 1.2213845-1.3498128.119723-.6686184.0945182-1.4105962-.2667512-2.0058553-.2699018-.4558762-.8160067-.6895783-1.3337561-.6570905-.4694401.0031439-.8758681.2651418-1.2360873.5376195zm31.6289223-1.3592657c.500947-.3238293 1.035499-.6392746 1.651968-.6560425.976687-.1089911 1.975429.3259253 2.591897 1.083623.785551.9337602.964085 2.2605172.661627 3.4185476-.20794.8991765-.803404 1.7218497-1.653017 2.1117024-1.028148.4915079-2.257934.3909008-3.260876-.112135.007351 1.2167178.00315 2.4334357.0021 3.6501536-.702585-.0041919-1.40517-.002096-2.107755 0 .015753-3.3420442.011553-6.6840884.002101-10.0250847.698384.00524 1.397818.006288 2.097253 0 .00315.1750146.009451.3521251.014702.5292356zm-.012602 1.3581968c.017853 1.0343674.00105 2.0687348.008402 3.1041502.683681.5323795 1.785342.6151708 2.407062-.0544956.565008-.6633785.62487-1.6264825.399076-2.4376277-.133375-.5564834-.588113-1.0448473-1.165724-1.1370706-.599665-.1467188-1.20248.1425268-1.648816.5250437zm21.571131-1.935619c.720438-.3385012 1.497588.0408717 2.064696.4967479-.21109.6340347-.403277 1.2743574-.605966 1.9115361-.486243-.2861016-1.033398-.6329868-1.621511-.4537802-.754045.3060134-1.047051 1.1444064-1.340058 1.8350327-.075614.9809199-.013652 1.9733676-.033606 2.9584794-.719388.003144-1.439826 0-2.158164.002096-.015753-2.2458453-.011553-4.4927387-.002101-6.738584.719388-.002096 1.439827-.0073359 2.160265.003144.013653.6298427-.034657 1.2628295.037807 1.8895283.276203-.7639857.761396-1.5164434 1.498638-1.9042002zm15.712088.8928676c1.404119-1.4105963 4.053778-1.3833485 5.328723.1875905.62697.7294019.817057 1.7208017.791852 2.6566579-1.61206.0251518-3.22622-.0209598-4.838279.0230558.048309.604691.338165 1.2282458.895822 1.5206354.903173.4967478 2.049993.3730849 2.934263-.1079431.30876-.1488148.563959-.3877568.88217-.5198037 0 .4495882-.001051.8981285-.002101 1.3477168-.985089.7545537-2.277887.9777758-3.49087.8666888-1.102712-.0544956-2.229578-.5386676-2.873352-1.4619479-.923127-1.3487648-.760346-3.3315643.371772-4.5126505zm2.236929.361557c-.422181.1498628-.718338.5334276-.83596.9547201-.016804.113183-.170133.3982367.05566.3783248.903174-.0272477 1.825251.0429677 2.717922-.0335357-.006301-.3804208-.191137-.7503617-.453687-1.0207435-.384374-.3814688-.98824-.4307244-1.483935-.2787657zm-45.830789-1.210409c.688933.0146719 1.377865.009432 2.067847.002096.069314 2.2238375.036757 4.449771.026255 6.6746565-.698384-.0031439-1.395718-.0094319-2.093052.006288.007352-2.2280295.009452-4.456059-.00105-6.6830405zm30.725729-.0314711c.713086-.006288 1.426173-.003144 2.13926-.002096.005251 2.2458453.002101 4.4916906.002101 6.737536-.714137.003144-1.428275.002096-2.141361 0-.004201-2.2447974-.005251-4.4906427 0-6.73544zm3.664164 0c.771898.0041919 1.544846-.0241038 2.315694.0146718.390675 1.086767.826509 2.1578141 1.242389 3.2351491.044108.129951.046209.2693338.090317.4013807.10502-.0293437.10607-.1928304.162781-.2745737.417981-1.1276386.889521-2.2343174 1.294899-3.366148.771898-.0282958 1.543796-.0125759 2.316745-.008384-1.003993 2.296149-2.069948 4.5650501-3.082342 6.858055-.409579.0251518-.83491.0691675-1.237138-.0104799-.864316-1.800449-1.658268-3.6375777-2.498429-5.4506027-.192187-.4705481-.453687-.9128004-.604916-1.3990683z" fill-rule="evenodd" transform="translate(-55 -16)"/></svg>