<svg height="48" width="113" xmlns="http://www.w3.org/2000/svg"><path d="M9.712 21.602c-.272.211-.144.659.179.734 1.399.17 2.803.303 4.211.359 2.87.18 5.752 0 8.604-.34.31.007.595-.356.403-.636-.1-.244-.394-.204-.605-.188-1.812.23-3.637.371-5.464.355a5.93 5.93 0 0 1-1.363 0c-1.83.013-3.656-.139-5.471-.357-.162.002-.364-.053-.494.073m15.22-6.92c-1.263.252-2.198 1.558-2.005 2.831.116.934.789 1.777 1.681 2.085.6.235 1.255.133 1.883.154.558-.018 1.137.065 1.676-.115.874-.263 1.579-1.033 1.751-1.929a2.534 2.534 0 0 0-.74-2.368c-.508-.51-1.24-.757-1.954-.716-.763.028-1.536-.06-2.292.058m-20.456.04a2.57 2.57 0 0 0-1.814 1.952c-.24 1.08.318 2.273 1.306 2.775.884.487 1.924.244 2.883.305 1.002.083 2.035-.44 2.507-1.334.521-.929.378-2.187-.359-2.962-.533-.596-1.35-.89-2.143-.835-.792.042-1.603-.09-2.38.099M9.227.302c2.32-.16 4.643-.302 6.97-.28 3.053-.003 6.1.209 9.14.455.231.03.534-.024.685.2.896 1.088 1.72 2.248 2.34 3.519.847 1.808 1.247 3.786 1.589 5.743a81.252 81.252 0 0 1 2.423 0c.256.272.266.72.354 1.074-.163.899-1.07 1.376-1.644 1.972.269.862.625 1.693.926 2.544.097.26.074.54.076.812.016 3.846.049 7.69.03 11.536.013.397-.079.845-.42 1.092-.373.292-.872.304-1.324.3-.697-.017-1.396.03-2.09-.04-.472-.037-.965.011-1.414-.165-.33-.179-.536-.53-.648-.879-.064-.614.008-1.235-.035-1.852-5.57.01-11.139.001-16.708.005-.97.011-1.94-.024-2.908.017.05.704.071 1.44-.185 2.11-.116.317-.399.566-.742.6-1.21.186-2.447.173-3.658.014-.653-.06-1.222-.57-1.4-1.19C.512 23.699.48 19.5.52 15.303c.026-.326-.017-.704.21-.971.368-.442.973-.723 1.104-1.33-.09-.737-.858-1.058-1.304-1.56-.595-.473-.568-1.31-.487-1.993.87.004 1.74.018 2.608-.004.169-.268.174-.613.275-.91.569-2.03 1.142-4.1 2.272-5.901.45-.721.914-1.444 1.481-2.08C7.513.4 8.381.399 9.227.304zm2.398 1.548c-1.223.098-2.477.118-3.666.417-1.279 1.721-2.498 3.58-2.978 5.697-.107.409-.076.993.333 1.21 7.2.025 14.4 0 21.6.011.255.014.613-.005.694-.302.057-.572-.087-1.139-.245-1.684-.552-1.755-1.546-3.333-2.667-4.779-.09-.089-.16-.246-.31-.238a80.97 80.97 0 0 0-12.761-.332zm9.227 2.38c1.277-.535 2.9.566 2.812 1.957.13 1.267-1.18 2.378-2.411 2.145-.803-.106-1.504-.718-1.734-1.49-.327-1.05.281-2.27 1.333-2.613zM46.88.527c2.574-.286 5.165-.43 7.755-.51 3.717-.085 7.433.156 11.135.466.146.022.324.004.418.145.978 1.161 1.854 2.421 2.495 3.8.774 1.748 1.133 3.638 1.488 5.503.809-.01 1.619-.016 2.426 0 .219.284.26.714.335 1.071-.114.729-.753 1.222-1.29 1.663-.121.125-.433.21-.308.436.26.804.576 1.588.871 2.378.055.144.08.296.081.449.015 4.016.068 8.032.035 12.048.012.393-.128.815-.472 1.037-.423.305-.967.263-1.46.26-1.022-.01-2.051.042-3.065-.12-.523-.068-.84-.592-.94-1.065-.03-.58 0-1.165-.015-1.746-6.528.004-13.056.005-19.583-.001.029.727.072 1.492-.218 2.177a.884.884 0 0 1-.696.553c-.957.165-1.937.158-2.904.107-.576-.056-1.226-.054-1.677-.469-.316-.296-.585-.704-.555-1.154-.02-4.194-.091-8.388-.019-12.582-.057-.62.53-.956.913-1.333.28-.246.495-.673.27-1.024-.418-.653-1.208-.978-1.577-1.67-.18-.482-.155-1.016-.098-1.519.883-.005 1.765.001 2.647-.002.648-2.406 1.264-4.886 2.633-7.004.425-.653.847-1.32 1.375-1.894zm2.96 21.411c-.246.163-.2.58.078.68.832.325 1.721.477 2.6.611 2.412.324 4.862.339 7.281.091 1.093-.133 2.199-.296 3.23-.698.424-.133.242-.856-.2-.755-2.026.668-4.178.802-6.297.82-1.95-.016-3.922-.13-5.812-.645-.284-.051-.604-.298-.88-.104zm15.025-7.207c-1.014.266-1.804 1.208-1.868 2.254a2.546 2.546 0 0 0 1.09 2.295c.514.37 1.162.489 1.786.454.732-.032 1.476.07 2.201-.073.97-.229 1.756-1.073 1.907-2.057a2.553 2.553 0 0 0-.83-2.327c-.518-.464-1.226-.678-1.915-.636-.79.039-1.595-.084-2.371.09zm-20.181-.03c-1.176.242-2.072 1.397-1.99 2.596.022 1.004.716 1.945 1.663 2.279.497.203 1.042.152 1.566.157.488-.007.979.016 1.467-.011.981-.07 1.876-.775 2.185-1.704a2.537 2.537 0 0 0-.453-2.461c-.514-.63-1.338-.963-2.146-.917-.763.031-1.536-.06-2.292.06zM48.179 2.25c-1.229 1.677-2.416 3.459-2.937 5.497-.13.478-.179 1.074.246 1.426 7.25-.013 14.503 0 21.753-.006.234.014.552-.087.56-.368.023-.532-.111-1.057-.255-1.565-.57-1.857-1.645-3.511-2.844-5.022-3.273-.338-6.563-.505-9.853-.445-2.228.054-4.47.097-6.67.483zM87.199.488C91.278.106 95.381-.123 99.48.07c2.234.101 4.474.217 6.696.465a17.038 17.038 0 0 1 2.5 3.704c.821 1.796 1.234 3.747 1.554 5.686.829.008 1.657-.019 2.486.012.164.477.458 1.05.148 1.534-.358.61-.934 1.052-1.497 1.462.207.72.498 1.413.756 2.117.1.288.26.57.243.884.022 3.98.063 7.96.038 11.941.021.42-.093.886-.46 1.135-.385.28-.88.279-1.335.264-1.085-.017-2.18.057-3.254-.129-.487-.082-.755-.57-.887-.998-.035-.59-.012-1.184-.008-1.775-2.955-.059-5.916-.008-8.873-.025-3.566-.008-7.131.015-10.697-.012-.026.77.075 1.594-.301 2.3-.197.4-.682.466-1.076.505-1.114.103-2.243.11-3.348-.062-.76-.111-1.417-.84-1.349-1.62-.024-4.156-.09-8.315-.02-12.471-.07-.613.499-.955.886-1.315.28-.249.528-.672.307-1.036-.42-.683-1.261-1.007-1.61-1.744-.149-.466-.124-.968-.085-1.45.89-.039 1.781.003 2.672-.022.43-1.757.931-3.504 1.637-5.172.571-1.282 1.349-2.462 2.204-3.57.077-.145.239-.182.391-.19zm-.406 21.123c-.343.135-.276.71.089.77 2.062.548 4.17.924 6.292 1.153 4.706.537 9.503.08 14.07-1.148.49-.067.407-.864-.088-.819-2.782.736-5.64 1.206-8.516 1.334-3.853.157-7.719-.332-11.447-1.292a.51.51 0 0 0-.4.002zm17.978-6.879c-.925.258-1.669 1.078-1.812 2.029-.201 1.048.354 2.173 1.295 2.671.557.325 1.218.334 1.844.315.79-.033 1.625.12 2.369-.226.896-.401 1.528-1.345 1.498-2.332.027-.97-.58-1.9-1.453-2.31-.583-.299-1.253-.255-1.887-.247-.618.022-1.251-.072-1.854.1zm-20.177-.031a2.557 2.557 0 0 0-1.51 3.952c.463.686 1.284 1.096 2.108 1.096.63 0 1.262-.005 1.893-.001a2.606 2.606 0 0 0 1.93-.844c.754-.82.874-2.143.263-3.077-.487-.815-1.462-1.257-2.397-1.199-.761.037-1.535-.072-2.287.073zm3.671-12.464a23.62 23.62 0 0 0-1.364 1.977c-.749 1.218-1.424 2.524-1.666 3.945-.075.396.061 1.09.59 1.024 7.178-.004 14.356.001 21.534-.003.235.015.507-.11.539-.369.012-.69-.179-1.367-.404-2.014-.578-1.628-1.529-3.092-2.587-4.447-.075-.117-.207-.162-.337-.172-3.261-.325-6.54-.487-9.817-.421-2.166.07-4.349.098-6.488.48zM61.29 4.24c.832-.35 1.854-.036 2.409.658.598.728.627 1.845.051 2.595-.542.76-1.62 1.074-2.486.719-.99-.357-1.61-1.541-1.282-2.548A2.112 2.112 0 0 1 61.29 4.24zm40.945-.01c1.274-.538 2.903.558 2.819 1.95.133 1.269-1.178 2.385-2.412 2.151-.802-.106-1.501-.718-1.733-1.488-.327-1.05.278-2.265 1.326-2.613zm-46.508.539c.898-.287 1.926.484 1.906 1.423.06.874-.778 1.635-1.635 1.557-.55-.068-1.066-.416-1.276-.937-.34-.813.134-1.832 1.005-2.043zm34.24-.006c.775-.228 1.662.31 1.84 1.09.04.372.062.78-.138 1.112-.26.477-.79.765-1.323.796-.538-.027-1.072-.316-1.332-.796-.204-.332-.187-.74-.14-1.111.124-.529.572-.956 1.094-1.091zm6.191-.01c.93-.252 1.933.58 1.86 1.539-.004.935-1.035 1.7-1.929 1.392-.787-.204-1.328-1.13-1.033-1.904.15-.507.59-.903 1.102-1.028zM39.524 34.812c1.656-.47 3.437-.137 4.983.549-.009.64-.007 1.281 0 1.923-1.106-.484-2.278-.993-3.515-.871-.41.042-.887.18-1.081.58-.15.42.189.786.536.967 1.324.681 2.971.898 3.955 2.118.563.706.666 1.695.426 2.545-.23.819-.905 1.45-1.677 1.77-1.038.445-2.2.411-3.3.281a7.244 7.244 0 0 1-2.306-.88c.02-.698.008-1.396.005-2.093 1.056.686 2.235 1.333 3.535 1.28.502-.045 1.175-.175 1.312-.747.116-.45-.224-.833-.602-1.015-1.166-.601-2.557-.793-3.555-1.697-.834-.716-1.098-1.957-.744-2.977.307-.887 1.147-1.492 2.028-1.733zm16.847-.164c.701-.256 1.576.324 1.507 1.09.055.473-.282.895-.696 1.082-.451.125-1.011.08-1.312-.324-.544-.571-.25-1.618.5-1.848zm30.73-.032c.693-.241 1.555.254 1.57 1.013.117.703-.555 1.388-1.262 1.293-.693-.005-1.236-.732-1.081-1.4.054-.415.391-.759.773-.906zm-79.494.092c.83-.002 1.659-.001 2.49-.001.002 1.329-.004 2.658.002 3.987 1.652.004 3.303 0 4.955 0 .006-1.33-.004-2.66.004-3.99.83.006 1.659 0 2.489.004 0 3.313-.002 6.624 0 9.937-.83.013-1.66.006-2.491.003-.002-1.338.003-2.676-.004-4.015-1.65-.007-3.301-.003-4.952-.002-.007 1.338-.001 2.677-.002 4.016-.832.005-1.664.013-2.496-.005.009-3.312 0-6.623.005-9.934zm39.18.012c.697.007 1.392.01 2.088 0 .041 2.163.001 4.33.02 6.495a1.2 1.2 0 0 0 .269-.246c.776-1.01 1.58-1.997 2.354-3.007.827-.012 1.656.005 2.484-.01-.879 1.099-1.76 2.194-2.616 3.311.914 1.121 1.818 2.249 2.732 3.37-.867-.02-1.734 0-2.6-.012-.699-.913-1.421-1.807-2.131-2.71-.153-.189-.28-.409-.496-.536-.005 1.085.013 2.17-.007 3.253-.7-.006-1.4-.004-2.1 0 .015-3.303.009-6.605.003-9.908zm22.202-.031h4.241c1.49-.047 3.08.331 4.195 1.368 1.02.915 1.548 2.31 1.497 3.668.045 1.353-.466 2.757-1.514 3.646-.955.817-2.215 1.168-3.448 1.273-1.658.02-3.317.01-4.977.01-.002-3.322-.011-6.644.006-9.965zm2.54 1.887c-.004 1.813 0 3.628-.002 5.442-.007.263-.01.529.038.79.768-.034 1.54.026 2.305-.067.77-.119 1.525-.518 1.944-1.19.556-.861.62-1.962.375-2.936-.205-.772-.757-1.452-1.503-1.758-.996-.442-2.103-.234-3.157-.28zm-49.524 1.288c1.257-.207 2.653.065 3.61.945 1.013.93 1.212 2.49.793 3.75-.314.935-1.129 1.635-2.048 1.953-1.35.48-2.97.334-4.122-.553-1.434-1.116-1.637-3.417-.526-4.822.564-.698 1.417-1.12 2.293-1.273zm.316 1.276c-.635.222-.93.913-1.003 1.534-.079.742-.068 1.552.32 2.216.436.765 1.664.854 2.214.17.398-.496.473-1.16.483-1.775 0-.616-.07-1.287-.473-1.781-.365-.442-1.018-.542-1.541-.364zm8.08-.66c.465-.327.977-.624 1.559-.664a3.043 3.043 0 0 1 2.88 1.334c.637.92.74 2.117.48 3.183-.2.831-.714 1.605-1.47 2.025-1.056.59-2.4.544-3.455-.025.005 1.222.003 2.444 0 3.666h-2.124c-.002-3.358-.002-6.716 0-10.074.707-.003 1.415-.002 2.123 0 0 .185.004.37.006.555zm-.005 1.363c.007 1.033-.006 2.068.007 3.101.47.308 1.043.517 1.608.374.651-.121 1.108-.723 1.221-1.35.12-.668.095-1.41-.266-2.005-.27-.456-.816-.69-1.334-.658-.47.004-.876.266-1.236.538zm31.629-1.36c.5-.323 1.035-.638 1.652-.655.976-.11 1.975.326 2.592 1.083.785.934.964 2.26.661 3.419-.208.9-.803 1.722-1.653 2.112-1.028.491-2.258.39-3.26-.113.007 1.217.003 2.434.002 3.65-.703-.004-1.406-.001-2.108 0 .016-3.341.011-6.683.002-10.024.698.005 1.398.006 2.097 0 .003.175.01.352.015.529zm-.013 1.359c.018 1.034.001 2.069.009 3.104.683.533 1.785.615 2.407-.054.565-.664.625-1.627.399-2.438-.134-.556-.588-1.045-1.166-1.137-.6-.147-1.202.142-1.649.525zm21.571-1.936c.72-.338 1.498.041 2.065.497-.211.634-.403 1.274-.606 1.912-.486-.286-1.033-.633-1.621-.454-.754.306-1.047 1.144-1.34 1.835-.076.98-.014 1.973-.034 2.958-.72.004-1.44 0-2.158.002a600.527 600.527 0 0 1-.002-6.738c.719-.002 1.44-.007 2.16.003.014.63-.035 1.263.038 1.89.276-.764.761-1.517 1.498-1.905zm15.712.893c1.405-1.41 4.054-1.383 5.33.188.626.73.816 1.72.791 2.656-1.612.026-3.226-.02-4.838.024.048.604.338 1.228.896 1.52.903.497 2.05.373 2.934-.108.309-.149.564-.388.882-.52l-.002 1.348c-.985.755-2.278.978-3.491.867-1.103-.055-2.23-.539-2.873-1.462-.923-1.349-.76-3.332.371-4.513zm2.237.362c-.422.15-.718.533-.836.955-.016.113-.17.398.056.378.903-.027 1.825.043 2.718-.034-.006-.38-.191-.75-.454-1.02-.384-.382-.988-.431-1.484-.28zm-45.83-1.21c.689.014 1.377.009 2.067.001.07 2.224.037 4.45.027 6.675-.699-.003-1.396-.01-2.093.006.007-2.228.01-4.456-.001-6.683zm30.725-.032c.713-.006 1.426-.003 2.14-.002.005 2.246.002 4.492.002 6.737-.714.004-1.429.002-2.142 0-.004-2.244-.005-4.49 0-6.735zm3.664 0c.772.004 1.545-.024 2.316.015.39 1.086.827 2.157 1.243 3.235.044.13.046.27.09.401.105-.03.106-.193.163-.274.418-1.128.89-2.235 1.295-3.367.771-.028 1.543-.012 2.316-.008-1.004 2.296-2.07 4.565-3.082 6.858-.41.025-.835.07-1.237-.01-.865-1.8-1.658-3.638-2.499-5.451-.192-.47-.453-.913-.605-1.4z" fill-rule="evenodd"/></svg>