<svg height="20" width="111" xmlns="http://www.w3.org/2000/svg"><path d="M2.057 17.54C.821 16.244 0 14.379 0 12.446V.005h3.724V12.39c0 1.02.3 1.877.996 2.594.698.72 1.532 1.003 2.466 1.003h4.91v3.68H7.16c-2.159-.002-3.9-.864-5.102-2.126zM23.594 5.292a7.272 7.272 0 0 1 2.331 1.612 7.641 7.641 0 0 1 1.58 2.435c.386.936.58 1.954.58 3.052 0 1.088-.194 2.096-.58 3.023a7.594 7.594 0 0 1-1.58 2.414 7.228 7.228 0 0 1-2.33 1.598 7.11 7.11 0 0 1-2.85.575 7.095 7.095 0 0 1-2.855-.575 7.17 7.17 0 0 1-2.317-1.598A7.656 7.656 0 0 1 14 15.413c-.387-.927-.58-1.935-.58-3.023 0-1.098.193-2.116.58-3.052a7.704 7.704 0 0 1 1.572-2.435A7.214 7.214 0 0 1 17.89 5.29a7.021 7.021 0 0 1 2.856-.581c1.011 0 1.96.193 2.848.581zM22.125 16.06a3.47 3.47 0 0 0 1.145-.802c.331-.348.59-.763.78-1.245a4.364 4.364 0 0 0 .282-1.599c0-.59-.094-1.136-.283-1.636a3.797 3.797 0 0 0-.779-1.279 3.686 3.686 0 0 0-1.145-.828c-.432-.2-.892-.3-1.38-.3-.487 0-.953.1-1.4.3-.446.2-.827.476-1.144.828-.318.352-.57.779-.759 1.279a4.604 4.604 0 0 0-.283 1.636c0 .583.095 1.116.283 1.599.188.482.441.897.759 1.245.317.348.698.615 1.145.802.446.188.912.28 1.4.28a3.43 3.43 0 0 0 1.38-.28zM47.292 2.843L45.843 4.3a7.485 7.485 0 0 0-2.335-1.594 7.256 7.256 0 0 0-2.933-.598c-1.052 0-2.032.2-2.941.598a7.426 7.426 0 0 0-2.387 1.66 7.938 7.938 0 0 0-1.62 2.509c-.397.964-.595 2.012-.595 3.142 0 1.121.198 2.159.596 3.114a7.879 7.879 0 0 0 1.62 2.486 7.37 7.37 0 0 0 2.386 1.646c.909.394 1.89.592 2.94.592 1.042 0 2.02-.198 2.934-.592a7.448 7.448 0 0 0 1.908-1.185l1.47 1.477a9.444 9.444 0 0 1-2.617 1.676 9.3 9.3 0 0 1-3.722.75c-1.334 0-2.578-.25-3.731-.75a9.358 9.358 0 0 1-3.028-2.088 10 10 0 0 1-2.055-3.155c-.505-1.212-.757-2.528-.757-3.95 0-1.435.252-2.764.757-3.988a10.073 10.073 0 0 1 2.055-3.182A9.43 9.43 0 0 1 36.816.761C37.969.254 39.213 0 40.546 0c1.322 0 2.563.253 3.723.76a9.507 9.507 0 0 1 3.023 2.082zm10.536 2.448a7.27 7.27 0 0 1 2.331 1.612 7.641 7.641 0 0 1 1.58 2.435c.386.937.579 1.954.579 3.052 0 1.088-.193 2.096-.58 3.023a7.587 7.587 0 0 1-1.579 2.414 7.21 7.21 0 0 1-2.33 1.598 7.107 7.107 0 0 1-2.85.575 7.09 7.09 0 0 1-2.855-.575 7.15 7.15 0 0 1-2.317-1.598 7.644 7.644 0 0 1-1.573-2.414c-.386-.927-.579-1.935-.579-3.023 0-1.098.193-2.115.58-3.052s.91-1.748 1.572-2.435 1.434-1.225 2.317-1.612 1.835-.581 2.856-.581c1.011 0 1.96.194 2.848.581zm-.924 12.23a4.835 4.835 0 0 0 1.596-1.119 5.26 5.26 0 0 0 1.087-1.736c.263-.674.394-1.416.394-2.229 0-.825-.131-1.586-.394-2.283A5.287 5.287 0 0 0 58.5 8.371a5.14 5.14 0 0 0-1.596-1.155 4.53 4.53 0 0 0-1.924-.418c-.68 0-1.331.14-1.953.418a4.722 4.722 0 0 0-1.597 1.155 5.55 5.55 0 0 0-1.058 1.783 6.419 6.419 0 0 0-.394 2.283c0 .813.131 1.555.394 2.229a5.526 5.526 0 0 0 1.058 1.736c.443.486.975.859 1.597 1.12a4.99 4.99 0 0 0 1.953.39c.68 0 1.32-.13 1.924-.39zM75.303.569c.865.361 1.544.87 2.207 1.525a7.03 7.03 0 0 1 1.489 2.235c.367.873.634 1.846.634 3.12v12.223h-3.725V7.073c0-.568-.228-1.525-.89-2.267a3.34 3.34 0 0 0-2.503-1.124 3.281 3.281 0 0 0-2.476 1.124c-.556.63-.89 1.515-.89 2.267v12.598h-3.724V7.45c0-1.186.234-2.304.627-3.149.406-.871.842-1.571 1.481-2.212.676-.679 1.36-1.164 2.216-1.527A6.782 6.782 0 0 1 72.515 0c1.02 0 1.88.19 2.788.568zm10.524 7.504h7.945v3.487h-7.945v.886c0 .97.293 1.693.767 2.28a3.314 3.314 0 0 0 2.735 1.262h5.877v3.68h-5.918c-1.298 0-2.335-.267-3.31-.773-.729-.38-1.438-.914-1.936-1.487-.566-.652-.877-1.11-1.228-1.84a7.548 7.548 0 0 1-.712-3.177V7.27c0-.942.203-1.947.597-2.874.337-.794.892-1.654 1.42-2.203.53-.55 1.253-1.138 1.996-1.484.902-.421 1.826-.704 2.838-.704h6.253v3.68H89.33c-.988 0-1.848.322-2.51 1.015a3.656 3.656 0 0 0-.992 2.486zm19.918-4.39v15.986h-3.725V3.682h-5.256V.005H111v3.677z"/></svg>