<?xml version="1.0" encoding="UTF-8"?>
<svg width="172px" height="32px" viewBox="0 0 172 32" version="1.1" xmlns="http://www.w3.org/2000/svg" xmlns:xlink="http://www.w3.org/1999/xlink">
    <!-- Generator: Sketch 50.2 (55047) - http://www.bohemiancoding.com/sketch -->
    <title>Combined Shape</title>
    <desc>Created with Sketch.</desc>
    <defs></defs>
    <g id="Desktop" stroke="none" stroke-width="1" fill="none" fill-rule="evenodd">
        <g id="Work" transform="translate(-746.000000, -2552.000000)" fill="#000000">
            <g id="Clients" transform="translate(80.000000, 1824.000000)">
                <g id="logos" transform="translate(128.000000, 448.000000)">
                    <g id="11" transform="translate(512.000000, 256.000000)">
                        <path d="M26.0260115,24.0056514 C26.3784634,23.9520855 26.55046,24.2918062 26.7675703,24.4962025 C28.7878247,26.6191046 30.8066692,28.744826 32.8269236,30.8677282 C32.8297432,28.6475616 32.8269236,26.4288046 32.8283334,24.208638 L34.6371166,24.208638 C34.6300675,27.8144705 34.6512146,31.4188934 34.6272479,35.0247259 C34.4778083,34.9782081 34.3495158,34.9006784 34.2437802,34.7879081 C32.1065119,32.524043 29.9523258,30.2756838 27.810828,28.0146379 C27.8080084,30.2700453 27.810828,32.5254526 27.8094182,34.7808599 L26.0034546,34.7808599 C26.0189625,31.1891237 25.9738486,27.5973876 26.0260115,24.0056514 Z M96.8490937,24.1029299 C98.4929294,23.8463773 100.260828,24.3524343 101.452116,25.5308847 C103.245391,27.3591743 103.530172,30.4674075 102.118955,32.5987674 C101.263201,33.8632052 99.8731311,34.8132955 98.3237525,34.9063311 C96.678507,35.1191851 94.9190671,34.579297 93.7700738,33.3641963 C91.9824378,31.4668349 91.8132608,28.2951683 93.3443119,26.1976395 C94.1479023,25.0459721 95.4646626,24.2833625 96.8490937,24.1029299 Z M96.7123424,25.7874373 C96.0567818,25.974918 95.4590234,26.3766624 95.0473596,26.9221891 C93.8363348,28.5376246 93.9378409,31.0989215 95.4406959,32.5029126 C96.7348993,33.7391578 99.0794094,33.6320259 100.191748,32.1998423 C101.481722,30.5562142 101.380215,27.8736891 99.8139192,26.4400958 C98.9807229,25.6887632 97.7781569,25.4815476 96.7123424,25.7874373 Z M39.1682383,24.2086239 C41.3224244,24.2086239 43.4766104,24.2072143 45.6322063,24.2086239 L45.6322063,25.8649387 L40.9770215,25.8649387 L40.9770215,28.6137164 L45.1810678,28.6137164 L45.1810678,30.2347904 L40.9770215,30.2347904 L40.9770215,33.1597718 L45.6322063,33.1597718 L45.6322063,34.7808458 C43.4766104,34.7822555 41.3224244,34.7808458 39.1682383,34.7808458 C39.1668285,31.2567719 39.1668285,27.7326979 39.1682383,24.2086239 Z M56.2692049,26.2159647 C57.0586972,25.2193565 58.1823138,24.4863492 59.4314034,24.2227484 C61.1555981,23.7857633 63.0419208,24.174821 64.527858,25.126321 C64.2557651,25.6084143 63.978033,26.089098 63.7045303,26.5711913 C62.6246177,25.8677862 61.2768416,25.556258 60.0023755,25.7691121 C58.9633473,25.9720987 57.9863506,26.6261669 57.5182944,27.5903535 C57.0798443,28.4248542 56.9896166,29.4087757 57.1446954,30.3292638 C57.3843627,31.5697378 58.2781808,32.7016704 59.4863859,33.1175111 C60.6170516,33.5573155 61.9084354,33.4036659 62.9686108,32.8454526 C62.9672009,32.1519149 62.9686108,31.4569675 62.9686108,30.7634297 L60.4986278,30.7634297 L60.4986278,29.1775964 C61.9098452,29.1775964 63.3196529,29.1761868 64.7308703,29.1775964 C64.7308703,30.728189 64.7294605,32.2773719 64.7308703,33.8279644 C63.8793465,34.3452985 62.9460538,34.7639585 61.9535493,34.9063311 C60.4859395,35.0487037 58.9055452,34.9133792 57.6550458,34.0633726 C56.3425149,33.27398 55.4430576,31.8713986 55.2329963,30.3602756 C55.0046074,28.9125861 55.3753868,27.3803187 56.2692049,26.2159647 Z M82.0264044,24.315784 C83.4996534,24.2354351 85.0109672,23.9506899 86.4616593,24.353844 C87.3568871,24.555421 88.2337875,25.0755743 88.6539101,25.9157136 C88.9964934,26.5528661 88.9640678,27.345078 88.6764671,27.9949172 C88.369129,28.6546238 87.70229,29.0309949 87.0678765,29.3171498 C87.5754073,29.4750283 88.0716596,29.7019786 88.4734548,30.054386 C89.1290153,30.6760327 89.3249786,31.6754601 89.1036388,32.5311052 C88.8132184,33.5530867 87.9038925,34.3001903 86.9113879,34.5990318 C85.3295837,35.1262333 83.6448636,34.7977896 82.0264044,34.6751518 C82.0249946,31.2215593 82.0264044,27.7679668 82.0264044,24.315784 Z M83.8084013,30.081169 C83.8013523,31.1440297 83.8041719,32.2068904 83.8069915,33.2711607 C84.5062561,33.3543289 85.2196187,33.3754733 85.9160637,33.2500163 C86.4630691,33.1076437 87.0241725,32.7566459 87.1792513,32.1801074 C87.3949519,31.5359067 87.1510552,30.7408756 86.5363791,30.4096127 C85.7045926,29.9655794 84.7205468,29.9740371 83.8084013,30.081169 Z M83.8055817,25.7930758 C83.8098111,26.7755876 83.795713,27.7595091 83.8140405,28.7420209 C84.7261861,28.726515 85.7905908,28.9083572 86.5490673,28.281072 C87.2539712,27.7256779 87.1792513,26.5091676 86.4264141,26.0298936 C85.6453806,25.5393425 84.6712036,25.7056788 83.8055817,25.7930758 Z M106.579614,24.2086239 L108.386988,24.2086239 C108.391217,26.3921402 108.375709,28.5756564 108.394037,30.757763 C108.403905,31.6021311 108.678818,32.5592696 109.464081,32.9962548 C110.463634,33.5502392 111.895999,33.455794 112.675622,32.5677274 C113.305806,31.785383 113.245185,30.7211126 113.243775,29.7738415 C113.242365,27.918769 113.242365,26.0636965 113.242365,24.2086239 L115.048329,24.2086239 C115.049738,26.3879113 115.051148,28.565789 115.048329,30.7450763 C115.048329,31.8741896 114.719843,33.0653266 113.883828,33.8645866 C112.850439,34.875291 111.281323,35.092374 109.902531,34.8992547 C108.767636,34.7582918 107.663756,34.1310066 107.12239,33.0991577 C106.562697,32.1363807 106.565516,30.9875326 106.579614,29.909166 L106.579614,24.2086239 Z M119.479326,24.314318 C121.395254,24.1522106 123.529703,23.8054417 125.258127,24.869712 C126.773671,25.8057061 127.031665,28.1019927 125.946113,29.4566467 C125.60212,29.9570652 125.072033,30.2770511 124.543355,30.5519289 C125.466779,31.9615585 126.397252,33.3683688 127.317856,34.7808176 C126.617182,34.7822273 125.916507,34.7808176 125.215833,34.7808176 C124.447488,33.512151 123.676323,32.244894 122.907978,30.9762274 C122.366612,30.9790466 121.825246,30.9790466 121.285289,30.9438059 L121.285289,34.7808176 L119.479326,34.7808176 C119.479326,31.2919844 119.477916,27.8031512 119.479326,24.314318 Z M121.286699,25.8310794 C121.285289,27.0419512 121.285289,28.252823 121.286699,29.4651045 C122.15937,29.5059837 123.120859,29.5806941 123.901892,29.1112874 C124.895807,28.4825927 124.984625,26.7868083 123.963924,26.1440172 C123.165973,25.6365505 122.179107,25.7620076 121.286699,25.8310794 Z M147.27515,24.1634876 C148.918985,23.8209476 150.730588,24.184632 152.014923,25.2954202 C154.176158,27.1871431 154.45671,30.8465415 152.598583,33.0399251 C151.734371,34.1013762 150.450036,34.8428413 149.069835,34.9133228 C147.48944,35.1036228 145.821638,34.5905176 144.681103,33.4684525 C142.696094,31.4738266 142.58472,27.9455238 144.447075,25.8338987 C145.164668,24.9740246 146.193827,24.412992 147.27515,24.1634876 Z M147.597995,25.7662364 C146.53641,26.0213794 145.682067,26.8657475 145.314107,27.8792712 C144.771331,29.3607919 144.971524,31.1876718 146.089501,32.3562548 C147.300526,33.6728488 149.61402,33.6968125 150.843373,32.3900859 C152.274327,30.8394933 152.271508,28.1527393 150.819406,26.6176527 C150.000308,25.7634172 148.730071,25.4575276 147.597995,25.7662364 Z M160.977042,24.2410736 C162.658942,23.7970403 164.566412,24.0789662 165.938155,25.1897543 C168.041588,26.9024543 168.475809,30.2503245 167.032166,32.5141897 C166.204608,33.7828563 164.846964,34.7526814 163.314503,34.8922348 C161.686175,35.1332814 159.936604,34.655417 158.746726,33.4952918 C156.719423,31.5020756 156.615097,27.927255 158.504239,25.8057625 C159.138653,25.0361047 160.040929,24.5511921 160.977042,24.2410736 Z M161.553653,25.7902565 C160.469511,26.0862787 159.629266,27.0067669 159.309239,28.0682179 C158.853871,29.5159075 159.079441,31.2568001 160.166402,32.3732267 C161.28579,33.5812793 163.361026,33.6940496 164.614345,32.62696 C165.668882,31.7431223 166.039661,30.2686497 165.890221,28.9407787 C165.768978,27.8144846 165.195186,26.6797328 164.188584,26.1046039 C163.417419,25.5914988 162.424914,25.5618965 161.553653,25.7902565 Z M171.904461,24.3143744 C173.785144,24.1283032 175.746187,23.9492803 177.571887,24.5568306 C179.007072,25.023418 180.277308,26.1046039 180.786249,27.5494743 C181.369909,29.2170661 181.173946,31.1905475 180.140557,32.6438756 C179.341196,33.7546637 178.06391,34.4608881 176.735871,34.7174407 C175.139969,35.0035955 173.506002,34.8682711 171.904461,34.7103925 C171.904461,31.2441134 171.903051,27.7792439 171.904461,24.3143744 Z M173.710424,25.8283165 L173.710424,33.19786 C175.076528,33.3219074 176.606169,33.3797022 177.781949,32.55084 C178.789961,31.8403867 179.197396,30.549166 179.172019,29.3594386 C179.174839,28.2571083 178.729339,27.0828869 177.77208,26.469698 C176.592071,25.6760765 175.072298,25.6478839 173.710424,25.8283165 Z M49.8701021,34.8090666 C49.9039375,31.272306 49.8884296,27.7355454 49.8771512,24.1987847 C50.4875979,24.2297966 51.0994544,24.2185195 51.7099011,24.2100618 C51.6859344,27.736955 51.6915736,31.2652578 51.7070815,34.7935607 C51.0938152,34.7907414 50.4819586,34.7752355 49.8701021,34.8090666 Z M69.0195333,24.2086239 L70.8254969,24.2086239 L70.8254969,28.6137164 C72.4495953,28.6137164 74.0722839,28.6123068 75.6963823,28.6137164 C75.6963823,27.1448824 75.6949725,25.677458 75.6963823,24.2086239 L77.5023458,24.2086239 C77.5037557,27.7326979 77.5023458,31.2567719 77.5023458,34.7808458 L75.6963823,34.7808458 C75.6949725,33.265494 75.6963823,31.7501422 75.6963823,30.2347904 L70.8254969,30.2347904 L70.8254969,34.7808458 L69.0195333,34.7808458 L69.0195333,24.2086239 Z M130.804353,34.7808458 C130.802943,31.2567719 130.802943,27.7326979 130.804353,24.2086239 L132.610316,24.2086239 L132.610316,28.6137164 L137.481202,28.6137164 C137.479792,27.1448824 137.479792,25.677458 137.481202,24.2086239 L139.287165,24.2086239 L139.287165,34.7808458 L137.481202,34.7808458 C137.479792,33.265494 137.479792,31.7501422 137.481202,30.2347904 L132.610316,30.2347904 L132.610316,34.7808458 L130.804353,34.7808458 Z M185.197537,34.8005947 C185.208815,31.2694726 185.203176,27.7383505 185.200356,24.2072284 C185.802344,24.2227343 186.405742,24.2156862 187.010549,24.2170958 C187.00773,27.7411698 187.00773,31.2652437 187.010549,34.7893177 C186.405742,34.7907273 185.800935,34.7822696 185.197537,34.8005947 Z M191.538852,24.2086239 L198,24.2086239 C197.99859,24.7611987 197.99859,25.3123639 198,25.8649387 L193.346225,25.8649387 C193.344815,26.7811979 193.344815,27.6974572 193.346225,28.6137164 C194.747574,28.6137164 196.150332,28.6123068 197.553091,28.6137164 C197.551681,29.1536045 197.551681,29.6949023 197.553091,30.2347904 L193.346225,30.2347904 C193.344815,31.2102541 193.346225,32.1843081 193.346225,33.1597718 L198,33.1597718 C197.99859,33.6996599 197.99859,34.2409577 198,34.7808458 L191.538852,34.7808458 L191.538852,24.2086239 Z M108.467375,45.9634514 C109.289293,45.1712396 110.496088,44.9753011 111.594328,45.0598789 C112.354214,45.1078063 113.061938,45.4179248 113.723138,45.7745611 C113.527174,46.3130396 113.335441,46.8543373 113.143707,47.3942255 C112.296412,46.7838559 111.14319,46.3891596 110.129538,46.8035907 C109.38234,47.084107 109.132804,48.1582447 109.703776,48.7263254 C110.782279,49.7370298 112.46136,49.8892698 113.381964,51.1029609 C114.453418,52.4660727 113.869758,54.6890586 112.349985,55.4671741 C110.685002,56.3340963 108.621044,55.9379904 107.10691,54.9357438 C107.312742,54.3972653 107.519984,53.8587868 107.724406,53.3188986 C108.659109,53.9912919 109.844757,54.4000845 110.999389,54.2436156 C111.955239,54.101243 112.412017,52.8466727 111.821307,52.1009787 C111.079748,51.2312372 109.860265,51.0789972 108.953758,50.4460735 C108.461736,50.0936661 107.983811,49.6609098 107.77093,49.0787328 C107.347988,48.0285588 107.613031,46.7232418 108.467375,45.9634514 Z M121.336057,45.1711973 C123.002449,44.803284 124.846478,45.221944 126.126583,46.3665632 C128.081986,48.1624313 128.434438,51.4243142 126.95696,53.6162882 C126.065961,54.853943 124.671661,55.7828889 123.129332,55.9083459 C121.38681,56.1367059 119.508946,55.485457 118.390968,54.1068393 C116.778149,52.1389964 116.731625,49.0547268 118.30638,47.0502336 C119.03948,46.0747699 120.158867,45.4404366 121.336057,45.1711973 Z M121.644804,46.7697173 C120.673447,47.006535 119.868447,47.7339039 119.463832,48.6388861 C118.949252,49.8060594 118.939384,51.1917253 119.461012,52.357489 C119.84307,53.1891704 120.542335,53.8982141 121.423465,54.1829593 C122.734586,54.5988 124.329078,54.191417 125.141127,53.0411593 C126.208352,51.5483616 126.192844,49.3338335 125.069227,47.8734572 C124.286784,46.8542951 122.874157,46.4285869 121.644804,46.7697173 Z M140.883025,45.2121048 C143.725198,45.2106951 146.56737,45.2121048 149.410952,45.2121048 C149.409542,45.7519929 149.409542,46.2932907 149.410952,46.8331788 L146.057019,46.8331788 L146.057019,55.7843267 L144.251056,55.7843267 C144.249646,52.8128275 144.249646,49.8399187 144.251056,46.8684195 L140.883025,46.8684195 C140.881616,46.3158447 140.881616,45.7646796 140.883025,45.2121048 Z M152.014866,45.2121048 C152.677476,45.2106951 153.341495,45.2121048 154.006925,45.2106951 C154.646977,47.4308617 155.281391,49.6510283 155.914394,51.8726046 C156.722214,50.0358572 157.511706,48.1906521 158.313887,46.3524951 C158.515489,45.9014136 158.676207,45.4291877 158.9483,45.0119374 C159.045577,45.1514907 159.132985,45.2966826 159.209115,45.4503322 C160.140998,47.5802825 161.079929,49.7060039 162.016042,51.8345446 C162.647636,49.6270646 163.269361,47.4167654 163.900955,45.2106951 C164.555105,45.2135144 165.207846,45.2121048 165.863407,45.2121048 C164.73697,48.7911543 163.64437,52.3814809 162.496786,55.9534822 C162.431935,55.9647593 162.302233,55.988723 162.237382,56 C161.106716,53.5599312 160.040901,51.0888505 158.927153,48.6403239 C157.868388,51.0155498 156.833589,53.400643 155.781872,55.7786882 C155.779053,56.026783 155.43083,56.0817585 155.380077,55.8407119 C154.249412,52.301132 153.137073,48.7545039 152.014866,45.2121048 Z M167.118192,55.7857081 C168.74793,52.2038393 170.386126,48.6261994 172.013044,45.0443307 C172.083534,45.0739329 172.225925,45.1317277 172.296415,45.1613299 C173.927563,48.6938617 175.522055,52.2447186 177.137695,55.7857081 C176.499052,55.7828889 175.861819,55.7871177 175.224586,55.7814792 C174.887642,54.9808096 174.539419,54.1871882 174.198246,53.3879282 C172.803946,53.3893378 171.408237,53.3865186 170.013937,53.3893378 C169.671354,54.1885978 169.325951,54.9864481 168.983367,55.7842985 C168.360233,55.7842985 167.738507,55.7842985 167.118192,55.7857081 Z M172.111731,48.4203935 C171.608429,49.5932053 171.106538,50.7674268 170.608876,51.9416482 C171.609839,51.9430579 172.610803,51.9416482 173.613176,51.9430579 C173.112694,50.7688364 172.610803,49.5960246 172.111731,48.4203935 Z M180.360487,45.3177988 C182.059305,45.1627395 183.8554,44.9090062 185.490777,45.5348818 C186.518527,45.9168914 187.330576,46.8585239 187.449,47.9636735 C187.691487,49.4339172 186.832914,51.0000157 185.425926,51.5258075 C186.35076,52.9438949 187.268544,54.3662111 188.194788,55.7842985 C187.487064,55.7800696 186.780751,55.7969851 186.074437,55.7716118 C185.335698,54.4944874 184.541976,53.2483749 183.789139,51.9797082 C183.246363,51.9825275 182.704997,51.9825275 182.165041,51.9472867 C182.16645,53.2272304 182.16645,54.5057644 182.165041,55.7842985 L180.360487,55.7842985 C180.359077,52.2954653 180.359077,48.806632 180.360487,45.3177988 Z M182.16645,46.8345602 C182.165041,48.0313358 182.16645,49.2281113 182.165041,50.4262964 C183.039121,50.5080549 184.00202,50.5898135 184.784463,50.1147683 C185.779787,49.4832542 185.862966,47.7790121 184.835216,47.1404499 C184.035855,46.6386217 183.058859,46.7542114 182.16645,46.8345602 Z M131.768633,45.214924 C133.922819,45.2092855 136.077005,45.2135144 138.231191,45.2121048 C138.229781,45.7519929 138.229781,46.291881 138.231191,46.8331788 L133.576006,46.8331788 L133.576006,49.9343639 L137.667268,49.9343639 C137.665858,50.462975 137.665858,50.9915861 137.667268,51.5201972 L133.577416,51.5201972 C133.576006,52.9411038 133.577416,54.3634201 133.576006,55.7843267 L131.770043,55.7843267 C131.768633,52.2602527 131.771453,48.7375884 131.768633,45.214924 Z M191.538852,45.2121048 L198,45.2121048 C197.99859,45.7519929 197.99859,46.2932907 198,46.8331788 L193.346225,46.8331788 C193.344815,47.7607151 193.344815,48.689661 193.346225,49.6171972 C194.747574,49.6171972 196.150332,49.6157876 197.553091,49.6171972 C197.551681,50.1458083 197.551681,50.6744194 197.553091,51.2030305 L193.346225,51.2030305 C193.344815,52.1784942 193.344815,53.1525482 193.346225,54.1280119 C194.897013,54.1280119 196.447802,54.1266023 198,54.1280119 C197.99859,54.6805867 197.99859,55.2317519 198,55.7843267 L191.538852,55.7843267 L191.538852,45.2121048 Z" id="Combined-Shape"></path>
                    </g>
                </g>
            </g>
        </g>
    </g>
</svg>