<?xml version="1.0" encoding="UTF-8" standalone="no"?>
<!DOCTYPE svg PUBLIC "-//W3C//DTD SVG 1.1//EN" "http://www.w3.org/Graphics/SVG/1.1/DTD/svg11.dtd">
<svg width="100%" height="100%" viewBox="0 0 246 50" version="1.1" xmlns="http://www.w3.org/2000/svg" xmlns:xlink="http://www.w3.org/1999/xlink" xml:space="preserve" xmlns:serif="http://www.serif.com/" style="fill-rule:evenodd;clip-rule:evenodd;stroke-linejoin:round;stroke-miterlimit:1.41421;">
    <g transform="matrix(1,0,0,1,-19.8,-20.1)">
        <path d="M129.7,59.1C129.6,59 129.5,58.8 129.5,58.6L129.5,51.8C128.4,53.2 126.9,53.9 124.9,53.9C122.9,53.9 121.4,53.3 120.3,52C119.2,50.7 118.6,49 118.5,46.9L118.5,45.8L118.5,44.7C118.6,42.6 119.2,40.9 120.2,39.6C121.3,38.3 122.8,37.7 124.9,37.7C127,37.7 128.6,38.4 129.7,39.9L129.7,38.7C129.7,38.5 129.8,38.3 129.9,38.2C130,38.1 130.2,38 130.4,38L132.8,38C133,38 133.2,38.1 133.3,38.2C133.4,38.3 133.5,38.5 133.5,38.7L133.5,58.6C133.5,58.8 133.4,59 133.3,59.1C133.2,59.2 133,59.3 132.8,59.3L130.2,59.3C130,59.3 129.8,59.2 129.7,59.1ZM128.5,49.6C129.1,48.9 129.4,48.1 129.4,47.1L129.4,44.8C129.3,43.7 129,42.8 128.5,42.1C128,41.4 127.1,41 126,41C123.9,41 122.8,42.3 122.6,45L122.6,46.8C122.7,49.4 123.9,50.8 126,50.8C127.1,50.6 127.9,50.3 128.5,49.6Z" style="fill:rgb(255,21,89);fill-rule:nonzero;"/>
        <path d="M138,52.1C136.9,50.9 136.4,49.3 136.4,47.1L136.4,38.7C136.4,38.5 136.5,38.3 136.6,38.2C136.7,38.1 136.9,38 137.1,38L139.8,38C140,38 140.2,38.1 140.3,38.2C140.4,38.3 140.5,38.5 140.5,38.7L140.5,47C140.5,49.5 141.6,50.7 143.7,50.7C144.7,50.7 145.6,50.4 146.2,49.7C146.8,49 147.1,48.1 147.1,47L147.1,38.8C147.1,38.6 147.2,38.4 147.3,38.3C147.4,38.2 147.6,38.1 147.8,38.1L150.5,38.1C150.7,38.1 150.9,38.2 151,38.3C151.1,38.4 151.2,38.6 151.2,38.8L151.2,53C151.2,53.2 151.1,53.4 151,53.5C150.9,53.6 150.7,53.7 150.5,53.7L148,53.7C147.8,53.7 147.6,53.6 147.5,53.5C147.4,53.4 147.3,53.2 147.3,53L147.3,51.8C146.2,53.3 144.5,54 142.3,54C140.5,53.9 139.1,53.3 138,52.1Z" style="fill:rgb(255,21,89);fill-rule:nonzero;"/>
        <path d="M154.5,53.4C154.4,53.3 154.3,53.1 154.3,52.9L154.3,38.7C154.3,38.5 154.4,38.3 154.5,38.2C154.6,38.1 154.8,38 155,38L157.5,38C157.7,38 157.9,38.1 158,38.2C158.1,38.3 158.2,38.5 158.2,38.7L158.2,39.9C159.4,38.4 161.1,37.7 163.2,37.7C165,37.7 166.5,38.3 167.6,39.5C168.7,40.7 169.2,42.3 169.2,44.5L169.2,52.9C169.2,53.1 169.1,53.3 169,53.4C168.9,53.5 168.7,53.6 168.5,53.6L165.8,53.6C165.6,53.6 165.4,53.5 165.3,53.4C165.2,53.3 165.1,53.1 165.1,52.9L165.1,44.7C165.1,43.5 164.8,42.6 164.2,42C163.6,41.4 162.8,41 161.8,41C160.8,41 160,41.3 159.3,42C158.6,42.7 158.4,43.6 158.4,44.7L158.4,52.9C158.4,53.1 158.3,53.3 158.2,53.4C158.1,53.5 157.9,53.6 157.7,53.6L155,53.6C154.9,53.6 154.7,53.5 154.5,53.4Z" style="fill:rgb(255,21,89);fill-rule:nonzero;"/>
        <path d="M173.5,35.2C173.4,35.1 173.3,34.9 173.3,34.7L173.3,32.5C173.3,32.3 173.4,32.1 173.5,32C173.6,31.9 173.8,31.8 174,31.8L176.8,31.8C177,31.8 177.2,31.9 177.3,32C177.4,32.1 177.5,32.3 177.5,32.5L177.5,34.7C177.5,34.9 177.4,35.1 177.3,35.2C177.1,35.3 177,35.4 176.8,35.4L174,35.4C173.8,35.4 173.6,35.4 173.5,35.2ZM173.6,53.4C173.5,53.3 173.4,53.1 173.4,52.9L173.4,38.7C173.4,38.5 173.5,38.3 173.6,38.2C173.7,38.1 173.9,38 174.1,38L176.6,38C176.8,38 177,38.1 177.1,38.2C177.2,38.3 177.3,38.5 177.3,38.7L177.3,52.9C177.3,53.1 177.2,53.3 177.1,53.4C177,53.5 176.8,53.6 176.6,53.6L174.1,53.6C173.9,53.6 173.7,53.5 173.6,53.4Z" style="fill:rgb(255,21,89);fill-rule:nonzero;"/>
        <path d="M184,52.2C183.1,51.3 182.6,49.9 182.6,48L182.6,41.2L180.2,41.2C180,41.2 179.8,41.1 179.7,41C179.6,40.9 179.5,40.7 179.5,40.5L179.5,38.7C179.5,38.5 179.6,38.3 179.7,38.2C179.8,38.1 180,38 180.2,38L182.6,38L182.6,33C182.6,32.8 182.7,32.6 182.8,32.5C182.9,32.4 183.1,32.3 183.3,32.3L185.8,32.3C186,32.3 186.2,32.4 186.3,32.5C186.4,32.6 186.5,32.8 186.5,33L186.5,38L190.3,38C190.5,38 190.7,38.1 190.8,38.2C190.9,38.3 191,38.5 191,38.7L191,40.5C191,40.7 190.9,40.9 190.8,41C190.7,41.1 190.5,41.2 190.3,41.2L186.5,41.2L186.5,47.7C186.5,48.6 186.6,49.2 187,49.6C187.3,50 187.8,50.3 188.5,50.3L190.6,50.3C190.8,50.3 191,50.4 191.1,50.5C191.2,50.6 191.3,50.8 191.3,51L191.3,52.9C191.3,53.1 191.2,53.3 191.1,53.4C191,53.5 190.8,53.6 190.6,53.6L188.1,53.6C186.3,53.6 184.9,53.1 184,52.2Z" style="fill:rgb(255,21,89);fill-rule:nonzero;"/>
        <path d="M192.9,46.1C192.8,46 192.7,45.8 192.7,45.6L192.7,43.6C192.7,43.4 192.8,43.2 192.9,43.1C193,43 193.2,42.9 193.4,42.9L202.6,42.9C202.8,42.9 203,43 203.1,43.1C203.2,43.2 203.3,43.4 203.3,43.6L203.3,45.6C203.3,45.8 203.2,46 203.1,46.1C203,46.2 202.8,46.3 202.6,46.3L193.4,46.3C193.3,46.3 193.1,46.3 192.9,46.1Z" style="fill:rgb(255,21,89);fill-rule:nonzero;"/>
        <path d="M207.5,51.9C206.4,50.6 205.8,48.9 205.7,46.7L205.7,45.7L205.7,44.7C205.8,42.6 206.4,40.9 207.5,39.6C208.6,38.3 210.1,37.6 212.2,37.6C214.1,37.6 215.7,38.3 216.8,39.6L216.8,33C216.8,32.8 216.9,32.6 217,32.5C217.1,32.4 217.3,32.3 217.5,32.3L220.1,32.3C220.3,32.3 220.5,32.4 220.6,32.5C220.7,32.6 220.8,32.8 220.8,33L220.8,52.9C220.8,53.1 220.7,53.3 220.6,53.4C220.5,53.5 220.3,53.6 220.1,53.6L217.7,53.6C217.5,53.6 217.3,53.5 217.2,53.4C217.1,53.3 217,53.1 217,52.9L217,51.8C215.9,53.2 214.3,53.9 212.2,53.9C210.1,53.9 208.6,53.2 207.5,51.9ZM215.8,49.5C216.3,48.8 216.7,47.9 216.7,46.8L216.7,44.5C216.7,43.5 216.3,42.7 215.8,42C215.2,41.3 214.4,40.9 213.3,40.9C211.2,40.9 210,42.2 209.9,44.9L209.9,46.7C210,49.3 211.2,50.7 213.3,50.7C214.4,50.6 215.3,50.3 215.8,49.5Z" style="fill:rgb(255,21,89);fill-rule:nonzero;"/>
        <path d="M225.9,52.1C224.6,50.9 223.9,49.2 223.8,47.1L223.8,45.8L223.8,44.5C223.9,42.4 224.6,40.7 225.9,39.5C227.2,38.3 229,37.7 231.3,37.7C233.6,37.7 235.4,38.3 236.7,39.5C238,40.7 238.7,42.4 238.8,44.5L238.8,47.1C238.7,49.2 238,50.9 236.7,52.1C235.4,53.3 233.6,53.9 231.3,53.9C229,53.9 227.2,53.3 225.9,52.1ZM233.9,49.9C234.5,49.2 234.8,48.3 234.8,47L234.8,44.6C234.8,43.3 234.4,42.3 233.9,41.7C233.4,41.1 232.5,40.7 231.5,40.7C230.4,40.7 229.6,41 229,41.7C228.4,42.4 228.1,43.3 228.1,44.6L228.1,47C228.1,48.3 228.4,49.2 229,49.9C229.6,50.6 230.4,50.9 231.5,50.9C232.5,50.9 233.3,50.5 233.9,49.9Z" style="fill:rgb(255,21,89);fill-rule:nonzero;"/>
        <path d="M242.2,53.4C242.1,53.3 242,53.1 242,52.9L242,38.7C242,38.5 242.1,38.3 242.2,38.2C242.3,38.1 242.5,38 242.7,38L245.1,38C245.3,38 245.5,38.1 245.6,38.2C245.7,38.3 245.8,38.5 245.8,38.7L245.8,39.7C246.9,38.3 248.3,37.7 250.1,37.7C252.3,37.7 253.9,38.6 254.8,40.4C255.3,39.6 256,39 256.8,38.5C257.7,38 258.6,37.8 259.6,37.8C261.2,37.8 262.6,38.4 263.6,39.5C264.6,40.6 265.2,42.3 265.2,44.4L265.2,53C265.2,53.2 265.1,53.4 265,53.5C264.9,53.6 264.7,53.7 264.5,53.7L262,53.7C261.8,53.7 261.6,53.6 261.5,53.5C261.4,53.4 261.3,53.2 261.3,53L261.3,44.6C261.3,43.3 261,42.4 260.5,41.9C260,41.3 259.3,41.1 258.4,41.1C257.6,41.1 257,41.4 256.4,42C255.8,42.6 255.6,43.5 255.6,44.7L255.6,53.1C255.6,53.3 255.5,53.5 255.4,53.6C255.3,53.7 255.1,53.8 254.9,53.8L252.4,53.8C252.2,53.8 252,53.7 251.9,53.6C251.8,53.5 251.7,53.3 251.7,53.1L251.7,44.7C251.7,43.5 251.4,42.6 250.9,42C250.4,41.4 249.7,41.1 248.8,41.1C248,41.1 247.4,41.4 246.8,42C246.2,42.6 246,43.5 246,44.7L246,53.1C246,53.3 245.9,53.5 245.8,53.6C245.7,53.7 245.5,53.8 245.3,53.8L242.8,53.8C242.5,53.6 242.3,53.5 242.2,53.4Z" style="fill:rgb(255,21,89);fill-rule:nonzero;"/>
        <path d="M99.8,70.1L29.8,70.1C24.3,70.1 19.8,65.6 19.8,60.1L19.8,30.1C19.8,24.6 24.3,20.1 29.8,20.1L99.8,20.1C105.3,20.1 109.8,24.6 109.8,30.1L109.8,60.1C109.8,65.6 105.3,70.1 99.8,70.1Z" style="fill:rgb(255,21,89);fill-rule:nonzero;"/>
        <g>
            <path d="M39.3,54L29.6,47.3C29.3,47.1 29.1,46.9 29,46.7C28.9,46.5 28.8,46.3 28.8,46L28.8,45.3C28.8,45 28.9,44.8 29,44.6C29.1,44.4 29.3,44.2 29.6,44L39.3,37.4C39.5,37.2 39.7,37.1 39.9,37.1C40.1,37.1 40.2,37.2 40.3,37.3C40.4,37.4 40.5,37.6 40.5,37.7L40.5,40C40.5,40.2 40.4,40.4 40.3,40.6C40.2,40.7 40,40.9 39.8,41.1L32.8,45.8L39.8,50.5C40,50.7 40.2,50.8 40.3,51C40.4,51.1 40.5,51.3 40.5,51.6L40.5,53.8C40.5,54 40.4,54.1 40.3,54.2C40.2,54.3 40.1,54.4 39.9,54.4C39.7,54.2 39.5,54.1 39.3,54Z" style="fill:white;fill-rule:nonzero;"/>
            <path d="M59.4,56.5C59.2,56.4 59.1,56.2 59,56L57.9,54.6C57,54.9 56,55.1 54.9,55.1C52.3,55.1 50.3,54.4 48.8,53.1C47.3,51.8 46.6,49.8 46.5,47.2L46.5,42.3C46.6,39.8 47.4,37.8 48.9,36.4C50.4,35 52.4,34.4 54.9,34.4C57.4,34.4 59.5,35.1 61,36.4C62.5,37.8 63.3,39.7 63.4,42.3C63.4,43.4 63.5,44.2 63.5,44.8C63.5,45.3 63.5,46.1 63.4,47.2C63.3,49.7 62.6,51.6 61.3,52.9L63.3,55.8C63.4,55.9 63.4,56 63.4,56.1L63.4,56.2C63.4,56.4 63.3,56.5 63.2,56.6C63.1,56.7 63,56.8 62.8,56.8L60,56.8C59.7,56.7 59.5,56.6 59.4,56.5ZM57.9,50.6C58.7,49.8 59.1,48.7 59.1,47.1C59.1,46 59.2,45.2 59.2,44.8C59.2,44.4 59.2,43.6 59.1,42.5C59.1,40.9 58.7,39.8 57.9,39C57.1,38.2 56.1,37.8 54.9,37.8C53.7,37.8 52.6,38.2 51.9,39C51.2,39.8 50.7,40.9 50.7,42.5L50.7,47.1C50.8,48.7 51.2,49.9 51.9,50.6C52.6,51.4 53.7,51.7 54.9,51.7C56.1,51.7 57.1,51.4 57.9,50.6Z" style="fill:white;fill-rule:nonzero;"/>
            <path d="M68.5,53.1C67.1,51.8 66.3,49.8 66.3,47.1L66.3,35.4C66.3,35.2 66.4,35 66.5,34.9C66.6,34.8 66.8,34.7 67,34.7L69.6,34.7C69.8,34.7 70,34.8 70.1,34.9C70.2,35 70.3,35.2 70.3,35.4L70.3,47.1C70.3,48.6 70.7,49.8 71.4,50.5C72.1,51.3 73.1,51.6 74.5,51.6C75.8,51.6 76.8,51.2 77.6,50.5C78.3,49.7 78.7,48.6 78.7,47.1L78.7,35.4C78.7,35.2 78.8,35 78.9,34.9C79,34.8 79.2,34.7 79.4,34.7L82,34.7C82.2,34.7 82.4,34.8 82.5,34.9C82.6,35 82.7,35.2 82.7,35.4L82.7,47.1C82.7,49.8 82,51.8 80.6,53.1C79.2,54.4 77.2,55.1 74.6,55.1C71.9,55.1 69.9,54.4 68.5,53.1Z" style="fill:white;fill-rule:nonzero;"/>
            <path d="M89.3,54C89.2,53.9 89.1,53.8 89.1,53.6L89.1,51.4C89.1,51.2 89.2,51 89.3,50.8C89.4,50.7 89.6,50.5 89.8,50.3L96.8,45.6L89.8,40.9C89.6,40.7 89.4,40.6 89.3,40.4C89.2,40.3 89.1,40.1 89.1,39.8L89.1,37.6C89.1,37.4 89.2,37.3 89.3,37.2C89.4,37.1 89.5,37 89.7,37C89.9,37 90.1,37.1 90.3,37.3L100,43.9C100.3,44.1 100.5,44.3 100.6,44.5C100.7,44.7 100.8,44.9 100.8,45.2L100.8,46C100.8,46.3 100.7,46.5 100.6,46.7C100.5,46.9 100.3,47.1 100,47.3L90.3,54C90.1,54.2 89.9,54.2 89.7,54.2C89.6,54.2 89.4,54.2 89.3,54Z" style="fill:white;fill-rule:nonzero;"/>
        </g>
    </g>
</svg>
