<svg height="64" width="45" xmlns="http://www.w3.org/2000/svg"><path d="M15.448 15.333h14.104v14H15.448zm0 15.334h14.104v14H15.448zM30.896 0H45v14H30.896zM15.448 0h14.104v14H15.448zM0 0h14.104v14H0zm0 52.667v2.163h3.319V64h2.765v-9.17h3.319v-2.163zm14.645 4.084c-.09.759-.16 1.563-.225 2.394-.064.831-.128 1.668-.176 2.5-.06.836-.102 1.618-.14 2.355h2.04c.03-.99.062-1.98.097-2.97.042-1.062.1-2.14.185-3.228l.42 1.199c.15.449.3.903.45 1.347.155.443.294.875.434 1.28.144.41.257.754.358 1.042h1.344l.37-1.042.46-1.28c.156-.444.311-.898.477-1.347l.445-1.225a99.13 99.13 0 0 1 .176 3.253c.038 1.07.08 2.062.102 2.971h2.045c-.037-.737-.09-1.519-.139-2.356-.058-.83-.117-1.668-.182-2.5a69.188 69.188 0 0 0-.22-2.394 60.206 60.206 0 0 0-.278-2.083h-1.772c-.145.282-.295.637-.466 1.053-.182.415-.359.87-.552 1.352-.193.488-.385.992-.567 1.496-.188.51-.359.987-.525 1.43-.16-.443-.327-.92-.503-1.43-.182-.504-.365-1.008-.547-1.496-.182-.482-.364-.937-.53-1.352-.166-.416-.31-.77-.439-1.053h-1.869c-.101.62-.187 1.319-.273 2.084zm10.877-2.084h2.015V64h-2.015zm-15.447 0h2.015V64h-2.015zm25.522 0v1.773h-4.028v1.724h3.225v1.773H31.57V64h-2.017v-9.333zM39.7 60.18l-1.838-2.954-1.593-2.56h2.162s.23.182 1.19 1.808c.851 1.44 1.027 1.943 1.027 1.943s.164-.522.988-1.934c.828-1.418 1.201-1.816 1.201-1.816H45l-3.404 5.513V64H39.7z"/></svg>