<svg height="64" viewBox="0 0 45 64" width="45" xmlns="http://www.w3.org/2000/svg"><path d="m105.447761 23.3333333h14.104478v14h-14.104478zm0 15.3333334h14.104478v14h-14.104478zm15.447761-30.6666667h14.104478v14h-14.104478zm-15.447761 0h14.104478v14h-14.104478zm-15.447761 0h14.104478v14h-14.104478zm0 52.6666667v2.1631154h3.3189915v9.1702179h2.7647939v-9.1702179h3.3191997v-2.1631154zm14.6452 4.0838786c-.091083.7593813-.160603 1.5629864-.224894 2.3943215-.064142.8313867-.128483 1.6682884-.176589 2.4996235-.058963.8369533-.10189 1.6182403-.139239 2.3555097h2.040134c.029366-.9903539.06152-1.9806171.096462-2.970777.042329-1.0611649.100595-2.1386172.185254-3.2272544l.419809 1.1988358c.149797.4488354.299793.903289.449689 1.346764.155375.4434749.294614.8755589.433853 1.2801705.144618.4102298.257065.7538146.358756 1.0420424h1.343938l.369561-1.0420424.460446-1.2801705c.155424-.443475.310649-.8979286.476631-1.3468155l.444709-1.2247619c.074849 1.0972448.138941 2.1837172.176539 3.253232.037549 1.0697209.080327 2.0617152.101691 2.970777h2.045513c-.03735-.7372694-.090884-1.5185564-.13904-2.3555097-.058913-.8313351-.117876-1.6682368-.182167-2.4996235-.058962-.8313351-.139239-1.6349402-.219566-2.394373-.091083-.7647417-.181967-1.4631478-.278428-2.0838271h-1.772463c-.144618.2826096-.294663.6374308-.465824 1.053021-.182216.4157449-.359004.8701985-.551778 1.3523306-.192724.4876987-.385498.9922004-.567465 1.4964445-.187395.5098621-.358755.9866338-.524787 1.4299026-.160603-.4432688-.326585-.9200405-.503373-1.4299026-.181967-.5042441-.364183-1.0086942-.54615-1.4964445-.182167-.4821321-.364134-.9365857-.530165-1.3523821-.165982-.4155387-.3106-.7703599-.439033-1.0529695h-1.868973c-.101641.6206793-.187346 1.3190854-.273051 2.0838786zm10.877188-2.0838786h2.014925v9.3333333h-2.014925zm-15.447761 0h2.014925v9.3333333h-2.014925zm25.522388 0v1.7735266h-4.028182v1.7237351h3.225649v1.7735266h-3.225649v4.062545h-2.016594v-9.3333333zm4.102955 5.5131193-1.838395-2.9536738-1.592918-2.5594455h2.162797s.228915.1815593 1.189885 1.8074551c.851034 1.4402161 1.026529 1.943277 1.026529 1.943277s.163995-.5227878.988196-1.9344694c.82769-1.4181714 1.201188-1.8162627 1.201188-1.8162627h2.162748l-3.404087 5.5131193v3.820214h-1.895943z" transform="translate(-90 -8)"/></svg>