<?xml version="1.0" encoding="UTF-8" standalone="no"?><!DOCTYPE svg PUBLIC "-//W3C//DTD SVG 1.1//EN" "http://www.w3.org/Graphics/SVG/1.1/DTD/svg11.dtd"><svg width="100%" height="100%" viewBox="0 0 219 313" version="1.1" xmlns="http://www.w3.org/2000/svg" xmlns:xlink="http://www.w3.org/1999/xlink" xml:space="preserve" xmlns:serif="http://www.serif.com/" style="fill-rule:evenodd;clip-rule:evenodd;stroke-linejoin:round;stroke-miterlimit:1.41421;"><rect x="75.382" y="75.492" width="67.412" height="67.199" style="fill:#fff;"/><rect x="75.382" y="150.701" width="67.518" height="67.517" style="fill:#fff;"/><rect x="150.843" y="0" width="67.517" height="67.518" style="fill:#fff;"/><rect x="75.382" y="0" width="67.518" height="67.518" style="fill:#fff;"/><rect x="0" y="0" width="67.49" height="67.518" style="fill:#fff;"/><path d="M0,258.05l0,10.373l15.303,0l0,43.974l12.748,0l0,-43.974l15.304,0l0,-10.373l-43.355,0Z" style="fill:#fff;"/><path d="M71.462,268.939c-0.49,2.89 -0.903,6.142 -1.316,9.703c-0.439,3.536 -0.774,7.278 -1.084,11.149c-0.309,3.871 -0.619,7.768 -0.851,11.639c-0.284,3.897 -0.491,7.535 -0.671,10.968l9.832,0c0.129,-4.233 0.284,-8.852 0.465,-13.833c0.204,-4.941 0.485,-9.958 0.893,-15.027l2.023,5.582c0.722,2.09 1.445,4.206 2.167,6.271c0.749,2.065 1.42,4.077 2.091,5.961c0.697,1.91 1.239,3.51 1.729,4.852l6.477,0l1.781,-4.852l2.219,-5.961c0.749,-2.065 1.497,-4.181 2.297,-6.271l2.143,-5.703c0.361,5.109 0.67,10.168 0.851,15.148c0.181,4.981 0.387,9.6 0.49,13.833l9.858,0c-0.18,-3.433 -0.438,-7.071 -0.67,-10.968c-0.284,-3.871 -0.568,-7.768 -0.878,-11.639c-0.284,-3.871 -0.671,-7.613 -1.058,-11.149c-0.439,-3.561 -0.877,-6.813 -1.342,-9.703l-8.542,0c-0.697,1.316 -1.42,2.968 -2.245,4.903c-0.878,1.936 -1.73,4.052 -2.659,6.297c-0.929,2.271 -1.858,4.62 -2.735,6.968c-0.903,2.374 -1.729,4.594 -2.529,6.658c-0.774,-2.064 -1.574,-4.284 -2.426,-6.658c-0.877,-2.348 -1.755,-4.697 -2.632,-6.968c-0.878,-2.245 -1.755,-4.361 -2.555,-6.297c-0.8,-1.935 -1.497,-3.587 -2.116,-4.903l-9.007,0Z" style="fill:#fff;"/><rect x="122.631" y="268.939" width="9.858" height="43.458" style="fill:#fff;"/><rect x="47.907" y="268.939" width="9.858" height="43.458" style="fill:#fff;"/><path d="M171.855,277.197l0,-8.258l-29.549,0l0,43.458l9.858,0l0,-18.916l15.768,0l0,-8.258l-15.768,0l0,-8.026l19.691,0Z" style="fill:#fff;"/><path d="M192.477,312.429l0,-17.801l-8.978,-13.763l-7.779,-11.926l10.562,0c0,0 1.118,0.846 5.811,8.422c4.156,6.711 5.013,9.055 5.013,9.055c0,0 0.801,-2.436 4.826,-9.014c4.042,-6.608 5.866,-8.463 5.866,-8.463l10.562,0l-16.624,25.689l0,17.801l-9.259,0Z" style="fill:#fff;fill-rule:nonzero;"/></svg>