<?xml version="1.0" encoding="UTF-8" standalone="no"?><!DOCTYPE svg PUBLIC "-//W3C//DTD SVG 1.1//EN" "http://www.w3.org/Graphics/SVG/1.1/DTD/svg11.dtd"><svg width="100%" height="100%" viewBox="0 0 463 161" version="1.1" xmlns="http://www.w3.org/2000/svg" xmlns:xlink="http://www.w3.org/1999/xlink" xml:space="preserve" xmlns:serif="http://www.serif.com/" style="fill-rule:evenodd;clip-rule:evenodd;stroke-linejoin:round;stroke-miterlimit:1.41421;"><path d="M31.431,31.602c-1.552,6.606 -4.526,11.268 -10.476,15.283l20.436,0l0,-15.283l-9.96,0Zm-31.431,0l0,15.283l6.468,0c11.511,0 18.497,-6.088 21.213,-15.283l-27.681,0Zm28.327,-3.755c0.259,-1.036 0.259,-2.203 0.259,-3.497l0,-11.786l-15.522,0l0,8.807c0,2.59 -0.516,4.922 -1.68,6.476l16.943,0Zm-16.815,22.794l0,25.903c0,12.304 7.762,19.686 20.179,19.686c6.337,0 9.7,-1.553 9.7,-1.553l0,-14.247c-0.905,0.259 -3.233,0.518 -5.303,0.518c-4.915,0 -7.502,-1.813 -7.502,-7.383l0,-22.924l-17.074,0Zm79.676,-19.298c-1.293,-0.129 -2.586,-0.259 -4.009,-0.259c-5.433,0 -14.228,1.554 -18.108,9.974l0,-9.456l-16.685,0l0,63.722l17.201,0l0,-29.141c0,-13.728 7.632,-18.003 16.428,-18.003c1.551,0 3.233,0.13 5.173,0.519l0,-17.356Zm6.468,46.627c0,9.972 8.277,19.168 21.859,19.168c9.441,0 15.52,-4.404 18.754,-9.455c0,2.461 0.259,5.958 0.646,7.641l15.78,0c-0.389,-2.201 -0.776,-6.735 -0.776,-10.103l0,-31.342c0,-12.821 -7.501,-24.22 -27.679,-24.22c-17.073,0 -26.256,11.009 -27.291,20.982l15.262,3.238c0.517,-5.569 4.656,-10.361 12.158,-10.361c7.244,0 10.736,3.755 10.736,8.288c0,2.203 -1.164,4.017 -4.785,4.534l-15.651,2.331c-10.607,1.555 -19.013,7.9 -19.013,19.299Zm25.48,6.345c-5.562,0 -8.279,-3.626 -8.279,-7.382c0,-4.921 3.492,-7.383 7.89,-8.03l14.358,-2.202l0,2.849c0,11.268 -6.726,14.765 -13.969,14.765Zm293.995,-28.104c0.388,-5.829 5.303,-12.564 14.228,-12.564c9.829,0 13.969,6.217 14.227,12.564l-28.455,0Zm30.137,16.578c-2.069,5.699 -6.467,9.713 -14.486,9.713c-8.537,0 -15.651,-6.087 -16.038,-14.505l45.528,0c0,-0.259 0.259,-2.85 0.259,-5.311c0,-20.463 -11.771,-33.027 -31.432,-33.027c-16.296,0 -31.299,13.211 -31.299,33.546c0,21.499 15.392,34.062 32.853,34.062c15.65,0 25.738,-9.196 28.972,-20.205l-14.357,-4.273Zm-263.212,-41.187l-17.204,0l0,63.722l17.204,0l0,-63.722Zm-19.272,-20.852c0,5.7 4.786,10.491 10.605,10.491c5.952,0 10.607,-4.791 10.607,-10.491c0,-5.957 -4.655,-10.75 -10.607,-10.75c-5.819,0 -10.605,4.793 -10.605,10.75Zm155.34,20.852l-17.202,0l0,63.722l17.202,0l0,-63.722Zm-19.271,-20.852c0,5.7 4.785,10.491 10.605,10.491c5.951,0 10.607,-4.791 10.607,-10.491c0,-5.957 -4.656,-10.75 -10.607,-10.75c-5.82,0 -10.605,4.793 -10.605,10.75Zm-86.79,47.921c0,-7.382 4.399,-13.21 11.9,-13.21c8.278,0 11.771,5.568 11.771,12.692l0,37.171l17.201,0l0,-40.15c0,-13.987 -7.242,-25.255 -23.023,-25.255c-6.854,0 -14.486,2.978 -18.367,9.584l0,-7.901l-16.685,0l0,63.722l17.203,0l0,-36.653Zm135.939,0c0,-7.382 4.398,-13.21 11.9,-13.21c8.278,0 11.77,5.568 11.77,12.692l0,37.171l17.203,0l0,-40.15c0,-13.987 -7.244,-25.255 -23.022,-25.255c-6.857,0 -14.487,2.978 -18.367,9.584l0,-7.901l-16.686,0l0,63.722l17.202,0l0,-36.653Zm-56.652,22.147c-1.164,0.13 -2.069,0.13 -2.974,0.13c-4.269,0 -7.374,-1.554 -7.374,-7.124l0,-72.269l-16.942,0l0,75.119c0,12.303 7.761,19.556 20.177,19.556c2.716,0 4.656,-0.259 7.113,-0.776l0,-14.636Z" style="fill:#fff;fill-rule:nonzero;"/><path d="M45.458,124.524l5.596,0l-7.779,28.139l-5.636,0l-6.429,-20.042l-6.43,20.042l-5.715,0l-7.819,-28.139l5.795,0l5.16,19.368l6.23,-19.368l5.676,0l6.271,19.447l5.08,-19.447Z" style="fill:#fff;fill-rule:nonzero;"/><path d="M66.567,142.9c0,-3.692 -2.381,-5.557 -4.961,-5.557c-2.579,0 -4.961,1.865 -4.961,5.557c0,3.651 2.382,5.556 4.961,5.556c2.58,0 4.961,-1.866 4.961,-5.556Zm5.279,0c0,5.992 -4.406,10.358 -10.24,10.358c-5.834,0 -10.239,-4.366 -10.239,-10.358c0,-6.033 4.405,-10.36 10.239,-10.36c5.834,0 10.24,4.327 10.24,10.36Z" style="fill:#fff;fill-rule:nonzero;"/><path d="M81.289,152.663l-5.278,0l0,-19.527l5.119,0l0,2.421c1.191,-2.024 3.532,-2.936 5.636,-2.936c4.842,0 7.064,3.452 7.064,7.739l0,12.303l-5.278,0l0,-11.391c0,-2.183 -1.072,-3.889 -3.612,-3.889c-2.301,0 -3.651,1.785 -3.651,4.048l0,11.232Z" style="fill:#fff;fill-rule:nonzero;"/><path d="M107.878,148.416c2.699,0 4.802,-2.064 4.802,-5.596c0,-3.492 -2.103,-5.437 -4.802,-5.437c-2.699,0 -4.843,1.985 -4.843,5.477c0,3.492 2.064,5.556 4.843,5.556Zm9.922,0.714c0,1.31 0.079,2.739 0.158,3.533l-5.04,0c-0.079,-0.397 -0.198,-1.35 -0.198,-2.262c-0.873,1.548 -2.858,2.738 -5.477,2.738c-5.557,0 -9.525,-4.366 -9.525,-10.279c0,-5.715 3.849,-10.2 9.366,-10.2c3.373,0 4.961,1.389 5.516,2.421l0,-11.153l5.2,0l0,25.202Z" style="fill:#fff;fill-rule:nonzero;"/><path d="M136.093,140.677c-0.079,-1.945 -1.349,-3.849 -4.366,-3.849c-2.738,0 -4.246,2.063 -4.365,3.849l8.731,0Zm4.922,6.39c-0.993,3.373 -4.088,6.191 -8.891,6.191c-5.358,0 -10.08,-3.849 -10.08,-10.438c0,-6.231 4.603,-10.28 9.604,-10.28c6.033,0 9.644,3.851 9.644,10.122c0,0.753 -0.079,1.547 -0.079,1.627l-13.97,0c0.119,2.58 2.302,4.445 4.921,4.445c2.461,0 3.81,-1.231 4.445,-2.977l4.406,1.31Z" style="fill:#fff;fill-rule:nonzero;"/><path d="M157.363,138.375c-0.595,-0.119 -1.111,-0.159 -1.587,-0.159c-2.699,0 -5.041,1.31 -5.041,5.517l0,8.93l-5.278,0l0,-19.527l5.12,0l0,2.898c1.19,-2.58 3.889,-3.057 5.556,-3.057c0.437,0 0.834,0.04 1.23,0.08l0,5.318Z" style="fill:#fff;fill-rule:nonzero;"/><path d="M168.156,130.993l0,2.143l4.405,0l0,4.525l-4.405,0l0,15.002l-5.318,0l0,-15.002l-3.255,0l0,-4.525l3.255,0l0,-2.222c0,-4.406 2.778,-7.263 7.104,-7.263c1.111,0 2.183,0.198 2.619,0.396l0,4.446c-0.277,-0.079 -0.794,-0.199 -1.668,-0.199c-1.189,0 -2.737,0.516 -2.737,2.699Z" style="fill:#fff;fill-rule:nonzero;"/><path d="M188.514,150.559c-1.072,1.826 -3.334,2.62 -5.398,2.62c-4.723,0 -7.421,-3.453 -7.421,-7.7l0,-12.343l5.278,0l0,11.272c0,2.182 1.111,3.928 3.572,3.928c2.342,0 3.691,-1.587 3.691,-3.849l0,-11.351l5.279,0l0,15.994c0,1.509 0.119,2.858 0.198,3.533l-5.04,0c-0.08,-0.397 -0.159,-1.31 -0.159,-2.104Z" style="fill:#fff;fill-rule:nonzero;"/><rect x="199.148" y="123.928" width="5.278" height="28.735" style="fill:#fff;fill-rule:nonzero;"/><rect x="210.06" y="123.928" width="5.279" height="28.735" style="fill:#fff;fill-rule:nonzero;"/><path d="M222.124,160.363l4.604,-10.16l-8.295,-17.067l5.914,0l5.199,11.431l4.802,-11.431l5.636,0l-12.263,27.227l-5.597,0Z" style="fill:#fff;fill-rule:nonzero;"/><path d="M263.237,137.343c2.738,0 4.405,-1.588 4.405,-4.009c0,-2.5 -1.667,-4.047 -4.405,-4.047l-4.327,0l0,8.056l4.327,0Zm-4.367,4.723l0,10.597l-5.476,0l0,-28.139l10.517,0c5.556,0 9.248,3.691 9.248,8.771c0,5.12 -3.692,8.771 -9.248,8.771l-5.041,0Z" style="fill:#fff;fill-rule:nonzero;"/><path d="M288.475,138.375c-0.596,-0.119 -1.111,-0.159 -1.588,-0.159c-2.699,0 -5.04,1.31 -5.04,5.517l0,8.93l-5.279,0l0,-19.527l5.12,0l0,2.898c1.19,-2.58 3.889,-3.057 5.556,-3.057c0.437,0 0.833,0.04 1.231,0.08l0,5.318Z" style="fill:#fff;fill-rule:nonzero;"/><path d="M304.587,140.677c-0.08,-1.945 -1.349,-3.849 -4.366,-3.849c-2.738,0 -4.246,2.063 -4.365,3.849l8.731,0Zm4.921,6.39c-0.992,3.373 -4.088,6.191 -8.89,6.191c-5.358,0 -10.081,-3.849 -10.081,-10.438c0,-6.231 4.604,-10.28 9.605,-10.28c6.032,0 9.643,3.851 9.643,10.122c0,0.753 -0.079,1.547 -0.079,1.627l-13.969,0c0.119,2.58 2.301,4.445 4.921,4.445c2.461,0 3.81,-1.231 4.445,-2.977l4.405,1.31Z" style="fill:#fff;fill-rule:nonzero;"/><path d="M322.642,148.416c2.698,0 4.802,-2.064 4.802,-5.596c0,-3.492 -2.104,-5.437 -4.802,-5.437c-2.699,0 -4.842,1.985 -4.842,5.477c0,3.492 2.064,5.556 4.842,5.556Zm9.922,0.714c0,1.31 0.079,2.739 0.159,3.533l-5.041,0c-0.079,-0.397 -0.198,-1.35 -0.198,-2.262c-0.873,1.548 -2.858,2.738 -5.477,2.738c-5.556,0 -9.525,-4.366 -9.525,-10.279c0,-5.715 3.849,-10.2 9.366,-10.2c3.373,0 4.961,1.389 5.517,2.421l0,-11.153l5.199,0l0,25.202Z" style="fill:#fff;fill-rule:nonzero;"/><path d="M338.276,152.663l0,-19.527l5.279,0l0,19.527l-5.279,0Zm2.62,-29.21c1.825,0 3.254,1.467 3.254,3.294c0,1.746 -1.429,3.214 -3.254,3.214c-1.786,0 -3.255,-1.468 -3.255,-3.214c0,-1.827 1.469,-3.294 3.255,-3.294Z" style="fill:#fff;fill-rule:nonzero;"/><path d="M352.999,142.9c0,3.532 2.302,5.516 5.001,5.516c2.699,0 4.048,-1.786 4.485,-3.293l4.643,1.547c-0.873,3.254 -3.928,6.588 -9.128,6.588c-5.755,0 -10.279,-4.366 -10.279,-10.358c0,-6.033 4.445,-10.36 10.12,-10.36c5.319,0 8.335,3.295 9.168,6.589l-4.723,1.587c-0.476,-1.627 -1.707,-3.294 -4.326,-3.294c-2.698,0 -4.961,1.946 -4.961,5.478Z" style="fill:#fff;fill-rule:nonzero;"/><path d="M377.524,133.136l3.928,0l0,4.684l-3.928,0l0,8.176c0,1.706 0.793,2.261 2.302,2.261c0.634,0 1.348,-0.079 1.626,-0.158l0,4.365c-0.476,0.199 -1.428,0.477 -2.976,0.477c-3.811,0 -6.191,-2.263 -6.191,-6.033l0,-9.088l-3.533,0l0,-4.684l0.992,0c2.064,0 3.017,-1.349 3.017,-3.096l0,-2.738l4.763,0l0,5.834Z" style="fill:#fff;fill-rule:nonzero;"/><path d="M396.968,144.765l0,-0.873l-4.405,0.675c-1.35,0.198 -2.422,0.952 -2.422,2.46c0,1.151 0.834,2.263 2.54,2.263c2.223,0 4.287,-1.073 4.287,-4.525Zm-6.271,-3.334l4.802,-0.715c1.112,-0.158 1.469,-0.714 1.469,-1.388c0,-1.389 -1.072,-2.54 -3.295,-2.54c-2.302,0 -3.571,1.468 -3.73,3.174l-4.683,-0.992c0.317,-3.055 3.135,-6.43 8.374,-6.43c6.192,0 8.493,3.494 8.493,7.422l0,9.605c0,1.032 0.119,2.421 0.239,3.096l-4.842,0c-0.119,-0.516 -0.199,-1.587 -0.199,-2.342c-0.993,1.548 -2.858,2.897 -5.754,2.897c-4.168,0 -6.708,-2.817 -6.708,-5.874c0,-3.492 2.58,-5.436 5.834,-5.913Z" style="fill:#fff;fill-rule:nonzero;"/><path d="M417.445,137.343c-2.66,0 -4.882,1.945 -4.882,5.517c0,3.532 2.222,5.556 4.882,5.556c2.698,0 4.841,-1.984 4.841,-5.556c0,-3.572 -2.143,-5.517 -4.841,-5.517Zm-10.002,15.32l0,-28.735l5.199,0l0,11.352c0.874,-1.39 3.017,-2.659 5.914,-2.659c5.715,0 9.009,4.405 9.009,10.199c0,5.914 -3.652,10.319 -9.207,10.319c-2.699,0 -4.763,-1.19 -5.795,-2.857l0,2.381l-5.12,0Z" style="fill:#fff;fill-rule:nonzero;"/><rect x="431.729" y="123.928" width="5.279" height="28.735" style="fill:#fff;fill-rule:nonzero;"/><path d="M455.224,140.677c-0.08,-1.945 -1.35,-3.849 -4.366,-3.849c-2.738,0 -4.246,2.063 -4.365,3.849l8.731,0Zm4.921,6.39c-0.992,3.373 -4.088,6.191 -8.891,6.191c-5.357,0 -10.08,-3.849 -10.08,-10.438c0,-6.231 4.604,-10.28 9.605,-10.28c6.032,0 9.643,3.851 9.643,10.122c0,0.753 -0.079,1.547 -0.079,1.627l-13.97,0c0.12,2.58 2.302,4.445 4.921,4.445c2.461,0 3.811,-1.231 4.446,-2.977l4.405,1.31Z" style="fill:#fff;fill-rule:nonzero;"/></svg>