<?xml version="1.0" encoding="UTF-8" standalone="no"?><!DOCTYPE svg PUBLIC "-//W3C//DTD SVG 1.1//EN" "http://www.w3.org/Graphics/SVG/1.1/DTD/svg11.dtd"><svg width="100%" height="100%" viewBox="0 0 463 98" version="1.1" xmlns="http://www.w3.org/2000/svg" xmlns:xlink="http://www.w3.org/1999/xlink" xml:space="preserve" xmlns:serif="http://www.serif.com/" style="fill-rule:evenodd;clip-rule:evenodd;stroke-linejoin:round;stroke-miterlimit:1.41421;"><path d="M31.5,31.6c-1.6,6.6 -4.5,11.3 -10.5,15.3l20.4,0l0,-15.3l-9.9,0Zm-31.5,0l0,15.3l6.5,0c11.5,0 18.5,-6.1 21.2,-15.3l-27.7,0Zm28.4,-3.799c0.3,-1 0.3,-2.201 0.3,-3.5l0,-11.701l-15.6,0l0,8.8c0,2.6 -0.5,4.901 -1.7,6.5l17,0l0,-0.099Zm-16.9,22.799l0,25.9c0,12.3 7.8,19.7 20.2,19.7c6.3,0 9.7,-1.6 9.7,-1.6l0,-14.2c-0.9,0.3 -3.2,0.5 -5.3,0.5c-4.9,0 -7.5,-1.8 -7.5,-7.4l0,-22.9l-17.1,0Zm79.7,-19.3c-1.3,-0.1 -2.6,-0.3 -4,-0.3c-5.4,0 -14.2,1.6 -18.1,10l0,-9.5l-16.7,0l0,63.7l17.2,0l0,-29.1c0,-13.7 7.6,-18 16.4,-18c1.6,0 3.2,0.1 5.2,0.5l0,-17.3Zm6.5,46.7c0,10 8.3,19.2 21.9,19.2c9.4,0 15.5,-4.4 18.8,-9.5c0,2.5 0.3,6 0.6,7.6l15.8,0c-0.4,-2.2 -0.8,-6.7 -0.8,-10.1l0,-31.3c0,-12.8 -7.5,-24.2 -27.7,-24.2c-17.1,0 -26.3,11 -27.3,21l15.3,3.2c0.5,-5.6 4.7,-10.4 12.2,-10.4c7.2,0 10.7,3.8 10.7,8.3c0,2.2 -1.2,4 -4.8,4.5l-15.7,2.3c-10.6,1.6 -19,8 -19,19.4Zm25.5,6.3c-5.6,0 -8.3,-3.6 -8.3,-7.4c0,-4.9 3.5,-7.4 7.9,-8l14.4,-2.2l0,2.8c-0.1,11.3 -6.8,14.8 -14,14.8Zm294,-28.1c0.4,-5.8 5.3,-12.6 14.201,-12.6c9.799,0 14,6.2 14.199,12.6l-28.4,0Zm30.1,16.6c-2.1,5.7 -6.5,9.7 -14.5,9.7c-8.5,0 -15.7,-6.1 -16,-14.5l45.5,0c0,-0.3 0.3,-2.8 0.3,-5.3c0,-20.5 -11.8,-33 -31.4,-33c-16.3,0 -31.3,13.2 -31.3,33.5c0,21.5 15.4,34.1 32.9,34.1c15.7,0 25.7,-9.2 29,-20.2l-14.5,-4.3Zm-263.2,-41.2l-17.2,0l0,63.7l17.2,0l0,-63.7Zm-19.3,-20.899c0,5.699 4.8,10.5 10.6,10.5c6,0 10.6,-4.801 10.6,-10.5c0,-6 -4.7,-10.701 -10.6,-10.701c-5.8,0 -10.6,4.801 -10.6,10.701Zm155.4,20.899l-17.2,0l0,63.7l17.2,0l0,-63.7Zm-19.3,-20.899c0,5.699 4.8,10.5 10.6,10.5c6,0 10.6,-4.801 10.6,-10.5c0,-6 -4.7,-10.701 -10.6,-10.701c-5.8,0 -10.6,4.801 -10.6,10.701Zm-86.8,47.999c0,-7.4 4.4,-13.2 11.9,-13.2c8.3,0 11.8,5.6 11.8,12.7l0,37.2l17.2,0l0,-40.2c0,-14 -7.2,-25.3 -23,-25.3c-6.9,0 -14.5,3 -18.4,9.6l0,-7.9l-16.7,0l0,63.7l17.2,0l0,-36.6Zm135.9,0c0,-7.4 4.4,-13.2 11.9,-13.2c8.3,0 11.8,5.6 11.8,12.7l0,37.2l17.2,0l0,-40.2c0,-14 -7.2,-25.3 -23,-25.3c-6.9,0 -14.5,3 -18.4,9.6l0,-7.9l-16.7,0l0,63.7l17.2,0l0,-36.6Zm-56.6,22.1c-1.2,0.1 -2.1,0.1 -3,0.1c-4.3,0 -7.4,-1.6 -7.4,-7.1l0,-72.2l-16.9,0l0,75.1c0,12.3 7.8,19.6 20.2,19.6c2.7,0 4.7,-0.3 7.1,-0.8l0,-14.7Z" style="fill:#fff;fill-rule:nonzero;"/></svg>