<svg height="48" viewBox="0 0 88 48" width="88" xmlns="http://www.w3.org/2000/svg"><path d="m150.687452 16h5.32681l-11.986566 35.8474013h-5.820357l-7.596103-23.4787337h5.294542l5.228157 16.5072408h.066101zm-29.305345 12.3686676h5.293973l8.779649 23.4787337h-5.359505l-1.775745-5.2285841h-8.780076l-1.841419 5.2285841h-5.195463zm-20.888465.0001422v8.5495069h.065958c.569881-.8765007 1.342328-1.5177422 2.318192-1.9238665.975295-.4049871 1.98954-.6081204 3.041597-.6081204.85532 0 1.698984.1756982 2.532271.5265259.833003.3506856 1.5837.8873042 2.252661 1.6107087.66825.7235467 1.211123 1.649658 1.627767 2.7789025.416074 1.1291024.624467 2.4718571.624467 4.0281221 0 1.5566915-.208393 2.8995884-.624467 4.0284065-.416644 1.1293866-.959517 2.0547872-1.627767 2.778476-.668961.7235467-1.419658 1.260876-2.252661 1.6114194-.833287.3502592-1.676951.525673-2.532271.525673-1.249362 0-2.367377-.1970207-3.353902-.5913466-.986525-.3948944-1.732105-1.0632866-2.236029-2.0063138h-.065958v2.17064h-4.4389376v-23.4787337zm23.453573 5.7873782-3.058655 8.6157491h6.083762l-2.959434-8.6157491zm-19.638819 14.6329849c.701087 0 1.298972-.1479788 1.792093-.4439364.492978-.2958155.90422-.695543 1.233014-1.2001777.329079-.503924.569882-1.0850357.723689-1.7426245.152812-.6580152.23-1.3369266.23-2.0390085 0-.7234045-.077188-1.41383-.23-2.0711345-.153807-.6580152-.39461-1.2388427-.723689-1.7433352-.328794-.5042083-.740036-.904078-1.233014-1.2001777-.493121-.2962419-1.091006-.4439364-1.792093-.4439364-.679907 0-1.271538.1476945-1.775746.4439364-.504634.2960997-.920567.6959694-1.249504 1.2001777-.329078.5044925-.57045 1.08532-.723546 1.7433352-.153807.6573045-.230142 1.34773-.230142 2.0711345 0 .7020819.076335 1.3809933.230142 2.0390085.153096.6575888.394468 1.2387005.723546 1.7426245.328937.5046347.74487.9043622 1.249504 1.2001777.504208.2959576 1.095839.4439364 1.775746.4439364zm-16.1254245-15.4614387h5.6115379l-6.0762282 8.6497231 6.8269257 9.8290046h-5.7902213l-3.8602422-5.8261853-11.2118459 18.0197234h-5.6828975l13.999846-21.9156455-6.0760861-8.7566203h5.7897948l3.2528326 4.8251606z" fill-rule="evenodd" transform="translate(-68 -16)"/></svg>