<svg height="48" width="88" xmlns="http://www.w3.org/2000/svg"><path d="M82.687 0h5.327L76.028 35.847h-5.82L62.61 12.37h5.295l5.228 16.507h.066zM53.382 12.369h5.294l8.78 23.478h-5.36L60.32 30.62h-8.78L49.7 35.847h-5.195zm-20.888 0v8.55h.066a4.986 4.986 0 0 1 2.318-1.925 7.858 7.858 0 0 1 3.041-.608c.856 0 1.7.176 2.533.527.833.35 1.583.887 2.252 1.61.669.724 1.211 1.65 1.628 2.78.416 1.129.625 2.471.625 4.028 0 1.556-.209 2.9-.625 4.028-.417 1.13-.96 2.055-1.628 2.778-.669.724-1.42 1.261-2.252 1.612a6.481 6.481 0 0 1-2.533.526c-1.249 0-2.367-.197-3.354-.592a4.256 4.256 0 0 1-2.236-2.006h-.065v2.17h-4.44V12.37zm23.453 5.787l-3.058 8.616h6.083l-2.96-8.616zM36.308 32.79c.701 0 1.3-.148 1.792-.444a3.785 3.785 0 0 0 1.234-1.2c.329-.504.57-1.085.723-1.743a8.98 8.98 0 0 0 .23-2.039 9.12 9.12 0 0 0-.23-2.07 5.417 5.417 0 0 0-.723-1.744 3.792 3.792 0 0 0-1.234-1.2c-.493-.296-1.09-.444-1.792-.444-.68 0-1.271.148-1.775.444-.505.296-.92.696-1.25 1.2a5.401 5.401 0 0 0-.723 1.743 9.065 9.065 0 0 0-.23 2.071c0 .703.076 1.381.23 2.04.153.657.394 1.238.723 1.742.33.505.745.904 1.25 1.2.504.296 1.095.444 1.775.444zM20.183 17.328h5.612l-6.077 8.65 6.827 9.828h-5.79l-3.86-5.826L5.683 48H0l14-21.916-6.076-8.756h5.79l3.252 4.825z" fill-rule="evenodd"/></svg>