<svg width="1118" height="479" viewBox="0 0 1118 479" fill="none" xmlns="http://www.w3.org/2000/svg">
<path d="M1116 339.239L1113.24 379.355L1090.19 374.24C1088.27 373.754 1085.86 374.707 1085.85 377.11C1085.84 380.474 1090.79 413.885 1090.71 439.833C1090.63 466.983 1074.26 477.985 1043.51 477.893C1032.45 477.86 1019.25 474.456 1009.65 470.103L1022.23 443.231C1027.98 446.852 1034.7 448.795 1041.91 448.816C1053.68 448.852 1056.35 440.691 1056.38 430.119C1056.39 426.275 1055.69 420.987 1055.23 415.46C1054.76 409.452 1054.3 402.963 1054.33 394.554C1053.68 368.844 1062.83 362.625 1079.9 359.553L1079.9 359.073C1062.85 355.898 1053.74 349.624 1054.54 323.918C1054.57 315.509 1055.07 308.783 1055.56 303.018C1056.06 297.494 1056.8 292.21 1056.81 288.366C1056.84 277.554 1054.22 269.377 1042.45 269.342C1035.24 269.32 1028.51 271.462 1022.73 275.049L1010.32 248.102C1019.94 243.807 1033.17 240.483 1044.22 240.516C1075.21 240.609 1091.28 251.71 1091.2 278.859C1091.12 304.807 1085.98 335.305 1085.96 341.552C1085.95 343.954 1088.84 344.684 1090.52 344.448L1116 339.239Z" fill="white"/>
<path d="M998.453 338.886L995.689 379.001L972.639 373.886C970.719 373.4 968.313 374.354 968.306 376.756C968.296 380.12 973.241 413.531 973.163 439.48C973.081 466.629 956.71 477.632 925.957 477.539C914.905 477.506 901.701 474.103 892.103 469.749L904.678 442.877C910.433 446.499 917.155 448.441 924.362 448.463C936.135 448.498 938.803 440.337 938.834 429.766C938.846 425.922 938.141 420.634 937.677 415.106C937.215 409.098 936.754 402.61 936.779 394.201C936.136 368.491 945.284 362.271 962.352 359.199L962.354 358.719C945.305 355.544 936.193 349.27 936.991 323.564C937.017 315.155 937.518 308.429 938.015 302.665C938.513 297.14 939.249 291.857 939.261 288.012C939.293 277.201 936.675 269.024 924.902 268.988C917.695 268.967 910.961 271.109 905.184 274.695L892.771 247.749C902.395 243.453 915.619 240.129 926.671 240.162C957.664 240.256 973.729 251.356 973.647 278.505C973.569 304.453 968.432 334.951 968.413 341.198C968.406 343.601 971.287 344.33 972.969 344.095L998.453 338.886Z" fill="white"/>
<path d="M880.234 340.692L804.799 338.303C804.309 341.425 803.08 350.792 803.052 359.922C802.992 379.863 808.728 390.212 833.474 390.286C850.293 390.337 870.504 380.547 879.895 373.607L896.371 407.534C886.021 413.75 858.84 424.239 827.366 424.145C780.515 424.004 758.933 410.244 759.075 362.913C759.101 354.504 760.327 346.338 761.072 338.172L730.072 340.241L730.182 303.481L764.294 305.265L769.195 273.566L818.957 264.345C816.292 271.785 811.426 291.712 808.983 305.4L880.345 303.933L880.234 340.692Z" fill="white"/>
<path d="M553.996 424.764L571.927 374.603C593.515 386.441 617.036 394.44 646.348 394.528C664.848 394.584 674.226 391.969 674.251 383.56C674.27 377.314 667.785 376.573 658.415 376.545C646.162 376.508 631.738 379.108 616.842 379.063C591.134 378.986 565.93 371.221 566.01 344.553C566.086 319.325 590.651 300.178 638.703 300.323C656.242 300.375 674.006 305.474 683.124 309.346L686.071 288.212L722.084 296.97L704.153 347.13C687.121 338.43 668.886 330.206 644.86 330.134C626.36 330.078 617.461 333.175 617.441 339.902C617.422 345.908 625.103 348.574 636.395 348.608C646.005 348.637 655.62 347.225 666.912 347.259C710.399 347.389 722.612 361.121 722.549 382.024C722.481 404.608 695.994 423.75 650.105 423.611C627.52 423.544 602.792 417.463 593.437 412.389L590.249 433.763L553.996 424.764Z" fill="white"/>
<path d="M541.341 370.427L430.581 370.093C432.715 379.71 440.366 391.987 468.717 392.072C484.814 392.12 505.023 383.292 517.299 375.64L533.063 406.681C521.51 413.614 494.088 424.103 458.77 423.997C415.043 423.865 380.277 399.975 380.395 360.572C380.518 319.728 416.14 298.692 459.868 298.824C514.166 298.987 541.706 329.103 541.854 359.616C541.843 363.22 541.591 367.304 541.341 370.427ZM430.162 349.91L496.473 350.11C495.061 340.495 484.044 328.689 462.901 328.625C441.999 328.562 432.352 340.547 430.162 349.91Z" fill="white"/>
<path d="M305.525 385.574L345.415 383.532L345.305 420.292C320.8 419.497 303.744 418.725 286.926 418.675C270.588 418.626 254.248 419.297 240.311 419.976L240.421 383.216L265.883 385.455L264.347 336.677L234.549 338.75L234.659 301.99L263.245 303.758L263.043 291.024C262.172 260.988 286.26 240.638 332.39 240.777C361.702 240.865 388.102 250.315 398.172 257.313L376.442 292.806C369.017 285.096 350.302 276.39 333.484 276.339C316.666 276.289 307.755 283.47 307.713 297.165L307.693 303.892L369.445 302.396L369.335 339.156L306.873 336.805L305.525 385.574Z" fill="white"/>
<path d="M117.846 376.601L120.609 336.485L143.659 341.6C145.58 342.086 147.985 341.133 147.992 338.73C148.002 335.366 142.817 301.954 142.895 276.006C142.977 248.857 159.588 237.855 190.101 237.947C201.393 237.981 214.598 241.384 224.195 245.738L211.62 272.609C205.865 268.988 199.144 266.805 191.936 266.784C180.164 266.748 177.496 274.909 177.464 285.721C177.452 289.565 178.157 294.853 178.621 300.38C179.084 306.148 179.544 312.877 179.519 321.286C180.163 346.996 171.014 353.215 153.946 356.287L153.945 356.768C170.994 359.942 180.105 366.217 179.307 391.922C179.281 400.331 178.781 406.817 178.283 412.822C177.786 418.346 177.049 423.63 177.037 427.474C177.006 438.046 179.624 446.222 191.397 446.258C198.604 446.28 205.337 444.378 211.114 440.791L223.527 467.738C213.904 472.034 200.679 475.357 189.387 475.324C158.393 475.23 142.329 464.13 142.411 436.981C142.489 411.032 147.867 380.535 147.885 374.289C147.893 371.886 145.012 371.156 143.329 371.392L117.846 376.601Z" fill="white"/>
<path d="M0.296539 376.247L3.0601 336.132L26.1099 341.246C28.0305 341.733 30.436 340.779 30.4432 338.376C30.4534 335.013 25.2681 301.601 25.3462 275.653C25.4278 248.503 42.039 237.501 72.552 237.593C83.8443 237.627 97.0484 241.03 106.646 245.384L94.0714 272.255C88.316 268.634 81.5952 266.452 74.3874 266.43C62.6146 266.394 59.9472 274.555 59.9147 285.367C59.9031 289.211 60.608 294.499 61.0719 300.027C61.5351 305.794 61.9954 312.523 61.9701 320.932C62.6135 346.642 53.4648 352.861 36.397 355.933L36.3955 356.414C53.4446 359.589 62.5557 365.863 61.7576 391.569C61.7323 399.978 61.2322 406.463 60.7336 412.468C60.2365 417.993 59.4998 423.276 59.4883 427.12C59.4565 437.692 62.0747 445.869 73.8475 445.904C81.0553 445.926 87.7883 444.024 93.5654 440.437L105.978 467.384C96.3546 471.68 83.1302 475.004 71.8379 474.97C40.8444 474.877 24.7802 463.776 24.8619 436.627C24.94 410.679 30.3175 380.182 30.3363 373.935C30.3435 371.532 27.4625 370.803 25.78 371.038L0.296539 376.247Z" fill="white"/>
<path d="M1095.94 79.2154L1060.51 115.869L1042.53 101.88C1027.15 101.593 1014.87 111.647 1005.71 123.392L1005.63 147.418L1043.36 145.37L1043.25 182.129C1016.34 181.328 1000.01 180.558 983.669 180.509C966.851 180.458 949.791 181.127 935.613 181.806L935.724 145.046L965.75 147.298L963.495 98.0379L938.96 107.575L930.427 68.6264L1008.3 59.4905L1003.15 92.8715L1003.39 92.8722C1014.49 77.5288 1028.96 61.4747 1057.31 61.56C1076.05 61.6164 1089.72 68.8654 1095.94 79.2154Z" fill="white"/>
<path d="M914.538 131.287L803.778 130.954C805.911 140.571 813.563 152.847 841.913 152.933C858.011 152.981 878.219 144.152 890.496 136.501L906.26 167.542C894.706 174.475 867.285 184.964 831.966 184.857C788.239 184.726 753.473 160.835 753.592 121.433C753.714 80.5885 789.336 59.5526 833.064 59.6842C887.363 59.8475 914.902 89.9631 915.051 120.477C915.04 124.081 914.787 128.164 914.538 131.287ZM803.358 110.771L869.67 110.97C868.257 101.355 857.24 89.5494 836.098 89.4858C815.195 89.4229 805.548 101.407 803.358 110.771Z" fill="white"/>
<path d="M629.861 1.89045L627.019 68.1943C633.755 65.3314 645.544 60.0811 669.57 60.1533C709.693 60.274 737.259 81.7403 737.153 116.818C737.035 155.981 708.601 183.525 669.679 183.408C645.653 183.336 628.149 171.751 621.921 165.485L621.879 179.42L555.327 179.22L560.001 142.954L587.138 147.121C586.966 124.535 586.394 75.0397 582.173 40.4292L557.637 50.2062L549.105 11.258L629.861 1.89045ZM627.648 98.7095L627.534 136.671C630.884 141.005 641.91 149.688 658.008 149.736C677.709 149.796 689.275 138.778 689.334 119.077C689.383 102.98 679.327 91.1765 657.223 91.11C642.567 91.0659 634.144 95.6056 627.648 98.7095Z" fill="white"/>
<path d="M310.666 145.328L308.412 95.8271L283.877 105.364L275.344 66.4156L352.496 57.2775L349.056 82.4946C359.174 73.6354 379.399 59.2805 401.023 59.3455C421.445 59.407 433.189 69.0528 436.746 84.6805C445.663 75.3371 467.57 60.9873 489.194 61.0523C520.428 61.1463 527.321 85.6738 527.234 114.745C527.213 121.713 526.439 139.49 525.455 147.175L549.973 143.405L545.775 180.873L477.775 182.831C481.186 167.224 483.65 146.809 483.705 128.55C483.762 109.569 475.13 103.777 464.318 103.744C452.546 103.709 443.383 114.493 438.799 120.726L438.724 145.953L465.639 143.872L465.529 180.391C453.519 179.635 441.027 178.876 428.293 178.838C415.319 178.799 403.064 179.483 390.328 180.165C392.77 166.958 395.229 148.225 395.287 129.004C395.351 107.861 386.719 102.069 375.667 102.036C364.134 102.001 354.732 112.785 349.907 119.257L349.828 145.446L376.984 143.365L376.873 180.125C360.778 179.356 344.683 178.586 328.345 178.537C311.527 178.487 294.466 179.156 280.529 179.835L280.64 143.075L310.666 145.328Z" fill="white"/>
<path d="M121.638 107.278L120.792 148.841L214.512 142.876L213.411 109.476L255.682 114.409L247.555 180.456C212.963 178.671 184.617 176.903 150.02 176.799C113.02 176.688 78.8947 179.228 40.689 180.555L40.8018 143.074L76.8321 146.066L73.7749 44.1856L41.0909 46.9704L41.2015 10.2106C76.5154 11.7584 110.388 13.0616 145.947 13.1686C180.544 13.2727 214.907 11.4539 249.507 10.8372L249.296 80.9931L211.095 80.8782L215.277 48.2152L122.793 42.6512L121.953 82.2919L189.013 73.3637L188.883 116.61L121.638 107.278Z" fill="white"/>
</svg>
