<svg width="199" height="82" viewBox="0 0 199 82" fill="none" xmlns="http://www.w3.org/2000/svg">
<rect width="199" height="82" fill="#6200EE"/>
<path d="M176.856 62.5779C176.856 63.0514 176.856 63.8527 176.783 64.2897H163.49C163.89 66.657 165.602 68.041 168.224 68.041C170.009 68.041 171.32 67.2033 172.303 65.8558L176.128 68.5145C174.234 71.0275 171.429 72.375 168.006 72.375C161.814 72.375 157.99 68.2595 157.99 62.5051C157.99 56.7507 161.778 52.6351 167.46 52.6351C173.068 52.6351 176.856 56.7142 176.856 62.5779ZM167.46 56.9692C165.238 56.9692 163.781 58.2439 163.453 60.5384H171.393C171.174 58.3167 169.608 56.9692 167.46 56.9692Z" fill="white"/>
<path d="M149.421 71.938H143.229L136.346 53.0722H142.1L146.325 66.6934L150.55 53.0722H156.304L149.421 71.938Z" fill="white"/>
<path d="M127.75 71.938V53.0722H133.286V71.938H127.75ZM133.796 47.9733C133.796 49.7943 132.339 51.1783 130.518 51.1783C128.697 51.1783 127.24 49.7943 127.24 47.9733C127.24 46.1523 128.697 44.7683 130.518 44.7683C132.339 44.7683 133.796 46.1523 133.796 47.9733Z" fill="white"/>
<path d="M120.932 72.375C115.833 72.375 114.085 70.0805 114.085 64.6175V57.3334H110.88V53.0722H114.085V47.427H119.621V53.0722H124.064V57.3334H119.621V65.1638C119.621 67.2762 120.313 68.041 122.498 68.041C123.044 68.041 123.627 68.041 124.064 68.0046V72.2294C123.044 72.3386 122.061 72.375 120.932 72.375Z" fill="white"/>
<path d="M102.791 61.9224V60.4655C102.791 58.2075 101.662 56.9692 98.9307 56.9692C97.3282 56.9692 95.7621 57.5883 94.6331 58.4988L91.5738 55.5488C93.5769 53.7642 96.6362 52.6351 99.6955 52.6351C105.923 52.6351 108.182 55.8766 108.182 60.7569V71.938H102.791V70.5904C101.48 71.7559 99.7684 72.375 97.5103 72.375C93.7226 72.375 90.5176 70.1534 90.5176 66.2564C90.5176 62.3594 93.7226 60.1378 97.5103 60.1378C99.7684 60.1378 101.48 60.7569 102.791 61.9224ZM102.791 66.9848V65.528C101.808 64.5811 100.46 64.1076 99.0036 64.1076C97.1825 64.1076 96.1263 64.9088 96.1263 66.2564C96.1263 67.604 97.1825 68.4052 99.0036 68.4052C100.46 68.4052 101.808 67.9317 102.791 66.9848Z" fill="white"/>
<path d="M81.1573 71.938V53.0722H86.6933V71.938H81.1573ZM87.2032 47.9733C87.2032 49.7943 85.7463 51.1783 83.9253 51.1783C82.1043 51.1783 80.6475 49.7943 80.6475 47.9733C80.6475 46.1523 82.1043 44.7683 83.9253 44.7683C85.7463 44.7683 87.2032 46.1523 87.2032 47.9733Z" fill="white"/>
<path d="M74.3392 72.375C69.2403 72.375 67.4921 70.0805 67.4921 64.6175V57.3334H64.2871V53.0722H67.4921V47.427H73.028V53.0722H77.4713V57.3334H73.028V65.1638C73.028 67.2762 73.72 68.041 75.9052 68.041C76.4515 68.041 77.0343 68.041 77.4713 68.0046V72.2294C76.4516 72.3386 75.4682 72.375 74.3392 72.375Z" fill="white"/>
<path d="M55.6915 71.938V53.0722H61.2274V71.938H55.6915ZM61.7373 47.9733C61.7373 49.7943 60.2805 51.1783 58.4595 51.1783C56.6385 51.1783 55.1816 49.7943 55.1816 47.9733C55.1816 46.1523 56.6385 44.7683 58.4595 44.7683C60.2805 44.7683 61.7373 46.1523 61.7373 47.9733Z" fill="white"/>
<path d="M42.4006 56.9692C40.6889 56.9692 39.0499 57.9525 38.1394 59.0452V71.938H32.6035V53.0722H38.1394V55.1846C39.487 53.8006 41.7451 52.6351 44.3309 52.6351C48.2643 52.6351 50.923 55.1117 50.923 59.8464V71.938H45.3871V60.4291C45.3871 58.2075 44.4038 56.9692 42.4006 56.9692Z" fill="white"/>
<path d="M21.5898 46.4437H27.4171V71.938H21.5898V46.4437Z" fill="white"/>
<path d="M155.197 16.2875V20.658C154.76 20.6215 154.287 20.5851 153.777 20.5851C151.555 20.5851 149.588 21.6413 148.496 23.2802V35.5175H142.96V16.6517H148.496V18.9826C149.661 17.2709 151.482 16.2147 154.032 16.2147C154.396 16.2147 154.906 16.2511 155.197 16.2875Z" fill="white"/>
<path d="M139.29 26.1575C139.29 26.6309 139.29 27.4322 139.217 27.8692H125.923C126.324 30.2365 128.036 31.6205 130.658 31.6205C132.443 31.6205 133.754 30.7829 134.737 29.4353L138.561 32.094C136.667 34.607 133.863 35.9546 130.439 35.9546C124.248 35.9546 120.424 31.839 120.424 26.0846C120.424 20.3302 124.212 16.2147 129.893 16.2147C135.502 16.2147 139.29 20.2938 139.29 26.1575ZM129.893 20.5487C127.672 20.5487 126.215 21.8234 125.887 24.1179H133.827C133.608 21.8963 132.042 20.5487 129.893 20.5487Z" fill="white"/>
<path d="M117.553 26.0846C117.553 32.3125 114.421 35.9546 109.467 35.9546C107.355 35.9546 105.388 35.1169 103.931 33.7693V35.5175H98.3955V8.93056H103.931V18.3999C105.388 17.0523 107.355 16.2147 109.467 16.2147C114.421 16.2147 117.553 19.8567 117.553 26.0846ZM107.756 20.5487C106.444 20.5487 104.878 21.1678 103.931 22.1876V29.9816C104.878 31.0014 106.444 31.6205 107.756 31.6205C110.56 31.6205 111.944 29.6174 111.944 26.0846C111.944 22.5518 110.56 20.5487 107.756 20.5487Z" fill="white"/>
<path d="M70.5691 22.2969V35.5175H65.0332V16.6517H70.5691V18.6184C72.1352 17.198 74.0655 16.2147 76.3236 16.2147C78.6545 16.2147 80.3662 17.1616 81.3132 18.9462C82.9521 17.3437 84.9552 16.2147 87.8688 16.2147C91.693 16.2147 93.8418 18.6913 93.8418 23.2438V35.5175H88.3059V23.8994C88.3059 21.7142 87.5046 20.5487 85.72 20.5487C84.4089 20.5487 82.9885 21.3499 82.1873 22.4061C82.2237 23.0617 82.2237 23.6809 82.2237 24.3729V35.5175H76.6878V23.8994C76.6878 21.7506 76.0322 20.5487 74.1019 20.5487C72.7908 20.5487 71.4068 21.3135 70.5691 22.2969Z" fill="white"/>
<path d="M43.8447 35.5175V10.0232H60.8895V14.6486H49.6356V20.1117H59.6148V24.7371H49.6356V30.8921H61.2173V35.5175H43.8447Z" fill="white"/>
</svg>
