<svg width="197" height="87" viewBox="0 0 197 87" fill="none" xmlns="http://www.w3.org/2000/svg">
<rect width="197" height="87" fill="white"/>
<path d="M190.757 14.3331L184.571 20.7674L181.414 18.3258C178.724 18.2833 176.579 20.0525 174.98 22.1124V26.3171L181.584 25.9415V32.3757C176.87 32.2485 174.01 32.1212 171.151 32.1212C168.291 32.1212 165.219 32.2485 162.735 32.3757V25.9415L167.994 26.3171L167.576 17.6957L163.287 19.38L161.772 12.564L175.404 10.9221L174.519 16.7687H174.562C176.495 14.0787 179.021 11.2553 183.983 11.2553C187.267 11.2553 189.66 12.5155 190.757 14.3271V14.3331Z" fill="#6DA2B4"/>
<path d="M159.02 23.542H139.626C140.002 25.2263 141.353 27.3711 146.315 27.3711C149.132 27.3711 152.665 25.814 154.815 24.469L157.59 29.8975C155.573 31.1153 150.774 32.9692 144.595 32.9692C136.936 32.9692 130.841 28.8069 130.841 21.9062C130.841 15.0054 137.07 11.0552 144.722 11.0552C154.228 11.0552 159.069 16.3141 159.111 21.6578C159.111 22.2879 159.069 23.0028 159.026 23.5481L159.02 23.542ZM139.548 20.0098H151.156C150.902 18.3255 148.969 16.2656 145.267 16.2656C141.565 16.2656 139.923 18.3679 139.548 20.0098Z" fill="#6DA2B4"/>
<path d="M109.11 1.03467L108.649 12.643C109.824 12.1401 111.89 11.2132 116.095 11.2132C123.123 11.2132 127.958 14.9574 127.958 21.1008C127.958 27.9592 122.996 32.794 116.18 32.794C111.975 32.794 108.904 30.7765 107.807 29.6798V32.1215H96.1562L96.9559 25.772L101.712 26.4869C101.67 22.5307 101.542 13.8668 100.785 7.80821L96.4955 9.53492L94.9808 2.71897L109.116 1.03467H109.11ZM108.776 17.9928V24.6391C109.364 25.3964 111.303 26.911 114.12 26.911C117.567 26.911 119.591 24.9783 119.591 21.5249C119.591 18.7077 117.822 16.6477 113.956 16.6477C111.388 16.6477 109.915 17.4475 108.782 17.9928H108.776Z" fill="#6DA2B4"/>
<path d="M53.2976 26.3173L52.8795 17.6534L48.59 19.3377L47.0754 12.5218L60.5801 10.8799L59.9924 15.2966C61.7615 13.7395 65.2937 11.2131 69.0803 11.2131C72.6549 11.2131 74.7148 12.8974 75.351 15.6298C76.9081 13.988 80.7371 11.4676 84.5237 11.4676C89.9947 11.4676 91.2125 15.7571 91.2125 20.8463C91.2125 22.0641 91.0852 25.1782 90.9156 26.5232L95.2051 25.8507L94.4902 32.4122L82.585 32.7879C83.1727 30.0554 83.5968 26.4808 83.5968 23.2819C83.5968 20.0829 82.0821 18.95 80.1918 18.95C78.1319 18.95 76.5324 20.8403 75.7327 21.9369V26.3536L80.4463 25.978V32.3698C78.3439 32.2426 76.1568 32.1154 73.9272 32.1154C71.6976 32.1154 69.5105 32.2426 67.2809 32.3698C67.6989 30.0554 68.123 26.7777 68.123 23.4091C68.123 19.7073 66.6084 18.6955 64.6757 18.6955C62.743 18.6955 61.0163 20.5858 60.1741 21.7248V26.3112L64.9301 25.9356V32.3698C62.1129 32.2426 59.2956 32.1154 56.4299 32.1154C53.5642 32.1154 50.4985 32.2426 48.0569 32.3698V25.9356L53.3158 26.3112L53.2976 26.3173Z" fill="#6DA2B4"/>
<path d="M20.1813 19.7559L20.0541 27.0323L36.4608 25.9357L36.2488 20.0892L43.6524 20.9313L42.265 32.4972C36.2064 32.2004 31.2444 31.9095 25.1857 31.9095C18.7091 31.9095 12.7353 32.37 6.04654 32.6245V26.063L12.3596 26.5658L11.7719 8.72925L6.0526 9.23212V2.79785C12.2385 3.05231 18.1699 3.25831 24.3921 3.25831C30.6143 3.25831 36.4669 2.91902 42.5255 2.79785V15.0787H35.8368L36.5517 9.35934L20.357 8.43237L20.2298 15.3756L31.9653 13.7761V21.3494L20.1874 19.7499L20.1813 19.7559Z" fill="#6DA2B4"/>
<path d="M196.065 61.451L195.599 68.479L191.564 67.5944C191.225 67.5096 190.807 67.6792 190.807 68.0973C190.807 68.685 191.691 74.5315 191.691 79.0755C191.691 83.6195 188.831 85.7642 183.445 85.7642C181.513 85.7642 179.198 85.1765 177.514 84.4192L179.701 79.7056C180.713 80.3357 181.888 80.675 183.155 80.675C185.214 80.675 185.675 79.2451 185.675 77.3912C185.675 76.7187 185.554 75.7917 185.463 74.8223C185.378 73.7681 185.293 72.6352 185.293 71.1629C185.166 66.6614 186.765 65.5708 189.752 65.0195V64.9347C186.765 64.3894 185.166 63.2928 185.293 58.7912C185.293 57.319 185.378 56.1436 185.463 55.1318C185.548 54.1624 185.675 53.2415 185.675 52.563C185.675 50.6727 185.214 49.2368 183.155 49.2368C181.888 49.2368 180.713 49.6124 179.701 50.2486L177.514 45.535C179.192 44.7776 181.507 44.1899 183.445 44.1899C188.874 44.1899 191.691 46.1226 191.691 50.8787C191.691 55.6347 190.807 60.7663 190.807 61.8569C190.807 62.2749 191.309 62.4022 191.606 62.3598L196.065 61.4328V61.451Z" fill="#2F91AC"/>
<path d="M175.485 61.451L175.018 68.479L170.977 67.5944C170.638 67.5096 170.22 67.6792 170.22 68.0973C170.22 68.685 171.104 74.5315 171.104 79.0755C171.104 83.6195 168.245 85.7642 162.858 85.7642C160.926 85.7642 158.611 85.1765 156.927 84.4192L159.114 79.7056C160.126 80.3357 161.301 80.675 162.562 80.675C164.622 80.675 165.088 79.2451 165.088 77.3912C165.088 76.7187 164.961 75.7917 164.876 74.8223C164.791 73.7681 164.706 72.6352 164.706 71.1629C164.579 66.6614 166.179 65.5708 169.165 65.0195V64.9347C166.179 64.3894 164.579 63.2928 164.706 58.7912C164.706 57.319 164.791 56.1436 164.876 55.1318C164.961 54.1624 165.088 53.2415 165.088 52.563C165.088 50.6727 164.622 49.2368 162.562 49.2368C161.301 49.2368 160.12 49.6124 159.114 50.2486L156.927 45.535C158.611 44.7776 160.926 44.1899 162.858 44.1899C168.287 44.1899 171.104 46.1226 171.104 50.8787C171.104 55.6347 170.22 60.7663 170.22 61.8569C170.22 62.2749 170.723 62.4022 171.019 62.3598L175.479 61.4328L175.485 61.451Z" fill="#2F91AC"/>
<path d="M154.788 61.8331L141.58 61.4574C141.495 62.0027 141.283 63.6446 141.283 65.2441C141.283 68.7339 142.295 70.5454 146.627 70.5454C149.571 70.5454 153.103 68.8187 154.745 67.6009L157.647 73.5323C155.842 74.6289 151.086 76.4768 145.573 76.4768C137.369 76.4768 133.583 74.0776 133.583 65.7894C133.583 64.3171 133.795 62.8873 133.922 61.4574L128.493 61.8331V55.3988L134.467 55.6957L135.309 50.1399L144.015 48.498C143.555 49.8007 142.713 53.2965 142.289 55.6896L154.782 55.3928V61.827L154.788 61.8331Z" fill="#2F91AC"/>
<path d="M97.7106 76.7247L100.825 67.9336C104.611 69.9935 108.731 71.381 113.863 71.381C117.104 71.381 118.74 70.9205 118.74 69.4483C118.74 68.3516 117.607 68.2305 115.965 68.2305C113.82 68.2305 111.294 68.6909 108.689 68.6909C104.187 68.6909 99.7705 67.3459 99.7705 62.6747C99.7705 58.258 104.06 54.8894 112.475 54.8894C115.547 54.8894 118.661 55.7739 120.261 56.4464L120.764 52.7446L127.077 54.2593L123.963 63.0504C120.976 61.5357 117.777 60.1059 113.572 60.1059C110.331 60.1059 108.774 60.6511 108.774 61.8326C108.774 62.8868 110.119 63.3472 112.1 63.3472C113.784 63.3472 115.462 63.0928 117.444 63.0928C125.059 63.0928 127.204 65.492 127.204 69.1514C127.204 73.1077 122.575 76.4702 114.541 76.4702C110.585 76.4702 106.253 75.416 104.611 74.5375L104.066 78.2817L97.7166 76.7247H97.7106Z" fill="#2F91AC"/>
<path d="M95.463 67.2129H76.0693C76.445 68.8972 77.796 71.0419 82.758 71.0419C85.5753 71.0419 89.1075 69.4849 91.2583 68.1399L94.0331 73.5684C92.0156 74.7862 87.2172 76.6401 81.0374 76.6401C73.3793 76.6401 67.2843 72.4778 67.2843 65.5771C67.2843 58.6763 73.5126 54.7261 81.1646 54.7261C90.6706 54.7261 95.5114 59.985 95.5539 65.3287C95.5539 65.9588 95.5115 66.6737 95.4691 67.219L95.463 67.2129ZM75.9906 63.6807H87.5989C87.3444 61.9964 85.4117 59.9365 81.7099 59.9365C78.0081 59.9365 76.3662 62.0388 75.9906 63.6807Z" fill="#2F91AC"/>
<path d="M54.1853 69.9937L61.1709 69.6181V76.0523C56.8814 75.9251 53.8945 75.7979 50.95 75.7979C48.0055 75.7979 45.2307 75.9251 42.789 76.0523V69.6181L47.2482 69.9937L46.9513 61.4571L41.7348 61.8328V55.3985L46.7392 55.6954L46.6968 53.4658C46.5272 48.2069 50.7379 44.6323 58.8141 44.6323C63.9457 44.6323 68.5745 46.2742 70.3376 47.492L66.5509 53.7203C65.2483 52.3752 61.9646 50.8606 59.0201 50.8606C56.0756 50.8606 54.5185 52.1208 54.5185 54.52V55.6954L65.3271 55.3985V61.8328L54.3913 61.4571L54.1792 69.9937H54.1853Z" fill="#2F91AC"/>
<path d="M21.3166 68.5218L21.777 61.4937L25.8181 62.3783C26.1574 62.4631 26.5755 62.2935 26.5755 61.8754C26.5755 61.2878 25.6485 55.4412 25.6485 50.8972C25.6485 46.3532 28.5506 44.2085 33.8943 44.2085C35.8694 44.2085 38.1838 44.7962 39.8681 45.5535L37.6809 50.2671C36.6691 49.637 35.4938 49.2553 34.2336 49.2553C32.1736 49.2553 31.7071 50.6852 31.7071 52.5815C31.7071 53.254 31.8344 54.181 31.9192 55.1504C32.004 56.1622 32.0888 57.3375 32.0888 58.8098C32.216 63.3113 30.6166 64.4019 27.6297 64.9532V65.038C30.6166 65.5833 32.216 66.6799 32.0888 71.1815C32.0888 72.6537 32.004 73.7867 31.9192 74.8409C31.8344 75.8103 31.7071 76.7312 31.7071 77.4098C31.7071 79.2637 32.1676 80.6935 34.2336 80.6935C35.4938 80.6935 36.6752 80.3542 37.6809 79.7241L39.8681 84.4378C38.1838 85.1951 35.8694 85.7828 33.8943 85.7828C28.4658 85.7828 25.6485 83.8501 25.6485 79.0941C25.6485 74.338 26.5755 69.2064 26.5755 68.1158C26.5755 67.6978 26.0726 67.5706 25.7757 67.613L21.3166 68.5399V68.5218Z" fill="#2F91AC"/>
<path d="M0.735596 68.5218L1.19604 61.4937L5.23715 62.3783C5.57643 62.4631 5.99448 62.2935 5.99448 61.8754C5.99448 61.2878 5.06751 55.4412 5.06751 50.8972C5.06751 46.3532 7.96958 44.2085 13.3133 44.2085C15.2884 44.2085 17.6028 44.7962 19.2871 45.5535L17.0999 50.2671C16.0881 49.637 14.9128 49.2553 13.6526 49.2553C11.5926 49.2553 11.1261 50.6852 11.1261 52.5815C11.1261 53.254 11.2534 54.181 11.3382 55.1504C11.423 56.1622 11.5078 57.3375 11.5078 58.8098C11.6351 63.3113 10.0356 64.4019 7.04867 64.9532V65.038C10.0356 65.5833 11.6351 66.6799 11.5078 71.1815C11.5078 72.6537 11.423 73.7867 11.3382 74.8409C11.2534 75.8103 11.1261 76.7312 11.1261 77.4098C11.1261 79.2637 11.5866 80.6935 13.6526 80.6935C14.9128 80.6935 16.0942 80.3542 17.0999 79.7241L19.2871 84.4378C17.6028 85.1951 15.2884 85.7828 13.3133 85.7828C7.88476 85.7828 5.06751 83.8501 5.06751 79.0941C5.06751 74.338 5.99448 69.2064 5.99448 68.1158C5.99448 67.6978 5.49161 67.5706 5.19473 67.613L0.735596 68.5399V68.5218Z" fill="#2F91AC"/>
</svg>
