<svg width="67" height="60" viewBox="0 0 67 60" fill="none" xmlns="http://www.w3.org/2000/svg">
<path d="M20.9339 5.54843L16.7538 0.975748C16.3778 0.563079 15.8738 0.287745 15.3231 0.194411L14.3997 0.0357439C13.8864 -0.0522564 13.3577 0.0230772 12.8897 0.252411L1.40932 5.83377C0.279282 6.38244 -0.272069 7.70111 0.131944 8.89111L5.65879 25.1285C5.94013 25.9472 6.62482 26.5645 7.46818 26.7599C8.49088 26.9959 9.55758 26.5639 10.1283 25.6832L21.1826 8.59978C21.7973 7.64711 21.6933 6.3911 20.9293 5.5531L20.9339 5.54777V5.54843Z" fill="#6200EE"/>
<path d="M23.4154 26.9293C23.4287 26.9293 23.4414 26.9293 23.4547 26.9293C24.7607 26.9293 25.8361 25.8546 25.8361 24.548C25.8361 23.242 24.7607 22.1666 23.4547 22.1666C23.4414 22.1666 23.4274 22.1673 23.414 22.1673C22.1226 22.1893 21.0726 23.2573 21.0726 24.548C21.0726 25.84 22.124 26.908 23.4154 26.9293ZM65.256 5.83323L53.7757 0.258544C53.307 0.0325431 52.7796 -0.0434572 52.2663 0.0418765L51.3423 0.199877C50.7929 0.295877 50.2895 0.570545 49.9122 0.981214C49.5349 1.39188 36.1724 15.9246 36.1778 15.9719C34.489 18.0419 33.7023 20.212 35.3277 23.782C36.7584 26.8286 44.348 32.8693 44.348 36.2594C44.348 36.2594 44.3854 36.7614 44.438 37.5374H44.4067C44.4067 41.434 42.686 44.5814 39.8039 45.9487C37.6611 46.9681 35.2591 46.7307 33.285 45.3421V43.662C33.285 43.662 33.3383 43.6254 33.359 43.5994L36.1251 40.8167C37.7665 39.1634 36.5998 36.3494 34.267 36.3494H28.7355C26.4074 36.3494 25.2354 39.1634 26.8775 40.816L29.5909 43.5414V45.4794C28.0702 46.6761 25.9961 46.9141 24.244 46.0914C23.124 45.5634 22.544 44.7661 22.544 44.2541H18.8485C18.8485 46.3294 20.3106 48.3141 22.6593 49.4287C23.1767 49.6714 23.7574 49.8774 24.3747 50.0254C24.3801 52.6341 24.6014 56.0501 26.7288 58.1941C27.9175 59.3934 29.5009 60.0001 31.4323 60.0001C37.8512 60.0001 38.8272 53.7374 38.9752 50.0834C39.8092 49.9167 40.6192 49.6467 41.3873 49.2807C42.9553 48.5361 44.296 47.4327 45.3567 46.0601L57.1324 33.424L48.9668 16.4733L49.9435 15.5013L56.5364 25.6826C57.1064 26.564 58.1738 26.996 59.1965 26.76C60.0405 26.5653 60.7259 25.9473 61.0072 25.1286L66.5334 8.89125C66.9401 7.70124 66.3881 6.38057 65.256 5.8339V5.83323ZM29.3529 55.5801C28.2762 54.4928 28.0968 52.1427 28.0702 50.2627H35.2591C35.0271 54.5721 33.8924 56.2934 31.4323 56.2934C30.5089 56.2934 29.8282 56.0608 29.3529 55.5801Z" fill="#3C3835"/>
</svg>
