<svg width="199" height="82" viewBox="0 0 199 82" fill="none" xmlns="http://www.w3.org/2000/svg">
<rect width="199" height="82" fill="white"/>
<circle cx="41.2122" cy="40.7878" r="40.703" fill="#EF6C15"/>
<g clip-path="url(#clip0_1390_1582)">
<path d="M66.5393 15.0754C60.0816 5.774 47.2256 3.04875 37.9834 8.91396L21.6912 19.341C17.2479 22.1255 14.1672 26.6873 13.2785 31.8416C12.5083 36.1664 13.16 40.6098 15.2336 44.4607C13.8117 46.5935 12.8638 48.9632 12.4491 51.4515C11.5011 56.7243 12.7453 62.1748 15.826 66.4996C22.3429 75.801 35.1397 78.5263 44.3818 72.661L60.6741 62.2933C65.1174 59.5088 68.1981 54.9469 69.0868 49.7927C69.857 45.4678 69.2053 41.0245 67.1317 37.1736C68.5536 35.0408 69.5015 32.671 69.9162 30.1827C70.9234 24.8507 69.6792 19.4002 66.5393 15.0754Z" fill="#EF6C15"/>
<path d="M36.3844 67.3885C31.1117 68.7511 25.6019 66.6776 22.5212 62.2342C20.6254 59.6275 19.9145 56.369 20.4477 53.1698C20.5662 52.6366 20.6846 52.1627 20.8031 51.6295L21.0994 50.6815L21.9288 51.274C23.8838 52.6959 26.0167 53.7623 28.3272 54.4732L28.9196 54.6509L28.8604 55.2434C28.8011 56.0728 29.0381 56.9615 29.5121 57.6724C30.46 59.035 32.1188 59.6867 33.7184 59.272C34.0739 59.1535 34.4294 59.035 34.7256 58.8573L50.9586 48.4895C51.788 47.9563 52.3212 47.1861 52.4989 46.2382C52.6767 45.2903 52.4397 44.2831 51.9065 43.513C50.9586 42.1503 49.2997 41.5579 47.7001 41.9726C47.3447 42.0911 46.9892 42.2096 46.693 42.3873L40.4723 46.3567C39.4652 47.0084 38.3395 47.4823 37.1546 47.7786C31.8819 49.1412 26.3721 47.0676 23.2914 42.6243C21.4548 40.0175 20.6846 36.7591 21.2771 33.5599C21.8103 30.4792 23.7061 27.6947 26.3721 26.0358L42.6644 15.668C43.6715 15.0164 44.7972 14.5424 45.982 14.1869C51.2548 12.8243 56.7645 14.8979 59.8453 19.3412C61.7411 21.948 62.452 25.2064 61.9188 28.4056C61.8003 28.9388 61.6818 29.4128 61.5041 29.946L61.2079 30.8939L60.3785 30.3014C58.4234 28.8796 56.2906 27.8132 53.9801 27.1022L53.3876 26.9245L53.4468 26.3321C53.5061 25.5026 53.2691 24.614 52.7952 23.903C51.8472 22.5404 50.1884 21.948 48.5888 22.3627C48.2333 22.4812 47.8779 22.5997 47.5816 22.7774L31.3487 33.1452C30.5192 33.6784 29.986 34.4486 29.8083 35.3965C29.6306 36.3444 29.8675 37.3515 30.4007 38.1217C31.3487 39.4843 33.0075 40.0768 34.6071 39.6621C34.9626 39.5436 35.318 39.4251 35.6143 39.2474L41.8349 35.278C42.8421 34.6263 43.9677 34.1523 45.1526 33.7969C50.4254 32.4342 55.9351 34.5078 59.0158 38.9511C60.9117 41.5579 61.6226 44.8163 61.0894 48.0155C60.5562 51.0963 58.6604 53.8807 55.9944 55.5396L39.7021 65.9074C38.695 66.5591 37.5693 67.033 36.3844 67.3885Z" fill="white"/>
</g>
<path d="M183.822 38.9946V2.43506H198.445V9.4977H191.258V16.6227H198.155V23.4984H191.258V31.8697H198.923V38.9946H183.822Z" fill="#EF6C15"/>
<path d="M170.132 38.9946V9.45616H165.791V2.43506H181.786V9.45616H177.444V38.9946H170.132Z" fill="#EF6C15"/>
<path d="M151.416 38.9946V2.43506H158.728V32.7629H166.248V38.9946H151.416Z" fill="#EF6C15"/>
<path d="M133.885 38.9946V2.43506H148.508V9.4977H141.321V16.6227H148.218V23.4984H141.321V31.8697H148.986V38.9946H133.885Z" fill="#EF6C15"/>
<path d="M117.267 38.9946L112.759 2.41431H119.718L122.397 27.2997L124.786 2.41431H131.745L127.237 38.9946H117.267Z" fill="#EF6C15"/>
<path d="M102.934 39.3271C99.5961 39.3271 97.1865 38.4962 95.7047 36.8344C94.2368 35.1726 93.5028 32.5275 93.5028 28.8993V25.3264H100.732V29.8964C100.732 30.7411 100.856 31.4058 101.106 31.8905C101.369 32.3614 101.819 32.5968 102.456 32.5968C103.12 32.5968 103.577 32.4029 103.827 32.0151C104.09 31.6274 104.221 30.9904 104.221 30.1041C104.221 28.9824 104.111 28.0476 103.889 27.2998C103.667 26.5381 103.28 25.818 102.726 25.1395C102.186 24.447 101.431 23.6438 100.462 22.7299L97.1795 19.614C94.7284 17.3013 93.5028 14.6563 93.5028 11.6789C93.5028 8.56302 94.2229 6.18804 95.6631 4.55394C97.1172 2.91983 99.2152 2.10278 101.957 2.10278C105.308 2.10278 107.683 2.996 109.082 4.78243C110.495 6.56887 111.201 9.28313 111.201 12.9252H103.764V10.4118C103.764 9.91324 103.619 9.52548 103.328 9.24852C103.051 8.97155 102.67 8.83307 102.186 8.83307C101.604 8.83307 101.175 8.99925 100.898 9.3316C100.635 9.65012 100.503 10.0656 100.503 10.578C100.503 11.0903 100.642 11.6443 100.919 12.2398C101.196 12.8352 101.743 13.5207 102.56 14.2962L106.776 18.3469C107.621 19.1501 108.397 20.0017 109.103 20.9019C109.809 21.7882 110.377 22.8268 110.806 24.0177C111.236 25.1949 111.45 26.6351 111.45 28.3384C111.45 31.7728 110.813 34.4663 109.539 36.4189C108.279 38.3577 106.077 39.3271 102.934 39.3271Z" fill="#EF6C15"/>
<path d="M188.751 76.5804V52.4527H185.204V46.7178H198.269V52.4527H194.723V76.5804H188.751Z" fill="#EF6C15"/>
<path d="M178.044 76.5804V46.7178H183.813V76.5804H178.044Z" fill="#EF6C15"/>
<path d="M152.389 76.5804V46.7178H161.484L163.995 64.9238L166.489 46.7178H175.669V76.5804H170.205V55.0657L166.778 76.5804H161.416L157.785 55.0657V76.5804H152.389Z" fill="#EF6C15"/>
<path d="M126.463 76.5804V46.7178H135.558L138.069 64.9238L140.563 46.7178H149.743V76.5804H144.279V55.0657L140.852 76.5804H135.49L131.859 55.0657V76.5804H126.463Z" fill="#EF6C15"/>
<path d="M116.911 76.8518C114.422 76.8518 112.59 76.1562 111.413 74.7649C110.237 73.3622 109.649 71.3035 109.649 68.5887V46.7178H115.451V68.3512C115.451 68.8489 115.48 69.3296 115.536 69.7934C115.593 70.2459 115.723 70.6192 115.927 70.9133C116.13 71.2074 116.458 71.3544 116.911 71.3544C117.374 71.3544 117.708 71.213 117.912 70.9302C118.115 70.6361 118.24 70.2572 118.285 69.7934C118.342 69.3296 118.37 68.8489 118.37 68.3512V46.7178H124.173V68.5887C124.173 71.3035 123.584 73.3622 122.408 74.7649C121.232 76.1562 119.399 76.8518 116.911 76.8518Z" fill="#EF6C15"/>
<path d="M101.046 76.8518C98.3201 76.8518 96.3518 76.1731 95.1415 74.8157C93.9425 73.4584 93.343 71.2978 93.343 68.3342V65.4158H99.2476V69.1486C99.2476 69.8386 99.3494 70.3816 99.553 70.7775C99.7679 71.1621 100.136 71.3544 100.656 71.3544C101.199 71.3544 101.572 71.196 101.776 70.8793C101.991 70.5626 102.098 70.0423 102.098 69.3183C102.098 68.4021 102.008 67.6385 101.827 67.0277C101.646 66.4056 101.329 65.8174 100.876 65.2631C100.435 64.6975 99.8188 64.0415 99.027 63.2949L96.3462 60.7498C94.344 58.8608 93.343 56.7002 93.343 54.2683C93.343 51.7231 93.9312 49.7832 95.1076 48.4484C96.2953 47.1137 98.009 46.4463 100.249 46.4463C102.986 46.4463 104.926 47.1759 106.068 48.6351C107.222 50.0943 107.799 52.3113 107.799 55.2863H101.725V53.2332C101.725 52.826 101.606 52.5093 101.369 52.2831C101.142 52.0568 100.831 51.9437 100.435 51.9437C99.9602 51.9437 99.6096 52.0795 99.3833 52.3509C99.1684 52.6111 99.061 52.9505 99.061 53.369C99.061 53.7875 99.1741 54.24 99.4003 54.7264C99.6265 55.2128 100.073 55.7727 100.741 56.4061L104.185 59.7148C104.875 60.3709 105.509 61.0665 106.085 61.8018C106.662 62.5257 107.126 63.3741 107.477 64.3469C107.827 65.3084 108.003 66.4848 108.003 67.8761C108.003 70.6814 107.482 72.8815 106.442 74.4764C105.412 76.06 103.614 76.8518 101.046 76.8518Z" fill="#EF6C15"/>
<defs>
<clipPath id="clip0_1390_1582">
<rect width="58.1189" height="69.9085" fill="white" transform="translate(12.1537 5.83325)"/>
</clipPath>
</defs>
</svg>
