<svg width="292" height="60" viewBox="0 0 292 60" fill="none" xmlns="http://www.w3.org/2000/svg">
<rect width="292" height="60" fill="white"/>
<path d="M53.1597 39.79C54.153 39.79 54.9964 39.9233 55.6897 40.19C56.3897 40.45 57.0297 40.82 57.6097 41.3L55.9997 43.24C55.6197 42.9267 55.1997 42.68 54.7397 42.5C54.2797 42.3133 53.7797 42.22 53.2397 42.22C52.6597 42.22 52.1297 42.3867 51.6497 42.72C51.1697 43.0467 50.7864 43.5667 50.4997 44.28C50.213 44.9867 50.0697 45.9067 50.0697 47.04C50.0697 48.1533 50.2064 49.0633 50.4797 49.77C50.7597 50.47 51.143 50.9867 51.6297 51.32C52.1164 51.6467 52.673 51.81 53.2997 51.81C53.993 51.81 54.5697 51.68 55.0297 51.42C55.4897 51.16 55.913 50.8767 56.2997 50.57L57.7897 52.47C57.2697 52.9833 56.6297 53.4233 55.8697 53.79C55.1097 54.1567 54.193 54.34 53.1197 54.34C51.8664 54.34 50.753 54.0633 49.7797 53.51C48.813 52.95 48.053 52.13 47.4997 51.05C46.953 49.9633 46.6797 48.6267 46.6797 47.04C46.6797 45.4933 46.963 44.18 47.5297 43.1C48.103 42.02 48.8797 41.2 49.8597 40.64C50.8397 40.0733 51.9397 39.79 53.1597 39.79ZM72.7519 40.14V49.36C72.7519 50.3067 72.5586 51.1567 72.1719 51.91C71.7919 52.6567 71.2186 53.25 70.4519 53.69C69.6919 54.1233 68.7386 54.34 67.5919 54.34C66.4386 54.34 65.4786 54.13 64.7119 53.71C63.9519 53.29 63.3819 52.7067 63.0019 51.96C62.6219 51.2133 62.4319 50.3467 62.4319 49.36V40.14H65.7219V48.14C65.7219 49.3867 65.8352 50.3267 66.0619 50.96C66.2886 51.5867 66.7986 51.9 67.5919 51.9C68.3852 51.9 68.8952 51.5867 69.1219 50.96C69.3486 50.3267 69.4619 49.3867 69.4619 48.14V40.14H72.7519ZM88.5441 49.95C88.5441 50.81 88.3174 51.57 87.8641 52.23C87.4174 52.89 86.7741 53.4067 85.9341 53.78C85.0941 54.1533 84.0841 54.34 82.9041 54.34C81.5974 54.34 80.5007 54.15 79.6141 53.77C78.7341 53.3833 78.0041 52.9067 77.4241 52.34L79.0841 50.5C79.5974 50.9467 80.1641 51.2933 80.7841 51.54C81.4041 51.78 82.0841 51.9 82.8241 51.9C83.2841 51.9 83.6874 51.8333 84.0341 51.7C84.3807 51.5667 84.6507 51.3733 84.8441 51.12C85.0374 50.8667 85.1341 50.56 85.1341 50.2C85.1341 49.86 85.0574 49.5733 84.9041 49.34C84.7507 49.1067 84.4907 48.8967 84.1241 48.71C83.7641 48.5233 83.2607 48.3333 82.6141 48.14C81.5341 47.8067 80.6641 47.44 80.0041 47.04C79.3507 46.64 78.8741 46.1767 78.5741 45.65C78.2807 45.1233 78.1341 44.51 78.1341 43.81C78.1341 42.9633 78.3674 42.24 78.8341 41.64C79.3074 41.04 79.9407 40.5833 80.7341 40.27C81.5274 39.95 82.4007 39.79 83.3541 39.79C84.4274 39.79 85.3741 39.9467 86.1941 40.26C87.0141 40.5667 87.7241 41.0067 88.3241 41.58L86.7741 43.36C86.3074 42.9667 85.8041 42.6767 85.2641 42.49C84.7241 42.2967 84.1741 42.2 83.6141 42.2C83.2007 42.2 82.8374 42.2533 82.5241 42.36C82.2107 42.46 81.9674 42.61 81.7941 42.81C81.6207 43.01 81.5341 43.26 81.5341 43.56C81.5341 43.8533 81.6174 44.1 81.7841 44.3C81.9507 44.5 82.2407 44.69 82.6541 44.87C83.0674 45.0433 83.6407 45.2467 84.3741 45.48C85.2474 45.7467 85.9941 46.0667 86.6141 46.44C87.2407 46.8067 87.7174 47.27 88.0441 47.83C88.3774 48.39 88.5441 49.0967 88.5441 49.95ZM100.397 42.65V54H97.1163V42.65H93.2263V40.14H104.447L104.107 42.65H100.397ZM119.919 47.06C119.919 48.5267 119.709 49.8067 119.289 50.9C118.869 51.9867 118.245 52.8333 117.419 53.44C116.599 54.04 115.582 54.34 114.369 54.34C113.162 54.34 112.145 54.0467 111.319 53.46C110.492 52.8667 109.869 52.0267 109.449 50.94C109.029 49.8533 108.819 48.56 108.819 47.06C108.819 45.5933 109.029 44.3167 109.449 43.23C109.869 42.1433 110.492 41.3 111.319 40.7C112.145 40.0933 113.162 39.79 114.369 39.79C115.582 39.79 116.599 40.0833 117.419 40.67C118.245 41.2567 118.869 42.0933 119.289 43.18C119.709 44.2667 119.919 45.56 119.919 47.06ZM116.559 47.06C116.559 45.3533 116.389 44.1133 116.049 43.34C115.709 42.5667 115.149 42.18 114.369 42.18C113.589 42.18 113.029 42.57 112.689 43.35C112.349 44.1233 112.179 45.36 112.179 47.06C112.179 48.7667 112.352 50.0067 112.699 50.78C113.045 51.5533 113.602 51.94 114.369 51.94C115.169 51.94 115.732 51.55 116.059 50.77C116.392 49.9833 116.559 48.7467 116.559 47.06ZM134.831 40.14L135.611 54H132.751L132.581 48.07C132.568 47.5167 132.561 47.0233 132.561 46.59C132.568 46.1567 132.578 45.75 132.591 45.37C132.604 44.9833 132.624 44.5967 132.651 44.21C132.684 43.8167 132.718 43.39 132.751 42.93L131.191 51.64H128.711L127.031 42.93C127.071 43.37 127.104 43.7867 127.131 44.18C127.164 44.5667 127.188 44.9567 127.201 45.35C127.214 45.7433 127.224 46.1667 127.231 46.62C127.238 47.0667 127.234 47.5667 127.221 48.12L127.121 54H124.311L125.091 40.14H128.461L130.001 49.1L131.461 40.14H134.831ZM166.375 44.35C166.375 45.01 166.252 45.5867 166.005 46.08C165.759 46.5733 165.425 46.99 165.005 47.33C164.585 47.67 164.115 47.9433 163.595 48.15L167.225 54H163.515L160.515 48.7H159.585V54H156.305V40.14H160.665C162.552 40.14 163.975 40.4833 164.935 41.17C165.895 41.8567 166.375 42.9167 166.375 44.35ZM162.995 44.35C162.995 43.6833 162.799 43.2 162.405 42.9C162.019 42.5933 161.442 42.44 160.675 42.44H159.585V46.45H160.805C161.519 46.45 162.062 46.2833 162.435 45.95C162.809 45.6167 162.995 45.0833 162.995 44.35ZM175.878 42.48V45.81H180.678V48.11H175.878V51.65H181.668V54H172.598V40.14H181.658L181.328 42.48H175.878ZM193.31 54L189.66 42.85C189.706 43.15 189.756 43.5133 189.81 43.94C189.87 44.36 189.926 44.83 189.98 45.35C190.033 45.8633 190.076 46.41 190.11 46.99C190.143 47.57 190.16 48.1633 190.16 48.77V54H187.37V40.14H191.46L195 51.23C194.926 50.81 194.85 50.31 194.77 49.73C194.696 49.1433 194.633 48.49 194.58 47.77C194.526 47.05 194.5 46.2767 194.5 45.45V40.14H197.29V54H193.31ZM210.012 47C210.012 46.0667 209.932 45.3067 209.772 44.72C209.619 44.1333 209.402 43.68 209.122 43.36C208.849 43.04 208.525 42.82 208.152 42.7C207.779 42.58 207.375 42.52 206.942 42.52H206.242V51.63H206.942C207.395 51.63 207.809 51.56 208.182 51.42C208.562 51.2733 208.889 51.03 209.162 50.69C209.435 50.3433 209.645 49.87 209.792 49.27C209.939 48.67 210.012 47.9133 210.012 47ZM213.412 47C213.412 48.1267 213.292 49.0933 213.052 49.9C212.812 50.7 212.475 51.3667 212.042 51.9C211.615 52.4333 211.119 52.8533 210.552 53.16C209.985 53.4667 209.375 53.6833 208.722 53.81C208.069 53.9367 207.395 54 206.702 54H202.962V40.14H206.462C207.349 40.14 208.205 40.2333 209.032 40.42C209.865 40.6 210.609 40.9367 211.262 41.43C211.922 41.9167 212.445 42.61 212.832 43.51C213.219 44.4033 213.412 45.5667 213.412 47ZM222.654 42.48V45.81H227.454V48.11H222.654V51.65H228.444V54H219.374V40.14H228.434L228.104 42.48H222.654ZM244.336 44.35C244.336 45.01 244.213 45.5867 243.966 46.08C243.72 46.5733 243.386 46.99 242.966 47.33C242.546 47.67 242.076 47.9433 241.556 48.15L245.186 54H241.476L238.476 48.7H237.546V54H234.266V40.14H238.626C240.513 40.14 241.936 40.4833 242.896 41.17C243.856 41.8567 244.336 42.9167 244.336 44.35ZM240.956 44.35C240.956 43.6833 240.76 43.2 240.366 42.9C239.98 42.5933 239.403 42.44 238.636 42.44H237.546V46.45H238.766C239.48 46.45 240.023 46.2833 240.396 45.95C240.77 45.6167 240.956 45.0833 240.956 44.35ZM253.838 42.48V45.81H258.638V48.11H253.838V51.65H259.628V54H250.558V40.14H259.618L259.288 42.48H253.838ZM275.521 44.35C275.521 45.01 275.397 45.5867 275.151 46.08C274.904 46.5733 274.571 46.99 274.151 47.33C273.731 47.67 273.261 47.9433 272.741 48.15L276.371 54H272.661L269.661 48.7H268.731V54H265.451V40.14H269.811C271.697 40.14 273.121 40.4833 274.081 41.17C275.041 41.8567 275.521 42.9167 275.521 44.35ZM272.141 44.35C272.141 43.6833 271.944 43.2 271.551 42.9C271.164 42.5933 270.587 42.44 269.821 42.44H268.731V46.45H269.951C270.664 46.45 271.207 46.2833 271.581 45.95C271.954 45.6167 272.141 45.0833 272.141 44.35ZM291.243 49.95C291.243 50.81 291.016 51.57 290.563 52.23C290.116 52.89 289.473 53.4067 288.633 53.78C287.793 54.1533 286.783 54.34 285.603 54.34C284.296 54.34 283.199 54.15 282.313 53.77C281.433 53.3833 280.703 52.9067 280.123 52.34L281.783 50.5C282.296 50.9467 282.863 51.2933 283.483 51.54C284.103 51.78 284.783 51.9 285.523 51.9C285.983 51.9 286.386 51.8333 286.733 51.7C287.079 51.5667 287.349 51.3733 287.543 51.12C287.736 50.8667 287.833 50.56 287.833 50.2C287.833 49.86 287.756 49.5733 287.603 49.34C287.449 49.1067 287.189 48.8967 286.823 48.71C286.463 48.5233 285.959 48.3333 285.313 48.14C284.233 47.8067 283.363 47.44 282.703 47.04C282.049 46.64 281.573 46.1767 281.273 45.65C280.979 45.1233 280.833 44.51 280.833 43.81C280.833 42.9633 281.066 42.24 281.533 41.64C282.006 41.04 282.639 40.5833 283.433 40.27C284.226 39.95 285.099 39.79 286.053 39.79C287.126 39.79 288.073 39.9467 288.893 40.26C289.713 40.5667 290.423 41.0067 291.023 41.58L289.473 43.36C289.006 42.9667 288.503 42.6767 287.963 42.49C287.423 42.2967 286.873 42.2 286.313 42.2C285.899 42.2 285.536 42.2533 285.223 42.36C284.909 42.46 284.666 42.61 284.493 42.81C284.319 43.01 284.233 43.26 284.233 43.56C284.233 43.8533 284.316 44.1 284.483 44.3C284.649 44.5 284.939 44.69 285.353 44.87C285.766 45.0433 286.339 45.2467 287.073 45.48C287.946 45.7467 288.693 46.0667 289.313 46.44C289.939 46.8067 290.416 47.27 290.743 47.83C291.076 48.39 291.243 49.0967 291.243 49.95Z" fill="#191C22"/>
<path d="M29.6186 5.03652C31.3118 7.41556 31.9762 10.3519 31.4619 13.2239C31.2261 14.5741 30.6903 15.8601 29.9401 17.0175C31.0546 19.1179 31.419 21.5398 30.9903 23.876C30.4759 26.6837 28.8256 29.1484 26.4037 30.6702L17.552 36.307C12.5152 39.5219 5.52814 38.0216 2.01316 32.9635C0.319966 30.6273 -0.344451 27.6696 0.169937 24.7976C0.405698 23.4473 0.941518 22.1613 1.69167 21.004C0.57716 18.9036 0.212802 16.4816 0.641459 14.1455C1.15585 11.3378 2.80617 8.85156 5.22808 7.35126L14.0798 1.693C19.1166 -1.52193 26.0822 -0.0216312 29.6186 5.03652Z" fill="#FF3E00"/>
<path d="M13.2012 33.4779C13.8442 33.3064 14.4443 33.0492 15.0015 32.6849L23.8533 27.048C25.3107 26.1264 26.3181 24.6476 26.6181 22.9544C26.9182 21.2397 26.5324 19.4608 25.5036 18.0248C23.8319 15.6029 20.8098 14.4884 17.9593 15.2171C17.3163 15.3886 16.7162 15.6458 16.1589 16.0101L12.7725 18.1534C12.6011 18.2606 12.4296 18.3463 12.2367 18.3892C11.3794 18.6035 10.4578 18.282 9.96478 17.5533C9.66472 17.1246 9.53612 16.5888 9.62185 16.0744C9.70758 15.56 10.0077 15.1099 10.4578 14.8528L19.3095 9.21593C19.481 9.10877 19.6525 9.02304 19.8453 8.98017C20.7027 8.76584 21.6243 9.08733 22.1172 9.81605C22.3959 10.2018 22.5245 10.6734 22.4816 11.1234V11.4449C22.4602 11.4449 22.7816 11.5521 22.7816 11.5521C24.0247 11.9379 25.2036 12.5166 26.2538 13.2882L26.7039 13.6311L26.8753 13.1167C26.961 12.8381 27.0253 12.5594 27.0896 12.2808C27.3897 10.5662 27.0039 8.78728 25.9751 7.35128C24.3034 4.92937 21.2813 3.81486 18.4308 4.54358C17.7878 4.71504 17.1877 4.97223 16.6304 5.33659L7.77863 10.9734C6.3212 11.895 5.31385 13.3739 5.01379 15.0671C4.71373 16.7817 5.09953 18.5606 6.1283 19.9966C7.80006 22.4185 10.8221 23.533 13.6727 22.8043C14.3157 22.6329 14.9158 22.3757 15.4731 22.0113L18.8594 19.8466C19.0309 19.7394 19.2024 19.6537 19.3953 19.6108C20.2526 19.3965 21.1742 19.718 21.6671 20.4467C21.9672 20.8754 22.0958 21.4112 22.0101 21.9256C21.9243 22.44 21.6243 22.8901 21.1742 23.1687L12.3224 28.8055C12.151 28.9127 11.9795 28.9984 11.7866 29.0413C10.9293 29.2556 10.0077 28.9341 9.51469 28.2054C9.23606 27.8196 9.10746 27.3481 9.15033 26.898V26.5765C9.17176 26.5765 8.85027 26.4693 8.85027 26.4693C7.60717 26.0836 6.42836 25.5049 5.37815 24.7333L4.92806 24.3904L4.7566 24.9047C4.67087 25.1834 4.60657 25.462 4.54227 25.7406C4.24221 27.4553 4.628 29.2342 5.65678 30.6702C7.32854 33.0921 10.3506 34.2066 13.2012 33.4779Z" fill="white"/>
<path d="M51.8656 27.4124C50.5368 27.4552 49.2294 27.0695 48.1363 26.3622C47.1075 25.6763 46.336 24.6475 45.9502 23.4687L48.222 22.6329C48.5435 23.3616 49.0579 23.9831 49.7009 24.4332C50.3653 24.8833 51.1583 25.1191 51.9514 25.0976C52.7229 25.1405 53.4731 24.9047 54.0946 24.4547C54.6305 24.0046 54.9305 23.2973 54.8877 22.59C54.8877 22.2685 54.8234 21.947 54.6733 21.647C54.5447 21.3898 54.3733 21.154 54.1804 20.9397C53.9232 20.7039 53.6446 20.511 53.3231 20.361C52.9373 20.1681 52.6158 20.0181 52.3586 19.9109C52.1014 19.8037 51.737 19.6751 51.2226 19.5037C50.6011 19.2893 50.1296 19.1179 49.8295 18.9893C49.4009 18.8178 48.9936 18.6035 48.6078 18.3677C48.1792 18.1534 47.7934 17.8533 47.4719 17.5104C47.1933 17.1675 46.9575 16.8031 46.786 16.3745C46.1216 14.767 46.5717 12.9238 47.8791 11.8093C48.8007 10.9948 50.0653 10.5876 51.6727 10.5876C53.0016 10.5876 54.0946 10.8877 54.952 11.4664C55.7878 12.0236 56.388 12.8595 56.688 13.8025L54.459 14.5527C54.2447 14.0597 53.8589 13.6311 53.3874 13.3524C52.8087 13.031 52.1657 12.8809 51.5013 12.9024C50.8583 12.8595 50.2153 13.0524 49.6795 13.4167C49.2294 13.7597 48.9936 14.2955 49.0151 14.8527C49.0151 15.2814 49.208 15.6886 49.5294 15.9673C49.8295 16.2673 50.1939 16.5245 50.6011 16.696C50.9654 16.846 51.5441 17.0603 52.2943 17.3175C52.7658 17.489 53.1087 17.6176 53.3231 17.7033C53.5374 17.789 53.8803 17.9391 54.309 18.132C54.6519 18.282 54.9948 18.4749 55.3163 18.6678C55.5949 18.8821 55.8736 19.0964 56.1308 19.3322C56.4094 19.568 56.6451 19.868 56.838 20.1895C57.0095 20.511 57.1595 20.8754 57.2453 21.2397C57.3739 21.6684 57.4167 22.1185 57.4167 22.5471C57.4167 24.0689 56.9023 25.2477 55.8521 26.105C54.8234 26.9623 53.4731 27.3909 51.8656 27.3909V27.4124ZM66.74 27.1338L61.1675 10.8877H63.7608L67.4473 22.2256C67.6616 22.8258 67.8116 23.4473 67.9617 24.0903C68.0903 23.4687 68.2617 22.8472 68.4761 22.2256L72.1196 10.8877H74.6916L69.1405 27.1338H66.7186H66.74ZM79.6426 27.1338V10.8877H89.716V13.1596H82.043V17.6176H86.994V19.8895H82.043V24.8619H90.2089V27.1338H79.6211H79.6426ZM96.3816 27.1338V10.8877H98.8035V24.819H106.755V27.1338H96.403H96.3816ZM115.843 13.2024V27.1338H113.421V13.2024H108.813V10.8877H120.43V13.2024H115.821H115.843ZM125.423 27.1338V10.8877H135.497V13.1596H127.824V17.6176H132.775V19.8895H127.824V24.8619H135.99V27.1338H125.402H125.423Z" fill="#191C22"/>
</svg>
