<svg height="500" width="1442" xmlns="http://www.w3.org/2000/svg" xmlns:xlink="http://www.w3.org/1999/xlink"><defs><path id="a" d="M.847 0h1440v500H.847z"/><mask id="b" fill="#fff"><use fill-rule="evenodd" xlink:href="#a"/></mask></defs><g fill="none" fill-rule="evenodd" transform="translate(.153)"><use fill="#f4f6f8" xlink:href="#a"/><g fill-rule="nonzero"><g fill="#dbe9f7" mask="url(#b)" opacity=".7"><path d="M1429.875 369.034l-164.666 78.022 145.737-109.099a823.243 823.243 0 0 0-79.572-104.829L617.237 410.834l645.067-246.353A822.366 822.366 0 0 0 1168.63 93L80.455 268.478C-35.082 413.122-98.065 592.794-98.153 778h1638a816.738 816.738 0 0 0-109.972-408.966zm-350.028-326.47A815.394 815.394 0 0 0 721.169-40C468.214-40 242.059 74.733 91.847 255c257.225-56.376 705.074-153.966 988-212.436z"/></g><g mask="url(#b)"><g transform="translate(438.847 31)"><path d="M549.848 438.438H18.066c-9.848 0-17.83-7.984-17.83-17.833 192.77-22.406 381.918-22.406 567.443 0 0 9.849-7.984 17.833-17.831 17.833z" fill="#ccc"/><path d="M567.679 421.654L.235 420.604 66 309.938l.315-.525v-243.9a22.542 22.542 0 0 1 22.54-22.543h387.057a22.54 22.54 0 0 1 22.54 22.543V311.09z" fill="#c4c4c4"/><path d="M88.341 58.704a7.35 7.35 0 0 0-7.342 7.343v222.385a7.351 7.351 0 0 0 7.342 7.343h391.232a7.351 7.351 0 0 0 7.342-7.343V66.047a7.351 7.351 0 0 0-7.342-7.343z" fill="#fff"/><path d="M90.912 325.147a3.155 3.155 0 0 0-2.859 1.831L67.79 371.036a3.147 3.147 0 0 0 2.859 4.462h426.144a3.146 3.146 0 0 0 2.814-4.554l-22.027-44.058a3.13 3.13 0 0 0-2.814-1.74z" fill="#e6e6e6"/><ellipse cx="282.384" cy="50.312" fill="#fff" rx="4.72" ry="4.72"/><path d="M240.497 383.89a3.152 3.152 0 0 0-3.038 2.329l-5.083 18.881a3.147 3.147 0 0 0 3.038 3.966h96.668a3.146 3.146 0 0 0 2.973-4.177l-6.535-18.881a3.148 3.148 0 0 0-2.974-2.118zm257.956-78.15v4.197H66l.325-.525v-3.672zm-53.378 9.612a.767.767 0 0 0-.74.567l-1.238 4.598a.766.766 0 0 0 .74.966h23.54a.766.766 0 0 0 .724-1.017l-1.592-4.598a.767.767 0 0 0-.724-.516zm-34.372 0a.767.767 0 0 0-.74.567l-1.238 4.598a.766.766 0 0 0 .74.966h23.54a.766.766 0 0 0 .724-1.017l-1.591-4.598a.767.767 0 0 0-.724-.516z" fill="#e6e6e6"/><path d="M29.018 101.384a2.15 2.15 0 0 0-2.148 2.149v88.802a2.15 2.15 0 0 0 2.148 2.149h205.514a2.15 2.15 0 0 0 2.148-2.149v-88.802a2.15 2.15 0 0 0-2.148-2.149z" fill="#453b69"/><g fill="#fff"><ellipse cx="84.51" cy="147.934" rx="20.853" ry="20.855"/><path d="M131.574 145.16a2.439 2.439 0 0 0 0 4.876h65.84a2.438 2.438 0 1 0 0-4.877zm0-14.128a2.439 2.439 0 0 0 0 4.877h32.88a2.438 2.438 0 1 0 0-4.877zm0 28.928a2.439 2.439 0 0 0 0 4.877h65.84a2.438 2.438 0 1 0 0-4.877z"/></g><path d="M631.064 170.832l-168.812-23.405a5.019 5.019 0 0 1-4.276-5.654L476.953 4.865a5.018 5.018 0 0 1 5.653-4.277l168.812 23.405a5.019 5.019 0 0 1 4.277 5.654l-18.978 136.907a5.019 5.019 0 0 1-5.653 4.278z" fill="#453b69"/><path d="M570.588 128.105l-86.183-11.95a1.773 1.773 0 0 1-.318-.07l50.548-64.959a2.881 2.881 0 0 1 4.968.69l20.787 51.177.996 2.45z" fill="#fff"/><path d="M618.574 134.758l-74.54-10.335 17.352-18.98 1.25-1.368 22.612-24.736a3.845 3.845 0 0 1 5.7.445c.083.12.158.246.225.376z" fill="#fff"/><ellipse cx="571.636" cy="60.288" fill="#fff" rx="12.889" ry="12.891"/><path d="M485.486 11.113l15.604 2.163-2.163 15.606-15.604-2.163z" fill="#fff"/></g></g><g mask="url(#b)"><path d="M1023.877 193.887c-9.721 0-17.602 8.867-17.602 19.805v13.896h4.216l2.44-5.149-.61 5.149h27.097l2.218-4.68-.554 4.68h3.05v-10.911c0-12.586-9.068-22.79-20.255-22.79z" fill="#2f2e41"/><g fill="#ffb8b8" transform="translate(969.847 186)"><path d="M53.571 216.544l8.402 21.477 10.17 5.053-7.96-26.53zm45 1.496l12.711 25.751 6.575-3.928-9.642-26.187z"/><ellipse cx="51.071" cy="25.455" rx="11.786" ry="11.831"/><path d="M48.571 34.957s4.422 11.443 1.77 14.524c-2.654 3.08 16.802-4.842 16.802-4.842s-8.402-10.122-7.96-14.524z"/><path d="M63.783 43.364L70.2 42.07l6.417-7.764s2.994-10.783 6.844-13.802V19.21S63.783 6.27 57.794 6.7c0 0-20.104 6.039-16.254 0 1.083-1.698 2.944-3.056 5.06-4.13a24.644 24.644 0 0 1 19.67-.98l27.884 10.286a11.269 11.269 0 0 1-.428 9.49c-2.567 5.175-11.55 31.918-11.55 31.918a120.317 120.317 0 0 0-5.56 13.371c-2.139 6.47-3.85 10.784-3.85 10.784l-36.36-.432 2.995-13.371s-2.994-5.607-7.272-6.039c0 0-30.798-12.077-32.081-19.41 0 0-.428-2.588 1.283-3.882 1.71-1.294 20.96-22.429 20.96-22.429S30.846.662 35.123 4.113c4.278 3.45-7.7 12.077-7.7 12.077S15.02 35.17 13.309 36.463c0 0 11.977 7.333 15.4 8.195s11.549 0 15.398 3.451c3.457.963 7.151.497 10.266-1.294 5.134-3.02 9.411-3.45 9.411-3.45z"/></g><path d="M1015.29 232.747l-6.44 17.195s-5.581 5.16-3.435 17.196c0 0 .86 11.177-1.717 14.617-2.576 3.439-38.213 42.559-4.294 125.099 0 0 22.756-4.3 39.93 3.009s45.513-7.738 45.513-7.738l-44.653-110.053s-1.289-22.784 6.01-33.102l-4.722-3.869s-5.582-13.756-4.723-18.055c0 0 1.717-8.598 2.576-9.458h-3.435l-4.723 11.177s-7.728 14.617-14.169 13.327c-6.44-1.29-1.288-10.318-1.288-10.318l2.147-8.597z" fill="#1580f2"/><path d="M1041.838 425.638s-9.717-3.937-10.419-2.816-4.124 7.901-4.124 7.901-13.26 13.56-2.566 15.255c10.693 1.695 11.976-4.237 11.976-4.237s.428-.424 2.139-.424 8.554-2.543 8.126-3.814c-.427-1.271-5.132-11.865-5.132-11.865zm46.213-3.017s-8.798 2.16-9.216 3.889-3.352 13.394-.838 14.258c2.513.865 6.283 2.16 7.54 1.729s4.19 5.617 10.473 4.32 9.216-2.16 8.798-2.592-2.095-6.913-7.122-9.506-9.635-12.098-9.635-12.098zm-59.527-223.501a9.422 9.422 0 0 0-7.436-3.799h-.353c-6.802 0-12.317 6.161-12.317 13.761h2.28l.368-2.804.54 2.804h13.518l1.132-2.372-.283 2.372h2.66c1.24 6.169-.543 12.337-5.35 18.506h4.53l2.265-4.745-.566 4.745h8.636l1.699-10.914c0-8.173-4.745-15.104-11.323-17.554z" fill="#2f2e41"/></g><g mask="url(#b)"><g transform="translate(362.847 99)"><path d="M29.366 24L26 40.47 41.707 52 49 30.588z" fill="#9f616a"/><circle cx="41.5" cy="24.5" fill="#9f616a" r="15.5"/><path d="M8.907 140.154c.07 4.936 21.247 59.871 18.306 67.024-4.635 4.81-14.605 30.41-18.864 37.239-.558 0-3.349 8.5-3.349 8.5s6.698 10.766 13.955 6.232c9.124-21.785 31.975-33.935 32.38-62.329 1.102 8.97 4.358 66.544 4.358 66.544s-.625.269 13.434 1.636c2.182-33.415 11.101-90.265-8.867-125.98-6.139-2.833-51.353 1.134-51.353 1.134z" fill="#1580f2"/><path d="M55.841 262c-.652 1.3-5.327 13.298-1.073 14.5 4.907 1.388 9.664-.556 9.664-.556s8.59 2.783 13.846-.754c2.453-2.543 1.896-4.855.725-6.532-1.205-1.671-3.059-2.707-5.067-2.831-2.668-.198-3.515-.71-3.82-1.977C69.668 262 55.84 262 55.84 262zM9.94 253s-12.141 3.806-9.585 8.246a16.764 16.764 0 0 0 6.98 6.391S9.868 278 16.897 278c3.515 0 4.713-1.982 5.032-3.965a6.834 6.834 0 0 0-1.673-5.545c-1.774-2.032-2.027-2.985-1.37-4.072C19.843 262.832 9.939 253 9.939 253z" fill="#2f2e41"/><path d="M63 143.763s-2.254 4.566-11.261 2.852c-9.007-1.71-44.47 0-44.47 0s1.967-40.813-2.536-65.36C.229 56.708 17.96 42.723 17.96 42.723l5.63-5.71c5.631-.566 17.52 17.15 17.52 17.15 3.913.666 7.566 17.53 10.682 33.488.184.913.358 1.814.531 2.715 1.436 7.44 3.436 15.722 4.634 23.157.086.527.168 1.05.243 1.572A275.119 275.119 0 0 0 63 143.763z" fill="#e6e6e6"/><path d="M23.88 15.092s-2.878-6.355 4.607-9.243c0 0 6.333-10.398 18.998-3.466 0 0 8.636 3.466 8.636 12.709S59 26.068 59 26.068s-4.287-4.413-5.438-7.879c-1.152-3.466-10.107-4.252-13.56-.786-3.455 3.466-12.091 2.888-12.091 2.888L28.487 33s-2.88-7.51-4.03-7.51c-1.152 0-2.303-10.398-.576-10.398z" fill="#2f2e41"/><path d="M57 112c-13.399-7.387-35.102-23.585-42.104-32.348-9.23-11.544.838-20.317.838-20.317C27.148 52.03 40.795 77.09 40.795 77.09l11.052 9.092c.184.91.357 1.81.53 2.709C53.81 96.317 55.805 104.58 57 112z" fill="#000" opacity=".2"/><path d="M98 104.499s19.431 8.543 22.63-1.06C123.826 93.835 105.287 94 105.287 94l-7.278 1.117z" fill="#9f616a"/><path d="M12.763 56.468s-10.129 8.782-.845 20.325C21.2 88.336 63.863 113 63.863 113l27.79-7.572 7.864 1.45L101 91.996l-11.586 1.14-29.41-6.312-18.753-15.339s-17.003-22.32-28.488-15.017z" fill="#e6e6e6"/><path d="M49.422 161L51 202l-4-41z" fill="#000" opacity=".2"/></g></g></g></g></svg>