<svg viewBox="0 0 710 150" alt="{{include.alt}}" class="{{include.class}}">
  <path d="M55 75.3c0-36 28.3-64.4 64.7-64.4 19.3 0 37.2 8.3 48.5 22.3 2.1 2.6 2.8 4.3 2.8 6.2 0 3.6-3.2 6.6-7 6.6-2.5 0-4.5-.9-6.2-3-9.8-12.3-22.6-18.5-37.9-18.5-28.3 0-49.6 21.9-49.6 50.8s21.3 50.8 49.6 50.8c15.3 0 28.1-6.4 37.9-18.5 1.7-2.1 3.8-3 6.2-3 3.8 0 7 3 7 6.6 0 1.9-.8 3.6-2.8 6.2-10.9 14-29.1 22.3-48.5 22.3-36.4-.1-64.7-28.4-64.7-64.4zM198.1 131.7V20.6c0-4.3 3-7.7 7.4-7.7 4.2 0 7.4 3.4 7.4 7.7v105.7h53c4 0 6.8 2.8 6.8 6.6 0 3.6-2.8 6.6-6.8 6.6h-60c-4.6 0-7.8-3.4-7.8-7.8zM533.6 133c0 3.6-3 6.6-7 6.6-2.3 0-4.3-1.3-6.4-4l-37.6-50.4h-28.3V132c0 4.2-3.2 7.5-7.4 7.5-4.3 0-7.4-3.4-7.4-7.5V20.6c0-4.2 3.2-7.5 7.5-7.5h36.2c23.8 0 39.8 14.5 39.8 36 0 16.6-9.4 29.1-24.7 34l32.7 44.4c1.7 1.8 2.6 3.7 2.6 5.5zm-79.2-60.9h28.5c15.7 0 25.1-8.7 25.1-22.8 0-14-9.6-23-25.1-23h-28.5v45.8zM576.5 18.7v113.2c0 4.3-3.2 7.7-7.4 7.7-4.3 0-7.4-3.4-7.4-7.7V18.7c0-4.3 3-7.7 7.4-7.7 4.2-.1 7.4 3.3 7.4 7.7zM655 133c0 3.6-3 6.6-6.8 6.6-1.9 0-3.8-.9-5.9-3l-59.5-60.8c-1.3-1.5-2.3-3.2-2.3-5.1s.9-3.6 2.5-5.3l54-51.5c2.3-2.1 3.8-3 5.7-3 3.8 0 6.8 3 6.8 6.6 0 2.1-.9 3.8-3.2 5.9l-49.4 47.4 55.3 56.8c2 1.7 2.8 3.2 2.8 5.4zM410.8 127.8L363 16c-1.5-3.4-3.8-5.1-7-5.1s-5.5 1.7-7 5.1l-47.8 111.7c-.8 1.9-1.1 3.4-1.1 4.7 0 3.8 3.2 7.2 7.2 7.2 3.2 0 5.7-1.9 7-4.9l9.1-21.7.3-.8 5.5-13.2L356 33l26 66.1 5.7 13.2 10 22.5c1.5 3 3.8 4.9 7.2 4.9 3.8 0 7.2-3.4 7.2-7.2 0-1.3-.4-2.9-1.3-4.7z" fill="#2b6cde"/>
</svg>