<svg viewBox="0 0 80 95" class="{{include.class}}">
<path d="M69.763,63.902c0,3.557 -13.513,6.439 -30.183,6.439c-16.67,0 -30.184,-2.882 -30.184,-6.439c0,-3.556 13.514,-6.439 30.184,-6.439c16.67,0 30.183,2.883 30.183,6.439Z" style="fill:#d5d9d8;fill-rule:nonzero;"/><rect x="47.43" y="6.966" width="2.675" height="7.003" style="fill:#d5d9d8;fill-rule:nonzero;"/><path d="M49.321,8.864l-1.891,-1.892l4.952,-4.951l1.891,1.891l-4.952,4.952Z" style="fill:#d5d9d8;fill-rule:nonzero;"/><path d="M53.391,5.905l-0.099,0c-1.631,0 -2.953,-1.322 -2.953,-2.953c0,-1.63 1.322,-2.952 2.953,-2.952l0.099,0c1.631,0 2.953,1.322 2.953,2.952c0,1.631 -1.322,2.953 -2.953,2.953Z" style="fill:#58595b;fill-rule:nonzero;"/><rect x="28.706" y="6.966" width="2.675" height="7.003" style="fill:#d5d9d8;fill-rule:nonzero;"/><path d="M29.49,8.864l1.892,-1.892l-4.952,-4.951l-1.891,1.891l4.951,4.952Z" style="fill:#d5d9d8;fill-rule:nonzero;"/><path d="M24.96,5.905l0.099,0c1.63,0 2.952,-1.322 2.952,-2.953c0,-1.63 -1.322,-2.952 -2.952,-2.952l-0.099,0c-1.631,0 -2.953,1.322 -2.953,2.952c0,1.631 1.322,2.953 2.953,2.953Z" style="fill:#58595b;fill-rule:nonzero;"/><path d="M30.203,11.596l-0.005,0c-1.935,0 -3.504,0.321 -3.504,0.716l0,1.664l3.509,0l0,-2.38Z" style="fill:#a7a9ac;fill-rule:nonzero;"/><path d="M30.203,11.596l0.005,0c1.935,0 3.504,0.321 3.504,0.716l0,1.664l-3.509,0l0,-2.38Z" style="fill:#d5d9d8;fill-rule:nonzero;"/><path d="M48.78,11.596l-0.005,0c-1.935,0 -3.504,0.321 -3.504,0.716l0,1.664l3.509,0l0,-2.38Z" style="fill:#a7a9ac;fill-rule:nonzero;"/><path d="M48.78,11.596l0.005,0c1.935,0 3.504,0.321 3.504,0.716l0,1.664l-3.509,0l0,-2.38Z" style="fill:#d5d9d8;fill-rule:nonzero;"/><path d="M39.488,13.976l-24.003,0c-0.387,0 -0.691,0.332 -0.657,0.718l4.326,47.024c0.024,0.275 0.216,0.506 0.481,0.579l19.853,5.513l0,0.002l0.003,-0.001l0.004,0.001l0,-0.002l19.852,-5.513c0.266,-0.073 0.458,-0.304 0.482,-0.579l4.326,-47.024c0.034,-0.386 -0.271,-0.718 -0.658,-0.718l-24.002,0l-0.007,0Z" style="fill:#a7a9ac;fill-rule:nonzero;"/><path d="M40.152,18.245l18.922,0c0.388,0 0.692,0.332 0.658,0.719l-3.69,39.91c-0.024,0.275 -0.216,0.506 -0.482,0.58l-15.231,4.219c-0.421,0.117 -0.838,-0.2 -0.838,-0.637l0,-44.13c0,-0.365 0.296,-0.661 0.661,-0.661Z" style="fill:#d5d9d8;fill-rule:nonzero;"/><path d="M9.5,35.303c0,4.322 3.446,7.826 7.697,7.826l0.258,0c4.25,0 7.697,-3.504 7.697,-7.826l-15.652,0Z" style="fill:#58595b;fill-rule:nonzero;"/><path d="M17.229,41.172l0.194,0c3.188,0 5.772,-2.628 5.772,-5.869l-11.738,0c0,3.241 2.584,5.869 5.772,5.869Z" style="fill:#fff;fill-rule:nonzero;"/><path d="M17.261,39.216l0.129,0c2.126,0 3.849,-1.752 3.849,-3.913l-7.827,0c0,2.161 1.724,3.913 3.849,3.913Z" style="fill:#58595b;fill-rule:nonzero;"/><path d="M17.455,27.477l-0.258,0c-4.251,0 -7.697,3.504 -7.697,7.826l15.652,0c0,-4.322 -3.446,-7.826 -7.697,-7.826Z" style="fill:#a7a9ac;fill-rule:nonzero;"/><path d="M45.449,44.105c0,3.241 -2.584,5.869 -5.772,5.869l-0.194,0c-3.188,0 -5.773,-2.628 -5.773,-5.869l-1.956,0c0,4.322 3.446,7.826 7.697,7.826l0.258,0c4.25,0 7.697,-3.504 7.697,-7.826l-1.957,0Z" style="fill:#58595b;fill-rule:nonzero;"/><path d="M33.706,44.105c0,0.539 -0.437,0.976 -0.976,0.976c-0.539,0 -0.976,-0.437 -0.976,-0.976c0,-0.539 0.437,-0.976 0.976,-0.976c0.539,0 0.976,0.437 0.976,0.976Z" style="fill:#58595b;fill-rule:nonzero;"/><path d="M47.406,44.105c0,0.539 -0.437,0.976 -0.976,0.976c-0.539,0 -0.976,-0.437 -0.976,-0.976c0,-0.539 0.437,-0.976 0.976,-0.976c0.539,0 0.976,0.437 0.976,0.976Z" style="fill:#58595b;fill-rule:nonzero;"/><path d="M54.008,35.303c0,4.322 3.446,7.826 7.697,7.826l0.258,0c4.25,0 7.697,-3.504 7.697,-7.826l-15.652,0Z" style="fill:#58595b;fill-rule:nonzero;"/><path d="M61.737,41.172l0.194,0c3.187,0 5.772,-2.628 5.772,-5.869l-11.739,0c0,3.241 2.585,5.869 5.773,5.869Z" style="fill:#fff;fill-rule:nonzero;"/><path d="M61.769,39.216l0.129,0c2.126,0 3.849,-1.752 3.849,-3.913l-7.826,0c0,2.161 1.723,3.913 3.848,3.913Z" style="fill:#58595b;fill-rule:nonzero;"/><path d="M61.963,27.477l-0.258,0c-4.251,0 -7.697,3.504 -7.697,7.826l15.652,0c0,-4.322 -3.447,-7.826 -7.697,-7.826Z" style="fill:#a7a9ac;fill-rule:nonzero;"/><path d="M1.242,87.206c0,-0.421 -0.099,-0.763 -0.295,-1.03c-0.197,-0.266 -0.512,-0.399 -0.947,-0.399l0,-1.48c0.435,0 0.75,-0.133 0.947,-0.399c0.196,-0.264 0.295,-0.608 0.295,-1.029c0,-0.326 -0.022,-0.648 -0.067,-0.969c-0.046,-0.321 -0.096,-0.642 -0.155,-0.968c-0.059,-0.325 -0.11,-0.65 -0.157,-0.979c-0.044,-0.326 -0.066,-0.66 -0.066,-0.999c0,-0.524 0.076,-1.001 0.228,-1.434c0.152,-0.429 0.384,-0.802 0.697,-1.112c0.316,-0.31 0.712,-0.551 1.192,-0.719c0.48,-0.169 1.043,-0.255 1.693,-0.255l0.55,0l0,1.139c0,0.091 -0.021,0.169 -0.058,0.234l-0.145,0.161l-0.182,0.092l-0.165,0.032l-0.094,0c-0.482,0 -0.853,0.152 -1.107,0.455c-0.255,0.303 -0.383,0.721 -0.383,1.252c0,0.381 0.021,0.745 0.061,1.092c0.042,0.349 0.084,0.688 0.131,1.016c0.044,0.327 0.088,0.651 0.128,0.967c0.043,0.317 0.063,0.639 0.063,0.963c0,0.262 -0.036,0.512 -0.11,0.746c-0.07,0.234 -0.178,0.447 -0.32,0.637c-0.141,0.189 -0.31,0.357 -0.507,0.502c-0.197,0.145 -0.42,0.251 -0.669,0.32c0.249,0.076 0.472,0.186 0.669,0.327c0.197,0.142 0.366,0.309 0.507,0.502c0.142,0.192 0.25,0.406 0.32,0.642c0.074,0.235 0.11,0.479 0.11,0.735c0,0.323 -0.02,0.645 -0.063,0.962c-0.04,0.319 -0.084,0.64 -0.128,0.969c-0.047,0.327 -0.089,0.666 -0.131,1.014c-0.04,0.349 -0.061,0.713 -0.061,1.092c0,0.524 0.128,0.939 0.383,1.242c0.254,0.304 0.625,0.457 1.107,0.457l0.094,0l0.165,0.03l0.182,0.093l0.145,0.167l0.058,0.237l0,1.129l-0.55,0c-0.65,0 -1.213,-0.086 -1.693,-0.254c-0.48,-0.169 -0.876,-0.408 -1.192,-0.715c-0.313,-0.306 -0.545,-0.675 -0.697,-1.107c-0.152,-0.431 -0.228,-0.91 -0.228,-1.434c0,-0.338 0.022,-0.672 0.066,-0.999c0.047,-0.328 0.098,-0.654 0.157,-0.979c0.059,-0.323 0.109,-0.649 0.155,-0.972c0.045,-0.325 0.067,-0.649 0.067,-0.974Z" style="fill:#a7a9ac;fill-rule:nonzero;"/><path d="M78.089,88.18c0.045,0.323 0.096,0.649 0.155,0.972c0.059,0.325 0.109,0.651 0.156,0.979c0.044,0.327 0.066,0.661 0.066,0.999c0,0.524 -0.076,1.003 -0.228,1.434c-0.151,0.432 -0.384,0.801 -0.697,1.107c-0.315,0.307 -0.711,0.546 -1.191,0.715c-0.481,0.168 -1.043,0.254 -1.694,0.254l-0.549,0l0,-1.129l0.057,-0.237l0.145,-0.167l0.182,-0.093l0.165,-0.03l0.094,0c0.482,0 0.853,-0.153 1.108,-0.457c0.254,-0.303 0.382,-0.718 0.382,-1.242c0,-0.379 -0.02,-0.743 -0.061,-1.092c-0.042,-0.348 -0.084,-0.687 -0.131,-1.014c-0.044,-0.329 -0.088,-0.65 -0.128,-0.969c-0.042,-0.317 -0.062,-0.639 -0.062,-0.962c0,-0.256 0.035,-0.5 0.109,-0.735c0.071,-0.236 0.179,-0.45 0.32,-0.642c0.142,-0.193 0.31,-0.36 0.507,-0.502c0.198,-0.141 0.42,-0.251 0.669,-0.327c-0.249,-0.069 -0.471,-0.175 -0.669,-0.32c-0.197,-0.145 -0.365,-0.313 -0.507,-0.502c-0.141,-0.19 -0.249,-0.403 -0.32,-0.637c-0.074,-0.234 -0.109,-0.484 -0.109,-0.746c0,-0.324 0.02,-0.646 0.062,-0.963c0.04,-0.316 0.084,-0.64 0.128,-0.967c0.047,-0.328 0.089,-0.667 0.131,-1.016c0.041,-0.347 0.061,-0.711 0.061,-1.092c0,-0.531 -0.128,-0.949 -0.382,-1.252c-0.255,-0.303 -0.626,-0.455 -1.108,-0.455l-0.094,0l-0.165,-0.032l-0.182,-0.092l-0.145,-0.161c-0.037,-0.065 -0.057,-0.143 -0.057,-0.234l0,-1.139l0.549,0c0.651,0 1.213,0.086 1.694,0.255c0.48,0.168 0.876,0.409 1.191,0.719c0.313,0.31 0.546,0.683 0.697,1.112c0.152,0.433 0.228,0.91 0.228,1.434c0,0.339 -0.022,0.673 -0.066,0.999c-0.047,0.329 -0.097,0.654 -0.156,0.979c-0.059,0.326 -0.11,0.647 -0.155,0.968c-0.046,0.321 -0.068,0.643 -0.068,0.969c0,0.421 0.1,0.765 0.295,1.029c0.197,0.266 0.512,0.399 0.947,0.399l0,1.48c-0.435,0 -0.75,0.133 -0.947,0.399c-0.195,0.267 -0.295,0.609 -0.295,1.03c0,0.325 0.022,0.649 0.068,0.974Z" style="fill:#a7a9ac;fill-rule:nonzero;"/><path d="M17.156,90.033c-0.451,0.181 -0.886,0.315 -1.306,0.403c-0.422,0.088 -0.86,0.132 -1.315,0.132c-0.729,0 -1.373,-0.107 -1.934,-0.322c-0.561,-0.214 -1.034,-0.534 -1.419,-0.958c-0.385,-0.423 -0.677,-0.949 -0.876,-1.577c-0.199,-0.628 -0.299,-1.359 -0.299,-2.191c0,-0.853 0.109,-1.611 0.326,-2.276c0.217,-0.664 0.527,-1.225 0.93,-1.682c0.403,-0.458 0.893,-0.807 1.47,-1.047c0.576,-0.24 1.222,-0.36 1.942,-0.36c0.232,0 0.451,0.005 0.655,0.015c0.203,0.01 0.405,0.03 0.601,0.058c0.196,0.029 0.395,0.066 0.597,0.113c0.202,0.046 0.41,0.106 0.628,0.178l0,1.892c-0.439,-0.207 -0.858,-0.354 -1.257,-0.442c-0.397,-0.088 -0.759,-0.132 -1.086,-0.132c-0.479,0 -0.89,0.087 -1.231,0.26c-0.342,0.173 -0.622,0.416 -0.842,0.729c-0.22,0.312 -0.381,0.685 -0.484,1.116c-0.104,0.432 -0.155,0.906 -0.155,1.423c0,0.548 0.053,1.038 0.159,1.469c0.106,0.432 0.269,0.798 0.492,1.098c0.221,0.299 0.507,0.528 0.853,0.686c0.346,0.157 0.757,0.236 1.233,0.236c0.169,0 0.354,-0.017 0.553,-0.05c0.2,-0.034 0.402,-0.078 0.606,-0.132c0.204,-0.054 0.406,-0.119 0.605,-0.194c0.198,-0.075 0.383,-0.151 0.554,-0.229l0,1.784Z" style="fill:#808285;fill-rule:nonzero;"/><path d="M24.305,86.474c0,-0.817 -0.154,-1.431 -0.461,-1.842c-0.308,-0.411 -0.761,-0.616 -1.361,-0.616c-0.331,0 -0.613,0.065 -0.845,0.194c-0.233,0.129 -0.424,0.306 -0.574,0.531c-0.15,0.225 -0.26,0.487 -0.33,0.787c-0.069,0.3 -0.104,0.62 -0.104,0.961c0,0.822 0.165,1.441 0.496,1.857c0.331,0.417 0.783,0.625 1.357,0.625c0.315,0 0.589,-0.064 0.822,-0.19c0.232,-0.127 0.421,-0.303 0.566,-0.528c0.145,-0.225 0.253,-0.489 0.325,-0.794c0.073,-0.305 0.109,-0.634 0.109,-0.985Zm1.969,-0.047c0,0.621 -0.087,1.188 -0.263,1.702c-0.176,0.515 -0.429,0.955 -0.76,1.322c-0.331,0.367 -0.737,0.652 -1.217,0.853c-0.481,0.202 -1.029,0.303 -1.644,0.303c-0.584,0 -1.106,-0.086 -1.566,-0.256c-0.46,-0.171 -0.851,-0.425 -1.171,-0.764c-0.321,-0.339 -0.566,-0.762 -0.737,-1.272c-0.17,-0.509 -0.256,-1.102 -0.256,-1.779c0,-0.626 0.089,-1.194 0.268,-1.706c0.178,-0.512 0.434,-0.948 0.767,-1.31c0.334,-0.362 0.741,-0.643 1.222,-0.842c0.48,-0.199 1.023,-0.298 1.628,-0.298c0.589,0 1.114,0.086 1.574,0.26c0.46,0.173 0.85,0.43 1.171,0.771c0.32,0.341 0.564,0.764 0.732,1.268c0.168,0.504 0.252,1.087 0.252,1.748Z" style="fill:#808285;fill-rule:nonzero;"/><path d="M29.407,86.551c0,0.435 0.03,0.806 0.089,1.113c0.06,0.308 0.147,0.56 0.264,0.756c0.116,0.196 0.26,0.34 0.43,0.43c0.171,0.091 0.365,0.136 0.582,0.136c0.32,0 0.625,-0.129 0.915,-0.388c0.289,-0.258 0.597,-0.612 0.922,-1.062l0,-3.443c-0.15,-0.056 -0.334,-0.103 -0.554,-0.139c-0.22,-0.036 -0.441,-0.054 -0.663,-0.054c-0.305,0 -0.579,0.062 -0.822,0.186c-0.243,0.124 -0.451,0.3 -0.624,0.527c-0.173,0.227 -0.306,0.505 -0.399,0.833c-0.093,0.329 -0.14,0.697 -0.14,1.105Zm3.458,3.877l-0.046,-1.163c-0.166,0.202 -0.336,0.385 -0.512,0.551c-0.176,0.165 -0.365,0.306 -0.566,0.422c-0.202,0.117 -0.418,0.207 -0.648,0.272c-0.23,0.064 -0.484,0.097 -0.763,0.097c-0.466,0 -0.879,-0.093 -1.241,-0.28c-0.362,-0.186 -0.665,-0.451 -0.911,-0.794c-0.246,-0.344 -0.433,-0.761 -0.562,-1.252c-0.129,-0.492 -0.194,-1.04 -0.194,-1.644c0,-0.724 0.102,-1.351 0.306,-1.881c0.204,-0.529 0.487,-0.969 0.849,-1.318c0.362,-0.349 0.791,-0.607 1.287,-0.775c0.497,-0.168 1.037,-0.252 1.621,-0.252c0.196,0 0.394,0.013 0.593,0.039c0.199,0.026 0.376,0.059 0.531,0.1l0,-3.078l1.892,0l0,10.956l-1.636,0Z" style="fill:#808285;fill-rule:nonzero;"/><path d="M41.58,85.613c0.006,-0.31 -0.033,-0.58 -0.116,-0.81c-0.083,-0.23 -0.195,-0.42 -0.337,-0.57c-0.142,-0.15 -0.308,-0.261 -0.496,-0.333c-0.189,-0.073 -0.392,-0.109 -0.609,-0.109c-0.476,0 -0.866,0.159 -1.171,0.477c-0.305,0.318 -0.486,0.766 -0.543,1.345l3.272,0Zm1.923,0.272c0,0.129 -0.004,0.297 -0.011,0.504c-0.008,0.206 -0.02,0.4 -0.035,0.581l-5.18,0c0,0.346 0.053,0.651 0.159,0.915c0.106,0.264 0.256,0.485 0.45,0.663c0.194,0.178 0.426,0.314 0.698,0.407c0.271,0.093 0.572,0.14 0.903,0.14c0.383,0 0.792,-0.03 1.229,-0.09c0.437,-0.059 0.89,-0.156 1.361,-0.29l0,1.504c-0.202,0.057 -0.421,0.108 -0.659,0.155c-0.238,0.047 -0.481,0.088 -0.729,0.124c-0.248,0.036 -0.499,0.063 -0.752,0.081c-0.253,0.019 -0.499,0.028 -0.737,0.028c-0.599,0 -1.137,-0.086 -1.613,-0.256c-0.475,-0.171 -0.878,-0.423 -1.209,-0.756c-0.331,-0.334 -0.584,-0.746 -0.76,-1.237c-0.176,-0.491 -0.264,-1.06 -0.264,-1.706c0,-0.641 0.088,-1.224 0.264,-1.748c0.176,-0.525 0.424,-0.975 0.744,-1.349c0.321,-0.375 0.71,-0.665 1.167,-0.869c0.458,-0.204 0.968,-0.306 1.532,-0.306c0.558,0 1.052,0.086 1.481,0.26c0.429,0.173 0.788,0.414 1.077,0.725c0.29,0.31 0.51,0.679 0.659,1.108c0.15,0.429 0.225,0.9 0.225,1.412Z" style="fill:#808285;fill-rule:nonzero;"/><path d="M48.52,88.87c0.305,0 0.572,-0.039 0.803,-0.117c0.23,-0.077 0.422,-0.184 0.577,-0.321c0.155,-0.137 0.273,-0.299 0.353,-0.485c0.08,-0.186 0.12,-0.385 0.12,-0.597c0,-0.439 -0.164,-0.783 -0.492,-1.031c-0.328,-0.248 -0.831,-0.372 -1.508,-0.372l-1.187,0l0,2.923l1.334,0Zm1.52,-5.808c0,-0.191 -0.031,-0.364 -0.093,-0.519c-0.062,-0.155 -0.162,-0.287 -0.299,-0.396c-0.137,-0.108 -0.313,-0.192 -0.527,-0.252c-0.215,-0.059 -0.474,-0.089 -0.779,-0.089l-1.156,0l0,2.683l1.156,0c0.31,0 0.572,-0.038 0.787,-0.113c0.214,-0.074 0.39,-0.178 0.527,-0.31c0.137,-0.131 0.235,-0.283 0.295,-0.453c0.059,-0.171 0.089,-0.354 0.089,-0.551Zm-4.746,7.366l0,-10.134l3.273,0c1.152,0 2.017,0.202 2.593,0.605c0.577,0.403 0.865,1.013 0.865,1.83c0,0.253 -0.03,0.5 -0.089,0.74c-0.06,0.241 -0.152,0.462 -0.276,0.663c-0.124,0.202 -0.279,0.38 -0.465,0.535c-0.186,0.155 -0.406,0.277 -0.659,0.365c0.253,0.041 0.495,0.122 0.725,0.244c0.23,0.121 0.432,0.279 0.605,0.473c0.173,0.194 0.31,0.422 0.411,0.686c0.1,0.264 0.151,0.558 0.151,0.884c0,1.034 -0.346,1.811 -1.039,2.33c-0.693,0.52 -1.693,0.779 -3.001,0.779l-3.094,0Z" style="fill:#58595b;fill-rule:nonzero;"/><path d="M59.228,86.474c0,-0.817 -0.154,-1.431 -0.461,-1.842c-0.308,-0.411 -0.762,-0.616 -1.361,-0.616c-0.331,0 -0.613,0.065 -0.845,0.194c-0.233,0.129 -0.424,0.306 -0.574,0.531c-0.15,0.225 -0.26,0.487 -0.33,0.787c-0.069,0.3 -0.104,0.62 -0.104,0.961c0,0.822 0.165,1.441 0.496,1.857c0.331,0.417 0.783,0.625 1.357,0.625c0.315,0 0.589,-0.064 0.822,-0.19c0.232,-0.127 0.421,-0.303 0.566,-0.528c0.144,-0.225 0.253,-0.489 0.325,-0.794c0.073,-0.305 0.109,-0.634 0.109,-0.985Zm1.969,-0.047c0,0.621 -0.088,1.188 -0.263,1.702c-0.176,0.515 -0.429,0.955 -0.76,1.322c-0.331,0.367 -0.737,0.652 -1.217,0.853c-0.481,0.202 -1.029,0.303 -1.644,0.303c-0.584,0 -1.106,-0.086 -1.567,-0.256c-0.46,-0.171 -0.85,-0.425 -1.17,-0.764c-0.321,-0.339 -0.566,-0.762 -0.737,-1.272c-0.171,-0.509 -0.256,-1.102 -0.256,-1.779c0,-0.626 0.089,-1.194 0.268,-1.706c0.178,-0.512 0.434,-0.948 0.767,-1.31c0.334,-0.362 0.741,-0.643 1.222,-0.842c0.48,-0.199 1.023,-0.298 1.628,-0.298c0.589,0 1.114,0.086 1.574,0.26c0.46,0.173 0.85,0.43 1.171,0.771c0.32,0.341 0.564,0.764 0.732,1.268c0.168,0.504 0.252,1.087 0.252,1.748Z" style="fill:#58595b;fill-rule:nonzero;"/><path d="M69.331,90.351c-0.341,0.077 -0.685,0.139 -1.031,0.186c-0.347,0.046 -0.675,0.07 -0.985,0.07c-0.517,0 -0.963,-0.055 -1.337,-0.163c-0.375,-0.109 -0.685,-0.274 -0.931,-0.496c-0.245,-0.223 -0.426,-0.506 -0.543,-0.849c-0.116,-0.344 -0.174,-0.754 -0.174,-1.229l0,-3.846l-2.117,0l0,-1.474l2.117,0l0,-2.015l1.938,-0.504l0,2.519l3.063,0l0,1.474l-3.063,0l0,3.706c0,0.45 0.104,0.79 0.31,1.02c0.207,0.23 0.554,0.345 1.039,0.345c0.311,0 0.613,-0.026 0.908,-0.078c0.294,-0.052 0.563,-0.111 0.806,-0.178l0,1.512Z" style="fill:#58595b;fill-rule:nonzero;"/></svg>