<svg viewBox="0 0 319 97" class="{{include.class}}">
  <g><path d="M45.084,17.4c1.9,0 4,0 6.3,0c17.8,0.5 36.4,4.7 46.9,8.6c4.3,1.6 8.4,5.1 11.7,9.7c-3.5,-6.9 -8.8,-12.1 -14.3,-14.2c-10.5,-3.9 -29,-8.1 -46.9,-8.6c-2.3,-0.1 -4.4,-0.1 -6.3,0c-4.5,0.1 -7.1,5.1 -4.7,8.9c0.6,1 1.3,2.1 2.1,3.1c-1.3,-3.5 1.2,-7.4 5.2,-7.5Z" style="fill:#4d97ff;fill-rule:nonzero;"/><g><path d="M165.084,79.2c-0.5,0 -0.9,0.1 -1.2,0.3c-0.3,0.2 -0.5,0.5 -0.5,0.9c0,0.4 0.2,0.7 0.5,0.9c0.3,0.2 0.9,0.4 1.9,0.7c1,0.2 1.7,0.6 2.2,1c0.5,0.4 0.7,1.1 0.7,1.9c0,0.8 -0.3,1.5 -0.9,2c-0.6,0.5 -1.5,0.8 -2.5,0.8c-1.5,0 -2.8,-0.5 -4,-1.6l1,-1.2c1,0.8 2,1.3 3,1.3c0.5,0 0.9,-0.1 1.2,-0.3c0.3,-0.2 0.5,-0.5 0.5,-0.9c0,-0.4 -0.1,-0.7 -0.4,-0.9c-0.3,-0.2 -0.8,-0.4 -1.5,-0.6c-0.7,-0.2 -1.2,-0.3 -1.6,-0.5c-0.4,-0.1 -0.7,-0.3 -1,-0.6c-0.6,-0.4 -0.9,-1.1 -0.9,-2c0,-0.9 0.3,-1.6 1,-2.1c0.6,-0.5 1.4,-0.7 2.4,-0.7c0.6,0 1.2,0.1 1.8,0.3c0.6,0.2 1.1,0.5 1.6,0.9l-0.9,1.2c-0.3,-0.3 -0.7,-0.5 -1.2,-0.6c-0.3,-0.1 -0.8,-0.2 -1.2,-0.2Z" style="fill:#fff;fill-rule:nonzero;"/><path d="M177.484,84.6l-5.7,0c0,0.5 0.3,1 0.7,1.3c0.4,0.3 1,0.5 1.5,0.5c0.9,0 1.6,-0.3 2.1,-0.9l0.9,1c-0.8,0.8 -1.8,1.2 -3.1,1.2c-1,0 -1.9,-0.3 -2.6,-1c-0.7,-0.7 -1.1,-1.6 -1.1,-2.7c0,-1.1 0.4,-2.1 1.1,-2.7c0.7,-0.7 1.6,-1 2.6,-1c1,0 1.8,0.3 2.5,0.9c0.7,0.6 1,1.4 1,2.5l0,0.9l0.1,0Zm-5.7,-1.2l4.2,0c0,-0.6 -0.2,-1.1 -0.6,-1.4c-0.4,-0.3 -0.9,-0.5 -1.4,-0.5c-0.5,0 -1.1,0.2 -1.5,0.5c-0.5,0.3 -0.7,0.8 -0.7,1.4Z" style="fill:#fff;fill-rule:nonzero;"/><path d="M186.184,84.6l-5.7,0c0,0.5 0.3,1 0.7,1.3c0.4,0.3 1,0.5 1.5,0.5c0.9,0 1.6,-0.3 2.1,-0.9l0.9,1c-0.8,0.8 -1.8,1.2 -3.1,1.2c-1,0 -1.9,-0.3 -2.6,-1c-0.7,-0.7 -1.1,-1.6 -1.1,-2.7c0,-1.1 0.4,-2.1 1.1,-2.7c0.7,-0.7 1.6,-1 2.6,-1c1,0 1.8,0.3 2.5,0.9c0.7,0.6 1,1.4 1,2.5l0,0.9l0.1,0Zm-5.8,-1.2l4.2,0c0,-0.6 -0.2,-1.1 -0.6,-1.4c-0.4,-0.3 -0.9,-0.5 -1.4,-0.5c-0.6,0 -1.1,0.2 -1.5,0.5c-0.4,0.3 -0.7,0.8 -0.7,1.4Z" style="fill:#fff;fill-rule:nonzero;"/><path d="M193.684,86.6c-0.7,-0.7 -1,-1.6 -1,-2.7c0,-1.1 0.4,-2 1.1,-2.7c0.7,-0.7 1.5,-1 2.5,-1c1,0 1.8,0.4 2.4,1.2l0,-4l1.5,0l0,10.2l-1.5,0l0,-1.1c-0.6,0.8 -1.4,1.2 -2.5,1.2c-1,0 -1.8,-0.4 -2.5,-1.1Zm0.5,-2.7c0,0.7 0.2,1.3 0.7,1.7c0.4,0.4 1,0.7 1.6,0.7c0.6,0 1.1,-0.2 1.5,-0.7c0.4,-0.5 0.6,-1 0.6,-1.7c0,-0.7 -0.2,-1.3 -0.6,-1.7c-0.4,-0.5 -0.9,-0.7 -1.6,-0.7c-0.6,0 -1.1,0.2 -1.6,0.7c-0.4,0.5 -0.6,1 -0.6,1.7Z" style="fill:#fff;fill-rule:nonzero;"/><path d="M209.284,84.6l-5.7,0c0,0.5 0.3,1 0.7,1.3c0.4,0.3 1,0.5 1.5,0.5c0.9,0 1.6,-0.3 2.1,-0.9l0.9,1c-0.8,0.8 -1.8,1.2 -3.1,1.2c-1,0 -1.9,-0.3 -2.6,-1c-0.7,-0.7 -1.1,-1.6 -1.1,-2.7c0,-1.1 0.4,-2.1 1.1,-2.7c0.7,-0.7 1.6,-1 2.6,-1c1,0 1.8,0.3 2.5,0.9c0.7,0.6 1,1.4 1,2.5l0,0.9l0.1,0Zm-5.7,-1.2l4.2,0c0,-0.6 -0.2,-1.1 -0.6,-1.4c-0.4,-0.3 -0.9,-0.5 -1.4,-0.5c-0.5,0 -1.1,0.2 -1.5,0.5c-0.5,0.3 -0.7,0.8 -0.7,1.4Z" style="fill:#fff;fill-rule:nonzero;"/><path d="M212.984,81.5l0,3.7c0,0.3 0.1,0.6 0.3,0.8c0.2,0.2 0.4,0.3 0.8,0.3c0.3,0 0.6,-0.2 0.9,-0.5l0.6,1.1c-0.5,0.5 -1.1,0.7 -1.8,0.7c-0.7,0 -1.2,-0.2 -1.7,-0.7c-0.5,-0.5 -0.7,-1.1 -0.7,-1.8l0,-3.7l-0.9,0l0,-1.1l0.9,0l0,-2.3l1.5,0l0,2.3l1.9,0l0,1.2l-1.8,0Z" style="fill:#fff;fill-rule:nonzero;"/><path d="M222.884,87.6l-1.4,0l0,-1c-0.6,0.7 -1.4,1.1 -2.4,1.1c-0.8,0 -1.4,-0.2 -1.9,-0.6c-0.5,-0.4 -0.7,-1 -0.7,-1.7c0,-0.7 0.3,-1.3 0.8,-1.6c0.5,-0.4 1.2,-0.5 2.2,-0.5l2,0l0,-0.3c0,-1 -0.5,-1.5 -1.6,-1.5c-0.7,0 -1.4,0.2 -2.1,0.7l-0.7,-1c0.9,-0.7 1.9,-1.1 3,-1.1c0.9,0 1.6,0.2 2.1,0.7c0.5,0.4 0.8,1.1 0.8,2.1l0,4.7l-0.1,0Zm-1.5,-2.8l0,-0.6l-1.7,0c-1.1,0 -1.7,0.3 -1.7,1c0,0.4 0.1,0.6 0.4,0.8c0.3,0.2 0.7,0.3 1.1,0.3c0.5,0 0.9,-0.1 1.3,-0.4c0.4,-0.2 0.6,-0.6 0.6,-1.1Z" style="fill:#fff;fill-rule:nonzero;"/><path d="M225.284,78.8c-0.2,-0.2 -0.3,-0.4 -0.3,-0.7c0,-0.3 0.1,-0.5 0.3,-0.7c0.2,-0.2 0.4,-0.3 0.7,-0.3c0.3,0 0.5,0.1 0.7,0.3c0.2,0.2 0.3,0.4 0.3,0.7c0,0.3 -0.1,0.5 -0.3,0.7c-0.2,0.2 -0.4,0.3 -0.7,0.3c-0.3,0 -0.5,-0.1 -0.7,-0.3Zm1.5,8.8l-1.6,0l0,-7.3l1.5,0l0,7.3l0.1,0Z" style="fill:#fff;fill-rule:nonzero;"/><rect x="229.184" y="77.4" width="1.5" height="10.2" style="fill:#fff;fill-rule:nonzero;"/><path d="M240.084,79.7l0,0.6l1.9,0l0,1.2l-1.9,0l0,6.1l-1.5,0l0,-6.1l-0.9,0l0,-1.2l0.9,0l0,-0.6c0,-0.8 0.2,-1.4 0.7,-1.8c0.5,-0.5 1,-0.7 1.7,-0.7c0.7,0 1.3,0.2 1.8,0.7l-0.6,1.1c-0.3,-0.3 -0.6,-0.5 -0.9,-0.5c-0.3,0 -0.6,0.1 -0.8,0.3c-0.3,0.2 -0.4,0.5 -0.4,0.9Z" style="fill:#fff;fill-rule:nonzero;"/><path d="M247.484,81.7c-0.8,0 -1.3,0.2 -1.7,0.7c-0.4,0.5 -0.6,1.2 -0.6,2l0,3.1l-1.5,0l0,-7.2l1.5,0l0,1.5c0.2,-0.5 0.6,-0.8 1,-1.1c0.4,-0.3 0.9,-0.4 1.4,-0.5l-0.1,1.5l0,0Z" style="fill:#fff;fill-rule:nonzero;"/><path d="M255.184,86.6c-0.7,0.7 -1.6,1.1 -2.7,1.1c-1.1,0 -2,-0.4 -2.7,-1.1c-0.7,-0.7 -1.1,-1.6 -1.1,-2.7c0,-1.1 0.4,-1.9 1.1,-2.7c0.7,-0.7 1.6,-1.1 2.7,-1.1c1.1,0 2,0.4 2.7,1.1c0.7,0.7 1.1,1.6 1.1,2.7c0,1.1 -0.3,2 -1.1,2.7Zm-4.4,-1c0.4,0.4 1,0.7 1.7,0.7c0.7,0 1.2,-0.2 1.7,-0.7c0.4,-0.4 0.7,-1 0.7,-1.7c0,-0.7 -0.2,-1.3 -0.7,-1.7c-0.4,-0.4 -1,-0.7 -1.7,-0.7c-0.7,0 -1.2,0.2 -1.7,0.7c-0.4,0.4 -0.7,1 -0.7,1.7c0.1,0.7 0.3,1.3 0.7,1.7Z" style="fill:#fff;fill-rule:nonzero;"/><path d="M259.784,83.6l0,4l-1.6,0l0,-7.3l1.5,0l0,1.3c0.2,-0.4 0.6,-0.8 1,-1.1c0.4,-0.3 0.9,-0.4 1.4,-0.4c1.2,0 1.9,0.5 2.3,1.4c0.7,-1 1.6,-1.4 2.7,-1.4c0.8,0 1.5,0.3 2,0.8c0.5,0.5 0.8,1.2 0.8,2.2l0,4.5l-1.5,0l0,-4c0,-1.3 -0.6,-2 -1.7,-2c-0.5,0 -1,0.2 -1.4,0.5c-0.4,0.3 -0.6,0.8 -0.6,1.5l0,4.1l-1.5,0l0,-4c0,-0.7 -0.1,-1.2 -0.4,-1.5c-0.2,-0.3 -0.6,-0.5 -1.2,-0.5c-0.5,0 -1,0.2 -1.4,0.5c-0.2,0.2 -0.4,0.7 -0.4,1.4Z" style="fill:#fff;fill-rule:nonzero;"/><path d="M284.184,80.3l0,6.4c0,1.3 -0.4,2.3 -1.1,2.9c-0.7,0.6 -1.6,1 -2.7,1c-1.1,0 -2.1,-0.3 -3,-1l0.7,-1.2c0.7,0.5 1.4,0.8 2.2,0.8c0.7,0 1.3,-0.2 1.7,-0.6c0.4,-0.4 0.6,-1 0.6,-1.8l0,-0.9c-0.2,0.4 -0.6,0.8 -1,1c-0.4,0.3 -0.9,0.4 -1.4,0.4c-1,0 -1.8,-0.3 -2.4,-1c-0.6,-0.7 -0.9,-1.5 -0.9,-2.5c0,-1 0.3,-1.9 0.9,-2.5c0.6,-0.7 1.4,-1 2.4,-1c1,0 1.8,0.4 2.4,1.2l0,-1.2l1.6,0Zm-5.7,3.3c0,0.6 0.2,1.1 0.6,1.6c0.4,0.4 0.9,0.7 1.5,0.7c0.6,0 1.1,-0.2 1.5,-0.6c0.4,-0.4 0.6,-0.9 0.6,-1.6c0,-0.6 -0.2,-1.2 -0.6,-1.6c-0.4,-0.4 -0.9,-0.7 -1.5,-0.7c-0.6,0 -1.1,0.2 -1.5,0.7c-0.4,0.4 -0.6,0.9 -0.6,1.5Z" style="fill:#fff;fill-rule:nonzero;"/><rect x="286.584" y="77.4" width="1.5" height="10.2" style="fill:#fff;fill-rule:nonzero;"/><path d="M296.584,86.6c-0.7,0.7 -1.6,1.1 -2.7,1.1c-1.1,0 -2,-0.4 -2.7,-1.1c-0.7,-0.7 -1.1,-1.6 -1.1,-2.7c0,-1.1 0.4,-1.9 1.1,-2.7c0.7,-0.7 1.6,-1.1 2.7,-1.1c1.1,0 2,0.4 2.7,1.1c0.7,0.7 1.1,1.6 1.1,2.7c0,1.1 -0.4,2 -1.1,2.7Zm-4.4,-1c0.4,0.4 1,0.7 1.7,0.7c0.7,0 1.2,-0.2 1.7,-0.7c0.4,-0.4 0.7,-1 0.7,-1.7c0,-0.7 -0.2,-1.3 -0.7,-1.7c-0.4,-0.4 -1,-0.7 -1.7,-0.7c-0.7,0 -1.2,0.2 -1.7,0.7c-0.4,0.4 -0.7,1 -0.7,1.7c0.1,0.7 0.3,1.3 0.7,1.7Z" style="fill:#fff;fill-rule:nonzero;"/><path d="M303.484,80.1c1,0 1.8,0.3 2.5,1c0.7,0.7 1,1.6 1,2.7c0,1.1 -0.3,2 -1,2.7c-0.7,0.7 -1.5,1.1 -2.4,1.1c-0.9,0 -1.7,-0.4 -2.5,-1.2l0,1.1l-1.5,0l0,-10.2l1.5,0l0,4.2c0.7,-0.9 1.4,-1.4 2.4,-1.4Zm-2.4,3.8c0,0.7 0.2,1.3 0.6,1.7c0.4,0.4 0.9,0.7 1.5,0.7c0.6,0 1.1,-0.2 1.6,-0.7c0.4,-0.4 0.7,-1 0.7,-1.7c0,-0.7 -0.2,-1.3 -0.7,-1.7c-0.4,-0.5 -1,-0.7 -1.6,-0.7c-0.6,0 -1.1,0.2 -1.6,0.7c-0.3,0.4 -0.5,1 -0.5,1.7Z" style="fill:#fff;fill-rule:nonzero;"/><path d="M314.884,87.6l-1.4,0l0,-1c-0.6,0.7 -1.4,1.1 -2.4,1.1c-0.8,0 -1.4,-0.2 -1.9,-0.6c-0.5,-0.4 -0.7,-1 -0.7,-1.7c0,-0.7 0.3,-1.3 0.8,-1.6c0.5,-0.4 1.3,-0.5 2.2,-0.5l2,0l0,-0.3c0,-1 -0.5,-1.5 -1.6,-1.5c-0.7,0 -1.4,0.2 -2.1,0.7l-0.7,-1c0.9,-0.7 1.9,-1.1 3,-1.1c0.9,0 1.6,0.2 2.1,0.7c0.5,0.4 0.8,1.1 0.8,2.1l0,4.7l-0.1,0Zm-1.5,-2.8l0,-0.6l-1.7,0c-1.1,0 -1.7,0.3 -1.7,1c0,0.4 0.1,0.6 0.4,0.8c0.3,0.2 0.7,0.3 1.1,0.3c0.4,0 0.9,-0.1 1.3,-0.4c0.4,-0.2 0.6,-0.6 0.6,-1.1Z" style="fill:#fff;fill-rule:nonzero;"/><rect x="317.184" y="77.4" width="1.5" height="10.2" style="fill:#fff;fill-rule:nonzero;"/></g><g><path d="M124.184,37.4c-6.1,-12.5 -16.1,-21.4 -26,-25.4c-17.8,-7.2 -48.8,-12 -78.6,-12c-3.8,0 -7.3,0.1 -10.5,0.3c-7.5,0.4 -11.6,8.9 -7.4,15.1c6,8.9 14.2,19.3 25,30.8c25.6,27.2 51.2,44.1 61.2,47.5c5.3,1.8 10.2,2.7 14.6,2.7c5.6,0 10.1,-1.4 14.1,-4.5c5.1,-3.9 9.3,-10.5 12.2,-19.1c3.2,-9.6 1.5,-23.2 -4.6,-35.4Zm-11.5,21.1c-1.9,5.1 -4.5,8.9 -7.6,11.2c-2.4,1.8 -5.1,2.5 -8.5,2.4c-2.6,-0.1 -5.6,-0.7 -8.7,-1.9c-2.8,-1.1 -7.8,-4.1 -13.8,-8.8c-0.3,-0.3 -0.1,-0.8 0.3,-0.8l9.5,0.4c2.3,0.1 4.5,-1.4 5.1,-3.6c0.8,-3.1 -1.5,-6 -4.5,-6.1l-22.3,-1c-0.5,0 -1,-0.2 -1.4,-0.6c-2.6,-2.5 -5.1,-5.2 -7.7,-8.1c-0.3,-0.3 0,-0.8 0.3,-0.7l13.6,0.6c2.8,0.1 5.1,-2.1 5.1,-4.9c0,-2.6 -2.1,-4.7 -4.6,-4.9l-22.4,-1c-0.6,0 -1.3,-0.4 -1.6,-0.9c-2.2,-2.9 -4.1,-5.7 -5.7,-8.2c-2.4,-3.8 0.2,-8.8 4.7,-8.9c1.9,0 4,0 6.3,0c17.8,0.5 36.4,4.7 46.9,8.6c6,2.2 11.6,8.1 15.1,15.7c3.2,7.7 4,15.9 1.9,21.5Z" style="fill:#fff;fill-rule:nonzero;"/><path d="M25.084,0c0.1,0 0.3,0 0.4,0c-0.1,0 -0.2,0 -0.4,0Z" style="fill:#fff;fill-rule:nonzero;"/></g><g><path d="M204.784,45.5c0,3.6 -0.6,6.9 -1.8,9.9c-1.2,3 -2.9,5.6 -5,7.8c-2.2,2.2 -4.8,3.8 -7.8,5c-3,1.2 -6.4,1.8 -10.1,1.8l-18.7,0l0,-48.9l18.7,0c3.7,0 7.1,0.6 10.1,1.8c3,1.2 5.7,2.9 7.8,5c2.2,2.2 3.8,4.7 5,7.7c1.2,3 1.8,6.3 1.8,9.9Zm-9.3,0c0,-2.7 -0.4,-5.1 -1.1,-7.2c-0.7,-2.1 -1.7,-3.9 -3.1,-5.4c-1.3,-1.5 -3,-2.6 -4.9,-3.4c-1.9,-0.8 -4.1,-1.2 -6.4,-1.2l-9.5,0l0,34.5l9.5,0c2.4,0 4.5,-0.4 6.4,-1.2c1.9,-0.8 3.5,-1.9 4.9,-3.4c1.3,-1.5 2.4,-3.3 3.1,-5.4c0.8,-2.2 1.1,-4.6 1.1,-7.3Z" style="fill:#fff;fill-rule:nonzero;"/><path d="M221.584,25.1c0,0.7 -0.1,1.4 -0.4,2c-0.3,0.6 -0.7,1.2 -1.2,1.7c-0.5,0.5 -1.1,0.9 -1.7,1.1c-0.7,0.3 -1.4,0.4 -2.1,0.4c-0.7,0 -1.4,-0.1 -2,-0.4c-0.6,-0.3 -1.2,-0.7 -1.7,-1.1c-0.5,-0.5 -0.9,-1 -1.1,-1.7c-0.3,-0.6 -0.4,-1.3 -0.4,-2c0,-0.7 0.1,-1.4 0.4,-2.1c0.3,-0.7 0.7,-1.2 1.1,-1.7c0.5,-0.5 1,-0.9 1.7,-1.1c0.6,-0.3 1.3,-0.4 2,-0.4c0.7,0 1.4,0.1 2.1,0.4c0.7,0.3 1.2,0.7 1.7,1.1c0.5,0.5 0.9,1 1.2,1.7c0.3,0.6 0.4,1.3 0.4,2.1Zm-1.2,10.1l0,34.7l-8.4,0l0,-34.7l8.4,0Z" style="fill:#fff;fill-rule:nonzero;"/><path d="M229.784,69.9l0,-34.7l5.1,0c1.1,0 1.8,0.5 2.1,1.5l0.5,2.6c0.6,-0.7 1.2,-1.3 1.9,-1.9c0.7,-0.6 1.4,-1 2.1,-1.5c0.8,-0.4 1.6,-0.7 2.4,-1c0.9,-0.2 1.8,-0.4 2.9,-0.4c2.2,0 4,0.6 5.4,1.8c1.4,1.2 2.5,2.8 3.2,4.7c0.5,-1.2 1.2,-2.1 2,-3c0.8,-0.8 1.7,-1.5 2.7,-2c1,-0.5 2,-0.9 3.1,-1.2c1.1,-0.2 2.2,-0.4 3.3,-0.4c1.9,0 3.6,0.3 5.1,0.9c1.5,0.6 2.7,1.4 3.8,2.6c1,1.1 1.8,2.5 2.3,4.1c0.5,1.6 0.8,3.5 0.8,5.6l0,22.1l-8.4,0l0,-22.1c0,-2.2 -0.5,-3.9 -1.5,-5c-1,-1.1 -2.4,-1.7 -4.3,-1.7c-0.9,0 -1.7,0.1 -2.4,0.4c-0.7,0.3 -1.4,0.7 -1.9,1.3c-0.5,0.6 -1,1.2 -1.3,2.1c-0.3,0.8 -0.5,1.8 -0.5,2.9l0,22.1l-8.4,0l0,-22.1c0,-2.3 -0.5,-4 -1.4,-5.1c-0.9,-1.1 -2.3,-1.6 -4.1,-1.6c-1.2,0 -2.3,0.3 -3.4,0.9c-1,0.6 -2,1.4 -2.9,2.5l0,25.4l-8.2,0l0,0.2Z" style="fill:#fff;fill-rule:nonzero;"/></g><path d="M314.484,44.9c-2.4,-2.5 -5.6,-4 -9.7,-4.3l11,-12.3l0.1,-0.1l0,-7l-29.3,0l0,8.3l16.9,0l-10.5,12.2l-0.1,0.1l0,7.1l0.6,-0.2c1.6,-0.5 3.3,-0.7 5,-0.7c3.5,0 6.2,0.7 8.1,2.1c1.9,1.4 2.8,3.2 2.8,5.5c0,2.3 -0.8,4 -2.5,5.3c-1.7,1.2 -4,1.9 -6.7,1.9c-4.2,0 -8.3,-1.4 -12.2,-4.1l-0.5,-0.3l-3.9,7.5l0.4,0.2c5.1,3.4 10.4,5.1 15.7,5.1c5.3,0 9.8,-1.5 13.2,-4.3c3.4,-2.9 5.2,-6.9 5.2,-12c0.3,-4 -1,-7.3 -3.6,-10Z" style="fill:#fff;fill-rule:nonzero;"/></g>
</svg>