<svg viewBox="0 0 154 24" class="{{include.class}}">
  <clipPath id="a"><path d="M.001 1.302h75.437v18.476H.001z"/></clipPath><g clip-path="url(#a)" fill="#e55e4a" fill-rule="nonzero"><path d="M13.22 1.301H0v18.026h13.645v-3.23H3.681v-4.631h8.763v-3.13H3.681V4.48h9.539V1.301zM31.171 5.707c-.876 0-1.678.176-2.379.551-.701.376-1.251.951-1.702 1.728-.275-.651-.651-1.202-1.152-1.603-.626-.45-1.452-.676-2.478-.676-1.052 0-1.928.251-2.604.776-.401.301-.801.802-1.227 1.478V6.033h-3.38v13.294h3.53v-8.012c0-.726.1-1.276.276-1.627.35-.651 1.026-.976 2.003-.976.876 0 1.452.325 1.727.976.175.351.251.926.251 1.703v7.936h3.48v-7.936c0-.601.1-1.102.275-1.528.376-.801 1.052-1.201 2.003-1.201.851 0 1.427.3 1.727.926.176.325.251.751.251 1.252v8.487h3.555l.025-8.387c0-.876-.05-1.527-.125-1.978-.125-.676-.376-1.252-.751-1.702-.476-.576-.977-.977-1.553-1.202a4.737 4.737 0 0 0-1.752-.351zM45.792 5.707c-.976 0-1.777.201-2.403.601-.551.351-1.027.826-1.477 1.427V1.326h-3.48v18.001h3.43v-1.702c.475.651.901 1.126 1.301 1.377.676.45 1.553.676 2.679.676 1.753 0 3.13-.676 4.106-2.053.977-1.352 1.478-3.055 1.478-5.133 0-2.003-.501-3.63-1.503-4.882-1.001-1.277-2.378-1.903-4.131-1.903zm-.876 11.066c-1.052 0-1.828-.375-2.328-1.126-.526-.726-.777-1.678-.777-2.804 0-.977.126-1.753.376-2.379.476-1.126 1.352-1.702 2.629-1.702 1.252 0 2.103.576 2.579 1.752.25.626.375 1.402.375 2.329 0 1.176-.25 2.128-.751 2.854s-1.202 1.076-2.103 1.076zM59.362 8.536c.826 0 1.527.226 2.078.701.551.476.851 1.152.926 2.053h-6.009c.126-.851.426-1.527.927-2.002.5-.501 1.201-.752 2.078-.752zm.025-2.904c-1.953 0-3.53.626-4.757 1.853-1.227 1.227-1.828 3.004-1.828 5.308 0 2.478.676 4.256 2.028 5.332 1.352 1.102 2.929 1.653 4.682 1.653 2.153 0 3.831-.651 5.007-1.953.776-.801 1.202-1.602 1.302-2.404h-3.58c-.2.401-.451.702-.701.927-.501.4-1.152.601-1.953.601-.751 0-1.377-.176-1.903-.501-.876-.551-1.352-1.477-1.402-2.829h9.714c.025-1.152-.025-2.028-.125-2.654-.15-1.027-.5-1.953-1.051-2.729a5.473 5.473 0 0 0-2.304-1.978c-.926-.426-1.978-.626-3.129-.626zM74.963 5.682c-1.027 0-1.878.276-2.529.826-.4.326-.876.927-1.402 1.803V5.983h-3.305v13.344h3.48v-6.384c0-1.052.126-1.853.401-2.354.476-.926 1.427-1.377 2.829-1.377.1 0 .251 0 .426.025.15 0 .35.025.576.051V5.707c-.151 0-.251-.025-.301-.025h-.175z"/></g><clipPath id="b"><path d="M82.633 23.384h-6.738V0h7.811-1.073v23.384z"/></clipPath><g clip-path="url(#b)"><path d="M78.448 19.404c0 1.277.451 2.253 1.327 2.904.876.676 1.903 1.027 3.054 1.052l.877.025v-1.953c-.601-.176-1.027-.376-1.277-.626-.426-.401-.651-1.052-.651-1.953v-3.105c-.025-1.051-.225-1.877-.601-2.453-.376-.601-1.127-1.127-2.228-1.577 1.227-.551 2.028-1.302 2.453-2.204.251-.525.376-1.252.376-2.178V4.507c0-.926.175-1.602.551-1.978.25-.225.701-.426 1.377-.576V0c-.826 0-1.452.05-1.903.151a4.248 4.248 0 0 0-1.903.851c-.576.451-1.001 1.076-1.252 1.878-.125.45-.2.876-.2 1.302v3.279c0 1.152-.3 2.003-.876 2.579-.326.326-.877.626-1.678.876v1.503c.701.2 1.252.45 1.628.801.626.551.926 1.327.926 2.353v3.831z" fill="#e55e4a" fill-rule="nonzero"/></g><clipPath id="c"><path d="M90.446 23.384h-7.813 1.073V0h6.74v23.384z"/></clipPath><g clip-path="url(#c)"><path d="M85.186 19.404c0 1.277.451 2.253 1.327 2.904.876.676 1.903 1.027 3.055 1.052l.876.025v-1.953c-.601-.176-1.027-.376-1.277-.626-.426-.401-.651-1.052-.651-1.953v-3.105c-.025-1.051-.225-1.877-.601-2.453-.375-.601-1.126-1.127-2.228-1.577 1.227-.551 2.028-1.302 2.454-2.204.25-.525.375-1.252.375-2.178V4.507c0-.926.175-1.602.551-1.978.25-.225.701-.426 1.377-.576V0c-.826 0-1.452.05-1.903.151a4.248 4.248 0 0 0-1.903.851c-.575.451-1.001 1.076-1.251 1.878-.126.45-.201.876-.201 1.302v3.279c0 1.152-.3 2.003-.876 2.579-.326.326-.876.626-1.677.876v1.503c.701.2 1.251.45 1.627.801.626.551.926 1.327.926 2.353v3.831z" fill="#e55e4a" fill-rule="nonzero"/></g><clipPath id="d"><path d="M82.633 0h1.073v23.384h-1.073z"/></clipPath><g clip-path="url(#d)"><path d="M78.448 19.404c0 1.277.451 2.253 1.327 2.904.876.676 1.903 1.027 3.054 1.052l.877.025v-1.953c-.601-.176-1.027-.376-1.277-.626-.426-.401-.651-1.052-.651-1.953v-3.105c-.025-1.051-.225-1.877-.601-2.453-.376-.601-1.127-1.127-2.228-1.577 1.227-.551 2.028-1.302 2.453-2.204.251-.525.376-1.252.376-2.178V4.507c0-.926.175-1.602.551-1.978.25-.225.701-.426 1.377-.576V0c-.826 0-1.452.05-1.903.151a4.248 4.248 0 0 0-1.903.851c-.576.451-1.001 1.076-1.252 1.878-.125.45-.2.876-.2 1.302v3.279c0 1.152-.3 2.003-.876 2.579-.326.326-.877.626-1.678.876v1.503c.701.2 1.252.45 1.628.801.626.551.926 1.327.926 2.353v3.831z" fill="#e55e4a" fill-rule="nonzero"/></g><clipPath id="e"><path d="M85.186 19.404c0 1.277.451 2.253 1.327 2.904.876.676 1.903 1.027 3.055 1.052l.876.025v-1.953c-.601-.176-1.027-.376-1.277-.626-.426-.401-.651-1.052-.651-1.953v-3.105c-.025-1.051-.225-1.877-.601-2.453-.375-.601-1.126-1.127-2.228-1.577 1.227-.551 2.028-1.302 2.454-2.204.25-.525.375-1.252.375-2.178V4.507c0-.926.175-1.602.551-1.978.25-.225.701-.426 1.377-.576V0c-.826 0-1.452.05-1.903.151a4.248 4.248 0 0 0-1.903.851c-.575.451-1.001 1.076-1.251 1.878-.126.45-.201.876-.201 1.302v3.279c0 1.152-.3 2.003-.876 2.579-.326.326-.876.626-1.677.876v1.503c.701.2 1.251.45 1.627.801.626.551.926 1.327.926 2.353v3.831z"/></clipPath><g clip-path="url(#e)"><path fill="#e55e4a" d="M82.633 0h1.073v23.384h-1.073z"/><clipPath id="f"><path d="M82.633 0h1.073v23.384h-1.073z"/></clipPath><g clip-path="url(#f)"><clipPath id="g"><path d="M85.186 19.404c0 1.277.451 2.253 1.327 2.904.876.676 1.903 1.027 3.055 1.052l.876.025v-1.953c-.601-.176-1.027-.376-1.277-.626-.426-.401-.651-1.052-.651-1.953v-3.105c-.025-1.051-.225-1.877-.601-2.453-.375-.601-1.126-1.127-2.228-1.577 1.227-.551 2.028-1.302 2.454-2.204.25-.525.375-1.252.375-2.178V4.507c0-.926.175-1.602.551-1.978.25-.225.701-.426 1.377-.576V0c-.826 0-1.452.05-1.903.151a4.248 4.248 0 0 0-1.903.851c-.575.451-1.001 1.076-1.251 1.878-.126.45-.201.876-.201 1.302v3.279c0 1.152-.3 2.003-.876 2.579-.326.326-.876.626-1.677.876v1.503c.701.2 1.251.45 1.627.801.626.551.926 1.327.926 2.353v3.831z"/></clipPath><g clip-path="url(#g)"><path d="M78.448 19.404c0 1.277.451 2.253 1.327 2.904.876.676 1.903 1.027 3.054 1.052l.877.025v-1.953c-.601-.176-1.027-.376-1.277-.626-.426-.401-.651-1.052-.651-1.953v-3.105c-.025-1.051-.225-1.877-.601-2.453-.376-.601-1.127-1.127-2.228-1.577 1.227-.551 2.028-1.302 2.453-2.204.251-.525.376-1.252.376-2.178V4.507c0-.926.175-1.602.551-1.978.25-.225.701-.426 1.377-.576V0c-.826 0-1.452.05-1.903.151a4.248 4.248 0 0 0-1.903.851c-.576.451-1.001 1.076-1.252 1.878-.125.45-.2.876-.2 1.302v3.279c0 1.152-.3 2.003-.876 2.579-.326.326-.877.626-1.678.876v1.503c.701.2 1.252.45 1.628.801.626.551.926 1.327.926 2.353v3.831z" fill="#e55e4a" fill-rule="nonzero"/></g></g></g><clipPath id="h"><path d="M92.627 1.126h34.981v18.652H92.627z"/></clipPath><g clip-path="url(#h)" fill="#e55e4a" fill-rule="nonzero"><path d="M98.885 1.126c-1.928 0-3.13.4-3.63 1.176-.476.526-.726 1.528-.726 2.98v.851h-1.903v2.453h1.953v10.741h3.43V8.586h2.278V6.133h-2.278V5.006c0-.25.1-.5.275-.726.175-.2.476-.3.952-.3.45.025.776.025.976.025V1.176c-.3-.025-.551-.025-.726-.05h-.601zM107.849 8.536c.826 0 1.527.226 2.078.701.551.476.851 1.152.926 2.053h-6.009c.126-.851.426-1.527.927-2.002.501-.501 1.202-.752 2.078-.752zm.025-2.904c-1.953 0-3.53.626-4.757 1.853-1.227 1.227-1.828 3.004-1.828 5.308 0 2.478.676 4.256 2.028 5.332 1.352 1.102 2.929 1.653 4.682 1.653 2.153 0 3.831-.651 5.007-1.953.777-.801 1.202-1.602 1.302-2.404h-3.58c-.2.401-.451.702-.701.927-.501.4-1.152.601-1.953.601-.751 0-1.377-.176-1.903-.501-.876-.551-1.352-1.477-1.402-2.829h9.715c.025-1.152-.025-2.028-.126-2.654-.15-1.027-.5-1.953-1.051-2.729a5.473 5.473 0 0 0-2.304-1.978c-.926-.426-1.977-.626-3.129-.626zM115.413 15.071c0 1.377.501 2.504 1.503 3.38 1.001.876 2.553 1.327 4.656 1.327 2.053 0 3.581-.426 4.557-1.252.976-.826 1.477-1.903 1.477-3.23 0-1.001-.35-1.852-1.026-2.503-.701-.676-1.753-1.152-3.13-1.478-2.078-.45-3.305-.776-3.63-.976-.351-.175-.526-.476-.526-.876 0-.301.15-.576.476-.826.325-.226.876-.351 1.627-.351.926 0 1.577.225 1.978.701.2.275.325.626.376 1.077h3.48c-.151-1.628-.751-2.779-1.803-3.43-1.052-.676-2.404-1.002-4.081-1.002-1.753 0-3.105.451-4.081 1.327-.976.876-1.452 1.928-1.452 3.155 0 1.051.3 1.852.926 2.403.626.551 1.678 1.027 3.205 1.402 2.103.501 3.33.852 3.655 1.052.326.2.476.501.476.901 0 .401-.2.726-.601.927-.4.2-.951.3-1.652.3-1.152 0-1.978-.225-2.404-.701-.25-.25-.4-.701-.475-1.327h-3.531z"/></g><clipPath id="i"><path d="M128.813 2.377h7.461v17.132h-7.461z"/></clipPath><g clip-path="url(#i)"><path d="M130.665 8.586v8.213c0 .826.2 1.452.575 1.852.601.626 1.728.902 3.38.851l1.653-.075v-2.603a1.66 1.66 0 0 1-.351.025c-.125.025-.225.025-.325.025-.701 0-1.127-.075-1.277-.201-.125-.125-.2-.475-.2-1.026V8.586h2.153V6.133h-2.153V2.377h-3.455v3.756h-1.853v2.453h1.853z" fill="#e55e4a" fill-rule="nonzero"/></g><clipPath id="j"><path d="M145.192 23.384h-6.742V0h7.813-1.071v23.384z"/></clipPath><g clip-path="url(#j)"><path d="M139.328 23.36c1.201-.025 2.228-.401 3.104-1.077.851-.676 1.277-1.627 1.277-2.879v-3.831c0-1.051.325-1.853.976-2.403.351-.301.877-.551 1.578-.751v-1.503c-.852-.275-1.427-.575-1.753-.901-.526-.526-.801-1.402-.801-2.554V4.182c0-.476-.1-1.002-.325-1.628a3.026 3.026 0 0 0-1.127-1.552 4.342 4.342 0 0 0-1.928-.851C139.903.05 139.278 0 138.451 0v1.953c.701.15 1.202.376 1.503.701.275.326.425.952.425 1.853v2.829c0 1.077.2 1.928.601 2.604.401.676 1.152 1.252 2.228 1.778-.976.425-1.702.901-2.153 1.452-.451.575-.676 1.427-.676 2.578v3.105c-.025.876-.225 1.527-.651 1.953-.25.225-.676.45-1.277.626v1.953l.877-.025z" fill="#e55e4a" fill-rule="nonzero"/></g><clipPath id="k"><path d="M153.003 23.384h-7.811 1.071V0h6.74v23.384z"/></clipPath><g clip-path="url(#k)"><path d="M146.067 23.36c1.201-.025 2.228-.401 3.104-1.077.851-.676 1.277-1.627 1.277-2.879v-3.831c0-1.051.325-1.853.976-2.403.351-.301.877-.551 1.578-.751v-1.503c-.852-.275-1.427-.575-1.753-.901-.526-.526-.801-1.402-.801-2.554V4.182c0-.476-.1-1.002-.325-1.628a3.026 3.026 0 0 0-1.127-1.552 4.342 4.342 0 0 0-1.928-.851C146.642.05 146.017 0 145.19 0v1.953c.701.15 1.202.376 1.503.701.275.326.425.952.425 1.853v2.829c0 1.077.2 1.928.601 2.604.401.676 1.152 1.252 2.228 1.778-.976.425-1.702.901-2.153 1.452-.451.575-.676 1.427-.676 2.578v3.105c-.025.876-.225 1.527-.651 1.953-.25.225-.676.45-1.277.626v1.953l.877-.025z" fill="#e55e4a" fill-rule="nonzero"/></g><clipPath id="l"><path d="M145.192 0h1.071v23.384h-1.071z"/></clipPath><g clip-path="url(#l)"><path d="M139.328 23.36c1.201-.025 2.228-.401 3.104-1.077.851-.676 1.277-1.627 1.277-2.879v-3.831c0-1.051.325-1.853.976-2.403.351-.301.877-.551 1.578-.751v-1.503c-.852-.275-1.427-.575-1.753-.901-.526-.526-.801-1.402-.801-2.554V4.182c0-.476-.1-1.002-.325-1.628a3.026 3.026 0 0 0-1.127-1.552 4.342 4.342 0 0 0-1.928-.851C139.903.05 139.278 0 138.451 0v1.953c.701.15 1.202.376 1.503.701.275.326.425.952.425 1.853v2.829c0 1.077.2 1.928.601 2.604.401.676 1.152 1.252 2.228 1.778-.976.425-1.702.901-2.153 1.452-.451.575-.676 1.427-.676 2.578v3.105c-.025.876-.225 1.527-.651 1.953-.25.225-.676.45-1.277.626v1.953l.877-.025z" fill="#e55e4a" fill-rule="nonzero"/></g><clipPath id="m"><path d="M146.067 23.36c1.201-.025 2.228-.401 3.104-1.077.851-.676 1.277-1.627 1.277-2.879v-3.831c0-1.051.325-1.853.976-2.403.351-.301.877-.551 1.578-.751v-1.503c-.852-.275-1.427-.575-1.753-.901-.526-.526-.801-1.402-.801-2.554V4.182c0-.476-.1-1.002-.325-1.628a3.026 3.026 0 0 0-1.127-1.552 4.342 4.342 0 0 0-1.928-.851C146.642.05 146.017 0 145.19 0v1.953c.701.15 1.202.376 1.503.701.275.326.425.952.425 1.853v2.829c0 1.077.2 1.928.601 2.604.401.676 1.152 1.252 2.228 1.778-.976.425-1.702.901-2.153 1.452-.451.575-.676 1.427-.676 2.578v3.105c-.025.876-.225 1.527-.651 1.953-.25.225-.676.45-1.277.626v1.953l.877-.025z"/></clipPath><g clip-path="url(#m)"><path fill="#e55e4a" d="M145.192 0h1.071v23.384h-1.071z"/><clipPath id="n"><path d="M145.192 0h1.071v23.384h-1.071z"/></clipPath><g clip-path="url(#n)"><clipPath id="o"><path d="M146.067 23.36c1.201-.025 2.228-.401 3.104-1.077.851-.676 1.277-1.627 1.277-2.879v-3.831c0-1.051.325-1.853.976-2.403.351-.301.877-.551 1.578-.751v-1.503c-.852-.275-1.427-.575-1.753-.901-.526-.526-.801-1.402-.801-2.554V4.182c0-.476-.1-1.002-.325-1.628a3.026 3.026 0 0 0-1.127-1.552 4.342 4.342 0 0 0-1.928-.851C146.642.05 146.017 0 145.19 0v1.953c.701.15 1.202.376 1.503.701.275.326.425.952.425 1.853v2.829c0 1.077.2 1.928.601 2.604.401.676 1.152 1.252 2.228 1.778-.976.425-1.702.901-2.153 1.452-.451.575-.676 1.427-.676 2.578v3.105c-.025.876-.225 1.527-.651 1.953-.25.225-.676.45-1.277.626v1.953l.877-.025z"/></clipPath><g clip-path="url(#o)"><path d="M139.328 23.36c1.201-.025 2.228-.401 3.104-1.077.851-.676 1.277-1.627 1.277-2.879v-3.831c0-1.051.325-1.853.976-2.403.351-.301.877-.551 1.578-.751v-1.503c-.852-.275-1.427-.575-1.753-.901-.526-.526-.801-1.402-.801-2.554V4.182c0-.476-.1-1.002-.325-1.628a3.026 3.026 0 0 0-1.127-1.552 4.342 4.342 0 0 0-1.928-.851C139.903.05 139.278 0 138.451 0v1.953c.701.15 1.202.376 1.503.701.275.326.425.952.425 1.853v2.829c0 1.077.2 1.928.601 2.604.401.676 1.152 1.252 2.228 1.778-.976.425-1.702.901-2.153 1.452-.451.575-.676 1.427-.676 2.578v3.105c-.025.876-.225 1.527-.651 1.953-.25.225-.676.45-1.277.626v1.953l.877-.025z" fill="#e55e4a" fill-rule="nonzero"/></g></g></g>
</svg>