<svg viewBox="0 0 1087 310" alt="{{include.alt}}" class="{{include.class}}">
    <g transform="matrix(1,0,0,1,-8.402e-05,-5.769e-05)">
        <g transform="matrix(1,0,0,1,-63.3583,-72.1125)">
            <g transform="matrix(4.16667,0,0,4.16667,0,0)">
                <path d="M145.802,31.492C144.345,31.492 143.208,31.966 142.393,32.913C141.576,33.86 141.096,35.076 140.95,36.562L149.998,36.562C149.998,34.26 149.269,32.716 147.813,31.929C147.259,31.638 146.589,31.492 145.802,31.492ZM154.26,33.721C154.623,34.945 154.806,36.067 154.806,37.086C154.806,38.107 154.747,39.025 154.631,39.84L140.906,39.84C140.965,41.56 141.388,42.958 142.174,44.037C142.961,45.115 144.155,45.654 145.758,45.654C147.885,45.654 149.152,44.721 149.561,42.856L154.762,42.856C154.412,44.984 153.436,46.659 151.833,47.882C150.173,49.165 148.146,49.806 145.758,49.806C142.961,49.806 140.615,48.786 138.721,46.747C136.769,44.62 135.793,41.895 135.793,38.573C135.793,35.164 136.769,32.425 138.721,30.356C140.585,28.374 142.932,27.383 145.758,27.383C148.701,27.383 150.988,28.418 152.62,30.487C153.349,31.419 153.895,32.498 154.26,33.721Z" style="fill:rgb(251,153,6);fill-rule:nonzero;"/>
            </g>
        </g>
        <g transform="matrix(1,0,0,1,-63.3583,-72.1125)">
            <g transform="matrix(4.16667,0,0,4.16667,0,0)">
                <path d="M177.665,31.973C179.034,28.914 181.438,27.383 184.876,27.383C187.411,27.383 189.378,28.244 190.777,29.962C192.117,31.594 192.788,33.868 192.788,36.781L192.788,49.194L187.586,49.194L187.586,36.781C187.586,35.207 187.207,34.02 186.45,33.218C185.691,32.417 184.629,32.016 183.259,32.016C181.89,32.016 180.768,32.614 179.894,33.808C179.02,35.003 178.553,36.81 178.495,39.228L178.495,49.194L173.338,49.194L173.338,36.781C173.338,35.207 172.958,34.02 172.201,33.218C171.443,32.417 170.38,32.016 169.011,32.016C167.641,32.016 166.468,32.628 165.492,33.852C164.516,35.076 163.998,36.912 163.94,39.36L163.94,49.194L158.782,49.194L158.782,27.952L163.284,27.952L163.853,31.623C165.251,28.797 167.495,27.383 170.584,27.383C172.361,27.383 173.84,27.791 175.021,28.607C176.2,29.423 177.081,30.545 177.665,31.973Z" style="fill:rgb(251,153,6);fill-rule:nonzero;"/>
            </g>
        </g>
        <g transform="matrix(1,0,0,1,-63.3583,-72.1125)">
            <g transform="matrix(4.16667,0,0,4.16667,0,0)">
                <path d="M203.234,37.261L203.234,40.059C203.292,41.544 203.831,42.769 204.852,43.73C205.813,44.664 206.985,45.129 208.37,45.129C209.754,45.129 210.941,44.525 211.932,43.315C212.922,42.106 213.418,40.511 213.418,38.529C213.418,36.547 212.93,34.967 211.954,33.787C210.978,32.607 209.761,32.016 208.305,32.016C206.847,32.016 205.638,32.498 204.677,33.458C203.715,34.42 203.234,35.688 203.234,37.261ZM215.932,30.443C217.724,32.483 218.619,35.164 218.619,38.485C218.619,41.807 217.672,44.546 215.778,46.703C213.942,48.772 211.655,49.806 208.916,49.806C207.604,49.806 206.403,49.457 205.311,48.756C204.218,48.057 203.351,46.98 202.71,45.522L201.442,49.194L198.076,49.194L198.076,19.21L203.234,19.21L203.234,30.618C204.574,28.461 206.578,27.383 209.244,27.383C211.91,27.383 214.14,28.404 215.932,30.443Z" style="fill:rgb(251,153,6);fill-rule:nonzero;"/>
            </g>
        </g>
        <g transform="matrix(1,0,0,1,-63.3583,-72.1125)">
            <g transform="matrix(4.16667,0,0,4.16667,0,0)">
                <path d="M230.727,31.492C229.27,31.492 228.133,31.966 227.317,32.913C226.501,33.86 226.021,35.076 225.875,36.562L234.923,36.562C234.923,34.26 234.193,32.716 232.737,31.929C232.184,31.638 231.514,31.492 230.727,31.492ZM239.185,33.721C239.548,34.945 239.73,36.067 239.73,37.086C239.73,38.107 239.672,39.025 239.556,39.84L225.831,39.84C225.89,41.56 226.313,42.958 227.099,44.037C227.886,45.115 229.08,45.654 230.683,45.654C232.81,45.654 234.077,44.721 234.485,42.856L239.687,42.856C239.337,44.984 238.36,46.659 236.758,47.882C235.098,49.165 233.071,49.806 230.683,49.806C227.886,49.806 225.54,48.786 223.646,46.747C221.693,44.62 220.718,41.895 220.718,38.573C220.718,35.164 221.693,32.425 223.646,30.356C225.51,28.374 227.856,27.383 230.683,27.383C233.626,27.383 235.913,28.418 237.545,30.487C238.273,31.419 238.819,32.498 239.185,33.721Z" style="fill:rgb(251,153,6);fill-rule:nonzero;"/>
            </g>
        </g>
        <g transform="matrix(1,0,0,1,-63.3583,-72.1125)">
            <g transform="matrix(4.16667,0,0,4.16667,0,0)">
                <path d="M248.865,32.148C250.146,29.088 252.07,27.558 254.635,27.558C255.13,27.558 255.756,27.661 256.514,27.864L256.427,33.022C255.61,32.847 254.81,32.759 254.022,32.759C250.584,32.759 248.865,35.135 248.865,39.884L248.865,49.194L243.707,49.194L243.707,27.908L248.865,27.908L248.865,32.148Z" style="fill:rgb(251,153,6);fill-rule:nonzero;"/>
            </g>
        </g>
        <g transform="matrix(1,0,0,1,-63.3583,-72.1125)">
            <g transform="matrix(4.16667,0,0,4.16667,0,0)">
                <path d="M145.889,63.063C147.229,63.063 148.431,63.29 149.495,63.741C150.559,64.193 151.454,64.783 152.184,65.511C153.64,66.91 154.5,68.672 154.762,70.799L149.561,70.93C149.327,69.998 148.897,69.226 148.271,68.614C147.645,68.002 146.923,67.696 146.107,67.696C145.292,67.696 144.592,67.821 144.01,68.068C143.427,68.316 142.917,68.702 142.479,69.226C141.489,70.45 140.994,72.14 140.994,74.296C140.994,76.453 141.46,78.077 142.393,79.169C143.325,80.262 144.454,80.809 145.78,80.809C147.105,80.809 148.067,80.496 148.665,79.869C149.262,79.243 149.561,78.39 149.561,77.312L154.762,77.312C154.762,79.644 153.989,81.582 152.445,83.125C150.872,84.699 148.672,85.486 145.846,85.486C143.048,85.486 140.702,84.465 138.809,82.426C136.798,80.241 135.793,77.516 135.793,74.252C135.793,70.815 136.798,68.061 138.809,65.992C140.702,64.04 143.063,63.063 145.889,63.063Z" style="fill:rgb(251,153,6);fill-rule:nonzero;"/>
            </g>
        </g>
        <g transform="matrix(1,0,0,1,-63.3583,-72.1125)">
            <g transform="matrix(4.16667,0,0,4.16667,0,0)">
                <path d="M172.245,74.252C172.245,72.009 171.808,70.327 170.934,69.205C170.06,68.082 168.843,67.521 167.284,67.521C165.725,67.521 164.449,68.082 163.459,69.205C162.469,70.327 161.974,72.009 161.974,74.252C161.974,76.497 162.417,78.179 163.307,79.3C164.195,80.422 165.411,80.984 166.956,80.984C168.5,80.984 169.768,80.422 170.759,79.3C171.749,78.179 172.245,76.497 172.245,74.252ZM167.131,63.063C168.559,63.063 169.898,63.29 171.152,63.741C172.404,64.193 173.483,64.884 174.387,65.817C176.397,67.857 177.402,70.683 177.402,74.296C177.402,77.851 176.397,80.649 174.387,82.688C172.579,84.553 170.161,85.486 167.131,85.486C164.1,85.486 161.652,84.553 159.788,82.688C157.777,80.677 156.772,77.88 156.772,74.296C156.772,70.654 157.777,67.828 159.788,65.817C161.624,63.981 164.071,63.063 167.131,63.063Z" style="fill:rgb(251,153,6);fill-rule:nonzero;"/>
            </g>
        </g>
        <g transform="matrix(1,0,0,1,-63.3583,-72.1125)">
            <g transform="matrix(4.16667,0,0,4.16667,0,0)">
                <path d="M194.799,74.252C194.799,72.009 194.361,70.327 193.487,69.205C192.613,68.082 191.396,67.521 189.838,67.521C188.278,67.521 187.003,68.082 186.013,69.205C185.022,70.327 184.527,72.009 184.527,74.252C184.527,76.497 184.971,78.179 185.86,79.3C186.749,80.422 187.965,80.984 189.51,80.984C191.054,80.984 192.321,80.422 193.313,79.3C194.303,78.179 194.799,76.497 194.799,74.252ZM189.685,63.063C191.112,63.063 192.452,63.29 193.706,63.741C194.958,64.193 196.037,64.884 196.94,65.817C198.951,67.857 199.956,70.683 199.956,74.296C199.956,77.851 198.951,80.649 196.94,82.688C195.133,84.553 192.715,85.486 189.685,85.486C186.653,85.486 184.206,84.553 182.342,82.688C180.331,80.677 179.326,77.88 179.326,74.296C179.326,70.654 180.331,67.828 182.342,65.817C184.178,63.981 186.625,63.063 189.685,63.063Z" style="fill:rgb(251,153,6);fill-rule:nonzero;"/>
            </g>
        </g>
        <g transform="matrix(1,0,0,1,-63.3583,-72.1125)">
            <g transform="matrix(4.16667,0,0,4.16667,0,0)">
                <path d="M211.407,74.515L209.047,76.482L209.047,84.873L203.889,84.873L203.889,54.89L209.047,54.89L209.047,71.105L217.438,63.631L224.432,63.631L215.035,71.498L224.956,84.873L218.662,84.873L211.407,74.515Z" style="fill:rgb(251,153,6);fill-rule:nonzero;"/>
            </g>
        </g>
        <g transform="matrix(1,0,0,1,-63.3583,-72.1125)">
            <g transform="matrix(4.16667,0,0,4.16667,0,0)">
                <path d="M227.273,63.587L232.431,63.587L232.431,84.873L227.273,84.873L227.273,63.587ZM226.661,56.769C226.661,55.837 226.938,55.101 227.492,54.562C228.045,54.023 228.832,53.753 229.853,53.753C230.843,53.753 231.622,54.023 232.19,54.562C232.759,55.101 233.043,55.837 233.043,56.769C233.043,57.702 232.759,58.438 232.19,58.976C231.622,59.516 230.843,59.785 229.853,59.785C228.832,59.785 228.045,59.516 227.492,58.976C226.938,58.438 226.661,57.702 226.661,56.769Z" style="fill:rgb(251,153,6);fill-rule:nonzero;"/>
            </g>
        </g>
        <g transform="matrix(1,0,0,1,-63.3583,-72.1125)">
            <g transform="matrix(4.16667,0,0,4.16667,0,0)">
                <path d="M246.11,67.171C244.653,67.171 243.517,67.646 242.701,68.592C241.885,69.54 241.404,70.755 241.259,72.242L250.307,72.242C250.307,69.94 249.577,68.396 248.121,67.609C247.567,67.318 246.897,67.171 246.11,67.171ZM254.568,69.401C254.932,70.624 255.114,71.747 255.114,72.766C255.114,73.787 255.056,74.705 254.939,75.52L241.215,75.52C241.273,77.24 241.696,78.638 242.482,79.716C243.27,80.794 244.464,81.333 246.066,81.333C248.193,81.333 249.461,80.401 249.869,78.536L255.07,78.536C254.721,80.664 253.744,82.338 252.142,83.562C250.481,84.845 248.455,85.486 246.066,85.486C243.27,85.486 240.924,84.465 239.029,82.426C237.077,80.299 236.102,77.575 236.102,74.252C236.102,70.843 237.077,68.105 239.029,66.036C240.894,64.054 243.24,63.063 246.066,63.063C249.01,63.063 251.297,64.098 252.929,66.166C253.657,67.099 254.203,68.177 254.568,69.401Z" style="fill:rgb(251,153,6);fill-rule:nonzero;"/>
            </g>
        </g>
        <g transform="matrix(1,0,0,1,-63.3583,-72.1125)">
            <g transform="matrix(4.16667,0,0,4.16667,0,0)">
                <path d="M261.976,78.405C262.035,80.415 263.507,81.42 266.392,81.42C267.498,81.42 268.409,81.18 269.123,80.7C269.837,80.218 270.194,79.658 270.194,79.017C270.194,78.376 269.976,77.88 269.538,77.531C269.102,77.181 268.416,76.861 267.484,76.569L262.852,74.908C259.411,73.713 257.693,71.761 257.693,69.051C257.693,67.245 258.502,65.794 260.118,64.703C261.736,63.61 263.907,63.063 266.632,63.063C269.356,63.063 271.454,63.661 272.926,64.855C274.396,66.05 275.162,67.55 275.221,69.357L270.369,69.357C270.311,68.658 269.976,68.105 269.363,67.696C268.752,67.289 267.878,67.084 266.741,67.084C265.604,67.084 264.723,67.31 264.097,67.762C263.47,68.214 263.157,68.731 263.157,69.313C263.157,70.333 264.017,71.091 265.736,71.586L270.763,73.465C272.423,74.02 273.697,74.726 274.587,75.585C275.476,76.446 275.92,77.56 275.92,78.929C275.92,80.677 275.09,82.193 273.429,83.475C271.709,84.816 269.436,85.486 266.61,85.486C263.783,85.486 261.51,84.867 259.792,83.627C258.071,82.39 257.196,80.649 257.169,78.405L261.976,78.405Z" style="fill:rgb(251,153,6);fill-rule:nonzero;"/>
            </g>
        </g>
        <g transform="matrix(1,0,0,1,-63.3583,-72.1125)">
            <g transform="matrix(4.16667,0,0,4.16667,0,0)">
                <path d="M100.301,39.807C98.556,39.807 97.143,41.219 97.143,42.961C97.143,44.704 98.556,46.117 100.301,46.117C102.044,46.117 103.457,44.704 103.457,42.961C103.457,41.219 102.044,39.807 100.301,39.807Z" style="fill:rgb(251,153,6);fill-rule:nonzero;"/>
            </g>
        </g>
        <g transform="matrix(1,0,0,1,-63.3583,-72.1125)">
            <g transform="matrix(4.16667,0,0,4.16667,0,0)">
                <path d="M97.767,57.236C96.023,57.236 94.609,58.648 94.609,60.39C94.609,62.132 96.023,63.544 97.767,63.544C99.51,63.544 100.924,62.132 100.924,60.39C100.924,58.648 99.51,57.236 97.767,57.236Z" style="fill:rgb(251,153,6);fill-rule:nonzero;"/>
            </g>
        </g>
        <g transform="matrix(1,0,0,1,-63.3583,-72.1125)">
            <g transform="matrix(4.16667,0,0,4.16667,0,0)">
                <path d="M94.5,30.158C94.5,28.415 93.085,27.003 91.342,27.003C89.599,27.003 88.185,28.415 88.185,30.158C88.185,31.901 89.599,33.313 91.342,33.313C93.085,33.313 94.5,31.901 94.5,30.158Z" style="fill:rgb(251,153,6);fill-rule:nonzero;"/>
            </g>
        </g>
        <g transform="matrix(1,0,0,1,-63.3583,-72.1125)">
            <g transform="matrix(4.16667,0,0,4.16667,0,0)">
                <path d="M93.377,73.72C91.633,73.72 90.22,75.132 90.22,76.874C90.22,78.617 91.633,80.029 93.377,80.029C95.121,80.029 96.535,78.617 96.535,76.874C96.535,75.132 95.121,73.72 93.377,73.72Z" style="fill:rgb(251,153,6);fill-rule:nonzero;"/>
            </g>
        </g>
        <g transform="matrix(1,0,0,1,-63.3583,-72.1125)">
            <g transform="matrix(4.16667,0,0,4.16667,0,0)">
                <path d="M108.971,66.999C108.971,68.742 110.384,70.154 112.128,70.154C113.871,70.154 115.285,68.742 115.285,66.999C115.285,65.257 113.871,63.845 112.128,63.845C110.384,63.845 108.971,65.257 108.971,66.999Z" style="fill:rgb(251,153,6);fill-rule:nonzero;"/>
            </g>
        </g>
        <g transform="matrix(1,0,0,1,-63.3583,-72.1125)">
            <g transform="matrix(4.16667,0,0,4.16667,0,0)">
                <path d="M92.6,85.545C87.134,85.545 81.997,84.127 77.527,81.646C84.849,74.862 89.445,65.172 89.445,54.426C89.445,43.68 84.849,33.991 77.527,27.207C81.997,24.725 87.134,23.307 92.6,23.307C97.629,23.307 102.556,24.516 106.979,26.82C106.448,28.942 106.18,31.121 106.18,33.325C106.18,44.515 113.183,54.494 123.492,58.41C121.529,73.798 108.376,85.545 92.6,85.545ZM52.325,85.545C35.166,85.545 21.206,71.585 21.206,54.426C21.206,37.267 35.166,23.307 52.325,23.307C69.485,23.307 83.445,37.267 83.445,54.426C83.445,71.585 69.485,85.545 52.325,85.545ZM127.488,53.41C118.475,50.931 112.18,42.672 112.18,33.325C112.18,30.955 112.579,28.623 113.366,26.393C113.836,25.062 113.314,23.584 112.114,22.842C106.257,19.221 99.509,17.307 92.6,17.307C85.178,17.307 78.263,19.502 72.455,23.264C66.652,19.502 59.742,17.307 52.325,17.307C31.857,17.307 15.206,33.958 15.206,54.426C15.206,74.894 31.857,91.545 52.325,91.545C59.742,91.545 66.652,89.35 72.455,85.588C78.263,89.35 85.178,91.545 92.6,91.545C112.33,91.545 128.621,76.136 129.688,56.465C129.766,55.055 128.85,53.784 127.488,53.41Z" style="fill:rgb(251,153,6);fill-rule:nonzero;"/>
            </g>
        </g>
        <g transform="matrix(1,0,0,1,-63.3583,-72.1125)">
            <g transform="matrix(4.16667,0,0,4.16667,0,0)">
                <path d="M71.782,63.905L64.067,61.311C62.494,60.785 60.795,61.63 60.267,63.199C59.739,64.769 60.585,66.47 62.155,66.998L69.87,69.592C70.187,69.699 70.509,69.749 70.826,69.749C72.08,69.749 73.248,68.957 73.669,67.705C74.198,66.134 73.352,64.433 71.782,63.905Z" style="fill:rgb(251,153,6);fill-rule:nonzero;"/>
            </g>
        </g>
        <g transform="matrix(1,0,0,1,-63.3583,-72.1125)">
            <g transform="matrix(4.16667,0,0,4.16667,0,0)">
                <path d="M62.651,49.256C63.198,49.256 63.751,49.107 64.248,48.794L71.134,44.455C72.536,43.571 72.957,41.719 72.073,40.317C71.19,38.914 69.338,38.497 67.935,39.378L61.048,43.718C59.647,44.602 59.226,46.454 60.11,47.856C60.68,48.761 61.655,49.256 62.651,49.256Z" style="fill:rgb(251,153,6);fill-rule:nonzero;"/>
            </g>
        </g>
        <g transform="matrix(1,0,0,1,-63.3583,-72.1125)">
            <g transform="matrix(4.16667,0,0,4.16667,0,0)">
                <path d="M49,64.461C47.458,63.857 45.716,64.62 45.113,66.163L42.147,73.744C41.543,75.287 42.305,77.027 43.848,77.63C44.207,77.771 44.577,77.837 44.94,77.837C46.139,77.837 47.272,77.114 47.735,75.929L50.701,68.348C51.304,66.805 50.543,65.065 49,64.461Z" style="fill:rgb(251,153,6);fill-rule:nonzero;"/>
            </g>
        </g>
        <g transform="matrix(1,0,0,1,-63.3583,-72.1125)">
            <g transform="matrix(4.16667,0,0,4.16667,0,0)">
                <path d="M43.128,55.125C44.422,55.125 45.616,54.283 46.003,52.979C46.475,51.391 45.571,49.721 43.982,49.248L36.172,46.927C34.586,46.46 32.914,47.36 32.442,48.949C31.97,50.537 32.875,52.207 34.463,52.679L42.273,55C42.558,55.084 42.845,55.125 43.128,55.125Z" style="fill:rgb(251,153,6);fill-rule:nonzero;"/>
            </g>
        </g>
        <g transform="matrix(1,0,0,1,-63.3583,-72.1125)">
            <g transform="matrix(4.16667,0,0,4.16667,0,0)">
                <path d="M50.667,30.128L42.667,31.628C41.038,31.933 39.965,33.501 40.271,35.129C40.541,36.571 41.8,37.578 43.216,37.578C43.399,37.578 43.585,37.56 43.772,37.525L51.772,36.025C53.401,35.72 54.473,34.152 54.168,32.524C53.863,30.897 52.306,29.821 50.667,30.128Z" style="fill:rgb(251,153,6);fill-rule:nonzero;"/>
            </g>
        </g>
    </g>
</svg>
