<svg viewBox="0 0 681 148" class="{{include.class}}">
  <path d="M88.937,80.162c-3.922,-22.992 -22.636,-33.328 -38.141,-33.328c-15.328,0 -34.399,10.336 -37.963,33.328l76.104,0Zm-76.104,11.23c0.892,19.07 18.714,35.29 37.785,35.29c17.823,-0.356 30.477,-10.873 34.933,-22.994l13.188,0c-6.772,19.428 -25.487,34.222 -47.943,34.222c-27.269,0 -50.796,-22.101 -50.796,-50.975c0,-27.626 22.279,-50.794 50.618,-51.331c21.386,0.179 36.536,12.835 43.487,24.955c6.595,10.515 8.02,21.388 7.486,30.833l-88.758,0Z" style="fill:#2d2b2e;fill-rule:nonzero;"/><path d="M113.7,38.102l12.476,-0.001l0,11.228l-0.356,-0.358l0,0.358l0.356,0c5.524,-9.624 17.467,-13.725 26.557,-13.725c8.197,0 25.486,3.744 32.794,18.713c7.307,-14.969 24.595,-18.713 32.795,-18.713c14.969,0 39.03,8.912 39.03,42.063l0,57.926l-12.475,0l0,-56.5c0,-10.693 -1.961,-15.861 -4.455,-20.318c-4.1,-6.952 -11.586,-11.941 -22.1,-11.941c-10.517,0 -18.003,4.989 -22.102,11.941c-2.495,4.457 -4.456,9.625 -4.456,20.318l0,56.5l-12.476,0l0,-56.5c0,-10.693 -1.961,-15.861 -4.455,-20.318c-4.099,-6.952 -11.586,-11.941 -22.1,-11.941c-10.516,0 -18.002,4.989 -22.102,11.941c-2.494,4.457 -4.455,9.625 -4.455,20.318l0,56.5l-12.476,0l0,-97.492Z" style="fill:#2d2b2e;fill-rule:nonzero;"/><path d="M324.886,46.834c-22.456,0 -39.033,18.714 -39.033,40.101c0,22.815 18.003,39.746 39.033,39.746c23.884,0 39.925,-17.822 39.925,-39.567c0,-24.776 -18.538,-40.28 -39.925,-40.28m-50.795,-38.834l12.475,0l0,47.212l0.358,0c11.049,-15.864 27.447,-19.608 37.962,-19.608c31.904,0.001 52.399,24.955 52.399,50.974c0,27.983 -21.743,51.332 -52.399,51.332c-10.16,0 -27.09,-3.565 -37.962,-19.427l-0.358,0l0,17.11l-12.475,0l0,-127.593Z" style="fill:#e21e2d;fill-rule:nonzero;"/><path d="M475.656,80.162c-3.921,-22.992 -22.636,-33.328 -38.141,-33.328c-15.328,0 -34.399,10.336 -37.963,33.328l76.104,0Zm-76.104,11.23c0.89,19.07 18.715,35.29 37.785,35.29c17.823,-0.356 30.478,-10.873 34.932,-22.994l13.191,0c-6.773,19.428 -25.487,34.222 -47.945,34.222c-27.268,0 -50.795,-22.101 -50.795,-50.975c0,-27.626 22.279,-50.794 50.617,-51.331c21.388,0.179 36.538,12.835 43.489,24.955c6.595,10.515 8.019,21.388 7.483,30.833l-88.757,0Z" style="fill:#e21e2d;fill-rule:nonzero;"/><path d="M582.463,127.951l19.069,0c11.942,0 30.12,0 45.273,-10.694c8.019,-6.774 20.673,-20.497 20.673,-43.49c0,-17.467 -8.734,-33.687 -22.458,-43.664c-11.762,-7.665 -24.061,-10.159 -43.488,-10.159l-19.069,0l0,108.007Zm-13.189,-119.951l38.498,0c16.218,0 32.258,3.921 42.952,10.873c23.17,14.437 29.942,39.569 29.942,55.431c0,12.298 -4.81,38.674 -29.942,54.714c-10.694,6.953 -26.734,10.873 -42.952,10.873l-38.498,0l0,-131.891Z" style="fill:#e54b36;fill-rule:nonzero;"/><path d="M496.103,143.892l0,-139.892l42.498,0c17.166,0 34.039,4.307 45.134,11.52c23.4,14.581 31.761,39.934 31.761,58.784c0,6.312 -1.533,38.776 -31.789,58.087c-11.067,7.194 -27.94,11.501 -45.106,11.501l-42.498,0Z" style="fill:#e3322c;fill-rule:nonzero;"/><path d="M538.601,0l-38.498,0l-8,0l0,147.892l46.498,0c18.161,0 35.393,-4.427 47.284,-12.147c31.987,-20.435 33.611,-54.766 33.611,-61.441c0,-19.908 -8.839,-46.686 -33.645,-62.179c-11.891,-7.707 -29.105,-12.125 -47.25,-12.125m0,8c16.22,0 32.26,3.921 42.953,10.873c23.169,14.438 29.942,39.569 29.942,55.431c0,12.299 -4.81,38.675 -29.942,54.715c-10.693,6.952 -26.733,10.873 -42.953,10.873l-38.498,0l0,-131.892l38.498,0" style="fill:#fefefe;fill-rule:nonzero;"/><rect x="499.552" y="60.797" width="84.157" height="30.86" style="fill:#fefefe;"/><rect x="526.199" y="34.144" width="30.855" height="84.156" style="fill:#fefefe;"/>
</svg>