<svg viewBox="0 0 2482 943" alt="{{include.alt}}" class="{{include.class}}">
    <g transform="matrix(1,0,0,1,-0.000575309,-90.552)">
        <g transform="matrix(4.16667,0,0,4.16667,0,0)">
            <path d="M411.383,191.13C411.383,191.13 408.633,181.38 418.883,162.63C429.133,143.88 437.133,154.13 437.133,154.13C437.133,154.13 445.883,163.63 435.883,177.88C425.883,192.13 411.383,191.13 411.383,191.13ZM332.633,204.63C320.883,235.38 292.383,222.88 292.383,222.88C292.383,222.88 289.133,211.88 298.383,181.13C307.633,150.38 329.383,162.38 329.383,162.38C329.383,162.38 344.383,173.88 332.633,204.63ZM311.383,75.881C311.383,75.881 329.133,29.631 333.383,52.131C337.633,74.631 296.133,141.63 296.133,141.63C296.633,126.63 311.383,75.881 311.383,75.881ZM57.632,191.13C58.382,161.38 77.882,148.38 84.632,154.88C91.382,161.38 88.882,175.38 76.132,184.13C63.382,192.88 57.632,191.13 57.632,191.13ZM595.383,186.193C594.383,176.193 585.383,179.911 585.383,179.911C585.383,179.911 570.883,191.148 558.133,189.897C545.383,188.646 549.383,160.138 549.383,160.138C549.383,160.138 552.133,134.014 544.633,131.824C537.133,129.634 527.883,138.632 527.883,138.632C527.883,138.632 516.383,151.381 510.883,167.631L509.383,168.131C509.383,168.131 511.133,139.63 509.133,133.13C507.633,129.88 493.883,130.13 491.633,135.88C489.383,141.63 478.383,181.63 477.633,198.38C477.633,198.38 456.133,216.63 437.383,219.63C418.633,222.63 414.133,210.88 414.133,210.88C414.133,210.88 465.133,196.63 463.383,155.88C461.633,115.13 422.258,130.197 417.799,133.547C413.489,136.786 390.474,150.67 383.761,189.108C383.532,190.419 383.133,196.13 383.133,196.13C383.133,196.13 363.383,209.38 352.383,212.88C352.383,212.88 383.133,161.13 345.633,137.63C328.633,127.38 315.133,148.88 315.133,148.88C315.133,148.88 365.883,92.381 354.633,44.631C349.275,21.892 337.909,19.449 327.471,23.128C311.633,29.381 305.633,38.631 305.633,38.631C305.633,38.631 285.133,68.381 280.383,112.63C275.633,156.88 268.633,210.38 268.633,210.38C268.633,210.38 258.883,219.88 249.883,220.38C240.883,220.88 244.883,193.63 244.883,193.63C244.883,193.63 251.883,152.13 251.383,145.13C250.883,138.13 250.383,134.38 242.133,131.88C233.883,129.38 224.883,139.88 224.883,139.88C224.883,139.88 201.133,175.88 199.133,181.38L197.883,183.63L196.633,182.13C196.633,182.13 213.383,133.13 197.383,132.38C181.383,131.63 170.883,149.88 170.883,149.88C170.883,149.88 152.633,180.38 151.883,183.88L150.633,182.38C150.633,182.38 158.133,146.88 156.633,138.13C155.133,129.38 146.883,131.13 146.883,131.13C146.883,131.13 136.383,129.88 133.633,136.63C130.882,143.38 120.883,188.13 119.633,202.38C119.633,202.38 93.382,221.13 76.132,221.38C58.882,221.63 60.632,210.442 60.632,210.442C60.632,210.442 123.883,188.786 106.633,146.036C98.882,135.036 89.882,131.583 77.132,131.833C64.382,132.083 48.933,139.857 38.683,162.857C33.79,173.834 32.382,184.238 31.382,192.122L31.382,192.119C31.382,192.119 19.933,194.38 13.933,189.38C7.933,184.38 4.657,189.38 4.657,189.38C4.657,189.38 -5.729,202.317 4.52,206.317C14.77,210.317 30.675,212 30.675,212L30.663,212C32.133,219 36.408,231.077 48.887,240.561C67.637,254.811 103.635,239.346 103.635,239.346L118.384,231.113C118.384,231.113 118.883,244.67 129.632,246.645C140.383,248.621 144.883,246.626 163.633,201.126C174.633,177.876 175.383,179.128 175.383,179.128L176.633,178.879C176.633,178.879 168.133,223.38 171.383,235.38C174.633,247.38 188.883,246.129 188.883,246.129C188.883,246.129 196.633,247.44 202.883,225.44C209.133,203.44 221.133,179 221.133,179L222.633,179C222.633,179 217.383,224.69 225.383,239.19C233.383,253.69 254.133,244.16 254.133,244.16C254.133,244.16 268.633,236.895 270.883,234.645C270.883,234.645 288.097,249.311 312.368,246.661C366.633,235.981 385.933,221.57 385.933,221.57C385.933,221.57 395.258,245.194 424.133,247.382C457.133,249.882 475.133,229.131 475.133,229.131C475.133,229.131 474.883,242.631 486.383,247.381C497.883,252.131 505.633,225.252 505.633,225.252L524.883,172L526.633,172C526.633,172 527.633,206.69 546.633,212.19C565.633,217.69 590.383,199.41 590.383,199.41C590.383,199.41 596.383,196.193 595.383,186.193Z" style="fill:rgb(227,76,50);fill-rule:nonzero;"/>
        </g>
        <g transform="matrix(4.16667,0,0,4.16667,0,0)">
            <path d="M512.86,240.336L513.58,240.336C514.42,240.336 514.82,240.656 514.94,241.376C515.14,242.136 515.26,242.736 515.46,242.976L517.1,242.976C516.94,242.736 516.82,242.336 516.62,241.336C516.42,240.456 516.06,239.976 515.42,239.736L515.42,239.656C516.22,239.416 516.78,238.856 516.78,238.136C516.78,237.496 516.5,236.976 516.14,236.696C515.66,236.416 515.1,236.216 513.86,236.216C512.78,236.216 511.94,236.296 511.34,236.416L511.34,242.976L512.86,242.976L512.86,240.336ZM512.9,237.376C513.06,237.336 513.34,237.296 513.74,237.296C514.7,237.296 515.14,237.696 515.14,238.296C515.14,238.976 514.46,239.256 513.62,239.256L512.9,239.256L512.9,237.376ZM513.9,232.976C510.14,232.976 507.14,235.896 507.14,239.536C507.14,243.256 510.14,246.176 513.9,246.176C517.7,246.176 520.62,243.256 520.62,239.536C520.62,235.896 517.7,232.976 513.9,232.976ZM513.9,234.296C516.82,234.296 518.94,236.656 518.94,239.576C518.94,242.456 516.82,244.776 513.94,244.776C510.98,244.776 508.82,242.456 508.82,239.536C508.82,236.656 510.98,234.296 513.9,234.296Z" style="fill:rgb(227,76,50);fill-rule:nonzero;"/>
        </g>
    </g>
</svg>
