<svg viewBox="0 0 497 306" alt="{{include.alt}}" class="{{include.class}}">
  <path d="M115.954 5.83l.034-5.83h-.517C72.35.092 28.22 19.196 2.033 41.513L0 43.258v138.163c-.008 14.583 2.658 26.917 7.958 37.67 7.963 16.168 21.45 28.322 39.067 40.505 17.663 12.196 39.692 24.58 65.817 41.083l3.112 1.963 3.113-1.963c34.825-22.025 62.396-36.641 82.004-53.408 9.783-8.383 17.592-17.42 22.88-28.18 5.3-10.753 7.97-23.087 7.958-37.67V43.258l-2.038-1.745C203.684 19.196 159.558.092 116.438 0h-.571l.087 5.83.034-5.83-.034 5.83.088 5.824h.396c39.583-.096 82.154 18.309 105.854 38.713l3.792-4.43h-5.83v135.484c-.008 13.208-2.354 23.538-6.762 32.525-6.596 13.442-18.238 24.317-35.234 36.063-16.954 11.725-39.025 24.154-65.416 40.816l3.112 4.925 3.113-4.925c-35.192-22.2-62.688-36.95-80.642-52.4-8.996-7.72-15.587-15.496-20.008-24.479-4.413-8.987-6.754-19.317-6.763-32.525V45.938H5.825l3.792 4.429c23.696-20.404 66.27-38.809 105.854-38.713h.57l-.087-5.825z" fill="#231f20"/>
  <path d="M60.95 82.642c.95-1.438 1.933-2.925 3.03-4.509 12.112-17.479 33.512-26.05 57.258-22.929 22.57 2.963 41.1 15.875 47.208 32.892 5.417 15.083 3.275 27.267 1.554 37.058-1.483 8.454-2.767 15.759 1.721 21.617 1.825 2.38 4.42 4.217 7.987 5.596 2.975 1.15 6.226-.834 6.588-3.984a5.363 5.363 0 0 0-3.283-5.57c-1.53-.63-2.613-1.363-3.255-2.2-1.783-2.33-.904-7.35.213-13.705 1.83-10.391 4.33-24.62-1.996-42.233-7.375-20.546-29.125-36.054-55.417-39.508-22.887-3.009-46.254 3.533-61.933 20.941-3.342 3.763-5.4 6.484-7.392 11.1-1.3 3.017-.791 5.188 1.392 6.688 2.15 1.475 4.896.904 6.325-1.254zm16.108 13.32c2.3-3.945 4.471-7.674 8.205-11.145 8.837-8.204 20.816-12.167 32.87-10.871 11.371 1.225 21.388 6.95 27.48 15.708 8.441 12.134 6.325 24.175 4.275 35.821-1.75 9.954-3.563 20.25 2.062 29.263 4.246 6.804 12.283 11.962 24.838 15.812 2.658.813 5.466-.77 6.137-3.467a5.27 5.27 0 0 0-3.562-6.316c-9.742-3.013-15.95-6.78-18.825-11.388-3.571-5.72-2.23-13.333-.68-22.15 2.18-12.387 4.892-27.8-5.933-43.358-7.77-11.167-20.42-18.454-34.708-19.992-14.967-1.612-29.854 3.317-40.842 13.521-4.837 4.492-7.617 9.263-10.067 13.467-3.858 6.625-7.104 12.187-18.079 15.812-1.746.575-3.12 2.059-3.404 4.25-.47 3.634 3.013 6.521 6.5 5.375 14.7-4.829 19.28-12.687 23.733-20.341zm45.5 48.88c6.43-7.346 11.546-15.492 15.209-24.209 3.679-8.758 3.046-17.587-1.788-24.854-5.05-7.6-14.191-12.32-23.858-12.32-5.458 0-10.717 1.512-15.2 4.374-4.904 3.134-8.775 7.838-11.196 13.605-5.058 12.041-18.333 21.716-36.392 26.883a5.18 5.18 0 0 0-3.754 5.07c.054 3.276 3.209 5.61 6.354 4.71 21.117-6.038 36.867-17.843 43.125-32.743 3.471-8.275 10.334-11.775 17.063-11.775 11.17 0 21.975 9.646 16.308 23.13-11.958 28.47-39.958 46.795-71.6 54.85a5.166 5.166 0 0 0-3.612 6.67 4.956 4.956 0 0 0 5.908 3.192c15.513-3.933 29.863-10.096 42.008-18.083 8.196-5.392 15.405-11.617 21.425-18.5zm-5.054-32.604a5.063 5.063 0 1 0-9.338-3.92c-8.27 19.686-29.174 34.874-56.716 41.565a5.153 5.153 0 0 0-3.87 5.842 4.99 4.99 0 0 0 6.1 4.033c27.133-6.575 53.05-21.875 63.824-47.52zM99.092 223.642a4.872 4.872 0 0 0-2.8 4.62c.175 3.913 4.65 5.7 7.462 4.376 13.292-6.246 8.675-6.042 23.667.62 2.712 1.205 7.2-.429 7.408-4.362a4.864 4.864 0 0 0-2.887-4.708c-19.517-8.634-14.288-9.217-32.85-.546zm5.429-25.046c-4.988 2.588-12.504 6.483-25.42 10.98a5.138 5.138 0 0 0-3.326 3.724c-.846 3.742 2.688 7.213 6.175 6.004 13.858-4.787 21.917-8.966 27.233-11.72 4.05-2.096 6.53-2.53 11.175-.013 5.884 3.188 15.155 8.213 28.096 13.442 3.659 1.479 7.388-1.775 6.696-5.625a5.14 5.14 0 0 0-3.133-3.859c-12.346-5.004-21.2-9.804-26.834-12.858-8.862-4.8-9.895-5.654-20.662-.075zm2.062-24.18c-6.637 3.876-17.766 10.372-40.879 17.234-3.2.95-4.662 4.659-2.987 7.534.975 1.804 3.308 2.933 5.612 2.25 21.134-6.25 32.863-12.276 40.213-16.455 7.291-4.15 7.975-4.216 14.883.871 6.692 4.933 18.063 12.117 38.267 19.521 2.312.85 4.779-.196 5.841-1.962 1.788-2.755.559-6.467-2.537-7.605-24.113-8.858-34.604-17.233-39.83-21.4-6.766-5.404-9.037-5.562-18.583.013zm67.167 4.813a4.911 4.911 0 0 1 3.013 6.563 5.236 5.236 0 0 1-6.467 2.946c-20.463-6.746-34.07-16.35-41.325-29.109a5.06 5.06 0 0 1 1.9-6.904 5.056 5.056 0 0 1 6.9 1.9c6.02 10.588 17.87 18.708 35.98 24.604zM287.313 41.263c0-.446.391-.83.837-.83h25.821a.85.85 0 0 1 .838.83v1.095a.851.851 0 0 1-.838.838h-23.57v17.77h20.412c.45 0 .837.388.837.838v1.092c0 .45-.387.837-.837.837H290.4v19.059h23.571c.45 0 .838.387.838.837v1.034c0 .45-.388.837-.838.837h-25.82a.857.857 0 0 1-.838-.837v-43.4zM330.35 40.23a.63.63 0 0 1 .588-.442h.704c.317 0 .517.125.646.441l13.262 39.542h.13l13.324-39.542c.134-.316.325-.441.642-.441h.713c.25 0 .512.191.579.441l9.146 44.434c.125.641-.134.837-.713.837h-1.55c-.383 0-.704-.33-.77-.712l-7.272-37.73h-.133l-13.004 38.567c-.125.383-.513.517-.896.517h-.262c-.325 0-.713-.067-.838-.517l-13.004-38.567h-.125l-7.28 37.73c-.066.383-.387.712-.77.712h-1.55c-.58 0-.838-.196-.704-.837l9.137-44.434zM395.067 82.792c6.238 0 10.617-3.734 10.617-9.596 0-5.73-4.438-9.138-10.559-9.138h-12.487v18.734h12.429zm-.387-21.504c6.05 0 9.591-3.796 9.591-9.08 0-5.595-3.862-8.945-10.041-8.945h-11.592v18.025h12.042zm6.116 1.287c4.438 1.292 8.171 4.642 8.171 10.688 0 7.212-5.796 12.237-14.162 12.237h-14.296a.86.86 0 0 1-.838-.837v-43.4c0-.446.396-.83.838-.83h13.72c7.913 0 13.326 4.563 13.326 11.65 0 5.025-2.834 8.692-6.759 10.367v.125zM419.875 41.263c0-.446.392-.83.838-.83h25.82a.85.85 0 0 1 .838.83v1.095a.851.851 0 0 1-.837.838h-23.567v17.77h20.408c.455 0 .838.388.838.838v1.092c0 .45-.383.837-.838.837h-20.408v19.059h23.567c.45 0 .837.387.837.837v1.034c0 .45-.387.837-.837.837h-25.821a.857.857 0 0 1-.838-.837v-43.4zM473.8 65.154c6.184 0 11.392-4.762 11.392-11.137 0-6.121-5.208-10.63-11.458-10.63h-13.525v21.767H473.8zm-16.683-23.891c0-.446.33-.83.838-.83h15.975c7.854 0 14.354 5.73 14.354 13.584 0 6.5-4.509 11.908-10.621 13.641l9.396 16.675c.329.521.196 1.167-.45 1.167h-1.675c-.771 0-1.03-.196-1.35-.77l-9.204-16.684c-.838.067-1.55.067-2.388.067H460.15v16.55c0 .45-.383.837-1.029.837h-1.166a.86.86 0 0 1-.838-.837v-43.4zM284.421 145.438c-.646-.509-.904-.905-.325-1.934l2.32-3.987c.51-.904 1.61-.904 2.184-.45 2.638 1.991 5.538 3.996 9.725 3.996 3.35 0 5.863-2.196 5.863-4.959 0-3.283-2.771-5.537-8.184-7.733-6.045-2.442-12.1-6.304-12.1-13.9 0-5.738 4.246-12.363 14.488-12.363 6.567 0 11.583 3.342 12.87 4.313.647.387.838 1.483.388 2.12l-2.446 3.676c-.512.77-1.483 1.283-2.254.77-2.762-1.741-5.408-3.541-8.946-3.541-3.675 0-5.666 2.058-5.666 4.504 0 3.025 2.387 5.083 7.596 7.213 6.245 2.512 13.458 6.245 13.458 14.554 0 6.625-5.73 12.746-14.808 12.746-8.117 0-12.305-3.417-14.163-5.025zM321.338 105.975c0-.646.587-1.22 1.225-1.22h5.987c.646 0 1.234.574 1.234 1.22v42.621c0 .646-.588 1.225-1.234 1.225h-5.987c-.638 0-1.225-.58-1.225-1.225v-42.62zM345.913 105.07c.066-.516.45-.962 1.154-.962h1.037c.513 0 .9.25 1.092.646l14.163 30.384h.191l14.171-30.384c.192-.396.513-.646 1.088-.646h1.029c.712 0 1.1.446 1.166.963l7.596 43.267c.192.904-.325 1.483-1.154 1.483h-5.862c-.58 0-1.1-.52-1.225-.97l-3.8-24.4h-.196L365.1 149.753c-.125.384-.512.709-1.096.709h-1.158c-.579 0-.904-.325-1.096-.709L350.36 124.45h-.192l-3.738 24.4c-.066.45-.583.971-1.162.971h-5.796c-.837 0-1.346-.58-1.22-1.483l7.662-43.267zM413.138 125.608c3.612 0 6.375-2.9 6.375-6.691 0-3.546-2.763-6.25-6.375-6.25h-7.721v12.941h7.72zm-16.096-19.633c0-.646.52-1.22 1.233-1.22H413.4c7.925 0 14.421 6.428 14.421 14.22 0 7.988-6.496 14.488-14.354 14.488h-8.05v15.133c0 .646-.58 1.225-1.22 1.225h-5.922c-.712 0-1.233-.58-1.233-1.225v-42.62zM434.925 105.975c0-.646.521-1.22 1.221-1.22h5.93c.645 0 1.224.574 1.224 1.22v36.113h16.417c.708 0 1.22.579 1.22 1.225v5.283a1.22 1.22 0 0 1-1.22 1.225h-23.57c-.7 0-1.222-.58-1.222-1.225v-42.62zM467.413 105.975c0-.646.517-1.22 1.23-1.22h26.2c.712 0 1.22.574 1.22 1.22v5.28c0 .64-.508 1.22-1.22 1.22h-19.055v10.563h15.904c.638 0 1.22.575 1.22 1.22v5.346c0 .7-.582 1.221-1.22 1.221h-15.904v11.263h19.054c.713 0 1.22.579 1.22 1.225v5.283c0 .646-.507 1.225-1.22 1.225h-26.2c-.712 0-1.23-.58-1.23-1.225v-42.62zM312.871 199.2l-11.004-25.62h-.133l-11.196 25.62h22.333zm-31.8 14.171l19.833-44.496c.125-.254.446-.446.771-.446h.192c.32 0 .646.059.837.446l19.634 44.496c.133.383.133.77-.58.77h-1.674c-.446 0-.771-.328-.896-.578l-5.217-11.85h-24.6l-5.15 11.85c-.125.25-.446.579-.896.579h-1.8c-.454 0-.646-.263-.454-.771zM328.021 169.904a.85.85 0 0 1 .838-.829h1.358c.454 0 .837.383.837.83v27.754c0 8.3 5.209 14.162 13.78 14.162 8.625 0 13.9-5.796 13.9-14.104v-27.813c0-.512.262-.829.904-.829h1.291c.442 0 .838.383.838.83v28.07c0 9.85-6.7 16.813-16.933 16.813-10.18 0-16.813-6.963-16.813-16.813v-28.07zM382.58 171.838h-12.296c-.646 0-.838-.384-.838-.963v-.97c0-.513.388-.83.838-.83h27.679c.52 0 .837.383.837.83V171c0 .454-.316.838-.837.838H385.6v41.466c0 .45-.383.838-1.029.838h-1.154a.851.851 0 0 1-.838-.838v-41.466zM406.95 169.904c0-.446.392-.829.838-.829h1.358c.509 0 .838.383.838.83v19.77h28.904v-19.77c0-.447.392-.83.837-.83h1.355a.81.81 0 0 1 .837.83v43.4c0 .45-.325.837-.837.837h-1.355a.857.857 0 0 1-.837-.838v-20.929h-28.904v20.93c0 .45-.33.837-.838.837h-1.358a.857.857 0 0 1-.838-.838v-43.4z" fill="#231f20"/>
</svg>