<svg viewBox="0 0 120 74" class="{{include.class}}">
  <path d="M27.829,0c-10.487,-0.037 -21.502,4.718 -27.829,10.136c0,0 0,20.791 0,34.236c0,14.048 10.135,17.716 27.829,28.891c17.694,-11.175 27.829,-14.843 27.829,-28.891c0,-13.445 0,-34.236 0,-34.236c-6.327,-5.418 -17.343,-10.173 -27.829,-10.136Z" style="fill:#ef4627;fill-rule:nonzero;"/>
  <path d="M14.628,20.283c0.228,-0.345 0.464,-0.702 0.727,-1.083c2.906,-4.194 8.043,-6.251 13.742,-5.502c5.417,0.711 9.864,3.81 11.33,7.894c1.3,3.62 0.786,6.544 0.373,8.894c-0.356,2.029 -0.664,3.782 0.413,5.188c0.438,0.571 1.061,1.012 1.917,1.343c0.714,0.276 1.494,-0.2 1.581,-0.956c0.066,-0.572 -0.256,-1.117 -0.788,-1.337c-0.367,-0.151 -0.628,-0.328 -0.781,-0.528c-0.429,-0.559 -0.217,-1.764 0.051,-3.29c0.439,-2.493 1.039,-5.908 -0.479,-10.135c-1.77,-4.931 -6.99,-8.653 -13.3,-9.482c-5.493,-0.722 -11.101,0.848 -14.864,5.026c-0.802,0.903 -1.296,1.556 -1.774,2.664c-0.312,0.723 -0.19,1.245 0.334,1.605c0.516,0.354 1.175,0.217 1.518,-0.301Zm3.866,3.197c0.551,-0.947 1.073,-1.842 1.969,-2.675c2.121,-1.969 4.996,-2.92 7.889,-2.609c2.729,0.294 5.133,1.668 6.595,3.77c2.026,2.912 1.518,5.802 1.026,8.597c-0.42,2.389 -0.855,4.86 0.495,7.023c1.019,1.633 2.948,2.871 5.961,3.795c0.637,0.195 1.312,-0.185 1.473,-0.832c0.163,-0.653 -0.212,-1.317 -0.855,-1.516c-2.338,-0.724 -3.828,-1.627 -4.518,-2.733c-0.857,-1.373 -0.535,-3.2 -0.163,-5.316c0.523,-2.973 1.174,-6.672 -1.424,-10.406c-1.865,-2.68 -4.901,-4.429 -8.33,-4.798c-3.592,-0.387 -7.165,0.796 -9.802,3.244c-1.161,1.079 -1.828,2.223 -2.416,3.233c-0.926,1.59 -1.705,2.925 -4.339,3.795c-0.419,0.138 -0.749,0.494 -0.817,1.02c-0.113,0.871 0.723,1.564 1.56,1.29c3.528,-1.159 4.627,-3.045 5.696,-4.882Zm10.92,11.731c1.543,-1.763 2.771,-3.718 3.65,-5.81c0.883,-2.102 0.731,-4.221 -0.429,-5.965c-1.212,-1.824 -3.406,-2.957 -5.726,-2.957c-1.31,0 -2.572,0.363 -3.648,1.05c-1.177,0.752 -2.106,1.88 -2.687,3.265c-1.214,2.889 -4.4,5.212 -8.734,6.452c-0.541,0.155 -0.911,0.654 -0.902,1.217c0.014,0.786 0.771,1.345 1.526,1.13c5.068,-1.449 8.848,-4.282 10.35,-7.858c0.833,-1.986 2.48,-2.827 4.095,-2.827c2.681,0 5.274,2.316 3.914,5.552c-2.87,6.833 -9.59,11.231 -17.184,13.164c-0.335,0.085 -0.619,0.307 -0.784,0.61c-0.164,0.304 -0.195,0.664 -0.083,0.991c0.202,0.586 0.817,0.918 1.418,0.765c3.723,-0.944 7.167,-2.422 10.082,-4.34c1.967,-1.293 3.697,-2.787 5.142,-4.439Zm-1.213,-7.826c0.259,-0.618 -0.031,-1.33 -0.65,-1.59c-0.619,-0.26 -1.331,0.031 -1.591,0.649c-1.985,4.726 -7.002,8.371 -13.612,9.977c-0.629,0.153 -1.034,0.764 -0.929,1.402c0.113,0.684 0.784,1.132 1.464,0.968c6.512,-1.578 12.732,-5.25 15.318,-11.406Zm-4.419,26.738c-0.427,0.2 -0.692,0.637 -0.672,1.109c0.042,0.939 1.116,1.368 1.791,1.05c3.19,-1.499 2.082,-1.45 5.68,0.149c0.651,0.289 1.728,-0.103 1.778,-1.047c0.026,-0.484 -0.25,-0.934 -0.693,-1.13c-4.684,-2.073 -3.429,-2.212 -7.884,-0.131Zm1.303,-6.011c-1.197,0.62 -3.001,1.556 -6.101,2.635c-0.403,0.14 -0.704,0.478 -0.798,0.893c-0.203,0.899 0.645,1.732 1.482,1.442c3.326,-1.149 5.26,-2.152 6.536,-2.813c0.972,-0.504 1.567,-0.607 2.682,-0.003c1.412,0.765 3.637,1.971 6.743,3.226c0.878,0.355 1.773,-0.426 1.607,-1.35c-0.075,-0.418 -0.359,-0.767 -0.752,-0.926c-2.963,-1.201 -5.088,-2.353 -6.44,-3.086c-2.127,-1.153 -2.375,-1.357 -4.959,-0.018Zm0.495,-5.803c-1.593,0.93 -4.264,2.489 -9.811,4.136c-0.768,0.228 -1.119,1.118 -0.717,1.808c0.234,0.433 0.794,0.703 1.347,0.54c5.072,-1.501 7.887,-2.946 9.651,-3.949c1.75,-0.996 1.914,-1.013 3.572,0.209c1.606,1.184 4.335,2.908 9.184,4.685c0.555,0.204 1.147,-0.047 1.402,-0.471c0.429,-0.661 0.134,-1.553 -0.609,-1.825c-5.787,-2.126 -8.305,-4.136 -9.559,-5.136c-1.624,-1.297 -2.169,-1.335 -4.46,0.003Zm16.12,1.155c0.657,0.214 0.987,0.942 0.723,1.575c-0.253,0.604 -0.93,0.912 -1.552,0.707c-4.911,-1.619 -8.177,-3.924 -9.918,-6.986c-0.332,-0.584 -0.128,-1.325 0.455,-1.657c0.583,-0.332 1.325,-0.128 1.657,0.455c1.445,2.542 4.289,4.491 8.635,5.906Z" style="fill:#fff;fill-rule:nonzero;"/><path d="M68.955,10.352c0,-0.107 0.094,-0.199 0.201,-0.199l6.197,0c0.108,0 0.201,0.092 0.201,0.199l0,0.263c0,0.108 -0.093,0.201 -0.201,0.201l-5.657,0l0,4.265l4.899,0c0.108,0 0.201,0.093 0.201,0.201l0,0.261c0,0.109 -0.093,0.201 -0.201,0.201l-4.899,0l0,4.575l5.657,0c0.108,0 0.201,0.093 0.201,0.201l0,0.248c0,0.108 -0.093,0.201 -0.201,0.201l-6.197,0c-0.107,0 -0.201,-0.093 -0.201,-0.201l0,-10.416Z" style="fill:#231f20;fill-rule:nonzero;"/><path d="M79.284,10.104c0.016,-0.06 0.079,-0.106 0.141,-0.106l0.169,0c0.076,0 0.124,0.03 0.155,0.106l3.183,9.49c0.015,0 0.015,0 0.031,0l3.198,-9.49c0.032,-0.076 0.078,-0.106 0.154,-0.106l0.171,0c0.06,0 0.123,0.046 0.139,0.106l2.195,10.664c0.03,0.154 -0.032,0.201 -0.171,0.201l-0.372,0c-0.092,0 -0.169,-0.079 -0.185,-0.171l-1.745,-9.055c-0.016,0 -0.032,0 -0.032,0l-3.121,9.256c-0.03,0.092 -0.123,0.124 -0.215,0.124l-0.063,0c-0.078,0 -0.171,-0.016 -0.201,-0.124l-3.121,-9.256c0,0 -0.016,0 -0.03,0l-1.747,9.055c-0.016,0.092 -0.093,0.171 -0.185,0.171l-0.372,0c-0.139,0 -0.201,-0.047 -0.169,-0.201l2.193,-10.664Z" style="fill:#231f20;fill-rule:nonzero;"/><path d="M94.816,20.319c1.497,0 2.548,-0.896 2.548,-2.303c0,-1.375 -1.065,-2.193 -2.534,-2.193l-2.997,0l0,4.496l2.983,0Zm-0.093,-5.161c1.451,0 2.302,-0.911 2.302,-2.179c0,-1.343 -0.927,-2.147 -2.41,-2.147l-2.782,0l0,4.326l2.89,0Zm1.468,0.309c1.065,0.31 1.961,1.114 1.961,2.565c0,1.731 -1.391,2.937 -3.399,2.937l-3.431,0c-0.106,0 -0.201,-0.093 -0.201,-0.201l0,-10.416c0,-0.107 0.095,-0.199 0.201,-0.199l3.293,0c1.899,0 3.198,1.095 3.198,2.796c0,1.206 -0.68,2.086 -1.622,2.488l0,0.03Z" style="fill:#231f20;fill-rule:nonzero;"/><path d="M100.77,10.352c0,-0.107 0.094,-0.199 0.201,-0.199l6.197,0c0.108,0 0.201,0.092 0.201,0.199l0,0.263c0,0.108 -0.093,0.201 -0.201,0.201l-5.656,0l0,4.265l4.898,0c0.109,0 0.201,0.093 0.201,0.201l0,0.261c0,0.109 -0.092,0.201 -0.201,0.201l-4.898,0l0,4.575l5.656,0c0.108,0 0.201,0.093 0.201,0.201l0,0.248c0,0.108 -0.093,0.201 -0.201,0.201l-6.197,0c-0.107,0 -0.201,-0.093 -0.201,-0.201l0,-10.416Z" style="fill:#231f20;fill-rule:nonzero;"/><path d="M113.712,16.086c1.484,0 2.734,-1.144 2.734,-2.673c0,-1.469 -1.25,-2.551 -2.75,-2.551l-3.246,0l0,5.224l3.262,0Zm-4.004,-5.734c0,-0.107 0.079,-0.199 0.201,-0.199l3.834,0c1.885,0 3.445,1.374 3.445,3.26c0,1.56 -1.082,2.858 -2.549,3.274l2.255,4.002c0.079,0.125 0.047,0.28 -0.108,0.28l-0.402,0c-0.185,0 -0.247,-0.047 -0.324,-0.185l-2.209,-4.004c-0.201,0.016 -0.372,0.016 -0.573,0.016l-2.842,0l0,3.972c0,0.108 -0.092,0.201 -0.247,0.201l-0.28,0c-0.106,0 -0.201,-0.093 -0.201,-0.201l0,-10.416Z" style="fill:#231f20;fill-rule:nonzero;"/><path d="M68.261,35.354c-0.155,-0.122 -0.217,-0.217 -0.078,-0.464l0.557,-0.957c0.122,-0.217 0.386,-0.217 0.524,-0.108c0.633,0.478 1.329,0.958 2.334,0.958c0.804,0 1.407,-0.526 1.407,-1.189c0,-0.788 -0.665,-1.329 -1.964,-1.856c-1.451,-0.587 -2.904,-1.513 -2.904,-3.336c0,-1.377 1.019,-2.967 3.477,-2.967c1.576,0 2.78,0.802 3.089,1.035c0.155,0.092 0.201,0.356 0.093,0.509l-0.587,0.882c-0.123,0.185 -0.356,0.307 -0.541,0.185c-0.663,-0.418 -1.298,-0.85 -2.147,-0.85c-0.882,0 -1.36,0.494 -1.36,1.081c0,0.726 0.573,1.22 1.823,1.731c1.499,0.603 3.23,1.499 3.23,3.493c0,1.59 -1.375,3.059 -3.554,3.059c-1.948,0 -2.953,-0.82 -3.399,-1.206Z" style="fill:#231f20;fill-rule:nonzero;"/><path d="M77.121,25.883c0,-0.155 0.141,-0.293 0.294,-0.293l1.437,0c0.155,0 0.296,0.138 0.296,0.293l0,10.229c0,0.155 -0.141,0.294 -0.296,0.294l-1.437,0c-0.153,0 -0.294,-0.139 -0.294,-0.294l0,-10.229Z" style="fill:#231f20;fill-rule:nonzero;"/><path d="M83.019,25.666c0.016,-0.125 0.108,-0.231 0.277,-0.231l0.249,0c0.123,0 0.216,0.06 0.262,0.155l3.399,7.292c0.032,0 0.032,0 0.046,0l3.401,-7.292c0.046,-0.095 0.123,-0.155 0.261,-0.155l0.247,0c0.171,0 0.264,0.106 0.28,0.231l1.823,10.384c0.046,0.217 -0.078,0.356 -0.277,0.356l-1.407,0c-0.139,0 -0.264,-0.125 -0.294,-0.234l-0.912,-5.855c-0.015,0 -0.047,0 -0.047,0l-2.703,6.073c-0.03,0.092 -0.123,0.17 -0.263,0.17l-0.278,0c-0.139,0 -0.217,-0.078 -0.263,-0.17l-2.734,-6.073c0,0 -0.032,0 -0.046,0l-0.897,5.855c-0.016,0.109 -0.14,0.234 -0.279,0.234l-1.391,0c-0.201,0 -0.323,-0.139 -0.293,-0.356l1.839,-10.384Z" style="fill:#231f20;fill-rule:nonzero;"/><path d="M99.153,30.595c0.867,0 1.53,-0.696 1.53,-1.606c0,-0.851 -0.663,-1.5 -1.53,-1.5l-1.853,0l0,3.106l1.853,0Zm-3.863,-4.712c0,-0.155 0.125,-0.293 0.296,-0.293l3.63,0c1.902,0 3.461,1.543 3.461,3.413c0,1.917 -1.559,3.477 -3.445,3.477l-1.932,0l0,3.632c0,0.155 -0.139,0.294 -0.293,0.294l-1.421,0c-0.171,0 -0.296,-0.139 -0.296,-0.294l0,-10.229Z" style="fill:#231f20;fill-rule:nonzero;"/><path d="M104.382,25.883c0,-0.155 0.125,-0.293 0.293,-0.293l1.423,0c0.155,0 0.294,0.138 0.294,0.293l0,8.667l3.94,0c0.17,0 0.293,0.139 0.293,0.294l0,1.268c0,0.155 -0.123,0.294 -0.293,0.294l-5.657,0c-0.168,0 -0.293,-0.139 -0.293,-0.294l0,-10.229Z" style="fill:#231f20;fill-rule:nonzero;"/><path d="M112.179,25.883c0,-0.155 0.124,-0.293 0.295,-0.293l6.288,0c0.171,0 0.293,0.138 0.293,0.293l0,1.266c0,0.155 -0.122,0.294 -0.293,0.294l-4.573,0l0,2.535l3.817,0c0.153,0 0.293,0.138 0.293,0.293l0,1.282c0,0.169 -0.14,0.294 -0.293,0.294l-3.817,0l0,2.703l4.573,0c0.171,0 0.293,0.139 0.293,0.294l0,1.268c0,0.155 -0.122,0.294 -0.293,0.294l-6.288,0c-0.171,0 -0.295,-0.139 -0.295,-0.294l0,-10.229Z" style="fill:#231f20;fill-rule:nonzero;"/><path d="M75.089,48.257l-2.641,-6.149l-0.032,0l-2.687,6.149l5.36,0Zm-7.632,3.401l4.76,-10.68c0.03,-0.06 0.106,-0.106 0.185,-0.106l0.046,0c0.076,0 0.155,0.014 0.201,0.106l4.712,10.68c0.032,0.092 0.032,0.185 -0.139,0.185l-0.402,0c-0.107,0 -0.185,-0.079 -0.215,-0.139l-1.252,-2.844l-5.904,0l-1.236,2.844c-0.03,0.06 -0.107,0.139 -0.215,0.139l-0.432,0c-0.109,0 -0.155,-0.063 -0.109,-0.185Z" style="fill:#231f20;fill-rule:nonzero;"/><path d="M78.725,41.226c0,-0.107 0.093,-0.199 0.201,-0.199l0.326,0c0.109,0 0.201,0.092 0.201,0.199l0,6.661c0,1.992 1.25,3.399 3.307,3.399c2.07,0 3.336,-1.391 3.336,-3.385l0,-6.675c0,-0.123 0.063,-0.199 0.217,-0.199l0.31,0c0.106,0 0.201,0.092 0.201,0.199l0,6.737c0,2.364 -1.608,4.034 -4.064,4.034c-2.443,0 -4.035,-1.67 -4.035,-4.034l0,-6.737Z" style="fill:#231f20;fill-rule:nonzero;"/><path d="M91.819,41.69l-2.951,0c-0.155,0 -0.201,-0.093 -0.201,-0.231l0,-0.233c0,-0.123 0.093,-0.199 0.201,-0.199l6.643,0c0.125,0 0.201,0.092 0.201,0.199l0,0.263c0,0.108 -0.076,0.201 -0.201,0.201l-2.967,0l0,9.952c0,0.108 -0.092,0.201 -0.247,0.201l-0.277,0c-0.109,0 -0.201,-0.093 -0.201,-0.201l0,-9.952Z" style="fill:#231f20;fill-rule:nonzero;"/><path d="M97.668,41.226c0,-0.107 0.094,-0.199 0.201,-0.199l0.326,0c0.122,0 0.201,0.092 0.201,0.199l0,4.745l6.937,0l0,-4.745c0,-0.107 0.094,-0.199 0.201,-0.199l0.325,0c0.123,0 0.201,0.092 0.201,0.199l0,10.416c0,0.108 -0.078,0.201 -0.201,0.201l-0.325,0c-0.107,0 -0.201,-0.093 -0.201,-0.201l0,-5.023l-6.937,0l0,5.023c0,0.108 -0.079,0.201 -0.201,0.201l-0.326,0c-0.107,0 -0.201,-0.093 -0.201,-0.201l0,-10.416Z" style="fill:#231f20;fill-rule:nonzero;"/>
</svg>
