<svg viewBox="0 0 1280 396" class="{{include.class}}">
  <g id="logo"><path d="M322.58,46.179l-138.467,30.107l-36.494,35.828l200.564,-37.378l-25.603,-28.557Z" style="fill:url(#_Linear1);fill-rule:nonzero;"/><path d="M368.873,98.209l-238.612,30.904l-36.526,35.827l313.072,-24.511l-37.934,-42.22Z" style="fill:url(#_Linear2);fill-rule:nonzero;"/><path d="M432.658,170.356l-356.275,11.583l-19.059,20.541l19.059,11.023l356.516,18.586l28.211,-29.609l-28.452,-32.124Z" style="fill:url(#_Linear3);fill-rule:nonzero;"/><path d="M184.113,319.162l138.467,30.108l25.603,-27.904l-200.564,-38.037l36.494,35.833Z" style="fill:url(#_Linear4);fill-rule:nonzero;"/><path d="M130.261,266.33l238.612,33.107l37.934,-40.191l-313.072,-28.75l36.526,35.834Z" style="fill:url(#_Linear5);fill-rule:nonzero;"/><path d="M549.572,300.69l0,-191.325l136.544,0l0,24.044l-112.312,0l0,59.587l87.794,0l0,24.051l-87.794,0l0,59.878l112.312,0l0,23.765l-136.544,0Z" style="fill:#0ea8de;fill-rule:nonzero;"/><path d="M829.644,141.065c-6.874,-5.091 -15.163,-7.649 -24.803,-7.649l-58.511,0l0,59.58l58.511,0c9.862,0 18.126,-2.639 24.803,-7.912c7.8,-5.651 11.709,-12.959 11.709,-21.872c0,-8.938 -3.909,-16.308 -11.709,-22.147m26.745,159.625l-44.288,-66.968c-7.444,-11.111 -19.63,-16.669 -36.532,-16.669l-29.239,0l0,83.637l-24.251,0l0,-191.325l82.762,0c16.158,0 30.28,4.917 42.345,14.77c12.459,10.75 18.685,23.771 18.685,39.077c0,12.567 -4.17,23.497 -12.529,32.79c-7.996,9.299 -18.488,15.592 -31.498,18.872c4.633,0.368 11.062,6.636 19.224,18.848l44.332,66.968l-29.011,0Z" style="fill:#0ea8de;fill-rule:nonzero;"/><path d="M1028.09,154.468c-14.318,-14.036 -31.607,-21.057 -51.853,-21.057l-48.768,0l0,143.51l48.768,0c19.884,0 37.16,-7.021 51.853,-21.057c14.299,-14.397 21.439,-31.34 21.439,-50.835c0,-19.687 -7.14,-36.537 -21.439,-50.561m16.98,118.345c-18.958,18.58 -41.882,27.879 -68.837,27.879l-73.026,0l0,-191.326l73.026,0c26.955,0 49.879,9.393 68.837,28.166c19.148,18.748 28.687,41.268 28.687,67.497c0,26.417 -9.539,49.011 -28.687,67.784" style="fill:#0ea8de;fill-rule:nonzero;"/><rect x="1107.5" y="160.011" width="24.232" height="140.678" style="fill:#0ea8de;"/><rect x="1107.5" y="109.369" width="24.232" height="28.894" style="fill:#0ea8de;"/><path d="M1167.98,300.69l0,-191.325l24.232,0l0,167.56l87.788,0l0,23.765l-112.02,0Z" style="fill:#0ea8de;fill-rule:nonzero;"/><path d="M0,202.48l206.453,192.682l61.583,-57.333l-147.848,-135.349l147.848,-145.01l-61.583,-57.47l-206.453,202.48Z" style="fill:url(#_Linear6);fill-rule:nonzero;"/><path d="M120.188,202.48l147.848,135.349l0,-280.359l-147.848,145.01Z" style="fill:url(#_Linear7);fill-rule:nonzero;"/></g><defs><linearGradient id="_Linear1" x1="0" y1="0" x2="1" y2="0" gradientUnits="userSpaceOnUse" gradientTransform="matrix(1.88921e-14,-308.531,308.531,1.88921e-14,247.9,355.406)"><stop offset="0" style="stop-color:#ef7f21;stop-opacity:1"/><stop offset="1" style="stop-color:#fabe11;stop-opacity:1"/></linearGradient><linearGradient id="_Linear2" x1="0" y1="0" x2="1" y2="0" gradientUnits="userSpaceOnUse" gradientTransform="matrix(1.88913e-14,-308.519,308.519,1.88913e-14,250.271,355.403)"><stop offset="0" style="stop-color:#ef7f21;stop-opacity:1"/><stop offset="1" style="stop-color:#fabe11;stop-opacity:1"/></linearGradient><linearGradient id="_Linear3" x1="0" y1="0" x2="1" y2="0" gradientUnits="userSpaceOnUse" gradientTransform="matrix(1.97637e-14,-322.766,322.766,1.97637e-14,259.217,363.946)"><stop offset="0" style="stop-color:#ef7f21;stop-opacity:1"/><stop offset="1" style="stop-color:#fabe11;stop-opacity:1"/></linearGradient><linearGradient id="_Linear4" x1="0" y1="0" x2="1" y2="0" gradientUnits="userSpaceOnUse" gradientTransform="matrix(1.88921e-14,-308.531,308.531,1.88921e-14,247.9,351.127)"><stop offset="0" style="stop-color:#ef7f21;stop-opacity:1"/><stop offset="1" style="stop-color:#fabe11;stop-opacity:1"/></linearGradient><linearGradient id="_Linear5" x1="0" y1="0" x2="1" y2="0" gradientUnits="userSpaceOnUse" gradientTransform="matrix(1.95151e-14,-318.705,318.705,1.95151e-14,250.271,355.102)"><stop offset="0" style="stop-color:#ef7f21;stop-opacity:1"/><stop offset="1" style="stop-color:#fabe11;stop-opacity:1"/></linearGradient><linearGradient id="_Linear6" x1="0" y1="0" x2="1" y2="0" gradientUnits="userSpaceOnUse" gradientTransform="matrix(1.15309e-14,-188.314,188.314,1.15309e-14,134.021,395.795)"><stop offset="0" style="stop-color:#1784b1;stop-opacity:1"/><stop offset="1" style="stop-color:#0ea8de;stop-opacity:1"/></linearGradient><linearGradient id="_Linear7" x1="0" y1="0" x2="1" y2="0" gradientUnits="userSpaceOnUse" gradientTransform="matrix(122.334,0,0,122.334,131.914,197.65)"><stop offset="0" style="stop-color:#fff;stop-opacity:1"/><stop offset="1" style="stop-color:#adabac;stop-opacity:1"/></linearGradient></defs>
</svg>