<svg viewBox="0 0 1404 1667" class="{{include.class}}">
    <g transform="matrix(1,0,0,1,0,-4.14614)">
        <g transform="matrix(4.16667,0,0,4.16667,0,0)">
            <path d="M317.31,211.468C317.31,211.708 317.3,211.998 317.28,212.338C317.28,212.438 317.28,212.538 317.27,212.638C317.22,213.558 317.11,214.758 316.95,216.208C316.93,216.398 316.91,216.588 316.89,216.778C316.66,218.828 316.33,221.338 315.89,224.208C315.85,224.468 315.81,224.738 315.77,224.998C315.6,226.068 315.42,227.188 315.23,228.348C315.07,229.338 314.89,230.358 314.7,231.408C314.64,231.758 314.58,232.118 314.51,232.478C314.43,232.938 314.34,233.418 314.25,233.888C314.13,234.568 314,235.258 313.86,235.958C313.85,236.008 313.84,236.068 313.83,236.118C313.7,236.788 313.57,237.478 313.43,238.168C313.3,238.808 313.17,239.448 313.04,240.098C312.86,240.978 312.67,241.878 312.48,242.788C312.18,244.208 311.86,245.648 311.53,247.118C311.31,248.088 311.08,249.058 310.85,250.048C310.74,250.538 310.62,251.028 310.5,251.528C310.26,252.518 310.01,253.518 309.76,254.538C309.46,255.738 309.16,256.938 308.83,258.158C308.61,258.998 308.39,259.838 308.16,260.688C308.14,260.778 308.12,260.858 308.09,260.938C307.83,261.899 307.57,262.858 307.3,263.818C306.7,265.938 306.08,268.068 305.42,270.208C305.18,270.998 304.94,271.788 304.69,272.578C304.44,273.368 304.18,274.158 303.93,274.958C303.93,274.968 303.92,274.978 303.92,274.988C303.66,275.778 303.4,276.578 303.13,277.378C302.87,278.178 302.59,278.978 302.31,279.788C301.94,280.848 301.57,281.898 301.19,282.958C300.75,284.178 300.31,285.388 299.84,286.588C299.5,287.498 299.15,288.408 298.79,289.318C248.73,415.938 122.93,447.518 52.159,317.848C24.72,268.298 20.03,211.968 20.03,211.468L20.179,211.468C119.16,225.288 217.41,225.338 316.78,211.468L317.31,211.468Z" style="fill:rgb(108,110,112);fill-rule:nonzero;"/>
        </g>
        <g transform="matrix(4.16667,0,0,4.16667,0,0)">
            <path d="M317.31,211.416C317.31,217.713 312.1,255.637 298.793,289.318C248.726,415.935 122.932,447.513 52.158,317.849C24.717,268.296 20.029,211.964 20.029,211.47C20.522,211.539 22.02,211.752 23.055,211.889C27.611,251.065 38.566,287.193 54.747,316.425C138.98,470.72 295.76,389.48 314.293,211.835C314.793,211.769 317.039,211.459 317.31,211.416Z" style="fill:white;fill-rule:nonzero;"/>
        </g>
        <g transform="matrix(4.16667,0,0,4.16667,0,0)">
            <path d="M314.71,128.078C311.89,128.498 309.08,128.908 306.26,129.298C295.9,130.758 285.54,132.058 275.18,133.188C207.66,140.548 140.2,140.928 72.69,134.308C67.7,133.828 62.709,133.298 57.72,132.728C46.099,131.418 34.47,129.898 22.849,128.168C27.789,124.618 33.28,120.648 56.02,104.218C59.02,101.978 61.459,103.228 63.94,104.178C89.809,68.168 88.11,68.859 92.99,69.138C94.369,69.319 95.309,69.668 96.61,70.879L120.32,33.109C121.89,30.609 124.33,29.718 126.62,30.189C131.05,31.089 132.22,35.448 144.33,50.968C165.13,2.698 164.48,1.629 168.94,1.208C173.59,0.248 171.93,0.379 216.23,51.118C222.96,46.598 223.4,45.978 225.47,45.978C229.33,45.978 228.88,46.638 266.12,85.839C278.08,85.828 280.05,85.339 282.27,88.359C296.28,106.898 306.22,119.588 314.71,128.078Z" style="fill:rgb(108,110,112);fill-rule:nonzero;"/>
        </g>
        <g transform="matrix(4.16667,0,0,4.16667,0,0)">
            <path d="M14.789,133.988L14.76,134.228C14.679,134.208 14.599,134.198 14.52,134.178C14.61,134.108 14.7,134.048 14.789,133.988Z" style="fill:rgb(108,110,112);fill-rule:nonzero;"/>
        </g>
        <g transform="matrix(4.16667,0,0,4.16667,0,0)">
            <path d="M158.387,292.01L161.331,289.486C158.683,284.753 154.384,280.015 154.384,280.015L142.498,287.055L141.497,286.01L141.427,286.05C139.935,286.41 137.703,287.011 135.852,287.588C138.637,290.379 144.11,296.186 147.921,302.26L151.609,297.66C163.652,314.083 159.355,306.838 170.935,320.472L178.962,314.428C172.42,307.757 166.906,304.658 158.387,292.01Z" style="fill:white;fill-rule:nonzero;"/>
        </g>
        <g transform="matrix(4.16667,0,0,4.16667,0,0)">
            <path d="M151.597,279.626L150.966,278.856C147.493,280.509 145.312,281.867 142.511,284.127L143.046,284.691L151.597,279.626Z" style="fill:white;fill-rule:nonzero;"/>
        </g>
        <g transform="matrix(4.16667,0,0,4.16667,0,0)">
            <path d="M181.604,317.262L173.405,323.445L181.771,333.937C184.942,332.778 187.694,330.992 189.699,328.222C185.323,321.276 182.184,317.972 181.604,317.262Z" style="fill:white;fill-rule:nonzero;"/>
        </g>
        <g transform="matrix(4.16667,0,0,4.16667,0,0)">
            <path d="M131.775,289.003C128.535,290.26 127.061,291.266 126.588,291.705C128.761,301.965 132.45,305.697 141.393,310.405L145.352,305.465C141.073,298.143 133.648,290.802 131.775,289.003Z" style="fill:white;fill-rule:nonzero;"/>
        </g>
        <g transform="matrix(4.16667,0,0,4.16667,0,0)">
            <path d="M175.431,292.01L172.488,289.486C175.135,284.753 179.434,280.015 179.434,280.015L191.321,287.055L192.322,286.01L192.391,286.05C193.885,286.41 196.116,287.011 197.968,287.588C195.181,290.379 189.709,296.186 185.898,302.26L182.211,297.66C170.318,313.878 174.089,307.279 162.884,320.472L154.858,314.428C161.309,307.848 166.946,304.61 175.431,292.01Z" style="fill:white;fill-rule:nonzero;"/>
        </g>
        <g transform="matrix(4.16667,0,0,4.16667,0,0)">
            <path d="M182.221,279.626L182.852,278.856C186.326,280.509 188.508,281.867 191.307,284.127L190.772,284.691L182.221,279.626Z" style="fill:white;fill-rule:nonzero;"/>
        </g>
        <g transform="matrix(4.16667,0,0,4.16667,0,0)">
            <path d="M152.215,317.262L160.414,323.445L152.048,333.937C148.877,332.778 146.125,330.992 144.119,328.222C148.415,321.404 151.348,318.324 152.215,317.262Z" style="fill:white;fill-rule:nonzero;"/>
        </g>
        <g transform="matrix(4.16667,0,0,4.16667,0,0)">
            <path d="M202.045,289.003C205.284,290.26 206.758,291.266 207.231,291.705C205.057,301.965 201.369,305.697 192.426,310.405L188.467,305.465C192.746,298.143 200.171,290.802 202.045,289.003Z" style="fill:white;fill-rule:nonzero;"/>
        </g>
        <g transform="matrix(4.16667,0,0,4.16667,0,0)">
            <path d="M264.005,90.775L244.806,87.866L224.948,75.54L224.948,51.205C225.173,51.044 225.063,51.13 225.343,50.929C226.318,50.579 228.877,53.808 264,90.765C264.005,90.77 264.005,90.775 264.005,90.775Z" style="fill:white;fill-rule:nonzero;"/>
        </g>
        <g transform="matrix(4.16667,0,0,4.16667,0,0)">
            <path d="M215.374,57.634L179.974,50.904L174.798,36.099L166.909,28.95L169.7,6.103C169.7,6.103 169.705,6.103 169.715,6.098C170.899,5.858 168.449,3.919 215.374,57.634Z" style="fill:white;fill-rule:nonzero;"/>
        </g>
        <g transform="matrix(4.16667,0,0,4.16667,0,0)">
            <path d="M221.141,130.033C157.393,117.266 171.982,119.172 148.914,119.172L148.175,105.121L136.589,95.246L125.634,35.019C127.692,35.426 131.598,43.363 145.611,60.459L165.184,80.717L179.481,85.401L185.398,107.34C209.266,124.863 201.15,119.717 221.141,130.033Z" style="fill:white;fill-rule:nonzero;"/>
        </g>
        <g transform="matrix(4.16667,0,0,4.16667,0,0)">
            <path d="M125.634,137.498C119.385,134.833 125.07,136.785 92.956,126.651C83.874,108.99 88.013,115.63 74.793,97.519C92.767,72.462 91.442,73.99 92.537,74.051L89.259,84.908L101.091,95.261L98.872,114.488L118.1,126.651L125.634,137.498Z" style="fill:white;fill-rule:nonzero;"/>
        </g>
        <g transform="matrix(4.16667,0,0,4.16667,0,0)">
            <path d="M57.72,132.728C58.159,131.998 58.7,131.118 59.349,130.038L54.02,125.418L56.22,110.158C59.409,107.848 59.38,107.708 60.079,107.978L63.01,118.518L69.38,123.448C71.02,128.828 72.03,132.158 72.69,134.308C67.7,133.828 62.709,133.298 57.72,132.728Z" style="fill:white;fill-rule:nonzero;"/>
        </g>
        <g transform="matrix(4.16667,0,0,4.16667,0,0)">
            <path d="M306.26,129.298C295.9,130.758 285.54,132.058 275.18,133.188C270.89,126.938 263.62,116.118 263.62,116.118C263.29,116.118 261.739,97.738 261.739,97.738L287.29,121.198L306.26,129.298Z" style="fill:white;fill-rule:nonzero;"/>
        </g>
        <g transform="matrix(4.16667,0,0,4.16667,0,0)">
            <path d="M293.83,211.468C212.04,221.168 127.74,221.528 43.03,211.468C29.82,209.908 16.599,208.088 3.38,206.008L14.76,134.228C14.679,134.208 14.599,134.198 14.52,134.178C14.61,134.108 14.7,134.048 14.789,133.988L15.42,130.038C16.749,130.248 18.09,130.448 19.42,130.648C31.61,132.508 43.82,134.138 56.039,135.538C61.9,136.208 67.76,136.828 73.63,137.388C141.42,143.928 209.53,143.458 277.12,135.978C288.61,134.708 300.07,133.228 311.52,131.548C313.48,131.268 315.43,130.978 317.39,130.668C318.77,130.468 320.14,130.258 321.52,130.038L333.55,206.008C320.38,208.078 307.14,209.898 293.83,211.468ZM323.98,126.648C320.89,127.138 317.8,127.618 314.71,128.078C311.89,128.498 309.08,128.908 306.26,129.298C295.9,130.758 285.54,132.058 275.18,133.188C207.66,140.548 140.2,140.928 72.69,134.308C67.7,133.828 62.709,133.298 57.72,132.728C46.099,131.418 34.47,129.898 22.849,128.168C19.55,127.678 16.26,127.168 12.959,126.648L0,208.468C6.73,209.528 13.459,210.538 20.179,211.468C119.16,225.288 217.41,225.338 316.78,211.468C323.49,210.528 330.21,209.528 336.94,208.468L323.98,126.648Z" style="fill:white;fill-rule:nonzero;"/>
        </g>
        <g transform="matrix(4.16667,0,0,4.16667,0,0)">
            <path d="M14.789,133.988L14.76,134.228C14.679,134.208 14.599,134.198 14.52,134.178C14.61,134.108 14.7,134.048 14.789,133.988Z" style="fill:white;fill-rule:nonzero;"/>
        </g>
        <g transform="matrix(4.16667,0,0,4.16667,0,0)">
            <path d="M44.929,171.498C44.929,176.998 40.45,181.478 34.95,181.478C29.45,181.478 24.97,176.998 24.97,171.498C24.97,165.988 29.45,161.518 34.95,161.518C40.45,161.518 44.929,165.988 44.929,171.498Z" style="fill:white;fill-rule:nonzero;"/>
        </g>
        <g transform="matrix(4.16667,0,0,4.16667,0,0)">
            <path d="M311.97,171.498C311.97,176.998 307.49,181.478 301.99,181.478C296.48,181.478 292.01,176.998 292.01,171.498C292.01,165.988 296.48,161.518 301.99,161.518C307.49,161.518 311.97,165.988 311.97,171.498Z" style="fill:white;fill-rule:nonzero;"/>
        </g>
        <g transform="matrix(4.16667,0,0,4.16667,0,0)">
            <path d="M44.929,171.498C44.929,176.998 40.45,181.478 34.95,181.478C29.45,181.478 24.97,176.998 24.97,171.498C24.97,165.988 29.45,161.518 34.95,161.518C40.45,161.518 44.929,165.988 44.929,171.498Z" style="fill:rgb(108,110,112);fill-rule:nonzero;"/>
        </g>
        <g transform="matrix(4.16667,0,0,4.16667,0,0)">
            <path d="M301.99,181.478C296.48,181.478 292.01,176.998 292.01,171.498C292.01,165.988 296.48,161.518 301.99,161.518C307.49,161.518 311.97,165.988 311.97,171.498C311.97,176.998 307.49,181.478 301.99,181.478ZM34.95,181.478C29.45,181.478 24.97,176.998 24.97,171.498C24.97,165.988 29.45,161.518 34.95,161.518C40.45,161.518 44.929,165.988 44.929,171.498C44.929,176.998 40.45,181.478 34.95,181.478ZM321.52,130.038C320.14,130.258 318.77,130.468 317.39,130.668C315.43,130.978 313.48,131.268 311.52,131.548C300.07,133.228 288.61,134.708 277.12,135.978C209.53,143.458 141.42,143.928 73.63,137.388C67.76,136.828 61.9,136.208 56.039,135.538C43.82,134.138 31.61,132.508 19.42,130.648C18.09,130.448 16.749,130.248 15.42,130.038L14.789,133.988L14.76,134.228L3.38,206.008C16.599,208.088 29.82,209.908 43.03,211.468C127.74,221.528 212.04,221.168 293.83,211.468C307.14,209.898 320.38,208.078 333.55,206.008L321.52,130.038Z" style="fill:rgb(108,110,112);fill-rule:nonzero;"/>
        </g>
        <g transform="matrix(4.16667,0,0,4.16667,0,0)">
            <path d="M311.97,171.498C311.97,176.998 307.49,181.478 301.99,181.478C296.48,181.478 292.01,176.998 292.01,171.498C292.01,165.988 296.48,161.518 301.99,161.518C307.49,161.518 311.97,165.988 311.97,171.498Z" style="fill:rgb(108,110,112);fill-rule:nonzero;"/>
        </g>
        <g transform="matrix(4.16667,0,0,4.16667,0,0)">
            <path d="M75.763,198.853L76.337,192.446L64.481,191.384L65.526,179.718L74.179,180.494L74.754,174.088L66.1,173.312L67.15,161.599L79.007,162.662L79.581,156.255L61.318,154.618L57.5,197.216L75.763,198.853Z" style="fill:white;fill-rule:nonzero;"/>
        </g>
        <g transform="matrix(4.16667,0,0,4.16667,0,0)">
            <path d="M96.776,178.768L106.506,158.098L99.417,157.632L93.809,170.492L89.934,157.008L82.797,156.539L89.783,178.308L79.99,199.214L86.887,199.668L92.763,186.393L96.802,200.32L103.699,200.774L96.776,178.768Z" style="fill:white;fill-rule:nonzero;"/>
        </g>
        <g transform="matrix(4.16667,0,0,4.16667,0,0)">
            <path d="M110.538,158.289L108.817,201.022L115.244,201.281L115.893,185.166L119.634,185.317C122.415,185.429 124.806,184.516 126.853,182.581C128.899,180.694 130.003,178.337 130.117,175.507L130.366,169.32C130.484,166.394 129.719,163.913 128.068,161.973C126.276,159.932 123.823,158.824 120.658,158.697L110.538,158.289ZM123.876,175.4C123.835,176.407 123.465,177.257 122.717,177.947C121.968,178.637 121.089,178.986 120.034,178.944L116.149,178.787L116.7,165.119L120.585,165.275C121.736,165.321 122.586,165.692 123.23,166.39C123.875,167.089 124.174,168.014 124.127,169.165L123.876,175.4Z" style="fill:white;fill-rule:nonzero;"/>
        </g>
        <g transform="matrix(4.16667,0,0,4.16667,0,0)">
            <path d="M152.322,202.289L152.434,195.858L140.532,195.651L140.736,183.941L149.423,184.092L149.535,177.661L140.848,177.51L141.053,165.752L152.955,165.959L153.067,159.528L134.734,159.208L133.989,201.97L152.322,202.289Z" style="fill:white;fill-rule:nonzero;"/>
        </g>
        <g transform="matrix(4.16667,0,0,4.16667,0,0)">
            <path d="M176.848,169.634C176.834,166.85 175.814,164.455 173.836,162.497C171.858,160.491 169.501,159.495 166.669,159.51L156.541,159.561L156.757,202.328L166.885,202.277C169.669,202.263 172.064,201.243 174.022,199.217C175.98,197.239 176.976,194.834 176.961,192.002L176.848,169.634ZM163.006,166.104L166.894,166.084C167.902,166.079 168.768,166.459 169.492,167.175C170.215,167.892 170.556,168.754 170.561,169.762L170.674,192.13C170.679,193.138 170.347,194.003 169.631,194.775C168.915,195.499 168.053,195.887 167.045,195.892L163.157,195.912L163.006,166.104Z" style="fill:white;fill-rule:nonzero;"/>
        </g>
        <g transform="matrix(4.16667,0,0,4.16667,0,0)">
            <path d="M187.953,159.183L181.523,159.33L182.501,202.087L188.931,201.94L187.953,159.183Z" style="fill:white;fill-rule:nonzero;"/>
        </g>
        <g transform="matrix(4.16667,0,0,4.16667,0,0)">
            <path d="M200.821,201.566L207.248,201.309L205.793,165.002L212.604,164.729L212.346,158.302L192.25,159.107L192.508,165.534L199.366,165.259L200.821,201.566Z" style="fill:white;fill-rule:nonzero;"/>
        </g>
        <g transform="matrix(4.16667,0,0,4.16667,0,0)">
            <path d="M223.074,157.666L216.652,158.033L219.097,200.731L225.518,200.364L223.074,157.666Z" style="fill:white;fill-rule:nonzero;"/>
        </g>
        <g transform="matrix(4.16667,0,0,4.16667,0,0)">
            <path d="M231.056,159.674C229.197,161.835 228.371,164.304 228.583,167.128L230.329,190.39C230.541,193.215 231.725,195.532 233.839,197.395C235.949,199.211 238.417,200.036 241.241,199.824C244.065,199.612 246.431,198.424 248.246,196.314C250.106,194.153 250.931,191.684 250.719,188.86L248.974,165.598C248.762,162.774 247.577,160.456 245.464,158.593C243.306,156.781 240.838,155.956 237.966,156.171C235.189,156.379 232.872,157.564 231.056,159.674ZM244.011,189.268C244.09,190.321 243.82,191.207 243.156,191.979C242.492,192.751 241.607,193.154 240.602,193.23C239.549,193.309 238.662,193.038 237.89,192.374C237.119,191.71 236.671,190.877 236.592,189.824L234.846,166.562C234.767,165.509 235.086,164.618 235.75,163.846C236.414,163.075 237.25,162.675 238.303,162.596C239.309,162.52 240.243,162.787 241.015,163.451C241.787,164.115 242.187,164.952 242.266,166.005L244.011,189.268Z" style="fill:white;fill-rule:nonzero;"/>
        </g>
        <g transform="matrix(4.16667,0,0,4.16667,0,0)">
            <path d="M252.553,155.514L256.818,198.069L263.217,197.428L260.484,170.157L272.053,196.542L278.931,195.853L274.666,153.298L268.266,153.94L271.128,182.501L259.765,154.792L252.553,155.514Z" style="fill:white;fill-rule:nonzero;"/>
        </g>
        <g transform="matrix(4.16667,0,0,4.16667,0,0)">
            <path d="M149.303,360.938L145.008,360.779L144.958,362.134L147.609,362.231L147.465,366.12C147.071,366.299 146.311,366.426 145.208,366.386C142.171,366.274 140.25,364.246 140.372,360.938C140.493,357.668 142.635,355.771 145.808,355.888C147.124,355.937 147.985,356.22 148.67,356.556L149.127,355.197C148.576,354.905 147.408,354.533 145.899,354.477C141.527,354.316 138.752,357.062 138.589,360.95C138.515,362.981 139.147,364.748 140.229,365.873C141.461,367.139 143.068,367.702 145.041,367.774C146.801,367.839 148.307,367.449 149.072,367.206L149.303,360.938Z" style="fill:white;fill-rule:nonzero;"/>
        </g>
        <g transform="matrix(4.16667,0,0,4.16667,0,0)">
            <path d="M151.534,367.851L153.218,367.898L153.358,362.905C153.366,362.615 153.412,362.345 153.457,362.114C153.725,360.843 154.602,359.958 155.802,359.991C156.034,359.998 156.208,360.022 156.381,360.066L156.426,358.459C156.272,358.416 156.137,358.393 155.944,358.388C154.802,358.356 153.754,359.121 153.293,360.366L153.216,360.364L153.209,358.524L151.719,358.483C151.753,359.355 151.746,360.304 151.715,361.407L151.534,367.851Z" style="fill:white;fill-rule:nonzero;"/>
        </g>
        <g transform="matrix(4.16667,0,0,4.16667,0,0)">
            <path d="M161.807,358.52C159.213,358.468 157.124,360.265 157.061,363.401C157.001,366.362 158.919,368.26 161.454,368.311C163.719,368.357 166.149,366.896 166.219,363.431C166.277,360.566 164.497,358.575 161.807,358.52ZM161.742,359.797C163.755,359.838 164.508,361.867 164.476,363.454C164.434,365.563 163.183,367.068 161.557,367.035C159.893,367.001 158.743,365.429 158.785,363.377C158.821,361.597 159.729,359.756 161.742,359.797Z" style="fill:white;fill-rule:nonzero;"/>
        </g>
        <g transform="matrix(4.16667,0,0,4.16667,0,0)">
            <path d="M167.125,358.848L169.871,368.242L171.42,368.255L172.968,363.815C173.306,362.812 173.605,361.846 173.847,360.725L173.885,360.726C174.108,361.831 174.371,362.763 174.691,363.811L176.086,368.295L177.634,368.308L180.735,358.965L179.051,358.95L177.674,363.643C177.355,364.744 177.095,365.729 176.932,366.676L176.874,366.676C176.669,365.725 176.407,364.736 176.068,363.61L174.656,358.912L173.223,358.9L171.653,363.669C171.335,364.673 171.016,365.677 170.795,366.623L170.737,366.623C170.571,365.653 170.328,364.683 170.066,363.636L168.868,358.863L167.125,358.848Z" style="fill:white;fill-rule:nonzero;"/>
        </g>
        <g transform="matrix(4.16667,0,0,4.16667,0,0)">
            <path d="M182.687,356.701L182.691,358.947L181.239,358.949L181.24,360.246L182.692,360.244L182.7,365.355C182.701,366.458 182.877,367.291 183.361,367.793C183.769,368.257 184.408,368.508 185.202,368.507C185.86,368.506 186.382,368.409 186.711,368.273L186.632,366.995C186.419,367.053 186.09,367.112 185.645,367.112C184.696,367.114 184.366,366.456 184.365,365.294L184.357,360.242L186.797,360.238L186.795,358.941L184.356,358.945L184.352,356.254L182.687,356.701Z" style="fill:white;fill-rule:nonzero;"/>
        </g>
        <g transform="matrix(4.16667,0,0,4.16667,0,0)">
            <path d="M188.702,368.306L190.405,368.291L190.353,362.638C190.35,362.309 190.367,362.057 190.461,361.824C190.763,360.892 191.627,360.109 192.73,360.099C194.337,360.084 194.91,361.356 194.924,362.866L194.974,368.248L196.678,368.232L196.626,362.657C196.596,359.424 194.575,358.668 193.317,358.68C192.678,358.686 192.08,358.885 191.579,359.18C191.059,359.476 190.637,359.905 190.371,360.392L190.332,360.392L190.278,354.546L188.574,354.562L188.702,368.306Z" style="fill:white;fill-rule:nonzero;"/>
        </g>
        <g transform="matrix(4.16667,0,0,4.16667,0,0)">
            <path d="M124.097,252.831L125.906,258.833L128.509,258.923L122.727,239.839L119.789,239.737L112.726,258.376L115.245,258.463L117.409,252.599L124.097,252.831ZM117.979,250.713L120.015,245.321C120.419,244.186 120.767,243.049 121.085,241.94L121.141,241.942C121.383,243.043 121.624,244.172 122.001,245.418L123.66,250.91L117.979,250.713Z" style="fill:white;fill-rule:nonzero;"/>
        </g>
        <g transform="matrix(4.16667,0,0,4.16667,0,0)">
            <path d="M129.153,245.373L134.021,259.03L136.373,259.079L141.975,245.641L139.399,245.587L136.609,253.146C136.135,254.369 135.72,255.48 135.388,256.594L135.304,256.592C135.048,255.466 134.707,254.339 134.285,253.098L131.785,245.428L129.153,245.373Z" style="fill:white;fill-rule:nonzero;"/>
        </g>
        <g transform="matrix(4.16667,0,0,4.16667,0,0)">
            <path d="M154.643,252.971C154.673,252.72 154.732,252.328 154.736,251.824C154.757,249.332 153.612,245.431 149.189,245.395C145.241,245.362 142.806,248.563 142.773,252.65C142.74,256.738 145.209,259.503 149.381,259.537C151.537,259.554 153.025,259.118 153.896,258.734L153.49,256.966C152.563,257.351 151.496,257.65 149.733,257.635C147.269,257.615 145.152,256.226 145.123,252.894L154.643,252.971ZM145.166,251.13C145.376,249.424 146.486,247.137 148.978,247.157C151.75,247.18 152.402,249.621 152.361,251.189L145.166,251.13Z" style="fill:white;fill-rule:nonzero;"/>
        </g>
        <g transform="matrix(4.16667,0,0,4.16667,0,0)">
            <path d="M157.654,259.302L160.118,259.287L160.071,251.14C160.069,250.72 160.123,250.299 160.233,249.991C160.645,248.616 161.898,247.461 163.522,247.452C165.846,247.438 166.669,249.253 166.681,251.437L166.726,259.249L169.19,259.235L169.144,251.143C169.117,246.495 166.198,245.392 164.322,245.403C162.082,245.416 160.522,246.685 159.857,247.977L159.801,247.977L159.648,245.738L157.464,245.751C157.555,246.87 157.589,248.018 157.597,249.418L157.654,259.302Z" style="fill:white;fill-rule:nonzero;"/>
        </g>
        <g transform="matrix(4.16667,0,0,4.16667,0,0)">
            <path d="M173.287,242.365L173.343,245.612L171.244,245.649L171.276,247.525L173.376,247.488L173.504,254.879C173.532,256.475 173.804,257.674 174.517,258.39C175.116,259.052 176.047,259.4 177.194,259.38C178.146,259.363 178.9,259.21 179.372,259.006L179.228,257.16C178.922,257.249 178.447,257.342 177.803,257.353C176.432,257.377 175.939,256.433 175.91,254.753L175.783,247.446L179.311,247.385L179.278,245.509L175.751,245.571L175.683,241.679L173.287,242.365Z" style="fill:white;fill-rule:nonzero;"/>
        </g>
        <g transform="matrix(4.16667,0,0,4.16667,0,0)">
            <path d="M193.195,245.132L190.732,245.203L190.972,253.516C190.985,253.964 190.914,254.414 190.785,254.782C190.369,255.886 189.254,257.067 187.603,257.115C185.364,257.18 184.53,255.467 184.456,252.892L184.239,245.391L181.776,245.462L182.005,253.383C182.143,258.141 184.724,259.243 186.851,259.181C189.258,259.112 190.644,257.643 191.256,256.533L191.312,256.531L191.516,258.738L193.699,258.675C193.584,257.614 193.521,256.383 193.48,254.984L193.195,245.132Z" style="fill:white;fill-rule:nonzero;"/>
        </g>
        <g transform="matrix(4.16667,0,0,4.16667,0,0)">
            <path d="M197.626,258.52L200.06,258.421L199.768,251.203C199.751,250.784 199.791,250.39 199.833,250.052C200.094,248.192 201.272,246.827 203.007,246.757C203.343,246.743 203.595,246.761 203.85,246.807L203.756,244.485C203.529,244.438 203.333,244.418 203.053,244.429C201.402,244.496 199.966,245.703 199.424,247.546L199.312,247.551L199.12,244.896L196.966,244.983C197.101,246.239 197.184,247.609 197.249,249.204L197.626,258.52Z" style="fill:white;fill-rule:nonzero;"/>
        </g>
        <g transform="matrix(4.16667,0,0,4.16667,0,0)">
            <path d="M216.332,257.652C216.118,256.738 216.003,255.594 215.943,254.42L215.686,249.358C215.548,246.646 214.397,243.873 210.258,244.083C208.553,244.17 206.955,244.728 205.873,245.512L206.515,247.106C207.435,246.442 208.729,245.984 209.987,245.92C212.756,245.779 213.166,247.776 213.223,248.895L213.237,249.175C208.007,249.413 205.189,251.351 205.356,254.622C205.456,256.58 206.952,258.438 209.693,258.299C211.622,258.2 213.028,257.176 213.729,256.074L213.813,256.07L214.095,257.766L216.332,257.652ZM213.5,253.226C213.512,253.478 213.471,253.761 213.4,254.017C213.066,255.183 212.005,256.358 210.243,256.448C208.985,256.512 207.884,255.811 207.803,254.217C207.669,251.589 210.693,250.958 213.38,250.877L213.5,253.226Z" style="fill:white;fill-rule:nonzero;"/>
        </g>
    </g>
</svg>
