<svg viewBox="0 0 185 35" class="{{include.class}}">
  <path d="M156,10.1c-1.3,0.2 -1.7,1.9 -1.7,3.8c0,1.5 0.4,1.7 1.7,1.7c1.4,0 1.8,-0.2 1.8,-1.7c0,-1.9 -0.6,-3.6 -1.8,-3.8Z" style="fill:#a1c63a;fill-rule:nonzero;"/><path d="M153.6,9.7c-6.8,-0.4 -6.6,4.9 -6.6,7.7l0,8.9c0,1.2 -1.5,1.3 -2.5,1.4l-0.3,0c-0.2,0 -0.3,0.1 -0.3,0.3l0,0.5c0,0.2 0.1,0.3 0.3,0.3l9.2,0c0.2,0 0.3,-0.1 0.3,-0.3l0,-0.5c0,-0.1 -0.1,-0.3 -0.3,-0.3l-0.9,0c-0.9,0 -2,-0.3 -2,-1.4l0,-5.1c0,-1.5 0.1,-4.1 0.1,-4.7c0.1,-4.1 0.7,-5.2 3,-6.8Z" style="fill:#000007;fill-rule:nonzero;"/><path d="M131.9,17.5c-0.2,0 -0.3,0.1 -0.3,0.3l0,0.9c0,0.2 0.1,0.3 0.3,0.3l10.7,0c0.5,0 0.6,-0.2 0.6,-0.8c0,-5 -2.6,-8.4 -8,-8.4c-5.5,0 -8.801,3.9 -8.801,9.2c0,5.6 2.201,10.3 8.401,10.3c3.1,0 6.3,-0.5 7.6,-4.3c0.2,-0.6 0.3,-1.3 0.4,-1.9c0,0 0.1,-0.4 -0.3,-0.4l-0.8,0c-0.2,0 -0.2,0.2 -0.2,0.2c-0.3,3.4 -2.5,5.1 -5.9,5.1c-5.2,0 -5.4,-4.8 -5.4,-8.7l0,-0.3l0,-1.3l0,-0.2c0,-2.9 0.8,-6.6 4.4,-6.6c3.7,0 4.3,3.2 4.3,6.2l0,0.5l-7,0l0,-0.1Z" style="fill:#000007;fill-rule:nonzero;"/><path d="M112.3,17.5c-0.1,0 -0.3,0.1 -0.3,0.3l0,0.9c0,0.2 0.1,0.3 0.3,0.3l10.7,0c0.5,0 0.6,-0.2 0.6,-0.8c0,-5 -2.6,-8.4 -8,-8.4c-5.5,0 -8.8,3.9 -8.8,9.2c0,5.6 2.2,10.3 8.4,10.3c3.1,0 6.3,-0.5 7.6,-4.3c0.2,-0.6 0.3,-1.3 0.5,-1.9c0,0 0.1,-0.4 -0.3,-0.4l-0.8,0c-0.2,0 -0.2,0.2 -0.2,0.2c-0.3,3.4 -2.4,5.1 -5.9,5.1c-5.2,0 -5.4,-4.8 -5.4,-8.7l0,-0.3l0,-1.3l0,-0.2c0,-2.9 0.8,-6.6 4.4,-6.6c3.7,0 4.3,3.2 4.3,6.2l0,0.5l-7.1,0l0,-0.1Z" style="fill:#000007;fill-rule:nonzero;"/><path d="M106.2,26.8c-0.1,-0.1 -0.5,-0.5 -0.5,-0.6c-0.1,-0.1 -0.2,0 -0.2,0c-0.6,0.7 -1.7,1.5 -2.6,1.5c-2.2,0 -2.3,-2.2 -2.3,-3.9l0,-12.3l4.2,0c0.2,0 0.3,-0.1 0.3,-0.3l0,-0.8c0,-0.2 -0.1,-0.3 -0.3,-0.3l-4.2,0l0,-2.5c0,-0.6 -0.5,-1.1 -1.1,-1.1l-1.3,0c-0.6,0 -1.1,0.5 -1.1,1.1l0,16.2c0,3.4 0.5,5.4 4.5,5.4c1.8,0 3.6,-0.5 4.8,-2.2c-0.2,0 -0.1,-0.1 -0.2,-0.2Z" style="fill:#000007;fill-rule:nonzero;"/><path d="M89.6,9.7c-6.9,-0.2 -7,4.4 -7,7.7l0,8.9c0,1.2 -1.5,1.3 -2.5,1.4l-0.3,0c-0.2,0 -0.3,0.1 -0.3,0.3l0,0.5c0,0.2 0.1,0.3 0.3,0.3l9.3,0c0.2,0 0.3,-0.1 0.3,-0.3l0,-0.5c0,-0.1 -0.1,-0.3 -0.3,-0.3l-0.9,0c-0.9,0 -2,-0.3 -2,-1.4l0,-5.1c0,-1.5 0,-4.1 0,-4.7c0,-3.9 1,-5.4 2.9,-5.4c1.7,0 1.7,2 1.7,2.9c0.1,1.1 0.2,1.5 1.8,1.5c1.4,0 1.8,-0.2 1.8,-1.7c0,-2.5 -1.5,-4 -4.8,-4.1Z" style="fill:#000007;fill-rule:nonzero;"/><path d="M66.9,17.5c-0.2,0 -0.3,0.1 -0.3,0.3l0,0.9c0,0.2 0.1,0.3 0.3,0.3l10.7,0c0.5,0 0.6,-0.2 0.6,-0.8c0,-5 -2.6,-8.4 -8,-8.4c-5.5,0 -8.7,3.9 -8.7,9.2c0,5.6 2.2,10.3 8.4,10.3c3.1,0 6.3,-0.5 7.6,-4.3c0.2,-0.6 0.3,-1.3 0.4,-1.9c0,0 0.1,-0.4 -0.2,-0.4l-0.7,0c-0.2,0 -0.3,0.2 -0.3,0.2c-0.3,3.4 -2.5,5.1 -5.9,5.1c-5.1,0 -5.4,-4.8 -5.4,-8.7l0,-0.3l0,-1.3l0,-0.2c0,-2.9 0.8,-6.6 4.4,-6.6c3.7,0 4.3,3.2 4.3,6.2l0,0.5l-7.2,0l0,-0.1Z" style="fill:#000007;fill-rule:nonzero;"/><path d="M45.9,27.3c-0.1,0.1 -0.2,0.2 0.1,0.4c0.1,0.1 0.1,0.1 0.2,0.1c1.1,0.9 2.4,1.3 3.9,1.3c6.4,0 8.5,-4.1 8.5,-9.9c0,-5 -1.7,-9.6 -7.5,-9.6c-2.5,0 -4.7,0.7 -5.9,3l-0.2,0l0,-2c0,-0.6 -0.5,-1.1 -1.1,-1.1l-1.2,0c-0.6,0 -1,0.4 -1.1,0.9l0,21.3c0,1.4 -1.6,1.3 -2.6,1.4l-0.2,0c-0.2,0 -0.3,0.1 -0.3,0.3l0,0.5c0,0.2 0.1,0.3 0.3,0.3l9.2,0c0.1,0 0.3,-0.1 0.3,-0.3l0,-0.5c0,-0.2 -0.1,-0.3 -0.3,-0.3l-0.7,0c-1,0 -2.2,-0.2 -2.2,-1.4l0,-15.1c0,-3.1 1.3,-5.8 4.8,-5.8c4.6,0 4.8,4.8 4.8,8.3c0,3.6 -0.2,8.6 -4.9,8.6c-1.1,0 -2.1,-0.3 -2.7,-0.9c-0.1,-0.1 -0.2,-0.2 -0.2,-0.2c-0.1,-0.1 -0.2,-0.1 -0.3,0c-0.4,0.4 -0.6,0.6 -0.7,0.7Z" style="fill:#000007;fill-rule:nonzero;"/><path d="M38.5,27.7l-0.5,0c-0.6,0 -1.5,-0.2 -2.2,-1.1c-0.2,-0.2 -0.4,-0.5 -0.6,-0.8l-4.601,-6.9l4.201,-6.2c0.9,-1.2 1.3,-1.5 2.7,-1.6l0.5,0c0.1,0 0.3,-0.1 0.3,-0.3l0,-0.5c0,-0.2 -0.1,-0.3 -0.2,-0.3l-6.7,0c-0.2,0 -0.3,0.1 -0.3,0.3l0,0.5c0,0.2 0.1,0.3 0.3,0.3l1.6,0c0.3,0 0.5,0.2 0.5,0.6c0,0.3 -0.2,0.6 -0.3,0.7l-3.5,5.2l-3.1,-5.2c-0.1,-0.2 -0.3,-0.4 -0.3,-0.6c0,-0.1 0,-0.4 0.3,-0.5c0.1,-0.1 0.6,-0.1 1,-0.1l1.2,0c0.2,0 0.3,-0.1 0.3,-0.3l0,-0.5c0,-0.2 -0.1,-0.3 -0.3,-0.3l-9.8,0c-0.2,0 -0.3,0.1 -0.3,0.3l0,0.5c0,0.2 0.1,0.3 0.3,0.3l1.2,0c1,0 1.4,0.2 2,1.3l4.3,7l-4.6,6.8c-0.8,1.1 -1.2,1.5 -2.4,1.6l-1.1,0c-0.2,0 -0.3,0.1 -0.3,0.3l0,0.5c0,0.2 0.1,0.3 0.3,0.3l7,0c0.1,0 0.3,-0.1 0.3,-0.3l0,-0.5c0,-0.1 -0.1,-0.3 -0.3,-0.3l-1.4,0c-0.3,-0.1 -0.6,-0.2 -0.6,-0.6c0,-0.2 0.1,-0.5 0.4,-1l3.6,-5.4l3.5,5.4c0.2,0.3 0.5,0.6 0.5,1c0,0.3 -0.3,0.5 -0.6,0.5l-1.3,0c-0.1,0 -0.3,0.1 -0.3,0.3l0,0.5c0,0.2 0.1,0.3 0.3,0.3l8.9,0c0.2,0 0.3,-0.1 0.3,-0.3l0,-0.5c0.1,-0.3 0,-0.4 -0.2,-0.4Z" style="fill:#000007;fill-rule:nonzero;"/><path d="M5.4,17.5c-0.2,0 -0.3,0.1 -0.3,0.3l0,0.9c0,0.2 0.1,0.3 0.3,0.3l10.7,0c0.5,0 0.6,-0.2 0.6,-0.8c0,-5 -2.6,-8.4 -8,-8.4c-5.5,-0.1 -8.7,3.8 -8.7,9.1c0,5.6 2.2,10.3 8.4,10.3c3.1,0 6.3,-0.5 7.6,-4.3c0.2,-0.6 0.3,-1.3 0.5,-2c0,0 0.1,-0.4 -0.3,-0.4l-0.8,0c-0.2,0 -0.2,0.2 -0.2,0.2c-0.3,3.4 -2.5,5.1 -5.9,5.1c-5.2,0 -5.4,-4.8 -5.4,-8.7l0,-0.3l0,-1.3l0,-0.2c0,-2.9 0.8,-6.6 4.4,-6.6c3.7,0 4.3,3.2 4.3,6.2l0,0.5l-7.2,0l0,0.1Z" style="fill:#000007;fill-rule:nonzero;"/><path d="M176.9,8.3c-0.1,0 -0.2,0.1 -0.2,0.2l0,0.5c0,0.1 0.1,0.2 0.2,0.2l7.3,0c0.3,0 0.4,-0.2 0.4,-0.5c0,-3.1 -1.8,-5.4 -5.5,-5.4c-3.8,0 -6,2.5 -6,5.9c0,3.6 1.5,6.6 5.8,6.6c2.1,0 4.3,-0.3 5.2,-2.8c0.2,-0.4 0.2,-0.8 0.3,-1.2c0,0 0.1,-0.2 -0.2,-0.2l-0.5,0c-0.1,0 -0.2,0.1 -0.2,0.1c-0.2,2.2 -1.7,3.3 -4,3.3c-3.5,0 -3.7,-3.1 -3.7,-5.6l0,-0.2l0,-0.8l0,-0.1c0,-1.8 0.6,-4.2 3,-4.2c2.5,0 2.9,2.1 2.9,3.9l0,0.3l-4.8,0Z" style="fill:#a1c63a;fill-rule:nonzero;"/><path d="M167.6,14.1c-0.1,-0.1 -0.3,0 -0.6,0.3c-0.5,0.3 -1.1,0.6 -1.9,0.6c-2.6,0 -3.1,-3.1 -3.1,-5.1c0,-2.2 0.1,-5.7 3.1,-5.7c2.7,0 3.4,2.4 3.4,4.6l0,6.6c0,0.1 0.1,0.2 0.2,0.2l4.1,0c0.1,0 0.2,-0.1 0.2,-0.2l0,-0.3c0,-0.1 -0.1,-0.2 -0.2,-0.2c-0.5,0 -2,0 -2,-0.9l0,-12.3l0,-1c0,-0.4 -0.3,-0.7 -0.7,-0.7l-0.9,0c-0.4,0 -0.7,0.3 -0.7,0.7l0,4.4c-0.9,-1.3 -2.4,-1.7 -3.9,-1.7c-3.8,0 -5.1,3.1 -5.1,6.4c0,3.2 1.5,6 5.1,6c1.1,0 2.1,-0.3 2.9,-0.9c0.5,-0.4 0.5,-0.4 0.3,-0.6l-0.2,-0.2Z" style="fill:#a1c63a;fill-rule:nonzero;"/>
</svg>