<svg viewBox="0 0 473 384" class="{{include.class}}">
  <path d="M89.738 339.516l.05-32.5c20.37 0 27.846-1.025 31.396 23.958h2.15V303.17l-55.483.021v3.825h9.608v71.533H66.87v3.767h57.18v-29.233h-2.867c-2.85 22.104-8.45 25.475-24.167 25.475h-7.279v-34.759h4.22c7.047.175 11.063 4.288 12.5 16.417h2.597l-.021-35.933c-.05.07-2.554 0-2.554 0 0 .179-.509 15.454-12.834 15.233h-3.908zM67.067 340.945H35.763v3.546H46.48v25.725c-1.809 6.533-11.434 9.258-14.3 9.258-19.996 0-18.567-29.25-18.567-37.083 0-7.162-.712-37.1 18.567-37.1 13.583 0 20.729 13.525 23.596 25.675h2.166c0-5 .084-28.817.034-28.758.05-.188-9.313 6.716-9.346 6.608.212-.042-4.284-6.396-16.45-6.396-23.6 0-32.25 23.546-32.18 39.971.109 15.03 7.038 40.642 32.18 40.642 7.904 0 13.47-4.021 16.45-8.588.033-.096 9.962 7.842 9.996 7.871v-37.825h8.441v-3.546zM340.542 353.766l11.417-34.204 12.167 34.204h-23.584zm-44.329-13.654h-12.837v-33.146h16.416c9.642 1.463 10.034 12.596 10.034 16.142 0 8.575-3.584 17.004-13.613 17.004zm136.63 12.97c-2.846 22.105-8.45 25.417-24.167 25.417h-.954v-71.516h10v-3.854h-32.88v3.854h10v71.516h-7.933l-29.212-77.504h-4.3c.095-.046-24.271 70.321-24.321 70.53.05-.209-1.838 6.037-5.846 6.812-3.696.18-3.425-1.75-3.425-2.43v-13.553c0-3.555-.27-11.638-3.967-15.35-4.146-4.175-11.225-4.48-11.062-4.638 0 0 17.962-3.712 17.962-20.78 0-11.966-8.32-17.916-22.229-18.44h-39.48v3.85h10.1v71.52h-10.1v3.8h32.388v-3.8h-10.104v-34.392h13.467c23.37 1.93-4.008 38.23 26.612 38.192h19.3V378.5c-1.075 0-8.145.205-8.587-4.72-.292-3.563 4.658-16.359 4.658-16.359h26.275c-.012-.046 8.175 21.096 8.246 21.096h-9.158v3.8h71.587v-29.233h-2.87zM222.1 306.966c20.376 0 27.9-.975 31.447 24.008h2.154V303.17h-80.9v3.796h2.116c2.85 0 9.625.213 10.017 6.175h-.004v45.633l-37.846-55.604H128.48v3.796h3.42c4.063 0 9.763.183 10.017 6.175v58.467c0 5.704-8.537 7.866-12.108 7.866h-.042v2.842h27.884v-2.842c-3.571 0-12.167-2.162-12.167-7.866l.096-51.471c14.983 21.412 43.258 62.217 43.52 62.18h1.413V313.14c.392-5.962 7.167-6.175 10.021-6.175h9.287v71.583H199.23v3.767h57.187v-29.233h-2.87c-2.846 22.104-8.446 25.475-24.167 25.475h-7.28v-34.759h4.217c7.055.175 11.067 4.288 12.5 16.417h2.6l-.02-35.933c-.046.07-2.555 0-2.555 0 0 .179-.504 15.454-12.833 15.233h-3.908v-32.55zM471.663 306.979v-3.859h-32.27v3.859h10.137l.038 71.483h-10.175v3.854h32.27v-3.854h-10.129v-71.483h10.13zM356.647 237.395c.958-2.467 2.829-4.03 5.404-4.525l26.112-5.825-2.358-23.292-.075-.504c-.646-3.054-2.592-12.346-14.72-13.341-46.68-3.767-57.51-10.688-68.855-18.017a2.71 2.71 0 0 0-.042-.104l-.07.029-.734-.475c-12.12-7.842-24.162-7.904-25.346-7.87-13.22.003-29.95 5.237-31.312 5.674-4.038 1.183-7.813 2.396-11.467 3.567-14.617 4.7-27.246 8.775-48.454 8.137l-3.875-.112-.996 3.741c-.767 2.884-6.704 26.33-.975 41.396-5.133 4.042-5.13 8.721-5.1 9.35.212 5.15-1.004 6.421-1.408 6.834-2.45 2.541-10.58 2.875-17.43 2.875h-2.579l-1.466 2.016c-4.221 5.813-13.342 7.171-19.184 5.688-2.57-7.813-2.637-13.784-.162-17.35 2.925-4.204 9.125-4.663 11.65-4.663h1.47c6.2 0 11.246-5.07 11.246-11.304v-41.97c1.892-2.917 3.405-6.28 4.73-10.063 10.241-1.638 18.083-10.33 18.083-20.78 0-4.012-1.183-7.883-3.317-11.195 9.471-4.559 17.567-13.871 17.567-26.08 0-12.208-6.138-17.808-11.975-21.47 1.65-4.688 4.358-12.925 6.204-21.225l8.192-29.355c3.666-11.512 13.246-18.945 24.42-18.945h144.36c-6.11 8.604-14.788 12.67-26.813 12.67h-87.359l-4.562 9.771h78.287c-6.15 9.78-15.158 14.392-27.946 14.392h-56.766l-4.563 9.775h50.654c-6.137 9.412-15.045 13.867-27.595 13.867h-30.946l-4.563 9.766h32.434c.3.404 1.112 1.888 1.112 5.85 0 6.275-5.28 11.384-11.767 11.384-2.233 0-4.133-.513-7.47-1.871-1.434-.613-2.867-1.217-4.305-1.825l-7.525 6.758c1.409.6 2.817 1.196 4.221 1.792v.004c6.521 2.825 10.15 4.296 15.08 4.296 5.97 0 11.354-2.471 15.174-6.421 5.559.358 14.53 1.1 23.209 1.808 10.379.855 20.175 1.659 25.241 1.93 2.538.137 4.913.254 7.188.366 4.304.213 8.242.404 12.183.692 19.704 31.992 29.8 36.196 67.963 40.77 2.75 4.926 5.225 10.138 7.587 15.376v62.296l.013.358c.212 2.867.212 3.833-.18 4.354-1.324 1.733-7.216 4.192-9.262 5.038l-32.162 12.125c-4.263-5.78-5.796-11.809-4.1-16.163zm-6.959 16.921h-63.587l27.25-28.763c5.5-5.687 7.254-12.52 4.937-19.237-1.32-3.87-4.916-11.296-8.666-18.904 10.816 5.025 27.22 9.546 60.591 12.233 4.021.333 5.084 1.7 5.88 5.354l1.462 14.404-17.442 3.888c-5.837 1.158-10.429 5-12.591 10.567-2.392 6.133-1.575 13.362 2.166 20.458zm-114.691 0c-1.763-6.917-1.046-12.446 2.108-16.05 3.02-3.458 7.654-4.508 10.929-4.038l18.588 3.455.466.079h2.592l13.13-14.159.12-.133c2.246-2.612 9.07-10.53 2.104-20.63l-17.554-28.928c2.904-.409 5.825-.671 8.52-.671l.117-.008c.092.016 8.892-.121 18.325 5.366 1.275 2.742 3.05 6.35 5.03 10.359 3.687 7.47 8.275 16.766 9.554 20.525.408 1.179 1.646 4.77-2.75 9.316l-33.65 35.517h-37.63zm-5.267-22.48c-3.546 4.063-6.988 11.134-4.754 22.48h-59.867c6.43-.638 11.104-2.142 14.33-5.496 3.92-4.075 4.27-9.65 4.132-13.63.134-.35.784-1.69 3.713-3.02l5.158-2.35-3.091-4.762c-5.113-7.859-2.884-25.042-.905-34.375h.467c20.3 0 33.43-4.217 47.271-8.667 3.617-1.167 7.342-2.363 11.275-3.508l.12-.042c.08-.025 4.13-1.308 9.638-2.596l19.521 32.163.175.27c1.946 2.775 2.188 4.605-1.35 8.73l-9.783 10.558-16.038-2.98-.145-.024c-7.242-1.117-15.042 1.733-19.867 7.25zm-106.217-2.116c-4.162 5.983-4.667 14.242-1.533 24.596h-10.117v-78.975c3.625-.554 7.52-1.592 11.15-3.246-.204 3.446-.68 6.163-1.32 9.804-.147.846-.3 1.73-.46 2.671l-.974 5.7h5.796c8.658 0 15.116-1.354 20.079-3.917v32.967c0 .846-.654 1.53-1.458 1.53h-1.471c-8.596 0-15.775 3.233-19.692 8.87zm-21.446 16.033l-46.1-11.995-46.1 11.995V163.3l46.1-11.966 46.1 11.966v82.454zm-86.279 8.563l40.18-10.458 40.178 10.458H15.788zm16.07-121.392c1.926-2.941 6.334-5.479 11.838-4.52l4.175.72 1.317-4.02c.35-1.076.825-1.871 1.475-2.488 1.175-1.108 2.92-1.63 5.15-1.567 5.892.192 13.275 4.292 19.263 10.721 2.183 2.338 4.112 5.046 5.837 7.788.333.579.717 1.195 1.067 1.741.479.767.887 1.392.97 1.538.213.375 3.176 4.829 2.971 5.112 2.025-2.841 4.05-5.687 6.075-8.525.059-.083-.033-.346-.204-.712-.454-.975-1.529-2.671-2.17-3.671-.15-.242-.313-.488-.467-.733a.617.617 0 0 1-.034-.055c-.058-.104-.333-.525-.691-1.083-.675-1.054-1.642-2.587-2.071-3.425l12.762-20.396c3.184.663 5.892.767 7.184.767h.316c17.984 0 36.592-10.375 36.592-27.742l-.004-.425c-.225-4.729-1.108-9.242-1.82-12.867-.468-2.391-.91-4.641-.91-5.77 0-1.905 2.672-4.017 6.505-4.017h5.825L150.17 44.22c8.192-6.02 13.217-15.83 12.959-25.208 8.816 6.762 15.041 18.491 16.179 30.97.333 3.621-.383 8.692-1.554 14.021l-.625 2.234.104.029c-2.088 8.7-5.163 17.654-6.788 21.891l-1.504 3.925 3.663 2.076c6.562 3.712 10.596 6.433 10.596 15.075 0 9.912-8.921 17.508-17.542 19.12l-11.788 2.205 9.967 6.658c3.2 2.129 5.104 5.604 5.104 9.292 0 6.225-5.291 11.287-11.8 11.287h-3.758l-1.058 3.45c-3.659 11.925-7.638 17.75-20.417 18.996.592-3.62 1-7.104 1-12.038 0-1.154-.1-4.4-.15-5.441l-.57-11.109-7.813 7.934c-2.65 2.691-7.35 4.833-12.513 5.85v-9.692l-55.896-14.508-19.883 5.166c-4.433-4.441-5.33-11.775-4.225-13.479zm60.36-35.896c.145-.675.69-1.212 1.266-1.195l8.417.27c10.266-.358 20.716-4.583 21.891-15.27 0-7.234-5.137-14.276-12.387-14.276-3.875 0-8.234 2.68-13.13 5.925-3.195 2.113-5.716 3.788-7.624 3.788-1.3 0-2.342-.863-2.342-1.57 0-.118.02-.247.062-.36l5.38-7.2-4.65-3.12c-.996-.65-2.534-1.87-2.705-2.783-.079-.43.542-1.205.742-1.43 1.92-2.245 4.13-4.987 6.363-8.358 1.37-1.92 2.17-2.979 4.47-2.979 2.267 0 4.125 1.82 4.125 4.058 0 1.48 1.625 2.646 3.646 2.646 2.017 0 2.925-1.425 4.171-2.646 0 0 4.796-4.4 2.258-6.479-2.9-2.37-14.512 2.471-11.279-8.192l.804-1.52c1.242-1.646 6.796-5.755 18.271-5.755 2.167 0 4.463.155 6.813.446l1.716.221 24.355-15.017c.212.509.287.875.287.875l.025.146c1.267 7.371-3.38 16.146-10.804 20.409l-2.975 1.7 1.92 10.987c-6.253 1.917-10.612 6.93-10.612 12.963 0 2.07.48 4.533 1.092 7.641.68 3.459 1.442 7.371 1.642 11.346 0 11.434-15.771 18.996-29.117 18.563l-.342-.009c-.554-.02-9.05-.691-11.133-2.333-.408-.304-.73-.98-.617-1.492zm20.178-76.275c1.538-1.966 4.034-4.141 7.025-6.116 2.342-1.542 5.388-2.917 8.359-3.775 4.725-1.363 10.15-1.45 15.758-.371l-17.27 10.65a63.206 63.206 0 0 0-6.3-.334c-2.934 0-5.63.238-8.1.638.178-.233.35-.475.528-.692zm263.217-2.516h65.134c-6.109 8.604-14.796 12.67-26.817 12.67h-48.083c3.833-3.366 7.091-7.591 9.766-12.67zm-3.266 36.833h-48.084c4.254-3.73 7.792-8.546 10.617-14.392h65.417c-6.15 9.78-15.159 14.392-27.95 14.392zm-38.271 23.642h-48.08c4.117-3.621 7.567-8.263 10.346-13.867h65.334c-6.138 9.408-15.042 13.867-27.6 13.867zm11.054 36.683c15.233 2.513 27.704 9.367 37.07 20.37a102.966 102.966 0 0 1 5.838 7.576c-25.62-3.358-34.541-7.092-48.87-28.838 1.908.25 3.883.542 5.962.892zm102.242 105.45c.937 1.513 1.737 2.938 2.52 4.304.955 1.692 1.888 3.338 2.992 5.054-7.42-.466-13.033-4.575-18.233-12.337 4.792-1.68 10.592-.488 12.72 2.98zm-60.925 33.471l9.995-3.78.146-.045c14.184-5.875 16.204-9.546 15.538-18.98v-38.137c10.791 27.413 21 46.684 41.92 46.675 2.847 0 5.884-.35 9.15-1.091l8.163-1.846-5.612-6.192c-3.584-3.958-5.325-7.025-7.33-10.575-.824-1.454-1.679-2.962-2.708-4.63-4.896-7.94-16.537-10.637-25.97-6.412-4.28-8.495-8.592-19.575-13.776-33.245l-1.129-2.6c-.892-2.038-1.792-4.096-2.708-6.159v-.341h-.15c-3.213-7.217-6.638-14.463-10.738-21.255-3.72-6.166-7.512-11.483-11.575-16.258-10.912-12.82-25.354-20.787-42.933-23.692-12.15-2.004-20.758-2.429-31.65-2.962-2.258-.104-4.613-.23-7.13-.363-4.933-.27-15.12-1.104-24.97-1.916-6.646-.542-13.458-1.1-18.813-1.496.359-1.508.571-3.071.571-4.688 0-2.183-.2-4.12-.583-5.85h69.92c18.022 0 31.067-7.97 38.83-23.65 17.92-.162 30.875-8.296 38.53-24.15h2.495c18.654 0 31.992-8.512 39.646-25.304l3.154-6.912H219.826c-15.567 0-28.821 10.158-33.78 25.862l-.154.546c-4.029-11.23-11.4-20.763-20.85-26.38C151.91.675 136.963-1.95 125.06 1.475c-3.938 1.138-7.854 2.913-11.038 5.013-2.729 1.8-6.562 4.695-9.345 8.254-3.03 3.883-5.959 8.583-8.1 12.975-1.367 1.125-2.421 2.27-3.155 3.387l-2.841 5.321-.146.304C87.038 44.391 82.909 49.7 79.7 53.453c-3.196 3.725-3.359 7.254-2.93 9.567.471 2.53 1.825 4.592 3.275 6.146l-.087.146a10.763 10.763 0 0 0-1.438 5.387c0 6.25 5.438 10.98 12.13 10.98 4.862 0 8.837-2.272 13.041-5.055 1.709-1.133 6.234-4.133 7.713-4.3 1.875 0 3.583 1.704 3.583 3.575 0 5.117-6.604 7.88-11.337 8.225l-9.621 1.03c-6.925.65-10.209 4.32-10.209 7.6 0 3.295 1.584 5.15 2.684 6.25l.712.733 2.442 2.17-10.204 16.43c-7.275-6.738-15.784-10.813-23.33-11.05-4.879-.163-9.095 1.312-12.2 4.241-.9.855-1.687 1.825-2.362 2.896h-.18c-8.057 0-14.545 4.313-17.72 9.163-3.458 5.3-2.217 14.47 2.17 21.475L.076 155.745v123.113h472.368v-24.542h-85.996z" fill="#c5281b"/>
  <path d="M91.855 175.966L61.05 167.97v10.088l30.804 8v-10.092zM20.084 186.058l30.804-8v-10.096l-30.804 8.004v10.092zM20.084 206.35l30.804-7.992v-10.1l-30.804 7.991v10.1zM91.855 196.25l-30.804-7.992v10.1l30.804 7.991v-10.1zM91.855 216.553l-30.804-8.008v10.1l30.804 8v-10.092zM20.084 226.645l30.804-8v-10.1l-30.804 8.008v10.092z" fill="#c5281b"/>
</svg>