<svg viewBox="0 0 259 111" class="{{include.class}}">
  <g id="Layer-1" serif:id="Layer 1"><path d="M40.134,102.378l-5.68,-0.001l0,-9.221l-11.359,0.001l0,9.221l-5.679,-0.001l0,-22.784l5.679,0l0,9.154l11.359,0l0,-9.154l5.68,0l0,22.785Z" style="fill:#09aac7;fill-rule:nonzero;"/><path d="M52.201,89.548c-2.105,0 -3.542,1.637 -3.542,5.112c0,3.975 1.704,5.145 3.542,5.145c2.272,0 3.474,-1.871 3.474,-5.246c0,-3.007 -1.035,-5.011 -3.474,-5.011m0,13.13c-5.045,0 -8.72,-3.174 -8.72,-8.018c0,-5.246 4.176,-7.985 8.72,-7.985c3.775,0 8.653,2.104 8.653,8.018c0,6.114 -5.246,7.985 -8.653,7.985" style="fill:#09aac7;fill-rule:nonzero;"/><path d="M69.513,98.435c0.969,0.702 1.837,1.003 2.806,1.003c2.372,0 3.842,-1.804 3.842,-4.677c0,-2.94 -1.336,-4.644 -3.641,-4.644c-1.036,0 -1.804,0.301 -3.007,1.236l0,7.082Zm0,-10.123c1.369,-1.135 2.74,-1.637 4.41,-1.637c4.009,0 7.149,3.408 7.149,7.818c0,4.945 -3.006,8.186 -7.584,8.186c-1.369,0 -2.839,-0.402 -3.975,-1.07l0,8.453l-4.844,0l0,-23.086l4.844,0l0,1.336Z" style="fill:#09aac7;fill-rule:nonzero;"/><path d="M101.785,85.505c-3.308,-1.47 -5.278,-2.038 -7.217,-2.038c-2.037,0 -3.34,0.735 -3.34,1.871c0,3.441 11.593,2.473 11.593,10.424c0,4.377 -3.675,6.916 -8.754,6.916c-3.975,0 -5.946,-1.036 -8.218,-2.206l0,-4.911c3.274,2.172 5.278,2.941 7.784,2.941c2.172,0 3.341,-0.769 3.341,-2.105c0,-3.741 -11.593,-2.372 -11.593,-10.557c0,-3.943 3.408,-6.549 8.686,-6.549c2.54,0 4.845,0.536 7.718,1.771l0,4.443Z" style="fill:#f47e44;fill-rule:nonzero;"/><path d="M111.81,94.593l0.066,0l5.981,-7.617l5.679,0l-6.013,7.617l6.28,7.784l-5.946,0l-5.981,-7.583l-0.066,0l0,7.583l-4.844,0l0,-22.785l4.844,0l0,15.001Z" style="fill:#f47e44;fill-rule:nonzero;"/><path d="M132.197,102.377l-4.844,0l0,-15.401l4.844,0l0,15.401Zm0.234,-20.413c0,1.47 -1.203,2.673 -2.673,2.673c-1.47,0 -2.673,-1.203 -2.673,-2.673c0,-1.471 1.203,-2.673 2.673,-2.673c1.47,0 2.673,1.202 2.673,2.673" style="fill:#f47e44;fill-rule:nonzero;"/><path d="M141.827,98.435c0.969,0.702 1.837,1.003 2.806,1.003c2.371,0 3.843,-1.804 3.843,-4.677c0,-2.94 -1.337,-4.644 -3.642,-4.644c-1.036,0 -1.804,0.301 -3.007,1.236l0,7.082Zm0,-10.123c1.369,-1.135 2.74,-1.637 4.41,-1.637c4.01,0 7.15,3.408 7.15,7.818c0,4.945 -3.007,8.186 -7.585,8.186c-1.369,0 -2.839,-0.402 -3.975,-1.07l0,8.453l-4.844,0l0,-23.086l4.844,0l0,1.336Z" style="fill:#f47e44;fill-rule:nonzero;"/><path d="M163.471,98.201l3.708,0c5.714,0 7.418,-3.875 7.418,-7.216c0,-3.909 -2.105,-7.217 -7.484,-7.217l-3.642,0l0,14.433Zm4.377,-18.609c8.319,0 12.596,5.178 12.596,11.426c0,6.548 -4.144,11.359 -13.231,11.359l-9.422,0l0,-22.785l10.057,0Z" style="fill:#211f1f;fill-rule:nonzero;"/><path d="M187.572,91.386l0.066,0c1.436,-3.207 3.04,-4.71 4.911,-4.71c0.97,-0.001 1.805,0.367 3.208,1.403l-1.337,4.275c-1.269,-0.802 -2.105,-1.136 -2.874,-1.136c-1.769,0 -2.906,1.671 -3.975,4.511l0,6.648l-4.844,0l0,-15.401l4.844,0l0,4.409Z" style="fill:#211f1f;fill-rule:nonzero;"/><path d="M202.508,102.377l-4.844,0l0,-15.401l4.844,0l0,15.401Zm0.234,-20.413c0,1.47 -1.203,2.673 -2.673,2.673c-1.469,0 -2.672,-1.203 -2.672,-2.673c0,-1.471 1.203,-2.673 2.672,-2.673c1.47,0 2.673,1.202 2.673,2.673" style="fill:#211f1f;fill-rule:nonzero;"/><path d="M206.02,86.976l5.178,0l3.274,8.485l3.308,-8.485l5.145,0l-7.083,15.702l-2.706,0l-7.116,-15.702Z" style="fill:#211f1f;fill-rule:nonzero;"/><path d="M236.702,92.923c-0.201,-2.106 -1.471,-3.375 -3.341,-3.375c-1.905,0 -3.141,1.237 -3.342,3.375l6.683,0Zm4.008,7.718c-2.773,2.037 -5.678,2.037 -6.881,2.037c-5.413,0 -8.922,-3.14 -8.922,-7.952c0,-4.71 3.375,-8.051 8.119,-8.051c4.477,0 8.186,3.174 7.952,8.786l-11.058,0c0.167,2.74 2.038,4.344 5.078,4.344c1.937,0 3.441,-0.568 5.712,-2.206l0,3.042Z" style="fill:#211f1f;fill-rule:nonzero;"/><path d="M15.275,1.19c0,0 -3.339,3.979 -5.359,8.564c-1.98,4.492 -3.756,11.862 -3.756,11.862l-6.032,0c0,0 -0.288,0.862 0,2.873c0.287,2.01 4.021,3.447 4.021,5.17c0,1.724 -2.585,2.499 -2.872,3.979c-0.288,1.479 0,30.204 0,30.204c0,0 0.573,2.138 2.584,2.712c2.01,0.575 8.091,0.566 9.693,-0.067c2.088,-0.825 1.511,-6.092 1.511,-6.092l44.81,0l0,4.021c0,0 0.534,2.099 1.97,2.387c1.436,0.287 3.814,0.317 3.814,0.317l4.844,0c0,0 2.593,0 2.931,-2.354c0.168,-1.173 -0.058,-28.787 -0.058,-28.787l-1.724,-4.596l-0.574,-1.724c0,0 4.308,-2.872 3.734,-4.883l-0.575,-2.011l-5.744,0c0,0 -0.862,-6.319 -2.873,-11.49c-2.011,-5.17 -6.396,-10.085 -6.396,-10.085c0,0 -12.215,-1.19 -22.518,-1.19c-10.302,0 -21.431,1.19 -21.431,1.19" style="fill:#f47e44;fill-rule:nonzero;"/><path d="M18.282,5.154c0,0 -2.398,3.076 -4.367,6.695c-1.698,3.122 -2.609,6.193 -2.585,7.469c0.024,1.276 0.862,1.723 0.862,1.723l49.693,0c0,0 1.284,0.058 1.284,-1.015c0,-1.436 -0.5,-4.199 -2.619,-8.26c-1.728,-3.311 -4.495,-6.696 -4.495,-6.696c0,0 -9.061,-1.052 -18.806,-1.052c-14.525,0 -18.967,1.136 -18.967,1.136" style="fill:#fff;fill-rule:nonzero;"/><path d="M107.175,1.19c0,0 -3.339,3.979 -5.359,8.564c-1.98,4.492 -3.756,11.862 -3.756,11.862l-6.032,0c0,0 -0.288,0.862 0,2.873c0.287,2.01 4.021,3.447 4.021,5.17c0,1.724 -2.585,2.499 -2.872,3.979c-0.288,1.479 0,30.204 0,30.204c0,0 0.573,2.138 2.584,2.712c2.01,0.575 8.091,0.566 9.693,-0.067c2.088,-0.825 1.511,-6.092 1.511,-6.092l44.81,0l0,4.021c0,0 0.534,2.099 1.97,2.387c1.436,0.287 3.814,0.317 3.814,0.317l4.844,0c0,0 2.593,0 2.931,-2.354c0.168,-1.173 -0.058,-28.787 -0.058,-28.787l-1.724,-4.596l-0.574,-1.724c0,0 4.308,-2.872 3.734,-4.883l-0.575,-2.011l-5.744,0c0,0 -0.862,-6.319 -2.873,-11.49c-2.011,-5.17 -6.396,-10.085 -6.396,-10.085c0,0 -12.215,-1.19 -22.518,-1.19c-10.302,0 -21.431,1.19 -21.431,1.19" style="fill:#79797c;fill-rule:nonzero;"/><path d="M110.183,5.154c0,0 -2.398,3.076 -4.367,6.695c-1.698,3.122 -2.609,6.193 -2.585,7.469c0.024,1.276 0.862,1.723 0.862,1.723l49.693,0c0,0 1.284,0.058 1.284,-1.015c0,-1.436 -0.5,-4.199 -2.619,-8.26c-1.728,-3.311 -4.495,-6.696 -4.495,-6.696c0,0 -9.061,-1.052 -18.806,-1.052c-14.525,0 -18.967,1.136 -18.967,1.136" style="fill:#fff;fill-rule:nonzero;"/><path d="M198.815,1.19c0,0 -3.339,3.979 -5.359,8.564c-1.98,4.492 -3.756,11.862 -3.756,11.862l-6.032,0c0,0 -0.288,0.862 0,2.873c0.287,2.01 4.021,3.447 4.021,5.17c0,1.724 -2.585,2.499 -2.872,3.979c-0.288,1.479 0,30.204 0,30.204c0,0 0.573,2.138 2.584,2.712c2.01,0.575 8.091,0.566 9.693,-0.067c2.088,-0.825 1.511,-6.092 1.511,-6.092l44.81,0l0,4.021c0,0 0.534,2.099 1.97,2.387c1.436,0.287 3.814,0.317 3.814,0.317l4.844,0c0,0 2.593,0 2.931,-2.354c0.168,-1.173 -0.058,-28.787 -0.058,-28.787l-1.724,-4.596l-0.574,-1.724c0,0 4.308,-2.872 3.734,-4.883l-0.575,-2.011l-5.744,0c0,0 -0.862,-6.319 -2.873,-11.49c-2.011,-5.17 -6.396,-10.085 -6.396,-10.085c0,0 -12.215,-1.19 -22.518,-1.19c-10.302,0 -21.431,1.19 -21.431,1.19" style="fill:#09aac7;fill-rule:nonzero;"/><path d="M201.822,5.154c0,0 -2.398,3.076 -4.367,6.695c-1.698,3.122 -2.609,6.193 -2.585,7.469c0.024,1.276 0.862,1.723 0.862,1.723l49.693,0c0,0 1.284,0.058 1.284,-1.015c0,-1.436 -0.5,-4.199 -2.619,-8.26c-1.728,-3.311 -4.495,-6.696 -4.495,-6.696c0,0 -9.061,-1.052 -18.806,-1.052c-14.525,0 -18.967,1.136 -18.967,1.136" style="fill:#fff;fill-rule:nonzero;"/><path d="M54.11,14.285c0,2.644 -2.144,4.788 -4.788,4.788c-2.644,0 -4.788,-2.144 -4.788,-4.788c0,-2.644 2.144,-4.788 4.788,-4.788c2.644,0 4.788,2.144 4.788,4.788" style="fill:#211f1f;fill-rule:nonzero;"/><path d="M240.199,14.285c0,2.644 -2.144,4.788 -4.788,4.788c-2.644,0 -4.788,-2.144 -4.788,-4.788c0,-2.644 2.144,-4.788 4.788,-4.788c2.644,0 4.788,2.144 4.788,4.788" style="fill:#211f1f;fill-rule:nonzero;"/><path d="M209.955,14.285c0,1.867 -1.513,3.38 -3.38,3.38c-1.866,0 -3.38,-1.513 -3.38,-3.38c0,-1.867 1.514,-3.38 3.38,-3.38c1.867,0 3.38,1.513 3.38,3.38" style="fill:#211f1f;fill-rule:nonzero;"/><path d="M224.039,14.285c0,1.867 -1.513,3.38 -3.38,3.38c-1.866,0 -3.38,-1.513 -3.38,-3.38c0,-1.867 1.514,-3.38 3.38,-3.38c1.867,0 3.38,1.513 3.38,3.38" style="fill:#211f1f;fill-rule:nonzero;"/><path d="M146.644,14.285c0,2.644 -2.144,4.788 -4.788,4.788c-2.644,0 -4.788,-2.144 -4.788,-4.788c0,-2.644 2.144,-4.788 4.788,-4.788c2.644,0 4.788,2.144 4.788,4.788" style="fill:#211f1f;fill-rule:nonzero;"/><path d="M131.722,14.285c0,1.867 -1.513,3.38 -3.38,3.38c-1.866,0 -3.38,-1.513 -3.38,-3.38c0,-1.867 1.514,-3.38 3.38,-3.38c1.867,0 3.38,1.513 3.38,3.38" style="fill:#211f1f;fill-rule:nonzero;"/><path d="M37.559,52.151c-7.832,0 -14.76,-0.95 -14.829,-0.959c-0.508,-0.071 -0.863,-0.54 -0.792,-1.047c0.071,-0.509 0.554,-0.861 1.047,-0.792c0.068,0.01 6.876,0.942 14.574,0.942c7.694,0 14.25,-0.932 14.315,-0.941c0.511,-0.07 0.978,0.279 1.051,0.786c0.073,0.507 -0.279,0.978 -0.786,1.051c-0.067,0.01 -6.747,0.96 -14.58,0.96" style="fill:#fff;fill-rule:nonzero;"/><path d="M129.256,53.865c-10.346,0 -14.903,-1.895 -15.091,-1.976c-0.471,-0.201 -0.689,-0.744 -0.489,-1.215c0.199,-0.471 0.741,-0.691 1.215,-0.493c0.043,0.018 4.461,1.828 14.365,1.828c9.887,0 14.096,-1.803 14.137,-1.822c0.474,-0.205 1.019,0.006 1.225,0.472c0.207,0.467 -0.001,1.014 -0.468,1.223c-0.18,0.082 -4.541,1.983 -14.894,1.983" style="fill:#fff;fill-rule:nonzero;"/><path d="M222.168,54.465c-12.436,0 -23.437,-3.145 -23.547,-3.178c-0.491,-0.142 -0.775,-0.657 -0.632,-1.149c0.142,-0.492 0.66,-0.778 1.149,-0.633c0.108,0.03 10.868,3.104 23.03,3.104c12.155,0 22.515,-3.071 22.617,-3.102c0.496,-0.147 1.01,0.132 1.156,0.622c0.148,0.491 -0.13,1.008 -0.62,1.156c-0.106,0.032 -10.714,3.18 -23.153,3.18" style="fill:#fff;fill-rule:nonzero;"/><path d="M22.108,39.411c0,3.23 -2.619,5.849 -5.85,5.849l-4.39,0c-3.231,0 -5.85,-2.619 -5.85,-5.85c0,-3.231 2.619,-5.85 5.85,-5.85l4.39,0c3.231,0 5.85,2.619 5.85,5.85" style="fill:#fff;fill-rule:nonzero;"/><path d="M68.523,39.411c0,3.23 -2.619,5.849 -5.85,5.849l-4.39,0c-3.231,0 -5.85,-2.619 -5.85,-5.85c0,-3.231 2.619,-5.85 5.85,-5.85l4.39,0c3.231,0 5.85,2.619 5.85,5.85" style="fill:#fff;fill-rule:nonzero;"/><path d="M113.699,39.411c0,3.23 -2.619,5.849 -5.85,5.849l-4.39,0c-3.231,0 -5.85,-2.619 -5.85,-5.85c0,-3.231 2.619,-5.85 5.85,-5.85l4.39,0c3.231,0 5.85,2.619 5.85,5.85" style="fill:#fff;fill-rule:nonzero;"/><path d="M160.114,39.411c0,3.23 -2.619,5.849 -5.85,5.849l-4.39,0c-3.231,0 -5.85,-2.619 -5.85,-5.85c0,-3.231 2.619,-5.85 5.85,-5.85l4.39,0c3.231,0 5.85,2.619 5.85,5.85" style="fill:#fff;fill-rule:nonzero;"/><path d="M205.029,39.411c0,3.23 -2.619,5.849 -5.85,5.849l-4.39,0c-3.231,0 -5.85,-2.619 -5.85,-5.85c0,-3.231 2.619,-5.85 5.85,-5.85l4.39,0c3.231,0 5.85,2.619 5.85,5.85" style="fill:#fff;fill-rule:nonzero;"/><path d="M251.443,39.411c0,3.23 -2.619,5.849 -5.85,5.849l-4.39,0c-3.231,0 -5.85,-2.619 -5.85,-5.85c0,-3.231 2.619,-5.85 5.85,-5.85l4.39,0c3.231,0 5.85,2.619 5.85,5.85" style="fill:#fff;fill-rule:nonzero;"/></g>
</svg>