<svg viewBox="0 0 331 60" class="{{include.class}}">
  <path d="M6.132,52.114c-3.686,-3.856 -6.132,-9.396 -6.132,-15.138l0,-36.96l11.099,0l0,36.795c0,3.032 0.893,5.577 2.967,7.707c2.082,2.138 4.566,2.981 7.351,2.981l14.636,0l0,10.935l-14.718,0c-6.432,-0.008 -11.62,-2.57 -15.203,-6.32" style="fill:#363635;fill-rule:nonzero;"/><path d="M65.941,47.713c1.288,-0.556 2.425,-1.35 3.412,-2.384c0.987,-1.033 1.761,-2.266 2.323,-3.7c0.561,-1.434 0.843,-3.017 0.843,-4.748c0,-1.756 -0.282,-3.377 -0.843,-4.863c-0.562,-1.486 -1.336,-2.752 -2.323,-3.799c-0.987,-1.046 -2.124,-1.865 -3.412,-2.46c-1.289,-0.594 -2.659,-0.891 -4.111,-0.891c-1.453,0 -2.844,0.297 -4.173,0.891c-1.33,0.595 -2.466,1.414 -3.412,2.46c-0.946,1.047 -1.7,2.313 -2.261,3.799c-0.562,1.486 -0.843,3.107 -0.843,4.863c0,1.731 0.281,3.314 0.843,4.748c0.561,1.434 1.315,2.667 2.261,3.7c0.946,1.034 2.082,1.828 3.412,2.384c1.329,0.557 2.72,0.833 4.173,0.833c1.452,0 2.822,-0.276 4.111,-0.833m4.378,-31.993c2.645,1.151 4.96,2.748 6.948,4.789c1.987,2.042 3.556,4.454 4.707,7.236c1.151,2.781 1.727,5.803 1.727,9.065c0,3.234 -0.576,6.228 -1.727,8.982c-1.151,2.755 -2.72,5.146 -4.707,7.174c-1.988,2.028 -4.303,3.611 -6.948,4.748c-2.645,1.138 -5.475,1.706 -8.489,1.706c-3.042,0 -5.879,-0.568 -8.51,-1.706c-2.631,-1.137 -4.933,-2.72 -6.907,-4.748c-1.973,-2.028 -3.535,-4.419 -4.686,-7.174c-1.151,-2.754 -1.727,-5.748 -1.727,-8.982c0,-3.262 0.576,-6.284 1.727,-9.065c1.151,-2.782 2.713,-5.194 4.686,-7.236c1.974,-2.041 4.276,-3.638 6.907,-4.789c2.631,-1.152 5.468,-1.727 8.51,-1.727c3.014,0 5.844,0.575 8.489,1.727" style="fill:#363635;fill-rule:nonzero;"/><path d="M140.948,8.448c-2.582,-2.633 -5.585,-4.697 -9.01,-6.188c-3.457,-1.504 -7.155,-2.256 -11.094,-2.256c-3.975,0 -7.682,0.752 -11.119,2.256c-3.438,1.504 -6.446,3.591 -9.026,6.258c-2.578,2.668 -4.619,5.82 -6.124,9.455c-1.503,3.635 -2.255,7.584 -2.255,11.846c0,4.225 0.752,8.137 2.255,11.736c1.505,3.601 3.546,6.726 6.124,9.374c2.58,2.651 5.588,4.721 9.026,6.205c3.437,1.486 7.144,2.23 11.119,2.23c3.939,0 7.637,-0.744 11.094,-2.23c2.904,-1.248 5.505,-2.908 7.802,-4.98l-4.384,-4.387c-1.695,1.446 -3.59,2.619 -5.685,3.519c-2.725,1.172 -5.639,1.758 -8.745,1.758c-3.132,0 -6.054,-0.586 -8.763,-1.758c-2.71,-1.17 -5.08,-2.8 -7.113,-4.89c-2.032,-2.086 -3.641,-4.55 -4.827,-7.387c-1.185,-2.837 -1.777,-5.92 -1.777,-9.251c0,-3.358 0.592,-6.472 1.777,-9.336c1.186,-2.865 2.795,-5.349 4.827,-7.452c2.033,-2.102 4.403,-3.747 7.113,-4.932c2.709,-1.185 5.631,-1.778 8.764,-1.778c3.105,0 6.019,0.593 8.744,1.778c2.636,1.148 4.956,2.726 6.958,4.734l4.319,-4.324Z" style="fill:#398ccb;fill-rule:nonzero;"/><path d="M169.593,52.058c1.795,-0.776 3.382,-1.882 4.758,-3.326c1.377,-1.441 2.456,-3.16 3.24,-5.16c0.783,-2 1.175,-4.207 1.175,-6.621c0,-2.45 -0.392,-4.711 -1.175,-6.783c-0.784,-2.073 -1.863,-3.838 -3.24,-5.297c-1.376,-1.459 -2.963,-2.603 -4.758,-3.432c-1.797,-0.828 -3.708,-1.243 -5.734,-1.243c-2.026,0 -3.966,0.415 -5.819,1.243c-1.855,0.829 -3.44,1.973 -4.759,3.432c-1.318,1.459 -2.371,3.224 -3.153,5.297c-0.784,2.072 -1.175,4.333 -1.175,6.783c0,2.414 0.391,4.621 1.175,6.621c0.782,2 1.835,3.719 3.153,5.16c1.319,1.444 2.904,2.55 4.759,3.326c1.853,0.776 3.793,1.16 5.819,1.16c2.026,0 3.937,-0.384 5.734,-1.16m2.756,-36.338c2.644,1.151 4.96,2.748 6.947,4.789c1.986,2.042 3.557,4.454 4.707,7.236c1.152,2.782 1.727,5.804 1.727,9.065c0,3.234 -0.575,6.228 -1.727,8.982c-1.15,2.756 -2.721,5.147 -4.707,7.174c-1.987,2.03 -4.303,3.612 -6.947,4.748c-2.646,1.139 -5.475,1.707 -8.49,1.707c-3.042,0 -5.879,-0.568 -8.51,-1.707c-2.631,-1.136 -4.933,-2.718 -6.906,-4.748c-1.974,-2.027 -3.536,-4.418 -4.687,-7.174c-1.151,-2.754 -1.726,-5.748 -1.726,-8.982c0,-3.261 0.575,-6.283 1.726,-9.065c1.151,-2.782 2.713,-5.194 4.687,-7.236c1.973,-2.041 4.275,-3.638 6.906,-4.789c2.631,-1.151 5.468,-1.727 8.51,-1.727c3.015,0 5.844,0.576 8.49,1.727" style="fill:#398ccb;fill-rule:nonzero;"/><path d="M224.429,1.687c2.579,1.073 4.604,2.585 6.578,4.531c1.891,1.919 3.361,4.09 4.438,6.641c1.093,2.594 1.889,5.484 1.889,9.272l0,36.314l-11.1,0l0,-37.43c0,-1.687 -0.68,-4.531 -2.652,-6.735c-1.666,-1.863 -4.255,-3.34 -7.462,-3.34c-3.151,0 -5.707,1.45 -7.379,3.34c-1.656,1.872 -2.651,4.501 -2.651,6.735l0,37.43l-11.1,0l0,-36.314c0,-3.522 0.698,-6.846 1.87,-9.354c1.21,-2.59 2.508,-4.67 4.413,-6.574c2.015,-2.016 4.053,-3.459 6.603,-4.537c2.647,-1.12 5.202,-1.666 8.244,-1.666c3.043,0 5.606,0.562 8.309,1.687" style="fill:#363635;fill-rule:nonzero;"/><path d="M255.794,23.983l23.68,0l0,10.36l-23.68,0l0,2.632c0,2.883 0.874,5.029 2.286,6.774c1.833,2.266 4.599,3.844 8.154,3.749l17.515,0l0,10.936l-17.638,0c-3.87,0 -6.96,-0.796 -9.864,-2.3c-2.174,-1.126 -4.288,-2.714 -5.771,-4.416c-1.688,-1.938 -2.613,-3.301 -3.659,-5.468c-1.515,-3.141 -2.124,-6.616 -2.124,-9.439l0,-15.214c0,-2.795 0.606,-5.782 1.779,-8.535c1.005,-2.359 2.659,-4.916 4.235,-6.547c1.576,-1.631 3.731,-3.38 5.946,-4.41c2.688,-1.25 5.443,-2.09 8.458,-2.09l18.638,0l0,10.936l-17.515,0c-2.946,0 -5.508,0.954 -7.482,3.012c-1.883,1.963 -2.958,4.702 -2.958,7.388l0,2.632Z" style="fill:#363635;fill-rule:nonzero;"/><path d="M315.157,10.94l0,47.494l-11.101,0l0,-47.494l-15.663,0l0,-10.925l42.427,0l0,10.925l-15.663,0Z" style="fill:#363635;fill-rule:nonzero;"/>
</svg>