<svg viewBox="0 0 500 94" class="{{include.class}}">
  <g><path d="M24.54,31.97l-19.29,-20.33l0,19.74l-5.25,0l0,-31.21l0.84,-0.17l19,20l0,-19.41l5.26,0l0,31.26l-0.56,0.12Z" style="fill-rule:nonzero;"/><path d="M38.27,31.38l0,-30.79l18.79,0l0,4.79l-13.53,0l0,8.06l12.22,0l0,4.63l-12.22,0l0,8.53l13.53,0l0,4.78l-18.79,0Z" style="fill-rule:nonzero;"/><rect x="69.43" y="0.59" width="5.26" height="30.79"/><path d="M112.58,15.08l0,13.46c-3.391,2.263 -7.394,3.435 -11.47,3.36c-8.78,0 -16.34,-6.39 -16.34,-15.88c0,-9.49 7.69,-15.94 16.34,-15.94c3.864,-0.031 7.653,1.079 10.89,3.19l-2.4,4.21c-2.461,-1.623 -5.333,-2.514 -8.28,-2.57c-7,0 -11,5 -11,11.1c-0.005,0.133 -0.007,0.267 -0.007,0.401c0,5.935 4.884,10.82 10.82,10.82c0.035,0 0.071,-0.001 0.107,-0.001c2.17,0.091 4.323,-0.421 6.22,-1.48l0,-6.05l-7.18,0l0,-4.62l12.3,0Z" style="fill-rule:nonzero;"/><path d="M144.46,31.38l0,-13.23l-14.16,0l0,13.23l-5.25,0l0,-30.79l5.25,0l0,12.85l14.16,0l0,-12.85l5.25,0l0,30.79l-5.25,0Z" style="fill-rule:nonzero;"/><path d="M171.18,31.68c-2.783,-0.029 -5.561,-0.226 -8.32,-0.59l0,-30.17c2.618,-0.37 5.257,-0.567 7.9,-0.59c8.11,0 12.1,4 12.1,8.07c0,3.24 -1.51,5.59 -5.38,7c4.5,1.26 6.22,4 6.22,7.39c0,4.6 -4.24,8.89 -12.52,8.89Zm0.5,-26.81c-1.223,0.005 -2.443,0.105 -3.65,0.3l0,8.53c0.75,0.08 1.8,0.12 3.11,0.12c4.45,0 6.3,-2 6.3,-4.54c0,-2.54 -1.89,-4.41 -5.76,-4.41Zm-0.46,12.67c-1.09,0 -2.48,0 -3.19,0.13l0,9.24c1.241,0.146 2.49,0.216 3.74,0.21c4.2,0 6.3,-2 6.3,-4.87c0,-2.63 -2.31,-4.71 -6.85,-4.71Z" style="fill-rule:nonzero;"/><path d="M208.15,31.89c-8.91,0 -15.42,-6.77 -15.42,-15.88c0,-9.11 6.81,-15.93 15.71,-15.93c8.9,0 15.42,6.77 15.42,15.93c0.004,0.147 0.006,0.295 0.006,0.442c0,8.471 -6.97,15.44 -15.44,15.44c-0.092,0 -0.184,0 -0.276,-0.002Zm0.17,-27.1c-5.88,0 -10,4.79 -10,11.22c0,6.43 4.08,11.22 10,11.22c5.92,0 9.91,-4.84 9.91,-11.22c0,-6.38 -4.07,-11.22 -9.91,-11.22Z" style="fill-rule:nonzero;"/><path d="M246.47,31.89c-7.69,0 -12.23,-4.33 -12.23,-12.31l0,-19l5.25,0l0,18.62c0,5.29 2.61,7.9 7.06,7.9c4.45,0 7.06,-2.65 7.06,-7.9l0,-18.61l5.25,0l0,18.95c0,7.9 -4.86,12.35 -12.39,12.35Z" style="fill-rule:nonzero;"/><path d="M288.42,31.38l-6.72,-11.09c-0.55,0 -1.05,0 -1.64,0c-1,0 -2.06,0 -3.07,-0.08l0,11.17l-5.25,0l0,-30.5c2.691,-0.332 5.399,-0.499 8.11,-0.5c8.74,0 12.61,4.24 12.61,9.7c0.041,3.918 -2.354,7.474 -6,8.91l8.07,12.39l-6.11,0Zm-7.9,-26.3c-1.182,-0.029 -2.364,0.055 -3.53,0.25l0,10.51c0.996,0.116 1.998,0.173 3,0.17c4.58,0 6.89,-2.15 6.89,-5.68c0.03,-3.11 -2.32,-5.25 -6.36,-5.25Z" style="fill-rule:nonzero;"/><path d="M324.07,31.38l0,-13.23l-14.16,0l0,13.23l-5.25,0l0,-30.79l5.25,0l0,12.85l14.16,0l0,-12.85l5.25,0l0,30.79l-5.25,0Z" style="fill-rule:nonzero;"/><path d="M355.87,31.89c-8.91,0 -15.42,-6.77 -15.42,-15.88c0,-9.11 6.81,-15.93 15.72,-15.93c8.91,0 15.42,6.77 15.42,15.93c0.004,0.144 0.006,0.288 0.006,0.432c0,8.476 -6.974,15.45 -15.45,15.45c-0.092,0 -0.184,0 -0.276,-0.002Zm0.13,-27.1c-5.88,0 -10,4.79 -10,11.22c0,6.43 4.08,11.22 10,11.22c5.92,0 10,-4.84 10,-11.22c0,-6.38 -4.12,-11.22 -10,-11.22Z" style="fill-rule:nonzero;"/><path d="M396.67,31.89c-8.91,0 -15.42,-6.77 -15.42,-15.88c0,-9.11 6.8,-15.93 15.75,-15.93c8.95,0 15.42,6.77 15.42,15.93c0.004,0.144 0.006,0.289 0.006,0.433c0,8.476 -6.974,15.45 -15.45,15.45c-0.102,0 -0.204,-0.001 -0.306,-0.003Zm0.16,-27.1c-5.88,0 -9.95,4.79 -9.95,11.22c0,6.43 4.07,11.22 9.95,11.22c5.88,0 9.92,-4.84 9.92,-11.22c0,-6.38 -4.07,-11.22 -9.92,-11.22Z" style="fill-rule:nonzero;"/><path d="M433,31.64c-2.96,-0.013 -5.918,-0.183 -8.86,-0.51l0,-30.25c2.844,-0.339 5.706,-0.506 8.57,-0.5c12.18,0 18.19,7 18.19,15.33c0.03,8.66 -5.68,15.93 -17.9,15.93Zm0.34,-26.64c-1.321,-0.015 -2.641,0.068 -3.95,0.25l0,21.47c1.46,0.21 2.936,0.294 4.41,0.25c7.9,0 11.47,-4.74 11.47,-11.26c0,-6.52 -4.09,-10.71 -11.9,-10.71l-0.03,0Z" style="fill-rule:nonzero;"/><rect x="462.8" y="0.59" width="5.25" height="30.79"/><path d="M481.22,31.38l0,-30.79l18.78,0l0,4.79l-13.53,0l0,8.06l12.23,0l0,4.63l-12.23,0l0,8.53l13.53,0l0,4.78l-18.78,0Z" style="fill-rule:nonzero;"/><path d="M245.43,93c-3.44,-0.06 -6.792,-1.101 -9.66,-3l1.8,-4.7c2.316,1.74 5.106,2.738 8,2.86c3.23,0 4.66,-1.9 4.66,-4c0,-2.1 -0.92,-3.49 -5.8,-5.55c-5.37,-2.26 -7.31,-5 -7.31,-8.74c0,-4.45 3.7,-8.61 10.13,-8.61c2.734,-0.019 5.42,0.73 7.75,2.16l-1.68,4.62c-1.814,-1.294 -3.956,-2.053 -6.18,-2.19c-3.23,0 -4.74,1.77 -4.74,3.83c0,2.06 1.51,3.28 5.33,5c6.09,2.64 7.86,5.12 7.86,9.16c0.01,4.91 -3.81,9.16 -10.16,9.16Z" style="fill-rule:nonzero;"/><path d="M280.39,93c-8.91,0 -15.42,-6.77 -15.42,-15.89c0,-9.12 6.81,-15.92 15.71,-15.92c8.9,0 15.43,6.77 15.43,15.92c0.004,0.147 0.006,0.295 0.006,0.442c0,8.476 -6.974,15.45 -15.45,15.45c-0.092,0 -0.184,0 -0.276,-0.002Zm0.17,-27.1c-5.88,0 -10,4.79 -10,11.21c0,6.42 4.08,11.22 10,11.22c5.92,0 9.91,-4.83 9.91,-11.22c0,-6.39 -4.07,-11.21 -9.91,-11.21Z" style="fill-rule:nonzero;"/><path d="M312.72,66.48l0,9l11.89,0l0,4.66l-11.89,0l0,12.4l-5.25,0l0,-30.85l18.78,0l0,4.79l-13.53,0Z" style="fill-rule:nonzero;"/><path d="M349,66.48l0,26.06l-5.25,0l0,-26l-9.79,0l0,-4.85l24.79,0l0,4.79l-9.75,0Z" style="fill-rule:nonzero;"/><path d="M396.83,93l-0.84,0.08l-9.58,-21.43l-9.41,21.43l-0.8,-0.08l-9.88,-31.31l5.8,0l5.55,19.42l8.53,-19.67l0.59,0l8.61,19.54l5.47,-19.29l5.71,0l-9.75,31.31Z" style="fill-rule:nonzero;"/><path d="M433.81,92.54l-3,-7l-12.16,0l-3,7l-5.42,0l14.2,-31.22l0.76,0l14.17,31.22l-5.55,0Zm-9.07,-21.51l-4.37,10.3l8.74,0l-4.37,-10.3Z" style="fill-rule:nonzero;"/><path d="M465.4,92.54l-6.72,-11.09c-0.55,0 -1.05,0 -1.64,0c-1,0 -2.06,0 -3.07,-0.08l0,11.17l-5.25,0l0,-30.55c2.69,-0.337 5.399,-0.504 8.11,-0.5c8.74,0 12.61,4.24 12.61,9.7c0.041,3.918 -2.354,7.474 -6,8.91l8.06,12.44l-6.1,0Zm-7.9,-26.3c-1.182,-0.029 -2.364,0.055 -3.53,0.25l0,10.46c0.996,0.113 1.998,0.166 3,0.16c4.58,0 6.89,-2.14 6.89,-5.67c0.03,-3.11 -2.32,-5.25 -6.36,-5.25l0,0.05Z" style="fill-rule:nonzero;"/><path d="M481.22,92.54l0,-30.85l18.78,0l0,4.79l-13.53,0l0,8.06l12.23,0l0,4.62l-12.23,0l0,8.53l13.53,0l0,4.85l-18.78,0Z" style="fill-rule:nonzero;"/></g>
</svg>