<svg viewBox="0 0 209.33 36.4" alt="{{include.alt}}" class="simplabs-logo {{include.class}}">
  <path d="M141.33 1v22.8a5.24 5.24 0 0 0 1.35 3.95c.89.85 2.38 1.31 4.5 1.35l.47-2.82a9 9 0 0 1-1.35-.28 2.1 2.1 0 0 1-.9-.5 1.81 1.81 0 0 1-.47-.85 5.22 5.22 0 0 1-.15-1.37V1zm32.57 0v27.2c.79.22 1.79.43 3 .65a24.92 24.92 0 0 0 4.25.32 11.06 11.06 0 0 0 4-.68 8.49 8.49 0 0 0 3-1.95 8.6 8.6 0 0 0 1.92-3.1 11.56 11.56 0 0 0 .7-4.1 13.07 13.07 0 0 0-.58-4 8.92 8.92 0 0 0-1.67-3.12 7.64 7.64 0 0 0-2.72-2 8.85 8.85 0 0 0-3.68-.73 9.16 9.16 0 0 0-2.95.45 9.51 9.51 0 0 0-1.9.82V1zM75.43 2.1a2.24 2.24 0 0 0-1.57.6 2 2 0 0 0-.63 1.6 2.1 2.1 0 0 0 .63 1.63 2.45 2.45 0 0 0 3.15 0 2.13 2.13 0 0 0 .65-1.62A2.06 2.06 0 0 0 77 2.7a2.25 2.25 0 0 0-1.57-.6zM61.58 9.45a8.2 8.2 0 0 0-5.15 1.45 4.76 4.76 0 0 0-1.87 4 4.33 4.33 0 0 0 1.63 3.63 7.33 7.33 0 0 0 1.75 1.05c.68.3 1.38.61 2.13.9a16.09 16.09 0 0 1 3.3 1.63 2.26 2.26 0 0 1 1 1.95 1.79 1.79 0 0 1-1 1.72 6.86 6.86 0 0 1-3.12.55 11.11 11.11 0 0 1-3.45-.43l-1.82-.62v3.1c.34.12.75.25 1.27.4a15.21 15.21 0 0 0 4 .4 10 10 0 0 0 5.63-1.32 4.47 4.47 0 0 0 2-4 5.53 5.53 0 0 0-.4-2.25 4.34 4.34 0 0 0-1.15-1.57 7.75 7.75 0 0 0-1.93-1.14c-.72-.32-1.51-.66-2.42-1-.69-.24-1.28-.46-1.78-.68a6.06 6.06 0 0 1-1.25-.7 2.47 2.47 0 0 1-.72-.85 2.37 2.37 0 0 1-.25-1.1 1.84 1.84 0 0 1 1.07-1.75 5.38 5.38 0 0 1 2.52-.55 11.19 11.19 0 0 1 2.82.3 8.87 8.87 0 0 1 1.73.6v-3.1L66 10c-.36-.1-.78-.19-1.25-.27s-1-.17-1.5-.23a15.23 15.23 0 0 0-1.62-.07zm97.7 0a19.89 19.89 0 0 0-3.37.27 13 13 0 0 0-1.77.43v2.9a10.63 10.63 0 0 1 1.88-.47 16.55 16.55 0 0 1 3-.25 5.28 5.28 0 0 1 2.17.4 3.32 3.32 0 0 1 1.3 1 3.78 3.78 0 0 1 .67 1.45 7.59 7.59 0 0 1 .18 1.65v.95c-.1 0-.28-.08-.53-.12l-.85-.15c-.33-.06-.68-.11-1.05-.15s-.73 0-1.07 0a14.45 14.45 0 0 0-3.12.33 8 8 0 0 0-2.57 1 5.06 5.06 0 0 0-1.75 1.82 5.23 5.23 0 0 0-.65 2.68 6.33 6.33 0 0 0 .55 2.77 4.74 4.74 0 0 0 1.55 1.88 6.76 6.76 0 0 0 2.38 1 12.9 12.9 0 0 0 3 .33c.76 0 1.52 0 2.3-.1s1.48-.13 2.15-.2 1.27-.14 1.8-.23l1.25-.2V16.65a10.91 10.91 0 0 0-.37-2.93 5.44 5.44 0 0 0-3.58-3.72 10.26 10.26 0 0 0-3.5-.52zm43.8 0A8.13 8.13 0 0 0 198 10.9a4.78 4.78 0 0 0-1.9 4 4.5 4.5 0 0 0 1.62 3.63 7.58 7.58 0 0 0 1.77 1.05c.68.3 1.39.61 2.13.9a15.76 15.76 0 0 1 3.28 1.63 2.28 2.28 0 0 1 1 1.95 1.8 1.8 0 0 1-1 1.72 6.88 6.88 0 0 1-3.12.55 11.13 11.13 0 0 1-3.45-.43c-.85-.28-1.45-.5-1.85-.65v3.13c.34.11.77.25 1.3.4a15.2 15.2 0 0 0 4 .4 10 10 0 0 0 5.63-1.32 4.48 4.48 0 0 0 2-4 5.58 5.58 0 0 0-.4-2.25 4.45 4.45 0 0 0-1.18-1.57 7.56 7.56 0 0 0-1.82-1.15c-.71-.32-1.51-.66-2.43-1-.69-.24-1.28-.46-1.77-.68a5.94 5.94 0 0 1-1.25-.7 2.44 2.44 0 0 1-.73-.85 2.41 2.41 0 0 1-.25-1.1 1.85 1.85 0 0 1 1.08-1.75 5.28 5.28 0 0 1 2.5-.55 11.42 11.42 0 0 1 2.85.3 9 9 0 0 1 1.7.57v-3.05l-.15-.05c-.36-.1-.78-.19-1.25-.27s-1-.17-1.53-.23a15.23 15.23 0 0 0-1.62-.07zm-112 .07a24.13 24.13 0 0 0-3.25.32c-1.3.22-2.34.41-3.13.6v18.29h3.4V12.85c.1 0 .3-.08.6-.12l1-.12c.36 0 .73 0 1.13-.07s.75-.05 1.1-.05a4.75 4.75 0 0 1 2 .38A2.86 2.86 0 0 1 95.18 14a5.69 5.69 0 0 1 .65 2 18.51 18.51 0 0 1 .2 2.85v9.85h3.43V18.15a18.1 18.1 0 0 0-.15-2.35 12.44 12.44 0 0 0-.45-2 5.77 5.77 0 0 1 1.55-.83 7.7 7.7 0 0 1 2.85-.45 4.91 4.91 0 0 1 2.07.38 2.84 2.84 0 0 1 1.25 1.1 5.48 5.48 0 0 1 .63 2 20.52 20.52 0 0 1 .18 2.85v9.85h3.43V18.15a19.77 19.77 0 0 0-.28-3.45 6.83 6.83 0 0 0-1.09-2.7 5.19 5.19 0 0 0-2.2-1.8 8.89 8.89 0 0 0-3.62-.63 9.19 9.19 0 0 0-2.15.23 14.52 14.52 0 0 0-1.8.55 9.45 9.45 0 0 0-1.37.63c-.37.22-.63.38-.8.5A5.52 5.52 0 0 0 95.38 10a8.56 8.56 0 0 0-3.1-.48h-1.22zm33.13 0a21.17 21.17 0 0 0-3.07.32c-1.22.23-2.24.46-3.05.65v24.94h3.45V27.9a9.36 9.36 0 0 0 1.9.82 9.05 9.05 0 0 0 2.93.43 9 9 0 0 0 3.7-.73 7.58 7.58 0 0 0 2.7-2 8.86 8.86 0 0 0 1.7-3.1 13 13 0 0 0 .55-4 11.65 11.65 0 0 0-.68-4.1 8.21 8.21 0 0 0-5-5.05 10.83 10.83 0 0 0-4-.68h-1.18zm-50.45.4v18.8h3.45V9.93zm108 2.53a5.63 5.63 0 0 1 2.52.52 4.69 4.69 0 0 1 1.72 1.46 6 6 0 0 1 1 2.17 12 12 0 0 1 .28 2.73 7.17 7.17 0 0 1-1.65 5.07 5.8 5.8 0 0 1-4.45 1.8 18.19 18.19 0 0 1-2.32-.12 11.61 11.61 0 0 1-1.48-.28V13.9a7.21 7.21 0 0 1 1.82-1 6.9 6.9 0 0 1 2.58-.47zm-56.43.07a5.83 5.83 0 0 1 4.45 1.77 7.08 7.08 0 0 1 1.65 5 11.83 11.83 0 0 1-.3 2.7 6.05 6.05 0 0 1-1 2.17 4.58 4.58 0 0 1-1.72 1.45 5.58 5.58 0 0 1-2.53.53 7.51 7.51 0 0 1-4.4-1.45V12.88a9.27 9.27 0 0 1 1.37-.25 20.73 20.73 0 0 1 2.43-.1zM160.1 20a13.25 13.25 0 0 1 2 .13 4.28 4.28 0 0 1 1.2.32v5.6a10 10 0 0 1-1.57.2h-2.15a6.3 6.3 0 0 1-3.22-.7 2.69 2.69 0 0 1-1.18-2.52 2.44 2.44 0 0 1 .47-1.58 3.33 3.33 0 0 1 1.2-.92 5.22 5.22 0 0 1 1.6-.45 14.89 14.89 0 0 1 1.65-.08z" class="text"/>
  <path d="M20 21.33V36.4a18.24 18.24 0 0 0 12.9-7.24z" class="ball"/>
  <path d="M34.71 26.22a18.08 18.08 0 0 0 1.88-8A18.26 18.26 0 0 0 20 0v17.29zM1.84 10.27A18.07 18.07 0 0 0 0 18.2a18.26 18.26 0 0 0 16.57 18.17V19.23z" class="ball"/>
  <path d="M16.57 15.19V0A18.24 18.24 0 0 0 3.62 7.32z" class="ball"/>
</svg>