<svg viewBox="0 0 147.2 31.8" class="{{include.class}}">
  <path d="M141.6 18.4c-.1-2.1-1.4-4.1-4.7-4.1-2.9 0-4.5 2.2-4.7 4.1h9.4zm5.3 6.8c-1.1 3.6-4.4 6.6-9.5 6.6-5.7 0-10.8-4.1-10.8-11.1 0-6.6 4.9-11 10.2-11 6.4 0 10.3 4.1 10.3 10.8 0 .8-.1 1.7-.1 1.7h-14.9c.1 2.8 2.5 4.7 5.2 4.7 2.6 0 4.1-1.3 4.7-3.2l4.9 1.5zm-36.3-6c0-2.4 1.4-4.3 3.9-4.3 2.7 0 3.9 1.8 3.9 4.1v12.1h5.6V18c0-4.6-2.4-8.3-7.5-8.3-2.2 0-4.7 1-6 3.1v-2.6H105V31h5.6V19.2zm-14.7-8.9h5.6v20.8h-5.6V10.3zM98.7 0c1.9 0 3.5 1.6 3.5 3.5s-1.5 3.4-3.5 3.4c-1.9 0-3.5-1.6-3.5-3.4 0-1.9 1.6-3.5 3.5-3.5M67.4 19.2c0-2.4 1.4-4.3 3.9-4.3 2.7 0 3.9 1.8 3.9 4.1v12.1h5.6V18c0-4.6-2.4-8.3-7.5-8.3-2.2 0-4.7 1-6 3.1v-2.6h-5.5V31h5.6V19.2zm-14.9-8.9h5.6v20.8h-5.6V10.3zM55.2 0c1.9 0 3.5 1.6 3.5 3.5s-1.5 3.4-3.5 3.4c-1.9 0-3.5-1.6-3.5-3.4.1-1.9 1.6-3.5 3.5-3.5m-16 27.6c-1.8 0-2.7-1.2-2.7-2.4 0-1.6 1.1-2.4 2.6-2.6l4.7-.7v.9c0 3.6-2.2 4.8-4.6 4.8m-8.3-2.1c0 3.3 2.7 6.3 7.2 6.3 3.1 0 5.1-1.4 6.1-3.1 0 .8.1 1.9.2 2.5h5.2c-.1-.7-.3-2.2-.3-3.3V17.6c0-4.2-2.5-7.9-9.1-7.9-5.6 0-8.6 3.6-8.9 6.9l5 1.1c.2-1.8 1.5-3.4 4-3.4 2.4 0 3.5 1.2 3.5 2.7 0 .7-.4 1.3-1.6 1.5l-5.1.8c-3.5.4-6.2 2.5-6.2 6.2m-1.7-9.6c-.6-.1-1.2-.2-1.7-.2-2.9 0-5.4 1.4-5.4 5.9v9.5h-5.6V10.3H22v3.1c1.3-2.8 4.1-3.3 5.9-3.3.5 0 .9 0 1.3.1v5.7zm-15.8-5.3v4.9H6.9c.6-.3 1.1-.8 1.6-1.2 1-1 1.7-2.2 2.2-3.7h2.7zM1.6 15.5H0v-4.9h9.1c-.6 1.5-1.5 2.7-2.8 3.6-1.2.8-2.8 1.2-4.7 1.3m10.1 11c.7 0 1.4-.1 1.7-.2V31c-.5.2-1.5.5-3.1.5-4 0-6.5-2.4-6.5-6.4v-8.3h5.5v7.4c0 1.7.8 2.3 2.4 2.3M9.3 9.3V4.4h-5v2.9c0 .8-.2 1.5-.6 2h5.6zm83.5 17.2h-1c-1.6 0-2.4-.6-2.4-2.4V.9h-5.5v24.2c0 4 2.5 6.4 6.5 6.4 1 0 1.8-.1 2.4-.3v-4.7z" fill="#48d5b5"/>
</svg>