<svg viewBox="0 0 620 338" class="{{include.class}}">
  <clipPath id="_clip1"><path id="V_1_" d="M581.689,0l-66.742,203.136l-0.465,0l-36.779,-116.125l-37.246,0l53.437,165.168l40.945,0l84.323,-252.179l-37.473,0Z"/></clipPath><g clip-path="url(#_clip1)"><rect x="440.457" y="0" width="178.705" height="252.179" style="fill:url(#_Radial2);"/></g><clipPath id="_clip3"><path id="A" d="M393.577,127.725l0.462,0l20.819,60.61l-42.798,0l21.517,-60.61Zm-18.045,-40.714l-62.459,165.168l36.549,0l12.954,-36.782l61.766,0l12.492,36.782l37.703,0l-61.763,-165.168l-37.242,0Z"/></clipPath><g clip-path="url(#_clip3)"><rect x="313.073" y="87.011" width="161.464" height="165.168" style="fill:url(#_Radial4);"/></g><path id="b" d="M228.586,87.012l-32.846,0l0,165.168l31.227,0l0,-15.27l0.464,0c3.545,6.634 8.79,11.336 15.73,14.114c6.94,2.774 14.805,4.16 23.594,4.16c6.017,0 11.952,-1.234 17.814,-3.698c5.86,-2.466 11.141,-6.246 15.847,-11.336c4.701,-5.091 8.52,-11.601 11.451,-19.546c2.927,-7.941 4.393,-17.388 4.393,-28.339c0,-10.948 -1.466,-20.394 -4.393,-28.337c-2.931,-7.944 -6.75,-14.459 -11.451,-19.549c-4.706,-5.089 -9.987,-8.864 -15.847,-11.331c-5.862,-2.468 -11.797,-3.704 -17.814,-3.704c-7.401,0 -14.536,1.429 -21.397,4.278c-6.865,2.857 -12.299,7.368 -16.308,13.534l-0.464,0l0,-60.144Zm26.836,143.653c-4.783,0 -8.945,-1.041 -12.492,-3.123c-3.55,-2.081 -6.476,-4.893 -8.79,-8.443c-2.315,-3.545 -4.013,-7.633 -5.09,-12.259c-1.082,-4.629 -1.619,-9.405 -1.619,-14.344c0,-5.089 0.537,-9.946 1.619,-14.57c1.077,-4.629 2.775,-8.715 5.09,-12.264c2.314,-3.547 5.24,-6.36 8.79,-8.443c3.547,-2.084 7.709,-3.123 12.492,-3.123c4.932,0 9.138,1.039 12.607,3.123c3.468,2.083 6.361,4.896 8.674,8.443c2.315,3.549 4.009,7.635 5.091,12.264c1.075,4.624 1.618,9.481 1.618,14.57c0,4.939 -0.543,9.715 -1.618,14.344c-1.082,4.626 -2.776,8.714 -5.091,12.259c-2.313,3.55 -5.206,6.362 -8.674,8.443c-3.469,2.082 -7.675,3.123 -12.607,3.123" style="fill:#6d1416;fill-rule:nonzero;"/><clipPath id="_clip5"><path id="x" d="M141.983,121.897l-22.628,33.944l-22.883,-33.944l-40.73,0l42.744,61.601l-98.486,154.172l39.978,0l78.873,-126.765l27.156,40.986l40.733,0l-48.026,-69.145l42.745,-60.849l-39.476,0Z"/></clipPath><g clip-path="url(#_clip5)"><rect x="0" y="121.897" width="186.74" height="215.773" style="fill:url(#_Linear6);"/></g><defs><radialGradient id="_Radial2" cx="0" cy="0" r="1" gradientUnits="userSpaceOnUse" gradientTransform="matrix(209.06,0,0,-209.06,440.437,100.241)"><stop offset="0" style="stop-color:#c6091d;stop-opacity:1"/><stop offset="0" style="stop-color:#c6091d;stop-opacity:1"/><stop offset="0.62" style="stop-color:#6d1415;stop-opacity:1"/><stop offset="1" style="stop-color:#6d1415;stop-opacity:1"/></radialGradient><radialGradient id="_Radial4" cx="0" cy="0" r="1" gradientUnits="userSpaceOnUse" gradientTransform="matrix(209.236,0,0,-209.236,440.437,103.302)"><stop offset="0" style="stop-color:#c6091d;stop-opacity:1"/><stop offset="0" style="stop-color:#c6091d;stop-opacity:1"/><stop offset="0.62" style="stop-color:#6d1415;stop-opacity:1"/><stop offset="1" style="stop-color:#6d1415;stop-opacity:1"/></radialGradient><linearGradient id="_Linear6" x1="0" y1="0" x2="1" y2="0" gradientUnits="userSpaceOnUse" gradientTransform="matrix(4.08047e-15,66.6392,-66.6392,4.08047e-15,93.3664,252.476)"><stop offset="0" style="stop-color:#9c9e9f;stop-opacity:1"/><stop offset="1" style="stop-color:#9c9e9f;stop-opacity:0"/></linearGradient></defs>
</svg>