<?xml version="1.0" encoding="UTF-8" standalone="no"?>
<!DOCTYPE svg PUBLIC "-//W3C//DTD SVG 1.1//EN" "http://www.w3.org/Graphics/SVG/1.1/DTD/svg11.dtd">
<svg width="100%" height="100%" viewBox="0 0 1748 1157" version="1.1" xmlns="http://www.w3.org/2000/svg" xmlns:xlink="http://www.w3.org/1999/xlink" xml:space="preserve" xmlns:serif="http://www.serif.com/" style="fill-rule:evenodd;clip-rule:evenodd;stroke-linejoin:round;stroke-miterlimit:2;">
    <g transform="matrix(1,0,0,1,-548.125,-1137.67)">
        <path d="M548.125,1254.38L548.125,1356.25L873.125,1356.25L873.125,2281.25L1103.75,2281.25L1103.75,1356.25L1428.75,1356.25L1428.75,1256.25C1428.75,1200 1428.75,1154.38 1426.25,1153.12C1426.25,1151.25 1228.12,1150.62 987.5,1150.62L550,1152.5L550,1255L548.125,1254.38ZM2008.75,1150C2072.5,1165 2121.25,1193.75 2165,1239.38C2188.12,1264.38 2222.5,1308.12 2225,1319.38C2225,1323.12 2116.88,1396.25 2051.25,1436.88C2048.75,1438.75 2038.75,1428.12 2028.75,1411.88C1996.25,1365.62 1963.12,1345.62 1911.25,1341.88C1836.25,1336.88 1786.25,1376.25 1786.25,1441.88C1786.25,1461.88 1790,1473.12 1797.5,1489.38C1814.38,1523.75 1845.62,1544.38 1942.5,1586.88C2121.25,1663.75 2198.75,1714.38 2245.62,1786.88C2298.75,1868.12 2310.62,1995.62 2275,2091.25C2235,2195.62 2137.5,2266.25 1998.12,2289.38C1954.38,2296.88 1854.38,2295.62 1807.5,2287.5C1707.5,2268.75 1611.88,2218.75 1553.12,2154.38C1530,2129.38 1485.62,2062.5 1488.12,2058.12L1511.88,2043.12L1605.62,1988.75L1676.25,1947.5L1692.5,1969.38C1713.12,2001.88 1759.38,2045.62 1786.25,2060.62C1867.5,2102.5 1976.25,2096.88 2030,2048.12C2053.12,2026.88 2063.12,2004.38 2063.12,1973.12C2063.12,1944.38 2058.75,1931.25 2044.38,1909.38C2024.38,1881.88 1984.38,1859.38 1871.88,1809.38C1742.5,1754.38 1687.5,1719.38 1636.25,1665.62C1606.88,1633.12 1580,1582.5 1567.5,1540.62C1558.12,1504.38 1555,1415.62 1563.75,1380C1590.62,1255 1685,1167.5 1820,1142.5C1863.75,1133.75 1966.88,1137.5 2010,1148.75L2008.75,1150Z" style="fill:white;fill-rule:nonzero;"/>
    </g>
</svg>
