<?xml version="1.0" encoding="UTF-8"?>
<svg width="112px" height="79px" viewBox="0 0 112 79" version="1.1" xmlns="http://www.w3.org/2000/svg" xmlns:xlink="http://www.w3.org/1999/xlink">
    <title>Group 10</title>
    <defs>
        <polygon id="path-1" points="0 0 36.7207619 0 36.7207619 36.53683 0 36.53683"></polygon>
    </defs>
    <g id="Work" stroke="none" stroke-width="1" fill="none" fill-rule="evenodd">
        <g id="Dt-/-AIS." transform="translate(-123.000000, -176.000000)">
            <g id="Group-10" transform="translate(123.000000, 176.000000)">
                <path d="M97.7826757,47.7237299 C94.1977524,44.3116981 89.3652674,40.7963965 81.6235352,40.7963965 C72.1671842,40.7963965 66.8157469,45.8111746 66.8157469,52.9966823 C66.8157469,59.4076671 72.0633937,62.4055873 78.506707,63.2844127 L82.7154111,63.8534289 C85.9879251,64.2665078 89.1057912,64.9904286 89.1057912,67.5752699 C89.1057912,70.6258577 85.0527728,71.8144923 82.3511065,71.8144923 C78.4029165,71.8144923 74.1942124,70.1601112 71.7520223,67.2138259 L64.7897566,71.6079528 C68.5303657,75.9504449 72.9466508,79 81.5197447,79 C92.0150385,79 98.1978376,73.9862547 98.1978376,66.2833656 C98.1978376,60.0272854 94.2496476,57.1326349 84.6895061,55.7880631 L80.6364877,55.2200796 C77.5196595,54.7543331 75.9607264,53.8238728 75.9607264,51.8596826 C75.9607264,50.1536667 77.6753452,47.9819043 81.4159543,47.9819043 C85.3651822,47.9819043 88.3782199,49.7911899 91.027991,52.5319685 L97.7826757,47.7237299 Z M65.1550991,41.6752219 L57.7766336,41.6752219 L41.9817977,78.1728095 L49.3592254,78.1728095 L65.1550991,41.6752219 Z" id="Fill-1" fill="#FFFFFF"></path>
                <path d="M57.2256099,36.4975875 L66.3705895,36.4975875 L66.3705895,0 L57.2256099,0 L57.2256099,36.4975875 Z M39.4047838,24.0907623 L30.1041185,24.0907623 L34.6241941,8.68498419 L39.4047838,24.0907623 Z M53.0698389,36.4975875 L39.5604695,0 L30.0003281,0 L16.3871682,36.4975875 L26.1559285,36.4975875 L27.9743378,30.655619 L41.4826693,30.655619 L43.3010786,36.4975875 L53.0698389,36.4975875 Z" id="Fill-3" fill="#FFFFFF"></path>
                <g id="Group-7" transform="translate(75.279238, 0.000310)">
                    <mask id="mask-2" fill="white">
                        <use xlink:href="#path-1"></use>
                    </mask>
                    <g id="Clip-6"></g>
                    <path d="M36.7210733,36.53683 C16.4725877,36.53683 0,20.1458587 0,0 L11.5456534,0 C11.5456534,13.8112935 22.839096,25.0480727 36.7210733,25.0480727 L36.7210733,36.53683 Z" id="Fill-5" fill="#FFFFFF" mask="url(#mask-2)"></path>
                </g>
                <path d="M36.2623193,78.184892 L24.8598967,78.184892 C24.8598967,64.5450263 13.7076092,53.4486939 0,53.4486939 L0,42.1045142 C19.9952368,42.1045142 36.2623193,58.2899788 36.2623193,78.184892" id="Fill-8" fill="#FFFFFF"></path>
            </g>
        </g>
    </g>
</svg>