<?xml version="1.0" encoding="UTF-8"?>
<svg width="80px" height="58px" viewBox="0 0 80 58" version="1.1" xmlns="http://www.w3.org/2000/svg" xmlns:xlink="http://www.w3.org/1999/xlink">
    <title>ais</title>
    <g id="First-Draft" stroke="none" stroke-width="1" fill="none" fill-rule="evenodd">
        <g id="Idea-to-Release-projects-" transform="translate(-604, -7211)" fill="#FFFFFF">
            <g id="Group-28" transform="translate(240, 6904)">
                <g id="Group-26" transform="translate(0, 288)">
                    <g id="Group-19" transform="translate(0, 0)">
                        <g id="Group-18" transform="translate(32, 19.72)">
                            <g id="ais" transform="translate(332, 0)">
                                <g id="Group" transform="translate(11.7055, 0)">
                                    <path d="M34.8334723,29.9182652 L29.5638958,29.9182652 L18.2819016,56.1193587 L23.5514781,56.1193587 L34.8334723,29.9182652 Z M58.1395607,34.2604022 C55.578167,31.8109536 52.127143,29.2873691 46.5973496,29.2873691 C39.842832,29.2873691 36.0203874,32.8874062 36.0203874,38.0457789 C36.0203874,42.6481327 39.7686961,44.8002965 44.3703086,45.4311927 L47.3765175,45.8396812 C49.7147623,46.1362246 51.9418034,46.655917 51.9418034,48.5115374 C51.9418034,50.7015105 49.0467983,51.5548142 47.117042,51.5548142 C44.2961727,51.5548142 41.2899639,50.3671578 39.5455472,48.2520619 L34.5725141,51.4065425 C37.2451117,54.5239551 40.3995923,56.7131869 46.5232138,56.7131869 C54.0198313,56.7131869 58.4361042,53.1138912 58.4361042,47.5840979 C58.4361042,43.0929478 55.6159763,41.0149198 48.7873228,40.049671 L45.8923177,39.6419238 C43.6652766,39.3075711 42.5517561,38.6396071 42.5517561,37.2295431 C42.5517561,36.0048188 43.7764804,34.4457418 46.4490779,34.4457418 C49.2692058,34.4457418 51.422111,35.7453433 53.3147994,37.7121675 L58.1395607,34.2604022 Z" id="Shape"></path>
                                    <path d="M26.2010935,26.2018349 L16.5523121,0 L9.7236586,0 L0,26.2018349 L6.97692522,26.2018349 L8.27578538,22.0079696 L17.9253081,22.0079696 L19.2241683,26.2018349 L26.2010935,26.2018349 Z M16.4411083,17.294412 L9.79779446,17.294412 L13.0264109,6.23482532 L16.4411083,17.294412 Z M29.1702345,26.2018349 L35.7016032,26.2018349 L35.7016032,0 L29.1702345,0 L29.1702345,26.2018349 Z" id="Shape"></path>
                                </g>
                                <g id="Group" transform="translate(53.7707, 0)">
                                    <path d="M26.2292651,26.2300065 C11.7668427,26.2300065 0,14.4631637 0,0 L8.24761375,0 C8.24761375,9.91567047 16.314336,17.9823927 26.2292651,17.9823927 L26.2292651,26.2300065 Z" id="Path"></path>
                                </g>
                                <path d="M25.9015847,56.128255 L17.7577611,56.128255 C17.7577611,46.3363914 9.79186359,38.3704939 0,38.3704939 L0,30.2266704 C14.2822723,30.2266704 25.9015847,41.8459828 25.9015847,56.128255" id="Path"></path>
                            </g>
                        </g>
                    </g>
                </g>
            </g>
        </g>
    </g>
</svg>