<?xml version="1.0" encoding="UTF-8"?>
<svg width="130px" height="32px" viewBox="0 0 130 32" version="1.1" xmlns="http://www.w3.org/2000/svg" xmlns:xlink="http://www.w3.org/1999/xlink">
    <title>assets/network/timify</title>
    <g id="First-Draft" stroke="none" stroke-width="1" fill="none" fill-rule="evenodd">
        <g id="Team-Reinforcement" transform="translate(-554, -8483)" fill="#FFFFFF" fill-rule="nonzero">
            <g id="Group-28" transform="translate(240, 8176)">
                <g id="Group-26" transform="translate(0, 288)">
                    <g id="Group-19" transform="translate(0, 0)">
                        <g id="Group-18" transform="translate(32, 19.72)">
                            <g id="aleph-alpha" transform="translate(282, 0)">
                                <path d="M39.7609619,19.2861257 L37.3227014,19.2861257 L40.252358,10.8621931 L43.6827705,10.8621931 L46.6124271,19.2861257 L44.0103679,19.2861257 L42.6765786,15.1115991 L42.0120239,12.9120167 L41.8341853,12.9120167 L41.1462308,15.1115991 L39.7609619,19.2861257 Z M44.8902009,17.6621787 L39.0308878,17.6621787 L39.0308878,15.6029952 L44.8902009,15.6029952 L44.8902009,17.6621787 Z" id="Shape"></path>
                                <path d="M50.0241198,19.2861257 L47.6560588,19.2861257 L47.6560588,10.8621931 L50.0241198,10.8621931 L50.0241198,19.2861257 Z M54.245446,19.2861257 L48.3112535,19.2861257 L48.3112535,17.1614227 L54.245446,17.1614227 L54.245446,19.2861257 Z" id="Shape"></path>
                                <path d="M57.9660163,19.2861257 L55.5839153,19.2861257 L55.5839153,10.8621931 L57.9426165,10.8621931 L57.9660163,19.2861257 Z M62.4073007,12.9868961 L56.24847,12.9868961 L56.24847,10.8621931 L62.4073007,10.8621931 L62.4073007,12.9868961 Z M62.2247822,16.1177911 L56.24847,16.1177911 L56.24847,14.0071279 L62.2247822,14.0071279 L62.2247822,16.1177911 Z M62.4073007,19.2861257 L56.24847,19.2861257 L56.24847,17.1614227 L62.4073007,17.1614227 L62.4073007,19.2861257 Z" id="Shape"></path>
                                <path d="M75.1601987,19.2861257 L72.7921377,19.2861257 L72.7921377,10.8621931 L75.1601987,10.8621931 L75.1601987,19.2861257 Z M79.5546836,16.1177911 L73.4286126,16.1177911 L73.4286126,13.9930881 L79.5546836,13.9930881 L79.5546836,16.1177911 Z M80.7059544,19.2861257 L78.2957736,19.2861257 L78.2957736,10.8621931 L80.6638347,10.8621931 L80.7059544,19.2861257 Z" id="Shape"></path>
                                <path d="M87.2111023,19.2861257 L84.7728418,19.2861257 L87.7024984,10.8621931 L91.1375909,10.8621931 L94.0672475,19.2861257 L91.4792282,19.2861257 L90.1454388,15.1115991 L89.4808842,12.9120167 L89.2843257,12.9120167 L88.5870113,15.1115991 L87.2111023,19.2861257 Z M92.377781,17.6621787 L86.5137879,17.6621787 L86.5137879,15.6029952 L92.373101,15.6029952 L92.373101,17.6621787 L92.377781,17.6621787 Z" id="Shape"></path>
                                <path d="M97.4649003,19.2861257 L95.1436389,19.2861257 L95.1436389,10.8621931 L97.50234,10.8621931 L97.4649003,19.2861257 Z M101.695586,19.2861257 L95.7613939,19.2861257 L95.7613939,17.1614227 L101.695586,17.1614227 L101.695586,19.2861257 Z" id="Shape"></path>
                                <path d="M114.134927,19.2861257 L111.766866,19.2861257 L111.766866,10.8621931 L114.134927,10.8621931 L114.134927,19.2861257 Z M118.529412,16.1177911 L112.403341,16.1177911 L112.403341,13.9930881 L118.529412,13.9930881 L118.529412,16.1177911 Z M119.671323,19.2861257 L117.312621,19.2861257 L117.312621,10.8621931 L119.671323,10.8621931 L119.671323,19.2861257 Z" id="Shape"></path>
                                <path d="M123.148535,19.2861257 L120.710274,19.2861257 L123.639931,10.8621931 L127.070343,10.8621931 L130,19.2861257 L127.379221,19.2861257 L126.045432,15.1115991 L125.380877,12.9120167 L125.203038,12.9120167 L124.505724,15.1115991 L123.148535,19.2861257 Z M128.315213,17.6621787 L122.4559,17.6621787 L122.4559,15.6029952 L128.315213,15.6029952 L128.315213,17.6621787 Z" id="Shape"></path>
                                <path d="M1.77838577,5.56910865 L0,9.92147383 C1.54438764,10.529869 2.76117791,11.7466592 3.36957304,13.2910469 C4.63316293,16.4266218 3.13557492,19.9833933 0.0467996256,21.2469832 L1.8251854,25.5993484 C4.53956368,24.4761574 6.64554684,22.3701742 7.72193822,19.655796 C9.96832025,14.0866405 7.30074159,7.81549068 1.77838577,5.56910865 Z" id="Path"></path>
                                <path d="M6.36479588,27.2841349 L9.17277342,31.0749046 C10.5299626,30.0921125 11.7467528,28.8753222 12.7763446,27.5649327 L9.12597379,24.6634027 C8.33038016,25.6461948 7.39438764,26.5353409 6.36479588,27.2841349 Z" id="Path"></path>
                                <path d="M17.0351105,15.5842753 C17.0351105,9.500324 14.0867341,3.74399345 9.17277342,0.140421809 L6.36479588,3.93119195 C10.1087659,6.64559364 12.3083483,10.997912 12.355148,15.631075 C12.355148,21.7150263 15.2567247,27.4713802 20.1706854,31.0749514 L22.9318633,27.2841817 C19.2346929,24.5230038 17.0351105,20.2174851 17.0351105,15.5842753 Z" id="Path"></path>
                                <path d="M23.0722154,3.8375693 L20.3578371,0 C18.9070487,1.02959176 17.6434589,2.24638203 16.5202678,3.6503708 L20.1706386,6.55194758 C21.0130319,5.52235582 21.9490244,4.63316293 23.0722154,3.8375693 Z" id="Path"></path>
                                <path d="M26.2546368,18.2050544 C24.8038484,15.0694794 26.2078371,11.3255094 29.3434121,9.874721 L27.3778278,5.61595507 C24.9442472,6.73914609 23.0254626,8.70473036 21.9490712,11.1383109 C19.4686911,16.6606667 21.9490712,23.1658147 27.5182267,25.5993952 L29.4370113,21.3406293 C28.0330225,20.7322341 26.9098315,19.6090431 26.2546368,18.2050544 Z" id="Path"></path>
                                <polygon id="Path" points="66.4414285 19.2861257 64.0827273 19.2861257 64.0827273 10.8621931 66.4414285 10.8621931"></polygon>
                                <path d="M68.1964144,17.0537836 L65.00468,17.0537836 L65.00468,14.9478004 L68.1074951,14.9478004 C68.3929729,14.9758802 68.6784506,14.9103607 68.9264886,14.7652819 C69.2119663,14.2692058 69.2119663,13.6608107 68.9264886,13.1647347 C68.6784506,13.0196558 68.3929729,12.9588163 68.1074951,12.9868961 L65.00468,12.9868961 L65.00468,10.8668731 L68.1964144,10.8668731 C68.8001296,10.8528332 69.3991648,10.9791922 69.9467204,11.2319101 C70.4240766,11.4705882 70.8218734,11.8403053 71.0933113,12.2989416 C71.6361869,13.3519332 71.6361869,14.5968032 71.0933113,15.6497948 C70.8218734,16.1037512 70.4240766,16.4687882 69.9467204,16.6981064 C69.3944848,16.9414645 68.8001296,17.0537836 68.1964144,17.0257038 L68.1964144,17.0537836 Z" id="Path"></path>
                                <polygon id="Path" points="105.402117 19.2861257 103.034056 19.2861257 103.034056 10.8621931 105.402117 10.8621931"></polygon>
                                <path d="M107.026064,17.0537836 L103.834329,17.0537836 L103.834329,14.9478004 L106.937145,14.9478004 C107.222622,14.9758802 107.5081,14.9103607 107.756138,14.7652819 C108.041616,14.2692058 108.041616,13.6608107 107.756138,13.1647347 C107.5081,13.0196558 107.222622,12.9588163 106.937145,12.9868961 L103.834329,12.9868961 L103.834329,10.8668731 L107.026064,10.8668731 C107.629779,10.8528332 108.228814,10.9791922 108.77637,11.2319101 C109.253726,11.4705882 109.651523,11.8403053 109.922961,12.2989416 C110.465836,13.3519332 110.465836,14.5968032 109.922961,15.6497948 C109.651523,16.1037512 109.253726,16.4687882 108.77637,16.6981064 C108.224134,16.9414645 107.629779,17.0537836 107.026064,17.0257038 L107.026064,17.0537836 Z" id="Path"></path>
                            </g>
                        </g>
                    </g>
                </g>
            </g>
        </g>
    </g>
</svg>