<?xml version="1.0" encoding="UTF-8" standalone="no"?>
<!DOCTYPE svg PUBLIC "-//W3C//DTD SVG 1.1//EN" "http://www.w3.org/Graphics/SVG/1.1/DTD/svg11.dtd">
<svg width="100%" height="100%" viewBox="0 0 85 27" version="1.1" xmlns="http://www.w3.org/2000/svg" xmlns:xlink="http://www.w3.org/1999/xlink" xml:space="preserve" xmlns:serif="http://www.serif.com/" style="fill-rule:evenodd;clip-rule:evenodd;stroke-linejoin:round;stroke-miterlimit:2;">
    <path d="M75.291,13.813C75.291,10.845 77.489,9.123 80.237,9.123C82.289,9.123 84.121,10.112 85,12.567C84.744,13.813 83.205,15.205 82.545,15.425C81.996,14.252 81.373,13.556 80.787,13.556C80.054,13.556 80.017,14.069 80.017,14.728C80.017,15.195 80.151,15.883 80.312,16.711C80.555,17.962 80.86,19.531 80.86,21.14C80.86,24.071 78.808,26.233 75.657,26.233C72.772,26.233 71.178,24.341 70.467,21.32C68.582,24.697 65.826,26.233 63.713,26.233C60.411,26.233 59.634,23.792 59.712,21.316C58.385,23.661 55.831,26.233 53.382,26.233C50.881,26.233 49.998,24.056 50.2,21.522C48.702,24.312 45.992,26.233 43.379,26.233C40.544,26.233 39.141,23.981 39.595,21.189C37.688,23.533 34.137,26.233 30.446,26.233C26.237,26.233 24.405,23.963 24.188,21.119C22.157,24.375 19.419,26.343 16.157,26.343C11.449,26.343 9.765,22.156 9.52,18.732C7.775,21.068 5.814,23.492 3.407,26.196C3.151,26.453 2.931,26.599 2.675,26.599C1.832,26.599 0.11,22.862 0,21.47C0.723,20.348 5.281,15.34 8.951,11.308C10.241,9.891 11.421,8.594 12.286,7.629C10.039,8.307 7.722,9.66 4.8,11.761C4.287,12.127 2.858,8.793 2.894,6.228C6.265,3.737 11.394,2.162 15.535,2.162C21.323,2.162 24.657,5.386 24.657,9.856C24.657,13.593 21.543,17.696 17,17.843C14.638,17.904 13.124,16.578 12.349,14.941C12.442,17.473 13.759,20.591 17.293,20.591C21.146,20.591 22.997,18.265 25.756,14.796C25.935,14.57 26.118,14.34 26.306,14.106C28.651,11.211 31.362,8.647 35.319,8.647C37.737,8.647 39.386,10.149 39.386,12.42C39.386,15.168 36.162,18.978 31.655,18.978C30.886,18.978 30.184,18.877 29.592,18.677C29.577,18.792 29.567,18.906 29.567,19.015C29.567,20.297 30.043,21.067 32.132,21.067C35.209,21.067 38.103,19.235 41.621,14.948C45.065,10.735 47.666,8.903 50.414,8.903C52.269,8.903 53.676,9.908 54.297,11.601C57.98,6.283 61.104,2.514 63.75,0C66.351,1.099 68.22,3.261 67.707,3.7C65.765,5.459 59.28,12.53 56.716,16.744C56.056,17.843 55.433,19.052 55.433,19.638C55.433,20.188 55.763,20.371 56.129,20.371C57.89,20.371 61.418,16.215 64.465,12.625C65.603,11.285 66.674,10.023 67.56,9.086C69.612,9.929 71.7,11.724 71.188,12.347C68.476,15.571 66.425,18.209 66.425,19.711C66.425,20.114 66.571,20.371 67.121,20.371C68.147,20.371 69.099,19.455 70.675,17.513C71.004,17.11 71.407,17.11 71.664,17.733C72.36,19.418 73.386,20.334 74.192,20.334C75.144,20.334 75.621,19.491 75.621,18.209C75.621,17.333 75.514,16.314 75.422,15.437C75.352,14.773 75.291,14.191 75.291,13.813ZM16.194,13.336C18.136,13.336 20.261,12.274 20.261,10.112C20.261,8.8 19.447,7.591 17.271,7.223C17.156,7.402 17.042,7.58 16.929,7.757C15.823,9.486 14.78,11.116 13.728,12.71C14.359,13.064 15.156,13.336 16.194,13.336ZM35.832,13.996C35.832,13.41 35.466,13.007 34.879,13.007C33.409,13.007 31.192,15.069 30.149,17.061C30.534,17.21 30.986,17.293 31.472,17.293C34.073,17.293 35.832,15.315 35.832,13.996ZM45.468,19.308C45.468,19.968 45.834,20.407 46.603,20.407C48.985,20.407 51.953,16.084 51.953,14.325C51.953,13.593 51.55,13.153 50.89,13.153C48.728,13.153 45.468,17.257 45.468,19.308ZM76.06,6.082C75.217,7.474 73.935,9.05 73.459,9.526C71.26,8.61 69.209,6.778 69.502,6.265C70.308,4.836 71.627,3.298 72.103,2.821C74.301,3.737 76.353,5.606 76.06,6.082Z" style="fill:white;"/>
</svg>
