<?xml version="1.0" encoding="UTF-8"?>
<svg width="158px" height="21px" viewBox="0 0 158 21" version="1.1" xmlns="http://www.w3.org/2000/svg" xmlns:xlink="http://www.w3.org/1999/xlink">
    <title>assets/network/timify</title>
    <g id="First-Draft" stroke="none" stroke-width="1" fill="none" fill-rule="evenodd">
        <g id="Team-Reinforcement" transform="translate(-1015, -8483)" fill="#FFFFFF">
            <g id="Group-28" transform="translate(240, 8176)">
                <g id="Group-26" transform="translate(0, 288)">
                    <g id="Group-21" transform="translate(488, 0)">
                        <g id="Group-20" transform="translate(32, 19)">
                            <g id="auditboard" transform="translate(255, 0)">
                                <g id="Group" transform="translate(34.7775, 5.2035)">
                                    <path d="M5.412,0 C4.65,0 3.957,0.459 3.6705,1.1625 L0,10.086 L1.98,10.086 C2.5095,10.086 2.982,9.762 3.1665,9.273 L3.414,8.6265 L7.407,8.6265 L7.653,9.273 C7.839,9.762 8.316,10.086 8.8395,10.086 L10.821,10.086 L7.1505,1.1625 C6.8685,0.459 6.1755,0 5.412,0 Z M4.3275,6.24 L5.412,3.396 L6.498,6.24 L4.3275,6.24 Z" id="Shape"></path>
                                </g>
                                <g id="Group" transform="translate(120.672, 5.2005)">
                                    <path d="M7.155,1.161 C6.8685,0.4575 6.1755,0 5.412,0 C4.65,0 3.957,0.4575 3.6705,1.161 L0,10.0845 L1.9815,10.0845 C2.5095,10.0845 2.982,9.762 3.1665,9.2715 L3.414,8.625 L7.407,8.625 L7.653,9.2715 C7.839,9.762 8.316,10.0845 8.841,10.0845 L10.821,10.0845 L7.155,1.161 Z M4.3275,6.243 L5.412,3.399 L6.498,6.243 L4.3275,6.243 Z" id="Shape"></path>
                                </g>
                                <g id="Group" transform="translate(48.5685, 5.2035)">
                                    <path d="M4.6845,10.257 C7.446,10.257 9.3915,8.5005 9.3915,5.625 L9.3915,1.2585 C9.3915,0.564 8.823,0 8.121,0 L6.7665,0 L6.7665,5.4855 C6.7935,6.8265 6.255,7.7655 4.6845,7.7655 L4.707,7.7655 C3.1365,7.7655 2.6025,6.8265 2.625,5.4855 L2.625,1.2585 C2.625,0.564 2.055,0 1.3545,0 L0,0 L0,5.625 C0,8.5005 1.941,10.257 4.707,10.257 L4.6845,10.257 Z" id="Path"></path>
                                </g>
                                <g id="Group" transform="translate(62.301, 5.2005)">
                                    <path d="M2.6025,2.517 L4.539,2.517 C6.1845,2.517 6.882,3.534 6.882,5.037 C6.882,6.5415 6.1845,7.5585 4.539,7.5585 L2.6025,7.5585 L2.6025,2.517 Z M0,10.0935 L4.914,10.0935 C7.557,10.0935 9.5685,8.0175 9.5685,5.0415 L9.5685,5.0505 C9.5685,2.0745 7.557,0 4.914,0 L0,0 L0,10.0935 Z" id="Shape"></path>
                                </g>
                                <g id="Group" transform="translate(147.9315, 5.2005)">
                                    <path d="M2.6025,2.517 L4.539,2.517 C6.1845,2.517 6.882,3.534 6.882,5.037 C6.882,6.5415 6.1845,7.5585 4.539,7.5585 L2.6025,7.5585 L2.6025,2.517 Z M0,10.0935 L4.914,10.0935 C7.557,10.0935 9.5685,8.0175 9.5685,5.0415 L9.5685,5.0505 C9.5685,2.0745 7.557,0 4.914,0 L0,0 L0,10.0935 Z" id="Shape"></path>
                                </g>
                                <g id="Group" transform="translate(76.0485, 5.2875)">
                                    <path d="M2.6505,10.086 L1.428,10.086 C0.639,10.086 0,9.4515 0,8.67 L0,0 L1.221,0 C2.0115,0 2.6505,0.633 2.6505,1.416 L2.6505,10.086 Z" id="Path"></path>
                                </g>
                                <g id="Group" transform="translate(82.7535, 5.2875)">
                                    <path d="M7.6935,0 L0,0 L0,1.263 C0,1.9575 0.57,2.5215 1.2705,2.5215 L3.1545,2.5215 L3.1545,10.086 L5.8065,10.086 L5.8065,2.5215 L8.96102646,2.5215 L8.96102646,1.2585 C8.9655,0.564 8.3955,0 7.6935,0 Z" id="Path"></path>
                                </g>
                                <g id="Group" transform="translate(95.16, 5.2875)">
                                    <path d="M7.137,4.9035 C7.7625,4.5525 8.3985,3.8895 8.3985,2.784 C8.3985,1.0305 6.9555,0 5.3205,0 L0,0 L0,10.086 L5.769,10.086 C7.4235,10.086 8.8665,8.862 8.8665,7.35 C8.8665,6.126 8.169,5.2305 7.137,4.9035 Z M2.655,2.355 L4.9665,2.355 C5.487,2.355 5.7735,2.643 5.7735,3.1545 C5.7735,3.666 5.391,3.954 4.869,3.954 L2.655,3.954 L2.655,2.355 Z M5.223,7.7475 L2.655,7.7475 L2.655,5.9565 L5.2845,5.9565 C5.9685,5.9565 6.21,6.3495 6.21,6.852 C6.21,7.3545 5.9055,7.7475 5.223,7.7475 Z" id="Shape"></path>
                                </g>
                                <g id="Group" transform="translate(107.322, 5.1)">
                                    <path d="M10.8525,5.2305 C10.8525,8.118 8.421,10.461 5.427,10.461 C2.427,10.461 0,8.118 0,5.2305 C0,2.3415 2.43,0 5.427,0 C8.421,0 10.8525,2.3415 10.8525,5.2305 Z M5.4225,2.4765 C3.8955,2.4765 2.661,3.7095 2.661,5.2305 C2.661,6.7515 3.8955,7.983 5.4225,7.983 C6.948,7.983 8.184,6.7515 8.184,5.2305 C8.184,3.7095 6.948,2.4765 5.4225,2.4765 Z" id="Shape"></path>
                                </g>
                                <g id="Group" transform="translate(134.9085, 5.2875)">
                                    <path d="M6.7935,7.0665 C7.548,6.6765 8.835,5.7765 8.835,3.696 C8.835,1.32 7.1775,0 5.0145,0 L0,0 L0,10.086 L2.5935,10.086 L2.5935,7.3935 L3.948,7.3935 L5.514,9.561 C5.7525,9.8925 6.1365,10.086 6.546,10.086 L8.973,10.086 L6.7935,7.0665 Z M4.803,5.043 L2.5935,5.043 L2.5935,2.355 L4.857,2.355 C5.964,2.355 6.2865,2.958 6.2865,3.7005 C6.2865,4.44 5.907,5.043 4.803,5.043 Z" id="Shape"></path>
                                </g>
                                <g id="Group" transform="translate(4.4385, 0)">
                                    <path d="M2.3205,9.783 L5.466,12.9255 L6.4785,13.9365 C5.5785,13.008 5.025,11.742 5.025,10.3455 C5.025,7.488 7.3425,5.1735 10.2015,5.1735 C11.658,5.1735 12.9735,5.7765 13.9155,6.7425 C14.208,7.035 14.9385,7.7655 14.9385,7.7655 L18.0825,10.9065 C18.7365,11.559 19.5525,11.9595 20.403,12.111 C21.768,12.354 23.229,11.955 24.276,10.9065 L24.8415,10.341 L17.4585,2.967 C16.794,2.3145 16.0425,1.7505 15.219,1.296 C13.7325,0.471 12.0225,0 10.2015,0 C5.085,0 0.8385,3.708 6.66133815e-16,8.5785 C0.8505,8.73 1.6665,9.129 2.3205,9.783 Z" id="Path"></path>
                                </g>
                                <g id="Group" transform="translate(0, 6.7545)">
                                    <path d="M22.521,4.1535 L19.377,1.011 L18.366,0 C19.266,0.9285 19.8195,2.1945 19.8195,3.591 C19.8195,6.4485 17.5005,8.763 14.643,8.763 C13.1865,8.763 11.871,8.16 10.929,7.194 C10.6365,6.9015 9.9045,6.171 9.9045,6.171 L6.759,3.0285 C6.105,2.3745 5.289,1.9755 4.4385,1.824 C3.0735,1.581 1.6125,1.9815 0.5655,3.0285 L0,3.5925 L7.383,10.9695 C8.0475,11.622 8.799,12.186 9.6225,12.6405 C11.109,13.4655 12.819,13.9365 14.643,13.9365 C19.758,13.9365 24.0045,10.2285 24.8445,5.358 C23.991,5.2065 23.175,4.8075 22.521,4.1535 Z" id="Path"></path>
                                </g>
                            </g>
                        </g>
                    </g>
                </g>
            </g>
        </g>
    </g>
</svg>