<svg width="519" height="201" viewBox="0 0 519 201" fill="none" xmlns="http://www.w3.org/2000/svg">
<path fill-rule="evenodd" clip-rule="evenodd" d="M509.512 137.759C509.512 137.759 496.903 147.54 485.804 146.449C474.706 145.356 478.191 120.557 478.191 120.557C478.191 120.557 480.584 97.8129 474.047 95.9019C467.527 94.0069 459.479 101.829 459.479 101.829C459.479 101.829 449.473 112.927 444.686 127.078L443.369 127.511C443.369 127.511 444.895 102.696 443.16 97.0419C441.86 94.2149 429.893 94.4399 427.934 99.4349C425.974 104.447 416.402 139.253 415.743 153.837C415.743 153.837 397.031 169.722 380.728 172.324C364.41 174.942 360.491 164.71 360.491 164.71C360.491 164.71 404.869 152.31 403.343 116.846C401.833 81.3819 367.558 94.5039 363.687 97.4119C359.928 100.238 339.899 112.317 334.053 145.774C333.86 146.898 333.507 151.877 333.507 151.877C333.507 151.877 316.321 163.393 306.747 166.445C306.747 166.445 333.507 121.408 300.885 100.961C291.71 95.4379 283.713 100.52 278.956 105.185C276.035 108.05 318.505 61.5939 308.707 20.0259C304.05 0.237926 294.155 -1.88207 285.08 1.32993C271.3 6.75893 266.08 14.8059 266.08 14.8059C266.08 14.8059 248.235 40.6969 244.09 79.2139C239.963 117.714 233.876 164.277 233.876 164.277C233.876 164.277 225.379 172.549 217.556 172.982C209.719 173.4 213.204 149.692 213.204 149.692C213.204 149.692 219.291 113.586 218.874 107.482C218.424 101.395 217.99 98.1339 210.811 95.9659C203.631 93.7819 195.793 102.921 195.793 102.921C195.793 102.921 175.138 134.241 173.403 139.028L172.295 141.003L171.219 139.686C171.219 139.686 185.787 97.0419 171.877 96.3999C157.952 95.7409 148.812 111.626 148.812 111.626C148.812 111.626 132.927 138.176 132.269 141.212L131.193 139.912C131.193 139.912 137.713 109.024 136.413 101.395C135.096 93.7819 127.932 95.3079 127.932 95.3079C127.932 95.3079 118.792 94.2149 116.4 100.094C114.006 105.973 105.301 144.906 104.209 157.306C104.209 157.306 81.3691 173.625 66.3511 173.834C51.3491 174.058 52.8751 164.325 52.8751 164.325C52.8751 164.325 107.919 145.485 92.9011 108.285C86.1551 98.7129 78.3331 95.7089 67.2351 95.9179C56.1351 96.1429 42.3711 102.905 33.4571 122.918C29.1841 132.458 27.6421 141.533 26.7591 148.376C26.7591 148.376 17.1381 150.351 11.9181 145.998C6.68208 141.646 3.99908 145.998 3.99908 145.998C3.99908 145.998 -4.96292 157.434 3.95108 160.904C12.8811 164.389 26.7911 166.011 26.7911 166.011C28.0761 172.099 31.7861 182.459 42.6611 190.698C58.9791 203.098 90.2831 189.558 90.2831 189.558L103.117 182.362C103.117 182.362 103.55 194.136 112.914 195.854C122.262 197.573 126.181 195.822 142.5 156.23C152.073 135.992 152.731 137.084 152.731 137.084C153.808 136.859 146.419 175.584 149.246 186.024C152.073 196.481 164.473 195.388 164.473 195.388C164.473 195.388 171.219 196.689 176.663 177.544C182.093 158.398 192.549 137.293 192.549 137.293C193.834 137.293 189.272 176.885 196.227 189.51C203.197 202.134 221.251 193.75 221.251 193.75C221.251 193.75 233.876 187.39 235.835 185.43C235.835 185.43 250.805 198.183 271.925 195.87C319.147 186.57 335.948 174.01 335.948 174.01C335.948 174.01 344.059 194.57 369.196 196.48C397.898 198.649 413.575 180.596 413.575 180.596C413.575 180.596 413.35 192.336 423.356 196.481C433.379 200.609 440.109 177.367 440.109 177.367L456.861 131.206C458.387 131.206 459.254 161.225 475.798 166.011C492.326 170.798 513.864 154.801 513.864 154.801C513.864 154.801 519.084 151.925 518.217 143.22C517.334 134.514 509.512 137.759 509.512 137.759ZM73.7561 115.979C79.6181 121.633 77.4501 133.808 66.3511 141.421C55.2691 149.051 50.2571 147.524 50.2571 147.524C50.9161 121.633 67.8931 110.309 73.7561 115.979V115.979ZM290.22 26.5629C293.914 46.1429 257.808 104.447 257.808 104.447C258.241 91.3879 271.075 47.2349 271.075 47.2349C271.075 47.2349 286.51 6.98393 290.22 26.5629ZM254.531 175.151C254.531 175.151 251.704 165.578 259.751 138.819C267.814 112.059 286.735 122.5 286.735 122.5C286.735 122.5 299.793 132.507 289.562 159.266C279.346 186.024 254.531 175.151 254.531 175.151V175.151ZM364.618 122.725C373.533 106.406 380.503 115.32 380.503 115.32C380.503 115.32 388.117 123.592 379.411 135.992C370.706 148.392 358.097 147.524 358.097 147.524C358.097 147.524 355.704 139.028 364.618 122.725V122.725Z" fill="white"/>
<path fill-rule="evenodd" clip-rule="evenodd" d="M453.663 188.753V185.629H455.644C455.919 185.629 456.194 185.657 456.483 185.686C456.757 185.724 457.024 185.797 457.279 185.903C457.524 186.005 457.712 186.149 457.857 186.337C458.017 186.525 458.088 186.786 458.088 187.104C458.088 187.827 457.872 188.29 457.438 188.478C457.004 188.666 456.44 188.753 455.76 188.753H453.663ZM451.305 183.792V195.681H453.663V190.604H455.138L458.031 195.681H460.504L457.322 190.488C457.74 190.448 458.153 190.36 458.552 190.228C458.914 190.107 459.248 189.916 459.535 189.664C459.825 189.418 460.041 189.1 460.2 188.709C460.374 188.319 460.446 187.856 460.446 187.306C460.446 186.019 460.041 185.108 459.246 184.587C458.436 184.052 457.279 183.792 455.789 183.792H451.305V183.792ZM447.53 189.751C447.53 188.536 447.733 187.422 448.152 186.41C448.546 185.435 449.126 184.546 449.859 183.792C450.578 183.05 451.438 182.46 452.389 182.056C453.382 181.636 454.451 181.425 455.529 181.434C456.628 181.434 457.669 181.637 458.639 182.056C459.622 182.476 460.461 183.054 461.184 183.792C461.907 184.529 462.471 185.397 462.904 186.41C463.324 187.422 463.541 188.536 463.541 189.75C463.551 190.9 463.335 192.04 462.905 193.106C462.471 194.119 461.907 195.016 461.184 195.753C460.464 196.504 459.597 197.1 458.638 197.503C457.669 197.923 456.628 198.125 455.528 198.125C454.451 198.134 453.383 197.922 452.39 197.503C451.435 197.099 450.574 196.504 449.859 195.753C449.136 195.015 448.571 194.119 448.152 193.106C447.732 192.079 447.53 190.966 447.53 189.751ZM444.623 189.751C444.623 191.385 444.927 192.846 445.52 194.148C446.127 195.464 446.923 196.578 447.92 197.503C448.933 198.431 450.117 199.153 451.406 199.629C452.722 200.121 454.096 200.367 455.528 200.367C456.94 200.373 458.342 200.123 459.665 199.629C460.954 199.153 462.138 198.431 463.151 197.503C464.149 196.577 464.944 195.463 465.551 194.148C466.145 192.846 466.434 191.385 466.434 189.751C466.434 188.145 466.144 186.684 465.552 185.383C464.944 184.066 464.149 182.953 463.151 182.042C462.138 181.114 460.954 180.392 459.665 179.915C458.345 179.41 456.942 179.155 455.528 179.163C454.097 179.163 452.722 179.409 451.406 179.915C450.118 180.392 448.934 181.114 447.921 182.042C446.923 182.952 446.127 184.066 445.52 185.382C444.927 186.684 444.623 188.145 444.623 189.751V189.751Z" fill="white"/>
</svg>
