<?xml version="1.0" encoding="UTF-8"?>
<svg width="153px" height="29px" viewBox="0 0 153 29" version="1.1" xmlns="http://www.w3.org/2000/svg" xmlns:xlink="http://www.w3.org/1999/xlink">
    <title>experteer</title>
    <g id="First-Draft" stroke="none" stroke-width="1" fill="none" fill-rule="evenodd">
        <g id="Idea-to-Release-projects-" transform="translate(-1507, -7211)" fill="#FFFFFF">
            <g id="Group-28" transform="translate(240, 6904)">
                <g id="Group-26" transform="translate(0, 288)">
                    <g id="Group-25" transform="translate(976, 0)">
                        <g id="Group-23" transform="translate(32, 19)">
                            <g id="Shape" transform="translate(259, 0)">
                                <path d="M127.079205,8.03284768 C125.1777,9.35783263 124.680072,10.2681276 124.598146,13.663528 C124.598146,14.1601445 124.515208,16.3134979 124.515208,17.5555449 L124.515208,21.7783022 C124.515208,22.6885972 125.425503,22.9374112 126.169922,22.9374112 L126.914341,22.9374112 C127.079205,22.9374112 127.162143,23.1032872 127.162143,23.1862252 L127.162143,23.6009151 C127.162143,23.7657797 127.079205,23.8487176 126.914341,23.8487176 L119.302252,23.8487176 C119.137387,23.8487176 119.054449,23.7657797 119.054449,23.5999037 L119.054449,23.1862252 C119.054449,23.0203492 119.137387,22.9374112 119.302252,22.9374112 L119.551066,22.9374112 C120.378423,22.8544732 121.619458,22.7725467 121.619458,21.7783022 L121.619458,14.4089585 C121.619458,12.0897291 121.453582,7.70109573 127.079205,8.03284768 Z M109.126165,14.490885 L109.126165,14.573823 L114.917664,14.573823 L114.917664,14.1601445 C114.917664,11.6760506 114.422059,9.02608067 111.360433,9.02608067 C108.381746,9.02608067 107.719253,12.0907405 107.719253,14.490885 L107.719253,15.9817459 C107.719253,19.2112703 107.885129,23.1862252 112.18779,23.1862252 C114.999591,23.1862252 116.820181,21.7783022 117.068995,18.9634678 C117.068995,18.9634678 117.068995,18.7975918 117.233859,18.7975918 L117.896352,18.7975918 C118.227092,18.7975918 118.144154,19.1283323 118.144154,19.1283323 C118.061216,19.6259603 117.97929,20.2055148 117.813414,20.7021312 C116.738254,23.8477062 114.091318,24.2623961 111.525298,24.2623961 C106.396291,24.2623961 104.57469,20.3703793 104.57469,15.7339434 C104.57469,11.3442986 107.305575,8.11477423 111.85705,8.11477423 C116.324576,8.11477423 118.474895,10.9306201 118.474895,15.0714509 C118.474895,15.567056 118.392968,15.7339434 117.97929,15.7339434 L109.126165,15.7339434 C108.9613,15.7339434 108.878362,15.6510054 108.878362,15.4851294 L108.878362,14.739699 C108.878362,14.573823 108.9613,14.490885 109.126165,14.490885 Z M92.9107766,14.490885 L92.9107766,14.573823 L98.7842023,14.573823 L98.7842023,14.1601445 C98.7842023,11.6760506 98.2885972,9.02608067 95.2269717,9.02608067 C92.2482842,9.02608067 91.5857917,12.0907405 91.5857917,14.490885 L91.5857917,15.9817459 C91.5857917,19.2112703 91.7526791,23.1862252 96.0543287,23.1862252 C98.9500783,23.1862252 100.686719,21.7783022 100.935533,18.9634678 C100.935533,18.9634678 100.935533,18.7975918 101.101409,18.7975918 L101.76289,18.7975918 C102.09363,18.7975918 102.011704,19.1283323 102.011704,19.1283323 C101.845828,19.6259603 101.76289,20.2055148 101.597014,20.7021312 C100.521854,23.8477062 97.8749187,24.2623961 95.3099097,24.2623961 C90.1798916,24.2623961 88.3603131,20.3703793 88.3603131,15.7339434 C88.3603131,11.3442986 91.0911981,8.11477423 95.6406502,8.11477423 C100.108176,8.11477423 102.259506,10.9306201 102.259506,15.0714509 C102.259506,15.567056 102.176568,15.7339434 101.763901,15.7339434 L92.9107766,15.7339434 C92.7449007,15.7339434 92.6619627,15.6510054 92.6619627,15.4851294 L92.6619627,14.739699 C92.6619627,14.573823 92.8278387,14.490885 92.9107766,14.490885 Z M87.8636966,22.1929922 C87.9466346,22.2749187 87.8636966,22.3578567 88.0295725,22.3578567 C87.0363396,23.7657797 85.5475015,24.1794582 84.057652,24.1794582 C80.748224,24.1794582 80.3355569,22.5237327 80.3355569,19.7088983 L80.3355569,6.29216135 C80.3355569,5.79655629 80.748224,5.38186635 81.2458519,5.38186635 L82.32,5.38186635 C82.8166165,5.38186635 83.230295,5.79655629 83.230295,6.29216135 L83.230295,8.36561108 L86.705599,8.36561108 C86.8704636,8.36561108 86.9534016,8.44753763 86.9534016,8.61341361 L86.9534016,9.27590608 C86.9534016,9.44077062 86.8704636,9.52370861 86.705599,9.52370861 L83.230295,9.52370861 L83.230295,19.7088983 C83.230295,21.1168212 83.313233,22.9384226 85.133823,22.9384226 C85.878242,22.9384226 86.788537,22.2759302 87.2841421,21.6963757 C87.2841421,21.6963757 87.3670801,21.6134377 87.4500181,21.6963757 C87.4500181,21.7793137 87.7807586,22.1110656 87.8636966,22.1940036 L87.8636966,22.1929922 Z M74.1293679,8.03284768 C76.8602529,8.11477423 78.1012884,9.35783263 78.1012884,11.4272366 C78.1012884,12.6692836 77.7705479,12.8351595 76.6114389,12.8351595 C75.2884768,12.8351595 75.2055388,12.504419 75.1226008,11.5931126 C75.1226008,10.8476821 75.1226008,9.19195665 73.7167008,9.19195665 C72.1439133,9.19195665 71.3165563,10.4340036 71.3165563,13.6625166 L71.3165563,21.7793137 C71.3165563,22.6896087 72.2268513,22.9384226 72.9712703,22.9384226 L73.7156893,22.9384226 C73.8815653,22.9384226 73.9645033,23.1042986 73.9645033,23.1872366 L73.9645033,23.6019266 C73.9645033,23.7667911 73.8815653,23.8497291 73.7156893,23.8497291 L66.0216737,23.8497291 C65.8568092,23.8497291 65.7738712,23.7667911 65.7738712,23.6009151 L65.7738712,23.1872366 C65.7738712,23.0213606 65.8568092,22.9384226 66.0216737,22.9384226 L66.2704877,22.9384226 C67.0978447,22.8554846 68.3388802,22.7735581 68.3388802,21.7793137 L68.3388802,14.4099699 C68.3388802,11.677062 68.4208067,7.86798314 74.1293679,8.03385912 L74.1293679,8.03284768 Z M55.3489705,14.490885 L55.3489705,14.573823 L61.3063456,14.573823 L61.3063456,14.1601445 C61.3063456,11.6760506 60.8097291,9.02608067 57.7481036,9.02608067 C54.7704275,9.02608067 54.107935,12.0907405 54.107935,14.490885 L54.107935,15.9817459 C54.107935,19.2112703 54.3567489,23.1862252 58.5754606,23.1862252 C61.3882721,23.1862252 63.2088621,21.7783022 63.4566647,18.9634678 C63.4566647,18.9634678 63.5396026,18.7975918 63.7054786,18.7975918 L64.2840217,18.7975918 C64.5328356,18.7975918 64.4498977,19.1283323 64.4498977,19.1283323 C64.3669597,19.6259603 64.2840217,20.2055148 64.1191571,20.7021312 C63.0429862,23.8477062 60.3960506,24.2623961 57.8310415,24.2623961 C52.7020349,24.2623961 50.8824564,20.3703793 50.8824564,15.7339434 C50.8824564,11.3442986 53.5293919,8.11477423 58.0798555,8.11477423 C62.5473811,8.11477423 64.6977002,10.9306201 64.6977002,15.0714509 C64.6977002,15.567056 64.6157736,15.7339434 64.2020951,15.7339434 L55.3489705,15.7339434 C55.184106,15.7339434 55.101168,15.6510054 55.101168,15.4851294 L55.101168,14.739699 C55.101168,14.573823 55.184106,14.490885 55.3489705,14.490885 Z M37.9754846,22.6066707 L38.5540277,22.0271162 C38.6369657,21.9441782 38.7199037,21.9441782 38.8018302,22.0271162 L38.9677062,22.1929922 C39.4633113,22.6885972 40.2916797,22.9374112 41.2019747,22.9374112 C45.0899458,22.9374112 45.2558218,18.7975918 45.2558218,15.8168814 C45.2558218,12.9180975 45.0899458,8.94314269 41.2839013,8.94314269 C38.3881517,8.94314269 37.3129922,11.1784226 37.3129922,13.7474774 L37.3129922,26.2498736 C37.3129922,27.244118 38.3062252,27.4089825 39.1335822,27.4089825 L39.7121252,27.4089825 C39.8780012,27.4089825 39.9609392,27.4919205 39.9609392,27.6577965 L39.9609392,28.0724865 C39.9609392,28.237351 39.7950632,28.320289 39.7121252,28.320289 L32.1010476,28.320289 C31.9351716,28.320289 31.8522336,28.237351 31.8522336,28.071475 L31.8522336,27.6577965 C31.8522336,27.4919205 31.9351716,27.4089825 32.1010476,27.4089825 L32.2659121,27.4089825 C33.0932691,27.3280674 34.4172426,27.4089825 34.4172426,26.2498736 L34.4172426,8.61240217 C34.4931005,8.17444913 34.883516,7.85584588 35.3275376,7.8669717 L36.3207706,7.8669717 C36.8163757,7.8669717 37.2310656,8.28166165 37.2310656,8.77726671 L37.2310656,10.4340036 L37.3959302,10.4340036 C38.3881517,8.52946418 40.2087417,7.94990969 42.2771343,7.94990969 C47.0754004,7.94990969 48.4823119,11.7589886 48.4823119,15.8998194 C48.4823119,20.7021312 46.7446598,24.0975316 41.4497772,24.0975316 C40.2087417,24.0975316 39.1335822,23.7657797 38.2232872,23.0203492 C38.1403492,23.0203492 38.1403492,23.0203492 38.0574112,22.9374112 C37.8096087,22.7725467 37.8925467,22.6896087 37.9754846,22.6066707 Z M31.8522336,22.9374112 C32.0181096,22.9374112 32.1010476,23.0203492 32.0181096,23.2691632 L32.0181096,23.6838531 C32.0181096,23.8487176 31.9351716,23.9316556 31.770307,23.9316556 L24.4070319,23.9316556 C24.2411559,23.9316556 24.1582179,23.8487176 24.1582179,23.6828417 L24.1582179,23.2681517 C24.1582179,23.1032872 24.3240939,23.0203492 24.4070319,23.0203492 L25.4821915,23.0203492 C25.729994,23.0203492 25.9777965,22.8544732 25.9777965,22.6056592 C25.9777965,22.2749187 25.729994,22.0271162 25.5651294,21.7783022 L22.6693799,17.3077423 L19.6906924,21.7783022 C19.4428898,22.1929922 19.3599518,22.4407947 19.3599518,22.6076821 C19.3599518,22.9374112 19.6077544,23.0223721 19.8555569,23.1032872 L21.0146659,23.1032872 C21.1795304,23.1032872 21.2624684,23.2691632 21.2624684,23.3521011 L21.2624684,23.7667911 C21.2624684,23.9316556 21.0976039,24.0145936 21.0146659,24.0145936 L15.2221553,24.0145936 C15.0562793,24.0145936 14.9743528,23.9316556 14.9743528,23.7657797 L14.9743528,23.3510897 C14.9743528,23.1862252 15.0562793,23.1032872 15.2221553,23.1032872 L16.1324503,23.1032872 C17.1246719,23.0203492 17.4554124,22.6885972 18.1179049,21.7783022 L21.9239494,16.1476219 L18.3657074,10.3520771 C17.8701023,9.44178206 17.5383504,9.27489464 16.7109934,9.27489464 L15.7187718,9.27489464 C15.5528958,9.27489464 15.4699579,9.19195665 15.4699579,9.02608067 L15.4699579,8.61139073 C15.4699579,8.44652619 15.5528958,8.3635882 15.7187718,8.3635882 L23.826466,8.3635882 C23.992342,8.3635882 24.0742685,8.44652619 24.0742685,8.61240217 L24.0742685,9.02709211 C24.0742685,9.19195665 23.992342,9.27489464 23.826466,9.27489464 L22.833233,9.27489464 C22.5024925,9.27489464 22.088814,9.27489464 22.005876,9.35682119 C21.7580734,9.43975918 21.7580734,9.68857315 21.7580734,9.77151114 C21.7580734,9.93738712 21.9239494,10.1022517 22.005876,10.2681276 L24.570885,14.573823 L27.4666346,10.2681276 C27.5495725,10.1851896 27.7144371,9.93738712 27.7144371,9.68857315 C27.7144371,9.35682119 27.5495725,9.19296809 27.3007586,9.19296809 L25.9777965,9.19296809 C25.8119205,9.19296809 25.7289825,9.10901866 25.7289825,8.94314269 L25.7289825,8.52845274 C25.7289825,8.3635882 25.8119205,8.28065021 25.9777965,8.28065021 L31.5204816,8.28065021 C31.6034196,8.28065021 31.6863576,8.3635882 31.6863576,8.52946418 L31.6863576,8.94415412 C31.6863576,9.10901866 31.5204816,9.19195665 31.4375436,9.19195665 L31.0238651,9.19195665 C29.8657676,9.27489464 29.5350271,9.52269717 28.7906081,10.5169416 L25.315304,15.6510054 L29.1213486,21.3656352 C29.2872246,21.6124262 29.4520891,21.8612402 29.6169536,22.0271162 C30.1965081,22.7725467 30.9419386,22.9374112 31.4375436,22.9374112 L31.8522336,22.9374112 Z M4.46752559,14.4918964 L4.46752559,14.4089585 L10.4249007,14.4089585 L10.4249007,13.9942685 C10.4249007,11.5101746 9.92828417,8.8602047 6.86665864,8.8602047 C3.88898254,8.8602047 3.22649007,11.9248645 3.22649007,14.3260205 L3.22649007,15.81587 C3.22649007,19.0453943 3.39236604,23.0203492 7.69401565,23.0203492 C10.5068272,23.0203492 12.3274172,21.6124262 12.5752197,18.7975918 C12.5752197,18.7975918 12.5752197,18.6317158 12.7410957,18.6317158 L13.4025768,18.6317158 C13.7343287,18.6317158 13.6513907,18.9634678 13.6513907,18.9634678 C13.4855148,19.5430223 13.4025768,20.1225768 13.2367008,20.6191933 C12.1615412,23.7657797 9.51460566,24.1794582 6.94959663,24.1794582 C1.82059001,24.1794582 0,20.2874413 0,15.6510054 C0,11.2613606 2.64794702,8.03284768 7.19739916,8.11578567 C11.6659362,8.11578567 13.8162553,10.9306201 13.8162553,15.0714509 C13.8162553,15.567056 13.7343287,15.7339434 13.3206502,15.7339434 L4.46752559,15.7339434 C4.30266105,15.7339434 4.21972306,15.6510054 4.21972306,15.4851294 L4.21972306,14.739699 C4.21972306,14.573823 4.30266105,14.490885 4.46752559,14.490885 L4.46752559,14.4918964 Z"></path>
                                <path d="M146.357231,6.87272727 L150.32814,6.87272727 L150.32814,6.62492474 C150.32814,5.13406382 149.997399,3.39540036 147.929007,3.39540036 C145.943552,3.39540036 145.446936,5.38287778 145.446936,6.87272727 L145.446936,7.78403371 C145.446936,9.85444913 145.6118,12.421481 148.50755,12.421481 C150.411078,12.421481 151.652113,11.511186 151.816978,9.68857315 C151.816978,9.68857315 151.899916,9.60563516 151.982854,9.60563516 L152.396532,9.60563516 C152.644335,9.60563516 152.561397,9.77151114 152.561397,9.77151114 C152.47947,10.1022517 152.47947,10.4340036 152.313594,10.7647441 C151.569175,12.8351595 149.748585,13.0839735 148.010933,13.0839735 C144.453703,13.0839735 143.212667,10.5998796 143.212667,7.61815774 C143.212667,4.8033233 145.033257,2.73290789 148.176809,2.73290789 C151.238435,2.73290789 152.727273,4.63744732 152.727273,7.20346779 C152.727273,7.45228176 152.644335,7.61815774 152.396532,7.61815774 L146.357231,7.61815774 C146.268224,7.6120891 146.197423,7.54128838 146.191355,7.45228176 L146.191355,7.03961469 C146.191355,6.9566767 146.274293,6.87373871 146.357231,6.87373871 L146.357231,6.87272727 Z M138.662203,11.677062 L138.828079,11.8419266 C138.992944,12.0067911 138.992944,12.0067911 138.579266,12.3375316 C137.917784,12.8351595 137.090427,13.0839735 136.180132,13.0839735 C133.202456,13.0839735 131.961421,10.7647441 131.961421,8.11477423 C131.961421,5.38388922 133.03658,2.81483444 136.180132,2.81483444 C137.421168,2.81483444 138.662203,3.14658639 139.406623,4.22275738 L139.406623,0.579554485 C139.406623,0.57550873 139.406623,0.570451535 139.406623,0.56640578 C139.406623,0.25589404 139.662517,0 139.973028,0 C139.977074,0 139.982131,0 139.986177,0 L140.730596,0 C140.734642,0 140.739699,0 140.743745,0 C141.054256,0 141.310151,0.25589404 141.310151,0.56640578 C141.310151,0.570451535 141.310151,0.57550873 141.310151,0.579554485 L141.310151,11.594124 C141.310151,12.338543 142.551186,12.338543 142.964865,12.338543 C143.047803,12.338543 143.129729,12.421481 143.129729,12.504419 L143.129729,12.7522216 C143.12366,12.8402167 143.05286,12.9120289 142.964865,12.9180975 L139.572498,12.9180975 C139.483492,12.9120289 139.412691,12.8412282 139.406623,12.7522216 L139.406623,7.28741722 C139.406623,5.46682721 138.828079,3.47833835 136.594822,3.47833835 C134.11174,3.47833835 134.029813,6.37611078 134.029813,8.19771222 C134.029813,9.85444913 134.443492,12.421481 136.593811,12.421481 C137.256303,12.421481 137.751908,12.1726671 138.165587,11.9238531 C138.414401,11.6760506 138.580277,11.5931126 138.662203,11.6760506 L138.662203,11.677062 Z M129.065671,8.3635882 C130.057893,8.52946418 130.554509,9.93738712 130.554509,11.5101746 C130.554509,12.7522216 130.223769,12.9180975 129.065671,12.9180975 C127.9895,12.9180975 127.659771,12.7522216 127.659771,11.5101746 C127.659771,9.93738712 127.9895,8.52946418 129.065671,8.36459964 L129.065671,8.3635882 Z"></path>
                            </g>
                        </g>
                    </g>
                </g>
            </g>
        </g>
    </g>
</svg>