<?xml version="1.0" encoding="UTF-8"?>
<svg width="98px" height="31px" viewBox="0 0 98 31" version="1.1" xmlns="http://www.w3.org/2000/svg" xmlns:xlink="http://www.w3.org/1999/xlink">
    <title>Logo - white</title>
    <g id="OG-images" stroke="none" stroke-width="1" fill="none" fill-rule="evenodd">
        <g id="cs-gravity-og-image" transform="translate(-440, -21)" fill="#FFFFFF">
            <g id="Logo---white" transform="translate(440, 21)">
                <path d="M36.7916384,14.3062329 C36.4130633,14.2472523 36.0344883,14.217762 35.6851846,14.217762 C33.0644306,14.217762 31.870163,15.7433932 31.870163,18.4132478 L31.870163,25.2205906 L28.492259,25.2205906 L28.492259,10.9325433 L31.7823492,10.9325433 L31.7823492,13.2209901 C32.4526612,11.6658686 34.0255038,10.7556016 35.8891077,10.7556016 C36.296954,10.7556016 36.6462578,10.8145822 36.7916384,10.8440725 L36.7916384,14.3062329 Z M47.1574714,19.2936314 L47.1574714,18.6487769 L43.459535,19.2051605 C42.410648,19.3821022 41.5666598,19.9689591 41.5666598,21.1426728 C41.5666598,22.1099544 42.2945386,22.9907312 43.6341868,22.9907312 C45.527062,22.9907312 47.1574714,22.0814471 47.1574714,19.2936314 M42.4691905,17.0346749 L46.1095602,16.4773083 C46.924277,16.3603302 47.1574714,15.9494321 47.1574714,15.4500631 C47.1574714,14.2478421 46.3417789,13.2795775 44.478175,13.2795775 C42.7023849,13.2795775 41.7120404,14.4238009 41.5666598,15.8609612 L38.4795171,15.1571262 C38.7419828,12.6927207 40.9548904,10.4917617 44.4489037,10.4917617 C48.8171522,10.4917617 50.4778086,12.9856576 50.4778086,15.8314709 L50.4778086,22.9317506 C50.4778086,24.2224424 50.6231892,25.0737289 50.6524605,25.2201974 L47.5067752,25.2201974 C47.4775039,25.1327095 47.3613946,24.5458527 47.3613946,23.4006462 C46.6910826,24.4868721 45.2938676,25.6605857 42.9931461,25.6605857 C40.0230885,25.6605857 38.1877801,23.6070783 38.1877801,21.3471388 C38.1877801,18.7952454 40.0523597,17.3865924 42.4691905,17.0346749 M60.2731447,25.2202957 L56.8952407,25.2202957 L51.1288015,10.9322484 L54.856985,10.9322484 L58.613464,21.1417881 L62.2821292,10.9322484 L65.8356608,10.9322484 L60.2731447,25.2202957 Z M67.3699629,25.2199025 L70.7185956,25.2199025 L70.7185956,10.9318552 L67.3699629,10.9318552 L67.3699629,25.2199025 Z M69.0296436,3.68510708 C70.2531825,3.68510708 71.243527,4.68286202 71.243527,5.91555629 C71.243527,7.14726755 70.2531825,8.11553219 69.0296436,8.11553219 C67.835376,8.11553219 66.8460073,7.14726755 66.8460073,5.91555629 C66.8460073,4.68286202 67.835376,3.68510708 69.0296436,3.68510708 L69.0296436,3.68510708 Z M78.606421,10.9320518 L81.5481831,10.9320518 L81.5481831,13.9538239 L78.606421,13.9538239 L78.606421,20.5842249 C78.606421,21.8464095 79.1596479,22.3742857 80.412458,22.3742857 C80.8778711,22.3742857 81.431098,22.2858149 81.5764786,22.2573076 L81.5764786,25.0736306 C81.3725555,25.1621015 80.7324905,25.3960578 79.5089516,25.3960578 C76.8881977,25.3960578 75.2577882,23.811446 75.2577882,21.1425745 L75.2577882,13.9538239 L72.6370343,13.9538239 L72.6370343,10.9320518 L73.3649131,10.9320518 C74.8792132,10.9320518 75.5485495,9.96378719 75.5485495,8.70258563 L75.5485495,6.56060731 L78.606421,6.56060731 L78.606421,10.9320518 Z M85.3616435,31 L88.7688187,23.5183125 L82.7116183,10.9318552 L86.5266398,10.9318552 L90.6031513,19.9686642 L94.4181729,10.9318552 L98,10.9318552 L88.9727419,31 L85.3616435,31 Z M12.5163929,0.000196601957 L12.5163929,3.355209 C7.45148835,3.355209 3.33009425,7.50744234 3.33009425,12.6102461 C3.33009425,17.7140329 7.45148835,21.8652833 12.5163929,21.8652833 L12.5163929,25.2202957 C5.61520433,25.2202957 0,19.5630743 0,12.6102461 C0,5.65741792 5.61520433,0.000196601957 12.5163929,0.000196601957 Z M12.5163929,4.67411323 L12.5163929,8.02912563 C10.0088212,8.02912563 7.96861404,10.0845991 7.96861404,12.6109342 C7.96861404,15.1362864 10.0088212,17.1917598 12.5163929,17.1917598 L12.5163929,20.5467722 C8.17253718,20.5467722 4.63851979,16.9863108 4.63851979,12.6109342 C4.63851979,8.23457467 8.17253718,4.67411323 12.5163929,4.67411323 Z M26.3441385,10.9332314 L26.3441385,12.6102461 C26.3441385,19.5630743 20.7289341,25.2202957 13.8277456,25.2202957 L13.8277456,21.8652833 C18.3247876,21.8652833 22.0773638,18.5938267 22.8628094,14.2882438 L13.8277456,14.2882438 L13.8277456,10.9332314 L26.3441385,10.9332314 Z M21.1144367,15.6148155 C19.9367561,18.5048643 17.1159819,20.5465756 13.8278431,20.5465756 L13.8278431,17.1915632 C15.1938355,17.1915632 16.4183501,16.5791481 17.2525811,15.6148155 Z M13.8203302,4.67362173 C15.8234604,4.67362173 17.6480359,5.43742033 19.0393967,6.68191072 L16.6830599,9.05489634 C15.9015171,8.41495697 14.9053184,8.02863412 13.8203302,8.02863412 Z M13.820818,3.55271368e-15 C17.1021268,3.55271368e-15 20.0916987,1.28086175 22.3260719,3.37074056 L19.9716865,5.74274317 C18.3422528,4.26036441 16.1839848,3.3550124 13.820818,3.3550124 Z" id="Logo---blue"></path>
            </g>
        </g>
    </g>
</svg>