<?xml version="1.0" encoding="UTF-8"?>
<svg width="32px" height="31px" viewBox="0 0 32 31" version="1.1" xmlns="http://www.w3.org/2000/svg" xmlns:xlink="http://www.w3.org/1999/xlink">
    <title>Logo icon - blue</title>
    <g id="Page-1" stroke="none" stroke-width="1" fill="none" fill-rule="evenodd">
        <path d="M15.1984771,0.000240995947 L15.1984771,4.11283684 C9.04823586,4.11283684 4.04368587,9.20267125 4.04368587,15.4577211 C4.04368587,21.7139759 9.04823586,26.8026053 15.1984771,26.8026053 L15.1984771,30.9152011 C6.8184624,30.9152011 0,23.9805427 0,15.4577211 C0,6.93489938 6.8184624,0.000240995947 15.1984771,0.000240995947 Z M15.1984771,5.72955815 L15.1984771,9.842154 C12.1535686,9.842154 9.67617419,12.3617666 9.67617419,15.4585646 C9.67617419,18.5541575 12.1535686,21.0737701 15.1984771,21.0737701 L15.1984771,25.186366 C9.92379515,25.186366 5.63248832,20.8219294 5.63248832,15.4585646 C5.63248832,10.0939948 9.92379515,5.72955815 15.1984771,5.72955815 Z M31.989311,13.4020256 L31.989311,15.4577211 C31.989311,23.9805427 25.1708486,30.9152011 16.7908339,30.9152011 L16.7908339,26.8026053 C22.2515278,26.8026053 26.8082274,22.7924327 27.7619828,17.5146215 L16.7908339,17.5146215 L16.7908339,13.4020256 L31.989311,13.4020256 Z M25.6389589,19.1407416 C24.2089182,22.6833821 20.7836923,25.186125 16.7909524,25.186125 L16.7909524,21.0735291 C18.4496574,21.0735291 19.936568,20.3228268 20.9495628,19.1407416 Z M16.7818295,5.72895566 C19.2142019,5.72895566 21.4297579,6.66522492 23.1192675,8.19072927 L20.2580013,11.0995504 C19.3089851,10.3151085 18.0993152,9.84155151 16.7818295,9.84155151 Z M16.7824219,0 C20.7668683,0 24.3970627,1.5700886 27.1102302,4.13187552 L24.2513336,7.03949163 C22.2727355,5.22238218 19.6519816,4.11259584 16.7824219,4.11259584 Z" id="Logo-icon---blue" fill="#FFFFFF"></path>
    </g>
</svg>