<?xml version="1.0" encoding="UTF-8" standalone="no"?>
<!DOCTYPE svg PUBLIC "-//W3C//DTD SVG 1.1//EN" "http://www.w3.org/Graphics/SVG/1.1/DTD/svg11.dtd">
<svg width="100%" height="100%" viewBox="0 0 601 99" version="1.1" xmlns="http://www.w3.org/2000/svg" xmlns:xlink="http://www.w3.org/1999/xlink" xml:space="preserve" xmlns:serif="http://www.serif.com/" style="fill-rule:evenodd;clip-rule:evenodd;stroke-linejoin:round;stroke-miterlimit:2;">
    <g transform="matrix(1,0,0,1,-4.9e-05,-0.000391)">
        <g transform="matrix(1,0,0,1,-0.699951,-0.599609)">
            <rect x="197.5" y="3.3" width="10.1" height="92.9" style="fill:white;"/>
        </g>
        <g transform="matrix(1,0,0,1,-0.699951,-0.599609)">
            <path d="M207.6,45.4L247.6,3.3L259.9,3.3L220,45L263.9,96.2L250.5,96.2L207.6,45.4Z" style="fill:white;fill-rule:nonzero;"/>
        </g>
        <g transform="matrix(1,0,0,1,-0.699951,-0.599609)">
            <rect x="268.3" y="3.3" width="10.1" height="92.9" style="fill:white;"/>
        </g>
        <g transform="matrix(1,0,0,1,-0.699951,-0.599609)">
            <path d="M330.3,44.7C336.1,47.2 341.2,50.9 344.5,55.2C347.4,59.6 349.2,64.3 349.2,70.1C349.2,78.8 346.3,86.1 340.9,91.2C335.5,96.3 328.2,98.8 319.5,98.8C312.2,98.8 306.1,97 301.4,93.4C296.7,89.8 293.1,84.7 291.2,77.8L301,74.5C302.5,80.3 304.3,82.8 307.5,85.8C310.4,88.7 314.8,90.2 319.5,90.2C324.9,90.2 329.7,88.4 333.3,85.5C336.6,82.2 338.7,78.2 338.7,72.4C338.7,68.4 338,65.1 335.4,61.9C333.2,59 329.6,55.7 324.1,53.2L312.8,48.5C306.6,46 301.9,43.1 299,38.7C296.1,34.7 294.3,30 294.3,24.2C294.3,17.7 296.5,11.9 301.6,7.5C306.3,3.1 313.2,0.6 320.8,0.6C326.2,0.6 331,1.7 335,4.2C339,6.7 342.3,10 344.4,14.7L335.3,20.5C335.3,20.5 332,15.4 328.4,12.9C326.2,11.4 322.6,10 319.3,10C314.9,10 311.3,11.5 308,14.4C305.5,16.9 304.7,20.6 304.7,24.6C304.7,27.9 306.2,30.8 308.3,33.3C310.1,35.8 314.1,38 318.1,39.8L330.3,44.7Z" style="fill:white;fill-rule:nonzero;"/>
        </g>
        <g transform="matrix(1,0,0,1,-0.699951,-0.599609)">
            <path d="M581.9,44.999C587.7,47.499 592.8,51.199 596.1,55.499C599,59.899 600.8,64.599 600.8,70.399C600.8,79.099 597.9,86.399 592.5,91.499C587.1,96.599 579.8,99.099 571.1,99.099C563.8,99.099 557.7,97.299 553,93.699C548.3,90.099 544.7,84.999 542.8,78.099L552.6,74.799C554.1,80.599 556.2,83.099 559.1,86.099C562,89.099 566.4,90.499 571.1,90.499C576.5,90.499 581.3,88.699 584.9,85.799C588.2,82.499 590.3,78.499 590.3,72.699C590.3,68.699 589.6,65.399 587,62.199C584.8,59.299 581.2,55.999 575.7,53.499L564.4,48.799C558.2,46.299 553.5,43.399 550.6,38.999C547.7,34.999 545.9,30.299 545.9,24.499C545.9,17.999 548.1,12.199 553.2,7.799C557.9,3.399 564.8,0.899 572.4,0.899C577.8,0.899 582.6,1.999 586.6,4.499C590.6,6.999 593.9,10.299 596,14.999L587.3,20.399C587.3,20.399 584,15.299 580.4,12.799C578.2,11.299 574.6,9.899 571.3,9.899C566.9,9.899 563.3,11.399 560,14.299C557.5,16.799 556.7,20.499 556.7,24.499C556.7,27.799 558.2,30.699 560.3,33.199C562.1,35.699 566.1,37.899 570.1,39.699L581.9,44.999Z" style="fill:white;fill-rule:nonzero;"/>
        </g>
        <g transform="matrix(1,0,0,1,-0.699951,-0.599609)">
            <path d="M349.6,3.3L413.1,3.3L413.1,13.5L386.6,13.5L386.6,96.6L376.1,96.6L376.1,13.5L349.6,13.5L349.6,3.3Z" style="fill:white;fill-rule:nonzero;"/>
        </g>
        <g transform="matrix(1,0,0,1,-0.699951,-0.599609)">
            <path d="M421.1,3.3L469.7,3.3L469.7,13.1L431.6,13.1L431.6,40.3L469.7,40.3L469.7,50.1L431.6,50.1L431.6,86.8L469.7,86.8L469.7,96.6L421.1,96.6L421.1,3.3Z" style="fill:white;fill-rule:nonzero;"/>
        </g>
        <g transform="matrix(1,0,0,1,-0.699951,-0.599609)">
            <path d="M506.7,11.999C521.2,11.999 524.5,23.299 524.5,28.299C524.5,33.399 522,43.899 504.2,43.899L493.3,43.899L493.3,11.999L506.7,11.999ZM493.3,96.599L493.3,51.999L495.5,51.999L529.6,96.599L543,96.599L507.4,51.999L510.3,51.999C526.3,51.999 534.6,40.399 535,29.099C535,23.299 532.1,3.699 505.2,3.699L483.1,3.699L483.1,96.599L493.3,96.599Z" style="fill:white;fill-rule:nonzero;"/>
        </g>
        <g transform="matrix(1,0,0,1,-0.699951,-0.599609)">
            <path d="M73.3,2.899L108.9,2.899L36.3,96.899L0.7,96.899L73.3,2.899Z" style="fill:white;fill-rule:nonzero;"/>
        </g>
        <g transform="matrix(1,0,0,1,-0.699951,-0.599609)">
            <path d="M116.9,2.899L152.8,2.899L116.9,49.399L153.6,96.899L117.6,96.899L81,49.399L116.9,2.899Z" style="fill:white;fill-rule:nonzero;"/>
        </g>
    </g>
</svg>
