<?xml version="1.0" encoding="UTF-8"?>
<svg width="165px" height="26px" viewBox="0 0 165 26" version="1.1" xmlns="http://www.w3.org/2000/svg" xmlns:xlink="http://www.w3.org/1999/xlink">
    <title>logo</title>
    <g id="First-Draft" stroke="none" stroke-width="1" fill="none" fill-rule="evenodd">
        <g id="logo" fill="#FFFFFF" fill-rule="nonzero">
            <path d="M1.469,8.854 L1.52,11.102 C2.032,10.267 2.67,9.642 3.437,9.224 C4.204,8.807 5.055,8.598 5.992,8.598 C8.172,8.598 9.557,9.492 10.145,11.281 C10.6101066,10.4494822 11.2951288,9.76203821 12.125,9.294 C12.9600772,8.82763153 13.9025757,8.58769774 14.859,8.598 C17.824,8.598 19.336,10.216 19.395,13.453 L19.395,22.678 L17.862,22.678 L17.862,13.568 C17.854,12.333 17.587,11.418 17.063,10.821 C16.54,10.225 15.686,9.927 14.502,9.927 C13.402,9.944 12.474,10.299 11.716,10.994 C10.958,11.688 10.536,12.534 10.451,13.53 L10.451,22.678 L8.918,22.678 L8.918,13.453 C8.91,12.269 8.631,11.385 8.081,10.802 C7.532,10.218 6.687,9.927 5.545,9.927 C4.583,9.927 3.756,10.201 3.066,10.751 C2.376,11.301 1.866,12.116 1.533,13.198 L1.533,22.678 L0,22.678 L0,8.854 L1.47,8.854 L1.469,8.854 Z M22.423,15.561 C22.423,14.233 22.681,13.036 23.196,11.971 C23.712,10.906 24.44,10.078 25.381,9.486 C26.322,8.894 27.389,8.598 28.581,8.598 C30.421,8.598 31.912,9.243 33.054,10.534 C34.195,11.824 34.766,13.534 34.766,15.664 L34.766,15.983 C34.766,17.32 34.508,18.523 33.993,19.593 C33.477,20.661 32.751,21.486 31.814,22.065 C30.877,22.644 29.808,22.934 28.607,22.934 C26.776,22.934 25.287,22.288 24.142,20.998 C22.996,19.708 22.423,17.998 22.423,15.868 L22.423,15.561 L22.423,15.561 Z M23.957,15.983 C23.957,17.635 24.385,18.992 25.241,20.053 C26.097,21.113 27.219,21.643 28.607,21.643 C29.987,21.643 31.105,21.113 31.961,20.053 C32.817,18.992 33.245,17.593 33.245,15.855 L33.245,15.561 C33.245,14.505 33.049,13.538 32.658,12.661 C32.266,11.784 31.716,11.104 31.009,10.623 C30.302,10.142 29.493,9.901 28.582,9.901 C27.219,9.901 26.107,10.436 25.247,11.505 C24.387,12.574 23.957,13.973 23.957,15.702 L23.957,15.983 L23.957,15.983 Z M49.05,15.906 C49.05,18.061 48.573,19.771 47.62,21.036 C46.665,22.301 45.383,22.934 43.773,22.934 C41.848,22.934 40.392,22.218 39.403,20.787 L39.34,22.678 L37.909,22.678 L37.909,3.053 L39.429,3.053 L39.429,10.859 C40.4,9.352 41.839,8.598 43.748,8.598 C45.383,8.598 46.676,9.222 47.626,10.47 C48.576,11.718 49.05,13.453 49.05,15.676 L49.05,15.906 L49.05,15.906 Z M47.517,15.638 C47.517,13.815 47.164,12.408 46.457,11.415 C45.75,10.423 44.753,9.927 43.467,9.927 C42.487,9.927 41.657,10.167 40.975,10.649 C40.294,11.129 39.779,11.835 39.429,12.763 L39.429,18.998 C40.196,20.736 41.55,21.605 43.492,21.605 C44.753,21.605 45.739,21.107 46.45,20.11 C47.161,19.113 47.517,17.623 47.517,15.638 L47.517,15.638 Z M54.136,22.678 L52.602,22.678 L52.602,8.854 L54.136,8.854 L54.136,22.678 L54.136,22.678 Z M52.334,4.854 C52.334,4.564 52.428,4.32 52.615,4.12 C52.802,3.92 53.058,3.82 53.382,3.82 C53.705,3.82 53.963,3.92 54.155,4.12 C54.346,4.32 54.442,4.565 54.442,4.854 C54.4494678,5.12592093 54.3458373,5.3891498 54.155,5.583 C53.963,5.779 53.705,5.876 53.382,5.876 C53.058,5.876 52.802,5.779 52.615,5.583 C52.4276241,5.38734911 52.3264213,5.12479802 52.334,4.854 L52.334,4.854 Z M58.147,21.758 C58.147,21.46 58.243,21.207 58.435,20.998 C58.627,20.789 58.893,20.685 59.233,20.685 C59.574,20.685 59.843,20.789 60.038,20.998 C60.234,21.207 60.332,21.46 60.332,21.758 C60.3413413,22.0333764 60.2346792,22.3000317 60.038,22.493 C59.842,22.684 59.574,22.78 59.233,22.78 C58.893,22.78 58.627,22.684 58.435,22.493 C58.2417604,22.2981919 58.137547,22.0322305 58.147,21.758 L58.147,21.758 Z M68.624,4.075 L73.991,18.334 L79.344,4.075 L83.522,4.075 L83.522,22.678 L80.302,22.678 L80.302,16.545 L80.622,8.342 L75.128,22.678 L72.815,22.678 L67.334,8.355 L67.654,16.545 L67.654,22.678 L64.434,22.678 L64.434,4.075 L68.624,4.075 Z M98.217,14.373 L90.577,14.373 L90.577,20.097 L99.507,20.097 L99.507,22.678 L87.343,22.678 L87.343,4.075 L99.417,4.075 L99.417,6.681 L90.575,6.681 L90.575,11.818 L98.215,11.818 L98.215,14.373 L98.217,14.373 Z M102.139,22.678 L102.139,4.075 L107.633,4.075 C109.277,4.075 110.736,4.441 112.009,5.174 C113.283,5.906 114.269,6.945 114.967,8.291 C115.666,9.637 116.015,11.179 116.015,12.917 L116.015,13.849 C116.015,15.612 115.663,17.163 114.961,18.5 C114.288893,19.8057463 113.243565,20.8820547 111.958,21.592 C110.659,22.316 109.171,22.678 107.493,22.678 L102.139,22.678 L102.139,22.678 Z M105.372,6.681 L105.372,20.097 L107.48,20.097 C109.175,20.097 110.476,19.567 111.383,18.507 C112.29,17.446 112.753,15.923 112.769,13.939 L112.769,12.904 C112.769,10.885 112.331,9.344 111.453,8.279 C110.576,7.214 109.303,6.681 107.633,6.681 L105.372,6.681 L105.372,6.681 Z" id="mobi.MED"></path>
            <path d="M161.727,17.837 C160.549,17.837 159.503,18.579 159.11,19.625 L156.799,19.625 C156.711,19.625 156.581,19.582 156.537,19.495 L154.574,12.429 C154.574,12.342 154.531,12.299 154.487,12.255 C154.182,11.645 153.571,11.339 152.917,11.383 C152.279637,11.419894 151.736262,11.8579694 151.565,12.473 L148.076,22.329 L142.843,1.178 C142.658729,0.485774839 142.033326,0.00299281927 141.317,0 C140.575,0 139.965,0.48 139.79,1.178 L135.167,18.622 C134.993,19.189 134.47,19.582 133.903,19.582 L126.358,19.582 C125.791,19.582 125.311,20.062 125.311,20.628 C125.311,21.195 125.791,21.675 126.358,21.675 L133.903,21.675 C135.453915,21.681761 136.814754,20.6428586 137.217,19.145 L141.36,3.663 L146.506,24.423 C146.637,25.163 147.204,25.687 147.946,25.731 L148.076,25.731 C148.774,25.731 149.385,25.295 149.559,24.597 L153.049,14.697 L154.531,20.105 C154.531,20.192 154.574,20.235 154.618,20.279 C155.054,21.108 155.883,21.631 156.798,21.631 L159.11,21.631 C159.546,22.678 160.55,23.419 161.727,23.419 C162.479122,23.4203296 163.200837,23.1222073 163.732762,22.5904696 C164.264687,22.0587318 164.563064,21.3371226 164.562003,20.585 C164.562003,19.102 163.297,17.837 161.727,17.837 L161.727,17.837 Z" id="Shape"></path>
        </g>
    </g>
</svg>