<svg height="88" width="172" xmlns="http://www.w3.org/2000/svg"><path d="M.026 28.006c.352-.054.524.286.742.49l6.059 6.372c.003-2.22 0-4.44.001-6.66h1.81c-.008 3.606.013 7.21-.01 10.817a.868.868 0 0 1-.384-.237c-2.137-2.264-4.292-4.512-6.434-6.773-.003 2.255 0 4.51-.002 6.766H.003c.017-3.592-.03-7.184.023-10.775zm70.823.097c1.644-.257 3.412.25 4.603 1.428 1.793 1.828 2.078 4.936.667 7.068-.856 1.264-2.246 2.214-3.795 2.307-1.645.213-3.405-.327-4.554-1.542-1.788-1.897-1.957-5.069-.426-7.166.804-1.152 2.12-1.915 3.505-2.095zm-.137 1.684a3.205 3.205 0 0 0-1.665 1.135c-1.21 1.616-1.11 4.177.394 5.58 1.294 1.237 3.638 1.13 4.75-.302 1.29-1.644 1.19-4.326-.377-5.76-.833-.751-2.036-.958-3.102-.653zM13.168 28.21c2.154 0 4.309-.002 6.464 0v1.656h-4.655v2.749h4.204v1.62h-4.204v2.925h4.655v1.62c-2.155.002-4.31 0-6.464 0zm17.102 2.006c.79-.997 1.913-1.73 3.162-1.993 1.725-.437 3.61-.048 5.097.903-.272.482-.55.963-.823 1.445-1.08-.703-2.428-1.015-3.703-.802-1.039.203-2.016.857-2.484 1.821-.438.835-.528 1.819-.373 2.74.24 1.24 1.133 2.372 2.341 2.788 1.131.44 2.422.286 3.483-.273-.002-.693 0-1.388 0-2.082H34.5v-1.585c1.41 0 2.82-.002 4.232 0 0 1.55-.002 3.1 0 4.65-.852.517-1.785.936-2.777 1.078-1.468.143-3.048.007-4.299-.843-1.312-.789-2.212-2.192-2.422-3.703-.228-1.447.142-2.98 1.036-4.144zm25.757-1.9c1.474-.08 2.985-.365 4.436.038.895.201 1.772.722 2.192 1.562.342.637.31 1.43.022 2.079-.307.66-.974 1.036-1.608 1.322.507.158 1.004.385 1.405.737.656.622.852 1.621.63 2.477-.29 1.022-1.2 1.77-2.192 2.068-1.581.527-3.266.199-4.885.076v-10.36zm1.782 5.765c-.007 1.063-.004 2.126-.001 3.19.7.083 1.413.104 2.11-.021.546-.142 1.107-.493 1.262-1.07.216-.644-.028-1.44-.643-1.77-.831-.444-1.815-.436-2.728-.329zm-.002-4.288c.004.983-.01 1.967.008 2.949.912-.015 1.977.166 2.735-.46.705-.556.63-1.773-.123-2.252-.78-.49-1.755-.324-2.62-.237zM80.58 28.21h1.807c.004 2.183-.011 4.367.007 6.549.01.844.285 1.801 1.07 2.238 1 .554 2.432.46 3.212-.428.63-.783.57-1.847.568-2.794-.002-1.855-.002-3.71-.002-5.565h1.806c.002 2.179.003 4.357 0 6.536 0 1.13-.328 2.32-1.164 3.12-1.034 1.01-2.603 1.227-3.981 1.034-1.135-.14-2.24-.768-2.78-1.8-.56-.963-.557-2.111-.543-3.19zm12.9.105c1.915-.162 4.05-.509 5.778.556 1.516.936 1.774 3.232.688 4.587-.344.5-.874.82-1.403 1.095.924 1.41 1.854 2.816 2.775 4.229h-2.102c-.769-1.269-1.54-2.536-2.308-3.805-.541.003-1.083.003-1.623-.032v3.837H93.48V28.314zm1.807 1.517c-.002 1.211-.002 2.422 0 3.634.872.041 1.834.116 2.615-.354.994-.628 1.083-2.324.062-2.967-.798-.507-1.785-.382-2.677-.313zm25.988-1.669c1.644-.342 3.456.022 4.74 1.132 2.161 1.892 2.442 5.552.584 7.745-.865 1.061-2.149 1.803-3.53 1.873-1.58.19-3.247-.322-4.388-1.445-1.985-1.994-2.096-5.522-.234-7.634.718-.86 1.747-1.421 2.828-1.67zm.323 1.603c-1.062.255-1.916 1.1-2.284 2.113-.543 1.482-.342 3.309.776 4.477 1.21 1.317 3.524 1.34 4.753.034 1.431-1.55 1.429-4.237-.024-5.772-.819-.855-2.089-1.16-3.221-.852zm13.379-1.525c1.682-.444 3.59-.162 4.961.949 2.104 1.712 2.538 5.06 1.094 7.324-.827 1.269-2.185 2.239-3.717 2.378-1.629.241-3.378-.237-4.568-1.397-2.028-1.993-2.132-5.568-.243-7.69.635-.769 1.537-1.254 2.473-1.564zm.577 1.55c-1.084.295-1.925 1.216-2.245 2.277-.455 1.448-.23 3.189.857 4.305 1.12 1.208 3.195 1.321 4.448.254 1.055-.884 1.426-2.358 1.276-3.686-.121-1.127-.695-2.261-1.701-2.836-.772-.514-1.764-.543-2.635-.315zm10.35-1.477c1.881-.186 3.842-.365 5.668.243 1.435.466 2.705 1.548 3.214 2.992.584 1.668.388 3.642-.645 5.095-.8 1.11-2.077 1.817-3.405 2.073-1.596.287-3.23.151-4.832-.007zm1.806 1.514v7.37c1.367.124 2.896.182 4.072-.647 1.008-.71 1.415-2.002 1.39-3.192.003-1.102-.443-2.276-1.4-2.89-1.18-.793-2.7-.821-4.062-.64zM23.87 38.81c.034-3.537.018-7.073.007-10.61.61.03 1.222.02 1.833.011-.02 3.528-.022 7.056-.003 10.584-.613-.003-1.225-.019-1.837.015zm19.15-10.6h1.805v4.405c1.625 0 3.247-.002 4.871 0v-4.406h1.806c.002 3.524 0 7.048 0 10.572h-1.806v-4.546h-4.87v4.546H43.02zm61.784 10.572V28.209h1.806v4.405h4.871v-4.405h1.806V38.78h-1.806v-4.545h-4.87v4.546zm54.394.02c.01-3.532.005-7.063.002-10.594.602.016 1.206.009 1.81.01-.002 3.524-.002 7.048 0 10.572-.604.002-1.21-.007-1.812.012zm6.34-10.592H172v1.656h-4.654v2.749c1.402 0 2.804-.002 4.207 0v1.62h-4.207v2.925H172v1.62h-6.461zm-83.07 21.754c.821-.792 2.028-.988 3.126-.903.76.048 1.468.358 2.13.715-.197.538-.389 1.08-.58 1.62-.848-.611-2-1.006-3.014-.591-.748.28-.997 1.354-.426 1.922 1.078 1.011 2.757 1.163 3.678 2.377 1.071 1.363.488 3.586-1.032 4.364-1.665.867-3.729.471-5.243-.531.206-.539.413-1.077.617-1.617.935.672 2.12 1.081 3.275.925.956-.143 1.413-1.397.822-2.143-.741-.87-1.96-1.022-2.867-1.655-.492-.352-.97-.785-1.183-1.367-.423-1.05-.158-2.356.696-3.116zm12.868-.792c1.666-.368 3.51.05 4.79 1.196 1.956 1.795 2.308 5.057.831 7.25-.891 1.237-2.285 2.166-3.828 2.291-1.742.229-3.62-.423-4.738-1.801-1.613-1.968-1.66-5.052-.085-7.057.733-.975 1.853-1.61 3.03-1.879zm.309 1.599c-.972.237-1.777.964-2.181 1.869a4.643 4.643 0 0 0-.003 3.718c.382.832 1.081 1.541 1.962 1.826 1.312.416 2.906.008 3.718-1.142 1.067-1.493 1.052-3.707-.072-5.168-.782-1.019-2.195-1.444-3.424-1.103zm19.238-1.558h8.528v1.621h-3.354v8.951h-1.806v-8.916h-3.368zm11.132 0l1.992-.001c.64 2.22 1.274 4.44 1.907 6.662.808-1.837 1.598-3.682 2.4-5.52.201-.452.362-.924.634-1.341.098.14.185.285.261.438.932 2.13 1.87 4.256 2.807 6.385.632-2.208 1.253-4.418 1.885-6.624.654.003 1.307.001 1.962.001-1.126 3.58-2.219 7.17-3.366 10.741l-.26.047c-1.13-2.44-2.196-4.911-3.31-7.36-1.059 2.376-2.093 4.76-3.145 7.139-.003.248-.351.303-.402.062-1.13-3.54-2.243-7.086-3.365-10.629zm15.103 10.574c1.63-3.582 3.268-7.16 4.895-10.742l.283.117c1.632 3.533 3.226 7.084 4.842 10.625-.639-.003-1.276.001-1.913-.005-.337-.8-.686-1.594-1.027-2.393-1.394.001-2.79-.001-4.184.001-.343.8-.688 1.597-1.03 2.395-.624 0-1.245 0-1.866.002zm4.994-7.366a851.115 851.115 0 0 0-1.503 3.522l3.004.001c-.5-1.174-1.002-2.347-1.501-3.523zm8.248-3.102c1.7-.155 3.495-.409 5.13.217 1.029.382 1.84 1.324 1.959 2.429.242 1.47-.616 3.036-2.023 3.562.925 1.418 1.843 2.84 2.769 4.258-.708-.004-1.414.013-2.12-.012-.74-1.278-1.533-2.524-2.286-3.792-.543.003-1.084.003-1.624-.033v3.837h-1.805V49.318zm1.806 1.517l-.001 3.591c.874.082 1.837.164 2.62-.311.995-.632 1.078-2.336.05-2.975-.8-.501-1.776-.386-2.669-.305zm-50.397-1.62c2.154-.006 4.308-.001 6.462-.003v1.621h-4.655v3.101h4.091v1.586h-4.09l-.001 4.264h-1.806c-.001-3.524.001-7.046-.001-10.57zm59.77-.003H172v1.621h-4.654v2.784h4.207v1.586h-4.207v2.925H172v1.656h-6.461z"/></svg>