<?xml version="1.0" encoding="UTF-8"?>
<svg width="157px" height="18px" viewBox="0 0 157 18" version="1.1" xmlns="http://www.w3.org/2000/svg" xmlns:xlink="http://www.w3.org/1999/xlink">
    <title>poellath</title>
    <g id="First-Draft" stroke="none" stroke-width="1" fill="none" fill-rule="evenodd">
        <g id="Idea-to-Release-projects-" transform="translate(-1015, -7211)" fill="#FFFFFF">
            <g id="Group-28" transform="translate(240, 6904)">
                <g id="Group-26" transform="translate(0, 288)">
                    <g id="Group-21" transform="translate(488, 0)">
                        <g id="Group-20" transform="translate(32, 19)">
                            <g id="poellath" transform="translate(255, 0)">
                                <path d="M90.7191252,0.538621505 L83.3372035,17.2060622 L85.2250104,17.2060622 L87.1680831,12.8312976 L97.0518755,12.8312976 L98.9949482,17.2060622 L100.881878,17.2060622 L93.4999561,0.538621505 L90.7191252,0.538621505 Z M92.1095407,1.70095618 L96.348334,11.2478908 L87.8698701,11.2478908 L92.1095407,1.70095618 Z" id="Shape"></path>
                                <g id="Group" transform="translate(0, 0.4518)">
                                    <path d="M0,16.4595363 L1.7404317,16.4595363 L1.7404317,10.5566306 L8.82233953,10.5566306 C12.4935627,10.5566306 14.5576936,8.37056416 14.5576936,5.24410318 C14.5576936,1.76411701 12.1409147,0 9.5837784,0 L0,0 L0,16.4595363 Z M1.7404317,1.56410772 L9.34341636,1.56410772 C11.3101744,1.56410772 12.7067304,2.77469026 12.7067304,5.24410318 C12.7067304,7.14770036 11.8777446,9.01182201 8.98725947,9.01182201 L1.74130894,9.01182201 L1.74130894,1.56323049 L1.7404317,1.56410772 Z" id="Shape"></path>
                                </g>
                                <path d="M55.7341672,16.8709589 L67.9338566,16.8709589 L67.9338566,15.3068512 L57.4745989,15.3068512 L57.4745989,0.411422615 L55.73329,0.411422615 L55.7341672,16.8709589 Z M70.1646619,16.8709589 L82.3643513,16.8709589 L82.3643513,15.3068512 L71.9050936,15.3068512 L71.9050936,0.411422615 L70.1637847,0.411422615 L70.1646619,16.8709589 Z M107.174275,16.8709589 L108.903303,16.8709589 L108.903303,1.97465311 L115.760639,1.97465311 L115.760639,0.411422615 L100.293254,0.411422615 L100.293254,1.97465311 L107.174275,1.97465311 L107.174275,16.8709589 Z" id="Shape"></path>
                                <g id="Group" transform="translate(16.6157, 0)">
                                    <path d="M1.82376891,8.65303342 C1.82376891,3.69227673 5.32919485,1.62288238 8.97673267,1.62288238 C12.6251477,1.62288238 16.1068883,3.69227673 16.1068883,8.65303342 C16.1068883,13.5664195 12.6242705,15.7305551 8.97673267,15.7305551 C5.32919485,15.7305551 1.82376891,13.5664195 1.82376891,8.65303342 M0,8.65303342 C0,14.4813743 4.23967057,17.2823815 8.97673267,17.2823815 C13.6874777,17.2823815 17.9771506,14.484006 18.0017132,8.65303342 C18.0017132,2.82469258 13.6909867,0 8.97673267,0 C4.23967057,0 0,2.82206088 0,8.65303342" id="Shape"></path>
                                </g>
                                <path d="M38.2789706,16.8709589 L51.4602845,16.8709589 L51.4602845,15.3191325 L40.0202796,15.3191325 L40.0202796,9.42324463 L50.2997043,9.42324463 L50.2997043,7.85738244 L40.0202796,7.85738244 L40.0202796,1.97377587 L51.4602845,1.97377587 L51.4602845,0.409668148 L38.2789706,0.409668148 L38.2789706,16.8709589 Z M118.556383,16.8709589 L120.297692,16.8709589 L120.297692,9.4223674 L131.629797,9.4223674 L131.629797,16.8709589 L133.371106,16.8709589 L133.371106,0.411422615 L131.632429,0.411422615 L131.632429,7.85738244 L120.299446,7.85738244 L120.299446,0.411422615 L118.559015,0.411422615 L118.556383,16.8709589 Z" id="Shape"></path>
                                <polygon id="Path" points="156.923077 7.85738244 149.503434 7.85738244 149.503434 0.411422615 147.762125 0.411422615 147.762125 7.85738244 140.342482 7.85738244 140.342482 9.42149016 147.762125 9.42149016 147.762125 16.8718362 149.503434 16.8718362 149.503434 9.42324463 156.923077 9.42324463"></polygon>
                            </g>
                        </g>
                    </g>
                </g>
            </g>
        </g>
    </g>
</svg>