<svg viewBox="0 0 85 25" height="41" width="139.4" xmlns="http://www.w3.org/2000/svg">
  <path d="m43.604 23.495h3.2197v-9.0909c0-2.1818 1.5638-3.9091 3.5876-3.9091s3.7717 1.6364 3.7717 3.9091v9.0909h3.4956v-9.2727c0-3.9091-3.2197-6.9091-6.7153-6.9091-1.2879 0-2.9438 0.45454-4.1396 2.0909v-1.7273h-3.2197v15.818z" fill="#ffffff"></path>
  <path d="m76.537 7.3135c-4.6915 0-8.3712 3.7272-8.3712 8.3636 0 4.7273 3.5877 8.1818 8.3712 8.1818 4.7836 0 8.4632-3.4545 8.4632-8.1818 0-4.6364-3.5876-8.3636-8.4632-8.3636zm0 13.273c-2.6677 0-4.7835-2.1818-4.7835-4.9091 0-2.9091 2.2078-5 4.7835-5 2.7598 0 4.9676 2.0909 4.9676 5 0 2.7273-2.1158 4.9091-4.9676 4.9091z" fill="#ffffff"></path>
  <path d="m67.614 23.495v-3.3636c-2.3918 1.1818-4.6916 0.2727-4.6916-2.3636v-6.9091h4.3236v-3.1818h-4.3236v-4.0909h-3.4036v13.636c0 5.6364 3.8636 7.5455 8.0952 6.2727z" fill="#ffffff"></path>
  <path d="m33.301 7.3135c-4.6916 0-8.3712 3.7272-8.3712 8.3636 0 4.7273 3.5877 8.1818 8.3712 8.1818 4.7836 0 8.4632-3.4545 8.4632-8.1818 0-4.6364-3.5877-8.3636-8.4632-8.3636zm0 13.273c-2.6677 0-4.7835-2.1818-4.7835-4.9091 0-2.9091 2.1158-5 4.7835-5 2.7597 0 4.9675 2.0909 4.9675 5 0 2.7273-2.2078 4.9091-4.9675 4.9091z" fill="#ffffff"></path>
  <path d="m11.683 0.4043c-6.6234 0-11.683 5-11.683 11.818 0 6.5454 5.0595 11.727 11.683 11.727 6.8074 0 11.867-5.1819 11.867-11.636 0-6.9091-5.0595-11.909-11.867-11.909zm0 20c-4.5996 0-8.0032-3.4545-8.0032-8.1818 0-4.9091 3.4037-8.5455 8.0032-8.5455 4.6916 0 8.0952 3.6364 8.0952 8.4546 0 4.8182-3.4036 8.2727-8.0952 8.2727z" fill="#ffffff"></path>
  <path d="m22.998 24.405c-6.6234-0.7273-10.855-4-12.971-10.182l3.3117-1.0909c1.6558 4.9091 4.7835 7.3637 10.027 7.9091l-0.3679 3.3637z" fill="#ffffff"></path>
</svg>