
<svg width="100px" height="34px" viewBox="0 0 100 34" version="1.1" xmlns="http://www.w3.org/2000/svg" xmlns:xlink="http://www.w3.org/1999/xlink">
    <title>rail-europe</title>
    <g id="First-Draft" stroke="none" stroke-width="1" fill="none" fill-rule="evenodd">
        <g id="rail-europe" fill="#FFFFFF">
            <g id="Group" transform="translate(0, 0.2939)">
                <g transform="translate(0, -0)" id="Path">
                    <path d="M9.40555367,10.3319424 C9.40555367,4.6272213 14.0299972,6.16790446e-17 19.7374961,6.16790446e-17 L10.3266646,6.16790446e-17 C4.62194352,6.16790446e-17 0,4.62444352 0,10.3266646 L0,29.6774941 L9.40805367,29.6774941 L9.40805367,10.3319424 L9.40555367,10.3319424 Z"></path>
                </g>
            </g>
            <g id="Group" transform="translate(14.4722, 20.1981)">
                <g transform="translate(-0, 0)" id="Path">
                    <path d="M5.26249895,0.756944293 L1.97372943e-15,0.756944293 L3.47305486,9.77333138 L13.429164,9.77333138 L9.14860928,0 C7.94944285,0.486944347 6.63638756,0.756944293 5.26249895,0.756944293 Z"></path>
                </g>
            </g>
            <g id="Group" transform="translate(9.4028, 0.2939)">
                <g transform="translate(-0, 0)" id="Path">
                    <path d="M20.6638848,10.3319424 C20.6638848,4.6272213 16.0394412,6.16790446e-17 10.3319424,6.16790446e-17 C4.6272213,6.16790446e-17 1.97372943e-15,4.62444352 1.97372943e-15,10.3319424 L1.97372943e-15,20.6638848 L10.3319424,20.6638848 C11.705831,20.6638848 13.0188863,20.3938848 14.2180527,19.9066627 C17.9983297,18.3713852 20.6638848,14.6627748 20.6638848,10.3319424 Z"></path>
                </g>
            </g>
            <g id="Group" transform="translate(33.3467, 1.2706)">
                <g transform="translate(-0, 0)" id="Shape">
                    <path d="M8.10833171,13.0930529 L4.16138806,8.59805384 L3.22416602,8.59805384 L3.22416602,13.0930529 L0,13.0930529 L0,4.93432357e-16 L6.62583201,4.93432357e-16 C8.04472061,4.93432357e-16 9.18555372,0.394444366 10.0458313,1.1833331 C10.9063867,1.97222183 11.3349977,3.00472162 11.3349977,4.2805547 C11.3349977,5.34999893 11.0280533,6.24999875 10.4166646,6.98610971 C9.80499804,7.7219429 8.96333154,8.20638725 7.89638731,8.44194276 L11.999442,13.0930529 L8.10833171,13.0930529 Z M6.27110986,5.90055438 C6.84555419,5.90055438 7.30333187,5.75777663 7.64749847,5.47194335 C7.99166507,5.1858323 8.16638726,4.80222126 8.16638726,4.31777691 C8.16638726,3.83333257 7.99444285,3.47055486 7.64749847,3.18472159 C7.30083187,2.89861053 6.84277641,2.75583278 6.27110986,2.75583278 L3.22138824,2.75583278 L3.22138824,5.90333215 L6.27110986,5.90333215 L6.27110986,5.90055438 Z"></path>
                </g>
            </g>
            <g id="Shape" transform="translate(45.5183, 4.2594)">
                <path d="M10.96472,10.1041646 L7.83833177,10.1041646 L7.83833177,9.32333147 C7.04416526,10.0405535 6.02749879,10.3980535 4.78861015,10.3980535 C3.45972153,10.3980535 2.32944398,9.91360913 1.3977775,8.94194266 C0.46583324,7.97055396 -7.89491771e-15,6.72360977 -7.89491771e-15,5.19888785 C-7.89491771e-15,3.67416593 0.46583324,2.44333284 1.3977775,1.4663886 C2.32944398,0.489722124 3.45972153,9.86864713e-16 4.78861015,9.86864713e-16 C6.02749879,9.86864713e-16 7.04138748,0.357222151 7.83833177,1.07472201 L7.83833177,0.293611052 L10.96472,0.293611052 L10.96472,10.1041646 Z M7.12360969,7.02555415 C7.59999848,6.54888758 7.83555399,5.94027659 7.83555399,5.19888785 C7.83555399,4.45777689 7.59749848,3.86472145 7.12360969,3.3802771 C6.64694312,2.89861053 6.08333212,2.65749947 5.43194336,2.65749947 C4.74111016,2.65749947 4.17444361,2.89583275 3.73249925,3.36972155 C3.2905549,3.84611034 3.06805494,4.45499911 3.06805494,5.19638785 C3.06805494,5.93749881 3.2905549,6.56499869 3.73249925,7.03333193 C4.17444361,7.50194294 4.74111016,7.73749845 5.43194336,7.73749845 C6.08333212,7.73749845 6.64694312,7.49944294 7.12360969,7.02555415 Z"></path>
            </g>
            <g id="Rectangle" transform="translate(58.905, 4.5531)">
                <rect x="0" y="0" width="3.12638826" height="9.81055359"></rect>
            </g>
            <g id="Group" transform="translate(64.4536, 0.2939)">
                <g transform="translate(0, 0)" id="Rectangle">
                    <rect x="0" y="6.16790446e-17" width="3.12638826" height="14.0697194"></rect>
                </g>
            </g>
            <g id="Group" transform="translate(33.3439, 16.8783)">
                <g transform="translate(0, 0)" id="Path">
                    <polygon points="10.2022202 13.0930529 0 13.0930529 0 0 10.1413869 0 10.1413869 2.77444389 3.22416602 2.77444389 3.22416602 5.23611006 8.82583157 5.23611006 8.82583157 7.8541651 3.22416602 7.8541651 3.22416602 10.316109 10.1997202 10.316109 10.1997202 13.0902752"></polygon>
                </g>
            </g>
            <g id="Group" transform="translate(45.3225, 20.1608)">
                <g transform="translate(0, 0)" id="Path">
                    <path d="M9.94805357,9.81055359 L6.8216653,9.81055359 L6.8216653,8.87360934 C6.04083213,9.69416473 5.03749899,10.1044424 3.81194368,10.1044424 C2.66555502,10.1044424 1.7444441,9.72860917 1.04555535,8.97944265 C0.349444375,8.23027613 0,7.24277633 0,6.01972102 L0,0 L3.10777716,0 L3.10777716,5.35527671 C3.10777716,5.92972104 3.26388824,6.39305428 3.57638817,6.7530542 C3.88861033,7.11055413 4.29361025,7.2905541 4.78861015,7.2905541 C5.42666558,7.2905541 5.92444326,7.06555414 6.28444319,6.61527645 C6.64166534,6.16555432 6.8216653,5.47972113 6.8216653,4.55333242 L6.8216653,0 L9.94805357,0 L9.94805357,9.81055359 Z"></path>
                </g>
            </g>
            <g id="Group" transform="translate(57.5364, 20.0258)">
                <g transform="translate(-0, 0)" id="Path">
                    <path d="M7.21110967,0.0769444291 L7.07333192,3.20333269 L6.50694314,3.20333269 C4.25416582,3.20333269 3.12638826,4.428888 3.12638826,6.87749862 L3.12638826,9.94555357 L7.89491771e-15,9.94555357 L7.89491771e-15,0.134999973 L3.12638826,0.134999973 L3.12638826,2.01194404 C3.9338881,0.669722088 5.06166565,0 6.50694314,0 C6.76638754,0 7.00194304,0.0266666613 7.21110967,0.0769444291 Z"></path>
                </g>
            </g>
            <g id="Shape" transform="translate(65.3722, 19.9094)">
                <path d="M9.24388704,1.44527749 C10.2869424,2.40888841 10.8083312,3.64777705 10.8083312,5.15944341 C10.8083312,6.670832 10.2869424,7.92833175 9.24388704,8.89194267 C8.20083169,9.85555358 6.93027639,10.3372202 5.43194336,10.3372202 C3.93361032,10.3372202 2.62055503,9.85555358 1.57249969,8.89194267 C0.524166562,7.92833175 -7.89491771e-15,6.68416533 -7.89491771e-15,5.15944341 C-7.89491771e-15,3.6347215 0.524166562,2.41166618 1.57249969,1.44527749 C2.62055503,0.48166657 3.90722144,0 5.43194336,0 C6.95666528,0 8.20083169,0.48166657 9.24388704,1.44527749 Z M7.09444303,6.98583194 C7.56305404,6.50944314 7.79860955,5.90055438 7.79860955,5.15944341 C7.79860955,4.41805467 7.56027627,3.80666591 7.08638747,3.33277711 C6.60999868,2.85638832 6.05944323,2.62083281 5.43472114,2.62083281 C4.80999904,2.62083281 4.2169436,2.85888832 3.73499925,3.33277711 C3.25333268,3.8091659 3.0124994,4.41805467 3.0124994,5.15944341 C3.0124994,5.90055438 3.25083268,6.51194314 3.7244437,6.98583194 C4.19833249,7.45972073 4.77027682,7.69805402 5.43472114,7.69805402 C6.09916545,7.69805402 6.62583201,7.45972073 7.09444303,6.98583194 Z"></path>
            </g>
            <g id="Group" transform="translate(77.8008, 19.8672)">
                <g transform="translate(0, 0)" id="Shape">
                    <path d="M9.56694253,1.4663886 C10.498609,2.44333284 10.9644423,3.68749926 10.9644423,5.19888785 C10.9644423,6.71055421 10.498609,7.97055396 9.56694253,8.94194266 C8.63499827,9.91360913 7.50472072,10.3980535 6.1758321,10.3980535 C4.93694346,10.3980535 3.92305477,10.0405535 3.12611049,9.32333147 L3.12611049,13.4263862 L0,13.4263862 L0,0.293611052 L3.12611049,0.293611052 L3.12611049,1.07472201 C3.92027699,0.357222151 4.93694346,-3.94745885e-15 6.1758321,-3.94745885e-15 C7.50472072,-3.94745885e-15 8.63499827,0.489722124 9.56694253,1.4663886 Z M7.231943,7.0361097 C7.67416513,6.56749869 7.89638731,5.95610992 7.89638731,5.19888785 C7.89638731,4.44194356 7.67416513,3.84638812 7.231943,3.37249933 C6.78999864,2.89583275 6.22333209,2.66027725 5.53249889,2.66027725 C4.88138791,2.66027725 4.31749914,2.90111053 3.84083257,3.38305488 C3.36444377,3.86472145 3.12888826,4.47111022 3.12888826,5.20166563 C3.12888826,5.93222104 3.36722155,6.55444313 3.84083257,7.02805415 C4.31472136,7.50194294 4.87861014,7.74027623 5.53249889,7.74027623 C6.22333209,7.74027623 6.78999864,7.50472072 7.231943,7.0361097 Z"></path>
                </g>
            </g>
            <g id="Group" transform="translate(89.7394, 19.8672)">
                <g transform="translate(0, 0)" id="Shape">
                    <path d="M10.2605535,6.00110991 L3.06805494,6.00110991 C3.19777714,6.58610979 3.45194375,7.04944303 3.83055479,7.38833186 C4.20916582,7.7269429 4.65916573,7.89638731 5.17805452,7.89638731 C6.15472099,7.89638731 6.85110974,7.51777627 7.26916521,6.76333198 L10.0436091,7.32999853 C9.62777585,8.34638722 8.99777598,9.11138707 8.15860948,9.62499807 C7.31944298,10.1386091 6.3241654,10.3980535 5.17805452,10.3980535 C3.73249925,10.3980535 2.50694394,9.91360913 1.50361081,8.94194266 C0.500277678,7.97055396 0,6.72388754 0,5.19888785 C0,3.67416593 0.500277678,2.44333284 1.50361081,1.4663886 C2.50694394,0.489722124 3.73777703,0 5.19638785,0 C6.65499867,0 7.8091651,0.476388794 8.77277602,1.42666638 C9.73638694,2.37694397 10.2313868,3.63444372 10.2577757,5.19888785 L10.2577757,6.00110991 L10.2605535,6.00110991 Z M3.92861033,2.9513883 C3.53666596,3.22416602 3.26944379,3.60277706 3.12638826,4.08444363 L7.17138745,4.08444363 C7.02833193,3.5761104 6.77944309,3.19249936 6.42749871,2.93027719 C6.07527656,2.6708328 5.66499887,2.5386106 5.19638785,2.5386106 C4.72805461,2.5386106 4.31749914,2.67611058 3.92583255,2.9488883 L3.92861033,2.9513883 Z"></path>
                </g>
            </g>
            <g id="Group" transform="translate(58.8919, 0)">
                <g transform="translate(-0, 0)" id="Path">
                    <path d="M3.43055487,1.71527743 C3.43055487,0.767777624 2.66305502,0 1.71527743,0 C0.767499846,0 7.89491771e-15,0.767777624 7.89491771e-15,1.71527743 L7.89491771e-15,3.43083265 L1.71527743,3.43083265 C1.94305517,3.43083265 2.15999957,3.38583266 2.36111064,3.30638823 C2.98861051,3.05222161 3.43055487,2.43527729 3.43055487,1.71805521 L3.43055487,1.71527743 Z"></path>
                </g>
            </g>
        </g>
    </g>
</svg>
