<svg height="88" width="146" xmlns="http://www.w3.org/2000/svg"><g fill="none"><path d="M96.61 38.563c1.41-.466 2.973-.372 4.368.105.642.242 1.218.619 1.758 1.036l-.004.112.155-.054c-.25.228-.476.48-.677.75l-.05-.016-.086.18a7.235 7.235 0 0 0-.492.59c-.138-.11-.273-.22-.413-.322l.016-.031c-.294-.158-.573-.34-.865-.497-1.053-.423-2.25-.5-3.322-.106l-.026.104-.152-.025c-.25.189-.507.365-.772.53l.023.094-.096-.037-.17.17.036.09-.09-.01c-.12.175-.253.34-.383.507-.92 1.444-.87 3.384.01 4.836l.032.002c.339.488.808.86 1.295 1.192l.157-.038.01.114c1.049.38 2.226.428 3.285.06.408-.13.769-.365 1.155-.544.03-.74.008-1.48.017-2.22-.964.009-1.928-.005-2.89.007a45.34 45.34 0 0 0-.006-1.69c1.603.004 3.206.016 4.809-.007-.027 1.582-.004 3.164-.012 4.747-.198.138-.388.288-.578.435-.201.138-.412.261-.632.367l-.036.102-.21-.04-.024.16-.213-.041-.025.155-.161-.01c-1.733.81-3.837.816-5.578.024a8.99 8.99 0 0 1-.932-.546l.017-.033c-.442-.278-.788-.682-1.107-1.088-.11-.163-.224-.324-.34-.483l.028-.147-.162-.03.039-.213-.155-.023.013-.16c-.676-1.425-.687-3.134-.162-4.611.087-.198.17-.396.255-.595.112-.2.23-.398.353-.591.08-.118.16-.237.243-.355.289-.36.607-.704.99-.97l.003-.024.578-.41.087.01c.158-.127.323-.253.533-.277l.017-.06c.179-.056.358-.118.539-.175zm-19.498-.1c.614.004 1.229 0 1.844.003.136.2.29.388.436.582.13.164.262.327.376.504l.025.002c.139.193.289.377.434.565.128.164.257.327.372.5l.036.007c.1.146.209.288.313.434.027.035.084.1.112.136.12.152.243.305.363.46.13.168.263.336.374.519l.022-.018c.138.196.289.383.437.573.13.166.265.33.376.513l.023-.02c.136.2.284.389.43.579.133.163.267.327.38.505l.032-.001c.1.148.21.29.312.438l.115.135c.13.158.257.32.37.49l.04.01c.1.15.209.295.306.448.122.14.25.277.403.392.025-2.588.02-5.178.002-7.765.648.02 1.297.012 1.947.006-.02 3.764-.005 7.529-.01 11.292-.543-.003-1.086-.003-1.63 0-.106-.135-.216-.267-.32-.403l-.106-.14a8.928 8.928 0 0 1-.364-.46c-.12-.16-.245-.316-.366-.475-.155-.2-.316-.396-.47-.595-.128-.17-.26-.336-.372-.515l-.024.018c-.137-.196-.286-.383-.431-.572a5.414 5.414 0 0 1-.38-.512l-.023.002c-.14-.192-.288-.378-.432-.564a5.934 5.934 0 0 1-.38-.504l-.03-.005c-.103-.147-.21-.29-.313-.435l-.114-.133c-.13-.16-.26-.32-.371-.492l-.037-.01c-.104-.148-.211-.292-.315-.437-.157-.198-.32-.394-.475-.594-.13-.17-.26-.334-.372-.513l-.034.013c-.105-.16-.217-.317-.318-.48a10.07 10.07 0 0 1-.245-.083c.014 2.63.002 5.258.006 7.887h-1.948c-.003-3.761.007-7.524-.006-11.287zm45.14-.01c2.797.025 5.593.012 8.389.007-.02.587-.005 1.173-.011 1.76h-6.412c.003.985.003 1.97 0 2.954 1.9 0 3.799 0 5.697.002.003.585-.008 1.17.01 1.758-1.906-.02-3.811.013-5.717-.016.018 1.03.02 2.06.002 3.089 2.174-.012 4.347 0 6.52-.006-.005.582-.002 1.165-.002 1.749-2.822.004-5.643-.007-8.464.006-.004-3.767.017-7.536-.01-11.303zm-68.395.01c1.723.004 3.447 0 5.17 0a5.772 5.772 0 0 1 1.514.214c.215.074.428.157.625.274.04-.005.116-.016.155-.02l.02.154.177-.02c.402.3.782.637 1.07 1.05.03.06.085.178.113.238a3.79 3.79 0 0 1-.227 3.77c-.217.26-.46.5-.727.71-.416.258-.856.484-1.332.614.103.216.237.416.374.613.209.27.408.547.6.83.204.273.404.55.596.83.204.276.405.55.598.833.199.276.4.55.589.834.092.122.185.243.28.363-.77 0-1.54-.002-2.307.002a10.45 10.45 0 0 1-.308-.427 30.742 30.742 0 0 1-.25-.338 8.013 8.013 0 0 1-.244-.396h-.037c-.181-.266-.362-.533-.557-.79a6.893 6.893 0 0 1-.243-.4l-.033.005c-.103-.148-.21-.294-.313-.442-.085-.13-.17-.26-.247-.39l-.043-.003c-.096-.153-.196-.303-.29-.458-.113-.115-.188-.33-.382-.305a172.07 172.07 0 0 0-2.383.002c-.02 1.313.019 2.63-.022 3.942-.644-.004-1.288 0-1.93-.002-.004-3.761.007-7.524-.006-11.287zm1.955 1.782c-.004 1.277 0 2.555 0 3.833 1.067-.008 2.135.023 3.203-.015.548-.005 1.042-.252 1.51-.51l-.052-.064.14-.027.027-.14.068.052c.532-.768.56-1.881-.114-2.575a8.352 8.352 0 0 1-.377-.293l-.158.05.005-.126c-.38-.08-.757-.197-1.15-.188-1.034 0-2.068-.002-3.102.003zm13.045-1.785c.66.01 1.322.003 1.982.006-.005 3.76 0 7.523-.002 11.284-.658 0-1.316-.002-1.972.002-.003-3.763.012-7.528-.008-11.292zm40.336.003c.66.003 1.32.003 1.982 0-.014 3.172 0 6.344-.007 9.515 1.99-.014 3.98 0 5.97-.007-.012.593-.005 1.186-.006 1.779H109.2c-.004-3.761.007-7.524-.006-11.287zm27.217.003c1.714-.002 3.427 0 5.14-.002 1.04-.004 2.09.27 2.94.882l-.025.042c.115.06.217.134.31.227.07.084.14.169.216.252.1.157.198.315.3.473.445.91.476 1.982.196 2.946-.105.227-.212.453-.32.679l-.041-.01c-.093.162-.21.307-.325.452l-.115.114c-.244.218-.502.422-.804.552l-.038.096c-.038-.003-.117-.005-.156-.008a2.24 2.24 0 0 1-.7.27c.066.144.135.284.205.428h.052c.179.267.369.528.552.793.204.273.405.55.597.832.202.273.404.549.596.832.203.273.402.55.599.83.143.196.282.395.41.602-.761-.003-1.523.015-2.284-.006a2.838 2.838 0 0 1-.37-.56l-.033.009c-.103-.15-.206-.297-.305-.446a13.525 13.525 0 0 1-.247-.355c-.204-.273-.4-.55-.59-.834l-.307-.408a5.098 5.098 0 0 1-.187-.356l-.093.058.025-.116a8.773 8.773 0 0 1-.287-.36c-.125-.183-.25-.365-.366-.554-.856-.03-1.715-.007-2.57-.013-.003 1.315-.003 2.63 0 3.945-.658-.004-1.315 0-1.972-.002-.003-3.761.002-7.523-.003-11.284zm1.97 1.775c.003 1.28.006 2.56 0 3.842.977-.011 1.955.004 2.934-.007.505-.004 1.02-.1 1.46-.357.038 0 .113.004.15.007l-.001-.08c.156-.133.307-.274.453-.42.34-.515.332-1.152.238-1.74a8.724 8.724 0 0 1-.258-.504l-.103.02.033-.093-.17-.171-.094.036.024-.105c-.427-.22-.875-.424-1.366-.417-1.1-.023-2.2-.001-3.3-.01z" fill="#4a4545"/><path d="M17.275 41.845c1.236.022 2.47.08 3.704.159 1.398.114 2.833.518 3.927 1.434.582.484 1.026 1.29.736 2.055-.356.882-1.287 1.34-2.146 1.592-1.784.54-3.647.123-5.464.04-2.88-.201-5.778-.238-8.658 0-.887.084-1.778.144-2.66.28-.155.017-1.503.245-2.065.36-.956.206-1.908.476-2.787.914-.528.278-1.076.638-1.313 1.214l-.047.152c-.1.845.668 1.489 1.296 1.952 1.16.792 2.485 1.29 3.792 1.784l.194.086c-.071.334-.125.671-.163 1.01-1.04-.537-2.063-1.124-2.975-1.864C1.738 52.31.88 51.458.399 50.406l-.01.03-.137-.316a3.606 3.606 0 0 1 .128-2.935c.427-.855 1.13-1.536 1.896-2.088.132-.092.465-.331.465-.331 2.638-1.563 5.678-2.268 8.688-2.646 1.235-.114 2.47-.23 3.71-.273-1.24.043-2.475.158-3.71.27 2.328-.32 4.686-.34 7.03-.308.839.087 1.683.092 2.52.194a80.35 80.35 0 0 0-3.704-.158z" fill="#fecc02"/><path d="M38.712 43.426c-.284 2.97-1.967 5.622-4.045 7.692-3.02 2.983-6.85 5.023-10.82 6.453-3.65 1.306-7.482 2.082-11.344 2.41-1.912.126-3.94-.38-5.39-1.675-.966-.851-1.593-2.127-1.492-3.428.032-.34.098-.676.163-1.011l-.194-.086.206.043a5.802 5.802 0 0 1 2.186-2.708c.247-.18.485-.298.622-.4.78-.373 1.598-.68 2.455-.82.162-.03.327-.05.492-.07 4.983-.437 9.95-1.281 14.73-2.773 2.48-.786 4.924-1.74 7.16-3.078 1.378-.848 2.737-1.847 3.6-3.243.635-1.011.776-2.32.236-3.414 1.087 1.827 1.665 3.982 1.435 6.108zM9.9 28.176c5.77-.482 11.687-.016 17.178 1.896 2.334.814 4.577 1.92 6.562 3.4a17.06 17.06 0 0 1 3.175 3.128c-1.911-1.925-4.538-2.846-7.106-3.522-4.403-1.096-8.966-1.402-13.492-1.361a73.598 73.598 0 0 0-6.12.305c-.657.03-1.342-.212-1.785-.706a1.704 1.704 0 0 1-.371-1.748c.283-.814 1.119-1.331 1.959-1.39z" fill="#a2c613"/><path d="M5.583 34.166c2.996-1.147 6.24-1.438 9.426-1.455 4.266.045 8.512.685 12.638 1.746 1.16.31 2.357.574 3.4 1.192 1.12.65 2.16 1.61 2.534 2.883.259.874.04 1.82-.577 2.492-.67.72-1.634 1.087-2.59 1.232-1.04.141-2.099.069-3.11-.214-5.03-1.435-10.166-2.55-15.381-3.038-2.318-.194-4.66-.29-6.972.005-1.174.173-2.393.413-3.381 1.105-.643.435-1.012 1.235-.848 2.016-.464-1.493-.408-3.19.403-4.553.97-1.668 2.7-2.724 4.458-3.411" fill="#0097d8"/></g></svg>