<?xml version="1.0" encoding="UTF-8"?>
<svg width="239px" height="69px" viewBox="0 0 239 69" version="1.1" xmlns="http://www.w3.org/2000/svg" xmlns:xlink="http://www.w3.org/1999/xlink">
    <title>Group 24</title>
    <g id="OG-imges" stroke="none" stroke-width="1" fill="none" fill-rule="evenodd">
        <g id="Group-24" fill="#FFFFFF">
            <g id="Devicon-ruby-plain-wordmark" fill-rule="nonzero">
                <path d="M51.2127621,41.6785425 C40.7474575,48.4202429 30.3777338,55.1012146 19.7342273,61.9562753 C35.6735667,64.1319838 51.3285933,66.2680162 67.2938529,68.4469636 C61.8554586,59.3935223 56.5563856,50.5732794 51.2127621,41.6785425 L51.2127621,41.6785425 Z M71.7942579,11.8461538 C70.3888939,13.9546559 68.9810998,16.0623482 67.5781658,18.1724696 C62.7586176,25.4202429 57.9406894,32.6672065 53.1268113,39.9174089 C52.8586986,40.3222672 52.5112051,40.642915 52.8886689,41.2647773 C57.5413554,48.9433198 62.1559716,56.6461538 66.7819278,64.340081 C67.5117451,65.5554656 68.2504725,66.7659919 69.1949419,67.9319838 L72,11.9068826 L71.7942579,11.8461538 L71.7942579,11.8461538 Z M8.29124291,35.7878543 C8.50913509,35.994332 9.05265053,36.1133603 9.30456305,35.9894737 C13.7668977,33.7967611 18.2575826,31.6534413 22.6227162,29.2801619 C24.0450905,28.5076923 25.1386014,27.1206478 26.3657637,25.9967611 C30.4263343,22.2744939 34.4796148,18.5441296 38.5328953,14.8129555 C38.7815678,14.5838057 39.0739807,14.362753 39.2230222,14.0736842 C40.6786068,11.2291498 42.1082711,8.37165992 43.5897759,5.42995951 C41.8231482,4.76842105 40.1488615,4.11821862 38.4543245,3.52712551 C38.2242822,3.44696356 37.8630186,3.60647773 37.6119161,3.74574899 C33.6890469,5.93684211 29.6924669,8.01052632 25.8935289,10.4 C23.9924399,11.5951417 22.4437044,13.3562753 20.7605076,14.891498 C18.0494105,17.3659919 15.3399334,19.8461538 12.6669067,22.3643725 C11.9573396,23.0323887 11.3109531,23.7959514 10.7593376,24.5991903 C8.9303393,27.259919 7.15804158,29.9587045 5.30231302,32.7352227 C6.34074341,33.8089069 7.28278283,34.8340081 8.29124291,35.7878543 Z M24.599136,32.1497976 C22.3805238,41.5238866 20.1724417,50.8445344 17.8930789,60.4720648 C28.5843758,53.5862348 39.0286203,46.8591093 49.403204,40.1765182 C41.1467915,37.5044534 32.9162992,34.8412955 24.599136,32.1497976 L24.599136,32.1497976 Z M42.2872829,16.4080972 L51.3755738,38.5068826 C57.3080731,29.5991903 63.1223112,20.8672065 69.0685807,11.9360324 C60.0361804,13.4445344 51.2192422,14.9165992 42.2872829,16.4080972 Z M24.9717397,30.2323887 C33.1058411,32.8728745 41.0787508,35.459919 49.2817028,38.1214575 C46.2352624,30.7020243 43.2933129,23.5425101 40.2898029,16.2307692 L24.9717397,30.2323887 L24.9717397,30.2323887 Z M8.62739627,41.254251 L0.119071191,61.5854251 C5.57123571,61.4242915 10.8573486,61.2680162 16.3232832,61.1068826 C13.7571776,54.4866397 11.2412924,47.9959514 8.62739627,41.254251 L8.62739627,41.254251 Z M16.5160652,56.3919028 L16.7169472,56.3481781 C18.6617766,48.2607287 20.6357664,40.2291498 22.6227162,31.8267206 C18.1919719,34.1279352 13.9653497,36.3238866 9.62208622,38.5805668 C11.8374584,44.3392713 14.201062,50.4121457 16.5160652,56.3919028 L16.5160652,56.3919028 Z M65.798578,10.6251012 C63.2106021,9.94008097 60.6250563,9.25182186 58.0346503,8.57165992 C54.3142831,7.59433198 50.5906759,6.62753036 46.8719287,5.64048583 C46.4077941,5.51740891 46.0708307,5.43724696 45.797858,5.99676113 C44.4840248,8.68825911 43.1280713,11.3603239 41.7931779,14.0412955 C41.7518675,14.1246964 41.7599676,14.2331984 41.7283773,14.4396761 C49.7863379,13.2194332 57.7908379,12.0064777 65.7937179,10.794332 L65.798578,10.6251012 L65.798578,10.6251012 Z M50.7875079,4.50202429 C57.7365674,6.4242915 64.6856269,8.34574899 71.8776888,10.334413 L68.3930339,0.408906883 C62.4880749,1.71821862 56.6535865,3.01133603 50.8190982,4.30445344 L50.7875079,4.50202429 L50.7875079,4.50202429 Z M57.1719917,68.7595142 L39.8694087,66.3983806 C32.6822068,65.4178138 25.5079651,64.3384615 18.304563,63.508502 C15.6922869,63.2080972 13.0103501,63.4850202 10.3616236,63.5295547 C8.18513185,63.5668016 6.00864009,63.6493927 3.83295833,63.7182186 C3.60858609,63.7246964 3.38502385,63.7700405 3.16227162,64.0105263 C21.1525515,65.6736842 39.1444514,67.3360324 57.1339213,69 L57.1719917,68.7595142 L57.1719917,68.7595142 Z M0.473854739,55.3797571 C2.79371794,50.0024291 5.10062101,44.6210526 7.42858429,39.248583 C7.66186662,38.708502 7.64485645,38.3433198 7.18882189,37.9101215 C6.21438214,36.982996 5.3104131,35.9846154 4.24525245,34.8785425 L0,55.8267206 L0.156331563,55.9012146 C0.264062641,55.7279352 0.394473945,55.5659919 0.473854739,55.3797571 Z M46.1680317,3.08259109 C50.0779408,2.07368421 54.0445504,1.28663968 57.9876699,0.406477733 C58.2420124,0.348987854 58.4914949,0.264777328 58.7425974,0.192712551 L58.704527,0 L41.7623976,2.27773279 C43.3540635,2.97327935 44.5796058,3.49230769 46.1680317,3.08259109 L46.1680317,3.08259109 Z" id="Shape"></path>
            </g>
            <g id="ruby" transform="translate(86, 8)">
                <path d="M133.122206,46.8920056 L133.122206,54 L145.792846,54 C148.388972,54 152.845007,52.0757363 153,46.6956522 L153,43.9467041 C153,39.3520337 149.280179,36.6423562 145.792846,36.6423562 L139.4769,36.6423562 L139.4769,33.3436185 L151.992548,33.3436185 L151.992548,26.1963534 L139.980626,26.1963534 C136.880775,26.1963534 132.734724,28.7882188 132.734724,33.6185133 L132.734724,36.0925666 C132.734724,40.9228612 136.842027,43.3969144 139.980626,43.3969144 C148.698957,43.4361851 137.888227,43.3969144 145.947839,43.3969144 L145.947839,46.8527349 M65.2354694,45.1640954 C65.2354694,45.1640954 72.0163934,44.5750351 72.0163934,35.6998597 C72.0163934,26.8246844 63.8017884,26 63.8017884,26 L49,26 L49,54 L56.4396423,54 L56.4396423,47.2454418 L62.8718331,54 L73.876304,54 L65.2354694,45.1640954 Z M62.3681073,39.430575 L56.4396423,39.430575 L56.4396423,33.029453 L62.4068554,33.029453 C62.4068554,33.029453 64.0730253,33.657784 64.0730253,36.2103787 C64.0730253,38.7629734 62.3681073,39.430575 62.3681073,39.430575 Z M90.3830104,26.1963534 L82.8271237,26.1963534 C77.4411326,26.1963534 75.6199702,31.14446 75.6199702,33.5007013 L75.6199702,54 L83.1758569,54 L83.1758569,49.0911641 L90.266766,49.0911641 L90.266766,54 L97.5901639,54 L97.5901639,33.5007013 C97.5901639,27.5315568 92.242921,26.1963534 90.3830104,26.1963534 Z M90.266766,41.1584853 L83.1371088,41.1584853 L83.1371088,34.3646564 C83.1371088,34.3646564 83.1371088,32.8330996 85.5007452,32.8330996 L88.0968703,32.8330996 C90.1892697,32.8330996 90.2280179,34.3646564 90.2280179,34.3646564 L90.2280179,41.1584853 L90.266766,41.1584853 Z" id="Shape"></path>
                <rect id="Rectangle" x="101" y="26" width="8" height="27"></rect>
                <polygon id="Path" points="119.654737 46.0211864 119.654737 26 112 26 112 46.0211864 112 53 119.654737 53 130 53 130 46.0211864"></polygon>
                <path d="M3,54 L33.5505005,54 C33.5505005,54 27.711101,27.3260613 47.0468608,16.5248583 C51.2620564,14.4730168 64.6810737,6.80764692 86.6464968,23.0675225 C87.3425842,22.4868126 88,22.0222448 88,22.0222448 C88,22.0222448 67.8908098,1.92968425 45.5,4.17509564 C34.2465878,5.18165936 20.4021838,15.4408666 12.2811647,28.9907628 C4.16014559,42.5406591 3,54 3,54 Z" id="Path"></path>
                <path d="M3,54 L33.5505005,54 C33.5505005,54 27.711101,27.3260613 47.0468608,16.5248583 C51.2620564,14.4730168 64.6810737,6.80764692 86.6464968,23.0675225 C87.3425842,22.4868126 88,22.0222448 88,22.0222448 C88,22.0222448 67.8908098,1.92968425 45.5,4.17509564 C34.2465878,5.18165936 20.4021838,15.4408666 12.2811647,28.9907628 C4.16014559,42.5406591 3,54 3,54 Z" id="Path"></path>
                <path d="M3,54 L33.5505005,54 C33.5505005,54 27.711101,27.1222806 47.0468608,16.2385596 C51.2620564,14.1710428 64.6810737,6.44711178 86.6464968,22.8312078 C87.3425842,22.2460615 88,21.7779445 88,21.7779445 C88,21.7779445 67.8908098,1.53188297 45.5,3.79444861 C34.2079163,4.80870218 20.3635123,15.1462866 12.2424932,28.7996999 C4.12147407,42.4531133 3,54 3,54 Z M66.6533212,5.97899475 L66.8080073,3.36534134 C66.4599636,3.17029257 65.4931756,2.70217554 63.0568699,2 L62.9021838,4.57464366 C64.1783439,5.00375094 65.4158326,5.47186797 66.6533212,5.97899475 Z" id="Shape"></path>
                <path d="M62.2011628,14.525349 L62.0476744,16.9786921 C63.3139535,17.0176341 64.5802326,17.1734019 65.8465116,17.4459956 L66,15.0315944 C64.6953488,14.7590007 63.4290698,14.6032329 62.2011628,14.525349 Z M48.0034884,2.37545922 L48.3872093,2.37545922 L47.6197674,0 C46.4302326,0 45.2023256,0.0778839089 43.9360465,0.233651727 L44.6651163,2.53122704 C45.777907,2.41440118 46.8906977,2.37545922 48.0034884,2.37545922 Z M49.8453488,16.7060985 L50.727907,19.3930933 C51.8406977,18.847906 52.9534884,18.3806025 54.0662791,18.0301249 L53.222093,15.4599559 C51.9174419,15.8493755 50.8046512,16.277737 49.8453488,16.7060985 Z M32.4244186,6.46436444 L30.6976744,3.77736958 C29.7383721,4.28361499 28.7406977,4.82880235 27.7046512,5.45187362 L29.4697674,8.17781043 C30.4674419,7.55473916 31.4267442,6.97060985 32.4244186,6.46436444 Z M40.2906977,23.9882439 L42.1325581,26.7920647 C42.7848837,25.8185158 43.5523256,24.9228508 44.3965116,24.0271859 L42.6697674,21.379133 C41.7872093,22.196914 40.9813953,23.092579 40.2906977,23.9882439 Z M34.7267442,36.5275533 L37.8348837,39.0198384 C37.9883721,37.5011021 38.2569767,35.9823659 38.6406977,34.4636297 L35.877907,32.2439383 C35.3790698,33.6847906 35.0337209,35.1256429 34.7267442,36.5275533 Z M17.9197674,18.0301249 L15.1953488,15.6157237 C14.1976744,16.5892726 13.2383721,17.5628215 12.355814,18.5363703 L15.3104651,21.1065393 C16.1162791,20.0551065 16.9988372,19.0036738 17.9197674,18.0301249 Z M6.33139535,35.4371785 L1.91860465,33.8016165 C1.18953488,35.4761205 0.38372093,37.4232182 0,38.474651 L4.4127907,40.1102131 C4.91162791,38.7861866 5.71744186,36.8780309 6.33139535,35.4371785 Z M34.1511628,46.4188097 C34.227907,48.4827333 34.4197674,50.1572373 34.6116279,51.325496 L39.2162791,53 C38.8709302,51.4812638 38.5255814,49.7678178 38.2953488,47.9375459 L34.1511628,46.4188097 Z" id="Shape"></path>
            </g>
        </g>
    </g>
</svg>