<?xml version="1.0" encoding="UTF-8"?>
<svg width="125px" height="119px" viewBox="0 0 125 119" version="1.1" xmlns="http://www.w3.org/2000/svg" xmlns:xlink="http://www.w3.org/1999/xlink">
    <title>ruby</title>
    <g id="First-Draft" stroke="none" stroke-width="1" fill="none" fill-rule="evenodd">
        <g id="ruby" fill="#FFFFFF">
            <path d="M34.008,106.802 C61.474,110.552 88.452,114.235 115.966,117.99 C106.592,102.384 97.459,87.177 88.253,71.846 L34.008,106.802 Z M123.718,20.419 C121.297,24.055 118.871,27.688 116.453,31.326 C108.149,43.819 99.846,56.312 91.55,68.811 C91.088,69.507 90.489,70.059 91.14,71.132 C99.156,84.369 107.109,97.645 115.082,110.909 C116.34,113.004 117.612,115.091 119.239,117.101 C120.851,84.908 122.462,52.714 124.073,20.521 L123.718,20.419 L123.718,20.419 Z M14.289,61.692 C14.664,62.047 15.6,62.254 16.036,62.039 C23.725,58.26 31.463,54.565 38.984,50.475 C41.437,49.142 43.323,46.752 45.436,44.814 C52.433,38.397 59.419,31.967 66.402,25.536 C66.829,25.141 67.335,24.759 67.59,24.261 C70.098,19.359 72.563,14.432 75.115,9.363 C72.072,8.219 69.187,7.1 66.266,6.082 C65.87,5.944 65.246,6.218 64.817,6.457 C58.056,10.234 51.168,13.81 44.622,17.929 C41.347,19.99 38.679,23.027 35.779,25.672 C31.105,29.938 26.437,34.214 21.831,38.554 C20.609,39.706 19.495,41.022 18.543,42.408 C15.393,46.995 12.337,51.648 9.141,56.433 C10.927,58.28 12.551,60.046 14.289,61.692 L14.289,61.692 Z M42.391,55.421 C38.566,71.58 34.764,87.648 30.835,104.244 C49.258,92.373 67.256,80.776 85.135,69.257 C70.907,64.652 56.725,60.061 42.391,55.421 Z M119.022,20.575 C103.456,23.176 88.262,25.714 72.872,28.285 C78.114,41.036 83.251,53.531 88.534,66.381 C98.755,51.022 108.774,35.971 119.022,20.575 L119.022,20.575 Z M43.033,52.116 C57.05,56.666 70.788,61.126 84.925,65.716 C79.675,52.926 74.605,40.583 69.43,27.979 C60.615,36.038 51.932,43.978 43.033,52.116 Z M14.868,71.115 C9.897,82.998 5.095,94.477 0.206,106.163 C9.602,105.885 18.71,105.616 28.131,105.338 C23.708,93.926 19.372,82.738 14.868,71.115 Z M28.461,97.211 L28.807,97.135 C32.16,83.194 35.561,69.349 38.984,54.863 C31.348,58.832 24.064,62.617 16.581,66.507 C20.4,76.433 24.472,86.904 28.461,97.211 L28.461,97.211 Z M113.388,18.314 C108.929,17.133 104.47,15.948 100.009,14.775 C93.597,13.089 87.18,11.424 80.772,9.723 C79.971,9.51 79.392,9.371 78.921,10.336 C76.656,14.976 74.321,19.581 72.02,24.204 C71.949,24.347 71.964,24.532 71.909,24.891 C85.795,22.787 99.588,20.696 113.379,18.606 L113.388,18.314 Z M87.519,7.76 L123.862,17.814 C121.778,11.875 119.845,6.368 117.857,0.704 L87.572,7.419 L87.519,7.76 Z M31.542,109.479 C27.041,108.96 22.42,109.437 17.855,109.516 C14.105,109.579 10.355,109.722 6.605,109.839 C6.219,109.851 5.834,109.929 5.449,110.345 C36.452,113.211 67.454,116.077 98.456,118.945 L98.519,118.531 C88.581,117.174 78.642,115.817 68.704,114.461 C56.32,112.77 43.957,110.91 31.542,109.479 Z M0.819,95.466 C4.814,86.196 8.792,76.92 12.803,67.657 C13.204,66.728 13.173,66.097 12.388,65.349 C10.71,63.752 9.151,62.031 7.317,60.123 C4.838,72.363 2.42,84.3 0,96.236 L0.271,96.363 C0.456,96.066 0.682,95.785 0.819,95.466 Z M79.559,5.313 C86.296,3.575 93.131,2.216 99.926,0.7 C100.366,0.601 100.796,0.456 101.229,0.332 L101.162,0 C91.591,1.287 82.021,2.575 71.968,3.928 C74.709,5.125 76.821,6.019 79.559,5.313 Z" id="Shape"></path>
        </g>
    </g>
</svg>