<?xml version="1.0" encoding="UTF-8"?>
<svg width="396px" height="140px" viewBox="0 0 396 140" version="1.1" xmlns="http://www.w3.org/2000/svg" xmlns:xlink="http://www.w3.org/1999/xlink">
    <title>ruby</title>
    <g id="OG-imges" stroke="none" stroke-width="1" fill="none" fill-rule="evenodd">
        <g id="ruby" fill="#FFFFFF">
            <path d="M344.6,121.1 L344.6,139.2 L377.3,139.2 C384,139.2 395.5,134.3 395.9,120.6 L395.9,113.6 C395.9,101.9 386.3,95 377.3,95 L361,95 L361,86.6 L393.3,86.6 L393.3,68.4 L362.3,68.4 C354.3,68.4 343.6,75 343.6,87.3 L343.6,93.6 C343.6,105.9 354.2,112.2 362.3,112.2 C384.8,112.3 356.9,112.2 377.7,112.2 L377.7,121 M169.4,116.7 C169.4,116.7 186.9,115.2 186.9,92.6 C186.9,70 165.7,67.9 165.7,67.9 L127.5,67.9 L127.5,139.2 L146.7,139.2 L146.7,122 L163.3,139.2 L191.7,139.2 L169.4,116.7 Z M162,102.1 L146.7,102.1 L146.7,85.8 L162.1,85.8 C162.1,85.8 166.4,87.4 166.4,93.9 C166.4,100.4 162,102.1 162,102.1 Z M234.3,68.4 L214.8,68.4 C200.9,68.4 196.2,81 196.2,87 L196.2,139.2 L215.7,139.2 L215.7,126.7 L234,126.7 L234,139.2 L252.9,139.2 L252.9,87 C252.9,71.8 239.1,68.4 234.3,68.4 Z M234,106.5 L215.6,106.5 L215.6,89.2 C215.6,89.2 215.6,85.3 221.7,85.3 L228.4,85.3 C233.8,85.3 233.9,89.2 233.9,89.2 L233.9,106.5 L234,106.5 Z" id="Shape"></path>
            <rect id="Rectangle" x="261.8" y="68.4" width="20.3" height="70.8"></rect>
            <polygon id="Path" points="310.6 120.9 310.6 68.4 290.4 68.4 290.4 120.9 290.4 139.2 310.6 139.2 337.9 139.2 337.9 120.9"></polygon>
            <path d="M7,139.2 L86,139.2 C86,139.2 70.9,70.3 120.9,42.4 C131.8,37.1 166.5,17.3 223.3,59.3 C225.1,57.8 226.8,56.6 226.8,56.6 C226.8,56.6 174.8,4.7 116.9,10.5 C87.8,13.1 52,39.6 31,74.6 C10,109.6 7,139.2 7,139.2 Z" id="Path"></path>
            <path d="M7,139.2 L86,139.2 C86,139.2 70.9,70.3 120.9,42.4 C131.8,37.1 166.5,17.3 223.3,59.3 C225.1,57.8 226.8,56.6 226.8,56.6 C226.8,56.6 174.8,4.7 116.9,10.5 C87.8,13.1 52,39.6 31,74.6 C10,109.6 7,139.2 7,139.2 Z" id="Path"></path>
            <path d="M7,139.2 L86,139.2 C86,139.2 70.9,70.3 120.9,42.4 C131.8,37.1 166.5,17.3 223.3,59.3 C225.1,57.8 226.8,56.6 226.8,56.6 C226.8,56.6 174.8,4.7 116.9,10.5 C87.7,13.1 51.9,39.6 30.9,74.6 C9.9,109.6 7,139.2 7,139.2 Z M171.6,16.1 L172,9.4 C171.1,8.9 168.6,7.7 162.3,5.9 L161.9,12.5 C165.2,13.6 168.4,14.8 171.6,16.1 Z" id="Shape"></path>
            <path d="M162.1,37.3 L161.7,43.6 C165,43.7 168.3,44.1 171.6,44.8 L172,38.6 C168.6,37.9 165.3,37.5 162.1,37.3 Z M125.1,6.1 L126.1,6.1 L124.1,0 C121,0 117.8,0.2 114.5,0.6 L116.4,6.5 C119.3,6.2 122.2,6.1 125.1,6.1 Z M129.9,42.9 L132.2,49.8 C135.1,48.4 138,47.2 140.9,46.3 L138.7,39.7 C135.3,40.7 132.4,41.8 129.9,42.9 Z M84.5,16.6 L80,9.7 C77.5,11 74.9,12.4 72.2,14 L76.8,21 C79.4,19.4 81.9,17.9 84.5,16.6 Z M105,61.6 L109.8,68.8 C111.5,66.3 113.5,64 115.7,61.7 L111.2,54.9 C108.9,57 106.8,59.3 105,61.6 Z M90.5,93.8 L98.6,100.2 C99,96.3 99.7,92.4 100.7,88.5 L93.5,82.8 C92.2,86.5 91.3,90.2 90.5,93.8 Z M46.7,46.3 L39.6,40.1 C37,42.6 34.5,45.1 32.2,47.6 L39.9,54.2 C42,51.5 44.3,48.8 46.7,46.3 Z M16.5,91 L5,86.8 C3.1,91.1 1,96.1 0,98.8 L11.5,103 C12.8,99.6 14.9,94.7 16.5,91 Z M89,119.2 C89.2,124.5 89.7,128.8 90.2,131.8 L102.2,136.1 C101.3,132.2 100.4,127.8 99.8,123.1 L89,119.2 Z" id="Shape"></path>
        </g>
    </g>
</svg>