<?xml version="1.0" encoding="UTF-8"?>
<svg width="90px" height="52px" viewBox="0 0 90 52" version="1.1" xmlns="http://www.w3.org/2000/svg" xmlns:xlink="http://www.w3.org/1999/xlink">
    <title>sage</title>
    <g id="First-Draft" stroke="none" stroke-width="1" fill="none" fill-rule="evenodd">
        <g id="Tech-modernization-projects" transform="translate(-696, -7919)" fill="#FFFFFF" fill-rule="nonzero">
            <g id="Group-28" transform="translate(332, 7612)">
                <g id="Group-26" transform="translate(0, 288)">
                    <g id="Group-19" transform="translate(0, 0)">
                        <g id="Group-18" transform="translate(32, 19.72)">
                            <g id="Path" transform="translate(332, 0)">
                                <path d="M9.94568571,0 C15.5765143,0 20.1550286,3.89415429 20.2605429,9.31405714 C20.3132571,10.8398571 19.2082286,11.6824286 17.9976857,11.6824286 C16.8398571,11.6824286 15.8402571,10.8409714 15.7875429,9.41957143 C15.7347429,6.36678 13.1566286,4.10388857 9.89297143,4.10388857 C6.84021429,4.10388857 4.52577429,6.26133429 4.52577429,9.20854286 C4.52577429,12.4183714 6.68322,13.8398571 11.1562286,15.4710857 C15.9445714,17.2078286 20.3132571,19.2597429 20.3132571,25.3640571 C20.3132571,30.6796286 16.1554286,34.9417714 10.3675714,34.9417714 C4.68399429,34.9417714 0,30.9421714 0,25.5222857 C0,22.1543143 1.63125429,19.7859429 3.20976857,19.7859429 C4.57851429,19.7859429 5.41991143,20.6801143 5.41991143,21.8906571 C5.41991143,22.9429714 4.52577429,23.4164571 4.52577429,25.3113429 C4.52577429,28.6793143 7.2621,30.8367429 10.3675714,30.8367429 C13.6300286,30.8367429 15.7875429,28.5738 15.7875429,25.8374571 C15.7875429,22.4695714 13.6300286,21.0492 9.15702857,19.4694857 C4.15782,17.6824286 0,15.5238 0,9.57771429 C0,4.21056 4.31484857,0 9.94568571,0 Z"></path>
                                <path d="M32.9119714,34.9429714 C27.2284286,34.9429714 22.4928857,30.3644571 22.4928857,24.5754 C22.4928857,18.5765143 27.2811429,14.1035143 33.0702,14.1035143 C39.2798571,14.1035143 43.6473429,18.7347429 43.6473429,25.05 L43.6473429,32.7328286 C43.6473429,34.0488 42.5951143,34.9429714 41.3847429,34.9429714 C40.1215714,34.9429714 39.0689143,34.0488 39.0689143,32.7328286 L39.0689143,25.2070286 C39.0689143,21.0492 36.7008,18.2074286 32.9647714,18.2074286 C29.6495143,18.2074286 27.0186857,20.9964857 27.0186857,24.5754 C27.0186857,27.8906571 29.5968,30.7324286 32.8604571,30.7324286 C34.071,30.7324286 34.5972,30.4171714 35.3342571,30.4171714 C36.3339429,30.4171714 37.3862571,31.2586286 37.3862571,32.4691714 C37.3851429,34.1004 35.4373714,34.9429714 32.9119714,34.9429714 Z"></path>
                                <path d="M56.6142857,50.6250857 C50.7199714,50.6250857 45.8262,46.4144571 45.8262,40.9417714 C45.8262,39.0996857 46.8784286,38.2583143 48.0891429,38.2583143 C49.2994286,38.2583143 50.2992,39.0481714 50.3520857,40.5738857 C50.4046286,43.9945714 53.1409714,46.5199714 56.5617429,46.5199714 C60.1933714,46.5199714 62.5604571,44.2044857 62.5604571,41.2042286 C62.5604571,37.7834571 59.9295429,36.3632571 55.4565429,34.9417714 C50.2466571,33.2577429 45.8262,30.9421714 45.8262,24.5226 C45.8262,18.6281143 50.3520857,14.1035143 56.2452857,14.1035143 C62.1913714,14.1035143 67.0863429,18.4183714 67.0863429,24.1019143 C67.0863429,27.5754 65.6661429,30.2589429 63.7182,30.2589429 C62.4024,30.2589429 61.5081429,29.3121429 61.5081429,28.1543143 C61.5081429,26.9437714 62.5604571,26.4175714 62.5604571,24.2601429 C62.5604571,20.6285143 59.7186,18.2086286 56.2978286,18.2086286 C52.9825714,18.2086286 50.3520857,20.7351429 50.3520857,24.0504 C50.3520857,27.7863429 53.0355429,29.3659714 57.456,30.8390571 C62.5604571,32.523 67.0863429,34.6277143 67.0863429,40.7848286 C67.0863429,46.3100571 62.7187714,50.6250857 56.6142857,50.6250857 Z"></path>
                                <path d="M80.0017714,34.9430571 C74.1071143,34.9430571 69.2661429,30.3118286 69.2661429,24.5238857 C69.2661429,18.7348286 73.9501714,14.1048 79.7378571,14.1048 C85.5799714,14.1048 90,18.1571143 90,23.3145429 C90,25.3137429 88.5797143,26.5242857 86.2645714,26.5242857 L80.2127143,26.5242857 C79.002,26.5242857 78.1077429,25.6829143 78.1077429,24.5766 C78.1077429,23.5242857 79.002,22.6817143 80.2127143,22.6817143 L84.7382571,22.6817143 C85.1591143,22.6817143 85.4755714,22.4707714 85.4755714,22.0500857 C85.4755714,20.5242857 83.5279714,18.1559143 79.8973714,18.1559143 C76.5295714,18.1559143 73.7931429,21.0504857 73.7931429,24.5238857 C73.7931429,28.0500857 76.5821143,30.8391429 80.0553429,30.8391429 C84.0553714,30.8391429 85.3711714,28.4707714 87.0025714,28.4707714 C88.3714286,28.4707714 89.1068571,29.3649429 89.1068571,30.3657429 C89.1068571,31.3126286 88.4751429,32.1552 86.8971429,33.1548 C85.3160571,34.1532 82.9490571,34.9430571 80.0017714,34.9430571 Z"></path>
                            </g>
                        </g>
                    </g>
                </g>
            </g>
        </g>
    </g>
</svg>