<svg clip-rule="evenodd" fill-rule="evenodd" stroke-linejoin="round" stroke-miterlimit="1.41421" viewBox="0 0 210 37" xmlns="http://www.w3.org/2000/svg"><g fill-rule="nonzero"><path d="m141.33 1v22.8a5.245 5.245 0 0 0 1.35 3.95c.89.85 2.38 1.31 4.5 1.35l.47-2.82a9.013 9.013 0 0 1 -1.35-.28 2.093 2.093 0 0 1 -.9-.5 1.807 1.807 0 0 1 -.47-.85 5.225 5.225 0 0 1 -.15-1.37v-22.28zm32.57 0v27.2c.79.22 1.79.43 3 .65 1.405.228 2.827.335 4.25.32 1.364.022 2.72-.209 4-.68a8.48 8.48 0 0 0 3-1.95 8.598 8.598 0 0 0 1.92-3.1c.479-1.313.716-2.702.7-4.1a13.065 13.065 0 0 0 -.58-4 8.933 8.933 0 0 0 -1.67-3.12 7.639 7.639 0 0 0 -2.72-2 8.848 8.848 0 0 0 -3.68-.73 9.175 9.175 0 0 0 -2.95.45 9.482 9.482 0 0 0 -1.9.82v-9.76zm-98.47 1.1a2.242 2.242 0 0 0 -1.57.6 2 2 0 0 0 -.63 1.6 2.099 2.099 0 0 0 .63 1.63 2.459 2.459 0 0 0 3.15 0 2.129 2.129 0 0 0 .65-1.62 2.06 2.06 0 0 0 -.66-1.61 2.253 2.253 0 0 0 -1.57-.6zm-13.85 7.35a8.204 8.204 0 0 0 -5.15 1.45 4.765 4.765 0 0 0 -1.87 4 4.332 4.332 0 0 0 1.63 3.63c.532.43 1.121.783 1.75 1.05.68.3 1.38.61 2.13.9 1.159.415 2.266.962 3.3 1.63a2.262 2.262 0 0 1 1 1.95 1.795 1.795 0 0 1 -1 1.72 6.858 6.858 0 0 1 -3.12.55 11.114 11.114 0 0 1 -3.45-.43l-1.82-.62v3.1c.34.12.75.25 1.27.4 1.31.31 2.655.444 4 .4a10.001 10.001 0 0 0 5.63-1.32 4.475 4.475 0 0 0 2-4 5.518 5.518 0 0 0 -.4-2.25 4.349 4.349 0 0 0 -1.15-1.57 7.73 7.73 0 0 0 -1.93-1.14c-.72-.32-1.51-.66-2.42-1-.69-.24-1.28-.46-1.78-.68a6.062 6.062 0 0 1 -1.25-.7 2.47 2.47 0 0 1 -.72-.85 2.372 2.372 0 0 1 -.25-1.1 1.843 1.843 0 0 1 1.07-1.75 5.377 5.377 0 0 1 2.52-.55c.949-.02 1.897.081 2.82.3a8.88 8.88 0 0 1 1.73.6v-3.1l-.12-.07c-.36-.1-.78-.19-1.25-.27s-1-.17-1.5-.23a15.366 15.366 0 0 0 -1.62-.07zm97.7 0a19.922 19.922 0 0 0 -3.37.27 12.97 12.97 0 0 0 -1.77.43v2.9c.611-.214 1.24-.371 1.88-.47.99-.174 1.994-.258 3-.25a5.275 5.275 0 0 1 2.17.4c.51.219.957.563 1.3 1 .324.43.553.924.67 1.45.12.542.18 1.095.18 1.65v.95c-.1 0-.28-.08-.53-.12l-.85-.15c-.33-.06-.68-.11-1.05-.15s-.73 0-1.07 0a14.417 14.417 0 0 0 -3.12.33 7.987 7.987 0 0 0 -2.57 1 5.055 5.055 0 0 0 -1.75 1.82 5.236 5.236 0 0 0 -.65 2.68c-.028.953.16 1.9.55 2.77a4.738 4.738 0 0 0 1.55 1.88 6.76 6.76 0 0 0 2.38 1c.984.227 1.991.338 3 .33.76 0 1.52 0 2.3-.1s1.48-.13 2.15-.2 1.27-.14 1.8-.23l1.25-.2v-11.79c.01-.989-.114-1.975-.37-2.93a5.443 5.443 0 0 0 -3.58-3.72 10.246 10.246 0 0 0 -3.5-.52zm43.8 0a8.13 8.13 0 0 0 -5.08 1.45 4.782 4.782 0 0 0 -1.9 4 4.502 4.502 0 0 0 1.62 3.63c.54.429 1.135.782 1.77 1.05.68.3 1.39.61 2.13.9a15.75 15.75 0 0 1 3.28 1.63 2.282 2.282 0 0 1 1 1.95c.043.721-.353 1.4-1 1.72a6.871 6.871 0 0 1 -3.12.55 11.144 11.144 0 0 1 -3.45-.43c-.85-.28-1.45-.5-1.85-.65v3.13c.34.11.77.25 1.3.4 1.31.31 2.655.444 4 .4a10.001 10.001 0 0 0 5.63-1.32 4.485 4.485 0 0 0 2-4 5.585 5.585 0 0 0 -.4-2.25 4.446 4.446 0 0 0 -1.18-1.57 7.594 7.594 0 0 0 -1.82-1.15c-.71-.32-1.51-.66-2.43-1-.69-.24-1.28-.46-1.77-.68a5.946 5.946 0 0 1 -1.25-.7 2.44 2.44 0 0 1 -.73-.85 2.412 2.412 0 0 1 -.25-1.1c-.027-.747.4-1.44 1.08-1.75a5.27 5.27 0 0 1 2.5-.55c.959-.02 1.916.081 2.85.3a9.011 9.011 0 0 1 1.7.57v-3.05l-.15-.05c-.36-.1-.78-.19-1.25-.27s-1-.17-1.53-.23a15.366 15.366 0 0 0 -1.62-.07zm-112 .07c-1.089.033-2.175.14-3.25.32-1.3.22-2.34.41-3.13.6v18.29h3.4v-15.88c.1 0 .3-.08.6-.12l1-.12c.36 0 .73 0 1.13-.07s.75-.05 1.1-.05a4.751 4.751 0 0 1 2 .38 2.86 2.86 0 0 1 1.25 1.13 5.7 5.7 0 0 1 .65 2c.14.943.207 1.896.2 2.85v9.85h3.43v-10.55a18.098 18.098 0 0 0 -.15-2.35 12.44 12.44 0 0 0 -.45-2 5.777 5.777 0 0 1 1.55-.83 7.702 7.702 0 0 1 2.85-.45 4.913 4.913 0 0 1 2.07.38c.517.234.953.617 1.25 1.1a5.47 5.47 0 0 1 .63 2c.126.945.186 1.897.18 2.85v9.85h3.43v-10.55a19.747 19.747 0 0 0 -.28-3.45 6.83 6.83 0 0 0 -1.09-2.7 5.194 5.194 0 0 0 -2.2-1.8 8.895 8.895 0 0 0 -3.62-.63 9.202 9.202 0 0 0 -2.15.23c-.611.144-1.213.328-1.8.55a9.427 9.427 0 0 0 -1.37.63c-.37.22-.63.38-.8.5a5.524 5.524 0 0 0 -2.13-1.48 8.559 8.559 0 0 0 -3.1-.48h-1.22zm33.13 0a21.22 21.22 0 0 0 -3.07.32c-1.22.23-2.24.46-3.05.65v24.94h3.45v-7.53a9.32 9.32 0 0 0 1.9.82 9.04 9.04 0 0 0 2.93.43 8.994 8.994 0 0 0 3.7-.73 7.582 7.582 0 0 0 2.7-2 8.872 8.872 0 0 0 1.7-3.1 12.99 12.99 0 0 0 .55-4 11.64 11.64 0 0 0 -.68-4.1 8.217 8.217 0 0 0 -5-5.05 10.832 10.832 0 0 0 -4-.68h-1.18zm-50.45.4v18.8h3.45v-18.79zm108 2.53a5.618 5.618 0 0 1 2.52.52 4.686 4.686 0 0 1 1.72 1.46 6 6 0 0 1 1 2.17c.197.896.291 1.812.28 2.73a7.172 7.172 0 0 1 -1.65 5.07 5.8 5.8 0 0 1 -4.45 1.8c-.775.009-1.55-.031-2.32-.12a11.626 11.626 0 0 1 -1.48-.28v-11.9a7.222 7.222 0 0 1 1.82-1 6.898 6.898 0 0 1 2.58-.47zm-56.43.07a5.83 5.83 0 0 1 4.45 1.77 7.083 7.083 0 0 1 1.65 5c.004.909-.097 1.815-.3 2.7a6.058 6.058 0 0 1 -1 2.17 4.58 4.58 0 0 1 -1.72 1.45 5.58 5.58 0 0 1 -2.53.53 7.512 7.512 0 0 1 -4.4-1.45v-11.81c.45-.118.908-.201 1.37-.25a20.754 20.754 0 0 1 2.43-.1zm34.77 7.48c.669-.007 1.338.036 2 .13.413.048.818.156 1.2.32v5.6a9.988 9.988 0 0 1 -1.57.2h-2.15a6.304 6.304 0 0 1 -3.22-.7 2.693 2.693 0 0 1 -1.18-2.52 2.443 2.443 0 0 1 .47-1.58 3.331 3.331 0 0 1 1.2-.92 5.246 5.246 0 0 1 1.6-.45 14.905 14.905 0 0 1 1.65-.08z"/><path d="m20 21.33v15.07a18.249 18.249 0 0 0 12.9-7.24zm14.71 4.89a18.08 18.08 0 0 0 1.88-8c.019-9.402-7.227-17.36-16.59-18.22v17.29zm-32.87-15.95a18.074 18.074 0 0 0 -1.84 7.93c.006 9.377 7.234 17.302 16.57 18.17v-17.14zm14.73 4.92v-15.19a18.25 18.25 0 0 0 -12.95 7.32z" fill="#007df6"/></g></svg>