<?xml version="1.0" encoding="UTF-8" standalone="no"?>
<!DOCTYPE svg PUBLIC "-//W3C//DTD SVG 1.1//EN" "http://www.w3.org/Graphics/SVG/1.1/DTD/svg11.dtd">
<svg width="100%" height="100%" viewBox="0 0 76 76" version="1.1" xmlns="http://www.w3.org/2000/svg" xmlns:xlink="http://www.w3.org/1999/xlink" xml:space="preserve" xmlns:serif="http://www.serif.com/" style="fill-rule:evenodd;clip-rule:evenodd;">
    <g transform="matrix(1,0,0,1,-22,0)">
        <circle cx="60" cy="38" r="38" style="fill:rgb(235,80,39);"/>
        <circle cx="60" cy="38.343" r="27.443" style="fill:white;stroke:black;stroke-width:0.57px;"/>
        <path d="M87.73,51.568L91.657,50.915L93.574,51.639L93.924,50.711L92.008,49.987L89.492,46.901L89.095,47.952L90.893,50.068L90.874,50.118L88.127,50.516L87.73,51.568ZM81.497,60.835L82.685,59.623L86.012,62.883L86.702,62.178L83.375,58.918L84.563,57.705L83.968,57.122L80.901,60.252L81.497,60.835ZM73.008,71.216L76.257,69.682L75.901,68.927L73.552,70.037L72.912,68.681L75.075,67.66L74.719,66.906L72.555,67.927L71.919,66.579L74.249,65.478L73.893,64.724L70.663,66.249L73.008,71.216ZM60.653,68.469L59.658,68.469L59.658,73.961L60.653,73.961L60.653,68.469ZM50.256,68.973C50.663,67.811 50.152,66.752 49.07,66.196C47.794,65.539 46.354,65.975 45.543,67.554C44.732,69.131 45.202,70.551 46.49,71.213C47.651,71.811 48.808,71.455 49.423,70.593L48.534,70.129C48.127,70.644 47.494,70.726 46.91,70.425C46.118,70.018 45.856,69.133 46.432,68.012C46.999,66.91 47.877,66.586 48.676,66.997C49.269,67.302 49.562,67.878 49.364,68.515L50.256,68.973ZM37.847,62.917C39.289,61.882 39.507,60.392 38.668,59.222C37.826,58.05 36.347,57.781 34.904,58.816C33.464,59.85 33.242,61.339 34.083,62.511C34.923,63.681 36.404,63.952 37.847,62.917ZM37.263,62.104C36.248,62.833 35.331,62.719 34.809,61.991C34.288,61.265 34.472,60.358 35.487,59.629C36.503,58.901 37.421,59.017 37.942,59.743C38.464,60.47 38.279,61.376 37.263,62.104ZM30.608,50.415L30.9,51.327C31.778,51.027 32.162,50.073 31.806,48.96C31.455,47.861 30.573,47.234 29.649,47.532C28.898,47.772 28.637,48.444 28.69,49.376L28.728,50.02C28.765,50.63 28.708,51.06 28.303,51.192C27.855,51.332 27.42,51.004 27.223,50.386C27.033,49.793 27.152,49.248 27.689,49.035L27.391,48.102C26.363,48.473 26.026,49.434 26.415,50.652C26.816,51.907 27.675,52.434 28.598,52.142C29.504,51.85 29.678,50.969 29.613,50.123L29.579,49.593C29.544,49.131 29.577,48.608 30.015,48.474C30.409,48.35 30.811,48.611 31,49.203C31.181,49.768 31.037,50.225 30.608,50.415ZM85.506,21.758L87.199,24.928L87.934,24.535L86.711,22.243L88.033,21.537L89.159,23.647L89.895,23.254L88.769,21.144L90.084,20.442L91.298,22.715L92.033,22.323L90.351,19.171L85.506,21.758ZM79.296,8.865L80.663,9.871L77.902,13.623L78.696,14.208L81.458,10.456L82.825,11.463L83.319,10.791L79.791,8.193L79.296,8.865ZM64.326,8.268L67.698,8.798L67.828,7.974L65.438,7.599L66.161,2.997L65.178,2.843L64.326,8.268ZM50.711,9.33L54.166,8.342L53.937,7.541L51.439,8.255L51.027,6.813L53.327,6.156L53.098,5.354L50.798,6.011L50.388,4.578L52.866,3.87L52.637,3.068L49.202,4.049L50.711,9.33ZM36.852,10.88L36.037,11.606L41.132,14.423L42.05,13.606L39.845,8.217L39.027,8.944L40.836,13.122L40.794,13.159L36.852,10.88ZM30.186,20.538L30.612,19.68C29.773,19.284 28.832,19.701 28.312,20.748C27.799,21.78 27.994,22.845 28.865,23.274C29.571,23.625 30.226,23.325 30.837,22.619L31.26,22.131C31.658,21.668 31.998,21.399 32.381,21.587C32.8,21.798 32.883,22.336 32.594,22.917C32.317,23.474 31.853,23.783 31.318,23.562L30.883,24.439C31.878,24.888 32.79,24.434 33.359,23.288C33.945,22.109 33.697,21.132 32.831,20.699C31.977,20.278 31.238,20.788 30.695,21.441L30.351,21.845C30.054,22.2 29.667,22.553 29.258,22.344C28.89,22.158 28.783,21.691 29.06,21.134C29.324,20.604 29.745,20.376 30.186,20.538Z" style="fill:white;fill-rule:nonzero;"/>
        <circle cx="26.964" cy="35.894" r="0.856" style="fill:white;"/>
        <circle cx="92.694" cy="35.894" r="0.856" style="fill:white;"/>
        <path d="M74.618,22.866C70.73,17.33 63.05,15.69 57.499,19.209L47.748,25.392C46.432,26.215 45.303,27.301 44.433,28.582C43.562,29.863 42.97,31.311 42.693,32.832C42.227,35.401 42.635,38.05 43.852,40.362C43.018,41.622 42.45,43.037 42.181,44.521C41.903,46.077 41.94,47.672 42.29,49.213C42.639,50.754 43.295,52.209 44.219,53.494C48.107,59.03 55.786,60.671 61.338,57.152L71.089,50.995C72.403,50.17 73.531,49.083 74.401,47.803C75.271,46.522 75.864,45.075 76.143,43.554C76.608,40.987 76.199,38.338 74.98,36.028C75.814,34.768 76.384,33.353 76.655,31.869C76.933,30.314 76.896,28.719 76.546,27.178C76.196,25.637 75.541,24.181 74.618,22.896" style="fill:rgb(235,80,39);fill-rule:nonzero;"/>
        <path d="M56.725,53.794C55.182,54.184 53.554,54.104 52.06,53.563C50.566,53.022 49.278,52.046 48.37,50.768C47.812,50.007 47.416,49.144 47.205,48.231C46.994,47.318 46.973,46.373 47.142,45.451C47.197,45.152 47.275,44.856 47.375,44.568L47.559,44.018L48.062,44.384C49.219,45.209 50.511,45.836 51.883,46.24L52.258,46.346L52.224,46.713C52.188,47.216 52.333,47.715 52.634,48.125C52.908,48.509 53.296,48.802 53.746,48.965C54.196,49.127 54.686,49.152 55.151,49.034C55.363,48.978 55.566,48.892 55.752,48.777L65.534,42.683C65.774,42.535 65.98,42.34 66.139,42.11C66.297,41.881 66.405,41.621 66.454,41.348C66.505,41.07 66.497,40.785 66.433,40.51C66.368,40.235 66.248,39.975 66.079,39.746C65.805,39.361 65.417,39.068 64.966,38.905C64.516,38.743 64.026,38.719 63.562,38.836C63.349,38.891 63.146,38.978 62.961,39.093L59.204,41.421C58.59,41.802 57.92,42.088 57.217,42.272C55.677,42.66 54.052,42.579 52.561,42.039C51.07,41.499 49.784,40.526 48.877,39.251C48.321,38.488 47.927,37.625 47.717,36.712C47.507,35.799 47.487,34.854 47.656,33.933C47.822,33.03 48.179,32.169 48.705,31.408C49.231,30.646 49.914,30 50.71,29.511L60.523,23.417C61.134,23.037 61.8,22.75 62.499,22.566C64.04,22.175 65.668,22.255 67.162,22.797C68.655,23.338 69.942,24.313 70.85,25.591C71.408,26.352 71.805,27.215 72.016,28.128C72.228,29.041 72.25,29.987 72.082,30.908C72.023,31.21 71.945,31.507 71.849,31.799L71.661,32.349L71.161,31.983C70.002,31.152 68.706,30.519 67.33,30.113L66.954,30.006L66.988,29.639C67.031,29.134 66.89,28.63 66.59,28.217C66.314,27.839 65.927,27.552 65.48,27.394C65.033,27.236 64.547,27.215 64.088,27.333C63.875,27.388 63.672,27.475 63.487,27.59L53.686,33.673C53.446,33.821 53.241,34.015 53.083,34.244C52.924,34.474 52.816,34.732 52.765,35.004C52.716,35.283 52.724,35.568 52.789,35.844C52.853,36.12 52.973,36.38 53.141,36.61C53.414,36.991 53.799,37.282 54.245,37.445C54.691,37.607 55.177,37.633 55.639,37.52C55.851,37.463 56.054,37.377 56.24,37.263L59.997,34.938C60.611,34.554 61.283,34.265 61.988,34.084C63.529,33.692 65.157,33.772 66.65,34.312C68.144,34.852 69.431,35.827 70.339,37.105C70.897,37.867 71.293,38.729 71.505,39.642C71.716,40.556 71.739,41.501 71.571,42.422C71.405,43.326 71.048,44.187 70.522,44.948C69.996,45.71 69.313,46.356 68.517,46.845L58.716,52.939C58.1,53.321 57.429,53.609 56.725,53.794Z" style="fill:white;fill-rule:nonzero;"/>
        <path d="M51.513,17.563C52.256,17.367 53.718,17.58 54.828,18.083L54.441,20.316C54.441,20.316 52.656,19.646 52.04,18.815C51.866,18.579 52.268,18.099 52.268,18.099C52.268,18.099 51.659,18.12 51.598,18.644C51.537,19.168 51.864,19.656 54.485,20.557C57.105,21.458 56.896,22.604 59.057,24.04C61.356,25.568 63.175,26.417 65.834,27.711C68.494,29.005 72.129,29.44 73.8,29.322C75.421,29.207 76.777,28.815 77.648,28.557L78.518,24.791L78.918,24.862L79.059,24.062C81.459,24.485 83.507,26.909 83.013,29.709C82.227,34.163 77.033,34.302 73.433,33.743C64.632,32.19 49.166,22.821 49.82,19.111C50.067,17.711 50.77,17.758 51.513,17.563Z" style="fill-rule:nonzero;"/>
        <path d="M54.68,20.793L55.35,16.993L78.083,24.921L78.483,24.991C78.751,27.289 77.612,28.756 77.612,28.756C74.024,30.392 68.088,28.965 65.799,27.91C61.84,26.085 57.163,23.087 54.68,20.793Z" style="fill:rgb(235,80,39);fill-rule:nonzero;"/>
        <path d="M56.456,13.063C55.291,16.157 55.174,17.993 55.174,17.993C56.527,19.675 63.146,24.349 69.329,25.439C73.529,26.18 76.165,26.439 78.448,25.191L78.694,23.791L79.541,18.991C80.458,13.79 73.716,9.92 71.116,9.461C69.727,9.147 67.515,8.826 65.915,8.544C60.515,7.591 57.62,9.968 56.456,13.063Z" style="fill-rule:nonzero;"/>
        <path d="M79.496,31.072C82.733,30.222 83.052,27.928 82.671,26.967C83.46,28.344 82.792,30.803 79.226,31.739C76.855,32.362 71.818,32.095 62.21,26.04C69.042,29.845 74.85,32.293 79.496,31.072Z" style="fill:white;fill-rule:nonzero;"/>
    </g>
</svg>
