<svg clip-rule="evenodd" fill-rule="evenodd" stroke-linejoin="round" stroke-miterlimit="2" viewBox="0 0 286 55" xmlns="http://www.w3.org/2000/svg"><g fill="#fff" fill-rule="nonzero"><path d="m61.84 53.04h-7.59c-.29-1.23-.5-2.75-.65-4.27-2.02 3.4-6.07 5.21-10.84 5.21-6.65 0-14.45-3.33-14.45-14.96v-21.53h7.73v20.23c0 7.8 4.91 9.39 8.31 9.39 4.41 0 9.1-2.89 9.1-9.68v-19.87h7.73v28.98c0 1.88.29 4.84.65 6.5m13.55-42.85c-2.89 0-5.13-2.24-5.13-5.06s2.24-5.13 5.13-5.13 5.06 2.24 5.06 5.13-2.24 5.06-5.06 5.06m-3.83 7.37h7.66v35.48h-7.66zm45.04-7.37c-2.89 0-5.06-2.24-5.06-5.06s2.17-5.13 5.06-5.13 5.06 2.24 5.06 5.13-2.24 5.06-5.06 5.06m3.75 7.37v35.48h-7.66v-29.12h-13.08v29.12h-7.59v-29.12h-6.94v-6.36h6.94v-11.13h7.59v11.13zm7.62 17.71c0-10.77 7.3-18.72 18.28-18.72s18.28 7.95 18.28 18.72-7.3 18.64-18.28 18.64-18.28-7.87-18.28-18.64m7.73-.08c0 6.86 4.12 11.85 10.55 11.85s10.55-4.99 10.55-11.85-4.19-11.71-10.55-11.71-10.55 4.92-10.55 11.71m54.36-18.64c8.6 0 14.24 4.91 14.24 14.67v21.82h-7.66v-20.31c0-7.81-4.84-9.25-8.16-9.25-4.55 0-9.17 2.89-9.17 9.68v19.87h-7.66v-35.47h7.16l.29 4.12c2.02-3.11 6.15-5.13 10.98-5.13m28.77 37.57c-3.04 0-5.42-2.45-5.42-5.35s2.38-5.42 5.42-5.42 5.49 2.46 5.49 5.42-2.53 5.35-5.49 5.35m19.1-43.93c-2.89 0-5.13-2.24-5.13-5.06s2.24-5.13 5.13-5.13 5.06 2.24 5.06 5.13-2.24 5.06-5.06 5.06m-3.83 7.37h7.66v35.48h-7.66zm15.13 17.71c0-10.77 7.3-18.72 18.28-18.72s18.28 7.95 18.28 18.72-7.3 18.64-18.28 18.64-18.28-7.87-18.28-18.64m7.73-.08c0 6.86 4.12 11.85 10.55 11.85s10.55-4.99 10.55-11.85-4.19-11.71-10.55-11.71-10.55 4.92-10.55 11.71"/><path d="m10 6.92h-10v-6.85h29.53v6.85h-11.7l.13 46.12h-7.96z"/></g></svg>