<svg width="98" height="41" viewBox="0 0 98 41" fill="none" xmlns="http://www.w3.org/2000/svg">
<g clip-path="url(#clip0_1482_2625)">
<path opacity="0.5" d="M17.55 26.61C17.95 28.18 18.13 29.79 17.65 31.4C17.49 31.92 17.28 32.42 17.01 32.88C17.01 32.88 17.01 32.9 17.01 32.91H21.6C21.82 32.21 21.93 31.48 21.91 30.72C21.87 29.04 21.2 27.57 20.34 26.2C19.91 25.52 19.43 24.86 18.96 24.21C18.49 23.55 18.02 22.9 17.63 22.19C17.25 21.49 16.94 20.72 16.91 19.9C16.88 19.07 17.15 18.3 17.63 17.64C16.96 18.12 16.47 18.77 16.24 19.57C16.01 20.36 16.07 21.19 16.22 21.97C16.37 22.77 16.62 23.54 16.86 24.31C17.11 25.08 17.36 25.85 17.56 26.63L17.55 26.61Z" fill="white"/>
<path opacity="0.5" d="M21.31 14.94C21.66 14.2 21.91 13.44 22.16 12.67C22.41 11.9 22.66 11.13 22.96 10.38C23.56 8.88 24.36 7.47 25.7 6.45C27.01 5.45 28.62 4.99 30.24 5L25.72 1.72C24.18 2.21 22.79 3.14 21.85 4.5C20.9 5.89 20.57 7.47 20.46 9.08C20.41 9.89 20.41 10.7 20.41 11.5C20.41 12.31 20.41 13.11 20.3 13.92C20.2 14.71 20 15.52 19.54 16.2C19.07 16.89 18.41 17.36 17.62 17.61C18.44 17.61 19.22 17.38 19.88 16.87C20.53 16.36 20.97 15.66 21.31 14.94Z" fill="white"/>
<path opacity="0.5" d="M16.29 11.04C16.76 11.7 17.23 12.35 17.62 13.06C18 13.76 18.31 14.53 18.34 15.35C18.37 16.18 18.1 16.95 17.62 17.61C18.29 17.13 18.78 16.48 19.01 15.68C19.24 14.89 19.18 14.06 19.03 13.28C18.88 12.48 18.63 11.71 18.39 10.94C18.14 10.17 17.89 9.40001 17.69 8.62001C17.29 7.05001 17.11 5.44001 17.59 3.83001C18.06 2.25001 19.09 0.940005 20.41 -0.00999451H14.83C13.87 1.30001 13.29 2.86001 13.34 4.51001C13.38 6.19001 14.05 7.66001 14.91 9.03001C15.34 9.71001 15.82 10.37 16.29 11.02V11.04Z" fill="white"/>
<path opacity="0.5" d="M3.84 17.65C5.45 18.13 7.06 17.95 8.63 17.55C9.41 17.35 10.18 17.1 10.95 16.85C11.72 16.6 12.49 16.36 13.29 16.21C14.07 16.06 14.9 16.01 15.69 16.23C16.49 16.46 17.14 16.95 17.62 17.62C17.88 16.84 17.9 16.03 17.62 15.24C17.34 14.47 16.81 13.83 16.23 13.28C15.64 12.72 14.99 12.25 14.34 11.77C13.69 11.29 13.03 10.82 12.41 10.3C11.17 9.27 10.08 8.07 9.52 6.48C8.97 4.93 9.03 3.26 9.54 1.72L5.03 5C5.03 6.62 5.48 8.23 6.48 9.54C7.5 10.87 8.91 11.68 10.41 12.28C11.16 12.58 11.93 12.83 12.7 13.08C13.47 13.33 14.23 13.59 14.97 13.93C15.69 14.27 16.39 14.71 16.9 15.36C17.41 16.02 17.65 16.79 17.64 17.61C17.39 16.83 16.92 16.16 16.23 15.7C15.55 15.24 14.74 15.04 13.95 14.94C13.14 14.84 12.34 14.83 11.53 14.83C10.72 14.83 9.91 14.83 9.11 14.78C7.6 14.68 6.11 14.39 4.79 13.57L4.53 13.4C3.17 12.47 2.24 11.08 1.75 9.53L0.0299988 14.84C0.969999 16.16 2.29 17.19 3.87 17.66L3.84 17.65Z" fill="white"/>
<path opacity="0.5" d="M13.93 20.29C13.58 21.03 13.33 21.79 13.08 22.56C12.83 23.33 12.58 24.1 12.28 24.85C11.68 26.35 10.88 27.76 9.54999 28.78C9.49999 28.82 9.46999 28.86 9.42999 28.9L12.01 32.19C12.53 31.77 13.01 31.29 13.39 30.73C14.34 29.34 14.67 27.76 14.78 26.15C14.81 25.75 14.82 25.34 14.82 24.94V23.12C14.84 22.51 14.86 21.91 14.94 21.31C15.04 20.52 15.24 19.71 15.7 19.03C16.17 18.34 16.83 17.87 17.62 17.62C16.8 17.62 16.02 17.85 15.36 18.36C14.71 18.87 14.27 19.57 13.93 20.29Z" fill="white"/>
<path opacity="0.5" d="M31.4 17.59C29.79 17.11 28.18 17.29 26.61 17.69C25.83 17.89 25.06 18.14 24.29 18.39C23.52 18.64 22.75 18.88 21.95 19.03C21.17 19.18 20.34 19.23 19.55 19.01C18.75 18.78 18.1 18.29 17.62 17.62C18.28 18.11 19.05 18.37 19.88 18.34C20.7 18.31 21.47 18 22.17 17.62C22.88 17.23 23.54 16.76 24.19 16.29C24.85 15.82 25.5 15.34 26.18 14.91C27.55 14.05 29.02 13.38 30.7 13.34C32.35 13.3 33.92 13.88 35.22 14.84L33.5 9.53001C31.96 9.02001 30.29 8.96001 28.74 9.51001C27.15 10.07 25.96 11.16 24.92 12.4C24.4 13.02 23.93 13.68 23.45 14.33C22.97 14.98 22.49 15.63 21.94 16.22C21.39 16.8 20.76 17.33 19.98 17.61C19.2 17.9 18.38 17.88 17.6 17.62C17.85 18.4 18.31 19.07 19.01 19.54C19.69 20 20.5 20.2 21.29 20.3C22.1 20.4 22.9 20.41 23.71 20.41C24.52 20.41 25.33 20.41 26.13 20.46C27.74 20.57 29.33 20.89 30.71 21.85C32.07 22.78 33 24.17 33.49 25.72L35.21 20.41C34.27 19.09 32.95 18.06 31.37 17.59H31.4Z" fill="white"/>
<path opacity="0.5" d="M13.06 17.61C12.35 18 11.69 18.47 11.04 18.94C10.38 19.41 9.72999 19.89 9.04999 20.32C7.67999 21.18 6.20999 21.85 4.52999 21.89C2.87999 21.93 1.30999 21.36 0.00999451 20.39L1.72999 25.7C3.26999 26.21 4.93999 26.27 6.48999 25.72C8.07999 25.16 9.26999 24.07 10.31 22.83C10.83 22.21 11.3 21.55 11.78 20.9C12.26 20.25 12.74 19.6 13.29 19.01C13.84 18.43 14.47 17.9 15.25 17.62C16.03 17.33 16.85 17.35 17.63 17.62C16.97 17.13 16.2 16.87 15.37 16.89C14.55 16.92 13.78 17.23 13.08 17.61H13.06Z" fill="white"/>
<path opacity="0.5" d="M26.12 31.15L27.13 32.48L27.31 32.35L30.23 30.23C30.23 28.61 29.78 27 28.78 25.69C27.76 24.36 26.35 23.55 24.85 22.96C24.1 22.66 23.33 22.41 22.56 22.16C21.79 21.91 21.03 21.65 20.29 21.31C19.57 20.97 18.87 20.53 18.36 19.88C17.85 19.22 17.61 18.45 17.62 17.62C17.36 18.4 17.35 19.21 17.63 20C17.91 20.77 18.44 21.41 19.02 21.96C19.61 22.52 20.26 22.99 20.91 23.47C21.56 23.95 22.22 24.42 22.84 24.94C24.08 25.97 25.17 27.17 25.73 28.76C26.01 29.54 26.13 30.35 26.11 31.16L26.12 31.15Z" fill="white"/>
<path d="M16.54 26.18C16.44 26.45 16.29 26.64 16.08 26.76C15.87 26.88 15.65 26.93 15.42 26.9C15.2 26.88 14.98 26.79 14.75 26.65C14.53 26.51 14.36 26.35 14.27 26.19C13.63 28.19 12.99 29.98 12.35 31.59C12.2 31.96 12.05 32.21 11.88 32.35C11.71 32.48 11.49 32.52 11.22 32.47C10.58 32.35 10.11 31.9 9.8 31.09C9.27 29.7 8.74 28.21 8.21 26.63C7.62 27.89 7.03 29.06 6.44 30.18C6.24 30.57 6.05 30.81 5.89 30.91C5.73 31.01 5.52 31.02 5.25 30.93C4.67 30.74 4.19 30.14 3.82 29.13C2.94 26.72 2.05 24.13 1.17 21.53C1.09 21.3 0.989999 21.1 0.879999 20.93C0.769999 20.76 0.639999 20.59 0.479999 20.41C0.369999 20.28 0.289999 20.18 0.239999 20.1C0.189999 20.02 0.149999 19.95 0.139999 19.87C-8.12113e-07 19.45 0.159999 19.35 0.629999 19.57C1.82 20.12 3.01 20.61 4.2 21.04C4.42 21.12 4.6 21.23 4.73 21.37C4.86 21.51 4.95 21.67 4.98 21.85C5 21.94 5 22.02 4.98 22.08C4.96 22.15 4.93 22.21 4.9 22.26C4.83 22.36 4.78 22.45 4.76 22.56C4.74 22.66 4.76 22.82 4.83 23.02C5.26 24.38 5.69 25.72 6.13 27.01C6.57 26.14 7.01 25.23 7.45 24.28C7.4 24.15 7.36 24.01 7.31 23.88C7.24 23.67 7.15 23.48 7.05 23.33C6.94 23.18 6.81 23.02 6.65 22.85C6.53 22.72 6.45 22.62 6.39 22.55C6.34 22.48 6.3 22.4 6.28 22.32C6.14 21.89 6.3 21.75 6.77 21.89C7.96 22.24 9.16 22.54 10.35 22.79C10.57 22.84 10.75 22.92 10.89 23.05C11.03 23.18 11.11 23.33 11.15 23.51C11.18 23.66 11.15 23.81 11.06 23.96C10.99 24.07 10.95 24.19 10.93 24.3C10.91 24.41 10.93 24.57 10.98 24.77C11.32 25.97 11.65 27.12 11.99 28.22C12.33 27.16 12.68 26.04 13.02 24.85C13.19 24.28 13.39 23.87 13.63 23.66C13.87 23.45 14.23 23.37 14.7 23.42C15.13 23.47 15.51 23.66 15.85 23.98C16.19 24.31 16.41 24.72 16.53 25.22C16.62 25.61 16.62 25.94 16.53 26.2L16.54 26.18Z" fill="white"/>
<path d="M27.74 23.51C27.87 23.57 27.95 23.66 27.97 23.78C27.98 23.83 27.99 23.9 27.97 23.99C27.96 24.07 27.93 24.14 27.9 24.2C27.86 24.26 27.82 24.31 27.79 24.34C27.75 24.37 27.73 24.4 27.71 24.42C27.58 24.53 27.48 24.65 27.41 24.77C27.34 24.89 27.31 25.08 27.3 25.32C27.26 27.59 27.23 29.65 27.19 31.49C27.19 31.6 27.19 31.71 27.23 31.81C27.26 31.91 27.3 31.98 27.35 32.04C27.4 32.09 27.47 32.16 27.57 32.24C27.58 32.24 27.62 32.27 27.68 32.32C27.74 32.37 27.78 32.42 27.8 32.47C27.8 32.49 27.8 32.53 27.8 32.59C27.79 32.71 27.72 32.79 27.6 32.85C27.48 32.91 27.29 32.95 27.02 32.97C25.9 33.08 24.78 33.16 23.65 33.21C23.45 33.21 23.28 33.2 23.16 33.15C23.03 33.1 22.95 33.03 22.92 32.93C22.9 32.88 22.9 32.83 22.92 32.77C22.94 32.7 22.97 32.65 23.03 32.6C23.08 32.55 23.14 32.51 23.19 32.48C23.32 32.4 23.42 32.31 23.48 32.21C23.55 32.11 23.58 31.96 23.59 31.76C23.61 31.05 23.62 30.31 23.64 29.53C22.8 29.57 21.95 29.6 21.1 29.61C21.08 30.39 21.07 31.13 21.05 31.84C21.05 31.95 21.05 32.06 21.09 32.16C21.12 32.26 21.16 32.34 21.21 32.4C21.26 32.46 21.33 32.53 21.43 32.62C21.44 32.62 21.48 32.66 21.54 32.71C21.6 32.76 21.64 32.82 21.66 32.87C21.66 32.89 21.66 32.93 21.66 32.99C21.65 33.1 21.58 33.18 21.46 33.23C21.34 33.28 21.15 33.3 20.88 33.3C19.76 33.3 18.64 33.28 17.51 33.22C17.31 33.21 17.14 33.17 17.02 33.11C16.89 33.05 16.81 32.96 16.78 32.87C16.76 32.82 16.76 32.77 16.78 32.71C16.8 32.65 16.83 32.59 16.89 32.55C16.94 32.51 17 32.47 17.05 32.44C17.18 32.37 17.28 32.3 17.34 32.2C17.41 32.11 17.44 31.96 17.45 31.76C17.49 29.93 17.52 27.88 17.56 25.61C17.56 25.47 17.56 25.34 17.52 25.21C17.49 25.09 17.45 24.99 17.4 24.91C17.35 24.83 17.28 24.73 17.2 24.61C17.15 24.55 17.1 24.49 17.06 24.43C17.02 24.37 16.99 24.3 16.97 24.24C16.97 24.22 16.97 24.16 16.97 24.07C16.97 23.93 17.04 23.83 17.16 23.78C17.28 23.73 17.47 23.71 17.74 23.72C18.86 23.78 19.98 23.8 21.11 23.79C21.31 23.79 21.48 23.83 21.6 23.9C21.72 23.97 21.81 24.07 21.83 24.2C21.84 24.25 21.85 24.33 21.83 24.41C21.82 24.49 21.79 24.56 21.76 24.62C21.72 24.68 21.68 24.72 21.65 24.75C21.61 24.78 21.59 24.8 21.57 24.83C21.44 24.93 21.34 25.04 21.27 25.16C21.2 25.28 21.17 25.46 21.16 25.7C21.15 26.57 21.13 27.4 21.12 28.21C21.97 28.21 22.81 28.18 23.66 28.13C23.67 27.33 23.69 26.49 23.7 25.63C23.7 25.49 23.7 25.36 23.66 25.23C23.63 25.11 23.59 25.02 23.54 24.94C23.49 24.86 23.42 24.77 23.34 24.67C23.29 24.62 23.24 24.56 23.2 24.5C23.16 24.44 23.13 24.38 23.11 24.31C23.11 24.29 23.11 24.23 23.11 24.15C23.11 24.01 23.18 23.9 23.3 23.83C23.42 23.76 23.61 23.72 23.88 23.71C25 23.65 26.12 23.57 27.25 23.45C27.45 23.43 27.61 23.45 27.74 23.52V23.51Z" fill="white"/>
<path d="M33.96 22.62C34.09 22.67 34.16 22.75 34.2 22.87C34.21 22.92 34.22 22.99 34.2 23.07C34.19 23.15 34.16 23.22 34.13 23.28C34.09 23.34 34.05 23.39 34.02 23.43C33.98 23.46 33.96 23.49 33.94 23.51C33.81 23.63 33.71 23.75 33.64 23.88C33.57 24.01 33.54 24.19 33.53 24.43C33.5 26.66 33.48 28.72 33.45 30.61C33.45 30.72 33.45 30.83 33.49 30.93C33.52 31.03 33.56 31.11 33.62 31.17C33.67 31.23 33.75 31.29 33.84 31.35C33.96 31.44 34.03 31.52 34.05 31.58C34.05 31.6 34.05 31.64 34.05 31.71C34.05 31.83 33.99 31.92 33.87 31.99C33.75 32.06 33.56 32.11 33.29 32.16C32.17 32.35 31.05 32.51 29.92 32.66C29.72 32.69 29.56 32.68 29.43 32.64C29.3 32.6 29.22 32.53 29.19 32.44C29.17 32.39 29.17 32.34 29.19 32.28C29.19 32.19 29.24 32.11 29.31 32.05C29.38 31.99 29.42 31.96 29.44 31.95C29.57 31.85 29.66 31.75 29.73 31.65C29.8 31.55 29.84 31.4 29.84 31.19C29.87 29.33 29.9 27.27 29.93 25.01C29.93 24.87 29.93 24.74 29.89 24.62C29.86 24.51 29.82 24.42 29.77 24.34C29.72 24.27 29.65 24.18 29.57 24.09C29.45 23.97 29.38 23.86 29.36 23.78C29.36 23.75 29.35 23.69 29.35 23.6C29.35 23.46 29.41 23.35 29.53 23.28C29.65 23.21 29.84 23.15 30.1 23.12C31.22 22.97 32.34 22.8 33.47 22.61C33.67 22.58 33.83 22.58 33.96 22.63V22.62Z" fill="white"/>
<path d="M44.11 24.71C43.77 25.11 43.3 25.42 42.68 25.65C43.15 25.57 43.53 25.61 43.82 25.77C44.11 25.92 44.31 26.17 44.41 26.52C44.45 26.65 44.47 26.82 44.48 27.03C44.49 27.26 44.5 27.48 44.51 27.71C44.51 27.8 44.52 27.87 44.53 27.9C44.56 28.01 44.62 28.09 44.69 28.13C44.76 28.17 44.85 28.18 44.96 28.15C45.16 28.1 45.31 28.09 45.42 28.12C45.53 28.15 45.59 28.24 45.6 28.39C45.62 28.6 45.56 28.82 45.43 29.06C45.3 29.3 45.07 29.52 44.76 29.72C44.45 29.93 44.04 30.09 43.55 30.2C42.92 30.34 42.38 30.33 41.93 30.17C41.48 30.01 41.19 29.69 41.05 29.23C41 29.05 40.97 28.85 40.96 28.63C40.96 28.34 40.95 28.04 40.94 27.75C40.94 27.63 40.93 27.51 40.89 27.38C40.83 27.18 40.72 27.05 40.54 27C40.37 26.95 40.12 26.96 39.79 27.03C39.61 27.07 39.43 27.11 39.25 27.16C39.25 27.94 39.24 28.71 39.23 29.46C39.23 29.51 39.23 29.58 39.26 29.66C39.3 29.78 39.36 29.87 39.45 29.94C39.54 30.01 39.66 30.08 39.8 30.14C39.9 30.18 39.99 30.22 40.05 30.26C40.11 30.3 40.16 30.36 40.17 30.41C40.21 30.55 40.17 30.67 40.03 30.76C39.9 30.85 39.68 30.93 39.38 30.99C38.18 31.24 36.98 31.48 35.78 31.71C35.53 31.76 35.33 31.75 35.19 31.7C35.04 31.65 34.97 31.55 34.96 31.4C34.96 31.32 34.97 31.26 35.01 31.2C35.05 31.15 35.11 31.08 35.2 31C35.34 30.89 35.44 30.78 35.51 30.67C35.58 30.56 35.61 30.41 35.61 30.2C35.64 28.29 35.67 26.22 35.7 24.02C35.7 23.89 35.7 23.76 35.66 23.64C35.63 23.53 35.59 23.44 35.54 23.38C35.49 23.31 35.42 23.23 35.34 23.15C35.22 23.04 35.15 22.94 35.13 22.86C35.13 22.83 35.12 22.77 35.12 22.69C35.12 22.55 35.18 22.44 35.3 22.36C35.41 22.28 35.61 22.22 35.87 22.17C37.47 21.87 39.07 21.54 40.67 21.19C41.33 21.05 41.93 21.02 42.48 21.1C43.02 21.19 43.48 21.37 43.83 21.64C44.19 21.91 44.42 22.26 44.54 22.68C44.59 22.87 44.62 23.07 44.61 23.27C44.61 23.83 44.43 24.31 44.1 24.71H44.11ZM40.85 23.53C40.71 23.04 40.37 22.85 39.82 22.97C39.62 23.02 39.42 23.06 39.22 23.1C39.24 23.99 39.25 24.86 39.27 25.71C39.47 25.66 39.67 25.62 39.87 25.57C40.24 25.48 40.51 25.33 40.68 25.1C40.85 24.88 40.93 24.52 40.92 24.02C40.91 23.8 40.89 23.63 40.86 23.52L40.85 23.53Z" fill="white"/>
<path d="M54.19 23.93C54.36 24 54.47 24.13 54.52 24.32C54.54 24.4 54.55 24.5 54.55 24.6C54.55 25.17 54.53 25.75 54.53 26.33C54.52 26.76 54.42 27.08 54.24 27.3C54.06 27.51 53.75 27.67 53.31 27.77C51.07 28.29 48.82 28.83 46.58 29.36C46.38 29.41 46.21 29.41 46.09 29.38C45.96 29.35 45.88 29.28 45.85 29.17C45.83 29.12 45.83 29.06 45.85 28.99C45.85 28.91 45.89 28.84 45.94 28.78C45.99 28.72 46.05 28.65 46.11 28.59C46.24 28.47 46.33 28.35 46.4 28.23C46.47 28.11 46.51 27.94 46.51 27.72C46.54 25.68 46.57 23.61 46.6 21.52C46.6 21.39 46.6 21.27 46.56 21.17C46.53 21.07 46.49 20.99 46.44 20.93C46.39 20.87 46.32 20.8 46.24 20.72C46.12 20.62 46.05 20.54 46.03 20.46C46.03 20.43 46.02 20.38 46.02 20.3C46.02 20.17 46.09 20.07 46.2 19.99C46.31 19.91 46.51 19.84 46.77 19.77C47.89 19.5 49.01 19.23 50.14 18.97C50.34 18.92 50.5 18.91 50.63 18.94C50.76 18.97 50.83 19.04 50.87 19.14C50.88 19.18 50.89 19.24 50.87 19.32C50.86 19.39 50.83 19.45 50.8 19.51C50.76 19.57 50.72 19.62 50.69 19.65C50.65 19.68 50.63 19.71 50.61 19.73C50.48 19.85 50.38 19.97 50.31 20.09C50.24 20.21 50.21 20.38 50.2 20.6C50.16 22.75 50.13 24.93 50.09 27.12C50.39 27.05 50.68 26.97 50.98 26.9C51.2 26.85 51.38 26.76 51.52 26.65C51.66 26.54 51.78 26.36 51.9 26.12C52.12 25.67 52.35 25.21 52.57 24.76C52.69 24.52 52.83 24.33 52.97 24.19C53.11 24.06 53.3 23.96 53.54 23.9C53.81 23.83 54.03 23.83 54.19 23.9V23.93Z" fill="white"/>
<path d="M69.86 17.23C69.76 17.47 69.61 17.67 69.4 17.82C69.19 17.97 68.97 18.05 68.74 18.08C68.52 18.11 68.3 18.08 68.07 18.01C67.85 17.94 67.68 17.84 67.59 17.72C66.95 19.62 66.31 21.7 65.67 23.94C65.52 24.46 65.37 24.84 65.2 25.07C65.03 25.31 64.81 25.45 64.54 25.49C63.9 25.59 63.43 25.21 63.12 24.37C62.59 22.94 62.06 21.59 61.53 20.32C60.94 21.82 60.35 23.4 59.76 25.03C59.56 25.6 59.37 25.99 59.21 26.2C59.05 26.42 58.84 26.55 58.57 26.61C57.99 26.73 57.51 26.33 57.14 25.45C56.26 23.38 55.37 21.45 54.49 19.58C54.41 19.41 54.31 19.29 54.2 19.21C54.09 19.13 53.96 19.05 53.8 18.99C53.69 18.94 53.61 18.9 53.56 18.86C53.51 18.82 53.47 18.77 53.45 18.71C53.31 18.4 53.47 18.2 53.94 18.09C55.13 17.82 56.32 17.55 57.51 17.29C57.73 17.24 57.91 17.25 58.04 17.3C58.17 17.35 58.26 17.45 58.29 17.58C58.31 17.65 58.31 17.72 58.29 17.79C58.27 17.86 58.24 17.93 58.21 17.99C58.14 18.11 58.09 18.23 58.07 18.33C58.05 18.43 58.07 18.56 58.14 18.71C58.57 19.7 59 20.73 59.44 21.79C59.88 20.66 60.32 19.56 60.76 18.5C60.71 18.4 60.67 18.3 60.62 18.2C60.55 18.04 60.46 17.92 60.36 17.84C60.25 17.76 60.12 17.68 59.96 17.62C59.84 17.57 59.76 17.52 59.7 17.48C59.65 17.44 59.61 17.39 59.6 17.34C59.46 17.04 59.62 16.85 60.09 16.76C61.28 16.52 62.48 16.3 63.67 16.09C63.89 16.05 64.07 16.06 64.21 16.12C64.35 16.18 64.43 16.27 64.47 16.4C64.5 16.5 64.47 16.63 64.38 16.79C64.31 16.9 64.27 17.01 64.25 17.11C64.23 17.21 64.25 17.33 64.3 17.48C64.64 18.38 64.97 19.32 65.31 20.3C65.65 19.11 66 17.98 66.34 16.91C66.51 16.39 66.71 16.03 66.95 15.81C67.19 15.59 67.55 15.45 68.02 15.39C68.45 15.34 68.83 15.4 69.17 15.58C69.51 15.76 69.73 16.04 69.85 16.42C69.94 16.72 69.94 16.99 69.85 17.23H69.86Z" fill="white"/>
<path d="M74.9 14.95C75.03 15 75.1 15.07 75.14 15.17C75.15 15.21 75.16 15.26 75.14 15.33C75.13 15.39 75.1 15.44 75.07 15.49C75.03 15.54 74.99 15.57 74.96 15.59C74.92 15.61 74.9 15.63 74.88 15.65C74.75 15.73 74.65 15.82 74.58 15.91C74.51 16.01 74.48 16.15 74.47 16.35C74.44 18.19 74.42 20.25 74.39 22.54C74.39 22.68 74.39 22.81 74.43 22.94C74.46 23.07 74.5 23.17 74.56 23.26C74.61 23.34 74.69 23.43 74.78 23.53C74.9 23.67 74.97 23.78 74.99 23.87C74.99 23.89 74.99 23.95 74.99 24.04C74.99 24.2 74.93 24.31 74.81 24.37C74.69 24.44 74.5 24.47 74.23 24.48C73.11 24.53 71.99 24.6 70.86 24.7C70.66 24.72 70.49 24.7 70.37 24.63C70.24 24.57 70.16 24.47 70.13 24.34C70.11 24.28 70.11 24.21 70.13 24.13C70.14 24.01 70.18 23.91 70.25 23.84C70.32 23.77 70.36 23.73 70.38 23.71C70.51 23.59 70.6 23.47 70.67 23.35C70.74 23.23 70.78 23.04 70.78 22.79C70.81 20.51 70.84 18.45 70.87 16.6C70.87 16.49 70.87 16.38 70.83 16.28C70.8 16.19 70.76 16.12 70.71 16.06C70.66 16 70.59 15.94 70.51 15.86C70.39 15.76 70.32 15.68 70.3 15.62C70.3 15.6 70.29 15.55 70.29 15.49C70.29 15.38 70.36 15.3 70.47 15.25C70.58 15.19 70.78 15.15 71.04 15.13C72.16 15.03 73.28 14.96 74.41 14.91C74.61 14.91 74.77 14.92 74.9 14.97V14.95Z" fill="white"/>
<path d="M86.11 15.99C86.13 16.05 86.14 16.1 86.13 16.12C86.13 16.2 86.1 16.26 86.06 16.3C86.02 16.34 85.95 16.38 85.86 16.42C85.74 16.47 85.65 16.54 85.58 16.62C85.51 16.7 85.48 16.84 85.47 17.04C85.45 18.96 85.42 21.09 85.4 23.42C85.4 24.05 85.3 24.49 85.11 24.72C84.93 24.95 84.62 25.04 84.19 24.97C83.81 24.92 83.46 24.74 83.15 24.45C82.84 24.15 82.51 23.72 82.16 23.16C81.03 21.34 79.9 19.67 78.78 18.17C78.75 19.51 78.73 20.96 78.7 22.51C78.7 22.65 78.72 22.77 78.75 22.88C78.78 23.02 78.83 23.14 78.9 23.23C78.97 23.32 79.05 23.42 79.15 23.53C79.29 23.68 79.37 23.8 79.39 23.9C79.41 23.97 79.41 24.02 79.41 24.05C79.41 24.2 79.35 24.31 79.23 24.37C79.11 24.43 78.92 24.45 78.65 24.44C78.13 24.42 77.61 24.41 77.09 24.41C76.7 24.41 76.47 24.26 76.4 23.98C76.38 23.9 76.37 23.85 76.38 23.81C76.38 23.7 76.41 23.61 76.45 23.55C76.49 23.49 76.56 23.42 76.65 23.34C76.77 23.24 76.86 23.13 76.93 23.02C77 22.9 77.03 22.72 77.04 22.47C77.07 20.09 77.1 17.95 77.14 16.05C77.02 15.91 76.9 15.77 76.78 15.64C76.63 15.47 76.54 15.33 76.5 15.21C76.42 14.96 76.57 14.84 76.95 14.84C77.66 14.84 78.36 14.86 79.07 14.88C79.38 14.89 79.63 14.96 79.82 15.09C80.01 15.22 80.25 15.44 80.53 15.77C81.6 17.06 82.67 18.5 83.75 20.07C83.77 18.91 83.79 17.81 83.81 16.77C83.81 16.65 83.79 16.55 83.76 16.47C83.73 16.35 83.68 16.26 83.61 16.18C83.55 16.1 83.46 16.02 83.36 15.93C83.22 15.8 83.14 15.7 83.12 15.63C83.1 15.58 83.1 15.54 83.1 15.52C83.1 15.41 83.16 15.33 83.28 15.3C83.4 15.27 83.59 15.27 83.86 15.3C84.38 15.37 84.9 15.45 85.42 15.54C85.81 15.61 86.04 15.76 86.11 15.98V15.99Z" fill="white"/>
<path d="M95.43 19.24C96.3 20.15 96.88 21.24 97.17 22.45C97.31 23.05 97.38 23.69 97.37 24.37C97.35 25.47 97.16 26.25 96.8 26.73C96.44 27.21 95.86 27.42 95.07 27.4C94.28 27.38 93.19 27.11 91.83 26.66C90.53 26.24 89.23 25.88 87.93 25.58C87.73 25.53 87.56 25.46 87.44 25.36C87.31 25.26 87.23 25.14 87.2 25C87.18 24.93 87.18 24.86 87.2 24.79C87.2 24.69 87.23 24.63 87.27 24.6C87.31 24.57 87.38 24.52 87.46 24.47C87.59 24.4 87.69 24.32 87.75 24.22C87.81 24.12 87.85 23.94 87.85 23.7C87.88 21.48 87.91 19.44 87.95 17.56C87.95 17.45 87.95 17.33 87.91 17.22C87.88 17.12 87.84 17.03 87.79 16.95C87.74 16.87 87.67 16.78 87.59 16.68C87.47 16.54 87.4 16.44 87.38 16.37C87.38 16.34 87.37 16.3 87.37 16.23C87.37 16.12 87.44 16.06 87.55 16.04C87.67 16.02 87.86 16.04 88.12 16.1C89.41 16.4 90.7 16.75 91.99 17.18C93.42 17.65 94.57 18.36 95.45 19.27L95.43 19.24ZM93.42 20.16C93.28 19.62 93.09 19.2 92.83 18.93C92.57 18.65 92.24 18.45 91.85 18.31C91.75 18.27 91.64 18.24 91.53 18.21C91.51 20.38 91.48 22.69 91.46 25.16C91.57 25.2 91.69 25.24 91.8 25.27C92.24 25.42 92.58 25.44 92.83 25.34C93.08 25.24 93.27 24.95 93.39 24.48C93.51 24.01 93.58 23.29 93.6 22.33C93.6 21.44 93.54 20.72 93.4 20.16H93.42Z" fill="white"/>
<path d="M57.34 39.98C56.62 39.62 56 39.1 55.46 38.44C54.93 37.78 54.55 37 54.33 36.09C54.18 35.46 54.11 34.77 54.13 34.03C54.19 32.43 54.57 31.25 55.29 30.41C56.01 29.58 56.87 29.05 57.89 28.86C58.43 28.75 58.94 28.75 59.4 28.85C59.86 28.95 60.31 29.14 60.75 29.42C60.85 29.29 60.95 29.15 61.06 29.02C61.26 28.75 61.44 28.56 61.6 28.45C61.76 28.34 61.94 28.26 62.16 28.22C62.4 28.18 62.6 28.21 62.77 28.3C62.94 28.4 63.05 28.56 63.11 28.79C63.14 28.91 63.15 29.03 63.14 29.16C63.07 30.06 63 30.98 62.94 31.92C62.92 32.24 62.87 32.48 62.78 32.62C62.69 32.76 62.52 32.85 62.29 32.87C62.04 32.9 61.82 32.81 61.61 32.62C61.41 32.43 61.14 32.09 60.83 31.61C60.48 31.12 60.22 30.81 60.03 30.67C59.85 30.53 59.62 30.48 59.34 30.53C58.95 30.6 58.64 30.93 58.4 31.52C58.17 32.12 58.03 32.98 57.99 34.13C57.96 35.1 58.02 35.92 58.16 36.58C58.29 37.16 58.47 37.59 58.72 37.87C58.96 38.15 59.24 38.29 59.54 38.28C59.99 38.26 60.33 38.12 60.57 37.84C60.81 37.57 61.03 37.2 61.25 36.73C61.38 36.45 61.5 36.24 61.59 36.1C61.68 35.96 61.8 35.89 61.93 35.88C62.1 35.87 62.31 35.96 62.54 36.17C62.78 36.38 62.91 36.6 62.95 36.83C63.02 37.11 62.93 37.55 62.7 38.16C62.47 38.77 62.09 39.32 61.57 39.8C61.05 40.28 60.39 40.52 59.61 40.52C58.81 40.52 58.05 40.32 57.33 39.96L57.34 39.98Z" fill="white"/>
<path d="M74.84 27.05C74.97 27.13 75.05 27.24 75.07 27.37C75.08 27.43 75.09 27.51 75.07 27.6C75.06 27.68 75.03 27.76 75 27.83C74.96 27.9 74.92 27.95 74.89 27.98C74.85 28.01 74.83 28.04 74.81 28.06C74.68 28.17 74.58 28.3 74.51 28.44C74.44 28.58 74.41 28.79 74.4 29.07C74.36 31.75 74.33 34.66 74.29 37.78C74.29 37.97 74.29 38.15 74.33 38.33C74.36 38.51 74.4 38.65 74.45 38.75C74.5 38.85 74.57 38.99 74.67 39.15C74.68 39.17 74.72 39.22 74.78 39.32C74.84 39.42 74.88 39.52 74.9 39.62C74.9 39.65 74.9 39.72 74.9 39.84C74.89 40.05 74.82 40.2 74.7 40.28C74.58 40.36 74.39 40.4 74.12 40.4C73 40.4 71.88 40.4 70.75 40.4C70.55 40.4 70.38 40.35 70.26 40.25C70.13 40.15 70.05 40.01 70.02 39.83C70 39.74 70 39.65 70.02 39.55C70.04 39.43 70.07 39.34 70.13 39.25C70.18 39.17 70.24 39.1 70.29 39.04C70.42 38.91 70.52 38.76 70.58 38.59C70.65 38.42 70.68 38.17 70.69 37.83C70.71 36.64 70.72 35.48 70.74 34.36C69.9 34.4 69.05 34.44 68.2 34.49C68.18 35.6 68.17 36.73 68.15 37.89C68.15 38.07 68.15 38.25 68.19 38.41C68.22 38.58 68.26 38.71 68.31 38.81C68.36 38.91 68.43 39.03 68.53 39.19C68.54 39.2 68.58 39.26 68.64 39.35C68.7 39.44 68.74 39.54 68.76 39.64C68.76 39.67 68.76 39.74 68.76 39.86C68.75 40.06 68.68 40.2 68.56 40.28C68.44 40.36 68.25 40.4 67.98 40.4C66.86 40.4 65.74 40.4 64.61 40.4C64.41 40.4 64.24 40.35 64.12 40.26C63.99 40.16 63.91 40.04 63.88 39.87C63.86 39.79 63.86 39.7 63.88 39.61C63.9 39.5 63.93 39.41 63.99 39.34C64.04 39.27 64.1 39.2 64.15 39.15C64.28 39.03 64.38 38.89 64.44 38.73C64.51 38.57 64.54 38.33 64.55 38.01C64.59 35.13 64.62 32.42 64.66 29.88C64.66 29.73 64.66 29.58 64.62 29.45C64.59 29.33 64.55 29.22 64.5 29.14C64.45 29.06 64.38 28.97 64.3 28.87C64.25 28.82 64.2 28.77 64.16 28.71C64.12 28.65 64.09 28.59 64.07 28.53C64.07 28.51 64.07 28.45 64.07 28.36C64.07 28.21 64.14 28.1 64.26 28.02C64.38 27.94 64.57 27.88 64.84 27.84C65.96 27.68 67.08 27.53 68.21 27.41C68.41 27.39 68.57 27.41 68.7 27.48C68.83 27.55 68.91 27.65 68.93 27.77C68.94 27.83 68.95 27.9 68.93 28C68.92 28.08 68.89 28.16 68.86 28.23C68.82 28.3 68.78 28.35 68.75 28.38C68.71 28.41 68.69 28.44 68.67 28.47C68.54 28.59 68.44 28.72 68.37 28.86C68.3 29 68.27 29.21 68.26 29.48C68.25 30.47 68.23 31.5 68.22 32.55C69.07 32.49 69.91 32.43 70.76 32.38C70.77 31.31 70.79 30.27 70.8 29.26C70.8 29.1 70.8 28.95 70.76 28.8C70.73 28.67 70.69 28.56 70.64 28.47C70.59 28.38 70.52 28.28 70.44 28.17C70.39 28.11 70.34 28.06 70.3 27.99C70.26 27.93 70.23 27.86 70.21 27.79C70.21 27.77 70.21 27.71 70.21 27.61C70.21 27.46 70.28 27.34 70.4 27.27C70.52 27.2 70.71 27.15 70.98 27.12C72.1 27.03 73.22 26.96 74.35 26.92C74.55 26.92 74.71 26.95 74.84 27.03V27.05Z" fill="white"/>
<path d="M84.63 37.9C84.63 38.08 84.63 38.26 84.67 38.45C84.7 38.61 84.74 38.74 84.78 38.84C84.83 38.95 84.87 39.03 84.92 39.1C84.97 39.16 84.99 39.21 85.01 39.24C85.13 39.38 85.21 39.53 85.23 39.67C85.23 39.7 85.23 39.77 85.23 39.88C85.23 40.08 85.17 40.22 85.05 40.3C84.94 40.38 84.74 40.42 84.48 40.42C83.35 40.42 82.22 40.42 81.09 40.42C80.89 40.42 80.72 40.37 80.6 40.26C80.47 40.16 80.39 40.01 80.36 39.83C80.34 39.74 80.34 39.64 80.36 39.54C80.36 39.42 80.39 39.33 80.43 39.26C80.47 39.19 80.53 39.12 80.61 39.03C80.74 38.9 80.84 38.75 80.91 38.59C80.98 38.43 81.01 38.17 81.02 37.81C81.03 37.19 81.05 36.58 81.06 35.98C80.32 35.96 79.57 35.94 78.83 35.93C78.77 36.33 78.72 36.74 78.66 37.15C78.59 37.68 78.59 38.11 78.64 38.41C78.67 38.59 78.71 38.73 78.77 38.84C78.83 38.95 78.9 39.07 79 39.19C79.09 39.31 79.15 39.41 79.19 39.49C79.23 39.57 79.25 39.68 79.25 39.81C79.25 40.03 79.2 40.19 79.09 40.27C78.98 40.35 78.8 40.39 78.55 40.39H76.42C76.2 40.39 76.02 40.33 75.89 40.2C75.75 40.07 75.67 39.9 75.63 39.69C75.59 39.45 75.61 39.26 75.7 39.12C75.79 38.98 75.92 38.83 76.12 38.66C76.37 38.44 76.56 38.22 76.69 38.01C76.82 37.8 76.92 37.5 76.98 37.13C77.36 34.47 77.74 31.97 78.11 29.65C78.28 28.57 78.58 27.82 79.01 27.37C79.44 26.92 80.09 26.72 80.96 26.78C81.93 26.85 82.74 27.17 83.38 27.73C84.02 28.29 84.44 29.03 84.63 29.95C84.71 30.34 84.74 30.74 84.73 31.15C84.7 33.27 84.66 35.51 84.63 37.87V37.9ZM81.11 33.92C81.14 32.73 81.17 31.58 81.19 30.47C81.19 30.32 81.19 30.16 81.15 29.99C81.1 29.75 81.02 29.57 80.89 29.44C80.77 29.32 80.61 29.25 80.43 29.24C80.2 29.23 80.02 29.31 79.9 29.48C79.77 29.65 79.68 29.96 79.61 30.42C79.44 31.53 79.27 32.68 79.11 33.87C79.78 33.88 80.45 33.9 81.12 33.93L81.11 33.92Z" fill="white"/>
<path d="M95.92 30.99C95.96 31.14 95.97 31.32 95.97 31.53C95.96 31.93 95.95 32.33 95.94 32.73C95.93 33.1 95.87 33.34 95.75 33.46C95.64 33.58 95.43 33.6 95.15 33.52C94.91 33.45 94.71 33.33 94.55 33.15C94.39 32.97 94.21 32.71 94.03 32.36C93.9 32.11 93.76 31.85 93.63 31.59C93.51 31.35 93.39 31.18 93.29 31.08C93.19 30.98 93.04 30.9 92.86 30.84C92.75 30.81 92.64 30.78 92.53 30.75C92.5 33.16 92.46 35.67 92.43 38.31C92.43 38.46 92.45 38.6 92.48 38.72C92.51 38.86 92.55 38.99 92.61 39.08C92.66 39.18 92.74 39.28 92.83 39.39C92.95 39.56 93.02 39.7 93.05 39.8C93.05 39.82 93.05 39.88 93.05 39.98C93.04 40.13 92.97 40.24 92.84 40.31C92.72 40.38 92.53 40.42 92.27 40.41C91.15 40.41 90.03 40.41 88.9 40.4C88.7 40.4 88.53 40.35 88.41 40.26C88.28 40.16 88.2 40.03 88.17 39.85C88.15 39.77 88.15 39.69 88.17 39.61C88.19 39.49 88.21 39.4 88.25 39.34C88.29 39.28 88.35 39.21 88.44 39.12C88.56 39 88.65 38.88 88.72 38.73C88.79 38.59 88.82 38.37 88.83 38.07C88.86 35.17 88.89 32.44 88.92 29.88C88.81 29.86 88.7 29.84 88.59 29.81C88.38 29.77 88.22 29.78 88.1 29.84C87.98 29.9 87.87 30.03 87.77 30.24C87.67 30.46 87.56 30.69 87.45 30.92C87.3 31.22 87.14 31.44 86.97 31.58C86.8 31.72 86.59 31.78 86.36 31.75C86.14 31.72 85.95 31.62 85.8 31.46C85.65 31.29 85.54 31.08 85.49 30.81C85.46 30.68 85.45 30.55 85.45 30.4C85.45 29.85 85.47 29.3 85.47 28.76C85.47 28.43 85.51 28.19 85.57 28.03C85.63 27.87 85.74 27.77 85.9 27.72C86.06 27.67 86.3 27.67 86.63 27.73C89.41 28.22 92.2 28.95 94.98 29.97C95.51 30.16 95.83 30.51 95.94 31L95.92 30.99Z" fill="white"/>
</g>
<defs>
<clipPath id="clip0_1482_2625">
<rect width="97.36" height="40.54" fill="white"/>
</clipPath>
</defs>
</svg>
