<?xml version="1.0" encoding="UTF-8"?>
<svg id="uuid-bf8a7950-6dc0-4e0d-931a-32bf9c5f0756" data-name="Layer 2" xmlns="http://www.w3.org/2000/svg" viewBox="0 0 339.68 208.25">
  <g id="uuid-7c876f6d-e1ff-4f08-8375-fc859ffd8985" data-name="Layer 2">
    <g>
      <g>
        <path d="m209.97,190.67h-16.24l8.45-57.14h16.24l-8.45,57.14Zm-12.76-3h10.17l7.56-51.14h-10.17l-7.56,51.14Z" style="fill: #fff; stroke-width: 0px;"/>
        <path d="m232.34,191.37c-3.12,0-5.93-.89-8.34-2.65-2.37-1.72-4.21-4.05-5.49-6.91-1.25-2.81-1.89-5.91-1.89-9.2,0-2.72.45-5.53,1.34-8.36.91-2.88,2.53-5.67,4.84-8.28,2.33-2.63,5.62-4.78,9.78-6.38,4.11-1.58,9.22-2.38,15.19-2.38,2.49,0,4.57.1,6.19.28,1.59.19,3.87.52,6.78.99l1.47.24-6.44,41.96h-16l.27-1.56c-.52.34-1.04.65-1.54.93-1.64.88-3.71,1.33-6.16,1.33Zm15.43-41.17c-5.59,0-10.34.74-14.11,2.19-3.71,1.43-6.61,3.3-8.61,5.57-2.03,2.29-3.45,4.71-4.22,7.19-.8,2.54-1.2,5.05-1.2,7.46,0,2.87.55,5.56,1.63,7.98,1.06,2.38,2.58,4.3,4.51,5.71,1.92,1.4,4.07,2.08,6.58,2.08,1.95,0,3.54-.33,4.74-.97,1.31-.71,2.7-1.7,4.12-2.95l3.2-2.81-1.05,6.03h9.86l5.59-36.47c-2.17-.34-3.92-.59-5.18-.73-1.5-.17-3.47-.26-5.84-.26Zm-11.09,30.78c-2.16,0-3.93-.87-5.12-2.52-1.1-1.52-1.65-3.36-1.65-5.47,0-2.85.6-5.54,1.79-8,1.2-2.49,2.9-4.5,5.05-5.98,2.18-1.5,4.63-2.25,7.27-2.25h4.18l-3.27,20.71-.56.36c-1.73,1.13-3.14,1.91-4.29,2.38-1.23.5-2.37.76-3.4.76Zm7.34-21.21c-2.05,0-3.88.57-5.58,1.73-1.71,1.17-3.07,2.79-4.05,4.81-.99,2.05-1.49,4.3-1.49,6.69,0,1.49.35,2.7,1.08,3.71.63.87,1.48,1.27,2.69,1.27.63,0,1.4-.18,2.27-.53.85-.34,1.93-.93,3.23-1.76l2.51-15.92h-.67Z" style="fill: #fff; stroke-width: 0px;"/>
        <path d="m279.37,191.37c-1.44,0-3.17-.05-5.16-.16-1.98-.11-3.84-.26-5.53-.46-1.68-.2-3.85-.5-6.45-.89l-1.48-.22,8.18-56.12h16l-2.32,15.9c2.26-1.48,4.81-2.23,7.62-2.23,2.22,0,4.4.5,6.45,1.5,2.04.98,3.86,2.38,5.42,4.15,1.55,1.76,2.8,3.92,3.7,6.42.9,2.49,1.36,5.2,1.36,8.07,0,4.7-1.04,8.9-3.09,12.5-2.07,3.64-5.26,6.51-9.46,8.54-4.13,1.99-9.26,3-15.24,3Zm-15.21-4.25c1.92.28,3.56.5,4.88.65,1.62.19,3.42.34,5.33.44,1.93.1,3.61.15,5,.15,5.53,0,10.22-.91,13.94-2.7,3.65-1.76,6.39-4.22,8.16-7.32,1.79-3.14,2.69-6.84,2.69-11.02,0-2.52-.4-4.89-1.18-7.05-.78-2.14-1.83-3.98-3.13-5.46-1.29-1.47-2.79-2.62-4.47-3.43-1.65-.79-3.38-1.2-5.15-1.2-3.38,0-6.18,1.32-8.56,4.02l-3.34,3.8,3.14-21.49h-9.94l-7.37,50.59Zm16.31-6.61c-1.72,0-3.01-.05-3.93-.17l-1.53-.19,2.43-16.5.26-.32c2.58-3.17,5.43-4.77,8.47-4.77,2.03,0,3.79.76,5.24,2.25,1.43,1.48,2.16,3.7,2.16,6.59,0,8.57-4.53,13.1-13.1,13.1Zm-2.03-3.03c.58.02,1.26.03,2.03.03,6.89,0,10.1-3.21,10.1-10.1,0-2.08-.44-3.6-1.32-4.5-.87-.9-1.88-1.34-3.08-1.34-2,0-3.98,1.13-5.88,3.36l-1.85,12.56Z" style="fill: #fff; stroke-width: 0px;"/>
        <path d="m320.54,191.37c-1.44,0-3.39-.25-5.97-.75-2.59-.51-5.31-1.49-8.08-2.93l-.99-.51,2.21-12,1.71.69c2.86,1.16,5.08,2.01,6.6,2.53,1.4.48,2.92.72,4.52.72.48,0,1.13-.07,1.51-.39.35-.29.35-.47.35-.53,0-.42-.4-.87-.74-1.17-.77-.7-2.35-1.93-4.71-3.68-2.29-1.75-4.23-3.6-5.77-5.52-1.68-2.1-2.54-4.5-2.54-7.13,0-3.57,1.45-6.75,4.32-9.45,2.84-2.68,6.95-4.04,12.22-4.04,2.75,0,5.19.35,7.25,1.03,1.99.66,4.13,1.61,6.35,2.82l.88.48-1.3,12.53-1.94-.97c-1.86-.93-3.94-1.78-6.19-2.54-2.17-.73-3.87-1.09-5.05-1.09-.85,0-1.11.17-1.15.2,0,0,0,.05,0,.14,0,.22.04.51.4.89.32.34,1,.96,2.44,1.96,1.28.89,2.45,1.78,3.47,2.64,2.81,2.33,4.66,4.42,5.66,6.36,1,1.95,1.51,3.84,1.51,5.61,0,2.21-.65,4.44-1.92,6.63-1.28,2.2-3.23,4.02-5.8,5.41-2.54,1.38-5.66,2.08-9.25,2.08Zm-11.68-5.85c2.17,1.04,4.28,1.77,6.28,2.16,2.36.46,4.17.69,5.4.69,3.09,0,5.72-.58,7.82-1.71,2.07-1.12,3.63-2.56,4.63-4.28,1-1.73,1.51-3.45,1.51-5.12,0-1.29-.4-2.71-1.18-4.24-.8-1.55-2.46-3.38-4.92-5.43-.96-.81-2.05-1.64-3.26-2.48-1.35-.94-2.3-1.72-2.92-2.38-.79-.84-1.2-1.86-1.2-2.94,0-.78.3-3.34,4.16-3.34,1.53,0,3.49.41,6,1.25,1.63.55,3.18,1.14,4.64,1.79l.65-6.27c-1.75-.9-3.43-1.62-4.99-2.14-1.75-.58-3.87-.88-6.3-.88-4.48,0-7.9,1.08-10.16,3.22-2.27,2.14-3.38,4.52-3.38,7.27,0,1.96.61,3.68,1.88,5.25,1.39,1.73,3.15,3.42,5.23,5,2.45,1.81,4.07,3.08,4.92,3.85,1.14,1.04,1.72,2.18,1.72,3.4,0,.75-.25,1.84-1.41,2.83-.86.73-2.02,1.1-3.45,1.1-1.93,0-3.77-.3-5.49-.88-1.27-.43-2.93-1.06-5.05-1.9l-1.14,6.19Z" style="fill: #fff; stroke-width: 0px;"/>
      </g>
      <g>
        <path d="m91.42,150.95l-6.02,39.22h-12.93l.62-3.59c-1.51,1.33-2.98,2.38-4.39,3.14-1.42.77-3.24,1.15-5.45,1.15-2.81,0-5.3-.79-7.46-2.36-2.16-1.58-3.83-3.68-5-6.31-1.17-2.63-1.76-5.49-1.76-8.59,0-2.58.42-5.21,1.27-7.91.85-2.7,2.36-5.27,4.53-7.73,2.17-2.46,5.24-4.45,9.2-5.98,3.96-1.52,8.84-2.29,14.65-2.29,2.45,0,4.45.09,6.02.27,1.56.18,3.8.51,6.72.98Zm-14.06,8.32h-2.42c-2.34,0-4.49.66-6.43,1.99-1.94,1.33-3.46,3.12-4.55,5.39s-1.64,4.71-1.64,7.34c0,1.8.46,3.33,1.37,4.59.91,1.26,2.21,1.89,3.91,1.89.83,0,1.78-.21,2.83-.64s2.4-1.18,4.04-2.25l2.89-18.32Z" style="fill: #fff; stroke-width: 0px;"/>
        <path d="m101.73,154.1l2.23-10.73h12.89l-1.05,7.03c.88-.23,1.8-.39,2.73-.47.94-.16,1.88-.23,2.81-.23,2.92,0,5.49.48,7.71,1.43,2.23.95,4.08,2.29,5.55,4,1.47,1.72,2.57,3.68,3.3,5.88.73,2.2,1.09,4.59,1.09,7.17,0,4.12-.89,7.9-2.66,11.37-1.77,3.46-4.33,6.22-7.68,8.26-3.35,2.04-7.18,3.07-11.5,3.07-1.3,0-2.51-.12-3.61-.35-1.11-.23-2.3-.56-3.57-.98l-2.89,18.71h-12.97l5.96-39.47.29-1.9c-7.88,5.9-14.96,23.28-14.96,23.28l-2.9-14.36,5.56-3.01c0-1.22,6.48-9.7,6.48-9.7m30.85,4.92c0-2.6-.62-4.75-1.86-6.45-1.24-1.69-3.29-2.54-6.15-2.54-1.04,0-2.01.12-2.89.35l-3.16,20.7c.96.26,1.99.39,3.09.39,2.66,0,4.8-.63,6.45-1.89,1.64-1.26,2.81-2.84,3.5-4.75.69-1.9,1.04-3.84,1.04-5.82Z" style="fill: #fff; stroke-width: 0px;"/>
        <path d="m186.92,168.17c0,4.12-.89,7.9-2.66,11.37-1.77,3.46-4.33,6.22-7.68,8.26-3.35,2.04-7.18,3.07-11.5,3.07-1.3,0-2.51-.12-3.61-.35-1.11-.23-2.3-.56-3.57-.98l-2.89,18.71h-12.97l6.25-41.37-5.43,6.48c-.5.55-.87.92-1.11,1.13-.25.21-.54.31-.88.31-.81,0-1.21-.51-1.21-1.52,0-1.22.47-2.77,1.41-4.65s1.99-3.55,3.16-5.04,2.98-3.35,5.43-5.59l2.23-14.65h12.89l-1.05,7.03c.88-.23,1.8-.39,2.73-.47.94-.16,1.88-.23,2.81-.23,2.92,0,5.49.48,7.71,1.43,2.23.95,4.08,2.29,5.55,4,1.47,1.72,2.57,3.68,3.3,5.88.73,2.2,1.09,4.59,1.09,7.17Zm-13.59-.16c0-2.6-.62-4.75-1.86-6.45-1.24-1.69-3.29-2.54-6.15-2.54-1.04,0-2.01.12-2.89.35l-3.16,20.7c.96.26,1.99.39,3.09.39,2.66,0,4.8-.63,6.45-1.89,1.64-1.26,2.81-2.84,3.5-4.75.69-1.9,1.04-3.84,1.04-5.82Z" style="fill: #fff; stroke-width: 0px;"/>
        <path d="m151.88,143.37s-6.59,15.73-12.89,24.8-16.88,23.08-10.33,19.63,19.63-20.92,19.63-20.92l3.59-23.52Z" style="fill: #fff; stroke-width: 0px;"/>
      </g>
      <g>
        <path d="m52.44,150.4l-28.32,57.85h-12.58l7.45-15.2c1.26-2.57,1.92-5.4,1.93-8.26v-2.98s-.03-2.03-.03-2.03c-.06-3.5-.89-6.94-2.42-10.09l-2.76-5.67h-6.38v-13.63s1.36-6.99,6.92-1.92c13.3,12.15,10.55,29.71,14.64,21.27s8.91-19.36,8.91-19.36h12.66Z" style="fill: #fff; stroke-width: 0px;"/>
        <circle cx="9.32" cy="154.71" r="9.32" style="fill: #fff; stroke-width: 0px;"/>
      </g>
      <path d="m199.14,79.37c-3.66.96-7.57,1.19-11.54.51-2.32-.4-4.53-1.08-6.58-2.01-1.25-.56-2.41-1.29-3.53-2.07-3.45-2.38-11.12-6.47-17.46-6.47-5.66,0-10.91,1.73-15.27,4.67-.07.81-.11,1.62-.11,2.45,0,15.09,12.23,27.33,27.33,27.33,14.1,0,25.71-10.69,27.17-24.4Z" style="fill: #fff; stroke-width: 0px;"/>
      <path d="m185.1,7l-2.29.29v30.59l4.23,1.82c14.07,6.07,23.16,19.88,23.16,35.19,0,21.13-17.19,38.31-38.31,38.31s-38.31-17.19-38.31-38.31c0-15.31,9.09-29.13,23.16-35.19l4.23-1.82V7h24.14m4.71-7h-35.86s-.03,0-.05,0c-3.73,0-6.76,3.03-6.76,6.76s3.03,6.76,6.76,6.76c.02,0,.03,0,.05,0v19.77c-16.11,6.95-27.38,22.97-27.38,41.62,0,25.03,20.29,45.31,45.31,45.31s45.31-20.29,45.31-45.31c0-18.66-11.28-34.67-27.38-41.62V13.45c3.32-.43,5.89-3.26,5.89-6.69s-2.57-6.27-5.89-6.69v-.06h0Z" style="fill: #fff; stroke-width: 0px;"/>
    </g>
  </g>
</svg>