<svg width="1440" height="500" fill="none" xmlns="http://www.w3.org/2000/svg"><path fill="#F4F6F8" d="M0 0H1440V500H0z"/><mask id="a" maskUnits="userSpaceOnUse" x="0" y="0" width="1440" height="500"><path fill="#fff" d="M0 0H1440V500H0z"/></mask><g mask="url(#a)"><path opacity=".1" d="M922.22 173.786c-90.354-19.205-171.744-63.946-248.739-110.778C596.486 16.176 520.85-34.009 435.154-66.737 380.018-87.79 315.029-100.85 263.62-78.23c-49.474 21.826-72.767 70.308-88.819 116.329-12.057 34.62-22.069 71.523-12.108 107.684 6.914 25.106 23.021 48.022 32.621 72.598 33.389 85.491-16.62 174.84-80.862 241.24-30.117 31.16-63.8 60.033-88.876 94.396C.5 588.378-15.637 630.033-6.282 671.281 3 712.196 36.075 747.472 73.815 774.857c76.632 55.628 173.352 84.727 268.564 108.338 210.68 52.264 426.217 83.723 641.163 115.077 79.558 11.598 159.468 23.228 239.488 24.668 44.43.79 90.98-2.16 126.97-22.78 45.69-26.174 65.48-80.657 46.13-126.984-32.47-77.721-153.2-116.887-171.32-197.36-9.96-44.279 15.84-87.097 47.61-120.946 68.19-72.586 170.91-128.709 192.2-221.667 14.62-63.861-17.28-135.998-78.83-178.287-64.52-44.312-162.49-57.456-223.54-13.681-62.92 45.057-160.26 49.498-240.03 32.551z" fill="#1580F2"/><path fill="#F9FCFF" stroke="#F9FCFF" stroke-width="5" stroke-linejoin="round" d="M537 57H916V270H537z"/><g opacity=".8"><path d="M578 197.5h294.471M620 197.871s21.725 3.043 10.473-20.471C619.222 153.885 661 158.336 661 158.336m101 38.789s21.725-2.96 10.473 19.963C761.222 240.012 803 235.673 803 235.673" stroke="#3F3D56" stroke-width="3"/><circle cx="578" cy="198" r="13" fill="#1580F2"/><circle cx="660" cy="160" r="13" fill="#3ACC6C"/><circle cx="660" cy="198" r="13" fill="#1580F2"/><circle cx="711" cy="198" r="13" fill="#1580F2"/><circle cx="803" cy="237" r="13" fill="#FF6584"/><circle cx="868" cy="198" r="13" fill="#1580F2"/><path fill="#1580F2" d="M556 77H600V108H556z"/><path fill="#3ACC6C" d="M637 77H681V108H637z"/><path fill="#FF6584" d="M781 77H825V108H781z"/></g><path d="M969.056 469.407c-6.825-5.789-10.971-14.933-9.884-23.834 1.088-8.902 7.821-17.086 16.556-18.976 8.734-1.89 18.691 3.343 21.344 11.906 1.46-16.51 3.138-33.713 11.888-47.774 7.92-12.731 21.64-21.841 36.5-23.471 14.87-1.629 30.52 4.526 39.79 16.302 9.27 11.777 11.54 28.897 5.05 42.417-4.79 9.96-13.6 17.372-22.83 23.403a146.91 146.91 0 0 1-100.771 22.126" fill="#80BEFA"/><path d="M1070.54 372.339a241.484 241.484 0 0 0-33.59 33.493 243.023 243.023 0 0 0-37.841 63.484c-.681 1.676 2.031 2.406 2.701.748 15.23-37.344 39.54-70.259 70.71-95.734 1.4-1.145-.59-3.126-1.98-1.991z" fill="#fff"/><path d="M715 56c-.001.552-.37.998-.824 1h-.396a41.824 41.824 0 0 1-1.78-2h2.176c.454.002.823.448.824 1z" fill="#F2F2F2"/><path d="M489.271 214a8.674 8.674 0 0 1-5.779-2.177 8.579 8.579 0 0 1-2.917-6.195l-33.964-24.387a8.629 8.629 0 0 1-3.584-6.324 8.592 8.592 0 0 1 2.541-6.798l25.286-24.964a7.522 7.522 0 0 1 8.12-1.595c2.784 1.139 4.599 3.821 4.599 6.796a16.619 16.619 0 0 1-4.318 10.29l-17.168 16.951 26.947 21.206c.083-.005.166-.01.25-.01 4.619 0 8.436 3.558 8.701 8.11.265 4.553-3.114 8.519-7.703 9.041a9.23 9.23 0 0 1-1.011.056zm39.303 147l9.426-3.303L528.913 322 515 326.875 528.574 361z" fill="#FFB8B8"/><path d="M558.089 358.634l-28.43 10.614-4.1-10.984 17.834-6.658c5.852-2.185 12.366.788 14.551 6.639l.145.389z" fill="#2F2E41"/><path d="M448.001 362h8.809l4.19-37-13 .001.001 36.999z" fill="#FFB8B8"/><path d="M475.359 370.745l-30.346.002v-11.725l19.036-.001c6.246 0 11.31 5.063 11.31 11.309v.415zM457.943 353c-.109 0-.218-.005-.327-.016l-10.282-.978a3.432 3.432 0 0 1-3.107-3.317c-.593-22.236-2.088-134.463 26.83-160.18a3.35 3.35 0 0 1 1.784-.806c5.238-.717 22.91-2.476 30.39 5.038.474.473.803 1.072.947 1.726l32.744 151.198a3.432 3.432 0 0 1-2.93 4.128l-12.555 1.567a3.427 3.427 0 0 1-3.841-3.046c-1.249-12.154-8.755-73.889-33.91-95.772a2.708 2.708 0 0 0-2.531-.569 2.605 2.605 0 0 0-1.804 1.774c-4.657 15.217-19.716 67.084-17.986 95.618a3.42 3.42 0 0 1-.924 2.557 3.431 3.431 0 0 1-2.498 1.078z" fill="#2F2E41"/><circle cx="476.5" cy="107.5" r="18.5" fill="#FFB8B8"/><path d="M458 142.429s17.305-20.554 31.463-3.952a56.684 56.684 0 0 1 13.512 38.456L502.441 195l-32.642-5.138L458 142.429z" fill="#1580F2"/><path d="M505.172 181a9.632 9.632 0 0 1-7.556-3.625L476.565 150.9a7.159 7.159 0 0 1-.62-8.022c1.457-2.551 4.329-3.986 7.277-3.635l2.963.354a8.44 8.44 0 0 1 4.88 2.711l16.606 20.884 24.198-23.494c.004-.081.01-.161.019-.242.565-4.615 4.794-7.919 9.478-7.403 4.683.516 8.07 4.658 7.588 9.282-.481 4.624-4.65 8.001-9.342 7.567l-27.414 29.077a9.645 9.645 0 0 1-7.026 3.021z" fill="#FFB8B8"/><path d="M479.372 109.615l8.055-9.439c2.076-2.433 4.247-5.083 4.541-8.26.322-3.483-1.808-6.869-4.72-8.83-2.912-1.96-6.488-2.699-9.994-2.97-6.502-.502-13.345.567-18.69 4.284-5.346 3.717-8.843 10.427-7.54 16.784 1.027 5.005 4.808 9.799 3.338 14.694-1.608 5.355-8.203 6.998-13.588 8.595-9.039 2.68-17.67 7.958-22.407 16.07-4.736 8.113-4.716 19.299 1.599 26.268 4.088 4.513 10.255 6.794 16.353 7.138 6.097.343 12.167-1.085 17.949-3.039 5.326-1.799 10.595-4.114 14.787-7.843 4.193-3.729 7.214-9.066 7.083-14.659-.125-5.33-2.995-10.185-4.174-15.386a25.17 25.17 0 0 1 7.935-24.093" fill="#2F2E41"/><circle cx="967.5" cy="169.5" r="19.5" fill="#FFB8B8"/><path d="M906.868 463L897 459.981 904.436 422 919 426.457 906.868 463z" fill="#FFB8B8"/><path d="M891.444 454.53l18.713 5.964-3.669 11.512-29.794-9.497.137-.43a11.633 11.633 0 0 1 14.613-7.549z" fill="#2F2E41"/><path d="M975 463h-9.486L961 425h14v38z" fill="#FFB8B8"/><path d="M957.529 460H977v12h-31v-.449c0-3.063 1.215-6.001 3.377-8.168a11.52 11.52 0 0 1 8.152-3.383zm18.534-10.038l-3.374-.502c-10.235-1.52-10.847-1.611-12.472-2.322-.83-.364-.888-5.856-.39-36.728.365-22.662.821-50.865-.063-66.006a2.665 2.665 0 0 0-2.203-2.461 2.672 2.672 0 0 0-2.914 1.562c-7.615 17.534-20.391 56.772-28.845 82.736-2.941 9.032-5.264 16.166-6.733 20.442a3.455 3.455 0 0 1-4.087 2.205c-6.957-1.734-6.492-2.471-16.402-5.026a3.417 3.417 0 0 1-2.505-4.02c1.793-8.428 34.592-145.068 37.102-158.057a3.427 3.427 0 0 1 1.457-2.201 3.444 3.444 0 0 1 2.593-.517c7.385 1.483 11.878 3.057 19.175 4.579 7.875 1.642 16.017 3.341 23.96 4.926.79.158 1.499.591 1.999 1.221 1.965 2.475 4.879 3.864 7.965 5.335 2.08.991-2.634.902-.822 2.332 7.336 5.79-3.214 123.367-9.588 149.922a3.445 3.445 0 0 1-3.853 2.58z" fill="#2F2E41"/><path d="M969.168 318.203a7.346 7.346 0 0 1 1.333-6.015 7.183 7.183 0 0 1 5.417-2.828l16.09-18.36 9.992 12.203-18.504 13.665c-.096 3.71-2.922 6.76-6.577 7.101-3.656.34-6.985-2.137-7.751-5.766z" fill="#FFB8B8"/><path d="M975.708 185.705c-1.156-4.902 4.689-15.452 3.533-20.354-.783-3.321-8.597-1.063-10.42-3.947-1.824-2.884-4.878-5.22-8.291-5.259-3.924-.044-7.785 2.865-11.501 1.608-3.758-1.271-4.96-6.414-3.298-10.014 1.661-3.6 5.24-5.894 8.777-7.691 6.021-3.061 13.033-5.297 19.478-3.272 3.896 1.225 7.153 3.878 10.305 6.472 2.874 2.365 5.796 4.784 7.805 7.916 3.935 6.136 3.697 14.403.334 20.869-3.362 6.467-9.49 11.212-16.242 13.967" fill="#2F2E41"/><path d="M926.401 301.326c2.14-3.597 5.389-20.45 9.396-48.737 2.728-19.311 5.104-38.931 6.283-48.954a4.822 4.822 0 0 1 2.69-3.803 67.521 67.521 0 0 1 2.282-1.055c9.766-4.273 19.662-5.689 29.413-4.209a53.206 53.206 0 0 1 26.385 12.097l.09.085.02.12c.05.223 4.14 22.427-4.247 37.429-8.273 14.801-8.37 54-8.37 54.394v.504l-.481-.138c-12.871-3.7-62.587 2.773-63.088 2.839L926 302l.401-.674z" fill="#CCC"/><path d="M981 303.303l24.69-33.552-12.731-27.807.925-32.978L1004.32 207l.11.057c5.07 3.022 9 7.689 11.17 13.256 2.32 5.908 7.13 26.01 10.75 41.833 1.93 8.281-.51 16.987-6.43 22.984L989.625 316 981 303.303z" fill="#CCC"/><path d="M872.327 236.828c1.208-1.614 3.112-2.641 5.201-2.805 2.089-.164 4.148.552 5.623 1.955l23.849-.346L904.866 250l-22.08-4.204c-2.726 2.226-6.79 2.179-9.458-.109-2.669-2.287-3.099-6.093-1.001-8.859z" fill="#FFB8B8"/><path d="M885 251.371l3.509-15.392 42.581-4.149 11.672-28.14.342-.831 4.588-3.966.097-.061c9.914-4.322 19.962-5.755 29.863-4.257l.348.052-.022.352a27.768 27.768 0 0 1-2.715 10.371c-4.405 9.157-31.505 48.085-31.778 48.477l-.121.173L885 251.371z" fill="#CCC"/><path d="M1087.24 473H796.762c-.421 0-.762-.448-.762-1s.341-1 .762-1h290.478c.42 0 .76.448.76 1s-.34 1-.76 1zM638.238 371H347.762c-.421 0-.762-.448-.762-1s.341-1 .762-1h290.476c.421 0 .762.448.762 1s-.341 1-.762 1z" fill="#3F3D56"/></g></svg>