<svg xmlns="http://www.w3.org/2000/svg" width="590" height="100" class="d-none d-lg-inline" viewBox="0 0 590 306.459"><title>Emergent Tree</title><path d="M-383.097 11.773c0 6.503-24.905 11.774-55.628 11.774-30.722 0-55.628-5.271-55.628-11.774C-494.353 5.271-469.447 0-438.725 0c30.723 0 55.628 5.27 55.628 11.773" style="fill:#fff;stroke-width:1.33288"/><path fill="#f4a261" d="M-371.296 42.738c0 7.478-30.188 13.539-67.428 13.539-37.239 0-67.427-6.061-67.427-13.539 0-7.477 30.188-13.54 67.427-13.54 37.24 0 67.428 6.063 67.428 13.54" style="fill:#fff;stroke-width:1.33288"/><path fill="#e9c46a" d="M-383.097 72.893c0 6.156-24.904 11.147-55.628 11.147-30.722 0-55.628-4.99-55.628-11.147 0-6.156 24.906-11.146 55.628-11.146 30.724 0 55.628 4.99 55.628 11.146" style="fill:#fff;stroke-width:1.33288"/><path d="M-394.896 98.438c0 5-19.623 9.055-43.828 9.055-24.205 0-43.828-4.055-43.828-9.055s19.623-9.055 43.828-9.055c24.205 0 43.828 4.055 43.828 9.055M-509.598 106.526c0 5-19.623 9.055-43.828 9.055-24.205 0-43.828-4.055-43.828-9.055s19.623-9.055 43.828-9.055c24.205 0 43.828 4.055 43.828 9.055M-497.798 132.814c0 6.502-24.905 11.773-55.628 11.773-30.722 0-55.628-5.27-55.628-11.773s24.906-11.774 55.628-11.774c30.723 0 55.628 5.271 55.628 11.774M-509.598 159.101c0 5-19.623 9.055-43.828 9.055-24.205 0-43.828-4.055-43.828-9.055s19.623-9.054 43.828-9.054c24.205 0 43.828 4.054 43.828 9.054M-274.583 135.56c0 5-19.623 9.055-43.828 9.055-24.205 0-43.827-4.054-43.827-9.054s19.622-9.055 43.827-9.055 43.828 4.055 43.828 9.055M-262.784 161.848c0 6.503-24.904 11.774-55.627 11.774-30.722 0-55.628-5.271-55.628-11.774 0-6.502 24.906-11.773 55.628-11.773 30.723 0 55.627 5.27 55.627 11.773M-274.583 188.136c0 5-19.623 9.055-43.828 9.055-24.205 0-43.827-4.055-43.827-9.055s19.622-9.055 43.827-9.055 43.828 4.055 43.828 9.055" style="fill:#fff;stroke-width:1.33288"/><path fill="#264653" d="M-455.895 115.57h34.995l18.945 189.556h-68.55zM-555.913 175.239h24.127l68.585 35.108-2.603 33.775z" style="fill:#fff;stroke-width:1.33288"/><path fill="#264653" d="m-315.933 204.086-24.115.775-72 38.692 8.063 32.276z" style="fill:#fff;stroke-width:1.33288"/><path d="M-219.982 96.187v207.441h89.627v-27.605h-62.196v-23.08h51.417v-27.606h-51.417v-101.52h62.196v-27.63ZM-116.604 96.187v207.441h27.431V190.017l36.726 121.344 36.727-121.344v113.61h27.43V96.188h-26.706l-37.45 123.733-37.45-123.733ZM25.462 96.187v207.441h89.627v-27.605h-62.19v-23.08h51.411v-27.606H52.9v-101.52h62.189v-27.63ZM128.84 96.187v207.44h27.437v-50.685h10.187c3.922 0 7.775-.347 11.586-.945l33.024 51.63h32.491l-40.518-60.4c11.13-6.178 20.247-14.84 27.018-26.09 7.388-12.24 11.048-26.512 11.048-42.575 0-11.313-1.896-21.807-5.73-31.436v-.006c-3.799-9.568-9.12-17.87-15.947-24.816-6.794-6.912-14.814-12.33-23.962-16.227v-.006c-9.215-3.916-19.27-5.884-30.123-5.884zm27.437 27.63h9.068c5.755 0 11.537.986 17.335 3.01 5.722 1.998 10.843 5.072 15.48 9.278 4.574 4.168 8.328 9.392 11.227 15.736 2.834 6.224 4.295 13.774 4.295 22.72 0 8.972-1.46 16.527-4.295 22.752-2.904 6.353-6.626 11.586-11.12 15.754-4.51 4.183-9.635 7.248-15.444 9.247-5.893 2.029-11.722 3.023-17.478 3.023h-9.074zM350.263 95.331c-13.81 0-26.863 2.732-39.011 8.213-12.124 5.437-22.754 12.963-31.828 22.47-9.097 9.53-16.248 20.654-21.443 33.315-5.215 12.684-7.818 26.297-7.818 40.72 0 14.444 2.606 27.998 7.824 40.6 5.198 12.576 12.349 23.547 21.455 32.884 9.08 9.332 19.715 16.68 31.828 22.044 12.143 5.366 25.188 8.05 38.993 8.05h24.638V203.329H325.625v27.606h21.839v44.945c-9.066-.339-17.537-2.226-25.487-5.842h-.006c-8.797-3.99-16.444-9.438-23.023-16.317-6.579-6.9-11.786-14.924-15.618-24.181-3.815-9.217-5.73-19.006-5.73-29.49 0-10.665 1.919-20.563 5.73-29.773 3.833-9.238 9.043-17.288 15.618-24.163 6.577-6.898 14.224-12.32 23.029-16.335 8.768-3.988 18.136-5.961 28.286-5.961 3.346 0 6.79.27 10.354.82l3.224.496v-28.55l-2.375-.366c-3.825-.589-7.554-.886-11.203-.886zM388.652 96.187v207.441h89.627v-27.605h-62.196v-23.08H467.5v-27.606h-51.417v-101.52h62.196v-27.63ZM492.024 96.187v207.44h27.437V167.482l55.281 136.147h26.522V96.188h-27.437V232.333l-55.28-136.147ZM615.016 96.187v27.63h40.35v179.81h27.438v-179.81h40.35v-27.63ZM761.98 96.187v27.63h40.352v179.81h27.437v-179.81h40.35v-27.63ZM882.777 96.187v207.44h27.437v-50.685H920.4c3.922 0 7.781-.347 11.592-.945l33.024 51.63h32.486l-40.519-60.4c11.132-6.178 20.247-14.84 27.018-26.09h.01c7.389-12.24 11.048-26.512 11.048-42.575 0-11.313-1.895-21.807-5.73-31.436v-.006c-3.798-9.568-9.125-17.87-15.953-24.816-6.794-6.912-14.813-12.33-23.961-16.227v-.006c-9.216-3.916-19.277-5.884-30.13-5.884zm27.437 27.63h9.068c5.755 0 11.536.986 17.334 3.01 5.723 1.998 10.843 5.072 15.48 9.278 4.574 4.168 8.329 9.392 11.227 15.736 2.835 6.224 4.295 13.774 4.295 22.72 0 8.972-1.46 16.527-4.295 22.752-2.903 6.353-6.625 11.586-11.12 15.754-4.509 4.183-9.635 7.248-15.443 9.247-5.893 2.029-11.723 3.023-17.478 3.023h-9.068zM1006.05 96.187v207.441h89.626v-27.605h-62.196v-23.08h51.417v-27.606h-51.417v-101.52h62.196v-27.63ZM1109.427 96.187v207.441h89.627v-27.605h-62.196v-23.08h51.417v-27.606h-51.417v-101.52h62.196v-27.63Z" style="color:#000;fill:#fff;stroke-width:5.59811;stroke-miterlimit:10;-inkscape-stroke:none"/></svg>