<?xml version="1.0" encoding="UTF-8"?>
<svg width="185px" height="44px" viewBox="0 0 185 44" version="1.1" xmlns="http://www.w3.org/2000/svg" xmlns:xlink="http://www.w3.org/1999/xlink">
    <title>hashicorp</title>
    <g id="Landing-Page" stroke="none" stroke-width="1" fill="none" fill-rule="evenodd">
        <path d="M62.7355734,34.0466264 L62.7355734,24.090574 L54.0769736,24.090574 L54.0769736,34.0466264 L49.5901101,34.0466264 L49.5901101,10.4205701 L54.0769736,10.4205701 L54.0769736,20.1396013 L62.7355734,20.1396013 L62.7355734,10.4205701 L67.2222058,10.4205701 L67.2222058,34.0466264 L62.7355734,34.0466264 Z M79.1869362,27.4882111 L76.0384384,27.4882111 C74.621522,27.4882111 74.2278443,27.8834011 74.2278443,29.2266762 C74.2278443,30.4117825 74.621522,30.9649094 75.9596567,30.9649094 C77.2190096,30.9649094 78.3998117,30.5699513 79.1869362,30.0956768 L79.1869362,27.4882111 Z M83.5162361,34.0466496 L79.9740606,34.0466496 L79.6591646,32.8613114 C78.0849157,33.8887127 76.2745526,34.3627552 74.5427403,34.3627552 C71.3942425,34.3627552 70.0561079,32.229332 70.0561079,29.2266762 C70.0561079,25.749746 71.551575,24.4064709 75.0937505,24.4064709 L79.1869362,24.4064709 L79.1869362,22.5891533 C79.1869362,20.6927514 78.635926,19.9816876 75.8808749,19.9816876 C74.306626,19.9816876 72.6535954,20.2187088 71.0793465,20.5348145 L70.5283363,17.2160531 C72.181367,16.7417786 74.5427403,16.4259049 76.4318851,16.4259049 C81.8632055,16.4259049 83.4374543,18.3223069 83.4374543,22.6682377 L83.5162361,34.0466496 Z M91.8600092,34.3626856 C90.0496461,34.3626856 87.5307093,33.9674956 85.9564604,33.3355162 L86.5860214,30.0167548 C88.0029378,30.4119448 89.9708644,30.7278186 91.7026768,30.7278186 C93.5918216,30.7278186 93.9067176,30.3328604 93.9067176,28.9895854 C93.9067176,27.962416 93.6703723,27.409289 90.9153213,26.6979934 C86.7435849,25.6708239 86.1925747,24.6436545 86.1925747,21.2458087 C86.1925747,17.7691104 87.6880418,16.2676665 92.6471337,16.2676665 C94.2213825,16.2676665 96.3466416,16.5049197 97.763558,16.8998778 L97.3701113,20.3765761 C96.0319767,20.1395549 93.9852683,19.9025336 92.6471337,19.9025336 C90.7579888,19.9025336 90.4430928,20.2977237 90.4430928,21.4039775 C90.4430928,22.7472525 90.5218746,22.9051894 92.8832479,23.4583163 C97.6850073,24.722507 98.1572358,25.3547183 98.1572358,28.910501 C98.078454,32.3083468 97.0552153,34.3626856 91.8600092,34.3626856 M110.830263,34.0466264 L110.830263,21.9569188 C110.830263,21.0088338 110.436816,20.6136438 109.492128,20.6136438 C108.468889,20.6136438 106.579744,21.2458551 105.005265,22.0360032 L105.005265,34.0466264 L100.675965,34.0466264 L100.675965,9.70927444 L105.005265,9.07729506 L105.005265,18.006178 C106.894409,16.9790086 109.492128,16.3467973 111.302491,16.3467973 C114.136324,16.3467973 115.159563,18.4011362 115.159563,21.4828763 L115.159563,34.0466264 L110.830263,34.0466264 Z M118.386796,34.04658 L122.716096,34.04658 L122.716096,16.741941 L118.386796,16.741941 L118.386796,34.04658 Z M118.386796,14.2924121 L122.716096,14.2924121 L122.716096,9.31426994 L118.386796,9.31426994 L118.386796,14.2924121 Z M125.628641,16.899901 C125.628641,12.5539702 128.147578,10.0253569 133.972345,10.0253569 C136.176386,10.0253569 138.459208,10.3414625 140.348353,10.8155051 L139.875894,14.6873934 C137.986749,14.3712878 135.782939,14.0551821 134.129908,14.0551821 C131.059961,14.0551821 130.036723,15.0825834 130.036723,17.6109648 L130.036723,26.6980165 C130.036723,29.2266298 131.059961,30.2537992 134.129908,30.2537992 C135.782939,30.2537992 137.986749,30.016778 139.875894,29.6215879 L140.348353,33.4934763 C138.380426,33.9675188 136.176386,34.2836244 133.972345,34.2836244 C128.147578,34.2836244 125.628641,31.7550112 125.628641,27.4090803 L125.628641,16.899901 Z M149.243044,20.1396013 C146.960452,20.1396013 146.094546,21.1667707 146.094546,23.142257 L146.094546,27.7252092 C146.094546,29.7006955 146.960452,30.7278649 149.243044,30.7278649 C151.525867,30.7278649 152.391542,29.7006955 152.391542,27.7252092 L152.391542,23.0631727 C152.391542,21.1667707 151.525867,20.1396013 149.243044,20.1396013 M149.243044,34.362732 C143.339495,34.362732 141.765246,31.123055 141.765246,27.5672723 L141.765246,23.2213414 C141.765246,19.6655587 143.339495,16.4258817 149.243044,16.4258817 C155.146593,16.4258817 156.720842,19.6655587 156.720842,23.2213414 L156.720842,27.5672723 C156.720842,31.123055 155.146593,34.362732 149.243044,34.362732 M168.134585,20.3766689 C166.481554,21.0877327 165.14342,21.8778808 163.569171,22.9052822 L163.569171,34.0466728 L159.239871,34.0466728 L159.239871,16.7418018 L162.860597,16.7418018 L163.175493,18.6382038 C164.120181,18.0062244 166.166658,16.8208862 167.662357,16.3468437 L168.134585,20.3766689 Z M174.195628,30.2537992 C175.297648,30.4908205 176.793116,30.7278418 177.973918,30.7278418 C179.548167,30.7278418 180.099177,30.016778 180.099177,28.4364817 L180.099177,22.3520857 C180.099177,20.9297262 179.548167,20.1395781 177.973918,20.1395781 C176.557001,20.1395781 175.061534,20.8508738 174.116846,21.7198744 L174.195628,30.2537992 Z M184.507258,28.2783129 C184.507258,32.0711168 182.775446,34.3627088 178.839824,34.3627088 C177.344126,34.3627088 175.612544,34.1256876 174.27441,33.8886663 L174.27441,41.0002317 L169.94511,41.6322111 L169.94511,16.7419642 L173.408504,16.7419642 L173.80195,18.1640917 C175.297648,17.0580698 177.108011,16.3467741 179.233271,16.3467741 C182.696895,16.3467741 184.507258,18.4013449 184.507258,22.3520857 L184.507258,28.2783129 Z M23.7717818,0.464355402 L30.147559,4.17807496 L30.147559,28.2784056 L23.7717818,31.9130408 L23.7717818,24.9596442 L17.0023268,24.9596442 L17.0023268,43.7657271 L10.6263185,40.0520075 L10.6263185,15.9516768 L17.0023268,12.2379573 L17.0023268,19.2704383 L23.7717818,19.2704383 L23.7717818,0.464355402 Z M34.3983082,6.62760384 L40.7740854,10.2624709 L40.7740854,33.8885272 L23.7717818,43.7657271 L23.7717818,36.3380561 L34.3983082,30.1748076 L34.3983082,6.62760384 Z M17.0023037,0.464355402 L17.0023037,7.81294204 L6.37577724,13.9761905 L6.37577724,37.6024787 L0,33.8885272 L0,10.2624709 L17.0023037,0.464355402 Z" id="hashicorp" fill="#ffffff"></path>
    </g>
</svg>
