<?xml version="1.0" encoding="UTF-8"?>
<svg width="102px" height="29px" viewBox="0 0 102 29" version="1.1" xmlns="http://www.w3.org/2000/svg" xmlns:xlink="http://www.w3.org/1999/xlink">
    <title>hotdoc</title>
    <g id="Landing-Page" stroke="none" stroke-width="1" fill="none" fill-rule="evenodd">
        <g id="hotdoc" transform="translate(0, 0.7188)" fill="#ffffff">
            <path d="M13.6333622,0 L17.9716804,3.1873559 L23.2736686,4.02716002 L24.1066257,9.37478958 L27.2667243,13.7497518 L24.1066257,18.1251676 L23.2736686,23.4727971 L17.9716804,24.3126013 L13.6333622,27.4999572 L9.29504395,24.3126013 L3.99260495,23.4727971 L3.16054933,18.1251676 L0,13.7497518 L3.16054933,9.37478958 L3.99260495,4.02716002 L9.29504395,3.1873559 L13.6333622,0 Z M16.0790468,6.19459831 L11.2354554,6.19459831 L11.2354554,11.3989352 L6.17911733,11.3989352 L6.17911733,16.2835842 L11.2354554,16.2835842 L11.2354554,21.3836257 L16.0790468,21.3836257 L16.0790468,16.2835842 L21.2390537,16.2835842 L21.2390537,11.3989352 L16.0790468,11.3989352 L16.0790468,6.19459831 Z" id="Combined-Shape"></path>
            <polygon id="Fill-3" points="45.4089626 21.0477494 42.0780357 21.0477494 42.0780357 14.6558062 36.2779859 14.6558062 36.2779859 21.0477494 32.947059 21.0477494 32.947059 5.92946145 36.2779859 5.92946145 36.2779859 12.2488514 42.0780357 12.2488514 42.0780357 5.92946145 45.4089626 5.92946145"></polygon>
            <path d="M52.2861773,18.8272565 C52.9852663,18.8272565 53.4995542,18.5660647 53.8294917,18.0441346 C54.1585278,17.5212976 54.324398,16.7272928 54.324398,15.66212 C54.324398,14.5974008 54.1585278,13.8052098 53.8294917,13.2864539 C53.4995542,12.767698 52.9852663,12.5078666 52.2861773,12.5078666 C51.5677067,12.5078666 51.0421504,12.767698 50.7090577,13.2864539 C50.3755143,13.8052098 50.2091933,14.5974008 50.2091933,15.66212 C50.2091933,16.7272928 50.3755143,17.5212976 50.7090577,18.0441346 C51.0421504,18.5660647 51.5677067,18.8272565 52.2861773,18.8272565 M52.2861773,10.1213174 C53.056933,10.1213174 53.7591772,10.2491925 54.3929097,10.5053963 C55.0257407,10.7611466 55.5697771,11.1284475 56.0241173,11.6054853 C56.4775561,12.0829765 56.8304811,12.6624957 57.0819909,13.3431361 C57.3330499,14.0246834 57.4592555,14.7910273 57.4592555,15.641261 C57.4592555,16.4992034 57.3330499,17.2723492 57.0819909,17.9606984 C56.8304811,18.6490475 56.4775561,19.2335548 56.0241173,19.7142203 C55.5697771,20.1953391 55.0257407,20.5649074 54.3929097,20.8247388 C53.7591772,21.0836633 53.056933,21.2133522 52.2861773,21.2133522 C51.5086605,21.2133522 50.801909,21.0836633 50.1650214,20.8247388 C49.5285845,20.5649074 48.97959,20.1953391 48.5193902,19.7142203 C48.0591905,19.2335548 47.7026596,18.6490475 47.4516005,17.9606984 C47.2000908,17.2723492 47.0743359,16.4992034 47.0743359,15.641261 C47.0743359,14.7910273 47.2000908,14.0246834 47.4516005,13.3431361 C47.7026596,12.6624957 48.0591905,12.0829765 48.5193902,11.6054853 C48.97959,11.1284475 49.5285845,10.7611466 50.1650214,10.5053963 C50.801909,10.2491925 51.5086605,10.1213174 52.2861773,10.1213174" id="Fill-4"></path>
            <path d="M62.6906137,21.2132615 C62.2069757,21.2132615 61.7810318,21.1388944 61.4123311,20.9906137 C61.0427289,20.8418795 60.7326236,20.6310215 60.4815646,20.3575864 C60.2296041,20.0846047 60.0389435,19.7540339 59.9077798,19.3663273 C59.7775175,18.9795277 59.7121611,18.5469288 59.7121611,18.069891 L59.7121611,12.5077759 L58.850357,12.5077759 C58.6930507,12.5077759 58.5591826,12.4542678 58.4483019,12.3472518 C58.3369705,12.2402357 58.2815302,12.0828858 58.2815302,11.875202 L58.2815302,10.619577 L59.8983143,10.2876458 L60.4959881,7.66212426 C60.5744159,7.33019305 60.7961772,7.1646809 61.1617228,7.1646809 L62.7492092,7.1646809 L62.7492092,10.3085048 L65.2178813,10.3085048 L65.2178813,12.5077759 L62.7492092,12.5077759 L62.7492092,17.8517778 C62.7492092,18.1007262 62.8064524,18.3061426 62.920939,18.468934 C63.0349748,18.6317254 63.1999435,18.7128944 63.4149438,18.7128944 C63.5267259,18.7128944 63.6195772,18.7011045 63.6943991,18.6766178 C63.7696718,18.6521311 63.8345775,18.6244701 63.8904686,18.593635 C63.9463596,18.5627998 63.9981941,18.5351389 64.0473241,18.5106522 C64.0960034,18.4861654 64.1536974,18.4739221 64.2186032,18.4739221 C64.3101023,18.4739221 64.383572,18.496595 64.439463,18.5414873 C64.4944526,18.5868331 64.5521466,18.658026 64.6107421,18.7541591 L65.5315924,20.2800451 C65.1394535,20.5911172 64.6986353,20.8246481 64.208687,20.9801841 C63.7196402,21.1357202 63.2130148,21.2132615 62.6906137,21.2132615" id="Fill-6"></path>
            <path d="M76.5242371,13.4833907 C76.5242371,12.7365454 76.4322873,12.0618 76.2492892,11.4600613 C76.0667418,10.8583226 75.8035129,10.3481824 75.4609548,9.92964073 C75.1179459,9.5115525 74.6983122,9.18959736 74.2020537,8.96422876 C73.7053445,8.74022053 73.1401236,8.6273095 72.5072925,8.6273095 L70.2928346,8.6273095 L70.2928346,18.3499013 L72.5072925,18.3499013 C73.1401236,18.3499013 73.7053445,18.2369903 74.2020537,18.0125286 C74.6983122,17.7876135 75.1179459,17.4661118 75.4609548,17.0475701 C75.8035129,16.6290284 76.0667418,16.1188882 76.2492892,15.5171495 C76.4322873,14.9154108 76.5242371,14.2374912 76.5242371,13.4833907 M79.9137595,13.4833907 C79.9137595,14.5766778 79.7352687,15.5847148 79.38009,16.5084086 C79.0235592,17.431649 78.5227933,18.2306419 77.8755387,18.9049339 C77.2291857,19.5792258 76.4503167,20.1047836 75.5393826,20.4820606 C74.6284484,20.8588841 73.6174513,21.0475227 72.5072925,21.0475227 L66.9619077,21.0475227 L66.9619077,5.92968818 L72.5072925,5.92968818 C73.6174513,5.92968818 74.6284484,6.12014052 75.5393826,6.50013828 C76.4503167,6.88058949 77.2291857,7.40660071 77.8755387,8.07771847 C78.5227933,8.74838278 79.0235592,9.54556184 79.38009,10.4692557 C79.7352687,11.3924961 79.9137595,12.3978123 79.9137595,13.4833907" id="Fill-8"></path>
            <path d="M86.0269344,18.8272565 C86.7251219,18.8272565 87.2398606,18.5660647 87.5697981,18.0441346 C87.8992849,17.5212976 88.0642537,16.7272928 88.0642537,15.66212 C88.0642537,14.5974008 87.8992849,13.8052098 87.5697981,13.2864539 C87.2398606,12.767698 86.7251219,12.5078666 86.0269344,12.5078666 C85.3080131,12.5078666 84.7824568,12.767698 84.4493642,13.2864539 C84.1162715,13.8052098 83.9499505,14.5974008 83.9499505,15.66212 C83.9499505,16.7272928 84.1162715,17.5212976 84.4493642,18.0441346 C84.7824568,18.5660647 85.3080131,18.8272565 86.0269344,18.8272565 M86.0269344,10.1213174 C86.7972394,10.1213174 87.4994836,10.2491925 88.1332161,10.5053963 C88.7664978,10.7611466 89.3100835,11.1284475 89.7644237,11.6054853 C90.2183132,12.0829765 90.5712382,12.6624957 90.822748,13.3431361 C91.073807,14.0246834 91.2000126,14.7910273 91.2000126,15.641261 C91.2000126,16.4992034 91.073807,17.2723492 90.822748,17.9606984 C90.5712382,18.6490475 90.2183132,19.2335548 89.7644237,19.7142203 C89.3100835,20.1953391 88.7664978,20.5649074 88.1332161,20.8247388 C87.4994836,21.0836633 86.7972394,21.2133522 86.0269344,21.2133522 C85.2494176,21.2133522 84.5426662,21.0836633 83.9057785,20.8247388 C83.2688909,20.5649074 82.7203472,20.1953391 82.2601474,19.7142203 C81.7990461,19.2335548 81.442966,18.6490475 81.1919069,17.9606984 C80.9403972,17.2723492 80.815093,16.4992034 80.815093,15.641261 C80.815093,14.7910273 80.9403972,14.0246834 81.1919069,13.3431361 C81.442966,12.6624957 81.7990461,12.0829765 82.2601474,11.6054853 C82.7203472,11.1284475 83.2688909,10.7611466 83.9057785,10.5053963 C84.5426662,10.2491925 85.2494176,10.1213174 86.0269344,10.1213174" id="Fill-10"></path>
            <path d="M100.193245,12.8401152 C100.101295,12.9580143 100.013402,13.0509732 99.9286638,13.1203522 C99.8439257,13.1892778 99.7226782,13.2237406 99.5662734,13.2237406 C99.4157281,13.2237406 99.2805078,13.1861036 99.1592603,13.1099227 C99.0384634,13.0337418 98.9032431,12.9493986 98.7531486,12.8555328 C98.6026033,12.7625739 98.4259155,12.6777773 98.2235357,12.6015963 C98.0216067,12.5249619 97.7696462,12.4873249 97.4694571,12.4873249 C97.0966998,12.4873249 96.7753262,12.5598782 96.5044349,12.7049847 C96.2330928,12.8505447 96.0095286,13.0582285 95.8332914,13.328036 C95.6566036,13.59739 95.5263413,13.9279608 95.4416033,14.3188416 C95.3564145,14.7097223 95.3140454,15.1504834 95.3140454,15.6411249 C95.3140454,16.6722883 95.5020017,17.4644793 95.8774634,18.017698 C96.2529251,18.5709167 96.7703682,18.8475261 97.4302433,18.8475261 C97.7827175,18.8475261 98.0621728,18.8012734 98.2677077,18.707861 C98.4732426,18.6149022 98.6485782,18.5106068 98.7923625,18.3963354 C98.9352453,18.2825175 99.0682119,18.1768618 99.1890087,18.0798218 C99.3098055,17.9832352 99.461703,17.9347152 99.6442504,17.9347152 C99.8862948,17.9347152 100.068842,18.028581 100.193245,18.2149522 L101.074881,19.366282 C100.76117,19.7471866 100.431233,20.0568984 100.085069,20.2954173 C99.7389046,20.5339362 99.3846274,20.7207609 99.022237,20.8554379 C98.6602973,20.9905683 98.2956532,21.0835272 97.9301077,21.1356749 C97.5636606,21.1878225 97.2084819,21.2132162 96.862318,21.2132162 C96.241206,21.2132162 95.6484903,21.0894222 95.0837202,20.8400203 C94.5184993,20.5910719 94.0226915,20.2296659 93.5944939,19.7558023 C93.166747,19.2819388 92.827344,18.6992453 92.5758342,18.0072685 C92.3238737,17.3157451 92.1985695,16.5271818 92.1985695,15.6411249 C92.1985695,14.8666188 92.3076473,14.141993 92.5267042,13.467701 C92.7457611,12.793409 93.0684869,12.2089017 93.4966845,11.7141791 C93.9244314,11.21991 94.4535935,10.8303896 95.0837202,10.5469784 C95.7142975,10.2635672 96.4440365,10.1216348 97.2733877,10.1216348 C98.070286,10.1216348 98.769375,10.2563118 99.3702039,10.5261193 C99.9710328,10.7963802 100.513266,11.1904352 100.996454,11.7091911 L100.193245,12.8401152 Z" id="Fill-12"></path>
        </g>
    </g>
</svg>
