<?xml version="1.0" encoding="UTF-8"?>
<svg width="91px" height="16px" viewBox="0 0 91 16" version="1.1" xmlns="http://www.w3.org/2000/svg" xmlns:xlink="http://www.w3.org/1999/xlink">
    <title>isaaclee</title>
    <g id="Landing-Page" stroke="none" stroke-width="1" fill="none" fill-rule="evenodd">
        <g id="isaaclee" transform="translate(0, 0.7189)" fill="#ffffff" fill-rule="nonzero">
            <polygon id="Path" points="0 0 0 14.553 2.57796 14.553 2.57796 0"></polygon>
            <path d="M5.44698,6.52806 C5.44698,8.19126 6.36174,9.16839 9.16839,9.95841 C11.0187,10.47816 11.49687,10.85238 11.49687,11.66319 C11.49687,12.39084 10.95633,12.80664 9.70893,12.80664 C8.54469,12.80664 7.42203,12.20373 6.59043,11.35134 L4.86486,12.72348 C6.13305,14.1372 7.9002,14.80248 9.91683,14.80248 C12.6819,14.80248 14.11641,13.5135 14.11641,11.53845 C14.11641,9.75051 12.8898,8.7318 10.54053,8.04573 C8.48232,7.44282 8.06652,7.0686 8.06652,6.46569 C8.06652,5.84199 8.58627,5.53014 9.60498,5.53014 C10.47816,5.53014 11.45529,5.88357 12.09978,6.56964 L13.7214,5.23908 C12.61953,4.11642 11.08107,3.5343 9.39708,3.5343 C6.8607,3.5343 5.44698,4.76091 5.44698,6.52806 Z" id="Path"></path>
            <path d="M22.88979,8.81496 C22.05819,8.17047 21.06027,7.77546 19.72971,7.77546 C17.38044,7.77546 15.67566,9.23076 15.67566,11.28897 C15.67566,13.34718 17.38044,14.80248 19.72971,14.80248 C20.97711,14.80248 22.12056,14.40747 22.88979,13.65903 L22.88979,14.553 L25.34301,14.553 L25.34301,8.21205 C25.34301,5.44698 24.28272,3.5343 20.72763,3.5343 C19.08522,3.5343 17.52597,4.07484 16.27857,5.13513 L17.69229,6.54885 C18.5031,5.88357 19.45944,5.55093 20.43657,5.55093 C22.30767,5.55093 22.88979,6.4449 22.88979,7.79625 L22.88979,8.81496 Z M20.35341,12.80664 C19.02285,12.80664 18.17046,12.30768 18.17046,11.28897 C18.17046,10.27026 19.02285,9.7713 20.35341,9.7713 C21.33054,9.7713 22.20372,10.10394 22.88979,10.72764 L22.88979,11.8503 C22.22451,12.49479 21.28896,12.80664 20.35341,12.80664 Z" id="Shape"></path>
            <path d="M34.63614,8.81496 C33.80454,8.17047 32.80662,7.77546 31.47606,7.77546 C29.12679,7.77546 27.42201,9.23076 27.42201,11.28897 C27.42201,13.34718 29.12679,14.80248 31.47606,14.80248 C32.72346,14.80248 33.86691,14.40747 34.63614,13.65903 L34.63614,14.553 L37.08936,14.553 L37.08936,8.21205 C37.08936,5.44698 36.02907,3.5343 32.47398,3.5343 C30.83157,3.5343 29.27232,4.07484 28.02492,5.13513 L29.43864,6.54885 C30.24945,5.88357 31.20579,5.55093 32.18292,5.55093 C34.05402,5.55093 34.63614,6.4449 34.63614,7.79625 L34.63614,8.81496 Z M32.09976,12.80664 C30.7692,12.80664 29.91681,12.30768 29.91681,11.28897 C29.91681,10.27026 30.7692,9.7713 32.09976,9.7713 C33.07689,9.7713 33.95007,10.10394 34.63614,10.72764 L34.63614,11.8503 C33.97086,12.49479 33.03531,12.80664 32.09976,12.80664 Z" id="Shape"></path>
            <path d="M39.18915,9.16839 C39.18915,12.474 41.22657,14.80248 44.51139,14.80248 C46.65276,14.80248 48.25359,13.80456 49.20993,12.18294 L47.31804,11.18502 C46.63197,12.22452 45.84195,12.80664 44.61534,12.80664 C42.8274,12.80664 41.68395,11.45529 41.68395,9.16839 C41.68395,6.88149 42.8274,5.53014 44.61534,5.53014 C45.84195,5.53014 46.63197,6.11226 47.31804,7.15176 L49.20993,6.15384 C48.25359,4.53222 46.65276,3.5343 44.51139,3.5343 C41.22657,3.5343 39.18915,5.86278 39.18915,9.16839 Z" id="Path"></path>
            <polygon id="Path" points="57.5883 14.553 66.98538 14.553 66.98538 12.39084 60.16626 12.39084 60.16626 0 57.5883 0"></polygon>
            <path d="M78.64857,9.23076 C78.64857,5.88357 76.52799,3.5343 73.43028,3.5343 C70.2702,3.5343 68.17041,5.90436 68.17041,9.16839 C68.17041,12.474 70.39494,14.80248 73.78371,14.80248 C75.61323,14.80248 77.15169,14.03325 78.1704,12.66111 L76.44483,11.4345 C75.73797,12.30768 74.844,12.80664 73.76292,12.80664 C72.09972,12.80664 70.8939,11.70477 70.66521,10.06236 L78.60699,10.06236 C78.64857,9.83367 78.64857,9.45945 78.64857,9.23076 Z M73.43028,5.53014 C74.90637,5.53014 76.04982,6.54885 76.17456,8.19126 L70.64442,8.19126 C70.87311,6.52806 71.89182,5.53014 73.43028,5.53014 Z" id="Shape"></path>
            <path d="M90.70677,9.23076 C90.70677,5.88357 88.58619,3.5343 85.48848,3.5343 C82.3284,3.5343 80.22861,5.90436 80.22861,9.16839 C80.22861,12.474 82.45314,14.80248 85.84191,14.80248 C87.67143,14.80248 89.20989,14.03325 90.2286,12.66111 L88.50303,11.4345 C87.79617,12.30768 86.9022,12.80664 85.82112,12.80664 C84.15792,12.80664 82.9521,11.70477 82.72341,10.06236 L90.66519,10.06236 C90.70677,9.83367 90.70677,9.45945 90.70677,9.23076 Z M85.48848,5.53014 C86.96457,5.53014 88.10802,6.54885 88.23276,8.19126 L82.70262,8.19126 C82.93131,6.52806 83.95002,5.53014 85.48848,5.53014 Z" id="Shape"></path>
        </g>
    </g>
</svg>
