<?xml version="1.0" encoding="UTF-8"?>
<svg width="141px" height="21px" viewBox="0 0 141 21" version="1.1" xmlns="http://www.w3.org/2000/svg" xmlns:xlink="http://www.w3.org/1999/xlink">
    <title>Combined Shape</title>
    <g id="Landing-Page" stroke="none" stroke-width="1" fill="none" fill-rule="evenodd">
        <path d="M40.8735386,10.3239239 C40.8735386,8.57355502 39.7264389,7.47574742 38.1447343,7.47574742 C36.5626016,7.47574742 35.4155018,8.57355502 35.4155018,10.3239239 C35.4155018,12.0760424 36.5626016,13.1721005 38.1447343,13.1721005 C39.7264389,13.1721005 40.8735386,12.0760424 40.8735386,10.3239239 M44.312697,10.3239239 C44.312697,13.8023558 41.8365201,16.4887041 38.8328229,16.4887041 C37.2960775,16.4887041 36.1729559,15.951172 35.4172146,15.0646158 L35.4172146,20.0406146 L31.9780562,20.0406146 L31.9780562,4.48717399 L35.4172146,4.48717399 L35.4172146,5.58454422 C36.1742405,4.69667592 37.2977902,4.16045547 38.8328229,4.16045547 C41.8365201,4.15914383 44.312697,6.84549215 44.312697,10.3239239 M52.3574245,4.25309167 L52.3574245,8.05780414 C50.726479,7.91565774 48.9182662,8.65481903 48.9182662,10.8836746 L48.9182662,16.1601491 L45.4791078,16.1601491 L45.4791078,4.48664914 L48.9182662,4.48664914 L48.9182662,6.56504823 C49.3772773,5.00012568 50.9135946,4.25309167 52.3574245,4.25309167 M61.4606609,10.3232242 C61.4606609,8.66557842 60.3135612,7.56820819 58.8243439,7.56820819 C57.333414,7.56820819 56.1880269,8.66557842 56.1880269,10.3232242 C56.1880269,11.9808699 57.3351267,13.0782401 58.8243439,13.0782401 C60.3135612,13.0782401 61.4606609,11.9808699 61.4606609,10.3232242 M52.7488686,10.3232242 C52.7488686,6.84479235 55.4545511,4.15844403 58.8243439,4.15844403 C62.1941368,4.15844403 64.8998193,6.84304285 64.8998193,10.3232242 C64.8998193,13.8034054 62.1941368,16.4880043 58.8243439,16.4880043 C55.4545511,16.4880043 52.7488686,13.801656 52.7488686,10.3232242 M74.7123393,10.3236178 C74.7123393,8.57324886 73.5652395,7.47544126 71.983535,7.47544126 C70.4014022,7.47544126 69.2543025,8.57324886 69.2543025,10.3236178 C69.2543025,12.0757362 70.4014022,13.1717943 71.983535,13.1717943 C73.5652395,13.1717943 74.7123393,12.0757362 74.7123393,10.3236178 L74.7123393,10.3236178 Z M78.1510695,0.720206861 L78.1510695,16.1603677 L74.7123393,16.1603677 L74.7123393,15.0629975 C73.9548852,15.9491163 72.8317637,16.4866484 71.2967309,16.4866484 C68.2930337,16.4866484 65.8168568,13.8020496 65.8168568,10.3218683 C65.8168568,6.84212437 68.2930337,4.15708818 71.2967309,4.15708818 C72.8334764,4.15708818 73.9565979,4.69462026 74.7123393,5.58117644 L74.7123393,0.720206861 L78.1510695,0.720206861 Z M90.7932307,4.48686783 L90.7932307,16.1603677 L87.3545005,16.1603677 L87.3545005,15.0629975 C86.734921,15.9268103 85.5882495,16.4870858 84.075054,16.4870858 C81.7594454,16.4870858 79.7880952,14.8053845 79.7880952,11.6532334 L79.7880952,4.48511834 L83.2268254,4.48511834 L83.2268254,11.1397568 C83.2268254,12.5879006 84.1212977,13.2645175 85.222582,13.2645175 C86.4835782,13.2645175 87.3545005,12.5174835 87.3545005,10.8598378 L87.3545005,4.48686783 L90.7932307,4.48686783 Z M92.1226504,10.3232242 C92.1226504,6.84479235 94.7140082,4.15844403 98.1985539,4.15844403 C100.42296,4.15844403 102.394738,5.34897482 103.379985,7.14701747 L100.375432,8.92144194 C99.986214,8.10399078 99.1615354,7.61456979 98.1510257,7.61456979 C96.6605239,7.61456979 95.5605242,8.71194001 95.5605242,10.3232242 C95.5605242,11.9345083 96.6605239,13.0318785 98.1510257,13.0318785 C99.1598226,13.0318785 100.008051,12.5424575 100.375432,11.7250064 L103.379985,13.4753753 C102.393025,15.2961614 100.444797,16.4880043 98.1985539,16.4880043 C94.7140082,16.4880043 92.1226504,13.801656 92.1226504,10.3232242 M108.009747,7.84856463 L108.009747,11.9813073 C108.009747,12.9863917 108.857975,13.0791149 110.371171,12.9863917 L110.371171,16.1608489 C105.877828,16.6279638 104.571016,15.2502371 104.571016,11.9813073 L104.571016,7.84856463 L104.571016,4.48691157 L104.571016,3.18441315 L108.009747,1.87272989 L108.009747,4.48516207 L110.371171,4.48516207 L110.371171,7.84681514 L108.009747,7.84681514 L108.009747,7.84856463 Z M111.951291,16.1603677 L115.390021,16.1603677 L115.390021,4.48686783 L111.951291,4.48686783 L111.951291,16.1603677 Z M134.281542,4.15831282 C137.629498,4.15831282 140.105247,6.79698742 140.105247,10.3230929 C140.105247,10.8129513 140.060288,11.1952158 139.967372,11.6382752 L131.760406,11.6382752 C132.195868,12.8528615 133.317276,13.4402542 134.579129,13.4402542 C135.51856,13.4402542 136.225061,13.1585856 136.946119,12.5694435 L139.531055,14.0831933 C138.407933,15.6704219 136.711047,16.4878731 134.532885,16.4878731 C130.611594,16.4878731 128.183373,13.8032742 128.183373,10.3230929 C128.183373,6.84334902 130.659122,4.15831282 134.281542,4.15831282 Z M119.997945,4.48678036 L122.382919,11.8884529 L124.767893,4.48678036 L128.573148,4.48678036 L124.331148,16.1620298 L120.432978,16.1620298 L116.190978,4.48678036 L119.997945,4.48678036 Z M134.319651,7.14382464 C132.941333,7.14382464 131.965934,7.90397986 131.626814,9.15836719 L136.820662,9.15836719 C136.514084,7.84143544 135.506143,7.14382464 134.319651,7.14382464 Z M21.6009781,0.718851003 C22.2102812,0.718851003 22.6645824,1.29137297 22.5408378,1.89975957 L21.8107874,6.08061329 C21.6836173,6.81321398 21.2168988,6.92518161 20.7407604,6.99078764 C18.7749765,7.26458348 17.2022638,8.50453748 15.8115284,10.8230546 L15.8587625,10.7468421 C15.8430891,10.7756868 15.8268469,10.8041443 15.8100298,10.8321957 L11.2254844,18.8929902 C10.8324132,19.5857899 10.1083573,20.0126665 9.32392779,20.0161654 L6.60625621,20.0275537 C5.82311121,20.0305988 5.09777078,19.6080959 4.69827692,18.9201073 L0.132143343,11.0368866 C-0.134185903,10.5776443 0.0148214566,9.98412844 0.464412628,9.7120821 L4.07013382,7.53264972 C4.51972499,7.26060338 5.10076806,7.41280937 5.36709731,7.87205159 L7.93618971,12.3070193 L7.938,12.302851 L10.6018372,7.61317019 C13.8517391,2.17005643 18.0183788,0.718851003 21.6009781,0.718851003 Z M20.5840457,9.50131178 C22.4766105,9.50131178 24.0099305,11.0675464 24.0099305,13.0003001 C24.0099305,14.9330538 22.4766105,16.4997259 20.5840457,16.4997259 C18.6919092,16.4997259 17.1585892,14.9330538 17.1585892,13.0003001 C17.1585892,11.0675464 18.6919092,9.50131178 20.5840457,9.50131178 Z" id="Combined-Shape" fill="#ffffff"></path>
    </g>
</svg>
