<?xml version="1.0" encoding="UTF-8"?>
<svg width="87px" height="22px" viewBox="0 0 87 22" version="1.1" xmlns="http://www.w3.org/2000/svg" xmlns:xlink="http://www.w3.org/1999/xlink">
    <title>Fill 1</title>
    <g id="Landing-Page" stroke="none" stroke-width="1" fill="none" fill-rule="evenodd">
        <path d="M77.694869,15.0550678 L76.3734298,15.0550678 L76.3734298,21.1472605 L72.518966,21.1472605 L72.518966,1.58534124 L76.3734298,1.58534124 L76.3734298,12.819304 L77.5846159,12.2885433 L81.1914097,6.47571968 L85.4313598,6.47571968 L81.7418762,11.813332 L81.7694395,11.813332 L80.0073875,13.0990786 L81.8521293,14.3284648 L81.824566,14.3284648 L86.0645161,21.1472605 L81.6044593,21.1472605 L77.694869,15.0550678 Z M63.6811427,2.81472748 C63.6811427,2.218686 63.8920617,1.72036288 64.314299,1.31975813 C64.7365364,0.919153379 65.3329417,0.718851003 66.1039143,0.718851003 C66.8932625,0.718851003 67.517231,0.924019023 67.9762194,1.33394959 C68.4348083,1.74347469 68.6645022,2.23733763 68.6645022,2.81472748 C68.6645022,3.35521952 68.4348083,3.821105 67.9762194,4.21238393 C67.517231,4.60325739 66.8932625,4.79909959 66.1039143,4.79909959 C65.3329417,4.79909959 64.7365364,4.60325739 64.314299,4.21238393 C63.8920617,3.821105 63.6811427,3.35521952 63.6811427,2.81472748 L63.6811427,2.81472748 Z M64.2591725,21.1472605 L68.1136363,21.1472605 L68.1136363,6.47571968 L64.2591725,6.47571968 L64.2591725,21.1472605 Z M53.8522401,14.0770732 L54.4302698,16.3404089 L54.8708827,16.3404089 L55.2839323,14.0211183 L57.9819371,6.47571968 L62.1391974,6.47571968 L55.5316023,21.2867423 L53.3293369,21.2867423 L46.446109,6.47571968 L50.9337291,6.47571968 L53.8522401,14.0770732 Z M35.3233305,13.8252761 C35.3233305,14.4403747 35.3876448,15.0177645 35.5162734,15.5582565 C35.6445025,16.0983431 35.8418395,16.5686888 36.107885,16.9692935 C36.37433,17.3698983 36.7182717,17.6914363 37.140509,17.9335021 C37.5627464,18.1755679 38.0764618,18.2968036 38.6824543,18.2968036 C40.9214708,18.2968036 42.0411787,16.8062944 42.0411787,13.8252761 C42.0411787,13.1732797 41.981658,12.572778 41.8622172,12.0229602 C41.7427763,11.4735478 41.5502329,10.9983365 41.2841874,10.5977317 C41.0177425,10.197127 40.6690072,9.88532024 40.2379815,9.66150058 C39.8065564,9.43808639 39.2880474,9.32617656 38.6824543,9.32617656 C37.635849,9.32617656 36.8145434,9.68015222 36.2181381,10.3881035 C35.6217328,11.0960548 35.3233305,12.2419142 35.3233305,13.8252761 L35.3233305,13.8252761 Z M31.3586136,13.8252761 C31.3586136,11.4034014 31.9921694,9.50336712 33.258482,8.12476778 C34.5247945,6.74576296 36.3327853,6.05646329 38.6824543,6.05646329 C39.9120159,6.05646329 40.9857851,6.25230549 41.9033624,6.64358442 C42.8213391,7.03486336 43.5827245,7.57981557 44.188717,8.27844106 C44.7943101,8.97706655 45.2485048,9.79652222 45.5513014,10.737619 C45.8540979,11.6783103 46.0058956,12.7077997 46.0058956,13.8252761 C46.0058956,15.0177645 45.840516,16.0938829 45.5101562,17.0532259 C45.1797964,18.0125688 44.7024325,18.8275643 44.078464,19.4982124 C43.4544954,20.1692659 42.6883164,20.681375 41.7795274,21.0353506 C40.8711378,21.3893263 39.8385138,21.5665169 38.6824543,21.5665169 C37.4341178,21.5665169 36.3511609,21.3706747 35.4335836,20.9793957 C34.5156068,20.5881168 33.7542214,20.0431646 33.1482289,19.3445391 C32.5426358,18.6459136 32.0928352,17.8264579 31.7992265,16.8853611 C31.5056177,15.9446698 31.3586136,14.9245063 31.3586136,13.8252761 L31.3586136,13.8252761 Z M22.2183932,15.0550678 L20.8965546,15.0550678 L20.8965546,21.1472605 L17.0420908,21.1472605 L17.0420908,1.58534124 L20.8965546,1.58534124 L20.8965546,12.819304 L22.1081402,12.2885433 L25.714934,6.47571968 L29.9544846,6.47571968 L26.2654005,11.813332 L26.2929637,11.813332 L24.5309117,13.0990786 L26.3756536,14.3284648 L26.3480903,14.3284648 L30.5880404,21.1472605 L26.1275841,21.1472605 L22.2183932,15.0550678 Z M10.0490094,15.7816707 C10.0490094,15.2042809 9.81052714,14.7477212 9.33316325,14.4123972 C8.85619882,14.0770732 8.26418769,13.7697266 7.55752934,13.4899521 C6.85087098,13.210583 6.08469194,12.9312138 5.25859275,12.6518447 C4.43249355,12.3724756 3.66631451,11.9998483 2.95965616,11.5339629 C2.2529978,11.0680774 1.66098668,10.4813617 1.18402225,9.77341041 C0.706658354,9.0654591 0.46817614,8.14301395 0.46817614,7.0068859 C0.46817614,6.03781165 0.63794991,5.18551288 0.977497452,4.44958411 C1.31704499,3.71365535 1.79400942,3.10828804 2.40918967,2.63307674 C3.02397046,2.15827091 3.76737984,1.79942961 4.63901835,1.55736378 C5.51105633,1.31529796 6.47017827,1.19406231 7.51638416,1.19406231 C8.72757022,1.19406231 9.87923559,1.30110649 10.9713803,1.51560033 C12.0635249,1.7296887 12.9583326,2.03257508 13.6558032,2.42385402 L12.3619273,5.88900402 C12.1414211,5.75844255 11.8617938,5.62342091 11.5222462,5.48353362 C11.1826987,5.34405181 10.7924187,5.22281616 10.3518059,5.12023215 C9.91159247,5.01805361 9.44341633,4.93412124 8.94767692,4.8688405 C8.45233698,4.80355977 7.94740981,4.77112214 7.43369435,4.77112214 C6.51571759,4.77112214 5.80466509,4.93412124 5.29973792,5.26011943 C4.79521022,5.58611763 4.54274664,6.03781165 4.54274664,6.61560697 C4.54274664,7.19299681 4.78122885,7.65401665 5.25859275,7.99866649 C5.73595664,8.34331632 6.3275683,8.66039417 7.03422666,8.94908909 C7.74088501,9.23778401 8.50746352,9.52647894 9.33316325,9.81517386 C10.1592624,10.1038688 10.9254415,10.4764961 11.6320998,10.9330557 C12.3387582,11.3896154 12.9307693,11.9625451 13.4081332,12.6518447 C13.8850976,13.3411444 14.1239793,14.2258808 14.1239793,15.3064594 C14.1239793,16.387038 13.9402242,17.318809 13.5731134,18.1009614 C13.2060026,18.8835193 12.6874935,19.5310555 12.0175862,20.0431646 C11.3476788,20.5556792 10.5447488,20.9327666 9.60879596,21.1752379 C8.67244368,21.4173038 7.64461329,21.5385394 6.52490534,21.5385394 C5.77270767,21.5385394 5.06125571,21.4963705 4.39134838,21.4128436 C3.72144105,21.3289112 3.10186666,21.2263272 2.53302466,21.1050916 C1.96378319,20.9842614 1.46364964,20.8536999 1.03262399,20.7142181 C0.601198882,20.5743308 0.256857728,20.4393092 0,20.3087477 L1.34900241,16.8156202 C1.55113306,16.9275301 1.83076045,17.0483602 2.18868351,17.1789217 C2.54660656,17.3094832 2.94607426,17.435179 3.38628766,17.5560092 C3.82690053,17.6772448 4.29947081,17.7749632 4.80439798,17.8495697 C5.30892568,17.9241763 5.81824699,17.9614796 6.33236191,17.9614796 C7.54394744,17.9614796 8.46591888,17.784289 9.09947464,17.4303134 C9.73263094,17.0763377 10.0490094,16.5269253 10.0490094,15.7816707 L10.0490094,15.7816707 Z" id="Fill-1" fill="#ffffff"></path>
    </g>
</svg>
