<?xml version="1.0" encoding="UTF-8"?>
<svg width="265px" height="54px" viewBox="0 0 265 54" version="1.1" xmlns="http://www.w3.org/2000/svg" xmlns:xlink="http://www.w3.org/1999/xlink">
    <title>ticketsolve</title>
    <g id="Landing-Page" stroke="none" stroke-width="1" fill="none" fill-rule="evenodd">
        <path d="M211.34343,40.3800499 L216.683954,40.3800499 L216.683954,6.38280619 L211.34343,6.38280619 L211.34343,40.3800499 Z M254.068091,16.0590483 C261.36245,16.0590483 264.879443,21.5508911 264.61907,27.3043386 C264.61907,28.3502934 264.61907,29.3964802 264.358467,30.4424351 L248.20659,30.4424351 C248.857868,34.888323 251.46298,36.5880577 254.979973,36.5880577 C257.845688,36.5880577 260.059894,35.5421028 261.753355,34.2345433 L263.967792,37.7650468 C261.492752,39.8571884 258.366664,41.0339456 254.198393,41.0339456 C248.076288,41.0339456 242.865834,36.9804647 242.865834,28.6118981 C242.865834,21.0279137 247.42501,16.0590483 254.068091,16.0590483 Z M225.150821,16.7128048 L231.272926,34.6266952 L237.39503,16.7128048 L243.256532,16.7128048 L233.617665,40.3801427 L228.667814,40.3801427 L219.289089,16.7128048 L225.150821,16.7128048 Z M254.328695,20.3741339 C250.942003,20.3741339 248.727566,22.3354732 248.336661,26.7813611 L259.929823,26.7813611 C259.799521,22.8584506 257.715386,20.3741339 254.328695,20.3741339 Z M69.3618452,40.3800499 L74.7023702,40.3800499 L74.7023702,16.7127121 L69.3618452,16.7127121 L69.3618452,40.3800499 Z M133.709487,16.0590483 C141.003846,16.0590483 144.520839,21.5508911 144.260466,27.3043386 C144.260466,28.3502934 144.260466,29.3964802 143.999863,30.4424351 L127.847986,30.4424351 C128.499264,34.888323 131.104376,36.5880577 134.621369,36.5880577 C137.487084,36.5880577 139.70129,35.5421028 141.394751,34.2345433 L143.609189,37.7650468 C141.134148,39.8571884 138.00806,41.0339456 133.839789,41.0339456 C127.717685,41.0339456 122.50723,36.9804647 122.50723,28.6118981 C122.50723,21.0279137 127.066407,16.0590483 133.709487,16.0590483 Z M106.745913,6.38289896 L106.745913,26.781338 L114.822082,16.7128048 L121.595464,16.7128048 L112.868248,26.5197333 L123.028322,40.3801427 L116.515312,40.3801427 L109.351255,30.3116096 L106.745913,33.3191356 L106.745913,40.3801427 L101.275086,40.3801427 L101.275086,6.38289896 L106.745913,6.38289896 Z M133.970091,20.3741339 C130.5834,20.3741339 128.368962,22.3354732 127.978057,26.7813611 L139.571219,26.7813611 C139.440918,22.8584506 137.356782,20.3741339 133.970091,20.3741339 Z M68.2556893,9.74252453 L72.0318998,5.95157593 L75.8083412,9.74252453 L72.0318998,13.5332412 L68.2556893,9.74252453 Z M61.0253958,36.1958594 C59.9834436,36.1958594 59.2018639,35.672882 59.2018639,34.1037177 L59.2018639,21.2892632 L64.9330631,21.2892632 L64.9330631,16.7128048 L59.2018639,16.7128048 L59.2018639,10.5671822 L56.8571248,10.5671822 L53.7310372,13.7052787 L53.7310372,16.7128048 L50.0837423,16.7128048 L50.0837423,21.2892632 L53.7310372,21.2892632 L53.7310372,35.1499045 C53.7310372,39.3339559 55.8151726,41.0339224 59.72284,41.0339224 C62.067348,41.0339224 64.0214127,40.3801427 65.4542703,39.4647582 L64.1514835,35.5420796 C63.1095312,35.9342547 62.067348,36.1958594 61.0253958,36.1958594 M90.3335017,36.3266153 C86.4258343,36.3266153 83.4298174,33.4498916 83.4298174,28.3502239 C83.4298174,23.3815904 86.2955325,20.635669 90.2031999,20.635669 C92.5479389,20.635669 94.2411691,21.4200192 95.8043284,22.5970083 L98.0187657,18.8049001 C95.8043284,16.9743631 92.9386133,15.9281763 89.6822238,15.9281763 C83.2995156,15.9281763 77.9589907,20.3740643 77.9589907,28.3504558 C77.9589907,36.4574177 83.1692138,41.0338761 89.8125256,41.0338761 C93.4595894,41.0338761 96.5859081,39.5955142 98.5397418,37.6341749 L96.1950027,34.1036714 C94.7623762,35.4112309 92.8083115,36.3266153 90.3335017,36.3266153 M156.895442,36.1958594 C155.853259,36.1958594 155.071911,35.672882 155.071911,34.1037177 L155.071911,21.2892632 L160.80311,21.2892632 L160.80311,16.7128048 L155.071911,16.7128048 L155.071911,10.5671822 L152.727172,10.5671822 L149.601084,13.7052787 L149.601084,16.7128048 L145.953789,16.7128048 L145.953789,21.2892632 L149.601084,21.2892632 L149.601084,35.1499045 C149.601084,39.3339559 151.684988,41.0339224 155.592887,41.0339224 C157.937395,41.0339224 159.891459,40.3801427 161.324317,39.4647582 L160.02153,35.5420796 C158.979578,35.9342547 157.937395,36.1958594 156.895442,36.1958594 M175.392127,26.3889541 C172.39611,25.4735697 170.181904,24.9505923 170.181904,22.989253 C170.181904,21.4200887 171.614531,20.3741339 174.089572,20.3741339 C176.173707,20.3741339 178.648517,21.158716 180.341978,22.2046708 L182.16551,18.4127946 C180.211676,16.9744327 177.215659,15.9282459 173.95927,15.9282459 C168.618745,15.9282459 164.97145,18.543365 164.97145,22.989253 C164.97145,26.7813611 167.185887,28.4810958 171.223856,29.7886553 C174.610548,30.9654125 177.215659,31.0962149 177.215659,33.3191588 C177.215659,35.0191254 175.652731,36.1958826 172.656714,36.1958826 C170.572579,36.1958826 167.967467,35.5421028 166.143704,34.1037409 L164.710846,38.2880242 C166.534609,39.7263861 169.790999,40.9031433 173.047388,40.9031433 C178.778819,40.9031433 182.686486,38.0264195 182.686486,33.1883565 C182.686486,29.0040732 179.430097,27.5657113 175.392127,26.3889541 M196.624203,16.0590483 C190.502098,16.0590483 184.770668,19.8509245 184.770668,28.6118981 C184.770668,37.3726398 190.6324,41.164748 196.624203,41.164748 C202.746307,41.164748 208.477737,37.3726398 208.477737,28.6118981 C208.477737,19.8509245 202.746307,16.0590483 196.624203,16.0590483 M196.624203,36.1958826 C192.716535,36.1958826 190.241494,33.4499612 190.241494,28.4810958 C190.241494,23.5122304 192.716535,20.766309 196.624203,20.766309 C200.662172,20.766309 203.006911,23.6430327 203.006911,28.4810958 C203.006911,33.3191588 200.662172,36.1958826 196.624203,36.1958826 M27.6436956,25.0579244 L27.6305268,14.6438319 L38.0174736,14.6438319 L27.6436956,25.0579244 Z M15.7252409,41.1647016 L26.1015602,41.1647016 L26.1142669,51.3457154 L15.7252409,41.1647016 Z M14.5874106,27.7184996 L26.0842328,27.7184996 L26.0994809,39.5964651 L14.5874106,39.5964651 L14.5874106,27.7184996 Z M13.0242512,26.1502631 L2.66826271,26.1502631 L13.0242512,15.7535645 L13.0242512,26.1502631 Z M14.5938795,1.56800462 L24.9452473,1.56800462 L14.5938795,11.959369 L14.5938795,1.56800462 Z M15.6910482,13.0758273 L26.0518884,2.6751861 L26.0650572,13.0758273 L15.6910482,13.0758273 Z M14.5874106,15.7510134 L24.9688125,26.1502631 L14.5874106,26.1502631 L14.5874106,15.7510134 Z M26.0805363,25.0470242 L15.6952068,14.6438319 L26.0671365,14.6438319 L26.0805363,25.0470242 Z M37.7917558,41.1647016 L27.6776573,51.3188128 L27.6642575,41.1647016 L37.7917558,41.1647016 Z M40.6265127,13.5598423 C40.5056832,13.2660009 40.2205903,13.0758273 39.9045391,13.0758273 L27.6284476,13.0758273 L27.6127374,0.782726754 C27.6127374,0.781799077 27.6118133,0.78110332 27.6118133,0.780175644 C27.6111202,0.637081598 27.5623725,0.510453803 27.4949113,0.395190041 C27.4782771,0.365968242 27.4616428,0.341848662 27.441312,0.314946054 C27.3588338,0.20733562 27.2594902,0.114104167 27.1328849,0.060994707 C27.1317298,0.0605308689 27.1310367,0.0591393547 27.1298815,0.0586755166 C27.1245678,0.0563563263 27.118561,0.0591393547 27.1130162,0.0570520834 C27.0252242,0.0224961467 26.9311944,-2.27373675e-13 26.8309267,-2.27373675e-13 L13.8122998,-2.27373675e-13 C13.3802708,-2.27373675e-13 13.0304891,0.351125424 13.0304891,0.783886349 L13.0304891,13.5287652 L0.228569707,26.3800948 C0.00539324559,26.6036648 -0.0613748677,26.9420347 0.0594546245,27.2344846 C0.180284117,27.5280941 0.465145998,27.7184996 0.781197136,27.7184996 L13.0242512,27.7184996 L13.0242512,40.3805833 C13.0242512,40.4877299 13.0457371,40.5900062 13.0845504,40.6843973 C13.1240568,40.7776287 13.1825078,40.8657579 13.2601344,40.9425231 L26.3508432,53.7692694 C26.356619,53.7757631 26.3628568,53.7808653 26.3686326,53.7871272 L26.3693257,53.7871272 L26.3697878,53.7885187 C26.3704809,53.7885187 26.371174,53.7885187 26.3718671,53.7896783 C26.4397903,53.8522964 26.5167238,53.9007675 26.598278,53.9339319 C26.6809872,53.9684878 26.7699344,53.9902882 26.8641953,53.9939989 C26.8819847,54.0004927 26.8875294,53.9939989 26.8983879,53.9939989 L26.9295772,53.9939989 L26.9314254,53.9939989 C27.0293828,53.9902882 27.1222575,53.9670963 27.2082012,53.9302212 C27.2920657,53.8945057 27.3715405,53.842092 27.44085,53.7743716 C27.4415431,53.7743716 27.4415431,53.7743716 27.4422361,53.773212 C27.4429292,53.773212 27.4433913,53.7718205 27.4440844,53.7718205 C27.4466257,53.7692694 27.4491671,53.7667183 27.4517084,53.7641672 L40.2307557,40.9346379 C40.4541632,40.7112999 40.5209313,40.37293 40.4001018,40.0804801 C40.2792723,39.7868706 39.9941794,39.5964651 39.6781282,39.5964651 L27.6624092,39.5964651 L27.646468,27.273215 L40.4571666,14.4140001 C40.6805741,14.1904302 40.7473422,13.8520603 40.6265127,13.5598423 L40.6265127,13.5598423 Z" id="ticketsolve" fill="#ffffff"></path>
    </g>
</svg>
