<?xml version="1.0" encoding="UTF-8"?>
<svg width="88px" height="19px" viewBox="0 0 88 19" version="1.1" xmlns="http://www.w3.org/2000/svg" xmlns:xlink="http://www.w3.org/1999/xlink">
    <title>triptyk</title>
    <g id="Landing-Page" stroke="none" stroke-width="1" fill="none" fill-rule="evenodd">
        <path d="M18.5050186,4.21650193 C19.5047598,4.21650193 20.3151921,5.19928821 20.3151921,6.41160187 C20.3151921,7.62391552 19.5047598,8.60670181 18.5050186,8.60670181 L16.767062,8.60670181 L16.767062,4.21650193 L18.5050186,4.21650193 Z M26.3329563,17.7805771 L21.4528286,11.364941 C23.6172503,11.024711 25.2895284,8.782382 25.2895284,6.06505464 C25.2895284,3.11218346 23.3159015,0.718841655 20.8810384,0.718841655 L16.767062,0.718841655 L15.3408557,0.718841655 L15.0692257,0.718841655 L12.1000182,0.718841655 L8.51147051,0.718841655 L3.84472395,0.718841655 L0,0.718841655 L0,4.66292214 L3.84472395,4.66292214 L3.84472395,18.7188417 L8.51147051,18.7188417 L8.51147051,4.66292214 L12.1000182,4.66292214 L12.1000182,18.7188417 L16.767062,18.7188417 L16.767062,11.803239 L21.1318653,18.7188417 L26.3329563,18.7188417 L27.0468024,18.7188417 L31,18.7188417 L31,0.718841655 L26.3329563,0.718841655 L26.3329563,17.7805771 Z M38.9485465,8.86691305 L36.6471605,8.86691305 L36.6471605,4.40662159 L38.9485465,4.40662159 C39.9597123,4.40662159 40.7797124,5.40505063 40.7797124,6.63661691 C40.7797124,7.86848401 39.9597123,8.86691305 38.9485465,8.86691305 L38.9485465,8.86691305 Z M88,18.7188417 L80.2921174,9.13765307 L87.2075206,0.718841655 L81.4840915,0.718841655 L76.0050941,8.13591499 L76.0050941,0.718841655 L72.1953931,0.718841655 L71.3579336,0.718841655 L66.4542087,0.718841655 L63.3106284,5.47754879 L60.1673439,0.718841655 L59.3642114,0.718841655 L54.4258636,0.718841655 L52.8343946,0.718841655 L48.1875301,0.718841655 L44.359186,0.718841655 L44.359186,2.74487949 C43.4533685,1.50218279 42.1323723,0.718841655 40.6604558,0.718841655 L36.6471605,0.718841655 L34.4472757,0.718841655 L32,0.718841655 L32,18.7188417 L36.6471605,18.7188417 L36.6471605,12.7613579 L40.6604558,12.7613579 C43.3909289,12.7613579 45.6044261,10.0653889 45.6044261,6.74009976 C45.6044261,6.01000417 45.4978942,5.31029162 45.3025856,4.66292214 L48.1875301,4.66292214 L48.1875301,18.7188417 L52.8343946,18.7188417 L52.8343946,4.66292214 L57.2306131,4.66292214 L60.9577518,9.9047498 L60.9577518,18.7188417 L65.6049123,18.7188417 L65.6049123,9.9871751 L71.3579336,1.89625993 L71.3579336,18.7188417 L76.0050941,18.7188417 L76.0050941,11.4597 L81.9904142,18.7188417 L88,18.7188417 Z" id="triptyk" fill="#ffffff"></path>
    </g>
</svg>
