<?xml version="1.0" encoding="UTF-8"?>
<svg width="128px" height="51px" viewBox="0 0 128 51" version="1.1" xmlns="http://www.w3.org/2000/svg" xmlns:xlink="http://www.w3.org/1999/xlink">
    <title>Combined Shape</title>
    <g id="Landing-Page" stroke="none" stroke-width="1" fill="none" fill-rule="evenodd">
        <path d="M9.6026348,0.464355402 C45.9025404,0.466442673 82.2024461,0.465746916 118.502583,0.468529945 C120.010064,0.468529945 121.461866,0.774431156 122.815248,1.44838788 C124.442635,2.258713 125.721625,3.45773443 126.608093,5.05867155 C127.393138,6.47662455 127.776189,7.99383889 127.774806,9.62307014 C127.766254,20.3576747 127.776882,31.0925113 127.764406,41.8271158 C127.762096,44.0113293 127.012629,45.948781 125.593865,47.5995807 C124.131204,49.3014026 122.257538,50.2826521 120.047491,50.62079 C119.648037,50.6820166 119.246735,50.7188417 118.841737,50.718196 C100.517933,50.7172683 82.1941289,50.7172683 63.8703249,50.7172683 C45.5465208,50.7172683 27.2229478,50.7246897 8.89914378,50.7072958 C6.72559911,50.7052085 4.78424113,49.947761 3.12589678,48.5151971 C1.40170844,47.025813 0.435303536,45.1240769 0.104235347,42.8797964 C0.0427809594,42.4621102 0.00327456715,42.044424 0.00350559868,41.6209398 C0.00604694555,30.9025696 -0.0135907348,20.1839674 0.0194467745,9.46559711 C0.0275328782,6.79945585 1.06994716,4.52409816 3.06952509,2.73762581 C4.46957618,1.48688644 6.1320791,0.801565683 7.98402787,0.560369884 C8.52186928,0.490330334 9.06040379,0.464355402 9.6026348,0.464355402 Z M118.618561,4.32319494 C82.5027871,4.32319494 46.3870136,4.32319494 10.271009,4.32441587 C9.68996472,4.32441587 9.10938248,4.31884982 8.52741404,4.35943565 C7.33020863,4.4429265 6.30027006,4.90398155 5.44083275,5.72126424 C4.36630508,6.74309952 3.84602207,8.01842231 3.84602207,9.50827021 L3.84602207,41.6893559 C3.84602207,41.9658034 3.85410817,42.2408594 3.90123861,42.5135962 C4.22029316,44.3608313 5.21765629,45.6871763 6.92382417,46.4636413 C7.66913189,46.802475 8.45949077,46.8699634 9.26833217,46.8697315 C27.4717688,46.865557 45.6752054,46.8664846 63.878642,46.8664846 L118.004017,46.865557 C118.528227,46.865325 119.053824,46.8950107 119.57711,46.8184774 C121.231989,46.5765858 122.462925,45.7159343 123.304573,44.2740936 C123.829477,43.3751754 123.971748,42.3911429 123.971748,41.371163 C123.971748,31.382642 123.971748,21.393889 123.968789,11.405136 C123.968558,10.6351648 123.98704,9.86565745 123.934365,9.09475857 C123.831325,7.58914017 123.179585,6.37991431 122.029048,5.43438039 C121.03954,4.62104032 119.875372,4.32319494 118.618561,4.32319494 Z M65.9296476,9.62286141 C67.610171,9.62216565 69.2918495,9.62239757 70.9709867,9.67968157 C72.1543302,9.72003549 73.3489943,9.68339228 74.5150104,9.95682482 C76.2010785,10.3524787 77.7372072,11.0528742 79.0559352,12.2029607 C80.0315814,13.0538717 80.6558286,14.124178 81.0444236,15.3440722 C81.6388678,17.2100927 81.7275839,19.0995371 81.2659829,21.0068393 C80.8258678,22.8253165 79.728468,24.1539807 78.1805567,25.1417238 C78.050948,25.224287 77.9171808,25.3022118 77.7975064,25.3977625 C77.6270052,25.5341309 77.6200742,25.6974019 77.7637758,25.8604409 C77.8725917,25.98359 78.013983,26.0633701 78.1505226,26.1508036 C79.7448712,27.1707835 80.8461986,28.5725022 81.4018294,30.3944581 C81.523352,30.793127 81.5466862,31.208262 81.5808788,31.6194545 C81.6781431,32.7941244 81.6910809,33.9678667 81.4819973,35.1344194 C81.2458831,36.4526473 80.6724628,37.6041253 79.8012429,38.6169157 C79.0499284,39.4900909 78.2237596,40.2684112 77.1878142,40.7916205 C76.1996923,41.2904784 75.1734503,41.6882195 74.0584921,41.7582591 C72.226181,41.8732909 70.3906355,41.792815 68.5564761,41.8081217 C66.9722929,41.8213411 65.3869545,41.7802914 63.8036954,41.8222687 C61.8237552,41.8749144 59.8440459,41.8480118 57.8645678,41.8447649 C57.229,41.8436053 56.5871944,41.8552012 55.9548611,41.7577952 C55.3010419,41.6573743 54.7253113,41.4113082 54.3741433,40.8006654 C54.1784596,40.4606721 54.1458842,40.0773099 54.0881263,39.7013691 C53.9587486,38.8571838 53.9705313,38.003026 53.9502005,37.1539704 C53.8596361,33.3658049 53.9000666,29.5767116 53.895446,25.7880822 C53.895446,22.8830643 53.8852806,19.9782784 53.8998356,17.0732605 C53.9069976,15.6304922 53.953666,14.1874919 53.9968688,12.7451874 C54.0081894,12.3657679 54.0707989,11.9875079 54.1144639,11.609248 C54.2736446,10.2330404 55.389758,9.69150944 56.4016761,9.66483875 C59.5774355,9.58065214 62.7536571,9.62425292 65.9296476,9.62286141 Z M112.648059,9.46930781 C113.177583,9.46814822 113.435183,9.69797999 113.462214,10.2501792 C113.532679,11.6841346 113.540072,13.1194816 113.458055,14.553205 C113.431487,15.0168112 113.188904,15.2320321 112.726841,15.2714583 C112.662383,15.2770244 112.597463,15.2758648 112.533005,15.2767924 C109.171265,15.3310615 105.809063,15.2990567 102.447555,15.3373233 C101.179422,15.3519342 99.9096732,15.3289742 98.6431583,15.3860263 C97.6596571,15.4305548 96.6731524,15.3809241 95.6919615,15.5080157 C94.3644543,15.6800997 93.504786,16.4621307 92.9722583,17.6291473 C92.545081,18.5656363 92.4919437,19.5512922 92.8941696,20.5153797 C93.3844185,21.6905134 94.2547143,22.3997219 95.5369393,22.5653121 C96.2991124,22.6636457 97.0649819,22.6949548 97.8317755,22.7123487 C100.175244,22.7649943 102.518886,22.771662 104.862585,22.7681253 L109.550027,22.7580454 C110.331268,22.7576309 111.112508,22.7587325 111.893741,22.7626752 C112.120152,22.7638348 112.34587,22.7610517 112.569046,22.8127697 C112.883018,22.8855922 113.067843,23.0692721 113.116591,23.3858416 C113.143621,23.5616362 113.163259,23.7402139 113.163952,23.9178639 C113.168342,24.9807488 113.166725,26.0436338 113.165107,27.1065187 C113.164876,27.2278124 113.161411,27.3504976 113.143853,27.4701678 C113.059295,28.0469504 112.854601,28.2331814 112.269629,28.2691289 C112.140714,28.2770141 112.011105,28.2733034 111.881727,28.2733034 C107.322782,28.2746949 102.764068,28.2654182 98.2053535,28.286059 C97.2955514,28.2902335 96.37697,28.2730715 95.4747918,28.4289211 C94.4088123,28.6128329 93.5225754,29.0977756 92.9713341,30.079257 C92.7537024,30.4663298 92.6421142,30.8888863 92.5808908,31.3255899 C92.4304893,32.3979835 92.6240937,33.3813202 93.2829957,34.2677148 C93.8899155,35.0845337 94.6865122,35.4843621 95.6896512,35.5764339 C97.3424508,35.728109 98.9973296,35.716745 100.652902,35.7179045 C102.08368,35.7188322 103.514227,35.7181365 104.945005,35.7181365 C107.232449,35.7181365 109.519892,35.7204557 111.807566,35.7155854 C112.131703,35.7148896 112.453068,35.7401688 112.774895,35.7654479 C113.1792,35.7969889 113.438418,36.0479253 113.458517,36.4521602 C113.535451,37.999756 113.535451,39.5482794 113.457362,41.0958751 C113.437494,41.4892098 113.254286,41.6789196 112.875163,41.7705276 C112.723606,41.8071708 112.570894,41.8099538 112.417258,41.8078666 C110.518641,41.780964 108.619331,41.7816597 106.721407,41.7438569 C104.935302,41.7081414 103.149428,41.7480315 101.364479,41.70072 C100.047599,41.6659321 98.7293331,41.7069818 97.4145326,41.6503935 C96.0452087,41.5914861 94.6615608,41.6234909 93.3164953,41.3161982 C91.4585397,40.8913225 89.8029677,40.0520075 88.4754605,38.6549272 C87.5751306,37.707538 87.0176515,36.55606 86.720545,35.2851436 C86.3636012,33.7574929 86.3335671,32.2154632 86.6170428,30.6738974 C86.8596259,29.3538142 87.4815628,28.2227451 88.3973718,27.2498447 C88.8769933,26.7405505 89.4032831,26.2885403 89.988717,25.9058739 C90.0626471,25.8576347 90.1328807,25.8003507 90.1947972,25.7372687 C90.3592916,25.5695913 90.3588296,25.4216269 90.1952592,25.2511664 C90.0367716,25.0858082 89.8371604,24.9751828 89.6502558,24.8480911 C87.8985747,23.6581146 86.9342491,21.9620906 86.5978672,19.9063603 C86.2642577,17.8666323 86.5495816,15.8925375 87.468394,14.034866 C88.1501681,12.657035 89.2131442,11.6335763 90.5478133,10.8916673 C91.6685473,10.2689647 92.8572046,9.83666757 94.1345779,9.69055858 C94.8235139,9.6117061 95.5170706,9.5409708 96.2097032,9.52821525 C101.688616,9.42802622 107.168453,9.4813676 112.648059,9.46930781 Z M27.5570887,27.4582472 C28.2439455,28.1470467 28.8277622,28.925367 29.4483129,29.6719144 C29.6809616,29.9518407 29.9082967,30.2368692 30.1243111,30.5300148 C30.4329693,30.9486287 30.4466001,31.2703004 30.1390972,31.6889142 C29.6259761,32.3869906 29.0500145,33.0345085 28.4888389,33.6936224 C27.6233948,34.7098916 26.7542542,35.722914 25.8832653,36.7343129 C25.0966029,37.6473782 24.3046268,38.556037 23.5161162,39.4677107 C23.1404589,39.9020951 22.7463191,40.3225643 22.3988477,40.778749 C21.9490293,41.3692149 21.3783814,41.6333707 20.642546,41.6138895 L19.8428517,41.6032556 L18.2425904,41.6092511 C17.4910448,41.6092511 16.7394992,41.6136576 15.9879536,41.6069319 C15.7139502,41.6046127 15.4390227,41.586755 15.1666365,41.5573012 C14.7362248,41.5109174 14.5705752,41.1702284 14.8055343,40.8042601 C15.1742606,40.2295647 15.6508786,39.7406794 16.0907627,39.223268 C16.9917857,38.1631661 17.902974,37.1118771 18.8146245,36.0605881 C19.5458393,35.2173305 20.283754,34.3796389 21.0186653,33.5393963 C21.9187642,32.5106034 22.8153975,31.4787956 23.719886,30.4537135 C24.4531801,29.6227475 25.1952534,28.799435 25.9340922,27.9738032 C26.0960453,27.7929063 26.2515295,27.60482 26.4273445,27.438534 C26.8062363,27.080451 27.1872072,27.0874086 27.5570887,27.4582472 Z M21.0741129,9.51304774 C21.8750992,9.51304774 22.4270335,9.77094171 22.9223651,10.383208 C24.174325,11.9305718 25.4724912,13.4399009 26.7503266,14.9659282 C27.9089498,16.3493252 29.0631833,17.736433 30.2231926,19.1184385 C31.5703375,20.7237821 32.9237202,22.3237916 34.270403,23.929599 C35.2321873,25.0766706 36.1858855,26.2306997 37.1455905,27.3793947 C38.2764898,28.7331061 39.4110857,30.0835707 40.5422161,31.4372821 C41.8498546,33.0018079 43.1544897,34.5688849 44.4621281,36.1334107 C45.5156319,37.3936587 46.5723702,38.6511238 47.6251809,39.9120676 C47.8428126,40.1727446 48.0784647,40.420666 48.2572831,40.7112606 C48.5645551,41.2110461 48.3887401,41.5215857 47.8053855,41.5709845 C47.1111357,41.6298919 46.4166549,41.5985828 45.7224052,41.6085553 C45.4234503,41.6127299 45.1242645,41.6092511 44.8253097,41.6092511 C44.0414197,41.6092511 43.2572987,41.6131937 42.4734087,41.6069319 C42.2236636,41.6048446 41.9732254,41.5844358 41.7248665,41.5561416 C41.2563346,41.5030322 40.9723968,41.1660538 40.6972383,40.8376565 C39.2990354,39.1694628 37.9077635,37.4954712 36.5146434,35.8228711 C35.4738463,34.5732913 34.4353596,33.3213924 33.3929453,32.0729722 C32.0963963,30.5202742 30.7954577,28.971287 29.4991398,27.4183571 C28.555376,26.2877518 27.6166949,25.15274 26.6747793,24.0207432 C25.6499234,22.7892531 24.6222952,21.5600822 23.5988255,20.3272006 C22.4408954,18.9326714 21.2855067,17.5360549 20.1308111,16.1387427 C19.001991,14.7725077 17.873633,13.4060407 16.7485095,12.0365588 C16.3479008,11.5488331 15.9569954,11.0529902 15.5635487,10.5592345 C15.5134149,10.4963845 15.470674,10.426113 15.4332469,10.3549139 C15.1885845,9.89107578 15.3489204,9.55293782 15.8671242,9.51304774 L21.0741129,9.51304774 Z M60.1654108,27.9386674 C59.8618354,27.9384355 59.6971099,28.1251303 59.6740067,28.4312635 C59.6679999,28.5122032 59.6698482,28.5933749 59.668924,28.6745466 C59.6451278,30.7666882 59.7179027,32.8581341 59.7248337,34.9500438 C59.7250647,35.0226345 59.7308405,35.0959209 59.7412369,35.1680477 C59.8181704,35.6940401 59.9528618,35.8134784 60.4867757,35.8139422 C60.8246278,35.8142374 61.1624875,35.8144482 61.5030016,35.8145956 L66.5023747,35.814638 C68.1533261,35.7807778 70.2455477,35.860326 72.3373072,35.7680223 C73.6301596,35.7109702 74.548741,35.0743524 75.1875432,33.995697 C75.6440615,33.2252619 75.7274639,32.3745829 75.677099,31.4854053 C75.5770624,29.7262994 74.1693872,28.240626 72.4204785,28.1353348 C71.0185792,28.0511482 69.6148316,28.0038367 68.2106219,27.985747 C67.2492997,27.9732234 66.2875154,27.9818044 65.3261932,27.9792533 C64.8010585,27.9780937 64.2747687,27.9931684 63.7507892,27.9669616 C62.5558941,27.9071265 61.3605369,27.9391313 60.1654108,27.9386674 Z M43.8736249,9.4251238 L44.3424307,9.42763196 C45.5054434,9.42763196 46.6684562,9.42554469 47.8314689,9.42995115 C47.9918048,9.43064691 48.1537579,9.45453457 48.3124766,9.4816691 C48.740578,9.5547236 48.8979105,9.9153577 48.6846684,10.2950092 C48.4936053,10.6356982 48.2207571,10.9174799 47.9696258,11.2131766 C47.1108816,12.2243436 46.2484409,13.2322638 45.3825347,14.2374009 C44.5854759,15.1629898 43.7821792,16.0832445 42.981655,17.0060504 C42.1497104,17.9654994 41.3179969,18.9251804 40.4858213,19.8843976 C39.6855281,20.8072034 38.8843107,21.7293135 38.0842485,22.6521194 C37.8245691,22.9517588 37.5671999,23.2532535 37.3077515,23.5528929 C37.2442178,23.6261793 37.1825324,23.7022488 37.1106816,23.7667223 C36.7394139,24.0988303 36.4058044,24.1078752 36.0738121,23.7391239 C35.5329673,23.1382217 35.0168428,22.5143594 34.4970219,21.8946718 C34.1747329,21.5103819 33.8561404,21.1221495 33.5504857,20.7244083 C33.0655505,20.0928928 33.0565403,19.7491888 33.5576477,19.1415609 C34.278235,18.2679219 35.0207704,17.4126044 35.7591471,16.5540402 C36.7826168,15.3642955 37.8083969,14.1766381 38.8378734,12.9924595 C39.7294241,11.9666816 40.6327574,10.9511081 41.5203805,9.92185143 C41.9041239,9.4767988 42.417707,9.44734508 42.9363728,9.43087883 C43.2485734,9.420829 43.561082,9.42273589 43.8736249,9.4251238 Z M65.76446,15.3248229 C65.1261199,15.3192568 64.4875487,15.315778 63.8492086,15.3199526 C62.7266264,15.327374 61.6035821,15.2993118 60.481693,15.3695833 C60.0371883,15.3971816 59.8091602,15.5574377 59.7361542,15.9491489 C59.705196,16.1158987 59.6786274,16.2865911 59.6779343,16.4556601 C59.6746998,17.452912 59.6079317,18.4487723 59.6252591,19.4467199 C59.6388899,20.2333893 59.6296487,21.0205225 59.6268763,21.8074238 C59.6261832,22.0270512 59.6448968,22.2438955 59.668693,22.4618994 C59.6950306,22.7028632 59.8246393,22.8424785 60.0455054,22.9159968 C60.1792727,22.9605253 60.3162744,22.9591338 60.4532761,22.9572784 C62.0524764,22.9361738 63.6516766,22.9774554 65.25157,22.9206352 C66.8010985,22.8654385 68.3529373,22.9319992 69.903852,22.8707726 C70.7182382,22.8385359 71.5351657,22.8543064 72.3495518,22.8083864 C73.6521076,22.7351 74.6319124,22.1260806 75.2092602,20.9493234 C75.6759439,19.9982234 75.6174929,18.9891437 75.3307828,18.0025601 C74.9544324,16.7072923 74.1134776,15.8723837 72.775805,15.5790061 C71.911054,15.3890645 71.0296687,15.3524212 70.1522109,15.3334039 C68.6902434,15.3018629 67.2271207,15.3248229 65.76446,15.3248229 Z" id="Combined-Shape" fill="#ffffff"></path>
    </g>
</svg>
