<?xml version="1.0" encoding="UTF-8"?>
<svg width="1200px" height="900px" viewBox="0 0 1200 900" version="1.1" xmlns="http://www.w3.org/2000/svg" xmlns:xlink="http://www.w3.org/1999/xlink">
    <!-- Generator: Sketch 54.1 (76490) - https://sketchapp.com -->
    <title>devices</title>
    <desc>Created with Sketch.</desc>
    <g id="devices" stroke="none" stroke-width="1" fill="none" fill-rule="evenodd" stroke-linecap="round" stroke-linejoin="round">
        <g id="Group-2" transform="translate(227.000000, 178.000000)" stroke="#FEF033" stroke-width="3.6">
            <g id="Tablet" transform="translate(187.400966, 283.303965)">
                <path d="M9.61030596,0 L100.908213,0 C106.193881,0 110.518519,4.3215859 110.518519,9.60352423 L110.518519,76.8281938 C110.518519,82.1101322 106.193881,86.4317181 100.908213,86.4317181 L9.61030596,86.4317181 C4.32463768,86.4317181 0,82.1101322 0,76.8281938 L0,9.60352423 C0,4.3215859 4.32463768,0 9.61030596,0 Z" id="Path"></path>
                <ellipse id="Oval" cx="100.908213" cy="43.215859" rx="4.80515298" ry="4.80176211"></ellipse>
                <path d="M91.2979066,0 L91.2979066,86.4317181" id="Path"></path>
            </g>
            <g id="Tablet-Copy" transform="translate(457.690821, 394.944934)">
                <path d="M9.61030596,0 L100.908213,0 C106.193881,0 110.518519,4.3215859 110.518519,9.60352423 L110.518519,76.8281938 C110.518519,82.1101322 106.193881,86.4317181 100.908213,86.4317181 L9.61030596,86.4317181 C4.32463768,86.4317181 0,82.1101322 0,76.8281938 L0,9.60352423 C0,4.3215859 4.32463768,0 9.61030596,0 Z" id="Path"></path>
                <ellipse id="Oval" cx="100.908213" cy="43.215859" rx="4.80515298" ry="4.80176211"></ellipse>
                <path d="M91.2979066,0 L91.2979066,86.4317181" id="Path"></path>
            </g>
            <g id="Shopping-Cart" transform="translate(46.850242, 98.436123)">
                <path d="M146.557166,117.183429 L63.9522178,117.183429 C50.9619236,117.183429 39.9701361,107.86801 37.6385449,95.2256564 L21.6504904,0.740697347 L0,0.740697347" id="Path"></path>
                <path d="M26.4283414,28.3508295 L156.167472,28.3508295 L148.183525,66.8106575 C145.189545,81.3988681 132.548297,92.0084758 117.911062,93.0031265 L38.0715967,97.9763802" id="Path"></path>
                <ellipse id="Oval" cx="51.0547504" cy="141.792459" rx="11.4122383" ry="11.404185"></ellipse>
                <ellipse id="Oval" cx="131.541063" cy="141.792459" rx="11.4122383" ry="11.404185"></ellipse>
            </g>
            <g id="Shopping-Cart-Copy" transform="translate(629.475040, 424.955947)">
                <path d="M109.31723,87.3366655 L47.7020641,87.3366655 C38.0125823,87.3366655 29.8137901,80.4221281 28.0746523,71.038113 L16.1491363,0.904947475 L0,0.904947475" id="Path"></path>
                <path d="M19.2206119,21.3124365 L116.52496,21.3124365 L110.537,49.8257572 C108.291515,60.6411547 98.8105785,68.5068984 87.8326521,69.2443119 L27.9530534,72.9313792" id="Path"></path>
                <ellipse id="Oval" cx="38.4412238" cy="105.343273" rx="8.40901771" ry="8.4030837"></ellipse>
                <ellipse id="Oval" cx="98.5056361" cy="105.343273" rx="8.40901771" ry="8.4030837"></ellipse>
            </g>
            <g id="Money---Alt" transform="translate(374.801932, 260.495595)">
                <rect id="Rectangle" x="0" y="12.4741429" width="87.6940419" height="52.8193833"></rect>
                <polyline id="Path" points="13.2141707 12.4741429 13.2141707 -0.73070293 100.908213 -0.73070293 100.908213 52.0886803 87.7541063 52.0886803"></polyline>
                <ellipse id="Oval" cx="44.4476651" cy="38.8838345" rx="13.2141707" ry="13.2048458"></ellipse>
            </g>
            <g id="Gift" transform="translate(258.276973, 439.361233)">
                <rect id="Rectangle" x="0" y="24.0088106" width="110.518519" height="19.2070485"></rect>
                <path d="M100.908213,43.215859 L97.5446055,87.8722467 C96.8238325,97.9559471 88.4148148,105.638767 78.3239936,105.638767 L32.194525,105.638767 C22.1037037,105.638767 13.694686,97.9559471 12.973913,87.8722467 L9.61030596,43.215859" id="Path"></path>
                <path d="M55.2592593,24.0088106 L55.2592593,105.638767" id="Path"></path>
                <path d="M31.2334944,24.0088106 C24.5062802,24.0088106 19.2206119,18.7268722 19.2206119,12.0044053 C19.2206119,5.28193833 24.5062802,0 31.2334944,0 C37.9607085,0 41.8048309,2.40088106 46.1294686,9.12334802 C48.0515298,11.5242291 55.2592593,24.0088106 55.2592593,24.0088106" id="Path"></path>
                <path d="M79.2850242,24.0088106 C86.0122383,24.0088106 91.2979066,18.7268722 91.2979066,12.0044053 C91.2979066,5.28193833 86.0122383,0 79.2850242,0 C72.55781,0 68.7136876,2.40088106 64.3890499,9.12334802 C62.4669887,11.5242291 55.2592593,24.0088106 55.2592593,24.0088106" id="Path"></path>
            </g>
            <g id="File---Cloud" transform="translate(407.236715, 0.000000)">
                <path d="M0,0 L100.908213,0 L100.908213,0 L100.908213,95.82647 C100.908213,114.428079 85.7719807,129.647577 67.2721417,129.647577 L0,129.647577 L0,129.647577 L0,0 L0,0 Z" id="Path"></path>
                <path d="M65.4034711,56.4837284 L65.4034711,56.4837284 C65.1164967,48.7496596 58.5160852,42.949108 50.4808016,43.2253247 C42.445518,43.5015415 36.4190553,49.8545266 36.7060297,57.5885954 L36.7060297,57.5885954 L36.7060297,58.6934623 L35.558132,58.6934623 C29.8186438,58.9696791 25.5140276,63.389147 25.2270531,68.9134818 L25.2270531,78.0286344 L65.4034711,78.0286344 C71.7169082,78.0286344 76.8824477,73.056733 76.8824477,66.9799646 C76.8824477,61.179413 72.0038826,56.4837284 65.9774199,56.4837284 C65.6904455,56.4837284 65.6904455,56.4837284 65.4034711,56.4837284 Z" id="Cloud"></path>
            </g>
            <g id="Credit-Card" transform="translate(264.283414, 129.595384)">
                <path d="M7.70913674,0.0521930665 L78.9716446,0.0521930665 C83.1082546,0.0521930665 86.4927536,3.42843205 86.4927536,7.7425152 L86.4927536,52.5714662 C86.4927536,56.6979805 83.1082546,60.0742195 78.9716446,60.0742195 L7.70913674,60.0742195 C3.38449905,60.0742195 0,56.6979805 0,52.5714662 L0,7.7425152 C0,3.42843205 3.38449905,0.0521930665 7.70913674,0.0521930665 Z" id="Path"></path>
                <path d="M0,19.2592415 L86.4927536,19.2592415" id="Path"></path>
                <path d="M9.61030596,33.6645279 L28.8309179,33.6645279" id="Path"></path>
            </g>
            <g id="Notification" transform="translate(46.850242, 394.944934)">
                <path d="M91.2979066,50.5518845 L91.2979066,95.9151982 C91.2979066,107.319383 82.1681159,116.442731 70.7558776,116.442731 L0,116.442731 L0,45.7367841 C0,34.3325991 9.12979066,25.2092511 20.542029,25.2092511 L20.542029,25.2092511 L65.937377,25.2092511" id="Path"></path>
                <ellipse id="Oval" cx="91.2979066" cy="25.2092511" rx="25.2270531" ry="25.2092511"></ellipse>
            </g>
            <g id="Shopping-Bag" transform="translate(0.313380, 271.299559)">
                <path d="M54.0449135,86.4317181 L18.6069103,86.4317181 C10.7732464,86.4317181 4.05867741,80.2565108 3.6856458,72.397156 L0.887908703,22.80837 L71.7639151,22.80837 L68.7796622,72.397156 C68.4066306,80.2565108 61.8785774,86.4317181 54.0449135,86.4317181 Z" id="Path"></path>
                <path d="M21.3098089,40.814978 L21.3098089,14.8418102 C21.3098089,6.67881458 28.0670552,0 36.3259119,0 L36.3259119,0 C44.5847686,0 51.342015,6.67881458 51.342015,14.8418102 L51.342015,40.814978" id="Path"></path>
            </g>
            <g id="Shopping-Bag-Copy" transform="translate(532.170692, 207.676211)">
                <path d="M54.0449135,86.4317181 L18.6069103,86.4317181 C10.7732464,86.4317181 4.05867741,80.2565108 3.6856458,72.397156 L0.887908703,22.80837 L71.7639151,22.80837 L68.7796622,72.397156 C68.4066306,80.2565108 61.8785774,86.4317181 54.0449135,86.4317181 Z" id="Path"></path>
                <path d="M21.3098089,40.814978 L21.3098089,14.8418102 C21.3098089,6.67881458 28.0670552,0 36.3259119,0 L36.3259119,0 C44.5847686,0 51.342015,6.67881458 51.342015,14.8418102 L51.342015,40.814978" id="Path"></path>
            </g>
        </g>
    </g>
</svg>