<?xml version="1.0" encoding="UTF-8"?>
<svg width="1200px" height="900px" viewBox="0 0 1200 900" version="1.1" xmlns="http://www.w3.org/2000/svg" xmlns:xlink="http://www.w3.org/1999/xlink">
    <!-- Generator: Sketch 54.1 (76490) - https://sketchapp.com -->
    <title>mobile</title>
    <desc>Created with Sketch.</desc>
    <g id="mobile" stroke="none" stroke-width="1" fill="none" fill-rule="evenodd" stroke-linecap="round" stroke-linejoin="round">
        <g id="Group" transform="translate(704.000000, 179.000000)" stroke="#FEF033" stroke-width="3.15">
            <g id="Phone-Shake" transform="translate(204.500000, 271.000000) rotate(10.000000) translate(-204.500000, -271.000000) translate(41.005141, 25.209302)">
                <g id="Smart_Phone" transform="translate(0.000000, 0.634850)">
                    <path d="M33.7661674,32.9966629 L212.525786,1.07566214 C234.870739,-3.1804713 255.0876,11.7159957 259.343782,34.0606963 L325.314594,410.728506 C329.570775,433.073206 314.67414,453.28984 292.329188,457.545974 L113.569569,489.466974 C91.2246164,493.723108 71.0077547,478.826641 66.7515733,456.48194 L0.780761562,79.8141308 C-3.47541984,58.5334636 11.4212151,37.2527964 33.7661674,32.9966629 Z" id="Path"></path>
                    <ellipse id="Oval" transform="translate(196.484239, 434.069142) rotate(-9.997359) translate(-196.484239, -434.069142) " cx="196.484239" cy="434.069142" rx="20.2165313" ry="20.2163172"></ellipse>
                    <path d="M60.3673012,417.112706 L317.866276,372.423305" id="Path"></path>
                </g>
            </g>
            <g id="Shopping-Cart" transform="translate(125.884439, 185.448760)">
                <path d="M128.272494,102.535708 L55.9734517,102.535708 C44.6038444,102.535708 34.9834073,94.3847006 32.9427086,83.3226187 L18.9493456,0.648111496 L0,0.648111496" id="Path"></path>
                <path d="M23.1311054,24.8070262 L136.683805,24.8070262 L129.695946,58.4594441 C127.075499,71.2241543 116.01139,80.5075799 103.200316,81.3779011 L33.3217323,85.7295068" id="Path"></path>
                <ellipse id="Oval" cx="44.68509" cy="124.068654" rx="9.98843188" ry="9.97868217"></ellipse>
                <ellipse id="Oval" cx="115.12982" cy="124.068654" rx="9.98843188" ry="9.97868217"></ellipse>
            </g>
        </g>
    </g>
</svg>