<?xml version="1.0" encoding="UTF-8"?>
<svg width="398px" height="373px" viewBox="0 0 398 373" version="1.1" xmlns="http://www.w3.org/2000/svg" xmlns:xlink="http://www.w3.org/1999/xlink">
    <!-- Generator: Sketch 54.1 (76490) - https://sketchapp.com -->
    <title>Group</title>
    <desc>Created with Sketch.</desc>
    <g id="Assets---Shapes" stroke="none" stroke-width="1" fill="none" fill-rule="evenodd">
        <g id="Group">
            <path d="M311.997125,200.488417 C286.353802,200.488417 265.488417,221.353802 265.488417,247.002875 C265.488417,272.646198 286.353802,293.511583 311.997125,293.511583 C337.646198,293.511583 358.511583,272.646198 358.511583,247.002875 C358.511583,221.353802 337.646198,200.488417 311.997125,200.488417 Z M311.997125,333 C264.579977,333 226,294.425773 226,247.002875 C226,199.574227 264.579977,161 311.997125,161 C359.420023,161 398,199.574227 398,247.002875 C398,294.425773 359.420023,333 311.997125,333 L311.997125,333 Z" id="Fill-12" fill="#FEF033"></path>
            <path d="M5.8127921,203.918888 C8.41036553,203.918888 10.5115138,206.023106 10.5115138,208.617347 C10.5115138,211.200059 8.41036553,213.304277 5.8127921,213.304277 C3.22099106,213.304277 1.11984277,211.200059 1.11984277,208.617347 C1.11984277,206.023106 3.22099106,203.918888 5.8127921,203.918888 Z M4.53709493,179.106413 C7.03076542,179.106413 9.06841747,181.135686 9.06841747,183.631922 C9.06841747,186.128159 7.03076542,188.151667 4.53709493,188.151667 C2.03765205,188.151667 3.18500781e-12,186.128159 3.18500781e-12,183.631922 C3.18500781e-12,181.135686 2.03765205,179.106413 4.53709493,179.106413 Z M5.74352348,155.516113 C8.30069021,155.516113 10.3845213,157.591506 10.3845213,160.156922 C10.3845213,162.710808 8.30069021,164.791966 5.74352348,164.791966 C3.17481197,164.791966 1.09675323,162.710808 1.09675323,160.156922 C1.09675323,157.591506 3.17481197,155.516113 5.74352348,155.516113 Z M26.6568758,166.140972 C29.265994,166.140972 31.3844594,168.262484 31.3844594,170.862491 C31.3844594,173.468262 29.265994,175.57248 26.6568758,175.57248 C24.0477576,175.57248 21.9292921,173.468262 21.9292921,170.862491 C21.9292921,168.262484 24.0477576,166.140972 26.6568758,166.140972 Z M24.4402798,189.754331 C27.049398,189.754331 29.1620911,191.864314 29.1620911,194.46432 C29.1620911,197.070092 27.049398,199.185839 24.4402798,199.185839 C21.836934,199.185839 19.7184685,197.070092 19.7184685,194.46432 C19.7184685,191.864314 21.836934,189.754331 24.4402798,189.754331 Z M43.9971215,178.126366 C46.6062397,178.126366 48.7247052,180.236349 48.7247052,182.847885 C48.7247052,185.453656 46.6062397,187.557874 43.9971215,187.557874 C41.3937757,187.557874 39.2753103,185.453656 39.2753103,182.847885 C39.2753103,180.236349 41.3937757,178.126366 43.9971215,178.126366 Z M46.8659971,198.661226 C49.4693429,198.661226 51.5878084,200.771209 51.5878084,203.37698 C51.5878084,205.982751 49.4693429,208.086969 46.8659971,208.086969 C44.2511065,208.086969 42.1384134,205.982751 42.1384134,203.37698 C42.1384134,200.771209 44.2511065,198.661226 46.8659971,198.661226 Z M51.6108979,221.231125 C54.2200161,221.231125 56.3384815,223.335343 56.3384815,225.946879 C56.3384815,228.55265 54.2200161,230.668398 51.6108979,230.668398 C49.0017797,230.668398 46.894859,228.55265 46.894859,225.946879 C46.894859,223.335343 49.0017797,221.231125 51.6108979,221.231125 Z M34.6920363,233.424058 C37.3011545,233.424058 39.4253923,235.528276 39.4253923,238.128282 C39.4253923,240.734054 37.3011545,242.855566 34.6920363,242.855566 C32.0886905,242.855566 29.9759974,240.734054 29.9759974,238.128282 C29.9759974,235.528276 32.0886905,233.424058 34.6920363,233.424058 Z M28.5675354,211.828442 C31.1824259,211.828442 33.2893466,213.944189 33.2893466,216.549961 C33.2893466,219.155732 31.1824259,221.265715 28.5675354,221.265715 C25.9641895,221.265715 23.8457241,219.155732 23.8457241,216.549961 C23.8457241,213.944189 25.9641895,211.828442 28.5675354,211.828442 Z M12.1739608,227.220939 C14.7888514,227.220939 16.8957721,229.342452 16.8957721,231.942458 C16.8957721,234.54823 14.7888514,236.658212 12.1739608,236.658212 C9.56484261,236.658212 7.45214956,234.54823 7.45214956,231.942458 C7.45214956,229.342452 9.56484261,227.220939 12.1739608,227.220939 Z M18.7544802,249.825428 C21.3520536,249.825428 23.4474295,251.923881 23.4474295,254.512357 C23.4474295,257.106598 21.3520536,259.210816 18.7544802,259.210816 C16.1569067,259.210816 14.0499861,257.106598 14.0499861,254.512357 C14.0499861,251.923881 16.1569067,249.825428 18.7544802,249.825428 Z M29.3872141,273.162069 C31.9097465,273.162069 33.9531709,275.208637 33.9531709,277.733698 C33.9531709,280.24723 31.9097465,282.293798 29.3872141,282.293798 C26.8646817,282.293798 24.8154848,280.24723 24.8154848,277.733698 C24.8154848,275.208637 26.8646817,273.162069 29.3872141,273.162069 Z M44.8976137,291.92708 C47.5067319,291.92708 49.6194249,294.042828 49.6194249,296.642834 C49.6194249,299.248605 47.5067319,301.364353 44.8976137,301.364353 C42.2884955,301.364353 40.17003,299.248605 40.17003,296.642834 C40.17003,294.042828 42.2884955,291.92708 44.8976137,291.92708 Z M61.5624903,310.669031 C64.1716085,310.669031 66.290074,312.790544 66.290074,315.39055 C66.290074,317.990557 64.1716085,320.100539 61.5624903,320.100539 C58.9533721,320.100539 56.8406791,317.990557 56.8406791,315.39055 C56.8406791,312.790544 58.9533721,310.669031 61.5624903,310.669031 Z M84.3172336,304.477442 C86.9263518,304.477442 89.0332725,306.587425 89.0332725,309.193196 C89.0332725,311.798968 86.9263518,313.903185 84.3172336,313.903185 C81.7081154,313.903185 79.5896499,311.798968 79.5896499,309.193196 C79.5896499,306.587425 81.7081154,304.477442 84.3172336,304.477442 Z M81.552261,326.914746 C84.1613792,326.914746 86.2798446,329.030494 86.2798446,331.636265 C86.2798446,334.242036 84.1613792,336.352019 81.552261,336.352019 C78.9431428,336.352019 76.8304497,334.242036 76.8304497,331.636265 C76.8304497,329.030494 78.9431428,326.914746 81.552261,326.914746 Z M101.495853,343.073986 C104.047247,343.073986 106.107988,345.137849 106.107988,347.680206 C106.107988,350.216797 104.047247,352.28066 101.495853,352.28066 C98.956003,352.28066 96.8952614,350.216797 96.8952614,347.680206 C96.8952614,345.137849 98.956003,343.073986 101.495853,343.073986 Z M126.230524,353.047403 C128.822325,353.047403 130.923473,355.145856 130.923473,357.728567 C130.923473,360.328573 128.822325,362.427026 126.230524,362.427026 C123.627178,362.427026 121.52603,360.328573 121.52603,357.728567 C121.52603,355.145856 123.627178,353.047403 126.230524,353.047403 Z M150.110882,357.371138 C152.725773,357.371138 154.838466,359.475356 154.838466,362.086892 C154.838466,364.692663 152.725773,366.808411 150.110882,366.808411 C147.501764,366.808411 145.383299,364.692663 145.383299,362.086892 C145.383299,359.475356 147.501764,357.371138 150.110882,357.371138 Z M164.207048,339.00391 C166.816166,339.00391 168.928859,341.119658 168.928859,343.719664 C168.928859,346.325435 166.816166,348.435418 164.207048,348.435418 C161.597929,348.435418 159.479464,346.325435 159.479464,343.719664 C159.479464,341.119658 161.597929,339.00391 164.207048,339.00391 Z M186.511545,343.206581 C189.120663,343.206581 191.233356,345.322329 191.233356,347.9281 C191.233356,350.539636 189.120663,352.655384 186.511545,352.655384 C183.902427,352.655384 181.789734,350.539636 181.789734,347.9281 C181.789734,345.322329 183.902427,343.206581 186.511545,343.206581 Z M173.754573,361.804408 C176.363691,361.804408 178.476384,363.914391 178.476384,366.508632 C178.476384,369.120168 176.363691,371.235916 173.754573,371.235916 C171.145455,371.235916 169.026989,369.120168 169.026989,366.508632 C169.026989,363.914391 171.145455,361.804408 173.754573,361.804408 Z M199.332013,363.562727 C201.941131,363.562727 204.048052,365.678475 204.048052,368.284246 C204.048052,370.884252 201.941131,373 199.332013,373 C196.722895,373 194.598657,370.884252 194.598657,368.284246 C194.598657,365.678475 196.722895,363.562727 199.332013,363.562727 Z M223.91083,357.388433 C226.519948,357.388433 228.638413,359.504181 228.638413,362.104187 C228.638413,364.709958 226.519948,366.819941 223.91083,366.819941 C221.307484,366.819941 219.189019,364.709958 219.189019,362.104187 C219.189019,359.504181 221.307484,357.388433 223.91083,357.388433 Z M209.56068,340.998594 C212.164026,340.998594 214.282491,343.102811 214.282491,345.714348 C214.282491,348.314354 212.164026,350.424337 209.56068,350.424337 C206.951561,350.424337 204.833096,348.314354 204.833096,345.714348 C204.833096,343.102811 206.951561,340.998594 209.56068,340.998594 Z M231.784363,333.826958 C234.399254,333.826958 236.506175,335.936941 236.506175,338.536947 C236.506175,341.142718 234.399254,343.258466 231.784363,343.258466 C229.175245,343.258466 227.05678,341.142718 227.05678,338.536947 C227.05678,335.936941 229.175245,333.826958 231.784363,333.826958 Z M246.971509,351.744517 C249.574855,351.744517 251.693321,353.860265 251.693321,356.460271 C251.693321,359.066042 249.574855,361.176025 246.971509,361.176025 C244.362391,361.176025 242.238153,359.066042 242.238153,356.460271 C242.238153,353.860265 244.362391,351.744517 246.971509,351.744517 Z M268.034944,342.04782 C270.644062,342.04782 272.756755,344.163568 272.756755,346.763574 C272.756755,349.369345 270.644062,351.485093 268.034944,351.485093 C265.425826,351.485093 263.30736,349.369345 263.30736,346.763574 C263.30736,344.163568 265.425826,342.04782 268.034944,342.04782 Z M253.234548,325.513856 C255.843666,325.513856 257.956359,327.623839 257.956359,330.22961 C257.956359,332.835381 255.843666,334.945364 253.234548,334.945364 C250.619657,334.945364 248.512736,332.835381 248.512736,330.22961 C248.512736,327.623839 250.619657,325.513856 253.234548,325.513856 Z M237.914637,309.129782 C240.523755,309.129782 242.647993,311.233999 242.647993,313.845536 C242.647993,316.451307 240.523755,318.567055 237.914637,318.567055 C235.317063,318.567055 233.198598,316.451307 233.198598,313.845536 C233.198598,311.233999 235.317063,309.129782 237.914637,309.129782 Z M242.838482,285.758551 C245.436055,285.758551 247.560293,287.868534 247.560293,290.46854 C247.560293,293.074311 245.436055,295.184294 242.838482,295.184294 C240.229363,295.184294 238.110898,293.074311 238.110898,290.46854 C238.110898,287.868534 240.229363,285.758551 242.838482,285.758551 Z M219.350645,294.215777 C221.971308,294.215777 224.078229,296.32576 224.078229,298.931531 C224.078229,301.531537 221.971308,303.647285 219.350645,303.647285 C216.7473,303.647285 214.628834,301.531537 214.628834,298.931531 C214.628834,296.32576 216.7473,294.215777 219.350645,294.215777 Z M216.129654,316.549311 C218.738772,316.549311 220.845693,318.665059 220.845693,321.27083 C220.845693,323.876602 218.738772,325.992349 216.129654,325.992349 C213.520536,325.992349 211.413615,323.876602 211.413615,321.27083 C211.413615,318.665059 213.520536,316.549311 216.129654,316.549311 Z M195.245164,300.516901 C197.854282,300.516901 199.961203,302.626884 199.961203,305.23842 C199.961203,307.838426 197.854282,309.954174 195.245164,309.954174 C192.630273,309.954174 190.51758,307.838426 190.51758,305.23842 C190.51758,302.626884 192.630273,300.516901 195.245164,300.516901 Z M196.145656,322.98303 C198.754774,322.98303 200.87324,325.093012 200.87324,327.693019 C200.87324,330.29879 198.754774,332.408773 196.145656,332.408773 C193.54231,332.408773 191.423845,330.29879 191.423845,327.693019 C191.423845,325.093012 193.54231,322.98303 196.145656,322.98303 Z M175.896128,319.691226 C178.499474,319.691226 180.623712,321.795444 180.623712,324.40698 C180.623712,327.018516 178.499474,329.128499 175.896128,329.128499 C173.28701,329.128499 171.168544,327.018516 171.168544,324.40698 C171.168544,321.795444 173.28701,319.691226 175.896128,319.691226 Z M170.862608,298.360798 C173.465954,298.360798 175.584419,300.470781 175.584419,303.076552 C175.584419,305.682323 173.465954,307.792306 170.862608,307.792306 C168.259262,307.792306 166.140797,305.682323 166.140797,303.076552 C166.140797,300.470781 168.259262,298.360798 170.862608,298.360798 Z M148.390712,294.100478 C150.99983,294.100478 153.10675,296.21046 153.10675,298.816232 C153.10675,301.422003 150.99983,303.537751 148.390712,303.537751 C145.770049,303.537751 143.663128,301.422003 143.663128,298.816232 C143.663128,296.21046 145.770049,294.100478 148.390712,294.100478 Z M129.336067,311.308944 C131.950958,311.308944 134.063651,313.418927 134.063651,316.024698 C134.063651,318.630469 131.950958,320.740452 129.336067,320.740452 C126.738494,320.740452 124.614256,318.630469 124.614256,316.024698 C124.614256,313.418927 126.738494,311.308944 129.336067,311.308944 Z M153.239515,316.093878 C155.854406,316.093878 157.967099,318.203861 157.967099,320.809632 C157.967099,323.409638 155.854406,325.525386 153.239515,325.525386 C150.630397,325.525386 148.517704,323.409638 148.517704,320.809632 C148.517704,318.203861 150.630397,316.093878 153.239515,316.093878 Z M142.006453,334.968424 C144.609799,334.968424 146.728265,337.084172 146.728265,339.684178 C146.728265,342.289949 144.609799,344.399932 142.006453,344.399932 C139.397335,344.399932 137.27887,342.289949 137.27887,339.684178 C137.27887,337.084172 139.397335,334.968424 142.006453,334.968424 Z M121.081556,331.590145 C123.690674,331.590145 125.797595,333.705893 125.797595,336.305899 C125.797595,338.911671 123.690674,341.021653 121.081556,341.021653 C118.472438,341.021653 116.353973,338.911671 116.353973,336.305899 C116.353973,333.705893 118.472438,331.590145 121.081556,331.590145 Z M103.729766,318.59588 C106.344656,318.59588 108.457349,320.705862 108.457349,323.311634 C108.457349,325.917405 106.344656,328.033153 103.729766,328.033153 C101.120647,328.033153 99.0137268,325.917405 99.0137268,323.311634 C99.0137268,320.705862 101.120647,318.59588 103.729766,318.59588 Z M107.591492,297.530641 C110.20061,297.530641 112.319075,299.640624 112.319075,302.246395 C112.319075,304.852166 110.20061,306.967914 107.591492,306.967914 C104.982373,306.967914 102.86968,304.852166 102.86968,302.246395 C102.86968,299.640624 104.982373,297.530641 107.591492,297.530641 Z M90.3493763,281.786479 C92.9527222,281.786479 95.0654152,283.902227 95.0654152,286.507998 C95.0654152,289.108005 92.9527222,291.217987 90.3493763,291.217987 C87.7402581,291.217987 85.6217927,289.108005 85.6217927,286.507998 C85.6217927,283.902227 87.7402581,281.786479 90.3493763,281.786479 Z M67.9063419,287.257446 C70.5154601,287.257446 72.6339255,289.367429 72.6339255,291.9732 C72.6339255,294.578971 70.5154601,296.688954 67.9063419,296.688954 C65.2972237,296.688954 63.1787582,294.578971 63.1787582,291.9732 C63.1787582,289.367429 65.2972237,287.257446 67.9063419,287.257446 Z M53.0828562,269.80685 C55.6919744,269.80685 57.8046674,271.922598 57.8046674,274.528369 C57.8046674,277.139905 55.6919744,279.249888 53.0828562,279.249888 C50.473738,279.249888 48.3552725,277.139905 48.3552725,274.528369 C48.3552725,271.922598 50.473738,269.80685 53.0828562,269.80685 Z M39.8179145,253.774439 C42.4270327,253.774439 44.5454982,255.884422 44.5454982,258.490193 C44.5454982,261.095965 42.4270327,263.205947 39.8179145,263.205947 C37.2145687,263.205947 35.0961033,261.095965 35.0961033,258.490193 C35.0961033,255.884422 37.2145687,253.774439 39.8179145,253.774439 Z M59.7441889,244.100802 C62.3533071,244.100802 64.4660002,246.21655 64.4660002,248.816556 C64.4660002,251.422327 62.3533071,253.538075 59.7441889,253.538075 C57.1350707,253.538075 55.0281501,251.422327 55.0281501,248.816556 C55.0281501,246.21655 57.1350707,244.100802 59.7441889,244.100802 Z M74.5041784,263.655616 C77.1075242,263.655616 79.2259897,265.759834 79.2259897,268.37137 C79.2259897,270.977141 77.1075242,273.092889 74.5041784,273.092889 C71.8950602,273.092889 69.7765948,270.977141 69.7765948,268.37137 C69.7765948,265.759834 71.8950602,263.655616 74.5041784,263.655616 Z M84.1036553,242.849801 C86.7127735,242.849801 88.8196942,244.954019 88.8196942,247.55979 C88.8196942,250.171327 86.7127735,252.281309 84.1036553,252.281309 C81.4887647,252.281309 79.3760717,250.171327 79.3760717,247.55979 C79.3760717,244.954019 81.4887647,242.849801 84.1036553,242.849801 Z M73.8172645,224.396099 C76.4263827,224.396099 78.5390758,226.511847 78.5390758,229.117618 C78.5390758,231.729154 76.4263827,233.833372 73.8172645,233.833372 C71.2081463,233.833372 69.0896809,231.729154 69.0896809,229.117618 C69.0896809,226.511847 71.2081463,224.396099 73.8172645,224.396099 Z M67.5946331,204.633746 C70.1979789,204.633746 72.3164443,206.749494 72.3164443,209.355265 C72.3164443,211.961036 70.1979789,214.071019 67.5946331,214.071019 C64.9797425,214.071019 62.8670494,211.961036 62.8670494,209.355265 C62.8670494,206.749494 64.9797425,204.633746 67.5946331,204.633746 Z M88.4618063,200.356131 C91.0709245,200.356131 93.18939,202.466113 93.18939,205.06612 C93.18939,207.671891 91.0709245,209.787639 88.4618063,209.787639 C85.8469157,209.787639 83.7342227,207.671891 83.7342227,205.06612 C83.7342227,202.466113 85.8469157,200.356131 88.4618063,200.356131 Z M95.8446872,220.666157 C98.4480331,220.666157 100.566498,222.770374 100.566498,225.376146 C100.566498,227.987682 98.4480331,230.10343 95.8446872,230.10343 C93.235569,230.10343 91.1171036,227.987682 91.1171036,225.376146 C91.1171036,222.770374 93.235569,220.666157 95.8446872,220.666157 Z M107.164335,238.83161 C109.767681,238.83161 111.880374,240.941593 111.880374,243.547364 C111.880374,246.153135 109.767681,248.263118 107.164335,248.263118 C104.555217,248.263118 102.442524,246.153135 102.442524,243.547364 C102.442524,240.941593 104.555217,238.83161 107.164335,238.83161 Z M122.819044,254.662246 C125.428162,254.662246 127.546628,256.766464 127.546628,259.36647 C127.546628,261.978007 125.428162,264.087989 122.819044,264.087989 C120.215698,264.087989 118.091461,261.978007 118.091461,259.36647 C118.091461,256.766464 120.215698,254.662246 122.819044,254.662246 Z M98.0959175,259.983323 C100.705036,259.983323 102.823501,262.099071 102.823501,264.704842 C102.823501,267.310613 100.705036,269.420596 98.0959175,269.420596 C95.481027,269.420596 93.3683339,267.310613 93.3683339,264.704842 C93.3683339,262.099071 95.481027,259.983323 98.0959175,259.983323 Z M113.652496,274.995332 C116.261614,274.995332 118.374307,277.105315 118.374307,279.711086 C118.374307,282.316858 116.261614,284.42684 113.652496,284.42684 C111.043378,284.42684 108.930685,282.316858 108.930685,279.711086 C108.930685,277.105315 111.043378,274.995332 113.652496,274.995332 Z M128.585657,288.86011 C131.194775,288.86011 133.313241,290.970093 133.313241,293.575864 C133.313241,296.181636 131.194775,298.285853 128.585657,298.285853 C125.982311,298.285853 123.863846,296.181636 123.863846,293.575864 C123.863846,290.970093 125.982311,288.86011 128.585657,288.86011 Z M139.859126,268.838333 C142.468244,268.838333 144.580937,270.954081 144.580937,273.559852 C144.580937,276.165623 142.468244,278.275606 139.859126,278.275606 C137.250008,278.275606 135.137315,276.165623 135.137315,273.559852 C135.137315,270.954081 137.250008,268.838333 139.859126,268.838333 Z M160.882154,275.72172 C163.485499,275.72172 165.603965,277.837468 165.603965,280.443239 C165.603965,283.043245 163.485499,285.164758 160.882154,285.164758 C158.267263,285.164758 156.15457,283.043245 156.15457,280.443239 C156.15457,277.837468 158.267263,275.72172 160.882154,275.72172 Z M182.326565,279.301773 C184.941456,279.301773 187.059921,281.411756 187.059921,284.011762 C187.059921,286.617533 184.941456,288.733281 182.326565,288.733281 C179.728992,288.733281 177.604754,286.617533 177.604754,284.011762 C177.604754,281.411756 179.728992,279.301773 182.326565,279.301773 Z M203.136015,277.825938 C205.710499,277.825938 207.805875,279.912861 207.805875,282.495572 C207.805875,285.066753 205.710499,287.159441 203.136015,287.159441 C200.555758,287.159441 198.460383,285.066753 198.460383,282.495572 C198.460383,279.912861 200.555758,277.825938 203.136015,277.825938 Z M223.795382,271.542109 C226.381411,271.542109 228.482559,273.634797 228.482559,276.223273 C228.482559,278.805984 226.381411,280.898672 223.795382,280.898672 C221.203581,280.898672 219.108205,278.805984 219.108205,276.223273 C219.108205,273.634797 221.203581,271.542109 223.795382,271.542109 Z M242.844254,262.225901 C245.436055,262.225901 247.548748,264.335884 247.548748,266.930125 C247.548748,269.524366 245.436055,271.640114 242.844254,271.640114 C240.240908,271.640114 238.122443,269.524366 238.122443,266.930125 C238.122443,264.335884 240.240908,262.225901 242.844254,262.225901 Z M258.048717,249.715893 C260.646291,249.715893 262.764756,251.831641 262.764756,254.443177 C262.764756,257.037418 260.646291,259.147401 258.048717,259.147401 C255.428054,259.147401 253.315361,257.037418 253.315361,254.443177 C253.315361,251.831641 255.428054,249.715893 258.048717,249.715893 Z M270.25154,232.386362 C272.860658,232.386362 274.973351,234.496345 274.973351,237.107881 C274.973351,239.702122 272.860658,241.823635 270.25154,241.823635 C267.642422,241.823635 265.523956,239.702122 265.523956,237.107881 C265.523956,234.496345 267.642422,232.386362 270.25154,232.386362 Z M279.602804,213.269687 C282.20615,213.269687 284.307298,215.385435 284.307298,217.973911 C284.307298,220.573917 282.20615,222.678135 279.602804,222.678135 C276.999458,222.678135 274.89831,220.573917 274.89831,217.973911 C274.89831,215.385435 276.999458,213.269687 279.602804,213.269687 Z M284.180306,193.06343 C286.783652,193.06343 288.902117,195.179178 288.902117,197.784949 C288.902117,200.384955 286.783652,202.500703 284.180306,202.500703 C281.571188,202.500703 279.458495,200.384955 279.458495,197.784949 C279.458495,195.179178 281.571188,193.06343 284.180306,193.06343 Z M285.202018,171.340984 C287.811136,171.340984 289.923829,173.450967 289.923829,176.056738 C289.923829,178.662509 287.811136,180.778257 285.202018,180.778257 C282.598672,180.778257 280.474434,178.662509 280.474434,176.056738 C280.474434,173.450967 282.598672,171.340984 285.202018,171.340984 Z M280.347442,150.863773 C282.950788,150.863773 285.069253,152.973756 285.069253,155.579527 C285.069253,158.191064 282.950788,160.301046 280.347442,160.301046 C277.738324,160.301046 275.619858,158.191064 275.619858,155.579527 C275.619858,152.973756 277.738324,150.863773 280.347442,150.863773 Z M304.406744,157.066892 C307.015862,157.066892 309.128556,159.18264 309.128556,161.794176 C309.128556,164.399947 307.015862,166.50993 304.406744,166.50993 C301.803398,166.50993 299.684933,164.399947 299.684933,161.794176 C299.684933,159.18264 301.803398,157.066892 304.406744,157.066892 Z M305.09943,183.297553 C307.708549,183.297553 309.821242,185.413301 309.821242,188.024837 C309.821242,190.630608 307.708549,192.734826 305.09943,192.734826 C302.490312,192.734826 300.383392,190.630608 300.383392,188.024837 C300.383392,185.413301 302.490312,183.297553 305.09943,183.297553 Z M325.129608,194.798689 C327.738726,194.798689 329.857191,196.908672 329.857191,199.508678 C329.857191,202.11445 327.738726,204.230197 325.129608,204.230197 C322.526262,204.230197 320.407797,202.11445 320.407797,199.508678 C320.407797,196.908672 322.526262,194.798689 325.129608,194.798689 Z M303.408122,208.801827 C306.01724,208.801827 308.129933,210.917575 308.129933,213.529111 C308.129933,216.134882 306.01724,218.25063 303.408122,218.25063 C300.799003,218.25063 298.692083,216.134882 298.692083,213.529111 C298.692083,210.917575 300.799003,208.801827 303.408122,208.801827 Z M324.956436,215.714038 C327.565554,215.714038 329.678248,217.818256 329.678248,220.424027 C329.678248,223.029799 327.565554,225.145546 324.956436,225.145546 C322.347318,225.145546 320.234625,223.029799 320.234625,220.424027 C320.234625,217.818256 322.347318,215.714038 324.956436,215.714038 Z M315.836067,233.787252 C318.450958,233.787252 320.563651,235.903 320.563651,238.503006 C320.563651,241.108777 318.450958,243.224525 315.836067,243.224525 C313.226949,243.224525 311.120028,241.108777 311.120028,238.503006 C311.120028,235.903 313.226949,233.787252 315.836067,233.787252 Z M293.739376,231.994343 C296.342722,231.994343 298.46696,234.104326 298.46696,236.704332 C298.46696,239.310103 296.342722,241.431616 293.739376,241.431616 C291.130258,241.431616 289.017565,239.310103 289.017565,236.704332 C289.017565,234.104326 291.130258,231.994343 293.739376,231.994343 Z M304.504875,253.111467 C307.119765,253.111467 309.238231,255.227214 309.238231,257.832986 C309.238231,260.438757 307.119765,262.554505 304.504875,262.554505 C301.901529,262.554505 299.783064,260.438757 299.783064,257.832986 C299.783064,255.227214 301.901529,253.111467 304.504875,253.111467 Z M280.647606,253.65914 C283.256724,253.65914 285.363645,255.763358 285.363645,258.374894 C285.363645,260.980665 283.256724,263.090648 280.647606,263.090648 C278.032715,263.090648 275.920022,260.980665 275.920022,258.374894 C275.920022,255.763358 278.032715,253.65914 280.647606,253.65914 Z M291.54587,273.335018 C294.16076,273.335018 296.273453,275.439236 296.273453,278.050772 C296.273453,280.656543 294.16076,282.766526 291.54587,282.766526 C288.942524,282.766526 286.824058,280.656543 286.824058,278.050772 C286.824058,275.439236 288.942524,273.335018 291.54587,273.335018 Z M265.829893,274.660964 C268.433238,274.660964 270.551704,276.770946 270.551704,279.376718 C270.551704,281.982489 268.433238,284.098237 265.829893,284.098237 C263.220774,284.098237 261.102309,281.982489 261.102309,279.376718 C261.102309,276.770946 263.220774,274.660964 265.829893,274.660964 Z M260.115231,300.032642 C262.730122,300.032642 264.842815,302.142625 264.842815,304.748396 C264.842815,307.354168 262.730122,309.46415 260.115231,309.46415 C257.517658,309.46415 255.399192,307.354168 255.399192,304.748396 C255.399192,302.142625 257.517658,300.032642 260.115231,300.032642 Z M282.633307,294.596266 C285.248197,294.596266 287.366663,296.717779 287.366663,299.317785 C287.366663,301.923556 285.248197,304.033539 282.633307,304.033539 C280.029961,304.033539 277.917268,301.923556 277.917268,299.317785 C277.917268,296.717779 280.029961,294.596266 282.633307,294.596266 Z M306.196184,291.160338 C308.811074,291.160338 310.923767,293.27032 310.923767,295.876092 C310.923767,298.487628 308.811074,300.591846 306.196184,300.591846 C303.592838,300.591846 301.474372,298.487628 301.474372,295.876092 C301.474372,293.27032 303.592838,291.160338 306.196184,291.160338 Z M275.123433,317.269934 C277.732551,317.269934 279.839472,319.379917 279.839472,321.985688 C279.839472,324.591459 277.732551,326.707207 275.123433,326.707207 C272.508543,326.707207 270.395849,324.591459 270.395849,321.985688 C270.395849,319.379917 272.508543,317.269934 275.123433,317.269934 Z M289.687161,333.561769 C292.244328,333.561769 294.322387,335.637162 294.322387,338.191048 C294.322387,340.750699 292.244328,342.814562 289.687161,342.814562 C287.129995,342.814562 285.057708,340.750699 285.057708,338.191048 C285.057708,335.637162 287.129995,333.561769 289.687161,333.561769 Z M299.575258,314.13955 C302.178603,314.13955 304.291297,316.255297 304.291297,318.861069 C304.291297,321.461075 302.178603,323.571058 299.575258,323.571058 C296.966139,323.571058 294.847674,321.461075 294.847674,318.861069 C294.847674,316.255297 296.966139,314.13955 299.575258,314.13955 Z M321.210158,308.080555 C323.732691,308.080555 325.776115,310.121358 325.776115,312.640655 C325.776115,315.159951 323.732691,317.200754 321.210158,317.200754 C318.681853,317.200754 316.638429,315.159951 316.638429,312.640655 C316.638429,310.121358 318.681853,308.080555 321.210158,308.080555 Z M330.959717,287.292036 C333.58038,287.292036 335.693073,289.407783 335.693073,292.013555 C335.693073,294.625091 333.58038,296.735074 330.959717,296.735074 C328.362144,296.735074 326.243678,294.625091 326.243678,292.013555 C326.243678,289.407783 328.362144,287.292036 330.959717,287.292036 Z M317.550466,270.487118 C320.159584,270.487118 322.272277,272.597101 322.272277,275.208637 C322.272277,277.814408 320.159584,279.924391 317.550466,279.924391 C314.941348,279.924391 312.828655,277.814408 312.828655,275.208637 C312.828655,272.597101 314.941348,270.487118 317.550466,270.487118 Z M330.763456,251.779756 C333.378347,251.779756 335.496812,253.895504 335.496812,256.501275 C335.496812,259.101281 333.378347,261.211264 330.763456,261.211264 C328.154338,261.211264 326.047417,259.101281 326.047417,256.501275 C326.047417,253.895504 328.154338,251.779756 330.763456,251.779756 Z M345.719707,269.685785 C348.305735,269.685785 350.406884,271.772708 350.406884,274.36695 C350.406884,276.949661 348.305735,279.048114 345.719707,279.048114 C343.133678,279.048114 341.038302,276.949661 341.038302,274.36695 C341.038302,271.772708 343.133678,269.685785 345.719707,269.685785 Z M355.498127,247.000587 C358.113018,247.000587 360.219939,249.11057 360.219939,251.716341 C360.219939,254.322112 358.113018,256.443625 355.498127,256.443625 C352.889009,256.443625 350.776316,254.322112 350.776316,251.716341 C350.776316,249.11057 352.889009,247.000587 355.498127,247.000587 Z M340.899765,230.691458 C343.508883,230.691458 345.621576,232.807205 345.621576,235.412977 C345.621576,238.018748 343.508883,240.128731 340.899765,240.128731 C338.290647,240.128731 336.177954,238.018748 336.177954,235.412977 C336.177954,232.807205 338.290647,230.691458 340.899765,230.691458 Z M363.435157,222.430241 C366.05582,222.430241 368.162741,224.540223 368.162741,227.145995 C368.162741,229.751766 366.05582,231.861749 363.435157,231.861749 C360.826039,231.861749 358.719119,229.751766 358.719119,227.145995 C358.719119,224.540223 360.826039,222.430241 363.435157,222.430241 Z M346.060277,207.170337 C348.669396,207.170337 350.782089,209.274555 350.782089,211.874561 C350.782089,214.486098 348.669396,216.601845 346.060277,216.601845 C343.451159,216.601845 341.338466,214.486098 341.338466,211.874561 C341.338466,209.274555 343.451159,207.170337 346.060277,207.170337 Z M366.304033,196.741488 C368.924696,196.741488 371.037389,198.845706 371.037389,201.451477 C371.037389,204.057248 368.924696,206.172996 366.304033,206.172996 C363.700687,206.172996 361.587994,204.057248 361.587994,201.451477 C361.587994,198.845706 363.700687,196.741488 366.304033,196.741488 Z M368.289734,170.95473 C370.893079,170.95473 373,173.058948 373,175.658954 C373,178.25896 370.893079,180.363178 368.289734,180.363178 C365.686388,180.363178 363.585239,178.25896 363.585239,175.658954 C363.585239,173.058948 365.686388,170.95473 368.289734,170.95473 Z M364.422235,144.53959 C367.025581,144.53959 369.132502,146.649573 369.132502,149.243814 C369.132502,151.84382 367.025581,153.948038 364.422235,153.948038 C361.824662,153.948038 359.717741,151.84382 359.717741,149.243814 C359.717741,146.649573 361.824662,144.53959 364.422235,144.53959 Z M347.318657,160.191512 C349.93932,160.191512 352.052013,162.30726 352.052013,164.918796 C352.052013,167.524567 349.93932,169.63455 347.318657,169.63455 C344.715312,169.63455 342.602618,167.524567 342.602618,164.918796 C342.602618,162.30726 344.715312,160.191512 347.318657,160.191512 Z M346.931908,183.620392 C349.541026,183.620392 351.647946,185.730375 351.647946,188.336146 C351.647946,190.936152 349.541026,193.0519 346.931908,193.0519 C344.317017,193.0519 342.210096,190.936152 342.210096,188.336146 C342.210096,185.730375 344.317017,183.620392 346.931908,183.620392 Z M325.418227,172.292206 C328.027345,172.292206 330.140038,174.402189 330.140038,177.00796 C330.140038,179.607966 328.027345,181.723714 325.418227,181.723714 C322.809109,181.723714 320.696416,179.607966 320.696416,177.00796 C320.696416,174.402189 322.809109,172.292206 325.418227,172.292206 Z M326.51498,151.578631 C329.124099,151.578631 331.242564,153.694379 331.242564,156.294385 C331.242564,158.900156 329.124099,161.015904 326.51498,161.015904 C323.905862,161.015904 321.798941,158.900156 321.798941,156.294385 C321.798941,153.694379 323.905862,151.578631 326.51498,151.578631 Z M317.862175,133.142223 C320.471293,133.142223 322.589758,135.252206 322.589758,137.857977 C322.589758,140.469514 320.471293,142.585261 317.862175,142.585261 C315.253056,142.585261 313.140363,140.469514 313.140363,137.857977 C313.140363,135.252206 315.253056,133.142223 317.862175,133.142223 Z M295.44223,134.035795 C298.051348,134.035795 300.164041,136.145778 300.164041,138.751549 C300.164041,141.351556 298.051348,143.467303 295.44223,143.467303 C292.833112,143.467303 290.720418,141.351556 290.720418,138.751549 C290.720418,136.145778 292.833112,134.035795 295.44223,134.035795 Z M284.69982,113.368341 C287.308939,113.368341 289.427404,115.472558 289.427404,118.084095 C289.427404,120.684101 287.308939,122.799849 284.69982,122.799849 C282.096475,122.799849 279.978009,120.684101 279.978009,118.084095 C279.978009,115.472558 282.096475,113.368341 284.69982,113.368341 Z M273.651475,94.4130848 C276.260593,94.4130848 278.367514,96.5173027 278.367514,99.1230738 C278.367514,101.73461 276.260593,103.844593 273.651475,103.844593 C271.042357,103.844593 268.923891,101.73461 268.923891,99.1230738 C268.923891,96.5173027 271.042357,94.4130848 273.651475,94.4130848 Z M297.445247,93.1101992 C300.054366,93.1101992 302.167059,95.231712 302.167059,97.8317182 C302.167059,100.437489 300.054366,102.553237 297.445247,102.553237 C294.836129,102.553237 292.723436,100.437489 292.723436,97.8317182 C292.723436,95.231712 294.836129,93.1101992 297.445247,93.1101992 Z M308.822619,112.947497 C311.425965,112.947497 313.54443,115.063245 313.54443,117.669016 C313.54443,120.269022 311.425965,122.38477 308.822619,122.38477 C306.207728,122.38477 304.089263,120.269022 304.089263,117.669016 C304.089263,115.063245 306.207728,112.947497 308.822619,112.947497 Z M322.439676,93.9518864 C325.048794,93.9518864 327.16726,96.0618692 327.16726,98.6676404 C327.16726,101.279177 325.048794,103.383394 322.439676,103.383394 C319.83633,103.383394 317.717865,101.279177 317.717865,98.6676404 C317.717865,96.0618692 319.83633,93.9518864 322.439676,93.9518864 Z M333.326395,114.607811 C335.929741,114.607811 338.048206,116.723559 338.048206,119.32933 C338.048206,121.935101 335.929741,124.045084 333.326395,124.045084 C330.711505,124.045084 328.593039,121.935101 328.593039,119.32933 C328.593039,116.723559 330.711505,114.607811 333.326395,114.607811 Z M342.666115,135.926709 C345.275233,135.926709 347.387926,138.036692 347.387926,140.648228 C347.387926,143.248234 345.275233,145.363982 342.666115,145.363982 C340.051224,145.363982 337.938531,143.248234 337.938531,140.648228 C337.938531,138.036692 340.051224,135.926709 342.666115,135.926709 Z M357.460738,118.787422 C360.069857,118.787422 362.18255,120.90317 362.18255,123.508941 C362.18255,126.120477 360.069857,128.224695 357.460738,128.224695 C354.85162,128.224695 352.733155,126.120477 352.733155,123.508941 C352.733155,120.90317 354.85162,118.787422 357.460738,118.787422 Z M347.006949,95.6006708 C349.616067,95.6006708 351.717215,97.6991237 351.717215,100.29913 C351.717215,102.899136 349.616067,105.003354 347.006949,105.003354 C344.409375,105.003354 342.296682,102.899136 342.296682,100.29913 C342.296682,97.6991237 344.409375,95.6006708 347.006949,95.6006708 Z M334.013309,74.1030587 C336.60511,74.1030587 338.694714,76.1957466 338.694714,78.7784578 C338.694714,81.3669341 336.60511,83.459622 334.013309,83.459622 C331.42728,83.459622 329.326132,81.3669341 329.326132,78.7784578 C329.326132,76.1957466 331.42728,74.1030587 334.013309,74.1030587 Z M318.323965,54.1677563 C320.800319,54.1677563 322.809109,56.1797345 322.809109,58.6586761 C322.809109,61.1376177 320.800319,63.1438309 318.323965,63.1438309 C315.836067,63.1438309 313.827277,61.1376177 313.827277,58.6586761 C313.827277,56.1797345 315.836067,54.1677563 318.323965,54.1677563 Z M309.324817,74.3682478 C311.933935,74.3682478 314.0524,76.4724656 314.0524,79.0840018 C314.0524,81.689773 311.933935,83.8055208 309.324817,83.8055208 C306.715698,83.8055208 304.603005,81.689773 304.603005,79.0840018 C304.603005,76.4724656 306.715698,74.3682478 309.324817,74.3682478 Z M282.362004,74.4720174 C284.976895,74.4720174 287.089588,76.5877653 287.089588,79.1877714 C287.089588,81.7935426 284.976895,83.9035254 282.362004,83.9035254 C279.752886,83.9035254 277.640193,81.7935426 277.640193,79.1877714 C277.640193,76.5877653 279.752886,74.4720174 282.362004,74.4720174 Z M294.443607,57.3269656 C297.046953,57.3269656 299.171191,59.4369484 299.171191,62.0427196 C299.171191,64.6427258 297.046953,66.7584736 294.443607,66.7584736 C291.834489,66.7584736 289.716023,64.6427258 289.716023,62.0427196 C289.716023,59.4369484 291.834489,57.3269656 294.443607,57.3269656 Z M299.142329,36.7286904 C301.73413,36.7286904 303.835278,38.8271433 303.835278,41.4156195 C303.835278,44.0156257 301.73413,46.1140786 299.142329,46.1140786 C296.544755,46.1140786 294.437835,44.0156257 294.437835,41.4156195 C294.437835,38.8271433 296.544755,36.7286904 299.142329,36.7286904 Z M278.338652,41.0870157 C280.94777,41.0870157 283.072008,43.1912335 283.072008,45.7970047 C283.072008,48.4085408 280.94777,50.5127587 278.338652,50.5127587 C275.735306,50.5127587 273.616841,48.4085408 273.616841,45.7970047 C273.616841,43.1912335 275.735306,41.0870157 278.338652,41.0870157 Z M276.803197,22.5122487 C279.366136,22.5122487 281.449968,24.5934066 281.449968,27.1530579 C281.449968,29.7184742 279.366136,31.7938672 276.803197,31.7938672 C274.240258,31.7938672 272.156427,29.7184742 272.156427,27.1530579 C272.156427,24.5934066 274.240258,22.5122487 276.803197,22.5122487 Z M257.384893,11.7317352 C259.688075,11.7317352 261.552555,13.5995889 261.552555,15.8998161 C261.552555,18.2000433 259.688075,20.056367 257.384893,20.056367 C255.081711,20.056367 253.21723,18.2000433 253.21723,15.8998161 C253.21723,13.5995889 255.081711,11.7317352 257.384893,11.7317352 Z M254.562196,33.016043 C257.171314,33.016043 259.28978,35.1260259 259.28978,37.7260321 C259.28978,40.3318032 257.171314,42.447551 254.562196,42.447551 C251.953078,42.447551 249.840385,40.3318032 249.840385,37.7260321 C249.840385,35.1260259 251.953078,33.016043 254.562196,33.016043 Z M244.350847,53.1819446 C246.954192,53.1819446 249.072658,55.2976925 249.072658,57.9034636 C249.072658,60.5149998 246.954192,62.6249826 244.350847,62.6249826 C241.735956,62.6249826 239.623263,60.5149998 239.623263,57.9034636 C239.623263,55.2976925 241.735956,53.1819446 244.350847,53.1819446 Z M267.475022,55.4706419 C270.078368,55.4706419 272.196834,57.5863897 272.196834,60.1863959 C272.196834,62.797932 270.078368,64.9021499 267.475022,64.9021499 C264.860132,64.9021499 262.747439,62.797932 262.747439,60.1863959 C262.747439,57.5863897 264.860132,55.4706419 267.475022,55.4706419 Z M258.239206,72.7598182 C260.848324,72.7598182 262.961017,74.8755661 262.961017,77.4871022 C262.961017,80.0928734 260.848324,82.2086212 258.239206,82.2086212 C255.630088,82.2086212 253.511622,80.0928734 253.511622,77.4871022 C253.511622,74.8755661 255.630088,72.7598182 258.239206,72.7598182 Z M233.850877,74.0799988 C236.459996,74.0799988 238.584233,76.1842166 238.584233,78.7899878 C238.584233,81.389994 236.459996,83.5115068 233.850877,83.5115068 C231.247532,83.5115068 229.134839,81.389994 229.134839,78.7899878 C229.134839,76.1842166 231.247532,74.0799988 233.850877,74.0799988 Z M221.463338,52.789926 C224.072457,52.789926 226.18515,54.9056738 226.18515,57.511445 C226.18515,60.1172161 224.072457,62.227199 221.463338,62.227199 C218.85422,62.227199 216.735755,60.1172161 216.735755,57.511445 C216.735755,54.9056738 218.85422,52.789926 221.463338,52.789926 Z M230.814603,32.4914298 C233.423721,32.4914298 235.536414,34.6071776 235.536414,37.2129488 C235.536414,39.81872 233.423721,41.9287028 230.814603,41.9287028 C228.205485,41.9287028 226.087019,39.81872 226.087019,37.2129488 C226.087019,34.6071776 228.205485,32.4914298 230.814603,32.4914298 Z M236.217555,10.5672092 C238.826674,10.5672092 240.945139,12.677192 240.945139,15.2829632 C240.945139,17.8887343 238.826674,20.0044822 236.217555,20.0044822 C233.608437,20.0044822 231.489972,17.8887343 231.489972,15.2829632 C231.489972,12.677192 233.608437,10.5672092 236.217555,10.5672092 Z M217.347628,0.432373534 C219.864388,0.432373534 221.90204,2.46741163 221.90204,4.98094311 C221.90204,7.50023956 219.864388,9.52951268 217.347628,9.52951268 C214.830868,9.52951268 212.793216,7.50023956 212.793216,4.98094311 C212.793216,2.46741163 214.830868,0.432373534 217.347628,0.432373534 Z M211.650283,18.5055872 C214.259401,18.5055872 216.377867,20.6098051 216.377867,23.2213412 C216.377867,25.8213474 214.259401,27.9370953 211.650283,27.9370953 C209.041165,27.9370953 206.9227,25.8213474 206.9227,23.2213412 C206.9227,20.6098051 209.041165,18.5055872 211.650283,18.5055872 Z M194.29272,0.974281696 C196.884521,0.974281696 198.991442,3.07273458 198.991442,5.6612108 C198.991442,8.24968702 196.884521,10.3539049 194.29272,10.3539049 C191.700919,10.3539049 189.593999,8.24968702 189.593999,5.6612108 C189.593999,3.07273458 191.700919,0.974281696 194.29272,0.974281696 Z M171.053097,0 C173.627581,0 175.711412,2.07539296 175.711412,4.64657424 C175.711412,7.21775552 173.627581,9.31044342 171.053097,9.31044342 C168.478613,9.31044342 166.394782,7.21775552 166.394782,4.64657424 C166.394782,2.07539296 168.478613,0 171.053097,0 Z M146.820623,2.5365914 C149.400879,2.5365914 151.496255,4.62351432 151.496255,7.20622556 C151.496255,9.77740684 149.400879,11.8700947 146.820623,11.8700947 C144.240366,11.8700947 142.144991,9.77740684 142.144991,7.20622556 C142.144991,4.62351432 144.240366,2.5365914 146.820623,2.5365914 Z M122.126358,10.5787391 C124.660435,10.5787391 126.721177,12.6310722 126.721177,15.1618986 C126.721177,17.692725 124.660435,19.750823 122.126358,19.750823 C119.580736,19.750823 117.525767,17.692725 117.525767,15.1618986 C117.525767,12.6310722 119.580736,10.5787391 122.126358,10.5787391 Z M101.380405,23.2444012 C103.977978,23.2444012 106.084899,25.354384 106.084899,27.9486252 C106.084899,30.5486314 103.977978,32.6470843 101.380405,32.6470843 C98.777059,32.6470843 96.6701384,30.5486314 96.6701384,27.9486252 C96.6701384,25.354384 98.777059,23.2444012 101.380405,23.2444012 Z M80.0572132,30.7907606 C82.0660033,30.7907606 83.6995884,32.4164851 83.6995884,34.4342282 C83.6995884,36.4346764 82.0660033,38.0661659 80.0572132,38.0661659 C78.048423,38.0661659 76.414838,36.4346764 76.414838,34.4342282 C76.414838,32.4164851 78.048423,30.7907606 80.0572132,30.7907606 Z M88.0404222,48.2990062 C90.6553128,48.2990062 92.7680058,50.4032241 92.7680058,53.0147602 C92.7680058,55.6205314 90.6553128,57.7305142 88.0404222,57.7305142 C85.4255316,57.7305142 83.3186109,55.6205314 83.3186109,53.0147602 C83.3186109,50.4032241 85.4255316,48.2990062 88.0404222,48.2990062 Z M95.8850939,69.0759957 C98.4942121,69.0759957 100.601133,71.1859786 100.601133,73.7975147 C100.601133,76.4032859 98.4942121,78.5075037 95.8850939,78.5075037 C93.2759757,78.5075037 91.1575103,76.4032859 91.1575103,73.7975147 C91.1575103,71.1859786 93.2759757,69.0759957 95.8850939,69.0759957 Z M104.988146,88.7922289 C107.597264,88.7922289 109.715729,90.9022117 109.715729,93.5022179 C109.715729,96.113754 107.597264,98.2295019 104.988146,98.2295019 C102.3848,98.2295019 100.266334,96.113754 100.266334,93.5022179 C100.266334,90.9022117 102.3848,88.7922289 104.988146,88.7922289 Z M81.9909623,89.2361324 C84.6000805,89.2361324 86.7185459,91.3461152 86.7185459,93.9576514 C86.7185459,96.5576575 84.6000805,98.6676404 81.9909623,98.6676404 C79.3760717,98.6676404 77.2633786,96.5576575 77.2633786,93.9576514 C77.2633786,91.3461152 79.3760717,89.2361324 81.9909623,89.2361324 Z M57.4467795,83.4135021 C60.0616701,83.4135021 62.1743632,85.51772 62.1743632,88.1234911 C62.1743632,90.7234973 60.0616701,92.8450101 57.4467795,92.8450101 C54.8376613,92.8450101 52.7249683,90.7234973 52.7249683,88.1234911 C52.7249683,85.51772 54.8376613,83.4135021 57.4467795,83.4135021 Z M73.1765298,67.6116907 C75.785648,67.6116907 77.898341,69.7216735 77.898341,72.3332097 C77.898341,74.9389809 75.785648,77.0547287 73.1765298,77.0547287 C70.5674116,77.0547287 68.4547185,74.9389809 68.4547185,72.3332097 C68.4547185,69.7216735 70.5674116,67.6116907 73.1765298,67.6116907 Z M64.4140487,47.7109782 C66.9885326,47.7109782 69.0723637,49.7921361 69.0723637,52.3690824 C69.0723637,54.9344987 66.9885326,57.0214216 64.4140487,57.0214216 C61.8337924,57.0214216 59.7499613,54.9344987 59.7499613,52.3690824 C59.7499613,49.7921361 61.8337924,47.7109782 64.4140487,47.7109782 Z M48.003157,63.9048083 C50.6065028,63.9048083 52.7134235,66.0090261 52.7134235,68.6147973 C52.7134235,71.2148035 50.6065028,73.3190213 48.003157,73.3190213 C45.4055836,73.3190213 43.2928905,71.2148035 43.2928905,68.6147973 C43.2928905,66.0090261 45.4055836,63.9048083 48.003157,63.9048083 Z M33.7626822,83.2924375 C36.3487109,83.2924375 38.4498592,85.3793604 38.4498592,87.9620717 C38.4498592,90.5505479 36.3487109,92.6490008 33.7626822,92.6490008 C31.1708812,92.6490008 29.08705,90.5505479 29.08705,87.9620717 C29.08705,85.3793604 31.1708812,83.2924375 33.7626822,83.2924375 Z M20.1340803,105.187833 C22.5007583,105.187833 24.428735,107.113337 24.428735,109.482744 C24.428735,111.852151 22.5007583,113.777654 20.1340803,113.777654 C17.7616299,113.777654 15.8394255,111.852151 15.8394255,109.482744 C15.8394255,107.113337 17.7616299,105.187833 20.1340803,105.187833 Z M42.536708,103.15856 C45.1400539,103.15856 47.2585193,105.268543 47.2585193,107.868549 C47.2585193,110.47432 45.1400539,112.590068 42.536708,112.590068 C39.9218175,112.590068 37.8091244,110.47432 37.8091244,107.868549 C37.8091244,105.268543 39.9218175,103.15856 42.536708,103.15856 Z M64.6680337,102.778071 C67.2713795,102.778071 69.3840725,104.888054 69.3840725,107.48806 C69.3840725,110.093832 67.2713795,112.209579 64.6680337,112.209579 C62.0531431,112.209579 59.9346776,110.093832 59.9346776,107.48806 C59.9346776,104.888054 62.0531431,102.778071 64.6680337,102.778071 Z M54.0930236,123.462821 C56.7021418,123.462821 58.8148349,125.578569 58.8148349,128.178575 C58.8148349,130.784346 56.7021418,132.894329 54.0930236,132.894329 C51.4723606,132.894329 49.36544,130.784346 49.36544,128.178575 C49.36544,125.578569 51.4723606,123.462821 54.0930236,123.462821 Z M65.6493392,141.022952 C68.2642298,141.022952 70.3711505,143.1387 70.3711505,145.744471 C70.3711505,148.350242 68.2642298,150.460225 65.6493392,150.460225 C63.0344486,150.460225 60.9275279,148.350242 60.9275279,145.744471 C60.9275279,143.1387 63.0344486,141.022952 65.6493392,141.022952 Z M32.8564177,124.264154 C35.4713083,124.264154 37.578229,126.374136 37.578229,128.985673 C37.578229,131.591444 35.4713083,133.701427 32.8564177,133.701427 C30.2530719,133.701427 28.1403788,131.591444 28.1403788,128.985673 C28.1403788,126.374136 30.2530719,124.264154 32.8564177,124.264154 Z M11.4177783,128.691659 C13.9922622,128.691659 16.070321,130.767052 16.070321,133.338233 C16.070321,135.903649 13.9922622,137.990572 11.4177783,137.990572 C8.84329444,137.990572 6.75369092,135.903649 6.75369092,133.338233 C6.75369092,130.767052 8.84329444,128.691659 11.4177783,128.691659 Z M23.42434,144.845134 C26.0334582,144.845134 28.1461512,146.960882 28.1461512,149.566653 C28.1461512,152.172424 26.0334582,154.282407 23.42434,154.282407 C20.8152218,154.282407 18.7025287,152.172424 18.7025287,149.566653 C18.7025287,146.960882 20.8152218,144.845134 23.42434,144.845134 Z M43.3563868,145.92895 C45.965505,145.92895 48.078198,148.038933 48.078198,150.650469 C48.078198,153.262005 45.965505,155.366223 43.3563868,155.366223 C40.7472686,155.366223 38.6345755,153.262005 38.6345755,150.650469 C38.6345755,148.038933 40.7472686,145.92895 43.3563868,145.92895 Z M55.5707543,162.232315 C58.1856449,162.232315 60.2983379,164.348063 60.2983379,166.948069 C60.2983379,169.55384 58.1856449,171.663823 55.5707543,171.663823 C52.9616361,171.663823 50.848943,169.55384 50.848943,166.948069 C50.848943,164.348063 52.9616361,162.232315 55.5707543,162.232315 Z M67.1039803,183.009304 C69.7073261,183.009304 71.8257916,185.119287 71.8257916,187.725058 C71.8257916,190.33083 69.7073261,192.452342 67.1039803,192.452342 C64.4890897,192.452342 62.3706243,190.33083 62.3706243,187.725058 C62.3706243,185.119287 64.4890897,183.009304 67.1039803,183.009304 Z M88.6292055,177.999536 C91.2440961,177.999536 93.3567891,180.115284 93.3567891,182.721055 C93.3567891,185.326826 91.2440961,187.436809 88.6292055,187.436809 C86.0258597,187.436809 83.9131666,185.326826 83.9131666,182.721055 C83.9131666,180.115284 86.0258597,177.999536 88.6292055,177.999536 Z M76.2474388,160.312576 C78.8623294,160.312576 80.9750224,162.434089 80.9750224,165.03986 C80.9750224,167.645631 78.8623294,169.755614 76.2474388,169.755614 C73.6383206,169.755614 71.5256275,167.645631 71.5256275,165.03986 C71.5256275,162.434089 73.6383206,160.312576 76.2474388,160.312576 Z M95.1115943,152.766217 C97.7207125,152.766217 99.8391779,154.881965 99.8391779,157.487736 C99.8391779,160.093507 97.7207125,162.20349 95.1115943,162.20349 C92.5024761,162.20349 90.3955554,160.093507 90.3955554,157.487736 C90.3955554,154.881965 92.5024761,152.766217 95.1115943,152.766217 Z M86.0431768,135.269501 C88.6580674,135.269501 90.7707605,137.385249 90.7707605,139.99102 C90.7707605,142.591026 88.6580674,144.695244 86.0431768,144.695244 C83.439831,144.695244 81.3213656,142.591026 81.3213656,139.99102 C81.3213656,137.385249 83.439831,135.269501 86.0431768,135.269501 Z M76.5880095,118.003385 C79.2029001,118.003385 81.3098208,120.119133 81.3098208,122.719139 C81.3098208,125.330675 79.2029001,127.440658 76.5880095,127.440658 C73.9788913,127.440658 71.8719707,125.330675 71.8719707,122.719139 C71.8719707,120.119133 73.9788913,118.003385 76.5880095,118.003385 Z M95.5329784,108.370102 C98.1420966,108.370102 100.25479,110.47432 100.25479,113.080091 C100.25479,115.691628 98.1420966,117.807375 95.5329784,117.807375 C92.9180878,117.807375 90.8111672,115.691628 90.8111672,113.080091 C90.8111672,110.47432 92.9180878,108.370102 95.5329784,108.370102 Z M105.40953,127.457953 C108.018648,127.457953 110.142886,129.573701 110.142886,132.179472 C110.142886,134.791008 108.018648,136.895226 105.40953,136.895226 C102.811956,136.895226 100.687719,134.791008 100.687719,132.179472 C100.687719,129.573701 102.811956,127.457953 105.40953,127.457953 Z M119.817404,107.747485 C122.426522,107.747485 124.544987,109.863232 124.544987,112.463239 C124.544987,115.06901 122.426522,117.178993 119.817404,117.178993 C117.208286,117.178993 115.095593,115.06901 115.095593,112.463239 C115.095593,109.863232 117.208286,107.747485 119.817404,107.747485 Z M125.289625,86.9647301 C127.898743,86.9647301 130.011436,89.0747129 130.011436,91.6747191 C130.011436,94.2862552 127.898743,96.3904731 125.289625,96.3904731 C122.680507,96.3904731 120.562042,94.2862552 120.562042,91.6747191 C120.562042,89.0747129 122.680507,86.9647301 125.289625,86.9647301 Z M143.207109,95.3008918 C145.810455,95.3008918 147.923148,97.4051097 147.923148,100.005116 C147.923148,102.605122 145.810455,104.70934 143.207109,104.70934 C140.609536,104.70934 138.496843,102.605122 138.496843,100.005116 C138.496843,97.4051097 140.609536,95.3008918 143.207109,95.3008918 Z M164.859327,84.2321293 C167.468445,84.2321293 169.581138,86.3478772 169.581138,88.9536483 C169.581138,91.5594195 167.468445,93.6636373 164.859327,93.6636373 C162.250209,93.6636373 160.137516,91.5594195 160.137516,88.9536483 C160.137516,86.3478772 162.250209,84.2321293 164.859327,84.2321293 Z M179.532731,66.1358557 C182.147621,66.1358557 184.260314,68.2458385 184.260314,70.8516097 C184.260314,73.4516159 182.147621,75.5673637 179.532731,75.5673637 C176.929385,75.5673637 174.816692,73.4516159 174.816692,70.8516097 C174.816692,68.2458385 176.929385,66.1358557 179.532731,66.1358557 Z M177.627844,41.7038686 C180.236962,41.7038686 182.349655,43.8196164 182.349655,46.4196226 C182.349655,49.0253937 180.236962,51.1469065 177.627844,51.1469065 C175.018725,51.1469065 172.906032,49.0253937 172.906032,46.4196226 C172.906032,43.8196164 175.018725,41.7038686 177.627844,41.7038686 Z M159.502553,60.2036908 C162.111672,60.2036908 164.230137,62.3194386 164.230137,64.9252098 C164.230137,67.536746 162.111672,69.6409638 159.502553,69.6409638 C156.899208,69.6409638 154.780742,67.536746 154.780742,64.9252098 C154.780742,62.3194386 156.899208,60.2036908 159.502553,60.2036908 Z M142.508651,72.840528 C145.123541,72.840528 147.236234,74.9505108 147.236234,77.556282 C147.236234,80.1620531 145.123541,82.272036 142.508651,82.272036 C139.905305,82.272036 137.792612,80.1620531 137.792612,77.556282 C137.792612,74.9505108 139.905305,72.840528 142.508651,72.840528 Z M118.876505,67.3234417 C121.485623,67.3234417 123.609861,69.4391895 123.609861,72.0391957 C123.609861,74.6449668 121.485623,76.7607147 118.876505,76.7607147 C116.273159,76.7607147 114.154694,74.6449668 114.154694,72.0391957 C114.154694,69.4391895 116.273159,67.3234417 118.876505,67.3234417 Z M109.005726,48.0799369 C111.614844,48.0799369 113.73331,50.1956848 113.73331,52.8014559 C113.73331,55.4072271 111.614844,57.5229749 109.005726,57.5229749 C106.396608,57.5229749 104.283915,55.4072271 104.283915,52.8014559 C104.283915,50.1956848 106.396608,48.0799369 109.005726,48.0799369 Z M121.976276,32.716264 C124.591167,32.716264 126.709632,34.8262469 126.709632,37.4320181 C126.709632,40.0377892 124.591167,42.153537 121.976276,42.153537 C119.378703,42.153537 117.260237,40.0377892 117.260237,37.4320181 C117.260237,34.8262469 119.378703,32.716264 121.976276,32.716264 Z M141.042465,24.1495031 C143.657356,24.1495031 145.764276,26.2652509 145.764276,28.8652571 C145.764276,31.4710283 143.657356,33.5810111 141.042465,33.5810111 C138.433347,33.5810111 136.326426,31.4710283 136.326426,28.8652571 C136.326426,26.2652509 138.433347,24.1495031 141.042465,24.1495031 Z M134.98146,50.7548879 C137.590578,50.7548879 139.703272,52.8648707 139.703272,55.4706419 C139.703272,58.076413 137.590578,60.1979258 134.98146,60.1979258 C132.372342,60.1979258 130.259649,58.076413 130.259649,55.4706419 C130.259649,52.8648707 132.372342,50.7548879 134.98146,50.7548879 Z M154.769197,40.3202733 C157.378316,40.3202733 159.491009,42.4360211 159.491009,45.0417922 C159.491009,47.6475634 157.378316,49.7633112 154.769197,49.7633112 C152.160079,49.7633112 150.041614,47.6475634 150.041614,45.0417922 C150.041614,42.4360211 152.160079,40.3202733 154.769197,40.3202733 Z M164.195503,20.5348604 C166.804621,20.5348604 168.923086,22.6448432 168.923086,25.2448494 C168.923086,27.8563855 166.804621,29.9663684 164.195503,29.9663684 C161.592157,29.9663684 159.467919,27.8563855 159.467919,25.2448494 C159.467919,22.6448432 161.592157,20.5348604 164.195503,20.5348604 Z M187.071466,21.1517133 C189.686357,21.1517133 191.79905,23.2674611 191.79905,25.8674673 C191.79905,28.4732384 189.686357,30.5832213 187.071466,30.5832213 C184.46812,30.5832213 182.349655,28.4732384 182.349655,25.8674673 C182.349655,23.2674611 184.46812,21.1517133 187.071466,21.1517133 Z M204.561794,36.6883356 C207.16514,36.6883356 209.283605,38.8040834 209.283605,41.4040896 C209.283605,44.0156257 207.16514,46.1256086 204.561794,46.1256086 C201.952676,46.1256086 199.83421,44.0156257 199.83421,41.4040896 C199.83421,38.8040834 201.952676,36.6883356 204.561794,36.6883356 Z M196.08216,54.1792863 C198.691278,54.1792863 200.809743,56.2950341 200.809743,58.9065702 C200.809743,61.5123414 198.691278,63.6165592 196.08216,63.6165592 C193.473042,63.6165592 191.366121,61.5123414 191.366121,58.9065702 C191.366121,56.2950341 193.473042,54.1792863 196.08216,54.1792863 Z M208.590919,69.8600331 C211.20581,69.8600331 213.318503,71.9757809 213.318503,74.5815521 C213.318503,77.1873232 211.20581,79.2973061 208.590919,79.2973061 C205.981801,79.2973061 203.869108,77.1873232 203.869108,74.5815521 C203.869108,71.9757809 205.981801,69.8600331 208.590919,69.8600331 Z M190.731159,83.8458756 C193.346049,83.8458756 195.464515,85.9558585 195.464515,88.5616297 C195.464515,91.1674008 193.346049,93.2831486 190.731159,93.2831486 C188.12204,93.2831486 186.01512,91.1674008 186.01512,88.5616297 C186.01512,85.9558585 188.12204,83.8458756 190.731159,83.8458756 Z M215.506237,87.9044219 C218.121127,87.9044219 220.23382,90.0144047 220.23382,92.6259409 C220.23382,95.231712 218.121127,97.3474599 215.506237,97.3474599 C212.897118,97.3474599 210.784425,95.231712 210.784425,92.6259409 C210.784425,90.0144047 212.897118,87.9044219 215.506237,87.9044219 Z M235.871212,98.3390365 C238.474558,98.3390365 240.593024,100.449019 240.593024,103.049026 C240.593024,105.643267 238.474558,107.75325 235.871212,107.75325 C233.279411,107.75325 231.160946,105.643267 231.160946,103.049026 C231.160946,100.449019 233.279411,98.3390365 235.871212,98.3390365 Z M252.801619,90.9483316 C255.416509,90.9483316 257.534975,93.0583144 257.534975,95.6583206 C257.534975,98.2640917 255.416509,100.37984 252.801619,100.37984 C250.198273,100.37984 248.079807,98.2640917 248.079807,95.6583206 C248.079807,93.0583144 250.198273,90.9483316 252.801619,90.9483316 Z M258.083351,112.440179 C260.698242,112.440179 262.816707,114.544397 262.816707,117.155933 C262.816707,119.761704 260.698242,121.877452 258.083351,121.877452 C255.474233,121.877452 253.36154,119.761704 253.36154,117.155933 C253.36154,114.544397 255.474233,112.440179 258.083351,112.440179 Z M270.326581,131.13601 C272.929927,131.13601 275.036847,133.240228 275.036847,135.845999 C275.036847,138.44024 272.929927,140.538693 270.326581,140.538693 C267.723235,140.538693 265.616314,138.44024 265.616314,135.845999 C265.616314,133.240228 267.723235,131.13601 270.326581,131.13601 Z" id="Combined-Shape" fill="#1247B8"></path>
        </g>
    </g>
</svg>