<svg height="500" viewBox="0 0 1441 500" width="1441" xmlns="http://www.w3.org/2000/svg" xmlns:xlink="http://www.w3.org/1999/xlink"><defs><path id="a" d="m0 0h1440v500h-1440z"/><linearGradient id="b"><stop offset="0" stop-color="#808080" stop-opacity=".25"/><stop offset=".54" stop-color="#808080" stop-opacity=".12"/><stop offset="1" stop-color="#808080" stop-opacity=".1"/></linearGradient><linearGradient id="c" x1="49.975154%" x2="49.975154%" xlink:href="#b" y1="99.910391%" y2="-.152727%"/><linearGradient id="d" x1="50.020782%" x2="50.020782%" xlink:href="#b" y1="100.163922%" y2=".171521%"/><mask id="e" fill="#fff"><use fill="#fff" fill-rule="evenodd" xlink:href="#a"/></mask></defs><g fill="none" fill-rule="evenodd" transform="translate(.153181)"><use fill="#fff" xlink:href="#a"/><path d="m-.153181 94h1440v406h-1440z" fill="#f4f6f8" mask="url(#e)"/><g fill="#d6e6f9" mask="url(#e)"><g transform="translate(95.846819 -27)"><rect height="11" rx="2.52" width="11" y="44"/><rect height="11" rx="2.52" width="11" x="44" y="44"/><rect height="11" rx="2.52" width="11" x="89" y="44"/><rect height="11" rx="2.52" width="11" x="134" y="44"/><rect height="11" rx="2.52" width="11" x="178" y="44"/><rect height="11" rx="2.52" width="11" x="223" y="44"/><rect height="11" rx="2.52" width="11" x="267" y="44"/><rect height="11" rx="2.52" width="11" x="312" y="44"/><rect height="11" rx="2.52" width="11" x="356" y="44"/><rect height="11" rx="2.52" width="11" x="400" y="44"/><rect height="11" rx="2.52" width="11" y="89"/><rect height="11" rx="2.52" width="11" x="44" y="89"/><rect height="11" rx="2.52" width="11" x="89" y="89"/><rect height="11" rx="2.52" width="11" x="134" y="89"/><rect height="11" rx="2.52" width="11" x="178" y="89"/><rect height="11" rx="2.52" width="11" x="223" y="89"/><rect height="11" rx="2.52" width="11" x="267" y="89"/><rect height="11" rx="2.52" width="11" x="312" y="89"/><rect height="11" rx="2.52" width="11" x="356" y="89"/><rect height="11" rx="2.52" width="11" x="400" y="89"/><rect height="11" rx="2.52" width="11" y="134"/><rect height="11" rx="2.52" width="11" x="44" y="134"/><rect height="11" rx="2.52" width="11" x="89" y="134"/><rect height="11" rx="2.52" width="11" x="134" y="134"/><rect height="11" rx="2.52" width="11" x="178" y="134"/><rect height="11" rx="2.52" width="11" x="223" y="134"/><rect height="11" rx="2.52" width="11" x="267" y="134"/><rect height="11" rx="2.52" width="11" x="312" y="134"/><rect height="11" rx="2.52" width="11" x="356" y="134"/><rect height="11" rx="2.52" width="11" x="400" y="134"/><rect height="11" rx="2.52" width="11" y="179"/><rect height="11" rx="2.52" width="11" x="44" y="179"/><rect height="11" rx="2.52" width="11" x="89" y="179"/><rect height="11" rx="2.52" width="11" x="134" y="179"/><rect height="11" rx="2.52" width="11" x="178" y="179"/><rect height="11" rx="2.52" width="11" x="223" y="179"/><rect height="11" rx="2.52" width="11" x="267" y="179"/><rect height="11" rx="2.52" width="11" x="312" y="179"/><rect height="11" rx="2.52" width="11" x="356" y="179"/><rect height="11" rx="2.52" width="11" x="400" y="179"/><rect height="11" rx="2.52" width="11" y="223"/><rect height="11" rx="2.52" width="11" x="44" y="223"/><rect height="11" rx="2.52" width="11" x="89" y="223"/><rect height="11" rx="2.52" width="11" x="134" y="223"/><rect height="11" rx="2.52" width="11" x="178" y="223"/><rect height="11" rx="2.52" width="11" x="223" y="223"/><rect height="11" rx="2.52" width="11" x="267" y="223"/><rect height="11" rx="2.52" width="11" x="312" y="223"/><rect height="11" rx="2.52" width="11" x="356" y="223"/><rect height="11" rx="2.52" width="11" x="400" y="223"/><rect height="11" rx="2.52" width="11" y="268"/><rect height="11" rx="2.52" width="11" x="44" y="268"/><rect height="11" rx="2.52" width="11" x="89" y="268"/><rect height="11" rx="2.52" width="11" x="134" y="268"/><rect height="11" rx="2.52" width="11" x="178" y="268"/><rect height="11" rx="2.52" width="11" x="223" y="268"/><rect height="11" rx="2.52" width="11" x="267" y="268"/><rect height="11" rx="2.52" width="11" x="312" y="268"/><rect height="11" rx="2.52" width="11" x="356" y="268"/><rect height="11" rx="2.52" width="11" x="400" y="268"/><rect height="11" rx="2.52" width="11" y="313"/><rect height="11" rx="2.52" width="11" x="44" y="313"/><rect height="11" rx="2.52" width="11" x="89" y="313"/><rect height="11" rx="2.52" width="11" x="134" y="313"/><rect height="11" rx="2.52" width="11" x="178" y="313"/><rect height="11" rx="2.52" width="11" x="223" y="313"/><rect height="11" rx="2.52" width="11" x="267" y="313"/><rect height="11" rx="2.52" width="11" x="312" y="313"/><rect height="11" rx="2.52" width="11" x="356" y="313"/><rect height="11" rx="2.52" width="11" x="400" y="313"/><rect height="11" rx="2.52" width="11" y="357"/><rect height="11" rx="2.52" width="11" x="44" y="357"/><rect height="11" rx="2.52" width="11" x="89" y="357"/><rect height="11" rx="2.52" width="11" x="134" y="357"/><rect height="11" rx="2.52" width="11" x="178" y="357"/><rect height="11" rx="2.52" width="11" x="223" y="357"/><rect height="11" rx="2.52" width="11" x="267" y="357"/><rect height="11" rx="2.52" width="11" x="312" y="357"/><rect height="11" rx="2.52" width="11" x="356" y="357"/><rect height="11" rx="2.52" width="11" x="400" y="357"/></g></g><path d="m596.846819 92h123v40h-123z" fill="#d0cde1" mask="url(#e)"/><text fill="#3d345e" font-family="NunitoSans-Regular, Nunito Sans" font-size="12.6" letter-spacing=".446976393" mask="url(#e)"><tspan x="619.846819" y="117">Sign Up Free</tspan></text><g mask="url(#e)"><g transform="translate(492)"><g fill-rule="nonzero"><path d="m490.7 462.7h276.318161v1.4h-276.318161z" fill="#3f3d56"/><path d="m331.8 300.3v-149.1h170.8v-151.2h-502.6v450.1h502.6v-149.8z" fill="#453b69"/><path d="m502.6 151.2v-151.2h-174.3v149.1h-154v-149.1h-174.3v151.2h157.5v149.1h-157.5v149.8h333.2v-149.8h-1.4v-149.1z" fill="#000" opacity=".1"/><circle cx="205.45" cy="404.95" fill="#f37a78" r="16.45"/><circle cx="251.65" cy="404.95" fill="#007df6" r="16.45"/><circle cx="297.85" cy="404.95" fill="#d0cde1" r="16.45"/><path d="m120.4 0c-.001477 66.4944722-53.9055278 120.398523-120.4 120.4v-120.4z" fill="#f18584"/><path d="m56 0c-.00138 30.9273743-25.0726257 55.99862-56 56v30.8c47.9376341-.0016468 86.7983532-38.8623659 86.8-86.8z" fill="#e6ebf6" opacity=".1"/><path d="m112.7 198.8h35v35h-35z" fill="#f37a78"/><path d="m655.922484 167.894167-11.5808 30.606415-41.7648 14.6545s-25.2-2.8-25.2 11.2c0 9.926406 30.1 1.4 30.1 1.4l55.063183-16.500897 17.3712-43.014419z" fill="#ffb8b8"/><path d="m444.5 159.6h163.8v141.4h-163.8z" fill="#6c63ff"/><path d="m523.25 202.4841 25.2056 43.6576 25.2063 43.6583h-50.4119-50.4119l25.2063-43.6583z" fill="#3f3d56"/><path d="m523.1317 234.0905 11.4338 19.8051 11.4345 19.8044h-22.8683-22.869l11.4345-19.8044z" fill="#d0cde1"/><path d="m523.1317 169.6905 11.4338 19.8051 11.4345 19.8044h-22.8683-22.869l11.4345-19.8044z" fill="#d0cde1"/><path d="m680.416793 148.006257s-11.5808-1.654401-17.3712 19.852812-7.444808 23.1616-7.444808 23.1616 33.915217 4.963203 34.7424 3.308802 7.444815-41.360011-9.926392-46.323214z" fill="#2f2e41"/><circle cx="673.799189" cy="117.399842" fill="#ffb8b8" r="22.33441"/><path d="m663.872783 135.598253s7.444808 19.025608 4.963203 21.507213 30.606415 5.7904 30.606415 5.7904 2.481605-12.408004-7.444801-19.852812c0 0-4.136006-12.408004-3.308802-14.889609s-24.816015 7.444808-24.816015 7.444808z" fill="#ffb8b8"/><path d="m683.725595 143.870258c-8.479325 3.201939-16.117496 8.294054-22.33441 14.889609-9.926406 10.753603-14.889609 14.062405-14.889609 14.062405s-11.5808 4.135999-7.444808 23.988811c2.068003 9.926406.620403 21.093611-1.344196 29.779218-3.001 13.478926-4.49225 27.250027-4.446204 41.058913v8.57311s-76.102439 159.6497-50.459227 170.403296 48.804826 14.062405 50.459227 11.5808 31.433619-131.524869 31.433619-131.524869 8.272005 138.142473 28.952 138.142473 54.595226-5.7904 54.595226-5.7904l-42.187222-165.4401s9.926406-28.124817-14.889609-47.977629l-3.308802-9.099202c13.723129.007 19.996298-86.848776 5.7904-94.30085.000021.000014-3.308781-2.481591-9.926385 1.654415z" fill="#2f2e41"/><path d="m663.045586 188.539078-11.5808 30.606415-41.7648 14.6545s-25.2-2.8-25.2 11.2c0 9.926406 30.1 1.4 30.1 1.4l55.06319-16.500897 17.3712-43.014426z" fill="#ffb8b8"/><g fill="#2f2e41"><ellipse cx="608.036751" cy="456.552026" rx="14.476007" ry="8.272005"/><ellipse cx="718.881611" cy="456.552026" rx="14.476007" ry="8.272005"/><path d="m682.421222 86.079966h-.000084c-1.149942.0022429-2.296941.1162986-3.424806.340557-2.037751-.9892284-4.272977-1.5043981-6.538147-1.506897h-.593439c-11.441311 0-20.716227 10.35307-20.716227 23.124227v.000042h3.833683l.619164-4.712568.907718 4.712568h3.193582c-.993362 3.781355-1.491956 7.675605-1.4833 11.585252v23.536688h5.796189l3.355765-8.720565-.838943 8.720565h37.256198l3.050712-7.927766-.76272 7.927766h4.194701v-18.480532c0-21.317786-12.468925-38.599337-27.850046-38.599337z"/></g></g><g transform="translate(16.8 212.8)"><rect fill="#fff" height="39.9" rx="5.6" width="123.2"/><text fill="#3d345e" font-family="NunitoSans-Bold, Nunito Sans" font-size="12.6" font-weight="bold" letter-spacing=".446976393"><tspan x="22.4" y="24.9">Sign Up</tspan><tspan font-family="LucidaGrande-Bold, Lucida Grande" x="75.846611" y="24.9">Now</tspan></text></g><g fill-rule="nonzero" transform="translate(238.297304 320.6)"><path d="m16.502696 46.6761985-2.0429234 2.3857123c-.3728328.4063381-.9020364.6380892-1.4570766.6380892s-1.0842438-.2317511-1.4570766-.6380892l-2.0429234-2.3857123v-16.5761985h7z" fill="#007df6"/><path d="m23.6555305 17.788229h-3.4781664c.9459438-1.4173957 1.4512623-3.0975671 1.4489287-4.8176516 0-4.70741022-3.7042211-12.9705774-8.2736021-12.9705774-4.56938097 0-8.27360471 8.26316718-8.27360471 12.9705774-.00233364 1.7200845.50298489 3.4002559 1.44892871 4.8176516h-3.47815316c-1.46021506.0044034-2.64289133 1.2228052-2.64716554 2.7271296v1.9575118c.00427421 1.5043244 1.18695048 2.7227263 2.64716554 2.7271296h20.60566896c1.460215-.0044033 2.6428913-1.2228052 2.6471655-2.7271296v-1.9575118c-.0042742-1.5043244-1.1869505-2.7227262-2.6471655-2.7271296z" fill="#fff"/><path d="m13.0026973 51.7999752c-.8416139.003751-1.6348307-.4188797-2.1369649-1.138613l-2.7630364-3.9256866v-27.1356756h9.8v27.1356756l-2.7630364 3.9256866c-.5021336.7197325-1.2953493 1.1423632-2.1369623 1.138613zm-4.39340325-5.2443328 2.66161805 3.7817631c.4088185.5808574 1.0504192.9227069 1.7317839.9227069s1.3229654-.3418495 1.7317839-.9227069l2.661618-3.7817631v-26.4158047h-8.78680385z" fill="#fff"/><path d="m16.502696 60.2875c0 1.8846717-1.5670034 3.4125-3.5 3.4125s-3.5-1.5278283-3.5-3.4125c0-1.8846697 3.5-5.6875 3.5-5.6875s3.5 3.8028303 3.5 5.6875z" fill="#007df6"/></g><g transform="translate(344.4 15.4)"><path d="m148.4 93.8274176c0 .9202925-.361707 1.8035772-1.009907 2.4550296s-1.528195 1.0175528-2.445885 1.0175528h-137.98082106c-.32260894 0-.64363276-.0452487-.95342987-.1355177-1.48471182-.4254562-2.50663248-1.7885527-2.50181498-3.3370647v-40.2480491c0-.2051552 0-.4084281 0-.6117011v-38.3847136c0-3.1088978-.0183197-3.9708698 0-14.5829538 4.97605296 0 5.92051171.17315846 12.43963221.17315846h128.9964337c.916388 0 1.795243.36506687 2.443227 1.01489005s1.012565 1.53117256 1.012565 2.45016132z" fill="#fff" fill-rule="nonzero"/><g stroke="#3f3d56" stroke-linecap="round" stroke-width=".7"><path d="m17.5 26.6h122.5" opacity=".7"/><path d="m17.5 49.7h122.5" opacity=".7"/><path d="m17.5 72.1h122.5" opacity=".7"/><path d="m17.5 94.5h122.5" opacity=".7"/></g><g fill-rule="nonzero"><rect fill="#3f3d56" height="7" rx="3.5" width="25.9" x="65.1" y="11.9"/><rect fill="#000" height="4.2" opacity=".1" rx="2.1" width="22.4" x="67.2" y="13.3"/><rect fill="#6c63ff" height="4.2" rx="2.1" width="8.4" x="80.5" y="13.3"/><circle cx="84" cy="15.4" fill="#fff" r="1.4"/><rect fill="#3f3d56" height="7" rx="3.5" width="25.9" x="65.1" y="56"/><rect fill="#000" height="4.2" opacity=".1" rx="2.1" width="22.4" x="67.2" y="58.1"/><rect fill="#6c63ff" height="4.2" rx="2.1" width="8.4" x="80.5" y="58.1"/><circle cx="84" cy="60.2" fill="#fff" r="1.4"/><rect fill="#3f3d56" height="7" rx="3.5" width="25.9" x="65.1" y="78.4"/><rect fill="#000" height="4.2" opacity=".1" rx="2.1" width="22.4" x="67.2" y="79.8"/><rect fill="#6c63ff" height="4.2" rx="2.1" width="8.4" x="80.5" y="79.8"/><circle cx="84" cy="81.9" fill="#fff" r="1.4"/><rect fill="#3f3d56" height="7" rx="3.5" width="25.9" x="65.1" y="34.3"/><rect fill="#000" height="4.2" opacity=".1" rx="2.1" width="22.4" x="67.2" y="35"/><rect fill="#6c63ff" height="4.2" rx="2.1" transform="matrix(-1 0 0 -1 142.8 74.2)" width="8.4" x="67.2" y="35"/><circle cx="71.4" cy="37.1" fill="#fff" r="1.4"/><path d="m39.2 15.752338c.0008645 3.0813202-1.6192181 5.9359419-4.2651465 7.5152823l-.1191486.0707408-.2252652.1247273-.2140951.111696-.0335105.0167544c-.0893614.0446784-.1805846.0874953-.2736694.1284505-.296452.1351901-.6004066.253285-.9103694.3537041-.2029249.0651561-.4077115.1247273-.6143598.1749905-.4240541.1037116-.8553305.1752762-1.2901555.2140841-.2643609.0242008-.5305835.037232-.8005294.037232-.3215268-.0004015-.6428075-.0178007-.962497-.0521248h-.0558509c-.1098401-.0111696-.2196801-.0260624-.3295202-.0428168-.349137-.0548096-.6947634-.1300229-1.0351032-.2252537l-.1694143-.0502633-.1489357-.04654-.0484041-.0167544c-.3041284-.1000079-.6024603-.2168485-.8936142-.3499809-.5002418-.2282813-.9772004-.5044667-1.4241977-.8246892l-.0223403-.0148928-.0148936-.0111696-.1601059-.1172808-.1210102-.0930801c-.236514-.1841623-.4627401-.3811678-.6776575-.5901274-.2010632-.1936065-.3921973-.396521-.5734024-.6087435-2.5299908-2.9407858-2.8214567-7.1962737-.7160483-10.4545138 2.1054084-3.25824003 6.1049678-4.74123911 9.825771-3.6433036 3.7208031 1.09793552 6.2744074 4.5146437 6.2734739 8.3938727z" fill="#434175"/><path d="m35.698076 23.419856-.2289599.0677442c-.1286465.0072188-.2552627-.0338355-.354022-.1147888l-.0750373-.069626c-.0447618-.0523901-.1078646-.0866028-.1770109-.095971h-.0192404c-.0260129.0053287-.0528724.0053287-.0788853 0-.0049489.0018894-.0104434.0018894-.0153923 0-.0264136-.0165359-.0429281-.0446261-.0442527-.0752714-.04636-.1686706-.0804367-.3403431-.1019737-.513727-.0113188-.1880156-.0113188-.3765196 0-.5645352 0-.148661 0-.2992037 0-.4478646.0253248-.1683202.0401033-.3379973.0442527-.5080817.0089645-.1809006-.0085283-.3621264-.0519489-.5381902-.0261737-.0973765-.0622697-.1919391-.1077458-.2822676-.0307845-.2540409-.0673411-.5080817-.1038977-.7527136-.0269365-.1881784-.055797-.3763568-.0904296-.5645352.0082593-.0309749.0146835-.0623902.0192404-.0940892.0424778-.3121827-.0826105-.623727-.3309336-.8242214-.0743865-.060837-.1573263-.1109024-.2462762-.148661-.0731132-.0301085-.1481505-.0545717-.2231878-.0790349l-1.2082924-.3763568c-.1135179-.1637152-.2212637-.331194-.3251615-.5024363-.0971467-.1533269-.182056-.3137544-.2539723-.479855.8146815-.6047444 1.0298923-1.7140576.4983244-2.5686351-.0192403-.0301086-.0423287-.0583353-.063493-.0865621.0090988-.1480003-.0084853-.2964125-.0519489-.4384557.0008343-.0037193.0008343-.0075713 0-.0112907-.0229697-.1181827-.0804399-.2273312-.1654668-.3142579l-.0404047-.0432811c-.0183527-.0220551-.0382846-.042807-.059645-.0620988-.081307-.0798586-.1687891-.1534664-.2616684-.2201688-.4001988-.2935583-.9370039-.6510972-1.4257081-.7696496-.2418126-.054606-.4931679-.054606-.7349805 0l-.0384806-.0131725-.0711892-.0131725.0557969.026345c-.2581498-.058779-.5271507-.0542541-.7830812.0131725-.3174654.095971-.4290593.3500118-.5637415.6285158-.2153249.4463488-.5471445.8292981-.9620163 1.1102526-.2635924.1768877-.5772097.331194-.7041959.6247523-.1269861.2935583-.0365566.5889984-.0115442.8863203.0718466.8105712-.2701817 1.6035546-.9139154 2.1188888-.3597941.2822676-.8388782.5174906-.9177636.9691187-.0538729.3217851.1250622.6303977.2616685.9258378.2866808.6285158.3848065 1.3944019.0481008 1.994691-.0327086.0564535-.0673412.1110253-.1000497.1637152.1827831.218287.3848065.4252832.5772098.6247523.2191661.2131481.4497322.4147819.6907276.6040527l.1231381.095971.1635428.1185524.0153922.0131725.0230884.0150542c.4543138.3271343.940191.6101163 1.4507205.8449211.0017921-.01127.0057064-.022117.0115442-.0319904-.0018966.0124767-.0018966.0251591 0 .0376357.2961134.1361074.5999687.2554833.9100674.357539l.0481008.016936.1519986.0489264.1731629.0508082c.34646.0975063.6985368.1747956 1.0543699.2314594.1115938.0169361.2231877.0319903.3367056.043281h.055797c.3258883.0346941.6534435.0522827.9812566.05269.2751366 0 .5464252-.0131725.8157898-.0376357.4432439-.0397185.8826258-.1133332 1.3141142-.2201687.0519489-.0112907.1038977-.026345.1558466-.0413993.1577707-.0413992.3136173-.086562.4694639-.1373702.3160077-.1028033.6256552-.2234399.9273837-.3613025.0942776-.0432811.1924033-.0865621.2789847-.1317249l.0346326-.0169361.2174157-.1147888c-.0050924-.0050467-.0058938-.0128848-.001924-.0188178zm-7.7095984-.2596862c.0010031-.0156662.0010031-.0313784 0-.0470446-.0048396-.0500693-.0048396-.1004735 0-.1505427.0059762-.0295258.0177365-.0576419.0346326-.0827985v.0903256c.0009339.0649322-.0108209.1294413-.0346326.1900602z" fill="url(#c)"/><path d="m35.7 23.428514-.2296424.0686361c-.1277355.0073035-.2535951-.0334822-.3530039-.1143935-.0246723-.0209722-.0512425-.047664-.0759149-.0705427-.0449351-.0527837-.1078897-.0867852-.1765019-.0953279h-.0189787c-.0262706.0056685-.05344.0056685-.0797106 0-.0048816.0019143-.0103014.0019143-.015183 0-.0258934-.0171821-.0426424-.045225-.0455489-.0762624-.0457218-.1683119-.0793376-.3397086-.1005871-.5128643-.0114618-.190482-.0114618-.3814855 0-.5719676 0-.1487116 0-.2993297 0-.4480413.0249812-.1686176.0395593-.3386258.043651-.5090511.00877-.1807601-.0084889-.3618452-.0512425-.5376496-.0275903-.0971165-.0637949-.1915516-.1081786-.2821707-.030366-.2535723-.0683234-.5071446-.1043829-.7626235-.0265702-.1906559-.0550383-.3813117-.0910978-.5719676 0-.0305049.0151829-.0610099.0208766-.0934214.0413621-.314139-.0847899-.6269798-.3321274-.8236333-.0747972-.0610844-.1578722-.1111576-.2467232-.1487116-.0721191-.030505-.1480339-.0552902-.2239488-.0800755l-1.2089436-.3813117c-.1119744-.1639641-.2201531-.3317412-.3245359-.501425-.0977403-.1528758-.1827986-.3135685-.2543147-.4804528.8171608-.588155 1.0360543-1.7143879.49914-2.5681345-.0189787-.030505-.0417532-.0571968-.0626297-.0857952.0089807-.1480667-.0083713-.2965566-.0512426-.4385085.000823-.0037683.000823-.007671 0-.0114393-.0092915-.0458158-.0232839-.090541-.0417531-.1334592-.0324375-.0659016-.0739672-.1268767-.1233616-.181123l-.0417532-.0438509c-.0181342-.0217234-.0377959-.0421124-.058834-.0610099-.0838436-.0759659-.1732999-.1454367-.2675997-.2078149-.4004508-.29361-.9375482-.6501365-1.4271988-.7626235-.2417276-.0553303-.4927484-.0553303-.734476 0l-.0379574-.0114393-.0702213-.0133459.0550383.0266918c-.258481-.059509-.5274956-.0549286-.7838206.0133459-.3169444.095328-.4289188.3489003-.5693613.6272578-.2140886.4469949-.5413237.8296403-.9489353 1.1096172-.2638041.17731-.5693613.3317412-.7041101.6253513-.1347488.29361-.0379574.5891266-.0113872.8865498.0678842.8154798-.2756129 1.6108578-.9147737 2.1181867-.3605954.2821707-.8407567.5166774-.9185694.9685318-.0550383.3222084.1252594.631071.2619061.9265876.2865785.6272578.3795742 1.3936944.0474468 1.9942604-.0322638.0552902-.0664255.1105804-.1005872.163964.1834609.2173477.3783089.4251626.5845442.6234447.2190934.2140061.4497153.4157693.690825.6043791l.1233616.095328.1632169.1201132.0151829.0114393.0227745.0152525c.4556829.3279559.9419092.6108112 1.4518711.8446055.0020953-.0107295.005943-.021037.0113872-.0305049.0132459-.0339109.0284548-.0670145.0455489-.0991411.0798059-.1152267.1371231-.244619.1689105-.3813117.0009895-.0158725.0009895-.0317916 0-.047664-.0047562-.0500924-.0047562-.1005258 0-.1506181.0062545-.0292107.0178368-.0570062.0341617-.0819821.0208766-.0381311.0512425-.0743558.0759148-.1124869.0138319-.0198702.0258982-.0409233.0360596-.0629165.0208766.0285984.0398553.0571968.058834.0877017.0683233.1048608.1347488.2097215.2011743.3164888.0544534.0707723.0885832.1551686.0986892.2440395-.010531.0522177-.010531.1060267 0 .1582444.0284681.0667295.1233616.1220197.0873021.1906558-.0352233.0708173-.0352233.1541567 0 .224974.0242449.037889.0508691.0741872.0797106.1086738l.0493446.017159.1518297.047664.1727062.0514771c.3469529.0975306.6992951.1745604 1.0552161.2306936.1119744.017159.2239488.0324115.3359232.0438509h.0569361c.3259013.035153.6534248.0529724.9811992.0533836.2751912 0 .5465867-.0133459.8160844-.0381312.4432741-.0397451.8829306-.113038 1.3152244-.2192542.0531404-.0114394.1043829-.0266918.1575233-.0419443.1575233-.0419443.3131487-.0857952.4687741-.1372722.3159857-.1028444.6258464-.2237913.9280588-.3622462.0948935-.0419443.1878892-.0857951.278987-.1315526l.0341616-.017159.2182552-.1143935z" fill="#6c63ff" opacity=".3"/><path d="m39.2 37.4492395c.0023136 1.4687649-.3665625 2.9142755-1.0723475 4.2021532-.1477939.2709188-.3106369.5333434-.4877642.7860411-.1759917.2591751-.3668241.507945-.5715405.7450626-.0115211.0155904-.0246226.0299471-.0390956.0428411-.0781912.0931328-.1619675.1862656-.2476055.2719478l-.0949464.1005835c-.0968082.0987208-.195478.1862656-.2978713.2868491-.0114882.0127324-.023936.024564-.0372339.0353905-.0465424.0428411-.0949465.0875448-.1452122.1285233-.2610207.2295421-.535823.4429039-.8228694.6388912-.1470739.1005834-.2960096.1974416-.4486686.2887117l-.1191485.070781-.2252652.124798-.152659.0800942-.0614359.0316652-.0335105.0167639c-.0595743.0298025-.1216308.0577423-.1861696.0838195-.0316488.0167639-.0632976.0298025-.0949464.0447038l-.1861696.0782316c-.1638292.0707809-.3313818.1378365-.5007961.1974416l-.2271268.0763689h-.0260637c-.0180652.0072856-.0367606.0128971-.0558509.0167639l-.042819.0149012-.1265953.0372532-.042819.0130386-.0539891.0149012-.0781912.0204892c-.0174782.0066847-.0355576.0116747-.0539892.0149013l-.1321804.0353905c-.0968081.0242145-.195478.0465664-.2941479.0651929-.3287216.0695741-.6613226.1193345-.996007.1490126-.2531906.0223518-.5063812.0353904-.7651568.0372531h-.0595743c-.2457438 0-.4859025-.0111759-.7260612-.0316652l-.2122333-.0204892h-.0558508-.0335105l-.2960096-.0391158-.2364353-.0409784-.0595743-.011176c-.10984-.0204892-.21968-.0428411-.3276584-.0707809-.0085814.0019248-.0174823.0019248-.0260637 0-.1303187-.0279399-.2587757-.0614677-.3853709-.0968581l-.1694143-.0502918-.1489357-.0465664-.048404-.0167639c-.3013656-.1002677-.5971743-.2165383-.8861671-.3483168-.1998219-.091891-.3953-.1906118-.586434-.2961624l-.085638-.048429-.1265953-.0726436-.0688827-.0409785c-.1861696-.1154847-.3723391-.23842-.5585086-.3725313l-.0223404-.0149012-.0148936-.011176-.1601058-.1173473-.1210102-.0931329c-.2365138-.1842667-.4627398-.381384-.6776571-.5904621-.2010631-.1937163-.3921972-.3967459-.5734022-.6090887-2.5269611-2.9428167-2.8166163-7.1986626-.7117127-10.4570522 2.1049036-3.2583895 6.1022255-4.7420091 9.8218317-3.6454062 3.7196062 1.0966028 6.2741566 4.5118252 6.2768045 8.3915534z" fill="#434175"/><path d="m34.226764 45.9149109c-.0132578-.020593-.0286083-.0395643-.0457725-.0565694-.0127544-.0133522-.0268805-.0251305-.0421107-.0351121-.1244066-.1001161-.187027-.2650339-.1629501-.4291477.0009879-.0168895.0009879-.0338281 0-.0507175-.0495154-.1999749-.1207936-.3931004-.2123845-.5754481-.0457725-.1033856-.1025304-.2613899-.1519647-.409641-.0659124-.1950671-.1190085-.3725782-.1190085-.3725782s0-.017556-.0091545-.0507175c-.0219708-.1228923-.0823905-.4681611-.1354866-.7919726 0-.0195067 0-.0370627 0-.0565694-.0677433-.4174437-.715882-1.5234744-.715882-1.5234744-.005233-.0151451-.0148509-.0281249-.0274635-.0370628-.1446412-.0721748-.6389842-.3745289-.6389842-.3745289-.3661801-.4935199-.7140511-.6144615-.9538991-.6203135h-.0311253-.0585888c-.0201257-.0011392-.040294-.0011392-.0604197 0-.0322403.0061346-.0640499.0146072-.0952068.0253587l-.0347871.0117041c-.0163526.0058643-.0322658.0130372-.0476034.0214573l-.0109854.0955829c-.0194387-.2367832-.0021183-.4753609.0512652-.706143l.018309-.0663228h.1061922c.5592128-.0085543 1.0827731-.2941522 1.4162068-.7725294.3334337-.4783773.4386848-1.094935.2846995-1.6677606 0-.0097533 0-.017556 0-.0273094l.0530962-.0273094c.2160462-.0877802.494343.0624215.6719403-.0975336.0641885-.0694174.1102589-.1554827.1336558-.2496859.0493871-.1279304.0820385-.2624851.0970377-.3998876.0036627-.0415229.0036627-.0833202 0-.124843v-.0253587.0097533c-.0076886-.0905375-.0401565-.1766779-.0933759-.2477353-.1153467-.1463003-.3094222-.1833631-.4577251-.29065-.1193986-.1022544-.2183803-.2289351-.2911131-.3725782-.0721328-.1435344-.168314-.2717909-.2837896-.3784303-.1174362-.1073985-.2813099-.1359958-.4247688-.0741255-.043147.0317914-.0907225.0561478-.1409794.0721748-.0541603.0003823-.1073726-.0151409-.1537956-.0448654-.5034976-.255538-1.0893856-.2106725-1.6478102-.1345963-.2222823.0199735-.4403109.0765657-.6463078.1677577-.2088456.0966732-.3678946.2853504-.4357543.5169279-.0457725.1833631-.0109854.3901343-.0659124.5637441-.036618.1228923-.1116849.2301792-.1537956.3491702-.0221288.0659975-.035681.1349097-.0402798.2048205 0 0 0 0 0-.0117041 0-.011704 0 .0273094 0 .0409641v.0955829c.0280921.2399132.0702857.4777121.1263321.7119951.0659124.3803809.0329562.7919726.18309 1.1508961.0154515.0436486.0350848.085484.0585888.124843-.0530961.1228923-.1080231.2457846-.164781.3628249-.0277167-.0081434-.055833-.0146555-.0842214-.0195067h-.0311253-.0347871c-.0218878-.0028771-.0440246-.0028771-.0659124 0-.016022.0051361-.0313938.0123422-.0457725.0214574l-.018309.017556-.0128163.0097534c-.0063293.0074015-.0112978.0160035-.0146472.0253587-.000946.0044958-.000946.0091589 0 .0136547-.0097919.0235035-.0159738.0485313-.018309.0741255v.0195067c0 .0409641 0 .0819282-.0109854.124843s0 .0487668-.0091545.0721748c-.0020135.0203199-.0050696.040507-.0091545.0604708v.0156054c0 .0234081-.0091545.0487668-.0146472.0721749l-.0274636.0877802-.0109854.0253587c-.0109854.0253587-.0219708.0507175-.0347871.0741255l-.0622506.0682735c-.0257337.0141214-.0409195.043398-.0384489.0741255l-.0274635.0234081c-.0137459.0020913-.026881.0074225-.0384489.0156054-.0128163-.0312108-.0640815-.0312108-.2233698.1755604-.2135604.2404005-.4605709.4443566-.7323601.6047081 0 0-1.0747385.8153807-1.1333273 1.1918603s-.4046289 2.0033395-.2215389 2.5475768c.0238017.0702242.0695742.1794618.1299939.3121075v.011704s.0530961.2165245.1373175.5364346c.0219708.0136547.0439416.0312108.0677433.0448655l.1245012.0760762.0842215.0526681c.18309.1111883.3808272.2165245.5767335.3140581.2841502.1392977.5750655.2623645.8715086.3686769l.0476034.017556.146472.0507175.1666119.0526681c.1245012.0370628.2508334.0721749.3789964.1033856.0084394.0020157.0171931.0020157.0256326 0 .1061922.0292601.2142153.0526681.3222384.0741255l.0585888.0117041.2325244.0448654.2911131.0409641h.0329562.054927l.2087227.0214574c.2361861.0214574.4723722.0331614.7140511.0331614h.0585888c.2544951 0 .5034975-.0156054.7525-.0390134.3291849-.031729.6562843-.0844921.9795316-.1580044.0970377-.0195067.1940755-.0429148.2892823-.0702242l.1299939-.0370627c.0181267-.0033791.035907-.0086049.0530961-.0156054l.0768978-.0214574.0530961-.0156054.0421107-.0136547.1245012-.0390134.0421107-.017556c.0187746-.0040495.0371607-.0099262.0549271-.0175561h.0256326l.2233698-.0799775c.1666119-.0643722.3313929-.1345963.4925122-.2106725l.18309-.0819282c.0311253-.0156054.0622506-.0292601.0933759-.0487668-.0197782-.0426898-.044372-.0826488-.073236-.118991z" fill="url(#d)"/><path d="m34.2176095 45.2936912c-.0137552-.0187517-.0290695-.0362575-.0457725-.0523229-.0127544-.0127909-.0268805-.0240742-.0421107-.0336362-.1241644-.0935714-.186983-.2498963-.1629501-.4055031.0009879-.0161795.0009879-.0324061 0-.0485857-.0495752-.1891625-.1208637-.3716882-.2123845-.5437852-.0457725-.0971713-.1025304-.2466655-.1519647-.3868163-.0659124-.1868678-.1190085-.3531801-.1190085-.3531801l-.0091545-.046717c-.0219708-.1177267-.0823905-.4428766-.1354866-.7474711 0-.0186868 0-.0355049 0-.0541917-.0677434-.394291-.715882-1.4407506-.715882-1.4407506-.0050964-.0140994-.0147946-.0259775-.0274635-.0336362-.1446412-.0691411-.6389842-.3550488-.6389842-.3550488-.3661801-.4671695-.7140511-.5811588-.9538991-.5867649h-.0311253-.0585888c-.0201257-.0010913-.040294-.0010913-.0604197 0-.0322403.0058768-.0640499.0139933-.0952068.0242929l-.0347871.011212c-.0163526.0056178-.0322658.0124892-.0476034.0205555l-.0109854.0915652c-.019471-.2243537-.0021449-.4504508.0512652-.6689867 0-.0205554.0128163-.0411109.018309-.0616663h.1061922c.4695606 0 .9198893-.1903811 1.2519188-.5292615.3320295-.3388803.5185618-.7985008.5185618-1.27775.0003735-.1694707-.0230562-.338121-.0695743-.5008057v-.0242928l.0292944-.0074747c.2160463-.0822218.4943431.0597977.6719404-.0915652.0641872-.0657641.1102834-.1476135.1336558-.2373221.049243-.1193577.0819047-.2451523.0970377-.3737356.0036562-.0391535.0036562-.0785732 0-.1177267v-.0242928.0093434c-.0080707-.085507-.0405359-.1667205-.0933759-.2335848-.1153468-.1401508-.3094222-.173787-.4577251-.2765643-.1197896-.0953046-.2189141-.2149268-.2911131-.3513114-.0715782-.1357471-.16646-.2572713-.2801278-.3587862-.1179952-.102018-.282031-.127997-.4247688-.0672724-.0436267.0291397-.0910961.0517911-.1409794.0672724-.0541603.0003662-.1073726-.0145045-.1537956-.0429796-.5034976-.2429281-1.0893857-.1999485-1.6478102-.12707-.2223323.0175869-.4405012.0712045-.6463078.1588376-.2078445.0901458-.3669247.2681989-.4357543.4877249-.0457725.173787-.0109854.3625235-.0659124.5344419-.036618.115858-.1116849.2167666-.1537956.3307559-.0219627.0600482-.0355226.1229563-.0402798.1868678 0 0 0 0 0-.011212 0-.0112121 0 .0261614 0 .0392422v.0896965c.0281063.2267462.070302.4514403.1263321.6727241.0659124.3587861.0329562.7474711.18309 1.0894391.0158355.0410461.0354531.0804652.0585888.1177267-.0530961.1158581-.1080231.2317161-.164781.3419681-.0277167-.0078011-.055833-.0140395-.0842214-.0186868h-.0311253-.0347871c-.0218878-.0027562-.0440246-.0027562-.0659124 0-.0152576.0046136-.0299884.0108781-.0439416.0186868l-.018309.0168181-.0128163.0093434c-.0063293.0070904-.0112978.0153308-.0146472.0242928-.000946.0043068-.000946.0087739 0 .0130807-.0100151.0224351-.016207.0464494-.018309.0710098v.0186868c0 .0392422 0 .0784845-.0109854.1177267-.0109855.0392422 0 .0467169-.0091545.0691411-.0091546.0224241 0 .0373735-.0091546.0560603-.0091545.0186868 0 .0093434 0 .0149494 0 .0056061-.0091545.046717-.0146472.0691411l-.0274635.0840905-.0109854.0224241c-.0101143.0237926-.0217345.0468884-.0347871.0691411-.0107059.009351-.0223691.0174957-.0347871.0242928-.0257337.0135278-.0409195.0415738-.0384489.0710098l-.0274635.0224241c-.0136684.001101-.0268669.0055913-.0384489.0130808-.0128163-.0280302-.0640815-.0280302-.2233698.1663123-.2139744.227775-.460978.4206316-.7323601.5718154 0 0-1.0747385.771764-1.1333273 1.1212067-.0585888.3494428-.4046289 1.8948394-.2215389 2.4087258.0238017.0672724.0695742.1700497.1299939.2952511v.0112121s.0530961.2055545.1373175.5082803l.0677433.041111.1245012.0728784.0842215.0485856c.1879724.1071375.3802169.2061775.5767335.2971198.2842124.1322045.575128.2488509.8715086.3494427l.0476034.0168181.146472.046717.1666119.0504543c.1245012.0355049.2508334.0691411.3789964.0971712.0084394.001931.0171931.001931.0256326 0 .1061922.0280302.2142153.0504543.3222384.0710098l.0585888.0112121.2325244.0411109.2911131.0392422h.0329562.054927l.2087227.0205555c.2361861.0205554.4723722.0317675.7140511.0317675h.0585888c.2544951 0 .5034975-.0149494.7525-.0373736.3291482-.029774.6562475-.0796953.9795316-.1494942.0970377-.0186868.1940755-.0411109.2892823-.0654037l.1299939-.0355049c.0181267-.003237.035907-.0082431.0530961-.0149494l.0768978-.0205555.0530961-.0149494.0421107-.0130807.1245012-.0373736.0421107-.0149494c.0187746-.0038793.0371607-.0095089.0549271-.0168181h.0256326l.2233698-.0766158c.1666119-.0597977.3313929-.1270701.4925122-.1980799l.18309-.0784844c.0311253-.0149495.0622506-.0280302.0933759-.0448483-.0242623-.0322382-.0518883-.0616873-.0823905-.0878279z" fill="#6c63ff" opacity=".3"/><path d="m39.2 59.8789c.002262 1.467222-.3666142 2.911214-1.0723993 4.1977387-.1477939.2706342-.310637.5327832-.4877643.7852154-.1759918.2589028-.3668242.5074114-.5715406.7442799-.0115212.0155741-.0246227.0299157-.0390956.0427961-.0781913.093035-.1619676.18607-.2476056.2716622l-.0949465.1004778c-.0968081.098617-.195478.1860699-.2978713.2865477-.0114882.0127191-.023936.0245382-.0372339.0353533-.0465424.0427961-.0949465.0874529-.1452123.1283883-.2610207.229301-.5358231.4424386-.8228695.63822-.147074.1004778-.2960097.1972342-.4486687.2884085l-.1191486.0707066-.2252651.1246669-.1098401.0576817h-.0130319l-.0297871.0167463-.061436.0316319-.0335105.0167463-.1861696.0837315-.0949465.0446568-.1861695.0781494-.2643608.1097813-.1396272.0520996-.0949465.0353532-.2271269.0762887h-.0260637l-.0558509.0167463-.042819.0148856-.1265953.037214-.042819.0130249h-.0167553-.0148936-.0223403l-.0781912.0204677c-.0174782.0066777-.0355576.0116624-.0539892.0148856l-.1321804.0353533c-.0968082.0241891-.1954781.0465175-.294148.0651245-.1601058.0334926-.3220733.0632638-.4840409.0874529-.1619675.0241891-.3406903.0465175-.5119663.0614031-.2531907.0223284-.5063813.0353533-.765157.037214h-.0595743c-.2457438 0-.4859026-.0111642-.7260613-.0316319l-.2122334-.0204677h-.0558508-.0335106c-.0893614 0-.1861695-.0223284-.2680842-.0353533h-.0279254l-.2364354-.0409354-.0595742-.0111642c-.1098401-.0204677-.2196801-.0427961-.3276585-.0707066-.0085814.0019228-.0174823.0019228-.0260637 0-.1303187-.0279105-.2587757-.0614031-.3853711-.0967564l-.1694143-.0502389-.1489356-.0465175-.0484041-.0167463-.1359038-.0465175-.0949465-.0334926c-.0688828-.024189-.1359038-.0502388-.2029249-.0781493l-.0688827-.0279105-.0874997-.0353533c-.0968082-.039695-.1917547-.0806304-.2848395-.1228062-.199822-.0905541-.3953-.1891712-.5864341-.2958513l-.0856381-.0483782-.1265953-.0725673-.0688827-.0409354c-.0930848-.0576817-.1861696-.1153634-.2773927-.18607-.0930848-.0614031-.1861696-.1228061-.2718076-.1860699l-.0223403-.0148856-.0148936-.0111642-.1601058-.1172241-.1210103-.093035c-.2365139-.1840732-.4627399-.3809834-.6776572-.5898419-.2010632-.1935127-.3921973-.396329-.5734023-.6084488-2.5443053-2.9366613-2.8454419-7.1987831-.7393016-10.4636662 2.1061403-3.2648832 6.1146682-4.7498616 9.8410838-3.6456768 3.7264157 1.1041848 6.2774133 4.5328348 6.2628558 8.4174623z" fill="#434175"/><g fill="#6c63ff" opacity=".3" transform="translate(25.9 56.7)"><path d="m7.29671429 11.5524444.00557142-.0018888z"/><path d="m8.69142857 10.4455556c-.02136908-.0066088-.04018983-.0198106-.05385714-.0377778.04291106-.0477785.09938027-.0807868.16157143-.0944445.05757143-.0151111.08914285-.102.08171428-.1888889.00906249-.0848831-.0156857-.16992105-.06871428-.23611107-.01791456-.0186237-.03127389-.04126984-.039-.06611111.03176562-.07053413.06838017-.13870307.10957143-.204.01127938-.01987042.01127938-.0443518 0-.06422222.052-.13033333-.18571429-.10577778-.18571429-.10577778v-1.241s-.01857143-.10011111-.04457143-.29088889c-.026-.19077777-.06314286-.47033333-.09842857-.82733333-.07057143-.71211111-.34728571-.78577778-.34728571-.78577778-.14758024-.04643992-.29159026-.1038922-.43085715-.17188889-.14615626-.06984141-.2977153-.1273317-.45314285-.17188889-.19830334-.00213562-.39552332-.03006605-.58685715-.08311111-.12941028-.04432422-.263373-.07347596-.39928571-.08688889l-.04271429-.02266666c-.31696093-.16093944-.57001059-.42764959-.71685714-.75555556.05954559-.06805514.11299603-.14138349.15971429-.21911111v.14166667c.18571428-.34.74285714-.41744445.79671428-.80466667v-.01322222c.00371164-.03326361.00371164-.06684751 0-.10011111.00091846-.01635705.00091846-.03275407 0-.04911111 0-.01322223 0-.02644445 0-.03966667 0-.09633333-.03714286-.18888889-.04828571-.29277778v-.01888889c.00314699-.02862926.00810971-.05702175.01485714-.085-.00068271-.00880114-.00068271-.0176433 0-.02644444.00731834-.03204745.01662263-.06359193.02785714-.09444445.078-.21344444.22285715-.41366666.30085715-.63277777.01668387-.04931161.02972019-.09982272.039-.15111111 0 0 0-.01322223 0-.02077778.00779754-.04940505.01275832-.09923022.01485714-.14922222v-.02455556c0-.02266667 0-.04722222 0-.06988889s0 .01133333 0 .017v-.02833333c.00118861-.00432451.00118861-.00889772 0-.01322222.00091534-.00626189.00091534-.01262701 0-.01888889.00092687-.01761703.00092687-.03527187 0-.05288889-.0055764-.31733694-.14002408-.618178-.37142857-.83111111-.18571429-.16811111-.442-.27388889-.57385715-.493-.06128571-.10388889-.091-.22288889-.15971428-.323-.1439912-.17466774-.35365281-.27957633-.57757143-.289-.22094029-.00663077-.44062232-.03638021-.65557143-.08877778-.15042857-.04911111-.28414286-.13788889-.43457143-.18888889-.33621595-.09235881-.69341232.03803808-.89514285.32677778-.06270167.12783712-.14271889.24609975-.23771429.35133333-.21914286.18888889-.59057143.10766667-.78371429.32488889-.08884425.117613-.1264302.26711354-.104.41366667v.02833333.07555556c.00091306.00752702.00091306.01513964 0 .02266666-.00184168.02451984-.00184168.04914684 0 .07366667v.03022222.04722222c0 .04911111.013.09822223.01857143.14544445.01080013.08268928.01700048.16593292.01857143.24933333v.03777778c-.01216176.38019704-.10664539.75298274-.27671428 1.09177778-.18571429.36077777-.44942858.69322222-.49585715 1.09744444-.00556707.05841867-.00556707.11724799 0 .17566667v-.017c-.00093222.01257474-.00093222.02520303 0 .03777778v.07366666.07744445.06611111l.01671429.09066666c-.00087981.01635815-.00087981.03275297 0 .04911112l.02785714.11711111v.02077777c.052.18888889.12071429.39288889.16157143.59122223.01475047.06733735.02590962.13543679.03342857.204-.00090126.00562959-.00090126.0113704 0 .017 0 .05666666.00928572.11522222.01114286.17188889v.01511111.03022222c-.09083928.03527526-.18390597.06430359-.27857143.08688889-.16714286.02455555-.65742857.46655555-.62214286.57611111.00234412.01565046.00234412.03157176 0 .04722222.00086292.01005496.00086292.02016727 0 .03022222-.05967832.27815524-.13533181.55251442-.22657143.82166667l-.39371428 2.7596667c.091.0623333.18571428.1208889.27671428.1888889l.06871429.0415555.12628571.0736667.08542858.0491111c.19066666.107037.38566666.2071481.585.3003333.09285714.0440741.18757142.0856297.28414285.1246667l.08728572.0358889.06871428.0283333c.03168625.0312839.06971834.055138.11142857.0698889h.07985715c.01846577.0028495.03724851.0028495.05571428 0h.02971429l.09471428.034.13557143.0472222.04828572.017.14857143.0472222.169.051c.12628571.0358889.25442857.0698889.38442857.0982223.00856043.0019518.01743957.0019518.026 0 .10771428.0283333.21728571.051.32685714.0717777l.05942857.0113334.23585714.0415555h.02785715c.08914285.0132223.18571428.0264445.26742857.0358889h.03342857.05571429l.21171428.0207778c.23957143.0207778.47914286.0321111.72428572.0321111h.05942857c.25814285 0 .51071428-.0151111.76328571-.0377778.17085714-.0151111.34171429-.0358889.51071429-.0623333s.32314285-.0547778.48285714-.0887778c.09842857-.0188889.19685714-.0415555.29342857-.0661111l.13185714-.0358889c.01838656-.003272.03642172-.0083323.05385715-.0151111l.078-.0207778h.02228571c0-.1284444-.01485714-.238-.01857143-.323.02785715.0377778.05571429.0698889.07428572.0944445.01010539.0119056.01712738.0261896.02042857.0415555-.03087162.0596612-.05397072.1231584-.06871429.1888889h.01671429l.04271428-.0132222.12628572-.0377778.04271428-.0151111.05571429-.017h.026l.22657143-.0774444.09471428-.0358889.13928572-.0528889.26371428-.1114445.18571429-.0793333.09471429-.0453333.18571428-.085.03342857-.017.06128572-.0321111.02971428-.017h.013c.00351659-.0440015.00351659-.0882207 0-.1322223v-.0207777-.0472223c.01114286-.051-.08542857-.1624444-.24142857-.2228888z"/><path d="m.44757143 11.2558889-.03342857-.0151111c.01027993.0068167.02156518.0119181.03342857.0151111z"/></g><path d="m39.2 81.5847775c.0022524 1.467799-.3666237 2.9123589-1.0724088 4.1993896-.1477939.2707406-.310637.5329926-.4877643.7855241-.1759917.2590046-.3668242.507611-.5715406.7445726-.0097839.0141723-.0217179.0267327-.0353722.0372286-.0781912.0930716-.1619675.1861432-.2476055.271769l-.0260637.0279215-.0688828.0725958c-.0968082.0986559-.195478.1861432-.2978713.2866605-.0114882.012724-.023936.0245478-.0372339.0353672-.0465424.0428129-.0949465.0874873-.1452123.1284388-.1861695.1712517-.3965412.3331962-.6069128.4858336l-.0372339.02606-.0763295.0539816c-.0335105.02606-.0670211.0483972-.1023933.0725958-.1470739.1005173-.2960096.1973117-.4486686.2885219l-.0670211.0409515-.0521275.0297829-.2252652.1247159-.10984.0577044h-.0130319l-.0297871.0167529-.061436.0316443-.0335105.0167529-.1861696.0837644-.0949464.0446744-.1861696.0781801-.2643608.1098244-.1396272.0521201-.0949465.0353672-.0372339.01303-.1861695.0632887h-.0260638l-.0558509.0167529-.042819.0148915-.0502657.0148914-.0763296.0223372-.042819.01303h-.0167552-.0148936-.0223403l-.0781913.0204758c-.0174781.0066802-.0355575.0116669-.0539891.0148914l-.1321804.0353672c-.0968082.0241986-.1954781.0465358-.2941479.0651501-.1601059.0335058-.3220734.0632887-.4840409.0874873-.0968082.0148914-.1936164.0279215-.2904246.0390901h-.0353722l-.1861696.0186143c-.2531906.0223371-.5063812.0353672-.7651569.0372286h-.2122333c-.1861696 0-.3835093-.01303-.5734023-.0297829h-.0558509l-.1563824-.0148915h-.0558509-.0335105l-.1861696-.0223371-.0893614-.0130301h-.0279254l-.2364353-.0409515-.0595743-.0111685-.1563824-.0297829-.0651594-.0148915-.1061166-.02606c-.0085815.0019235-.0174824.0019235-.0260638 0-.1303187-.0279215-.2587757-.0614273-.385371-.0967945l-.067021-.0204757h-.0242021l-.0781912-.0223372-.0726061-.0223372-.0763296-.0241986-.0484041-.0167529-.1359037-.0465358-.0949465-.0335057-.0874997-.0390901-.1135635-.0446744-.0688827-.0279214-.0874997-.0353672c-.0968082-.0397106-.1917547-.0806621-.2848394-.1228545-.147074-.0670115-.2922863-.1377459-.4337751-.2159261-.0521275-.0241986-.1023933-.0521201-.1526591-.0800415l-.0390956-.0223372-.0446807-.0241986-.1265953-.0725958-.0688827-.0409515c-.0930848-.0577044-.1861696-.1154088-.2773927-.1861432-.0930848-.0614272-.1861696-.1228545-.2718076-.1861431l-.0223403-.0148915-.0148936-.0111686-.0763295-.0558429-.0837763-.0614273-.0148936-.0111686c-.0353722-.0279214-.0726061-.0539815-.1061166-.081903-.2365139-.1841455-.46274-.3811331-.6776573-.5900738-.2010631-.1935888-.3921972-.3964849-.5734023-.6086881-2.5468637-2.9369216-2.8501974-7.2018459-.7446259-10.4695682 2.1055715-3.2677224 6.1150227-4.7544731 9.842431-3.6496868 3.7274082 1.1047863 6.2787473 4.5361243 6.2631183 8.4232745z" fill="#434175"/><path d="m36.8842979 86.0769174c-.0719956-.1455445-.2447559-.2037026-.3863409-.1300581l-2.5427915 1.3388336c-.0047671-.0354124-.0154501-.0697081-.0315759-.1013688-.0025722-.0773298-.0413294-.1485962-.1040148-.191262-.0224142-.013904-.0414678-.03287-.0557223-.0554659-.0010266-.0197496-.0010266-.0395416 0-.0592912.0091024-.047555-.0016874-.0968579-.0297185-.135796-.0091345-.0987554-.0601066-.1883336-.1393056-.2448153h-.009287c0-.0191262 0-.040165 0-.0669417-.0022284-.0424946-.0143311-.0838175-.0352908-.120495-.009287-.1243203-.0965852-.2390774-.2711816-.4093006-.0651915-.0730882-.112895-.1608518-.1393056-.256291 0 0 0 0 0-.0114757-.0315759-.1243203-.0631518-.2639415-.1077296-.4054753-.0205408-.0803928-.0453434-.1595664-.0742963-.2371649-.1374482-.3653103-.2878983-.3174948-.3491927-.3825239-.0612945-.065029-.4606372-.1472717-.6649521-.256291-.1727389-.0918057-.7429632 0-.9175595.0420777 0-.0114758 0-.0248641 0-.0363398.8564936-.2645782 1.3732316-1.1608309 1.1887411-2.0618038l-.0111445-.0439903c.090465.0000035.1800597-.0181882.263752-.0535533.0670313-.0579893.1101825-.1400211.1207315-.2295144.0486193-.1660635.0600502-.3413151.0334333-.512582 0-.0172136-.0148592-.0344272-.0204315-.0516407-.0032213-.014988-.0075684-.0296956-.0130018-.0439903.0017896-.0152454.0017896-.0306574 0-.0459028-.0133317-.0543652-.0326502-.1069845-.0575797-.1568348.001101.0043907.001101.0089975 0 .0133883-.1294103-.2066126-.2721318-.4040555-.4272038-.5909994-.1485926-.2295144-.2340334-.5202325-.4587798-.6732421-.2380942-.1267476-.517758-.1413905-.7671094-.040165-.1172521.0423732-.2378018.0743663-.3603372.095631-.2056009.0043656-.4112074-.008427-.614802-.0382524-.2888489-.0193821-.57591.059219-.8172595.2237765-.0533821.0358404-.0989275.0827397-.1337334.1377086-.0340976.0785515-.054229.1627663-.059437.2486405-.0231895.1605978-.0775125.3147519-.1597371.4532908-.0631519.110932-.1430204.2084755-.2006001.3213201-.0642017.1110357-.083542.2435744-.0538648.3691356.0204315.065029.0575796.1224076.0724389.1912619.0053048.1562501-.0404802.3098112-.1300186.4360773-.0641979.1280329-.0949238.271069-.0891555.4150384.0069425.1096958.0465001.2145342.1133018.3002813.0097349.0273833.0221833.0536611.0371482.0784173l.009287.0133884c.0113164.0186105.0237221.0364946.0371482.0535533l.0185741.0191262.0371481.0382524c.106043.0766625.2326288.1174382.3621946.1166698.0094083.0209918.0199501.0414251.0315759.0612038v.0344272c-.0008963.0108185-.0008963.021696 0 .0325145-.0111444 0-.382626.0516407-.5015001.2123008-.1214265.1133126-.2766531.1807559-.4402057.1912619 0 0-.3621946.1243203-.3547649.1568348.0074296.0325146-.1058723.0765048-.3343335.1396212-.2284611.0631165-.6036575.286893-.6036575.3423589 0 .055466-.5980854.6598538-.5980854.7229702-.107359.2186873-.162141.4607273-.1597371.7057566.0222889.4131258.0464352.9333583-.0445778 1.0194262s0 .4188637 0 .4188637c.046454.0759781.046454.1726624 0 .2486405-.0761537.1415338.0148593.7229702.0148593.7229702v.6063004c.0192485.0866895.0304434.1750682.0334333.2639414l.0148593.0114758.0835833.0631164.0761538.0573786.0148592.0114757.0222889.015301c.0891556.065029.1857408.1281455.2711816.1912619.091013.0631165.1857408.1224077.2767538.191262l.0687241.0420776.1263037.0745922.0445778.024864.0390056.0229514c.05015.0286893.1003.0573786.1523074.0822427.141163.08033.2860408.1530095.4327761.2218638.0928704.0446278.1875982.0867055.2841834.1262329l.0872982.0363398.0687241.0286893.1133018.0459029.0891556.0344271.0947278.0344272.1355908.0478154.0482926.0172136.0761537.0248641.072439.0229514.0780111.0229514h.0241463l.0668667.0210389c.1263037.0363397.2544649.0707669.3844834.0994562.0085617.0019764.0174421.0019764.0260037 0l.1058723.0267766.0650093.015301.1560222.0306019.0594371.0114757.2358908.0420777h.0278611l.0891556.0133883.1857408.0229514h.0334333.0557223l.1560222.015301h.0557223c.1857408.0172136.3714816.0267767.5720816.0306019h.2117445c.2581797 0 .5107872-.015301.7633947-.0382524l.1857408-.0191262h.0352908c.0965852-.0114757.1931704-.024864.2897556-.040165.1615945-.024864.323189-.055466.4829261-.0898931.0984426-.0191262.1968852-.0420776.2934704-.0669417l.131876-.0363398c.0183892-.0033131.0364269-.0084369.0538648-.0153009l.0780112-.0210388h.0222888.0148593.0167167l.0427204-.0133884.0761537-.0229514.05015-.015301.0427204-.0153009.0557222-.0172136h.0260037l.1857408-.0650291.0371482-.0133883.0947278-.0363398.1393056-.0535533.2637519-.1128446.1857408-.08033.0947278-.0459028.1857408-.0860679.0334334-.0172136.0612944-.0325145.0297186-.0172136h.0130018l.1095871-.0592912.2247463-.1281455.0520075-.0306019.0668667-.0420777c.1523074-.0937183.3009-.1912619.4476353-.296456.0352907-.024864.0687241-.0478155.1021574-.0745921h.0371482l.0390055-.0592912.0371482-.0267767c.2098871-.1568348.4123446-.3232327.605515-.4991937.05015-.0420776.0984426-.0879805.1448778-.1319708.0132672-.0111169.0256864-.0232658.0371482-.0363397.1021574-.095631.2006-.191262.2971852-.2945434l.0687241-.0745922.0260037-.0286893c.0854408-.0898931.1690242-.1912619.2470353-.2792424zm-4.2330327 2.9989874-.0464352.0114757c.0013182-.0145296.0064552-.028415.0148592-.040165 0 0-.2841834.0114757-.5720816.0344271-.0031993-.0496031.0018255-.0994052.0148592-.1472717.0666445-.2097987.1139085-.4256068.141163-.6445527l.4940706.7765235zm.0947278 1.4765422c.0013846-.0254816.0013846-.0510231 0-.0765047.0167166-.0114758.0278611-.0210389.0297185-.0286893-.0038472-.0853312-.0131544-.1703084-.0278611-.2543784h.0445778l.5219316-.0841553s.0687241 0 .1857408-.0267767l.0427204.0860679c-.2354996.0707182-.4604804.1743254-.6686669.3079318-.0130018.024864-.059437.0516407-.1244463.0765047z" fill="#6c63ff" opacity=".3"/><g fill="#3acc6c"><path d="m130.087337 12.8276702-.71896-.8021268c-.071237-.0803374-.168319-.1255434-.26961-.1255434s-.198373.045206-.26961.1255434l-4.468337 4.9451115-1.890865-2.1256359c-.070748-.0813516-.168013-.1272636-.26961-.1272636-.101598 0-.198863.045912-.26961.1272636l-.71896.8021268c-.071564.079742-.111775.187955-.111775.3007975s.040211.2210556.111775.3007975l2.87584 3.226555c.071474.0798414.168467.1247042.26961.1247042s.198136-.0448628.26961-.1247042l5.453313-6.0380093c.075203-.0786665.118463-.1880986.119852-.303102.001323-.1150034-.03934-.2256675-.112663-.3065143z"/><path d="m130.089126 34.5267048-.719823-.8012921c-.071323-.0802537-.168521-.1254127-.269934-.1254127-.101412 0-.198611.045159-.269933.1254127l-4.464703 4.9479784-1.893134-2.1234239c-.070832-.081267-.168214-.1271311-.269934-.1271311-.101719 0-.199101.0458641-.269933.1271311l-.719823.8012921c-.071649.079659-.111909.1877594-.111909.3004845s.04026.2208255.111909.3004845l2.879292 3.2231973c.07156.0797583.168669.1245744.269933.1245744s.198374-.0448161.269934-.1245744l5.454459-6.0477518c.072571-.0788586.113788-.1867573.114473-.2996484.000668-.112891-.039253-.2213919-.110874-.3013206z"/><path d="m130.086689 78.6270314-.718848-.8023002c-.071463-.0798587-.168442-.1247312-.269568-.1247312-.101127 0-.198106.0448725-.269568.1247312l-4.467641 4.946181-1.890571-2.1260956c-.071226-.0803548-.168293-.1255706-.269568-.1255706s-.198342.0452158-.269568.1255706l-.718848.8023002c-.071996.0794948-.112509.1878303-.112509.3008626s.040513.2213678.112509.3008626l2.875392 3.2272528c.149232.1652069.389905.1652069.539137 0l5.452462-6.0413209c.075559-.078035.119108-.1872632.1205-.3021493.001326-.1148861-.039625-.2253592-.113311-.3055932z"/></g><path d="m7 63.745314.52277312 1.2712608s.42859709.0178548 1.09359525.0357096h.06534664c.28637205 0 .61502721.0178548.96098001.0249967 1.78357888.037495 4.24176578.0482079 5.52755698-.126769.482412-.0642772.7976134-.1553366.8514283-.2821056.0303623-.07533.0503804-.1539155.0595808-.2338977.0094482-.0591584.0152237-.1187729.0172976-.1785479.0288294-.8177492-.384392-2.0711552-.384392-2.0711552s-.2364011-2.510383-.2364011-2.6192972.2018058-1.8658252.2018058-1.8658252l-.4036116-1.4123136-.7783938-.5052905-.3536406-.2303267c-.1173222.1650504-.2457065.3230798-.384392.4731518-.1084901.1368319-.2545093.2441188-.4228312.3106733-.2624595.0908337-.5028749.2292094-.7072813.4070892 0 0-.9955753.5659967-1.3165426.2517524-.2460109-.2410396-1.76435932-1.1034258-2.46587473-1.4962311l-.35364064-.1981881-.17682032.1785479-1.13972229 1.167703z" fill="#fff"/><g fill="#000"><path d="m.95363701 62.7857861c-.26679133-.304058-.60356378-.4756111-.95363701-.4857861.22721952.0250033.44401117.1386307.62363551.3268672.06528902.0905327.12350982.18977.17375589.296167.05657169.1065479.51318602.8866951.58592105.7638941.10775559-.1823955-.33808318-.7909825-.42967544-.9011422z" opacity=".1"/><path d="m3.5 62.3c-.16892361-.0172665-.31691968-.1539082-.38530686-.3557459-.06548467-.1973842-.10592291-.4072999-.11973679-.621556-.03949954-.3597444-.09537271-.7161175-.16732449-1.0672377-.0183605-.0715165-.02769212-.146436-.02763186-.2218416.00751858-.0747483.02519162-.147159.05219325-.2138472.02907156-.1125551.06877652-.2199691.11820171-.3197716.09978066.1478944.12741223.4776588.16885958.6695218.05065787.2398287.09824557.4776588.14122801.7194861.0230263.1199143.20570167 1.4109921.21951745 1.4109921z" opacity=".1"/></g></g></g><g fill-rule="nonzero"><g fill="#007df6" transform="translate(203 50.4)"><path d="m39.5265929 39.1144365h-25.0095123l-5.17443137 11.9855635h-9.34264923l23.1410645-51.1h7.545986l23.2129495 51.1h-9.2708628zm-3.0902198-7.1769609-9.4145363-21.8897305-9.4145363 21.8897305z"/><path d="m93.0999998 14.9341876v36.2909514h-8.7616241v-5.821044c-1.0784534 1.99809-2.7126429 3.6343295-4.7013007 4.7071982-2.042384 1.1250695-4.3693161 1.6879717-6.9807963 1.6887068-3.1343334 0-5.9124352-.7664882-8.3343054-2.2994645-2.4220031-1.532708-4.2978327-3.7126009-5.6274888-6.5396787-1.3300536-2.8262113-1.9948817-6.1079803-1.9944843-9.845307 0-3.7367299.6766875-7.0543909 2.0300622-9.9529829 1.3535063-2.8981923 3.2411945-5.1499347 5.6630646-6.7552274 2.4220031-1.6044824 5.176387-2.4069289 8.2631517-2.4073395 2.6110162 0 4.9379483.5629023 6.9807963 1.6887068 1.9884473 1.0731589 3.6225638 2.7093275 4.7013007 4.7072043v-5.4617235zm-11.1834271 26.7331714c1.6138745-2.0592523 2.4211422-4.9577108 2.421803-8.6953756 0-3.8325709-.8072677-6.7790183-2.421803-8.8393424-1.6150658-2.0592591-3.9182807-3.0892863-6.9096447-3.0900816-2.9451195 0-5.2364751 1.0659855-6.8740669 3.1979566-1.638319 2.1322366-2.4575782 5.0905812-2.4575782 8.8750338 0 3.7369297.8191927 6.6114605 2.4575782 8.6235924 1.6383217 2.0123317 3.9533953 3.0182963 6.9452205 3.0182963 2.9439296 0 5.2234266-1.0300224 6.8384911-3.0900795z"/></g><g transform="translate(345.8 355.6)"><path d="m12.9892435 25.9c-4.64060967 0-8.92870994-2.4682559-11.24901483-6.4749999s-2.32030489-8.9432562 0-12.95000021c2.32030489-4.006744 6.60840516-6.47499989 11.24901483-6.47499989h118.2215135c7.173761 0 12.989243 5.79791249 12.989243 12.95 0 7.1520875-5.815482 12.95-12.989243 12.95z" fill="#e6e6e6"/><path d="m12.6860501 2.1c-6.23311335 0-11.2860501 5.0144108-11.2860501 11.2s5.05293675 11.2 11.2860501 11.2h118.1278999c6.233113 0 11.28605-5.0144108 11.28605-11.2s-5.052937-11.2-11.28605-11.2z" fill="#fff"/><path d="m48.3 2.1h1v22.4h-1z" fill="#e6e6e6"/><path d="m95.2 2.1h1v22.4h-1z" fill="#e6e6e6"/><path d="m48.3 2.1h46.9v22.4h-46.9z" fill="#007df6"/><path d="m72.1 6.3c-3.8659932 0-7 3.13400675-7 7 0 3.8659932 3.1340068 7 7 7s7-3.1340068 7-7c0-3.86599325-3.1340068-7-7-7zm0 2.1c1.159798 0 2.1.94020203 2.1 2.1 0 1.159798-.940202 2.1-2.1 2.1s-2.1-.940202-2.1-2.1c.0001611-1.15968407.9403159-2.09970834 2.1-2.09970833zm0 10.10975c-1.6842507-.0077167-3.2560606-.846561-4.2-2.2414583.0335417-1.4 2.8-2.1705834 4.2-2.1705834s4.1664583.7705834 4.2 2.1705834c-.9449536 1.3937705-2.5161208 2.2322719-4.2 2.2414583z" fill="#fff"/><path d="m25.2 6.3c-3.8659932 0-7 3.13400675-7 7 0 3.8659932 3.1340068 7 7 7s7-3.1340068 7-7c0-3.86599325-3.1340068-7-7-7zm0 2.1c1.159798 0 2.1.94020203 2.1 2.1 0 1.159798-.940202 2.1-2.1 2.1s-2.1-.940202-2.1-2.1c0-1.15979797.940202-2.1 2.1-2.1zm0 10.10975c-1.6842507-.0077167-3.2560606-.846561-4.2-2.2414583.0335417-1.4 2.8-2.1705834 4.2-2.1705834s4.1664583.7705834 4.2 2.1705834c-.9449536 1.3937705-2.5161208 2.2322719-4.2 2.2414583z" fill="#e6e6e6"/><path d="m119 6.3c-3.865993 0-7 3.13400675-7 7 0 3.8659932 3.134007 7 7 7s7-3.1340068 7-7c0-3.86599325-3.134007-7-7-7zm0 2.1c1.159798 0 2.1.94020203 2.1 2.1 0 1.159798-.940202 2.1-2.1 2.1s-2.1-.940202-2.1-2.1c0-1.15979797.940202-2.1 2.1-2.1zm0 10.10975c-1.684251-.0077167-3.256061-.846561-4.2-2.2414583.033542-1.4 2.8-2.1705834 4.2-2.1705834s4.166458.7705834 4.2 2.1705834c-.944954 1.3937705-2.516121 2.2322719-4.2 2.2414583z" fill="#e6e6e6"/><rect fill="#007df6" height="16.1" rx="4.2" width="16.1" x="64.4" y="35.7"/><rect fill="#e6e6e6" height="16.1" rx="4.2" width="16.1" x="111.3" y="35.7"/><path d="m113.4 37.1h11.9v11.9h-11.9z" fill="#fff"/><path d="m71.2751185 46.2-1.9751185-2.5557952 1.1485-.8987411.9352152 1.2096494 3.1596313-3.3551131 1.0566535 1.006871z" fill="#fff"/><path d="m118.175206 46.2-1.975206-2.5557952 1.148551-.8987411.935256 1.2096494 3.159493-3.3551131 1.0567 1.006871z" fill="#e6e6e6"/><rect fill="#e6e6e6" height="16.1" rx="4.2" width="16.1" x="16.8" y="35.7"/><path d="m19.6 37.1h11.9v11.9h-11.9z" fill="#fff"/><path d="m25.0752061 46.2-1.9752061-2.5557952 1.1485509-.8987411.9352566 1.2096494 3.1594922-3.3551131 1.0567003 1.006871z" fill="#e6e6e6"/></g></g></g></g></g></svg>
