<?xml version="1.0" encoding="UTF-8"?>
<svg width="98px" height="24px" viewBox="0 0 98 24" version="1.1" xmlns="http://www.w3.org/2000/svg" xmlns:xlink="http://www.w3.org/1999/xlink">
    <title>Adfinis_blau</title>
    <g id="Landing-Page" stroke="none" stroke-width="1" fill="none" fill-rule="evenodd">
        <g id="Adfinis_blau" transform="translate(0, 0.7188)" fill="#000000" fill-rule="nonzero">
            <path d="M44.9342202,12.2410714 L44.6484504,11.5200893 C44.284234,10.6037946 43.8639843,9.59263393 43.3708913,8.42745536 C42.9517622,7.47209821 42.5359952,6.55357143 42.0619535,5.53683036 L39.775795,5.53683036 C39.3275287,6.48660714 38.893831,7.45758929 38.4735813,8.42745536 C38.0779862,9.328125 37.7025631,10.2433036 37.1892981,11.5200893 C36.6760331,12.796875 36.2625074,13.8995536 35.8758777,14.9620536 C35.4970926,15.9665179 35.0914115,17.0825893 34.6016805,18.4832589 L37.0929209,18.4832589 C37.2240388,18.0825893 37.3596393,17.7020089 37.4952399,17.3482143 C37.6297198,16.9776786 37.7630791,16.5825893 37.8919556,16.1997768 L38.0454869,15.7466518 L43.7048497,15.7466518 L43.717177,15.7823661 C43.9032076,16.3325893 44.0892381,16.8571429 44.270786,17.3448661 C44.3940592,17.6863839 44.5397458,18.0870536 44.6775877,18.4866071 L47.2640846,18.4866071 C46.8158183,17.2265625 46.3608279,15.9754464 45.9809222,14.9654018 C45.6267917,14.0122768 45.2749026,13.1116071 44.9342202,12.2410714 Z M38.6584911,13.8136161 L38.6842664,13.7421875 C39.0865855,12.6261161 39.4687326,11.6004464 39.8553623,10.5982143 C40.1859588,9.73325893 40.5131932,8.92410714 40.829221,8.1796875 L40.879651,8.06808036 L40.9289603,8.1796875 C41.1855927,8.79129464 41.5038619,9.57477679 41.9016983,10.5758929 C42.2199674,11.4084821 42.6402171,12.5212054 43.0739148,13.7421875 L43.0996901,13.8136161 L38.6584911,13.8136161 Z M55.0706433,8.75334821 L54.9910761,8.71205357 C54.6791264,8.55332406 54.3535927,8.42259859 54.0183381,8.32142857 C53.5961115,8.19725371 53.1574479,8.13742463 52.7172449,8.14397321 C52.0559817,8.13195741 51.3998248,8.26135679 50.7930616,8.5234375 C50.2449423,8.77121116 49.7611312,9.14079048 49.3787812,9.60379464 C48.974684,10.1013899 48.6744499,10.6743527 48.4956965,11.2890625 C48.2863502,11.9709403 48.1842811,12.6809885 48.1931167,13.3939732 C48.1825191,14.1167254 48.3044267,14.8353383 48.5528504,15.5145089 C48.7744341,16.1380586 49.124906,16.7083773 49.5816217,17.1886161 C50.038807,17.6554625 50.5925259,18.0176364 51.204346,18.25 C51.8949532,18.5071109 52.6277951,18.6331668 53.3649898,18.6216518 C54.1157198,18.6237377 54.8653526,18.5643862 55.6063216,18.4441964 C56.1918381,18.3541495 56.7709258,18.2266537 57.3399918,18.0625 L57.3399918,4.73549107 L55.0706433,5.01785714 L55.0706433,8.75334821 Z M55.0706433,16.4955357 L55.0291787,16.5055804 C54.8101384,16.5542733 54.5886913,16.5915265 54.3657445,16.6171875 C54.0405977,16.653983 53.7135113,16.6711275 53.3862825,16.6685268 C52.4897498,16.6685268 51.7882129,16.359375 51.2827926,15.7511161 C50.7773722,15.1428571 50.5229811,14.4006696 50.5229811,13.3415179 C50.5229811,12.3236607 50.7280629,11.6026786 51.1326233,11.0044643 C51.5371837,10.40625 52.1916526,10.0937191 53.0713754,10.0937191 C53.4557803,10.0920984 53.8375764,10.1566659 54.1998859,10.2845982 C54.4985842,10.3853033 54.7832607,10.5233079 55.0471094,10.6953125 L55.0706433,10.7109375 L55.0706433,16.4955357 Z M68.6116495,8.77566964 L70.9807372,8.77566964 L70.9807372,18.4832589 L68.6116495,18.4832589 Z M81.9901591,9.49330357 C81.6225347,9.05189568 81.147632,8.71149053 80.6106194,8.50446429 C80.0345971,8.26785714 79.3050436,8.1484375 78.4421308,8.1484375 C76.0125271,8.1484375 74.4816975,8.83705357 74.0984298,9.1015625 L74.0984298,18.4832589 L76.4663968,18.4832589 L76.4663968,10.5591518 L76.5000168,10.5446429 C76.5224301,10.5368304 76.5482054,10.5223214 76.5818254,10.5066964 C76.7925106,10.3950893 77.230691,10.171875 78.2628243,10.171875 C78.6350609,10.1626546 79.0057186,10.2232311 79.3554735,10.3504464 C79.6494521,10.4633818 79.9014209,10.6636628 80.0771824,10.9241071 C80.2687458,11.2304427 80.3964233,11.5720506 80.4526055,11.9285714 C80.5338768,12.416848 80.5713801,12.9113557 80.5646721,13.40625 L80.5646721,18.4765625 L82.9315185,18.4765625 L82.9315185,13.0234375 C82.9372343,12.3538821 82.8661722,11.6858658 82.7197126,11.0323661 C82.595827,10.4712385 82.3464549,9.94516446 81.9901591,9.49330357 Z M85.8441291,8.77566964 L88.2120962,8.77566964 L88.2120962,18.4832589 L85.8441291,18.4832589 Z M68.6710448,4.88392857 L70.9213419,4.88392857 L70.9213419,7.015625 L68.6710448,7.015625 Z M85.9035244,4.88392857 L88.1538216,4.88392857 L88.1538216,7.015625 L85.9035244,7.015625 Z M97.8307717,14.5959821 C97.71678,14.2780275 97.5330117,13.9893979 97.2928521,13.7511161 C97.0166541,13.4811565 96.7002618,13.2552818 96.3548547,13.0814732 C95.9039301,12.8539066 95.4399151,12.6530367 94.965229,12.4799107 C94.6798996,12.3825951 94.3997424,12.2708426 94.1258502,12.1450893 C93.9284477,12.0556846 93.7407014,11.9464902 93.5655172,11.8191964 C93.4378514,11.724565 93.33517,11.6004737 93.2662994,11.4575893 C93.205583,11.3166738 93.1757812,11.1644706 93.1788875,11.0111607 C93.1642794,10.694101 93.340519,10.3987935 93.6271539,10.2600446 C93.984726,10.0857072 94.3802837,10.002854 94.7780778,10.0189732 C95.2409085,10.012552 95.702868,10.0608814 96.1542555,10.1629464 C96.4809959,10.2369901 96.8005124,10.3396976 97.1090628,10.4698661 L97.5192266,8.63169643 C96.59872,8.32404755 95.6347189,8.16504416 94.6637698,8.16071429 C93.5173286,8.16071429 92.5983826,8.42633929 91.932707,8.95089286 C91.2670315,9.47544643 90.9319524,10.2042411 90.9319524,11.109375 C90.9225443,11.5168169 90.998893,11.9217074 91.1560855,12.2979911 C91.2945976,12.6114802 91.4977189,12.8924789 91.7522798,13.1227679 C92.0215416,13.3635795 92.3233111,13.5656875 92.6488125,13.7232143 C93.0227083,13.906231 93.4065735,14.0683137 93.7986158,14.2087054 C94.4867046,14.4654018 94.9842803,14.7042411 95.2790154,14.9185268 C95.5634638,15.1025892 95.7347749,15.4177532 95.7340058,15.7555804 C95.7340058,16.1227679 95.5939225,16.3738839 95.3059114,16.5256696 C95.0179003,16.6774554 94.5729959,16.7488839 93.9611123,16.7488839 C93.4103544,16.7555741 92.8610742,16.6906661 92.3271814,16.5558036 C91.9155825,16.4495325 91.5109935,16.3179558 91.1157416,16.1618304 L90.7246292,18.0591518 C91.0872499,18.194353 91.4568464,18.3102166 91.8318471,18.40625 C92.3630427,18.5513393 93.0735449,18.6294643 93.942061,18.6294643 C95.2397921,18.6294643 96.2517534,18.3828125 96.9499283,17.8962054 C97.6481031,17.4095982 97.9988716,16.6863839 97.9988716,15.7410714 C98.0088983,15.3526162 97.952043,14.9653204 97.8307717,14.5959821 L97.8307717,14.5959821 Z M64.7509554,4.37611607 C63.2840038,4.37611607 62.1835098,4.76004464 61.4741283,5.52790179 C60.7647468,6.29575893 60.4083751,7.37946429 60.4083751,8.75669643 L60.4083751,18.4832589 L62.7718595,18.4832589 L62.7718595,11.0970982 L65.7976574,11.0970982 L65.7976574,9.12834821 L62.7718595,9.12834821 L62.7718595,8.79352679 C62.7718595,8.08816964 62.9332353,7.50111607 63.2425391,7.0546875 C63.5518429,6.60825893 64.1390719,6.37611607 64.9750886,6.37611607 C65.2696932,6.37392074 65.5637406,6.40197072 65.85257,6.45982143 C65.866018,6.46763393 65.8805867,6.46763393 65.8951553,6.47433036 L66.0699792,4.48995536 L66.0531692,4.48995536 C65.6242607,4.40696691 65.1878224,4.36881356 64.7509554,4.37611607 Z M13.3359243,0 L26.6696073,23 L22.8593432,23 L9.52566021,0 L13.3359243,0 Z M16.1936224,14.7868304 L20.9542111,23 L17.1450677,23 L14.2884903,18.0714286 L16.1936224,14.7868304 Z M10.4782262,14.7857143 L12.3833583,18.0714286 L9.52453954,23 L5.71651679,23 L10.4782262,14.7857143 Z M10.4759849,4.92857143 L12.3833583,8.21540179 L3.81026408,23 L0,23 L10.4759849,4.92857143 Z" id="Combined-Shape"></path>
        </g>
    </g>
</svg>