<?xml version="1.0" encoding="UTF-8"?>
<svg width="241px" height="43px" viewBox="0 0 241 43" version="1.1" xmlns="http://www.w3.org/2000/svg" xmlns:xlink="http://www.w3.org/1999/xlink">
    <title>crowdstrike</title>
    <g id="Landing-Page" stroke="none" stroke-width="1" fill="none" fill-rule="evenodd">
        <g id="Group" transform="translate(0, -0)" fill="#000000">
            <path d="M39.5879253,19.6795154 L39.5879253,20.1013257 C38.2160791,21.8063347 36.3522507,23.0138387 34.2685276,23.547602 C32.1497241,21.7840885 29.9292442,20.1547742 27.6193519,18.6686154 C26.9643738,18.2238368 26.2724614,17.7689462 25.5440424,17.2902205 C24.1960111,16.4039856 22.7232016,15.4359889 21.1287513,14.2978669 C21.1237602,14.2010672 21.1113537,14.1064922 21.0988046,14.0117004 C21.0826904,13.8890865 21.0664336,13.766126 21.0664336,13.6375894 C21.0664336,7.75933151 25.6104957,3.37108938 31.6089714,3.37108938 C34.6944845,3.34146155 37.6299785,4.74434172 39.6048951,7.19254567 L39.6048951,7.61909405 L36.1076856,10.7218406 L35.7002673,10.7218406 C34.6469975,9.52298945 33.1593572,8.8289816 31.5920016,8.80526199 C30.3472152,8.78567382 29.1486324,9.29165831 28.273617,10.2061342 C27.3987442,11.1206102 26.923304,12.3642714 26.9573862,13.6492759 C26.9234466,14.9312612 27.3966052,16.1721344 28.2677703,17.0859603 C29.1389353,17.9999306 30.3330975,18.5081253 31.5748892,18.4932464 C33.143243,18.4681111 34.6310259,17.7718353 35.6832975,16.5708318 L36.0907158,16.5708318 L39.5879253,19.6795154 Z M28.9662424,23.5944056 C26.7279371,23.0932893 24.7186531,21.8278585 23.2626708,20.002807 C23.4191069,20.1053704 23.5705519,20.2079339 23.7219969,20.3104973 C23.9550111,20.4682428 24.1878827,20.6261327 24.4391501,20.7838782 C25.8651856,21.7771546 27.3930401,22.6769683 28.9662424,23.5944056 Z" id="Shape"></path>
            <path d="M59.7533896,18.3603241 L60.6713287,22.2734741 L60.5401334,22.7017841 C59.8201281,23.2966511 58.9048985,23.6135861 57.9651411,23.5935068 C55.5806671,23.5935068 54.2574488,23.012652 52.6002529,20.4136119 C52.5771512,20.3760535 52.5533364,20.3371951 52.5286659,20.2970365 C51.7074121,18.9580802 50.0455103,16.2482429 48.7375506,16.2482429 L48.1832506,16.2482429 L48.1832506,23.2238456 L42.1328671,23.2238456 L42.1328671,3.37062937 L51.2530772,3.37062937 C56.4987488,3.37062937 59.3241529,5.93442231 59.3241529,10.005982 C59.3439748,12.4035791 57.8530547,14.5626372 55.5806671,15.42687 C56.2186754,15.8346673 56.7448825,16.3908203 57.1126571,17.0460696 C57.1303399,17.073805 57.1480228,17.1018294 57.1659908,17.1301426 C57.5237831,17.6952518 57.945034,18.3603241 58.6148429,18.3603241 C58.8966275,18.3710138 59.1751322,18.2973416 59.4135654,18.1491304 L59.7533896,18.3603241 Z M53.1240358,10.3204902 C53.140863,10.8660401 52.9191145,11.3925653 52.5151186,11.7666468 C52.1102671,12.1415516 51.5613861,12.3272201 51.0077991,12.2764296 L48.1823949,12.2764296 L48.1823949,8.24593848 L51.0077991,8.24593848 C51.576502,8.21709075 52.1310873,8.42642095 52.5342275,8.82214184 C52.9369399,9.2173138 53.1511304,9.76153476 53.1240358,10.3204902 Z" id="Shape"></path>
            <path d="M72.4656103,3.37062937 C78.7329248,3.37062937 83.4230769,7.6927826 83.4230769,13.4825175 C83.4230769,19.2434046 78.7270824,23.5944056 72.4656103,23.5944056 C66.2041381,23.5944056 61.513986,19.2722957 61.513986,13.4825175 C61.513986,7.6927826 66.1982957,3.37062937 72.4656103,3.37062937 Z M74.94718,17.75219 C76.4754121,16.8626328 77.3875606,15.2255181 77.3257769,13.4825175 C77.3875606,11.7395024 76.4754121,10.10233 74.94718,9.21287385 C73.4189478,8.32340328 71.5181151,8.32340328 69.989883,9.21287385 C68.4616509,10.10233 67.5495024,11.7395024 67.611286,13.4825175 C67.5495024,15.2255181 68.4616509,16.8626328 69.989883,17.75219 C71.5181151,18.6416028 73.4189478,18.6416028 74.94718,17.75219 Z" id="Shape"></path>
            <polygon id="Path" fill-rule="nonzero" points="111.816576 3.37062937 106.384613 3.37062937 103.023927 14.5748903 99.4565288 3.37062937 96.0120406 3.37062937 92.4781632 14.5092208 89.1118903 3.37062937 83.6799273 3.37062937 83.4230769 3.83622404 90.3790953 23.5944056 93.8235836 23.5944056 97.7314913 12.5811582 101.67292 23.5944056 105.122995 23.5944056 112.073427 3.83622404"></polygon>
            <path d="M124.11207,3.37062937 C130.213648,3.37062937 133.965833,7.4130011 133.965833,13.4556488 L133.982517,13.4437023 C133.982517,19.546039 130.252579,23.5944056 124.128755,23.5944056 L115.444056,23.5944056 L115.444056,3.37062937 L124.11207,3.37062937 Z M123.881623,18.6145896 C126.369342,18.6145896 128.178268,16.7766817 128.179409,13.4824886 C128.179409,13.4834853 128.179409,13.4844821 128.179409,13.4854788 L128.179409,13.4795128 C128.179409,13.4805096 128.179409,13.4815063 128.179409,13.4824886 C128.178268,10.1824161 126.369342,8.35041646 123.881623,8.35041646 L121.098002,8.35041646 L121.098002,18.6145896 L123.881623,18.6145896 Z" id="Shape"></path>
            <polygon id="Path" fill-rule="nonzero" points="166.565743 8.34897191 172.744755 8.34897191 172.744755 3.37062937 154.206294 3.37062937 154.206294 8.34897191 160.385306 8.34897191 160.385306 23.5944056 166.565743 23.5944056"></polygon>
            <path d="M183.155787,3.37062937 C188.175216,3.37062937 190.878741,5.98747045 190.878741,10.1337924 L190.901212,10.1098994 C190.901212,12.7566139 189.49257,14.5907949 187.405589,15.6243598 L191.283217,23.128392 L191.020589,23.5944056 L185.23715,23.5944056 L181.627768,16.4906597 L180.247214,16.4906597 L180.247214,23.5944056 L174.43007,23.5944056 L174.43007,3.37062937 L183.155787,3.37062937 Z M184.9675,10.4540214 C184.985758,11.0102042 184.773689,11.5476221 184.387471,11.9290281 C183.999848,12.3112575 183.473188,12.4996564 182.942314,12.4459334 L180.24581,12.4459334 L180.24581,8.34143133 L182.942314,8.34143133 C183.487232,8.31014226 184.01951,8.52269415 184.405728,8.92612959 C184.790542,9.32898721 184.995589,9.88428877 184.9675,10.4540214 Z" id="Shape"></path>
            <rect id="Rectangle" fill-rule="nonzero" x="194.653846" y="3.37062937" width="5.05594406" height="20.2237762"></rect>
            <polygon id="Path" fill-rule="nonzero" points="215.234391 12.4259696 221.95387 3.83622404 221.680071 3.37062937 215.351325 3.37062937 209.861089 10.5575961 209.861089 3.37062937 203.923077 3.37062937 203.923077 23.5944056 209.861089 23.5944056 209.861089 17.3744388 210.939172 16.0672605 215.981633 23.5944056 222.193444 23.5944056 222.461538 23.1288254"></polygon>
            <polygon id="Path" fill-rule="nonzero" points="240.905959 8.34897191 240.905959 3.37062937 225.832168 3.37062937 225.832168 23.5944056 241 23.5944056 241 18.6160342 231.859864 18.6160342 231.859864 15.8164857 238.74606 15.8164857 238.74606 11.1485493 231.859864 11.1485493 231.859864 8.34897191"></polygon>
            <path d="M144.349169,23.5944056 C148.724808,23.5944056 152.520979,21.4989335 152.520979,17.4460887 C152.520979,13.0363665 148.695315,11.8907474 145.315837,10.9351162 C143.991882,10.5436561 142.632816,10.094616 142.632816,9.13322106 C142.632816,8.44240575 143.38854,8.02215568 144.530762,8.02215568 C146.49317,8.02215568 148.150396,9.21957658 148.994458,10.0025112 L149.415787,10.0025112 L152.251329,6.70383994 L152.251329,6.28358987 C150.745781,4.63712891 147.729068,3.37062937 144.413632,3.37062937 C139.768343,3.37062937 136.546583,5.83454981 136.546583,9.40380074 C136.546583,13.2436025 140.096418,14.9246027 143.113272,15.7363129 C145.07554,16.2774434 146.405393,16.369606 146.405393,17.4173421 C146.405393,18.1714 145.468078,18.6205123 144.021235,18.6205123 C142.181854,18.6205123 139.949936,17.4690571 138.866279,16.3983526 L138.444529,16.3983526 L135.667832,19.8179043 L135.667832,20.2381255 C137.425194,22.1897199 140.641196,23.5656589 144.349169,23.5656589" id="Path" fill-rule="nonzero"></path>
            <path d="M40.4475524,42.1328671 C39.0356347,38.9261767 36.2002483,34.8114135 25.093143,28.9315023 C19.9769554,26.0936851 11.2250333,21.7574547 3.37062937,13.4825175 C4.07946884,16.4678839 7.7322873,23.028814 23.4524891,31.2243898 C27.7913448,33.5741482 35.1541087,35.8045779 40.4475524,42.1328671" id="Path" fill-rule="nonzero"></path>
            <path d="M38.7622378,37.0769231 C37.4593959,33.1368326 35.10983,28.0937778 23.9355383,20.6029046 C18.4959042,16.8278806 10.5117877,12.0679897 0,0 C0.751637117,3.25587292 4.07554782,11.731791 20.8120197,22.7321582 C26.3129555,26.6781809 33.4061579,29.1141348 38.7622378,37.0769231" id="Path" fill-rule="nonzero"></path>
        </g>
    </g>
</svg>