<?xml version="1.0" encoding="UTF-8"?>
<svg width="134px" height="37px" viewBox="0 0 134 37" version="1.1" xmlns="http://www.w3.org/2000/svg" xmlns:xlink="http://www.w3.org/1999/xlink">
    <title>embercheckup</title>
    <g id="Landing-Page" stroke="none" stroke-width="1" fill="none" fill-rule="evenodd">
        <g id="embercheckup" transform="translate(0, 0.7188)" fill="#000000">
            <path d="M57.6905362,25.2774237 C56.6395467,25.2643366 55.7330276,25.6327406 55.0419126,26.1019159 C54.892236,26.2033415 54.7269411,26.3767466 54.6006922,26.5246317 L54.6006922,26.3767466 C54.6006922,25.7636124 54.0755229,25.2774237 53.4442784,25.2774237 C52.8351601,25.2774237 52.3308153,25.7642667 52.3308153,26.3767466 L52.3308153,34.7034628 C52.3308153,35.3159426 52.8351601,35.8237251 53.4442784,35.8237251 C54.0755229,35.8237251 54.6006922,35.316597 54.6006922,34.7034628 L54.6006922,30.8434 C54.6006922,29.9436566 55.0998309,29.1113122 55.6718555,28.5380938 C56.249737,27.9583319 56.84584,27.5375792 57.6905362,27.4963545 C58.3204791,27.466254 58.8046501,26.968287 58.8046501,26.3767466 C58.8046501,25.7636124 58.3204791,25.285276 57.6905362,25.2774237 Z M45.718367,27.3262212 C47.5528805,27.3582848 48.6188376,28.6591502 48.8290355,29.5045818 L42.8810209,29.5045818 C43.0489189,28.6382107 43.930058,27.294812 45.718367,27.3262212 Z M45.718367,35.8238118 C47.058948,35.8302687 48.1958388,35.4664452 49.1602762,34.7028084 C49.7043178,34.2728946 50.0244954,33.6859348 49.4811045,33.0551328 C49.1973699,32.7259904 48.4711134,32.6003535 47.904295,33.1186057 C47.4155686,33.5648784 46.4752096,33.7114548 45.718367,33.6473276 C44.982349,33.5845091 44.162382,33.1840415 43.7003371,32.6958898 C43.3417642,32.3170161 43.0912188,31.7869854 42.9857944,31.3007968 L49.6698271,31.3007968 C50.3550852,31.3007968 50.820384,30.8093733 50.783941,30.159595 C50.6173445,27.3065905 48.4509396,25.2564843 45.718367,25.2564843 C42.838721,25.2564843 40.5896686,27.6658335 40.5896686,30.5397775 C40.5896686,33.4143758 42.838721,35.8099835 45.718367,35.8238118 Z M32.2058313,28.4268528 C32.7316514,27.8771914 33.4038942,27.5598274 34.1815613,27.5598274 C34.9384039,27.5598274 35.632122,27.8771914 36.1579421,28.4268528 C36.6831115,28.9549204 36.9987337,29.7159397 36.9987337,30.5613713 C36.9987337,31.3642696 36.6831115,32.1252889 36.1579421,32.6533565 C35.632122,33.2030179 34.9384039,33.520382 34.1815613,33.520382 C33.4038942,33.520382 32.7316514,33.2030179 32.2058313,32.6533565 C31.6806619,32.1252889 31.3650397,31.3642696 31.3650397,30.5613713 C31.3650397,29.7159397 31.6806619,28.9549204 32.2058313,28.4268528 L32.2058313,28.4268528 Z M29.0743382,34.6825233 C29.0743382,35.2956575 29.578683,35.8237251 30.2092767,35.8237251 C30.7767459,35.8237251 31.2179663,35.4226031 31.3233906,34.9148207 C32.1218823,35.4644821 33.1305719,35.8237251 34.1815613,35.8237251 C37.0195583,35.8237251 39.2894352,33.4143758 39.2894352,30.5613713 C39.2894352,27.6658335 37.0195583,25.2564843 34.1815613,25.2564843 C33.1520472,25.2564843 32.1427068,25.5941334 31.3650397,26.1437948 L31.3650397,22.170528 C31.3650397,21.5573938 30.8606949,21.0293262 30.2092767,21.0293262 C29.578683,21.0293262 29.0743382,21.5573938 29.0743382,22.170528 L29.0743382,34.6825233 Z M22.7931306,27.5179484 C23.9495444,27.5179484 24.9165849,28.4903256 24.9165849,29.6950002 L24.9165849,34.7034628 C24.9165849,35.316597 25.4417542,35.8237251 26.0515233,35.8237251 C26.6606417,35.8237251 27.1656372,35.316597 27.1656372,34.7034628 L27.1656372,29.6950002 C27.1656372,27.2431177 25.2107318,25.2564843 22.7931306,25.2564843 C21.4688188,25.2564843 20.2707559,25.8054913 19.4930888,26.7143957 C18.6945971,25.8054913 17.5173587,25.2564843 16.1930469,25.2564843 C15.3945553,25.2564843 14.6168881,25.4887816 13.9439946,25.890558 C13.7760966,25.4887816 13.3765253,25.2564843 12.935305,25.2564843 C12.3255359,25.2564843 11.8211911,25.7426729 11.8211911,26.3976861 L11.8211911,34.7034628 C11.8211911,35.3375365 12.3287897,35.8237251 12.935305,35.8237251 C13.567851,35.8237251 14.0702435,35.2897683 14.0702435,34.6655099 L14.0702435,29.6950002 C14.0702435,28.4896713 15.0372839,27.5179484 16.1930469,27.5179484 C17.3702853,27.5179484 18.3379765,28.4687318 18.3581503,29.6315274 C18.3588011,29.6524669 18.3581503,29.6740607 18.3581503,29.6950002 L18.3581503,34.7034628 C18.3581503,35.316597 18.904795,35.8237251 19.4930888,35.8237251 C20.1028579,35.8237251 20.6072027,35.316597 20.6072027,34.7034628 L20.6072027,29.6950002 C20.6072027,29.6734064 20.6065519,29.6524669 20.6072027,29.6315274 C20.648201,28.4687318 21.5950677,27.5179484 22.7931306,27.5179484 Z M5.12869843,27.3262212 C6.96256115,27.3582848 8.02916904,28.6591502 8.23936693,29.5045818 L2.29135226,29.5045818 C2.45925027,28.6382107 3.34038942,27.2954664 5.12869843,27.3262212 L5.12869843,27.3262212 Z M5.12869843,35.8238196 C6.41071034,35.8302687 7.50660276,35.4972 8.44370792,34.8003079 C9.03135094,34.3638505 9.49795122,33.759223 8.89143593,33.0551328 C8.60770132,32.7259904 7.95433078,32.5650181 7.31462636,33.1186057 C6.81418617,33.5511368 5.88489023,33.7114548 5.12869843,33.6473276 C4.39333119,33.5845091 3.57271341,33.1840415 3.1106685,32.6958898 C2.75209563,32.3170161 2.50155015,31.7869854 2.39612582,31.3007968 L9.0801585,31.3007968 C9.69773683,31.3007968 10.1942724,30.8996748 10.1942724,30.2656011 C10.1942724,27.4760694 7.8599695,25.2564843 5.12869843,25.2564843 C2.24905237,25.2564843 0,27.6658335 0,30.5397775 C0,33.4143758 2.24905237,35.8099835 5.12869843,35.8238196 Z" id="Fill-1"></path>
            <path d="M125.600334,25.4347316 L129.673488,25.4347316 C130.273495,25.4347316 130.817537,25.5165265 131.304311,25.6794618 C131.791085,25.8430515 132.204322,26.0779663 132.544023,26.3842063 C132.883073,26.6911006 133.144031,27.0568872 133.326246,27.4822204 C133.50781,27.908208 133.598917,28.3826182 133.598917,28.9074139 L133.598917,28.9368601 C133.598917,29.5205482 133.49089,30.0322568 133.274184,30.4726403 C133.058129,30.9130238 132.762681,31.2814278 132.38914,31.5778523 C132.014949,31.8749313 131.576983,32.1000307 131.075241,32.2531507 C130.573499,32.406925 130.037267,32.483485 129.467195,32.483485 L127.415325,32.483485 L127.415325,35.8220237 L125.600334,35.8220237 L125.600334,25.4347316 Z M129.525764,30.8364638 C130.214926,30.8364638 130.758317,30.6630587 131.156587,30.3169029 C131.554857,29.970747 131.754642,29.5251287 131.754642,28.9813565 L131.754642,28.9519103 C131.754642,28.3381218 131.552904,27.8754901 131.149428,27.5640152 C130.745953,27.2525404 130.204514,27.096803 129.525764,27.096803 L127.415325,27.096803 L127.415325,30.8364638 L129.525764,30.8364638 Z M118.664455,35.9856135 C117.994815,35.9856135 117.390252,35.8887683 116.848813,35.6963868 C116.308026,35.503351 115.84533,35.21347 115.462028,34.8280527 C115.078075,34.441981 114.782627,33.9649534 114.576333,33.3956612 C114.369389,32.8270234 114.266568,32.1667753 114.266568,31.414917 L114.266568,25.4347316 L116.081558,25.4347316 L116.081558,31.3409744 C116.081558,32.3100799 116.312581,33.0475423 116.775277,33.5520529 C117.237321,34.0565636 117.877026,34.3084918 118.693739,34.3084918 C119.500691,34.3084918 120.135189,34.066379 120.597234,33.5814991 C121.05993,33.0966192 121.290952,32.3748614 121.290952,31.414917 L121.290952,25.4347316 L123.106593,25.4347316 L123.106593,31.3259242 C123.106593,32.0974133 123.000518,32.775329 122.789019,33.3590171 C122.577519,33.9427052 122.280119,34.4295481 121.896166,34.8208547 C121.512213,35.211507 121.047565,35.503351 120.501571,35.6957325 C119.955577,35.8887683 119.343205,35.9856135 118.664455,35.9856135 Z M103.729341,25.4347316 L105.544332,25.4347316 L105.544332,30.6578238 L110.458927,25.4347316 L112.687155,25.4347316 L108.392741,29.901385 L112.879132,35.8220237 L110.680188,35.8220237 L107.153029,31.1479386 L105.544332,32.81001 L105.544332,35.8220237 L103.729341,35.8220237 L103.729341,25.4347316 Z M97.634253,36.0000093 C96.8767596,36.0000093 96.1778354,35.8619396 95.5387817,35.5844915 C94.8990773,35.3076977 94.3459249,34.9294783 93.8786739,34.4498333 C93.4107721,33.9695339 93.04439,33.4035135 92.7788769,32.7504634 C92.5133638,32.0974133 92.3806072,31.3998667 92.3806072,30.6578238 L92.3806072,30.6283777 C92.3806072,29.8863348 92.5107607,29.1914057 92.7717184,28.5435904 C93.0320254,27.8957752 93.3990583,27.326483 93.8708647,26.8370226 C94.3433219,26.3475622 94.9042834,25.9614905 95.5530986,25.6794618 C96.2025645,25.3974331 96.9210118,25.256746 97.7077897,25.256746 C98.1802469,25.256746 98.6104042,25.2960075 98.9995631,25.3751849 C99.3880713,25.4543624 99.7446919,25.5656034 100.069425,25.7095623 C100.394158,25.8528669 100.694162,26.0236546 100.969436,26.2212709 C101.244711,26.4188873 101.505669,26.6367888 101.751659,26.874321 L100.585483,28.2242633 C100.172246,27.838846 99.7349304,27.5267168 99.2722347,27.2898389 C98.8101898,27.0523066 98.2837189,26.9332133 97.6934728,26.9332133 C97.2014926,26.9332133 96.7466061,27.0300584 96.3281627,27.2230943 C95.9097192,27.4154758 95.5485432,27.6778737 95.2433333,28.0089793 C94.9381233,28.3407392 94.7025455,28.728774 94.5352983,29.1743923 C94.368051,29.6193563 94.284102,30.0944209 94.284102,30.5989315 L94.284102,30.6283777 C94.284102,31.1328883 94.368051,31.6105703 94.5352983,32.0607692 C94.7025455,32.5103137 94.9381233,32.9035833 95.2433333,33.2399238 C95.5485432,33.5762642 95.9097192,33.8412796 96.3281627,34.0343154 C96.7466061,34.2266969 97.2014926,34.323542 97.6934728,34.323542 C98.322765,34.323542 98.8642035,34.2024856 99.3164869,33.9597185 C99.769421,33.7176057 100.217149,33.3884632 100.659671,32.9729454 L101.825195,34.1599523 C101.559682,34.4472158 101.281805,34.7017614 100.991562,34.9242434 C100.70132,35.1467254 100.388952,35.3397613 100.054457,35.503351 C99.7199627,35.6662863 99.3535806,35.7899602 98.9553109,35.8743725 C98.5563905,35.9581304 98.1164717,36.0000093 97.634253,36.0000093 Z M82.9503358,25.4347316 L90.6092181,25.4347316 L90.6092181,27.0667025 L84.7653263,27.0667025 L84.7653263,29.7678958 L89.9454353,29.7678958 L89.9454353,31.3998667 L84.7653263,31.3998667 L84.7653263,34.1900528 L90.6834056,34.1900528 L90.6834056,35.8220237 L82.9503358,35.8220237 L82.9503358,25.4347316 Z M71.7343585,25.4347316 L73.5493489,25.4347316 L73.5493489,29.7528456 L78.4789125,29.7528456 L78.4789125,25.4347316 L80.293903,25.4347316 L80.293903,35.8220237 L78.4789125,35.8220237 L78.4789125,31.4443631 L73.5493489,31.4443631 L73.5493489,35.8220237 L71.7343585,35.8220237 L71.7343585,25.4347316 Z M65.6392703,36.0000093 C64.881777,36.0000093 64.1828527,35.8619396 63.5437991,35.5844915 C62.9040947,35.3076977 62.3509423,34.9294783 61.8836913,34.4498333 C61.4157895,33.9695339 61.0494074,33.4035135 60.7838942,32.7504634 C60.5183811,32.0974133 60.3856246,31.3998667 60.3856246,30.6578238 L60.3856246,30.6283777 C60.3856246,29.8863348 60.5157781,29.1914057 60.7767358,28.5435904 C61.0370428,27.8957752 61.4040756,27.326483 61.8758821,26.8370226 C62.3483392,26.3475622 62.9093008,25.9614905 63.558116,25.6794618 C64.2075819,25.3974331 64.9260292,25.256746 65.7128071,25.256746 C66.1852642,25.256746 66.6160723,25.2960075 67.0045805,25.3751849 C67.3930887,25.4543624 67.7497092,25.5656034 68.0744422,25.7095623 C68.3991752,25.8528669 68.699179,26.0236546 68.9744536,26.2212709 C69.2497283,26.4188873 69.510686,26.6367888 69.7566761,26.874321 L68.5911516,28.2242633 C68.1779142,27.838846 67.7399477,27.5267168 67.2772521,27.2898389 C66.8152072,27.0523066 66.2887363,26.9332133 65.6984902,26.9332133 C65.20651,26.9332133 64.7516235,27.0300584 64.33318,27.2230943 C63.9153873,27.4154758 63.5535606,27.6778737 63.2483507,28.0089793 C62.9437915,28.3407392 62.7075629,28.728774 62.5403156,29.1743923 C62.3730684,29.6193563 62.2891194,30.0944209 62.2891194,30.5989315 L62.2891194,30.6283777 C62.2891194,31.1328883 62.3730684,31.6105703 62.5403156,32.0607692 C62.7075629,32.5103137 62.9437915,32.9035833 63.2483507,33.2399238 C63.5535606,33.5762642 63.9153873,33.8412796 64.33318,34.0343154 C64.7516235,34.2266969 65.20651,34.323542 65.6984902,34.323542 C66.3277823,34.323542 66.8692209,34.2024856 67.3215042,33.9597185 C67.7744384,33.7176057 68.2221664,33.3884632 68.6646883,32.9729454 L69.8302128,34.1599523 C69.5646997,34.4472158 69.286822,34.7017614 68.9965797,34.9242434 C68.7063374,35.1467254 68.393969,35.3397613 68.0594746,35.503351 C67.7249801,35.6662863 67.358598,35.7899602 66.9603283,35.8743725 C66.5614078,35.9581304 66.121489,36.0000093 65.6392703,36.0000093 Z" id="Fill-3"></path>
            <path d="M11.744791,7.78896408 L25.0210981,7.78896408 L22.2716056,16.3002094 L13.3554405,16.3002094 L11.744791,7.78896408 Z M17.6641719,9.54330012 C18.5837063,9.54330012 19.3327397,10.6360794 19.3327397,11.9762063 C19.3327397,13.3156788 18.5837063,14.4084581 17.6641719,14.4084581 C16.7452882,14.4084581 15.9962549,13.3156788 15.9962549,11.9762063 C15.9962549,10.6360794 16.7452882,9.54330012 17.6641719,9.54330012 L17.6641719,9.54330012 Z M42.7707809,9.54330012 C41.8518972,9.54330012 41.1022131,10.6360794 41.1022131,11.9762063 C41.1022131,13.3156788 41.8518972,14.4084581 42.7707809,14.4084581 C43.6896645,14.4084581 44.4393486,13.3156788 44.4393486,11.9762063 C44.4393486,10.6360794 43.6896645,9.54330012 42.7707809,9.54330012 L42.7707809,9.54330012 Z M8.46492293,6.99915297 C8.15450685,5.31745076 9.007663,4.64935039 10.3306733,4.64935039 L27.0833802,4.64935039 C28.2476032,4.64935039 28.86388,5.409061 28.6361114,6.59279613 L31.7988413,6.59279613 C31.5710727,5.409061 32.1880003,4.64935039 33.3522233,4.64935039 L41.2323666,4.64935039 C41.0592624,5.1309585 40.9642504,5.64986505 40.9642504,6.19036545 C40.9642504,6.75245969 41.0670716,7.29099701 41.2538419,7.78896408 L35.4145054,7.78896408 L38.1639979,16.3002094 L47.080163,16.3002094 L47.4576082,14.304415 C48.1148833,14.6793626 48.8736782,14.8939923 49.6806298,14.8939923 C49.9695706,14.8939923 50.2520037,14.8658549 50.525326,14.8135062 L49.9474445,17.9393783 C49.7359451,19.0825432 49.0506869,19.4398231 47.8070703,19.4398231 L37.5353566,19.4398231 C36.2149494,19.4398231 35.7756813,19.0243053 35.3949824,17.8405701 L32.7899602,9.74615136 L27.6456433,9.74615136 L25.0406211,17.8405701 C24.6599222,19.0243053 24.2206541,19.4398231 22.9002469,19.4398231 L12.6285332,19.4398231 C11.3849166,19.4398231 10.6996584,19.0825432 10.488159,17.9393783 L8.46492293,6.99915297 Z" id="Fill-8"></path>
            <path d="M49.5939476,0 L49.5939476,0 C50.4308346,0 51.115442,0.688385494 51.115442,1.52989096 L51.115442,4.65249132 L54.2209043,4.65249132 C55.0577913,4.65249132 55.7423987,5.34087681 55.7423987,6.18238227 C55.7423987,7.02388773 55.0577913,7.71227323 54.2209043,7.71227323 L51.115442,7.71227323 L51.115442,10.8342192 C51.115442,11.6757247 50.4308346,12.3641102 49.5939476,12.3641102 C48.7570606,12.3641102 48.0724533,11.6757247 48.0724533,10.8342192 L48.0724533,7.71227323 L44.9669909,7.71227323 C44.1301039,7.71227323 43.4454966,7.02388773 43.4454966,6.18238227 C43.4454966,5.34087681 44.1301039,4.65249132 44.9669909,4.65249132 L48.0724533,4.65249132 L48.0724533,1.52989096 C48.0724533,0.688385494 48.7570606,0 49.5939476,0" id="Fill-5"></path>
        </g>
    </g>
</svg>