<?xml version="1.0" encoding="UTF-8"?>
<svg width="266px" height="69px" viewBox="0 0 266 69" version="1.1" xmlns="http://www.w3.org/2000/svg" xmlns:xlink="http://www.w3.org/1999/xlink">
    <title>intercom</title>
    <g id="Landing-Page" stroke="none" stroke-width="1" fill="none" fill-rule="evenodd">
        <path d="M59.1087249,37.6553027 C59.1087249,38.9484833 58.1236064,39.937386 56.8353746,39.937386 C55.5471427,39.937386 54.5617932,38.9484833 54.5617932,37.6553027 L54.5617932,17.1160889 C54.5617932,15.8226764 55.5471427,14.8337736 56.8353746,14.8337736 C58.1236064,14.8337736 59.1087249,15.8226764 59.1087249,17.1160889 L59.1087249,37.6553027 Z M58.3509414,51.9568221 C57.9720497,52.2610999 49.5604226,59.3357901 34.1011785,59.3357901 C18.6419345,59.3357901 10.2303074,52.2610999 9.85141564,51.9568221 C8.86629718,51.1200582 8.79051883,49.6745069 9.62408061,48.7616735 C10.4576424,47.7727707 11.8974309,47.6967013 12.8070021,48.5334652 C12.9585587,48.5334652 20.4606147,54.7713916 34.1011785,54.7713916 C47.893299,54.7713916 55.3195767,48.5334652 55.3195767,48.4573957 C56.3049262,47.6206319 57.7447147,47.7727707 58.5024981,48.6856041 C59.4118382,49.6745069 59.2602815,51.1200582 58.3509414,51.9568221 Z M9.09363221,17.1160889 C9.09363221,15.8226764 10.0787507,14.8337736 11.3669825,14.8337736 C12.6554454,14.8337736 13.6405638,15.8226764 13.6405638,17.1160889 L13.6405638,37.6553027 C13.6405638,38.9484833 12.6554454,39.937386 11.3669825,39.937386 C10.0787507,39.937386 9.09363221,38.9484833 9.09363221,37.6553027 L9.09363221,17.1160889 Z M20.4606147,12.5516903 C20.4606147,11.2585097 21.4457332,10.2696069 22.734196,10.2696069 C24.0224279,10.2696069 25.0075463,11.2585097 25.0075463,12.5516903 L25.0075463,43.0564652 C25.0075463,44.3496457 24.0224279,45.3385485 22.734196,45.3385485 C21.4457332,45.3385485 20.4606147,44.3496457 20.4606147,43.0564652 L20.4606147,12.5516903 Z M31.8278282,11.4106486 C31.8278282,10.117468 32.8129467,9.12856526 34.1011785,9.12856526 C35.3894104,9.12856526 36.3745288,10.117468 36.3745288,11.4106486 L36.3745288,44.5017846 C36.3745288,45.7949652 35.3894104,46.783868 34.1011785,46.783868 C32.8129467,46.783868 31.8278282,45.7949652 31.8278282,44.5017846 L31.8278282,11.4106486 Z M43.1948107,12.5516903 C43.1948107,11.2585097 44.1799292,10.2696069 45.468161,10.2696069 C46.7566239,10.2696069 47.7417424,11.2585097 47.7417424,12.5516903 L47.7417424,43.0564652 C47.7417424,44.3496457 46.7566239,45.3385485 45.468161,45.3385485 C44.1799292,45.3385485 43.1948107,44.3496457 43.1948107,43.0564652 L43.1948107,12.5516903 Z M59.7149516,-2.27373675e-13 L8.5631838,-2.27373675e-13 C3.78891716,-2.27373675e-13 0,3.80347222 0,8.5200097 L0,59.8682763 C0,64.6606513 3.78891716,68.4643554 8.5631838,68.4643554 L59.7149516,68.4643554 C64.4134399,68.4643554 68.2023571,64.6606513 68.2023571,59.9443457 L68.2023571,8.59607915 C68.2023571,3.80347222 64.4134399,-2.27373675e-13 59.7149516,-2.27373675e-13 L59.7149516,-2.27373675e-13 Z M261.215111,44.1975068 L261.215111,29.0592236 L255.531504,44.5017846 C255.228391,45.414618 254.31905,46.0231735 253.333932,46.0231735 C252.348814,46.0231735 251.515252,45.414618 251.13636,44.5017846 L245.452753,28.8310152 L245.452753,44.1975068 C245.452753,45.414618 244.467635,46.3274513 243.33096,46.3274513 C242.118506,46.3274513 241.209166,45.3385485 241.209166,44.1975068 L241.209166,25.4078902 C241.209166,23.5819916 242.724733,22.0606027 244.543413,22.0606027 L244.846527,22.0606027 C246.210537,22.0606027 247.498769,22.8973666 247.953439,24.2668486 L253.485489,39.3288305 L259.093086,24.2668486 C259.547756,22.9734361 260.836219,22.0606027 262.200229,22.0606027 C264.018909,22.0606027 265.534476,23.5819916 265.534476,25.4078902 L265.534476,44.1975068 C265.534476,45.414618 264.549358,46.3274513 263.412683,46.3274513 C262.124451,46.3274513 261.215111,45.414618 261.215111,44.1975068 L261.215111,44.1975068 Z M229.538839,27.3096263 C228.553721,26.3207236 227.113932,25.712168 225.749922,25.712168 C224.385681,25.712168 222.870114,26.3207236 221.960774,27.3096263 C220.29365,29.0592236 220.217872,32.0259319 220.217872,34.3082471 C220.217872,36.514261 220.29365,39.4809694 221.960774,41.2307985 C222.945892,42.2197013 224.385681,42.8282568 225.749922,42.8282568 C227.113932,42.8282568 228.629499,42.2197013 229.538839,41.2307985 C231.205963,39.4809694 231.281741,36.514261 231.281741,34.3082471 C231.281741,32.0259319 231.205963,28.9831541 229.538839,27.3096263 L229.538839,27.3096263 Z M232.645751,44.045368 C230.827071,45.8710346 228.250607,46.783868 225.673913,46.783868 C223.097449,46.783868 220.596764,45.8710346 218.702305,44.045368 C216.049832,41.3829374 215.67094,38.1877888 215.67094,34.2321777 C215.67094,30.2763347 216.12561,27.0053486 218.702305,24.4189874 C220.520985,22.5930889 223.097449,21.6802555 225.673913,21.6802555 C228.250607,21.6802555 230.751293,22.5930889 232.645751,24.4189874 C235.298224,27.081418 235.677116,30.2763347 235.677116,34.2321777 C235.752894,38.1877888 235.298224,41.4590068 232.645751,44.045368 L232.645751,44.045368 Z M209.078224,43.8932291 C207.259313,45.7188957 204.758628,46.783868 202.182164,46.783868 C199.605469,46.783868 197.180563,45.9471041 195.361882,44.045368 C192.70964,41.3829374 192.330749,38.1877888 192.330749,34.2321777 C192.330749,30.2763347 192.70964,27.0053486 195.361882,24.4189874 C197.180563,22.5930889 199.605469,21.6802555 202.182164,21.6802555 C204.758628,21.6802555 207.259313,22.6691583 209.078224,24.4950569 C209.684451,25.1796819 210.2149,25.8643069 210.593791,26.7010708 C211.275796,28.1463902 210.2149,29.7438486 208.623323,29.7438486 C207.713983,29.7438486 206.9562,29.2113624 206.577308,28.3745986 C206.425751,27.9181819 206.122638,27.5378347 205.819525,27.1574874 C205.061741,26.1685847 203.697731,25.6360986 202.182164,25.6360986 C200.818154,25.6360986 199.453913,26.2446541 198.468794,27.2335569 C196.801671,28.9831541 196.801671,31.9498624 196.801671,34.2321777 C196.801671,36.4381916 196.801671,39.4809694 198.468794,41.2305666 C199.453913,42.2197013 200.818154,42.8282568 202.182164,42.8282568 C203.697731,42.8282568 205.061741,42.2957707 205.819525,41.306868 C206.122638,40.9262888 206.425751,40.4698721 206.577308,40.0134555 C206.880421,39.1766916 207.713983,38.6442055 208.623323,38.6442055 C210.2149,38.6442055 211.275796,40.2416638 210.593791,41.6872152 C210.2149,42.5239791 209.684451,43.2846735 209.078224,43.8932291 L209.078224,43.8932291 Z M179.82686,25.9403763 L174.067475,25.9403763 L174.067475,33.1669736 L179.902638,33.1669736 C182.403324,33.1669736 183.843343,31.873793 183.843343,29.5917097 C183.767334,27.6899736 182.327545,25.9403763 179.82686,25.9403763 L179.82686,25.9403763 Z M182.857994,45.0342707 L179.37219,37.198886 L173.991696,37.198886 L173.991696,44.1975068 C173.991696,45.414618 173.006578,46.4035207 171.794124,46.4035207 L171.718346,46.4035207 C170.505893,46.4035207 169.520774,45.414618 169.520774,44.1975068 L169.520774,24.342918 C169.520774,23.125575 170.505893,22.1366722 171.718346,22.1366722 L179.751082,22.1366722 C185.510467,22.1366722 188.162709,25.7882374 188.162709,29.6677791 C188.162709,32.9387652 186.419807,35.4492888 183.767565,36.4381916 L186.798698,43.2846735 C187.404925,44.729993 186.419807,46.3274513 184.828462,46.3274513 C183.9949,46.3274513 183.161107,45.8710346 182.857994,45.0342707 L182.857994,45.0342707 Z M147.089692,44.3496457 L147.089692,24.0384083 C147.089692,22.9734361 147.999032,22.0606027 149.060159,22.0606027 L162.321601,22.0606027 C163.382497,22.0606027 164.291837,22.9734361 164.291837,24.0384083 C164.291837,25.1036124 163.382497,26.0164458 162.321601,26.0164458 L151.485066,26.0164458 L151.485066,31.6455847 L160.806034,31.6455847 C161.86693,31.6455847 162.776271,32.558418 162.776271,33.6236221 C162.776271,34.6885944 161.86693,35.6014277 160.806034,35.6014277 L151.485066,35.6014277 L151.485066,42.2197013 L162.321601,42.2197013 C163.382497,42.2197013 164.291837,43.1325346 164.291837,44.1975068 C164.291837,45.2624791 163.382497,46.1753124 162.321601,46.1753124 L149.060159,46.1753124 C147.999032,46.3274513 147.089692,45.4906874 147.089692,44.3496457 L147.089692,44.3496457 Z M136.404714,26.2446541 L136.404714,44.3496457 C136.404714,45.4906874 135.495374,46.4035207 134.358699,46.4035207 L134.055585,46.4035207 C132.91891,46.4035207 132.00957,45.4906874 132.00957,44.3496457 L132.00957,26.2446541 L126.93219,26.2446541 C125.795515,26.2446541 124.886175,25.3318208 124.886175,24.1907791 C124.886175,23.0495055 125.795515,22.1366722 126.93219,22.1366722 L141.557872,22.1366722 C142.694548,22.1366722 143.603888,23.0495055 143.603888,24.1907791 C143.603888,25.3318208 142.694548,26.2446541 141.557872,26.2446541 L136.404714,26.2446541 Z M115.565208,44.9582013 L106.016674,29.6677791 L106.016674,44.1214374 C106.016674,45.3385485 105.031556,46.3274513 103.819102,46.3274513 C102.606649,46.3274513 101.62153,45.3385485 101.62153,44.1214374 L101.62153,24.9514736 C101.62153,23.3537833 102.909762,21.9845333 104.576886,21.9845333 L104.728443,21.9845333 C105.713561,21.9845333 106.698911,22.5170194 107.229359,23.3537833 L116.701883,38.4159971 L116.701883,24.1907791 C116.701883,22.9734361 117.687001,21.9845333 118.899455,21.9845333 C120.111908,21.9845333 121.097027,22.9734361 121.097027,24.1907791 L121.097027,43.360743 C121.097027,44.9582013 119.808795,46.3274513 118.141671,46.3274513 C117.080775,46.3274513 116.095656,45.8710346 115.565208,44.9582013 L115.565208,44.9582013 Z M90.4061047,44.1214374 L90.4061047,24.342918 C90.4061047,23.125575 91.3912231,22.1366722 92.6036766,22.1366722 C93.8161301,22.1366722 94.8012486,23.125575 94.8012486,24.342918 L94.8012486,44.1214374 C94.8012486,45.3385485 93.8161301,46.3274513 92.6036766,46.3274513 C91.4670015,46.3274513 90.4061047,45.3385485 90.4061047,44.1214374 L90.4061047,44.1214374 Z" id="intercom" fill="#000000"></path>
    </g>
</svg>