<?xml version="1.0" encoding="UTF-8"?>
<svg width="210px" height="36px" viewBox="0 0 210 36" version="1.1" xmlns="http://www.w3.org/2000/svg" xmlns:xlink="http://www.w3.org/1999/xlink">
    <title>lighthouse</title>
    <g id="Landing-Page" stroke="none" stroke-width="1" fill="none" fill-rule="evenodd">
        <g id="lighthouse" transform="translate(0, 0.4644)" fill="#000000" fill-rule="nonzero">
            <path d="M38.7948387,1 L35.76,1 L35.76,27.1953548 L38.7948387,27.1953548 L38.7948387,1 Z M47.0223041,9.33219355 L43.9885714,9.33219355 L43.9885714,27.1953548 L47.0223041,27.1953548 L47.0223041,9.33219355 Z M45.477235,1.52754839 C44.3789862,1.52754839 43.6158525,2.27335484 43.6158525,3.34709677 C43.6158525,4.41974194 44.3789862,5.18419355 45.477235,5.18419355 C46.5754839,5.18419355 47.3762212,4.41974194 47.3762212,3.34709677 C47.3762212,2.27335484 46.5942857,1.52754839 45.477235,1.52754839 Z M67.2199078,12.2605806 C65.8429493,10.35 63.4595392,8.96806452 60.1835945,8.96806452 C54.9522581,8.96806452 50.9684793,12.8616129 50.9684793,18.2094839 C50.9684793,23.576 54.9522581,27.5594839 60.1835945,27.5594839 C63.4595392,27.5594839 65.8982488,26.1227097 67.2199078,24.2483226 L67.2199078,26.3409677 C67.2199078,29.9789677 64.5212903,32.3074194 60.2764977,32.3074194 C57.7260829,32.3074194 55.4919816,31.3258065 53.8175115,29.5610968 L51.8256221,31.4892258 C53.7987097,33.7441935 56.8689401,35 60.2753917,35 C66.363871,35 70.2547465,31.4530323 70.2547465,25.9044516 L70.2547465,9.33219355 L67.2199078,9.33219355 L67.2199078,12.2605806 L67.2199078,12.2605806 Z M60.481106,24.8855484 C56.6654378,24.8855484 53.9668203,21.9023226 53.9668203,18.2094839 C53.9668203,14.5352903 56.6654378,11.642 60.481106,11.642 C64.3907834,11.642 67.2575115,14.5341935 67.2575115,18.2094839 C67.2575115,21.9023226 64.3907834,24.8855484 60.481106,24.8855484 Z M84.5131797,8.96806452 C81.6099539,8.96806452 79.4311521,10.3686452 78.4081106,12.0236774 L78.4081106,1 L75.355576,1 L75.355576,27.1953548 L78.3893088,27.1953548 L78.3893088,17.1181935 C78.3893088,13.8607742 80.9209217,11.7516774 84.0486636,11.7516774 C87.3246083,11.7516774 89.1859908,13.570129 89.1859908,17.0447097 L89.1859908,27.1953548 L92.2020276,27.1953548 L92.2020276,16.3350968 C92.1832258,11.7330323 89.2976959,8.96806452 84.5131797,8.96806452 Z M104.301567,24.9030968 C102.440184,24.9030968 101.137327,23.8852903 101.137327,21.5381935 L101.137327,11.88 L107.150599,11.88 L107.150599,9.33329032 L101.118525,9.33329032 L101.118525,3.60264516 L98.1400922,3.60264516 L98.1400922,9.33329032 L94.7524424,9.33329032 L94.7524424,11.88 L98.1212903,11.88 L98.1212903,22.012 C98.1212903,25.6510968 100.467097,27.5616774 103.985253,27.5616774 C105.475023,27.5616774 107.05659,27.1964516 107.838525,26.7610323 L107.429309,24.2132258 C106.55447,24.6497419 105.306912,24.9041935 104.301567,24.9041935 L104.301567,24.9030968 Z M121.149124,8.96806452 C118.244793,8.96806452 116.067097,10.3686452 115.042949,12.0236774 L115.042949,1 L111.990415,1 L111.990415,27.1953548 L115.024147,27.1953548 L115.024147,17.1181935 C115.024147,13.8607742 117.55576,11.7516774 120.683502,11.7516774 C123.959447,11.7516774 125.820829,13.570129 125.820829,17.0447097 L125.820829,27.1953548 L128.818065,27.1953548 L128.818065,16.3350968 C128.818065,11.7330323 125.932535,8.96806452 121.149124,8.96806452 L121.149124,8.96806452 Z M142.128664,8.96806452 C136.562212,8.96806452 132.411429,13.0425806 132.411429,18.2643226 C132.411429,23.4849677 136.562212,27.5594839 142.128664,27.5594839 C147.694009,27.5594839 151.845899,23.4849677 151.845899,18.2632258 C151.827097,13.0425806 147.694009,8.96806452 142.128664,8.96806452 L142.128664,8.96806452 Z M142.128664,24.8131613 C138.275392,24.8131613 135.445161,21.9385161 135.445161,18.2643226 C135.445161,14.5890323 138.275392,11.7143871 142.128664,11.7143871 C145.981935,11.7143871 148.81106,14.5890323 148.81106,18.2643226 C148.81106,21.9385161 145.963134,24.8120645 142.128664,24.8120645 L142.128664,24.8131613 Z M168.599447,19.428 C168.599447,22.6843226 166.104332,24.775871 162.940092,24.775871 C159.682949,24.775871 157.839263,22.9749677 157.839263,19.5003871 L157.839263,9.33219355 L154.824332,9.33219355 L154.824332,20.21 C154.824332,24.7945161 157.69106,27.5594839 162.455668,27.5594839 C165.397604,27.5594839 167.556498,26.1775484 168.580645,24.503871 L168.580645,27.1953548 L171.614378,27.1953548 L171.614378,9.33219355 L168.580645,9.33219355 L168.580645,19.428 L168.599447,19.428 L168.599447,19.428 Z M183.212903,16.936129 C180.103963,16.207871 178.651797,15.7538065 178.651797,14.0428387 C178.651797,12.569871 180.140461,11.6233548 182.467465,11.6233548 C184.832074,11.6233548 186.339539,12.6981935 187.214378,13.9518065 L189.281475,12.2792258 C188.200922,10.5320645 185.762212,8.96696774 182.467465,8.96696774 C178.707097,8.96696774 175.673364,10.9685806 175.673364,14.0976774 C175.673364,17.5185161 178.447189,18.7008387 182.35576,19.5552258 C185.445899,20.2286452 186.693456,20.7375484 186.693456,22.3936774 C186.693456,23.9214839 184.999078,24.9030968 182.616774,24.9030968 C179.973456,24.9030968 178.167373,23.6670323 177.162028,21.8836774 L174.835023,23.5398065 C176.156682,25.9954839 178.837604,27.5594839 182.616774,27.5594839 C186.451244,27.5594839 189.728295,25.5589677 189.728295,22.3936774 C189.709493,19.1000645 187.140276,17.864 183.212903,16.936129 Z M210,17.354 C210,12.1147097 205.755207,8.96806452 201.195207,8.96806452 C196.001475,8.96806452 191.794286,13.0250323 191.794286,18.2643226 C191.794286,23.5025161 195.852166,27.5594839 201.34341,27.5594839 C204.768664,27.5594839 207.728295,26.0316774 209.403871,23.5025161 L207.095668,21.866129 C205.774009,23.6845806 203.893825,24.8669032 201.324608,24.8669032 C197.527742,24.8669032 195.014931,22.2478065 194.828018,18.9914839 L209.888295,18.9914839 C209.981198,18.4814839 210,17.8815484 210,17.354 L210,17.354 Z M194.958525,16.5533548 C195.405346,13.6063226 198.048664,11.6606452 201.195207,11.6606452 C204.304147,11.6606452 206.760553,13.6063226 206.965161,16.5533548 L194.958525,16.5533548 L194.958525,16.5533548 Z M9.95391705,21.8343226 L24.8847926,21.8343226 C25.8016362,21.8343226 26.5448847,21.0972677 26.5448847,20.1880645 C26.5448847,19.2788613 25.8016362,18.5418065 24.8847926,18.5418065 L12.7365899,18.5418065 L9.95391705,21.8343226 Z M13.3294009,5.90806452 C13.8794583,5.2098719 13.7731455,4.20510161 13.0889281,3.63533767 C12.4047107,3.06557374 11.3883773,3.13549002 10.7900461,3.79348387 L0,16.5489677 L0,21.6687097 L13.3294009,5.90806452 Z" id="Shape"></path>
            <path d="M25.3126406,23.6275596 L5.3028081,23.6275596 L18.5609533,7.82767634 L22.7906008,2.78925039 C23.1888615,2.32903431 23.3081396,1.69010119 23.1027185,1.11733993 C22.8972974,0.544578667 22.3990386,0.126826521 21.7989136,0.0241986206 C21.1987887,-0.0784292794 20.589879,0.149985011 20.2055662,0.621895362 L0.899925006,23.6241872 L0,24.6966232 L0,27 L25.3126406,27 C26.2445435,27 27,26.2450535 27,25.3137798 C27,24.3825061 26.2445435,23.6275596 25.3126406,23.6275596 L25.3126406,23.6275596 Z" id="Path"></path>
        </g>
    </g>
</svg>