<?xml version="1.0" encoding="UTF-8"?>
<svg width="116px" height="23px" viewBox="0 0 116 23" version="1.1" xmlns="http://www.w3.org/2000/svg" xmlns:xlink="http://www.w3.org/1999/xlink">
    <title>Group 2</title>
    <g id="Landing-Page" stroke="none" stroke-width="1" fill="none" fill-rule="evenodd">
        <g id="Group-2" transform="translate(0, 0.7189)" fill="#000000">
            <path d="M6.32367875,5.1929293 C6.08666425,5.12713228 5.83063006,5.09368239 5.56215992,5.09368239 C4.77869529,5.09368239 4.09764435,5.32966949 3.53766099,5.79429208 C3.12398289,6.13798046 2.75273332,6.58275366 2.42939871,7.12126006 L2.34088403,6.0670373 C2.29516364,5.7998058 2.21286694,5.61454489 2.10021189,5.51162217 C1.97841277,5.37819021 1.77248813,5.31312834 1.47073355,5.31312834 L0,5.31312834 L0,17.4172083 L2.60825688,17.4172083 L2.60825688,9.92149333 C2.74614958,9.56788025 2.89611246,9.24918739 3.05558519,8.97239878 C3.21432639,8.69009645 3.3957449,8.45227144 3.59545157,8.26590779 C3.79845011,8.07623591 4.02888088,7.93361442 4.28418354,7.84098397 C4.53729163,7.74210464 4.8361201,7.69174602 5.1715249,7.69174602 C5.40232143,7.69174602 5.62141355,7.71380089 5.82880124,7.75827821 C6.05630591,7.79907972 6.22455695,7.8189291 6.34379573,7.8189291 C6.62799368,7.8189291 6.82587153,7.6590313 6.90085297,7.36864218 L7.06471486,5.53330946 L6.97583442,5.47229098 C6.78929522,5.34437274 6.567277,5.24990438 6.32367875,5.1929293" id="Fill-1"></path>
            <path d="M15.722255,9.87558244 L10.0123268,9.87558244 C10.1674103,9.04889242 10.4819666,8.3898194 10.9479489,7.91490454 C11.4537993,7.4065398 12.1604536,7.14886541 13.047795,7.14886541 C13.480127,7.14886541 13.8652756,7.22127889 14.1929993,7.36463555 C14.5192601,7.50725704 14.7994346,7.70905909 15.0254762,7.96489558 C15.2526151,8.22146723 15.4256211,8.52986782 15.5412022,8.88458364 C15.6458105,9.18857326 15.7068929,9.52086662 15.722255,9.87558244 M17.9731613,11.38193 C18.0704543,11.2253405 18.1158089,10.9706067 18.1158089,10.5795004 C18.1158089,9.72119835 17.9841342,8.94486695 17.7248081,8.27403133 C17.4717,7.59841716 17.1139837,7.02094716 16.6611689,6.55816248 C16.2076227,6.09427506 15.6597095,5.73808892 15.0349861,5.49952875 C14.4186752,5.25324937 13.7343324,5.12827178 13.0020746,5.12827178 C12.1300953,5.12827178 11.3316344,5.28522893 10.6297349,5.59436469 C9.92710396,5.90386802 9.32249751,6.33467314 8.83127762,6.87612019 C8.35029911,7.41499416 7.97466037,8.05715845 7.71496855,8.78423398 C7.45600825,9.50211998 7.32469929,10.2887437 7.32469929,11.1227853 C7.32469929,12.1549532 7.46734691,13.0849335 7.74971605,13.8888335 C8.04049773,14.6864846 8.44795786,15.3683477 8.96258659,15.9171464 C9.48416481,16.4571231 10.1048648,16.875798 10.8093246,17.1617762 C11.5170763,17.4385648 12.2932256,17.5786132 13.1169242,17.5786132 C13.5455986,17.5786132 13.9845144,17.5429578 14.4212355,17.4723822 C14.8678323,17.4014391 15.3045535,17.2896944 15.7185974,17.1404565 C16.1359331,16.9901158 16.5349807,16.7938274 16.9073275,16.5548997 C17.2796744,16.3078851 17.6136161,16.0127175 17.8992771,15.677851 L17.9969359,15.5635333 L17.2650439,14.6184821 C17.1315403,14.4321185 16.932931,14.3339743 16.6911615,14.3339743 C16.5166925,14.3339743 16.3268614,14.3997713 16.1085009,14.5372467 C15.9380552,14.6489914 15.7189631,14.773969 15.4600028,14.9077685 C15.2098208,15.0334813 14.9018483,15.1544155 14.5437662,15.2668953 C14.2036065,15.3760669 13.7891968,15.4312041 13.3122417,15.4312041 C12.8089517,15.4312041 12.3480901,15.3499686 11.9428246,15.1900708 C11.5419482,15.0316434 11.190084,14.7872019 10.8978393,14.4652008 C10.6092522,14.1387887 10.3777241,13.7245248 10.2105704,13.2349066 C10.0569499,12.7787384 9.96258298,12.2435403 9.9296643,11.6418099 L17.3923294,11.6418099 C17.6633599,11.6418099 17.8579459,11.5557959 17.9731613,11.38193" id="Fill-4"></path>
            <path d="M27.6858915,8.40187606 L27.6858915,13.8420772 C27.2985483,14.330225 26.8797495,14.7143473 26.4401023,14.984887 C25.9967973,15.2583674 25.4605886,15.3965779 24.8468381,15.3965779 C24.4298681,15.3965779 24.0520348,15.3241644 23.7276029,15.1822781 C23.4053656,15.0345105 23.1277514,14.8051398 22.9050016,14.5044585 C22.6818861,14.1865008 22.5055883,13.7718692 22.3819603,13.2752671 C22.2630873,12.7606534 22.2027364,12.1295166 22.2027364,11.399868 C22.2027364,10.0232766 22.4723038,8.96868621 23.0041234,8.26587103 C23.5396006,7.56085037 24.2736872,7.21826473 25.2491775,7.21826473 C25.7488099,7.21826473 26.202722,7.30979244 26.5992092,7.49100995 C26.9836263,7.66340551 27.3490236,7.96960062 27.6858915,8.40187606 L27.6858915,8.40187606 Z M27.6858915,6.1673502 C27.3599965,5.87475559 27.0004514,5.63693058 26.6138397,5.45755098 C26.1014056,5.21605016 25.4719273,5.09364563 24.7433271,5.09364563 C23.9364536,5.09364563 23.200904,5.25979232 22.5586239,5.58657197 C21.9167096,5.90489725 21.3625785,6.35334626 20.910861,6.9183185 C20.4617039,7.48071768 20.1145947,8.15412636 19.8786775,8.91979791 C19.6445891,9.68105849 19.5257161,10.5154677 19.5257161,11.399868 C19.5257161,12.3824124 19.6325189,13.2653424 19.8428327,14.0251326 C20.0549753,14.7911718 20.3633136,15.4450986 20.7594351,15.9707397 C21.1577511,16.4916022 21.6438503,16.8944711 22.2045652,17.1679515 C22.7711323,17.4403292 23.4086574,17.5789073 24.099584,17.5789073 C24.955104,17.5789073 25.7199147,17.392176 26.3735334,17.0234921 C26.9155943,16.7150915 27.4137637,16.320677 27.8592632,15.8479676 L27.9982532,16.8084572 L28.0019108,16.827939 C28.0988381,17.2080179 28.3702343,17.4171716 28.76599,17.4171716 L30.305487,17.4171716 L30.305487,7.35162317e-05 L27.6858915,7.35162317e-05 L27.6858915,6.1673502 Z" id="Fill-6"></path>
            <path d="M41.1565086,11.2843005 C41.1565086,12.6608919 40.8829178,13.7191581 40.3434172,14.43006 C39.8159868,15.1269939 39.0855578,15.4659037 38.1104333,15.4659037 C37.6100693,15.4659037 37.1517681,15.3740084 36.7494287,15.1938937 C36.3719611,15.0211305 36.0102214,14.7145678 35.6733536,14.2822924 L35.6733536,8.85164837 C36.0533815,8.35725171 36.4685226,7.96982117 36.9063411,7.7000166 C37.3576928,7.42616863 37.8979249,7.28759054 38.5127727,7.28759054 C38.9286454,7.28759054 39.3050157,7.36331225 39.6345683,7.51475569 C39.9542452,7.65443653 40.2260072,7.88196927 40.4458309,8.19478083 C40.6744328,8.50354901 40.8496334,8.91597507 40.9666776,9.42323707 C41.0925001,9.9297639 41.1565086,10.5557546 41.1565086,11.2843005 M42.6009072,6.71453151 C42.2018597,6.18521464 41.7113713,5.77793472 41.1440727,5.5051895 C40.5851866,5.2320767 39.9513191,5.09386618 39.2596611,5.09386618 C38.8313524,5.09386618 38.4209662,5.14643029 38.0420356,5.24972059 C37.6689572,5.34529169 37.3105093,5.48717802 36.9791279,5.66913069 C36.6466493,5.84446691 36.3295326,6.06244253 36.0365563,6.31644111 C35.8511144,6.47707408 35.671159,6.65130755 35.498153,6.83656845 L35.3609918,5.92055621 L35.3573342,5.90217715 C35.260407,5.52246581 34.9890107,5.31331213 34.593255,5.31331213 L33.0654624,5.31331213 L33.0654624,21.3556566 L35.6733536,21.3556566 L35.6733536,16.5116721 C35.9996143,16.7998558 36.3591594,17.0354753 36.7461368,17.2152225 C37.266252,17.4563557 37.8953646,17.5787602 38.6159179,17.5787602 C39.4220599,17.5787602 40.1572438,17.4170245 40.8013526,17.0972289 C41.450948,16.7708168 42.0054449,16.318692 42.448384,15.7540874 C42.8975411,15.1920558 43.2446504,14.5226905 43.479836,13.7658409 C43.722337,13.0042127 43.8448676,12.1694359 43.8448676,11.2843005 C43.8448676,10.301756 43.7344072,9.41809093 43.5164124,8.65903584 C43.3042697,7.8929967 42.9962972,7.23870224 42.6009072,6.71453151" id="Fill-8"></path>
            <path d="M48.0161767,9.87558244 C48.1712603,9.04889242 48.4858165,8.3898194 48.9517988,7.91490454 C49.4576492,7.4065398 50.1639378,7.14886541 51.0516449,7.14886541 C51.4836112,7.14886541 51.8691255,7.22127889 52.1968493,7.36463555 C52.52311,7.50725704 52.8032845,7.70905909 53.0293261,7.964528 C53.2564651,8.22183481 53.429471,8.5302354 53.5446864,8.88458364 C53.6496604,9.18857326 53.7103771,9.52086662 53.7257391,9.87558244 L48.0161767,9.87558244 Z M55.9766455,11.3822976 C56.0743042,11.225708 56.1196588,10.9706067 56.1196588,10.5795004 C56.1196588,9.72193352 55.9879841,8.94560211 55.728658,8.27403133 C55.4751842,7.59804958 55.1174679,7.02057958 54.6650189,6.55816248 C54.2114726,6.09464264 53.6635594,5.73808892 53.038836,5.49952875 C52.4221594,5.25324937 51.7381823,5.12827178 51.0055588,5.12827178 C50.1335794,5.12827178 49.3354843,5.28522893 48.6335849,5.59436469 C47.9309539,5.90386802 47.3259817,6.33467314 46.8351275,6.87612019 C46.354149,7.41462658 45.9785103,8.05715845 45.7188185,8.78423398 C45.4598582,9.50211998 45.3285492,10.2887437 45.3285492,11.1227853 C45.3285492,12.1556884 45.4711968,13.0853011 45.753566,13.8888335 C46.0443477,14.6864846 46.4518078,15.3687153 46.9664365,15.9171464 C47.4880147,16.4571231 48.108349,16.875798 48.8128088,17.1617762 C49.5209262,17.4385648 50.2970756,17.5786132 51.1204084,17.5786132 C51.5494485,17.5786132 51.9883643,17.5429578 52.4250855,17.4723822 C52.8713165,17.4014391 53.3080377,17.290062 53.7224473,17.1404565 C54.1394172,16.9901158 54.5384648,16.7938274 54.9108117,16.5548997 C55.2835243,16.3082527 55.6171003,16.013085 55.9031271,15.677851 L56.0007858,15.5635333 L55.2688938,14.6184821 C55.1353903,14.4321185 54.9367809,14.3339743 54.6950114,14.3339743 C54.5201767,14.3339743 54.3307114,14.3997713 54.111985,14.5372467 C53.9419052,14.6486238 53.7231788,14.7736014 53.463487,14.9077685 C53.213305,15.0338488 52.9053324,15.1544155 52.5476161,15.2665277 C52.2074564,15.3760669 51.7930468,15.4312041 51.3157259,15.4312041 C50.8128016,15.4312041 50.35194,15.3499686 49.9463087,15.1900708 C49.5454323,15.0316434 49.1935682,14.7872019 48.9016892,14.4652008 C48.6127364,14.1387887 48.3815741,13.7245248 48.2140545,13.2349066 C48.060434,12.7783709 47.9664329,12.2431727 47.9331485,11.6418099 L55.3961794,11.6418099 C55.6672098,11.6418099 55.8614301,11.5557959 55.9766455,11.3822976 L55.9766455,11.3822976 Z" id="Fill-10"></path>
            <path d="M67.3235322,6.42987666 C66.9771545,6.01708302 66.5411648,5.69324402 66.0279991,5.46791677 C65.5239776,5.24258952 64.930344,5.12863936 64.2639236,5.12863936 C63.8443933,5.12863936 63.4424196,5.17716007 63.0719015,5.27199601 C62.7072357,5.35984791 62.3568346,5.48923647 62.0327685,5.65611832 C61.7156518,5.81564854 61.4106054,6.01303963 61.1264074,6.24351301 C60.938771,6.39532403 60.7544263,6.55926523 60.5762997,6.73313112 L60.4574267,5.92114434 L60.453769,5.9023977 C60.3568418,5.52231878 60.0854456,5.3131651 59.6896899,5.3131651 L58.1618973,5.3131651 L58.1618973,17.4172451 L60.7697884,17.4172451 L60.7697884,8.7000579 C61.1695675,8.27219343 61.6048256,7.92960779 62.0649556,7.68075534 C62.5408135,7.41977272 63.0565395,7.2874435 63.5975031,7.2874435 C64.3356131,7.2874435 64.8645066,7.49586202 65.2149077,7.92556439 C65.5682349,8.35159096 65.7470931,8.96839214 65.7470931,9.75979438 L65.7470931,17.4172451 L68.3666886,17.4172451 L68.3666886,9.75979438 C68.3666886,9.08197472 68.2789054,8.45341094 68.1055337,7.89174693 C67.9303332,7.32346646 67.6669837,6.83127528 67.3235322,6.42987666" id="Fill-12"></path>
            <path d="M79.0458747,14.3339743 C78.8549464,14.3339743 78.6709675,14.4119015 78.503448,14.5618746 C78.372139,14.6717814 78.2031565,14.7960238 78.001621,14.9309261 C77.807035,15.0614174 77.5557557,15.1874978 77.2591218,15.304021 C76.9665113,15.4113547 76.5853861,15.4661243 76.1267192,15.4661243 C75.6570793,15.4661243 75.2262103,15.3782724 74.8487428,15.2062444 C74.4709095,15.0272324 74.1450145,14.765147 73.8812993,14.4291778 C73.6131949,14.0792406 73.4032469,13.6451272 73.2573074,13.1393355 C73.1095391,12.6192082 73.0345577,12.0185806 73.0345577,11.3536263 C73.0345577,10.7110944 73.1058815,10.12517 73.2459688,9.61239433 C73.3849587,9.10623508 73.5875915,8.67212173 73.8469176,8.32438995 C74.1113643,7.97996641 74.4445745,7.71052942 74.8374041,7.52379819 C75.2320625,7.3363318 75.6969475,7.24112828 76.2185257,7.24112828 C76.6172075,7.24112828 76.9526123,7.28817867 77.2207167,7.3830146 C77.4983309,7.4708665 77.7335166,7.57048099 77.9270053,7.68259325 C78.1234201,7.78478081 78.2847216,7.88402772 78.4156648,7.9840098 C78.5831843,8.09648963 78.748875,8.15383229 78.907982,8.15383229 C79.0729412,8.15383229 79.1991295,8.11891208 79.2964224,8.04539585 C79.375793,7.98327464 79.4555294,7.90387711 79.5327054,7.80904117 L80.2294842,6.84009723 L80.1171949,6.72908772 C79.6047608,6.2221933 79.012956,5.82447049 78.3586058,5.5473143 C77.7031583,5.26942294 76.9365187,5.12863936 76.080633,5.12863936 C75.1702486,5.12863936 74.3483788,5.28927232 73.6402614,5.6057597 C72.9288521,5.91526304 72.3194907,6.3548901 71.8286366,6.91177556 C71.3469266,7.45983907 70.9749455,8.1225879 70.7229347,8.88311331 C70.4804337,9.63702227 70.3575373,10.4684908 70.3575373,11.3536263 C70.3575373,12.3251433 70.4965273,13.2088084 70.7704839,13.9803612 C71.0455378,14.7460328 71.4248341,15.4036355 71.8992289,15.935893 C72.3820362,16.4692533 72.9566501,16.8809442 73.6073427,17.1599383 C74.263156,17.4378296 74.9752968,17.5786132 75.7243797,17.5786132 C76.1537856,17.5786132 76.5817285,17.5429578 76.9957724,17.4723822 C77.4204234,17.4010715 77.8308096,17.2889592 78.2155924,17.1389861 C78.6029356,16.9879103 78.9716248,16.7905192 79.3099557,16.5534294 C79.659991,16.3133989 79.9789364,16.0178636 80.2569164,15.6741752 L80.3494545,15.5605926 L79.6197571,14.6184821 C79.4862535,14.4321185 79.2876441,14.3339743 79.0458747,14.3339743" id="Fill-14"></path>
            <path d="M84.6386856,0.646685532 C84.4828705,0.481641592 84.2948682,0.35409093 84.085286,0.269914845 C83.6562458,0.0802429669 83.1588079,0.0831836162 82.7568343,0.26844452 C82.5520069,0.35409093 82.3658335,0.480171268 82.2034347,0.643009721 C82.0501799,0.797026226 81.9254547,0.983022293 81.830722,1.1995276 C81.7451335,1.40610821 81.7016076,1.63180304 81.7016076,1.87073079 C81.7016076,2.10120418 81.7447677,2.32616385 81.8332824,2.54818287 C81.9258204,2.75108767 82.0494484,2.93487825 82.2070923,3.10212767 C82.3672965,3.25393869 82.5501781,3.37818112 82.7568343,3.47338464 C82.9623931,3.55939863 83.1836798,3.60277321 83.4137449,3.60277321 C83.6430783,3.60277321 83.8669254,3.55976621 84.085286,3.47191432 C84.296697,3.37818112 84.4817732,3.25283595 84.6353937,3.09845186 C84.795598,2.93745131 84.9239808,2.75219041 85.0183477,2.5456098 C85.1123488,2.33057482 85.1602638,2.10340966 85.1602638,1.87073079 C85.1602638,1.62959755 85.1119831,1.40169723 85.0183477,1.19585178 C84.9243466,0.981551968 84.7945007,0.794453158 84.6386856,0.646685532" id="Fill-16"></path>
            <polygon id="Fill-18" points="82.1266975 17.417098 84.7349544 17.417098 84.7349544 5.31338565 82.1266975 5.31338565"></polygon>
            <polygon id="Fill-20" points="87.6588649 17.417098 90.2784604 17.417098 90.2784604 0 87.6588649 0"></polygon>
            <path d="M101.160096,0.646795807 C101.004647,0.481751867 100.816279,0.354201204 100.606697,0.269657538 C100.177291,0.0799856601 99.679853,0.0832938906 99.2786109,0.268554795 C99.073052,0.354201204 98.8868786,0.480281542 98.7252113,0.643119995 C98.571225,0.797504082 98.4464998,0.983500148 98.3521329,1.19927029 C98.2665443,1.4058509 98.2230185,1.63154573 98.2230185,1.87084107 C98.2230185,2.10131445 98.2661785,2.32627412 98.3546932,2.54829314 C98.4468655,2.75046278 98.5701277,2.93425336 98.7285031,3.10187037 C98.8879759,3.25368138 99.0712232,3.37792382 99.2786109,3.47312734 C99.483804,3.55914133 99.7047249,3.60288348 99.9351557,3.60288348 C100.164123,3.60288348 100.388336,3.55950891 100.606697,3.47165701 C100.818474,3.3782914 101.003184,3.25257864 101.156439,3.09856213 C101.317009,2.93719401 101.445757,2.7519331 101.539393,2.54572007 C101.63376,2.33031751 101.681675,2.10315236 101.681675,1.87084107 C101.681675,1.62970783 101.633394,1.40180751 101.539393,1.19596206 C101.446123,0.982029823 101.315912,0.794931014 101.160096,0.646795807" id="Fill-21"></path>
            <polygon id="Fill-22" points="98.6482181 17.417098 101.256109 17.417098 101.256109 5.31338565 98.6482181 5.31338565"></polygon>
            <path d="M112.397876,11.3651316 C112.397876,12.6740881 112.135258,13.6981692 111.617337,14.4094387 C111.105269,15.1126215 110.345213,15.454472 109.294376,15.454472 C108.227079,15.454472 107.455685,15.1122539 106.936667,14.4094387 C106.418746,13.6981692 106.156128,12.6740881 106.156128,11.3651316 C106.156128,10.0561751 106.418746,9.03172637 106.936667,8.321192 C107.456416,7.60992245 108.227445,7.26439616 109.294376,7.26439616 C110.344848,7.26439616 111.104538,7.60955487 111.617337,8.32082441 C112.135258,9.03209396 112.397876,10.0561751 112.397876,11.3651316 M114.685359,8.79794476 C114.41762,8.03006772 114.025156,7.36695131 113.521135,6.82881249 C113.021868,6.27891108 112.403362,5.85509 111.685735,5.56984702 C110.976886,5.27688484 110.172207,5.12838205 109.294376,5.12838205 C108.408863,5.12838205 107.596503,5.27688484 106.881436,5.56911186 C106.169661,5.85509 105.552253,6.2785435 105.046037,6.826607 C104.540918,7.36621615 104.144797,8.02896497 103.869011,8.7972096 C103.602736,9.55258888 103.467769,10.4127288 103.467769,11.3537366 C103.467769,12.2943767 103.602736,13.1581925 103.869377,13.9223937 C104.144797,14.6899032 104.540918,15.352652 105.046037,15.8922611 C105.552619,16.432973 106.169296,16.8556913 106.882168,17.1497563 C107.597601,17.4346317 108.409229,17.5787235 109.294376,17.5787235 C110.171842,17.5787235 110.975789,17.4342641 111.685004,17.1493887 C112.403728,16.8556913 113.021136,16.4322378 113.519306,15.8922611 C114.025156,15.3519168 114.41762,14.6884328 114.685359,13.9209234 C114.951634,13.1578249 115.086235,12.2940092 115.086235,11.3537366 C115.086235,10.4127288 114.951268,9.55295646 114.685359,8.79794476" id="Fill-23"></path>
            <path d="M94.4261046,14.1537125 C93.4798754,14.1537125 92.7128701,14.9267357 92.7128701,15.8798736 C92.7128701,16.8333792 93.4798754,17.6064023 94.4261046,17.6064023 C95.3723338,17.6064023 96.1393391,16.8333792 96.1393391,15.8798736 C96.1393391,14.9267357 95.3723338,14.1537125 94.4261046,14.1537125" id="Fill-24"></path>
        </g>
    </g>
</svg>