<?xml version="1.0" encoding="UTF-8"?>
<svg width="106px" height="20px" viewBox="0 0 106 20" version="1.1" xmlns="http://www.w3.org/2000/svg" xmlns:xlink="http://www.w3.org/1999/xlink">
    <title>solute</title>
    <g id="Landing-Page" stroke="none" stroke-width="1" fill="none" fill-rule="evenodd">
        <g id="solute" transform="translate(0, 0.7188)" fill="#ffffff">
            <path d="M101.414209,13 L93,13 L93,4.58346031 C93,2.05500284 95.0573332,0 97.5830719,0 L101.414209,0 C103.942667,0 106,2.05733321 106,4.58346031 L106,8.41420932 C106,10.9426668 103.942667,13 101.414209,13 L101.414209,13 Z M94.9105196,11.0894804 L101.414209,11.0894804 C102.889725,11.0894804 104.086762,9.89011383 104.086762,8.41420932 L104.086762,4.58346031 C104.086762,3.11027457 102.887395,1.91090795 101.414209,1.91090795 L97.5830719,1.91090795 C96.1098862,1.91090795 94.9105196,3.11027457 94.9105196,4.58346031 L94.9105196,11.0867617 L94.9105196,11.0894804 Z" id="Fill-1"></path>
            <path d="M14.858534,8.88809713 C14.3665398,5.82026274 12.890557,4.66640949 9.39474762,4.66640949 L5.46378642,4.66640949 C1.88463377,4.66188296 0,5.97910032 0,8.42708997 L0,9.42171576 C0,10.7930135 0.708225936,11.9748408 1.93917177,12.5693471 C2.70462421,12.9717357 3.55073144,13.0795183 5.43536521,13.0795183 L8.95959579,13.0795183 C10.0530444,13.0795183 10.6518103,13.107504 10.9275728,13.1869228 C11.609682,13.3484076 11.9922162,13.77916 11.9922162,14.4250995 L11.9922162,14.9375398 C11.9922162,16.0936505 11.3078026,16.3909037 8.74105969,16.3909037 L6.20043357,16.3909037 C4.45137668,16.3909037 3.93326562,16.283121 3.46969257,15.8523686 C3.1416964,15.5577627 3.00650359,15.1527269 2.9231603,14.4273686 L0.00230442278,14.778324 C0.494298687,17.8438893 1.96797706,19 5.46609085,19 L9.48269976,19 C13.059548,19 14.9441818,17.6824045 14.9441818,15.2064291 L14.9441818,14.2378981 C14.9441818,12.8382365 14.2359558,11.6821258 13.0073144,11.0645502 C12.241862,10.6878782 11.4767936,10.5800955 9.50881655,10.5800955 L5.9842019,10.5800955 C4.86502057,10.5800955 4.29198744,10.5521099 4.01891334,10.4723129 C3.33449977,10.310828 2.95158152,9.85473726 2.95158152,9.23451433 L2.95158152,8.69635748 C2.95158152,7.56596338 3.63599508,7.2709793 6.202738,7.2709793 L8.66270932,7.2709793 C10.4117662,7.2709793 10.9298773,7.37876194 11.3934503,7.80913615 C11.7214465,8.10412022 11.8570234,8.50650876 11.9376782,9.23451433 L14.8608385,8.88355892 L14.858534,8.88809713 Z M31.9819316,10.0442078 C31.9819316,8.00125398 31.6255142,6.8428742 30.6987522,5.95565287 C29.7431849,5.04082404 28.5406603,4.66415207 26.5181452,4.66415207 L22.5015363,4.66415207 C20.4817097,4.66415207 19.2791851,5.04082404 18.3213134,5.95565287 C17.3918628,6.8428742 17.0377499,7.99898487 17.0377499,10.0442078 L17.0377499,13.6199443 C17.0377499,15.6628981 17.3945513,16.8212779 18.3213134,17.708121 C19.2764966,18.623328 20.4794053,19 22.5015363,19 L26.5181452,19 C28.5383558,19 29.7408805,18.623328 30.6987522,17.708121 C31.6278187,16.8212779 31.9819316,15.6651672 31.9819316,13.6199443 L31.9819316,10.0442078 Z M19.9635987,10.5800955 C19.9635987,8.91381369 20.0726747,8.34767118 20.5078265,7.89120223 C20.9448987,7.46044984 21.4630097,7.35531449 23.2385675,7.35531449 L25.7791936,7.35531449 C27.5543673,7.35531449 28.0747828,7.46309713 28.5099346,7.89120223 C28.9470068,8.34767118 29.0564669,8.91381369 29.0564669,10.5800955 L29.0564669,13.0817874 C29.0564669,14.7503384 28.9470068,15.3142118 28.5099346,15.7706807 C28.0724784,16.2010549 27.5543673,16.3088376 25.7791936,16.3088376 L23.2385675,16.3088376 C21.4630097,16.3088376 20.9448987,16.2010549 20.5078265,15.7706807 C20.0703702,15.3142118 19.9635987,14.7503384 19.9635987,13.0817874 L19.9635987,10.5800955 Z M37.2771111,0 L34.3562552,0 L34.3562552,13.6199443 C34.3562552,15.6628981 34.7103682,16.8212779 35.6394346,17.708121 C36.595002,18.623328 37.7975266,19 39.8200417,19 L43.4514279,19 L43.4514279,16.3111067 L40.5566888,16.3111067 C38.7815151,16.3111067 38.2610996,16.2037022 37.8259478,15.7729498 C37.4434136,15.3705613 37.3055323,14.8320263 37.2794155,13.6222134 L37.2794155,0 L37.2771111,0 Z M58.8330659,4.66188296 L55.9099056,4.66188296 L55.9099056,16.3088376 L50.4745404,16.3088376 C48.6989826,16.3088376 48.1785672,16.2010549 47.7437994,15.7706807 C47.3063431,15.3142118 47.1972671,14.7503384 47.1972671,13.0817874 L47.1972671,4.66188296 L44.2764112,4.66188296 L44.2764112,13.6199443 C44.2764112,15.6628981 44.6305242,16.8212779 45.5595907,17.708121 C46.515158,18.623328 47.7176826,19 49.7401977,19 L58.8353703,19 L58.8353703,4.66188296 L58.8330659,4.66188296 Z M69.2118021,16.3088376 C66.5355991,16.3625398 65.9318403,15.8780852 65.9318403,13.6199443 L65.9318403,7.35304538 L72.1349624,7.35304538 L72.4913798,4.66415207 L65.9341447,4.66415207 L65.9341447,0 L63.0132888,0 L63.0132888,4.66188296 L61.0195791,4.66188296 L61.0195791,7.35077627 L63.0132888,7.35077627 L63.0132888,13.6176752 C63.0132888,15.660629 63.3674018,16.8190088 64.2968523,17.7058519 C65.2520356,18.6210589 66.4545602,18.9977309 68.4770753,18.9977309 L73.7772477,18.9977309 L73.7772477,16.3088376 L69.2141065,16.3088376 L69.2118021,16.3088376 Z M77.9789785,10.2034236 C77.9789785,7.59394904 78.3615127,7.24299363 81.2585562,7.24299363 L83.7991824,7.24299363 C86.6939214,7.24299363 87.0791441,7.59394904 87.0791441,10.2034236 L77.981283,10.2034236 L77.9789785,10.2034236 Z M87.0764556,14.4250995 C86.9934964,15.1504578 86.8579195,15.5551154 86.5299234,15.8500995 C86.0663503,16.2808519 85.5459348,16.3882564 83.7991824,16.3882564 L81.2585562,16.3882564 C79.4833826,16.3882564 78.9368503,16.2808519 78.5278152,15.8500995 C78.090743,15.3940088 77.981283,14.8274881 77.981283,13.1612062 L77.981283,12.730832 L90,12.730832 L90,10.0419387 C90,7.91691879 89.645887,6.81224124 88.7164365,5.92539809 C87.7873701,5.03628583 86.5583446,4.66188296 84.5358295,4.66188296 L80.5219091,4.66188296 C78.499394,4.66188296 77.2707526,5.03855494 76.3413021,5.95338376 C75.4122356,6.8406051 75.0581227,7.99633758 75.0581227,10.0419387 L75.0581227,13.6176752 C75.0581227,15.6349124 75.4122356,16.7910231 76.3413021,17.7058519 C77.2707526,18.6210589 78.499394,18.9977309 80.5219091,18.9977309 L84.5358295,18.9977309 C88.0343274,18.9977309 89.5103102,17.8416202 90,14.7760549 L87.0791441,14.4250995 L87.0764556,14.4250995 Z" id="Fill-4"></path>
        </g>
    </g>
</svg>
