<?xml version="1.0" encoding="UTF-8"?>
<svg width="154px" height="37px" viewBox="0 0 154 37" version="1.1" xmlns="http://www.w3.org/2000/svg" xmlns:xlink="http://www.w3.org/1999/xlink">
    <title>Group</title>
    <g id="Landing-Page" stroke="none" stroke-width="1" fill="none" fill-rule="evenodd">
        <g id="Group" transform="translate(0, 0.4644)" fill="#000000" fill-rule="nonzero">
            <path d="M154,15.1688893 C153.842419,14.6625652 153.536904,14.2453001 153.082385,13.9179399 C152.620361,13.5852913 152.119746,13.3452977 151.58054,13.1973245 C151.041334,13.0500918 150.521424,12.9849371 150.020809,13.0029181 C149.520194,13.0216395 149.154649,13.0866885 148.924173,13.1973245 C148.230602,13.5673102 147.257244,14.2880314 146.007315,15.3600168 C144.75417,16.4327427 143.386323,17.7081251 141.904846,19.1867986 C140.422297,20.6654722 138.909733,22.2645127 137.370369,23.9839203 C135.829933,25.7025874 134.424567,27.3943888 133.153198,29.0576322 C134.308793,27.3195032 135.46546,25.7025874 136.619983,24.2051925 C137.774506,22.7077975 138.872213,21.3584814 139.912034,20.1562923 C140.951855,18.9550552 141.88555,17.9472725 142.713119,17.1338963 C143.540688,16.32052 144.166724,15.7105407 144.590157,15.3038526 C144.820632,15.1191771 144.820632,14.8971645 144.590157,14.6385553 C144.359681,14.3798403 144.030583,14.1302216 143.608223,13.8894876 C143.183718,13.649494 142.742062,13.4462029 142.280039,13.2794026 C141.818015,13.112708 141.451398,13.0296781 141.182331,13.0296781 C140.874673,13.0305242 140.316171,13.4103466 139.507898,14.1675586 C138.699625,14.9256168 137.794873,15.9056876 136.793644,17.1070305 C135.791342,18.3092196 134.742945,19.6398143 133.645237,21.0997664 C132.548601,22.5605648 131.5463,23.9839203 130.641548,25.3699388 C129.735725,26.7558515 128.994987,28.014099 128.418261,29.1414025 C127.840464,30.2695522 127.551029,31.1105345 127.551029,31.6653016 C127.551029,31.9239108 127.695746,32.2663961 127.984109,32.6909595 C128.273544,33.1155228 128.599426,33.5050761 128.966043,33.8564462 C129.330516,34.2078162 129.697134,34.4478098 130.063751,34.5770615 C130.428224,34.706419 130.706939,34.6234948 130.900968,34.3274428 L131.132515,33.8833119 C131.863606,32.7381332 132.816596,31.4351446 133.991487,29.9735002 C135.165305,28.513548 136.407731,27.0348744 137.717691,25.5366333 C139.026579,24.0400845 140.336539,22.6069981 141.645427,21.239701 C142.955387,19.8725097 144.148501,18.7069172 145.227985,17.7455679 C144.957846,18.1888526 144.553709,18.7435139 144.014503,19.4096574 C143.475297,20.0742143 142.945739,20.7403578 142.424756,21.4056551 C141.905918,22.0701063 141.443894,22.6996532 141.038686,23.2901707 C140.634549,23.8831209 140.433017,24.3085304 140.433017,24.5662934 C140.433017,24.8250084 140.528423,25.102339 140.72138,25.3975449 C140.914336,25.6935969 141.173755,25.9710333 141.501781,26.2287964 C141.827663,26.4882518 142.174985,26.7095239 142.541602,26.8941995 C142.907147,27.0796154 143.263045,27.1715301 143.610367,27.1715301 C143.918025,27.1715301 144.28357,27.0527497 144.708074,26.8111695 C145.131507,26.5712817 145.564587,26.2662392 146.007315,25.8961477 C146.450042,25.5277486 146.89277,25.1202143 147.33657,24.6760834 C147.777154,24.2329044 148.153419,23.8082353 148.46215,23.4008067 C148.731217,23.0688985 148.808399,22.8834825 148.692625,22.8460397 C148.576851,22.8094431 148.383895,22.8290107 148.1159,22.9013578 C147.844689,22.9762434 147.575622,23.0583214 147.307627,23.1510823 C147.036416,23.2438431 146.883123,23.2714493 146.844531,23.2348526 C146.766277,23.1608132 146.902418,22.9396468 147.248668,22.5695553 C147.594917,22.20031 148.037645,21.7383038 148.576851,21.1836426 C149.114986,20.6288756 149.713151,20.0383581 150.368131,19.4088112 C151.022039,18.7801105 151.627708,18.1798621 152.187281,17.6056333 C152.744711,17.0330968 153.199231,16.523917 153.544408,16.0806322 C153.8049,15.7466085 153.956049,15.4965667 154,15.329978 L154,15.1688893 L154,15.1688893 Z M131.393007,15.997708 C130.834505,15.4243254 130.189173,14.9257226 129.458082,14.5003131 C128.725919,14.0757497 127.964813,13.7431011 127.175836,13.5015209 C126.385786,13.2615273 125.682567,13.1964784 125.067251,13.3071145 C124.220386,13.4925304 123.285619,13.9545366 122.266166,14.6938733 C121.245641,15.4332101 120.224043,16.3490781 119.20459,17.4389388 C118.184065,18.5296456 117.211779,19.7399791 116.287732,21.0714199 C115.363685,22.4028607 114.562915,23.7148398 113.889712,25.0088378 C113.216508,26.303682 112.705173,27.5237463 112.359996,28.6697712 C112.013746,29.81495 111.917268,30.7762993 112.070561,31.5530789 C112.147744,31.9231704 112.475769,32.3201276 113.051423,32.7454313 C113.630292,33.1708409 114.274553,33.5596537 114.988491,33.9110238 C115.700286,34.2623939 116.412081,34.5388783 117.12602,34.7414291 C117.837815,34.9447203 118.367373,35.0277502 118.713623,34.991894 C119.521896,34.8805175 120.437367,34.4746756 121.457893,33.7710892 C122.478418,33.0699357 123.517167,32.1916163 124.576284,31.1375061 C125.6354,30.0841362 126.665573,28.9105052 127.667875,27.615661 C128.668033,26.3224034 129.534193,25.0568577 130.266355,23.8172258 C130.997446,22.5793919 131.565595,21.4146456 131.969732,20.3230926 C132.373869,19.2332319 132.518586,18.3548068 132.402812,17.6895094 C132.289182,17.1347424 131.951508,16.5710907 131.393007,15.997708 L131.393007,15.997708 Z M128.649809,17.439785 C128.225305,18.3824129 127.58962,19.5105626 126.742756,20.8225416 C125.895891,22.1344149 124.933253,23.5211737 123.854841,24.9812317 C122.775357,26.4427704 121.72696,27.7734708 120.706435,28.9739676 C119.685909,30.1760509 118.781158,31.1366599 117.99218,31.8581214 C117.202131,32.579583 116.69294,32.8479231 116.461392,32.661661 C116.191253,32.4770912 116.278084,31.904449 116.720812,30.9430996 C117.162468,29.9816445 117.799224,28.8454563 118.627865,27.5326311 C119.455433,26.2207578 120.397704,24.8428837 121.458965,23.4008067 C122.518081,21.959576 123.547182,20.647597 124.548412,19.4633889 C125.549642,18.2807673 126.445817,17.3381394 127.235867,16.6353992 C128.023772,15.9333995 128.572626,15.6560689 128.881357,15.8033016 C129.149352,15.9513805 129.072169,16.4970512 128.649809,17.439785 L128.649809,17.439785 Z" id="Shape"></path>
            <path d="M124.303541,0 L124.290723,0 C124.226631,0 124.170016,0.0043854441 124.120878,0.0123786314 C123.775848,0.0874754687 123.190471,0.538056815 122.364747,1.36246828 C121.539024,2.18771037 120.561615,3.25722619 119.429316,4.56936305 C118.297017,5.88314185 117.069648,7.38259958 115.746141,9.0710416 C114.422633,10.7586895 113.098057,12.5032258 111.77455,14.3038886 C110.451042,16.1045515 109.174536,17.896951 107.947166,19.6778676 C106.717661,21.4595354 105.634713,23.1199356 104.694585,24.6573512 C103.752854,26.1956253 102.996885,27.5556467 102.420801,28.736557 C101.844718,29.9183259 101.55705,30.7724575 101.55705,31.2964838 C101.55705,31.5597311 101.653295,31.8509879 101.844718,32.1695032 C102.036995,32.4881257 102.285994,32.7793826 102.593316,33.0417714 C102.899892,33.3042674 103.245884,33.5295247 103.629583,33.7168992 C104.01339,33.9041664 104.377435,33.9982829 104.723427,33.9982829 C105.029895,33.9982829 105.39394,33.8777666 105.817163,33.6326558 C106.238784,33.389262 106.67066,33.0797614 107.111829,32.7042611 C107.55193,32.3304779 107.994168,31.907973 108.435337,31.4383562 C108.875438,30.9704564 109.24931,30.5289565 109.558022,30.1154662 C109.826141,29.7788145 109.903052,29.5906887 109.787686,29.5526987 C109.67232,29.5155672 109.481111,29.5354207 109.212991,29.6088252 C108.942735,29.6846979 108.665001,29.7779559 108.377654,29.890209 C108.089238,30.0033205 107.925802,30.0412032 107.888415,30.0033205 C107.771981,29.890209 107.953576,29.3843192 108.434269,28.4840414 C108.913893,27.5827978 109.615705,26.4110094 110.53543,24.9668518 C111.457292,23.5226943 112.569295,21.8820403 113.873575,20.0426362 C115.177855,18.2048419 116.588956,16.2926772 118.10474,14.3038886 C119.620525,12.3158513 121.203607,10.3287154 122.852917,8.33905751 C124.502228,6.35105233 126.133379,4.47610504 127.74637,2.71256297 C128.052946,2.37504198 128.081787,2.03752099 127.831827,1.7 C127.581867,1.36246828 127.229359,1.05300732 126.767893,0.771599962 C126.307497,0.491017865 125.808644,0.284708415 125.271336,0.152669465 C124.857941,0.05154667 124.535342,0.000908659176 124.303541,0 L124.303541,0 Z M104.953518,13.2912506 C104.148198,14.0793826 103.235949,15.0919134 102.219444,16.3298087 C101.202939,17.5677041 100.147765,18.9375986 99.053174,20.4378827 C97.958583,21.9381668 96.9519053,23.4013194 96.0306842,24.8264819 C95.1094631,26.2516445 94.3517844,27.5464175 93.7567934,28.7084401 C93.1619094,29.8712139 92.8651616,30.7335017 92.8651616,31.2963765 C92.8651616,31.5596238 92.961407,31.8508806 93.1528296,32.1695032 C93.3451067,32.4880184 93.6039331,32.7792753 93.9294156,33.0417714 C94.2547912,33.3041601 94.5999287,33.5294173 94.9665371,33.7167919 C95.3305818,33.9049176 95.6855468,33.9981756 96.0306842,33.9981756 C96.3371526,33.9981756 96.7011973,33.8777666 97.1244207,33.6326558 C97.5468962,33.3891547 97.9881723,33.0796541 98.4483556,32.7042611 C98.9085388,32.3303706 99.3498149,31.9078657 99.7714359,31.4383562 C100.193805,30.9703491 100.577504,30.5288492 100.922642,30.1154662 C101.190548,29.7787072 101.257952,29.5905814 101.123999,29.5525914 C100.989298,29.5154599 100.787941,29.5353134 100.520035,29.6087179 C100.251274,29.6846979 99.9826203,29.7779559 99.7147141,29.8901016 C99.4459534,30.0032132 99.2914908,30.0412032 99.2536763,30.0032132 C99.0999614,29.8538287 99.2249415,29.4032069 99.6275485,28.6523136 C100.030262,27.9021716 100.577504,26.9927719 101.268634,25.9232561 C101.958909,24.8537403 102.755257,23.7099615 103.656716,22.4910612 C104.558175,21.2721608 105.431754,20.1085285 106.276492,19.0018812 C107.119307,17.8960924 107.877733,16.9198346 108.550703,16.0764346 C109.220468,15.232176 109.673388,14.6792816 109.903052,14.4160343 C110.094261,14.1916356 110.085716,13.9472761 109.874211,13.6848873 C109.662706,13.4232498 109.365744,13.1782463 108.982258,12.9537403 C108.597704,12.7284831 108.176831,12.5312354 107.716434,12.3628559 C107.254969,12.1937251 106.89071,12.1094817 106.622591,12.1094817 C106.315161,12.1094817 105.758839,12.5031185 104.953518,13.2912506 L104.953518,13.2912506 Z M111.803391,10.6463613 C112.379154,10.2716981 112.953849,9.84010353 113.530681,9.35238243 C114.105376,8.86548766 114.613842,8.36787198 115.055011,7.86117732 C115.49618,7.35447194 115.718367,6.9517562 115.718367,6.65136671 C115.718367,6.27671422 115.593387,5.95816678 115.343427,5.69491951 C115.093467,5.43331418 114.777278,5.21627738 114.393792,5.04793005 C114.009237,4.87875639 113.59691,4.75744587 113.156809,4.68234581 C112.715639,4.60724575 112.302244,4.58909854 111.918758,4.62623004 C111.650638,4.66418787 111.322698,4.8424405 110.941349,5.16016161 C110.556795,5.47952465 110.143399,5.84593523 109.703298,6.25772994 C109.26106,6.67035099 108.829505,7.11103529 108.408632,7.57977211 C107.984554,8.04932454 107.603204,8.47185089 107.257105,8.84568777 C106.949462,9.18320876 106.891779,9.51247712 107.084056,9.83019822 C107.275265,10.149572 107.58184,10.4210719 108.005918,10.6463613 C108.426791,10.8708352 108.877574,11.0499463 109.358267,11.1803358 C109.836823,11.3123351 110.210696,11.3403447 110.480952,11.2653305 C110.785391,11.228199 111.22656,11.0218294 111.803391,10.6463613 L111.803391,10.6463613 Z M96.1465846,13.8541254 C95.9172407,13.6288681 95.6379048,13.375494 95.3116746,13.0949688 C94.9854443,12.8143362 94.6583596,12.5610694 94.3337317,12.3349536 C94.0075015,12.1104476 93.6713369,11.9321949 93.3261995,11.8009469 C92.981062,11.6698062 92.6540841,11.6425478 92.3475089,11.7168108 C91.1198194,11.9413168 89.8632883,12.5139575 88.5771679,13.4333375 C87.2920089,14.3526103 86.0445576,15.450243 84.8356685,16.7244113 C83.6268862,18.0001894 82.4845464,19.3792059 81.4105718,20.8604949 C80.3356358,22.3426425 79.396362,23.7678051 78.5901867,25.1368411 C77.7848659,26.5067357 77.1504582,27.744631 76.6902749,28.8512783 C76.2300916,29.9579256 76,30.7740673 76,31.2980936 C76,31.5613408 76.0961386,31.852705 76.2875611,32.1712203 C76.4790905,32.4897355 76.7387715,32.7810997 77.0650017,33.0434884 C77.3903773,33.3058772 77.7356216,33.5312417 78.1012686,33.7185089 C78.4653133,33.906742 78.8202783,34 79.1662703,34 C79.3199852,34 79.6166261,33.8307619 80.0579021,33.4941102 C80.4991781,33.1557414 81.0176855,32.7059782 81.6126764,32.1432107 C82.2076673,31.5803358 82.879035,30.9243103 83.627634,30.1733098 C84.3754852,29.4240263 85.1331639,28.6358942 85.9015247,27.8106306 C85.4783014,28.5616312 85.1529257,29.2366517 84.9235819,29.8357995 C84.6927425,30.436557 84.5776966,30.9243103 84.5776966,31.2980936 C84.5776966,31.5613408 84.6729807,31.852705 84.8661124,32.1712203 C85.0567872,32.4897355 85.3172159,32.7810997 85.6426983,33.0434884 C85.968074,33.3058772 86.3132114,33.5312417 86.6789653,33.7185089 C87.04301,33.906742 87.3988295,34 87.743967,34 C88.0504354,34 88.4144801,33.8794836 88.8377034,33.6343728 C89.2593244,33.3909791 89.701455,33.0814784 90.1616383,32.7059782 C90.6218216,32.3321949 91.0630976,31.9095827 91.4846118,31.4400732 C91.9070874,30.9721735 92.2900394,30.5306736 92.6359246,30.1171833 C92.9038307,29.7805315 92.9712345,29.5922985 92.8372815,29.5544158 C92.7024738,29.5172843 92.5012238,29.5370305 92.2333176,29.6105423 C91.9645569,29.686415 91.6950485,29.779673 91.4271423,29.891926 C91.1592362,30.0049302 91.0047735,30.0429203 90.966959,30.0049302 C90.8123896,29.8555457 90.9093827,29.4240263 91.2553747,28.7110157 C91.6005122,27.9987564 92.09851,27.1454832 92.7509704,26.1502304 C93.4035376,25.1575532 94.1414545,24.0780569 94.9672848,22.9152831 C95.7923674,21.7533678 96.5887152,20.6558424 97.3553669,19.6234581 C98.1229799,18.5919323 98.8239369,17.6824254 99.4566355,16.8944006 C100.090295,16.1062685 100.540544,15.5632473 100.809305,15.26201 C101.000728,15.0376113 100.9909,14.7932517 100.78057,14.530863 C100.569386,14.2684742 100.262811,14.024222 99.8593493,13.7997159 C99.4566355,13.5744587 99.0342667,13.377211 98.5929907,13.2088315 C98.1517147,13.040452 97.7966429,12.9554574 97.5287367,12.9554574 C97.2198115,12.9538476 96.7596282,13.2542264 96.1465846,13.8541254 L96.1465846,13.8541254 Z M82.3029513,28.3710372 C82.7056651,27.5465248 83.2899739,26.562111 84.0590825,25.4166151 C84.8266955,24.2728363 85.708393,23.0630579 86.7068455,21.7880311 C87.7044433,20.5130042 88.7300282,19.3403573 89.786057,18.2708415 C90.8412312,17.2021842 91.8577363,16.3216527 92.8372815,15.6267786 C93.8159721,14.9327631 94.6509889,14.6232624 95.3412639,14.6983839 C94.4200427,15.6746418 93.3739483,16.902664 92.204476,18.383953 C91.0335083,19.8661006 89.9109303,21.4133893 88.8368488,23.0259264 C88.0315281,23.8890727 87.2246051,24.7333312 86.4192843,25.5577363 C85.6138568,26.3838583 84.8850196,27.1240199 84.2324524,27.7801528 C83.5792442,28.4370368 83.0425774,28.9527997 82.6202086,29.3274414 C82.1978398,29.7029417 81.9677482,29.8713213 81.9299337,29.8333312 C81.7753642,29.6848053 81.9003444,29.1961934 82.3029513,28.3710372 Z" id="Shape"></path>
            <path d="M81.1838677,7.79107281 C80.5685487,7.79107281 80.0776426,7.93003374 79.7136118,8.20876346 C79.3471185,8.48749318 79.010176,8.83161628 78.7029983,9.24031428 C78.3948569,9.68579074 78.1733335,10.1042999 78.0390704,10.4941941 C77.9039508,10.8840883 78.1057737,11.0794181 78.6444321,11.0794181 L80.4911386,11.0794181 C79.029127,12.9373682 77.5283567,14.9244681 75.9906481,17.0423122 C74.4519758,19.1602626 73.0484232,21.1857354 71.7791337,23.1172424 C70.5098442,25.0494935 69.4711788,26.7587353 68.6631376,28.2439049 C67.855953,29.7299248 67.4515577,30.7345296 67.4515577,31.2535736 C67.4515577,31.514318 67.5479188,31.802912 67.7398915,32.1183989 C67.9326136,32.4338858 68.1911825,32.7224798 68.5190243,32.9823739 C68.8452601,33.2422679 69.1911963,33.4654898 69.5576896,33.6509765 C69.9225769,33.8373137 70.2783634,33.929685 70.6251562,33.929685 C70.932441,33.929685 71.2973283,33.8104207 71.7215312,33.5676404 C72.144021,33.3264544 72.5871748,33.0200027 73.0484232,32.6480725 C73.5096715,32.2777368 73.9519689,31.8592489 74.3754223,31.3942034 C74.7979121,30.9306459 75.1833564,30.4933436 75.5292927,30.0838909 C75.7978189,29.7503337 75.8653787,29.5639966 75.7311156,29.5263677 C75.596103,29.4895893 75.3942801,29.509254 75.1257539,29.5819606 C74.8563711,29.6572183 74.5870955,29.7495896 74.3185693,29.8607754 C74.0491865,29.9727052 73.8943664,30.010334 73.8564644,29.9727052 C73.6637422,29.824741 73.8943664,29.1643231 74.5483369,27.9937901 C75.2023074,26.8232571 76.1158104,25.3471227 77.2894883,23.5634736 C78.4624168,21.7799308 79.8561191,19.8002716 81.4722015,17.6275787 C83.0881767,15.4532913 84.7800631,13.2716695 86.5492525,11.078674 L88.6257266,11.078674 C89.2023941,11.078674 89.6933003,10.9028602 90.0968391,10.5489578 C90.5004849,10.1958421 90.8752224,9.81575902 91.2220152,9.40706102 C91.5291929,8.99836302 91.7697744,8.62645411 91.9435456,8.29213152 C92.1157107,7.95781955 91.8940802,7.79025433 91.2788683,7.79025433 L89.3177062,7.79025433 L90.7022008,6.28543062 C90.8941734,6.06228315 90.8850727,5.82115037 90.6742561,5.56040596 C90.4617263,5.30128788 90.1545486,5.05933662 89.7509028,4.83618915 C89.347257,4.61386016 88.9231612,4.4184985 88.4816133,4.25093328 C88.0393159,4.08336806 87.6826729,4 87.4141467,4 C87.1061124,4 86.5773043,4.3441231 85.8269727,5.03073233 C85.0773906,5.71897853 84.2017896,6.63854637 83.2018828,7.78943585 L81.1838677,7.78943585 L81.1838677,7.79107281 Z M63.3570685,22.2262683 C62.4337152,23.5275455 61.606723,24.7618562 60.876199,25.9323892 C60.1447114,27.1029222 59.5491999,28.1622695 59.0879516,29.1087302 C58.6258467,30.0568917 58.396079,30.7721584 58.396079,31.2544239 C58.396079,31.5151684 58.4915836,31.8037624 58.6844128,32.1192493 C58.8762784,32.4347362 59.1357038,32.7233302 59.4627962,32.9832242 C59.7889249,33.2431183 60.1348611,33.4663402 60.5013544,33.6518269 C60.8662417,33.838164 61.2229918,33.9305354 61.5689281,33.9305354 C61.8769623,33.9305354 62.2409931,33.8112711 62.6651959,33.5684907 C63.0877928,33.3273048 63.5308396,33.0208531 63.992088,32.6489229 C64.4541929,32.2785872 64.8957407,31.8600993 65.3190871,31.3950537 C65.7415769,30.9316026 66.1262717,30.4943003 66.4730645,30.0847413 C66.7415907,29.751184 66.8091505,29.5648469 66.6748874,29.5273244 C66.5397678,29.4904396 66.3379449,29.5101044 66.0694187,29.582811 C65.7992864,29.6580686 65.5307602,29.75044 65.262234,29.8616257 C64.9921018,29.9735555 64.8380312,30.0111844 64.8001291,29.9735555 C64.6461656,29.8255913 64.7713279,29.3793602 65.1749737,28.6354998 C65.5785125,27.8924899 66.1271282,26.9917365 66.8198573,25.9323892 C67.5117298,24.8730419 68.3098137,23.7401378 69.2142159,22.5328263 C70.1177616,21.3255148 70.9826558,20.1730522 71.8105046,19.0769265 C72.6366402,17.9815448 73.3869718,17.0145689 74.0598933,16.1791876 C74.7320653,15.3430622 75.2040205,14.7953183 75.4732962,14.5345738 C75.6652688,14.3490871 75.6554186,14.1259715 75.4444949,13.8659712 C75.2328217,13.6060771 74.9337812,13.355112 74.5507995,13.113182 C74.1653551,12.871996 73.7518591,12.6676949 73.3104183,12.5001722 C72.8680138,12.3325432 72.5113708,12.249207 72.2428446,12.249207 L72.1852421,12.249207 C71.7231372,12.249207 70.8385425,12.7698455 69.531351,13.8096342 C68.2233029,14.8501671 66.7514409,16.1882228 65.1181207,17.8222069 C63.4830874,19.4577855 61.8003017,21.2691779 60.0697639,23.2561715 C58.3384765,25.2441217 56.7808532,27.1665936 55.3962516,29.0245437 C56.5502291,27.2042224 57.7421085,25.5040158 58.973496,23.9248804 C60.204027,22.3464892 61.3580044,20.924991 62.4354283,19.6613426 C63.5118886,18.3984382 64.4740004,17.3300558 65.3199436,16.457152 C66.1650303,15.5849922 66.8000498,14.9432825 67.2242526,14.5338298 C67.4548768,14.3482367 67.4548768,14.1251211 67.2242526,13.8651208 C66.9936285,13.6052268 66.6657867,13.3542616 66.2431898,13.1123316 C65.8198435,12.871252 65.3775461,12.6668445 64.9162978,12.4993218 C64.4541929,12.3316928 64.0885561,12.2483566 63.8200299,12.2483566 C63.357925,12.2483566 62.4733303,12.7689951 61.1661388,13.8087838 C59.8580907,14.8493167 58.3869783,16.1873724 56.7529085,17.8213565 C55.1178752,19.4569351 53.4350896,21.2683275 51.7045517,23.2554274 C49.9731573,25.2432714 48.4156411,27.1658495 47.0310395,29.0237996 C48.1850169,27.203372 49.3768964,25.5032717 50.6082839,23.9240301 C51.8388148,22.3456388 52.9927922,20.9241406 54.0701091,19.6604922 C55.1466764,18.3975879 56.1087883,17.3293117 56.9546244,16.4563016 C57.799711,15.5841418 58.4348376,14.9425384 58.8590405,14.5329794 C59.0896646,14.3473864 59.0896646,14.1242708 58.8590405,13.8643767 C58.6284163,13.6043764 58.3005745,13.3535175 57.8779776,13.1114812 C57.4546313,12.8704016 57.0131905,12.6661004 56.5510856,12.4984714 C56.0889807,12.3309487 55.7232369,12.2475063 55.4547107,12.2475063 C55.1466764,12.2475063 54.5981678,12.629322 53.8106836,13.390296 C53.0215935,14.1521204 52.1171913,15.1370603 51.09919,16.3443718 C50.0794757,17.5524273 49.0309601,18.889739 47.9543927,20.3569445 C46.8769688,21.8250004 45.8861628,23.2554274 44.9833666,24.6482256 C44.0789643,26.0411301 43.3286328,27.3056289 42.7331213,28.4385331 C42.1367533,29.5721814 41.8385693,30.4174482 41.8385693,30.9748651 C41.8385693,31.2347592 41.9826826,31.578946 42.2710164,32.0056187 C42.5593502,32.4322914 42.8953291,32.82378 43.2808805,33.1768958 C43.6647188,33.5300115 44.0394563,33.7711975 44.4059496,33.9011976 C44.7708369,34.0310915 45.0303694,33.9477553 45.1851895,33.6502325 C45.261743,33.5022682 45.3384036,33.3910825 45.4158137,33.3159311 C46.0697842,32.2769927 46.8869261,31.1056094 47.8678819,29.8043321 C48.8488377,28.5039052 49.8957472,27.1764791 51.0118226,25.819609 C52.1271486,24.4643333 53.2711687,23.1540209 54.4449537,21.8903725 C55.6178821,20.6274681 56.7240002,19.4937136 57.7626655,18.4908096 C56.8393123,19.680157 55.9250598,20.9061766 55.0215141,22.1690809 C54.1171119,23.4327294 53.3099272,24.6400408 52.5991037,25.7917594 C51.8865671,26.9443284 51.3100066,27.975082 50.8677093,28.8856146 C50.4245554,29.7954032 50.2037815,30.4925996 50.2037815,30.9757155 C50.2037815,31.2356095 50.3480019,31.5797964 50.6362286,32.0064691 C50.9245623,32.4331418 51.2515476,32.8246304 51.6172914,33.1777462 C51.9821787,33.5308619 52.347066,33.7720478 52.7135593,33.9019417 C53.0784465,34.0319419 53.3576795,33.9486057 53.5504017,33.6509765 L54.0125066,32.8711881 C54.7043791,31.8315056 55.5313713,30.6789367 56.493376,29.4144379 C57.4546313,28.1516398 58.4841959,26.8707715 59.5805708,25.5694942 C60.6768387,24.268961 61.7920575,23.0060567 62.9270839,21.7800371 C64.0605043,20.5530608 65.1279709,19.4577855 66.1287343,18.49166 C65.203775,19.6817514 64.2804217,20.9258414 63.3570685,22.2262683 L63.3570685,22.2262683 Z M45.0681643,13.977901 C44.8375402,13.7547854 44.5575577,13.5038202 44.2313219,13.2259622 C43.9043367,12.9472537 43.5764949,12.6971389 43.2503662,12.4731729 C42.9233809,12.2508014 42.5864383,12.0742436 42.2405021,11.9442434 C41.8945658,11.8143495 41.5675805,11.7873503 41.2604028,11.8609072 C40.0290153,12.0832787 38.7695761,12.6504749 37.4813355,13.5611139 C36.1922385,14.4716465 34.9427565,15.5588434 33.7311766,16.8208973 C32.5194895,18.0845458 31.3746129,19.4504511 30.2980455,20.9176566 C29.2207287,22.3857125 28.279281,23.7973251 27.4712398,25.1533448 C26.6640552,26.510215 26.0289286,27.7363409 25.5669308,28.8324666 C25.1056824,29.9285923 24.8749512,30.7369744 24.8749512,31.2560184 C24.8749512,31.5167628 24.9714193,31.8053568 25.1632849,32.1208437 C25.3551505,32.4363306 25.614683,32.7249246 25.9425248,32.9848187 C26.2686536,33.2447127 26.6145898,33.4679346 26.9811902,33.6534213 C27.3460775,33.8398648 27.701864,33.9322361 28.0486568,33.9322361 C28.2018709,33.9322361 28.4999478,33.7646071 28.9423522,33.4311561 C29.3846496,33.0960044 29.9035004,32.6505173 30.500725,32.0931004 C31.0962364,31.5355772 31.7700145,30.885789 32.5194895,30.1419286 C33.2699282,29.399769 34.0293606,28.6191302 34.7986432,27.801713 C34.3752968,28.5455733 34.0483116,29.214176 33.8176874,29.8076273 C33.5869561,30.402673 33.4716441,30.885789 33.4716441,31.2560184 C33.4716441,31.5167628 33.5672557,31.8053568 33.7599778,32.1208437 C33.9518434,32.4363306 34.2113759,32.7249246 34.5383612,32.9848187 C34.8644899,33.2447127 35.2112827,33.4679346 35.5770265,33.6534213 C35.9419138,33.8398648 36.2977003,33.9322361 36.6444931,33.9322361 C36.9516708,33.9322361 37.3165581,33.8128655 37.740761,33.5700852 C38.1633578,33.3290056 38.6065117,33.0224475 39.0677601,32.6505173 C39.529865,32.2802879 39.9713058,31.8616937 40.3946521,31.3966482 C40.817249,30.933197 41.2018367,30.4958947 41.5486295,30.0863357 C41.8171557,29.7528848 41.8847156,29.5664414 41.7504525,29.5289188 C41.6153328,29.4921404 41.413617,29.5116989 41.1450908,29.5845117 C40.875708,29.6596631 40.6055758,29.7520344 40.3370496,29.8632202 C40.0676668,29.97515 39.9137033,30.0127788 39.8758012,29.97515 C39.7217306,29.8271858 39.8180917,29.399769 40.1640279,28.6935375 C40.5099642,27.9880501 41.0099711,27.1428896 41.6639416,26.1570992 C42.3171627,25.17386 43.057644,24.1046272 43.8853856,22.9529086 C44.7115213,21.8020404 45.5097122,20.7149498 46.2798513,19.6923811 C47.0491339,18.6706626 47.7509638,17.7698029 48.3859833,16.9892704 C49.0210028,16.2086316 49.4724009,15.6707732 49.7417836,15.3724 C49.9336492,15.1501347 49.923799,14.9080984 49.7128753,14.6482044 C49.5012021,14.3883104 49.1931679,14.1463804 48.7895221,13.9240089 C48.3859833,13.7008933 47.962637,13.505521 47.5203396,13.3387424 C47.0779352,13.1712196 46.7212921,13.0877772 46.4527659,13.0877772 C46.1447317,13.0861827 45.6826268,13.3837056 45.0681643,13.977901 L45.0681643,13.977901 Z M31.1925975,28.3567914 C31.5961363,27.5401182 32.1826541,26.5650638 32.9519366,25.4304589 C33.7212192,24.2975547 34.6050645,23.0992784 35.6058278,21.836374 C36.6057346,20.5734697 37.6336931,19.4119719 38.6929155,18.3526246 C39.7505318,17.2941277 40.7694967,16.421968 41.7504525,15.7337005 C42.7314082,15.0462834 43.5682506,14.7397254 44.2602302,14.8141327 C43.336877,15.7811086 42.2882543,16.9974552 41.1161824,18.4646607 C39.9425045,19.9327166 38.8173283,21.4652942 37.740761,23.0624999 C36.9335764,23.9174397 36.1255352,24.7536714 35.3176011,25.5702383 C34.5103094,26.3885059 33.7789288,27.1216303 33.1249583,27.7715249 C32.4701313,28.4221635 31.9322223,28.9330227 31.5097325,29.3041025 C31.0855297,29.6760327 30.855655,29.8428113 30.81786,29.8051825 C30.6629328,29.6580686 30.7889517,29.1741023 31.1925975,28.3567914 L31.1925975,28.3567914 Z M20.7500547,14.089193 C19.6915818,14.8697255 18.6529164,15.7892934 17.6349152,16.8478966 C16.6152009,17.9072438 15.653089,19.0687417 14.7503999,20.331646 C13.8459976,21.5952944 13.0964155,22.867978 12.5001546,24.1496968 C11.9029301,25.4305652 11.470483,26.6950639 11.2019568,27.9390476 C10.9326811,29.1839879 10.9326811,30.3275217 11.2019568,31.3664601 C11.3172688,31.7759128 11.585795,32.1470989 12.0092484,32.4814002 C12.4317382,32.8157015 12.9127941,33.1034452 13.4514526,33.3453752 C13.9893615,33.5873052 14.5477204,33.7630127 15.1243879,33.8741984 C15.7016978,33.9862345 16.1629462,34.023013 16.5089895,33.9862345 C17.0080328,33.9486057 17.6242084,33.7630127 18.355589,33.4287113 C19.0853635,33.0935596 19.8358022,32.6668869 20.6059413,32.1470989 C21.3743674,31.6263541 22.1346563,31.0410876 22.8849879,30.3912993 C23.6353195,29.7414048 24.3173417,29.0638733 24.9335173,28.3576417 C25.3173556,27.9121547 25.4425179,27.6325958 25.3082548,27.5222604 C25.1731352,27.4102243 24.8561072,27.5410749 24.3561003,27.9128987 C23.5859612,28.4336435 22.8273854,28.9347234 22.0769467,29.416989 C21.3274717,29.900849 20.6248923,30.3193369 19.9708148,30.6716022 C19.3168443,31.024718 18.7304336,31.3035328 18.2114756,31.5069836 C17.6925177,31.711391 17.2782721,31.8135416 16.9709874,31.8135416 C15.9702241,31.7391343 15.5863858,31.0803109 15.8170099,29.8346265 C16.0476341,28.5905366 16.6431456,27.075923 17.6052574,25.2923802 C18.1430593,25.7010888 18.7493846,26.0827982 19.4230556,26.4343195 C20.0952276,26.7881794 20.7402044,26.8903299 21.3562729,26.7407713 C22.3175282,26.5185061 23.336386,25.9242044 24.4137028,24.9572285 C25.4902702,23.9911029 26.5001343,22.9227205 27.443188,21.7521875 C28.3854923,20.5817608 29.1638756,19.4398214 29.7799441,18.3248813 C30.3944066,17.2107916 30.7222484,16.3745599 30.7601504,15.817143 C30.7980524,15.3716559 30.5674283,14.9073544 30.0682779,14.4234944 C29.568271,13.9412288 28.9522025,13.522741 28.2215714,13.1696252 C27.4909403,12.8172535 26.7118074,12.5565091 25.8848153,12.3898368 C25.0578231,12.2222078 24.3561003,12.2320933 23.7786833,12.4175801 C22.817428,12.7518814 21.807671,13.3085543 20.7500547,14.089193 L20.7500547,14.089193 Z M19.9716713,21.9754094 C20.6644004,21.1391777 21.4040252,20.3128316 22.1931153,19.4954143 C22.9805995,18.6788474 23.7795399,17.9260582 24.587581,17.2377908 C25.3947657,16.5503737 26.1252897,15.9839216 26.7801167,15.5375841 C27.2792671,15.2409116 27.5495064,15.1288755 27.5874084,15.2032828 C27.6252034,15.2784342 27.5296988,15.5196201 27.2990747,15.9274784 C26.7604162,16.8193029 26.0676872,17.7575789 25.2226005,18.7417747 C24.3758008,19.7267147 23.5101571,20.6283185 22.626419,21.4448854 C21.7409677,22.263153 20.9048748,22.9406846 20.1166412,23.4793934 C19.327551,24.0181022 18.7032383,24.3065899 18.24199,24.3433683 C18.7015252,23.6012087 19.2789422,22.8115348 19.9716713,21.9754094 L19.9716713,21.9754094 Z" id="Shape"></path>
            <path d="M4.16458819,36 C4.46277944,35.8956317 4.89330251,35.6618552 5.45614667,35.2986707 C6.24501571,34.7898885 6.97700886,34.2437626 7.65047599,33.657055 C8.32311805,33.0735852 8.79545154,32.5731137 9.06500126,32.1572593 C9.33373663,31.7422683 9.10292209,31.6294814 8.37257907,31.8186828 C7.64058592,32.0078841 7.38092626,31.5256528 7.59277503,30.3753345 C7.80379873,29.2250163 8.40143491,27.6871213 9.38237259,25.7625131 C10.3641246,23.8386603 11.6921252,21.6599848 13.3662566,19.2264864 C15.0404951,16.793096 17.0130427,14.3505315 19.2848638,11.8979943 C19.4769861,11.6714168 19.5535992,11.4265776 19.5156677,11.1618144 C19.4769861,10.8987242 19.3714421,10.6240099 19.1982856,10.341816 C19.0252363,10.0588019 18.7944325,9.78574974 18.5058741,9.52098659 C18.2174229,9.25789635 17.9190067,9.03131884 17.6114825,8.84208512 C19.5354906,8.8055616 21.4024943,8.83295424 23.2119577,8.92673464 C25.0204567,9.0213569 26.6567637,9.16327409 28.1199142,9.35167675 C28.5040515,9.3898516 28.8411494,9.16327409 29.1305649,8.67277529 C29.4198733,8.18309675 29.6407121,7.59797569 29.7949028,6.91824317 C29.9482362,6.23933091 30.0158487,5.56956033 29.9968829,4.9097409 C29.9770599,4.24992146 29.8328343,3.76937381 29.5640989,3.46643581 C29.3316878,3.24068936 28.6391692,3.09959243 27.4844001,3.04233555 C26.3295237,2.98588815 24.8951969,2.98588815 23.1830268,3.04233555 C21.4693567,3.09877217 19.6121038,3.23155848 17.6114825,3.43905396 C15.609254,3.64653864 13.6564222,3.90133985 11.7506298,4.20261573 C9.8448053,4.50472267 8.10302935,4.86325543 6.52446621,5.2782356 C4.94589235,5.69321576 3.75311662,6.14638157 2.94445674,6.63604932 C2.71365292,6.74892254 2.54053934,7.05102948 2.42513742,7.54153908 C2.30973551,8.03204868 2.29984545,8.52254748 2.3962923,9.01305708 C2.49190338,9.50355589 2.70375214,9.89945402 3.03101353,10.201561 C3.35743915,10.5036571 3.84872769,10.5410117 4.50406483,10.3152652 C5.69685127,9.90028508 7.19793334,9.57908532 9.0073003,9.35333887 C10.8158422,9.12676136 12.7604234,8.97653356 14.8393722,8.90101492 C14.0307016,9.54257259 13.1066291,10.5044882 12.0680119,11.7867832 C11.0285375,13.0699418 9.95031715,14.5223562 8.83419743,16.1441128 C7.71807772,17.7666249 6.64069318,19.4747255 5.60122948,21.2657164 C4.56176578,23.0575707 3.61792387,24.7656713 2.77217894,26.3874279 C1.92477316,28.0091845 1.25131675,29.4624623 0.750952493,30.7446711 C0.249767454,32.0261243 0,32.9698645 0,33.5731933 C0,33.6860881 0.124472266,33.8844635 0.375063714,34.1674561 C0.62483224,34.4504486 0.942193926,34.7334411 1.32797277,35.0156781 C1.71211005,35.2986707 2.13580758,35.5443194 2.59824029,35.7518689 C2.85251024,35.8656271 3.09501498,35.9485174 3.32604382,36 L4.16458819,36 L4.16458819,36 Z" id="Path"></path>
        </g>
    </g>
</svg>