<?xml version="1.0" encoding="UTF-8"?>
<svg width="80px" height="50px" viewBox="0 0 80 50" version="1.1" xmlns="http://www.w3.org/2000/svg" xmlns:xlink="http://www.w3.org/1999/xlink">
    <title>Asset 2</title>
    <g id="Landing-Page" stroke="none" stroke-width="1" fill="none" fill-rule="evenodd">
        <g id="Asset-2" transform="translate(0, 0.7189)" fill="#ffffff" fill-rule="nonzero">
            <g id="Group" transform="translate(46, 31)">
                <path d="M3.78373193,13.8258165 L0,13.8258165 L1.96875214,0.00241921548 L5.75248407,0.00241921548 L3.78373193,13.8258165 L3.78373193,13.8258165 Z M0.810799698,13.1000518 L3.18029192,13.1000518 L4.94168437,0.72818386 L2.57219215,0.72818386 L0.810799698,13.1000518 L0.810799698,13.1000518 Z" id="Shape"></path>
                <path d="M8.99568286,13.9951616 C8.26875899,13.9951616 7.61406154,13.7798514 7.05255945,13.3540695 C6.50037689,12.9379644 6.0716782,12.3742872 5.77345303,11.6823916 C5.4822175,11.002592 5.33310491,10.2526352 5.33310491,9.45671332 C5.33310491,8.79868671 5.4379497,8.11888716 5.64530939,7.43424918 C5.85732886,6.73751512 6.2347701,6.062554 6.77297334,5.43113876 C7.31583636,4.79488509 8.08236826,4.27475376 9.05160008,3.88767928 C10.0091825,3.50544323 11.1997533,3.311906 12.5906942,3.311906 C13.1708353,3.311906 13.6554512,3.33609815 14.0328925,3.37964403 C14.4033441,3.42560912 14.9345577,3.50544323 15.612554,3.61914636 L15.9550469,3.67720753 L14.4546015,13.8282357 L10.7267868,13.8282357 L10.7896937,13.4508381 C10.6685397,13.5330914 10.5473857,13.6080871 10.4308915,13.6758251 C10.0487905,13.8887161 9.56650449,13.9975808 8.99568286,13.9975808 L8.99568286,13.9951616 Z M12.5906942,4.03525143 C11.2882889,4.03525143 10.1815939,4.21427337 9.30322757,4.56505962 C8.43884054,4.91100743 7.76317412,5.36340073 7.29719729,5.91256264 C6.8242308,6.46656299 6.49338724,7.05201313 6.31398616,7.65197857 C6.12759542,8.26645931 6.03440005,8.87368239 6.03440005,9.45671332 C6.03440005,10.1510282 6.16254369,10.8017971 6.41417118,11.3872473 C6.6611389,11.9630206 7.0152813,12.4275099 7.46494895,12.7686193 C7.91228671,13.1073095 8.41321181,13.2718161 8.99801275,13.2718161 C9.45234016,13.2718161 9.82279175,13.191982 10.1023779,13.0371522 C10.4075927,12.8653879 10.7314466,12.6258856 11.0622901,12.3234837 L11.8078531,11.6436841 L11.5632152,13.1024711 L13.8604811,13.1024711 L15.1628863,4.27959219 C14.6573014,4.19733886 14.2495717,4.13685848 13.9560063,4.10298946 C13.6065237,4.0618628 13.1475365,4.04008986 12.5953539,4.04008986 L12.5906942,4.03525143 Z M10.0068526,11.4815967 C9.50359762,11.4815967 9.09120811,11.2711249 8.81395189,10.8719544 C8.55766463,10.5042336 8.429521,10.059098 8.429521,9.54864351 C8.429521,8.8591671 8.56931405,8.20839813 8.84657027,7.61327112 C9.12615638,7.01088647 9.52223669,6.52462416 10.0231618,6.16658027 C10.5310765,5.80369794 11.1018982,5.62225678 11.7169876,5.62225678 L12.6908792,5.62225678 L11.9290071,10.632452 L11.7985335,10.7195438 C11.3954636,10.9929152 11.0669499,11.181614 10.7990132,11.2953171 C10.5124375,11.4162779 10.2468307,11.4791775 10.0068526,11.4791775 L10.0068526,11.4815967 Z M11.7169876,6.35044064 C11.2393613,6.35044064 10.8129925,6.48833593 10.4169122,6.76896492 C10.018502,7.05201313 9.70163777,7.44392604 9.47330912,7.93260757 C9.24265059,8.42854674 9.12615638,8.97287023 9.12615638,9.55106273 C9.12615638,9.91152583 9.20770232,10.2042509 9.37778387,10.4485917 C9.52456657,10.6590634 9.72260673,10.755832 10.0045227,10.755832 C10.1513054,10.755832 10.3307065,10.7122862 10.5334064,10.6276136 C10.7314466,10.5453603 10.9830741,10.4026266 11.285959,10.2018317 L11.87076,6.35044064 L11.7146577,6.35044064 L11.7169876,6.35044064 Z" id="Shape"></path>
                <path d="M19.9531282,13.9951616 C19.6176249,13.9951616 19.2145549,13.9830655 18.750908,13.9564541 C18.2895909,13.9298428 17.8562324,13.8935545 17.462482,13.8451702 C17.0710615,13.7967859 16.5654766,13.7242094 15.9597067,13.62986 L15.6148838,13.5766373 L17.5207291,0 L21.2485438,0 L20.7080107,3.84655262 C21.2345645,3.48850873 21.828685,3.30706757 22.4833824,3.30706757 C23.0006167,3.30706757 23.5085315,3.42802834 23.9861577,3.66994989 C24.4614541,3.90703301 24.885493,4.24572317 25.248955,4.67392431 C25.610087,5.09970624 25.9013226,5.62225678 26.1110121,6.22706065 C26.3207017,6.82944531 26.4278764,7.4850527 26.4278764,8.17936755 C26.4278764,9.31639882 26.1855684,10.3324693 25.7079422,11.2033869 C25.2256561,12.0839813 24.4824231,12.7782962 23.5038717,13.2693969 C22.5416295,13.7508208 21.346399,13.9951616 19.9531282,13.9951616 L19.9531282,13.9951616 Z M16.4093744,12.966995 C16.8567121,13.034733 17.2388131,13.0879558 17.5463578,13.124244 C17.9237991,13.1702091 18.3431782,13.2064973 18.7881861,13.2306895 C19.2378538,13.2548816 19.6292743,13.2669777 19.9531282,13.2669777 C21.2415542,13.2669777 22.3342699,13.0468291 23.2009868,12.6137895 C24.0513945,12.1880076 24.6897828,11.5928806 25.1021723,10.8429238 C25.5192215,10.0832901 25.7289111,9.1881804 25.7289111,8.17694833 C25.7289111,7.56730603 25.6357158,6.99395196 25.4539848,6.47140142 C25.2722538,5.9536893 25.027616,5.50855365 24.724731,5.15050976 C24.424176,4.79488509 24.0746933,4.51667531 23.6832728,4.32071885 C23.2988419,4.12960083 22.8957719,4.03041299 22.4833824,4.03041299 C21.6958816,4.03041299 21.043514,4.34974944 20.4890016,5.00293762 L19.7108203,5.9222395 L20.4424039,0.723345429 L18.126499,0.723345429 L16.4093744,12.9621566 L16.4093744,12.966995 Z M20.2094155,11.3678936 C19.8086754,11.3678936 19.5081203,11.3557975 19.293771,11.3267669 L18.9372987,11.2808018 L19.5034606,7.28909625 L19.5640376,7.21168135 C20.1651477,6.44479005 20.8291647,6.05771557 21.5374495,6.05771557 C22.010416,6.05771557 22.4204756,6.24157595 22.7583088,6.60203905 C23.0914822,6.96008294 23.2615638,7.49714878 23.2615638,8.19630206 C23.2615638,10.2695697 22.2061262,11.3654743 20.2094155,11.3654743 L20.2094155,11.3678936 Z M19.736449,10.6348713 C19.8715823,10.6397097 20.0300144,10.6421289 20.2094155,10.6421289 C21.8147057,10.6421289 22.5625985,9.86556074 22.5625985,8.19872127 C22.5625985,7.69552445 22.4600836,7.3278037 22.2550538,7.1100743 C22.0523539,6.89234491 21.8170356,6.78589943 21.5374495,6.78589943 C21.0714726,6.78589943 20.6101556,7.05927078 20.1674776,7.59875583 L19.736449,10.6372905 L19.736449,10.6348713 Z" id="Shape"></path>
                <path d="M29.5452614,13.9951616 C29.2097581,13.9951616 28.7554307,13.9346812 28.1543206,13.8137204 C27.5508806,13.6903404 26.9171521,13.4532573 26.2717741,13.1048903 L26.0411156,12.9815103 L26.55602,10.0784517 L26.9544302,10.2453776 C27.6207771,10.5260066 28.1380114,10.7316399 28.4921538,10.8574391 C28.8183376,10.9735614 29.17248,11.0316226 29.5452614,11.0316226 C29.6570959,11.0316226 29.8085383,11.0146881 29.8970739,10.9372732 C29.9786199,10.8671159 29.9786199,10.8235701 29.9786199,10.8090548 C29.9786199,10.7074477 29.8854245,10.598583 29.8062085,10.5260066 C29.6268074,10.3566615 29.2586857,10.059098 28.708833,9.63573527 C28.1752895,9.21237256 27.723292,8.76481769 27.3644898,8.30032832 C26.9730693,7.79229307 26.7726992,7.21168135 26.7726992,6.57542768 C26.7726992,5.71176776 27.1105324,4.94245723 27.7792092,4.28926905 C28.4408963,3.6409193 29.3984787,3.311906 30.6263277,3.311906 C31.2670458,3.311906 31.8355376,3.39657854 32.3154937,3.56108519 C32.7791407,3.72075341 33.2777359,3.95057888 33.7949702,4.24330396 L34,4.3594263 L33.6971151,7.3907033 L33.2451175,7.1560394 C32.8117591,6.93105236 32.3271432,6.72541904 31.8029192,6.54155867 C31.2973343,6.36495594 30.901254,6.27786418 30.6263277,6.27786418 C30.4282875,6.27786418 30.3677105,6.31899084 30.358391,6.32624849 C30.358391,6.32624849 30.358391,6.33834457 30.358391,6.3601175 C30.358391,6.41334025 30.3677105,6.48349749 30.4515864,6.57542768 C30.5261427,6.65768101 30.6845748,6.80767237 31.0200781,7.04959392 C31.3183033,7.2649041 31.5908997,7.48021427 31.8285479,7.6882668 C32.4832454,8.25194401 32.914274,8.75756005 33.1472624,9.22688785 C33.3802508,9.69863487 33.4990749,10.1558666 33.4990749,10.5840677 C33.4990749,11.1187144 33.3476324,11.6581994 33.0517371,12.1880076 C32.753512,12.720235 32.2991845,13.1605322 31.7004043,13.4968032 C31.1086137,13.8306549 30.3816899,14 29.5452614,14 L29.5452614,13.9951616 Z M26.8239567,12.5799205 C27.3295416,12.8315189 27.8211471,13.0081217 28.287124,13.1024711 C28.8369766,13.213755 29.2586857,13.2693969 29.5452614,13.2693969 C30.2651956,13.2693969 30.8779552,13.1290824 31.3672309,12.8557111 C31.8495169,12.5847589 32.2129788,12.2363919 32.4459672,11.8202868 C32.6789557,11.4017626 32.7977798,10.9856575 32.7977798,10.5816485 C32.7977798,10.2695697 32.7045844,9.92604113 32.5228534,9.55590116 C32.3364627,9.18092276 31.9497019,8.73820632 31.3765504,8.24226715 C31.1528815,8.0463107 30.8989241,7.84551581 30.6170082,7.64230171 C30.3024738,7.41489546 30.0811348,7.22619665 29.936682,7.06652843 C29.7526211,6.86331433 29.6570959,6.61655435 29.6570959,6.35527907 C29.6570959,6.16658027 29.7269924,5.5472611 30.6263277,5.5472611 C30.9828,5.5472611 31.4394573,5.64644894 32.0242582,5.84966304 C32.4040293,5.98271989 32.7651614,6.1254536 33.1053245,6.28270261 L33.2567669,4.7658545 C32.8490372,4.54812511 32.4576167,4.37394159 32.0941547,4.24814239 C31.686425,4.10782789 31.1924895,4.03525143 30.6263277,4.03525143 C29.5825396,4.03525143 28.7857192,4.2965267 28.2591654,4.81423881 C27.7302816,5.33195092 27.4716645,5.90772421 27.4716645,6.57300847 C27.4716645,7.0471747 27.6137874,7.46327976 27.9096827,7.8430966 C28.2335366,8.26162087 28.6435962,8.67046829 29.1282122,9.05270434 C29.6990338,9.49058234 30.076475,9.79782271 30.2745152,9.9841023 C30.540122,10.2357007 30.6752553,10.5114913 30.6752553,10.8066356 C30.6752553,10.9880767 30.6170082,11.2517712 30.3467416,11.4912735 C30.1463715,11.6678763 29.876105,11.7573872 29.5429315,11.7573872 C29.0932639,11.7573872 28.6645652,11.6848108 28.2638251,11.5444963 C27.9679298,11.44047 27.5811691,11.2880594 27.0872336,11.0848453 L26.8216268,12.5823397 L26.8239567,12.5799205 Z" id="Shape"></path>
            </g>
            <g id="Group" transform="translate(12, 34)">
                <path d="M9.83740663,1.75627792 L8.440351,10.8195964 L5.43969831,10.8195964 L5.58358112,9.98998613 C5.23315686,10.2973348 4.89201537,10.5399784 4.56479803,10.7156062 C4.23525999,10.8935449 3.81289434,10.9813588 3.30002176,10.9813588 C2.64790775,10.9813588 2.07005584,10.7987983 1.56878671,10.4359883 C1.06751759,10.0708674 0.679962289,9.58558003 0.408441511,8.97781544 C0.136920734,8.37005084 0,7.70913573 0,6.99275921 C0,6.39654907 0.097468997,5.78878447 0.294727681,5.16484363 C0.491986366,4.54090279 0.842410617,3.94700354 1.34600044,3.37852411 C1.84959025,2.81004468 2.56204221,2.35017717 3.48103561,1.99661069 C4.40002901,1.64535511 5.53252593,1.46741642 6.88084705,1.46741642 C7.4494162,1.46741642 7.91355428,1.48821445 8.27790268,1.52981051 C8.63993038,1.57140656 9.15976503,1.647666 9.83740663,1.75627792 Z M6.57451592,3.67894007 L6.01290884,3.67894007 C5.46986729,3.67894007 4.97091885,3.83145894 4.52070491,4.13880758 C4.07049097,4.44615622 3.71774603,4.85980589 3.46479078,5.38437837 C3.21183552,5.90895086 3.08419755,6.4728085 3.08419755,7.0805731 C3.08419755,7.49653366 3.19094931,7.85010014 3.40213213,8.14127253 C3.61331496,8.43244492 3.91500471,8.57803112 4.30952208,8.57803112 C4.50213939,8.57803112 4.72260497,8.52950239 4.96627747,8.43013403 C5.20994996,8.33076568 5.52324316,8.15744878 5.90383639,7.91018333 L6.57451592,3.67662918 L6.57451592,3.67894007 Z" id="Shape"></path>
                <path d="M12.2300384,2.4842089 L12.7475524,0.00462178401 L15.7389223,0.00462178401 L15.4952498,1.62917886 C15.6994706,1.57602835 15.9129741,1.53905407 16.1287983,1.52056694 C16.3469432,1.48359267 16.5650881,1.46741642 16.7809123,1.46741642 C17.4585539,1.46741642 18.0549714,1.57833924 18.5701646,1.79787398 C19.0876786,2.01740872 19.5170063,2.32706825 19.8581478,2.72223078 C20.1992893,3.11970421 20.4545652,3.57263904 20.6239756,4.08103528 C20.793386,4.58943152 20.8769309,5.14173471 20.8769309,5.73794485 C20.8769309,6.69003235 20.6703894,7.56354953 20.2596272,8.36542906 C19.848865,9.16499769 19.2547683,9.80280388 18.477337,10.2742259 C17.6999057,10.7456478 16.8110813,10.9836697 15.808543,10.9836697 C15.5068533,10.9836697 15.2260497,10.955939 14.9707738,10.9027885 C14.7131772,10.849638 14.437015,10.7733785 14.1422873,10.6763211 L13.4716078,15 L10.4616723,15 L11.8448038,5.87890926 L11.9121039,5.43983978 C10.0833998,6.80326606 8.440351,10.8195964 8.440351,10.8195964 L7.76735079,7.50115545 L9.05765465,6.80557695 C9.05765465,6.52364813 10.561462,4.56401171 10.561462,4.56401171 M17.7207919,5.70097057 C17.7207919,5.10013865 17.5769091,4.60329687 17.2891435,4.21044523 C17.0013779,3.81990448 16.5256364,3.62347866 15.8619189,3.62347866 C15.6205671,3.62347866 15.3954601,3.65120937 15.1912394,3.70435988 L14.4579012,8.48790633 C14.6806875,8.54798952 14.9197186,8.57803112 15.1749946,8.57803112 C15.7922982,8.57803112 16.288926,8.43244492 16.6718399,8.14127253 C17.0524331,7.85010014 17.3239539,7.4849792 17.4840815,7.04359883 C17.6442092,6.60452935 17.7254333,6.1562163 17.7254333,5.69865968 L17.7207919,5.70097057 Z" id="Shape"></path>
                <path d="M32,5.73563395 C32,6.68772146 31.7934586,7.56123864 31.3826964,8.36311816 C30.9719342,9.1626868 30.3778374,9.80049299 29.6004061,10.271915 C28.8229748,10.7433369 27.9341504,10.9813588 26.9316122,10.9813588 C26.6299224,10.9813588 26.3491189,10.9536281 26.0938429,10.9004776 C25.8362463,10.8473271 25.5600841,10.7710676 25.2653564,10.6740102 L24.5946769,14.9976891 L21.5847415,14.9976891 L23.035173,5.43752889 L21.7750381,6.9349869 C21.6590036,7.06208597 21.573138,7.14758897 21.5174414,7.1961177 C21.4594242,7.24464643 21.3921242,7.26775535 21.3132207,7.26775535 C21.1252448,7.26775535 21.0324171,7.14989986 21.0324171,6.91649977 C21.0324171,6.63457094 21.1414896,6.27638268 21.3596345,5.84193499 C21.5777794,5.40748729 21.8214519,5.02156833 22.0929727,4.67724542 C22.3644934,4.33292251 22.7845384,3.9030966 23.3531075,3.38545679 L23.8706215,0 L26.8619914,0 L26.6183189,1.62455708 C26.8225397,1.57140656 27.0360432,1.53443229 27.2518674,1.51594515 C27.4700123,1.47897088 27.6881572,1.46279464 27.9039814,1.46279464 C28.581623,1.46279464 29.1780405,1.57371745 29.6932337,1.7932522 C30.2107477,2.01278694 30.6400754,2.32244646 30.9812169,2.717609 C31.3223584,3.11508242 31.5776343,3.56801725 31.7470447,4.0764135 C31.9164551,4.58480974 32,5.13711293 32,5.73332306 L32,5.73563395 Z M28.8461817,5.69865968 C28.8461817,5.09782776 28.7022989,4.60098598 28.4145333,4.20813434 C28.1267677,3.81759359 27.6510262,3.62116777 26.9873087,3.62116777 C26.7459569,3.62116777 26.52085,3.64889847 26.3166292,3.70204899 L25.583291,8.48559544 C25.8060773,8.54567863 26.0451084,8.57572023 26.3003844,8.57572023 C26.917688,8.57572023 27.4143158,8.43013403 27.7972297,8.13896164 C28.1778229,7.84778925 28.4493437,7.48266831 28.6094713,7.04128794 C28.769599,6.60221846 28.8508231,6.15390541 28.8508231,5.69634879 L28.8461817,5.69865968 Z" id="Shape"></path>
                <path d="M23.8683008,0.00462178401 C23.8683008,0.00462178401 22.3389658,3.63965491 20.8769309,5.73563395 C19.4148959,7.831613 16.9596055,11.0691727 18.4796577,10.271915 C19.9997099,9.47465722 23.035173,5.43752889 23.035173,5.43752889 L23.8683008,0.002310892 L23.8683008,0.00462178401 Z" id="Path"></path>
            </g>
            <g id="Group" transform="translate(0, 34)">
                <path d="M11.9954251,1.19551384 L5.51734655,15 L2.63972551,15 L4.34388105,11.3728921 C4.63210065,10.7596246 4.78307282,10.0843143 4.78536027,9.40184537 L4.78536027,8.69074133 C4.78536027,8.69074133 4.7784979,8.20633153 4.7784979,8.20633153 C4.76477316,7.37114222 4.57491422,6.55027044 4.22493328,5.79860006 L3.59359512,4.44559338 L2.13419748,4.44559338 L2.13419748,1.19312759 C2.13419748,1.19312759 2.44529165,-0.474864779 3.7171178,0.734966592 C6.75943576,3.63426662 6.13038506,7.8245307 7.06595501,5.81053134 C8.00152497,3.79653198 9.1040793,1.19074133 9.1040793,1.19074133 L12,1.19074133 L11.9954251,1.19551384 Z" id="Path"></path>
                <ellipse id="Oval" cx="2.13191003" cy="2.22398982" rx="2.13191003" ry="2.22398982"></ellipse>
            </g>
            <path d="M46.9976147,19.3314949 C46.1245872,19.5544267 45.1919266,19.6078374 44.2449541,19.4499274 C43.6915596,19.3570392 43.1644037,19.1991292 42.6754128,18.983164 C42.3772477,18.8531205 42.1005505,18.6835994 41.8333945,18.5024673 C41.0104587,17.9497823 39.1809174,17 37.6686239,17 C36.3185321,17 35.0662385,17.4017417 34.0262385,18.0844702 C34.0095413,18.2725689 34,18.4606676 34,18.6534107 C34,22.1576197 36.9172477,25 40.5190826,25 C43.8823853,25 46.6517431,22.5175617 47,19.3338171 L46.9976147,19.3314949 Z" id="Path"></path>
            <path d="M43.5612448,1.68857095 L43.0305672,1.75852604 L43.0305672,9.1375811 L44.0108144,9.57660955 C47.2713529,11.0408418 49.3778415,14.3721511 49.3778415,18.065297 C49.3778415,23.162369 45.3942838,27.3066046 40.5,27.3066046 C35.6057162,27.3066046 31.6221585,23.1599567 31.6221585,18.065297 C31.6221585,14.3721511 33.7286471,11.0384295 36.9891856,9.57660955 L37.9694328,9.1375811 L37.9694328,1.68857095 L43.5635621,1.68857095 M44.655043,0 L36.344957,0 C36.344957,0 36.3380049,0 36.3333701,0 C35.4689914,0 34.7668285,0.730909998 34.7668285,1.63067709 C34.7668285,2.53044419 35.4689914,3.26135418 36.3333701,3.26135418 C36.3380049,3.26135418 36.3403222,3.26135418 36.344957,3.26135418 L36.344957,8.030361 C32.6116751,9.70687074 30,13.571286 30,18.0701214 C30,24.1079687 34.7019422,29 40.5,29 C46.2980578,29 51,24.1055565 51,18.0701214 C51,13.5688737 48.3860075,9.70687074 44.655043,8.030361 L44.655043,3.24446847 C45.4244096,3.14074197 46.0199735,2.45807686 46.0199735,1.63067709 C46.0199735,0.803277325 45.4244096,0.118199967 44.655043,0.0168857095 L44.655043,0.00241224422 L44.655043,0.00241224422 L44.655043,0 Z" id="Shape"></path>
        </g>
    </g>
</svg>
