<svg height="20" viewBox="0 0 133 20" width="133" xmlns="http://www.w3.org/2000/svg"><path d="m0 .80118391 11.0701169-.03873563.0092922 2.67804597-7.98762771.02804598.0111277 3.21149425 7.33235501-.02563218.0090627 2.62666667-7.33224022.02551724.0135368 3.88873559 8.35633332-.0291954.0095217 2.7191954-11.43882256.0398851zm27.6020329 3.88472414c.4784913.18988505.9132749.52356321 1.3040065 1.00091954.3153615.38885057.5287381.86701149.6399004 1.43436781.0695195.37586207.1056559.92655173.1082944 1.65149426l.0040152 7.04908044-2.9903702.0104598-.0246645-7.12091956c-.0014913-.42390804-.0711255-.77252873-.2085584-1.04563218-.2612143-.51896552-.7399351-.77747126-1.4362771-.77494253-.8057835.00275862-1.3610216.34011494-1.665829 1.01137931-.1559026.35632184-.2327641.78425288-.2309286 1.28333334l.0231732 6.65919542-2.9390909.0102299-.0232879-6.65919544c-.0021796-.66321839-.072158-1.14528736-.2098203-1.44597701-.2476775-.53931035-.7298399-.80793104-1.4467165-.80551724-.8329718.0029885-1.3917662.27528735-1.6766125.81655172-.1561321.30839081-.2328788.7670115-.2308139 1.37563219l.0235173 6.73091958-2.9596255.0103448-.0388896-11.16344829 2.8367619-.00988506.0056212 1.63149425c.3597576-.58264367.6995541-.99781609 1.0197338-1.24517241.5651039-.43977012 1.2982705-.66114943 2.1993852-.66448276.8533918-.00287356 1.5434243.18287356 2.0705563.55724138.4244589.34735632.7469329.79436782.9674221 1.3408046.3798333-.65816092.8525887-1.14206897 1.418381-1.45172414.5996341-.31 1.2682142-.46632184 2.0055108-.46885057.4915692-.00172414.9765995.09252873 1.4552056.28229885zm14.2564149 1.25321839c.8385931 1.05747126 1.2608723 2.42402299 1.266723 4.09977016.0059653 1.7375862-.4009416 3.1789655-1.2203766 4.323908-.8194351 1.1454023-1.9669654 1.7205747-3.4421321 1.7257471-.9264675.0032184-1.6715649-.1788506-2.2355216-.5463218-.3370433-.2175862-.7020779-.5994253-1.0951039-1.1454023l.0049329 1.4057471-2.8776018.010115-.0526558-15.10367821 2.9185563-.01022988.0186991 5.37666667c.3691645-.52103449.776645-.91919541 1.2224416-1.19448276.5277056-.34390805 1.2005303-.51735632 2.0182446-.52011495 1.4771168-.00517241 2.6350865.52103449 3.4737943 1.57827587zm-2.4157446 6.82149426c.4176905-.6102299.6248723-1.4112644.6214308-2.4032184-.0026385-.79344828-.1082944-1.44977012-.3166234-1.96885058-.3956645-.98367816-1.1201125-1.47356321-2.1733441-1.47-1.0669979.00379311-1.7984438.48862069-2.1943377 1.45448276-.2047727.51379311-.3056104 1.17758621-.3028572 1.99160922.0034416.9577011.2194568 1.7504597.6486191 2.3782758.4289329.6278161 1.0804199.940115 1.9548052.9371265.7570281-.0026437 1.3445022-.3089655 1.7623073-.9194253zm12.9655094-7.9760115c.7798571.3467816 1.4246904.89609195 1.9347294 1.64781609.4593333.66287356.7584048 1.43241379.897329 2.30896551.0804177.51344828.1150628 1.25333334.1038203 2.2191954l-8.1296493.0283908c.0492143 1.1218391.4410931 1.9071264 1.1755216 2.355977.4467143.2789655.9834827.4171265 1.6106494.4150575.6647944-.0024138 1.2044307-.1751724 1.6187944-.5187356.2258809-.1854023.4252619-.4427587.5980281-.7716092l2.9794719-.0104598c-.0760585.663908-.4344394 1.3390805-1.0749135 2.0251724-.9958723 1.0911494-2.3938333 1.6397701-4.1935389 1.646092-1.4854914.0052873-2.7977576-.4488506-3.9365693-1.3622989-1.138697-.9133333-1.7117164-2.404023-1.7189437-4.4716092-.0066537-1.9373563.5005173-3.42471263 1.5222013-4.46218389 1.0214545-1.03735632 2.3501255-1.55896552 3.9862424-1.56471264.9713225-.00344828 1.8470844.16827586 2.6268269.51494253zm-4.3573572 2.54149425c-.4110368.42747126-.6680065 1.00528735-.7714827 1.73367816l5.0281169-.01747127c-.0557532-.77597701-.3168528-1.36413793-.7836428-1.76448275-.4665607-.40022989-1.0443983-.59931035-1.7329394-.59678161-.7492273.00252873-1.3290152.2175862-1.740052.64505747zm14.9466883-3.06673563c.037513.00344827.1212576.00816092.2510044.01448275l.0104393 2.99609196c-.1844675-.01977012-.3482857-.03287356-.4917987-.03931035-.1433982-.00620689-.2596082-.00931034-.348171-.00908046-1.1742597.00425288-1.9615735.39011495-2.3615974 1.15758621-.223816.43172414-.3340606 1.09551724-.3309632 1.99149427l.0185845 5.3458621-2.939091.0103448-.0390043-11.18402301 2.7855974-.00977011.0067684 1.94954023c.4480909-.74712644.8387078-1.25816092 1.1723095-1.53287357.5445693-.46011494 1.2537598-.69206896 2.1276862-.69505747.0546061-.00011494.1007229.00149426.1382359.00471265zm2.7608641 9.12748278c-.0029827-.861954-.2647706-1.5210345-.7851342-1.9775862-.315132-.2793104-.7664351-.500115-1.3540238-.6622989l-.004474-1.24160918c.6613528-.22793103 1.1282575-.4791954 1.4003701-.75367816.4829654-.47367816.7229567-1.19609195.7196299-2.16758621l-.0096364-2.74977011c-.0012619-.34896552.0552944-.71494253.1697835-1.09862069.2020195-.66402299.5476667-1.19206897 1.0367122-1.58367816.4482056-.35724138.9753376-.59494253 1.5811666-.71344828.3674438-.07655172.8950347-.11942528 1.5832316-.12885057l.0056212 1.64172414c-.5628095.12517241-.9455108.29034482-1.1482186.49586206-.3108874.3154023-.4650692.86597702-.462316 1.6516092l.0083745 2.37758621c.0025238.76517241-.0977403 1.37344827-.300907 1.82505747-.3455324.75954023-1.0262727 1.37666667-2.0416471 1.85172418.9229112.3724137 1.5439978.807816 1.8632597 1.3052873.3190325.4975862.4868658 1.1871264.5037294 2.0681609l.0091775 2.5927587c.0025238.7582758.1874502 1.3041379.5551234 1.6377011.2041991.1973563.560974.3702299 1.0703247.5188506l.0057359 1.6416092-.7254805-.0178161c-.9741905-.024138-1.8281559-.3134483-2.562355-.8683908-.7340844-.5551724-1.1031342-1.3658621-1.1068052-2.4331035zm8.1617247-.0285058c-.0029827-.861954-.2647706-1.5210345-.7851342-1.9775862-.3151321-.2793103-.7664351-.5001149-1.3539091-.6622988l-.004474-1.24160923c.661238-.22804597 1.1281428-.4791954 1.4002554-.7537931.4829653-.47356322.7229567-1.19597701.7196298-2.16747126l-.0096363-2.74977012c-.0012619-.34896552.0552943-.71494253.1697835-1.09862069.2020195-.66402299.5476667-1.19206896 1.0367121-1.58367816.4482057-.35724138.9753377-.59505747 1.5811667-.71356322.3674437-.07643678.8950346-.11942528 1.5832316-.12873563l.0056212 1.64172414c-.5628095.12517241-.9455108.29022988-1.1482186.49586207-.3108874.3154023-.4650693.86586207-.462316 1.65149425l.0083744 2.37758621c.0025239.76517241-.0977402 1.37356322-.3009069 1.82517241-.3455324.75954023-1.0262727 1.37666667-2.0416472 1.85172413.9229113.3724138 1.5439979.8078161 1.8632598 1.3052874.3190324.4975862.4868658 1.1871264.5037294 2.0680459l.0091775 2.5927587c.0025238.7582758.1874502 1.3042528.5551234 1.6377011.2041991.1974713.560974.3703448 1.0703247.5189655l.0057359 1.6416092-.7254805-.0178161c-.9741905-.0241379-1.8281559-.3134482-2.562355-.8685057-.7340844-.5550575-1.1031342-1.3657471-1.1068052-2.4329885zm11.9671361-12.99602296c.1502814.00977011.3550541.02436782.6146624.04402299l.0083744 2.38045977c-.1640476-.02-.4389134-.03436782-.8245974-.04321839-.3857987-.00896552-.6517164.0775862-.797868.25931034-.1462662.18172414-.2188831.38218391-.21808.60091954.000803.21908046.0018355.53367816.0032121.94402299l1.9149978-.00678161.007342 2.06252874-1.9149978.00666666.0313182 9.01896553-2.8981364.0101149-.0313182-9.01896548-1.6384112.00574712-.007342-2.06241379 1.5975714-.00563218-.0025238-.71827587c-.0041299-1.19689655.1942186-2.02195402.595619-2.47482758.4209026-.67183908 1.440407-1.01068966 3.0583983-1.01632184.1843528-.00068966.3514978.00390804.5017792.01367816zm9.6541336 4.27142529c.7798571.34678161 1.4249199.89609195 1.9348441 1.64781609.4594481.66287356.7585195 1.43241379.8974437 2.30896552.0803031.51344827.1149481 1.25333333.1038204 2.21919536l-8.1297641.0283908c.0492143 1.1218391.4410931 1.9071265 1.1754069 2.3559771.4468291.2789655.9835974.4171264 1.6106494.4150574.6649091-.0024138 1.2045455-.1751724 1.6187944-.5187356.2259956-.1854023.4253766-.4427586.5980281-.7716092l2.9797013-.0104598c-.0761732.6639081-.4344394 1.3390805-1.0749134 2.0251724-.9961017 1.0911495-2.3939481 1.6397702-4.1937684 1.646092-1.4854914.0052874-2.7976429-.4488506-3.9364546-1.3622989-1.1386969-.9133333-1.7117164-2.4040229-1.7189437-4.4716092-.0066537-1.93735627.5006321-3.42471259 1.5222013-4.46218386 1.0214546-1.03735632 2.3501256-1.55896552 3.9861277-1.56471264.9714373-.00344828 1.8470844.16827586 2.6268269.51494253zm-4.3572425 2.54149425c-.4110368.42747126-.6681212 1.00528736-.7714826 1.73367816l5.0281168-.01747126c-.0557532-.77597702-.3168528-1.36413794-.7836428-1.76448276-.4666753-.40022989-1.0443983-.59931035-1.7330541-.59678161-.7491126.00252873-1.3290152.2175862-1.7399373.64505747zm11.0366193 4.82197702c.063554.5196552.198578.8886207.405071 1.1067816.365035.3886207 1.037974.5812644 2.018933.5777011.576232-.001954 1.033844-.0889655 1.372838-.2612643.338879-.172069.50763-.4291954.506597-.7712644-.001147-.3283908-.138809-.5775862-.412987-.7477011-.274177-.17-1.292879-.4604598-3.056333-.8716092-1.269476-.3102299-2.164511-.7005747-2.684989-1.17068969-.5204787-.46333333-.7821519-1.13252873-.7852493-2.00827586-.0035562-1.03287356.3986472-1.92172414 1.2068403-2.66689655.808192-.74494253 1.947807-1.12011494 3.418729-1.12517241 1.395667-.00494253 2.534134.26988505 3.415058.82413793.881154.55471264 1.389128 1.51563218 1.523923 2.88310345l-2.918557.01022988c-.042446-.37586207-.149593-.67298851-.321441-.89149425-.323163-.39551724-.871518-.59206897-1.645065-.58931035-.636689.00218391-1.089712.10298851-1.359531.30229885-.269818.19942529-.404153.43229885-.403235.69908046.001147.33517242.145807.57770115.43398.72712644.287829.15632184 1.304695.42287356 3.050024.79977011 1.163591.26954023 2.036599.68045978 2.618911 1.23241379.575314.5589655.86452 1.2589655.867388 2.1004598.003785 1.108046-.405187 2.0142529-1.226916 2.7181609-.821959.704023-2.094762 1.0590805-3.818524 1.0650575-1.758292.0060919-3.057595-.3603449-3.898138-1.0996552-.8406584-.7390805-1.2628229-1.6834483-1.266838-2.8326437zm8.234984-5.45673564-.007228-2.08287356 1.556503-.0054023-.010899-3.11919541 2.887927-.01011494.010898 3.1191954 1.812554-.00643678.007227 2.08298851-1.812554.00632184.02065 5.91011498c.001606.4583908.060456.7436781.177125.8560919.11621.1125287.471494.1677012 1.065507.1656322.088562-.0002299.182632-.0022989.281634-.006092.098887-.0036781.196054-.0093103.291729-.0164367l.007572 2.1854023-1.38213.0563218c-1.379147.0526437-2.32202-.1833333-2.829076-.7085057-.328898-.3339081-.494437-.8498851-.496961-1.5474713l-.023976-6.88494254zm7.276005 13.21086204-.005736-1.6416092c.51153-.1521839.869338-.3311494 1.073537-.5366666.346909-.3429885.52587-.8867816.536998-1.6312644l-.009063-2.5927586c-.003327-.97.182402-1.6896552.557762-2.1589655.375244-.4693104.973502-.8795403 1.794543-1.23091958-.899279-.43413793-1.519333-.92896552-1.860621-1.48436782-.341059-.55574712-.513136-1.28103448-.516234-2.17597701l-.00826-2.3775862c-.002638-.75827587-.125731-1.27367817-.368935-1.54609196-.243433-.27218391-.662156-.46896552-1.256627-.59011494l-.005736-1.6416092c.684296.00448276 1.211428.04367816 1.581281.11770115.609385.11425288 1.143859.34827587 1.603652.70229885.459677.35413793.779513.79091954.959162 1.31.179879.51931035.270392.97379311.271654 1.36379311l.009636 2.74977011c.003442.97827586.227602 1.69574713.673169 2.15241379.273833.27264368.762993.52413794 1.467021.75413794l.00436 1.24149426c-.579788.1663218-1.01939.3797701-1.318805.6408046-.537916.4671264-.805096 1.1383908-.801998 2.013908l.011127 3.2114943c.003557 1.0396552-.352989 1.8464368-1.069407 2.4202299-.716417.5735632-1.581051.875862-2.593673.9068965zm8.161828-.0285057-.005736-1.6416092c.51153-.1521839.869338-.3311494 1.073537-.5367816.346794-.3428736.525755-.8866667.536883-1.6312644l-.009063-2.5927586c-.003327-.97.182403-1.6895402.557762-2.1588506.375245-.4693103.973502-.8796552 1.794543-1.23091953-.899279-.43413793-1.519333-.92896551-1.860621-1.48436781-.341058-.55574713-.513136-1.28114943-.516234-2.17609196l-.008259-2.3775862c-.002639-.75827587-.125732-1.27367817-.368821-1.54597702-.243433-.27229885-.662156-.46908046-1.256627-.59011494l-.005736-1.64160919c.684296.00448276 1.211428.04367816 1.581166.11770115.609386.11425287 1.14386.34827586 1.603652.70229885.459677.35402298.779513.79091954.959162 1.31.179879.5191954.270392.9737931.271769 1.3637931l.009521 2.74977011c.003442.97827587.227602 1.69574713.673169 2.1524138.273833.27252873.762993.52402299 1.467022.75402299l.004359 1.24149425c-.579788.1663218-1.01939.3798851-1.318805.6408046-.537916.4671264-.805095 1.1385057-.801998 2.014023l.011128 3.2114942c.003556 1.0396552-.35299 1.8464368-1.069407 2.420115-.716418.5736781-1.581052.875977-2.593559.9070115z" fill="#e25641" fill-rule="evenodd"/></svg>