<svg viewBox="0 0 129 129" xmlns="http://www.w3.org/2000/svg"><path d="M119.1 77l-5.2-5.4c-1.5-1.6-4-1.7-5.6-.3-7 5.7-25.3 19.2-42.7 19.2-14.1.4-12.7-8.9-12.7-8.9S104.6 63.9 90.5 29c-6.3-9-13.7-11.8-24.1-11.6s-23.2 6.5-31.6 25.3c-4 9-5.3 17.5-6.2 23.9 0 0-9.1 1.8-14-2.2-4.9-4.1-7.5 0-7.5 0s-8.4 9.9-.1 13.1c8.4 3.3 21.4 3.9 21.4 3.9 1.2 8.7 4.2 17 14.9 24 18 11.7 44.7-.7 44.7-.7 16-6.7 26.6-17 31.2-22.1 1.5-1.5 1.4-4-.1-5.6zM50.5 65.8c.6-24.3 16.5-34.9 22-29.6s3.5 16.7-6.9 23.9c-10.4 7.1-15.1 5.7-15.1 5.7z" fill="#666"/></svg>