<svg viewBox="0 0 206.658 78.504" xmlns="http://www.w3.org/2000/svg"><path d="m142.765 58.787s-.955-3.383 2.6-9.89 6.334-2.95 6.334-2.95 3.036 3.3-.434 8.242a10.218 10.218 0 0 1 -8.5 4.6m-27.329 4.685c-4.078 10.671-13.969 6.334-13.969 6.334s-1.128-3.818 2.083-14.489 10.758-6.507 10.758-6.507 5.2 3.991 1.128 14.662m-7.375-44.681s6.16-16.05 7.635-8.242-12.927 31.06-12.927 31.06c.173-5.206 5.292-22.818 5.292-22.818m-88.061 39.994c.26-10.324 7.027-14.836 9.37-12.58s1.474 7.114-2.95 10.151-6.42 2.429-6.42 2.429m186.618-1.713c-.347-3.471-3.47-2.18-3.47-2.18s-5.032 3.9-9.457 3.465-3.036-10.327-3.036-10.327.954-9.066-1.649-9.826-5.813 2.362-5.813 2.362a32.664 32.664 0 0 0 -5.9 10.064l-.521.174s.608-9.891-.087-12.147c-.52-1.128-5.292-1.041-6.073.954s-4.6 15.877-4.858 21.69c0 0-7.461 6.334-13.968 7.375s-8.069-3.037-8.069-3.037 17.7-4.945 17.092-19.087-14.272-8.913-15.819-7.75c-1.5 1.124-9.483 5.942-11.813 19.281-.08.455-.218 2.437-.218 2.437s-6.854 4.6-10.671 5.813c0 0 10.671-17.959-2.343-26.114-5.9-3.557-10.585 3.9-10.585 3.9s17.615-19.604 13.71-36.175c-1.859-7.891-5.8-8.738-9.426-7.462-5.5 2.17-7.578 5.38-7.578 5.38a60.575 60.575 0 0 0 -8.766 25.681c-1.646 15.355-4.075 33.923-4.075 33.923s-3.383 3.3-6.507 3.47-1.735-9.283-1.735-9.283 2.429-14.4 2.256-16.832-.347-3.73-3.21-4.6-5.987 2.777-5.987 2.777-8.242 12.5-8.936 14.4l-.434.78-.433-.52s5.812-17.005.26-17.265-9.2 6.073-9.2 6.073-6.333 10.584-6.593 11.8l-.434-.52s2.6-12.32 2.082-15.357a2.786 2.786 0 0 0 -3.383-2.429s-3.644-.434-4.6 1.909-4.424 17.872-4.858 22.817c0 0-9.11 6.507-15.1 6.594s-5.379-3.8-5.379-3.8 21.95-7.515 15.963-22.351c-2.689-3.818-5.813-5.016-10.237-4.929s-9.786 2.785-13.343 10.766a34.59 34.59 0 0 0 -2.534 10.156s-3.973.785-6.056-.95-3.219 0-3.219 0-3.6 4.49-.047 5.878a43.535 43.535 0 0 0 9.076 1.972 16.732 16.732 0 0 0 6.324 9.912c6.507 4.945 19-.422 19-.422l5.119-2.857s.173 4.7 3.9 5.39 5.293-.007 11.8-15.8c3.817-8.068 4.077-7.634 4.077-7.634l.434-.086s-2.95 15.443-1.822 19.607 6.073 3.731 6.073 3.731 2.69.455 4.859-7.18a114.241 114.241 0 0 1 6.333-16.116h.521s-1.822 15.856.954 20.888 9.977 1.724 9.977 1.724 5.032-2.52 5.813-3.3a20.459 20.459 0 0 0 14.4 4.169c18.832-3.706 25.53-8.707 25.53-8.707a15.546 15.546 0 0 0 13.256 8.958 22.011 22.011 0 0 0 17.7-6.334s-.087 4.685 3.9 6.333 6.681-7.679 6.681-7.679l6.68-18.481h.608s.347 12.039 6.94 13.948 15.183-4.435 15.183-4.435 2.082-1.117 1.735-4.587" fill="#fff"/></svg>