<svg height="20" width="133" xmlns="http://www.w3.org/2000/svg"><path d="m0 .801 11.07-.039.01 2.678-7.988.029.01 3.211 7.333-.026.01 2.627-7.333.026.014 3.888 8.356-.029.01 2.72-11.44.04zm27.602 3.885c.479.19.913.523 1.304 1 .315.39.529.868.64 1.435.07.376.106.927.108 1.652l.004 7.049-2.99.01-.025-7.12c-.001-.425-.07-.773-.208-1.046-.262-.52-.74-.778-1.437-.775-.805.002-1.36.34-1.665 1.011-.156.356-.233.784-.231 1.283l.023 6.66-2.94.01-.023-6.66c-.002-.663-.072-1.145-.21-1.445-.247-.54-.73-.808-1.446-.806-.833.003-1.392.275-1.677.817-.156.308-.233.767-.23 1.375l.023 6.731-2.96.01-.039-11.163 2.837-.01.006 1.632c.36-.583.7-.998 1.02-1.245.565-.44 1.298-.662 2.199-.665.853-.003 1.543.183 2.07.557.425.348.747.795.968 1.341.38-.658.853-1.142 1.418-1.452.6-.31 1.269-.466 2.006-.468a3.88 3.88 0 0 1 1.455.282zm14.256 1.253c.839 1.058 1.261 2.424 1.267 4.1.006 1.737-.4 3.179-1.22 4.324s-1.967 1.72-3.442 1.726c-.927.003-1.672-.18-2.236-.547-.337-.217-.702-.6-1.095-1.145l.005 1.406-2.878.01-.052-15.104 2.918-.01.019 5.376c.37-.52.777-.919 1.222-1.194.528-.344 1.2-.517 2.019-.52 1.477-.005 2.635.52 3.473 1.578zm-2.415 6.822c.417-.61.625-1.412.621-2.404-.003-.793-.108-1.45-.316-1.968-.396-.984-1.12-1.474-2.174-1.47-1.067.003-1.798.488-2.194 1.454-.205.514-.306 1.178-.303 1.992.003.957.22 1.75.649 2.378s1.08.94 1.954.937c.757-.003 1.345-.309 1.763-.92zm12.965-7.976c.78.346 1.425.896 1.935 1.647.46.663.758 1.433.897 2.31.08.513.115 1.253.104 2.219l-8.13.028c.05 1.122.442 1.907 1.176 2.356.447.279.983.417 1.61.415.665-.002 1.205-.175 1.62-.519.225-.185.425-.442.597-.771l2.98-.01c-.076.663-.435 1.338-1.075 2.024-.996 1.092-2.394 1.64-4.194 1.646-1.485.006-2.797-.448-3.936-1.362-1.139-.913-1.712-2.404-1.72-4.471-.006-1.938.501-3.425 1.523-4.463 1.022-1.037 2.35-1.559 3.986-1.564.972-.004 1.847.168 2.627.515zm-4.357 2.541c-.411.428-.668 1.005-.772 1.734l5.028-.018c-.055-.776-.316-1.364-.783-1.764s-1.045-.6-1.733-.597c-.75.003-1.33.218-1.74.645zm14.947-3.066c.037.004.12.009.25.015l.011 2.996a8.06 8.06 0 0 0 -.84-.048c-1.174.004-1.962.39-2.362 1.157-.223.432-.334 1.096-.33 1.992l.018 5.345-2.939.01-.04-11.183 2.787-.01.006 1.95c.448-.748.839-1.259 1.173-1.533.544-.46 1.253-.692 2.127-.695.055 0 .101.001.139.004zm2.76 9.128c-.003-.862-.264-1.521-.785-1.978-.315-.279-.766-.5-1.354-.662l-.004-1.242c.661-.228 1.128-.479 1.4-.753.483-.474.723-1.196.72-2.168l-.01-2.75a3.792 3.792 0 0 1 .17-1.098c.202-.664.548-1.192 1.037-1.584a3.603 3.603 0 0 1 1.58-.713c.368-.077.896-.12 1.584-.13l.006 1.642c-.563.126-.946.29-1.149.496-.31.316-.465.866-.462 1.652l.008 2.378c.003.765-.097 1.373-.3 1.825-.346.76-1.027 1.376-2.042 1.851.923.373 1.544.808 1.863 1.306.32.497.487 1.187.504 2.068l.01 2.592c.002.759.187 1.305.554 1.638.204.198.561.37 1.07.519l.006 1.642-.725-.018c-.974-.024-1.828-.314-2.563-.869-.734-.555-1.103-1.365-1.106-2.433zm8.162-.029c-.003-.862-.265-1.52-.785-1.977-.315-.28-.766-.5-1.354-.663l-.004-1.241c.66-.228 1.128-.48 1.4-.754.483-.474.723-1.196.72-2.167l-.01-2.75a3.792 3.792 0 0 1 .17-1.099c.202-.664.547-1.192 1.036-1.583a3.603 3.603 0 0 1 1.582-.715c.367-.076.895-.12 1.583-.129l.005 1.642c-.562.125-.945.29-1.148.496-.31.315-.465.866-.462 1.651l.008 2.378c.003.765-.098 1.373-.3 1.825-.346.76-1.027 1.377-2.042 1.852.923.372 1.544.808 1.863 1.305.319.498.487 1.187.504 2.068l.009 2.593c.002.758.187 1.304.555 1.638.204.197.56.37 1.07.519l.006 1.641-.725-.018c-.975-.024-1.829-.313-2.563-.868s-1.103-1.366-1.107-2.433zm11.967-12.997.615.044.008 2.38a9.6 9.6 0 0 0 -.824-.042c-.386-.01-.652.077-.798.259a.93.93 0 0 0 -.218.6l.003.945 1.915-.007.007 2.063-1.915.006.032 9.02-2.899.01-.03-9.02-1.64.006-.007-2.062 1.598-.006-.003-.718c-.004-1.197.195-2.022.596-2.475.421-.672 1.44-1.01 3.058-1.016.185-.001.352.004.502.013zm9.654 4.272c.78.347 1.425.896 1.935 1.648.46.662.759 1.432.898 2.309.08.513.115 1.253.104 2.219l-8.13.028c.049 1.122.44 1.907 1.175 2.356.447.28.984.417 1.61.415.666-.002 1.205-.175 1.62-.519.226-.185.425-.442.598-.771l2.98-.01c-.077.663-.435 1.338-1.076 2.025-.996 1.09-2.394 1.64-4.193 1.646-1.486.005-2.798-.45-3.937-1.363s-1.712-2.404-1.719-4.471c-.006-1.938.5-3.425 1.522-4.462 1.022-1.038 2.35-1.56 3.987-1.565.971-.004 1.847.168 2.626.515zm-4.357 2.541c-.41.428-.668 1.006-.771 1.734l5.028-.018c-.056-.776-.317-1.364-.784-1.764s-1.044-.6-1.733-.597c-.749.003-1.329.218-1.74.645zm11.037 4.822c.063.52.198.889.405 1.107.365.389 1.038.581 2.019.578.576-.002 1.034-.09 1.373-.262s.507-.429.506-.77a.83.83 0 0 0 -.413-.749c-.274-.17-1.293-.46-3.056-.871-1.27-.31-2.165-.7-2.685-1.17-.52-.464-.782-1.133-.785-2.01-.004-1.032.398-1.92 1.207-2.666.808-.745 1.947-1.12 3.418-1.125 1.396-.005 2.534.27 3.415.824.881.555 1.39 1.516 1.524 2.883l-2.918.01c-.043-.376-.15-.673-.322-.891-.323-.396-.871-.592-1.645-.59-.637.003-1.09.103-1.36.303s-.404.432-.403.699c.002.335.146.578.434.727.288.156 1.305.423 3.05.8 1.164.27 2.037.68 2.62 1.232.575.56.864 1.26.867 2.1.003 1.109-.406 2.015-1.227 2.719-.822.704-2.095 1.059-3.819 1.065-1.758.006-3.057-.36-3.898-1.1-.84-.739-1.263-1.683-1.267-2.832zm8.235-5.457-.007-2.082 1.556-.006-.01-3.119 2.887-.01.011 3.12 1.813-.007.007 2.083-1.813.006.02 5.91c.002.458.061.744.178.856.116.113.471.168 1.065.166a7.922 7.922 0 0 0 .574-.023l.007 2.186-1.382.056c-1.379.053-2.322-.183-2.829-.709-.329-.333-.494-.85-.497-1.547l-.024-6.885zm7.276 13.211-.006-1.641c.512-.152.87-.331 1.074-.537.346-.343.525-.887.537-1.631l-.01-2.593c-.003-.97.183-1.69.558-2.159.376-.47.974-.88 1.795-1.23-.9-.435-1.52-.93-1.86-1.485-.342-.556-.514-1.281-.517-2.176l-.008-2.378c-.003-.758-.126-1.273-.37-1.546-.243-.272-.661-.469-1.256-.59l-.006-1.642c.685.005 1.212.044 1.582.118.61.114 1.144.348 1.603.702.46.355.78.791.96 1.31.18.52.27.974.271 1.364l.01 2.75c.003.978.227 1.696.673 2.152.274.273.763.525 1.467.755l.004 1.241c-.58.166-1.02.38-1.318.64-.538.468-.806 1.14-.802 2.015l.01 3.211c.004 1.04-.352 1.847-1.069 2.42-.716.574-1.58.876-2.593.907zm8.162-.028-.006-1.642c.511-.152.87-.33 1.073-.537.347-.342.526-.886.537-1.63l-.009-2.594c-.003-.97.183-1.69.558-2.158.375-.47.973-.88 1.795-1.231-.9-.434-1.52-.93-1.861-1.485s-.513-1.28-.516-2.176l-.009-2.377c-.002-.759-.125-1.274-.368-1.546-.244-.273-.663-.47-1.257-.59l-.006-1.642c.685.004 1.212.044 1.581.118.61.114 1.144.348 1.604.702s.78.79.96 1.31.27.974.271 1.364l.01 2.75c.003.978.227 1.695.673 2.152.273.272.763.524 1.467.754l.004 1.241c-.58.167-1.02.38-1.319.641-.538.467-.805 1.139-.802 2.014l.011 3.212c.004 1.04-.353 1.846-1.069 2.42s-1.581.876-2.594.907z" fill="#e25641" fill-rule="evenodd"/></svg>