<?xml version="1.0" encoding="UTF-8"?>
<svg width="79px" height="48px" viewBox="0 0 79 48" version="1.1" xmlns="http://www.w3.org/2000/svg" xmlns:xlink="http://www.w3.org/1999/xlink">
    <!-- Generator: Sketch 49.1 (51147) - http://www.bohemiancoding.com/sketch -->
    <title>EmberConf</title>
    <desc>Created with Sketch.</desc>
    <defs></defs>
    <g id="Desktop" stroke="none" stroke-width="1" fill="none" fill-rule="evenodd">
        <g id="Ember" transform="translate(-991.000000, -3240.000000)" fill-rule="nonzero">
            <g id="Community" transform="translate(80.000000, 2688.000000)">
                <g id="text" transform="translate(576.000000, 208.000000)">
                    <g id="Logos" transform="translate(0.000000, 336.000000)">
                        <g id="EmberConf" transform="translate(335.000000, 8.000000)">
                            <polygon id="Fill-1" fill="#E15D44" points="47.5598817 0 0 18.7214602 1.84432603 37.6873872 54.7013383 48 78.3673469 36.336599 73.9548248 20.7170839"></polygon>
                            <polygon id="Fill-2" fill="#FEFEFE" points="57.7959184 36.244898 57.7959184 39.1836735 72.4897959 36.244898"></polygon>
                            <polygon id="Fill-3" fill="#FEFEFE" points="36.244898 36.244898 21.5510204 36.244898 36.244898 39.1836735"></polygon>
                            <path d="M49.7961441,27.4013422 C49.7961441,27.4013422 49.5160669,26.3879347 50.5611099,24.4393011 C51.6061531,22.4902987 52.4228643,23.5557041 52.4228643,23.5557041 C52.4228643,23.5557041 53.31448,24.543297 52.2951289,26.0246864 C51.2750539,27.5046006 49.7961441,27.4013422 49.7961441,27.4013422 M41.7658128,28.8038126 C40.5673423,32.0007667 37.6612686,30.7008171 37.6612686,30.7008171 C37.6612686,30.7008171 37.3298073,29.557599 38.2731688,26.3617513 C39.2161683,23.1666412 41.4343519,24.4127489 41.4343519,24.4127489 C41.4343519,24.4127489 42.9639216,25.6087025 41.7658128,28.8038126 M39.598651,15.4233671 C39.598651,15.4233671 41.4093837,10.6166883 41.8425264,12.95586 C42.2749455,15.2935566 38.0433896,22.2568609 38.0433896,22.2568609 C38.0944114,20.6980278 39.598651,15.4233671 39.598651,15.4233671 M13.7218926,27.4013422 C13.7986063,24.3094905 15.7870107,22.9582805 16.4756247,23.6342543 C17.1642386,24.3094905 16.9087675,25.7643277 15.6086152,26.6737392 C14.3088247,27.5831507 13.7218926,27.4013422 13.7218926,27.4013422 M68.5598789,26.8880004 C68.4574734,25.847672 67.5401658,26.2352598 67.5401658,26.2352598 C67.5401658,26.2352598 66.0612561,27.4028173 64.7611037,27.2733755 C63.4620371,27.1431962 63.869488,24.1800487 63.869488,24.1800487 C63.869488,24.1800487 64.1492036,21.465459 63.3845995,21.2371842 C62.6196338,21.0100157 61.6762726,21.9456106 61.6762726,21.9456106 C61.6762726,21.9456106 60.5042177,23.2702684 59.9426155,24.9585434 L59.78955,25.0109101 C59.78955,25.0109101 59.9686691,22.048869 59.7649435,21.3728952 C59.6115163,21.0354615 58.2093202,21.0616449 57.979903,21.6590685 C57.7508475,22.2568609 56.6283669,26.4141181 56.552015,28.1547598 C56.552015,28.1547598 54.3595233,30.0517642 52.4478325,30.3630145 C50.5365037,30.6753712 50.0769453,29.453603 50.0769453,29.453603 C50.0769453,29.453603 55.2771926,27.9725824 55.0987972,23.7375127 C54.9204017,19.5024429 50.9055978,21.0686517 50.4507434,21.41678 C50.011449,21.7542137 47.6637208,23.1961436 46.979449,27.1911376 C46.9562901,27.3272174 46.9154003,27.9209533 46.9154003,27.9209533 C46.9154003,27.9209533 44.901666,29.2979778 43.7799091,29.6619637 C43.7799091,29.6619637 46.9154003,24.2825696 43.091657,21.8412458 C41.3576382,20.7758404 39.981134,23.0099097 39.981134,23.0099097 C39.981134,23.0099097 45.1564134,17.1378254 44.0089646,12.1758903 C43.4636461,9.81311667 42.3035324,9.55865845 41.2393109,9.94071454 C39.6236192,10.5908737 39.0124427,11.5522832 39.0124427,11.5522832 C39.0124427,11.5522832 36.9219944,14.6441349 36.4374679,19.2431906 C35.9529414,23.8415087 35.2389974,29.4019738 35.2389974,29.4019738 C35.2389974,29.4019738 34.2449762,30.3895667 33.3269449,30.4404584 C32.4092753,30.4924563 32.8174502,27.6602258 32.8174502,27.6602258 C32.8174502,27.6602258 33.5310322,23.3477122 33.4803722,22.6208468 C33.4289887,21.8925062 33.377605,21.5030745 32.536649,21.2430846 C31.6956933,20.9834635 30.7776621,22.0750524 30.7776621,22.0750524 C30.7776621,22.0750524 28.3561148,25.8152193 28.1520275,26.3879347 L28.0242919,26.62211 L27.8969183,26.4664849 C27.8969183,26.4664849 29.6048835,21.3728952 27.973632,21.2950826 C26.3416567,21.2176388 25.2709218,23.1142745 25.2709218,23.1142745 C25.2709218,23.1142745 23.409891,26.2839387 23.3331773,26.6482934 L23.2061655,26.4915619 C23.2061655,26.4915619 23.9704076,22.8022866 23.8177039,21.8925062 C23.6650003,20.9834635 22.8236826,21.1656408 22.8236826,21.1656408 C22.8236826,21.1656408 21.7525858,21.0354615 21.4721466,21.7376186 C21.1920693,22.4383007 20.1723561,27.0893543 20.0446206,28.5700061 C20.0446206,28.5700061 17.3679641,30.5197461 15.6086152,30.5448231 C13.8496282,30.5706377 14.0283855,29.4075055 14.0283855,29.4075055 C14.0283855,29.4075055 20.4781253,27.1583162 18.7191383,22.7148857 C17.9288425,21.5716676 17.0104494,21.2124759 15.7106589,21.2382905 C14.4105066,21.2644739 12.8096511,22.0721021 11.7642461,24.462903 C11.2659689,25.6042772 11.096258,26.6851714 10.9945762,27.5042318 C10.9945762,27.5042318 9.85255534,27.7380384 9.24029326,27.2191649 C8.62875488,26.7002914 8.30742583,27.2191649 8.30742583,27.2191649 C8.30742583,27.2191649 7.25369813,28.37234 8.29946497,28.7886927 C9.34486993,29.2046765 10.9728647,29.1854999 10.9728647,29.1854999 L10.972141,29.1854999 C11.1223117,30.29184 11.5579876,31.3609333 12.8313625,32.3470511 C14.7426913,33.827334 18.413731,32.3145985 18.413731,32.3145985 L19.9176088,31.5084451 C19.9176088,31.5084451 19.9679069,32.9411557 21.0646956,33.146935 C22.1611224,33.3519766 22.6199571,33.156892 24.5323716,28.4287633 C25.6534047,26.0114103 25.7297565,26.1471213 25.7297565,26.1471213 L25.8578539,26.1253633 C25.8578539,26.1253633 24.9904826,30.7513399 25.3219436,31.9985539 C25.6534047,33.2453991 27.1058988,33.1163261 27.1058988,33.1163261 C27.1058988,33.1163261 27.8969183,33.1174326 28.5337867,30.8309964 C29.1713787,28.5445603 30.3951792,25.8664798 30.3951792,25.8664798 L30.5482447,25.8664798 C30.5482447,25.8664798 30.0130582,30.7539214 30.8286838,32.2596501 C31.6446716,33.7661165 33.7604497,32.843429 33.7604497,32.843429 C33.7604497,32.843429 35.2389974,32.1235703 35.4687766,31.8890263 C35.4687766,31.8890263 37.2237832,33.4297891 39.6992474,33.1550481 C45.233127,32.0450201 47.2009055,30.5562553 47.2009055,30.5562553 C47.2009055,30.5562553 48.1522276,33.016018 51.0962964,33.2431864 C54.4622908,33.502439 56.2972677,31.3487636 56.2972677,31.3487636 C56.2972677,31.3487636 56.2719378,32.7527091 57.4447164,33.2468742 C58.6178567,33.740302 59.407429,30.9895718 59.407429,30.9895718 L61.3701415,25.4976997 L61.5492606,25.4976997 C61.5492606,25.4976997 61.6513044,29.0619586 63.5890488,29.6335677 C65.5257075,30.2055455 68.0500222,28.2823577 68.0500222,28.2823577 C68.0500222,28.2823577 68.6622843,27.9268537 68.5598789,26.8880004" id="Fill-4" fill="#FEFEFE"></path>
                            <path d="M43.1020408,37.6411339 C43.06045,37.8619702 42.9325978,37.9903725 42.7180986,38.0259537 L42.2451989,38.0259537 C42.0187612,38.0027486 41.8912942,37.8766669 41.8616415,37.6496424 L41.8616415,37.2918953 C41.8196659,36.8432611 41.5758991,36.591871 41.1295712,36.5384993 C40.6597521,36.591871 40.4036624,36.8432611 40.3620717,37.2918953 L40.3620717,40.1681823 C40.4036624,40.6346074 40.6597521,40.8887046 41.1295712,40.9308608 C41.5758991,40.8887046 41.8196659,40.6346074 41.8616415,40.1681823 L41.8616415,39.7833625 C41.8912942,39.556338 42.025308,39.4310299 42.2632984,39.4062778 L42.7007692,39.4062778 C42.9264363,39.4368313 43.06045,39.5621394 43.1020408,39.7833625 L43.1020408,40.1681823 C42.9649459,41.3636381 42.3075845,42.015318 41.1295712,42.122449 C39.9276818,42.0269207 39.2787924,41.3752408 39.1836735,40.1681823 L39.1836735,37.2640489 C39.2734011,36.0569907 39.9219053,35.3913878 41.1295712,35.2653061 C42.3199075,35.3913878 42.9772692,36.0569907 43.1020408,37.2640489 L43.1020408,37.6411339 Z" id="Fill-6" fill="#FEFEFE"></path>
                            <path d="M45.8181554,40.1769682 L45.8181554,37.2823404 C45.7701268,36.8158891 45.5153831,36.5617775 45.0520028,36.5200058 C44.5893912,36.5679661 44.3369527,36.8220776 44.295456,37.2823404 L44.295456,40.1769682 C44.3369527,40.6434196 44.5893912,40.8921159 45.0520028,40.9222846 C45.5153831,40.8921159 45.7701268,40.6434196 45.8181554,40.1769682 M45.0520028,35.2653061 C46.2458024,35.3848196 46.9016815,36.0450455 47.0204082,37.2467569 L47.0204082,40.1684592 C46.8959179,41.3635953 46.2396548,42.0153123 45.0520028,42.122449 C43.8651195,42.0091237 43.215004,41.3581805 43.1020408,40.1684592 L43.1020408,37.2467569 C43.2030928,36.0450455 43.8532084,35.3848196 45.0520028,35.2653061" id="Fill-8" fill="#FEFEFE"></path>
                            <path d="M51.9095093,40.8665222 C51.9037322,41.0504301 51.7966646,41.1420448 51.5883064,41.1420448 L51.5347726,41.1420448 L51.4635225,41.1420448 L51.1065018,41.1420448 L51.0706845,41.1420448 L51.0175356,41.1420448 C50.7729747,41.1525634 50.6035151,41.0609487 50.5080015,40.8665222 C50.0620147,39.9439286 49.621805,39.0213353 49.1873724,38.0984026 L49.1873724,40.2455784 L49.1873724,40.8118927 C49.1634939,41.0158199 49.03871,41.126097 48.8122505,41.1420448 L48.3570203,41.1420448 C48.1428852,41.126097 48.0238785,41.0263388 48,40.8431094 L48,35.5189414 L48,35.4802596 C48.0119392,35.3221394 48.1132296,35.2515621 48.3034865,35.2675099 L48.4282705,35.2675099 L48.776818,35.2675099 L48.8661695,35.2675099 C49.104183,35.2515621 49.2798048,35.3438556 49.3926495,35.5423539 C49.8209199,36.4815737 50.258434,37.4143466 50.7044205,38.3427081 L50.7044205,35.5980013 C50.7286843,35.4039139 50.8534682,35.2939765 51.0799278,35.2675099 L51.5440159,35.2675099 C51.7519889,35.2827791 51.8767728,35.3825374 51.9183673,35.5664452 L51.9183673,37.0363514 L51.9183673,39.4193501 C51.9129755,39.8913351 51.9095093,40.3606056 51.9095093,40.8271617 L51.9095093,40.8665222 Z" id="Fill-10" fill="#FEFEFE"></path>
                            <path d="M55.4501328,35.2653061 C55.6715466,35.2974258 55.8002848,35.4096752 55.8367347,35.6027312 L55.8367347,36.0101429 C55.8002848,36.2190897 55.6688323,36.3289725 55.4412143,36.3391153 L53.3023015,36.3391153 C53.1824818,36.3492585 53.1161742,36.407412 53.1041534,36.511547 L53.1041534,37.5224695 C53.1161742,37.6269429 53.1824818,37.6813772 53.3023015,37.687463 L54.6594795,37.687463 C54.8805058,37.7134969 55.0042029,37.8203368 55.0278565,38.0076447 L55.0278565,38.4312856 C55.0042029,38.6354987 54.8777914,38.7396339 54.6501731,38.7450436 L53.3023015,38.7450436 C53.1824818,38.760258 53.1161742,38.8211163 53.1041534,38.9252515 L53.1041534,39.7945095 L53.1041534,40.8132084 C53.086704,41.0116738 52.9637824,41.122233 52.7357765,41.1428571 L52.2774379,41.1428571 C52.0622282,41.132714 51.9420213,41.035679 51.9183673,40.8524283 L51.9183673,39.7945095 L51.9183673,39.6934174 L51.9183673,35.963147 L51.9183673,35.5952928 C51.923796,35.4123802 52.0288806,35.301821 52.232845,35.2653061 L55.4501328,35.2653061 Z" id="Fill-12" fill="#FEFEFE"></path>
                            <path d="M24.1984629,16.7668249 C24.3614619,16.7884256 24.4588188,16.8744684 24.4897959,17.0253133 L24.4897959,17.3612043 C24.4588188,17.5250096 24.359618,17.6153725 24.1918249,17.6326531 L21.8618985,17.6326531 C21.6941055,17.6153725 21.6015427,17.5250096 21.5842102,17.3612043 L21.5842102,17.0253133 C21.5842102,16.9777918 21.5971174,16.9345904 21.6236693,16.8960691 C22.2811968,16.0860428 22.921023,15.2526157 23.5431481,14.3954278 C23.5431481,14.3007448 23.5453607,14.2082218 23.549786,14.1174988 C23.4837751,13.8248093 23.3004935,13.6674842 23.0003099,13.6458835 C22.6518166,13.6761245 22.4641096,13.8615305 22.4379266,14.2017416 L22.4379266,14.4472695 C22.4158,14.6107148 22.3210246,14.7014378 22.1532315,14.7187184 L21.8158015,14.7187184 C21.6435832,14.6967576 21.5554457,14.6045946 21.5510204,14.4407893 L21.5510204,14.1693405 C21.6214566,13.2991922 22.1045531,12.8210967 23.0003099,12.7346939 C23.887216,12.8254168 24.3725252,13.3035123 24.4566061,14.1693405 C24.4521808,14.2899444 24.4433301,14.4083883 24.4300542,14.524672 C24.3680999,14.6884774 24.2799624,14.8346421 24.1652731,14.9638863 C23.7197918,15.5669059 23.2695163,16.1681254 22.8151843,16.7668249 L24.1984629,16.7668249 Z" id="Fill-14" fill="#FEFEFE"></path>
                            <path d="M26.5289311,16.2431737 L26.5289311,14.1944498 C26.4932871,13.8573361 26.302443,13.6714776 25.9556564,13.6372311 C25.6047855,13.6757584 25.4135702,13.8612602 25.382753,14.1944498 L25.382753,16.2431737 C25.4180257,16.5760066 25.609241,16.7575843 25.9556564,16.7871932 C26.302443,16.7575843 26.4932871,16.5760066 26.5289311,16.2431737 M25.9556564,12.7346939 C26.8486135,12.8242342 27.3394614,13.297977 27.4285714,14.1559225 L27.4285714,16.2367525 C27.3394614,17.094698 26.8486135,17.5598793 25.9556564,17.6326531 C25.0582438,17.5555985 24.5696237,17.0904172 24.4897959,16.2367525 L24.4897959,14.1559225 C24.5696237,13.297977 25.0582438,12.8242342 25.9556564,12.7346939" id="Fill-16" fill="#FEFEFE"></path>
                            <path d="M30.3673469,13.0126511 L30.3673469,13.2779902 C30.3584177,13.9856816 30.353953,14.6930123 30.353953,15.4003431 L30.353953,17.3608246 C30.3360945,17.5205329 30.247174,17.6110221 30.0868195,17.6326531 L29.7329978,17.6326531 C29.5726433,17.6153483 29.4814905,17.5313483 29.4591673,17.3802924 L29.4591673,13.9056472 C29.2456093,14.0393983 29.0272146,14.1688232 28.8047274,14.293922 C28.73813,14.3454757 28.666696,14.375759 28.5911693,14.3844113 C28.4709965,14.3544885 28.410724,14.2766173 28.410724,14.1515185 L28.410724,13.7372866 C28.3928655,13.5649603 28.4683921,13.4376985 28.6380479,13.3558615 C28.7180392,13.3082735 28.7980304,13.2585224 28.8783937,13.2069688 C29.0428408,13.1117927 29.2054277,13.0126511 29.3657822,12.9091832 C29.4279149,12.8702476 29.4904197,12.8359986 29.5525524,12.8057154 C29.606128,12.7581274 29.6727253,12.7346939 29.7530886,12.7346939 L30.0868195,12.7346939 C30.247174,12.7602905 30.3405592,12.8533034 30.3673469,13.0126511" id="Fill-18" fill="#FEFEFE"></path>
                            <path d="M32.286405,16.2339986 C32.3133215,16.5449688 32.4897751,16.723581 32.8165134,16.7705468 C33.1339057,16.723581 33.30849,16.5449688 33.339893,16.2339986 C33.3174623,15.9191145 33.142878,15.7380117 32.8165134,15.6914018 C32.4897751,15.7422813 32.3133215,15.9233841 32.286405,16.2339986 M32.8165134,13.609609 C32.4897751,13.6647582 32.3133215,13.845861 32.286405,14.1522058 C32.3133215,14.4674457 32.4897751,14.6481927 32.8165134,14.6951584 C33.142878,14.6524623 33.3174623,14.4713595 33.339893,14.1522058 C33.30849,13.8415914 33.1339057,13.6604886 32.8165134,13.609609 M34.2857143,14.1522058 L34.2857143,14.1586102 C34.2722559,14.575965 34.1335603,14.9420844 33.8700016,15.2569685 C34.1384204,15.5295122 34.276742,15.8554261 34.2857143,16.2339986 C34.1963659,17.0857866 33.7066325,17.5518862 32.8165134,17.6326531 C31.9129365,17.5518862 31.4228288,17.0857866 31.3469388,16.2339986 C31.3469388,15.8554261 31.4833914,15.5295122 31.7562964,15.2569685 C31.4833914,14.9420844 31.3469388,14.575965 31.3469388,14.1586102 L31.3469388,14.1522058 C31.4187166,13.3007736 31.9084504,12.8282696 32.8165134,12.7346939 C33.7111183,12.8282696 34.200852,13.3007736 34.2857143,14.1522058" id="Fill-20" fill="#FEFEFE"></path>
                        </g>
                    </g>
                </g>
            </g>
        </g>
    </g>
</svg>