<svg height="48" width="79" xmlns="http://www.w3.org/2000/svg"><g fill="none"><path d="m47.56 0-47.56 18.721 1.844 18.966 52.857 10.313 23.666-11.663-4.412-15.62z" fill="#e15d44"/><g fill="#fefefe"><path d="m57.796 36.245v2.939l14.694-2.94zm-21.551 0h-14.695l14.694 2.939zm13.551-8.844s-.28-1.013.765-2.962 1.862-.883 1.862-.883.891.987-.128 2.469c-1.02 1.48-2.499 1.376-2.499 1.376m-8.03 1.403c-1.199 3.196-4.106 1.896-4.106 1.896s-.331-1.143.612-4.34c.943-3.194 3.161-1.948 3.161-1.948s1.53 1.196.332 4.39m-2.167-13.38s1.81-4.806 2.244-2.467c.432 2.338-3.8 9.3-3.8 9.3.051-1.558 1.556-6.833 1.556-6.833m-25.876 11.979c.077-3.092 2.065-4.443 2.754-3.767.688.675.433 2.13-.867 3.04s-1.887.727-1.887.727m54.838-.513c-.103-1.04-1.02-.653-1.02-.653s-1.479 1.168-2.779 1.038c-1.299-.13-.892-3.093-.892-3.093s.28-2.715-.484-2.943c-.765-.227-1.709.709-1.709.709s-1.172 1.324-1.733 3.013l-.153.052s.179-2.962-.025-3.638c-.153-.338-1.556-.311-1.785.286-.23.598-1.352 4.755-1.428 6.496 0 0-2.192 1.897-4.104 2.208-1.911.312-2.371-.91-2.371-.91s5.2-1.48 5.022-5.715c-.179-4.236-4.193-2.67-4.648-2.321-.44.337-2.787 1.78-3.472 5.774-.023.136-.064.73-.064.73s-2.013 1.377-3.135 1.741c0 0 3.135-5.38-.688-7.82-1.734-1.066-3.11 1.168-3.11 1.168s5.174-5.872 4.027-10.834c-.545-2.363-1.705-2.617-2.77-2.235-1.615.65-2.227 1.611-2.227 1.611s-2.09 3.092-2.575 7.691c-.484 4.599-1.198 10.159-1.198 10.159s-.994.988-1.912 1.038c-.918.052-.51-2.78-.51-2.78s.714-4.312.663-5.04c-.051-.727-.102-1.117-.943-1.377s-1.76.832-1.76.832-2.42 3.74-2.625 4.313l-.128.234-.127-.156s1.708-5.093.077-5.17c-1.632-.078-2.703 1.818-2.703 1.818s-1.861 3.17-1.938 3.534l-.127-.156s.764-3.69.612-4.6c-.153-.909-.994-.726-.994-.726s-1.071-.13-1.352.572c-.28.7-1.3 5.351-1.427 6.832 0 0-2.677 1.95-4.436 1.975-1.76.026-1.58-1.137-1.58-1.137s6.45-2.25 4.69-6.693c-.79-1.143-1.709-1.503-3.008-1.477-1.3.026-2.901.834-3.947 3.225-.498 1.141-.668 2.222-.77 3.041 0 0-1.141.234-1.754-.285-.611-.519-.933 0-.933 0s-1.053 1.153-.008 1.57c1.046.416 2.674.396 2.674.396.15 1.107.585 2.176 1.858 3.162 1.912 1.48 5.583-.032 5.583-.032l1.504-.807s.05 1.433 1.147 1.639c1.096.205 1.555.01 3.467-4.718 1.121-2.418 1.198-2.282 1.198-2.282l.128-.022s-.868 4.626-.536 5.874c.331 1.246 1.784 1.117 1.784 1.117s.79.001 1.428-2.285c.637-2.286 1.861-4.965 1.861-4.965h.153s-.535 4.888.28 6.394c.817 1.506 2.932.583 2.932.583s1.479-.72 1.709-.954c0 0 1.755 1.54 4.23 1.266 5.534-1.11 7.502-2.599 7.502-2.599s.951 2.46 3.895 2.687c3.366.26 5.201-1.894 5.201-1.894s-.025 1.404 1.148 1.898c1.173.493 1.962-2.257 1.962-2.257l1.963-5.492h.18s.101 3.564 2.039 4.136c1.937.572 4.461-1.352 4.461-1.352s.612-.355.51-1.394m-25.458 10.753c-.042.221-.17.35-.384.385h-.473c-.226-.023-.354-.15-.383-.376v-.358c-.042-.449-.286-.7-.732-.754-.47.054-.726.305-.768.754v2.876c.042.467.298.72.768.763.446-.042.69-.296.732-.763v-.385c.03-.227.163-.352.401-.377h.438c.225.03.36.156.401.377v.385c-.137 1.196-.794 1.847-1.972 1.954-1.202-.095-1.851-.747-1.946-1.954v-2.904c.09-1.207.738-1.873 1.946-1.999 1.19.126 1.847.792 1.972 1.999z"/><path d="m45.818 40.177v-2.895c-.048-.466-.303-.72-.766-.762-.463.048-.715.302-.757.762v2.895c.042.466.294.715.757.745.463-.03.718-.279.766-.745m-.766-4.912c1.194.12 1.85.78 1.968 1.982v2.921c-.124 1.196-.78 1.847-1.968 1.954-1.187-.113-1.837-.764-1.95-1.954v-2.921c.101-1.202.751-1.862 1.95-1.982m6.858 5.602c-.006.183-.113.275-.322.275h-.57c-.245.01-.414-.081-.51-.275-.446-.923-.886-1.846-1.32-2.769v2.714c-.025.204-.15.314-.376.33h-.455c-.214-.016-.333-.116-.357-.299v-5.363c.012-.158.113-.228.303-.212h.564a.52.52 0 0 1 .526.274c.428.94.865 1.872 1.311 2.8v-2.744c.025-.194.15-.304.376-.33h.464c.208.015.333.115.374.298v3.854c-.005.472-.008.942-.008 1.408z"/><path d="m55.45 35.265c.222.032.35.145.387.338v.407c-.037.21-.168.319-.396.33h-2.139c-.12.01-.186.067-.198.172v1.01c.012.105.078.16.198.165h1.357c.222.026.345.133.369.32v.424c-.024.204-.15.309-.378.314h-1.348c-.12.015-.186.076-.198.18v1.888c-.017.199-.14.31-.368.33h-.459c-.215-.01-.335-.107-.359-.29v-5.259c.006-.183.11-.293.315-.33zm-31.252-18.498c.163.021.26.107.292.258v.336c-.031.164-.13.254-.298.272h-2.33c-.168-.018-.26-.108-.278-.272v-.336c0-.047.013-.09.04-.129a58.33 58.33 0 0 0 1.92-2.5c0-.095.001-.188.006-.279-.066-.292-.25-.45-.55-.471-.348.03-.536.216-.562.556v.245c-.022.164-.117.254-.285.272h-.337c-.172-.022-.26-.114-.265-.278v-.272c.07-.87.554-1.348 1.45-1.434.886.09 1.372.569 1.456 1.434-.005.12-.014.24-.027.356-.062.163-.15.31-.265.439-.445.603-.895 1.204-1.35 1.803zm2.331-.524v-2.049c-.036-.337-.227-.523-.573-.557-.351.039-.542.224-.573.557v2.05c.035.332.226.514.573.543.346-.03.537-.211.573-.544m-.573-3.508c.893.09 1.383.563 1.473 1.42v2.082c-.09.858-.58 1.323-1.473 1.396-.898-.077-1.386-.543-1.466-1.396v-2.081c.08-.858.568-1.332 1.466-1.421m4.411.278v.265c-.009.708-.013 1.415-.013 2.122v1.96c-.018.16-.107.251-.267.273h-.354c-.16-.018-.252-.102-.274-.253v-3.474a16.09 16.09 0 0 1 -.654.388.425.425 0 0 1 -.214.09c-.12-.03-.18-.107-.18-.232v-.415c-.018-.172.057-.3.227-.381.08-.048.16-.097.24-.149.165-.095.327-.194.488-.298.062-.039.124-.073.187-.103a.29.29 0 0 1 .2-.071h.334a.31.31 0 0 1 .28.278m1.919 3.221c.027.311.204.49.53.537.318-.047.492-.226.524-.537-.023-.315-.197-.496-.523-.543-.327.051-.504.232-.53.543m.53-2.624c-.327.055-.504.236-.53.542.026.315.203.496.53.543.326-.043.5-.224.523-.543-.032-.31-.206-.492-.523-.542m1.469.542v.007a1.752 1.752 0 0 1 -.416 1.098c.268.273.407.598.416.977-.09.852-.58 1.318-1.47 1.399-.903-.081-1.393-.547-1.47-1.399 0-.379.137-.704.41-.977a1.626 1.626 0 0 1 -.41-1.098v-.007c.073-.851.562-1.324 1.47-1.417.895.093 1.385.566 1.47 1.417"/></g></g></svg>