<svg height="48" viewBox="0 0 79 48" width="79" xmlns="http://www.w3.org/2000/svg"><g fill="none"><path d="m47.5598817 0-47.5598817 18.7214602 1.84432603 18.965927 52.85701227 10.3126128 23.6660086-11.663401-4.4125221-15.6195151z" fill="#e15d44"/><g fill="#fefefe"><path d="m57.7959184 36.244898v2.9387755l14.6938775-2.9387755z"/><path d="m36.244898 36.244898h-14.6938776l14.6938776 2.9387755z"/><path d="m49.7961441 27.4013422s-.2800772-1.0134075.7649658-2.9620411c1.0450432-1.9490024 1.8617544-.883597 1.8617544-.883597s.8916157.9875929-.1277354 2.4689823c-1.020075 1.4799142-2.4989848 1.3766558-2.4989848 1.3766558m-8.0303313 1.4024704c-1.1984705 3.1969541-4.1045442 1.8970045-4.1045442 1.8970045s-.3314613-1.1432181.6119002-4.3390658c.9429995-3.1951101 3.1611831-1.9490024 3.1611831-1.9490024s1.5295697 1.1959536.3314609 4.3910637m-2.1671618-13.3804455s1.8107327-4.8066788 2.2438754-2.4675071c.4324191 2.3376966-3.7991368 9.3010009-3.7991368 9.3010009.0510218-1.5588331 1.5552614-6.8334938 1.5552614-6.8334938m-25.8767584 11.9779751c.0767137-3.0918517 2.0651181-4.4430617 2.7537321-3.7670879.6886139.6752362.4331428 2.1300734-.8670095 3.0394849-1.2997905.9094115-1.8867226.727603-1.8867226.727603m54.8379863-.5133418c-.1024055-1.0403284-1.0197131-.6527406-1.0197131-.6527406s-1.4789097 1.1675575-2.7790621 1.0381157c-1.2990666-.1301793-.8916157-3.0933268-.8916157-3.0933268s.2797156-2.7145897-.4848885-2.9428645c-.7649657-.2271685-1.7083269.7084264-1.7083269.7084264s-1.1720549 1.3246578-1.7336571 3.0129328l-.1530655.0523667s.1791191-2.9620411-.0246065-3.6380149c-.1534272-.3374337-1.5556233-.3112503-1.7850405.2861733-.2290555.5977924-1.3515361 4.7550496-1.427888 6.4956913 0 0-2.1924917 1.8970044-4.1041825 2.2082547-1.9113288.3123567-2.3708872-.9094115-2.3708872-.9094115s5.2002473-1.4810206 5.0218519-5.7160903c-.1783955-4.2350698-4.1931994-2.668861-4.6480538-2.3207327-.4392944.3374337-2.7870226 1.7793636-3.4712944 5.7743576-.0231589.1360798-.0640487.7298157-.0640487.7298157s-2.0137343 1.3770245-3.1354912 1.7410104c0 0 3.1354912-5.3793941-.6882521-7.8207179-1.7340188-1.0654054-3.110523 1.1686639-3.110523 1.1686639s5.1752794-5.8720843 4.0278306-10.8340194c-.5453185-2.36277363-1.7054322-2.61723185-2.7696537-2.23517576-1.6156917.65015916-2.2268682 1.61156866-2.2268682 1.61156866s-2.0904483 3.0918517-2.5749748 7.6909074c-.4845265 4.5983181-1.1984705 10.1587832-1.1984705 10.1587832s-.9940212.9875929-1.9120525 1.0384846c-.9176696.0519979-.5094947-2.7802326-.5094947-2.7802326s.713582-4.3125136.662922-5.039379c-.0513835-.7283406-.1027672-1.1177723-.9437232-1.3777622-.8409557-.2596211-1.7589869.8319678-1.7589869.8319678s-2.4215473 3.7401669-2.6256346 4.3128823l-.1277356.2341753-.1273736-.1556251s1.7079652-5.0935897.0767137-5.1714023c-1.6319753-.0774438-2.7027102 1.8191919-2.7027102 1.8191919s-1.8610308 3.1696642-1.9377445 3.5340189l-.1270118-.1567315s.7642421-3.6892753.6115384-4.5990557c-.1527036-.9090427-.9940213-.7268654-.9940213-.7268654s-1.0710968-.1301793-1.351536.5719778c-.2800773.7006821-1.2997905 5.3517357-1.427526 6.8323875 0 0-2.6766565 1.94974-4.4360054 1.974817-1.758987.0258146-1.5802297-1.1373176-1.5802297-1.1373176s6.4497398-2.2491893 4.6907528-6.6926198c-.7902958-1.1432181-1.7086889-1.5024098-3.0084794-1.4765952-1.3001523.0261834-2.9010078.8338116-3.9464128 3.2246125-.4982772 1.1413742-.6679881 2.2222684-.7696699 3.0413288 0 0-1.14202086.2338066-1.75428294-.2850669-.61153838-.5188735-.93286743 0-.93286743 0s-1.0537277 1.1531751-.00796086 1.5695278c1.04540496.4159838 2.67339973.3968072 2.67339973.3968072h-.0007237c.1501707 1.1063401.5858466 2.1754334 1.8592215 3.1615512 1.9113288 1.4802829 5.5823685-.0324526 5.5823685-.0324526l1.5038778-.8061534s.0502981 1.4327106 1.1470868 1.6384899c1.0964268.2050416 1.5552615.009957 3.467676-4.7181717 1.1210331-2.417353 1.1973849-2.281642 1.1973849-2.281642l.1280974-.021758s-.8673713 4.6259766-.5359103 5.8731906c.3314611 1.2468452 1.7839552 1.1177722 1.7839552 1.1177722s.7910195.0011065 1.4278879-2.2853297c.637592-2.2864361 1.8613925-4.9645166 1.8613925-4.9645166h.1530655s-.5351865 4.8874416.2804391 6.3931703c.8159878 1.5064664 2.9317659.5837789 2.9317659.5837789s1.4785477-.7198587 1.7083269-.9544027c0 0 1.7550066 1.5407628 4.2304708 1.2660218 5.5338796-1.110028 7.5016581-2.5987928 7.5016581-2.5987928s.9513221 2.4597627 3.8953909 2.6869311c3.3659944.2592526 5.2009713-1.8944228 5.2009713-1.8944228s-.0253299 1.4039455 1.1474487 1.8981106c1.1731403.4934278 1.9627126-2.2573024 1.9627126-2.2573024l1.9627125-5.4918721h.1791191s.1020438 3.5642589 2.0397882 4.135868c1.9366587.5719778 4.4609734-1.35121 4.4609734-1.35121s.6122621-.355504.5098567-1.3943573"/><path d="m43.1020408 37.6411339c-.0415908.2208363-.169443.3492386-.3839422.3848198h-.4728997c-.2264377-.0232051-.3539047-.1492868-.3835574-.3763113v-.3577471c-.0419756-.4486342-.2857424-.7000243-.7320703-.753396-.4698191.0533717-.7259088.3047618-.7674995.753396v2.876287c.0415907.4664251.2976804.7205223.7674995.7626785.4463279-.0421562.6900947-.2962534.7320703-.7626785v-.3848198c.0296527-.2270245.1636665-.3523326.4016569-.3770847h.4374708c.2256671.0305535.3596808.1558616.4012716.3770847v.3848198c-.1370949 1.1954558-.7944563 1.8471357-1.9724696 1.9542667-1.2018894-.0955283-1.8507788-.7472082-1.9458977-1.9542667v-2.9041334c.0897276-1.2070582.7382318-1.8726611 1.9458977-1.9987428 1.1903363.1260817 1.847698.7916846 1.9724696 1.9987428z"/><path d="m45.8181554 40.1769682v-2.8946278c-.0480286-.4664513-.3027723-.7205629-.7661526-.7623346-.4626116.0479603-.7150501.3020718-.7565468.7623346v2.8946278c.0414967.4664514.2939352.7151477.7565468.7453164.4633803-.0301687.718124-.278865.7661526-.7453164m-.7661526-4.9116621c1.1937996.1195135 1.8496787.7797394 1.9684054 1.9814508v2.9217023c-.1244903 1.1951361-.7807534 1.8468531-1.9684054 1.9539898-1.1868833-.1133253-1.8369988-.7642685-1.949962-1.9539898v-2.9217023c.101052-1.2017114.7511676-1.8619373 1.949962-1.9814508"/><path d="m51.9095093 40.8665222c-.0057771.1839079-.1128447.2755226-.3212029.2755226h-.0535338-.0712501-.3570207-.0358173-.0531489c-.2445609.0105186-.4140205-.0810961-.5095341-.2755226-.4459868-.9225936-.8861965-1.8451869-1.3206291-2.7681196v2.1471758.5663143c-.0238785.2039272-.1486624.3142043-.3751219.3301521h-.4552302c-.2141351-.0159478-.3331418-.115706-.3570203-.2989354v-5.324168-.0386818c.0119392-.1581202.1132296-.2286975.3034865-.2127497h.124784.3485475.0893515c.2380135-.0159478.4136353.0763457.52648.274844.4282704.9392198.8657845 1.8719927 1.311771 2.8003542v-2.7447068c.0242638-.1940874.1490477-.3040248.3755073-.3304914h.4640881c.207973.0152692.3327569.1150275.3743514.2989353v1.4699062 2.3829987c-.0053918.471985-.008858.9412555-.008858 1.4078116z"/><path d="m55.4501328 35.2653061c.2214138.0321197.350152.1443691.3866019.3374251v.4074117c-.0364499.2089468-.1679024.3188296-.3955204.3289724h-2.1389128c-.1198197.0101432-.1861273.0682967-.1981481.1724317v1.0109225c.0120208.1044734.0783284.1589077.1981481.1649935h1.357178c.2210263.0260339.3447234.1328738.368377.3201817v.4236409c-.0236536.2042131-.1500651.3083483-.3776834.313758h-1.3478716c-.1198197.0152144-.1861273.0760727-.1981481.1802079v.869258 1.0186989c-.0174494.1984654-.140371.3090246-.3683769.3296487h-.4583386c-.2152097-.0101431-.3354166-.1071781-.3590706-.2904288v-1.0579188-.1010921-3.7302704-.3678542c.0054287-.1829126.1105133-.2934718.3144777-.3299867z"/><path d="m24.1984629 16.7668249c.162999.0216007.2603559.1076435.291333.2584884v.335891c-.0309771.1638053-.1301779.2541682-.297971.2714488h-2.3299264c-.167793-.0172806-.2603558-.1076435-.2776883-.2714488v-.335891c0-.0475215.0129072-.0907229.0394591-.1292442.6575275-.8100263 1.2973537-1.6434534 1.9194788-2.5006413 0-.094683.0022126-.187206.0066379-.277929-.0660109-.2926895-.2492925-.4500146-.5494761-.4716153-.3484933.030241-.5362003.215647-.5623833.5558581v.2455279c-.0221266.1634453-.116902.2541683-.2846951.2714489h-.33743c-.1722183-.0219608-.2603558-.1141238-.2647811-.2779291v-.2714488c.0704362-.8701483.5535327-1.3482438 1.4492895-1.4346466.8869061.0907229 1.3722153.5688184 1.4562962 1.4346466-.0044253.1206039-.013276.2390478-.0265519.3553315-.0619543.1638054-.1500918.3099701-.2647811.4392143-.4454813.6030196-.8957568 1.2042391-1.3500888 1.8029386z"/><path d="m26.5289311 16.2431737v-2.0487239c-.035644-.3371137-.2264881-.5229722-.5732747-.5572187-.3508709.0385273-.5420862.2240291-.5729034.5572187v2.0487239c.0352727.3328329.226488.5144106.5729034.5440195.3467866-.0296089.5376307-.2111866.5732747-.5440195m-.5732747-3.5084798c.8929571.0895403 1.383805.5632831 1.472915 1.4212286v2.08083c-.08911.8579455-.5799579 1.3231268-1.472915 1.3959006-.8974126-.0770546-1.3860327-.5422359-1.4658605-1.3959006v-2.08083c.0798278-.8579455.5684479-1.3316883 1.4658605-1.4212286"/><path d="m30.3673469 13.0126511v.2653391c-.0089292.7076914-.0133939 1.4150221-.0133939 2.1223529v1.9604815c-.0178585.1597083-.106779.2501975-.2671335.2718285h-.3538217c-.1603545-.0173048-.2515073-.1013048-.2738305-.2523607v-3.4746452c-.213558.1337511-.4319527.263176-.6544399.3882748-.0665974.0515537-.1380314.081837-.2135581.0904893-.1201728-.0299228-.1804453-.107794-.1804453-.2328928v-.4142319c-.0178585-.1723263.0576681-.2995881.2273239-.3814251.0799913-.047588.1599825-.0973391.2403458-.1488927.1644471-.0951761.327034-.1943177.4873885-.2977856.0621327-.0389356.1246375-.0731846.1867702-.1034678.0535756-.047588.1201729-.0710215.2005362-.0710215h.3337309c.1603545.0255966.2537397.1186095.2805274.2779572"/><path d="m32.286405 16.2339986c.0269165.3109702.2033701.4895824.5301084.5365482.3173923-.0469658.4919766-.225578.5233796-.5365482-.0224307-.3148841-.197015-.4959869-.5233796-.5425968-.3267383.0508795-.5031919.2319823-.5301084.5425968m.5301084-2.6243896c-.3267383.0551492-.5031919.236252-.5301084.5425968.0269165.3152399.2033701.4959869.5301084.5429526.3263646-.0426961.5009489-.2237989.5233796-.5429526-.031403-.3106144-.2059873-.4917172-.5233796-.5425968m1.4692009.5425968v.0064044c-.0134584.4173548-.152154.7834742-.4157127 1.0983583.2684188.2725437.4067404.5984576.4157127.9770301-.0893484.851788-.5790818 1.3178876-1.4692009 1.3986545-.9035769-.0807669-1.3936846-.5468665-1.4695746-1.3986545 0-.3785725.1364526-.7044864.4093576-.9770301-.272905-.3148841-.4093576-.6810035-.4093576-1.0983583v-.0064044c.0717778-.8514322.5615116-1.3239362 1.4695746-1.4175119.8946049.0935757 1.3843386.5660797 1.4692009 1.4175119"/></g></g></svg>