<?xml version="1.0" encoding="UTF-8"?>
<svg width="133px" height="20px" viewBox="0 0 133 20" version="1.1" xmlns="http://www.w3.org/2000/svg" xmlns:xlink="http://www.w3.org/1999/xlink">
    <!-- Generator: Sketch 49.1 (51147) - http://www.bohemiancoding.com/sketch -->
    <title>EmberFest</title>
    <desc>Created with Sketch.</desc>
    <defs></defs>
    <g id="Desktop" stroke="none" stroke-width="1" fill="none" fill-rule="evenodd">
        <g id="Ember" transform="translate(-826.000000, -3254.000000)" fill="#E25641">
            <g id="Community" transform="translate(80.000000, 2688.000000)">
                <g id="text" transform="translate(576.000000, 208.000000)">
                    <g id="Logos" transform="translate(0.000000, 336.000000)">
                        <g id="EmberFest" transform="translate(170.000000, 22.000000)">
                            <path d="M0,0.801183908 L11.0701169,0.762448276 L11.0794091,3.44049425 L3.09178139,3.46854023 L3.10290909,6.68003448 L10.4352641,6.6544023 L10.4443268,9.28106897 L3.11208658,9.30658621 L3.12562338,13.1953218 L11.4819567,13.1661264 L11.4914784,15.8853218 L0.0526558442,15.9252069 L0,0.801183908 Z M27.6020329,4.68590805 C28.0805242,4.8757931 28.5153078,5.20947126 28.9060394,5.68682759 C29.2214009,6.07567816 29.4347775,6.55383908 29.5459398,7.1211954 C29.6154593,7.49705747 29.6515957,8.04774713 29.6542342,8.77268966 L29.6582494,15.8217701 L26.6678792,15.8322299 L26.6432147,8.71131034 C26.6417234,8.2874023 26.5720892,7.93878161 26.4346563,7.66567816 C26.173442,7.14671264 25.6947212,6.8882069 24.9983792,6.89073563 C24.1925957,6.89349425 23.6373576,7.23085057 23.3325502,7.90211494 C23.1766476,8.25843678 23.0997861,8.68636782 23.1016216,9.18544828 L23.1247948,15.8446437 L20.1857039,15.8548736 L20.162416,9.19567816 C20.1602364,8.53245977 20.090258,8.0503908 19.9525957,7.74970115 C19.7049182,7.2103908 19.2227558,6.94177011 18.5058792,6.94418391 C17.6729074,6.94717241 17.114113,7.21947126 16.8292667,7.76073563 C16.6731346,8.06912644 16.5963879,8.52774713 16.5984528,9.13636782 L16.6219701,15.8672874 L13.6623446,15.8776322 L13.623455,4.71418391 L16.4602169,4.70429885 L16.4658381,6.3357931 C16.8255957,5.75314943 17.1653922,5.33797701 17.4855719,5.09062069 C18.0506758,4.65085057 18.7838424,4.42947126 19.6849571,4.42613793 C20.5383489,4.42326437 21.2283814,4.60901149 21.7555134,4.98337931 C22.1799723,5.33073563 22.5024463,5.77774713 22.7229355,6.32418391 C23.1027688,5.66602299 23.5755242,5.18211494 24.1413165,4.87245977 C24.7409506,4.56245977 25.4095307,4.40613793 26.1468273,4.4036092 C26.6383965,4.40188506 27.1234268,4.49613793 27.6020329,4.68590805 Z M41.8584478,5.93912644 C42.6970409,6.9965977 43.1193201,8.36314943 43.1251708,10.0388966 C43.1311361,11.7764828 42.7242292,13.2178621 41.9047942,14.3628046 C41.0853591,15.5082069 39.9378288,16.0833793 38.4626621,16.0885517 C37.5361946,16.0917701 36.7910972,15.9097011 36.2271405,15.5422299 C35.8900972,15.3246437 35.5250626,14.9428046 35.1320366,14.3968276 L35.1369695,15.8025747 L32.2593677,15.8126897 L32.2067119,0.709011494 L35.1252682,0.698781609 L35.1439673,6.07544828 C35.5131318,5.55441379 35.9206123,5.15625287 36.3664089,4.88096552 C36.8941145,4.53705747 37.5669392,4.3636092 38.3846535,4.36085057 C39.8617703,4.35567816 41.01974,4.88188506 41.8584478,5.93912644 Z M39.4427032,12.7606207 C39.8603937,12.1503908 40.0675755,11.3493563 40.064134,10.3574023 C40.0614955,9.56395402 39.9558396,8.90763218 39.7475106,8.38855172 C39.3518461,7.40487356 38.6273981,6.91498851 37.5741665,6.91855172 C36.5071686,6.92234483 35.7757227,7.40717241 35.3798288,8.37303448 C35.1750561,8.88682759 35.0742184,9.55062069 35.0769716,10.3646437 C35.0804132,11.3223448 35.2964284,12.1151034 35.7255907,12.7429195 C36.1545236,13.3707356 36.8060106,13.6830345 37.6803959,13.680046 C38.437424,13.6774023 39.0248981,13.3710805 39.4427032,12.7606207 Z M52.4082126,4.7846092 C53.1880697,5.1313908 53.832903,5.68070115 54.342942,6.43242529 C54.8022753,7.09529885 55.1013468,7.86483908 55.240271,8.7413908 C55.3206887,9.25483908 55.3553338,9.99472414 55.3440913,10.9605862 L47.214442,10.988977 C47.2636563,12.1108161 47.6555351,12.8961034 48.3899636,13.344954 C48.8366779,13.6239195 49.3734463,13.7620805 50.000613,13.7600115 C50.6654074,13.7575977 51.2050437,13.5848391 51.6194074,13.2412759 C51.8452883,13.0558736 52.0446693,12.7985172 52.2174355,12.4696667 L55.1969074,12.4592069 C55.1208489,13.1231149 54.762468,13.7982874 54.1219939,14.4843793 C53.1261216,15.5755287 51.7281606,16.1241494 49.928455,16.1304713 C48.4429636,16.1357586 47.1306974,15.6816207 45.9918857,14.7681724 C44.8531887,13.8548391 44.2801693,12.3641494 44.272942,10.2965632 C44.2662883,8.3592069 44.7734593,6.87185057 45.7951433,5.83437931 C46.8165978,4.79702299 48.1452688,4.27541379 49.7813857,4.26966667 C50.7527082,4.26621839 51.6284701,4.43794253 52.4082126,4.7846092 Z M48.0508554,7.32610345 C47.6398186,7.75357471 47.3828489,8.3313908 47.2793727,9.05978161 L52.3074896,9.04231034 C52.2517364,8.26633333 51.9906368,7.67817241 51.5238468,7.27782759 C51.0572861,6.8775977 50.4794485,6.67851724 49.7909074,6.68104598 C49.0416801,6.68357471 48.4618922,6.89863218 48.0508554,7.32610345 Z M62.9975437,4.25936782 C63.0350567,4.26281609 63.1188013,4.26752874 63.2485481,4.27385057 L63.2589874,7.26994253 C63.0745199,7.25017241 62.9107017,7.23706897 62.7671887,7.23063218 C62.6237905,7.22442529 62.5075805,7.22132184 62.4190177,7.22155172 C61.244758,7.2258046 60.4574442,7.61166667 60.0574203,8.37913793 C59.8336043,8.81086207 59.7233597,9.47465517 59.7264571,10.3706322 L59.7450416,15.7164943 L56.8059506,15.7268391 L56.7669463,4.54281609 L59.5525437,4.53304598 L59.5593121,6.48258621 C60.007403,5.73545977 60.3980199,5.22442529 60.7316216,4.94971264 C61.2761909,4.4895977 61.9853814,4.25764368 62.8593078,4.25465517 C62.9139139,4.25454023 62.9600307,4.25614943 62.9975437,4.25936782 Z M65.7584078,13.3868506 C65.7554251,12.5248966 65.4936372,11.8658161 64.9732736,11.4092644 C64.6581416,11.129954 64.2068385,10.9091494 63.6192498,10.7469655 L63.6147758,9.50535632 C64.2761286,9.27742529 64.7430333,9.02616092 65.0151459,8.75167816 C65.4981113,8.278 65.7381026,7.55558621 65.7347758,6.58409195 L65.7251394,3.83432184 C65.7238775,3.48535632 65.7804338,3.11937931 65.8949229,2.73570115 C66.0969424,2.07167816 66.4425896,1.54363218 66.9316351,1.15202299 C67.3798407,0.794781609 67.9069727,0.55708046 68.5128017,0.438574713 C68.8802455,0.362022989 69.4078364,0.319149425 70.0960333,0.309724138 L70.1016545,1.95144828 C69.538845,2.07662069 69.1561437,2.2417931 68.9534359,2.44731034 C68.6425485,2.76271264 68.4883667,3.31328736 68.4911199,4.09891954 L68.4994944,6.47650575 C68.5020182,7.24167816 68.4017541,7.84995402 68.1985874,8.30156322 C67.853055,9.06110345 67.1723147,9.67822989 66.1569403,10.1532874 C67.0798515,10.5257011 67.7009381,10.9611034 68.0202,11.4585747 C68.3392325,11.9561609 68.5070658,12.6457011 68.5239294,13.5267356 L68.5331069,16.1194943 C68.5356307,16.8777701 68.7205571,17.4236322 69.0882303,17.7571954 C69.2924294,17.9545517 69.6492043,18.1274253 70.158555,18.276046 L70.1642909,19.9176552 L69.4388104,19.8998391 C68.4646199,19.8757011 67.6106545,19.5863908 66.8764554,19.0314483 C66.142371,18.4762759 65.7733212,17.6655862 65.7696502,16.5983448 L65.7584078,13.3868506 Z M73.9201325,13.3583448 C73.9171498,12.4963908 73.6553619,11.8373103 73.1349983,11.3807586 C72.8198662,11.1014483 72.3685632,10.8806437 71.7810892,10.7184598 L71.7766152,9.47685057 C72.4378532,9.2488046 72.904758,8.99765517 73.1768706,8.72305747 C73.6598359,8.24949425 73.8998273,7.52708046 73.8965004,6.55558621 L73.8868641,3.80581609 C73.8856022,3.45685057 73.9421584,3.09087356 74.0566476,2.7071954 C74.2586671,2.04317241 74.6043143,1.51512644 75.0933597,1.12351724 C75.5415654,0.766275862 76.0686974,0.52845977 76.6745264,0.409954023 C77.0419701,0.333517241 77.569561,0.290528736 78.257758,0.281218391 L78.2633792,1.92294253 C77.7005697,2.04811494 77.3178684,2.21317241 77.1151606,2.4188046 C76.8042732,2.7342069 76.6500913,3.28466667 76.6528446,4.07029885 L76.661219,6.44788506 C76.6637429,7.21305747 76.5634788,7.82144828 76.3603121,8.27305747 C76.0147797,9.0325977 75.3340394,9.64972414 74.3186649,10.1247816 C75.2415762,10.4971954 75.8626628,10.9325977 76.1819247,11.430069 C76.5009571,11.9276552 76.6687905,12.6171954 76.6856541,13.4981149 L76.6948316,16.0908736 C76.6973554,16.8491494 76.8822818,17.3951264 77.249955,17.7285747 C77.4541541,17.926046 77.810929,18.0989195 78.3202797,18.2475402 L78.3260156,19.8891494 L77.6005351,19.8713333 C76.6263446,19.8471954 75.7723792,19.5578851 75.0381801,19.0028276 C74.3040957,18.4477701 73.9350459,17.6370805 73.9313749,16.5698391 L73.9201325,13.3583448 Z M85.8872686,0.362321839 C86.03755,0.372091954 86.2423227,0.386689655 86.501931,0.406344828 L86.5103054,2.7868046 C86.3462578,2.7668046 86.071392,2.75243678 85.685708,2.74358621 C85.2999093,2.73462069 85.0339916,2.82117241 84.88784,3.00289655 C84.7415738,3.18462069 84.6689569,3.38508046 84.66976,3.60381609 C84.670563,3.82289655 84.6715955,4.13749425 84.6729721,4.54783908 L86.5879699,4.54105747 L86.5953119,6.60358621 L84.6803141,6.61025287 L84.7116323,15.6292184 L81.8134959,15.6393333 L81.7821777,6.62036782 L80.1437665,6.62611494 L80.1364245,4.56370115 L81.7339959,4.55806897 L81.7314721,3.8397931 C81.7273422,2.64289655 81.9256907,1.81783908 82.3270911,1.36496552 C82.7479937,0.693126437 83.7674981,0.354275862 85.3854894,0.348643678 C85.5698422,0.347954023 85.7369872,0.352551724 85.8872686,0.362321839 Z M95.5414022,4.63374713 C96.3212593,4.98052874 96.9663221,5.52983908 97.4762463,6.28156322 C97.9356944,6.94443678 98.2347658,7.71397701 98.37369,8.59052874 C98.4539931,9.10397701 98.4886381,9.84386207 98.4775104,10.8097241 L90.3477463,10.8381149 C90.3969606,11.959954 90.7888394,12.7452414 91.5231532,13.194092 C91.9699823,13.4730575 92.5067506,13.6112184 93.1338026,13.6091494 C93.7987117,13.6067356 94.3383481,13.433977 94.752597,13.0904138 C94.9785926,12.9050115 95.1779736,12.6476552 95.3506251,12.3188046 L98.3303264,12.3083448 C98.2541532,12.9722529 97.895887,13.6474253 97.255413,14.3335172 C96.2593113,15.4246667 94.8614649,15.9732874 93.0616446,15.9796092 C91.5761532,15.9848966 90.2640017,15.5307586 89.12519,14.6173103 C87.9864931,13.703977 87.4134736,12.2132874 87.4062463,10.1457011 C87.3995926,8.20834483 87.9068784,6.72098851 88.9284476,5.68351724 C89.9499022,4.64616092 91.2785732,4.12455172 92.9145753,4.1188046 C93.8860126,4.11535632 94.7616597,4.28708046 95.5414022,4.63374713 Z M91.1841597,7.17524138 C90.7731229,7.60271264 90.5160385,8.18052874 90.4126771,8.90891954 L95.4407939,8.89144828 C95.3850407,8.11547126 95.1239411,7.52731034 94.6571511,7.12696552 C94.1904758,6.72673563 93.6127528,6.52765517 92.924097,6.53018391 C92.1749844,6.53271264 91.5950818,6.74777011 91.1841597,7.17524138 Z M102.220779,11.9972184 C102.284333,12.5168736 102.419357,12.8858391 102.62585,13.104 C102.990885,13.4926207 103.663824,13.6852644 104.644783,13.6817011 C105.221015,13.6797471 105.678627,13.5927356 106.017621,13.4204368 C106.3565,13.2483678 106.525251,12.9912414 106.524218,12.6491724 C106.523071,12.3207816 106.385409,12.0715862 106.111231,11.9014713 C105.837054,11.7314713 104.818352,11.4410115 103.054898,11.0298621 C101.785422,10.7196322 100.890387,10.3292874 100.369909,9.85917241 C99.8494303,9.39583908 99.5877571,8.72664368 99.5846597,7.85089655 C99.5811035,6.81802299 99.9833069,5.92917241 100.7915,5.184 C101.599692,4.43905747 102.739307,4.06388506 104.210229,4.05882759 C105.605896,4.05388506 106.744363,4.32871264 107.625287,4.88296552 C108.506441,5.43767816 109.014415,6.3985977 109.14921,7.76606897 L106.230653,7.77629885 C106.188207,7.40043678 106.08106,7.10331034 105.909212,6.8848046 C105.586049,6.48928736 105.037694,6.29273563 104.264147,6.29549425 C103.627458,6.29767816 103.174435,6.39848276 102.904616,6.5977931 C102.634798,6.79721839 102.500463,7.03009195 102.501381,7.29687356 C102.502528,7.63204598 102.647188,7.87457471 102.935361,8.024 C103.22319,8.18032184 104.240056,8.44687356 105.985385,8.82377011 C107.148976,9.09331034 108.021984,9.50422989 108.604296,10.0561839 C109.17961,10.6151494 109.468816,11.3151494 109.471684,12.1566437 C109.475469,13.2646897 109.066497,14.1708966 108.244768,14.8748046 C107.422809,15.5788276 106.150006,15.9338851 104.426244,15.9398621 C102.667952,15.945954 101.368649,15.5795172 100.528106,14.8402069 C99.6874476,14.1011264 99.2652831,13.1567586 99.261268,12.0075632 L102.220779,11.9972184 Z M110.455763,6.54048276 L110.448535,4.4576092 L112.005038,4.4522069 L111.994139,1.33301149 L114.882066,1.32289655 L114.892964,4.44209195 L116.705518,4.43565517 L116.712745,6.51864368 L114.900191,6.52496552 L114.920841,12.4350805 C114.922447,12.8934713 114.981297,13.1787586 115.097966,13.2911724 C115.214176,13.4037011 115.56946,13.4588736 116.163473,13.4568046 C116.252035,13.4565747 116.346105,13.4545057 116.445107,13.4507126 C116.543994,13.4470345 116.641161,13.4414023 116.736836,13.4342759 L116.744408,15.6196782 L115.362278,15.676 C113.983131,15.7286437 113.040258,15.4926667 112.533202,14.9674943 C112.204304,14.6335862 112.038765,14.1176092 112.036241,13.420023 L112.012265,6.53508046 L110.455763,6.54048276 Z M117.731768,19.7513448 L117.726032,18.1097356 C118.237562,17.9575517 118.59537,17.7785862 118.799569,17.573069 C119.146478,17.2300805 119.325439,16.6862874 119.336567,15.9418046 L119.327504,13.349046 C119.324177,12.379046 119.509906,11.6593908 119.885266,11.1900805 C120.26051,10.7207701 120.858768,10.3105402 121.679809,9.95916092 C120.78053,9.52502299 120.160476,9.0301954 119.819188,8.4747931 C119.478129,7.91904598 119.306052,7.19375862 119.302954,6.29881609 L119.294694,3.92122989 C119.292056,3.16295402 119.168963,2.64755172 118.925759,2.37513793 C118.682326,2.10295402 118.263603,1.90617241 117.669132,1.78502299 L117.663396,0.143413793 C118.347692,0.147896552 118.874824,0.187091954 119.244677,0.261114943 C119.854062,0.375367816 120.388536,0.609390805 120.848329,0.963413793 C121.308006,1.31755172 121.627842,1.75433333 121.807491,2.27341379 C121.98737,2.79272414 122.077883,3.2472069 122.079145,3.6372069 L122.088781,6.38697701 C122.092223,7.36525287 122.316383,8.08272414 122.76195,8.5393908 C123.035783,8.81203448 123.524943,9.06352874 124.228971,9.29352874 L124.233331,10.535023 C123.653543,10.7013448 123.213941,10.9147931 122.914526,11.1758276 C122.37661,11.642954 122.10943,12.3142184 122.112528,13.1897356 L122.123655,16.4012299 C122.127212,17.4408851 121.770666,18.2476667 121.054248,18.8214598 C120.337831,19.395023 119.473197,19.6973218 118.460575,19.7283563 L117.731768,19.7513448 Z M125.893596,19.7228391 L125.88786,18.0812299 C126.39939,17.929046 126.757198,17.7500805 126.961397,17.5444483 C127.308191,17.2015747 127.487152,16.6577816 127.49828,15.9131839 L127.489217,13.3204253 C127.48589,12.3504253 127.67162,11.6308851 128.046979,11.1615747 C128.422224,10.6922644 129.020481,10.2819195 129.841522,9.93065517 C128.942243,9.49651724 128.322189,9.00168966 127.980901,8.44628736 C127.639843,7.89054023 127.467765,7.16513793 127.464667,6.2701954 L127.456408,3.8926092 C127.453769,3.13433333 127.330676,2.61893103 127.087587,2.34663218 C126.844154,2.07433333 126.425431,1.87755172 125.83096,1.75651724 L125.825224,0.114908046 C126.50952,0.119390805 127.036652,0.158586207 127.40639,0.232609195 C128.015776,0.346862069 128.55025,0.580885057 129.010042,0.934908046 C129.469719,1.28893103 129.789555,1.72582759 129.969204,2.24490805 C130.149083,2.76410345 130.239596,3.21870115 130.240973,3.60870115 L130.250494,6.35847126 C130.253936,7.33674713 130.478096,8.05421839 130.923663,8.51088506 C131.197496,8.78341379 131.686656,9.03490805 132.390685,9.26490805 L132.395044,10.5064023 C131.815256,10.6727241 131.375654,10.8862874 131.076239,11.1472069 C130.538323,11.6143333 130.271144,12.2857126 130.274241,13.1612299 L130.285369,16.3727241 C130.288925,17.4123793 129.932379,18.2191609 129.215962,18.7928391 C128.499544,19.3665172 127.63491,19.6688161 126.622403,19.6998506 L125.893596,19.7228391 Z" id="Combined-Shape"></path>
                        </g>
                    </g>
                </g>
            </g>
        </g>
    </g>
</svg>