<svg viewBox="0 0 49.052 64" xmlns="http://www.w3.org/2000/svg"><g fill="#fff"><path d="M24.824 64h-.648l-.213-.141c-1.972-1.3-4.038-2.555-6.036-3.766A98.483 98.483 0 0 1 6.749 52.6l-.033-.028a20.81 20.81 0 0 1-4.747-5.534A17.511 17.511 0 0 1 0 39.093V9.036l.316-.255A39.423 39.423 0 0 1 24.654 0h.02a39.509 39.509 0 0 1 24.062 8.784l.316.256v.407q-.006 6.579 0 13.158v15.691a17.879 17.879 0 0 1-1.751 8.329c-1.846 3.632-5.082 6.16-7.97 8.244-2.867 1.975-5.861 3.8-8.757 5.567a289.662 289.662 0 0 0-5.533 3.43zM7.839 51.29a97.25 97.25 0 0 0 10.969 7.348c1.882 1.139 3.823 2.316 5.7 3.544 1.716-1.092 3.471-2.162 5.172-3.2 2.876-1.754 5.85-3.567 8.662-5.5 2.712-1.957 5.761-4.332 7.435-7.627a16.239 16.239 0 0 0 1.566-7.555q.009-7.847 0-15.69V9.859A37.79 37.79 0 0 0 24.656 1.7 37.712 37.712 0 0 0 1.7 9.852v29.212a15.831 15.831 0 0 0 1.765 7.162 19.033 19.033 0 0 0 4.374 5.064z"/><path d="M20.383 10.658a16.1 16.1 0 0 1 13.448 3.2 11.166 11.166 0 0 1 3.9 6.816c.62 2.7-.044 5.427-.364 8.115-.432 1.365 1.756 1.6 1.443 2.9a.988.988 0 0 1-1.5.507 3.192 3.192 0 0 1-1.968-3.396c.268-2.831 1.041-5.727.2-8.541a9.63 9.63 0 0 0-5.2-6.305c-4.6-2.376-10.78-2.243-14.755 1.32-1.129.908-1.735 2.3-2.858 3.205-1.048.068-1.371-1.051-.841-1.8a12.652 12.652 0 0 1 8.495-6.021z"/><path d="M15.806 18.249a10.519 10.519 0 0 1 13.679-2.494 8.92 8.92 0 0 1 4.215 6.231c.609 2.946-.755 5.859-.428 8.8.444 1.979 2.474 2.484 4.121 3.269a1.183 1.183 0 0 1 .621 1.472.838.838 0 0 1-.186.292c-.609.4-1.313.027-1.923-.167-1.926-.718-3.933-1.956-4.525-4.063-.756-2.627.469-5.267.422-7.915a7.155 7.155 0 0 0-3.975-6.516 8.551 8.551 0 0 0-9.262 1.113c-1.736 1.395-2.307 3.739-4.036 5.138a7.231 7.231 0 0 1-3.148 1.552.98.98 0 0 1-.687-1.641 20.655 20.655 0 0 0 2.732-1.664 31.1 31.1 0 0 0 2.38-3.407z"/><path d="M22.125 18.515a5.756 5.756 0 0 1 7.119 3.722c.653 2.182-.545 4.288-1.62 6.105-3.229 5.135-8.81 8.419-14.608 9.827a1.112 1.112 0 0 1-1.389-.864c.092-1.062 1.273-1.154 2.062-1.439 5.561-1.6 10.893-5.176 13.278-10.614a3.259 3.259 0 0 0-.762-4.093 3.8 3.8 0 0 0-5.795 1.289c-1.678 3.7-5.448 6.027-9.286 6.949-1.065.058-1.269-1.616-.279-1.895a18.631 18.631 0 0 0 5.162-2.641c2.416-1.783 2.858-5.601 6.118-6.346z"/><path d="M24.151 22.916l.015.006a.935.935 0 0 1 .55 1.188c-1.007 2.934-3.445 5.226-6.018 6.862a22.162 22.162 0 0 1-6.972 2.814 1 1 0 0 1-1-1.524 6.717 6.717 0 0 1 2.188-.909 17.311 17.311 0 0 0 8.211-5.114 21.65 21.65 0 0 0 1.913-2.939.929.929 0 0 1 1.113-.384zM27.481 32.531a.915.915 0 0 1 1.378.2A12.4 12.4 0 0 0 32.15 35.9a39.529 39.529 0 0 0 4.406 2.079c1.065.541.041 2.147-.956 1.694-3.144-1.01-6.312-2.667-8.143-5.522-.34-.477-.571-1.236.024-1.62zM24.129 36.128c1.307-.416 2.307.83 3.325 1.432 2.144 1.691 4.73 2.607 7.18 3.726a.977.977 0 0 1-.426 1.855 24.817 24.817 0 0 1-5.1-2.124c-1.555-.786-2.875-2-4.495-2.654a8.639 8.639 0 0 0-2.549 1.065 35.916 35.916 0 0 1-6.751 2.726c-.429.078-.946.306-1.337 0a.977.977 0 0 1 .194-1.722c1.555-.66 3.219-1.038 4.76-1.749 1.796-.714 3.389-1.868 5.199-2.555z"/><path d="M20.927 42.385A12.379 12.379 0 0 1 24.4 40.99a15.461 15.461 0 0 1 3.688 1.668c1.355.748 2.883 1.167 4.169 2.038.636.572.051 1.827-.773 1.643-2.538-.728-4.733-2.3-7.224-3.168-2.273.861-4.4 2.1-6.748 2.764-1.075.415-1.657-1.409-.656-1.807 1.308-.684 2.754-1.065 4.071-1.743z"/><path d="M23.1 45.952c1.395-.715 2.817.183 4.083.745.473.275 1.2.507 1.15 1.181.1.537-.483.932-.946 1.027-1.075-.214-1.99-.9-3.069-1.1-.956.149-1.773.735-2.712.949a1 1 0 0 1-.929-1.49 7.825 7.825 0 0 1 2.423-1.312z"/></g></svg>