<svg viewBox="0 0 66.73 48.588" xmlns="http://www.w3.org/2000/svg"><g fill="#fff"><circle cx="25" cy="25.588" r="2"/><circle cx="17" cy="37.588" r="2"/><circle cx="32" cy="36.588" r="2"/><circle cx="13" cy="21.588" r="2"/><circle cx="37" cy="20.588" r="2"/><circle cx="49" cy="10.588" r="2"/><circle cx="53" cy="32.588" r="2"/><circle cx="23" cy="11.588" r="2"/><path d="m66.5 30.48a2 2 0 0 0 -1.27-1 2.975 2.975 0 0 1 -2.23-2.892 3.014 3.014 0 0 1 1.27-2.45 2 2 0 0 0 -.806-3.6 2.993 2.993 0 0 1 -2.464-2.95 3.024 3.024 0 0 1 1.2-2.4 2 2 0 0 0 -1.2-3.6 3 3 0 0 1 -2.581-4.527 2 2 0 0 0 -.563-2.655 23.967 23.967 0 0 0 -24.485-1.919 24 24 0 1 0 1.3 43.6 1.99 1.99 0 0 0 .259.137 22.85 22.85 0 0 0 3.331 1.076 23.288 23.288 0 0 0 5.7.7q.827 0 1.657-.057a23.98 23.98 0 0 0 20.99-15.852 2 2 0 0 0 -.108-1.611zm-62.5-5.892a20 20 0 1 1 20 20 20.023 20.023 0 0 1 -20-20zm41.354 19.365a19.5 19.5 0 0 1 -6.145-.542c-.08-.019-.162-.047-.243-.068a24.139 24.139 0 0 0 4-4.053 1.974 1.974 0 0 0 1.037.3 2 2 0 0 0 1.143-3.638 24 24 0 0 0 -7.297-30.959 19.786 19.786 0 0 1 16.38 1.822 6.994 6.994 0 0 0 3.392 7.9 6.99 6.99 0 0 0 2.237 8.518 7 7 0 0 0 2.294 9.2 19.986 19.986 0 0 1 -16.798 11.52z"/></g></svg>