<svg xmlns="http://www.w3.org/2000/svg" viewBox="0 0 82.92 35.479"><defs><style>.cls-1{fill:#fff;}</style></defs><title>4</title><g id="Layer_2" data-name="Layer 2"><g id="Layer_2-2" data-name="Layer 2"><path class="cls-1" d="M1.141,15.148l10.9-7.138a1.4,1.4,0,0,1,.718-.169,2.618,2.618,0,0,1,2.407,2.577,1.611,1.611,0,0,1-.676,1.394L6.335,17.176,14.486,22.5a1.69,1.69,0,0,1,.676,1.437,2.651,2.651,0,0,1-2.407,2.576,1.106,1.106,0,0,1-.718-.211l-10.9-7.1A2.55,2.55,0,0,1,0,17.176,2.494,2.494,0,0,1,1.141,15.148Z"/><path class="cls-1" d="M27.16,33.747V31c-4.688-.507-8.109-3.21-8.109-9.546V9.672c0-7.1,4.308-9.672,9.883-9.672s9.925,2.577,9.925,9.672V21.456c0,6.294-3.463,9.039-8.193,9.546v2.745a1.661,1.661,0,0,1-1.732,1.732A1.694,1.694,0,0,1,27.16,33.747ZM33.369,9.672c0-3.294-1.689-4.857-4.435-4.857-2.788,0-4.393,1.563-4.393,4.857V21.456c0,2.492.93,3.971,2.619,4.52V23.737a1.635,1.635,0,0,1,1.774-1.689,1.6,1.6,0,0,1,1.732,1.689v2.239c1.689-.549,2.7-2.028,2.7-4.52Z"/><path class="cls-1" d="M58.208,1.689C58.208.507,59.56,0,60.953,0,62.305,0,63.7.507,63.7,1.689V21.456c0,7.054-4.476,9.672-10.136,9.672-5.7,0-10.137-2.618-10.137-9.672V1.689C43.425.507,44.776,0,46.17,0c1.351,0,2.746.507,2.746,1.689V21.456c0,3.3,1.731,4.857,4.646,4.857s4.646-1.562,4.646-4.857Z"/><path class="cls-1" d="M81.822,19.2,70.883,26.3a.93.93,0,0,1-.676.211,2.688,2.688,0,0,1-2.449-2.576,1.8,1.8,0,0,1,.676-1.437l8.193-5.321-8.193-5.364a1.719,1.719,0,0,1-.676-1.394,2.654,2.654,0,0,1,2.449-2.577,1.156,1.156,0,0,1,.676.169l10.939,7.138a2.44,2.44,0,0,1,1.1,2.028A2.493,2.493,0,0,1,81.822,19.2Z"/></g></g></svg>