<svg xmlns="http://www.w3.org/2000/svg" viewBox="0 0 64 64"><defs><style>.cls-1{fill:#fff;}</style></defs><title>2</title><g id="Layer_2" data-name="Layer 2"><g id="Layer_2-2" data-name="Layer 2"><path class="cls-1" d="M32,0A32,32,0,1,0,64,32,32,32,0,0,0,32,0Zm0,18a4,4,0,1,1-4,4A4,4,0,0,1,32,18Zm0,44A30,30,0,0,1,30,2.074V14.262a7.983,7.983,0,0,0-5.42,10.72l-7.9,6.309L22.091,48.6,25.909,47.4,21.317,32.709l5.637-4.5a7.99,7.99,0,0,0,10.092,0l5.637,4.5L38.091,47.4,41.909,48.6l5.408-17.306-7.9-6.309A7.983,7.983,0,0,0,34,14.262V2.074A30,30,0,0,1,32,62Z"/><circle class="cls-1" cx="32" cy="22" r="2"/></g></g></svg>