<svg xmlns="http://www.w3.org/2000/svg" viewBox="0 0 66.73 48.588"><defs><style>.cls-1{fill:#fff;}</style></defs><title>3</title><g id="Layer_2" data-name="Layer 2"><g id="Layer_2-2" data-name="Layer 2"><circle class="cls-1" cx="25" cy="25.588" r="2"/><circle class="cls-1" cx="17" cy="37.588" r="2"/><circle class="cls-1" cx="32" cy="36.588" r="2"/><circle class="cls-1" cx="13" cy="21.588" r="2"/><circle class="cls-1" cx="37" cy="20.588" r="2"/><circle class="cls-1" cx="49" cy="10.588" r="2"/><circle class="cls-1" cx="53" cy="32.588" r="2"/><circle class="cls-1" cx="23" cy="11.588" r="2"/><path class="cls-1" d="M66.5,30.48a2,2,0,0,0-1.27-1A2.975,2.975,0,0,1,63,26.588a3.014,3.014,0,0,1,1.27-2.45,2,2,0,0,0-.806-3.6A2.993,2.993,0,0,1,61,17.588a3.024,3.024,0,0,1,1.2-2.4,2,2,0,0,0-1.2-3.6,3,3,0,0,1-2.581-4.527,2,2,0,0,0-.563-2.655A23.967,23.967,0,0,0,33.371,2.487a24,24,0,1,0,1.3,43.6,1.99,1.99,0,0,0,.259.137A22.85,22.85,0,0,0,38.261,47.3a23.288,23.288,0,0,0,5.7.7q.827,0,1.657-.057a23.98,23.98,0,0,0,20.99-15.852A2,2,0,0,0,66.5,30.48ZM4,24.588a20,20,0,1,1,20,20A20.023,20.023,0,0,1,4,24.588ZM45.354,43.953a19.5,19.5,0,0,1-6.145-.542c-.08-.019-.162-.047-.243-.068a24.139,24.139,0,0,0,4-4.053,1.974,1.974,0,0,0,1.037.3,2,2,0,0,0,1.143-3.638A24,24,0,0,0,37.849,4.993a19.786,19.786,0,0,1,16.38,1.822,6.994,6.994,0,0,0,3.392,7.9,6.99,6.99,0,0,0,2.237,8.518,7,7,0,0,0,2.294,9.2A19.986,19.986,0,0,1,45.354,43.953Z"/></g></g></svg>