<svg height="478" width="1440" xmlns="http://www.w3.org/2000/svg" xmlns:xlink="http://www.w3.org/1999/xlink"><defs><path id="a" d="M0 0h1440v478H0z"/><mask id="b" fill="#fff"><use fill-rule="evenodd" xlink:href="#a"/></mask></defs><g fill="none" fill-rule="evenodd"><use fill="#e04e39" xlink:href="#a"/><g fill-rule="nonzero"><path d="M-57-220h382.01v382.01H-57z" fill="#ffeab0" mask="url(#b)" transform="rotate(-15.14 134.005 -28.995)"/><path d="M778.257 117.257h382.01v382.01h-382.01z" fill="#bdcbef" mask="url(#b)" transform="rotate(-15.14 969.262 308.262)"/><g mask="url(#b)"><path d="M947.685 171.447l459.769 75.95-62.26 376.901-459.77-75.949z" fill="#ffeab0"/><path d="M1265.511 284.024l25.912 4.104.556.091c8.66 1.477 14.978 5.052 18.956 10.725 4.062 5.794 5.385 13.165 3.967 22.115l-7.236 45.69-.085.551c-.888 6.007-.501 10.548 1.16 13.623 1.712 3.168 5.306 5.427 10.784 6.778l8.217 2.026-3.395 21.432-8.44-.613-.479-.031c-5.382-.317-9.34.732-11.872 3.145-2.607 2.484-4.408 6.867-5.402 13.147l-7.237 45.69-.094.569c-1.475 8.661-4.98 15.074-10.514 19.239-5.654 4.255-12.954 5.674-21.9 4.257l-25.91-4.104 3.506-22.139 15.963 2.529.386.057c3.057.419 5.488-.04 7.293-1.376 1.881-1.392 3.107-3.894 3.68-7.505l7.161-45.22.097-.585c1.176-6.79 3.889-12.196 8.138-16.218 4.37-4.136 9.11-6.363 14.22-6.68-4.762-1.881-8.575-5.503-11.441-10.866s-3.74-11.577-2.62-18.643l7.161-45.22.06-.397c.482-3.417.069-6.042-1.24-7.877-1.357-1.905-3.656-3.114-6.895-3.627l-15.963-2.529zm-79.015-12.515l25.912 4.104.555.091c8.66 1.477 14.979 5.052 18.957 10.725 4.062 5.794 5.385 13.166 3.967 22.115l-7.236 45.691-.085.55c-.888 6.007-.501 10.548 1.16 13.623 1.712 3.168 5.306 5.428 10.784 6.778l8.217 2.026-3.395 21.432-8.44-.612-.479-.032c-5.382-.316-9.34.732-11.872 3.145-2.607 2.485-4.408 6.867-5.403 13.147l-7.236 45.691-.094.568c-1.475 8.662-4.98 15.075-10.514 19.24-5.654 4.254-12.954 5.673-21.9 4.256l-25.91-4.104 3.506-22.139 15.963 2.529.386.057c3.057.42 5.488-.04 7.293-1.376 1.88-1.392 3.107-3.894 3.68-7.505l7.161-45.22.097-.585c1.176-6.79 3.889-12.196 8.138-16.218 4.37-4.136 9.11-6.363 14.22-6.68-4.762-1.88-8.575-5.503-11.441-10.866s-3.74-11.577-2.62-18.643l7.161-45.22.06-.397c.482-3.417.069-6.042-1.24-7.877-1.357-1.905-3.656-3.114-6.895-3.627l-15.963-2.528zm-83.367-5.479c5.654-4.254 12.954-5.673 21.9-4.257l25.91 4.104-3.506 22.14-15.963-2.53-.386-.056c-3.057-.42-5.488.039-7.293 1.375-1.88 1.393-3.107 3.894-3.68 7.506l-7.161 45.22-.097.585c-1.176 6.792-3.895 12.237-8.156 16.335-4.383 4.215-9.13 6.48-14.24 6.798 4.762 1.881 8.582 5.464 11.46 10.748 2.88 5.284 3.759 11.46 2.64 18.525l-7.162 45.22-.06.397c-.482 3.417-.069 6.043 1.24 7.877 1.357 1.905 3.656 3.115 6.895 3.627l15.963 2.529-3.506 22.139-25.912-4.104-.555-.092c-8.66-1.476-14.979-5.051-18.957-10.724-4.062-5.794-5.385-13.166-3.967-22.116l7.236-45.69.085-.55c.888-6.008.501-10.549-1.16-13.624-1.712-3.168-5.306-5.427-10.784-6.778l-8.217-2.025 3.395-21.433 8.44.613.479.031c5.382.317 9.34-.732 11.872-3.145 2.607-2.484 4.408-6.866 5.403-13.147l7.236-45.69.094-.569c1.475-8.661 4.98-15.074 10.514-19.239zm-79.015-12.514c5.654-4.255 12.954-5.674 21.9-4.257l25.91 4.104-3.506 22.138-15.963-2.528-.386-.057c-3.057-.42-5.488.04-7.293 1.376-1.881 1.392-3.107 3.894-3.68 7.505l-7.161 45.22-.097.585c-1.176 6.792-3.895 12.237-8.156 16.335-4.383 4.215-9.13 6.481-14.24 6.798 4.762 1.881 8.582 5.464 11.46 10.748 2.879 5.285 3.759 11.46 2.64 18.525l-7.162 45.22-.06.398c-.482 3.416-.069 6.042 1.24 7.877 1.357 1.905 3.656 3.114 6.895 3.627l15.963 2.528-3.506 22.139-25.912-4.104-.555-.091c-8.66-1.477-14.979-5.052-18.957-10.725-4.062-5.794-5.385-13.166-3.967-22.116l7.236-45.69.085-.55c.888-6.007.501-10.548-1.16-13.623-1.712-3.169-5.306-5.428-10.784-6.778l-8.217-2.026 3.395-21.432 8.44.612.479.032c5.382.316 9.34-.732 11.872-3.146 2.607-2.484 4.408-6.866 5.402-13.147l7.237-45.69.094-.568c1.475-8.662 4.98-15.075 10.514-19.24z" fill="#bdcbef"/></g></g><g mask="url(#b)" stroke="#090928" stroke-width="22.8"><g transform="rotate(25 794.066 1944.644)"><path d="M0 323.552L72.767 51.984c8.014-29.91 38.73-47.668 68.62-39.659 29.883 8.007 86.218-7.36 78.21 22.529L292.585.819m253.118 322.733L472.937 51.984c-8.015-29.91-38.73-47.668-68.62-39.659-29.884 8.007-47.606 38.768-39.598 68.655M224.352 337.09h93.024"/><circle cx="109.44" cy="337.091" r="109.44"/><circle cx="437.76" cy="337.091" r="109.44"/></g></g><g mask="url(#b)" stroke-width="22.8"><g transform="rotate(-15 61.734 -3.085)"><g stroke="#a9b6d6"><path d="M0 328.172L72.767 56.604c8.014-29.91 38.73-47.668 68.62-39.659 29.883 8.007 47.606 38.768 39.597 68.655m364.72 242.572L472.936 56.604c-8.015-29.91-38.73-47.668-68.62-39.659-28.227 7.563-44.594-19.833-39.685 8.42.288 1.659-16.895-6.065-16.451-4.408L297.146.803M224.352 341.71h93.024"/></g><circle cx="109.44" cy="341.711" fill="#bdcbef" fill-rule="nonzero" r="109.44" stroke="#bdcbef"/><circle cx="437.76" cy="341.711" fill="#bdcbef" fill-rule="nonzero" r="109.44" stroke="#bdcbef"/></g></g></g></svg>