<svg height="70" width="72" xmlns="http://www.w3.org/2000/svg"><path d="M49.63 61.93c2.85-5.37 5.84-13.5 6.24-24.43H66.3c-.88 10.74-7.45 19.88-16.67 24.43zM38.92 37.5h11.94c-.57 14.31-6.06 23.35-8.75 26.95-1.04.21-2.11.36-3.19.43zm-18.269 23c-.221-.12-.431-.26-.641-.4l-6.98.95-6.79.92 1.38-7.09 1.47-7.54c-.23-.49-.439-.98-.63-1.48a29.117 29.117 0 0 1-1.92-8.36h10.43c.4 10.93 3.39 19.06 6.25 24.43-.88-.43-1.74-.9-2.569-1.43zM23.21 8.07c-2.85 5.37-5.84 13.5-6.24 24.43H6.54c.88-10.74 7.45-19.88 16.67-24.43zM33.92 32.5H21.98c.57-14.31 6.06-23.35 8.75-26.95 1.04-.21 2.11-.36 3.19-.43zm32.38 0H55.87c-.4-10.93-3.39-19.06-6.24-24.43 9.22 4.55 15.79 13.69 16.67 24.43zM38.92 5.12c1.09.07 2.15.22 3.2.43h.01c2.69 3.58 8.16 12.56 8.73 26.95H38.92zm-5 32.38v27.38c-1.09-.07-2.15-.22-3.2-.43h-.01c-2.69-3.58-8.16-12.56-8.73-26.95zM44.93 1.04c-.42-.1-.84-.2-1.26-.29C41.33.26 38.91 0 36.42 0s-4.91.26-7.25.75c-.42.09-.84.19-1.26.29C12.69 4.84 1.42 18.61 1.42 35c0 4.55.87 8.91 2.46 12.9L0 67.86l18.901-2.56a34.5 34.5 0 0 0 9.009 3.66c.42.1.84.2 1.26.29 2.34.49 4.76.75 7.25.75s4.91-.26 7.25-.75c.42-.09.84-.19 1.26-.29C60.151 65.16 71.42 51.39 71.42 35S60.151 4.84 44.93 1.04z" fill="#fff" fill-rule="evenodd"/></svg>