<?xml version="1.0" encoding="UTF-8"?>
<svg width="60px" height="60px" viewBox="0 0 60 60" version="1.1" xmlns="http://www.w3.org/2000/svg" xmlns:xlink="http://www.w3.org/1999/xlink">
    <!-- Generator: Sketch 50.2 (55047) - http://www.bohemiancoding.com/sketch -->
    <title>Icon</title>
    <desc>Created with Sketch.</desc>
    <defs></defs>
    <g id="Desktop" stroke="none" stroke-width="1" fill="none" fill-rule="evenodd">
        <g id="Trainline" transform="translate(-850.000000, -2978.000000)" fill="#FFFFFF">
            <g id="Added-Value" transform="translate(80.000000, 2736.000000)">
                <g id="Molecules/Cards/Features" transform="translate(720.000000, 192.000000)">
                    <g id="icon">
                        <g id="Atoms/Icons/80/White/Code" transform="translate(40.000000, 40.000000)">
                            <g id="Icn" transform="translate(10.000000, 10.000000)">
                                <path d="M0,0 L0,12.8571429 L0,60 L60,60 L60,0 L0,0 Z M4.28571429,12.8571429 L55.7153571,12.8571429 L55.7153571,4.28571429 L4.28571429,4.28571429 L4.28571429,12.8571429 Z M4.28571429,55.7142857 L4.28571429,17.1428571 L55.7153571,17.1428571 L55.7153571,55.7142857 L4.28571429,55.7142857 Z M22.0595357,41.7965357 L16.6916786,36.4286786 L22.0595357,31.05975 L19.0295357,28.02975 L10.6306071,36.4286786 L19.0295357,44.8265357 L22.0595357,41.7965357 Z M40.9706786,44.8266429 L49.3696071,36.4287857 L40.9706786,28.0298571 L37.9406786,31.0598571 L43.3085357,36.4287857 L37.9406786,41.7966429 L40.9706786,44.8266429 Z M35.184,27.5916429 L31.1157857,26.2437857 L24.8157857,45.2648571 L28.884,46.6127143 L35.184,27.5916429 Z M8.57142857,6.42835714 C9.75428571,6.42835714 10.7142857,7.38835714 10.7142857,8.57121429 C10.7142857,9.75407143 9.75428571,10.7140714 8.57142857,10.7140714 C7.38857143,10.7140714 6.42857143,9.75407143 6.42857143,8.57121429 C6.42857143,7.38835714 7.38857143,6.42835714 8.57142857,6.42835714 Z M15,6.42835714 C16.1828571,6.42835714 17.1428571,7.38835714 17.1428571,8.57121429 C17.1428571,9.75407143 16.1828571,10.7140714 15,10.7140714 C13.8171429,10.7140714 12.8571429,9.75407143 12.8571429,8.57121429 C12.8571429,7.38835714 13.8171429,6.42835714 15,6.42835714 Z M21.4285714,6.42835714 C22.6114286,6.42835714 23.5714286,7.38835714 23.5714286,8.57121429 C23.5714286,9.75407143 22.6114286,10.7140714 21.4285714,10.7140714 C20.2457143,10.7140714 19.2857143,9.75407143 19.2857143,8.57121429 C19.2857143,7.38835714 20.2457143,6.42835714 21.4285714,6.42835714 Z" id="Combined-Shape"></path>
                            </g>
                        </g>
                    </g>
                </g>
            </g>
        </g>
    </g>
</svg>