<svg height="60" viewBox="0 0 60 60" width="60" xmlns="http://www.w3.org/2000/svg"><path d="m0 0v12.8571429 47.1428571h60v-60zm4.28571429 12.8571429h51.42964281v-8.57142861h-51.42964281zm0 42.8571428v-38.5714286h51.42964281v38.5714286zm17.77382141-13.91775-5.3678571-5.3678571 5.3678571-5.3689286-3.03-3.03-8.3989286 8.3989286 8.3989286 8.3978571zm18.9111429 3.0301072 8.3989285-8.3978572-8.3989285-8.3989286-3.03 3.03 5.3678571 5.3689286-5.3678571 5.3678572zm-5.7866786-17.235-4.0682143-1.3478572-6.3 19.0210714 4.0682143 1.3478572zm-26.61257143-21.16328576c1.18285714 0 2.14285713.96 2.14285713 2.14285715 0 1.18285714-.95999999 2.14285711-2.14285713 2.14285711s-2.14285714-.95999997-2.14285714-2.14285711c0-1.18285715.96-2.14285715 2.14285714-2.14285715zm6.42857143 0c1.1828571 0 2.1428571.96 2.1428571 2.14285715 0 1.18285714-.96 2.14285711-2.1428571 2.14285711s-2.1428571-.95999997-2.1428571-2.14285711c0-1.18285715.96-2.14285715 2.1428571-2.14285715zm6.4285714 0c1.1828572 0 2.1428572.96 2.1428572 2.14285715 0 1.18285714-.96 2.14285711-2.1428572 2.14285711-1.1828571 0-2.1428571-.95999997-2.1428571-2.14285711 0-1.18285715.96-2.14285715 2.1428571-2.14285715z" fill="#fff" fill-rule="evenodd"/></svg>