<svg height="60" width="60" xmlns="http://www.w3.org/2000/svg"><path d="M0 0v60h60V0zm4.286 12.857h51.43V4.286H4.285zm0 42.857V17.143h51.43v38.571zM22.06 41.797l-5.368-5.368 5.368-5.37-3.03-3.03-8.4 8.4 8.4 8.398zm18.91 3.03l8.4-8.398-8.4-8.4-3.03 3.03 5.369 5.37-5.368 5.368zm-5.786-17.235l-4.068-1.348-6.3 19.02 4.068 1.349zM8.571 6.428a2.144 2.144 0 1 1-.001 4.288 2.144 2.144 0 0 1 .001-4.288zm6.429 0a2.144 2.144 0 1 1-.002 4.288A2.144 2.144 0 0 1 15 6.428zm6.429 0a2.144 2.144 0 1 1-.002 4.288 2.144 2.144 0 0 1 .002-4.288z" fill="#fff" fill-rule="evenodd"/></svg>