<svg height="25" viewBox="0 0 116 25" width="116" xmlns="http://www.w3.org/2000/svg"><path d="m21.8940738 65.9191344c-.4009688 1.6539964-1.1277248 2.8318424-2.6313579 3.8342644h5.1123526v-3.8342644zm-7.8940738 0v3.8342644h1.6289359c2.8819634 0 4.6362021-1.5286936 5.312837-3.8342644zm7.1171967-.9520504c.0751817-.2506055.0751817-.5515827.0751817-.8771193v-2.9323352h-3.9094461v2.2053286c0 .6515744-.1253028 1.2282177-.4260294 1.6289359h4.2602938zm-4.2352332 5.7135553v6.4906829c0 3.0824479 1.954723 4.9369287 5.0622314 4.9369287 1.5788148 0 2.4308736-.4009688 2.4308736-.4009688v-3.5585984c-.225545.0751817-.8019377.1253028-1.3282093.1253028-1.227967 0-1.8795414-.45109-1.8795414-1.8544809v-5.7388663zm19.9732598-4.8366866c-.3257871-.0250605-.6515743-.0751816-1.0024221-.0751816-1.3532698 0-3.5585983.4009688-4.5359598 2.5060552v-2.3807525h-4.1851122v15.9635716h4.3104149v-7.2926206c0-3.4332956 1.904602-4.5108993 4.1099305-4.5108993.4009689 0 .8019377.0250605 1.3031487.1253027zm1.6289359 11.7032778c0 2.5060552 2.0800258 4.8116259 5.4882609 4.8116259 2.3556918 0 3.8843855-1.1026642 4.7113837-2.3807524 0 .6265138.0751817 1.5036331.1503633 1.904602h3.9595672c-.1002422-.5513322-.2004844-1.679057-.2004844-2.5311158v-7.8439527c0-3.2077507-1.8795414-6.0646536-6.9417729-6.0646536-4.2853543 0-6.5909251 2.7566607-6.8415306 5.2627159l3.8342644.8019377c.1253028-1.4033909 1.177846-2.6062974 3.0573873-2.6062974 1.8043598 0 2.6814791.9523009 2.6814791 2.0800258 0 .5513321-.3007266 1.0024221-1.2029065 1.1277248l-3.9345066.5763927c-2.6564185.4009688-4.7615049 2.0048442-4.7615049 4.8617471zm6.3904407 1.5788147c-1.4033909 0-2.0800258-.9021798-2.0800258-1.8544808 0-1.227967.8771193-1.8544808 1.9797836-2.0048441l3.6087195-.5513322v.7016955c-.0250606 2.8318423-1.7041175 3.7089616-3.5084773 3.7089616zm73.6780221-7.042015c.100243-1.453512 1.32821-3.1576296 3.558849-3.1576296 2.455684 0 3.508478 1.5537542 3.558348 3.1576296zm7.543227 4.1600516c-.526272 1.4284514-1.628936 2.4308735-3.63378 2.4308735-2.130147 0-3.934507-1.5286937-4.009689-3.63378h11.402551c0-.0751817.075182-.7016955.075182-1.3282093 0-5.1374131-2.957145-8.2699821-7.869013-8.2699821-4.08487 0-7.843953 3.3079929-7.843953 8.3952849 0 5.3880187 3.859325 8.5456482 8.244922 8.5456482 3.934506 0 6.440561-2.3055708 7.26756-5.0622315zm-65.959373-10.3249474h-4.3104149v15.9635716h4.3104149zm-4.8366865-5.2374047c0 1.4282008 1.2029065 2.6313579 2.6564185 2.6313579 1.5036331 0 2.6564185-1.2031571 2.6564185-2.6313579 0-1.5036332-1.1778459-2.6817297-2.6564185-2.6817297-1.453512 0-2.6564185 1.2031571-2.6564185 2.6817297zm38.9440977 5.2374047h-4.310415v15.9635716h4.310415zm-4.8366866-5.2374047c0 1.4282008 1.2029065 2.6313579 2.6564185 2.6313579 1.5036332 0 2.6564185-1.2031571 2.6564185-2.6313579 0-1.5036332-1.1778459-2.6817297-2.6564185-2.6817297-1.453512 0-2.6564185 1.2031571-2.6564185 2.6817297zm-21.752559 12.0288143c0-1.8544809 1.1026643-3.3079929 2.9822057-3.3079929 2.0800258 0 2.9571451 1.4033909 2.9571451 3.1826901v9.3225253h4.3104149v-10.0743419c0-3.5084772-1.8043597-6.3403196-5.7639269-6.3403196-1.7291781 0-3.63378.7518166-4.6111416 2.405813v-1.9797836h-4.1851121v15.9635716h4.3104149zm34.0572904 0c0-1.8544809 1.102664-3.3079929 2.982205-3.3079929 2.080026 0 2.957145 1.4033909 2.957145 3.1826901v9.3225253h4.310415v-10.0743419c0-3.5084772-1.804359-6.3403196-5.763927-6.3403196-1.729178 0-3.63378.7518166-4.611141 2.405813v-1.9797836h-4.1851123v15.9635716h4.3104153zm-14.1842727 5.5383819c-.3007267.0250606-.5262716.0250606-.7518166.0250606-1.0776037 0-1.8544808-.4009688-1.8544808-1.7792992v-18.0937185h-4.2352333v18.8204745c0 3.0824479 1.954723 4.9118682 5.0622315 4.9118682.6766349 0 1.1778459-.0751817 1.7792992-.2004844z" fill="#fff" transform="translate(-14 -58)"/></svg>