<svg height="25" width="116" xmlns="http://www.w3.org/2000/svg"><path d="M7.894 7.92c-.4 1.653-1.128 2.831-2.631 3.833h5.112V7.92zM0 7.92v3.833h1.629c2.882 0 4.636-1.528 5.313-3.834zm7.117-.953c.075-.25.075-.551.075-.877V3.158h-3.91v2.205c0 .652-.124 1.228-.425 1.629h4.26zm-4.235 5.714v6.49c0 3.083 1.955 4.937 5.062 4.937 1.579 0 2.431-.4 2.431-.4v-3.56c-.225.076-.802.126-1.328.126-1.228 0-1.88-.451-1.88-1.854v-5.74zm19.973-4.837c-.326-.025-.651-.075-1.002-.075-1.353 0-3.559.4-4.536 2.506v-2.38h-4.185v15.963h4.31v-7.293c0-3.433 1.905-4.51 4.11-4.51.401 0 .802.024 1.303.124zm1.63 11.703c0 2.506 2.08 4.812 5.487 4.812 2.356 0 3.885-1.103 4.712-2.38 0 .626.075 1.503.15 1.904h3.96c-.1-.552-.2-1.68-.2-2.531v-7.844c0-3.208-1.88-6.065-6.943-6.065-4.285 0-6.59 2.757-6.841 5.263l3.834.802c.126-1.404 1.178-2.607 3.058-2.607 1.804 0 2.681.953 2.681 2.08 0 .552-.3 1.003-1.203 1.128l-3.934.576c-2.657.401-4.762 2.005-4.762 4.862zm6.39 1.579c-1.404 0-2.08-.902-2.08-1.854 0-1.228.877-1.855 1.98-2.005l3.608-.552v.702c-.025 2.832-1.704 3.709-3.508 3.709zm73.678-7.042c.1-1.453 1.328-3.158 3.558-3.158 2.456 0 3.509 1.554 3.559 3.158zm7.543 4.16c-.526 1.429-1.63 2.431-3.634 2.431-2.13 0-3.934-1.529-4.01-3.634h11.403c0-.075.075-.702.075-1.328 0-5.137-2.957-8.27-7.869-8.27-4.085 0-7.844 3.308-7.844 8.395 0 5.388 3.86 8.546 8.245 8.546 3.935 0 6.44-2.306 7.268-5.062zM46.136 7.92h-4.31v15.964h4.31zM41.3 2.682c0 1.428 1.203 2.631 2.656 2.631a2.637 2.637 0 0 0 2.657-2.631C46.613 1.178 45.435 0 43.956 0 42.503 0 41.3 1.203 41.3 2.682zm38.944 5.237h-4.31v15.964h4.31zm-4.837-5.237c0 1.428 1.203 2.631 2.657 2.631a2.637 2.637 0 0 0 2.656-2.631C80.72 1.178 79.542 0 78.064 0c-1.454 0-2.657 1.203-2.657 2.682zM53.655 14.71c0-1.855 1.102-3.308 2.982-3.308 2.08 0 2.957 1.403 2.957 3.182v9.323h4.31V13.833c0-3.508-1.804-6.34-5.764-6.34-1.729 0-3.633.752-4.61 2.406v-1.98h-4.186v15.964h4.31zm34.057 0c0-1.855 1.103-3.308 2.982-3.308 2.08 0 2.957 1.403 2.957 3.182v9.323h4.31V13.833c0-3.508-1.804-6.34-5.763-6.34-1.73 0-3.634.752-4.611 2.406v-1.98h-4.185v15.964h4.31zm-14.184 5.538c-.301.025-.527.025-.752.025-1.078 0-1.855-.401-1.855-1.78V.402h-4.235v18.82c0 3.083 1.955 4.912 5.062 4.912a8.06 8.06 0 0 0 1.78-.2z" fill="#fff"/></svg>