<svg clip-rule="evenodd" fill-rule="evenodd" stroke-linejoin="round" stroke-miterlimit="2" viewBox="0 0 274 166" xmlns="http://www.w3.org/2000/svg"><g fill-rule="nonzero" transform="translate(-45 -43)"><path d="m210.76 43-165.76 64.693 6.427 65.537 184.224 35.637 82.484-40.306-15.381-53.973z" fill="#e15d44"/><path d="m244.688 168.354h50.261l-50.26 11.07v-11.07zm-75.82 0v11.337l-51.47-11.337zm21.736 3.805c-.137.722-.557 1.142-1.261 1.258h-1.553c-.744-.076-1.162-.488-1.26-1.23v-1.17c-.137-1.467-.938-2.29-2.404-2.464-1.543.175-2.383.997-2.52 2.464v9.405c.137 1.525.977 2.356 2.52 2.493 1.466-.137 2.267-.968 2.404-2.493v-1.259c.098-.742.538-1.152 1.32-1.233h1.436c.741.1 1.181.51 1.318 1.233v1.259c-.45 3.909-2.61 6.04-6.478 6.39-3.947-.313-6.077-2.443-6.39-6.39v-9.496c.295-3.947 2.424-6.124 6.39-6.536 3.91.412 6.068 2.589 6.478 6.536zm15.715-1.29v9.553c-.41 3.908-2.57 6.039-6.478 6.39-3.907-.371-6.046-2.5-6.418-6.39v-9.552c.332-3.93 2.472-6.088 6.418-6.48 3.929.392 6.088 2.55 6.478 6.48zm-3.957.117c-.158-1.525-.996-2.356-2.521-2.493-1.523.157-2.354.988-2.49 2.493v9.464c.136 1.525.967 2.339 2.49 2.437 1.525-.098 2.363-.912 2.521-2.437zm19.737 14.536c-.019.686-.37 1.027-1.054 1.027h-1.875c-.803.04-1.359-.302-1.673-1.027-1.462-3.432-2.907-6.87-4.336-10.316v10.112c-.078.76-.488 1.172-1.232 1.231h-1.495c-.703-.06-1.093-.431-1.172-1.114v-19.987c.04-.59.372-.853.997-.793h1.847c.782-.06 1.358.284 1.729 1.024 1.406 3.5 2.843 6.977 4.307 10.437v-10.23c.08-.723.49-1.133 1.233-1.231h1.524c.683.057 1.093.429 1.23 1.114v14.36c-.018 1.759-.03 3.508-.03 5.247zm14.588-20.898c.722.12 1.142.54 1.26 1.262v1.524c-.118.781-.547 1.192-1.29 1.23h-6.975c-.39.038-.607.256-.646.645v3.782c.039.39.255.594.646.617h4.426c.721.097 1.124.497 1.202 1.197v1.585c-.078.764-.49 1.153-1.232 1.173h-4.396c-.39.057-.607.285-.646.674v7.062c-.057.742-.458 1.156-1.202 1.233h-1.494c-.702-.038-1.094-.4-1.171-1.086v-19.664c.017-.684.36-1.097 1.025-1.234zm41.423-33.397s3.193-1.325 3.553 2.229c.354 3.553-1.776 4.727-1.776 4.727s-8.792 6.53-15.538 4.576c-6.753-1.954-7.107-14.207-7.107-14.207h-.623l-6.838 18.842s-2.747 9.487-6.838 7.802c-4.084-1.692-3.992-6.484-3.992-6.484s-6.4 7.369-18.115 6.484c-10.26-.78-13.57-9.172-13.57-9.172s-6.859 5.127-26.133 8.923c-8.622.944-14.732-4.262-14.732-4.262-.8.8-5.953 3.396-5.953 3.396s-7.369 3.422-10.214-1.73c-2.839-5.154-.977-21.314-.977-21.314h-.525s-4.268 8.614-6.483 16.43c-2.223 7.814-4.977 7.283-4.977 7.283s-5.06.446-6.215-3.822c-1.154-4.262 1.862-20.068 1.862-20.068l-.439.091s-.269-.445-4.176 7.815c-6.661 16.161-8.26 16.876-12.077 16.174-3.822-.701-3.999-5.507-3.999-5.507l-5.238 2.937s-12.778 5.527-19.439.466c-4.438-3.364-5.953-7.592-6.477-10.077 0 0-5.678-.662-9.323-2.085-3.639-1.416.02-6.084.02-6.084s1.095-1.777 3.232 0c2.13 1.777 6.058.97 6.058.97.36-2.793.99-6.497 2.734-10.391 3.638-8.169 9.257-10.929 13.787-11.02 4.53-.086 7.723 1.14 10.477 5.047 6.13 15.184-16.339 22.874-16.339 22.874s-.623 3.973 5.5 3.882c6.13-.086 15.453-6.747 15.453-6.747.446-5.06 4-20.953 4.976-23.352.977-2.4 4.707-1.954 4.707-1.954s2.924-.623 3.462 2.485c.531 3.114-2.13 15.721-2.13 15.721l.439.531c.268-1.239 6.752-12.076 6.752-12.076s3.73-6.484 9.415-6.215c5.677.262-.269 17.668-.269 17.668l.44.538.452-.806c.708-1.954 9.139-14.738 9.139-14.738s3.2-3.73 6.13-2.84c2.93.886 3.107 2.217 3.29 4.702.171 2.49-2.313 17.229-2.313 17.229s-1.423 9.677 1.776 9.506c3.193-.177 6.661-3.553 6.661-3.553s2.485-19.006 4.17-34.721c1.691-15.722 8.975-26.29 8.975-26.29s2.13-3.285 7.756-5.5c3.704-1.312 7.743-.446 9.644 7.63 2.828 11.997-5.242 25.556-10.395 32.451-.747 1-1.84 2.723-1.668 2.833.174.111 4.517-4.994 8.87-2.247 13.316 8.346 2.393 26.729 2.393 26.729 3.908-1.246 10.923-5.946 10.923-5.946s.144-2.033.222-2.492c2.387-13.656 10.562-18.586 12.096-19.74 1.58-1.187 15.571-6.543 16.187 7.933.623 14.476-17.491 19.537-17.491 19.537s1.6 4.176 8.26 3.107c6.655-1.062 14.293-7.546 14.293-7.546.268-5.953 4.176-20.16 4.976-22.205.8-2.039 5.684-2.13 6.215-.977.708 2.308.085 12.437.085 12.437l.538-.177c1.953-5.776 6.038-10.306 6.038-10.306s3.284-3.193 5.946-2.42c2.669.78 1.692 10.064 1.692 10.064s-1.423 10.123 3.107 10.569c4.53.445 9.677-3.547 9.677-3.547zm-177.866-8.89c-2.393-2.315-9.323 2.307-9.592 12.876 0 0 2.046.623 6.57-2.491 4.53-3.108 5.415-8.078 3.022-10.385zm88.356-36.498c-1.514-7.992-7.815 8.438-7.815 8.438s-5.238 18.022-5.415 23.352c0 0 14.738-23.798 13.23-31.79zm-14.568 60.65s10.13 4.439 14.3-6.484c4.175-10.922-1.155-15.007-1.155-15.007s-7.723-4.261-11.014 6.661c-3.285 10.923-2.13 14.83-2.13 14.83zm44.936-21.399c-3.639 6.655-2.662 10.123-2.662 10.123s5.146.354 8.7-4.707c3.553-5.062.446-8.438.446-8.438s-2.846-3.639-6.484 3.022zm-58.295-33.15v7.377c-.303 3.042-1.975 4.69-5.017 4.949-3.056-.273-4.72-1.922-4.992-4.949v-7.376c.272-3.042 1.936-4.72 4.992-5.038 3.042.317 4.714 1.996 5.017 5.038zm-3.064.137c-.122-1.195-.772-1.853-1.953-1.975-1.195.137-1.846.794-1.951 1.975v7.263c.12 1.18.771 1.824 1.951 1.929 1.181-.105 1.831-.749 1.953-1.929zm-9.69 8.988c.56.076.893.379 1 .908v1.18c-.107.576-.447.893-1.022.954h-7.99c-.576-.06-.893-.378-.953-.954v-1.18c-.002-.162.046-.32.136-.454 2.272-2.869 4.467-5.798 6.582-8.784 0-.332.008-.657.023-.976-.227-1.028-.855-1.58-1.884-1.656-1.196.106-1.84.757-1.929 1.952v.863c-.076.574-.4.892-.976.953h-1.157c-.591-.077-.893-.4-.908-.976v-.954c.241-3.056 1.898-4.736 4.97-5.04 3.04.32 4.705 1.999 4.994 5.04-.016.424-.046.84-.092 1.248-.206.565-.514 1.088-.908 1.543-1.53 2.121-3.073 4.232-4.63 6.333zm-10.824-9.124v7.376c-.303 3.042-1.975 4.69-5.016 4.949-3.057-.273-4.721-1.922-4.993-4.949v-7.376c.272-3.042 1.936-4.72 4.993-5.038 3.041.317 4.713 1.996 5.016 5.038zm-3.064.136c-.121-1.195-.771-1.853-1.952-1.975-1.195.137-1.847.794-1.952 1.975v7.263c.12 1.18.772 1.824 1.952 1.929 1.18-.105 1.83-.749 1.952-1.929zm-9.689 8.988c.56.076.892.379.998.908v1.18c-.106.576-.445.893-1.022.954h-7.988c-.576-.06-.893-.378-.954-.954v-1.18c-.001-.162.047-.32.137-.454 2.272-2.869 4.467-5.798 6.582-8.784 0-.332.008-.657.022-.976-.226-1.028-.855-1.58-1.883-1.656-1.195.106-1.84.757-1.929 1.952v.863c-.077.574-.402.892-.976.953h-1.159c-.59-.077-.892-.4-.908-.976v-.954c.243-3.056 1.9-4.736 4.972-5.04 3.041.32 4.705 1.999 4.992 5.04-.015.424-.044.84-.09 1.248-.206.565-.514 1.088-.908 1.543-1.53 2.121-3.074 4.232-4.63 6.333z" fill="#f0f6f8"/></g></svg>