<svg width="336" height="200" xmlns="http://www.w3.org/2000/svg"><g fill-rule="nonzero" fill="none"><path fill="#409BDF" d="M0 0h336v200H0z"/><path d="M87.487 83c1.613 2.199.752 4.802.922 7.2h-1.336a30.781 30.781 0 0 1 .414-7.2zm6.938 0c2.086 1.755.862 4.762 1.149 7.093l-1.32.107a67.975 67.975 0 0 1 .17-7.2zm7.261 0c.288.027.862.088 1.161.122.01 2.36.025 4.72-.052 7.078-.313-.163-.945-.497-1.262-.667a32.677 32.677 0 0 1 .153-6.533zm50.024 0h4.286c0 2.4.004 4.8.012 7.2h-4.31c.006-2.4.01-4.8.012-7.2zm7.192.022l5.71-.022c.015 2.4.015 4.8.015 7.2-1.915-.008-3.83-.022-5.746-.043.014-2.38.022-4.757.022-7.135zM173.246 83c1.913.007 3.821.007 5.735 0 0 2.4.003 4.8.011 7.2h-5.746V83zm-64.643 7.171c.009-2.386.009-4.763.017-7.15.719 0 2.126-.021 2.832-.021.026 2.4.034 4.8.008 7.2-.952-.014-1.904-.022-2.857-.029zm7.197-7.164h2.859V90.2c-.719 0-2.155-.014-2.873-.014.007-2.394.007-4.786.014-7.179zm7.183 0c.706 0 2.131.007 2.844.007.013 2.4.013 4.8 0 7.2h-2.859c0-2.412 0-4.816.019-7.214l-.004.007zm7.17.022c1.434-.022 2.87-.022 4.3-.029 0 2.398 0 4.802.007 7.2-1.436 0-2.873-.014-4.31-.029.008-2.38.01-4.764.008-7.15l-.004.008zm7.183-.015h4.288c0 2.402 0 4.798.015 7.2-1.437-.007-2.873-.017-4.31-.028.017-2.398.021-4.79.012-7.179l-.005.007zm7.18-.014l4.31.022v7.128c-1.437.021-2.874.036-4.31.05V83zm21.555 0h5.739v7.2h-5.747c.008-2.4.01-4.8.008-7.2zm79.151 25.256a9.54 9.54 0 0 1 8.125-1.376c1.553.378 3.224 1.61 3.16 3.345.12 2.429.022 4.864.042 7.293-.43 0-1.274.028-1.698.042-.029-2.464.144-4.935-.09-7.384-.237-1.625-2.11-1.962-3.468-1.927-1.796-.027-4.166-.233-5.159 1.617a59.76 59.76 0 0 0-.16 7.66l-1.539.014a49.41 49.41 0 0 0-.154-7.323 3.138 3.138 0 0 0-3.411-1.96c-1.796-.008-4.268-.31-5.215 1.616a62.792 62.792 0 0 0-.136 7.687c-.474-.02-1.414-.062-1.888-.09.279-3.798-.646-7.768.718-11.423.34.42 1.03 1.253 1.37 1.672a8.788 8.788 0 0 1 9.496.537h.007zm-40.014-1.306c2.586-1.388 5.675-.79 8.476-.733 2.262.043 3.591 2.107 4.104 4.143-1.71.445-2.073-1.253-2.823-2.238a16.546 16.546 0 0 0-9.366.05c-.43 2.489-1.527 6.093 1.164 7.654 2.528.299 5.083.304 7.613.015 1.086-.965 1.724-2.505 3.304-2.791-.238 1.754-.869 3.888-2.83 4.271a45.87 45.87 0 0 1-8.14.115 3.567 3.567 0 0 1-2.429-1.285 3.584 3.584 0 0 1-.8-2.635c-.02-2.257-.532-5.207 1.723-6.566h.004zm14.851-.308a20.997 20.997 0 0 1 8.144-.403 4.025 4.025 0 0 1 3.64 2.98c.574 2.806.63 6.937-2.62 8.044a36.137 36.137 0 0 1-8.036.144 3.68 3.68 0 0 1-3.333-3.842c-.098-2.403-.473-5.764 2.2-6.923h.005zm-.496 3.21c-.113 2.029-.68 5.008 1.674 5.966a71.32 71.32 0 0 0 7.342.201c.908-.842 1.9-1.806 1.66-3.195-.143-1.496.51-3.642-1.1-4.512-1.724-1.144-3.894-.792-5.83-.806-1.509.022-3.616.482-3.75 2.346h.004zm-30.502-26.838c1.909 0 3.824 0 5.733-.014v7.2c-1.915 0-3.832 0-5.746-.022.013-2.39.013-4.773.013-7.164zM226.684 83l2.396.022c.198 2.368.184 4.737.191 7.113l-2.703.065c-.015-1.872-.015-3.744-.171-5.599.075-.399.218-1.202.287-1.601zm14.078.043a80.51 80.51 0 0 1 1.3-.043c.011 2.366 0 4.732.136 7.1-.482.035-.96.064-1.436.1v-7.157zm7.37 7.157a37.213 37.213 0 0 1-.025-7.2c.319.262.948.78 1.258 1.043a97.625 97.625 0 0 0 .016 4.896c-.31.315-.94.947-1.25 1.261zm-66.248-7.193c1.908.008 3.818.005 5.727-.007v7.2a191.08 191.08 0 0 0-5.746 0c0-2.41 0-4.805.019-7.193zm14.353 0c1.914-.007 3.819 0 5.74-.007-.008 2.395 0 4.798 0 7.2-1.914-.014-3.833 0-5.747 0 .008-2.4.01-4.8.007-7.2v.007zm7.183 0c1.43-.007 2.866 0 4.302 0-.006 2.395-.006 4.786 0 7.171l-4.31.022V83l.008.007zm7.19-.007c1.422 0 2.858 0 4.295.007a689.823 689.823 0 0 0 0 7.179c-1.437.014-2.873.014-4.31.014.015-2.402.015-4.805.015-7.2zm8.619 0c.948.007 1.897.022 2.851.029-.006 2.376-.002 4.747.012 7.113-.96.022-1.921.044-2.873.058-.003-2.4-.001-4.8.005-7.2h.005zm14.35.007h2.865c0 2.405.003 4.805.008 7.2-.718 0-2.154-.014-2.873-.021 0-2.398.009-4.788 0-7.179zM97.177 93.49c.695.013 2.075.046 2.764.06 0 7.973-.118 15.945.014 23.91-.69.028-2.068.067-2.758.087 0-.397-.014-1.198-.014-1.594-3.12 2.13-7.055 1.454-10.649 1.554-2.78-.026-6.135.165-8.108-2.077-2.088-2.541-1.218-5.974-1.379-8.958-.18-3.659 3.636-6.352 7.265-6.192 4.318.225 9.096-.933 12.9 1.594-.042-2.794-.035-5.591-.035-8.384zm-13.729 9.094a4.099 4.099 0 0 0-2.767 1.516c-.684.855-1 1.948-.875 3.037.23 2.342-.822 5.379 1.427 7.072 1.812 1.535 4.403 1.17 6.638 1.244 2.668-.106 5.815.483 7.933-1.461 1.992-1.8 1.293-4.585 1.386-6.902.264-2.719-2.597-4.718-5.245-4.752a49.922 49.922 0 0 0-8.497.246zm35.69-9.504c.575.033 1.736.108 2.32.144.144 8.084-.02 16.174.074 24.258l-2.261.078c-.107-.376-.32-1.128-.418-1.503a7.937 7.937 0 0 1-3.923 1.402 98.26 98.26 0 0 1-9.943-.12 5.302 5.302 0 0 1-4.884-4.963 40.73 40.73 0 0 1 .153-8.05c.804-3.25 4.474-4.511 7.46-4.32 3.844.175 8.027-.738 11.431 1.584a572.922 572.922 0 0 1-.008-8.51zm-12.295 9.105a4.84 4.84 0 0 0-4.13 2.807 36.087 36.087 0 0 0-.119 6.72c-.013 1.98 1.981 3.283 3.735 3.571 2.687.178 5.382.205 8.072.081a4.812 4.812 0 0 0 4.707-4.484c.068-2.736.612-6.425-2.233-8.01-3.136-1.403-6.72-.645-10.032-.685zm73-9.105h2.703l-.027 6.372c4.505-.02 9.004 0 13.51 0 0 .534.013 1.611.02 2.146-4.507.013-9.01.013-13.51 0 .047 3.54-.13 7.087.089 10.62a3.406 3.406 0 0 0 3.591 3.137c2.465-.062 5.315.535 7.421-1.124 1.25-.992 1.12-2.756 1.338-4.186h2.683c0 2.672-.997 5.72-3.679 6.726-2.656 1.152-5.66.694-8.465.708a5.63 5.63 0 0 1-5.591-5.184c-.219-3.56.027-7.13-.09-10.689h-2.28c0-.541 0-1.611.014-2.153.575 0 1.724-.007 2.298-.007a940.866 940.866 0 0 1-.026-6.366zm-51.129 7.422c.97.02 1.941.039 2.91.065a507.59 507.59 0 0 0 5.619 13.752c.195.053.592.144.787.19 1.954-4.643 3.76-9.339 5.699-13.981 1.037 0 2.074 0 3.113-.013 1.993 4.877 3.878 9.8 5.873 14.678 2.243-4.57 4.142-9.306 5.915-14.065.255-.059.76-.183 1.017-.242-.19 1.682-.385 3.371-.486 5.068a19.519 19.519 0 0 0 2.372-5.674c.1.45.296 1.344.39 1.793 3.037-2.016 6.776-1.558 10.259-1.525a7.198 7.198 0 0 1 5.652 2.523 8.81 8.81 0 0 1 1.158 4.433l-2.324.02c-.216-2.334-1.744-4.818-4.486-4.616-3.327.202-8.224-1.22-9.922 2.536-.83 3.953-.135 8.093-.357 12.116-.889-.026-1.778-.059-2.661-.09-.034-3.49 0-6.985.215-10.467-2.235 3.181-3.145 7.029-4.81 10.505h-3.414c-1.966-4.968-3.96-9.926-5.982-14.874-1.867 5.022-4.007 9.945-5.961 14.933-1.15-.033-2.299-.065-3.448-.118-2.244-5.7-4.71-11.32-7.128-16.947zm-4.31 6.987c1.827.008 3.652.026 5.478-.009.065.932.157 1.872.269 2.804-1.91.05-3.828.05-5.74.076 0-.958-.006-1.914-.006-2.871zm74.714 7.191c.948.008 1.896.018 2.844.03 0 .94.007 1.872.014 2.827l-2.873.023c0-.962.007-1.918.015-2.88z" fill="#FFF"/></g></svg>