<svg width="336" height="200" xmlns="http://www.w3.org/2000/svg"><g fill="none"><path fill="#4B3568" d="M0 0h336v200H0z"/><path d="M131.041 105.424c-1.747-6.042-6.072-10.728-9.913-15.53-1.829-2.285-3.596-4.536-4.755-7.264-1.912-4.498-2.36-9.463-2.692-14.29-7.602 2.698-12.11 11.829-15.205 18.569-3.182 6.927-6.188 14.099-6.136 21.885.086 13.093 11.292 23.172 24.359 20.226 10.783-2.431 17.565-12.82 14.342-23.596zm30.373 15.367c2.379 0 5.066-.751 7.093-2.033.616-.353.66-.884.264-1.503l-.617-.928c-.396-.574-.925-.663-1.542-.309-1.454.751-3.392 1.237-4.89 1.237-3.7 0-5.991-2.828-6.3-7.646H169.3c.66 0 1.101-.353 1.145-1.06.044-.486.044-1.017.044-1.503 0-6.85-3.26-11.093-9.075-11.093-6.124 0-10.177 4.95-10.177 12.419 0 7.47 4.053 12.42 10.177 12.42zm-5.948-14.231c.397-4.64 2.423-7.072 5.948-7.072 3.348 0 5.11 2.431 5.242 7.072h-11.19zm28.724 10.519a4.955 4.955 0 0 1-1.321.176c-1.102 0-1.719-.486-1.719-1.856V88.484c0-.708-.396-1.105-1.101-1.105h-1.85c-.705 0-1.102.397-1.102 1.105v26.827c0 3.315 1.895 5.48 5.067 5.48.837 0 1.806-.132 2.775-.398.66-.22.925-.663.793-1.37l-.22-1.105c-.132-.75-.617-.972-1.322-.84zm7.534-25.413h2.026c.705 0 1.101-.398 1.101-1.105v-2.077c0-.708-.396-1.105-1.1-1.105h-2.027c-.705 0-1.102.397-1.102 1.105v2.077c0 .707.397 1.105 1.102 1.105zm.088 28.418h1.85c.705 0 1.101-.398 1.101-1.105V97.765c0-.707-.396-1.105-1.101-1.105h-1.85c-.705 0-1.102.398-1.102 1.105v21.214c0 .707.397 1.105 1.102 1.105zm8.15 0h1.806c.573 0 1.057-.22 1.366-.707l5.419-8.574 5.418 8.574c.309.486.793.707 1.366.707h1.938c.882 0 1.19-.574.705-1.326l-6.872-10.695 6.167-10.077c.441-.752.133-1.326-.749-1.326h-1.85c-.573 0-1.013.22-1.321.751l-4.67 7.956-4.538-7.956c-.308-.53-.749-.751-1.322-.751h-1.982c-.881 0-1.19.574-.749 1.326l6.212 10.21-7.049 10.562c-.485.752-.176 1.326.705 1.326zm23.525-28.418h2.027c.705 0 1.101-.398 1.101-1.105v-2.077c0-.708-.396-1.105-1.101-1.105h-2.027c-.705 0-1.101.397-1.101 1.105v2.077c0 .707.396 1.105 1.101 1.105zm.088 28.418h1.85c.705 0 1.102-.398 1.102-1.105V97.765c0-.707-.397-1.105-1.101-1.105h-1.85c-.706 0-1.102.398-1.102 1.105v21.214c0 .707.396 1.105 1.101 1.105zm22.292-23.999a5.452 5.452 0 0 0-1.19-.132c-2.422 0-5.022 1.812-6.167 4.817v-3.005c0-.707-.397-1.105-1.101-1.105h-1.763c-.705 0-1.101.398-1.101 1.105v21.214c0 .707.396 1.105 1.101 1.105h1.85c.706 0 1.102-.398 1.102-1.105v-12.773c.881-3.756 3.084-6.143 5.55-6.143.31 0 .662.044.97.088.617.089 1.013-.088 1.146-.84l.352-1.944c.132-.663-.088-1.193-.749-1.282z" fill="#FFF"/></g></svg>