<?xml version="1.0" encoding="UTF-8" standalone="no"?>
<!DOCTYPE svg PUBLIC "-//W3C//DTD SVG 1.1//EN" "http://www.w3.org/Graphics/SVG/1.1/DTD/svg11.dtd">
<svg width="100%" height="100%" viewBox="0 0 336 200" version="1.1" xmlns="http://www.w3.org/2000/svg" xmlns:xlink="http://www.w3.org/1999/xlink" xml:space="preserve" xmlns:serif="http://www.serif.com/" style="fill-rule:evenodd;clip-rule:evenodd;stroke-linejoin:round;stroke-miterlimit:1.41421;">
    <rect x="-2.168" y="-1.211" width="346.921" height="223.476" style="fill:rgb(75,53,104);"/>
    <g transform="matrix(0.311111,0,0,0.311111,97.1665,72)">
        <g transform="matrix(0.870601,0,0,0.870601,-262.341,-232.474)">
            <path d="M432.513,392.318C426.59,371.907 411.931,356.075 398.912,339.851C392.715,332.128 386.726,324.524 382.796,315.307C376.315,300.112 374.798,283.335 373.671,267.027C347.906,276.143 332.627,306.992 322.134,329.763C311.349,353.169 301.162,377.398 301.336,403.705C301.628,447.94 339.612,481.993 383.901,472.04C420.449,463.827 443.437,428.725 432.513,392.318Z" style="fill:white;fill-rule:nonzero;"/>
        </g>
        <g transform="matrix(1.32483,0,0,0.949922,-372.222,-284.036)">
            <g transform="matrix(0.754816,0,0,1.05272,99.6081,-18.8711)">
                <path d="M444.088,456.242C451.108,456.242 459.038,454.032 465.018,450.262C466.838,449.222 466.968,447.662 465.798,445.842L463.978,443.112C462.808,441.422 461.248,441.162 459.428,442.202C455.138,444.412 449.418,445.842 444.998,445.842C434.078,445.842 427.318,437.522 426.408,423.352L467.358,423.352C469.308,423.352 470.608,422.312 470.738,420.232C470.868,418.802 470.868,417.242 470.868,415.812C470.868,395.662 461.248,383.182 444.088,383.182C426.018,383.182 414.058,397.742 414.058,419.712C414.058,441.682 426.018,456.242 444.088,456.242ZM426.538,414.382C427.708,400.732 433.688,393.582 444.088,393.582C453.968,393.582 459.168,400.732 459.558,414.382L426.538,414.382Z" style="fill:white;fill-rule:nonzero;"/>
            </g>
            <g transform="matrix(0.754816,0,0,1.05272,99.6081,-18.8711)">
                <path d="M511.298,445.322C509.868,445.712 508.568,445.842 507.398,445.842C504.148,445.842 502.328,444.412 502.328,440.382L502.328,361.212C502.328,359.132 501.158,357.962 499.078,357.962L493.618,357.962C491.538,357.962 490.368,359.132 490.368,361.212L490.368,440.122C490.368,449.872 495.958,456.242 505.318,456.242C507.788,456.242 510.648,455.852 513.508,455.072C515.458,454.422 516.238,453.122 515.848,451.042L515.198,447.792C514.808,445.582 513.378,444.932 511.298,445.322Z" style="fill:white;fill-rule:nonzero;"/>
            </g>
            <g transform="matrix(0.754816,0,0,1.05272,99.6081,-18.8711)">
                <path d="M533.528,370.572L539.508,370.572C541.588,370.572 542.758,369.402 542.758,367.322L542.758,361.212C542.758,359.132 541.588,357.962 539.508,357.962L533.528,357.962C531.448,357.962 530.278,359.132 530.278,361.212L530.278,367.322C530.278,369.402 531.448,370.572 533.528,370.572ZM533.788,454.162L539.248,454.162C541.328,454.162 542.498,452.992 542.498,450.912L542.498,388.512C542.498,386.432 541.328,385.262 539.248,385.262L533.788,385.262C531.708,385.262 530.538,386.432 530.538,388.512L530.538,450.912C530.538,452.992 531.708,454.162 533.788,454.162Z" style="fill:white;fill-rule:nonzero;"/>
            </g>
            <g transform="matrix(0.754816,0,0,1.05272,99.6081,-18.8711)">
                <path d="M557.838,454.162L563.168,454.162C564.858,454.162 566.288,453.512 567.198,452.082L583.188,426.862L599.178,452.082C600.088,453.512 601.518,454.162 603.208,454.162L608.928,454.162C611.528,454.162 612.438,452.472 611.008,450.262L590.728,418.802L608.928,389.162C610.228,386.952 609.318,385.262 606.718,385.262L601.258,385.262C599.568,385.262 598.268,385.912 597.358,387.472L583.578,410.872L570.188,387.472C569.278,385.912 567.978,385.262 566.288,385.262L560.438,385.262C557.838,385.262 556.928,386.952 558.228,389.162L576.558,419.192L555.758,450.262C554.328,452.472 555.238,454.162 557.838,454.162Z" style="fill:white;fill-rule:nonzero;"/>
            </g>
            <g transform="matrix(0.754816,0,0,1.05272,99.6081,-18.8711)">
                <path d="M627.258,370.572L633.238,370.572C635.318,370.572 636.488,369.402 636.488,367.322L636.488,361.212C636.488,359.132 635.318,357.962 633.238,357.962L627.258,357.962C625.178,357.962 624.008,359.132 624.008,361.212L624.008,367.322C624.008,369.402 625.178,370.572 627.258,370.572ZM627.518,454.162L632.978,454.162C635.058,454.162 636.228,452.992 636.228,450.912L636.228,388.512C636.228,386.432 635.058,385.262 632.978,385.262L627.518,385.262C625.438,385.262 624.268,386.432 624.268,388.512L624.268,450.912C624.268,452.992 625.438,454.162 627.518,454.162Z" style="fill:white;fill-rule:nonzero;"/>
            </g>
            <g transform="matrix(0.754816,0,0,1.05272,99.6081,-18.8711)">
                <path d="M693.298,383.572C692.128,383.312 690.958,383.182 689.788,383.182C682.638,383.182 674.968,388.512 671.588,397.352L671.588,388.512C671.588,386.432 670.418,385.262 668.338,385.262L663.138,385.262C661.058,385.262 659.888,386.432 659.888,388.512L659.888,450.912C659.888,452.992 661.058,454.162 663.138,454.162L668.598,454.162C670.678,454.162 671.848,452.992 671.848,450.912L671.848,413.342C674.448,402.292 680.948,395.272 688.228,395.272C689.138,395.272 690.178,395.402 691.088,395.532C692.908,395.792 694.078,395.272 694.468,393.062L695.508,387.342C695.898,385.392 695.248,383.832 693.298,383.572Z" style="fill:white;fill-rule:nonzero;"/>
            </g>
        </g>
    </g>
</svg>
