<svg width="336" height="200" xmlns="http://www.w3.org/2000/svg"><g fill-rule="nonzero" fill="none"><path fill="#3D1C59" d="M0 0h336v200H0z"/><path d="M186.267 140.146c-.009-.046-.017-.095-.03-.141l-.035.042.036-.041a1.287 1.287 0 0 0-.095-.027c0 .04.02.071.024.115l.1.057v-.005zm.182.005l-.306-.172c.01.064.032.125.064.181.02.035.158 0 .242-.009zm45.548-33.06c0-.092 0-.185.011-.281l-.024.025.026-.029-.153-.012c.03.026.062.049.092.076l.048.22zm-39.141 44.25c-4.173-7.758-11.184-9.509-19.285-8.988 2.39.65 4.65 1.705 6.684 3.12a32.72 32.72 0 0 1 5.035 4.609c3.099 3.303 7.934 5.331 11.139 4.646a9.497 9.497 0 0 1-3.573-3.383v-.005zm48.045-35.997c-4.756-4.736-11.138-5.347-17.044-1.214a12.822 12.822 0 0 1 9.223 3.905 29.636 29.636 0 0 0 2.663 2.49c3.9 2.911 9.208 3.052 13.257.352-4.186-1.642-4.186-1.642-8.1-5.54v.007zm-55.886-40.61c3.597.247 7.183-.62 10.27-2.485-1.034.095-1.474.092-1.894.178a15.107 15.107 0 0 1-13.132-3.25c-1.428-1.158-2.88-2.288-4.328-3.42-5.733-4.497-12.31-6.002-19.502-5.873.114.363.123.61.248.74 7.826 8.116 16.884 13.707 28.333 14.111l.005-.002zm22.668 20.73c-6.41.573-11.978 3.273-17.209 6.834a17.278 17.278 0 0 1-13.168 3.18c-.851-.151-1.714-.265-2.563-.394l-.029.363c.308.161.605.35.925.48.79.363 1.604.668 2.438.915 9.308 2.254 18.22 1.098 26.256-4.187 5.064-3.331 10.307-3.962 15.99-3.101.57.085 1.142.192 1.722.247.533.051 1.091.593 1.812.008a22.736 22.736 0 0 0-16.174-4.349v.005zm19.338 10.679c1.612.132 3.224.274 4.836.413-3.643-3.129-8.084-3.377-12.571-3.127-6.841.38-11.772 4.235-16.264 8.844-3.965 4.066-7.542 8.621-13.45 10.253.098.174.124.261.151.261.8.011 1.591.048 2.384.013 8.582-.38 16.666-2.15 23.096-8.24 2.026-1.916 3.838-4.046 5.792-6.036a7.315 7.315 0 0 1 6.026-2.379v-.002zM165.393 71.67c-.241-.17-.472-.599-.964-.156a35.255 35.255 0 0 0 15.37 11.672c10.014 3.97 20.178 4.649 30.574 1.145 8.07-2.72 13.874-.063 16.888 7.591.436-8.883-4.915-15.357-13.438-16.626-4.794-.713-9.222.841-13.714 2.114-12.5 3.54-24.115 1.792-34.717-5.736l.001-.004zm20.75 69.454c-.196-1.432-1.42-2.06-2.384-2.81-4.264-3.311-9.25-4.483-14.536-4.578a27.73 27.73 0 0 1-9.252-1.396c-1.363-.505-2.889-1.155-2.857-2.912.035-1.784 1.59-2.29 3.006-2.711 1.159-.344 2.355-.566 3.674-.872-3.352-2.144-6.628-2.44-10.988-.687-6.864 2.749-13.635 2.421-20.48-.045a80.18 80.18 0 0 1-10.869-5.51l-.097.066.097-.059c-.089-.269-.248-.275-.457-.126l.28.245a43.01 43.01 0 0 0 11.483 12.064c8.706 6.408 18.214 10.236 29.34 8.54a153.09 153.09 0 0 1 10.838-1.266c4.544-.366 8.873.912 13.202 2.057zm-73.6-87.128c-2.005.54-3.606-.327-5.257-2.114a35.64 35.64 0 0 1 8-1.16 3.524 3.524 0 0 1-2.743 3.274zm36.447 68.029l-1.257-.229c-8.915-1.676-14.552-7.134-17.223-15.712-1.664-5.348 1.36-9.286 6.906-9.545 4.54-.212 7.648 2.426 10.4 5.499 3.54 3.955 6.784 8.189 10.266 12.207 5.01 5.785 10.918 9.511 18.989 8.361a35.81 35.81 0 0 0 19.043-8.811c.825-.727 1.73-1.36 2.6-2.037l-.547-.653a39.891 39.891 0 0 1-14.116 1.692c-7.268-.37-14.194-1.905-20.39-5.941a27.265 27.265 0 0 1-11.804-15.212c-1.6-5.326 1.677-9.052 7.133-8.281 2.087.329 4.033 1.26 5.6 2.68 1.327 1.134 2.6 2.336 3.953 3.433 6.369 5.175 15.267 5.464 23.352-.156-13.29-.062-22.333-7.455-30.274-16.822-3.108-3.662-6.143-7.401-9.316-11.01-6.14-6.99-12.948-13.14-22.276-15.24-11.909-2.682-23.408-.93-34.446 4.183A28.057 28.057 0 0 0 89 54.546c1.123 0 1.736.014 2.347 0 5.565-.145 9.735 2.356 12.743 6.96a30.797 30.797 0 0 1 4.007 11.038c1.167 5.786.564 11.684 1.237 17.496 1.732 14.943 9.283 25.37 23.343 30.709a27.335 27.335 0 0 0 16.313 1.276z" fill="#FFF"/></g></svg>