<svg height="200" width="336" xmlns="http://www.w3.org/2000/svg"><g fill="none"><path d="M0 0h336v200H0z" fill="#e15d44"/><path d="M239.486 106.156s-3.6 2.783-6.769 2.472c-3.17-.31-2.174-7.365-2.174-7.365s.684-6.47-1.183-7.014c-1.862-.539-4.16 1.686-4.16 1.686s-2.857 3.158-4.224 7.183l-.376.123s.436-7.059-.06-8.667c-.371-.804-3.788-.74-4.347.68-.56 1.426-3.293 11.327-3.481 15.476 0 0-5.343 4.518-9.999 5.259-4.66.744-5.778-2.166-5.778-2.166s12.672-3.527 12.236-13.616c-.431-10.088-10.218-6.355-11.324-5.528-1.073.804-6.792 4.24-8.461 13.757-.055.32-.156 1.736-.156 1.736s-4.908 3.276-7.641 4.144c0 0 7.64-12.811-1.674-18.627-2.62-1.571-4.903-.126-6.262 1.201-.834.815 11.293-12.4 8.495-24.224-1.33-5.63-4.155-6.232-6.746-5.319-3.935 1.545-5.426 3.834-5.426 3.834s-5.095 7.365-6.278 18.321c-1.179 10.952-2.917 24.197-2.917 24.197s-2.426 2.353-4.66 2.477c-2.238.119-1.243-6.625-1.243-6.625s1.738-10.271 1.62-12.007c-.13-1.732-.253-2.66-2.303-3.276-2.05-.622-4.288 1.978-4.288 1.978s-5.898 8.91-6.394 10.271l-.316.562-.307-.375s4.16-12.13.188-12.313c-3.977-.187-6.586 4.331-6.586 4.331s-4.536 7.553-4.724 8.416l-.308-.37s1.863-8.786 1.491-10.956c-.376-2.166-2.422-1.732-2.422-1.732s-2.61-.31-3.293 1.362-3.169 12.747-3.48 16.275c0 0-6.522 4.642-10.81 4.701-4.284.064-3.848-2.705-3.848-2.705s15.717-5.36 11.429-15.94c-1.927-2.724-4.16-3.578-7.33-3.519-3.168.064-7.099 1.987-9.644 7.68-1.22 2.714-1.66 5.296-1.913 7.242 0 0-2.747.562-4.237-.676-1.496-1.238-2.262 0-2.262 0s-2.559 3.253-.013 4.24c2.55.991 6.521 1.453 6.521 1.453.367 1.732 1.427 4.679 4.532 7.022 4.66 3.528 13.598-.324 13.598-.324l3.665-2.047s.123 3.35 2.797 3.838c2.67.489 3.789-.01 8.448-11.272 2.734-5.756 2.922-5.446 2.922-5.446.307-.064-1.803 10.952-.995 13.922.807 2.974 4.347 2.664 4.347 2.664s1.927.37 3.481-5.077c1.55-5.446 4.536-11.45 4.536-11.45.367 0-.935 11.263 1.05 14.854 1.99 3.592 7.146 1.207 7.146 1.207s3.605-1.81 4.164-2.367c0 0 4.275 3.628 10.306 2.97 13.483-2.646 18.28-6.219 18.28-6.219s2.317 5.849 9.494 6.392c8.196.617 12.672-4.518 12.672-4.518s-.064 3.34 2.793 4.518c2.862 1.174 4.784-5.437 4.784-5.437l4.784-13.131c.435 0 .683 8.54 5.407 9.9 4.72 1.362 10.87-3.188 10.87-3.188s1.49-.818 1.242-3.294c-.252-2.477-2.486-1.554-2.486-1.554zM115.06 99.961c1.674 1.608 1.055 5.071-2.114 7.237-3.165 2.17-4.596 1.736-4.596 1.736.188-7.365 5.036-10.586 6.71-8.973zm61.81-25.436c1.054 5.57-9.256 22.155-9.256 22.155.124-3.714 3.789-16.275 3.789-16.275s4.407-11.45 5.467-5.88zm-10.191 42.268s-.807-2.723 1.49-10.335c2.303-7.612 7.705-4.642 7.705-4.642s3.729 2.846.808 10.458c-2.917 7.612-10.003 4.519-10.003 4.519zm31.434-14.913c2.546-4.642 4.536-2.107 4.536-2.107s2.174 2.353-.312 5.88c-2.485 3.528-6.086 3.281-6.086 3.281s-.683-2.417 1.862-7.054z" fill="#fff"/></g></svg>