<svg height="200" width="336" xmlns="http://www.w3.org/2000/svg"><g fill="none" fill-rule="evenodd"><path d="M0 0h336v200H0z" fill="#f1f7fd" fill-rule="nonzero"/><g transform="translate(104 32)"><circle cx="71" cy="100.5" fill="#86f0b0" r="9"/><circle cx="9" cy="100.5" fill="#86f0b0" r="9"/><circle cx="41" cy="100.5" fill="#86f0b0" r="9"/><circle cx="41" cy="127.5" fill="#86f0b0" r="9"/><g stroke="#33587d" stroke-width="3"><path d="M0 67.5l9 8 9-8"/><path d="M0 82.5l9-8 9 8"/><path d="M62 67.5l9 8 9-8"/><path d="M62 82.5l9-8 9 8"/><path d="M95 17.5L80 .5l-15 17m63 53l-15-17-15 17"/><path d="M80 2.5v25.465c0 7.882-6.382 14.331-14.182 14.331H55.182c-7.8 0-14.182 6.45-14.182 14.332V83.5" stroke-dasharray="2 8" stroke-linecap="round" stroke-linejoin="round"/><path d="M113 54.5v29.344c0 8.06-6.429 14.656-14.286 14.656H88m-8-96v21.423"/></g></g></g></svg>