<svg height="200" viewBox="0 0 336 200" width="336" xmlns="http://www.w3.org/2000/svg"><g fill="none" fill-rule="evenodd"><path d="m0 0h336v200h-336z" fill="#f1f7fd" fill-rule="nonzero"/><g transform="translate(104 32)"><circle cx="71" cy="100.5" fill="#86f0b0" r="9"/><circle cx="9" cy="100.5" fill="#86f0b0" r="9"/><circle cx="41" cy="100.5" fill="#86f0b0" r="9"/><circle cx="41" cy="127.5" fill="#86f0b0" r="9"/><g stroke="#33587d" stroke-width="3"><path d="m0 67.5 9 8 9-8"/><path d="m0 74.5 9 8 9-8" transform="matrix(1 0 0 -1 0 157)"/><path d="m62 67.5 9 8 9-8"/><path d="m62 74.5 9 8 9-8" transform="matrix(1 0 0 -1 0 157)"/><path d="m95 17.5-15-17-15 17"/><path d="m128 70.5-15-17-15 17"/><path d="m80 2.5v25.4648027c0 7.8824151-6.3818182 14.3316638-14.1818182 14.3316638h-10.6363636c-7.8 0-14.1818182 6.4492487-14.1818182 14.3316638v26.8718697" stroke-dasharray="2 8" stroke-linecap="round" stroke-linejoin="round"/><path d="m113 54.5v29.3437705c0 8.0609262-6.428571 14.6562295-14.2857143 14.6562295h-10.7142857"/><path d="m80 2.5v21.4225214"/></g></g></g></svg>