<?xml version="1.0" encoding="UTF-8"?>
<svg width="336px" height="200px" viewBox="0 0 336 200" version="1.1" xmlns="http://www.w3.org/2000/svg" xmlns:xlink="http://www.w3.org/1999/xlink">
    <title>9030F185-E10F-4714-88D0-28CBDD97F063@1.00x</title>
    <g id="/work" stroke="none" stroke-width="1" fill="none" fill-rule="evenodd">
        <g id="caseStudyQonto" transform="translate(-912.000000, -632.000000)" fill-rule="nonzero">
            <g id="qonto" transform="translate(912.000000, 632.000000)">
                <rect id="Rectangle" fill="#6B5AED" x="0" y="0" width="336" height="200"></rect>
                <g id="Group" transform="translate(98.000000, 56.000000)" fill="#F5F6FA">
                    <g id="Qonto-Full-L-Filigranelogo-TransparentBG" transform="translate(0.000000, 25.000000)">
                        <path d="M40.9852121,17.2819394 C40.9852121,18.3680054 41.0938172,19.3793892 41.3110303,20.3161212 C41.5282434,21.2528532 41.8812097,22.0673905 42.3699394,22.7597576 C42.858669,23.4521246 43.4899355,23.9951495 44.2637576,24.3888485 C45.0375797,24.7825475 45.9675097,24.9793939 47.0535758,24.9793939 C48.0853384,24.9793939 49.035632,24.8029108 49.9044848,24.4499394 C50.7733377,24.096968 51.4385431,23.7304261 51.9001212,23.350303 L51.9001212,9.99175758 C51.5199981,9.88315097 51.0109123,9.78812162 50.3728485,9.70666667 C49.7347847,9.62521171 48.8455815,9.58448485 47.7052121,9.58448485 C45.6688383,9.58448485 44.0397637,10.2496903 42.8179394,11.5801212 C41.5961151,12.9105521 40.9852121,14.8111392 40.9852121,17.2819394 L40.9852121,17.2819394 Z M37.7881212,12.6593939 C38.2904268,11.2882356 39.0031469,10.1275199 39.926303,9.17721212 C40.8494591,8.22690434 41.9626602,7.49382076 43.2659394,6.97793939 C44.5692186,6.46205803 46.0353858,6.20412121 47.6644848,6.20412121 C49.4293422,6.20412121 50.9837508,6.33308962 52.3277576,6.5910303 C53.6717644,6.84897099 54.7917532,7.08654437 55.6877576,7.30375758 L55.6877576,36.844295 L51.9001209,37.5382229 L51.9001212,26.8935758 C51.4385431,27.192244 50.7393987,27.5044832 49.8026667,27.830303 C48.8659346,28.1561229 47.7866728,28.3190303 46.5648485,28.3190303 C45.044356,28.3190303 43.6935817,28.0475179 42.5124848,27.5044848 C41.331388,26.9614518 40.3335798,26.201217 39.5190303,25.2237576 C38.7044808,24.2462981 38.0867899,23.0787947 37.6659394,21.7212121 C37.2450889,20.3636296 37.0346667,18.8838868 37.0346667,17.2819394 C37.0346667,15.5713854 37.2858156,14.0305523 37.7881212,12.6593939 Z M79.7100606,17.2412121 C79.7100606,18.9246145 79.4656993,20.4450841 78.9769697,21.8026667 C78.48824,23.1602492 77.8026711,24.3277527 76.9202424,25.3052121 C76.0378138,26.2826716 74.9857031,27.0361185 73.7638788,27.5655758 C72.5420545,28.095033 71.2116435,28.3597576 69.7726061,28.3597576 C68.3335686,28.3597576 67.0031576,28.095033 65.7813333,27.5655758 C64.559509,27.0361185 63.5073984,26.2826716 62.6249697,25.3052121 C61.742541,24.3277527 61.0569721,23.1602492 60.5682424,21.8026667 C60.0795128,20.4450841 59.8351515,18.9246145 59.8351515,17.2412121 C59.8351515,15.5849614 60.0795128,14.0712796 60.5682424,12.7001212 C61.0569721,11.3289628 61.742541,10.1546716 62.6249697,9.17721212 C63.5073984,8.19975269 64.559509,7.44630568 65.7813333,6.91684848 C67.0031576,6.38739129 68.3335686,6.12266667 69.7726061,6.12266667 C71.2116435,6.12266667 72.5420545,6.38739129 73.7638788,6.91684848 C74.9857031,7.44630568 76.0378138,8.19975269 76.9202424,9.17721212 C77.8026711,10.1546716 78.48824,11.3289628 78.9769697,12.7001212 C79.4656993,14.0712796 79.7100606,15.5849614 79.7100606,17.2412121 L79.7100606,17.2412121 Z M75.7595152,17.2412121 C75.7595152,14.8518668 75.2232782,12.9580676 74.1507879,11.5597576 C73.0782976,10.1614476 71.6189183,9.46230303 69.7726061,9.46230303 C67.9262939,9.46230303 66.4669145,10.1614476 65.3944242,11.5597576 C64.321934,12.9580676 63.785697,14.8518668 63.785697,17.2412121 C63.785697,19.6305573 64.321934,21.5243567 65.3944242,22.9226667 C66.4669145,24.3209767 67.9262939,25.0201212 69.7726061,25.0201212 C71.6189183,25.0201212 73.0782976,24.3209767 74.1507879,22.9226667 C75.2232782,21.5243567 75.7595152,19.6305573 75.7595152,17.2412121 L75.7595152,17.2412121 Z M83.8574545,7.2630303 C84.7263074,7.0458171 85.8802353,6.81503152 87.3192727,6.57066667 C88.7583102,6.32630181 90.4145361,6.20412121 92.288,6.20412121 C93.9714024,6.20412121 95.3696914,6.44169459 96.4829091,6.91684848 C97.5961268,7.39200238 98.4853299,8.05720784 99.1505455,8.91248485 C99.815761,9.76776185 100.28412,10.7927213 100.555636,11.9873939 C100.827153,13.1820666 100.962909,14.4989019 100.962909,15.9379394 L100.962909,27.830303 L97.1752727,27.830303 L97.1752727,16.7524848 C97.1752727,15.4492056 97.0870312,14.3360046 96.9105455,13.4128485 C96.7340598,12.4896924 96.4421839,11.7430332 96.0349091,11.1728485 C95.6276343,10.6026638 95.0846095,10.1886074 94.4058182,9.93066667 C93.7270269,9.67272598 92.8853384,9.54375758 91.8807273,9.54375758 C91.4734525,9.54375758 91.0526083,9.5573332 90.6181818,9.58448485 C90.1837554,9.6116365 89.769699,9.64557555 89.376,9.68630303 C88.982301,9.72703051 88.6293349,9.77454518 88.3170909,9.82884848 C88.004847,9.88315179 87.7808492,9.92387865 87.6450909,9.9510303 L87.6450909,27.830303 L83.8574545,27.830303 L83.8574545,7.2630303 Z M109.590303,6.65212121 L117.613576,6.65212121 L117.613576,9.82884848 L109.590303,9.82884848 L109.590303,19.6033939 C109.590303,20.6623083 109.671757,21.537936 109.834667,22.230303 C109.997577,22.9226701 110.241938,23.4656949 110.567758,23.8593939 C110.893577,24.2530929 111.300846,24.5313931 111.789576,24.694303 C112.278305,24.857213 112.848482,24.9386667 113.500121,24.9386667 C114.640491,24.9386667 115.556845,24.8096983 116.249212,24.5517576 C116.941579,24.2938168 117.423514,24.110546 117.69503,24.0019394 L118.428121,27.1379394 C118.047998,27.328001 117.382793,27.5655744 116.432485,27.8506667 C115.482177,28.1357589 114.396127,28.278303 113.174303,28.278303 C111.735266,28.278303 110.547399,28.0950303 109.610667,27.7284848 C108.673935,27.3619375 107.920488,26.8121249 107.350303,26.0790303 C106.780118,25.3459357 106.379638,24.4431569 106.148848,23.3706667 C105.918059,22.2981764 105.802667,21.0560071 105.802667,19.6441212 L105.802667,0.746666667 L109.590303,0.095030303 L109.590303,6.65212121 Z M139.925333,17.2412121 C139.925333,18.9246145 139.680972,20.4450841 139.192242,21.8026667 C138.703513,23.1602492 138.017944,24.3277527 137.135515,25.3052121 C136.253086,26.2826716 135.200976,27.0361185 133.979152,27.5655758 C132.757327,28.095033 131.426916,28.3597576 129.987879,28.3597576 C128.548841,28.3597576 127.21843,28.095033 125.996606,27.5655758 C124.774782,27.0361185 123.722671,26.2826716 122.840242,25.3052121 C121.957814,24.3277527 121.272245,23.1602492 120.783515,21.8026667 C120.294786,20.4450841 120.050424,18.9246145 120.050424,17.2412121 C120.050424,15.5849614 120.294786,14.0712796 120.783515,12.7001212 C121.272245,11.3289628 121.957814,10.1546716 122.840242,9.17721212 C123.722671,8.19975269 124.774782,7.44630568 125.996606,6.91684848 C127.21843,6.38739129 128.548841,6.12266667 129.987879,6.12266667 C131.426916,6.12266667 132.757327,6.38739129 133.979152,6.91684848 C135.200976,7.44630568 136.253086,8.19975269 137.135515,9.17721212 C138.017944,10.1546716 138.703513,11.3289628 139.192242,12.7001212 C139.680972,14.0712796 139.925333,15.5849614 139.925333,17.2412121 L139.925333,17.2412121 Z M135.974788,17.2412121 C135.974788,14.8518668 135.438551,12.9580676 134.366061,11.5597576 C133.29357,10.1614476 131.834191,9.46230303 129.987879,9.46230303 C128.141567,9.46230303 126.682187,10.1614476 125.609697,11.5597576 C124.537207,12.9580676 124.00097,14.8518668 124.00097,17.2412121 C124.00097,19.6305573 124.537207,21.5243567 125.609697,22.9226667 C126.682187,24.3209767 128.141567,25.0201212 129.987879,25.0201212 C131.834191,25.0201212 133.29357,24.3209767 134.366061,22.9226667 C135.438551,21.5243567 135.974788,19.6305573 135.974788,17.2412121 L135.974788,17.2412121 Z" id="qonto"></path>
                        <path d="M3.77007958,12.5273481 C1.51366857,10.2669454 0.171530311,7.25712296 0,4.07272727 C3.18169636,4.24933636 6.18429585,5.59735714 8.4257369,7.85547236 C10.6815173,10.1163745 12.0235393,13.1259965 12.1958165,16.3102626 C9.01410073,16.1335922 6.0115036,14.7855121 3.77007958,12.5273481 Z M22.0238599,12.5273481 C19.7824358,14.7855121 16.7798387,16.1335922 13.5981229,16.3102626 C13.7704001,13.1259965 15.1124221,10.1163745 17.3682025,7.85547236 C19.6096435,5.59735714 22.6122431,4.24933636 25.7939394,4.07272727 C25.622409,7.25712296 24.2802708,10.2669454 22.0238599,12.5273481 Z M22.0238599,21.4120458 C24.2802708,23.6724485 25.622409,26.682271 25.7939394,29.8666667 C22.6122431,29.6900576 19.6096435,28.3420368 17.3682025,26.0839216 C15.1124221,23.8230194 13.7704001,20.8133975 13.5981229,17.6291312 C16.7798387,17.8058017 19.7824358,19.1538819 22.0238599,21.4120458 Z M3.77007958,21.4120458 C6.0115036,19.1538819 9.05801879,17.8044413 12.2397345,17.6277708 C12.0674573,20.8120368 10.6815173,23.8230194 8.4257369,26.0839216 C6.18429585,28.3420368 3.18169636,29.6900576 0,29.8666667 C0.171530311,26.682271 1.51366857,23.6724485 3.77007958,21.4120458 Z" id="Combined-Shape"></path>
                    </g>
                </g>
            </g>
        </g>
    </g>
</svg>