<svg width="336" height="200" xmlns="http://www.w3.org/2000/svg"><g fill="none" fill-rule="evenodd"><path d="M0 0h336v200H0z" fill="#F1F7FD" fill-rule="nonzero"/><g stroke="#33587D" stroke-width="3"><path d="M164.815 68.295c.147-6.106-4.69-11.295-10.553-11.295h-.44c-6.009 0-11.285 5.037-10.992 11.295 0 1.22 1.172 7.631 1.172 7.631.88 5.495 4.397 10.074 9.82 10.074s8.794-4.579 9.82-10.074c0 0 1.173-6.258 1.173-7.631zM126.818 115l.925-10.878c.462-4.079 4.775-6.95 9.089-7.705L155.318 94l18.64 2.417c4.776.907 8.936 3.475 9.244 8.159l.616 10.424m11-40.258c0-4.808-4.05-8.742-9-8.742s-9 3.934-9 8.742c0 1.02 1.05 5.682 1.05 5.682.75 4.08 3.6 7.576 7.95 7.576s7.2-3.497 7.95-7.576c.15 0 1.05-4.808 1.05-5.682zm-8 22.258l14.52 1.8c3.52.6 6.747 2.7 7.04 6.6l.44 9.6"/><path d="M183.818 114v12h-33l33 18v-12h33z"/></g></g></svg>