<svg height="200" width="336" xmlns="http://www.w3.org/2000/svg"><g fill="none"><path d="M0 0h336v200H0z" fill="#48d5b5"/><path d="M237.392 103.516c-.103-2.113-1.428-4.127-4.793-4.127-2.957 0-4.588 2.214-4.792 4.127zm5.405 6.843c-1.123 3.622-4.488 6.641-9.689 6.641-5.81 0-11.013-4.125-11.013-11.17 0-6.64 4.997-11.069 10.402-11.069 6.527 0 10.503 4.126 10.503 10.867 0 .805-.101 1.712-.101 1.712h-15.196c.102 2.817 2.55 4.73 5.302 4.73 2.652 0 4.181-1.309 4.794-3.22zm-37.017-6.039c0-2.416 1.427-4.328 3.975-4.328 2.754 0 3.977 1.812 3.977 4.127v12.176h5.711v-13.183c0-4.63-2.447-8.352-7.648-8.352-2.244 0-4.792 1.005-6.118 3.12v-2.617h-5.608v20.93h5.71V104.32zm-14.99-8.955h5.711v20.931h-5.71v-20.93zM193.647 85c1.938 0 3.569 1.61 3.569 3.523 0 1.91-1.53 3.421-3.57 3.421-1.937 0-3.568-1.61-3.568-3.421 0-1.912 1.631-3.523 3.568-3.523zm-31.918 19.32c0-2.413 1.429-4.327 3.977-4.327 2.754 0 3.977 1.812 3.977 4.127v12.176h5.711v-13.183c0-4.629-2.447-8.352-7.648-8.352-2.244 0-4.792 1.006-6.118 3.12v-2.618h-5.608v20.93h5.71V104.32zm-15.193-8.953h5.71v20.93h-5.71zM149.288 85c1.938 0 3.569 1.61 3.569 3.523 0 1.91-1.53 3.421-3.568 3.421-1.938 0-3.57-1.61-3.57-3.421.103-1.912 1.632-3.523 3.569-3.523zm-16.315 27.773c-1.835 0-2.754-1.206-2.754-2.414 0-1.611 1.122-2.415 2.651-2.616l4.794-.706v.907c0 3.623-2.244 4.83-4.691 4.83zm-8.464-2.113c0 3.32 2.753 6.34 7.342 6.34 3.163 0 5.2-1.41 6.22-3.12 0 .805.102 1.912.203 2.516h5.304c-.102-.704-.306-2.213-.306-3.32v-10.365c0-4.227-2.549-7.95-9.28-7.95-5.71 0-8.769 3.623-9.074 6.943l5.098 1.107c.203-1.811 1.529-3.422 4.079-3.422 2.446 0 3.569 1.208 3.569 2.718 0 .704-.409 1.308-1.632 1.509l-5.2.805c-3.568.403-6.323 2.516-6.323 6.24zm-1.733-9.66c-.612-.1-1.225-.2-1.734-.2-2.957 0-5.507 1.408-5.507 5.936v9.56h-5.71v-20.93h5.609v3.12c1.324-2.82 4.18-3.322 6.016-3.322.51 0 .919 0 1.326.1zm-16.112-5.333v4.93h-6.628c.611-.301 1.122-.805 1.632-1.208 1.02-1.005 1.733-2.213 2.243-3.722zm-12.033 4.93H93v-4.93h9.28c-.612 1.509-1.53 2.717-2.856 3.622-1.224.806-2.855 1.208-4.793 1.308zm10.301 11.07c.714 0 1.427-.1 1.733-.2v4.728c-.51.201-1.529.504-3.16.504-4.08 0-6.63-2.416-6.63-6.44v-8.354h5.609v7.447c0 1.71.816 2.315 2.448 2.315zm-2.448-17.308v-4.932h-5.099v2.917c0 .805-.204 1.51-.612 2.013l5.71.002zm85.146 17.308h-1.02c-1.632 0-2.446-.604-2.446-2.415V85.905h-5.61v24.352c0 4.027 2.549 6.44 6.628 6.44 1.02 0 1.836-.1 2.446-.301l.002-4.73z" fill="#fff"/></g></svg>