<?xml version="1.0" encoding="UTF-8"?>
<svg width="1440px" height="501px" viewBox="0 0 1440 501" version="1.1" xmlns="http://www.w3.org/2000/svg" xmlns:xlink="http://www.w3.org/1999/xlink">
    <title>Group 4</title>
    <g id="Blog-posts" stroke="none" stroke-width="1" fill="none" fill-rule="evenodd">
        <g id="Journey-of-a-Junior-Software-Engineer" transform="translate(0.000000, -1079.000000)">
            <g id="Group-4" transform="translate(0.000000, 1079.000000)">
                <g id="Group-2">
                    <g id="Rectangle-2" fill="#FFFFFF">
                        <rect id="Rectangle" x="0" y="0" width="1440" height="500"></rect>
                    </g>
                    <circle id="Oval" fill="#F37A78" fill-rule="nonzero" cx="483.8153" cy="180.600467" r="180.5"></circle>
                    <rect id="Rectangle" fill="#D8D8D8" x="0" y="121" width="1440" height="380"></rect>
                </g>
                <g id="Group-3" transform="translate(386.174674, 0.000000)">
                    <polygon id="Rectangle" fill="#A8A7A7" points="-5.6074783e-13 120.311693 194.231428 120.311693 666.697512 499.93193 148.815291 500.311693"></polygon>
                    <g id="undraw_trip_re_f724" transform="translate(192.640626, 0.000000)" fill-rule="nonzero">
                        <path d="M368.5,431.100467 C368.5,469.208117 372.5,497.100467 331,500.100467 C286.43687,503.321897 293.5,469.208117 293.5,431.100467 C293.5,392.992817 287.5,355.100467 331,362.100467 C351.44762,365.390887 368.5,392.992817 368.5,431.100467 Z" id="Path" fill="#3F3D56"></path>
                        <ellipse id="Oval" fill="#E6E6E6" cx="305.5" cy="431.100467" rx="6" ry="48"></ellipse>
                        <path d="M68.13807,369.734017 C68.13807,403.363337 71.668,427.977837 35.04499,430.625287 C-4.28117,433.468147 1.95191,403.363337 1.95191,369.734017 C1.95191,336.104697 -3.34298,302.665377 35.04499,308.842747 C53.08965,311.746487 68.13807,336.104697 68.13807,369.734017 Z" id="Path" fill="#3F3D56"></path>
                        <ellipse id="Oval" fill="#E6E6E6" cx="12.54169" cy="369.734017" rx="5.29489" ry="42.35914"></ellipse>
                        <path d="M125,430.600467 C125,468.708117 129,496.600467 87.5,499.600467 C42.93687,502.821897 50,468.708117 50,430.600467 C50,392.492817 44,354.600467 87.5,361.600467 C107.94762,364.890887 125,392.492817 125,430.600467 Z" id="Path" fill="#3F3D56"></path>
                        <ellipse id="Oval" fill="#E6E6E6" cx="62" cy="430.600467" rx="6" ry="48"></ellipse>
                        <path d="M6.5,289.100467 L6.5,312.754007 L0,323.600467 L2,361.600467 L3.61812,362.600427 L2.5,324.100467 C13.89322,319.858887 17.6188,327.671817 16.5,343.100467 L14.5,369.100467 L46.5,389.100467 L50.5,348.100467 L65.5,341.100467 L82,410.600467 L358.44848,410.600467 C369.84424,410.600467 378.95049,401.117847 378.48922,389.731427 L375,303.600467 L365.5866,294.187077 L356.8664,193.322457 C354.69176,168.168827 333.36319,149.023677 308.12159,149.567677 L135.18754,153.294707 C125.80575,153.496897 116.53691,155.385707 107.82411,158.870827 L65.99998,175.600477 L39.00392,202.596537 L34.99998,267.600477 L24.79254,266.712877 C17.44992,266.074387 10.75334,270.927047 9.07375,278.103447 L6.49998,289.100477 L6.5,289.100467 Z" id="Path" fill="#E6E6E6"></path>
                        <circle id="Oval" fill="#3F3D56" cx="96" cy="372.600467" r="10"></circle>
                        <circle id="Oval" fill="#3F3D56" cx="119" cy="372.600467" r="10"></circle>
                        <circle id="Oval" fill="#3F3D56" cx="343" cy="372.600467" r="10"></circle>
                        <circle id="Oval" fill="#3F3D56" cx="366" cy="372.600467" r="10"></circle>
                        <path d="M350.39501,278.671747 L115.30078,278.671747 C113.50342,278.671747 111.83057,277.955927 110.59033,276.655147 C109.35009,275.354367 108.71338,273.649287 108.79834,271.854367 L112.23291,199.229367 C112.39551,195.795777 115.21533,193.071167 118.65186,193.027217 L340.63624,190.169499 C343.91407,190.138547 346.75636,192.569207 347.17726,195.851437 L356.85206,271.333857 C357.08985,273.188347 356.51759,275.057487 355.28224,276.461787 C354.0464,277.866087 352.26515,278.671747 350.39503,278.671747 L350.39501,278.671747 Z" id="Path" fill="#FFFFFF"></path>
                        <path d="M82.47656,275.100487 L67.22265,275.100487 C65.41308,275.100487 63.6704,274.338747 62.44238,273.009647 C61.21386,271.680547 60.59082,269.883667 60.73291,268.078987 L65.12353,212.358287 C65.36425,209.298717 67.65429,206.858287 70.69238,206.424697 L86.45508,204.172747 C88.42871,203.892477 90.39404,204.514547 91.84424,205.883687 C93.29492,207.253807 94.03028,209.178607 93.86231,211.165917 L88.96338,269.138577 C88.67627,272.537017 85.88721,275.100487 82.47656,275.100487 L82.47656,275.100487 Z" id="Path" fill="#FFFFFF"></path>
                        <path d="M47.39746,273.684447 C47.23975,273.684447 47.08105,273.678587 46.92236,273.667847 L45.13134,273.539917 C43.3623,273.412967 41.75829,272.596557 40.61572,271.240117 C39.47314,269.882697 38.9414,268.163947 39.11767,266.398317 L44.04492,217.124877 C44.33691,214.207887 46.56006,211.833857 49.45263,211.351437 C51.42382,211.020387 53.40429,211.602417 54.88622,212.942257 C56.36864,214.280147 57.14599,216.191277 57.01952,218.184447 L53.8828,267.586787 C53.77196,269.331907 52.98583,270.926627 51.66844,272.077017 C50.47166,273.122917 48.9702,273.684447 47.39744,273.684447 L47.39746,273.684447 Z" id="Path" fill="#FFFFFF"></path>
                        <path d="M22.59411,374.214367 L19.99999,317.600457 C19.99999,317.600457 13.99999,309.600457 9.99999,311.600457 C5.99999,313.600457 0.05905,324.722507 0.05905,324.722507 C0.05905,324.722507 11.65317,323.962667 11.32658,336.281567 C10.99999,348.600467 13.31299,368.529677 13.31299,368.529677 L22.59411,374.214367 L22.59411,374.214367 Z" id="Path" fill="#CCCCCC"></path>
                        <path d="M46.74368,389.005977 L48,346.769757 L60.72047,331.746137 C60.72047,331.746137 77.72047,328.072907 77.36023,347.336687 C76.99999,366.600467 82.49999,411.100467 82.49999,411.100467 L70.06903,403.292747 C70.06903,403.292747 66.99999,355.600467 57.99999,350.600467 C48.99999,345.600467 51.99999,349.600467 51.99999,349.600467 L46.74368,389.005977 L46.74368,389.005977 Z" id="Path" fill="#CCCCCC"></path>
                        <path d="M33.49609,280.732297 L23.64038,275.100457 L24.71655,275.100457 C26.25378,275.100457 27.49999,273.854237 27.49999,272.316947 L27.49999,247.883907 C27.49999,246.346617 26.25378,245.100457 24.71655,245.100457 L14.28344,245.100457 C12.74621,245.100457 11.49999,246.346607 11.49999,247.883907 L11.49999,272.316947 C11.49999,273.854237 12.74621,275.100457 14.28344,275.100457 L19.60961,275.100457 L32.5039,282.468617 L33.49609,280.732287 L33.49609,280.732297 Z" id="Path" fill="#3F3D56"></path>
                        <rect id="Rectangle" fill="#3F3D56" transform="translate(42.000014, 319.600466) rotate(16.043250) translate(-42.000014, -319.600466) " x="34.5000137" y="316.100466" width="15" height="7" rx="3.5"></rect>
                        <circle id="Oval" fill="#3F3D56" cx="257" cy="312.600467" r="76"></circle>
                        <circle id="Oval" fill="#E6E6E6" cx="257" cy="312.600467" r="45"></circle>
                        <g id="Group" transform="translate(332.243140, 52.173159)" fill="#4299F5">
                            <path d="M25.44825,109.494038 C25.83075,113.930378 28.42983,117.329038 31.2531,117.085158 C34.07637,116.841278 36.05424,113.047588 35.67102,108.609718 C35.54225,106.834868 34.99032,105.116668 34.06138,103.598868 L32.20335,84.8223782 L23.41068,85.8821082 L26.17588,104.279898 C25.5204,105.934908 25.27089,107.722848 25.44826,109.494058 L25.44825,109.494038 Z" id="b-58"></path>
                            <path d="M0,0.801428217 C0,0.801428217 9.70152,-1.93128178 13.43093,2.69554822 C17.16034,7.32237822 31.07085,52.7591282 31.07085,52.7591282 L35.38989,101.660518 L21.6171,97.4927382 L16.25686,58.9273082 L7.25686,38.9273082 L0,0.801428217 L0,0.801428217 Z" id="Path"></path>
                        </g>
                        <g id="Group" transform="translate(283.759029, 0.000000)">
                            <rect id="Rectangle" fill="#2F2E41" x="15.7490914" y="23.5578768" width="29.56796" height="28.03858"></rect>
                            <circle id="Oval" fill="#FFB6B6" cx="30.2202214" cy="23.4261868" r="14.41669"></circle>
                            <path d="M23.3959814,0.107426842 C14.1818814,1.53356684 14.6211014,4.95736684 11.6707614,6.73472684 C6.47289143,9.86604684 4.42206143,18.9083768 7.16718143,24.8752868 C7.90063143,26.4695668 9.44706143,28.6444668 8.69656143,30.9927968 C8.12043143,32.7954868 6.45950143,33.8589468 6.14760143,34.0515468 C3.59466143,35.6278468 5.26218143,33.7525868 4.10843143,35.0711268 C2.83494143,36.5265168 4.80778143,38.5822968 3.59864143,41.1886368 C2.52678143,43.4992568 0.317101428,43.3042268 0.0300914275,44.7571868 C-0.464138572,47.2591668 5.20842143,52.2898768 11.2455214,51.8942768 C16.6207414,51.5420568 20.6138314,46.9977268 21.9511614,42.7180168 C22.8469114,39.8511768 23.2331114,34.9199768 20.9315814,32.5221668 C20.6087314,32.1858768 19.7263014,31.3714668 18.8924114,29.9732068 C18.2325214,28.8666868 17.3637814,27.4101168 17.8728314,26.4046568 C18.4151114,25.3334868 19.9525714,25.8972868 20.9315814,24.8752768 C22.2593314,23.4892768 20.6817914,21.1476068 20.9315814,18.7577668 C21.3546214,14.7110368 27.0884214,9.84392684 33.1666014,10.6010868 C40.0618714,11.4599968 42.5910414,18.9579568 42.8526614,19.7773468 C43.3949414,21.4756168 43.3841114,23.1186268 43.3624514,26.4046468 C43.3314614,31.1203468 43.3119214,34.0759868 41.8330714,37.1102868 C39.7060314,41.4745168 36.9961414,41.0029968 36.2253514,44.2473768 C35.0236814,49.3058468 40.6767014,54.3861568 41.3232714,54.9530168 C46.1170114,59.1553168 53.3572814,60.4188468 54.5778714,58.5215668 C55.6777314,56.8118468 50.8491414,54.1522968 51.0093214,48.8355068 C51.1480914,44.2280168 54.8768214,42.8234768 54.0680714,39.6592468 C53.1779214,36.1761468 48.4278714,36.9707068 46.4211814,33.0319468 C44.5481714,29.3554968 47.9999714,27.3156968 47.4407614,19.7773468 C47.3224014,18.1826868 46.8216914,13.6060068 43.8722114,9.07170684 C42.5728414,7.07410684 41.2513114,5.04246684 38.7742914,3.97378684 C36.0013014,2.77740684 28.2699914,-0.646943158 23.3959714,0.107416842 L23.3959814,0.107426842 Z" id="Path" fill="#2F2E41"></path>
                            <path d="M17.2784714,12.8522368 C17.6524814,16.0090668 22.3928814,17.5561168 24.4155614,17.9501568 C25.2722314,18.1170568 28.1671314,18.6809968 31.0428614,17.4403668 C32.1057614,16.9817868 32.4930214,16.5670868 33.5918214,16.4207868 C35.0794414,16.2227668 35.8289414,16.7885668 38.1799514,17.4403668 C40.7942514,18.1651668 42.1014714,18.5275968 42.7680814,17.9501568 C43.8578614,17.0062468 43.0206714,13.9183068 41.7485014,11.8326468 C39.3961914,7.97615684 35.0902714,6.78195684 33.0820314,6.22492684 C30.7875914,5.58855684 26.1315014,4.29714684 21.8666014,6.73471684 C21.2963814,7.06061684 16.8984914,9.64486684 17.2784714,12.8522268 L17.2784714,12.8522368 Z" id="Path" fill="#2F2E41"></path>
                        </g>
                        <g id="Group" transform="translate(364.646210, 263.357517)">
                            <polygon id="Path" fill="#FFB6B6" points="6.56688 33.14084 13.92505 33.31449 18.02662 0.25696 7.1678 0"></polygon>
                            <path d="M31.81184,48.49222 L31.81184,48.49222 C31.81184,49.73525 30.92971,50.74295 29.84153,50.74295 L15.23617,50.74295 C15.23617,50.74295 13.79889,44.96544 7.93884,42.47905 L7.53439,50.74295 L0,50.74295 L0.91287,37.45498 C0.91287,37.45498 -1.10262,30.34587 3.08312,26.7119 C7.2689,23.07793 3.87858,23.5838 3.87858,23.5838 L5.52519,15.35955 L16.91047,16.69839 L16.99418,29.60854 L22.51937,42.42306 L30.62349,46.42636 C31.3448,46.78266 31.81184,47.59452 31.81184,48.4922 L31.81184,48.49222 L31.81184,48.49222 Z" id="Path" fill="#3F3D56"></path>
                        </g>
                        <g id="Group" transform="translate(330.606730, 197.100467)">
                            <polygon id="Path" fill="#FFB6B6" points="7.15223 34.65051 14.34764 33.10163 10.61877 0 0 2.28506"></polygon>
                            <path d="M35.28337,43.68442 L35.28337,43.68442 C35.57355,44.89311 34.95104,46.07889 33.89293,46.33292 L19.69112,49.74247 C19.69112,49.74247 16.94482,44.46012 10.66625,43.41043 L12.20214,51.54041 L4.87592,53.29928 L2.66156,40.16535 C2.66156,40.16535 -0.95782,33.72317 2.26393,29.21246 C5.48573,24.70174 2.30717,25.9851 2.30717,25.9851 L1.98838,17.60369 L13.37163,16.2477 L16.46684,28.7816 L24.83085,39.95223 L33.64561,41.95306 C34.43016,42.13113 35.07372,42.81155 35.28328,43.68443 L35.28337,43.68443 L35.28337,43.68442 Z" id="Path" fill="#3F3D56"></path>
                        </g>
                        <polygon id="Path" fill="#4299F5" points="324 39.6004668 306 40.6004668 301 50.6004668 282 60.6004668 285 109.911487 278.14493 134.713597 279 141.600467 346 139.600467 342 65.6004668 343 53.6004668 330 49.6004668"></polygon>
                        <path d="M279.5,132.100467 C279.5,132.100467 264.5,158.604407 279.5,162.352437 C286.17289,164.019787 293.24158,165.143297 299.03335,165.876867 C305.96773,166.755157 312.35088,161.995157 313.5,155.100477 L313.5,155.100477 L329.5,210.100477 L345.5,206.100477 L348.5,177.470557 L367.94094,196.911497 L365.5,275.100477 L383.5,274.100477 L402.5,189.100477 C402.5,189.100477 403.5,183.100477 388.5,175.100477 C373.5,167.100477 346.5,141.100477 346.5,141.100477 L300.5,127.100477 L279.5,132.100477 L279.5,132.100467 Z" id="Path" fill="#3F3D56"></path>
                        <path d="M311,149.600467 L285,132.600467 L317,98.6004668 C317,98.6004668 335,91.6004668 340,118.600467 C345,145.600467 348,169.600467 348,169.600467 L311,149.600467 Z" id="Path" fill="#3F3D56"></path>
                        <g id="Group" transform="translate(201.778265, 71.100457)">
                            <path d="M55.5767146,27.74817 L56.7161846,20 C57.5465646,14.35333 53.8011446,9.42535 48.7217346,8.21228 L48.7217346,5 C48.7217346,2.23859 46.4831446,0 43.7217346,0 C40.9603246,0 38.7217346,2.23859 38.7217346,5 L38.7217346,9.28491 L19.7217346,13.31518 L19.7217346,7.99999 C19.7217346,5.23858 17.4831446,2.99999 14.7217346,2.99999 C11.9603246,2.99999 9.72173456,5.23858 9.72173456,7.99999 L9.72173456,13.05156 L7.83281456,12.55882 C2.19194456,11.08726 -2.26423544,17.55931 1.24419456,22.21501 C1.28954456,22.27519 1.33562456,22.33543 1.38250456,22.39567 C6.06591456,28.41722 7.40405456,33.76975 7.40405456,33.76975 L4.05871456,51.83451 L7.86895456,89.39207 C8.35998456,94.23271 12.5261846,97.85984 17.3883646,97.67973 L54.3812846,96.30961 C59.2396246,96.12968 63.1290246,92.21232 63.2613546,87.35246 C63.7326046,70.04179 63.7868046,32.36631 55.5767246,27.74815 L55.5767146,27.74817 Z" id="Path" fill="#3F3D56"></path>
                            <path d="M22.4570846,92.64405 C21.9385346,92.64405 21.5000546,92.24415 21.4609946,91.71876 L19.4536746,64.95606 C19.4121746,64.40528 19.8252546,63.9253 20.3760346,63.88428 C20.9219346,63.84131 21.4067946,64.25586 21.4478146,64.80664 L23.4551346,91.56934 C23.4966346,92.12012 23.0835546,92.6001 22.5327746,92.64112 C22.5073846,92.64307 22.4819946,92.64405 22.4570946,92.64405 L22.4570846,92.64405 Z" id="Path" fill="#FFB6B6"></path>
                            <path d="M7.40239456,34.77002 C6.91460456,34.77002 6.48735456,34.41211 6.41460456,33.91504 C6.33452456,33.36865 6.71245456,32.86084 7.25884456,32.78076 L55.5879446,25.69775 C56.1343346,25.61865 56.6421446,25.9956 56.7222246,26.54199 C56.8023046,27.08838 56.4243746,27.59619 55.8779846,27.67627 L7.54888456,34.75928 C7.49956456,34.7666 7.45074456,34.77002 7.40240456,34.77002 L7.40239456,34.77002 Z" id="Path" fill="#FFB6B6"></path>
                        </g>
                        <path d="M320.86019,143.670577 C324.10341,146.721637 328.30657,147.521357 330.24794,145.457037 C332.18931,143.392717 331.13364,139.246677 327.88886,136.194967 C326.60942,134.958157 325.0524,134.045727 323.34805,133.534027 L309.44314,120.780097 L303.59718,127.432837 L317.92561,139.299637 C318.54069,140.970077 319.54695,142.468887 320.86018,143.670577 L320.86019,143.670577 Z" id="c-59" fill="#FFB6B6"></path>
                        <path d="M285.5,58.1004568 C277.5,60.1004568 279.5,68.1004568 271.22483,89.4965868 C269.15238,94.8550868 266.97603,100.048447 271.15845,103.987477 L282.69031,114.848257 L307.27427,135.576457 L317.16424,125.223267 L297.51628,99.8863868 L308.96078,77.5923668 C308.96077,77.5923568 292.00791,56.4734768 285.5,58.1004568 Z" id="Path" fill="#4299F5"></path>
                    </g>
                </g>
            </g>
        </g>
    </g>
</svg>