<?xml version="1.0" encoding="UTF-8"?>
<svg width="1442px" height="501px" viewBox="0 0 1442 501" version="1.1" xmlns="http://www.w3.org/2000/svg" xmlns:xlink="http://www.w3.org/1999/xlink">
    <title>Group 2</title>
    <g id="Blog-posts" stroke="none" stroke-width="1" fill="none" fill-rule="evenodd">
        <g id="Cookbook-Ember-Migration" transform="translate(1.000000, -1094.000000)">
            <g id="Group-2" transform="translate(-1.000000, 1094.000000)">
                <g id="Group" fill="#FFFFFF">
                    <rect id="Rectangle" x="0" y="0" width="1438.00277" height="500"></rect>
                    <rect id="Combined-Shape" x="1.99722607" y="2" width="1438.00277" height="497"></rect>
                </g>
                <rect id="Rectangle" fill="#F4F6F8" x="0" y="128" width="1442" height="373"></rect>
                <g id="dots" transform="translate(1200.000000, 0.000000)" fill="#C2C2C2">
                    <rect id="Rectangle" x="0" y="0" width="10" height="10" rx="2.52"></rect>
                    <rect id="Rectangle-Copy-34" x="41" y="0" width="10" height="10" rx="2.52"></rect>
                    <rect id="Rectangle-Copy-43" x="83" y="0" width="10" height="10" rx="2.52"></rect>
                    <rect id="Rectangle-Copy-52" x="125" y="0" width="10" height="10" rx="2.52"></rect>
                    <rect id="Rectangle-Copy-61" x="166" y="0" width="10" height="10" rx="2.52"></rect>
                    <rect id="Rectangle-Copy-70" x="208" y="0" width="10" height="10" rx="2.52"></rect>
                    <rect id="Rectangle-Copy-26" x="0" y="41" width="10" height="10" rx="2.52"></rect>
                    <rect id="Rectangle-Copy-35" x="41" y="41" width="10" height="10" rx="2.52"></rect>
                    <rect id="Rectangle-Copy-44" x="83" y="41" width="10" height="10" rx="2.52"></rect>
                    <rect id="Rectangle-Copy-53" x="125" y="41" width="10" height="10" rx="2.52"></rect>
                    <rect id="Rectangle-Copy-62" x="166" y="41" width="10" height="10" rx="2.52"></rect>
                    <rect id="Rectangle-Copy-71" x="208" y="41" width="10" height="10" rx="2.52"></rect>
                    <rect id="Rectangle-Copy-27" x="0" y="83" width="10" height="10" rx="2.52"></rect>
                    <rect id="Rectangle-Copy-36" x="41" y="83" width="10" height="10" rx="2.52"></rect>
                    <rect id="Rectangle-Copy-45" x="83" y="83" width="10" height="10" rx="2.52"></rect>
                    <rect id="Rectangle-Copy-54" x="125" y="83" width="10" height="10" rx="2.52"></rect>
                    <rect id="Rectangle-Copy-63" x="166" y="83" width="10" height="10" rx="2.52"></rect>
                    <rect id="Rectangle-Copy-72" x="208" y="83" width="10" height="10" rx="2.52"></rect>
                    <rect id="Rectangle-Copy-28" x="0" y="125" width="10" height="10" rx="2.52"></rect>
                    <rect id="Rectangle-Copy-37" x="41" y="125" width="10" height="10" rx="2.52"></rect>
                    <rect id="Rectangle-Copy-46" x="83" y="125" width="10" height="10" rx="2.52"></rect>
                    <rect id="Rectangle-Copy-55" x="125" y="125" width="10" height="10" rx="2.52"></rect>
                    <rect id="Rectangle-Copy-64" x="166" y="125" width="10" height="10" rx="2.52"></rect>
                    <rect id="Rectangle-Copy-73" x="208" y="125" width="10" height="10" rx="2.52"></rect>
                    <rect id="Rectangle-Copy-29" x="0" y="167" width="10" height="10" rx="2.52"></rect>
                    <rect id="Rectangle-Copy-38" x="41" y="167" width="10" height="10" rx="2.52"></rect>
                    <rect id="Rectangle-Copy-47" x="83" y="167" width="10" height="10" rx="2.52"></rect>
                    <rect id="Rectangle-Copy-56" x="125" y="167" width="10" height="10" rx="2.52"></rect>
                    <rect id="Rectangle-Copy-65" x="166" y="167" width="10" height="10" rx="2.52"></rect>
                    <rect id="Rectangle-Copy-74" x="208" y="167" width="10" height="10" rx="2.52"></rect>
                    <rect id="Rectangle-Copy-30" x="0" y="208" width="10" height="10" rx="2.52"></rect>
                    <rect id="Rectangle-Copy-39" x="41" y="208" width="10" height="10" rx="2.52"></rect>
                    <rect id="Rectangle-Copy-48" x="83" y="208" width="10" height="10" rx="2.52"></rect>
                    <rect id="Rectangle-Copy-57" x="125" y="208" width="10" height="10" rx="2.52"></rect>
                    <rect id="Rectangle-Copy-66" x="166" y="208" width="10" height="10" rx="2.52"></rect>
                    <rect id="Rectangle-Copy-75" x="208" y="208" width="10" height="10" rx="2.52"></rect>
                    <rect id="Rectangle-Copy-31" x="0" y="250" width="10" height="10" rx="2.52"></rect>
                    <rect id="Rectangle-Copy-40" x="41" y="250" width="10" height="10" rx="2.52"></rect>
                    <rect id="Rectangle-Copy-49" x="83" y="250" width="10" height="10" rx="2.52"></rect>
                    <rect id="Rectangle-Copy-58" x="125" y="250" width="10" height="10" rx="2.52"></rect>
                    <rect id="Rectangle-Copy-67" x="166" y="250" width="10" height="10" rx="2.52"></rect>
                    <rect id="Rectangle-Copy-76" x="208" y="250" width="10" height="10" rx="2.52"></rect>
                    <rect id="Rectangle-Copy-32" x="0" y="292" width="10" height="10" rx="2.52"></rect>
                    <rect id="Rectangle-Copy-41" x="41" y="292" width="10" height="10" rx="2.52"></rect>
                    <rect id="Rectangle-Copy-50" x="83" y="292" width="10" height="10" rx="2.52"></rect>
                    <rect id="Rectangle-Copy-59" x="125" y="292" width="10" height="10" rx="2.52"></rect>
                    <rect id="Rectangle-Copy-68" x="166" y="292" width="10" height="10" rx="2.52"></rect>
                    <rect id="Rectangle-Copy-77" x="208" y="292" width="10" height="10" rx="2.52"></rect>
                    <rect id="Rectangle-Copy-33" x="0" y="333" width="10" height="10" rx="2.52"></rect>
                    <rect id="Rectangle-Copy-42" x="41" y="333" width="10" height="10" rx="2.52"></rect>
                    <rect id="Rectangle-Copy-51" x="83" y="333" width="10" height="10" rx="2.52"></rect>
                    <rect id="Rectangle-Copy-60" x="125" y="333" width="10" height="10" rx="2.52"></rect>
                    <rect id="Rectangle-Copy-69" x="166" y="333" width="10" height="10" rx="2.52"></rect>
                    <rect id="Rectangle-Copy-78" x="208" y="333" width="10" height="10" rx="2.52"></rect>
                </g>
                <g id="dots" transform="translate(29.000000, 214.000000)" fill="#C2C2C2">
                    <rect id="Rectangle-Copy-70" x="0" y="0" width="10" height="10" rx="2.52"></rect>
                    <rect id="Rectangle-Copy-79" x="41" y="0" width="10" height="10" rx="2.52"></rect>
                    <rect id="Rectangle-Copy-88" x="83" y="0" width="10" height="10" rx="2.52"></rect>
                    <rect id="Rectangle-Copy-97" x="124" y="0" width="10" height="10" rx="2.52"></rect>
                    <rect id="Rectangle-Copy-106" x="165" y="0" width="10" height="10" rx="2.52"></rect>
                    <rect id="Rectangle-Copy-71" x="0" y="41" width="10" height="10" rx="2.52"></rect>
                    <rect id="Rectangle-Copy-80" x="41" y="41" width="10" height="10" rx="2.52"></rect>
                    <rect id="Rectangle-Copy-89" x="83" y="41" width="10" height="10" rx="2.52"></rect>
                    <rect id="Rectangle-Copy-98" x="124" y="41" width="10" height="10" rx="2.52"></rect>
                    <rect id="Rectangle-Copy-107" x="165" y="41" width="10" height="10" rx="2.52"></rect>
                    <rect id="Rectangle-Copy-72" x="0" y="83" width="10" height="10" rx="2.52"></rect>
                    <rect id="Rectangle-Copy-81" x="41" y="83" width="10" height="10" rx="2.52"></rect>
                    <rect id="Rectangle-Copy-90" x="83" y="83" width="10" height="10" rx="2.52"></rect>
                    <rect id="Rectangle-Copy-99" x="124" y="83" width="10" height="10" rx="2.52"></rect>
                    <rect id="Rectangle-Copy-108" x="165" y="83" width="10" height="10" rx="2.52"></rect>
                    <rect id="Rectangle-Copy-73" x="0" y="125" width="10" height="10" rx="2.52"></rect>
                    <rect id="Rectangle-Copy-82" x="41" y="125" width="10" height="10" rx="2.52"></rect>
                    <rect id="Rectangle-Copy-91" x="83" y="125" width="10" height="10" rx="2.52"></rect>
                    <rect id="Rectangle-Copy-100" x="124" y="125" width="10" height="10" rx="2.52"></rect>
                    <rect id="Rectangle-Copy-109" x="165" y="125" width="10" height="10" rx="2.52"></rect>
                    <rect id="Rectangle-Copy-74" x="0" y="167" width="10" height="10" rx="2.52"></rect>
                    <rect id="Rectangle-Copy-83" x="41" y="167" width="10" height="10" rx="2.52"></rect>
                    <rect id="Rectangle-Copy-92" x="83" y="167" width="10" height="10" rx="2.52"></rect>
                    <rect id="Rectangle-Copy-101" x="124" y="167" width="10" height="10" rx="2.52"></rect>
                    <rect id="Rectangle-Copy-110" x="165" y="167" width="10" height="10" rx="2.52"></rect>
                    <rect id="Rectangle-Copy-75" x="0" y="208" width="10" height="10" rx="2.52"></rect>
                    <rect id="Rectangle-Copy-84" x="41" y="208" width="10" height="10" rx="2.52"></rect>
                    <rect id="Rectangle-Copy-93" x="83" y="208" width="10" height="10" rx="2.52"></rect>
                    <rect id="Rectangle-Copy-102" x="124" y="208" width="10" height="10" rx="2.52"></rect>
                    <rect id="Rectangle-Copy-111" x="165" y="208" width="10" height="10" rx="2.52"></rect>
                    <rect id="Rectangle-Copy-76" x="0" y="250" width="10" height="10" rx="2.52"></rect>
                    <rect id="Rectangle-Copy-85" x="41" y="250" width="10" height="10" rx="2.52"></rect>
                    <rect id="Rectangle-Copy-94" x="83" y="250" width="10" height="10" rx="2.52"></rect>
                    <rect id="Rectangle-Copy-103" x="124" y="250" width="10" height="10" rx="2.52"></rect>
                    <rect id="Rectangle-Copy-112" x="165" y="250" width="10" height="10" rx="2.52"></rect>
                </g>
                <g id="undraw_moving_re_pipp" transform="translate(292.000000, 3.000000)" fill-rule="nonzero">
                    <g id="e36d5192-81ed-4486-9dc7-3aabf5bf620f" transform="translate(544.000000, 71.000000)">
                        <path d="M56.7891233,98.8294334 L56.4537642,98.1440715 C56.3514304,97.9356431 46.3091527,77.0560152 51.9079229,56.4755435 C57.506693,35.8950718 76.7627142,22.8977181 76.9550525,22.7689828 L77.5912483,22.3459957 L77.9266074,23.0313575 C78.0289412,23.2397859 88.0712189,44.1194138 82.4724487,64.6998855 C76.8736786,85.2803572 57.6164245,98.278937 57.4228533,98.4064462 L56.7891233,98.8294334 Z M81.6661938,62.372843 C85.4243482,44.8237426 59.2427556,37.8204482 53.7613858,54.9150641 C53.5604827,55.5416328 53.3725378,56.1758193 53.1975511,56.8176237 C48.3077201,74.7866093 55.6523301,93.0473948 57.3278924,96.8420189 C60.6987441,94.4034059 76.2966391,82.3206853 81.18647,64.3516996 L81.18647,64.3516996 C81.3644241,63.6970135 81.524332,63.0373947 81.6661938,62.372843 L81.6661938,62.372843 Z" id="eec6541e-7182-40d2-8839-37d6db66ade2-165" fill="#3F3D56"></path>
                        <path d="M30.8925243,64.5270125 C36.4912944,85.1087102 55.6745723,97.8547238 55.6745723,97.8547238 C55.6745723,97.8547238 65.774798,77.2325664 60.1760278,56.6508686 C54.5772577,36.0691709 35.3939799,23.3231573 35.3939799,23.3231573 C35.3939799,23.3231573 25.2937418,43.9453025 30.8925243,64.5270125 Z" id="a9014b65-d248-4059-8312-b45b24de232b-166" fill="#4299F5"></path>
                        <path d="M57.0936466,98.5412871 L56.3292252,98.4996015 C56.0962,98.487341 32.8688864,97.0638972 17.5027837,82.1931393 C2.13668105,67.3223815 0.0826068266,44.2677413 0.0628798232,44.0360179 L0,43.2783191 L0.764421381,43.3200048 C0.997446608,43.3322653 24.2247601,44.7557091 39.5896299,59.626467 C54.9544996,74.4972248 57.0110397,97.551865 57.0295338,97.7835884 L57.0936466,98.5412871 Z M18.4348847,81.2429507 C31.8517128,94.2390785 51.46282,96.7242814 55.6141213,97.1153912 C55.1098498,92.9995421 52.076823,73.5752354 38.6587619,60.5791076 L38.6587619,60.5791076 C38.1790259,60.1148435 37.6917442,59.6638901 37.196917,59.2262475 C23.7216969,47.2960965 4.78462439,66.5834658 17.0064893,79.7810825 C17.4696711,80.2812945 17.9457865,80.7685798 18.4348353,81.2429385 L18.4348847,81.2429507 Z" id="ab25dc1f-49f0-4119-9b11-8880659579f8-167" fill="#3F3D56"></path>
                        <path d="M73.6002783,60.1034126 C58.2366415,74.9753965 56.3601103,97.8375468 56.3601103,97.8375468 C56.3601103,97.8375468 79.3926197,96.5869761 94.7562565,81.7149922 C110.119893,66.8430083 112,43.9796319 112,43.9796319 C112,43.9796319 88.9639151,45.2302272 73.6002783,60.1034126 Z" id="eb5ac145-5caa-4eb9-a8bf-cd04614f452d-168" fill="#3F3D56"></path>
                        <ellipse id="fe2e9284-0c2b-4a15-b6a0-6b994e8a2442" fill="#4299F5" cx="56.0395341" cy="9.96288056" rx="10.0188518" ry="9.96288056"></ellipse>
                        <path d="M37.8598429,93.7449926 L76.080912,93.7449926 C85.6139697,93.7449926 93.3420399,101.429889 93.3420399,110.90969 L93.3420399,110.90969 C93.3420399,120.389507 87.9394548,154.77395 78.4064051,154.77395 L31.5547721,156 C22.0216977,156 20.598715,120.389494 20.598715,110.90969 L20.598715,110.90969 C20.598715,101.429889 28.3267852,93.7449926 37.8598429,93.7449926 L37.8598429,93.7449926 Z" id="a86ae965-8410-4628-8d67-c8bdb55cc5ff-169" fill="#E6E6E6"></path>
                    </g>
                    <path d="M498.939152,164.1473 C498.362211,164.517759 497.815598,164.932763 497.304392,165.388458 L437.610811,150.288726 L433.538818,136 L411,139.279764 L415.731611,165.271368 C416.516867,169.584608 420.077404,172.865789 424.470621,173.324722 L494.172759,180.607745 C496.49856,185.469336 501.613857,188.395504 507.019579,187.956674 C512.425301,187.517845 516.993196,183.805608 518.491625,178.633571 C519.990054,173.461534 518.106274,167.909177 513.760603,164.689094 C509.414931,161.469012 503.514373,161.253282 498.941637,164.1473 L498.939152,164.1473 Z" id="a084342b-ec68-4bf1-835e-e1a712a99507-170" fill="#FFB6B6"></path>
                    <polygon id="b5ab2668-a5cc-41bf-8089-de1c0694ee81-171" fill="#E6E6E6" points="407 152.739904 422.642599 165.776133 444.527076 184 454.193141 136.224906 455.203971 131.25698 456 127.314375 433.82491 90 415.33935 91.0253214 414.075812 91.0985586 414.050542 91.3670952 413.759928 93.8693676 409.969314 126.801714 409.880866 127.595118"></polygon>
                    <polygon id="a48a89e5-5415-44e6-8741-1c2f93951686-172" fill="#FFB6B6" points="507.002432 482 521.908207 482 529 424 507 424"></polygon>
                    <polygon id="b4ab5075-ce23-46e9-939e-e287d4f4a486-173" fill="#FFB6B6" points="348.002432 483 362.908207 483 370 425 348 425"></polygon>
                    <path d="M336,457.628849 L376.810651,463.771475 L436.183964,264.160713 L499.242604,465 L545,458.857374 L485.639053,225.437601 L485.639053,207.009724 L477.600592,179.367909 L478.441538,171.886191 L484.291065,119.563306 L486.826272,96.8724473 L486.990751,95.4068169 C487.276228,92.8581016 485.567777,90.5103323 483.042012,89.9804214 L483.042012,89.9804214 L463.997041,86 L432.874715,86 L414.509922,91.0246677 L413.248502,91.3686548 L412.679627,91.528363 L412.964064,93.8871313 L417.267733,129.735494 L417.502704,131.701135 L421.65797,166.259546 L422.573118,173.839546 C386.709212,199.638574 385.472526,225.437601 385.472526,225.437601 L336,457.628849 Z" id="b77a2f94-428a-4b99-b464-6e051b4fe742-174" fill="#2F2E41"></path>
                    <ellipse id="b29dce1d-f666-44df-985a-547bf779e1a4" fill="#FFB6B6" cx="453.5" cy="40" rx="30.5" ry="30"></ellipse>
                    <polygon id="a7f6a896-dcf1-4596-b70f-da8ad38f22ed" fill="#4299F5" transform="translate(450.440885, 174.788194) rotate(-82.549000) translate(-450.440885, -174.788194) " points="446.098764 144.36793 454.705792 144.378961 454.783006 205.208457 446.175978 205.197427"></polygon>
                    <path d="M561.939152,177.1473 C561.362211,177.517759 560.815598,177.932763 560.304392,178.388458 L500.610811,163.288726 L496.538818,149 L474,152.279764 L478.731611,178.271368 C479.516867,182.584608 483.077404,185.865789 487.470621,186.324722 L557.172759,193.607745 C559.49856,198.469336 564.613857,201.395504 570.019579,200.956674 C575.425301,200.517845 579.993196,196.805608 581.491625,191.633571 C582.990054,186.461534 581.106274,180.909177 576.760603,177.689094 C572.414931,174.469012 566.514373,174.253282 561.941637,177.1473 L561.939152,177.1473 Z" id="bd729490-aac7-4879-a04d-c9e945275ef2-175" fill="#FFB6B6"></path>
                    <path d="M470.45614,97.1632509 L480.894737,89.2184622 C483.719298,88.1526383 487.584035,91.1802139 488.263158,94.1075629 L503,153.999047 L472.298246,176 L468,169.277487 L470.45614,97.1632509 Z" id="b6be5ba1-6394-41ea-b0bb-2e259093a5f0-176" fill="#E6E6E6"></path>
                    <path d="M476.562877,14.7953243 C482.223192,14.1043725 488.435613,14.5928251 492.847529,18.1911749 C497.259445,21.7895246 498.684075,29.2709503 494.506311,33.1368444 C490.809175,36.5596949 485.025621,35.7546071 480.071459,36.7278306 C471.289182,38.6877566 464.987505,46.3685071 464.809681,55.3295315 C464.883623,67.815756 476.916569,77.2718558 479.078162,89.5703084 C480.557016,97.9648214 476.997906,106.798696 470.852034,112.728855 C464.706161,118.659014 456.256972,121.863411 447.7437,122.731089 C439.230428,123.598768 430.622262,122.273318 422.349304,120.094918 C414.041839,117.907926 405.862541,114.804165 398.892207,109.800594 C391.921873,104.797022 386.207332,97.7414586 383.969333,89.4794905 C381.731333,81.2175224 383.338355,71.7442408 389.105887,65.4004926 C395.710205,58.1362934 406.696861,55.638803 412.410169,47.6591065 C418.818539,38.7147774 416.443745,25.9781903 421.62713,16.2815459 C425.087649,9.80770723 431.640207,5.39199701 438.624097,3.0650969 C445.607988,0.738196798 453.066344,0.27919857 460.427342,0.0546085285 C464.297011,-0.0681182704 468.283756,-0.103709042 471.888464,1.3015128 C475.493172,2.70673465 478.666547,5.90744957 478.848939,9.75861651 C479.031331,13.6097835 476.562877,14.7953243 476.562877,14.7953243 Z" id="b6feaf63-857f-49b2-8f08-fe1d6a64856c-177" fill="#2F2E41"></path>
                    <path d="M135.442216,497 L8.55778445,497 C3.83330187,496.994462 0.00493497948,493.207833 0,488.535515 L0,410.301352 C0.0178597967,394.678039 12.8201823,382.017337 28.6179273,382 L135.442216,382 C140.166285,382.005402 143.994538,385.791385 144,390.463293 L144,488.535515 C143.995065,493.207833 140.166698,496.994462 135.442216,497 Z M28.6179273,384.456814 C14.1917209,384.473026 2.50096619,396.034433 2.4842436,410.301352 L2.4842436,488.535515 C2.48782963,491.851525 5.20475261,494.538982 8.55778445,494.543186 L135.442216,494.543186 C138.795247,494.538982 141.51217,491.851525 141.515756,488.535515 L141.515756,390.463293 C141.512094,387.147508 138.795021,384.460436 135.442216,384.456814 L28.6179273,384.456814 Z" id="Shape" fill="#3F3D56"></path>
                    <path d="M33.2882415,387 C18.7764313,387.016207 7.0163714,398.653235 7,413.013219 L7,484.850134 C7.00402742,488.244959 9.78416958,490.996015 13.2148877,491 L131.785112,491 C135.21583,490.996015 137.995973,488.244959 138,484.850134 L138,393.149866 C137.995966,389.755044 135.215828,387.003992 131.785112,387 L33.2882415,387 Z" id="Path" fill="#4299F5"></path>
                    <path d="M81.8694563,410 L64.1305437,410 C62.4023474,409.998236 61.0018221,408.64267 61,406.969952 L61,379 L85,379 L85,406.969952 C84.9981848,408.642673 83.5976554,409.998243 81.8694563,410 L81.8694563,410 Z" id="Path" fill="#3F3D56"></path>
                    <path d="M786,355 L791.414023,340.620928 L791.608053,340.510149 L835.22917,315.681218 C835.698786,315.414702 836.207153,315.222549 836.73605,315.111647 C839.246645,314.585028 841.767058,315.963601 842.668316,318.356379 C843.569575,320.749157 842.581535,323.438925 840.342778,324.687255 L786,355 Z" id="Path" fill="#3F3D56"></path>
                    <path d="M625,355 L570.658066,324.689719 C568.41853,323.441007 567.430202,320.750503 568.331853,318.35712 C569.233504,315.963737 571.75487,314.584874 574.266356,315.11171 C574.795145,315.222514 575.30338,315.414673 575.772787,315.681279 L619.592734,340.620951 L625,355 Z" id="Path" fill="#3F3D56"></path>
                    <polygon id="a917e09e-7501-48ae-a084-2a300f5c05f4-178" fill="#3F3D56" points="789.744526 357 620.255424 357 606 291 804 291"></polygon>
                    <path d="M795.30221,351 L614.6976,351 L602.274337,295.138462 C601.508524,291.694522 602.365231,288.093581 604.604077,285.346019 C606.842922,282.598457 610.222682,281 613.795036,281 L796.205369,281 C799.777722,281 803.157507,282.598342 805.396282,285.34596 C807.635057,288.093577 808.491573,291.694585 807.725472,295.138462 L795.30221,351 Z M616.692883,348.551118 L793.306877,348.551118 L805.302479,294.612344 C805.907501,291.892938 805.231116,289.049422 803.463167,286.879891 C801.695217,284.710359 799.026255,283.448882 796.205381,283.448882 L613.794999,283.448882 C610.973908,283.448882 608.304801,284.710718 606.536756,286.880449 C604.768711,289.050181 604.092273,291.893903 604.697282,294.613532 L616.692883,348.551118 Z" id="Shape" fill="#3F3D56"></path>
                    <polygon id="be148f51-17c4-4ec3-8125-b7d3e9443af6-179" fill="#000000" opacity="0.1" points="789.744526 357 620.255424 357 606 291 804 291"></polygon>
                    <path d="M788.505963,497 L622.493987,497 C617.805273,496.994832 614.005533,493.231748 614,488.587954 L614,348 L797,348 L797,488.587954 C796.994474,493.231769 793.194699,496.994866 788.505963,497 L788.505963,497 Z M616.478911,350.455161 L616.478911,488.587954 C616.482872,491.876444 619.173687,494.541226 622.493987,494.544839 L788.505963,494.544839 C791.826264,494.541226 794.517078,491.876444 794.52104,488.587954 L794.52104,350.455161 L616.478911,350.455161 Z" id="Shape" fill="#3F3D56"></path>
                    <path d="M620,353 L620,484.233952 C620.004476,487.968899 623.060516,490.995567 626.831708,491 L783.168292,491 C786.939484,490.995567 789.995524,487.968899 790,484.233952 L790,353 L620,353 Z" id="Path" fill="#3F3D56"></path>
                    <path d="M805,291 L606,291 L606,290.42261 C606.005041,286.325163 609.568816,283.004696 613.966507,283 L797.032886,283 C801.430695,283.004651 804.994673,286.325053 805,290.42261 L805,291 Z" id="Path" fill="#4299F5"></path>
                    <path d="M178.933164,410 C166.273693,410.014165 156.014633,420.181274 156,432.727617 L156,484.8858 C156.004005,488.260934 158.763763,490.996031 162.16933,491 L251.83067,491 C255.236237,490.996031 257.995995,488.260934 258,484.8858 L258,416.1142 C257.995995,412.739066 255.236237,410.003969 251.83067,410 L178.933164,410 Z" id="Path" fill="#3F3D56"></path>
                    <path d="M271.610755,404 L180.700805,404 C175.898133,403.994788 172.005921,400.132583 172,395.366274 L172,319.63493 C172.005423,314.868221 175.897731,311.005382 180.700805,311 L261.826276,311 C276.27494,311.016004 287.983874,322.636288 288,336.975559 L288,387.735442 C287.989563,396.71405 280.657861,403.989974 271.610755,404 L271.610755,404 Z M180.700805,313.456839 C177.264321,313.460735 174.47947,316.224501 174.475582,319.634967 L174.475582,395.366311 C174.479968,398.776376 177.264723,401.539509 180.700805,401.543198 L271.610755,401.543198 C279.291372,401.534938 285.515761,395.357945 285.524418,387.735479 L285.524418,336.975559 C285.509432,323.992694 274.908186,313.471712 261.826276,313.456839 L180.700805,313.456839 Z" id="Shape" fill="#3F3D56"></path>
                    <path d="M256.299208,497 L157.700805,497 C152.898133,496.994788 149.005921,493.132583 149,488.366274 L149,429.325357 C149.015546,415.345179 160.431124,404.015761 174.517954,404 L256.299208,404 C261.102276,404.005389 264.994577,407.868226 265,412.63493 L265,488.366274 C264.994079,493.132578 261.101874,496.994781 256.299208,497 L256.299208,497 Z M174.517954,406.456839 C161.797881,406.471512 151.489995,416.701625 151.475582,429.325393 L151.475582,488.366311 C151.479968,491.776376 154.264723,494.539509 157.700805,494.543198 L256.299208,494.543198 C259.735284,494.539502 262.520032,491.776372 262.524418,488.366311 L262.524418,412.63493 C262.52053,409.224469 259.735686,406.460705 256.299208,406.456839 L174.517954,406.456839 Z" id="Shape" fill="#3F3D56"></path>
                    <path d="M185.16933,317 C181.763763,317.003969 179.004005,319.739065 179,323.114199 L179,391.885801 C179.004005,395.260935 181.763763,397.996031 185.16933,398 L267.166598,398 C274.803248,397.991481 280.991738,391.858025 281,384.289619 L281,340.376061 C280.985258,327.471642 270.433332,317.01428 257.412554,317 L185.16933,317 Z" id="Path" fill="#E6E6E6"></path>
                    <path d="M236.899935,336 L224.100065,336 C222.388691,335.998221 221.001798,334.62597 221,332.932666 L221,311 L240,311 L240,332.932666 C239.998202,334.62597 238.611309,335.998221 236.899935,336 Z" id="Path" fill="#3F3D56"></path>
                    <path d="M507.243,470.062507 L525.031689,469 L525.031689,476.626943 L541.94388,488.315527 C543.658483,489.500223 544.404019,491.663066 543.783954,493.653687 C543.163889,495.644309 541.322315,497 539.238725,497 L518.06066,497 L514.410297,489.455787 L512.985008,497 L505,497 L507.243,470.062507 Z" id="Path" fill="#2F2E41"></path>
                    <path d="M348.243,470.062507 L366.031689,469 L366.031689,476.626943 L382.94388,488.315527 C384.658483,489.500223 385.404019,491.663066 384.783954,493.653687 C384.163889,495.644309 382.322315,497 380.238725,497 L359.06066,497 L355.410297,489.455787 L353.985008,497 L346,497 L348.243,470.062507 Z" id="Path" fill="#2F2E41"></path>
                    <path d="M38.766162,473 L5.23383801,473 C4.55240809,473 4,472.552285 4,472 C4,471.447715 4.55240809,471 5.23383801,471 L38.766162,471 C39.4475919,471 40,471.447715 40,472 C40,472.552285 39.4475919,473 38.766162,473 Z" id="Path" fill="#3F3D56"></path>
                    <path d="M188.766162,470 L155.233838,470 C154.552408,470 154,469.552285 154,469 C154,468.447715 154.552408,468 155.233838,468 L188.766162,468 C189.447592,468 190,468.447715 190,469 C190,469.552285 189.447592,470 188.766162,470 Z" id="Path" fill="#4299F5"></path>
                    <path d="M655.766162,461 L622.233838,461 C621.552408,461 621,460.552285 621,460 C621,459.447715 621.552408,459 622.233838,459 L655.766162,459 C656.447592,459 657,459.447715 657,460 C657,460.552285 656.447592,461 655.766162,461 Z" id="Path" fill="#4299F5"></path>
                    <path d="M668.766162,449 L635.233838,449 C634.552408,449 634,448.552285 634,448 C634,447.447715 634.552408,447 635.233838,447 L668.766162,447 C669.447592,447 670,447.447715 670,448 C670,448.552285 669.447592,449 668.766162,449 Z" id="Path" fill="#4299F5"></path>
                    <path d="M605.766162,210 L572.233838,210 C571.552408,210 571,209.552285 571,209 C571,208.447715 571.552408,208 572.233838,208 L605.766162,208 C606.447592,208 607,208.447715 607,209 C607,209.552285 606.447592,210 605.766162,210 Z" id="Path" fill="#4299F5"></path>
                    <path d="M211.766162,382 L178.233838,382 C177.552408,382 177,381.552285 177,381 C177,380.447715 177.552408,380 178.233838,380 L211.766162,380 C212.447592,380 213,380.447715 213,381 C213,381.552285 212.447592,382 211.766162,382 Z" id="Path" fill="#3F3D56"></path>
                    <path d="M211.766162,372 L178.233838,372 C177.552408,372 177,371.552285 177,371 C177,370.447715 177.552408,370 178.233838,370 L211.766162,370 C212.447592,370 213,370.447715 213,371 C213,371.552285 212.447592,372 211.766162,372 Z" id="Path" fill="#3F3D56"></path>
                    <path d="M711.899935,312 L699.100065,312 C697.388691,311.998221 696.001798,310.62597 696,308.932666 L696,287 L715,287 L715,308.932666 C714.998202,310.62597 713.611309,311.998221 711.899935,312 Z" id="Path" fill="#4299F5"></path>
                    <path d="M212.899935,427 L200.100065,427 C198.388691,426.998221 197.001798,425.62597 197,423.932666 L197,402 L216,402 L216,423.932666 C215.998202,425.62597 214.611309,426.998221 212.899935,427 L212.899935,427 Z" id="Path" fill="#4299F5"></path>
                </g>
            </g>
        </g>
    </g>
</svg>