<?xml version="1.0" encoding="UTF-8"?>
<svg width="26px" height="21px" viewBox="0 0 26 21" version="1.1" xmlns="http://www.w3.org/2000/svg" xmlns:xlink="http://www.w3.org/1999/xlink">
    <title>695619A0-AD7B-4CF2-84F9-6BD99D445F99@1.00x</title>
    <g id="Symbols" stroke="none" stroke-width="1" fill="none" fill-rule="evenodd">
        <g id="icon-/-quotes" fill="#757575" fill-rule="nonzero">
            <path d="M9.69,20.615 L9.69,10.925 L5.225,10.925 C5.54166667,8.265 6.935,5.57333333 9.405,2.85 L9.405,2.85 L5.795,-1.0658141e-13 C3.705,2.09 2.21666667,4.24333333 1.33,6.46 C0.443333333,8.67666667 1.59872116e-14,11.115 1.59872116e-14,13.775 L1.59872116e-14,13.775 L1.59872116e-14,20.615 L9.69,20.615 Z M25.46,20.615 L25.46,10.925 L20.995,10.925 C21.3116667,8.265 22.705,5.57333333 25.175,2.85 L25.175,2.85 L21.565,-1.0658141e-13 C19.475,2.09 17.9866667,4.24333333 17.1,6.46 C16.2133333,8.67666667 15.77,11.115 15.77,13.775 L15.77,13.775 L15.77,20.615 L25.46,20.615 Z"></path>
        </g>
    </g>
</svg>