<svg width="233" height="73" fill="none" xmlns="http://www.w3.org/2000/svg"><path d="M11.927 62.633c2.66 0 4.817-11.7 4.817-26.134 0-14.433-2.157-26.133-4.817-26.133s-4.818 11.7-4.818 26.133 2.157 26.134 4.818 26.134zM2.147 48.16c1.186 0 2.148-5.219 2.148-11.657s-.962-11.657-2.148-11.657C.961 24.846 0 30.065 0 36.503S.961 48.16 2.147 48.16zM23.97 70.303c2.66 0 4.817-15.134 4.817-33.803 0-18.669-2.156-33.803-4.817-33.803-2.66 0-4.817 15.134-4.817 33.803 0 18.669 2.157 33.803 4.817 33.803zM36.001 72.5c2.66 0 4.817-16.118 4.817-36S38.66.5 36 .5s-4.817 16.118-4.817 36 2.156 36 4.817 36zm24.08-9.867c2.66 0 4.817-11.7 4.817-26.134 0-14.433-2.157-26.133-4.817-26.133s-4.817 11.7-4.817 26.133 2.156 26.134 4.817 26.134zm9.775-14.473c1.186 0 2.148-5.219 2.148-11.657s-.962-11.657-2.148-11.657c-1.186 0-2.147 5.219-2.147 11.657s.961 11.657 2.147 11.657zm-21.82 22.143c2.66 0 4.817-15.134 4.817-33.803 0-18.669-2.157-33.803-4.817-33.803S43.219 17.831 43.219 36.5c0 18.669 2.156 33.803 4.817 33.803zM113.33 6.497h4.228v17.936h-2.563V8.673l-5.777 15.76h-3.282l-5.904-15.681v15.68h-2.563V6.498h4.255l5.851 15.532 5.749-15.532h.006zm5.945 11.527c0-3.973 2.692-6.665 6.149-6.665s6.149 2.692 6.149 6.665c0 3.974-2.692 6.665-6.149 6.665s-6.149-2.691-6.149-6.665zm6.255 4.612c2.075 0 3.612-1.665 3.612-4.612s-1.537-4.611-3.612-4.611h-.207c-2.074 0-3.612 1.665-3.612 4.611 0 2.947 1.538 4.612 3.612 4.612h.207zm10.224.004v1.793h-2.436V6.497h2.436v6.92c.639-1.154 2.181-2.048 3.974-2.048 3.202 0 5.765 2.436 5.765 6.665s-2.308 6.665-5.51 6.665c-1.793 0-3.59-.9-4.229-2.053v-.006zm3.819 0c1.947 0 3.484-1.537 3.484-4.611 0-3.075-1.537-4.612-3.484-4.612h-.207c-1.819 0-3.612 1.537-3.612 4.612 0 3.074 1.793 4.611 3.612 4.611h.207zm7.632-13.324v-2.82h2.691v2.82h-2.691zm.128 15.122V11.624h2.436v12.814h-2.436zm4.632.001V6.503h2.436v17.936h-2.436zm4.199-6.441c0-4.437 2.947-6.639 5.973-6.639 3.33 0 5.431 2.309 5.431 5.639v1.41H158.6c.154 2.92 2.027 4.228 3.585 4.228h.207c1.256 0 2.463-.638 2.718-2h2.437c-.463 2.59-2.692 4.048-5.33 4.048-3.175 0-6.048-2.202-6.048-6.686h-.005zm8.968-1.511c-.101-2.229-1.436-3.074-2.894-3.074h-.207c-1.335 0-2.819.792-3.282 3.074h6.383zm-48.985 10.916h2.664l-4.356 17.937h-3.457l-3.59-14.99-3.591 14.99h-3.457l-4.356-17.937h2.665l3.51 15.144 3.665-15.144h3.356l3.564 15.272 3.383-15.272zm1.876 11.53c0-3.973 2.692-6.664 6.149-6.664s6.149 2.691 6.149 6.665c0 3.973-2.692 6.664-6.149 6.664s-6.149-2.691-6.149-6.664zm6.255 4.612c2.075 0 3.612-1.665 3.612-4.611 0-2.947-1.537-4.612-3.612-4.612h-.207c-2.074 0-3.612 1.665-3.612 4.611 0 2.947 1.538 4.612 3.612 4.612h.207zm7.796 1.79V32.521h2.309v2.82c.51-1.92 2.047-2.947 3.718-2.947h1.154v2.356h-1.027c-2.308 0-3.718 1.537-3.718 4.101v6.484h-2.436zm9.024.005V27.402h2.436V45.34h-2.436zm4.242-6.412c0-4.229 2.564-6.665 5.766-6.665 1.792 0 3.329.899 3.973 2.048v-6.92h2.436v17.936h-2.436v-1.793c-.639 1.154-2.436 2.053-4.229 2.053-3.202 0-5.51-2.436-5.51-6.664v.005zm6.127 4.612c1.819 0 3.612-1.538 3.612-4.612 0-3.075-1.793-4.612-3.612-4.612h-.207c-1.947 0-3.484 1.537-3.484 4.612 0 3.074 1.537 4.612 3.484 4.612h.207zm8.142-7.174c0-5.255 3.202-9.228 8.457-9.228 3.846 0 6.92 2.255 7.176 5.893h-2.564c-.255-2.18-2.048-3.59-4.484-3.59h-.255c-3.718 0-5.766 3.074-5.766 6.92s2.048 6.92 5.766 6.92h.255c2.436 0 4.229-1.41 4.484-3.59h2.564c-.256 3.638-3.33 5.894-7.176 5.894-5.255 0-8.457-3.974-8.457-9.224v.005zm17.084 5.44c0-2.92 2.59-3.793 4.665-3.974l3.537-.282v-.41c0-1.792-1.027-2.818-2.665-2.818h-.208c-1.335 0-2.484.638-2.638 1.92h-2.436c.154-2.356 2.282-3.973 5.175-3.973 3.41 0 5.202 2.255 5.202 4.867v5.383c0 .77 0 1.92.128 2.819h-2.308c-.128-.639-.128-1.92-.128-2.048-.511 1.154-2.053 2.308-4.101 2.308-2.436 0-4.228-1.617-4.228-3.792h.005zm4.712 1.745c1.564 0 3.484-1.282 3.484-2.82v-1.308l-3.202.255c-1.489.128-2.563.846-2.563 2.027 0 1.053.872 1.846 2.074 1.846h.207zm7.974 6.914V32.524h2.436v1.792c.638-1.154 2.436-2.047 4.228-2.047 3.202 0 5.511 2.436 5.511 6.665 0 4.228-2.564 6.664-5.766 6.664-1.792 0-3.329-.899-3.973-2.053v6.92h-2.436zm6.255-6.92c1.947 0 3.484-1.537 3.484-4.611 0-3.075-1.537-4.612-3.484-4.612h-.208c-1.819 0-3.611 1.537-3.611 4.611 0 3.075 1.792 4.612 3.611 4.612h.208zm7.63-13.323v-2.819h2.691v2.82h-2.691zm.127 15.123V32.53h2.436v12.814h-2.436zm9.849-.007c-1.793 0-2.819-1.027-2.819-2.82v-7.893h-2.819v-2.101h2.819v-4.149h2.436v4.149h3.074v2.101h-3.074v7.51c0 .772.255 1.027 1.026 1.027h2.436v2.181h-3.074l-.005-.005zm4.459-3.532c0-2.92 2.59-3.793 4.664-3.974l3.537-.282v-.41c0-1.792-1.026-2.818-2.664-2.818h-.208c-1.335 0-2.484.638-2.638 1.92h-2.436c.154-2.356 2.282-3.973 5.175-3.973 3.41 0 5.202 2.255 5.202 4.867v5.383c0 .77 0 1.92.128 2.819h-2.309c-.127-.639-.127-1.92-.127-2.048-.511 1.154-2.053 2.308-4.101 2.308-2.436 0-4.229-1.617-4.229-3.792h.006zm4.712 1.745c1.564 0 3.484-1.282 3.484-2.82v-1.308l-3.202.255c-1.489.128-2.564.846-2.564 2.027 0 1.053.873 1.846 2.075 1.846h.207zm7.841 1.788V27.404h2.436V45.34h-2.436zM98.102 66.237V48.3h8.478c2.819 0 5.127 1.792 5.127 4.74 0 2.052-1.228 3.457-2.92 4.1 2.027.335 3.309 1.9 3.309 4.229 0 2.973-2.436 4.867-5.255 4.867h-8.739zm2.563-10.25h5.532c1.792 0 2.947-1.027 2.947-2.691 0-1.665-1.155-2.692-2.947-2.692h-5.532v5.383zm0 7.942h5.66c1.92 0 3.202-1.027 3.202-2.82 0-1.792-1.282-2.819-3.202-2.819h-5.66v5.639zm12.985-1.229c0-2.92 2.59-3.792 4.665-3.973l3.537-.282v-.41c0-1.792-1.027-2.819-2.665-2.819h-.208c-1.335 0-2.484.639-2.638 1.92h-2.436c.154-2.356 2.282-3.973 5.175-3.973 3.41 0 5.202 2.255 5.202 4.867v5.383c0 .771 0 1.92.128 2.82h-2.308c-.128-.639-.128-1.92-.128-2.049-.511 1.155-2.048 2.309-4.101 2.309-2.436 0-4.228-1.617-4.228-3.793h.005zm4.718 1.745c1.563 0 3.484-1.282 3.484-2.82v-1.308l-3.202.256c-1.484.127-2.564.845-2.564 2.026 0 1.053.872 1.846 2.074 1.846h.208zm8.257 1.791V53.422h2.308v2.819c.511-1.92 2.048-2.947 3.718-2.947h1.155v2.356h-1.027c-2.308 0-3.718 1.538-3.718 4.101v6.485h-2.436zm7.902-6.406c0-3.766 2.202-6.665 6.149-6.665 2.92 0 4.994 1.718 5.255 4.484h-2.436c-.229-1.41-1.255-2.436-2.718-2.436h-.207c-2.463 0-3.612 2.18-3.612 4.612 0 2.43 1.154 4.611 3.612 4.611h.207c1.463 0 2.484-1.026 2.718-2.436h2.436c-.255 2.766-2.33 4.484-5.255 4.484-3.947 0-6.149-2.893-6.149-6.665v.011zm12.758-.027c0-4.436 2.947-6.638 5.973-6.638 3.33 0 5.431 2.309 5.431 5.638v1.41h-8.968c.154 2.92 2.027 4.229 3.59 4.229h.208c1.255 0 2.463-.639 2.718-2h2.436c-.463 2.59-2.691 4.048-5.33 4.048-3.175 0-6.047-2.203-6.047-6.687h-.011zm8.968-1.51c-.101-2.229-1.436-3.075-2.894-3.075h-.207c-1.335 0-2.819.793-3.282 3.075h6.383zm4.559 7.944V48.3h2.437v17.936h-2.437zm4.342-6.407c0-3.973 2.692-6.665 6.149-6.665s6.149 2.692 6.149 6.665-2.692 6.665-6.149 6.665-6.149-2.692-6.149-6.665zm6.255 4.612c2.075 0 3.612-1.665 3.612-4.612s-1.537-4.612-3.612-4.612h-.207c-2.074 0-3.612 1.665-3.612 4.612s1.538 4.612 3.612 4.612h.207zm7.977 1.792V53.42h2.436v1.793c.766-1.154 2.048-2.048 4.101-2.048 2.947 0 4.612 1.793 4.612 4.484v8.585h-2.436V58.16c0-1.793-.766-2.947-2.591-2.947h-.207c-1.819 0-3.484 1.41-3.484 3.846v7.175h-2.436.005zm12.836-3.534c0-2.92 2.59-3.792 4.665-3.973l3.537-.282v-.41c0-1.792-1.027-2.819-2.665-2.819h-.207c-1.335 0-2.484.639-2.639 1.92h-2.436c.155-2.356 2.282-3.973 5.176-3.973 3.409 0 5.202 2.255 5.202 4.867v5.383c0 .771 0 1.92.127 2.82h-2.308c-.128-.639-.128-1.92-.128-2.049-.51 1.155-2.053 2.309-4.101 2.309-2.436 0-4.228-1.617-4.228-3.793h.005zm4.713 1.745c1.563 0 3.483-1.282 3.483-2.82v-1.308l-3.201.256c-1.49.127-2.564.845-2.564 2.026 0 1.053.872 1.846 2.074 1.846h.208z" fill="#fff"/></svg>