<svg width="64" height="64" xmlns="http://www.w3.org/2000/svg" xmlns:xlink="http://www.w3.org/1999/xlink"><defs><path d="M16 1.333A14.624 14.624 0 0 0 1.333 16 14.624 14.624 0 0 0 16 30.667 14.624 14.624 0 0 0 30.667 16 14.624 14.624 0 0 0 16 1.333zM16 28C9.333 28 4 22.667 4 16S9.333 4 16 4s12 5.333 12 12-5.333 12-12 12zm4.933-8.933a1.289 1.289 0 0 1 0 1.866c-.266.267-.533.4-.933.4s-.667-.133-.933-.4l-4-4c-.267-.266-.4-.533-.4-.933V8c0-.8.533-1.333 1.333-1.333.8 0 1.333.533 1.333 1.333v7.467l3.6 3.6z" id="a"/></defs><g fill="none" fill-rule="evenodd"><path fill="#007DF6" d="M0 0H64V64H0z"/><g transform="translate(16 16)"><mask id="b" fill="#fff"><use xlink:href="#a"/></mask><use fill="#000" fill-rule="nonzero" xlink:href="#a"/><g mask="url(#b)" fill="#FFF"><path d="M0 0H32V32H0z"/></g></g></g></svg>