<svg viewBox="0 0 145 27" width="145" height="27" xmlns="http://www.w3.org/2000/svg" fill-rule="evenodd" clip-rule="evenodd" stroke-linejoin="round" stroke-miterlimit="1.414"><path d="M12.306 26.166l5.375-2.687-12.3-6.148-5.341 2.67 12.266 6.165zm6.943-3.471l5.356-2.677-19.228-9.612-5.355 2.677 19.227 9.612zm-.02-6.932l5.36-2.68-5.356-2.677-5.36 2.68 5.356 2.677z" fill="#00b3dc"/><path d="M5.36 3.472L0 6.152l12.305 6.15 5.36-2.68-12.306-6.15zm13.873 5.366l5.377-2.687-5.359-2.678-5.378 2.686 5.36 2.679zM12.305 0L6.927 2.688l5.379 2.687 5.377-2.687L12.305 0z" fill="#77c376"/><path d="M42.433 8.658c-1-.956-2.372-1.422-3.838-1.422-3.116 0-5.65 2.285-5.65 5.852 0 3.568 2.534 5.852 5.65 5.852 1.466 0 2.908-.443 3.908-1.375v1.655c-1.093.653-2.489 1.026-3.884 1.026-4.186 0-7.14-2.914-7.14-7.158 0-4.267 3.163-7.158 7.14-7.158 1.395 0 2.697.373 3.814 1.05v1.678zm8.081-1.329l-2.884 7.648h5.791l-2.907-7.648zm-3.325 8.86l-1.442 3.824h-1.489l5.35-13.85h1.836l5.419 13.85h-1.535l-1.442-3.824H47.19zm13.432-2.728h1.442c2.279 0 3.628-1.072 3.628-3.194 0-1.772-1.093-3.077-3.907-3.077-.28 0-.837.023-1.163.046v6.225zm0 6.552H59.18V6.14c.628-.093 1.814-.21 2.628-.21 3.72 0 5.372 1.726 5.372 4.29 0 2.052-1.163 3.568-3 4.104l4.582 5.689H66.97l-4.28-5.362h-2.069v5.362zm11.793-1.12c.558.07 1.093.094 1.605.094 3.953 0 6.744-1.982 6.744-6.202 0-3.264-2.07-5.549-7-5.549-.442 0-.86.023-1.349.07v11.588zM70.972 6.118a25.458 25.458 0 0 1 2.837-.187c6.326 0 8.465 3.288 8.465 6.832 0 3.894-2.255 7.484-8.279 7.484-1.162 0-2.046-.093-3.023-.21V6.117zm13.459 11.471c1.116.886 2.116 1.422 3.51 1.422 1.652 0 3.07-.723 3.07-2.54 0-1.657-1.232-2.286-2.883-2.892-2.465-.91-3.79-1.725-3.79-4.08S86.29 5.93 88.36 5.93c1.349 0 2.465.42 3.302 1.096v1.492c-1.116-.885-2.047-1.352-3.302-1.352-1.558 0-2.628.933-2.628 2.355 0 1.329.79 1.982 2.79 2.681 2.559.886 3.907 1.842 3.907 4.267 0 2.541-2 3.777-4.488 3.777-1.489 0-2.674-.42-3.511-1.073v-1.585zm15.494 2.425h-1.441V7.423h-4.559v-1.26h10.559v1.26h-4.559v12.59zm9.866-12.684l-2.884 7.648h5.79l-2.906-7.648zm-3.326 8.86l-1.442 3.824h-1.488l5.349-13.85h1.837l5.418 13.85h-1.535l-1.441-3.824h-6.698zm21.476-7.53c-1-.957-2.372-1.423-3.837-1.423-3.116 0-5.65 2.285-5.65 5.852 0 3.568 2.534 5.852 5.65 5.852 1.466 0 2.907-.443 3.908-1.375v1.655c-1.094.653-2.49 1.026-3.884 1.026-4.186 0-7.14-2.914-7.14-7.158 0-4.267 3.163-7.158 7.14-7.158 1.395 0 2.697.373 3.813 1.05v1.678zm10.821-2.495h1.79l-6.232 6.9 6.675 6.949h-1.86l-6.605-6.808 6.232-7.041zm-7.767 13.849h1.442V6.163h-1.442v13.85zm12.45-.801h.125c.185 0 .307-.072.307-.249 0-.163-.108-.249-.307-.249-.042 0-.084.004-.126.01v.488zm0 .796h-.362v-1.565c.16-.032.32-.048.483-.05.42 0 .676.19.676.557a.482.482 0 0 1-.293.461l.443.597h-.43l-.37-.516h-.148v.516zm.183.439c.691 0 1.192-.507 1.192-1.221 0-.715-.5-1.222-1.192-1.222-.69 0-1.19.507-1.19 1.222 0 .714.5 1.22 1.19 1.22zm0-2.61c.796 0 1.373.606 1.373 1.389 0 .782-.577 1.388-1.373 1.388-.793 0-1.37-.606-1.37-1.388 0-.783.577-1.39 1.37-1.39z" fill="#361f72"/></svg>