<svg width="1200" height="400" xmlns="http://www.w3.org/2000/svg"><g fill="none" fill-rule="evenodd"><path fill="#00B3DC" d="M185.858 290.267l37.051-18.519-84.778-42.374-36.82 18.397zm47.86-23.923l36.915-18.451-132.53-66.252-36.915 18.451zm-.143-47.779l36.945-18.473-36.916-18.45-36.945 18.472z"/><path fill="#77C376" d="M137.978 133.85l-36.939 18.463 84.811 42.396 36.945-18.472zm95.626 36.983l37.063-18.52-36.938-18.461-37.068 18.518zm-47.754-60.917l-37.063 18.53 37.07 18.52 37.063-18.52z"/><path d="M393.513 169.594c-6.892-6.588-16.35-9.803-26.449-9.803-21.478 0-38.95 15.75-38.95 40.338s17.472 40.336 38.95 40.336c10.1 0 20.038-3.053 26.93-9.481v11.411c-7.533 4.5-17.151 7.07-26.768 7.07-28.854 0-49.21-20.088-49.21-49.336 0-29.41 21.799-49.337 49.21-49.337 9.617 0 18.593 2.57 26.287 7.232v11.57zm55.702-9.16l-19.876 52.712h39.913l-20.037-52.712zm-22.921 61.069l-9.94 26.355h-10.257l36.866-95.459h12.664l37.348 95.46h-10.58l-9.938-26.356h-46.163zm92.585-18.803h9.938c15.709 0 25.006-7.393 25.006-22.017 0-12.213-7.533-21.212-26.93-21.212-1.924 0-5.77.16-8.014.32V202.7zm0 45.158h-9.938v-95.62c4.327-.643 12.502-1.446 18.112-1.446 25.647 0 37.027 11.892 37.027 29.57 0 14.141-8.014 24.588-20.676 28.284l31.578 39.212h-12.343l-29.494-36.961h-14.266v36.96zm81.285-7.714c3.847.482 7.533.643 11.06.643 27.25 0 46.485-13.66 46.485-42.747 0-22.5-14.266-38.249-48.248-38.249-3.045 0-5.932.16-9.297.482v79.871zm-9.938-88.066c7.052-.804 13.625-1.286 19.554-1.286 43.601 0 58.348 22.66 58.348 47.086 0 26.839-15.549 51.587-57.065 51.587-8.014 0-14.106-.643-20.837-1.446v-95.94zm92.764 79.067c7.692 6.107 14.587 9.803 24.202 9.803 11.382 0 21.159-4.984 21.159-17.516 0-11.412-8.496-15.75-19.875-19.929-16.992-6.266-26.13-11.89-26.13-28.122 0-16.233 13.467-24.59 27.733-24.59 9.297 0 16.99 2.895 22.76 7.553v10.285c-7.693-6.104-14.107-9.32-22.76-9.32-10.74 0-18.115 6.429-18.115 16.23 0 9.162 5.451 13.661 19.236 18.483 17.633 6.106 26.929 12.694 26.929 29.41 0 17.516-13.785 26.033-30.937 26.033-10.26 0-18.432-2.893-24.203-7.393v-10.927zm106.8 16.714h-9.938v-86.782h-31.418V152.4h72.774v8.677H789.79zm67.997-87.425l-19.876 52.712h39.912l-20.036-52.712zm-22.924 61.069l-9.938 26.355h-10.256l36.866-95.459h12.664l37.348 95.46h-10.58l-9.938-26.356h-46.166zm148.032-51.909c-6.891-6.588-16.35-9.803-26.449-9.803-21.478 0-38.951 15.75-38.951 40.338s17.473 40.336 38.951 40.336c10.1 0 20.037-3.053 26.932-9.481v11.411c-7.535 4.5-17.154 7.07-26.769 7.07-28.854 0-49.21-20.088-49.21-49.336 0-29.41 21.8-49.337 49.21-49.337 9.615 0 18.593 2.57 26.286 7.232v11.57zm74.585-17.194h12.343l-42.96 47.567 46.004 47.89h-12.822l-45.525-46.925 42.96-48.533zm-53.54 95.458h9.94v-95.459h-9.94v95.459zm85.807-5.522h.872c1.274 0 2.114-.496 2.114-1.715 0-1.123-.746-1.715-2.114-1.715a6.95 6.95 0 0 0-.872.063v3.367zm0 5.487h-2.488v-10.788a18.051 18.051 0 0 1 3.327-.342c2.894 0 4.667 1.31 4.667 3.837 0 1.558-.872 2.71-2.02 3.179l3.046 4.114h-2.956l-2.55-3.554h-1.026v3.554zm1.275 3.025c4.759 0 8.212-3.493 8.212-8.416 0-4.927-3.453-8.42-8.212-8.42-4.758 0-8.21 3.493-8.21 8.42 0 4.923 3.452 8.416 8.21 8.416zm0-17.989c5.475 0 9.455 4.176 9.455 9.573 0 5.391-3.98 9.57-9.455 9.57-5.473 0-9.454-4.179-9.454-9.57 0-5.397 3.98-9.573 9.454-9.573z" fill="#361F72"/></g></svg>