<svg height="40" width="132" xmlns="http://www.w3.org/2000/svg"><g fill="none" fill-rule="evenodd"><path d="M-46-20h224v80H-46z"/><path d="M3.377.195C6.287-.132 9.224.043 12.146.08c6.596.268 13.183.975 19.652 2.31 3.153.704 6.283 1.554 9.274 2.783 3.139 1.368 5.82 3.65 7.896 6.35 2.845 3.803 4.69 8.407 4.994 13.16.127 2.15-.102 4.346-.907 6.358-1.115 3.014-2.85 6.006-5.66 7.726-2.797 1.656-6.246 1.406-9.278.627-1.2-.304-2.376-.704-3.492-1.244-5.59-2.95-10.606-6.857-15.35-11.005-6.43-5.71-12.349-12.03-17.372-19.018C1.17 6.984.085 5.93.022 4.491-.204 2.48 1.349.437 3.377.195zM16.39 9.469c-.08.886.655 1.504 1.085 2.19.333.412.597 1.049 1.207 1.068 3.093.182 6.19.282 9.284.452.968.046 1.827.886 1.883 1.858.116 1.1-.79 2.225-1.93 2.21-2.018-.026-4.033-.249-6.053-.25.813 1.17 1.897 2.127 2.86 3.17.32.284.586.753 1.067.743 3.085.146 6.175.246 9.26.398 1.252.058 2.194 1.44 1.78 2.626-.264.83-1.127 1.404-1.99 1.392-1.444.002-2.887-.206-4.331-.136.396.563.991.93 1.535 1.338 1.714 1.168 3.422 2.445 5.462 2.983 1.893.594 4.127.727 5.83-.45 1.48-1.037 2.46-2.648 3.143-4.293.986-2.279.76-4.873.14-7.218-.333-1.084-.643-2.208-1.288-3.154-.784-.756-1.458-1.627-2.342-2.273-.94-.771-2.065-1.273-3.222-1.62a59.52 59.52 0 0 0-9.183-2.27c-3.989-.666-8.035-1.093-12.086-.96-1.128.044-2.105 1.069-2.11 2.196z" fill="#0669ff"/><path d="M66.845 8.797c2.56.002 5.121-.003 7.682.002 3.483-.06 7.167 1.527 8.896 4.666 1.368 2.374 1.68 5.26 1.137 7.92-.534 2.597-2.148 4.995-4.47 6.316a11.203 11.203 0 0 1-5.362 1.381c-2.63.014-5.256.002-7.883.006zm3.769 2.982v14.28c1.304-.006 2.608.008 3.91-.006 1.465-.027 2.98-.388 4.129-1.335 1.45-1.179 2.132-3.062 2.276-4.877.149-1.987-.148-4.118-1.365-5.755-1.034-1.48-2.86-2.273-4.636-2.307-1.439-.002-2.877.001-4.314 0zm39.004 2.6c1.709-.335 3.698.233 4.7 1.723.807 1.06 1.007 2.435 1.026 3.733.002 3.035 0 6.072 0 9.109h-3.48c0-3.037.004-6.074 0-9.113-.013-.756-.112-1.588-.657-2.163-.963-.997-2.788-.906-3.651.175-.466.554-.622 1.298-.618 2.006-.002 3.033 0 6.064-.002 9.095h-3.479c-.002-3.024 0-6.049 0-9.072-.013-.831-.094-1.78-.741-2.381-.894-.714-2.257-.675-3.165.002-.446.352-1.101.74-.982 1.405.004 3.349 0 6.697.002 10.046h-3.397V14.615c.82.03 1.652-.073 2.465.064.676.229.553 1.104.718 1.66 1.13-1.447 3.045-2.33 4.877-1.88 1.24.316 2.057 1.416 2.54 2.535.676-1.507 2.227-2.461 3.844-2.615zM87.801 29.04V14.615h3.48V29.04zM88.85 8.351c1.417-.546 3.143.748 2.916 2.277-.093 1.524-2.007 2.48-3.286 1.656-1.623-.74-1.335-3.494.37-3.933z" fill="#02023a"/><path d="M118.7 12.26c-.003-1.155-.003-2.309 0-3.463h12.135c-.002.983 0 1.964-.002 2.947-1.543 1.692-3.043 3.421-4.588 5.11 1.48.15 3.003.656 4.012 1.802 1.125 1.104 1.635 2.724 1.487 4.28.017 2.086-.988 4.21-2.802 5.308-2.032 1.383-4.642 1.54-6.995 1.086-1.628-.31-3.101-1.106-4.49-1.975.534-1.04 1.075-2.077 1.612-3.116 1.473.999 3.176 1.778 4.988 1.8 1.148.053 2.4-.161 3.278-.957.988-.943 1.075-2.668.203-3.714a3.235 3.235 0 0 0-1.466-1.016 7.735 7.735 0 0 0-4.763-.057c-.002-.981 0-1.96-.002-2.94l4.391-5.096z" fill="#0669ff"/><path d="M93.606 32.92c-.43-.224-.47-.6-.214-.99.18.15.63.12.597.44.09.266-.262.368-.383.55zm-26.133-.516c.714-.423 1.58-.08 2.265.242l-.312.535c-.538-.25-1.741-.589-1.74.336.468.616 1.464.445 1.975 1.04.37.499.252 1.347-.345 1.622-.834.435-1.832.142-2.523-.425.13-.163.264-.327.399-.488.494.305 1.08.64 1.679.43.37-.082.399-.679.064-.827-.592-.311-1.387-.263-1.828-.827-.33-.523-.214-1.338.366-1.638zm14.82-.287h.622v4.231l-.636-.002.04-.357c-.546.513-1.453.556-2.016.05-.818-.712-.593-2.227.413-2.652.55-.218 1.124.046 1.585.348a64.689 64.689 0 0 1-.008-1.618zm-1.356 1.81c-.697.354-.668 1.504.07 1.796.595.381 1.29-.25 1.244-.877.092-.692-.692-1.26-1.314-.919zm13.984-1.798c.156.002.47.007.628.011-.004 1.41-.004 2.82 0 4.228-.158.002-.47.002-.626.002.002-1.414.006-2.828-.002-4.241zm4.224.182c.399-.413 1.002-.234 1.448-.013l-.248.415c-.26-.036-.553-.18-.782.016a4.601 4.601 0 0 0-.2.552c.289.02.577.038.868.054l-.005.513h-.786v2.5h-.62c-.002-.832-.002-1.665-.002-2.5-.09.002-.274.002-.366.002-.004-.129-.016-.385-.02-.514l.341-.019c.081-.344.035-.786.372-1.006zm19.552-.177l.624-.005c.002 1.413-.011 2.827.008 4.24a69.21 69.21 0 0 0-.64.008c.02-1.413.006-2.829.008-4.243zm5.385-.017h.622c0 .566.004 1.133-.013 1.7.412-.461 1.119-.756 1.69-.386 1.078.502 1.004 2.273-.04 2.779-.548.352-1.172-.02-1.654-.304.006.146.014.294.023.442h-.628zm.99 1.871c-.562.43-.481 1.478.195 1.758.66.347 1.4-.436 1.25-1.1-.068-.644-.913-1.054-1.445-.658zm6.3-1.848c.156-.004.47-.011.626-.013-.004 1.411-.01 2.825.002 4.239l-.632.013c.01-1.413.002-2.827.004-4.239zm-43.82.266l.623-.002c-.002.304-.002.61 0 .913l.791.004-.007.529c-.249-.002-.495-.002-.742-.002.073.642-.202 1.412.2 1.97.26-.018.519-.074.779-.118.283.664-.678.78-1.09.568-.865-.502-.467-1.649-.55-2.462l-.375-.01c-.002-.12-.002-.354-.002-.471l.376-.012c-.002-.302-.002-.605-.002-.907zM70.5 35.069c-.225-1.163 1.102-2.127 2.154-1.633.71.249.855 1.045.845 1.705-.807.013-1.614-.012-2.42.026.292.824 1.334.89 1.925.34l.283.453c-.87.871-2.712.434-2.787-.89zm.572-.479c.63.039 1.262.037 1.894.004-.141-.26-.232-.602-.56-.677-.554-.242-1.155.139-1.334.673zm3.394-.755c.564-.654 1.718-.71 2.29-.037.35.356.289.89.346 1.346-.81.008-1.621-.011-2.43.022.21.3.416.688.838.694.41.098.766-.162 1.111-.339l.29.47c-.612.425-1.476.604-2.131.17-.798-.451-.905-1.669-.314-2.326zm.177.767c.63.023 1.262.023 1.893-.004-.148-.365-.396-.756-.845-.742-.509-.073-.888.306-1.048.746zm9.626-.98c.616-.457 1.599-.41 2.088.213.317.357.256.865.312 1.306-.81.013-1.618-.01-2.425.025.289.825 1.315.87 1.922.373l.33.438c-.596.435-1.45.616-2.108.208-.934-.479-.972-1.989-.119-2.564zm-.015.978c.206-.97 1.683-.979 1.9-.01-.633.037-1.269.035-1.9.01zm5.643-.921c.691-.485 1.943-.708 2.369.217.19.8.054 1.637.092 2.452-.21 0-.418 0-.624.002l.025-.315c-.476.329-1.125.538-1.658.213-.547-.26-.613-1.198-.05-1.471.549-.25 1.17-.192 1.758-.235-.088-.873-1.069-.777-1.64-.45l-.272-.413zm.43 1.925c-.22-.856.926-.633 1.43-.646.089.754-.951 1.163-1.43.646zm2.94-2.285h.624c0 1.01-.002 2.018 0 3.027l-.622.004c-.002-1.01 0-2.021-.002-3.03zm7.663 0l.636.002-.052.54a3.629 3.629 0 0 1 1.023-.611c-.006.154-.02.46-.025.613-.27.122-.628.16-.765.458-.335.62-.148 1.358-.195 2.027h-.622zm2.957.08c.863-.401 2.057.099 2.226 1.074.272 1.012-.693 2.166-1.756 1.898-.765-.03-1.375-.767-1.35-1.515-.047-.612.348-1.185.88-1.456zm.189.563c-.657.36-.624 1.41.04 1.734.603.41 1.466-.134 1.452-.832.104-.754-.888-1.276-1.492-.902zm2.86-.645c.158.002.475.004.635.004l-.044.546c.431-.715 1.489-.82 1.972-.096.555-.567 1.656-.748 2.101.043.357.786.112 1.696.181 2.534h-.622c-.019-.684.066-1.38-.073-2.056-.23-.638-1.365-.455-1.431.199-.062.632-.017 1.269-.025 1.905h-.624c-.021-.702.065-1.415-.062-2.11-.21-.515-1.013-.419-1.277-.009-.132.68-.048 1.38-.065 2.071h-.666zm8.418.175c.57-.332 1.263-.123 1.718.306-.01-.12-.03-.358-.042-.477l.676-.002c-.024 1.027.05 2.058-.04 3.083-.063.739-.806 1.24-1.51 1.204-.46.033-.868-.202-1.272-.373l.27-.504c.462.167 1.017.47 1.488.158.41-.214.364-.731.467-1.112-.48.32-1.102.689-1.67.352-.965-.513-1.004-2.056-.085-2.635zm.437.404c-.58.373-.58 1.335.043 1.666.496.346 1.25-.1 1.246-.695.13-.669-.676-1.352-1.289-.97zm5.235-.492c1.069-.543 2.508.43 2.251 1.65-.119 1.14-1.512 1.73-2.444 1.096-.988-.621-.874-2.27.193-2.746zm.189.563c-.653.362-.613 1.406.05 1.731.6.404 1.462-.136 1.45-.832.106-.756-.896-1.283-1.5-.899zm6.787-.292c.67-.44 1.79-.7 2.305.094.306.814.09 1.722.156 2.572l-.608.019a18.974 18.974 0 0 0-.012-.33c-.458.343-1.1.536-1.626.224-.57-.254-.631-1.244-.03-1.49.547-.227 1.151-.185 1.731-.222-.085-.87-1.073-.779-1.639-.45l-.277-.417zm.375 1.8c.043-.767.992-.463 1.495-.513.096.779-1.156 1.229-1.495.513z" fill="#a4a4ba"/></g></svg>