<svg height="40" viewBox="0 0 130 40" width="130" xmlns="http://www.w3.org/2000/svg" xmlns:xlink="http://www.w3.org/1999/xlink"><linearGradient id="a"><stop offset="0" stop-color="#ef7f21"/><stop offset="1" stop-color="#fabe11"/></linearGradient><linearGradient id="b" x1="49.999501%" x2="49.999501%" xlink:href="#a" y1="468.987639%" y2="1.055585%"/><linearGradient id="c" x1="50%" x2="50%" xlink:href="#a" y1="385.419071%" y2="-76.913279%"/><linearGradient id="d" x1="50%" x2="50%" xlink:href="#a" y1="313.592406%" y2="-209.24951%"/><linearGradient id="e" x1="49.999501%" x2="49.999501%" xlink:href="#a" y1="102.816154%" y2="-365.073323%"/><linearGradient id="f" x1="50%" x2="50%" xlink:href="#a" y1="180.742954%" y2="-281.543639%"/><linearGradient id="g" x1="50.001119%" x2="50.001119%" y1="100.160187%" y2="52.505302%"><stop offset="0" stop-color="#1784b1"/><stop offset="1" stop-color="#0ea8de"/></linearGradient><linearGradient id="h" x1="7.931118%" x2="90.674206%" y1="50.000178%" y2="50.000178%"><stop offset="0" stop-color="#fff"/><stop offset="1" stop-color="#adabac"/></linearGradient><g fill="none" fill-rule="evenodd"><path d="m-47-20h224v80h-224z"/><g fill-rule="nonzero"><path d="m32.5838384 4.66454545-13.9865657 3.04111112-3.6862626 3.61898993 20.2589899-3.77555559z" fill="url(#b)"/><path d="m37.259899 9.92010101-24.1022222 3.12161619-3.68949498 3.6188889 31.62343438-2.4758586z" fill="url(#c)"/><path d="m43.7028283 17.2076768-35.98737375 1.17-1.92515152 2.0748485 1.92515152 1.1134343 36.01171715 1.8773737 2.849596-2.990808z" fill="url(#d)"/><path d="m18.5972727 32.2385859 13.9865657 3.0412121 2.5861616-2.8185859-20.2589899-3.8421212z" fill="url(#e)"/><path d="m13.1576768 26.9020202 24.1022222 3.3441414 3.8317172-4.059697-31.62343438-2.9040404z" fill="url(#f)"/><g fill="#0ea8de"><path d="m55.5123232 30.3727273v-19.3257576h13.7923233v2.4286869h-11.3446465v6.0188889h8.8680808v2.4293939h-8.8680808v6.0482828h11.3446465v2.4005051z"/><path d="m83.8024242 14.2489899c-.6943434-.5142424-1.5316161-.7726263-2.5053535-.7726263h-5.910202v6.0181819h5.910202c.9961616 0 1.8309091-.2665657 2.5053535-.799192.7878788-.570808 1.1827273-1.3089899 1.1827273-2.2092929 0-.9028283-.3948485-1.6472727-1.1827273-2.2370707zm2.7015152 16.1237374-4.4735354-6.7644445c-.7519192-1.1223232-1.9828282-1.6837373-3.690101-1.6837373h-2.9534343v8.4481818h-2.449596v-19.3257576h8.359798c1.6321212 0 3.0585859.4966667 4.2772727 1.4919192 1.2584849 1.0858586 1.8873738 2.4011111 1.8873738 3.9471717 0 1.2693939-.4212121 2.3734343-1.2655556 3.3121212-.8076768.9392929-1.8674747 1.5749495-3.1816161 1.9062626.4679798.0371718 1.1173737.6703031 1.9418181 1.9038384l4.4779798 6.7644445z"/><path d="m103.847475 15.6028283c-1.446263-1.4177778-3.192627-2.1269697-5.237677-2.1269697h-4.9260606v14.4959596h4.9260606c2.008485 0 3.753535-.7091919 5.237677-2.1269697 1.444343-1.4542424 2.165555-3.1656566 2.165555-5.1348485 0-1.9885859-.721212-3.6906061-2.165555-5.1071717m1.715151 11.9540404c-1.914949 1.8767677-4.230505 2.8160606-6.9532321 2.8160606h-7.3763636v-19.3258586h7.3763636c2.7227271 0 5.0382831.9487879 6.9532321 2.8450505 1.934142 1.8937374 2.897677 4.1684849 2.897677 6.8178788 0 2.6683838-.963535 4.9506061-2.897677 6.8468687"/><path d="m111.868687 16.162727h2.447677v14.209899h-2.447677z"/><path d="m111.868687 11.047374h2.447677v2.918586h-2.447677z"/><path d="m117.977778 30.3727273v-19.3257576h2.447677v16.9252525h8.867474v2.4005051z"/></g><path d="m0 20.4525253 20.8538384 19.4628282 6.220505-5.7912121-14.9341414-13.6716161 14.9341414-14.64747479-6.220505-5.80505051z" fill="url(#g)"/><path d="m12.140202 20.4525253 14.9341414 13.6716161v-28.31909089z" fill="url(#h)"/></g></g></svg>