<?xml version="1.0" encoding="UTF-8"?>
<svg width="130px" height="40px" viewBox="0 0 130 40" version="1.1" xmlns="http://www.w3.org/2000/svg" xmlns:xlink="http://www.w3.org/1999/xlink">
    <!-- Generator: Sketch 50.2 (55047) - http://www.bohemiancoding.com/sketch -->
    <title>16</title>
    <desc>Created with Sketch.</desc>
    <defs>
        <linearGradient x1="49.9995014%" y1="468.987639%" x2="49.9995014%" y2="1.05558505%" id="linearGradient-1">
            <stop stop-color="#EF7F21" offset="0%"></stop>
            <stop stop-color="#FABE11" offset="100%"></stop>
        </linearGradient>
        <linearGradient x1="50%" y1="385.419071%" x2="50%" y2="-76.9132787%" id="linearGradient-2">
            <stop stop-color="#EF7F21" offset="0%"></stop>
            <stop stop-color="#FABE11" offset="100%"></stop>
        </linearGradient>
        <linearGradient x1="50%" y1="313.592406%" x2="50%" y2="-209.24951%" id="linearGradient-3">
            <stop stop-color="#EF7F21" offset="0%"></stop>
            <stop stop-color="#FABE11" offset="100%"></stop>
        </linearGradient>
        <linearGradient x1="49.9995014%" y1="102.816154%" x2="49.9995014%" y2="-365.073323%" id="linearGradient-4">
            <stop stop-color="#EF7F21" offset="0%"></stop>
            <stop stop-color="#FABE11" offset="100%"></stop>
        </linearGradient>
        <linearGradient x1="50%" y1="180.742954%" x2="50%" y2="-281.543639%" id="linearGradient-5">
            <stop stop-color="#EF7F21" offset="0%"></stop>
            <stop stop-color="#FABE11" offset="100%"></stop>
        </linearGradient>
        <linearGradient x1="50.0011193%" y1="100.160187%" x2="50.0011193%" y2="52.5053016%" id="linearGradient-6">
            <stop stop-color="#1784B1" offset="0%"></stop>
            <stop stop-color="#0EA8DE" offset="100%"></stop>
        </linearGradient>
        <linearGradient x1="7.93111845%" y1="50.0001783%" x2="90.6742059%" y2="50.0001783%" id="linearGradient-7">
            <stop stop-color="#FFFFFF" offset="0%"></stop>
            <stop stop-color="#ADABAC" offset="100%"></stop>
        </linearGradient>
    </defs>
    <g id="Desktop" stroke="none" stroke-width="1" fill="none" fill-rule="evenodd">
        <g id="logos" transform="translate(-837.000000, -459.000000)">
            <g id="16" transform="translate(790.000000, 439.000000)">
                <rect id="Rectangle-7" x="0" y="0" width="224" height="80"></rect>
                <g id="logo_ERDIL" transform="translate(47.000000, 20.000000)" fill-rule="nonzero">
                    <polygon id="Shape" fill="url(#linearGradient-1)" points="32.5838384 4.66454545 18.5972727 7.70565657 14.9110101 11.3246465 35.17 7.54909091"></polygon>
                    <polygon id="Shape" fill="url(#linearGradient-2)" points="37.259899 9.92010101 13.1576768 13.0417172 9.46818182 16.6606061 41.0916162 14.1847475"></polygon>
                    <polygon id="Shape" fill="url(#linearGradient-3)" points="43.7028283 17.2076768 7.71545455 18.3776768 5.79030303 20.4525253 7.71545455 21.5659596 43.7271717 23.4433333 46.5767677 20.4525253 43.7028283 17.2076768"></polygon>
                    <polygon id="Shape" fill="url(#linearGradient-4)" points="18.5972727 32.2385859 32.5838384 35.279798 35.17 32.4612121 14.9110101 28.6190909 18.5972727 32.2385859"></polygon>
                    <polygon id="Shape" fill="url(#linearGradient-5)" points="13.1576768 26.9020202 37.259899 30.2461616 41.0916162 26.1864646 9.46818182 23.2824242"></polygon>
                    <polygon id="Shape" fill="#0EA8DE" points="55.5123232 30.3727273 55.5123232 11.0469697 69.3046465 11.0469697 69.3046465 13.4756566 57.96 13.4756566 57.96 19.4945455 66.8280808 19.4945455 66.8280808 21.9239394 57.96 21.9239394 57.96 27.9722222 69.3046465 27.9722222 69.3046465 30.3727273"></polygon>
                    <path d="M83.8024242,14.2489899 C83.1080808,13.7347475 82.2708081,13.4763636 81.2970707,13.4763636 L75.3868687,13.4763636 L75.3868687,19.4945455 L81.2970707,19.4945455 C82.2932323,19.4945455 83.1279798,19.2279798 83.8024242,18.6953535 C84.590303,18.1245455 84.9851515,17.3863636 84.9851515,16.4860606 C84.9851515,15.5832323 84.590303,14.8387879 83.8024242,14.2489899 Z M86.5039394,30.3727273 L82.030404,23.6082828 C81.2784848,22.4859596 80.0475758,21.9245455 78.340303,21.9245455 L75.3868687,21.9245455 L75.3868687,30.3727273 L72.9372727,30.3727273 L72.9372727,11.0469697 L81.2970707,11.0469697 C82.9291919,11.0469697 84.3556566,11.5436364 85.5743434,12.5388889 C86.8328283,13.6247475 87.4617172,14.94 87.4617172,16.4860606 C87.4617172,17.7554545 87.0405051,18.8594949 86.1961616,19.7981818 C85.3884848,20.7374747 84.3286869,21.3731313 83.0145455,21.7044444 C83.4825253,21.7416162 84.1319192,22.3747475 84.9563636,23.6082828 L89.4343434,30.3727273 L86.5039394,30.3727273 Z" id="Shape" fill="#0EA8DE"></path>
                    <path d="M103.847475,15.6028283 C102.401212,14.1850505 100.654848,13.4758586 98.609798,13.4758586 L93.6837374,13.4758586 L93.6837374,27.9718182 L98.609798,27.9718182 C100.618283,27.9718182 102.363333,27.2626263 103.847475,25.8448485 C105.291818,24.3906061 106.01303,22.6791919 106.01303,20.71 C106.01303,18.7214141 105.291818,17.0193939 103.847475,15.6028283 M105.562626,27.5568687 C103.647677,29.4336364 101.332121,30.3729293 98.6093939,30.3729293 L91.2330303,30.3729293 L91.2330303,11.0470707 L98.6093939,11.0470707 C101.332121,11.0470707 103.647677,11.9958586 105.562626,13.8921212 C107.496768,15.7858586 108.460303,18.0606061 108.460303,20.71 C108.460303,23.3783838 107.496768,25.6606061 105.562626,27.5568687" id="Shape" fill="#0EA8DE"></path>
                    <rect id="Rectangle-path" fill="#0EA8DE" x="111.868687" y="16.1627273" width="2.44767677" height="14.209899"></rect>
                    <rect id="Rectangle-path" fill="#0EA8DE" x="111.868687" y="11.0473737" width="2.44767677" height="2.91858586"></rect>
                    <polygon id="Shape" fill="#0EA8DE" points="117.977778 30.3727273 117.977778 11.0469697 120.425455 11.0469697 120.425455 27.9722222 129.292929 27.9722222 129.292929 30.3727273"></polygon>
                    <polygon id="Shape" fill="url(#linearGradient-6)" points="0 20.4525253 20.8538384 39.9153535 27.0743434 34.1241414 12.140202 20.4525253 27.0743434 5.80505051 20.8538384 -2.84217094e-14"></polygon>
                    <polygon id="Shape" fill="url(#linearGradient-7)" points="12.140202 20.4525253 27.0743434 34.1241414 27.0743434 5.80505051"></polygon>
                </g>
            </g>
        </g>
    </g>
</svg>