<svg height="80" viewBox="0 0 69 80" width="69" xmlns="http://www.w3.org/2000/svg"><g fill="none" fill-rule="evenodd" transform="translate(-78)"><path d="m0 0h224v80h-224z"/><path d="m145.673102 37.4942306c.154831 1.0242673.210411 2.0829415.611384 3.0503051v.5835942c-1.316726.0727838-2.605662.3850927-3.910478.5599063-.120424.7105027-.054257 1.4409879-.227615 2.1423596-.213058 1.367013-.488313 2.722116-.717251 4.0851591-.461847 1.8023928-.85091 3.6272824-1.423917 5.3992384-.960747 3.3229137-2.314527 6.5240798-3.956795 9.5677681-1.990307 3.6643361-4.482162 7.0798838-7.52585 9.9409508-2.662566 2.5236147-5.788301 4.5814127-9.225023 5.8809352-.967363.2990755-1.913553.690785-2.91797.8495861-.337453.1495377-.668288.3124412-1.012358.4459665h-1.327312-4.545683c-.643144-.193208-1.312756-.2567285-1.965164-.4089129-1.130134-.1667412-2.183515-.6246178-3.26601-.9673636-2.530231-1.0467641-4.9135713-2.4759743-6.9766627-4.2810138-1.2823191-1.0467641-2.4653875-2.2165991-3.5161217-3.4962716-1.4397969-1.5944956-2.6453621-3.3810084-3.8165205-5.1782402-1.4649404-2.3793702-2.7591696-4.8659313-3.8204905-7.4490963-.9289866-2.2510061-1.6713819-4.5721493-2.3277599-6.9157893-.412883-1.7984228-.9660402-3.5690554-1.2002719-5.4032085-.2236449-1.3934799-.567714-2.7816664-.5915342-4.1949965-1.3418696-.1680645-2.663889-.4869901-4.0136986-.5769774v-.7212219c.3665659-1.1393981.4419965-2.3409933.6272645-3.517445.3348057-1.918847.6577013-3.8390173.8866396-5.7737445.2673153-1.5588977.5121337-3.1204422.7688622-4.6819866.0608737-.6669648.1640945-1.3299595.332159-1.9783974 1.0560275-.0092634 2.0855882.285842 3.1416157.3162789.5531573.2092205 1.1645416.0330835 1.7084355.2739319.5081636.1945314 1.0679376-.0026467 1.5827179.1614478.5293371.176137 1.1142546-.050287 1.6250649.2011481.328189.1111608.787389.2620219 1.0441175-.0569037.0410236-.5027379-.5293371-.6815215-.8151792-.9925071-.0251435-.4075895-.0291135-.8204725.0185268-1.225283.0727839-.2740643.177328-.5453496.1521844-.8338383-.0383769-.4856668.1468911-.9501601.3731827-1.3683364.1971781-.1865913.4234697-.3374524.6352045-.5055169.6127077.5690373.555804 1.4689104.8191492 2.2020423.2911354.3811227.7648921.559774 1.0904344.9078131.3070155.2382017.3903861.6338812.4644933.9951538.0939574.4922835.2924588.9541301.46714 1.4212701.4724334-.0052934.9607469-.0767539 1.4159768.087473.8482627.2764463 1.7481358.0276578 2.6083086.2195425.7622454.1455677 1.5416943.0173358 2.3105564.0741072.6921083.281872 1.4477373.0992507 2.1689583.2051182.422147.0569037.841646-.0633882 1.258499-.1177776-.619324-.1032207-1.217475-.293782-1.799746-.521397-1.2452652-.6471146-2.6877088-.7357786-3.9409144-1.3603964-.412883-.2712852-.551834-.7873889-.833706-1.1724816-.3956795-.8098858-.8350292-1.5985981-1.3418695-2.3449634-.610061-.8006224-1.1989486-1.6158015-1.7865127-2.432304.7966523-1.2042419 1.6779986-2.3502567 2.5156745-3.5253851.2845187-.5465406.6457913-1.0586742 1.1936552-1.3683364.1283642.1799746.2143815.4011052.0913107.610061-.1932081.5333071-.2540819 1.1063145-.4843435 1.6277116.6815215.7769345 1.6263883 1.2637923 2.2761495 2.0697081.0569038.3692126-.0489636.7503353-.0185268 1.1248413.0317603.6285878-.2329083 1.2240921-.2183515 1.8526799-.0013234.3123089-.0224968.6232944-.0555804.93428.8681128.5809474 1.7256389 1.1830684 2.6387459 1.6938787.472433.3003988 1.00177.5610973 1.327312 1.034854.488314.6854916 1.017651 1.3458396 1.426564 2.0829415 2.072355.0264669 4.146033.0080724 6.218387.0052934 3.615373-.0198501 7.232069.0370536 10.847441-.0105867 1.37363-.5213971 2.898121.0555803 4.286307-.3877395.807239-.0620648 1.630358.0860173 2.429658-.0913106.812532-.2104115 1.670058.092634 2.473327-.1970458.684168-.2581841 1.446414.0567714 2.123965-.2330406.45126-.1839447.947514-.088664 1.42127-.1308786-.738425-1.0230763-1.381569-2.1108641-2.129258-3.1271913-.317602-.3665659-.108514-.8812139-.250112-1.3101093-.199825-.6444679.038377-1.3378995-.181298-1.9770741-.097927-.2737996-.05558-.5650674-.046317-.8482627 1.36569.6894616 2.127935 2.1226418 3.412901 2.9206175.971334.6975339 1.566838 1.9506072 2.81078 2.2258625.9581.4115596 1.9162.8297359 2.878271 1.2333554.170711.0794006.358626.0992507.543894.0701372 1.011033-.1230709 2.024714-.2129259 3.030454-.3783437.108515.3981938.210412.80049.272609 1.2094029.236878 2.0300078.639175 4.0348721.955453 6.0529698.252759 1.9214937.610062 3.8257839.901197 5.7419842zm-4.363061 6.308375c.223645-.6457913.029113-1.351133.284519-1.9916309-.648438.1005741-1.319373.0370536-1.953254.231585-.412883.0992507-.857526.0013233-1.257176.1693879-.575654.2408484-1.217475.0211735-1.810333.1945314-.619324.1720345-1.286289-.038377-1.891057.2090881-.592857.2329083-1.247912-.0238202-1.847386.1680645-.763569.2845187-1.610508-.0476403-2.372754.2461418-.829736.3215723-1.810333-.1535078-2.601692.281872-1.024267.2871654-2.153078-.1071908-3.181316.235555-1.224092.0224968-2.449507-.00794-3.673599.0185268-.281872-.0052934-.504194.2382017-.786066.231585-5.427028-.0172035-10.854057-.0026467-16.279762-.0079401-.183945-.0635204-.357303-.150861-.538601-.2143815-1.265115-.0449936-2.531554-.0026467-3.7966701-.0277902-1.0282374-.3440691-2.1596954.0542571-3.1826394-.2380694-.795329-.4262487-1.7706326.038377-2.6003685-.2780343-.7635688-.2951054-1.6091848.0357303-2.3727536-.2460094-.6007976-.1933404-1.2558522.0647115-1.8487098-.1695202-.6047676-.2474651-1.2717324-.0370536-1.8897334-.2090881-.5928576-.1720346-1.2346788.046317-1.8103329-.1932081-.4367031-.1839446-.9250166-.0516104-1.3696598-.1985014-.5478639-.1839446-1.1288114-.0807239-1.6925554-.0648438-.0238201.5200737.0516104 1.0322074.2037948 1.5284609.0317602.7741555.2130582 1.5297842.4036195 2.2789285.3480392 2.3567412.9356034 4.672591 1.5853647 6.9632973.3176022.7437186.4022962 1.5775569.8244425 2.2748262.2117348.7079884.5028703 1.3895099.749012 2.0869115.6616714 1.5006707 1.2386488 3.0397183 2.0194211 4.486132.285842.4737567.4353797 1.0216206.7807722 1.4609704.3295123.4115596.4512599.9448667.7648921 1.3656897.424793.5240437.6431446 1.1804217 1.077201 1.6991721.3255423.3903861.5121336.8786996.8575261 1.2532056.3731827.3956795.5862408.9078131.9250166 1.3299595.1773279.2183515.4142063.3890627.5624207.6325578.3176022.5862408.9157532.9488368 1.2809958 1.5006707.3043688.5147803.7834189.887963 1.1896851 1.3154027.4353798.4102362.8085624.9025198 1.3365762 1.2002719.3705359.2329083.6193244.614031.9991238.8363526.4234696.2289383.6815215.6616714 1.0996978.8972264.9197229.5783008 1.7746029 1.2783491 2.7896069 1.6885853.584917.2421718 1.093081.6404979 1.701818.8257659.583595.1640945 1.094405.5056493 1.677999.6696115.775479.3176022 1.629035.3414224 2.409807.6365278.404943-.0026467.808563.0105868 1.163218.2329084 1.584042.0383769 3.17073.0092634 4.757418.0158801.333482.0304368.594181-.2552729.92634-.2329084.555804.0595505 1.042794-.2633452 1.588011-.3109855 1.136751-.1640945 2.153079-.7357786 3.255423-1.026914 1.781219-.845616 3.538619-1.7612369 5.13457-2.9259108.484343-.4552299 1.052057-.8098858 1.590658-1.1976252.397003-.3573026.733132-.7900356 1.205565-1.0573509.656378-.5187503 1.228062-1.1433681 1.783866-1.7666626.330836-.6153543.925017-1.0150039 1.37363-1.5364009.690785-.9804647 1.435827-1.9267871 2.130582-2.9060607.371859-.4697867.624618-1.0202973 1.007064-1.4834672.767539-1.4040667 1.658148-2.7444806 2.302616-4.2148467.267315-.513457.586241-1.0083872.694755-1.586688 1.001771-1.9664873 1.642268-4.0904524 2.334377-6.1760406.005293-.0754306.018527-.2262916.025143-.3002665.231585-.2924587.312309-.659157.38774-1.0151362.240848-1.1102846.632557-2.1835156.799299-3.3096803.207764-1.0016381.346715-2.011481.590211-3.0066347.1191-.4155296.041023-.8614961.182621-1.2730557zm2.785636-3.1760227c.424793-.2223215.91443-.0873406 1.370983-.1415976-.026466-.3017222-.185268-.5610974-.277902-.841646-.037053-.3930328.089988-.8231192-.129687-1.1790984.025143-1.3934799-.355979-2.7538763-.561097-4.120757-.006617-.4090453-.088664-.8086948-.176005-1.2056976-.354656-2.0432412-.590211-4.0997159-.996477-6.1323704-.04367-.5875641-.109838-1.1724816-.303046-1.7322556-.96207-.0489637-1.895026.2540818-2.835923.4049429-1.280996.0224968-2.519645.4406731-3.803287.4419964-.681522.1985015-1.39348.1429211-2.086912.2421718-.689461.2527584-1.44112.0145567-2.135875.2382017-.591534.2276149-1.233355.054257-1.842093.1826213-.836353.2289383-1.713729.0092634-2.556698.1985014-.980597.2382017-1.994278.0516103-2.986785.1667412-.03573.050287-.108514.150861-.144244.2011481-1.185715.1058674-2.384664-.0079401-3.574349.0661671-1.097051.5399238-2.334377-.0489637-3.487008.2104115-4.590676.0370536-9.182676-.0092634-13.774675.0145568-.325542.0119101-.586241-.2633452-.915753-.2408484-.927663-.0145568-1.85665-.0105868-2.784313-.0013234-.2898124.034407-.5253674-.1614478-.7953293-.2262916-.8495861-.0767538-1.7124056.0516104-2.5580216-.0674904-.8535561-.2633453-1.787836.1071907-2.6136019-.2620219-.5862409-.1601245-1.1989486-.0264669-1.7931295-.0979274-.6471146-.3149556-1.3895098-.0449936-2.0591213-.1958547-.6325578-.4287631-1.4371502-.0105867-2.1107317-.2977521-.4909601-.1667412-1.0573508.1217475-1.5152274-.1614478-.4155297-.2726087-.9369267.0013233-1.3696598-.2117349-.4433198-.2104115-.9673635.042347-1.40142-.1879147-.4830201-.3003988-1.085141.0132335-1.5747779-.2737996-.328189-.1059997-.9091364-.2925911-1.034854.1705789-.3136322.4737567.0066167 1.0758777-.3043688 1.5469877-.1733579.3136322-.0992507.6868149.0026467 1.0110339-.5015469.4367031-.0688139 1.131458-.4367031 1.6224182-.1667412.3268656.0105867.7172518-.1217476 1.0560275-.1667412.3825784-.0608737.8019457-.096604 1.2029186-.0807239.2421717-.2646686.4618466-.2421717.7292942-.0145568.2274826.0595504.476271-.0727839.6827125-.2289383.3771527.0317602.8588494-.2051181 1.2333554-.2805487.3956795.00397.9131065-.2567285 1.3193728-.1918847.3123089-.0939573.664318-.0357303.9978004-.1707112.4142063-.2792253.8403227-.2276149 1.2929059-.2104115.374506-.1693879.7966523-.1932081 1.2095353-.1680645.3123089-.2712852.6444679-.2276149 1.0044171.4499365.0398326.93825-.0952807 1.3524563.134981.4367031.231585.9488367.00794 1.40142.1826213.4433198.1760046.94619-.0514781 1.3736298.1839446.3109855.1482144.6537313.1640945.984567.0754306.3850927-.138951.6709347.284651 1.0520575.2329083.3771526.0357302.7913589-.1058674 1.1393981.0873406.5121336.3189256 1.1407214.0198501 1.6885853.2064415.602121.239525 1.2915826-.0913107 1.8738534.2104115.5108103.2514351 1.0970511.0555804 1.6263882.0860172.7053417.3639193 1.5152275.1468911 2.2721795.2037948.7582754.4300864 1.6541785.1640945 2.4812677.2434951.9753036.2845187 2.0101577.0621971 3.0039881.1601245.6907849.3083388 1.4570007.2064414 2.1901327.2302616.797975-.0344069 1.614478.088664 2.39525-.1124841.202471.1243942.383769.3308357.645791.277902 5.207354.00397 10.413384.0052933 15.620738 0 .260699.0529337.441997-.1535078.645791-.277902.868113.2090881 1.77328.0767539 2.658596.1111608.644468-.0079401 1.314079.0423469 1.918847-.2262916.718575-.0741072 1.45303.0370536 2.176899-.0397003.846939-.2937821 1.770632.00397 2.632129-.1733579.820472-.5200737 1.925463.1680645 2.698295-.4367031.426117.1085141.87076.0833706 1.307463.0741072.328189 0 .591534-.2805487.925017-.2501118.50684-.0092634 1.03353.0820472 1.525814-.0807239.549187-.181298 1.175128.1085141 1.688585-.2077648.501547-.2605662 1.127488.092634 1.621095-.2157049.448613-.3070155.991184.134981 1.459647-.1468911.45523-.2659919.989861-.0449936 1.468911-.2157048.457876-.1707112.972657.0449936 1.415976-.1865914zm-30.724048-34.13691002c-.525368-.63652786-1.151309-1.19100848-1.74549-1.76269255.279226-.53066045.117778-1.12616469.211735-1.68726202.268639-.54257053.005294-1.16586497.224969-1.72166892.142921-.39567949.109837-.81517914.132334-1.22673874.165418-.15615445.424793-.05161037.629911-.09131065.40362.89060968 1.318049 1.37362978 1.810333 2.20071901.299075.49096016.827089.78738894 1.108961 1.29025918.43141.61403104 1.103668 1.0335307 1.478174 1.69387873.275255.46581665.766215.75033535 1.058674 1.20159523.39568.68549154 1.124842 1.0957278 1.532431 1.77327929.326866.5756541.931633.91442985 1.300846 1.45700038.214382.33215903.512134.60079758.717252.94089668-.378476.2620219-.759599.0449937-1.130135-.100574-.579624.0423469-1.075878-.3427458-1.659472-.2620219-.841646-.24746509-1.746812-.24217172-2.579195-.53066044-.269962-.02514352-.549187-.01588012-.796652-.14556771-.350686-.19717807-.759599-.07940056-1.139398-.13498096-.269962-.19453138-.296429-.54918724-.42744-.83105925-.234232-.69078492-.521397-1.3617197-.727838-2.06309136zm-9.586282 2.06440147c-.236878-.38112272-.079401-.86017279-.318926-1.24658888-.009263-.42479302-.074107-.87737625.111161-1.27570242.344069.12836425.672258.34803915.850909.67887484.743719 1.01897392 1.40142 2.10543832 2.262917 3.03442494.328189.54654057.829735.95545347 1.157924 1.50331737 1.265116 1.2849658 2.538172 2.5699316 3.832401 3.8244606.919723.3242189 1.84474.6378512 2.773727.9395733.361272.606091.357302 1.3233428.543893 1.9836908.281872.7318086.47508 1.4927307.652408 2.2549761.599475.7344552 1.467587 1.1764517 2.182193 1.7851894.49096.4075895 1.082494.6801981 1.537724 1.131458.566391.3731827 1.259822.5227204 1.781219.9739803.562421.3427458 1.210859.5372771 1.732256.9528068-.313632.1786512-.701372.2421717-1.030884.0661671-.397003-.2276149-.876053-.1204242-1.280996-.3334824-.824442-.1138074-1.635652-.3400991-2.470681-.4062662-.389063-.1230709-.762245-.2699619-1.181745-.2408484-.330836-.1746812-.684168-.2448184-1.056027-.2408484-.752982-.2884887-1.589335-.2051181-2.334377-.5028702-.227615-.046317-.461847-.0145568-.688138-.0621971-.193208-.0794006-.36392-.2368784-.586241-.2117349-1.431857-.0052933-2.863714.0026467-4.294247-.0052933-.056904-1.0202973-.117778-2.0366245-.097928-3.0595685-.53463-.2236449-.905166-.6801982-1.310109-1.0745543-.318926-.3202489-.783419-.4644933-1.045441-.8469394-.096604-.9117831-.43538-1.7944527-.43538-2.722116-.201148-.4102363-.070137-.887963-.289812-1.2876125-.218351-.378476.034407-.8522328-.220998-1.2187987-.146891-.652408-.287165-1.3140794-.299075-1.9850141-.198502-.3692127-.060874-.8098858-.271286-1.16983503-.234231-.37979937.021174-.86149614-.206441-1.23864882zm20.367529 6.11387005c-.281872-.2170283-.836353-.2554052-.841646-.690785.001323-1.6065381-.025144-3.2130762.014556-4.81829094.213058-.01588012.436703-.09528068.647115-.02117349 1.225415 1.20424193 2.400544 2.46009423 3.645809 3.64448593.280549.2606985.424793.6259411.677552.9091365 1.056027 1.0838177 2.141168 2.1398452 3.202489 3.2170462.223645.5544807-.616678.4618467-.93031.3506859-.512133-.3414225-1.153955-.0277902-1.683292-.3162789-.676228-.0238202-1.438473-.0595505-1.946637-.5690374-.94222-.5412472-1.90429-1.065291-2.785636-1.7057888zm-30.9516245 15.4420734c-.0767539.4221463-.1535078.845616-.2037948 1.2730557-.7807722.0529337-1.5416943-.1640945-2.3198199-.1495377-.2805486.6616713-.332159 1.3775998-.2739319 2.0882348.0701372.0066167.2104115.0185268.2805487.0251435.4459665.1243943 1.0480874-.1707112 1.3802465.2024715.0727838.559774.0224968 1.1248413-.3758294 1.5588977-.5240437-.2501117-1.0983745-.3202489-1.6740286-.2911354-.0621971.656378-.2461417 1.2929059-.3162789 1.9479606.799299.4684633 1.7825427.2104115 2.5884584.6854915-.0410236.3149556-.0794005.6325579-.1720345.9395734-.050287.1296876-.1071908.2567285-.1680645.382446-.3056922-.0211734-.6312345.0291136-.9131066-.1164541-.9938304-.3295124-2.0723547-.2871654-3.0847119-.5438939.0555804-1.0864644.3811227-2.1332285.4552299-3.2157229.3215723-1.3802465.4128829-2.7975466.7079884-4.1817631.0780772-.3970028-.0304369-.841646.189238-1.2015952.2673152-.0648438.5386005.0238201.803269.054257.8244426.1005741 1.6488851.1998248 2.4772977.2421717l.0992507.0476404c.1720345.0860173.3467158.1680645.5200737.2527585zm42.7915985 6.6326071c-.018527.46317.04764.9025197.228938 1.3312828-.48699.4486132-1.161895.2421717-1.756076.3003988-.43538-.652408-.776802-1.3617197-1.118225-2.065738-.46714-.7503354-.664318-1.6700586-1.324666-2.293353.334806 1.5178741.41156 3.0767719.737102 4.5959694-.54257.0621971-1.078524.1680645-1.603891.3189256-.03176-.5372772-.059551-1.0758777-.174681-1.6025681-.099251-.4644933-.062197-.9554535-.235555-1.4027433-.322896-.5505106.06749-1.2452656-.288489-1.7785727-.258052-.4989002.084694-1.1208713-.222322-1.6105081-.129687-.4406732.033084-.9250166-.11116-1.3670131-.117778-.4022962-.072784-.8231192-.055581-1.2346788.526691-.0595504 1.124841.1495377 1.582718-.1985014.350686.3176022.338776.8178258.553157 1.2135053.530661 1.0057405 1.083818 2.0233911 1.380247 3.1244122.01588.1111608.033083.2209983.050287.3321591.089987.0066167.269962.0211735.359949.0277902-.054257-.2196749-.100574-.4393498-.172034-.6537313-.338776-.4181764-.096604-.9700103-.268639-1.443767-.152184-.4869901.058227-1.0282373-.195855-1.4887606-.185268-.3520092-.100574-.7662155-.097927-1.1473382.150861-.2593751.45523-.150861.700048-.1773279.246142 0 .465817-.1323343.700048-.193208.071461.3136322.194532.610061.299076.9144298.037054.416853-.087341.8654662.161448 1.2373255.209088.3506858-.030437.7926823.177328 1.1433681.173358.3149556.026467.6934316.144244 1.026914.144244.4658167.169388.9475134.176005 1.4305335.271285.5266904.018526 1.1552783.374506 1.6607952zm-38.813617-6.3189617c.5743308 0 1.1420448.1071908 1.7137289.1508611.0198502.050287.0608738.1521844.0820473.2024714-.3546559.5928576-.5769775 1.2611457-1.0202973 1.7997462-.3215723.6537313-.6285878 1.3140793-.9911837 1.9492839-.2434951.3678893-.0052934.7940056.1138075 1.1618949.0674904.6960783.525367 1.2823191.5915342 1.9810441.054257.6418213.4578766 1.1949785.5081636 1.8328297-.4883135-.1627711-.9938304-.1998247-1.5059641-.1812979-.3864161.046317-.4737567-.4194997-.4816967-.7093117-.1402744-.5994743-.4062663-1.1764518-.4433199-1.7984228-.046317.0370536-.1389509.1085141-.1865913.1442443-.3639192.6854916-.6881382 1.3921566-1.0097105 2.0974983-.6140311-.0357303-1.2518823.0357302-1.8394464-.1733579.0979273-.3850928.3176022-.7212218.5333071-1.0494108.3943561-.6325579.6656414-1.3352529 1.1036678-1.9413438.2157049-.4565533.5769775-.8786996.5663907-1.4080367.034407-.5425706-.293782-1.0110339-.336129-1.5390477-.2580519-.9236932-.5452172-1.8354764-.791359-2.7618163.5663907-.0291135 1.1341048-.0172035 1.7018188-.0026467.1455677.2527585.2501118.5293371.2845187.8217959.0780772.610061.3215723 1.1883618.3268657 1.8076862.1521844-.324219.3612725-.6259412.4314097-.9819204.0979274-.517427.47111-.9157531.6484379-1.4027433zm32.518462 5.1808869c.381123.6166777.182621 1.3670131.219675 2.053828-.162771.3705359-.350686.7331319-.551834 1.0838177-.248789.2765786-.641821.3625959-.952807.5531573-.524044.058227-1.056027.0330835-1.581394.0211734-.660349-.2408483-1.226739-.7331318-1.492731-1.3974499-.02779-.5028702.062197-1.0242673-.185268-1.4874373-.002647-.7873889.001323-1.5880113-.210412-2.3542267-.029113-.7516587-.01985-1.5072874-.006616-2.2602695.174681-.5293371.559774-.9726569 1.026914-1.2690857.287165-.2143815.666964-.1177775 1.000447-.1442443.488313.0330835 1.058674-.1138075 1.46891.2276149.41553.3930328.872083.837676.919723 1.4411203.169388.5571273.190562 1.1314581.172035 1.7110822.273932.5716841.111161 1.2121819.173358 1.8209196zm-1.484791 1.6647652c-.029113-.4644933.087341-.9633935-.127041-1.3961266-.295105-.5928576.076754-1.308786-.240848-1.8923801-.268639-.509487-.02779-1.1076379-.170711-1.6488851-.144245-.1945314-.275255-.5280138-.575654-.4552299-.272609-.0185268-.412883.2620218-.610061.4022962.01191.3467158-.070137.7159284.0397 1.0480874.426116.6669648.056904 1.4887606.272609 2.2099824.189238.5544807 0 1.1513082.116454 1.7176989.112484.3374524.47508.4353798.737102.6285878.194531-.1958547.416853-.3731826.55845-.614031zm-26.383471-6.5439167c.963394.0727839 1.777249.7595987 2.161019 1.6316816.014557.7543054.009263 1.5099341.001323 2.2642395-.150861.378476-.344069.7371019-.551834 1.0864644-.217028.328189-.608738.4512599-.927663.652408-.400973.3136322-.932957.150861-1.398773.1746812-.103221.2527585-.228939.4975769-.308339.7595987-.029114.7741556.03573 1.5536044-.025144 2.3264366-.06352.0595504-.191884.1773279-.255405.2368784-.445966-.2342317-.9236932-.3639193-1.4305335-.3043689.0013234-.7198984-.0899873-1.4583237.084694-2.1649887.1614478-.7582754-.1548311-1.594628.2051181-2.3065864.0569038-.5902109-.0489637-1.1923319.0449937-1.775926.3996495-.7463653.1336576-1.6158015.2183515-2.4217173.046317-.0383769.1376277-.1151308.1839447-.1535077.6656415-.0158801 1.3312825 0 1.9982475-.0052934zm.690785 2.6863858c.116454-.4367031-.307016-.6960783-.557127-.976627-.243495.0039701-.48699.0026467-.729162.0013234-.248789.7595987-.025144 1.5761012-.179975 2.3555501.410236.0092634.828413.0198501 1.210859-.1521844-.030437-.4314098.117777-.8284126.255405-1.2280621zm21.843109 3.2434866c.09528.6788749.00794 1.3696598.04764 2.053828.087341.277902.227615.5399238.255405.8363526-.324219.0291136-.678875-.0476403-.9581.1614478-.238202.181298-.535954.0952807-.784742-.0092634.006617-.3943561.064844-.8112091-.185268-1.1486615-.209088-.9475134.169388-1.9982475-.224968-2.9153241-.051611-.8694362.082047-1.7521058-.117778-2.6083086-.060874-.7371019-.014557-1.4781738-.029113-2.2165991.420823-.1296876.866789-.0833706 1.300845-.0780772.234232.142921.150862.4234697.187915.652408.444643.8138558.146891 1.7719559.240848 2.6559489.39965.8125325-.01191 1.7679859.267316 2.6162486zm-15.590315-5.4098119c.224969.3599492.070138.8310592.093958 1.2373255-.041024.0463169-.123071.1389509-.162771.1852679-.770186.0410237-1.543018-.0066167-2.313203.0211735.00794.6669648.021173 1.3352529-.014557 2.0022176.578301.1707112 1.189685.0688138 1.783866.0820473-.074107.5293371-.166741 1.0560275-.190562 1.590658-.58227.01191-1.165865.0013233-1.748135.0132334.025143.6722581.025143 1.3458396-.001324 2.0180977.808563.0277902 1.618448-.0251435 2.425688.0370536.026466.5690374.033083 1.1393981-.001324 1.7084355-1.353779-.2686386-2.739319-.1071908-4.110302-.1588011-.226292-.9700103-.060874-1.9704574-.014557-2.949731.04367-.1574778.169388-.2911355.165418-.4605233.00794-1.2267388-.009264-2.4548008.005293-3.6815396.367889-.5809474.181298-1.270409.243495-1.9162003.693432.0317602 1.422594-.1230709 2.081618.1495377.582271.0727839 1.205566-.1217475 1.757399.1217476zm12.775565-.2660316c.170711.4472898.037053.9739802.07146 1.4530303-.47508.092634-1.077201-.1667412-1.457.1707112-.00794.3586259-.006617.7185752.00397 1.0785244.06749.2659919.255405.5028702.232908.7900356-.001323.9250166.00397 1.8500332-.002647 2.7763731-.050287.3387758.287166.5835942.254082.9236933-.021173.6021209.070137 1.220122-.096604 1.8090095-.535954.00397-1.070584.0092634-1.603891.0026467l-.001323-.1204242c-.055581-1.1830684.128364-2.3926037-.190562-3.5505286-.124394-1.2042419-.009263-2.4203939-.070137-3.6286058-.4195-.0119101-.840323.0132334-1.259822-.0132335-.295106-.1640945-.113808-.5227204-.244819-.7728321-.084694-.1865914-.144244-.3903862-.082047-.5928576.214382-.1561544.42347-.3864161.715928-.3361291 1.242619.0079401 2.487885-.0224968 3.730504.0105868zm-5.206017.2527849c.160124.7516587.013233 1.5258142.08734 2.2840896.04764.2289383.150861.4486132.131011.6894616-.00397 1.8553265.00397 3.7106531 0 5.5659796-.330836.4486132-1.045441.3308357-1.549634.3348057-.001324-.4009728.0397-.8165024-.160257-1.1804217-.088532-1.7865127.063653-3.5889056-.099251-5.3740949.033084-.7715089-.073975-1.5549278.072916-2.3171732.496254-.138951 1.021621-.1495377 1.517875-.0026467zm-3.800681.0304501c.575655.3559792 1.081171.8813463 1.392157 1.4887606.01985 2.0313312.022497 4.0639856.001323 6.0953168-.419499.2990754-.742395.702695-1.111608 1.0560275-.365242.1958547-.801945.2262916-1.210858.2223216-.734455-.0066167-1.468911.0052933-2.202043-.0105868-.01588-2.0128043-.006616-4.0242853 0-6.0357663.214382-.9395733.091311-1.9069369.134981-2.8623904.996478.0291136 2.006188-.058227 2.996048.046317zm-.181298 6.5333432c.00397-1.4186234.002647-2.8372468.001324-4.2558703.02779-.239525-.141598-.416853-.255405-.6047676-.332159-.0079401-.662995-.0079401-.993831-.0052934.021174 1.8235663.01985 3.648456 0 5.4733456.330836.0026467.662995.0013234.993831-.00397.108514-.1905613.273932-.3692126.254081-.6034443zm28.019176-6.1535703c.414207.324219.704019.7688622.901197 1.2518823.029113.4367031.03176.8773762-.002647 1.3154027-.213058.46714-.525367.8866396-.89458 1.2426188-.752982.2501118-1.618448.281872-2.366136.0026467-.3798-.3030455-.700049-.6815215-.93031-1.1089612-.037054-.5293371-.035731-1.0639676-.001324-1.5933047.301722-.6722581.88267-1.2029186 1.607862-1.3656897.575654-.1508611 1.152631.0436703 1.685938.2554051zm-1.347163 2.9153241c.483021-.1495377.876053-.517427 1.011034-1.0110338-.092634-.3255424-.330835-.5796242-.51478-.8548795-.277902-.0092634-.610061-.0899873-.803269.1720346-.193208.2342317-.598151.4194997-.561097.7635688.263345.332159.607414.5928575.868112.9303099zm-54.5045045-3.1283955c.8297359-.3109855 1.6766753.1640945 2.2907063.7040184.5781685.5809474.3811227 1.4371502.3811227 2.1729288-.2567284.6484379-.849586 1.1354281-1.5205208 1.3061393-.4856668.0555804-.984567.0423469-1.4637494-.0595505-.414074-.0476403-.6191921-.4472898-.8626871-.7357785-.880023-1.1221947-.2752553-3.1217656 1.1751283-3.3877575zm.7543054 2.9907546c.3493625-.189238.5809475-.5306604.7701855-.8694361-.1693879-.316279-.374506-.6166778-.6590247-.8403227-.5372772-.1905614-1.1129313.2342317-1.2492356.749012-.0119101.563744.5915342 1.0361774 1.1380748.9607468zm11.0273623 12.575766c-.5333072.0555804-1.0414708-.1640945-1.5734546-.1521844-.0727838.4697866.1032208.9911837-.1680645 1.41333-.2395251.4181763.0476403.9488368-.1905614 1.3736298-.2170282.3970028-.1204242.8601728-.1640945 1.2929059-.2990754-.0304369-.6974016.1270409-.887963-.181298-.0132334-.4472898-.0979273-.9303099.1230709-1.3405462.2659919-.420823-.0330836-.9528068.2077648-1.3775998.2474651-.3996495.1045441-.883993.1601245-1.3246661-.2884887-.0052934-.5769774-.0079401-.8654662-.0066167-.235555-.2302617-.7000483-.610061-.3043688-.9197232.4115596-.0211735.8323826-.0277902 1.2333555.0899873.382446.1018974.8019457-.0449937 1.1645416.1495377.3970028.1998248.9369267-.1177775 1.2584989.235555.0198502.2487884.0092634.4975769.0066168.7476887zm35.1612438 2.331677c.119101.4328654.03176.8972264.044993 1.3431929-.300398-.0410237-.721221.1680645-.907813-.1574778.01588-.47111.046317-.9528068-.213058-1.3709831.018527-.5108103-.138951-1.0494108-.643145-1.2730557-.209088.1349809-.419499.2673152-.625941.4049428.039701.6644504-.132334 1.3709831.176005 1.9889842.014557.1985014.001323.3970028-.001323.5968276-.308339.0754305-.624618.1032207-.939574.1283642.116454-.4552299-.205118-.8442926-.153508-1.2929058-.00397-.2977522.039701-.6127077-.120424-.880023-.258052-.4194996.03176-.9448667-.199825-1.367013-.269961-.4592-.190561-1.0216206-.0794-1.5152275.259375-.0727838.51875-.146891.783419-.1985014.108514.2527585.161448.5188827.078077.7888446-.108514.3730503.152184.699916.264669 1.0386917.138951-.1376276.275255-.2777696.426116-.4009728.592858-.1336576 1.242619.0013233 1.684615.4261163.348039.5227204.117778 1.2015953.426117 1.7401958zm-4.793187-1.0281712c.313632.6180011.168064 1.3114327.222321 1.9757508.320249.0304368.637851.0780772.952807.1482143-.009264.2606986-.017204.5213971-.037054.7820956-.407589.0158801-.832382.1032207-1.229385-.0172034-.689462-.5452173-.677552-1.4967007-.640498-2.293353.038377-.4181764-.457877-.4194997-.739749-.5187504-.123071.7119584-.222321 1.4265635-.484343 2.1054383-.140274.3096622-.060874.6616714-.089987.9911838-.284519.0092633-.567714.0132334-.85091.0066167-.415529-.6312345-.771509-1.3193728-.913106-2.0670614-.296429.606091-.321573 1.2876125-.476404 1.9334037-.09528.1363043-.209088.2580519-.310985.3890628-.182622-.0013233-.363919-.0052934-.543894-.0132334-.268639-.1323343-.300399-.4658167-.412883-.7119584-.378476-.8786996-.676228-1.7891594-1.067938-2.663889.103221-.3070155.456554-.1508611.697402-.1746812.297752-.0158801.382446.3308357.457877.5558039.205118.5240438.332159 1.0824944.607414 1.5761013.157478-.8032691.341422-1.6012448.616678-2.374077.242171.0013234.484343 0 .727838.0013234.156155.7198984.484344 1.3855399.719899 2.0816181.05955.0052934.177328.0145568.236878.0185268-.048964-.7675388.181298-1.498024.244818-2.2562994.460524-.0476403.9184-.1243942 1.382894-.1124841-.046317-.332159 0-.6577013.132334-.9660402.248788.0238202.48699.100574.717252.1945314.052933.2183515.113807.4340564.173358.652408.195854-.0066168.391709-.0119101.588887-.0145568.117778.2170282.242172.428763.375829.6378512-.338775.1296876-.701371.1283642-1.05735.1336576zm-16.289 3.2858733c-.288489-.3666983-.469787-.8045924-.665641-1.224092-.010587-.4419965-.021174-.8853163.00794-1.3246661.332159-.5030026.45126-1.2346788 1.067937-1.4794972.353333-.1535078.719899-.273932 1.078525-.416853.395679-.0185268.794005-.0211735 1.191008 0 .255405.1217475.501547.2659919.746365.4115596-.056903.1640945-.113807.328189-.169387.4936068-.700049-.0013233-1.400097-.0080723-2.100145 0-.239525.2792254-.562421.4975769-.717252.8403227-.436703.7516587-.186592 1.8910568.621971 2.293353.436703.3427458 1.026914.1455677 1.537724.1746812-.00794-.4050752-.00794-.8085624.002647-1.2121819-.292459-.0039701-.583594.0238201-.873406.0529337-.058227-.1654179-.117778-.328189-.178652-.4909602.043671-.0899873.129688-.2673152.173358-.3559792.606091 0 1.213506-.0119101 1.819597.0145568.02382.8297359.013233 1.6594718.010586 2.4905311-.738425.3215722-1.557574.1574777-2.338346.1930757-.4592.0330835-.833706-.2513028-1.214829-.460391zm-13.8553722-3.9303809c.6550546-.1045441 1.5244908-.1363043 1.8870868.5425705.3771526.4234697.3096622.9978005.2871653 1.5218442-.1865913.2884887-.5650673.142921-.8482627.1455677-.4777267-.2845187-1.026914-.2249683-1.5575744-.2236449.0397003.2368783-.0780772.6034443.2421717.6762281.5108103.4022962 1.1790984.2117349 1.775926.2580519.0105867.2157048.0172035.4340564.0224968.6524079-.6087376.0158802-1.220122.0516104-1.826213-.0066167-.4989002-.0661671-.8125324-.5002235-1.0944044-.8720829-.0436703-.47508-.0410237-.9581001-.0013234-1.4331802.1402744-.2765786.2633452-.5610973.4075896-.8363526.2302616-.1495377.46317-.2951054.7053417-.424793zm-.2805487 1.2995226c.5399239.0211735 1.0798477.0224968 1.6184482.0119101-.0741072-.2845187-.2884887-.4843435-.4830201-.6894616-.5240437-.1085141-.8403226.3228956-1.1354281.6775515zm3.3136238-1.025551c.7556291-.0158801 1.6210951-.104544 2.1808691.5174271.078077 1.085141.026467 2.1821922.013233 3.2713033-.389063.0621971-.762245-.0238202-1.079847-.2580519-.205119.1561545-.426117.3440691-.7040188.2699619-.4261164-.1363043-.7940057-.4075895-1.1314581-.6947549.0066167-.4128829-.1018974-.8760529.1945314-1.2187987.3890628-.6285878 1.2148285-.5452172 1.8434165-.698725-.042347-.6669647-.9792737-.4936068-1.3762765-.2540818-.1111608-.1733579-.3533325-.328189-.281872-.5624206.1058674-.1311433.2276149-.2487885.3414224-.3718594zm1.3630431 2.5924285c.04764-.2077648.017203-.4234697.014557-.6338812-.153508.0092634-.325543-.0158801-.453907.0899873-.321572.0621971-.7900355.092634-.8257657.5147804-.0688138.3625959.3414227.4922835.5703607.664318.244818-.1958547.524044-.3652426.694755-.6352045zm2.417747 1.3828535c-.272608-.0013234-.543894-.0026467-.813856-.0079401.00794-.9978004-.101897-2.0128043.113808-2.9947246.041023-.2395251-.054257-.5187504.088664-.7278385.353332-.0952807.641821.1071907.917076.3003988.493607-.610061 1.328636-.235555 1.775926.235555.464494-.4989002 1.208212-.281872 1.806363-.2329084.334806.4194997.513457.9395734.488314 1.4781739-.067491.6722581-.033084 1.3498096-.033084 2.0260378-.289812.1415976-.611384.197178-.9184.0661671-.03573-.8786996.026467-1.7587225-.001323-2.6374221-.207765-.1151308-.412883-.235555-.610061-.3652426-.183945.1680645-.375829.3308357-.570361.4869901.013234.7807723.00794 1.5602211.001323 2.3409934-.363919.1243942-.743718.1230708-1.111607.01191.092634-.1879146.222321-.3705359.203794-.5888875-.009263-.6669647.037054-1.3378995-.022496-2.0008942-.183945-.3176023-.576978-.185268-.87473-.2130582-.676228.799299-.121748 1.9042902-.43935 2.8226901zm14.331789.0463699c-.825766-.1971781-1.062644-1.1460148-1.273056-1.8540032.218352-.5321161.342746-1.1830684.83106-1.540371.194531-.1865913.47905-.1323342.723868-.1521844.445967.0013234.893256-.0185268 1.339223.0238202.566391.3467158.837676 1.0202973.868113 1.6581485.189238 1.2584989-1.324666 2.4389207-2.489208 1.8645899zm-.160124-2.3833403c.05558.4340564-.158802.9686869.182621 1.3180494.281872.3506858.858849.4261164 1.226739.1799746.189238-.324219.410236-.6656414.318925-1.0586742-.136304-.3453925-.340099-.660348-.587564-.93428-.477727-.1071907-.842969.1535078-1.140721.4949302zm-10.377641 8.2272087c.074107-.1508611.242172-.2170282.371859-.3070155.489637-.2911354.951484-.652408 1.507288-.8112091.005293.1363043.014556.4075895.018526.5438938.198502-.0767538.398327-.1495377.599475-.2170282.647114.5386005 1.054704 1.2942292 1.533754 1.9757508-.185268.1733579-.371859.3440691-.565067.5068402.432733.7013717.925016 1.3696598 1.48082 1.9810442.410236-.1799747.533307-.6404979.813856-.9514835.238202-.2871654.4195-.6153544.661671-.8985497-.156154-.1707112-.309662-.3400991-.4592-.513457.341423-.6735815.718575-1.355103 1.275703-1.8751767.393033-.0913106.763569-.3056922 1.167188-.3255423.573007.1971781 1.046764.5941809 1.554928.9131065-.133658.1535077-.267315.3070155-.39965.4618466.550511.0516104 1.103668.0939573 1.656825.1310109.056904.0701372.170712.2117349.227615.281872-.47508.2792254-.651084.8178259-1.030884 1.1883618-.228938.2540819-.496253.4724334-.721221.7304852-.283196.412883-.509487.8654662-.841646 1.2465889-.285842-.2805486-.565068-.5690374-.82312-.8747295-.313632.656378-.925016 1.085141-1.269085 1.7216689-.080724.1257175-.215705.2673152-.091311.416853.275255.3374524.598151.6365278.947513.8985497-.332159.4909602-.877376.7543054-1.318049 1.1301347-.179975.1191009-.374506.3149556-.608738.2051181-.234231-.2236449-.449936-.4644933-.688138-.6815215-.349362.2236449-.555804.787389-1.024267.741072-.562421-.4697867-1.193655-.8575262-1.668735-1.4278869.307015-.3374524.656378-.6325578 1.04147-.8773762.01191-.042347.035731-.1270409.046317-.1693879-.509487-.614031-1.083817-1.2108586-1.415976-1.9426672-.048964.0013234-.148215.0039701-.198502.0052934-.121747.3400991-.363919.6047676-.619324.8522327-.444643-.4062662-.709312-.9554534-1.103668-1.4040666-.414206-.6881383-1.206889-1.0705843-1.528461-1.818273.44332-.3665659.996477-.4472898 1.554928-.3692126-.03176-.1561545-.074107-.3096622-.084694-.46714zm-.747676 2.4110908c.285842.2461418.529338.5346305.718576.8628195.312308.4036195.844292.8244425.737101 1.3881865-.295105.3149556-.58624.6352046-.832382.9925071-.440673-.2143815-.92237-.374506-1.277026-.7265152-.336129-.336129-.835029-.5002235-1.053381-.9475134-.337452-.420823-.428763-.9620702-.698725-1.4199468-.177328-.2924587-.112484-.660348-.0794-.9832436.363919-.3586259.872083-.648438 1.394803-.4684634.445967.3612726.652408.93031 1.090434 1.3021693zm13.212228 1.4490868c-.685491.7437186-1.44509 1.5006707-2.442891 1.7904827-.220998-.3453924-.457876-.6788748-.723868-.9911837-.042347-.2090881-.014557-.424793-.014557-.6352045.959424-.8734062 1.546988-2.0869115 2.563315-2.9113541.516104-.1905613 1.026914.1111608 1.38554.4658167.056904.2368783.056904.4989002-.054257.7212218-.219675.5253671-.346716 1.1089612-.713282 1.5602211zm-5.347588 3.3877045c.284518-.2408484.591534-.5055169.988537-.4949302.608737.7623778 1.193655 1.540371 1.705789 2.3727536-.4195.5002236-.970011.8575261-1.513905 1.2082119-.51081.1642269-.733131-.3295123-.936926-.6854915-.48699-.5028703-.901197-1.0691286-1.30614-1.6368427.350686-.2593752.738426-.469919 1.062645-.7637011zm-3.367934 1.0772275c-.477727.3559792-.664318.9475134-1.128811 1.3140793-.269962.1971781-.271286.7013717-.670935.7053417-.776802-.0741072-1.280996-.7543053-1.82092-1.2426188.557127-.833706 1.054704-1.7203456 1.82886-2.3793703.685491.2514351 1.151308.8284126 1.771956 1.1830684.005293.1045441.014557.3149556.01985.4194997zm3.8536 8.6970351c.260699.2104115.514781.4353797.714606.7093117-.320249.0397003-.641822.046317-.963394.0449936-.381123-.4155296-.273932-.9832436-.272609-1.4967006-.07543-.0621971-.223645-.1865914-.297752-.2474651.02382-.1918847.056904-.3824461.095281-.5690374.087341-.2699619.46714-.2831954.688138-.420823-.072784.4684633.333483.6656414.741072.6696114-.021173.0873406-.06352.2606985-.084694.3480392-.209088.0582271-.419499.1151308-.628588.1707112.00397.2633452.005294.5266904.00794.791359zm5.200698-2.0194476c.452583.2898121.860173.7582754.913106 1.3101094-.415529.0224968-.828412.0674904-1.237325.1442443.001323.0701372.005293.2117349.006617.281872.395679-.0370536.794005-.0780772 1.192331-.050287.001324.1323343.00397.2659919.006617.3996495-.452583.277902-.956777.3692127-1.48082.2977521-.365243-.424793-.735779-.9197232-.670935-1.5125807-.101898.0410236-.307016.1243942-.408913.1667412.026467.4949302.08337.9898603.048964 1.4874372-.217029-.0013233-.434057-.0052934-.651085-.0105867-.030437-.5068403.084694-1.0388241-.093957-1.5258142-.338776.4261163-.138951.988537-.183945 1.4861139-.473757.0939573-.91046.3506858-1.406713.3070155-.161448-.1482144-.322896-.2964288-.489637-.4353798-.005294-.5822708-.006617-1.1645416.006616-1.7468124.103221.0132334.308339.0410236.410237.0542571-.029114.46714.160124.8945797.287165 1.3352528.009263.2434951.4989.1680645.400973-.100574.022497-.46714-.01191-.9329567.021173-1.3987733.297753-.0185268.576978.0741072.849586.1852679l-.04367-.1204241c.426117-.0714606.841646-.1918847 1.245266-.3467158.074107.1865913.144244.374506.211735.5650673.12307-.4697867.631234-.7040183 1.066614-.7728322zm-.705342 1.0970512c.281872-.0714605.559774-.1614478.824443-.2858421-.333483-.2382016-.678875-.054257-.824443.2858421zm-6.496276-.3903464c.258052.0608737.528014.1058674.758275.2461417.381123.4764034.39568 1.119548.393033 1.7031422-.203795.0264668-.40759.054257-.611384.0820472-.029114-.4142063.010586-.8389993-.092634-1.2439422-.162772-.2514351-.476404-.1349809-.717252-.1270409-.029114.4936069-.033084.9872137-.033084 1.4821439-.115131.0198501-.345392.0621971-.460523.0820472-.341422-.7119584-.104544-1.5390476-.160124-2.301293.309662-.0052934.618001.0344069.923693.0767539zm-2.270843 1.5443013c.4592-.0317603.917076.00794 1.284966.3162789-.255406.1746812-.520074.3374524-.794006.4803734-.325542-.1521844-.656378-.2884887-.992507-.4102362-.140274-.4605233-.317602-1.0017705-.006617-1.4345036.195855-.5081636.801946-.555804 1.267763-.5703607.13101.2117348.292458.4022962.459199.5875642-.005293.2448184-.013233.4909601-.021173.7384252-.400973-.00397-.803269-.00794-1.204242.0026467.001323.0727839.005293.2170282.006617.2898121zm.321572-1.115578c-.265992-.100574-.391709.2090882-.551834.3573026.330836.0238201.662995.0238201.995154-.0039701-.141598-.1257175-.272609-.2699619-.44332-.3533325zm3.796657-23.9300203c-.239525-.4472898-.121747-.9673635-.134981-1.4503836.330836-.0264669.659025.0105867.985891.0489636.182621-.0846939.350685-.1958547.537277-.2712852.211735-.0304369.400973.1058674.603444.150861-.01588.2527585-.04367.5041936-.105867.7503354-.281872.050287-.565068.1032207-.849586.1376276-.186592.8694362-.038377 1.7706326-.087341 2.6533023-.316279.1376276-.639175.1177775-.94222-.0436704-.001323-.6590246.03176-1.3193727-.006617-1.9757507zm-5.478665 23.7791857c.134981-.2064415.54257-.5955042.643144-.1627711-.050287.2673152-.178651.5134569-.243495.7794488-.050287.4353798-.244818.837676-.555804 1.1486616-.181298.0158801-.362596.0224968-.543894.0211734-.136304-.6775515-.381122-1.3365761-.673581-1.9611939-.186591.6577013.109837 1.3723064-.182621 2.0075109-.43141-.1905613-.87473-.3374524-1.352457-.2937821-.387739.0661672-.444643-.3692126-.610061-.6153543-.009263.2064414-.013233.4128829-.014556.6206477-.120425-.0066167-.361273-.0185268-.481697-.0251435-.160125-.3189256-.328189-.6325578-.489637-.9501601-.202471.00397-.404943.0119101-.607414.0158801-.146891.2289383-.287166.46317-.438027.6907849-.169388-.054257-.336129-.1138074-.500223-.1773279.009263-.1098374.02779-.3308357.037053-.4406731.4592-.690785.827089-1.4345036 1.220122-2.1623421.205118-.0158801.408913-.0291135.615355-.0410236.160124.6709348.255405 1.3789231.58227 1.9929542.174682-.3215723.366566-.6338812.590211-.9236933.309663-.0198501.619325-.0211735.928987-.0105867.026467-.3123089.092634-.6166777.176005-.9170765.218351.0357302.432733.0979273.651084.1402743.001324.2514351-.002646.5015469-.010587.7543054.281872.0979273.555804.2209982.792683.4062662.00794.2567285.013233.5147803.025143.7728322.354656-.0291136.275256-.4486132.441997-.6696115zm-2.223216.9991238c.201148-.3083389.201148-.648438-.002647-.9554535-.254082.042347-.618001-.0780772-.707988.2501118-.178651.2196749.041023.4816968.104544.702695.201148-.0013233.403619-.0013233.606091.0026467zm-2.685063-.9289866c.179975 0 .361273-.0026467.542571-.0092634-.04764-.2712853-.109837-.5412472-.182621-.8059158-.197178.2329084-.353333.501547-.35995.8151792z" fill="#266cf3"/></g></svg>