<svg height="56" viewBox="0 0 69 56" width="69" xmlns="http://www.w3.org/2000/svg"><g fill="none" fill-rule="evenodd" transform="translate(-78 -12)"><path d="m0 0h224v80h-224z"/><path d="m91.1064305 61.6374247h.5708107c1.8000621.0328951 1.874304-2.2003142 1.874304-2.2265084 0 0 .3657327.0097467.3730351 0l.0030427 5.2534634h-.3791205c-.2099464-1.7732876-.7965792-2.3751454-1.8256208-2.4007304h-.6164512v5.081678h1.0631198c2.2960223 0 3.1132919-.4922076 3.5295334-3.7238429h.4186757v4.2733123h-8.3509978v-.5506877h1.5463008v-10.4581934h-1.4032938v-.559216l8.1033219-.0030459v4.064977h-.3140068c-.5184763-3.6525704-1.6101975-3.5027151-4.5853507-3.5027151zm-3.3113109.209371v.5184018h-1.232294v5.5300256c-.0048683-.0042641-1.4556283-1.1647289-1.4604966-1.150718-.4351063.6676479-1.248116 1.2554949-2.4025169 1.2554949-3.6713233 0-4.6833257-3.7445547-4.6997563-5.941823-.0097366-2.4019488 1.2535929-5.8443562 4.6997563-5.8443562 1.7775461 0 2.4335524.9289809 2.4025169.9356817.0048683.0152292 1.3722582-.9941619 1.3649558-.9667493.0073024-.0085284-.0042598 3.473475-.0042598 4.2044764h-.3170495c-.4180671-1.7763334-1.4617137-3.7536922-3.4461634-3.7536922-2.8157157 0-2.7110468 4.37748-2.7110468 5.4246396 0 1.1452355-.2093378 5.4215937 2.7110468 5.4215937.4186757 0 1.8244037-.3983958 2.0891187-1.3541801v-3.7603931h-1.5657741v-.5184018zm53.4211924 1.7746277h.419284v4.2739249l-10.45533-.0000033v-.5561703h1.337572c-.010346 0-1.206127-3.0909176-1.204302-3.0836075h-3.837454s-.722338 1.8701452-.67974 2.3915929c.064505.7194272 1.097198.6901871 1.254202.6901871v.5579978h-2.818759c-4.472162.0048733-.474053-5.3021969-3.886746-5.5836324h-1.966802v5.0274621h1.475101v.5561703l-4.729575.0000033v-.5561736h1.475102v-10.4563658h-1.475102v-.5622619h5.765919c2.030699.0767551 3.246562.9460376 3.246562 2.6955676 0 2.4957606-2.623417 3.0385292-2.623417 3.0385292-.023733.0231484 1.010177.0676176 1.615066.6780038.540384.5427685.579331 1.7245541.579331 2.2441743v1.9810138c0 .0999035-.038947.381339.500828.3551448.585416-.112696.861085-1.0258386.853782-.9953802.007303-.0304584 3.565437-10.318694 3.551441-10.3119931h.628013l4.266476 11.33174h1.158661v-10.4563658h-1.460497v-.5628711h4.801991v.5628711h-1.460496v10.4563658h.139964c2.294805 0 3.113292-.4842884 3.528925-3.7159238zm-13.479775.0999036h3.443729l-1.776937-5.0006588zm-6.474868-1.996243c1.465365 0 1.988709-1.2329557 1.988709-2.486014 0-.5184018-.057811-2.1467074-1.465365-2.3599161h-2.398257v4.8459301zm-10.823984-4.8461738v4.7588191h.570811c1.80067.0322859 1.874912-2.2009234 1.874912-2.2271176 0 0 .365733.0103559.373035 0l.003043 5.2534634h-.379729c-.209946-1.7732876-.795971-2.3745362-1.825621-2.4001213h-.616451v5.0816781h1.06312c2.296631 0 3.1139-.4928168 3.530142-3.7244521h.418675v4.2739253l-8.351606-.0000038v-.5506877h1.546909v-10.4655034h-1.357044c-.416242 0-1.405728.0310676-1.462931.9027867v10.1134044h-.206904c-.037729.0054825-4.167892-5.9600981-6.355594-9.0906116l-.014605 7.5250503c0 .8339507 1.256027 1.1501088 1.776938 1.1501088v.4154525h-4.0717433v-.4154525h.0060854c.5209105 0 1.768418-.3161581 1.768418-1.1501088v-8.5478431c-.0377295-.8759833-.8702126-.9027867-1.4629308-.9027867h-.5002201v-.5549519h3.0098401l5.5273707 8.1293447v-6.6716061h.000609c-.057203-.8717191-1.046689-.9027867-1.463539-.9027867h-.309139v-.5549519h11.815418v4.064977h-.314007c-.518477-3.6525704-1.616892-3.5100251-4.593262-3.5100251zm36.449431.0017666h-1.480579v10.4508833h1.480579v.5634803h-4.713753v-.5634803h1.485447l-.004869-10.4508833h-1.480578v-.5640894h4.713753zm-12.446778-7.6993941h12.559662v3.5879985h-68.9883819v-17.9990819l3.7613872-.9777144c-.6401843-1.023402-.8215293-2.3647895-.3170494-3.1390419.4643162-.7090713 1.4112048-1.33956 2.5887302-1.33956h.0261672c.097975-.1565562.2129891-.2984923.3444338-.4239808.4533624-.428245 1.0692052-.6432813 1.7818058-.6195237 1.1026749.0347225 2.3453141.6304887 3.4078254 1.6155131l1.490315-2.4019488-.3566046-.3179856-.1046689-.1066044c-.1606546-.1608203-.3918999-.4319-.3918999-.9137517 0-.4800243.4801383-1.016092 1.4915321-1.1117313l1.4045109-.1504645c.6913017-.0499517 1.655838-.45383 1.655838-1.2018881 0-.2741255-.2488929-.522666-.522736-.522666-.2166404.0237575-.8775151.4629675-1.1270166.6286612-.6140171.4063149-1.1945645.7383114-1.9047309.7383114-.9767071 0-1.7714607-.6907963-1.7714607-1.6045481 0-.2771713.0724163-.5500785.2105549-.787654l.0121708-.0213209c-.2111634-.2278287-.4095475-.5293668-.4783126-.8985225-.0620711-.3380882-.038338-.8540533.4278038-1.3986494.4691845-.5488602 1.0722479-1.32494 1.5675997-2.4458088l.0219074-.0438601.4144159-.7779073c.1071031-.163257.2616723-.3307782.460665-.4952535.3133982-.6420629.741202-1.3292042 1.1830022-1.8969486.4065049-.5208385.9663619-.943601 1.3649558-1.2067615.4649247-.3070206 1.0375611-.5665261 1.6126316-.7334381 1.737991-.5001267 3.9208248-.116351 5.8395518 1.0264478 1.379561.8211583 2.456677 2.2149343 3.045136 3.8566416l.022516-.079801c.723554-2.2959536 2.659929-3.7811047 4.932827-3.7811047h34.599773l-.460665 1.0100002c-1.117889 2.4555556-3.065826 3.7000855-5.790261 3.7000855h-.364515c-1.117889 2.3178836-3.00984 3.50637-5.627172 3.5301276-1.13371 2.2929077-3.03905 3.4582457-5.670986 3.4582457h-10.211306c.055986.2528047.084587.5360677.084587.8552717 0 .2363571-.030427.464795-.082761.6853138.781974.0578709 1.776937.1394994 2.746951.2186913 1.439197.1187877 2.927078.2400121 3.646981.2802172.367559.0194933.711384.0371592 1.041213.0529976 1.591332.0779734 2.847968.1394994 4.622471.4331183 2.567432.42459 4.676632 1.5893189 6.270399 3.4631191.593327.6987155 1.147098 1.4760137 1.690525 2.3775821.598803.9929435 1.099023 2.0522864 1.568208 3.1073651h.021907v.0499518c.133879.3009289.265324.6024669.395552.90035l.164914.3801207c.757024 1.9986797 1.386863 3.618457 2.011834 4.8605502 1.377735-.6176962 3.077997-.2235646 3.793031.9375093.15031.2436671.275061.4641859.395552.6767854.292707.519011.547077.9673586 1.070422 1.5454588l.819704.9058326-1.192131.2698614c-.477095.1084318-.920721.1596019-1.336354.1596019-3.056089.0012184-4.546404-2.8161829-6.122524-6.823898v5.5757131c.097367 1.379156-.197775 1.9152237-2.269246 2.7747595l-.021299.0067009zm-4.35228-2.4738306c-.247676.6365804-.023733 1.5180463.598804 2.3629621l4.697322-1.7726784c.298793-.1236611 1.159269-.4830701 1.352785-.736484.057203-.0761459.057203-.218082.026167-.6365803l-.001826-.0523885v-9.1076683c-.345042-.7663331-.706515-1.5284021-1.108151-2.2478293-5.573621-.6688662-7.048722-1.2841258-9.9259-5.9607072-.575071-.0420326-1.15075-.0706635-1.779372-.1011219-.332263-.0164475-.679131-.0335042-1.049123-.0536067-.739985-.039596-2.171272-.1571653-3.687146-.2820448-1.267589-.1035585-2.577168-.2119904-3.38896-.2643788-.558032.5774911-1.344266.9387276-2.216912.9387276-.719904 0-1.249942-.2150362-2.201699-.628052v-.0006092c-.205687-.0877201-.411373-.174222-.61706-.2625513l1.099632-.9874611c.209947.0889385.418676.1772679.628014.2668156.488049.1985887.765543.2735163 1.091113.2735163.948105 0 1.718517-.7474489 1.718517-1.6642465 0-.5799278-.118665-.7961824-.161872-.8552717h-4.737485l.666351-1.4278894h4.519629c1.833531 0 3.133982-.6512004 4.030362-2.0279197h-7.397416l.665743-1.4284985h8.291361c1.86761 0 3.182666-.6743488 4.08148-2.1040657h-11.434471l.666351-1.4284986h12.758655c1.756247 0 3.023836-.595157 3.915956-1.8524794h-21.083485c-1.632105 0-3.03053 1.0867554-3.566046 2.7698861l-1.196998 4.2915874c-.268975 1.2134624-.665135 2.417178-.905508 3.1024918.851956.5360677 1.748944 1.3547893 1.748944 3.139651 0 1.7842526-1.183002 3.1463519-2.565605 3.8127815.311572.4836793.484398 1.0502053.484398 1.636834 0 1.5277929-1.145882 2.798517-2.641674 3.0373108-.192907.5537335-.414415 1.045332-.690693 1.4711403v6.1367568c0 .911315-.736942 1.6526723-1.6424498 1.6526723h-.2148147c-.3687754 0-1.2736748.0663993-1.70087.6816588-.3614729.5214477-.3523448 1.3943852.0237331 2.5365749.8531734.2168637 2.1846594.018275 2.8011104-.8315141l.214815-.2948373h.363907.012779c.999832 0 2.187094-.0487334 2.544916-.4203258.059028-.0603076.236722-.2461038.205686-.9990352-.004259-.0919844-.004868-.7760798.745462-1.3675818-.836743-2.2021417.030427-5.6299291.14179-6.0514733l.14605-.5470327.565334.0164476c3.097469.0932026 4.941955-.5025635 7.076714-1.1897048.53369-.1711762 1.085027-.348444 1.674703-.5214477.198992-.0639626 2.64289-.8290774 4.573788-.8302957.172826-.0042642 1.931507.0048733 3.701751 1.1513272l.107103.0694451.009736-.0048734c.001826.0048734.00426.0109651.006694.0158384 1.657055 1.0715262 3.238043 2.083354 10.055519 2.6340417 1.771461.144982 2.055649 1.5040354 2.149364 1.9505554l.011563.0737093.344433 3.4052482-3.813721.8516167c-.376078.0724909-.649313.3009289-.789277.6615562zm-1.016262 2.4738306c-.546469-1.038022-.665743-2.094319-.316441-2.9916232.315832-.8138483.986444-1.3748918 1.839009-1.5442405l2.547349-.5683536-.213598-2.1058932c-.116231-.5342402-.271409-.7340472-.85865-.7833898-4.873799-.3929133-7.269013-1.0538604-8.848784-1.7885168.547078 1.1129497 1.072857 2.1978776 1.265764 2.7644037.338348.9813693.082153 1.9810137-.721729 2.8125278l-3.979853 4.2050856zm-16.75007 0h5.495118l4.914571-5.1925466c.642619-.6652113.461274-1.1897048.401637-1.3620993-.186214-.5500785-.856825-1.909132-1.395383-3.0007607-.288448-.5860195-.548295-1.114168-.734508-1.5143913-1.377127-.802274-2.662972-.7821715-2.675752-.7846081l-.017039.0012183c-.394334 0-.820312.0383776-1.244465.098076l2.563172 4.2294523c1.017479 1.4766228.021299 2.6340417-.306704 3.0159899l-.018257.0188842-1.91751 2.0705615h-.377903l-.068157-.0121834-2.714698-.5043909c-.478921-.068836-1.155618.0846743-1.596201.5902836-.460665.5269302-.565334 1.3346867-.307921 2.3465145zm-.769804-3.2864605c.70469-.8065382 1.843877-1.223209 2.902129-1.059952l.021299.003655 2.341662.4349458 1.428853-1.5430221c.517259-.6030761.481355-.8705008.197167-1.2762066l-.025559-.0395959-2.850402-4.7021665c-.805099.1876237-1.395992.3758565-1.408162.3795116l-.01704.0060916c-.574462.1675212-1.119105.3423524-1.646709.5123102-2.021571.6512004-3.93969 1.2676782-6.904498 1.2676782h-.067548c-.289665 1.364536-.615234 3.876135.132053 5.0256347l.451537.6962788-.753373.3435707c-.428412.1937153-.523344.3904765-.542209.4416466.019473.5817553-.031644 1.3968219-.603672 1.992588-.471619.4903801-1.154401.7102897-2.093378.8034924h8.743506c-.326178-1.658764.176476-2.6925218.694344-3.2864605zm-15.5122992-.3094572c.5714193-.8242041 1.6199341-1.2969183 2.8753527-1.2969183h.2148147c.1174482 0 .2135976-.0999036.2135976-.2235646v-4.8197359c-.72538.3746382-1.6686173.5726177-2.933164.5726177h-.8458709l.1417899-.8333416c.0231245-.1376719.0456405-.2668155.0669394-.3904766.0943237-.5324126.1636973-.9295901.1935158-1.4333719-.5300386.2418397-1.0996322.3935225-1.6290622.4745418v11.5461671h1.4781442c-.4576223-1.5137821-.3839889-2.7211527.2239428-3.5959177zm-3.1327652 2.3440778v-12.0548223l-6.7322807-1.74953-6.7334978 1.74953v12.0548223l6.7334978-1.7537942zm-12.6010428 1.2518399h11.7363071l-5.867545-1.5290113zm2.3477483-17.7474957c-.1618718.2485405-.0310356 1.3212851.6164512 1.970658l2.9045626-.7559773 8.1629589 2.1217316v1.4169243c.7539813-.1486369 1.4404147-.4617492 1.8280548-.8552716l1.141013-1.1604647.08337 1.6240414c.006694.152292.0219075.6274429.0219075.7961824 0 .7212547-.0602455 1.230519-.1466582 1.7598859 1.8670014-.1821412 2.4475488-1.034367 2.9824561-2.7771962l.154569-.504391h.548295c.951148 0 1.723386-.7401389 1.723386-1.6502356 0-.5391136-.278103-1.0471595-.744854-1.3584443l-1.456236-.9734502 1.72156-.3222498c1.25907-.2357479 2.561954-1.3462609 2.561954-2.7954712 0-1.2634141-.589067-1.6612007-1.547518-2.2039692l-.534906-.3033656.219683-.5738361c.23733-.6195237.686433-1.9286253.991312-3.2005678l-.015214-.0048733.091281-.3259048c.171609-.7791257.276277-1.5204829.226986-2.0498498-.166132-1.8244576-1.074682-3.5398742-2.362354-4.5285536.037121 1.3712368-.696778 2.805827-1.8931682 3.6860745l.3852062 2.2033601h-.850131c-.559857 0-.9505398.3094572-.9505398.5878469 0 .1650845.0651138.4940351.1332703.8436975.1040603.529976.2330709 1.1897048.2653235 1.8811103l.0006086.0615259c0 2.5390115-2.7171322 4.0564486-5.3442005 4.0564486h-.046249c-.1886475 0-.5841987-.0152292-1.0491234-.1120869l-1.8633502 2.9818766c.0620711.1224427.2038609.3466165.3024445.5007359.0523344.0816285.0918895.1431545.1010176.1583837.0012171.0024366.0036513.0054825.0048684.0079192.0225159.0359409.0456405.0712726.0675479.1072135.0937152.1462003.2507186.3941316.317658.5366769.0249502.0536067.0377295.0919843.02921.1041677-.2957506.4142341-.5908926.8309049-.8872517 1.2463573.0298185-.0420325-.4028537-.6926238-.4338892-.7474489-.0121708-.0213209-.0718078-.112696-.1417899-.2247829-.0511174-.079801-.1071031-.1699578-.1557863-.2546322-.2519356-.4008324-.5336898-.7974007-.8519563-1.1385347-.8750809-.9399459-1.9528057-1.5393671-2.8132816-1.5673888-.325569-.0091375-.5805474.0670085-.7527643.2290471-.0949322.0901569-.1636973.2065079-.2154232.3636732l-.1916902.587847-.6097573-.1059952c-.8044902-.1394995-1.4477173.2314837-1.7288628.6615562zm8.8147054-5.2479809c-.015822.0749277.0310356.1736129.0906725.217473.3042701.2406213 1.5450837.3386973 1.625411.3417431l.0499003.0012184c1.9497629.0627442 4.2530878-1.0422862 4.2530878-2.7138427-.02921-.5811462-.1411814-1.1531548-.2403734-1.6587641-.0888469-.4544392-.1594376-.8144574-.1594376-1.1172138 0-.882075.6365331-1.6149039 1.549952-1.8951211l-.280537-1.6063756.4344977-.2485405c1.0850273-.6231786 1.7635492-1.9060861 1.5779452-2.983704l-.003652-.02193s-.010345-.0536068-.04138-.1279253l-3.5575266 2.1960501-.2507186-.0322859c-.3426081-.0426418-.6779138-.065181-.9949633-.065181-1.6759198 0-2.487104.6006395-2.6684489.8412608l-.1174483.2223462c-.4716187 1.5582514 1.224383.8503983 1.6473184 1.197624.3712096.3039747-.3298288.9466468-.3298288.9466468-.1819535.1784862-.3140067.3874308-.6091488.3874308-.2945334 0-.5324727-.170567-.5324727-.3874308 0-.3265139-.2708004-.5927203-.6024548-.5927203-.3359142 0-.4521454.1547286-.6523552.435555-.3261775.4928168-.6493124.8930401-.9298495 1.2213815-.0292099.0335042-.1198824.1468095-.1077116.2095538.0249502.1334077.2495015.3118939.3943341.4069241l.6791309.4562667-.7856254 1.052642c-.0060854.0164475-.0085196.0347226-.0085196.0523884 0 .1035586.1521351.2296563.3413911.2296563.2787114 0 .6474868-.2448855 1.1136286-.5543427.7150348-.4739326 1.3521764-.8656275 1.9181189-.8656275 1.05886 0 1.8085816 1.0294936 1.8085816 2.087009-.1716084 1.5625155-1.6978273 2.1796025-3.1972705 2.2319909l-1.2286427-.0389867c-.0845871-.0024367-.1643059.076146-.1856048.1748311zm2.9477689-11.1520355c-.0261672.0322859-.0511173.0676176-.0772846.1011219.3608644-.057871.7539814-.0925935 1.1823937-.0925935.2975762 0 .6054976.0164475.9201129.0487334l2.5223993-1.5576422c-.8184866-.1571653-1.6114146-.1443727-2.3014992.054216-.4338892.1254885-.8787321.3265139-1.2207317.5525152-.4363234.2887456-.8014475.6067312-1.0253904.8936492zm38.4420956-.3673282c-.390683.7425756-.866561 1.3602718-1.426418 1.8524794h7.022554c1.755639 0 3.024445-.5945478 3.916565-1.8524794zm-.477095 5.3850437c1.868218 0 3.183882-.6743488 4.082088-2.1040657h-9.554082c-.411982.8546624-.929241 1.5588604-1.549952 2.1040657zm-5.589442 3.4564182c1.83414 0 3.13459-.6518095 4.03097-2.0279197h-9.541911c-.405896.8199399-.909768 1.4979437-1.511005 2.0279197zm1.614457 5.3631137c-.303662-.0511701-.591501-.0938119-.870213-.1309711 2.092162 3.1798561 3.395046 3.7256704 7.13696 4.2166597-.277494-.3959591-.559857-.7626781-.852565-1.1074671-1.367998-1.6088123-3.189359-2.6108933-5.414182-2.9782215zm14.93236 15.4162103c-.310964-.5068276-1.158052-.6804404-1.857873-.4349458.759458 1.1348797 1.579162 1.7355191 2.662972 1.8031368-.161263-.2509772-.297576-.4909893-.436932-.7383114-.114405-.2004163-.231245-.4081425-.368167-.6298796zm-51.9229658-6.561103v1.4760136l-4.498938-1.1696022v-1.4754045zm-10.4818623 1.4758918v-1.4760137l4.498938-1.1702114v1.4766228zm0 2.9664037v-1.4766229l4.498938-1.1683839v1.4766229zm10.4818623-1.4768056v1.4766228l-4.498938-1.1683839v-1.4766228zm0 2.9688403v1.4754045l-4.498938-1.1696022v-1.4766228zm-10.4818623 1.4752827v-1.4754045l4.498938-1.1708206v1.4766229z" fill="#c42618"/></g></svg>