<?xml version="1.0" encoding="UTF-8"?>
<svg width="69px" height="56px" viewBox="0 0 69 56" version="1.1" xmlns="http://www.w3.org/2000/svg" xmlns:xlink="http://www.w3.org/1999/xlink">
    <!-- Generator: Sketch 50.2 (55047) - http://www.bohemiancoding.com/sketch -->
    <title>2</title>
    <desc>Created with Sketch.</desc>
    <defs></defs>
    <g id="Desktop" stroke="none" stroke-width="1" fill="none" fill-rule="evenodd">
        <g id="logos" transform="translate(-356.000000, -67.000000)">
            <g id="2" transform="translate(278.000000, 55.000000)">
                <rect id="Rectangle-7" x="0" y="0" width="224" height="80"></rect>
                <path d="M91.1064305,61.6374247 L91.6772412,61.6374247 C93.4773033,61.6703198 93.5515452,59.4371105 93.5515452,59.4109163 C93.5515452,59.4109163 93.9172779,59.420663 93.9245803,59.4109163 L93.927623,64.6643797 L93.5485025,64.6643797 C93.3385561,62.8910921 92.7519233,62.2892343 91.7228817,62.2636493 L91.1064305,62.2636493 L91.1064305,67.3453273 L92.1695503,67.3453273 C94.4655726,67.3453273 95.2828422,66.8531197 95.6990837,63.6214844 L96.1177594,63.6214844 L96.1177594,67.8947967 L87.7667616,67.8947967 L87.7667616,67.344109 L89.3130624,67.344109 L89.3130624,56.8859156 L87.9097686,56.8859156 L87.9097686,56.3266996 L96.0130905,56.3236537 L96.0130905,60.3886307 L95.6990837,60.3886307 C95.1806074,56.7360603 94.0888862,56.8859156 91.113733,56.8859156 L91.1064305,61.6374247 Z M87.7951196,61.8467957 L87.7951196,62.3651975 L86.5628256,62.3651975 L86.5628256,67.8952231 C86.5579573,67.890959 85.1071973,66.7304942 85.102329,66.7445051 C84.6672227,67.412153 83.854213,68 82.6998121,68 C79.0284888,68 78.0164864,64.2554453 78.0000558,62.058177 C77.9903192,59.6562282 79.2536487,56.2138208 82.6998121,56.2138208 C84.4773582,56.2138208 85.1333645,57.1428017 85.102329,57.1495025 C85.1071973,57.1647317 86.4745872,56.1553406 86.4672848,56.1827532 C86.4745872,56.1742248 86.463025,59.6562282 86.463025,60.3872296 L86.1459755,60.3872296 C85.7279084,58.6108962 84.6842618,56.6335374 82.6998121,56.6335374 C79.8840964,56.6335374 79.9887653,61.0110174 79.9887653,62.058177 C79.9887653,63.2034125 79.7794275,67.4797707 82.6998121,67.4797707 C83.1184878,67.4797707 84.5242158,67.0813749 84.7889308,66.1255906 L84.7889308,62.3651975 L83.2231567,62.3651975 L83.2231567,61.8467957 L87.7951196,61.8467957 Z M141.216312,63.6214234 L141.635596,63.6214234 L141.635596,67.8953483 L131.180266,67.895345 L131.180266,67.3391747 L132.517838,67.3391747 C132.507492,67.3391747 131.311711,64.2482571 131.313536,64.2555672 L127.476082,64.2555672 C127.476082,64.2555672 126.753744,66.1257124 126.796342,66.6471601 C126.860847,67.3665873 127.89354,67.3373472 128.050544,67.3373472 L128.050544,67.895345 L125.231785,67.895345 C120.759623,67.9002183 124.757732,62.5931481 121.345039,62.3117126 L119.378237,62.3117126 L119.378237,67.3391747 L120.853338,67.3391747 L120.853338,67.895345 L116.123763,67.8953483 L116.123763,67.3391747 L117.598865,67.3391747 L117.598865,56.8828089 L116.123763,56.8828089 L116.123763,56.320547 L121.889682,56.320547 C123.920381,56.3973021 125.136244,57.2665846 125.136244,59.0161146 C125.136244,61.5118752 122.512827,62.0546438 122.512827,62.0546438 C122.489094,62.0777922 123.523004,62.1222614 124.127893,62.7326476 C124.668277,63.2754161 124.707224,64.4572017 124.707224,64.9768219 L124.707224,66.9578357 C124.707224,67.0577392 124.668277,67.3391747 125.208052,67.3129805 C125.793468,67.2002845 126.069137,66.2871419 126.061834,66.3176003 C126.069137,66.2871419 129.627271,55.9989063 129.613275,56.0056072 L130.241288,56.0056072 L134.507764,67.3373472 L135.666425,67.3373472 L135.666425,56.8809814 L134.205928,56.8809814 L134.205928,56.3181103 L139.007919,56.3181103 L139.007919,56.8809814 L137.547423,56.8809814 L137.547423,67.3373472 L137.687387,67.3373472 C139.982192,67.3373472 140.800679,66.8530588 141.216312,63.6214234 Z M127.736537,63.721327 L131.180266,63.721327 L129.403329,58.7206682 L127.736537,63.721327 Z M121.261669,61.725084 C122.727034,61.725084 123.250378,60.4921283 123.250378,59.23907 C123.250378,58.7206682 123.192567,57.0923626 121.785013,56.8791539 L119.386756,56.8791539 L119.386756,61.725084 L121.261669,61.725084 Z M110.437685,56.8789102 L110.437685,61.6377293 L111.008496,61.6377293 C112.809166,61.6700152 112.883408,59.4368059 112.883408,59.4106117 C112.883408,59.4106117 113.249141,59.4209676 113.256443,59.4106117 L113.259486,64.6640751 L112.879757,64.6640751 C112.669811,62.8907875 112.083786,62.2895389 111.054136,62.2639538 L110.437685,62.2639538 L110.437685,67.3456319 L111.500805,67.3456319 C113.797436,67.3456319 114.614705,66.8528151 115.030947,63.6211798 L115.449622,63.6211798 L115.449622,67.8951051 L107.098016,67.8951013 L107.098016,67.3444136 L108.644925,67.3444136 L108.644925,56.8789102 L107.287881,56.8789102 C106.871639,56.8789102 105.882153,56.9099778 105.82495,57.7816969 L105.82495,67.8951013 L105.618046,67.8951013 C105.580317,67.9005838 101.450154,61.9350032 99.262452,58.8044897 L99.247847,66.32954 C99.247847,67.1634907 100.503874,67.4796488 101.024785,67.4796488 L101.024785,67.8951013 L96.9530417,67.8951013 L96.9530417,67.4796488 L96.9591271,67.4796488 C97.4800376,67.4796488 98.7275451,67.1634907 98.7275451,66.32954 L98.7275451,57.7816969 C98.6898156,56.9057136 97.8573325,56.8789102 97.2646143,56.8789102 L96.7643942,56.8789102 L96.7643942,56.3239583 L99.7742343,56.3239583 L105.301605,64.453303 L105.301605,57.7816969 L105.302214,57.7816969 C105.245011,56.9099778 104.255525,56.8789102 103.838675,56.8789102 L103.529536,56.8789102 L103.529536,56.3239583 L115.344954,56.3239583 L115.344954,60.3889353 L115.030947,60.3889353 C114.51247,56.7363649 113.414055,56.8789102 110.437685,56.8789102 Z M146.887116,56.8806768 L145.406537,56.8806768 L145.406537,67.3315601 L146.887116,67.3315601 L146.887116,67.8950404 L142.173363,67.8950404 L142.173363,67.3315601 L143.65881,67.3315601 L143.653941,56.8806768 L142.173363,56.8806768 L142.173363,56.3165874 L146.887116,56.3165874 L146.887116,56.8806768 Z M134.440338,49.1812827 L147,49.1812827 L147,52.7692812 L78.0116181,52.7692812 L78.0116181,34.7701993 L81.7730053,33.7924849 C81.132821,32.7690829 80.951476,31.4276954 81.4559559,30.653443 C81.9202721,29.9443717 82.8671607,29.313883 84.0446861,29.313883 L84.0708533,29.313883 C84.1688283,29.1573268 84.2838424,29.0153907 84.4152871,28.8899022 C84.8686495,28.4616572 85.4844923,28.2466209 86.1970929,28.2703785 C87.2997678,28.305101 88.542407,28.9008672 89.6049183,29.8858916 L91.0952333,27.4839428 L90.7386287,27.1659572 L90.6339598,27.0593528 C90.4733052,26.8985325 90.2420599,26.6274528 90.2420599,26.1456011 C90.2420599,25.6655768 90.7221982,25.1295091 91.733592,25.0338698 L93.1381029,24.8834053 C93.8294046,24.8334536 94.7939409,24.4295753 94.7939409,23.6815172 C94.7939409,23.4073917 94.545048,23.1588512 94.2712049,23.1588512 C94.0545645,23.1826087 93.3936898,23.6218187 93.1441883,23.7875124 C92.5301712,24.1938273 91.9496238,24.5258238 91.2394574,24.5258238 C90.2627503,24.5258238 89.4679967,23.8350275 89.4679967,22.9212757 C89.4679967,22.6441044 89.540413,22.3711972 89.6785516,22.1336217 L89.6907224,22.1123008 C89.479559,21.8844721 89.2811749,21.582934 89.2124098,21.2137783 C89.1503387,20.8756901 89.1740718,20.359725 89.6402136,19.8151289 C90.1093981,19.2662687 90.7124615,18.4901889 91.2078133,17.3693201 L91.2297207,17.32546 L91.6441366,16.5475527 C91.7512397,16.3842957 91.9058089,16.2167745 92.1048016,16.0522992 C92.4181998,15.4102363 92.8460036,14.723095 93.2878038,14.1553506 C93.6943087,13.6345121 94.2541657,13.2117496 94.6527596,12.9485891 C95.1176843,12.6415685 95.6903207,12.382063 96.2653912,12.215151 C98.0033822,11.7150243 100.186216,12.0988 102.104943,13.2415988 C103.484504,14.0627571 104.56162,15.4565331 105.150079,17.0982404 L105.172595,17.0184394 C105.896149,14.7224858 107.832524,13.2373347 110.105422,13.2373347 L144.705195,13.2373347 L144.24453,14.2473349 C143.126641,16.7028905 141.178704,17.9474204 138.454269,17.9474204 L138.089754,17.9474204 C136.971865,20.265304 135.079914,21.4537904 132.462582,21.477548 C131.328872,23.7704557 129.423532,24.9357937 126.791596,24.9357937 L116.58029,24.9357937 C116.636276,25.1885984 116.664877,25.4718614 116.664877,25.7910654 C116.664877,26.0274225 116.63445,26.2558604 116.582116,26.4763792 C117.36409,26.5342501 118.359053,26.6158786 119.329067,26.6950705 C120.768264,26.8138582 122.256145,26.9350826 122.976048,26.9752877 C123.343607,26.994781 123.687432,27.0124469 124.017261,27.0282853 C125.608593,27.1062587 126.865229,27.1677847 128.639732,27.4614036 C131.207164,27.8859936 133.316364,29.0507225 134.910131,30.9245227 C135.503458,31.6232382 136.057229,32.4005364 136.600656,33.3021048 C137.199459,34.2950483 137.699679,35.3543912 138.168864,36.4094699 L138.190771,36.4094699 L138.190771,36.4594217 C138.32465,36.7603506 138.456095,37.0618886 138.586323,37.3597717 L138.751237,37.7398924 C139.508261,39.7385721 140.1381,41.3583494 140.763071,42.6004426 C142.140806,41.9827464 143.841068,42.376878 144.556102,43.5379519 C144.706412,43.781619 144.831163,44.0021378 144.951654,44.2147373 C145.244361,44.7337483 145.498731,45.1820959 146.022076,45.7601961 L146.84178,46.6660287 L145.649649,46.9358901 C145.172554,47.0443219 144.728928,47.095492 144.313295,47.095492 C141.257206,47.0967104 139.766891,44.2793091 138.190771,40.271594 L138.190771,45.8473071 C138.288138,47.2264631 137.992996,47.7625308 135.921525,48.6220666 L135.900226,48.6287675 L134.440338,49.1812827 Z M130.088058,46.7074521 C129.840382,47.3440325 130.064325,48.2254984 130.686862,49.0704142 L135.384184,47.2977358 C135.682977,47.1740747 136.543453,46.8146657 136.736969,46.5612518 C136.794172,46.4851059 136.794172,46.3431698 136.763136,45.9246715 L136.76131,45.872283 L136.76131,36.7646147 C136.416268,35.9982816 136.054795,35.2362126 135.653159,34.5167854 C130.079538,33.8479192 128.604437,33.2326596 125.727259,28.5560782 C125.152188,28.5140456 124.576509,28.4854147 123.947887,28.4549563 C123.615624,28.4385088 123.268756,28.4214521 122.898764,28.4013496 C122.158779,28.3617536 120.727492,28.2441843 119.211618,28.1193048 C117.944029,28.0157463 116.63445,27.9073144 115.822658,27.854926 C115.264626,28.4324171 114.478392,28.7936536 113.605746,28.7936536 C112.885842,28.7936536 112.355804,28.5786174 111.404047,28.1656016 L111.404047,28.1649924 C111.19836,28.0772723 110.992674,27.9907704 110.786987,27.9024411 L111.886619,26.91498 C112.096566,27.0039185 112.305295,27.0922479 112.514633,27.1817956 C113.002682,27.3803843 113.280176,27.4553119 113.605746,27.4553119 C114.553851,27.4553119 115.324263,26.707863 115.324263,25.7910654 C115.324263,25.2111376 115.205598,24.994883 115.162391,24.9357937 L110.424906,24.9357937 L111.091257,23.5079043 L115.610886,23.5079043 C117.444417,23.5079043 118.744868,22.8567039 119.641248,21.4799846 L112.243832,21.4799846 L112.909575,20.0514861 L121.200936,20.0514861 C123.068546,20.0514861 124.383602,19.3771373 125.282416,17.9474204 L113.847945,17.9474204 L114.514296,16.5189218 L127.272951,16.5189218 C129.029198,16.5189218 130.296787,15.9237648 131.188907,14.6664424 L110.105422,14.6664424 C108.473317,14.6664424 107.074892,15.7531978 106.539376,17.4363285 L105.342378,21.7279159 C105.073403,22.9413783 104.677243,24.1450939 104.43687,24.8304077 C105.288826,25.3664754 106.185814,26.185197 106.185814,27.9700587 C106.185814,29.7543113 105.002812,31.1164106 103.620209,31.7828402 C103.931781,32.2665195 104.104607,32.8330455 104.104607,33.4196742 C104.104607,34.9474671 102.958725,36.2181912 101.462933,36.456985 C101.270026,37.0107185 101.048518,37.502317 100.77224,37.9281253 L100.77224,44.0648821 C100.77224,44.9761971 100.035298,45.7175544 99.1297902,45.7175544 L98.9149755,45.7175544 C98.5462001,45.7175544 97.6413007,45.7839537 97.2141055,46.3992132 C96.8526326,46.9206609 96.8617607,47.7935984 97.2378386,48.9357881 C98.091012,49.1526518 99.422498,48.9540631 100.038949,48.104274 L100.253764,47.8094367 L100.617671,47.8094367 L100.63045,47.8094367 C101.630282,47.8094367 102.817544,47.7607033 103.175366,47.3891109 C103.234394,47.3288033 103.412088,47.1430071 103.381052,46.3900757 C103.376793,46.2980913 103.376184,45.6139959 104.126514,45.0224939 C103.289771,42.8203522 104.156941,39.3925648 104.268304,38.9710206 L104.414354,38.4239879 L104.979688,38.4404355 C108.077157,38.5336381 109.921643,37.937872 112.056402,37.2507307 C112.590092,37.0795545 113.141429,36.9022867 113.731105,36.729283 C113.930097,36.6653204 116.373995,35.9002056 118.304893,35.8989873 C118.477719,35.8947231 120.2364,35.9038606 122.006644,37.0503145 L122.113747,37.1197596 L122.123483,37.1148862 C122.125309,37.1197596 122.127743,37.1258513 122.130177,37.1307246 C123.787232,38.2022508 125.36822,39.2140786 132.185696,39.7647663 C133.957157,39.9097483 134.241345,41.2688017 134.33506,41.7153217 L134.346623,41.789031 L134.691056,45.1942792 L130.877335,46.0458959 C130.501257,46.1183868 130.228022,46.3468248 130.088058,46.7074521 Z M129.071796,49.1812827 C128.525327,48.1432607 128.406053,47.0869637 128.755355,46.1896595 C129.071187,45.3758112 129.741799,44.8147677 130.594364,44.645419 L133.141713,44.0770654 L132.928115,41.9711722 C132.811884,41.436932 132.656706,41.237125 132.069465,41.1877824 C127.195666,40.7948691 124.800452,40.133922 123.220681,39.3992656 C123.767759,40.5122153 124.293538,41.5971432 124.486445,42.1636693 C124.824793,43.1450386 124.568598,44.144683 123.764716,44.9761971 L119.784863,49.1812827 L129.071796,49.1812827 Z M112.321726,49.1812827 L117.816844,49.1812827 L122.731415,43.9887361 C123.374034,43.3235248 123.192689,42.7990313 123.133052,42.6266368 C122.946838,42.0765583 122.276227,40.7175048 121.737669,39.6258761 C121.449221,39.0398566 121.189374,38.5117081 121.003161,38.1114848 C119.626034,37.3092108 118.340189,37.3293133 118.327409,37.3268767 L118.31037,37.328095 C117.916036,37.328095 117.490058,37.3664726 117.065905,37.426171 L119.629077,41.6556233 C120.646556,43.1322461 119.650376,44.289665 119.322373,44.6716132 L119.304116,44.6904974 L117.386606,46.7610589 L117.008703,46.7610589 L116.940546,46.7488755 L114.225848,46.2444846 C113.746927,46.1756486 113.07023,46.3291589 112.629647,46.8347682 C112.168982,47.3616984 112.064313,48.1694549 112.321726,49.1812827 Z M111.551922,45.8948222 C112.256612,45.088284 113.395799,44.6716132 114.454051,44.8348702 L114.47535,44.8385252 L116.817012,45.273471 L118.245865,43.7304489 C118.763124,43.1273728 118.72722,42.8599481 118.443032,42.4542423 L118.417473,42.4146464 L115.567071,37.7124799 C114.761972,37.9001036 114.171079,38.0883364 114.158909,38.0919915 L114.141869,38.0980831 C113.567407,38.2656043 113.022764,38.4404355 112.49516,38.6103933 C110.473589,39.2615937 108.55547,39.8780715 105.590662,39.8780715 L105.523114,39.8780715 C105.233449,41.2426075 104.90788,43.7542065 105.655167,44.9037062 L106.106704,45.599985 L105.353331,45.9435557 C104.924919,46.137271 104.829987,46.3340322 104.811122,46.3852023 C104.830595,46.9669576 104.779478,47.7820242 104.20745,48.3777903 C103.735831,48.8681704 103.053049,49.08808 102.114072,49.1812827 L110.857578,49.1812827 C110.5314,47.5225187 111.034054,46.4887609 111.551922,45.8948222 Z M96.0396228,45.585365 C96.6110421,44.7611609 97.6595569,44.2884467 98.9149755,44.2884467 L99.1297902,44.2884467 C99.2472384,44.2884467 99.3433878,44.1885431 99.3433878,44.0648821 L99.3433878,39.2451462 C98.6180078,39.6197844 97.6747705,39.8177639 96.4102238,39.8177639 L95.5643529,39.8177639 L95.7061428,38.9844223 C95.7292673,38.8467504 95.7517833,38.7176068 95.7730822,38.5939457 C95.8674059,38.0615331 95.9367795,37.6643556 95.966598,37.1605738 C95.4365594,37.4024135 94.8669658,37.5540963 94.3375358,37.6351156 L94.3375358,49.1812827 L95.81568,49.1812827 C95.3580577,47.6675006 95.4316911,46.46013 96.0396228,45.585365 Z M92.9068576,47.9294428 L92.9068576,35.8746205 L86.1745769,34.1250905 L79.4410791,35.8746205 L79.4410791,47.9294428 L86.1745769,46.1756486 L92.9068576,47.9294428 Z M80.3058148,49.1812827 L92.0421219,49.1812827 L86.1745769,47.6522714 L80.3058148,49.1812827 Z M82.6535631,31.433787 C82.4916913,31.6823275 82.6225275,32.7550721 83.2700143,33.404445 L86.1745769,32.6484677 L94.3375358,34.7701993 L94.3375358,36.1871236 C95.0915171,36.0384867 95.7779505,35.7253744 96.1655906,35.331852 L97.3066036,34.1713873 L97.3899736,35.7954287 C97.3966676,35.9477207 97.4118811,36.4228716 97.4118811,36.5916111 C97.4118811,37.3128658 97.3516356,37.8221301 97.2652229,38.351497 C99.1322243,38.1693558 99.7127717,37.31713 100.247679,35.5743008 L100.402248,35.0699098 L100.950543,35.0699098 C101.901691,35.0699098 102.673929,34.3297709 102.673929,33.4196742 C102.673929,32.8805606 102.395826,32.3725147 101.929075,32.0612299 L100.472839,31.0877797 L102.194399,30.7655299 C103.453469,30.529782 104.756353,29.419269 104.756353,27.9700587 C104.756353,26.7066446 104.167286,26.308858 103.208835,25.7660895 L102.673929,25.4627239 L102.893612,24.8888878 C103.130942,24.2693641 103.580045,22.9602625 103.884924,21.68832 L103.86971,21.6834467 L103.960991,21.3575419 C104.1326,20.5784162 104.237268,19.837059 104.187977,19.3076921 C104.021845,17.4832345 103.113295,15.7678179 101.825623,14.7791385 C101.862744,16.1503753 101.128845,17.5849655 99.9324548,18.465213 L100.317661,20.6685731 L99.46753,20.6685731 C98.907673,20.6685731 98.5169902,20.9780303 98.5169902,21.25642 C98.5169902,21.4215045 98.582104,21.7504551 98.6502605,22.1001175 C98.7543208,22.6300935 98.8833314,23.2898223 98.915584,23.9812278 L98.9161926,24.0427537 C98.9161926,26.5817652 96.1990604,28.0992023 93.5719921,28.0992023 L93.5257431,28.0992023 C93.3370956,28.0992023 92.9415444,28.0839731 92.4766197,27.9871154 L90.6132695,30.968992 C90.6753406,31.0914347 90.8171304,31.3156085 90.915714,31.4697279 C90.9680484,31.5513564 91.0076035,31.6128824 91.0167316,31.6281116 C91.0179487,31.6305482 91.0203829,31.6335941 91.0216,31.6360308 C91.0441159,31.6719717 91.0672405,31.7073034 91.0891479,31.7432443 C91.1828631,31.8894446 91.3398665,32.1373759 91.4068059,32.2799212 C91.4317561,32.3335279 91.4445354,32.3719055 91.4360159,32.3840889 C91.1402653,32.798323 90.8451233,33.2149938 90.5487642,33.6304462 C90.5785827,33.5884137 90.1459105,32.9378224 90.114875,32.8829973 C90.1027042,32.8616764 90.0430672,32.7703013 89.9730851,32.6582144 C89.9219677,32.5784134 89.865982,32.4882566 89.8172988,32.4035822 C89.5653632,32.0027498 89.283609,31.6061815 88.9653425,31.2650475 C88.0902616,30.3251016 87.0125368,29.7256804 86.1520609,29.6976587 C85.8264919,29.6885212 85.5715135,29.7646672 85.3992966,29.9267058 C85.3043644,30.0168627 85.2355993,30.1332137 85.1838734,30.290379 L84.9921832,30.878226 L84.3824259,30.7722308 C83.5779357,30.6327313 82.9347086,31.0037145 82.6535631,31.433787 Z M91.4682685,26.1858061 C91.4524465,26.2607338 91.4993041,26.359419 91.558941,26.4032791 C91.8632111,26.6439004 93.1040247,26.7419764 93.184352,26.7450222 L93.2342523,26.7462406 C95.1840152,26.8089848 97.4873401,25.7039544 97.4873401,24.0323979 C97.4581301,23.4512517 97.3461587,22.8792431 97.2469667,22.3736338 C97.1581198,21.9191946 97.0875291,21.5591764 97.0875291,21.25642 C97.0875291,20.374345 97.7240622,19.6415161 98.6374811,19.3612989 L98.3569441,17.7549233 L98.7914418,17.5063828 C99.8764691,16.8832042 100.554991,15.6002967 100.369387,14.5226788 L100.365735,14.5007488 C100.365735,14.5007488 100.35539,14.447142 100.324355,14.3728235 L96.7668284,16.5688736 L96.5161098,16.5365877 C96.1735017,16.4939459 95.838196,16.4714067 95.5211465,16.4714067 C93.8452267,16.4714067 93.0340425,17.0720462 92.8526976,17.3126675 L92.7352493,17.5350137 C92.2636306,19.0932651 93.9596323,18.385412 94.3825677,18.7326377 C94.7537773,19.0366124 94.0527389,19.6792845 94.0527389,19.6792845 C93.8707854,19.8577707 93.7387322,20.0667153 93.4435901,20.0667153 C93.1490567,20.0667153 92.9111174,19.8961483 92.9111174,19.6792845 C92.9111174,19.3527706 92.640317,19.0865642 92.3086626,19.0865642 C91.9727484,19.0865642 91.8565172,19.2412928 91.6563074,19.5221192 C91.3301299,20.014936 91.006995,20.4151593 90.7264579,20.7435007 C90.697248,20.7770049 90.6065755,20.8903102 90.6187463,20.9530545 C90.6436965,21.0864622 90.8682478,21.2649484 91.0130804,21.3599786 L91.6922113,21.8162453 L90.9065859,22.8688873 C90.9005005,22.8853348 90.8980663,22.9036099 90.8980663,22.9212757 C90.8980663,23.0248343 91.0502014,23.150932 91.2394574,23.150932 C91.5181688,23.150932 91.8869442,22.9060465 92.353086,22.5965893 C93.0681208,22.1226567 93.7052624,21.7309618 94.2712049,21.7309618 C95.3300649,21.7309618 96.0797865,22.7604554 96.0797865,23.8179708 C95.9081781,25.3804863 94.3819592,25.9975733 92.882516,26.0499617 L91.6538733,26.010975 C91.5692862,26.0085383 91.4895674,26.087121 91.4682685,26.1858061 Z M94.4160374,15.0337706 C94.3898702,15.0660565 94.3649201,15.1013882 94.3387528,15.1348925 C94.6996172,15.0770215 95.0927342,15.042299 95.5211465,15.042299 C95.8187227,15.042299 96.1266441,15.0587465 96.4412594,15.0910324 L98.9636587,13.5333902 C98.1451721,13.3762249 97.3522441,13.3890175 96.6621595,13.5876062 C96.2282703,13.7130947 95.7834274,13.9141201 95.4414278,14.1401214 C95.0051044,14.428867 94.6399803,14.7468526 94.4160374,15.0337706 Z M132.858133,14.6664424 C132.46745,15.409018 131.991572,16.0267142 131.431715,16.5189218 L138.454269,16.5189218 C140.209908,16.5189218 141.478714,15.924374 142.370834,14.6664424 L132.858133,14.6664424 Z M132.381038,20.0514861 C134.249256,20.0514861 135.56492,19.3771373 136.463126,17.9474204 L126.909044,17.9474204 C126.497062,18.8020828 125.979803,19.5062808 125.359092,20.0514861 L132.381038,20.0514861 Z M126.791596,23.5079043 C128.625736,23.5079043 129.926186,22.8560948 130.822566,21.4799846 L121.280655,21.4799846 C120.874759,22.2999245 120.370887,22.9779283 119.76965,23.5079043 L126.791596,23.5079043 Z M128.406053,28.871018 C128.102391,28.8198479 127.814552,28.7772061 127.53584,28.7400469 C129.628002,31.919903 130.930886,32.4657173 134.6728,32.9567066 C134.395306,32.5607475 134.112943,32.1940285 133.820235,31.8492395 C132.452237,30.2404272 130.630876,29.2383462 128.406053,28.871018 Z M143.338413,44.2872283 C143.027449,43.7804007 142.180361,43.6067879 141.48054,43.8522825 C142.239998,44.9871622 143.059702,45.5878016 144.143512,45.6554193 C143.982249,45.4044421 143.845936,45.16443 143.70658,44.9171079 C143.592175,44.7166916 143.475335,44.5089654 143.338413,44.2872283 Z M91.4154472,37.7261253 L91.4154472,39.2021389 L86.9165092,38.0325367 L86.9165092,36.5571322 L91.4154472,37.7261253 Z M80.9335849,39.2020171 L80.9335849,37.7260034 L85.4325229,36.555792 L85.4325229,38.0324148 L80.9335849,39.2020171 Z M80.9335849,42.1684208 L80.9335849,40.6917979 L85.4325229,39.523414 L85.4325229,41.0000369 L80.9335849,42.1684208 Z M91.4154472,40.6916152 L91.4154472,42.168238 L86.9165092,40.9998541 L86.9165092,39.5232313 L91.4154472,40.6916152 Z M91.4154472,43.6604555 L91.4154472,45.13586 L86.9165092,43.9662578 L86.9165092,42.489635 L91.4154472,43.6604555 Z M80.9335849,45.1357382 L80.9335849,43.6603337 L85.4325229,42.4895131 L85.4325229,43.966136 L80.9335849,45.1357382 Z" id="Combined-Shape" fill="#C42618"></path>
            </g>
        </g>
    </g>
</svg>