<?xml version="1.0" encoding="UTF-8"?>
<svg width="113px" height="48px" viewBox="0 0 113 48" version="1.1" xmlns="http://www.w3.org/2000/svg" xmlns:xlink="http://www.w3.org/1999/xlink">
    <!-- Generator: Sketch 50.2 (55047) - http://www.bohemiancoding.com/sketch -->
    <title>1</title>
    <desc>Created with Sketch.</desc>
    <defs></defs>
    <g id="Desktop" stroke="none" stroke-width="1" fill="none" fill-rule="evenodd">
        <g id="logos" transform="translate(-77.000000, -71.000000)">
            <g id="1" transform="translate(22.000000, 55.000000)">
                <rect id="Rectangle-7" x="0" y="0" width="224" height="80"></rect>
                <g id="Group-4" transform="translate(55.000000, 16.000000)">
                    <path d="M16.1971716,0.0214135398 C19.2501077,0.0193175572 22.2967427,0.231011798 25.3370764,0.477289751 C25.5681208,0.506633507 25.8705788,0.453185951 26.0218079,0.676408096 C26.9176299,1.76527105 27.7420382,2.9253974 28.3616571,4.19556285 C29.2091698,6.00439581 29.6092967,7.98195538 29.9506122,9.93855512 C30.7582173,9.93017119 31.5668725,9.92283525 32.3744776,9.93855512 C32.6296766,10.2110329 32.6401786,10.6585251 32.7283955,11.0127462 C32.5645641,11.9119227 31.6571899,12.3887588 31.0837798,12.9850658 C31.3526314,13.8465146 31.7086497,14.6775717 32.0100576,15.5285407 C32.1066762,15.7884425 32.0835717,16.0693042 32.0856721,16.3407339 C32.1024753,20.1868619 32.1350316,24.031942 32.1150778,27.877022 C32.1287304,28.2742107 32.0373628,28.721703 31.6960473,28.969029 C31.3232257,29.2614185 30.82438,29.2729464 30.3717431,29.2687545 C29.6754594,29.2519866 28.9760251,29.2980982 28.2818418,29.2289308 C27.8103013,29.1922511 27.3167065,29.2404587 26.8682704,29.0643962 C26.5374569,28.8851896 26.3316174,28.5341126 26.220296,28.1851315 C26.1562337,27.5710086 26.2276474,26.9495497 26.1845891,26.3333309 C20.6153699,26.3427628 15.0461506,26.3343788 9.47693132,26.3375228 C8.50759521,26.3490507 7.5372089,26.314467 6.56892299,26.3553387 C6.61933267,27.0585408 6.6403367,27.7942307 6.38408751,28.4649451 C6.26751512,28.7824865 5.98501088,29.0308604 5.64159495,29.0643962 C4.43281287,29.2509386 3.19462514,29.2383627 1.98374265,29.079068 C1.33051724,29.0193325 0.762358153,28.5089608 0.584874077,27.8895979 C0.511359962,23.6976328 0.478803712,19.4993797 0.519761575,15.3021745 C0.546016616,14.9762492 0.502958349,14.5979244 0.729801902,14.3306866 C1.09842268,13.8894823 1.70333882,13.6075726 1.83356382,13.0007857 C1.74429668,12.2640478 0.975549085,11.9433625 0.530263592,11.4403266 C-0.0652007354,10.9676826 -0.0378954928,10.1303375 0.0429700331,9.44809519 C0.912536987,9.45228716 1.78210394,9.46591105 2.65062069,9.44390323 C2.81970316,9.17561746 2.82495416,8.83082832 2.92577352,8.5331988 C3.49498281,6.50428766 4.0683929,4.43345687 5.19840986,2.63300783 C5.64894636,1.91198983 6.11208528,1.18887584 6.67919417,0.553793115 C7.51305426,0.398690404 8.38052081,0.397642413 9.22698333,0.302275206 C11.5468787,0.141932538 13.8699248,0.000453714014 16.1971716,0.0214135398 Z M9.71217649,21.6016502 C9.44017426,21.8133444 9.56829886,22.2608367 9.89071077,22.3362921 C11.2895793,22.5060667 12.6936989,22.6391616 14.1020193,22.6947051 C16.9722204,22.8749596 19.8539737,22.6947051 22.7063213,22.3541079 C23.0150806,22.3624919 23.3007354,21.9988389 23.1085485,21.7190252 C23.0098296,21.4748432 22.7147229,21.5146669 22.5036324,21.5314348 C20.6920346,21.7609449 18.8667841,21.9024237 17.0404835,21.8856558 C16.5857462,21.9380554 16.1310089,21.9391034 15.6773218,21.8867038 C13.8478705,21.8992797 12.0205197,21.747321 10.2057713,21.5293388 C10.0440402,21.5314348 9.84240149,21.4758912 9.71217649,21.6016502 Z M24.9316986,14.6817637 C23.6693562,14.9343296 22.7336266,16.2401267 22.9268637,17.5134362 C23.043436,18.4471964 23.7155651,19.2897814 24.6082365,19.5978908 C25.2079016,19.8326409 25.8632274,19.7309857 26.491248,19.7519456 C27.0489051,19.7341297 27.6275662,19.816921 28.1673698,19.6366665 C29.0411376,19.3736207 29.7458229,18.6043951 29.9180559,17.7083625 C30.1091926,16.8626336 29.814086,15.9299213 29.178714,15.3399022 C28.6704164,14.8305785 27.9373757,14.5832525 27.2242888,14.6241242 C26.4607922,14.6524199 25.6878438,14.5633407 24.9316986,14.6817637 Z M4.47587113,14.7215874 C3.56744672,14.9668173 2.84175739,15.7538588 2.66217291,16.6739951 C2.42167674,17.7534262 2.98038401,18.9470882 3.96757354,19.4490761 C4.85184332,19.936392 5.89154294,19.693258 6.85142723,19.7540415 C7.85331959,19.8368329 8.8856678,19.3138852 9.35825854,18.4199486 C9.87915855,17.4914283 9.73633113,16.2327908 8.99908958,15.4583252 C8.46558715,14.8620182 7.64853027,14.5685806 6.85562804,14.6230762 C6.06377601,14.6649958 5.25302034,14.5329489 4.47587113,14.7215874 Z M11.6245937,1.85015834 C10.402159,1.94762153 9.14821821,1.96753337 7.95938996,2.26725887 C6.68024437,3.98806057 5.46096027,5.84614913 4.98101812,7.96413953 C4.87389755,8.37285613 4.9054036,8.95658728 5.31393204,9.17352148 C12.5130642,9.19867327 19.7142969,9.17456947 26.9144793,9.18504938 C27.1686281,9.19867327 27.5267468,9.17980942 27.6076124,8.88322789 C27.6653734,8.31102464 27.5214958,7.74406136 27.3629154,7.19910588 C26.8105093,5.44372047 25.8170186,3.86649358 24.6964534,2.4202656 C24.6050859,2.33118634 24.5357726,2.17398765 24.3866439,2.18237158 C20.1501305,1.74431122 15.8789605,1.61645628 11.6245937,1.85015834 Z" id="Combined-Shape" fill="#F57E44"></path>
                    <path d="M46.8798521,0.527614293 C49.4538963,0.241512671 52.0447437,0.0979378638 54.6345409,0.0182905258 C58.3522547,-0.0665967687 62.0678681,0.174441228 65.7698289,0.483598659 C65.9158069,0.505606476 66.0943412,0.487790624 66.1878091,0.629269448 C67.1655468,1.7904438 68.0424652,3.05012933 68.6830882,4.42928587 C69.4570868,6.17733534 69.8162558,8.06686363 70.1712239,9.93228813 C70.9798792,9.92180822 71.7895846,9.91552027 72.5971897,9.93124014 C72.8156316,10.2162938 72.8565895,10.6459702 72.932204,11.0033352 C72.817732,11.7316892 72.1792094,12.2252931 71.6415062,12.6664974 C71.520733,12.7912084 71.2088231,12.8760957 71.3337971,13.1024618 C71.5931969,13.9062711 71.9103578,14.6901686 72.2054645,15.480354 C72.260075,15.6239288 72.2842296,15.7758876 72.28633,15.9288943 C72.3010328,19.9447969 72.3535429,23.9606995 72.3209867,27.9766022 C72.3325389,28.3695989 72.1928621,28.7919394 71.8494461,29.0141135 C71.4262149,29.319079 70.8822104,29.2771594 70.3886157,29.2740154 C69.3667695,29.2645835 68.3375719,29.315935 67.3241273,29.1545444 C66.8011269,29.0864249 66.483966,28.5624293 66.3831466,28.0887372 C66.3547912,27.5081501 66.3841968,26.9244189 66.369494,26.3427837 C59.8414406,26.3469757 53.3133873,26.3480237 46.7863841,26.3417357 C46.8147396,27.0690417 46.8577978,27.8340753 46.5679422,28.5194616 C46.4513698,28.8118512 46.186719,29.0298334 45.8716585,29.0717531 C44.9149248,29.2373357 43.9350867,29.2299997 42.967851,29.1786482 C42.3923405,29.1231046 41.7422657,29.1252006 41.290679,28.7101961 C40.9745683,28.4136145 40.7057166,28.0059459 40.7361725,27.5563577 C40.7162187,23.3622965 40.6448049,19.1682354 40.7172689,14.9741742 C40.6595078,14.3537634 41.2476207,14.0184062 41.6298941,13.6411293 C41.9092477,13.3948514 42.1245391,12.9683189 41.9008461,12.6172418 C41.4818156,11.9643432 40.692064,11.6394659 40.3234432,10.9467437 C40.1438588,10.4646677 40.1680134,9.93124014 40.2247243,9.42820432 C41.1079439,9.42296436 41.9901132,9.42925231 42.8722826,9.42610834 C43.520257,7.01992033 44.1356752,4.54037294 45.5051381,2.42238254 C45.9304698,1.76948397 46.3516006,1.10191352 46.8798521,0.527614293 Z M49.8393203,21.9391243 C49.5935731,22.101563 49.639782,22.5197115 49.9180854,22.6192707 C50.7498451,22.944148 51.6393659,23.0961067 52.5183846,23.2302496 C54.9296476,23.5540789 57.379768,23.5687508 59.7994326,23.3214248 C60.8916423,23.18833 61.9975046,23.0248433 63.0288026,22.6234627 C63.4530841,22.4903678 63.2713992,21.7672538 62.8282141,21.8678609 C60.8034253,22.5364794 58.650512,22.6695743 56.5322553,22.6873901 C54.5820308,22.6716702 52.6097522,22.5584872 50.7204394,22.0428755 C50.4358348,21.9915239 50.1155233,21.7452459 49.8393203,21.9391243 Z M64.8645551,14.7320882 C63.8511105,14.998278 63.0613588,15.9404222 62.9972965,16.9863175 C62.9143306,17.8750141 63.3501643,18.7783826 64.0863556,19.2814184 C64.6009544,19.6513594 65.2489289,19.7697824 65.8727486,19.7351987 C66.6047392,19.7027109 67.3493321,19.8054141 68.0739713,19.6618393 C69.0443576,19.4333772 69.8299084,18.5886962 69.9811374,17.6046324 C70.1260652,16.7547114 69.8057537,15.841911 69.1504279,15.2780917 C68.6326785,14.8138316 67.9248426,14.6000413 67.2359103,14.641961 C66.4461587,14.6807367 65.6406541,14.5581217 64.8645551,14.7320882 Z M44.6838804,14.7016965 C43.5076546,14.9437825 42.6118326,16.0986689 42.6937483,17.2975709 C42.7158026,18.3015466 43.4099859,19.2426427 44.3572677,19.576952 C44.8540131,19.7802623 45.3990677,19.7289107 45.9231184,19.7341507 C46.4114621,19.7268147 46.9019063,19.7498705 47.39025,19.7226228 C48.3711384,19.6524073 49.2659102,18.9481572 49.5746695,18.0185889 C49.8729267,17.1938198 49.6891414,16.2244278 49.1220325,15.5579054 C48.6084839,14.9280626 47.7840757,14.5948014 46.9764706,14.640913 C46.212974,14.6723527 45.4400256,14.5811775 44.6838804,14.7016965 Z M48.1789515,2.25051197 C46.9502156,3.92834603 45.7634877,5.70993122 45.2415375,7.74827428 C45.1113125,8.22615831 45.0630032,8.82246535 45.4883349,9.17354244 C52.738927,9.16096654 59.9905693,9.17354244 67.2411614,9.16830248 C67.4753563,9.18192637 67.7925172,9.0813192 67.8009188,8.80045754 C67.8240233,8.26807796 67.6895975,7.74303432 67.5457198,7.23475855 C66.9754603,5.37771798 65.9011041,3.72398773 64.7017738,2.21278429 C61.4293455,1.87533109 58.1390638,1.70765249 54.8487821,1.76843598 C52.6213044,1.82188354 50.3791239,1.86485118 48.1789515,2.25051197 Z" id="Combined-Shape" fill="#79797B"></path>
                    <path d="M87.1981535,0.487811584 C91.2781869,0.106342754 95.3823749,-0.123167339 99.4802617,0.0696630588 C101.714041,0.171318214 103.954121,0.286597256 106.176347,0.534971192 C107.162487,1.65422589 108.016301,2.90028753 108.676877,4.23857241 C109.497085,6.03482948 109.909814,7.98618926 110.230126,9.92497315 C111.058735,9.93335708 111.887344,9.90610931 112.715953,9.93650105 C112.879784,10.4143851 113.173841,10.9876363 112.864031,11.4707603 C112.505913,12.0806912 111.930402,12.5229436 111.367494,12.9327082 C111.574384,13.6537262 111.86529,14.3464484 112.122589,15.0496506 C112.223408,15.3378482 112.383039,15.6197578 112.366236,15.9341552 C112.38829,19.9144261 112.429248,23.894697 112.404043,27.874968 C112.425047,28.2952125 112.310575,28.7605206 111.944055,29.0099425 C111.558631,29.2897562 111.063986,29.2887082 110.609248,29.2740363 C109.52439,29.2572685 108.42903,29.3306279 107.354674,29.1451334 C106.86843,29.0633901 106.599579,28.5750261 106.468303,28.1474457 C106.432596,27.5563786 106.455701,26.9632155 106.459902,26.3721485 C103.504634,26.3134609 100.544116,26.3637645 97.5867481,26.3469967 C94.0213136,26.3386127 90.455879,26.3616685 86.8904445,26.3354688 C86.8641894,27.1046944 86.9650088,27.9294635 86.5890366,28.6358096 C86.3915987,29.0350943 85.9074557,29.1011178 85.5125799,29.1398935 C84.3993662,29.2425966 83.2703994,29.2499325 82.1645371,29.078062 C81.4052413,28.9669749 80.7478151,28.237573 80.8160782,27.4589154 C80.7919236,23.301534 80.7268111,19.1431045 80.7950742,14.9867711 C80.7268111,14.3736962 81.2949701,14.032051 81.6824945,13.671542 C81.9618482,13.4231681 82.2096958,12.9997796 81.9891534,12.6361266 C81.5690728,11.9528363 80.7278613,11.629007 80.3791943,10.8922691 C80.2300657,10.425913 80.2552705,9.92392516 80.294128,9.44289716 C81.1836488,9.40307349 82.07527,9.44499314 82.9658409,9.41984135 C83.3953734,7.66340795 83.8973698,5.91640647 84.6031053,4.24800433 C85.174415,2.96631098 85.9515642,1.78627279 86.8074785,0.678545998 C86.8841432,0.532875209 87.0458743,0.496195514 87.1981535,0.487811584 Z M86.7927757,21.611124 C86.45041,21.7463149 86.5165727,22.3206141 86.8820428,22.3813976 C88.9435886,22.9294971 91.0523935,23.3046779 93.1738008,23.534188 C97.8797544,24.0707596 102.677075,23.6138354 107.243352,22.3855896 C107.734847,22.3185181 107.65083,21.5220448 107.156185,21.5671084 C104.374201,22.3027983 101.516603,22.7733464 98.6401003,22.9012013 C94.7869105,23.0584 90.9211183,22.5689881 87.1929025,21.609028 C87.0553261,21.5555805 86.9219505,21.5555805 86.7927757,21.611124 Z M104.771177,14.7321092 C103.84595,14.9899151 103.102407,15.8104922 102.958529,16.7610203 C102.757941,17.8090116 103.313498,18.9335063 104.254478,19.4323501 C104.811085,19.7572274 105.471662,19.7656114 106.097582,19.7467475 C106.887334,19.7142598 107.723294,19.8662185 108.466837,19.5214294 C109.362659,19.1200487 109.99488,18.1758086 109.965475,17.1886008 C109.99173,16.2192088 109.384713,15.2885926 108.511996,14.878828 C107.929134,14.5801505 107.259105,14.6241661 106.624783,14.631502 C106.007265,14.6535099 105.373993,14.5602386 104.771177,14.7321092 Z M84.5936535,14.7006695 C83.9446289,14.8494842 83.3596666,15.2634408 83.0120498,15.8314521 C82.4669952,16.6729891 82.4964008,17.8394034 83.0834635,18.6526446 C83.5466024,19.3390789 84.3678601,19.7488435 85.1922684,19.7488435 C85.8223894,19.7498915 86.4535606,19.7436035 87.0847318,19.7477955 C87.8072705,19.7509395 88.5308594,19.443878 89.0150024,18.9041625 C89.7690471,18.0835853 89.8887701,16.7610203 89.2775528,15.8272601 C88.7913094,15.0119229 87.8156721,14.5696705 86.8809926,14.6283581 C86.1195965,14.6650378 85.3455978,14.5560467 84.5936535,14.7006695 Z M88.2651584,2.23690905 C87.7747142,2.87094378 87.3241777,3.53432226 86.9009465,4.21446861 C86.1521527,5.43223449 85.4768731,6.73803164 85.2353267,8.15910783 C85.1597122,8.55524853 85.2962384,9.24901877 85.82554,9.18299532 C93.002618,9.17880335 100.180746,9.18404331 107.358874,9.17985134 C107.594119,9.19452322 107.866122,9.07086025 107.897628,8.81095841 C107.91023,8.12033215 107.719093,7.44437777 107.49435,6.79671915 C106.915689,5.16918868 105.965257,3.70514484 104.906654,2.35009211 C104.832089,2.23271708 104.699764,2.18765346 104.569539,2.17822153 C101.308663,1.85334423 98.0299332,1.69090558 94.7533041,1.75692904 C92.5867381,1.82714445 90.4044191,1.85544022 88.2651584,2.23690905 Z" id="Combined-Shape" fill="#01A9C7"></path>
                    <path d="M20.8516757,4.22909857 C22.1287209,3.69462301 23.7512824,4.79606186 23.6641157,6.1867463 C23.7932905,7.45376777 22.4847393,8.56463854 21.2528528,8.33198447 C20.4504987,8.22613735 19.748964,7.61411044 19.5189699,6.84278885 C19.1923572,5.79270157 19.8004239,4.57179172 20.8516757,4.22909857" id="Fill-8" fill="#211F20"></path>
                    <path d="M61.2896897,4.24065791 C62.1224996,3.89167681 63.1443458,4.20502621 63.6988522,4.89879644 C64.2974672,5.62715039 64.3258226,6.7443091 63.7503121,7.49362288 C63.2084081,8.25341656 62.129851,8.56781395 61.2644849,8.2125449 C60.2741447,7.85622786 59.6534755,6.67199771 59.9821887,5.66487808 C60.1533715,5.01617147 60.6564181,4.46912001 61.2896897,4.24065791" id="Fill-10" fill="#211F20"></path>
                    <path d="M102.234941,4.23119455 C103.508835,3.69252703 105.137698,4.78872592 105.053682,6.18045835 C105.187057,7.4495758 103.876406,8.56568653 102.642419,8.33198447 C101.840065,8.22613735 101.14063,7.61411044 100.908536,6.84383684 C100.581923,5.79479756 101.186839,4.57912766 102.234941,4.23119455" id="Fill-12" fill="#211F20"></path>
                    <path d="M55.7267506,4.76987255 C56.624673,4.48272294 57.6528204,5.25404453 57.6328666,6.19304473 C57.6937783,7.06706946 56.8546672,7.82791114 55.9977027,7.75035978 C55.447397,7.68224035 54.931748,7.33430724 54.7217077,6.81345557 C54.3824925,6.00021433 54.8561335,4.9805188 55.7267506,4.76987255" id="Fill-14" fill="#211F20"></path>
                    <path d="M89.9675352,4.76358461 C90.7415338,4.5361705 91.6289542,5.07483802 91.8074885,5.85349555 C91.8473962,6.22553246 91.8694504,6.63320107 91.6688619,6.9664623 C91.4094621,7.44329834 90.8791103,7.73149594 90.3456078,7.76188769 C89.8079046,7.73463991 89.2744022,7.44644231 89.0139522,6.9664623 C88.810213,6.63424906 88.8270163,6.22553246 88.8742753,5.85454354 C88.9981991,5.32635593 89.445585,4.89877548 89.9675352,4.76358461" id="Fill-16" fill="#211F20"></path>
                    <path d="M96.1584949,4.75309421 C97.0879233,4.5015763 98.0908659,5.33472938 98.0173518,6.29259342 C98.0142012,7.22844964 96.9829032,7.99243529 96.0891816,7.68537384 C95.3015304,7.48101554 94.7606765,6.55459124 95.0557832,5.78117367 C95.205962,5.27394589 95.6459965,4.87780518 96.1584949,4.75309421" id="Fill-18" fill="#211F20"></path>
                    <path d="M56.3705137,34.6491417 C57.0720484,34.3934319 57.9468664,34.9729711 57.8775531,35.7390527 C57.9332138,36.2116968 57.596099,36.6340372 57.1823196,36.8205797 C56.7307329,36.9463387 56.1709754,36.900227 55.8695675,36.4967504 C55.3255631,35.9255951 55.6196196,34.8786518 56.3705137,34.6491417" id="Fill-22" fill="#F57E44"></path>
                    <path d="M87.1005058,34.6166435 C87.7936389,34.3756055 88.6558544,34.8713054 88.6705572,35.6300511 C88.7881798,36.3332533 88.1160508,37.0175916 87.4092651,36.9232724 C86.716132,36.9180324 86.1731777,36.1907265 86.3275574,35.523156 C86.3821679,35.1081514 86.7192826,34.7644103 87.1005058,34.6166435" id="Fill-24" fill="#211F21"></path>
                    <path d="M39.5242608,34.8126389 C41.1804288,34.3420908 42.9605206,34.6764 44.5074676,35.3617863 C44.4980158,36.002109 44.5001162,36.6434796 44.5064174,37.2848503 C43.400555,36.8006783 42.22853,36.2924026 40.9924427,36.4139696 C40.5818139,36.4558892 40.1050223,36.5931761 39.910735,36.9945567 C39.7605562,37.4148012 40.0997713,37.7795022 40.447388,37.9608047 C41.7706421,38.641999 43.4184085,38.8589332 44.4024474,40.0787951 C44.9653555,40.7851412 45.0682752,41.774445 44.8277791,42.6243659 C44.5977849,43.4428471 43.9225053,44.0737379 43.1506071,44.3933752 C42.1130078,44.8387715 40.9504346,44.8052358 39.8519237,44.6752849 C39.0380174,44.5233262 38.2577176,44.2110248 37.5446307,43.7949722 C37.5645846,43.09701 37.5530323,42.3990478 37.5498817,41.7021336 C38.6063846,42.3875199 39.7847108,43.0351785 41.0848604,42.981731 C41.5868568,42.9366673 42.2600361,42.8067164 42.3965623,42.2345132 C42.5131347,41.7849249 42.1728693,41.4024081 41.7947967,41.2200576 C40.6290729,40.6185106 39.2375558,40.4267282 38.2398642,39.5233597 C37.4060041,38.8065337 37.1424035,37.565712 37.4963214,36.5460165 C37.8029803,35.6594158 38.6431416,35.0536769 39.5242608,34.8126389" id="Fill-20" fill="#F57E44"></path>
                    <path d="M7.60652221,34.7089087 C8.4361815,34.7068127 9.26584079,34.7078607 10.0965503,34.7078607 C10.0986507,36.0367137 10.0933997,37.3655666 10.0986507,38.6954676 C11.7506179,38.6986115 13.4015348,38.6954676 15.053502,38.6954676 C15.0598032,37.3655666 15.0503514,36.0356657 15.0577028,34.7057647 C15.8873621,34.7110047 16.7170214,34.7047167 17.5466807,34.7089087 C17.5477309,38.0216092 17.5445803,41.3332616 17.5477309,44.6459621 C16.7170214,44.658538 15.8863119,44.65225 15.0556024,44.6491061 C15.053502,43.3108212 15.058753,41.9725363 15.0524518,40.6342514 C13.4015348,40.6269155 11.7506179,40.6311075 10.0997009,40.6321555 C10.0933997,41.9704403 10.0986507,43.3087252 10.0976005,44.6480581 C9.26584079,44.653298 8.4340811,44.660634 7.6023214,44.6428181 C7.61072302,41.3311656 7.6023214,38.0195132 7.60652221,34.7089087" id="Fill-26" fill="#00AAC7"></path>
                    <path d="M46.7874238,34.7214427 C47.4837075,34.7277306 48.178941,34.7308746 48.8752247,34.7203947 C48.9161825,36.8844967 48.8762749,39.0506947 48.8951785,41.2158447 C48.9938974,41.1445813 49.090516,41.0680779 49.1640301,40.9695667 C49.9401291,39.9603511 50.7435334,38.9731433 51.517532,37.9628797 C52.3450909,37.9513518 53.1737,37.9681197 54.002309,37.9523998 C53.1232903,39.0517427 52.2411209,40.1468936 51.3862568,41.2640523 C52.2999322,42.385403 53.2041558,43.5130416 54.1178312,44.6343923 C53.2514149,44.6144804 52.3839483,44.6333443 51.517532,44.6218164 C50.8191479,43.709016 50.0966092,42.8150794 49.3866729,41.9127589 C49.2343936,41.7230725 49.1073192,41.5029943 48.8909777,41.3761874 C48.8857267,42.4608583 48.9035801,43.5455293 48.8836263,44.6291523 C48.1831418,44.6228644 47.4837075,44.6249604 46.7842732,44.6281043 C46.798976,41.3258838 46.7926748,38.0236632 46.7874238,34.7214427" id="Fill-28" fill="#F57E44"></path>
                    <path d="M68.9887179,34.6900029 C70.4022893,34.6910509 71.8169109,34.6900029 73.2304823,34.6900029 C74.7207184,34.6428433 76.3096735,35.0211682 77.4249876,36.0576316 C78.4457836,36.972528 78.9729848,38.3674044 78.9215249,39.7256011 C78.9666836,41.0785578 78.4562856,42.4828662 77.4081844,43.3715628 C76.4525009,44.188996 75.1933091,44.5400731 73.9603724,44.6448722 C72.302104,44.665832 70.6427855,44.6553521 68.9834669,44.6553521 C68.9813665,41.3332197 68.9719147,38.0110873 68.9887179,34.6900029 Z M71.5291556,36.5774352 C71.5249548,38.3904602 71.5291556,40.2045331 71.5270552,42.018606 C71.5197038,42.2816518 71.5176034,42.5478416 71.5648625,42.8087914 C72.3325599,42.7752557 73.1055083,42.8349912 73.8700551,42.74172 C74.6398529,42.623297 75.3949479,42.2240123 75.8139783,41.5522499 C76.369535,40.6908011 76.4335973,39.5904102 76.1889003,38.6157783 C75.984111,37.8444567 75.4317049,37.1643104 74.6860618,36.8582969 C73.6904706,36.4160446 72.5825079,36.6235469 71.5291556,36.5774352 Z" id="Combined-Shape" fill="#211F21"></path>
                    <path d="M22.0047971,37.8654689 C23.2618885,37.6579667 24.6576065,37.9304444 25.6143401,38.8097091 C26.6277847,39.7392774 26.827323,41.2997364 26.4082926,42.5594219 C26.0942823,43.4952781 25.2793258,44.1953363 24.3603994,44.5128777 C23.0108903,44.9939057 21.389379,44.8471869 20.238358,43.9595383 C18.8037825,42.8444756 18.6010936,40.5430867 19.712207,39.1377304 C20.2761652,38.4397682 21.128929,38.0184757 22.0047971,37.8654689 Z M22.3209078,39.1408743 C21.6855358,39.3630485 21.3904292,40.0536747 21.3179653,40.6751336 C21.2392001,41.4171114 21.2497022,42.2272087 21.6372266,42.8905872 C22.0741104,43.6556208 23.3017961,43.7447001 23.8521018,43.0614097 C24.2501282,42.5646619 24.3246925,41.9002354 24.3351946,41.2861125 C24.3351946,40.6698936 24.2658812,39.9991792 23.8615536,39.5045273 C23.4971337,39.063323 22.8439082,38.9627158 22.3209078,39.1408743 Z" id="Combined-Shape" fill="#00AAC7"></path>
                    <path d="M30.4000985,38.4806293 C30.866388,38.1536561 31.3778362,37.8570745 31.9596479,37.8172509 C33.0728617,37.674724 34.2291337,38.2144396 34.8393008,39.1513438 C35.4767732,40.0704321 35.579693,41.2682862 35.319243,42.3340933 C35.1197046,43.1651504 34.606156,43.938568 33.8500109,44.3588125 C32.793508,44.9488316 31.4503001,44.90272 30.3948475,44.3336607 C30.4000985,45.5556185 30.3979981,46.7775764 30.3958977,47.9995342 C29.6880618,47.9995342 28.9791757,48.0005822 28.2713398,47.9995342 C28.2692394,44.6417701 28.2692394,41.284006 28.2713398,37.9262419 C28.9781255,37.923098 29.6859614,37.924146 30.3937973,37.9262419 C30.3948475,38.1106884 30.3979981,38.2951349 30.4000985,38.4806293 Z M30.3958977,39.844066 C30.4032491,40.8773854 30.3895965,41.9117528 30.4032491,42.9450722 C30.8726892,43.2531817 31.4460993,43.4617319 32.0111078,43.3192051 C32.6622328,43.1976381 33.1190705,42.5960911 33.2324923,41.9693923 C33.3522153,41.3007739 33.3270105,40.5587961 32.9657411,39.963537 C32.6958393,39.5076608 32.1497344,39.2739587 31.631985,39.3064465 C31.1625449,39.3095904 30.7561169,39.5715883 30.3958977,39.844066 Z" id="Combined-Shape" fill="#00AAC7"></path>
                    <path d="M62.0248203,38.4848003 C62.5257665,38.160971 63.0603191,37.8455257 63.6767875,37.8287578 C64.653475,37.7197667 65.6522168,38.1546831 66.2686851,38.9123808 C67.054236,39.846141 67.2327702,41.172898 66.9303122,42.3309284 C66.7223723,43.2301049 66.1269079,44.0527781 65.2772948,44.4426308 C64.2491474,44.9341387 63.0193613,44.8335316 62.0164187,44.3304958 C62.0237701,45.5472136 62.0195693,46.7639315 62.0185191,47.9806494 C61.3159342,47.9764575 60.6133493,47.9785534 59.9107644,47.9806494 C59.9265175,44.6386052 59.9223167,41.296561 59.9128648,37.9555647 C60.6112489,37.9608047 61.3106832,37.9618527 62.0101175,37.9555647 C62.0132681,38.1305793 62.0195693,38.3076898 62.0248203,38.4848003 Z M62.0122179,39.8429971 C62.0300713,40.8773645 62.0132681,41.9117319 62.0206195,42.9471473 C62.7043008,43.4795268 63.8059623,43.5623181 64.4276817,42.8926517 C64.9926902,42.2292732 65.0525517,41.2661692 64.8267583,40.455024 C64.6933827,39.8985406 64.2386454,39.4101767 63.6610345,39.3179534 C63.0613694,39.1712346 62.4585536,39.4604802 62.0122179,39.8429971 Z" id="Combined-Shape" fill="#F57E44"></path>
                    <path d="M83.583349,37.9073781 C84.3037873,37.5688769 85.0809365,37.9482498 85.6480454,38.404126 C85.4369549,39.0381607 85.244768,39.6784834 85.0420791,40.3156621 C84.5558357,40.0295605 84.0086807,39.6826753 83.4205677,39.8618819 C82.666523,40.1678953 82.3735167,41.0062883 82.0805105,41.6969146 C82.0048959,42.6778345 82.0668578,43.6702822 82.046904,44.655394 C81.3275159,44.658538 80.6070776,44.655394 79.8887396,44.65749 C79.8729866,42.4116447 79.8771874,40.1647513 79.8866392,37.918906 C80.6060274,37.91681 81.3264657,37.9115701 82.046904,37.92205 C82.0605566,38.5518927 82.0122474,39.1848795 82.0847113,39.8115783 C82.3609143,39.0475926 82.8461075,38.2951349 83.583349,37.9073781" id="Fill-39" fill="#211F21"></path>
                    <path d="M99.2954367,38.8002457 C100.699556,37.3896494 103.349215,37.4168972 104.62416,38.9878362 C105.25113,39.7172381 105.441217,40.7086379 105.416012,41.6444941 C103.803952,41.6696459 102.189792,41.6235343 100.577733,41.6675499 C100.626042,42.2722409 100.915898,42.8957957 101.473555,43.1881853 C102.376728,43.6849331 103.523548,43.5612702 104.407818,43.0802422 C104.716578,42.9314274 104.971777,42.6924854 105.289988,42.5604385 C105.289988,43.0100267 105.288937,43.458567 105.287887,43.9081553 C104.302798,44.662709 103.01,44.8859311 101.797017,44.7748441 C100.694305,44.7203485 99.5674389,44.2361765 98.9236653,43.3128962 C98.0005381,41.9641314 98.1633193,39.9813319 99.2954367,38.8002457 Z M101.532366,39.1618027 C101.110185,39.3116655 100.814028,39.6952303 100.696406,40.1165228 C100.679602,40.2297058 100.526273,40.5147595 100.752066,40.4948476 C101.65524,40.4675999 102.577317,40.5378153 103.469988,40.4613119 C103.463687,40.0808911 103.278851,39.7109502 103.016301,39.4405684 C102.631927,39.0590996 102.028061,39.009844 101.532366,39.1618027 Z" id="Combined-Shape" fill="#211F21"></path>
                    <path d="M55.7015773,37.9513937 C56.3905096,37.9660656 57.0794418,37.9608257 57.7694243,37.9534897 C57.8387376,40.1773272 57.8061814,42.4032607 57.7956794,44.6281462 C57.0972953,44.6250023 56.3999614,44.6187143 55.7026275,44.6344342 C55.7099789,42.4064047 55.7120793,40.1783752 55.7015773,37.9513937" id="Fill-43" fill="#F57E44"></path>
                    <path d="M86.4273055,37.9199226 C87.1403924,37.9136346 87.8534794,37.9167786 88.5665663,37.9178266 C88.5718173,40.1636719 88.5686667,42.4095172 88.5686667,44.6553626 C87.8545296,44.6585066 87.1403924,44.6574586 86.4273055,44.6553626 C86.4231047,42.4105652 86.4220545,40.1647199 86.4273055,37.9199226" id="Fill-45" fill="#211F21"></path>
                    <path d="M90.0914695,37.9199226 C90.8633677,37.9241145 91.6363161,37.8958188 92.4071641,37.9345944 C92.7978392,39.0213614 93.2336728,40.0924085 93.6495527,41.1697435 C93.6936611,41.2996945 93.6957615,41.4390773 93.73987,41.5711242 C93.8448902,41.5417805 93.8459404,41.3782938 93.9026513,41.2965505 C94.3206315,40.1689119 94.7921721,39.0622331 95.1975499,37.9304025 C95.9694481,37.9021067 96.7413463,37.9178266 97.5142947,37.9220185 C96.5103019,40.2181675 95.4443473,42.4870686 94.4319529,44.7800735 C94.0223743,44.8052253 93.5970426,44.849241 93.1948154,44.7695936 C92.3304994,42.9691446 91.536547,41.1320159 90.6963857,39.3189909 C90.5041988,38.8484428 90.2426986,38.4061905 90.0914695,37.9199226" id="Fill-47" fill="#211F21"></path>
                </g>
            </g>
        </g>
    </g>
</svg>