<svg height="48" viewBox="0 0 113 48" width="113" xmlns="http://www.w3.org/2000/svg"><g fill="none" fill-rule="evenodd"><path d="m-55-16h224v80h-224z"/><path d="m16.1971716.02141354c3.0529361-.00209598 6.0995711.20959826 9.1399048.45587621.2310444.02934376.5335024-.0241038.6847315.19911835.895822 1.08886295 1.7202303 2.2489893 2.3398492 3.51915475.8475127 1.80883296 1.2476396 3.78639253 1.5889551 5.74299227.8076051-.00838393 1.6162603-.01571987 2.4238654 0 .255199.27247778.265701.71996998.3539179 1.07419108-.1638314.8991765-1.0712056 1.3760126-1.6446157 1.9723196.2688516.8614488.6248699 1.6925059.9262778 2.5434749.0966186.2599018.0735141.5407635.0756145.8121932.0168032 3.846128.0493595 7.6912081.0294057 11.5362881.0136526.3971887-.077715.844681-.4190305 1.092007-.3728216.2923895-.8716673.3039174-1.3243042.2997255-.6962837-.0167679-1.395718.0293437-2.0899013-.0398237-.4715405-.0366797-.9651353.0115279-1.4135714-.1645346-.3308135-.1792066-.536653-.5302836-.6479744-.8792647-.0640623-.6141229.0073514-1.2355818-.0357069-1.8518006-5.5692192.0094319-11.1384385.0010479-16.70765778.0041919-.96933611.0115279-1.93972242-.0230558-2.90800833.0178159.05040968.7032021.07141371 1.438892-.18483548 2.1096064-.11657239.3175414-.39907663.5659153-.74249256.5994511-1.20878208.1865424-2.44696981.1739665-3.6578523.0146718-.65322541-.0597355-1.2213845-.5701072-1.39886857-1.1894701-.07351412-4.1919651-.10607037-8.3902182-.0651125-12.5874234.02625504-.3259253-.01680323-.7042501.21004032-.9714879.36862078-.4412043.97353692-.723114 1.10376192-1.3299009-.08926714-.7367379-.85801473-1.0574232-1.30330023-1.5604591-.59546433-.472644-.56815908-1.3099891-.48729356-1.99223141.86956696.00419197 1.73913391.01781586 2.60765066-.00419196.16908247-.26828577.17433347-.61307491.27515283-.91070443.56920929-2.02891114 1.14261938-4.09974193 2.27263634-5.90019097.4505365-.721018.91367542-1.44413199 1.48078431-2.07921472.83386009-.15510271 1.70132664-.1561507 2.54778916-.2515179 2.31989537-.16034267 4.64294147-.3018215 6.97018827-.28086167zm-6.48499511 21.58023666c-.27200223.2116942-.14387763.6591865.17853428.7346419 1.39886853.1697746 2.80298813.3028695 4.21130853.358413 2.8702011.1802545 5.7519544 0 8.604302-.3405972.3087593.008384.5944141-.355269.4022272-.6350827-.0987189-.244182-.3938256-.2043583-.6049161-.1875904-1.8115978.2295101-3.6368483.3709889-5.4631489.354221-.4547373.0523996-.9094746.0534476-1.3631617.001048-1.8294513.0125759-3.6568021-.1393828-5.4715505-.357365-.1617311.002096-.36336981-.0534476-.49359481.0723114zm15.21952211-6.9198865c-1.2623424.2525659-2.198072 1.558363-2.0048349 2.8316725.1165723.9337602.7887014 1.7763452 1.6813728 2.0844546.5996651.2347501 1.2549909.1330949 1.8830115.1540548.5576571-.0178159 1.1363182.0649754 1.6761218-.1152791.8737678-.2630458 1.5784531-1.0322714 1.7506861-1.928304.1911367-.8457289-.1039699-1.7784412-.7393419-2.3684603-.5082976-.5093237-1.2413383-.7566497-1.9544252-.715778-.7634966.0282957-1.536445-.0607835-2.2925902.0576395zm-20.45582747.0398237c-.90842441.2452299-1.63411374 1.0322714-1.81369822 1.9524077-.24049617 1.0794311.3182111 2.2730931 1.30540063 2.775081.88426978.4873159 1.9239694.2441819 2.88385369.3049654 1.00189236.0827914 2.03424057-.4401563 2.50683131-1.3340929.52090001-.9285203.37807259-2.1871578-.35916896-2.9616234-.53350243-.596307-1.35055931-.8897446-2.14346154-.835249-.79185203.0419196-1.6026077-.0901273-2.37975691.0985112zm7.14872257-12.87142906c-1.2224347.09746319-2.47637549.11737503-3.66520374.41710053-1.27914559 1.7208017-2.49842969 3.57889026-2.97837184 5.69688066-.10712057.4087166-.07561452.99244775.33291392 1.20938195 7.19913216.02515179 14.40036486.00104799 21.60054726.0115279.2541488.01362389.6122675-.00523996.6931331-.30182149.057761-.57220325-.0861166-1.13916653-.244697-1.68412201-.5524061-1.75538541-1.5458968-3.3326123-2.666462-4.77884028-.0913675-.08907926-.1606808-.24627795-.3098095-.23789402-4.2365134-.43806036-8.5076834-.5659153-12.7620502-.33221324z" fill="#f57e44"/><path d="m46.8798521.52761429c2.5740442-.28610162 5.1648916-.42967643 7.7546888-.50932376 3.7177138-.0848873 7.4333272.1561507 11.135288.46530813.145978.02200782.3245123.00419196.4179802.14567079.9777377 1.16117435 1.8546561 2.42085988 2.4952791 3.80001642.7739986 1.74804947 1.1331676 3.63757776 1.4881357 5.50300226.8086553-.01047991 1.6183607-.01676786 2.4259658-.00104799.2184419.28505366.2593998.71473006.3350143 1.07209506-.114472.728354-.7529946 1.2219579-1.2906978 1.6631622-.1207732.124711-.4326831.2095983-.3077091.4359644.2593998.8038093.5765607 1.5877068.8716674 2.3778922.0546105.1435748.0787651.2955336.0808655.4485403.0147028 4.0159026.0672129 8.0318052.0346567 12.0477079.0115522.3929967-.1281246.8153372-.4715406 1.0375113-.4232312.3049655-.9672357.2630459-1.4608304.2599019-1.0218462-.0094319-2.0510438.0419196-3.0644884-.119471-.5230004-.0681195-.8401613-.5921151-.9409807-1.0658072-.0283554-.5805871.0010502-1.1643183-.0136526-1.7459535-6.5280534.004192-13.0561067.00524-19.5831099-.001048.0283555.727306.0714137 1.4923396-.2184419 2.1777259-.1165724.2923896-.3812232.5103718-.6962837.5522915-.9567337.1655826-1.9365718.1582466-2.9038075.1068951-.5755105-.0555436-1.2255853-.0534476-1.677172-.4684521-.3161107-.2965816-.5849624-.7042502-.5545065-1.1538384-.0199538-4.1940612-.0913676-8.3881223-.0189036-12.5821835-.0577611-.6204108.5303518-.955768.9126252-1.3330449.2793536-.2462779.494645-.6728104.270952-1.0238875-.4190305-.6528986-1.2087821-.9777759-1.5774029-1.6704981-.1795844-.482076-.1554298-1.01550356-.0987189-1.51853938.8832196-.00523996 1.7653889.00104799 2.6475583-.00209598.6479744-2.40618801 1.2633926-4.8857354 2.6328555-7.0037258.4253317-.65289857.8464625-1.32046902 1.374714-1.89476825zm2.9594682 21.41151001c-.2457472.1624387-.1995383.5805872.0787651.6801464.8317597.3248773 1.7212805.476836 2.6002992.6109789 2.411263.3238293 4.8613834.3385012 7.281048.0911752 1.0922097-.1330948 2.198072-.2965815 3.22937-.6979621.4242815-.1330949.2425966-.8562089-.2005885-.7556018-2.0247888.6686185-4.1777021.8017134-6.2959588.8195292-1.9502245-.0157199-3.9225031-.1289029-5.8118159-.6445146-.2846046-.0513516-.6049161-.2976296-.8811191-.1037512zm15.0252348-7.2070361c-1.0134446.2661898-1.8031963 1.208334-1.8672586 2.2542293-.0829659.8886966.3528678 1.7920651 1.0890591 2.2951009.5145988.369941 1.1625733.488364 1.786393.4537803.7319906-.0324878 1.4765835.0702154 2.2012227-.0733594.9703863-.2284621 1.7559371-1.0731431 1.9071661-2.0572069.1449278-.849921-.1753837-1.7627214-.8307095-2.3265407-.5177494-.4642601-1.2255853-.6780504-1.9145176-.6361307-.7897516.0387757-1.5952562-.0838393-2.3713552.0901272zm-20.1806747-.0303917c-1.1762258.242086-2.0720478 1.3969724-1.9901321 2.5958744.0220543 1.0039757.7162376 1.9450718 1.6635194 2.2793811.4967454.2033103 1.0418.1519587 1.5658507.1571987.4883437-.007336.9787879.0157198 1.4671316-.0115279.9808884-.0702155 1.8756602-.7744656 2.1844195-1.7040339.2982572-.8247691.1144719-1.7941611-.452637-2.4606835-.5135486-.6298428-1.3379568-.963104-2.1455619-.9169924-.7634966.0314397-1.536445-.0597355-2.2925902.0607835zm3.4950711-12.45118453c-1.2287359 1.67783406-2.4154638 3.45941925-2.937414 5.49776231-.130225.47788403-.1785343 1.07419107.2467974 1.42526816 7.2505921-.0125759 14.5022344 0 21.7528265-.00523996.2341949.01362389.5513558-.08698328.5597574-.36784494.0231045-.53237958-.1113213-1.05742322-.255199-1.56569899-.5702595-1.85704057-1.6446157-3.51077082-2.843946-5.02197426-3.2724283-.3374532-6.56271-.5051318-9.8529917-.44434831-2.2274777.05344756-4.4696582.0964152-6.6698306.48207599z" fill="#79797b"/><path d="m87.1981535.48781158c4.0800334-.38146883 8.1842214-.61097892 12.2821082-.41814852 2.2337793.10165515 4.4738593.2169342 6.6960853.46530813.98614 1.1192547 1.839954 2.36531634 2.50053 3.70360122.820208 1.79625707 1.232937 3.74761685 1.553249 5.68640074.828609.00838393 1.657218-.01886384 2.485827.0115279.163831.47788405.457888 1.05113525.148078 1.53425925-.358118.6099309-.933629 1.0521833-1.496537 1.4619479.20689.721018.497796 1.4137402.755095 2.1169424.100819.2881976.26045.5701072.243647.8845046.022054 3.9802709.063012 7.9605418.037807 11.9408128.021004.4202445-.093468.8855526-.459988 1.1349745-.385424.2798137-.880069.2787657-1.334807.2640938-1.084858-.0167678-2.180218.0565916-3.254574-.1289029-.486244-.0817433-.755095-.5701073-.886371-.9976877-.035707-.5910671-.012602-1.1842302-.008401-1.7752972-2.955268-.0586876-5.915786-.008384-8.8731539-.0251518-3.5654345-.008384-7.1308691.0146718-10.6963036-.0115279-.0262551.7692256.0745643 1.5939947-.3014079 2.3003408-.1974379.3992847-.6815809.4653082-1.0764567.5040839-1.1132137.1027031-2.2421805.110039-3.3480428-.0618315-.7592958-.1110871-1.416722-.840489-1.3484589-1.6191466-.0241546-4.1573814-.0892671-8.3158109-.021004-12.4721443-.0682631-.6130749.4998959-.9547201.8874203-1.3152291.2793537-.2483739.5272013-.6717624.3066589-1.0354154-.4200806-.6832903-1.2612921-1.0071196-1.6099591-1.7438575-.1491286-.4663561-.1239238-.96834394-.0850663-1.44937194.8895208-.03982367 1.781142.00209598 2.6717129-.02305581.4295325-1.7564334.9315289-3.50343488 1.6372644-5.17183702.5713097-1.28169335 1.3484589-2.46173154 2.2043732-3.56945833.0766647-.14567079.2383958-.18235049.390675-.19073442zm-.4053778 21.12331242c-.3423657.1351909-.276203.7094901.0892671.7702736 2.0615458.5480995 4.1703507.9232803 6.291758 1.1527904 4.7059536.5365716 9.5032742.0796474 14.0695512-1.1485984.491495-.0670715.407478-.8635448-.087167-.8184812-2.781984.7356899-5.639582 1.206238-8.5160847 1.3340929-3.8531898.1571987-7.718982-.3322132-11.4471978-1.2921733-.1375764-.0534475-.270952-.0534475-.4001268.002096zm17.9784013-6.8790148c-.925227.2578059-1.66877 1.078383-1.812648 2.0289111-.200588 1.0479913.354969 2.172486 1.295949 2.6713298.556607.3248773 1.217184.3332613 1.843104.3143974.789752-.0324877 1.625712.119471 2.369255-.2253181.895822-.4013807 1.528043-1.3456208 1.498638-2.3328286.026255-.969392-.580762-1.9000082-1.453479-2.3097728-.582862-.2986775-1.252891-.2546619-1.887213-.247326-.617518.0220079-1.25079-.0712634-1.853606.1006072zm-20.1775235-.0314397c-.6490246.1488147-1.2339869.5627713-1.5816037 1.1307826-.5450546.841537-.515649 2.0079513.0714137 2.8211925.4631389.6864343 1.2843966 1.0961989 2.1088049 1.0961989.630121.001048 1.2612922-.00524 1.8924634-.001048.7225387.003144 1.4461276-.3039175 1.9302706-.843633.7540447-.8205772.8737677-2.1431422.2625504-3.0769024-.4862434-.8153372-1.4618807-1.2575896-2.3965602-1.198902-.7613961.0366797-1.5353948-.0723114-2.2873391.0723114zm3.6715049-12.46376045c-.4904442.63403473-.9409807 1.29741321-1.3642119 1.97755956-.7487938 1.21776588-1.4240734 2.52356303-1.6656198 3.94463922-.0756145.3961407.0609117 1.08991094.5902133 1.02388749 7.177078-.00419197 14.355206.00104799 21.533334-.00314398.235245.01467188.507248-.10899109.538754-.36889293.012602-.69062626-.178535-1.36658064-.403278-2.01423926-.578661-1.62753047-1.529093-3.09157431-2.587696-4.44662704-.074565-.11737503-.20689-.16243865-.337115-.17187058-3.260876-.3248773-6.5396058-.48731595-9.8162349-.42129249-2.166566.07021541-4.348885.09851118-6.4881457.47998001z" fill="#01a9c7"/><g fill="#211f20"><path d="m20.8516757 4.22909857c1.2770452-.53447556 2.8996067.56696329 2.81244 1.95764773.1291748 1.26702147-1.1793764 2.37789224-2.4112629 2.14523817-.8023541-.10584712-1.5038888-.71787403-1.7338829-1.48919562-.3266127-1.05008728.281454-2.27099713 1.3327058-2.61369028"/><path d="m61.2896897 4.24065791c.8328099-.3489811 1.8546561-.0356317 2.4091625.65813853.598615.72835395.6269704 1.84551266.0514599 2.59482644-.541904.75979368-1.6204611 1.07419107-2.4858272.71892202-.9903402-.35631704-1.6110094-1.54054719-1.2822962-2.54766682.1711828-.64870661.6742294-1.19575807 1.307501-1.42422017"/><path d="m102.234941 4.23119455c1.273894-.53866752 2.902757.55753137 2.818741 1.9492638.133375 1.26911745-1.177276 2.38522818-2.411263 2.15152612-.802354-.10584712-1.501789-.71787403-1.733883-1.48814763-.326613-1.04903928.278303-2.26470918 1.326405-2.61264229"/><path d="m55.7267506 4.76987255c.8979224-.28714961 1.9260698.48417198 1.906116 1.42317218.0609117.87402473-.7781994 1.63486641-1.6351639 1.55731505-.5503057-.06811943-1.0659547-.41605254-1.275995-.93690421-.3392152-.81324124.1344258-1.83293677 1.0050429-2.04358302"/><path d="m89.9675352 4.76358461c.7739986-.22741411 1.661419.31125341 1.8399533 1.08991094.0399077.37203691.0619619.77970552-.1386266 1.11296675-.2593998.47683604-.7897516.76503364-1.3232541.79542539-.5377032-.02724778-1.0712056-.31544538-1.3316556-.79542539-.2037392-.33221324-.1869359-.74092984-.1396769-1.11191876.1239238-.52818761.5713097-.95576806 1.0932599-1.09095893"/><path d="m96.1584949 4.75309421c.9294284-.25151791 1.932371.58163517 1.8588569 1.53949921-.0031506.93585622-1.0344486 1.69984187-1.9281702 1.39278042-.7876512-.2043583-1.3285051-1.1307826-1.0333984-1.90420017.1501788-.50722778.5902133-.90336849 1.1027117-1.02807946"/></g><path d="m56.3705137 34.6491417c.7015347-.2557098 1.5763527.3238294 1.5070394 1.089911.0556607.4726441-.2814541.8949845-.6952335 1.081527-.4515867.125759-1.0113442.0796473-1.3127521-.3238293-.5440044-.5711553-.2499479-1.6180986.5009462-1.8476087" fill="#f57e44"/><path d="m87.1005058 34.6166435c.6931331-.241038 1.5553486.2546619 1.5700514 1.0134076.1176226.7032022-.5545064 1.3875405-1.2612921 1.2932213-.6931331-.00524-1.2360874-.7325459-1.0817077-1.4001164.0546105-.4150046.3917252-.7587457.7729484-.9065125" fill="#211f21"/><path d="m39.5242608 34.8126389c1.656168-.4705481 3.4362598-.1362389 4.9832068.5491474-.0094518.6403227-.0073514 1.2816933-.0010502 1.923064-1.1058624-.484172-2.2778874-.9924477-3.5139747-.8708807-.4106288.0419196-.8874204.1792065-1.0817077.5805871-.1501788.4202445.1890363.7849455.536653.966248 1.3232541.6811943 2.9710205.8981285 3.9550594 2.1179904.5629081.7063461.6658278 1.6956499.4253317 2.5455708-.2299942.8184812-.9052738 1.449372-1.677172 1.7690093-1.0375993.4453963-2.2001725.4118606-3.2986834.2819097-.8139063-.1519587-1.5942061-.4642601-2.307293-.8803127.0199539-.6979622.0084016-1.3959244.005251-2.0928386 1.0565029.6853863 2.2348291 1.3330449 3.5349787 1.2795974.5019964-.0450637 1.1751757-.1750146 1.3117019-.7472178.1165724-.4495883-.223693-.8321051-.6017656-1.0144556-1.1657238-.601547-2.5572409-.7933294-3.5549325-1.6966979-.8338601-.716826-1.0974607-1.9576477-.7435428-2.9773432.3066589-.8866007 1.1468202-1.4923396 2.0279394-1.7333776" fill="#f57e44"/><path d="m7.60652221 34.7089087c.82965929-.002096 1.65931858-.001048 2.49002809-.001048.0021004 1.328853-.0031506 2.6577059.0021004 3.9876069 1.6519672.0031439 3.3028841 0 4.9548513 0 .0063012-1.329901-.0031506-2.6598019.0042008-3.9897029.8296593.00524 1.6593186-.001048 2.4889779.003144.0010502 3.3127005-.0021004 6.6243529.0010502 9.9370534-.8307095.0125759-1.661419.0062879-2.4921285.003144-.0021004-1.3382849.0031506-2.6765698-.0031506-4.0148547-1.650917-.0073359-3.3018339-.0031439-4.9527509-.0020959-.0063012 1.3382848-.0010502 2.6765697-.0021004 4.0159026-.83175971.0052399-1.6635194.0125759-2.4952791-.00524.00840162-3.3116525 0-6.6233049.00420081-9.9339094" fill="#00aac7"/><path d="m46.7874238 34.7214427c.6962837.0062879 1.3915172.0094319 2.0878009-.001048.0409578 2.164102.0010502 4.3303.0199538 6.49545.0987189-.0712634.1953375-.1477668.2688516-.246278.776099-1.0092156 1.5795033-1.9964234 2.3535019-3.006687.8275589-.0115279 1.656168.00524 2.484777-.0104799-.8790187 1.0993429-1.7611881 2.1944938-2.6160522 3.3116525.9136754 1.1213507 1.817899 2.2489893 2.7315744 3.37034-.8664163-.0199119-1.7338829-.001048-2.6002992-.0125759-.6983841-.9128004-1.4209228-1.806737-2.1308591-2.7090575-.1522793-.1896864-.2793537-.4097646-.4956952-.5365715-.005251 1.0846709.0126024 2.1693419-.0073514 3.2529649-.7004845-.0062879-1.3999188-.0041919-2.0993531-.001048.0147028-3.3022205.0084016-6.6044411.0031506-9.9066616" fill="#f57e44"/><path d="m68.9887179 34.6900029c1.4135714.001048 2.828193 0 4.2417644 0 1.4902361-.0471596 3.0791912.3311653 4.1945053 1.3676287 1.020796.9148964 1.5479972 2.3097728 1.4965373 3.6679695.0451587 1.3529567-.4652393 2.7572651-1.5133405 3.6459617-.9556835.8174332-2.2148753 1.1685103-3.447812 1.2733094-1.6582684.0209598-3.3175869.0104799-4.9769055.0104799-.0021004-3.3221324-.0115522-6.6442648.005251-9.9653492zm2.5404377 1.8874323c-.0042008 1.813025 0 3.6270979-.0021004 5.4411708-.0073514.2630458-.0094518.5292356.0378073.7901854.7676974-.0335357 1.5406458.0261998 2.3051926-.0670714.7697978-.118423 1.5248928-.5177077 1.9439232-1.1894701.5555567-.8614488.619619-1.9618397.374922-2.9364716-.2047893-.7713216-.7571954-1.4514679-1.5028385-1.7574814-.9955912-.4422523-2.1035539-.23475-3.1569062-.2808617z" fill="#211f21"/><path d="m22.0047971 37.8654689c1.2570914-.2075022 2.6528094.0649755 3.609543.9442402 1.0134446.9295683 1.2129829 2.4900273.7939525 3.7497128-.3140103.9358562-1.1289668 1.6359144-2.0478932 1.9534558-1.3495091.481028-2.9710204.3343092-4.1220414-.5533394-1.4345755-1.1150627-1.6372644-3.4164516-.526151-4.8218079.5639582-.6979622 1.416722-1.1192547 2.2925901-1.2722615zm.3161107 1.2754054c-.635372.2221742-.9304786.9128004-1.0029425 1.5342593-.0787652.7419778-.0682631 1.5520751.3192613 2.2154536.4368838.7650336 1.6645695.8541129 2.2148752.1708225.3980264-.4967478.4725907-1.1611743.4830928-1.7752972 0-.6162189-.0693134-1.2869333-.473641-1.7815852-.3644199-.4412043-1.0176454-.5418115-1.5406458-.363653z" fill="#00aac7"/><path d="m30.4000985 38.4806293c.4662895-.3269732.9777377-.6235548 1.5595494-.6633784 1.1132138-.1425269 2.2694858.3971887 2.8796529 1.3340929.6374724.9190883.7403922 2.1169424.4799422 3.1827495-.1995384.8310571-.713087 1.6044747-1.4692321 2.0247192-1.0565029.5900191-2.3997108.5439075-3.4551634-.0251518.005251 1.2219578.0031506 2.4439157.0010502 3.6658735-.7078359 0-1.416722.001048-2.1245579 0-.0021004-3.3577641-.0021004-6.7155282 0-10.0732923.7067857-.0031439 1.4146216-.0020959 2.1224575 0 .0010502.1844465.0042008.368893.0063012.5543874zm-.0042008 1.3634367c.0073514 1.0333194-.0063012 2.0676868.0073514 3.1010062.4694401.3081095 1.0428502.5166597 1.6078587.3741329.651125-.121567 1.1079627-.723114 1.2213845-1.3498128.119723-.6686184.0945182-1.4105962-.2667512-2.0058553-.2699018-.4558762-.8160067-.6895783-1.3337561-.6570905-.4694401.0031439-.8758681.2651418-1.2360873.5376195z" fill="#00aac7"/><path d="m62.0248203 38.4848003c.5009462-.3238293 1.0354988-.6392746 1.6519672-.6560425.9766875-.1089911 1.9754293.3259253 2.5918976 1.083623.7855509.9337602.9640851 2.2605172.6616271 3.4185476-.2079399.8991765-.8034043 1.7218497-1.6530174 2.1117024-1.0281474.4915079-2.2579335.3909008-3.2608761-.112135.0073514 1.2167178.0031506 2.4334357.0021004 3.6501536-.7025849-.0041919-1.4051698-.002096-2.1077547 0 .0157531-3.3420442.0115523-6.6840884.0021004-10.0250847.6983841.00524 1.3978184.006288 2.0972527 0 .0031506.1750146.0094518.3521251.0147028.5292356zm-.0126024 1.3581968c.0178534 1.0343674.0010502 2.0687348.0084016 3.1041502.6836813.5323795 1.7853428.6151708 2.4070622-.0544956.5650085-.6633785.62487-1.6264825.3990766-2.4376277-.1333756-.5564834-.5881129-1.0448473-1.1657238-1.1370706-.5996651-.1467188-1.2024809.1425268-1.6488166.5250437z" fill="#f57e44"/><path d="m83.583349 37.9073781c.7204383-.3385012 1.4975875.0408717 2.0646964.4967479-.2110905.6340347-.4032774 1.2743574-.6059663 1.9115361-.4862434-.2861016-1.0333984-.6329868-1.6215114-.4537802-.7540447.3060134-1.047051 1.1444064-1.3400572 1.8350327-.0756146.9809199-.0136527 1.9733676-.0336065 2.9584794-.7193881.003144-1.4398264 0-2.1581644.002096-.015753-2.2458453-.0115522-4.4927387-.0021004-6.738584.7193882-.002096 1.4398265-.0073359 2.1602648.003144.0136526.6298427-.0346566 1.2628295.0378073 1.8895283.276203-.7639857.7613962-1.5164434 1.4986377-1.9042002" fill="#211f21"/><path d="m99.2954367 38.8002457c1.4041193-1.4105963 4.0537783-1.3833485 5.3287233.1875905.62697.7294019.817057 1.7208017.791852 2.6566579-1.61206.0251518-3.22622-.0209598-4.838279.0230558.048309.604691.338165 1.2282458.895822 1.5206354.903173.4967478 2.049993.3730849 2.934263-.1079431.30876-.1488148.563959-.3877568.88217-.5198037 0 .4495882-.001051.8981285-.002101 1.3477168-.985089.7545537-2.277887.9777758-3.49087.8666888-1.102712-.0544956-2.2295781-.5386676-2.8733517-1.4619479-.9231272-1.3487648-.760346-3.3315643.3717714-4.5126505zm2.2369293.361557c-.422181.1498628-.718338.5334276-.83596.9547201-.016804.113183-.170133.3982367.05566.3783248.903174-.0272477 1.825251.0429677 2.717922-.0335357-.006301-.3804208-.191137-.7503617-.453687-1.0207435-.384374-.3814688-.98824-.4307244-1.483935-.2787657z" fill="#211f21"/><path d="m55.7015773 37.9513937c.6889323.0146719 1.3778645.009432 2.067847.002096.0693133 2.2238375.0367571 4.449771.0262551 6.6746565-.6983841-.0031439-1.395718-.0094319-2.0930519.006288.0073514-2.2280295.0094518-4.456059-.0010502-6.6830405" fill="#f57e44"/><g fill="#211f21"><path d="m86.4273055 37.9199226c.7130869-.006288 1.4261739-.003144 2.1392608-.002096.005251 2.2458453.0021004 4.4916906.0021004 6.737536-.7141371.003144-1.4282743.002096-2.1413612 0-.0042008-2.2447974-.005251-4.4906427 0-6.73544"/><path d="m90.0914695 37.9199226c.7718982.0041919 1.5448466-.0241038 2.3156946.0146718.3906751 1.086767.8265087 2.1578141 1.2423886 3.2351491.0441084.129951.0462088.2693338.0903173.4013807.1050202-.0293437.1060704-.1928304.1627813-.2745737.4179802-1.1276386.8895208-2.2343174 1.2948986-3.366148.7718982-.0282958 1.5437964-.0125759 2.3167448-.008384-1.0039928 2.296149-2.0699474 4.5650501-3.0823418 6.858055-.4095786.0251518-.8349103.0691675-1.2371375-.0104799-.864316-1.800449-1.6582684-3.6375777-2.4984297-5.4506027-.1921869-.4705481-.4536871-.9128004-.6049162-1.3990683"/></g></g></svg>