<svg height="20" viewBox="0 0 111 20" width="111" xmlns="http://www.w3.org/2000/svg"><g fill="none" fill-rule="evenodd" transform="translate(-56 -30)"><path d="m0 0h224v80h-224z"/><path d="m58.0574693 47.5406001c-1.2367632-1.2978576-2.0574693-3.1625183-2.0574693-5.0951684v-12.4400464h3.7240463v12.3845105c0 1.0205147.2996282 1.8771142.9955172 2.5940324.6985733.719611 1.5320295 1.003349 2.4664803 1.003349h4.9108155v3.680517h-4.938329c-2.1581283-.0026926-3.8988574-.865014-5.101061-2.1271941zm21.5366574-12.2495414c.8874766.3874051 1.6642283.9249255 2.3312617 1.6118881.6666979.6872991 1.1931443 1.4991333 1.5793392 2.4355026.386195.9360327.5794602 1.9531815.5794602 3.0511098 0 1.0885041-.1932652 2.0962287-.5794602 3.0231737-.3861949.9272816-.9126413 1.7320476-1.5793392 2.4146345-.6670334.682587-1.4437851 1.2153953-2.3312617 1.5980882-.8874766.3830296-1.8370262.5742078-2.8483133.5742078-1.0206819 0-1.9725802-.1911782-2.8553594-.5742078-.8827791-.3826929-1.655169-.9155012-2.317505-1.5980882-.6620004-.6825869-1.1860981-1.4873529-1.5722931-2.4146345-.3861949-.926945-.5794601-1.9346696-.5794601-3.0231737 0-1.0979283.1932652-2.1150771.5794601-3.0511098.386195-.9363693.9102927-1.7482035 1.5722931-2.4355026.662336-.6869626 1.4347259-1.224483 2.317505-1.6118881.8827792-.3877417 1.8346775-.581276 2.8553594-.581276 1.0112871 0 1.9608367.1935343 2.8483133.581276zm-1.4689499 10.7682469c.4321625-.1871392.81366-.4543848 1.144828-.8024099.331168-.3476885.5908682-.7626933.779436-1.245351.1882323-.4826576.2828517-1.0154659.2828517-1.5980882 0-.5910368-.0946194-1.1366352-.2828517-1.6367951-.1885678-.5001598-.448268-.9262718-.779436-1.2786725-.331168-.3520641-.7126655-.6277242-1.144828-.8279901-.432498-.1999293-.892174-.299894-1.3793634-.299894-.4875249 0-.954247.0999647-1.4001662.299894-.4462548.2002659-.8274167.475926-1.144828.8279901-.3174113.3524007-.5704008.7785127-.7586331 1.2786725-.1885678.5001599-.2828517 1.0457583-.2828517 1.6367951 0 .5826223.0942839 1.1154306.2828517 1.5980882.1882323.4826577.4412218.8976625.7586331 1.245351.3174113.3480251.6985732.6152707 1.144828.8024099.4459192.1874758.9126413.2803723 1.4001662.2803723.4871894 0 .9468654-.0928965 1.3793634-.2803723zm53.1774622-15.4914929c.865331.3611518 1.54478.8700628 2.207116 1.5250501.634487.6458996 1.127716 1.3766177 1.489081 2.2352367.366734.873092.633816 1.8458121.633816 3.1207822v12.2226149h-3.724382v-12.5982397c0-.5678127-.22816-1.52505-.889825-2.2668753-.558993-.6270511-1.42768-1.1241817-2.503724-1.1241817-1.057255 0-1.914869.4880429-2.475875 1.1241817-.555638.6300803-.88949 1.5149526-.88949 2.2668753v12.5982397h-3.724382v-12.2226149c0-1.1854395.2342-2.3042359.627441-3.1483819.405991-.8717457.841509-1.5718348 1.480694-2.2126857.676092-.678548 1.359902-1.1642349 2.215504-1.5270696.888147-.3769711 1.745426-.5607445 2.766108-.5607445 1.021017 0 1.880981.1891587 2.787918.5678127zm10.523895 7.5044177h7.945348v3.4869827h-7.945348v.8858821c0 .970364.293253 1.6926675.767021 2.280002.615027.7626933 1.543102 1.2938187 2.735911 1.2618434h5.876806v3.6808536h-5.918076c-1.298501 0-2.335288-.2679187-3.309667-.7741371-.729442-.3789906-1.438752-.9134817-1.936343-1.4863432-.566374-.6522946-.87674-1.111055-1.227704-1.8404268-.508328-1.057202-.712665-2.2268221-.712665-3.1769913v-5.1207485c0-.9407449.203331-1.9461134.596907-2.8727218.337208-.7939954.892174-1.6546339 1.420969-2.203598.528796-.5489642 1.251863-1.137645 1.995061-1.4843238.901905-.4207267 1.826289-.703455 2.837912-.703455h6.253606v3.6808536h-5.876806c-.988471 0-1.848098.3210986-2.510435 1.013783-.631802.6607092-.992497 1.5826055-.992497 2.486663zm19.918061-4.3900305v15.9855943h-3.724717v-15.9855943h-5.255405v-3.6771512h14.235527v3.6771512z" fill="#696464" fill-rule="nonzero"/><path d="m103.292268 32.8434392-1.449154 1.4553777c-.671731-.6758553-1.45016-1.2069807-2.3346169-1.5933761-.914319-.3988489-1.8920531-.5984416-2.9338734-.5984416-1.0512152 0-2.0316336.1995927-2.940584.5984416-.9092861.3988489-1.7044919.9525252-2.3866242 1.6600192-.6817967.7078306-1.2216643 1.5438986-1.6196028 2.5082042-.3976029.963969-.5962366 2.0120833-.5962366 3.1423234 0 1.1211525.1986337 2.1588327.5962366 3.113714.3979385.9548813.9378061 1.7842177 1.6196028 2.4863264.6821323.703455 1.4773381 1.2520826 2.3866242 1.6458828.9089504.3944733 1.8893688.59171 2.9402484.59171 1.0421559 0 2.01989-.1972367 2.934209-.59171.7029349-.3029232 1.3387639-.6977332 1.9074879-1.1844298l1.470963 1.4765824c-.770713.6973965-1.643426 1.2561216-2.617805 1.6761751-1.1599265.5001598-2.4007161.7505764-3.7223683.7505764-1.3337314 0-2.5775407-.2504166-3.7307569-.7505764-1.1535518-.4994867-2.1628257-1.1962101-3.0284929-2.0884873-.864996-.8912674-1.5498125-1.9430841-2.054785-3.1551135-.5043015-1.2113562-.75662-2.5280624-.75662-3.9501186 0-1.4345097.2523185-2.7636694.75662-3.9871426.5049725-1.2234732 1.189789-2.2843776 2.054785-3.1823766.8656672-.8976625 1.8749411-1.6001077 3.0284929-2.1063261 1.1532162-.5062183 2.3970255-.7593275 3.7307569-.7593275 1.3216522 0 2.5624418.2531092 3.7223683.7593275 1.14919.5018428 2.156787 1.1965467 3.023125 2.0827654zm10.535974 2.4476195c.887141.3874051 1.664228.9249255 2.330926 1.6118881.666362.6872991 1.19348 1.4991333 1.579339 2.4355026.386531.9363693.57946 1.9535181.57946 3.0511098 0 1.0885041-.192929 2.0962287-.57946 3.0231737-.385859.9276182-.912977 1.7323841-1.579339 2.4146345-.666698.6832602-1.443785 1.2157318-2.330926 1.5980882-.887812.3833662-1.837026.5745444-2.848649.5745444-1.020682 0-1.97258-.1911782-2.855359-.5745444-.882779-.3823564-1.655169-.914828-2.31717-1.5980882-.662336-.6822504-1.186433-1.4870163-1.572628-2.4146345-.386195-.926945-.579125-1.9346696-.579125-3.0231737 0-1.0975917.19293-2.1147405.579125-3.0511098s.910292-1.7482035 1.572628-2.4355026c.662001-.6869626 1.434391-1.224483 2.31717-1.6118881s1.834677-.581276 2.855359-.581276c1.011623 0 1.960837.1938709 2.848649.581276zm-.92472 12.2306929c.602276-.2611872 1.134762-.6334461 1.596451-1.1194696.462024-.4850137.824061-1.063597 1.087117-1.7367597.26272-.6731627.394247-1.4159977.394247-2.2285051 0-.8246243-.131527-1.5856347-.394247-2.2830312-.263056-.6977332-.625093-1.2917992-1.087117-1.7828714-.461689-.4910722-.994175-.8761212-1.596451-1.1551472-.602948-.2786893-1.244145-.4183706-1.923929-.4183706-.679783 0-1.330711.1396813-1.952448.4183706-.622408.279026-1.154223.664075-1.596787 1.1551472-.442229.4910722-.795541 1.0851382-1.057926 1.7828714-.263055.6973965-.394247 1.4584069-.394247 2.2830312 0 .8125074.131192 1.5553424.394247 2.2285051.262385.6731627.615697 1.251746 1.057926 1.7367597.442564.4860235.974379.8582824 1.596787 1.1194696.621737.2611871 1.272665.3904343 1.952448.3904343.679784 0 1.320981-.1292472 1.923929-.3904343z" fill="#00a5d7"/></g></svg>