<svg height="28" viewBox="0 0 107 28" width="107" xmlns="http://www.w3.org/2000/svg"><g fill="none" fill-rule="evenodd" transform="translate(-59 -26)"><path d="m0 0h224v80h-224z"/><path d="m118.00469 38.0364196c.00359 3.9983753.00359 7.9949559 0 11.9915366 1.633471.095114 3.52004.6622085 4.943493-.4324993 1.419864-1.1754649 1.714247-3.1459389 1.866824-4.8759361.035901-1.8627978.111292-3.7578985-.326694-5.5830096-.193862-.8344904-.673133-1.6958997-1.527564-1.9866254-1.672962-.488132-3.550556-.1345952-4.956059.8865338m-5.3743-11.9933312c1.791434 0 3.584662-.0017946 5.376095.0017946 0 2.8749539.00359 5.7499077-.001795 8.623067 1.559875-1.2436598 3.591841-1.9166359 5.589702-1.7138458 1.687321.0843463 3.401569.7698846 4.482172 2.1068638 1.245746 1.500288 1.764508 3.4474322 2.008631 5.3443274.269254 2.3222162.262074 4.7000651-.240533 6.991773-.473886 2.1355774-1.619111 4.2442358-3.566711 5.364068-2.247369 1.351336-4.979394 1.3172386-7.512171 1.1682865-2.058892-.1453628-4.108808-.4199371-6.137185-.8021875.003591-9.0286472 0-18.0554998.001795-27.084147zm23.003204 16.4618745c2.798441-5.5040471 5.602267-11.004505 8.411478-16.5031683 4.584489-.0017946 9.170773 0 13.757057-.0017946 2.732026 3.7345686 5.464051 7.4691373 8.197871 11.2019113-2.796646 5.5022525-5.623807 10.986559-8.395323 16.5013737-2.732025-3.732774-5.462256-7.4637535-8.188896-11.2001167-4.595259 0-9.188723 0-13.782187.0017946zm-60.7346255-6.8087055c1.4844842-1.405174 3.3387431-2.5519253 5.4155848-2.7313856 1.5670552-.1363898 3.3154077.0484543 4.5503836 1.1144484 1.2295909 1.0731726 1.6334711 2.7780453 1.6855267 4.3465282.0035901 5.0679586-.001795 10.1359172.0017951 15.2038758-1.7932281.0017946-3.5882513.0017946-5.3814794 0 .0035901-4.8364548 0-9.671115.0017951-14.5057752.0323104-.6640031-.2746386-1.4302985-.9818777-1.595402-1.6478312-.4271155-3.2902774.3086717-4.7262959 1.0516373.0017951 5.0177097-.001795 10.0354194.0017951 15.0513345-1.7932281-.0035892-3.5864562.0017946-5.3796843-.0017946-.0017951-4.8364548.0071801-9.671115-.0035901-14.5075698.0125652-.6263164-.231558-1.3674874-.9011016-1.5577153-1.6532163-.4863374-3.3764385.1866387-4.7980968 1.0175398.00359 5.0159151.001795 10.0318302.001795 15.0477453-1.7950231 0-3.5900462 0-5.3832743.0017946-.0035901-6.7728313-.001795-13.5456627-.001795-20.3166994 1.4988443-.0017946 2.9958935 0 4.4929428 0 .2548933.646057.5044015 1.2957033.7485247 1.9453495 2.1324874-1.9417603 5.2540327-2.8839268 8.0578588-2.0207228 1.2008704.3535367 2.1360775 1.3136493 2.5991934 2.4568113zm14.6169092-2.3867859c2.0714567.008973 4.1429134.0053838 6.2143701.0017946.8921265 4.098873 1.7914331 8.1959514 2.6781745 12.2966191.3248992 1.6277048.6264631 3.262588.8723812 4.9064443.4002902-1.8681816.6695436-3.7614877 1.0806035-5.6278747.841866-3.8583963 1.678347-7.7185871 2.525598-11.5751887 2.069662.0071784 4.141118 0 6.21078.0035892-2.209673 6.7674475-4.397807 13.5438681-6.598505 20.3149048-2.127102-.0017946-4.2542048.0035892-6.3813072-.0017946-2.2096735-6.7710367-4.3942166-13.5474573-6.6020951-20.318494z" fill="#e0011b"/></g></svg>