<svg height="32" viewBox="0 0 172 32" width="172" xmlns="http://www.w3.org/2000/svg"><g fill="none" fill-rule="evenodd" transform="translate(-26 -24)"><path d="m0 0h224v80h-224z"/><path d="m26.0260115 24.0056514c.3524519-.0535659.5244485.2861548.7415588.4905511 2.0202544 2.1229021 4.0390989 4.2486235 6.0593533 6.3715257.0028196-2.2201666 0-4.4389236.0014098-6.6590902h1.8087832c-.0070491 3.6058325.014098 7.2102554-.0098687 10.8160879-.1494396-.0465178-.2777321-.1240475-.3834677-.2368178-2.1372683-2.2638651-4.2914544-4.5122243-6.4329522-6.7732702-.0028196 2.2554074 0 4.5108147-.0014098 6.766222h-1.8059636c.0155079-3.5917362-.029606-7.1834723.0225569-10.7752085zm70.8230822.0972785c1.6438357-.2565526 3.4117343.2495044 4.6030223 1.4279548 1.793275 1.8282896 2.078056 4.9365228.666839 7.0678827-.855754 1.2644378-2.2458239 2.2145281-3.7952025 2.3075637-1.6452455.212854-3.4046854-.3270341-4.5536787-1.5421348-1.787636-1.8973614-1.956813-5.069028-.4257619-7.1665568.8035904-1.1516674 2.1203507-1.914277 3.5047818-2.0947096zm-.1367513 1.6845074c-.6555606.1874807-1.253319.5892251-1.6649828 1.1347518-1.2110248 1.6154355-1.1095187 4.1767324.3933363 5.5807235 1.2942034 1.2362452 3.6387135 1.1291133 4.7510521-.3030703 1.289974-1.6436281 1.188467-4.3261532-.3778288-5.7597465-.8331963-.7513326-2.0357623-.9585482-3.1015768-.6526585zm-57.5441041-1.5788134c2.1541861 0 4.3083721-.0014096 6.463968 0v1.6563148h-4.6551848v2.7487777h4.2040463v1.621074h-4.2040463v2.9249814h4.6551848v1.621074c-2.1555959.0014097-4.3097819 0-6.463968 0-.0014098-3.5240739-.0014098-7.0481479 0-10.5722219zm17.1009666 2.0073408c.7894923-.9966082 1.9131089-1.7296155 3.1621985-1.9932163 1.7241947-.4369851 3.6105174-.0479274 5.0964546.9035726-.2720929.4820933-.549825.962777-.8233277 1.4448703-1.0799126-.7034051-2.4276887-1.0149333-3.7021548-.8020792-1.0390282.2029866-2.0160249.8570548-2.4840811 1.8212414-.4384501.8345007-.5286778 1.8184222-.373599 2.7389103.2396673 1.240474 1.1334854 2.3724066 2.3416905 2.7882473 1.1306657.4398044 2.4220495.2861548 3.4822249-.2720585-.0014099-.6935377 0-1.3884851 0-2.0820229h-2.469983v-1.5858333c1.4112174 0 2.8210251-.0014096 4.2322425 0 0 1.5505926-.0014098 3.0997755 0 4.650368-.8515238.5173341-1.7848165.9359941-2.777321 1.0783667-1.4676098.1423726-3.0480041.0070481-4.2985035-.8429585-1.3125309-.7893926-2.2119882-2.191974-2.4220495-3.703097-.2283889-1.4476895.1423905-2.9799569 1.0362086-4.1443109zm25.7571995-1.9001807c1.473249-.0803489 2.9845628-.3650941 4.4352549.03806.8952278.201577 1.7721282.7217303 2.1922508 1.5618696.3425833.6371525.3101577 1.4293644.022557 2.0792036-.3073381.6597066-.9741771 1.0360777-1.6085906 1.3222326.5075308.1578785 1.0037831.3848288 1.4055783.7372362.6555605.6216467.8515238 1.6210741.630184 2.4767192-.2904204 1.0219815-1.1997463 1.7690851-2.1922509 2.0679266-1.5818042.5272015-3.2665243.1987578-4.8849835.07612-.0014098-3.4535925 0-6.907185 0-10.3593678zm1.7819969 5.765385c-.007049 1.0628607-.0042294 2.1257214-.0014098 3.1899917.6992646.0831682 1.4126272.1043126 2.1090722-.0211444.5470054-.1423726 1.1081088-.4933704 1.2631876-1.0699089.2157006-.6442007-.0281961-1.4392318-.6428722-1.7704947-.8317865-.4440333-1.8158323-.4355756-2.7279778-.3284437zm-.0028196-4.2880932c.0042294.9825118-.0098687 1.9664333.0084588 2.9489451.9121456-.0155059 1.9765503.1663363 2.7350268-.4609489.7049039-.5553941.630184-1.7719044-.1226532-2.2511784-.7810335-.4905511-1.7552105-.3242148-2.6208324-.2368178zm22.7740323-1.5844519h1.807374c.004229 2.1835163-.011279 4.3670325.007049 6.5491391.009868.8443681.284781 1.8015066 1.070044 2.2384918.999553.5539844 2.431918.4595392 3.211541-.4285274.630184-.7823444.569563-1.8466148.568153-2.7938859-.00141-1.8550725-.00141-3.710145-.00141-5.5652176h1.805964c.001409 2.1792874.002819 4.3571651 0 6.5364524 0 1.1291133-.328486 2.3202503-1.164501 3.1195103-1.033389 1.0107044-2.602505 1.2277874-3.981297 1.0346681-1.134895-.1409629-2.238775-.7682481-2.780141-1.800097-.559693-.962777-.556874-2.1116251-.542776-3.1899917zm12.899712.1056941c1.915928-.1621074 4.050377-.5088763 5.778801.555394 1.515544.9359941 1.773538 3.2322807.687986 4.5869347-.343993.5004185-.87408.8204044-1.402758 1.0952822.923424 1.4096296 1.853897 2.8164399 2.774501 4.2288887-.700674.0014097-1.401349 0-2.102023 0-.768345-1.2686666-1.53951-2.5359236-2.307855-3.8045902-.541366.0028192-1.082732.0028192-1.622689-.0324215v3.8370117h-1.805963c0-3.4888332-.00141-6.9776664 0-10.4664996zm1.807373 1.5167614c-.00141 1.2108718-.00141 2.4217436 0 3.6340251.872671.0408792 1.83416.1155896 2.615193-.3538171.993915-.6286947 1.082733-2.3244791.062032-2.9672702-.797951-.5074667-1.784817-.3820096-2.677225-.3129378zm25.988451-1.6675918c1.643835-.34254 3.455438.0211444 4.739773 1.1319326 2.161235 1.8917229 2.441787 5.5511213.58366 7.7445049-.864212 1.0614511-2.148547 1.8029162-3.528748 1.8733977-1.580395.1903-3.248197-.3228052-4.388732-1.4448703-1.985009-1.9946259-2.096383-5.5229287-.234028-7.6345538.717593-.8598741 1.746752-1.4209067 2.828075-1.6704111zm.322845 1.6027488c-1.061585.255143-1.915928 1.0995111-2.283888 2.1130348-.542776 1.4815207-.342583 3.3084006.775394 4.4769836 1.211025 1.316594 3.524519 1.3405577 4.753872.0338311 1.430954-1.5505926 1.428135-4.2373466-.023967-5.7724332-.819098-.8542355-2.089335-1.1601251-3.221411-.8514163zm13.379047-1.5251628c1.6819-.4440333 3.58937-.1621074 4.961113.9486807 2.103433 1.7127 2.537654 5.0605702 1.094011 7.3244354-.827558 1.2686666-2.185202 2.2384917-3.717663 2.3780451-1.628328.2410466-3.377899-.2368178-4.567777-1.396943-2.027303-1.9932162-2.131629-5.5680368-.242487-7.6895293.634414-.7696578 1.53669-1.2545704 2.472803-1.5646889zm.576611 1.5491829c-1.084142.2960222-1.924387 1.2165104-2.244414 2.2779614-.455368 1.4476896-.229798 3.1885822.857163 4.3050088 1.119388 1.2080526 3.194624 1.3208229 4.447943.2537333 1.054537-.8838377 1.425316-2.3583103 1.275876-3.6861813-.121243-1.1262941-.695035-2.2610459-1.701637-2.8361748-.771165-.5131051-1.76367-.5427074-2.634931-.3143474zm10.350808-1.4758821c1.880683-.1860712 3.841726-.3650941 5.667426.2424562 1.435185.4665874 2.705421 1.5477733 3.214362 2.9926437.58366 1.6675918.387697 3.6410732-.645692 5.0944013-.799361 1.1107881-2.076647 1.8170125-3.404686 2.0735651-1.595902.2861548-3.229869.1508304-4.83141-.0070482 0-3.4662791-.00141-6.9311486 0-10.3960181zm1.805963 1.5139421v7.3695435c1.366104.1240474 2.895745.1818422 4.071525-.64702 1.008012-.7104533 1.415447-2.001674 1.39007-3.1914014.00282-1.1023303-.44268-2.2765517-1.399939-2.8897406-1.180009-.7936215-2.699782-.8218141-4.061656-.6413815zm-123.8403219 8.9807501c.0338354-3.5367606.0183275-7.0735212.0070491-10.6102819.6104467.0310119 1.2223032.0197348 1.8327499.0112771-.0239667 3.5268932-.0183275 7.055196-.0028196 10.5834989-.6132663-.0028193-1.2251229-.0183252-1.8369794.0155059zm19.1494312-10.6004427h1.8059636v4.4050925c1.6240984 0 3.246787-.0014096 4.8708854 0 0-1.468834-.0014098-2.9362584 0-4.4050925h1.8059635c.0014099 3.524074 0 7.048148 0 10.5722219h-1.8059635c-.0014098-1.5153518 0-3.0307036 0-4.5460554h-4.8708854v4.5460554h-1.8059636zm61.7848197 10.5722219c-.00141-3.5240739-.00141-7.0481479 0-10.5722219h1.805963v4.4050925h4.870886c-.00141-1.468834-.00141-2.9362584 0-4.4050925h1.805963v10.5722219h-1.805963c-.00141-1.5153518-.00141-3.0307036 0-4.5460554h-4.870886v4.5460554zm54.393184.0197489c.011278-3.5311221.005639-7.0622442.002819-10.5933663.601988.0155059 1.205386.0084578 1.810193.0098674-.002819 3.524074-.002819 7.0481479 0 10.5722219-.604807.0014096-1.209614-.0070481-1.813012.011277zm6.341315-10.5919708h6.461148c-.00141.5525748-.00141 1.10374 0 1.6563148h-4.653775c-.00141.9162592-.00141 1.8325185 0 2.7487777 1.401349 0 2.804107-.0014096 4.206866 0-.00141.5398881-.00141 1.0811859 0 1.621074h-4.206866c-.00141.9754637 0 1.9495177 0 2.9249814h4.653775c-.00141.5398881-.00141 1.0811859 0 1.621074h-6.461148zm-83.071477 21.7548275c.821918-.7922118 2.028713-.9881503 3.126953-.9035725.759886.0479274 1.46761.3580459 2.12881.7146822-.195964.5384785-.387697 1.0797762-.579431 1.6196644-.847295-.6103696-2.000517-1.0050659-3.014169-.5906348-.747198.2805163-.996734 1.354654-.425762 1.9227347 1.078503 1.0107044 2.757584 1.1629444 3.678188 2.3766355 1.071454 1.3631118.487794 3.5860977-1.031979 4.3642132-1.664983.8669222-3.728941.4708163-5.243075-.5314303.205832-.5384785.413074-1.076957.617496-1.6168452.934703.6723933 2.120351 1.0811859 3.274983.924717.95585-.1423726 1.412628-1.3969429.821918-2.1426369-.741559-.8697415-1.961042-1.0219815-2.867549-1.6549052-.492022-.3524074-.969947-.7851637-1.182828-1.3673407-.422942-1.050174-.157899-2.355491.696445-3.1152814zm12.868682-.7922541c1.666392-.3679133 3.510421.0507467 4.790526 1.1953659 1.955403 1.7958681 2.307855 5.057751.830377 7.249725-.890999 1.2376548-2.285299 2.1666007-3.827628 2.2920577-1.742522.22836-3.620386-.4228889-4.738364-1.8015066-1.612819-1.9678429-1.659343-5.0521125-.084588-7.0566057.7331-.9754637 1.852487-1.609797 3.029677-1.8790363zm.308747 1.59852c-.971357.2368177-1.776357.9641866-2.180972 1.8691688-.51458 1.1671733-.524448 2.5528392-.00282 3.7186029.382058.8316814 1.081323 1.5407251 1.962453 1.8254703 1.311121.4158407 2.905613.0084577 3.717662-1.1418 1.067225-1.4927977 1.051717-3.7073258-.0719-5.1677021-.782443-1.0191621-2.19507-1.4448703-3.424423-1.1037399zm19.238221-1.5576125c2.842173-.0014097 5.684345 0 8.527927 0-.00141.5398881-.00141 1.0811859 0 1.621074h-3.353933v8.9511479h-1.805963c-.00141-2.9714992-.00141-5.944408 0-8.9159072h-3.368031c-.001409-.5525748-.001409-1.1037399 0-1.6563147zm11.131841 0c.66261-.0014097 1.326629 0 1.992059-.0014097.640052 2.2201666 1.274466 4.4403332 1.907469 6.6619095.80782-1.8367474 1.597312-3.6819525 2.399493-5.5201095.201602-.4510815.36232-.9233074.634413-1.3405577.097277.1395533.184685.2847452.260815.4383948.931883 2.1299503 1.870814 4.2556717 2.806927 6.3842124.631594-2.20748 1.253319-4.4177792 1.884913-6.6238495.65415.0028193 1.306891.0014097 1.962452.0014097-1.126437 3.5790495-2.219037 7.1693761-3.366621 10.7413774-.064851.0112771-.194553.0352408-.259404.0465178-1.130666-2.4400688-2.196481-4.9111495-3.310229-7.3596761-1.058765 2.3752259-2.093564 4.7603191-3.145281 7.1383643-.002819.2480948-.351042.3030703-.401795.0620237-1.130665-3.5395799-2.243004-7.086208-3.365211-10.6286071zm15.103326 10.5736033c1.629738-3.5818688 3.267934-7.1595087 4.894852-10.7413774.07049.0296022.212881.087397.283371.1169992 1.631148 3.5325318 3.22564 7.0833887 4.84128 10.6243782-.638643-.0028192-1.275876.0014096-1.913109-.0042289-.336944-.8006696-.685167-1.594291-1.02634-2.393551-1.3943.0014096-2.790009-.0014096-4.184309.0014096-.342583.79926-.687986 1.5971103-1.03057 2.3949607-.623134 0-1.24486 0-1.865175.0014096zm4.993539-7.3653146c-.503302 1.1728118-1.005193 2.3470333-1.502855 3.5212547 1.000963.0014097 2.001927 0 3.0043.0014097-.500482-1.1742215-1.002373-2.3470333-1.501445-3.5226644zm8.248756-3.1025947c1.698818-.1550593 3.494913-.4087926 5.13029.217083 1.02775.3820096 1.839799 1.3236421 1.958223 2.4287917.242487 1.4702437-.616086 3.0363422-2.023074 3.562134.924834 1.4180874 1.842618 2.8404036 2.768862 4.258491-.707724-.0042289-1.414037.0126866-2.120351-.0126867-.738739-1.2771244-1.532461-2.5232369-2.285298-3.7919036-.542776.0028193-1.084142.0028193-1.624098-.0324215.001409 1.2799437.001409 2.5584777 0 3.8370118h-1.804554c-.00141-3.4888332-.00141-6.9776665 0-10.4664997zm1.805963 1.5167614c-.001409 1.1967756 0 2.3935511-.001409 3.5917362.87408.0817585 1.836979.1635171 2.619422-.3115281.995324-.6315141 1.078503-2.3357562.050753-2.9743184-.799361-.5018282-1.776357-.3862385-2.668766-.3058897zm-50.397817-1.6196362c2.154186-.0056385 4.308372-.0014096 6.462558-.0028192-.00141.5398881-.00141 1.0797762 0 1.621074h-4.655185v3.1011851h4.091262c-.00141.5286111-.00141 1.0572222 0 1.5858333h-4.089852c-.00141 1.4209066 0 2.8432229-.00141 4.2641295h-1.805963c-.00141-3.524074.00141-7.0467383-.00141-10.5694027zm59.770219-.0028192h6.461148c-.00141.5398881-.00141 1.0811859 0 1.621074h-4.653775c-.00141.9275363-.00141 1.8564822 0 2.7840184 1.401349 0 2.804107-.0014096 4.206866 0-.00141.5286111-.00141 1.0572222 0 1.5858333h-4.206866c-.00141.9754637-.00141 1.9495177 0 2.9249814 1.550788 0 3.101577-.0014096 4.653775 0-.00141.5525748-.00141 1.10374 0 1.6563148h-6.461148z" fill="#000"/></g></svg>