<svg height="32" viewBox="0 0 146 32" width="146" xmlns="http://www.w3.org/2000/svg"><g fill="none" fill-rule="evenodd" transform="translate(-39 -24)"><path d="m0 0h224v80h-224z"/><path d="m135.609951 34.5631201c1.409645-.4658716 2.973134-.3719842 4.368468.1045834.641615.2424434 1.217638.6191813 1.757882 1.0363265l-.00477.1117141c.039356-.0130729.116874-.0404072.155037-.0534801-.251637.225805-.473459.4825098-.6762.751099l-.050089-.0178267c-.021467.045161-.0644.1366715-.085867.1818325-.172926.1889632-.341081.3826802-.492541.5882817-.13834-.1105257-.273103-.2186744-.412637-.3220694l.015504-.0308996c-.293378-.1580636-.572445-.3398961-.86463-.4967712-1.05306-.4230875-2.249231-.4991481-3.322564-.1057719l-.025045.103395c-.038163-.0059423-.114489-.0178268-.152652-.0249574-.129992.0986411-.261178.1925285-.394748.284039-.125222.0843798-.250445.1687596-.376859.2460087l.022659.0938874-.095408-.0368419-.17054.169948.035777.0915105-.090637-.010696c-.119259.1747018-.251637.3398961-.381629.5062788-.91949 1.4439641-.869401 3.3846994.00954 4.8357942l.0322.0023769c.338697.4884521.807386.8604363 1.295156 1.1920132.039356-.0095076.118067-.0285227.15623-.0380303l.010733.114091c1.04829.3814917 2.225379.4278412 3.284402.0606108.407867-.1295408.769222-.3660419 1.155622-.5443091.031008-.7392146.007156-1.4796176.016697-2.2188321-.963616.0071307-1.928423-.0059423-2.890846.0059422.005963-.5633243.010733-1.127837-.00477-1.6911613 1.602845.0047538 3.20569.0166383 4.808535-.0059422-.02743 1.5818241-.003578 3.1636481-.011926 4.7466607-.19797.1378599-.387593.2876043-.578408.4349719-.20274.1366715-.411444.2638354-.632074.3672304l-.035778.1022065c-.052474-.0095076-.157422-.0297112-.209896-.0392188l-.023852.1604405c-.053667-.0106961-.159807-.0320881-.213474-.0427842l-.025045.1556867c-.040548-.0023769-.120451-.0083191-.161-.010696-1.732837.8093329-3.836572.8164636-5.577757.0237689-.322001-.1628173-.632075-.3458383-.931416-.5454975l.016697-.0332766c-.442452-.2780968-.788304-.682169-1.106727-1.0874297-.112103-.1640058-.2254-.3256348-.341081-.4836983l.028622-.1461791-.162193-.0297112c.009541-.0534801.029815-.1604405.039356-.2139206l-.155037-.0225805c.003578-.0392188.009541-.1200332.013118-.159252-.6762-1.4261374-.686933-3.1351254-.162192-4.6123661.087059-.1972823.169348-.3957531.255215-.5942239.112103-.2008477.228977-.39813.353007-.591847.079904-.1176564.161-.2365011.243289-.3541575.288608-.3600997.60703-.7047496.989852-.9697734l.002386-.0249574c.1932-.1354831.385207-.273343.578407-.4100145l.087059.0095076c.157423-.1259755.323193-.251951.53309-.2757199l.016696-.0606109c.178889-.055857.357778-.1176563.539052-.1747018zm-19.49774-.0998178c.614186.0035654 1.228371 0 1.843749.0023769.135956.2008477.2898.3886225.436489.5823395.129993.1640058.261178.3268231.375667.5039019l.025044.0023769c.138341.1925285.288608.3767379.434104.5645127.127608.1640058.256408.3268231.372089.5003365l.035778.0071307c.100178.1461791.208704.2876044.312459.4337835.02743.034465.084675.101018.112104.135483.121645.1521214.243289.3054311.363741.4599293.1288.1687596.262371.3363308.373282.5193517l.022659-.0178267c.137148.1960939.288608.3826802.436489.5728319.131185.1663827.264756.3315769.375667.5134095l.023852-.0190152c.135955.1984708.283837.387434.430526.5775856.132378.1628174.265948.3268232.380437.5050904l.031007-.0011885c.098986.148556.208704.2911697.311267.4385373.028622.0332765.085867.0998296.115682.1342946.1288.1580635.256407.3196924.370896.4896405l.040548.0118845c.100178.1485559.207512.2935466.304112.4468564.121644.1414252.251637.2769083.403096.3921877.025045-2.5884394.020274-5.1780672.002385-7.7653181.647578.0202036 1.296349.0118844 1.946312.0059422-.020274 3.7638143-.00477 7.5288171-.008348 11.2926314-.543822-.0035654-1.087645-.0035654-1.631467 0-.106141-.1354831-.21586-.2674008-.318423-.4028839-.027429-.0344649-.079903-.1045834-.107333-.1390483-.126415-.1497445-.248059-.3030542-.363741-.4599294-.120452-.1604404-.245674-.3173155-.366126-.4765675-.155037-.2008477-.316037-.3957532-.469882-.5954124-.1288-.1687596-.261178-.3351423-.372089-.5145979l-.023852.0178267c-.137148-.1960939-.286222-.3826802-.431718-.5716434-.133571-.1663827-.267141-.3327654-.379245-.512221l-.023852.0023769c-.139533-.1925286-.287415-.3779265-.431718-.5645128-.132378-.1640058-.265949-.3280116-.379245-.5039018l-.031007-.0047538c-.102563-.1473676-.209897-.2899813-.31246-.4349719-.028622-.0332766-.085867-.0998297-.114489-.1331062-.1288-.1604405-.258792-.3208809-.370896-.4920174l-.036971-.010696c-.103755-.1473676-.211089-.2911698-.314844-.4361604-.157422-.1984708-.320808-.3945647-.474652-.5942239-.1288-.1687596-.259985-.3339539-.372089-.5134095l-.034585.0130729c-.104949-.1604404-.217052-.3161271-.31723-.4789444-.062015-.0202037-.184852-.0617993-.245674-.0831914.014311 2.6288466.002385 5.2576933.005963 7.8865399h-1.947505c-.003578-3.7614374.007156-7.5240633-.005963-11.2866892zm45.140876-.0106722c2.795438.0249574 5.592069.0118845 8.387507.0071307-.020274.5870932-.00477 1.172998-.010733 1.7600912h-6.411381c.002386.9852233.002386 1.9692581 0 2.9544813 1.898608 0 3.798409-.0011884 5.697017.0011885.002386.5859048-.008348 1.1718096.009541 1.7589028-1.905764-.0202036-3.811527.0130729-5.717291-.0166383.021467 1.0291959.016696 2.0583917.002385 3.088776 2.174097-.0118845 4.347002 0 6.519906-.0059423-.00477.5823395-.002385 1.1658673-.002385 1.7493952-2.821675.0035654-5.642158-.0071306-8.463833.0059423-.003577-3.7673797.016697-7.5359478-.010733-11.3033274zm-68.3964405.0106485c1.723297.0035653 3.4477865.0011884 5.1710835.0011884.5116224-.0047538 1.0196671.0831914 1.5134006.2127322.2146668.0736838.4281409.1568751.6249184.273343.039356-.0047538.115682-.0154498.155037-.0202036l.020275.1544982c.044125-.0047538.132377-.0154498.176503-.0202036.401904.2994888.782341.637008 1.070949 1.0517763.028622.058234.084674.1770788.112104.2365011.601067 1.1777519.514007 2.6716308-.226593 3.7697566-.217052.2614585-.460341.5003365-.727482.7095033-.416215.2590817-.8562816.4848868-1.3321263.6144276.1037556.2162975.2373261.4159567.3744743.6132391.2087037.2697776.407867.546686.599874.8295366.203934.273343.404289.5502513.596297.8319134.203933.2745315.404289.5502514.597489.8319135.199163.2757199.400711.5502514.589141.8342904.09183.1212217.184852.2424434.281452.3624766-.770415.0011884-1.539638-.0023769-2.30886.0023769-.106141-.1414253-.2098967-.2828506-.3076893-.4278412-.0846741-.1129026-.1681556-.2246167-.2504446-.3375192-.0846741-.1307293-.166963-.2614585-.2432889-.3957531l-.0369704.0011884c-.1812742-.2674008-.3625483-.5348015-.556941-.7915063-.0846741-.1319177-.1681556-.2638354-.243289-.4005069l-.0333926.0059423c-.102563-.148556-.2098964-.2947351-.3124594-.4421026-.0846741-.1295408-.1693482-.2590817-.2468667-.3909994l-.0429334-.0023769c-.0966-.1533097-.1967778-.3030542-.2898001-.4575524-.1132963-.1152794-.1884297-.3292-.3828224-.3054311-.7942669-.0047538-1.5885339-.0035653-2.3828009.0023769-.0202741 1.3132349.0190815 2.6288466-.0214667 3.9420815-.6440002-.0047538-1.2880005-.0011885-1.9308081-.0023769-.0035778-3.7614374.0071555-7.5240633-.005963-11.2866891zm1.9558526 1.7814833c-.0047704 1.2775814-.0011926 2.5551628-.0011926 3.8327443 1.0673708-.0071307 2.1359342.0237689 3.203305-.0142614.5485928-.0047538 1.0423263-.2519509 1.5098228-.5098441l-.0512815-.0641762.1395334-.0273343.0274296-.1390484.0679778.0511032c.5318964-.7677373.5605184-1.8813129-.1144889-2.5753664-.1288001-.0938874-.2552149-.1925286-.3768594-.2923582-.0393556.0118845-.1180667.0380303-.1574223.0499148l.0047704-.1259754c-.3804372-.0796261-.7572966-.1972824-1.1496597-.1877748-1.0339782 0-2.0679564-.0023769-3.1019346.0023769zm13.0446189-1.7850605c.660696.010696 1.321393.0035653 1.982089.0059422-.00477 3.7614374 0 7.5228748-.002385 11.2843122-.658311.0011885-1.31543-.0023769-1.971356.0023769-.003578-3.7638143.011926-7.528817-.008348-11.2926313zm40.335847.0036009c.660696.0023769 1.321393.0023769 1.982089 0-.014311 3.1719673 0 6.3439346-.007155 9.5147134 1.989245-.0142613 3.979683 0 5.970121-.0071306-.011926.5930354-.004771 1.1860709-.005963 1.7791064h-7.933129c-.003578-3.7614374.007155-7.5240633-.005963-11.2866892zm27.217394.0023769c1.713756-.0011884 3.42632.0011885 5.140076-.0011884 1.038749-.0047538 2.090616.2709661 2.939742.8818283l-.025044.0415957c.114489.0594224.217052.1342946.310074.2269935.06917.0843798.140726.1687596.215859.2519509.100178.1568752.197971.3149387.299341.4730023.44603.910351.477037 1.982331.196778 2.9461622-.104948.2269935-.212282.4527986-.320808.6786037l-.040548-.0095076c-.093022.1616289-.208704.3066196-.324385.4516102-.028622.0285227-.087059.0855682-.115682.114091-.243289.2186744-.502081.421899-.803807.5526282l-.038163.0950759c-.038163-.0023769-.116874-.0047538-.15623-.0071307-.217052.1295408-.45557.2198628-.700052.2697776.066785.1438022.135956.2840391.205126.4278412h.052474c.178889.2674008.368511.5276709.552171.7926948.203933.273343.404289.5502513.596296.8319134.202741.273343.404289.5490629.596297.8319135.20274.273343.401904.5502514.598681.8307251.143112.1960939.282645.3945646.411445.6013546-.762067-.0023769-1.524134.0154498-2.285008-.0059423-.150267-.1687596-.264756-.3624766-.369704-.5585705l-.033393.0083192c-.102563-.1497444-.206318-.297112-.305304-.4468564-.084674-.1176563-.166963-.2353127-.246866-.3541575-.202741-.2745314-.403097-.5502513-.590334-.8342903-.10137-.1366715-.205126-.273343-.306496-.4076376-.067978-.1176564-.129993-.2365012-.187237-.3565344l-.093023.0582339.025045-.1164678c-.100178-.1188448-.194393-.2376896-.286223-.3589113-.125222-.1842094-.250444-.3660419-.366126-.5550051-.856281-.0297112-1.714948-.0071307-2.57123-.013073-.002385 1.3156118-.002385 2.6300351 0 3.9456469-.657119-.0047538-1.314238-.0011885-1.971357-.0023769-.002385-3.7614374.002386-7.5228748-.002385-11.2843123zm1.970164 1.7755411c.002385 1.2811468.005963 2.5611051-.001193 3.8422519.977927-.0118845 1.955853.0035653 2.934972-.0071307.504467-.0047538 1.019667-.0998296 1.460926-.3577228.036971.0011884.112104.0047538.150267.0071307l-.002385-.079626c.15623-.1331062.306496-.2745315.453185-.4195221.341082-.5157864.331541-1.1527944.237326-1.7410761-.091829-.1663827-.177696-.3339538-.2576-.5039019l-.102563.0202036.0322-.0926989c-.042933-.0427841-.127607-.1283524-.170541-.1711365l-.093022.0356534.023852-.1045834c-.426948-.2186744-.875363-.4242758-1.365519-.4171452-1.099571-.0225805-2.200334-.0011884-3.299905-.010696z" fill="#4a4545"/><path d="m56.274989 37.8453408c1.2357889.0216344 2.4707467.0795293 3.7042639.1586709 1.3977191.1139278 2.8324085.5180715 3.9272089 1.4342906.5819855.4832936 1.0256301 1.2903818.73583 2.0542975-.3565854.8826404-1.286808 1.3407499-2.1466676 1.5925902-1.7841192.5408571-3.6469495.1223225-5.4632688.0407742-2.8801122-.2014723-5.7781134-.2386487-8.6582256-.0011993-.8872892.0839468-1.7781563.1439088-2.6594825.2794229-.155383.0177607-1.5038599.2458441-2.0655712.3621703-.9564596.20507-1.9081489.4748989-2.78709.9126214-.5283187.2782236-1.0757189.6379955-1.313045 1.2136305-.0161724.0508206-.0316786.101737-.0467873.152749-.1009031.8448655.6679155 1.4884311 1.2954442 1.9519754 1.1615618.7915063 2.4853401 1.2906544 3.7924221 1.7838603.0488963.021392.1454963.0641761.1943927.0855682-.0655927.3351423-.1311853.671473-.1633853 1.0113691-1.0399411-.5383669-2.063186-1.1254601-2.9755197-1.8646747-.9076604-.704592-1.7641869-1.555391-2.2465188-2.60778-.002878.0100591-.0057649.0201218-.0086627.0301883-.0465112-.1055331-.0930223-.209867-.1383408-.3154-.3732817-.9366062-.3327335-2.0375082.1276074-2.9357387.4269483-.8550578 1.1305783-1.536226 1.896223-2.0878762.1323778-.0923414.4651113-.3309901.4651113-.3309901 2.6380158-1.5626093 5.6779356-2.2677622 8.6880404-2.6455227 1.2355265-.1139277 2.4710529-.230254 3.7101571-.2734266.0079171-.0001608.0158342-.0003197.0237513-.0004768-.0079175.000062-.0158344.0002195-.0237513.0003788-1.2391042.0427842-2.4746306.1580636-3.7101571.2709662 2.3279417-.320881 4.6856982-.3398961 7.0303361-.3089965.838393.0867567 1.6827489.0926989 2.5199492.193717-1.2335166-.0784293-2.4684738-.1358033-3.7042621-.157243z" fill="#fecc02"/><path d="m77.7119072 39.4262486c-.2838372 2.9711196-1.966586 5.6213583-4.0452757 7.6916344-3.018453 2.9830041-6.8490619 5.0235691-10.8192042 6.4532718-3.6505274 1.3061042-7.4823289 2.0821606-11.3439452 2.4101722-1.9129193.1259755-3.9403275-.3803033-5.3893281-1.6757114-.9671929-.8509287-1.5944969-2.1261332-1.4931265-3.4274836.0322-.3398961.0977926-.6762268.1633853-1.0113691-.0488964-.0213921-.1454964-.0641762-.1943927-.0855682.0512815.010696.1538445.032088.2063186.0427841.4269483-1.1040681 1.2033264-2.0500725 2.1860231-2.7084726.2465328-.1784811.4850514-.2973259.621341-.3993185.7799558-.3731726 1.5980747-.6797922 2.4555491-.820029.1621926-.0297112.3267705-.0511033.4913483-.0701185 4.9838464-.4373488 9.9498039-1.2811467 14.7309095-2.7726488 2.479401-.7867524 4.9230242-1.7398876 7.1591362-3.0780799 1.3786375-.8485517 2.737001-1.8468479 3.6004384-3.2432741.6344595-1.0113691.7763781-2.3198502.2361334-3.4144107 1.0864523 1.8278328 1.66486 3.9824888 1.4346895 6.1086219z" fill="#a2c613"/><path d="m48.9000753 24.1773101c5.7697652-.4836983 11.687412-.0178267 17.1781104 1.8943858 2.3339047.8140868 4.5771722 1.9205317 6.5616471 3.4001493 1.1842449.9055972 2.2647342 1.9454891 3.1746827 3.1279947-1.9105341-1.9252855-4.5378166-2.8463326-7.1054695-3.5213709-4.4030536-1.0969374-8.9659146-1.4023685-13.4918053-1.3619613-2.0441045.0083192-4.0846312.127164-6.1203876.3054311-.6571188.0297112-1.3416672-.2115437-1.7853118-.705938-.4376816-.4527986-.5939113-1.1575482-.3708964-1.7482068.2838371-.8140867 1.1198449-1.3310615 1.9594304-1.3904839" fill="#a2c613"/><path d="m44.5828645 30.1658631c2.9957938-1.1468522 6.2408395-1.4380219 9.4262556-1.4546602 4.2659054.045161 8.5115367.684546 12.6379087 1.7458299 1.1592004.3113733 2.3565639.5740203 3.4000828 1.1920132 1.1210375.650081 2.159786 1.6103468 2.5342602 2.8831744.2647557.8580594.0345852 1.8361519-.577215 2.4921752-.6690447.7190109-1.6338525 1.0862413-2.5891195 1.2312319-1.0363634.1473675-2.1025416.0629878-3.1114753-.2139206-5.029165-1.4344565-10.1656633-2.5504091-15.3808727-3.0376727-2.3172084-.193717-4.6594611-.2899812-6.9718991.0047538-1.1735116.1735134-2.3923417.4135799-3.3810013 1.1052565-.6428077.4349719-1.0113189 1.2347973-.8479337 2.0156075-.4639187-1.4926904-.4078668-3.1886055.4030965-4.5529436.9695781-1.6673923 2.7000307-2.7239225 4.4579128-3.4108453" fill="#0097d8"/></g></svg>