<?xml version="1.0" encoding="UTF-8"?>
<svg width="146px" height="32px" viewBox="0 0 146 32" version="1.1" xmlns="http://www.w3.org/2000/svg" xmlns:xlink="http://www.w3.org/1999/xlink">
    <!-- Generator: Sketch 50.2 (55047) - http://www.bohemiancoding.com/sketch -->
    <title>10</title>
    <desc>Created with Sketch.</desc>
    <defs></defs>
    <g id="Desktop" stroke="none" stroke-width="1" fill="none" fill-rule="evenodd">
        <g id="logos" transform="translate(-317.000000, -335.000000)">
            <g id="10" transform="translate(278.000000, 311.000000)">
                <rect id="Rectangle-7" x="0" y="0" width="224" height="80"></rect>
                <path d="M135.609951,34.5631201 C137.019596,34.0972485 138.583085,34.1911359 139.978419,34.6677035 C140.620034,34.9101469 141.196057,35.2868848 141.736301,35.70403 L141.731531,35.8157441 C141.770887,35.8026712 141.848405,35.7753369 141.886568,35.762264 C141.634931,35.988069 141.413109,36.2447738 141.210368,36.513363 L141.160279,36.4955363 C141.138812,36.5406973 141.095879,36.6322078 141.074412,36.6773688 C140.901486,36.866332 140.733331,37.060049 140.581871,37.2656505 C140.443531,37.1551248 140.308768,37.0469761 140.169234,36.9435811 L140.184738,36.9126815 C139.89136,36.7546179 139.612293,36.5727854 139.320108,36.4159103 C138.267048,35.9928228 137.070877,35.9167622 135.997544,36.3101384 L135.972499,36.4135334 C135.934336,36.4075911 135.85801,36.3957066 135.819847,36.388576 C135.689855,36.4872171 135.558669,36.5811045 135.425099,36.672615 C135.299877,36.7569948 135.174654,36.8413746 135.04824,36.9186237 L135.070899,37.0125111 L134.975491,36.9756692 L134.804951,37.1456172 L134.840728,37.2371277 L134.750091,37.2264317 C134.630832,37.4011335 134.498454,37.5663278 134.368462,37.7327105 C133.448972,39.1766746 133.499061,41.1174099 134.378002,42.5685047 L134.410202,42.5708816 C134.748899,43.0593337 135.217588,43.4313179 135.705358,43.7628948 C135.744714,43.7533872 135.823425,43.7343721 135.861588,43.7248645 L135.872321,43.8389555 C136.920611,44.2204472 138.0977,44.2667967 139.156723,43.8995663 C139.56459,43.7700255 139.925945,43.5335244 140.312345,43.3552572 C140.343353,42.6160426 140.319501,41.8756396 140.329042,41.1364251 C139.365426,41.1435558 138.400619,41.1304828 137.438196,41.1423673 C137.444159,40.579043 137.448929,40.0145303 137.433426,39.451206 C139.036271,39.4559598 140.639116,39.4678443 142.241961,39.4452638 C142.214531,41.0270879 142.238383,42.6089119 142.230035,44.1919245 C142.032065,44.3297844 141.842442,44.4795288 141.651627,44.6268964 C141.448887,44.7635679 141.240183,44.8907318 141.019553,44.9941268 L140.983775,45.0963333 C140.931301,45.0868257 140.826353,45.0666221 140.773879,45.0571145 L140.750027,45.217555 C140.69636,45.2068589 140.59022,45.1854669 140.536553,45.1747708 L140.511508,45.3304575 C140.47096,45.3280806 140.391057,45.3221384 140.350508,45.3197615 C138.617671,46.1290944 136.513936,46.1362251 134.772751,45.3435304 C134.45075,45.1807131 134.140676,44.9976921 133.841335,44.7980329 L133.858032,44.7647563 C133.41558,44.4866595 133.069728,44.0825873 132.751305,43.6773266 C132.639202,43.5133208 132.525905,43.3516918 132.410224,43.1936283 L132.438846,43.0474492 L132.276653,43.017738 C132.286194,42.9642579 132.306468,42.8572975 132.316009,42.8038174 L132.160972,42.7812369 C132.16455,42.7420181 132.170513,42.6612037 132.17409,42.6219849 C131.49789,41.1958475 131.487157,39.4868595 132.011898,38.0096188 C132.098957,37.8123365 132.181246,37.6138657 132.267113,37.4153949 C132.379216,37.2145472 132.49609,37.0172649 132.62012,36.8235479 C132.700024,36.7058915 132.78112,36.5870468 132.863409,36.4693904 C133.152017,36.1092907 133.470439,35.7646408 133.853261,35.499617 L133.855647,35.4746596 C134.048847,35.3391765 134.240854,35.2013166 134.434054,35.0646451 L134.521113,35.0741527 C134.678536,34.9481772 134.844306,34.8222017 135.054203,34.7984328 L135.070899,34.7378219 C135.249788,34.6819649 135.428677,34.6201656 135.609951,34.5631201 Z M116.112211,34.4633023 C116.726397,34.4668677 117.340582,34.4633023 117.95596,34.4656792 C118.091916,34.6665269 118.24576,34.8543017 118.392449,35.0480187 C118.522442,35.2120245 118.653627,35.3748418 118.768116,35.5519206 L118.79316,35.5542975 C118.931501,35.746826 119.081768,35.9310354 119.227264,36.1188102 C119.354872,36.282816 119.483672,36.4456333 119.599353,36.6191467 L119.635131,36.6262774 C119.735309,36.7724565 119.843835,36.9138818 119.94759,37.0600609 C119.97502,37.0945259 120.032265,37.1610789 120.059694,37.1955439 C120.181339,37.3476653 120.302983,37.500975 120.423435,37.6554732 C120.552235,37.8242328 120.685806,37.991804 120.796717,38.1748249 L120.819376,38.1569982 C120.956524,38.3530921 121.107984,38.5396784 121.255865,38.7298301 C121.38705,38.8962128 121.520621,39.061407 121.631532,39.2432396 L121.655384,39.2242244 C121.791339,39.4226952 121.939221,39.6116584 122.08591,39.80181 C122.218288,39.9646274 122.351858,40.1286332 122.466347,40.3069004 L122.497354,40.3057119 C122.59634,40.4542679 122.706058,40.5968816 122.808621,40.7442492 C122.837243,40.7775257 122.894488,40.8440788 122.924303,40.8785438 C123.053103,41.0366073 123.18071,41.1982362 123.295199,41.3681843 L123.335747,41.3800688 C123.435925,41.5286247 123.543259,41.6736154 123.639859,41.8269252 C123.761503,41.9683504 123.891496,42.1038335 124.042955,42.2191129 C124.068,39.6306735 124.063229,37.0410457 124.04534,34.4537948 C124.692918,34.4739984 125.341689,34.4656792 125.991652,34.459737 C125.971378,38.2235513 125.986882,41.9885541 125.983304,45.7523684 C125.439482,45.748803 124.895659,45.748803 124.351837,45.7523684 C124.245696,45.6168853 124.135977,45.4849676 124.033414,45.3494845 C124.005985,45.3150196 123.953511,45.2449011 123.926081,45.2104362 C123.799666,45.0606917 123.678022,44.907382 123.56234,44.7505068 C123.441888,44.5900664 123.316666,44.4331913 123.196214,44.2739393 C123.041177,44.0730916 122.880177,43.8781861 122.726332,43.6785269 C122.597532,43.5097673 122.465154,43.3433846 122.354243,43.163929 L122.330391,43.1817557 C122.193243,42.9856618 122.044169,42.7990755 121.898673,42.6101123 C121.765102,42.4437296 121.631532,42.2773469 121.519428,42.0978913 L121.495576,42.1002682 C121.356043,41.9077396 121.208161,41.7223417 121.063858,41.5357554 C120.93148,41.3717496 120.797909,41.2077438 120.684613,41.0318536 L120.653606,41.0270998 C120.551043,40.8797322 120.443709,40.7371185 120.341146,40.5921279 C120.312524,40.5588513 120.255279,40.4922982 120.226657,40.4590217 C120.097857,40.2985812 119.967865,40.1381408 119.855761,39.9670043 L119.81879,39.9563083 C119.715035,39.8089407 119.607701,39.6651385 119.503946,39.5201479 C119.346524,39.3216771 119.183138,39.1255832 119.029294,38.925924 C118.900494,38.7571644 118.769309,38.5919701 118.657205,38.4125145 L118.62262,38.4255874 C118.517671,38.265147 118.405568,38.1094603 118.30539,37.946643 C118.243375,37.9264393 118.120538,37.8848437 118.059716,37.8634516 C118.074027,40.4922982 118.062101,43.1211449 118.065679,45.7499915 L116.118174,45.7499915 C116.114596,41.9885541 116.12533,38.2259282 116.112211,34.4633023 Z M161.253087,34.4526301 C164.048525,34.4775875 166.845156,34.4645146 169.640594,34.4597608 C169.62032,35.046854 169.635824,35.6327588 169.629861,36.219852 L163.21848,36.219852 C163.220866,37.2050753 163.220866,38.1891101 163.21848,39.1743333 C165.117088,39.1743333 167.016889,39.1731449 168.915497,39.1755218 C168.917883,39.7614266 168.907149,40.3473314 168.925038,40.9344246 C167.019274,40.914221 165.113511,40.9474975 163.207747,40.9177863 C163.229214,41.9469822 163.224443,42.976178 163.210132,44.0065623 C165.384229,43.9946778 167.557134,44.0065623 169.730038,44.00062 C169.725268,44.5829595 169.727653,45.1664873 169.727653,45.7500152 C166.905978,45.7535806 164.085495,45.7428846 161.26382,45.7559575 C161.260243,41.9885778 161.280517,38.2200097 161.253087,34.4526301 Z M92.8566465,34.4632786 C94.5799435,34.4668439 96.304433,34.464467 98.02773,34.464467 C98.5393524,34.4597132 99.0473971,34.5476584 99.5411306,34.6771992 C99.7557974,34.750883 99.9692715,34.8340743 100.166049,34.9505422 C100.205405,34.9457884 100.281731,34.9350924 100.321086,34.9303386 L100.341361,35.0848368 C100.385486,35.080083 100.473738,35.069387 100.517864,35.0646332 C100.919768,35.364122 101.300205,35.7016412 101.588813,36.1164095 C101.617435,36.1746435 101.673487,36.2934883 101.700917,36.3529106 C102.301984,37.5306625 102.214924,39.0245414 101.474324,40.1226672 C101.257272,40.3841257 101.013983,40.6230037 100.746842,40.8321705 C100.330627,41.0912522 99.8905604,41.3170573 99.4147157,41.4465981 C99.5184713,41.6628956 99.6520418,41.8625548 99.78919,42.0598372 C99.9978937,42.3296148 100.197057,42.6065232 100.389064,42.8893738 C100.592998,43.1627168 100.793353,43.4396251 100.985361,43.7212872 C101.189294,43.9958187 101.38965,44.2715386 101.58285,44.5532007 C101.782013,44.8289206 101.983561,45.1034521 102.171991,45.3874911 C102.263821,45.5087128 102.356843,45.6299345 102.453443,45.7499677 C101.683028,45.7511561 100.913805,45.7475908 100.144583,45.7523446 C100.038442,45.6109193 99.9346863,45.469494 99.8368937,45.3245034 C99.7522196,45.2116008 99.6687381,45.0998867 99.5864491,44.9869842 C99.501775,44.8562549 99.4194861,44.7255257 99.3431602,44.5912311 L99.3061898,44.5924195 C99.1249156,44.3250187 98.9436415,44.057618 98.7492488,43.8009132 C98.6645747,43.6689955 98.5810932,43.5370778 98.5059598,43.4004063 L98.4725672,43.4063486 C98.3700042,43.2577926 98.2626708,43.1116135 98.1601078,42.964246 C98.0754337,42.8347052 97.9907596,42.7051643 97.9132411,42.5732466 L97.8703077,42.5708697 C97.7737077,42.41756 97.6735299,42.2678155 97.5805076,42.1133173 C97.4672113,41.9980379 97.3920779,41.7841173 97.1976852,41.8078862 C96.4034183,41.8031324 95.6091513,41.8043209 94.8148843,41.8102631 C94.7946102,43.123498 94.8339658,44.4391097 94.7934176,45.7523446 C94.1494174,45.7475908 93.5054171,45.7511561 92.8626095,45.7499677 C92.8590317,41.9885303 92.869765,38.2259044 92.8566465,34.4632786 Z M94.8124991,36.2447619 C94.8077287,37.5223433 94.8113065,38.7999247 94.8113065,40.0775062 C95.8786773,40.0703755 96.9472407,40.1012751 98.0146115,40.0632448 C98.5632043,40.058491 99.0569378,39.8112939 99.5244343,39.5534007 L99.4731528,39.4892245 L99.6126862,39.4618902 L99.6401158,39.3228418 L99.7080936,39.373945 C100.23999,38.6062077 100.268612,37.4926321 99.5936047,36.7985786 C99.4648046,36.7046912 99.3383898,36.60605 99.2167453,36.5062204 C99.1773897,36.5181049 99.0986786,36.5442507 99.059323,36.5561352 L99.0640934,36.4301598 C98.6836562,36.3505337 98.3067968,36.2328774 97.9144337,36.242385 C96.8804555,36.242385 95.8464773,36.2400081 94.8124991,36.2447619 Z M107.857118,34.4597014 C108.517814,34.4703974 109.178511,34.4632667 109.839207,34.4656436 C109.834437,38.227081 109.839207,41.9885184 109.836822,45.7499558 C109.178511,45.7511443 108.521392,45.7475789 107.865466,45.7523327 C107.861888,41.9885184 107.877392,38.2235157 107.857118,34.4597014 Z M148.192965,34.4633023 C148.853661,34.4656792 149.514358,34.4656792 150.175054,34.4633023 C150.160743,37.6352696 150.175054,40.8072369 150.167899,43.9780157 C152.157144,43.9637544 154.147582,43.9780157 156.13802,43.9708851 C156.126094,44.5639205 156.133249,45.156956 156.132057,45.7499915 L148.198928,45.7499915 C148.19535,41.9885541 148.206083,38.2259282 148.192965,34.4633023 Z M175.410359,34.4656792 C177.124115,34.4644908 178.836679,34.4668677 180.550435,34.4644908 C181.589184,34.459737 182.641051,34.7354569 183.490177,35.3463191 L183.465133,35.3879148 C183.579622,35.4473372 183.682185,35.5222094 183.775207,35.6149083 C183.844377,35.6992881 183.915933,35.7836679 183.991066,35.8668592 C184.091244,36.0237344 184.189037,36.1817979 184.290407,36.3398615 C184.736437,37.2502125 184.767444,38.3221925 184.487185,39.2860237 C184.382237,39.5130172 184.274903,39.7388223 184.166377,39.9646274 L184.125829,39.9551198 C184.032807,40.1167487 183.917125,40.2617394 183.801444,40.40673 C183.772822,40.4352527 183.714385,40.4922982 183.685762,40.520821 C183.442473,40.7394954 183.183681,40.94272 182.881955,41.0734492 L182.843792,41.1685251 C182.805629,41.1661482 182.726918,41.1637713 182.687562,41.1613944 C182.47051,41.2909352 182.231992,41.3812572 181.98751,41.431172 C182.054295,41.5749742 182.123466,41.7152111 182.192636,41.8590132 L182.24511,41.8590132 C182.423999,42.126414 182.613621,42.3866841 182.797281,42.651708 C183.001214,42.925051 183.20157,43.2019593 183.393577,43.4836214 C183.596318,43.7569644 183.797866,44.0326843 183.989874,44.3155349 C184.192614,44.5888779 184.391778,44.8657863 184.588555,45.14626 C184.731667,45.3423539 184.8712,45.5408246 185,45.7476146 C184.237933,45.7452377 183.475866,45.7630644 182.714992,45.7416723 C182.564725,45.5729127 182.450236,45.3791957 182.345288,45.1831018 L182.311895,45.191421 C182.209332,45.0416766 182.105577,44.894309 182.006591,44.7445646 C181.921917,44.6269083 181.839628,44.5092519 181.759725,44.3904071 C181.556984,44.1158757 181.356628,43.8401558 181.169391,43.5561168 C181.068021,43.4194453 180.964265,43.2827738 180.862895,43.1484792 C180.794917,43.0308228 180.732902,42.911978 180.675658,42.7919448 L180.582635,42.8501787 L180.60768,42.7337109 C180.507502,42.6148661 180.413287,42.4960213 180.321457,42.3747996 C180.196235,42.1905902 180.071013,42.0087577 179.955331,41.8197945 C179.09905,41.7900833 178.240383,41.8126638 177.384101,41.8067215 C177.381716,43.1223333 177.381716,44.4367566 177.384101,45.7523684 C176.726982,45.7476146 176.069863,45.7511799 175.412744,45.7499915 C175.410359,41.9885541 175.41513,38.2271167 175.410359,34.4656792 Z M177.380523,36.2412203 C177.382908,37.5223671 177.386486,38.8023254 177.37933,40.0834722 C178.357257,40.0715877 179.335183,40.0870375 180.314302,40.0763415 C180.818769,40.0715877 181.333969,39.9765119 181.775228,39.7186187 C181.812199,39.7198071 181.887332,39.7233725 181.925495,39.7257494 L181.92311,39.6461234 C182.07934,39.5130172 182.229606,39.3715919 182.376295,39.2266013 C182.717377,38.7108149 182.707836,38.0738069 182.613621,37.4855252 C182.521792,37.3191425 182.435925,37.1515714 182.356021,36.9816233 L182.253458,37.0018269 L182.285658,36.909128 C182.242725,36.8663439 182.158051,36.7807756 182.115117,36.7379915 L182.022095,36.7736449 L182.045947,36.6690615 C181.618999,36.4503871 181.170584,36.2447857 180.680428,36.2519163 C179.580857,36.2293358 178.480094,36.2507279 177.380523,36.2412203 Z" id="Combined-Shape" fill="#4A4545"></path>
                <path d="M56.274989,37.8453408 C57.5107779,37.8669752 58.7457357,37.9248701 59.9792529,38.0040117 C61.376972,38.1179395 62.8116614,38.5220832 63.9064618,39.4383023 C64.4884473,39.9215959 64.9320919,40.7286841 64.6422918,41.4925998 C64.2857064,42.3752402 63.3554838,42.8333497 62.4956242,43.08519 C60.711505,43.6260471 58.8486747,43.2075125 57.0323554,43.1259642 C54.1522432,42.9244919 51.254242,42.8873155 48.3741298,43.1247649 C47.4868406,43.2087117 46.5959735,43.2686737 45.7146473,43.4041878 C45.5592643,43.4219485 44.2107874,43.6500319 43.6490761,43.7663581 C42.6926165,43.9714281 41.7409272,44.241257 40.8619861,44.6789795 C40.3336674,44.9572031 39.7862672,45.316975 39.5489411,45.89261 C39.5327687,45.9434306 39.5172625,45.994347 39.5021538,46.045359 C39.4012507,46.8902245 40.1700693,47.5337901 40.797598,47.9973344 C41.9591598,48.7888407 43.2829381,49.2879888 44.5900201,49.7811947 C44.6389164,49.8025867 44.7355164,49.8453708 44.7844128,49.8667629 C44.7188201,50.2019052 44.6532275,50.5382359 44.6210275,50.878132 C43.5810864,50.3397651 42.5578415,49.7526719 41.6455078,49.0134573 C40.7378474,48.3088653 39.8813209,47.4580663 39.398989,46.4056773 C39.396111,46.4157364 39.3932241,46.4257991 39.3903263,46.4358656 C39.3438151,46.3303325 39.297304,46.2259986 39.2519855,46.1204656 C38.8787038,45.1838594 38.919252,44.0829574 39.3795929,43.1847269 C39.8065412,42.3296691 40.5101712,41.6485009 41.2758159,41.0968507 C41.4081937,41.0045093 41.7409272,40.7658606 41.7409272,40.7658606 C44.378943,39.2032513 47.4188628,38.4980984 50.4289676,38.1203379 C51.6644941,38.0064102 52.9000205,37.8900839 54.1391247,37.8469113 C54.1470418,37.8467505 54.1549589,37.8465916 54.162876,37.8464345 C54.1549585,37.8464965 54.1470416,37.846654 54.1391247,37.8468133 C52.9000205,37.8895975 51.6644941,38.0048769 50.4289676,38.1177795 C52.7569093,37.7968985 55.1146658,37.7778834 57.4593037,37.808783 C58.2976967,37.8955397 59.1420526,37.9014819 59.9792529,38.0025 C58.7457363,37.9240707 57.5107791,37.8666967 56.2749908,37.845257 Z" id="Combined-Shape" fill="#FECC02"></path>
                <path d="M77.7119072,39.4262486 C77.42807,42.3973682 75.7453212,45.0476069 73.6666315,47.117883 C70.6481785,50.1008871 66.8175696,52.1414521 62.8474273,53.5711548 C59.1968999,54.877259 55.3650984,55.6533154 51.5034821,55.981327 C49.5905628,56.1073025 47.5631546,55.6010237 46.114154,54.3056156 C45.1469611,53.4546869 44.5196571,52.1794824 44.6210275,50.878132 C44.6532275,50.5382359 44.7188201,50.2019052 44.7844128,49.8667629 C44.7355164,49.8453708 44.6389164,49.8025867 44.5900201,49.7811947 C44.6413016,49.7918907 44.7438646,49.8132827 44.7963387,49.8239788 C45.223287,48.7199107 45.9996651,47.7739063 46.9823618,47.1155062 C47.2288946,46.9370251 47.4674132,46.8181803 47.6037028,46.7161877 C48.3836586,46.3430151 49.2017775,46.0363955 50.0592519,45.8961587 C50.2214445,45.8664475 50.3860224,45.8450554 50.5506002,45.8260402 C55.5344466,45.3886914 60.5004041,44.5448935 65.2815097,43.0533914 C67.7609107,42.266639 70.2045339,41.3135038 72.4406459,39.9753115 C73.8192834,39.1267598 75.1776469,38.1284636 76.0410843,36.7320374 C76.6755438,35.7206683 76.8174624,34.4121872 76.2772177,33.3176267 C77.36367,35.1454595 77.9420777,37.3001155 77.7119072,39.4262486 Z" id="Fill-3" fill="#A2C613"></path>
                <path d="M48.9000753,24.1773101 C54.6698405,23.6936118 60.5874873,24.1594834 66.0781857,26.0716959 C68.4120904,26.8857827 70.6553579,27.9922276 72.6398328,29.4718452 C73.8240777,30.3774424 74.904567,31.4173343 75.8145155,32.5998399 C73.9039814,30.6745544 71.2766989,29.7535073 68.709046,29.078469 C64.3059924,27.9815316 59.7431314,27.6761005 55.2172407,27.7165077 C53.1731362,27.7248269 51.1326095,27.8436717 49.0968531,28.0219388 C48.4397343,28.05165 47.7551859,27.8103951 47.3115413,27.3160008 C46.8738597,26.8632022 46.71763,26.1584526 46.9406449,25.567794 C47.224482,24.7537073 48.0604898,24.2367325 48.9000753,24.1773101" id="Fill-1" fill="#A2C613"></path>
                <path d="M44.5828645,30.1658631 C47.5786583,29.0190109 50.823704,28.7278412 54.0091201,28.7112029 C58.2750255,28.7563639 62.5206568,29.3957489 66.6470288,30.4570328 C67.8062292,30.7684061 69.0035927,31.0310531 70.0471116,31.649046 C71.1681491,32.299127 72.2068976,33.2593928 72.5813718,34.5322204 C72.8461275,35.3902798 72.615957,36.3683723 72.0041568,37.0243956 C71.3351121,37.7434065 70.3703043,38.1106369 69.4150373,38.2556275 C68.3786739,38.402995 67.3124957,38.3186153 66.303562,38.0417069 C61.274397,36.6072504 56.1378987,35.4912978 50.9226893,35.0040342 C48.6054809,34.8103172 46.2632282,34.714053 43.9507902,35.008788 C42.7772786,35.1823014 41.5584485,35.4223679 40.5697889,36.1140445 C39.9269812,36.5490164 39.55847,37.3488418 39.7218552,38.129652 C39.2579365,36.6369616 39.3139884,34.9410465 40.1249517,33.5767084 C41.0945298,31.9093161 42.8249824,30.8527859 44.5828645,30.1658631" id="Fill-11" fill="#0097D8"></path>
            </g>
        </g>
    </g>
</svg>