<?xml version="1.0" encoding="UTF-8"?>
<svg width="141px" height="24px" viewBox="0 0 141 24" version="1.1" xmlns="http://www.w3.org/2000/svg" xmlns:xlink="http://www.w3.org/1999/xlink">
    <!-- Generator: Sketch 50.2 (55047) - http://www.bohemiancoding.com/sketch -->
    <title>3</title>
    <desc>Created with Sketch.</desc>
    <defs></defs>
    <g id="Desktop" stroke="none" stroke-width="1" fill="none" fill-rule="evenodd">
        <g id="logos" transform="translate(-575.000000, -83.000000)">
            <g id="3" transform="translate(534.000000, 55.000000)">
                <rect id="Rectangle-7" x="0" y="0" width="224" height="80"></rect>
                <path d="M60.5311595,32.1529869 C59.5434458,32.4854765 59.4190671,33.6437098 59.4117507,34.5315668 C59.3934597,37.9551144 59.4154089,41.3823156 59.4007761,44.8095168 C59.4300417,45.6096843 59.3861433,46.4975413 59.8836583,47.1807893 C60.5311595,47.8494224 61.6286191,47.882306 62.4407392,47.5278939 C63.3113905,47.089446 63.3479725,46.0042874 63.3699217,45.1602752 C63.3845545,41.7476889 63.3699217,38.3314488 63.3772381,34.9188625 C63.3333397,34.1004264 63.4211365,33.1431484 62.8065591,32.5000915 C62.2139309,31.9337629 61.2701156,31.9228017 60.5311595,32.1529869 M59.8397599,28.9523171 C61.848111,28.5759826 64.1930164,28.8536663 65.6782451,30.388234 C66.7574137,31.4770463 67.1232336,33.0554588 67.1159172,34.5461818 C67.1159172,38.1999144 67.1378664,41.8573008 67.1086008,45.5110335 C67.1451828,47.5096253 66.1135707,49.6068678 64.203991,50.4070353 C62.2395383,51.2291251 59.8361017,51.1816266 57.981395,50.0891605 C56.3022818,49.0770766 55.607224,47.03464 55.662097,45.1566214 C55.6840462,41.3713544 55.607224,37.5860874 55.7023372,33.8081278 C55.7389192,31.4733926 57.4985128,29.3030754 59.8397599,28.9523171 Z M41,29.0947761 C43.4180693,29.1568895 45.8580879,28.9267044 48.2615244,29.2884239 C50.021118,29.5368777 51.6307255,30.7572245 52.1392151,32.4890937 C52.9696262,35.4011187 52.8269564,39.2521529 49.9881942,41.0351745 C51.0417555,44.2468055 52.0697093,47.4693977 53.1159541,50.6846824 L49.3150857,50.6846824 C48.4334598,47.7141978 47.5518339,44.7400594 46.670208,41.7695747 C46.026365,41.7988046 45.3825221,41.8243807 44.7350209,41.8536106 L44.7350209,50.6846824 L41,50.6846824 L41,29.0947761 Z M44.7423373,32.1310279 C44.7313627,34.3561511 44.7350209,36.5776206 44.7423373,38.8027438 C46.0117322,38.7296691 47.8261988,39.0511976 48.4810164,37.6372031 C48.9675568,36.2597459 48.9675568,34.6667184 48.4773582,33.2856075 C47.811566,31.8862278 46.0117322,32.2077563 44.7423373,32.1310279 Z M70.7301809,29.087359 C73.1263011,29.1385113 75.5407122,28.9339022 77.9258578,29.2408158 C79.6086292,29.4746547 81.17068,30.6073118 81.6791697,32.2661064 C82.4912898,34.7287223 82.0852297,38.0353503 79.5647308,39.3470403 C80.6621904,39.9499062 81.7267262,40.7756498 82.1108371,42.0215727 C82.6851743,43.8301703 82.5900611,45.857992 81.8986616,47.6227448 C81.2145784,49.3655753 79.440352,50.4799638 77.6039363,50.600537 C75.3175621,50.7649549 73.0202133,50.6334206 70.7265227,50.6736116 C70.7301809,43.479412 70.7265227,36.2815586 70.7301809,29.087359 Z M74.4725182,47.6410135 C75.7638623,47.5789001 77.5088231,47.8858136 78.2770449,46.5522012 C78.906255,45.2478186 78.9099132,43.6036389 78.3428924,42.277334 C77.6295437,40.8450707 75.8187353,41.0131424 74.4761764,40.9619902 C74.46886,43.1871134 74.4725182,45.4158903 74.4725182,47.6410135 Z M74.4761764,32.1163034 C74.46886,34.0637429 74.46886,36.0148362 74.4761764,37.9622757 C75.4785228,37.8928547 76.6491464,38.09381 77.4502919,37.3338336 C78.5733589,36.2815586 78.5294606,34.4473848 77.874643,33.1503097 C77.2015344,31.9336168 75.6431418,32.1674557 74.4761764,32.1163034 Z M86.3104492,50.6736482 L86.3104492,29.0837418 L90.0454701,29.0837418 L90.0454701,50.6736482 L86.3104492,50.6736482 Z M94.1719548,29.0874321 C95.3279456,29.0837784 96.4839364,29.0837784 97.6399272,29.0837784 C99.1763707,33.2344187 100.690865,37.3960202 102.238283,41.5430068 C102.252916,37.3923664 102.238283,33.2380724 102.245599,29.0837784 C103.372325,29.0837784 104.49905,29.0837784 105.625775,29.0874321 L105.625775,50.6736847 L102.36632,50.6736847 C100.760371,46.1430562 99.1763707,41.6051202 97.5594468,37.0781454 C97.544814,41.6087739 97.5557886,46.1430562 97.5521304,50.6736847 L94.1682966,50.6736847 C94.1719548,43.4758313 94.1682966,36.2816317 94.1719548,29.0874321 Z M144.589176,29.1348575 C146.432908,28.8133291 148.518082,28.992362 150.017943,30.2090549 C151.312946,31.2430613 151.861675,32.9457007 151.850701,34.5569968 C151.850701,38.3386101 151.879966,42.1238772 151.836068,45.9054905 C151.836068,47.9369659 150.647153,50.0013248 148.686359,50.710149 C146.692641,51.4043582 144.311153,51.3349372 142.518636,50.1474741 C141.022433,49.1207752 140.37859,47.2500641 140.411513,45.4962724 C140.433463,41.6050471 140.338349,37.7101681 140.45907,33.8225966 C140.543209,31.5390136 142.313777,29.4892696 144.589176,29.1348575 Z M145.024502,32.463408 C144.164825,32.9383932 144.1758,34.0418205 144.150192,34.896794 C144.146534,38.313034 144.150192,41.7329278 144.150192,45.1528216 C144.183116,45.8726069 144.139218,46.6691206 144.578202,47.2902552 C145.214728,48.072154 146.49144,48.1159988 147.314534,47.6263986 C148.141287,47.1075685 148.07544,46.007795 148.122996,45.160129 C148.126654,41.8608084 148.11568,38.5614878 148.126654,35.2621672 C148.104705,34.4510386 148.137629,33.5814502 147.713278,32.8543574 C147.065777,32.1016885 145.869546,32.0359213 145.024502,32.463408 Z M159.584243,29.1531627 C161.574303,28.7731745 163.886284,29.0143209 165.39712,30.4867752 C166.578718,31.623086 166.951855,33.318418 166.922589,34.904138 C166.907956,38.5542169 166.951855,42.2079496 166.90064,45.8580285 C166.911615,47.8383516 165.814155,49.8844419 163.91555,50.6371108 C161.936464,51.4153559 159.525711,51.3605499 157.692954,50.2169316 C156.127245,49.2158088 155.435845,47.2939454 155.476085,45.4999627 C155.483402,41.7256569 155.443162,37.9550047 155.498035,34.1806989 C155.468769,31.8057727 157.199097,29.5404584 159.584243,29.1531627 Z M160.041517,32.4926744 C159.207448,32.9859283 159.251346,34.0747406 159.211106,34.9114454 C159.200132,38.2071123 159.218423,41.5027792 159.20379,44.7947923 C159.240372,45.6168821 159.156233,46.5157004 159.606192,47.2501007 C160.228086,48.0612293 161.49748,48.1160353 162.342524,47.6520112 C163.194885,47.1404887 163.150986,46.0261002 163.18391,45.1638193 C163.18391,41.7439255 163.187568,38.3276855 163.180252,34.9077917 C163.147328,34.0637794 163.176594,32.9676596 162.335208,32.4817132 C161.643808,32.1053787 160.721942,32.101725 160.041517,32.4926744 Z M125.343466,29.2774627 L129.085803,29.2774627 C129.082145,32.2077563 129.082145,35.1343962 129.082145,38.0610361 C130.406413,38.0683435 131.730681,38.0646898 133.051291,38.0683435 C133.054949,35.1380499 133.051291,32.2077563 133.054949,29.2774627 L136.797286,29.2774627 C136.797286,36.4753161 136.800944,43.6695157 136.797286,50.8673691 C135.54984,50.8673691 134.302395,50.8673691 133.054949,50.8637153 C133.051291,47.6776604 133.054949,44.4879518 133.051291,41.2982432 L129.085803,41.2982432 C129.082145,44.4879518 129.085803,47.6776604 129.082145,50.8673691 C127.834699,50.8673691 126.587254,50.8673691 125.343466,50.8637153 C125.339808,43.6695157 125.339808,36.4753161 125.343466,29.2774627 Z M170.533085,29.2774627 C173.093824,29.3761135 175.705778,29.0217014 178.233593,29.5661076 C180.348032,30.0593615 181.690591,32.1310279 181.866185,34.2063481 C182.114942,36.8735729 181.928374,39.5590665 181.990563,42.2372525 C181.968614,44.389301 182.155182,46.7423049 180.94066,48.6385921 C180.062693,50.0525867 178.387238,50.7467959 176.773972,50.8235243 C174.696115,50.9258288 172.6146,50.8417929 170.533085,50.8673691 C170.529427,43.6695157 170.533085,36.4753161 170.533085,29.2774627 Z M174.275422,32.3137146 C174.27908,37.4874 174.268106,42.6610855 174.27908,47.834771 C175.270452,47.76535 176.345963,47.9261143 177.264171,47.465744 C178.175062,46.9140303 178.215302,45.7338747 178.24091,44.7875579 C178.255542,41.7476523 178.24091,38.704093 178.248226,35.6641874 C178.207986,34.6703721 178.277492,33.4354105 177.388549,32.7631237 C176.474,32.1675653 175.307034,32.390443 174.275422,32.3137146 Z" id="Combined-Shape" fill="#98C521"></path>
                <path d="M112.197034,28.1046145 C112.304585,28.0483471 112.419087,28.0008485 112.542734,28.0045023 C114.140635,27.9434849 115.741097,28.5057944 116.984884,29.5014365 C118.489136,30.695111 119.454169,32.4331916 120.05704,34.2286359 C120.33177,34.1961176 120.606135,34.1639648 120.8805,34.1310812 C120.921838,34.0813904 120.964273,34.032065 121.006342,33.9834704 C121.260953,34.016354 121.516295,34.0485068 121.771637,34.0817558 C121.556169,34.1815027 121.342165,34.2823457 121.125965,34.3784389 C120.880866,34.2410586 120.601014,34.3451899 120.339818,34.3572473 C120.519802,34.5402993 120.500779,34.8055603 120.533703,35.0408606 C120.549433,35.1475496 120.540288,35.2549694 120.511754,35.35837 C121.140232,36.4113758 121.454837,37.6445105 121.401428,38.8699725 C121.332288,40.6248603 120.678202,42.3245767 119.710974,43.7780316 C119.641102,43.7634166 119.571231,43.7484363 119.502457,43.7338214 C119.530991,43.6830345 119.559159,43.6322476 119.58879,43.5810954 C118.839225,42.6939691 118.085271,41.8104965 117.337901,40.9215434 C117.467401,41.1948426 117.396432,41.4860451 117.330584,41.7648249 C117.255225,42.3066734 116.951595,42.7743512 116.695155,43.2453173 C116.527975,43.5511348 116.3158,43.8321068 116.16179,44.144501 C116.139109,44.4335112 116.113867,44.7440785 116.244831,45.0140893 C116.320921,45.1858148 116.458104,45.3235605 116.522122,45.5018626 C116.689302,45.9063309 116.673937,46.349894 116.705764,46.7777461 C116.737956,47.2702693 116.763563,47.7635232 116.798316,48.255681 C116.85136,48.6897444 116.9783,49.1113851 117.04561,49.5432563 C117.067194,49.7065782 117.008663,49.8779383 117.069755,50.0365103 C117.166331,50.318213 117.291076,50.5896854 117.377043,50.8750419 C117.41582,51.1220342 117.411796,51.3745072 117.406309,51.6247879 C117.400456,51.7965133 117.280101,52.004776 117.085851,51.994911 C116.819534,51.9934495 116.550656,52.0153719 116.286534,51.9781038 C116.012169,51.9032023 115.940834,51.5878852 115.855964,51.3551424 C115.82304,50.750815 115.951809,50.1388148 115.829259,49.5403334 C115.788653,49.3024754 115.752071,49.0638866 115.714758,48.8256633 C115.669396,48.4778279 115.523068,48.1552033 115.41442,47.8249059 C115.129446,47.8924999 114.984216,48.1519149 114.795087,48.3444667 C114.521088,48.4233873 114.234651,48.4526171 113.954798,48.5059616 C113.800422,48.5428643 113.649705,48.487693 113.506303,48.4372715 C113.514351,48.3188905 113.523131,48.2005096 113.53374,48.082494 C113.782863,48.0371877 114.126734,47.9878624 114.198069,47.6955637 C114.262087,47.4503983 114.494017,47.1803874 114.320252,46.9337605 C114.188923,46.6359813 113.882,46.4938511 113.642754,46.2976456 C113.124753,45.8646783 112.458961,45.6728573 111.904378,45.2979844 C111.688178,45.1054326 111.346503,45.188007 111.137254,44.9848595 C110.968245,44.7798851 110.794846,44.5559113 110.748387,44.2877273 C110.761557,44.1529045 110.837647,44.0359851 110.907885,43.9230848 C111.319066,43.293912 111.71781,42.6556049 112.145819,42.0366626 C112.47396,41.6099066 112.93599,41.3157811 113.371682,41.0099637 C113.459112,40.9518694 113.507401,40.8568723 113.558981,40.7691827 C113.698359,40.5148829 113.842126,40.2631407 113.985161,40.0103024 C113.90651,39.7892516 113.800422,39.5766044 113.756158,39.3453231 C113.718845,39.1925971 113.719942,39.0164872 113.597392,38.9010292 C113.133167,38.3796416 112.673331,37.8546002 112.210569,37.3321164 C112.130821,37.2301773 111.997662,37.2104471 111.882429,37.1735444 C111.595626,37.0935277 111.309921,37.0094918 111.020557,36.9404363 C110.299892,36.7811335 109.609224,36.5129495 108.927336,36.2367273 C108.776984,36.181556 108.681505,36.0222532 108.703088,35.864412 C108.701991,35.7325122 108.815395,35.6521301 108.902094,35.5710172 C109.065616,35.4387521 109.131829,35.2144129 109.319861,35.1080893 C109.428875,35.0397645 109.560936,35.0386684 109.685315,35.0320917 C110.435611,35.0076117 111.185542,34.9783818 111.935473,34.9513442 C111.721102,34.611547 111.568921,34.2257129 111.276997,33.9414525 C111.125913,33.7821497 110.976659,33.6213855 110.82777,33.4606213 C111.155911,33.2691657 111.484783,33.0780754 111.814021,32.8888121 C111.829751,32.8416789 111.861211,32.7481434 111.877307,32.7013756 C111.642451,32.744855 111.412716,32.8712742 111.167983,32.8230449 C111.004095,32.7989303 110.854475,32.726221 110.700465,32.6717804 C110.509141,32.6005326 110.303184,32.6546078 110.106739,32.6644729 C110.309038,32.3235797 110.736315,32.220179 111.107622,32.2406399 C111.494294,32.2428322 111.860114,32.3776549 112.23764,32.4434221 C112.368238,32.5004203 112.480178,32.5895714 112.599802,32.6659344 C112.528467,31.1595004 112.456766,29.6523357 112.3847,28.1455363 C112.337509,28.1353059 112.243859,28.1152104 112.197034,28.1046145 Z M119.138466,35.6082853 C118.872881,35.694148 118.606198,35.776357 118.339515,35.8578353 C118.047591,35.9137374 117.966379,36.2816683 117.677747,36.3456086 C117.303513,36.4102796 116.924524,36.4446247 116.548827,36.5005268 C116.674303,36.9163216 116.634429,37.3518466 116.661134,37.7789679 C116.675401,38.1023232 116.833069,38.3938911 116.8916,38.7077467 C116.937328,39.0460824 116.873309,39.3877064 116.902209,39.7271382 C117.077437,40.1122416 117.23035,40.5240173 117.526664,40.8371421 C118.246963,41.692481 118.962872,42.5522043 119.682074,43.4082738 C120.428347,42.0739307 120.92952,40.5726119 120.936471,39.032929 C120.937202,37.804544 120.636133,36.5524098 119.951684,35.5216919 C119.679879,35.5388644 119.399296,35.5151151 119.138466,35.6082853 Z M115.729025,34.866943 C116.014364,34.9264988 116.292753,35.0309956 116.582848,35.0605908 C117.228155,34.9476905 117.867242,34.8019065 118.510353,34.6765835 C118.801912,34.6097202 119.104811,34.5834133 119.382468,34.4672246 C118.162824,34.5768366 116.946473,34.7368701 115.729025,34.866943 Z M112.564683,28.160882 C112.650651,29.6691429 112.741008,31.1770383 112.827707,32.6852992 C112.995253,32.7137983 113.167188,32.7269517 113.33071,32.7777386 C113.590076,32.9480026 113.746281,33.2618582 114.052838,33.3608744 C114.390124,33.4781592 114.730337,33.5874058 115.064696,33.7149211 C114.85691,34.1047743 114.359761,34.1179278 113.975284,34.183695 C114.003452,34.3842849 113.974187,34.5845094 113.948214,34.7836379 C114.231358,34.6316426 114.511576,34.4445715 114.83679,34.4007267 C115.105302,34.3777082 115.336134,34.5487028 115.532579,34.7098325 C116.866725,34.5717214 118.200504,34.4244759 119.534649,34.2823457 C119.131881,32.8051416 118.43975,31.3772629 117.356923,30.277124 C116.10838,28.9957599 114.355371,28.2142265 112.564683,28.160882 Z M113.0183,43.9296615 C113.130606,44.0502347 113.246571,44.1693463 113.388143,44.2559398 C113.722503,44.4707793 114.055765,44.6885418 114.391953,44.901189 C114.452313,44.565411 114.581448,44.242421 114.581814,43.8975086 C114.596812,43.4696565 114.733263,43.0527656 114.717533,42.6238174 C114.191118,43.1090331 113.597392,43.5109437 113.0183,43.9296615 Z" id="Combined-Shape" fill="#0F415A"></path>
            </g>
        </g>
    </g>
</svg>