<svg height="24" viewBox="0 0 141 24" width="141" xmlns="http://www.w3.org/2000/svg"><g fill="none" fill-rule="evenodd" transform="translate(-41 -28)"><path d="m0 0h224v80h-224z"/><path d="m60.5311595 32.1529869c-.9877137.3324896-1.1120924 1.4907229-1.1194088 2.3785799-.018291 3.4235476.0036582 6.8507488-.0109746 10.27795.0292656.8001675-.0146328 1.6880245.4828822 2.3712725.6475012.6686331 1.7449608.7015167 2.5570809.3471046.8706513-.4384479.9072333-1.5236065.9291825-2.3676187.0146328-3.4125863 0-6.8288264.0073164-10.2414127-.0438984-.8184361.0438984-1.7757141-.570679-2.418771-.5926282-.5663286-1.5364435-.5772898-2.2753996-.3471046m-.6913996-3.2006698c2.0083511-.3763345 4.3532565-.0986508 5.8384852 1.4359169 1.0791686 1.0888123 1.4449885 2.6672248 1.4376721 4.1579478 0 3.6537326.0219492 7.311119-.0073164 10.9648517.036582 1.9985918-.9950301 4.0958343-2.9046098 4.8960018-1.9644527.8220898-4.3678893.7745913-6.222596-.3178748-1.6791132-1.0120839-2.374171-3.0545205-2.319298-4.9325391.0219492-3.785267-.054873-7.570534.0402402-11.3484936.036582-2.3347352 1.7961756-4.5050524 4.1374227-4.8558107zm-18.8397599.142459c2.4180693.0621134 4.8580879-.1680717 7.2615244.1936478 1.7595936.2484538 3.3692011 1.4688006 3.8776907 3.2006698.8304111 2.912025.6877413 6.7630592-2.1510209 8.5460808 1.0535613 3.211631 2.0815151 6.4342232 3.1277599 9.6495079h-3.8008684c-.8816259-2.9704846-1.7632518-5.944623-2.6448777-8.9151077-.643843.0292299-1.2876859.054806-1.9351871.0840359v8.8310718h-3.7350209zm3.7423373 3.0362518c-.0109746 2.2251232-.0073164 4.4465927 0 6.6717159 1.2693949-.0730747 3.0838615.2484538 3.7386791-1.1655407.4865404-1.3774572.4865404-2.9704847-.0036582-4.3515956-.6657922-1.3993797-2.465626-1.0778512-3.7350209-1.1545796zm25.9878436-3.0436689c2.3961202.0511523 4.8105313-.1534568 7.1956769.1534568 1.6827714.2338389 3.2448222 1.366496 3.7533119 3.0252906.8121201 2.4626159.40606 5.7692439-2.1144389 7.0809339 1.0974596.6028659 2.1619954 1.4286095 2.5461063 2.6745324.5743372 1.8085976.479224 3.8364193-.2121755 5.6011721-.6840832 1.7428305-2.4583096 2.857219-4.2947253 2.9777922-2.2863742.1644179-4.583723.0328836-6.8774136.0730746.0036582-7.1941996 0-14.392053.0036582-21.5862526zm3.7423373 18.5536545c1.2913441-.0621134 3.0363049.2448001 3.8045267-1.0888123.6292101-1.3043826.6328683-2.9485623.0658475-4.2748672-.7133487-1.4322633-2.5241571-1.2641916-3.866716-1.3153438-.0073164 2.2251232-.0036582 4.4539001-.0036582 6.6790233zm.0036582-15.5247101c-.0073164 1.9474395-.0073164 3.8985328 0 5.8459723 1.0023464-.069421 2.17297.1315343 2.9741155-.6284421 1.123067-1.052275 1.0791687-2.8864488.4243511-4.1835239-.6731086-1.2166929-2.2315012-.982854-3.3984666-1.0340063zm11.8342728 18.5573448v-21.5899064h3.7350209v21.5899064zm7.8615056-21.5862161c1.1559908-.0036537 2.3119816-.0036537 3.4679724-.0036537 1.5364435 4.1506403 3.0509378 8.3122418 4.5983558 12.4592284.014633-4.1506404 0-8.3049344.007316-12.4592284 1.126726 0 2.253451 0 3.380176.0036537v21.5862526h-3.259455c-1.605949-4.5306285-3.1899493-9.0685645-4.8068732-13.5955393-.0146328 4.5306285-.0036582 9.0649108-.0073164 13.5955393h-3.3838338c.0036582-7.1978534 0-14.392053.0036582-21.5862526zm50.4172212.0474254c1.843732-.3215284 3.928906-.1424955 5.428767 1.0741974 1.295003 1.0340064 1.843732 2.7366458 1.832758 4.3479419 0 3.7816133.029265 7.5668804-.014633 11.3484937 0 2.0314754-1.188915 4.0958343-3.149709 4.8046585-1.993718.6942092-4.375206.6247882-6.167723-.5626749-1.496203-1.0266989-2.140046-2.89741-2.107123-4.6512017.02195-3.8912253-.073164-7.7861043.047557-11.6736758.084139-2.283583 1.854707-4.333327 4.130106-4.6877391zm.435326 3.3285505c-.859677.4749852-.848702 1.5784125-.87431 2.433386-.003658 3.41624 0 6.8361338 0 10.2560276.032924.7197853-.010974 1.516299.42801 2.1374336.636526.7818988 1.913238.8257436 2.736332.3361434.826753-.5188301.760906-1.6186036.808462-2.4662696.003658-3.2993206-.007316-6.5986412.003658-9.8979618-.021949-.8111286.010975-1.680717-.413376-2.4078098-.647501-.7526689-1.843732-.8184361-2.688776-.3909494zm14.559741-3.3102453c1.99006-.3799882 4.302041-.1388418 5.812877 1.3336125 1.181598 1.1363108 1.554735 2.8316428 1.525469 4.4173628-.014633 3.6500789.029266 7.3038116-.021949 10.9538905.010975 1.9803231-1.086485 4.0264134-2.98509 4.7790823-1.979086.7782451-4.389839.7234391-6.222596-.4201792-1.565709-1.0011228-2.257109-2.9229862-2.216869-4.7169689.007317-3.7743058-.032923-7.544958.02195-11.3192638-.029266-2.3749262 1.701062-4.6402405 4.086208-5.0275362zm.457274 3.3395117c-.834069.4932539-.790171 1.5820662-.830411 2.418771-.010974 3.2956669.007317 6.5913338-.007316 9.8833469.036582.8220898-.047557 1.7209081.402402 2.4553084.621894.8111286 1.891288.8659346 2.736332.4019105.852361-.5115225.808462-1.625911.841386-2.4881919 0-3.4198938.003658-6.8361338-.003658-10.2560276-.032924-.8440123-.003658-1.9401321-.845044-2.4260785-.6914-.3763345-1.613266-.3799882-2.293691.0109612zm-34.698051-3.2152117h3.742337c-.003658 2.9302936-.003658 5.8569335-.003658 8.7835734 1.324268.0073074 2.648536.0036537 3.969146.0073074.003658-2.9302936 0-5.8605872.003658-8.7908808h3.742337c0 7.1978534.003658 14.392053 0 21.5899064-1.247446 0-2.494891 0-3.742337-.0036538-.003658-3.1860549 0-6.3757635-.003658-9.5654721h-3.965488c-.003658 3.1897086 0 6.3794172-.003658 9.5691259-1.247446 0-2.494891 0-3.738679-.0036538-.003658-7.1941996-.003658-14.3883992 0-21.5862526zm45.189619 0c2.560739.0986508 5.172693-.2557613 7.700508.2886449 2.114439.4932539 3.456998 2.5649203 3.632592 4.6402405.248757 2.6672248.062189 5.3527184.124378 8.0309044-.021949 2.1520485.164619 4.5050524-1.049903 6.4013396-.877967 1.4139946-2.553422 2.1082038-4.166688 2.1849322-2.077857.1023045-4.159372.0182686-6.240887.0438448-.003658-7.1978534 0-14.392053 0-21.5899064zm3.742337 3.0362519c.003658 5.1736854-.007316 10.3473709.003658 15.5210564.991372-.069421 2.066883.0913433 2.985091-.369027.910891-.5517137.951131-1.7318693.976739-2.6781861.014632-3.0399056 0-6.0834649.007316-9.1233705-.04024-.9938153.029266-2.2287769-.859677-2.9010637-.914549-.5955584-2.081515-.3726807-3.113127-.4494091z" fill="#98c521"/><path d="m112.197034 28.1046145c.107551-.0562674.222053-.103766.3457-.1001122 1.597901-.0610174 3.198363.5012921 4.44215 1.4969342 1.504252 1.1936745 2.469285 2.9317551 3.072156 4.7271994.27473-.0325183.549095-.0646711.82346-.0975547.041338-.0496908.083773-.0990162.125842-.1476108.254611.0328836.509953.0650364.765295.0982854-.215468.0997469-.429472.2005899-.645672.2966831-.245099-.1373803-.524951-.033249-.786147-.0211916.179984.183052.160961.448313.193885.6836133.01573.106689.006585.2141088-.021949.3175094.628478 1.0530058.943083 2.2861405.889674 3.5116025-.06914 1.7548878-.723226 3.4546042-1.690454 4.9080591-.069872-.014615-.139743-.0295953-.208517-.0442102.028534-.0507869.056702-.1015738.086333-.152726-.749565-.8871263-1.503519-1.7705989-2.250889-2.659552.1295.2732992.058531.5645017-.007317.8432815-.075359.5418485-.378989 1.0095263-.635429 1.4804924-.16718.3058175-.379355.5867895-.533365.8991837-.022681.2890102-.047923.5995775.083041.8695883.07609.1717255.213273.3094712.277291.4877733.16718.4044683.151815.8480314.183642 1.2758835.032192.4925232.057799.9857771.092552 1.4779349.053044.4340634.179984.8557041.247294 1.2875753.021584.1633219-.036947.334682.024145.493254.096576.2817027.221321.5531751.307288.8385316.038777.2469923.034753.4994653.029266.749746-.005853.1717254-.126208.3799881-.320458.3701231-.266317-.0014615-.535195.0204609-.799317-.0168072-.274365-.0749015-.3457-.3902186-.43057-.6229614-.032924-.6043274.095845-1.2163276-.026705-1.814809-.040606-.237858-.077188-.4764468-.114501-.7146701-.045362-.3478354-.19169-.67046-.300338-1.0007574-.284974.067594-.430204.327009-.619333.5195608-.273999.0789206-.560436.1081504-.840289.1614949-.154376.0369027-.305093-.0182686-.448495-.0686901.008048-.118381.016828-.2367619.027437-.3547775.249123-.0453063.592994-.0946316.664329-.3869303.064018-.2451654.295948-.5151763.122183-.7618032-.131329-.2977792-.438252-.4399094-.677498-.6361149-.518001-.4329673-1.183793-.6247883-1.738376-.9996612-.2162-.1925518-.557875-.1099774-.767124-.3131249-.169009-.2049744-.342408-.4289482-.388867-.6971322.01317-.1348228.08926-.2517422.159498-.3646425.411181-.6291728.809925-1.2674799 1.237934-1.8864222.328141-.426756.790171-.7208815 1.225863-1.0266989.08743-.0580943.135719-.1530914.187299-.240781.139378-.2542998.283145-.506042.42618-.7588803-.078651-.2210508-.184739-.433698-.229003-.6649793-.037313-.152726-.036216-.3288359-.158766-.4442939-.464225-.5213876-.924061-1.046429-1.386823-1.5689128-.079748-.1019391-.212907-.1216693-.32814-.158572-.286803-.0800167-.572508-.1640526-.861872-.2331081-.720665-.1593028-1.411333-.4274868-2.093221-.703709-.150352-.0551713-.245831-.2144741-.224248-.3723153-.001097-.1318998.112307-.2122819.199006-.2933948.163522-.1322651.229735-.3566043.417767-.4629279.109014-.0683248.241075-.0694209.365454-.0759976.750296-.02448 1.500227-.0537099 2.250158-.0807475-.214371-.3397972-.366552-.7256313-.658476-1.0098917-.151084-.1593028-.300338-.320067-.449227-.4808312.328141-.1914556.657013-.3825459.986251-.5718092.01573-.0471332.04719-.1406687.063286-.1874365-.234856.0434794-.464591.1698986-.709324.1216693-.163888-.0241146-.313508-.0968239-.467518-.1512645-.191324-.0712478-.397281-.0171726-.593726-.0073075.202299-.3408932.629576-.4442939 1.000883-.423833.386672.0021923.752492.137015 1.130018.2027822.130598.0569982.242538.1461493.362162.2225123-.071335-1.506434-.143036-3.0135987-.215102-4.5203981-.047191-.0102304-.140841-.0303259-.187666-.0409218zm6.941432 7.5036708c-.265585.0858627-.532268.1680717-.798951.24955-.291924.0559021-.373136.423833-.661768.4877733-.374234.064671-.753223.0990161-1.12892.1549182.125476.4157948.085602.8513198.112307 1.2784411.014267.3233553.171935.6149232.230466.9287788.045728.3383357-.018291.6799597.010609 1.0193915.175228.3851034.328141.7968791.624455 1.1100039.720299.8553389 1.436208 1.7150622 2.15541 2.5711317.746273-1.3343431 1.247446-2.8356619 1.254397-4.3753448.000731-1.228385-.300338-2.4805192-.984787-3.5112371-.271805.0171725-.552388-.0065768-.813218.0865934zm-3.409441-.7413423c.285339.0595558.563728.1640526.853823.1936478.645307-.1129003 1.284394-.2586843 1.927505-.3840073.291559-.0668633.594458-.0931702.872115-.2093589-1.219644.109612-2.435995.2696455-3.653443.3997184zm-3.164342-6.706061c.085968 1.5082609.176325 3.0161563.263024 4.5244172.167546.0284991.339481.0416525.503003.0924394.259366.170264.415571.4841196.722128.5831358.337286.1172848.677499.2265314 1.011858.3540467-.207786.3898532-.704935.4030067-1.089412.4687739.028168.2005899-.001097.4008144-.02707.5999429.283144-.1519953.563362-.3390664.888576-.3829112.268512-.0230185.499344.1479761.695789.3091058 1.334146-.1381111 2.667925-.2853566 4.00207-.4274868-.402768-1.4772041-1.094899-2.9050828-2.177726-4.0052217-1.248543-1.2813641-3.001552-2.0628975-4.79224-2.116242zm.453617 15.7687795c.112306.1205732.228271.2396848.369843.3262783.33436.2148395.667622.432602 1.00381.6452492.06036-.335778.189495-.658768.189861-1.0036804.014998-.4278521.151449-.844743.135719-1.2736912-.526415.4852157-1.120141.8871263-1.699233 1.3058441z" fill="#0f415a"/></g></svg>