<svg height="24" width="111" xmlns="http://www.w3.org/2000/svg"><g fill="none" fill-rule="evenodd"><path d="M-57-28h224v80H-57z"/><path d="M106.85 13.887c-.076-1.585-1.057-3.095-3.547-3.095-2.188 0-3.395 1.66-3.546 3.095zm4 5.132c-.831 2.717-3.321 4.981-7.17 4.981-4.3 0-8.15-3.094-8.15-8.377 0-4.981 3.698-8.302 7.698-8.302 4.83 0 7.772 3.094 7.772 8.15 0 .604-.075 1.284-.075 1.284H99.68c.076 2.113 1.887 3.547 3.924 3.547 1.962 0 3.094-.981 3.547-2.415zM83.457 14.49c0-1.812 1.056-3.246 2.942-3.246 2.038 0 2.943 1.359 2.943 3.095v9.132h4.226v-9.887c0-3.472-1.811-6.264-5.66-6.264-1.66 0-3.546.754-4.527 2.34V7.697h-4.15v15.698h4.226zM72.365 7.774h4.226v15.698h-4.226zM74.478 0c1.434 0 2.641 1.208 2.641 2.642 0 1.433-1.132 2.566-2.641 2.566-1.434 0-2.641-1.208-2.641-2.566 0-1.434 1.207-2.642 2.64-2.642zM50.859 14.49c0-1.81 1.057-3.245 2.943-3.245 2.038 0 2.943 1.359 2.943 3.095v9.132h4.226v-9.887c0-3.472-1.811-6.264-5.66-6.264-1.66 0-3.546.754-4.527 2.34V7.697h-4.15v15.698h4.225zM39.616 7.775h4.226v15.698h-4.226zM41.653 0c1.434 0 2.641 1.208 2.641 2.642 0 1.433-1.132 2.566-2.64 2.566-1.434 0-2.642-1.208-2.642-2.566C39.088 1.208 40.22 0 41.653 0zM29.58 20.83c-1.358 0-2.038-.905-2.038-1.811 0-1.208.83-1.811 1.962-1.962l3.547-.529v.68c0 2.717-1.66 3.622-3.471 3.622zm-6.263-1.585c0 2.49 2.037 4.755 5.433 4.755 2.34 0 3.848-1.057 4.603-2.34 0 .604.075 1.434.15 1.887h3.925c-.076-.528-.227-1.66-.227-2.49v-7.774c0-3.17-1.886-5.962-6.867-5.962-4.225 0-6.489 2.717-6.715 5.207l3.773.83c.15-1.358 1.131-2.566 3.018-2.566 1.81 0 2.641.906 2.641 2.038 0 .528-.302.981-1.207 1.132l-3.849.604c-2.64.302-4.678 1.887-4.678 4.68zM22.034 12c-.453-.075-.906-.15-1.283-.15-2.188 0-4.075 1.056-4.075 4.452v7.17h-4.225V7.774h4.15v2.34c.98-2.114 3.094-2.491 4.452-2.491.377 0 .68 0 .981.075zM10.111 8v3.698H5.207c.452-.226.83-.604 1.207-.906.755-.754 1.283-1.66 1.66-2.792zm-8.904 3.698H0V8h6.867c-.453 1.132-1.132 2.038-2.113 2.717-.906.604-2.113.906-3.547.981zM8.83 20c.528 0 1.056-.075 1.282-.15v3.546c-.377.151-1.131.378-2.339.378-3.018 0-4.905-1.812-4.905-4.83v-6.265h4.15v5.585c0 1.283.604 1.736 1.812 1.736zM7.018 7.019V3.32H3.245v2.188c0 .604-.151 1.133-.453 1.51zM70.026 20h-.755c-1.207 0-1.81-.453-1.81-1.811V.679H63.31v18.264c0 3.02 1.886 4.83 4.905 4.83.754 0 1.358-.075 1.81-.226z" fill="#48d6b6" fill-rule="nonzero"/></g></svg>