<svg height="24" viewBox="0 0 111 24" width="111" xmlns="http://www.w3.org/2000/svg"><g fill="none" fill-rule="evenodd" transform="translate(-57 -28)"><path d="m0 0h224v80h-224z"/><path d="m163.849762 41.8867925c-.075459-1.5849057-1.056424-3.0943397-3.546567-3.0943397-2.188307 0-3.395649 1.6603774-3.546567 3.0943397zm3.99932 5.1320754c-.830047 2.7169812-3.32019 4.9811321-7.168593 4.9811321-4.301155 0-8.149558-3.0943396-8.149558-8.3773585 0-4.9811321 3.697485-8.3018868 7.696805-8.3018868 4.829368 0 7.772264 3.0943396 7.772264 8.1509434 0 .6037736-.075459 1.2830189-.075459 1.2830189h-11.243372c.075459 2.1132075 1.886472 3.5471698 3.923862 3.5471698 1.96193 0 3.093813-.9811321 3.546567-2.4150943zm-27.39157-4.5283019c0-1.8113207 1.056424-3.245283 2.942896-3.245283 2.037389 0 2.942896 1.3584906 2.942896 3.0943396v9.1320755h4.225697v-9.8867924c0-3.4716982-1.811013-6.264151-5.659416-6.264151-1.660095 0-3.546567.754717-4.527532 2.3396227v-1.9622642h-4.150238v15.6981132h4.225697zm-11.092454-6.7169811h4.225697v15.6981132h-4.225697zm2.112848-7.7735849c1.433719 0 2.641061 1.2075472 2.641061 2.6415094 0 1.4339623-1.131883 2.5660378-2.641061 2.5660378-1.433718 0-2.64106-1.2075472-2.64106-2.5660378 0-1.4339622 1.207342-2.6415094 2.64106-2.6415094zm-23.618627 14.490566c0-1.8113207 1.056425-3.245283 2.942896-3.245283 2.03739 0 2.942896 1.3584906 2.942896 3.0943396v9.1320755h4.225697v-9.8867924c0-3.4716982-1.811013-6.264151-5.659415-6.264151-1.660095 0-3.546567.754717-4.527532 2.3396227v-1.9622642h-4.150238v15.6981132h4.225696zm-11.2433715-6.7169811h4.2256965v15.6981132h-4.2256965zm2.0373896-7.7735849c1.4337189 0 2.6410609 1.2075472 2.6410609 2.6415094 0 1.4339623-1.131883 2.5660378-2.6410609 2.5660378-1.4337186 0-2.6410605-1.2075472-2.6410605-2.5660378.0754588-1.4339622 1.2073419-2.6415094 2.6410605-2.6415094zm-12.0734195 20.8301887c-1.3582597 0-2.0373895-.9056604-2.0373895-1.8113208 0-1.2075471.8300476-1.8113207 1.9619307-1.9622641l3.5465669-.5283019v.6792453c0 2.7169811-1.6600951 3.6226415-3.4711081 3.6226415zm-6.2630863-1.5849057c0 2.4905661 2.0373895 4.754717 5.4330387 4.754717 2.3392251 0 3.8484025-1.0566038 4.6029912-2.3396226 0 .6037735.0754589 1.4339622.1509178 1.8867924h3.9238613c-.0754589-.5283019-.2263766-1.6603773-.2263766-2.490566v-7.7735849c0-3.1698114-1.8864718-5.9622642-6.8667574-5.9622642-4.2256968 0-6.4894629 2.7169811-6.7158395 5.2075472l3.7729436.8301887c.1509177-1.3584906 1.131883-2.5660378 3.0183548-2.5660378 1.8110129 0 2.6410605.9056604 2.6410605 2.0377359 0 .5283019-.3018355.9811321-1.2073419 1.1320755l-3.8484025.6037735c-2.6410605.3018868-4.67845 1.8867925-4.67845 4.6792453zm-1.2828008-7.245283c-.4527532-.0754717-.9055065-.1509434-1.2828008-.1509434-2.1883073 0-4.0747791 1.0566038-4.0747791 4.4528302v7.1698113h-4.2256968v-15.6981132h4.1502379v2.3396226c.9809654-2.1132075 3.0938138-2.490566 4.4520735-2.490566.3772943 0 .6791298 0 .9809653.0754717zm-11.9225017-4v3.6981132h-4.9048267c.4527533-.2264151.8300476-.6037736 1.207342-.9056604.7545887-.754717 1.2828008-1.6603773 1.6600952-2.7924528zm-8.9041469 3.6981132h-1.2073419v-3.6981132h6.8667573c-.4527532 1.1320755-1.1318831 2.0377358-2.1128484 2.7169811-.9055065.6037736-2.1128484.9056604-3.546567.9811321zm7.6213461 8.3018868c.5282121 0 1.0564242-.0754717 1.2828008-.1509434v3.5471698c-.3772944.1509434-1.1318831.3773585-2.339225.3773585-3.0183549 0-4.9048267-1.8113207-4.9048267-4.8301887v-6.2641509h4.150238v5.5849056c0 1.2830189.6036709 1.7358491 1.8110129 1.7358491zm-1.8110129-12.9811321v-3.6981132h-3.7729436v2.1886793c0 .6037735-.1509178 1.1320754-.4527533 1.5094339zm63.0081579 12.9811321h-.754589c-1.207342 0-1.811013-.4528302-1.811013-1.8113208v-17.5094339h-4.150238v18.2641509c0 3.018868 1.886472 4.8301887 4.904827 4.8301887.754589 0 1.35826-.0754717 1.811013-.2264151z" fill="#48d6b6" fill-rule="nonzero"/></g></svg>