<svg height="48" viewBox="0 0 88 48" width="88" xmlns="http://www.w3.org/2000/svg" xmlns:xlink="http://www.w3.org/1999/xlink"><radialGradient id="a" cx="53.633623%" cy="50%" gradientTransform="matrix(-.40650525 .73826929 -.44493349 -.67450608 .976826 .441293)" r="38.703911%"><stop offset="0" stop-color="#39acde"/><stop offset="1" stop-color="#0e3c64"/></radialGradient><linearGradient id="b" x1="50%" x2="50%" y1="67.524807%" y2="100%"><stop offset="0" stop-color="#818485"/><stop offset="1" stop-color="#fff" stop-opacity="0"/></linearGradient><g fill="none" fill-rule="evenodd" transform="translate(-68 -16)"><path d="m0 0h224v80h-224z"/><path d="m55.6874522 0h5.3268102l-11.9865667 35.8474013h-5.8203572l-7.5961027-23.4787337h5.294542l5.2281577 16.5072408h.0661zm-29.3053454 12.3686676h5.2939734l8.7796488 23.4787337h-5.3595049l-1.7757455-5.2285841h-8.7800752l-1.8414192 5.2285841h-5.195463zm-20.88846508.0001422v8.5495069h.06595789c.56988184-.8765007 1.34232831-1.5177422 2.31819232-1.9238665.9752954-.4049871 1.98954008-.6081204 3.04159687-.6081204.8553202 0 1.6989842.1756982 2.5322711.5265259.8330026.3506856 1.5837001.8873042 2.2526609 1.6107087.6682501.7235467 1.2111233 1.649658 1.6277667 2.7789025.4160749 1.1291024.6244677 2.4718571.6244677 4.0281221 0 1.5566915-.2083928 2.8995884-.6244677 4.0284065-.4166434 1.1293866-.9595166 2.0547872-1.6277667 2.778476-.6689608.7235467-1.4196583 1.260876-2.2526609 1.6114194-.8332869.3502592-1.6769509.525673-2.5322711.525673-1.24936185 0-2.36737648-.1970207-3.35390179-.5913466-.9865253-.3948944-1.73210531-1.0632866-2.23602926-2.0063138h-.06595788v2.17064h-4.43893743v-23.4787337zm23.45357298 5.7873782-3.0586549 8.6157491h6.0837623l-2.9594338-8.6157491zm-19.63881893 14.6329849c.70108683 0 1.29897233-.1479788 1.79209283-.4439364.4929784-.2958155.9042201-.695543 1.2330145-1.2001777.3290787-.503924.5698819-1.0850357.7236888-1.7426245.1528119-.6580152.2299997-1.3369266.2299997-2.0390085 0-.7234045-.0771878-1.41383-.2299997-2.0711345-.1538069-.6580152-.3946101-1.2388427-.7236888-1.7433352-.3287944-.5042083-.7400361-.904078-1.2330145-1.2001777-.4931205-.2962419-1.091006-.4439364-1.79209283-.4439364-.67990642 0-1.2715373.1476945-1.77574555.4439364-.5046347.2960997-.92056742.6959694-1.24950395 1.2001777-.32907869.5044925-.57045044 1.08532-.72354666 1.7433352-.15380697.6573045-.23014186 1.34773-.23014186 2.0711345 0 .7020819.07633489 1.3809933.23014186 2.0390085.15309622.6575888.39446797 1.2387005.72354666 1.7426245.32893653.5046347.74486925.9043622 1.24950395 1.2001777.50420825.2959576 1.09583913.4439364 1.77574555.4439364z" fill="url(#a)" transform="translate(95 16)"/><path d="m88.1829715 33.3277342-3.2165842 4.8251606-3.2528326-4.8251606h-5.7897948l6.0760861 8.7566203-13.999846 21.9156455h5.6828975l11.2118459-18.0197234 3.8602422 5.8261853h5.7902213l-6.8269257-9.8290046 6.0762282-8.6497231z" fill="url(#b)"/></g></svg>