<svg width="227" height="135" viewBox="0 0 227 135" fill="none" xmlns="http://www.w3.org/2000/svg">
<path d="M163.482 134.089L22.546 127.632L25.0069 79.4507L177.982 86.504L176.019 125.148L163.482 134.089Z" fill="#FEDB31"/>
<path d="M109.334 33.8628L0 38.7236L2.10184 85.5994L111.436 80.7386L109.334 33.8628Z" fill="#E94D51"/>
<path d="M216.665 80.5869L169.754 85.3857L172.245 109.532L219.156 104.733L216.665 80.5869Z" fill="#61BA8F"/>
<path d="M176.019 125.148L163.416 134.089L164.812 125.148H176.019Z" fill="#FAB42D"/>
<path d="M22.6126 63.5565H18.4556V74.8153H11.1062V44.251H24.8074C32.3231 44.251 36.214 47.5624 36.214 53.8209C36.214 58.49 33.9194 61.4703 29.962 62.7949L38.2426 74.7159V74.8153H29.5629L22.6126 63.5565ZM18.4889 50.7745V57.4966H24.4748C27.5011 57.4966 28.9643 56.3376 28.9643 54.0196C28.9643 51.8672 27.6341 50.7745 24.5746 50.7745H18.4889Z" fill="#020203"/>
<path d="M53.2408 68.0929H53.1411C52.0104 73.5898 49.1504 75.5436 45.2595 75.5436C40.0052 75.5436 37.7438 72.0666 37.7438 66.8346V50.708H44.7607V64.8477C44.7607 67.3313 45.8914 69.285 48.7846 69.285C51.6113 69.285 53.2408 67.6624 53.2408 64.8477V50.708H60.1912V74.8482H53.2408V68.0929Z" fill="#020203"/>
<path d="M61.8539 67.3641L68.3387 66.1057C69.0038 68.788 70.4338 70.3775 73.3935 70.3775C75.6548 70.3775 76.7523 69.5496 76.8188 68.0926C76.8188 66.768 75.8876 66.0064 71.5644 65.1454C64.7471 63.7215 62.4525 61.4367 62.4525 57.463C62.4525 52.8932 65.778 50.0454 72.5621 50.0454C79.5125 50.0454 82.3724 52.8932 83.3036 57.3636L76.6525 58.8538C76.0872 56.2709 74.9232 55.0456 72.4956 55.0456C70.4338 55.0456 69.3363 55.8735 69.3363 57.1981C69.3363 58.5226 69.9349 59.4498 74.6904 60.3108C81.6408 61.7016 83.6361 64.2845 83.6361 67.8939C83.6361 72.6292 80.4769 75.5764 73.194 75.5764C65.0797 75.5101 62.5522 71.8014 61.8539 67.3641Z" fill="#020203"/>
<path d="M87.0614 56.4691H84.2347V50.6741H87.0614V44.6143H94.0118V50.6741H100.397V56.4691H94.0118V65.8735C94.0118 67.7941 94.7434 68.7213 96.8385 68.7213C97.9027 68.7213 99.1331 68.3571 99.9978 68.1584L100.763 74.5825C98.9336 75.1454 97.7032 75.5097 95.0427 75.5097C89.4226 75.5097 87.0614 71.8009 87.0614 67.1981V56.4691Z" fill="#020203"/>
<path d="M46.9887 110.445C45.592 107.697 43.3971 102.796 41.8674 99.1535H41.6678C41.8341 103.061 41.9339 107.796 41.9339 110.81V122.532H34.917V91.9678H46.0243L51.0458 102.2C52.6753 105.677 54.6374 110.081 55.9676 113.492H56.1672C56.0674 109.916 56.0009 106.472 56.0009 103.723V91.9678H63.0178V122.532H53.1077L46.9887 110.445Z" fill="#020203"/>
<path d="M80.5101 116.605H80.4104C79.3462 120.745 76.6858 123.029 72.5953 123.029C68.4052 123.029 65.2459 120.745 65.2459 116.009C65.2459 111.638 67.8398 108.625 74.2581 108.625H80.5434V107.598C80.5434 105.015 79.4127 103.591 76.7523 103.591C74.4576 103.591 72.9612 104.618 72.4956 107.4L65.9443 106.472C66.5429 101.439 69.5359 97.8296 77.0516 97.8296C84.401 97.8296 87.4937 101.406 87.4937 107.565V122.533H80.5434V116.605H80.5101ZM80.5101 113.228V112.499H75.289C73.2272 112.499 72.03 113.426 72.03 114.751C72.03 116.241 72.9612 117.4 75.6216 117.4C78.5813 117.433 80.5101 115.678 80.5101 113.228Z" fill="#020203"/>
<path d="M91.5176 104.187H88.6909V98.3919H91.5176V92.332H98.468V98.3919H104.853V104.187H98.468V113.591C98.468 115.512 99.1996 116.439 101.295 116.439C102.359 116.439 103.589 116.075 104.454 115.876L105.219 122.3C103.39 122.863 102.159 123.227 99.4989 123.227C93.8788 123.227 91.5176 119.519 91.5176 114.916V104.187Z" fill="#020203"/>
<path d="M106.815 95.8428V91.3062H114.065V95.8428H106.815ZM106.948 122.5V98.3594H113.965V122.5H106.948Z" fill="#020203"/>
<path d="M115.96 110.445C115.96 102.399 120.882 97.7295 128.531 97.7295C136.146 97.7295 141.068 102.399 141.068 110.445C141.068 118.393 136.313 123.227 128.531 123.227C120.716 123.227 115.96 118.393 115.96 110.445ZM122.977 110.379C122.977 114.287 124.906 116.836 128.498 116.836C132.122 116.836 134.118 114.287 134.118 110.379C134.118 106.505 132.056 104.021 128.531 104.021C124.972 104.021 122.977 106.505 122.977 110.379Z" fill="#020203"/>
<path d="M149.914 122.5H142.897V98.3595H149.914V105.148H149.981C151.111 99.5848 154.004 97.6973 157.895 97.6973C163.15 97.6973 165.378 101.174 165.378 106.34V122.467H158.427V108.327C158.427 105.843 157.297 103.956 154.404 103.956C151.577 103.956 149.947 105.578 149.947 108.327V122.5H149.914Z" fill="#020203"/>
<path d="M163.482 134.089L22.546 127.632L25.0069 79.4507L177.982 86.504L176.019 125.148L163.482 134.089Z" fill="#FEDB31"/>
<path d="M109.334 33.8628L0 38.7236L2.10184 85.5994L111.436 80.7386L109.334 33.8628Z" fill="#E94D51"/>
<path d="M216.665 80.5869L169.754 85.3857L172.245 109.532L219.156 104.733L216.665 80.5869Z" fill="#61BA8F"/>
<path d="M176.019 125.148L163.416 134.089L164.812 125.148H176.019Z" fill="#FAB42D"/>
<path d="M22.6126 63.5565H18.4556V74.8153H11.1062V44.251H24.8074C32.3231 44.251 36.214 47.5624 36.214 53.8209C36.214 58.49 33.9194 61.4703 29.962 62.7949L38.2426 74.7159V74.8153H29.5629L22.6126 63.5565ZM18.4889 50.7745V57.4966H24.4748C27.5011 57.4966 28.9643 56.3376 28.9643 54.0196C28.9643 51.8672 27.6341 50.7745 24.5746 50.7745H18.4889Z" fill="#020203"/>
<path d="M53.2408 68.0929H53.1411C52.0104 73.5898 49.1504 75.5436 45.2595 75.5436C40.0052 75.5436 37.7438 72.0666 37.7438 66.8346V50.708H44.7607V64.8477C44.7607 67.3313 45.8914 69.285 48.7846 69.285C51.6113 69.285 53.2408 67.6624 53.2408 64.8477V50.708H60.1912V74.8482H53.2408V68.0929Z" fill="#020203"/>
<path d="M61.8539 67.3641L68.3387 66.1057C69.0038 68.788 70.4338 70.3775 73.3935 70.3775C75.6548 70.3775 76.7523 69.5496 76.8188 68.0926C76.8188 66.768 75.8876 66.0064 71.5644 65.1454C64.7471 63.7215 62.4525 61.4367 62.4525 57.463C62.4525 52.8932 65.778 50.0454 72.5621 50.0454C79.5125 50.0454 82.3724 52.8932 83.3036 57.3636L76.6525 58.8538C76.0872 56.2709 74.9232 55.0456 72.4956 55.0456C70.4338 55.0456 69.3363 55.8735 69.3363 57.1981C69.3363 58.5226 69.9349 59.4498 74.6904 60.3108C81.6408 61.7016 83.6361 64.2845 83.6361 67.8939C83.6361 72.6292 80.4769 75.5764 73.194 75.5764C65.0797 75.5101 62.5522 71.8014 61.8539 67.3641Z" fill="#020203"/>
<path d="M87.0614 56.4691H84.2347V50.6741H87.0614V44.6143H94.0118V50.6741H100.397V56.4691H94.0118V65.8735C94.0118 67.7941 94.7434 68.7213 96.8385 68.7213C97.9027 68.7213 99.1331 68.3571 99.9978 68.1584L100.763 74.5825C98.9336 75.1454 97.7032 75.5097 95.0427 75.5097C89.4226 75.5097 87.0614 71.8009 87.0614 67.1981V56.4691Z" fill="#020203"/>
<path d="M46.9887 110.445C45.592 107.697 43.3971 102.796 41.8674 99.1535H41.6678C41.8341 103.061 41.9339 107.796 41.9339 110.81V122.532H34.917V91.9678H46.0243L51.0458 102.2C52.6753 105.677 54.6374 110.081 55.9676 113.492H56.1672C56.0674 109.916 56.0009 106.472 56.0009 103.723V91.9678H63.0178V122.532H53.1077L46.9887 110.445Z" fill="#020203"/>
<path d="M80.5101 116.605H80.4104C79.3462 120.745 76.6858 123.029 72.5953 123.029C68.4052 123.029 65.2459 120.745 65.2459 116.009C65.2459 111.638 67.8398 108.625 74.2581 108.625H80.5434V107.598C80.5434 105.015 79.4127 103.591 76.7523 103.591C74.4576 103.591 72.9612 104.618 72.4956 107.4L65.9443 106.472C66.5429 101.439 69.5359 97.8296 77.0516 97.8296C84.401 97.8296 87.4937 101.406 87.4937 107.565V122.533H80.5434V116.605H80.5101ZM80.5101 113.228V112.499H75.289C73.2272 112.499 72.03 113.426 72.03 114.751C72.03 116.241 72.9612 117.4 75.6216 117.4C78.5813 117.433 80.5101 115.678 80.5101 113.228Z" fill="#020203"/>
<path d="M91.5176 104.187H88.6909V98.3919H91.5176V92.332H98.468V98.3919H104.853V104.187H98.468V113.591C98.468 115.512 99.1996 116.439 101.295 116.439C102.359 116.439 103.589 116.075 104.454 115.876L105.219 122.3C103.39 122.863 102.159 123.227 99.4989 123.227C93.8788 123.227 91.5176 119.519 91.5176 114.916V104.187Z" fill="#020203"/>
<path d="M106.815 95.8428V91.3062H114.065V95.8428H106.815ZM106.948 122.5V98.3594H113.965V122.5H106.948Z" fill="#020203"/>
<path d="M115.96 110.445C115.96 102.399 120.882 97.7295 128.531 97.7295C136.146 97.7295 141.068 102.399 141.068 110.445C141.068 118.393 136.313 123.227 128.531 123.227C120.716 123.227 115.96 118.393 115.96 110.445ZM122.977 110.379C122.977 114.287 124.906 116.836 128.498 116.836C132.122 116.836 134.118 114.287 134.118 110.379C134.118 106.505 132.056 104.021 128.531 104.021C124.972 104.021 122.977 106.505 122.977 110.379Z" fill="#020203"/>
<path d="M149.914 122.5H142.897V98.3595H149.914V105.148H149.981C151.111 99.5848 154.004 97.6973 157.895 97.6973C163.15 97.6973 165.378 101.174 165.378 106.34V122.467H158.427V108.327C158.427 105.843 157.297 103.956 154.404 103.956C151.577 103.956 149.947 105.578 149.947 108.327V122.5H149.914Z" fill="#020203"/>
<path opacity="0.2" d="M147.52 81.2389C161.074 81.2389 172.062 80.1122 172.062 78.7222C172.062 77.3323 161.074 76.2056 147.52 76.2056C133.965 76.2056 122.977 77.3323 122.977 78.7222C122.977 80.1122 133.965 81.2389 147.52 81.2389Z" fill="#1D1D1C"/>
<path d="M220.083 0.0102539C206.082 10.8717 187.127 -0.453343 173.16 10.4081C175.454 20.6734 177.749 30.9388 180.043 41.2042C194.044 30.3428 213 41.6678 227 30.8064L217.057 18.0243L220.083 0.0102539Z" fill="#FDEDEA"/>
<path d="M173.027 5.44145C172.927 4.94474 172.395 4.61359 171.896 4.71294C171.397 4.81228 171.065 5.3421 171.164 5.83882L182.438 56.2716L183.901 54.086L173.027 5.44145Z" fill="#4E3814"/>
<path d="M167.706 68.457L164.68 77.3978C164.613 77.5634 164.846 77.6627 164.946 77.5303L172.195 66.7351C172.195 66.7351 172.195 66.7351 172.195 66.702C172.262 66.5364 173.093 64.5496 172.195 61.8673C171.331 59.2513 166.442 63.4237 165.744 64.0197C165.71 64.0528 165.677 64.1191 165.71 64.1853L167.706 68.3577C167.739 68.3908 167.739 68.4239 167.706 68.457Z" fill="#BF3B22" stroke="#1E1F1D" stroke-width="0.505006" stroke-miterlimit="10" stroke-linejoin="round"/>
<path d="M126.037 69.0202L129.462 77.961C129.529 78.1266 129.296 78.2591 129.196 78.0935L121.015 67.2652C121.015 67.2652 121.015 67.2652 121.015 67.2321C120.915 67.0665 120.018 65.0796 121.015 62.3974C122.013 59.7814 127.5 63.9207 128.298 64.5498C128.365 64.5829 128.365 64.6823 128.331 64.7485L126.07 68.8878C126.037 68.9209 126.037 68.954 126.037 69.0202Z" fill="#BF3B22" stroke="#1E1F1D" stroke-width="0.505006" stroke-miterlimit="10" stroke-linejoin="round"/>
<path d="M208.444 15.8387L207.28 15.64C207.246 15.5738 207.213 15.4744 207.147 15.4082L207.645 14.3485C207.679 14.2492 207.679 14.1167 207.612 14.0174C207.546 13.9181 207.446 13.8518 207.313 13.8518L206.149 13.8849C206.082 13.8187 206.049 13.7525 205.983 13.6863L206.282 12.5604C206.315 12.461 206.282 12.3286 206.182 12.2292C206.116 12.1299 205.983 12.0968 205.883 12.1299L204.719 12.3948C204.652 12.3286 204.586 12.2624 204.519 12.2292L204.586 11.0703C204.586 10.9709 204.553 10.8385 204.453 10.7722C204.353 10.706 204.22 10.706 204.12 10.7391L203.023 11.2027C202.956 11.1696 202.857 11.1034 202.79 11.0703L202.624 9.91126C202.591 9.81192 202.524 9.71257 202.424 9.64634C202.325 9.61323 202.192 9.61323 202.092 9.67946L201.127 10.3417C201.061 10.3086 200.961 10.2755 200.895 10.2755L200.496 9.14963C200.462 9.05029 200.362 8.95095 200.263 8.91784C200.163 8.88472 200.03 8.91783 199.963 9.01718L199.132 9.87814C199.032 9.87814 198.966 9.84503 198.866 9.84503L198.267 8.85161C198.201 8.75226 198.101 8.68604 197.968 8.68604C197.868 8.68604 197.735 8.75226 197.669 8.85161L197.037 9.84503C196.937 9.84503 196.871 9.84503 196.771 9.87814L195.973 9.01718C195.906 8.91783 195.773 8.88472 195.673 8.91784C195.574 8.95095 195.474 9.01718 195.407 9.11652L194.975 10.2093C194.875 10.2424 194.809 10.2424 194.709 10.2755L193.778 9.58012C193.678 9.51389 193.545 9.48077 193.445 9.547C193.346 9.58011 193.246 9.67946 193.246 9.81191L193.046 10.9709C192.98 11.004 192.88 11.0371 192.814 11.1034L191.749 10.6067C191.65 10.5735 191.517 10.5735 191.417 10.6398C191.317 10.706 191.251 10.8053 191.251 10.9378L191.284 12.0968C191.217 12.163 191.151 12.1961 191.084 12.2624L189.954 11.9643C189.854 11.9312 189.721 11.9643 189.621 12.0637C189.521 12.1299 189.488 12.2624 189.521 12.3617L189.787 13.5207C189.721 13.5869 189.654 13.6531 189.621 13.7194L188.457 13.6532C188.357 13.6532 188.224 13.6863 188.158 13.7856C188.091 13.8849 188.091 14.0174 188.125 14.1167L188.59 15.2095C188.557 15.2757 188.49 15.3751 188.457 15.4413L187.293 15.6069C187.193 15.64 187.094 15.7062 187.027 15.8056C186.994 15.9049 186.994 16.0374 187.06 16.1367L187.725 17.097C187.692 17.1632 187.659 17.2626 187.659 17.3288L186.562 17.7262C186.462 17.7593 186.362 17.8586 186.329 17.958C186.295 18.0573 186.329 18.1898 186.429 18.256L187.293 19.0839C187.293 19.1832 187.26 19.2494 187.26 19.3488L186.262 19.9448C186.162 20.0111 186.096 20.1104 186.096 20.2429C186.096 20.3422 186.162 20.4746 186.262 20.5409L187.26 21.17C187.26 21.2694 187.26 21.3356 187.293 21.435L186.429 22.2297C186.329 22.2959 186.295 22.4284 186.329 22.5277C186.362 22.6271 186.428 22.7264 186.528 22.7926L187.626 23.2231C187.659 23.3225 187.659 23.3887 187.692 23.488L186.994 24.4152C186.927 24.5146 186.894 24.647 186.961 24.7464C186.994 24.8457 187.094 24.945 187.227 24.945L188.391 25.1437C188.424 25.21 188.457 25.3093 188.524 25.3755L188.025 26.4352C187.991 26.5345 187.991 26.667 188.058 26.7663C188.125 26.8657 188.224 26.9319 188.357 26.9319L189.521 26.8988C189.588 26.965 189.621 27.0312 189.688 27.0975L189.388 28.2233C189.355 28.3227 189.388 28.4551 189.488 28.5545C189.555 28.6538 189.688 28.6869 189.787 28.6538L190.951 28.3889C191.018 28.4551 191.084 28.5214 191.151 28.5545L191.084 29.7135C191.084 29.8128 191.117 29.9453 191.217 30.0115C191.317 30.0777 191.45 30.0777 191.55 30.0446L192.647 29.581C192.714 29.6141 192.814 29.6804 192.88 29.7135L193.046 30.8725C193.08 30.9718 193.146 31.0712 193.246 31.1374C193.346 31.1705 193.479 31.1705 193.578 31.1043L194.543 30.442C194.609 30.4751 194.709 30.5082 194.776 30.5082L195.175 31.6341C195.208 31.7334 195.308 31.8328 195.407 31.8328C195.507 31.8659 195.64 31.8328 195.707 31.7334L196.538 30.8725C196.638 30.8725 196.704 30.9056 196.804 30.9056L197.403 31.899C197.469 31.9983 197.569 32.0646 197.702 32.0646C197.802 32.0646 197.935 31.9983 198.001 31.899L198.633 30.9056C198.733 30.9056 198.799 30.9056 198.899 30.8725L199.697 31.7334C199.764 31.8328 199.897 31.8659 199.997 31.8328C200.096 31.7997 200.196 31.7334 200.263 31.6341L200.695 30.5413C200.795 30.5082 200.861 30.5082 200.961 30.4751L201.892 31.1705C201.992 31.2367 202.125 31.2698 202.225 31.2036C202.325 31.1705 202.424 31.0712 202.424 30.9387L202.624 29.7797C202.69 29.7466 202.79 29.7135 202.857 29.6472L203.921 30.144C204.021 30.2102 204.154 30.1771 204.253 30.1108C204.353 30.0446 204.42 29.9453 204.42 29.8128L204.386 28.6538C204.453 28.5876 204.519 28.5545 204.586 28.4883L205.717 28.7863C205.816 28.8194 205.949 28.7863 206.049 28.6869C206.149 28.6207 206.182 28.4883 206.149 28.3889L205.883 27.2299C205.949 27.1637 206.016 27.0975 206.049 27.0312L207.213 27.0975C207.313 27.0975 207.446 27.0644 207.512 26.965C207.579 26.8657 207.579 26.7332 207.546 26.6339L207.08 25.5411C207.113 25.4749 207.18 25.3755 207.213 25.3093L208.377 25.1437C208.477 25.1437 208.577 25.0444 208.643 24.945C208.676 24.8457 208.676 24.7132 208.61 24.6139L207.945 23.6536C207.978 23.5874 208.011 23.488 208.011 23.4218L209.142 23.0244C209.242 22.9913 209.341 22.892 209.341 22.7926C209.375 22.6933 209.341 22.5608 209.242 22.4946L208.377 21.6668C208.377 21.5674 208.41 21.5012 208.41 21.4018L209.408 20.8058C209.508 20.7396 209.574 20.6402 209.574 20.5078C209.574 20.3753 209.508 20.276 209.408 20.2097L208.41 19.5806C208.41 19.4812 208.41 19.415 208.377 19.3157L209.242 18.5209C209.341 18.4547 209.375 18.3222 209.341 18.2229C209.308 18.1235 209.242 18.0242 209.142 17.958L208.044 17.5275C208.011 17.4282 208.011 17.3619 207.978 17.2626L208.676 16.3354C208.743 16.236 208.776 16.1036 208.71 16.0042C208.643 15.9049 208.543 15.8718 208.444 15.8387ZM204.187 23.8523C203.854 23.9185 203.622 24.2497 203.655 24.5808L203.921 26.2365C202.192 28.0247 199.764 28.985 197.27 28.8194L196.339 27.4286C196.139 27.1306 195.74 27.0644 195.474 27.263L194.244 28.0909C193.878 27.9253 193.545 27.7597 193.213 27.5611L199.731 24.9782C199.797 24.9451 199.864 24.9119 199.83 24.8457L198.933 22.5608C198.899 22.4946 198.866 22.4946 198.766 22.5277L196.871 23.2893L196.305 21.8323L198.367 21.0045C198.567 20.9382 199.398 20.6733 200.063 21.6005C200.263 21.8986 200.861 22.8589 201.127 23.1569C201.393 23.488 202.192 24.0179 202.724 23.8192L206.082 22.4946C205.983 22.892 205.85 23.2562 205.683 23.6205L204.187 23.8523ZM205.85 24.8788C205.983 25.2431 205.816 25.6404 205.451 25.7729C205.085 25.9054 204.686 25.7398 204.553 25.3755C204.42 25.0113 204.586 24.6139 204.952 24.4815C204.952 24.4815 204.952 24.4815 204.985 24.4815C205.318 24.349 205.717 24.5146 205.85 24.8788ZM195.84 29.5479C195.474 29.6804 195.075 29.5148 194.942 29.1505C194.809 28.7863 194.975 28.3889 195.341 28.2565C195.341 28.2565 195.341 28.2565 195.374 28.2565C195.74 28.124 196.106 28.2896 196.272 28.6538C196.372 28.985 196.206 29.3823 195.84 29.5479ZM188.79 20.3091C189.155 20.1766 189.554 20.3422 189.688 20.7064C189.821 21.0707 189.654 21.4681 189.288 21.6005C188.923 21.733 188.524 21.5674 188.391 21.2032C188.258 20.8389 188.424 20.4415 188.79 20.3091ZM189.488 22.5608L190.652 21.4018C190.885 21.1369 190.885 20.7396 190.652 20.5078L190.12 19.9779L191.251 19.5475L193.279 24.6139L190.984 25.508C190.286 24.6139 189.787 23.6205 189.488 22.5608ZM195.407 19.6468L194.809 18.1567L197.503 17.097C197.636 17.0308 198.533 16.8652 198.799 17.4944C198.999 18.0242 198.434 18.4547 197.902 18.6534L195.407 19.6468ZM205.085 18.2229L205.218 18.5871C205.584 19.4812 205.151 19.8455 204.719 20.0773C204.32 20.276 203.788 20.2429 203.622 20.0111C202.823 18.7196 202.291 18.5871 201.46 18.3553C202.059 17.5275 202.591 16.4678 202.192 15.4413C201.759 14.3485 200.762 13.9843 200.096 13.8518C199.199 13.6531 198.367 13.8849 198.168 13.9512L189.688 17.2957C190.353 15.5407 191.55 14.0174 193.146 13.024L194.543 13.6863C194.875 13.8187 195.241 13.6863 195.374 13.3882L196.073 11.8981C198.533 11.4345 201.094 12.0637 203.089 13.62L203.023 15.64C203.023 16.0042 203.289 16.2692 203.622 16.3023L205.351 16.3685C205.584 16.799 205.783 17.2626 205.916 17.7262L205.085 18.0573C205.051 18.0904 205.051 18.1567 205.085 18.2229ZM193.811 12.3286C193.678 11.9643 193.844 11.567 194.21 11.4345C194.21 11.4345 194.21 11.4345 194.244 11.4345C194.609 11.302 194.975 11.4676 195.141 11.8319C195.274 12.1961 195.108 12.5935 194.742 12.726C194.343 12.8584 193.944 12.6597 193.811 12.3286ZM204.785 15.5407C204.42 15.6731 204.021 15.5075 203.888 15.1433C203.755 14.779 203.921 14.3817 204.287 14.2492C204.287 14.2492 204.287 14.2492 204.32 14.2492C204.686 14.1167 205.051 14.2823 205.218 14.6466C205.318 14.9777 205.118 15.3751 204.785 15.5407Z" fill="#1D1D1C"/>
<path d="M186.495 55.3439C184.001 58.2911 181.906 58.7547 180.941 58.7878C180.709 58.7878 180.609 58.556 180.742 58.3573C181.839 56.9996 183.968 53.6551 184.666 52.5624C184.766 52.3968 184.666 52.1981 184.466 52.165C175.354 51.304 176.219 58.1917 176.452 59.4832C176.485 59.6157 176.419 59.715 176.286 59.7812L173.093 60.9402C172.86 61.0396 172.661 60.7747 172.794 60.5429L173.16 59.9799C173.326 59.715 173.359 59.417 173.259 59.1189C173.16 58.8209 172.894 58.6222 172.594 58.5891L169.834 58.1255C169.768 58.1255 169.701 58.0593 169.635 57.9931C169.568 57.8275 169.468 57.695 169.402 57.5295C169.368 57.4632 169.368 57.3639 169.402 57.2977L170.566 54.6485C170.699 54.3505 170.665 54.0525 170.499 53.7876C170.333 53.5227 170.067 53.3902 169.768 53.3902L166.974 53.4895C166.908 53.4895 166.808 53.4564 166.775 53.3902C166.675 53.2578 166.575 53.1253 166.475 52.9928C166.442 52.9266 166.409 52.8604 166.442 52.7942L167.107 49.9463C167.174 49.6483 167.107 49.3172 166.874 49.1185C166.675 48.8867 166.376 48.8205 166.076 48.8867L163.349 49.549C163.283 49.5821 163.183 49.549 163.116 49.4827C162.983 49.3834 162.884 49.2841 162.751 49.1516C162.684 49.0854 162.651 49.0191 162.651 48.9529L162.751 46.0389C162.751 45.7409 162.618 45.4428 162.385 45.2773C162.152 45.1117 161.82 45.0786 161.554 45.211L158.993 46.4031C158.926 46.4362 158.827 46.4362 158.76 46.4031C158.627 46.3369 158.494 46.2376 158.328 46.1713C158.261 46.1382 158.195 46.072 158.195 45.9727L157.762 43.0917C157.729 42.7937 157.53 42.5288 157.23 42.3963C156.964 42.2639 156.632 42.3301 156.399 42.4957L154.104 44.1845C154.038 44.2176 153.938 44.2507 153.872 44.2176C153.705 44.1514 153.572 44.1183 153.406 44.0851C153.339 44.052 153.273 44.0189 153.24 43.9196L152.275 41.1711C152.175 40.8731 151.943 40.6744 151.643 40.6082C151.344 40.5419 151.045 40.6413 150.845 40.8731L148.916 42.9924C148.85 43.0586 148.783 43.0917 148.684 43.0586C148.517 43.0255 148.384 43.0255 148.218 43.0255C148.152 43.0255 148.052 42.9593 148.019 42.893L146.555 40.4095C146.389 40.1446 146.123 39.979 145.824 39.979C145.524 39.979 145.258 40.1446 145.092 40.4095L143.596 42.893C143.562 42.9593 143.496 42.9924 143.396 43.0255C143.23 43.0255 143.097 43.0586 142.931 43.0586C142.864 43.0586 142.764 43.0255 142.698 42.9593L140.802 40.8069C140.603 40.5751 140.303 40.4757 140.004 40.5419C139.705 40.6082 139.472 40.8069 139.372 41.1049L138.375 43.8202C138.341 43.8865 138.275 43.9527 138.208 43.9858C138.042 44.0189 137.909 44.0852 137.743 44.1183C137.676 44.1514 137.576 44.1183 137.51 44.0851L135.315 42.4294C135.082 42.2308 134.75 42.1976 134.484 42.3301C134.218 42.4626 134.018 42.6944 133.952 43.0255L133.486 45.9064C133.486 45.9727 133.419 46.0389 133.353 46.072C133.22 46.1382 133.054 46.2376 132.921 46.3038C132.854 46.3369 132.754 46.3369 132.688 46.3038L130.16 45.0786C129.894 44.9461 129.562 44.9792 129.329 45.1448C129.096 45.3104 128.93 45.6084 128.93 45.9064L129.03 48.8205C129.03 48.8867 128.997 48.986 128.93 49.0191C128.797 49.1185 128.697 49.2178 128.564 49.3172C128.498 49.3834 128.431 49.3834 128.331 49.3834L125.604 48.7211C125.305 48.6549 125.006 48.7542 124.806 48.9529C124.607 49.1847 124.507 49.4827 124.574 49.7808L125.205 52.6286C125.239 52.6948 125.205 52.7942 125.139 52.8273C125.039 52.9597 124.939 53.0922 124.84 53.2246C124.773 53.2909 124.707 53.324 124.64 53.324L121.847 53.2246C121.547 53.2246 121.281 53.3571 121.115 53.622C120.949 53.8869 120.915 54.2181 121.048 54.483L122.212 57.1321C122.246 57.1983 122.246 57.2977 122.212 57.3639C122.146 57.4964 122.046 57.6619 121.98 57.8275C121.946 57.8937 121.88 57.9599 121.78 57.9599L119.02 58.4235C118.721 58.4567 118.488 58.6885 118.355 58.9534C118.255 59.2514 118.288 59.5494 118.455 59.8143L119.352 61.1058C119.086 61.3707 119.153 61.2714 118.887 61.5363C117.789 60.6753 116.825 59.5825 116.326 58.8209C116.26 58.7216 116.26 58.6222 116.326 58.5229C117.091 57.4964 121.414 51.1385 112.469 48.092C112.336 48.0257 112.169 48.1251 112.136 48.2906C111.737 50.8404 112.203 53.9863 112.402 55.2777C112.435 55.5095 112.169 55.6751 112.003 55.5095C111.172 54.8472 109.542 53.1253 108.977 49.3834C108.944 49.1847 108.711 49.0854 108.544 49.2178C107.114 50.4762 102.492 55.5095 111.97 60.1124C112.003 60.1124 112.003 60.1455 112.036 60.1455C112.269 60.3773 113.965 62.0992 117.191 65.0133C117.291 65.1126 117.291 65.2782 117.191 65.3775L115.229 67.4637C115.229 67.4637 114.497 68.0266 115.561 69.4174C116.293 70.3446 122.977 76.5038 125.937 79.2192C126.17 79.4179 126.469 79.153 126.336 78.8881C124.407 75.7753 120.417 69.1856 120.782 68.8545C120.782 68.8545 120.982 68.0266 121.115 67.563C121.148 67.3975 121.348 67.3312 121.481 67.3975C124.208 68.8545 147.819 80.61 168.836 68.2584C168.87 68.2584 168.903 68.2253 168.936 68.2253C170.931 67.8942 172.361 67.7948 172.894 67.7948C173.06 67.7948 173.16 67.9273 173.16 68.0929C172.993 69.4505 170.832 75.0799 169.635 78.1264C169.535 78.3913 169.901 78.6231 170.067 78.3582C172.162 75.4111 176.252 69.583 176.784 68.6558C177.583 67.1988 176.784 66.8014 176.784 66.8014L174.024 64.7483C173.858 64.6159 173.891 64.3841 174.091 64.3179L178.78 62.6953C178.846 62.6622 178.913 62.6622 178.946 62.6953C179.478 62.894 182.504 63.9536 185.497 61.6687C188.158 59.6488 187.326 56.5029 186.927 55.4102C186.861 55.2446 186.628 55.2115 186.495 55.3439Z" fill="#E6421E"/>
<path d="M121.082 67.1657C121.082 67.1657 121.348 66.3047 122.312 66.5034C123.243 66.7021 129.928 69.3843 129.928 69.3843C129.928 69.3843 139.306 72.3315 146.389 72.2652C153.206 72.199 163.881 68.9207 167.107 67.563C167.307 67.4637 167.539 67.4306 167.772 67.4306C168.637 67.4637 170.832 67.5962 171.164 67.8942C171.297 68.0266 169.734 67.9273 168.936 68.0598C168.903 68.0929 149.648 81.9677 121.082 67.1657Z" fill="#BF3B22"/>
<path d="M186.495 55.3432C184.001 58.3235 181.873 58.7871 180.908 58.8202C180.709 58.8202 180.576 58.5884 180.709 58.4228C181.806 57.0983 183.968 53.6875 184.666 52.5948C184.766 52.4292 184.666 52.2305 184.466 52.2305C175.321 51.3695 176.219 58.2904 176.452 59.5487C176.485 59.6812 176.419 59.7805 176.286 59.8136L173.027 61.0057C172.794 61.072 172.594 60.8402 172.727 60.6415L173.126 60.0785C173.293 59.8136 173.326 59.5156 173.226 59.2176C173.126 58.9196 172.86 58.7209 172.561 58.6878L169.801 58.2242C169.734 58.2242 169.668 58.1579 169.635 58.0917C169.568 57.9261 169.468 57.7937 169.402 57.6281C169.369 57.5619 169.369 57.4956 169.402 57.4294L170.566 54.7803C170.699 54.4823 170.666 54.1842 170.499 53.9193C170.333 53.6544 170.067 53.522 169.768 53.522L166.941 53.6213C166.874 53.6213 166.775 53.5882 166.741 53.522C166.642 53.3895 166.542 53.257 166.442 53.1246C166.409 53.0584 166.376 52.9921 166.409 52.9259L167.074 50.0781C167.14 49.7801 167.074 49.4489 166.841 49.2502C166.642 49.0184 166.342 48.9522 166.043 49.0184L163.316 49.6807C163.25 49.7138 163.15 49.6807 163.083 49.6145C162.95 49.5152 162.817 49.3827 162.718 49.2834C162.651 49.2502 162.618 49.1509 162.618 49.0847L162.718 46.1706C162.718 45.8726 162.584 45.5746 162.352 45.409C162.119 45.2434 161.786 45.2103 161.52 45.3428L158.96 46.5349C158.893 46.568 158.793 46.568 158.727 46.5349C158.594 46.4687 158.428 46.3693 158.295 46.3031C158.228 46.27 158.195 46.2037 158.162 46.1375L157.729 43.2566C157.696 42.9586 157.496 42.6936 157.197 42.5612C156.931 42.4287 156.599 42.495 156.366 42.6605L154.071 44.3494C154.005 44.3825 153.938 44.4156 153.838 44.3825C153.672 44.3162 153.539 44.2831 153.373 44.2169C153.306 44.1838 153.24 44.1507 153.206 44.0513L152.242 41.3029C152.142 41.0048 151.91 40.8061 151.61 40.7399C151.311 40.6737 151.012 40.773 150.812 41.0048L148.883 43.1241C148.817 43.1904 148.75 43.2235 148.684 43.1904C148.517 43.1572 148.351 43.1573 148.218 43.1241C148.152 43.1241 148.085 43.0579 148.019 42.9917L146.555 40.5081C146.389 40.2432 146.123 40.0776 145.824 40.0776C145.524 40.0776 145.258 40.2432 145.092 40.5081L143.596 42.9917C143.562 43.0579 143.496 43.091 143.396 43.1241C143.23 43.1241 143.064 43.1572 142.931 43.1572C142.864 43.1572 142.764 43.1241 142.731 43.091L140.835 40.9386C140.636 40.7068 140.337 40.6075 140.037 40.6737C139.738 40.7399 139.505 40.9386 139.405 41.2366L138.408 43.952C138.375 44.0182 138.308 44.0844 138.242 44.1176C138.075 44.1507 137.942 44.2169 137.776 44.25C137.709 44.2831 137.61 44.25 137.543 44.2169L135.315 42.4287C135.082 42.2301 134.75 42.1969 134.484 42.3294C134.218 42.4619 134.018 42.6937 133.952 43.0248L133.486 45.9057C133.486 45.9719 133.42 46.0382 133.353 46.0713C133.22 46.1375 133.054 46.2369 132.921 46.3031C132.854 46.3362 132.754 46.3362 132.688 46.3031L130.127 45.0779C129.861 44.9454 129.529 44.9785 129.296 45.1441C129.063 45.3097 128.897 45.6077 128.897 45.9057L128.997 48.8198C128.997 48.886 128.963 48.9522 128.897 49.0184C128.764 49.1178 128.631 49.2171 128.531 49.3496C128.464 49.4158 128.398 49.4158 128.298 49.4158L125.571 48.7204C125.272 48.6542 124.973 48.7535 124.773 48.9522C124.574 49.184 124.474 49.482 124.54 49.7801L125.172 52.6279C125.172 52.6941 125.172 52.7603 125.139 52.8266C125.039 52.959 124.939 53.0915 124.84 53.2239C124.806 53.2902 124.707 53.3233 124.64 53.3233L121.847 53.2239C121.547 53.2239 121.281 53.3564 121.115 53.6213C120.949 53.8862 120.916 54.2174 121.049 54.4823L122.212 57.1645C122.246 57.2307 122.246 57.297 122.212 57.3632C122.146 57.5288 122.046 57.6612 121.98 57.8268C121.946 57.893 121.88 57.9592 121.813 57.9592L119.053 58.4228C118.754 58.456 118.521 58.6878 118.388 58.9527C118.288 59.2507 118.322 59.5487 118.488 59.8136L119.419 61.1713C119.153 61.4031 119.219 61.3369 118.953 61.6018C117.856 60.7077 116.825 59.615 116.326 58.8533C116.26 58.754 116.26 58.6546 116.326 58.5884C117.091 57.595 121.448 51.204 112.469 48.1575C112.336 48.1244 112.169 48.1906 112.136 48.3562C111.704 50.9059 112.203 54.118 112.435 55.3763C112.469 55.6081 112.236 55.7406 112.036 55.6081C111.205 54.979 109.542 53.257 108.977 49.4489C108.944 49.2502 108.711 49.1509 108.578 49.2834C107.181 50.5417 102.492 55.575 112.003 60.1779C112.036 60.1779 112.036 60.211 112.07 60.211C112.302 60.4428 113.998 62.1647 117.224 65.0788C117.324 65.1781 117.324 65.3437 117.224 65.443L115.229 67.5292C115.229 67.5292 114.497 68.0922 115.561 69.4829C116.293 70.4101 123.077 76.6687 125.97 79.3509C126.17 79.5496 126.502 79.2847 126.336 79.0529C124.441 75.9733 120.35 69.2843 120.749 68.9862C120.749 68.9862 120.949 68.1253 121.082 67.6617C121.115 67.4961 121.281 67.4299 121.448 67.4961C124.141 68.92 147.753 80.7417 168.836 68.3571C168.87 68.3571 168.903 68.324 168.903 68.324C170.898 67.9928 172.362 67.8935 172.894 67.8935C173.06 67.8935 173.16 68.0259 173.16 68.1584C172.993 69.4829 170.799 75.2448 169.601 78.2913C169.502 78.5562 169.867 78.7549 170.034 78.5231C172.129 75.5759 176.286 69.6816 176.785 68.7213C177.583 67.2643 176.785 66.8669 176.785 66.8669L173.991 64.8139C173.825 64.6814 173.858 64.4496 174.058 64.3834L178.78 62.7277C178.846 62.6946 178.88 62.6946 178.946 62.7277C179.478 62.9264 182.504 63.986 185.497 61.7011C188.158 59.6481 187.326 56.5022 186.894 55.4095C186.861 55.2439 186.628 55.1777 186.495 55.3432Z" stroke="#1E1E1C" stroke-width="0.505006" stroke-miterlimit="10"/>
<path d="M143.197 67.9272L149.282 68.159C149.282 68.1259 145.192 73.8878 143.197 67.9272Z" fill="#020203"/>
<path d="M150.213 65.1785C151.701 65.1785 152.907 63.7404 152.907 61.9665C152.907 60.1925 151.701 58.7544 150.213 58.7544C148.726 58.7544 147.52 60.1925 147.52 61.9665C147.52 63.7404 148.726 65.1785 150.213 65.1785Z" fill="#1E1E1C"/>
<path d="M148.917 62.4635C149.449 62.4635 149.881 61.9446 149.881 61.3045C149.881 60.6644 149.449 60.1455 148.917 60.1455C148.384 60.1455 147.952 60.6644 147.952 61.3045C147.952 61.9446 148.384 62.4635 148.917 62.4635Z" fill="white"/>
<path d="M141.501 65.1785C142.988 65.1785 144.194 63.7404 144.194 61.9665C144.194 60.1925 142.988 58.7544 141.501 58.7544C140.013 58.7544 138.807 60.1925 138.807 61.9665C138.807 63.7404 140.013 65.1785 141.501 65.1785Z" fill="#1E1E1C"/>
<path d="M140.071 62.4635C140.603 62.4635 141.035 61.9446 141.035 61.3045C141.035 60.6644 140.603 60.1455 140.071 60.1455C139.538 60.1455 139.106 60.6644 139.106 61.3045C139.106 61.9446 139.538 62.4635 140.071 62.4635Z" fill="white"/>
<path d="M189.422 78.8545L183.901 54.1514C183.469 54.8468 182.937 55.7077 182.471 56.4031L187.559 79.2519C187.659 79.6823 188.058 79.9804 188.49 79.9804C188.557 79.9804 188.623 79.9804 188.69 79.9472C189.189 79.881 189.521 79.3843 189.422 78.8545Z" fill="#4E3814"/>
<path d="M184.666 52.9268L183.901 54.0858L183.934 54.152C184.333 53.4566 184.666 52.9268 184.666 52.9268Z" fill="#4E3814"/>
<path d="M181.507 57.6955C181.706 57.5299 182.072 57.0332 182.471 56.4371L182.438 56.3047L181.507 57.6955Z" fill="#4E3814"/>
<path d="M183.868 54.0854L182.405 56.271L182.438 56.4034C182.903 55.708 183.436 54.8471 183.868 54.1517V54.0854Z" fill="#4E3814"/>
<path d="M193.147 88.0394L194.064 97.0999C194.192 98.3628 194.062 99.4853 193.674 100.467C193.285 101.442 192.634 102.232 191.72 102.837C190.806 103.435 189.621 103.807 188.167 103.953C186.085 104.162 184.442 103.789 183.239 102.836C182.035 101.882 181.335 100.434 181.138 98.491L180.211 89.3379L184.316 88.9258L185.211 97.7598C185.318 98.8237 185.596 99.5758 186.045 100.016C186.493 100.456 187.107 100.638 187.886 100.559C188.444 100.503 188.889 100.355 189.22 100.113C189.55 99.8654 189.771 99.5069 189.884 99.038C190.003 98.5683 190.027 97.9766 189.955 97.2627L189.062 88.4494L193.147 88.0394Z" fill="#0B0B0B"/>
<path d="M209.912 101.562L205.301 102.025L201.73 96.5695L200.593 97.4117L201.103 102.446L196.998 102.858L195.474 87.8058L199.579 87.3937L200.241 93.9316C200.38 93.5849 200.543 93.2357 200.73 92.8841C200.924 92.5318 201.113 92.1973 201.297 91.8807L204.004 86.9495L208.471 86.5011L204.387 93.7234L209.912 101.562Z" fill="#0B0B0B"/>
</svg>
