<svg height="226" viewBox="0 0 226 226" width="226" xmlns="http://www.w3.org/2000/svg" xmlns:xlink="http://www.w3.org/1999/xlink"><linearGradient id="a" x1="100%" x2="0%" y1="50%" y2="50%"><stop offset="0" stop-color="#00349b"/><stop offset=".171507709" stop-color="#022f88"/><stop offset=".503747889" stop-color="#0036a2"/><stop offset=".820519912" stop-color="#0c45b6"/><stop offset="1" stop-color="#003296"/></linearGradient><g fill="none" fill-rule="evenodd"><path d="m2.79243593 41.8319874c11.16456187 4.8178908 26.56708327 7.2268361 46.20756407 7.2268361 32 0 96.5-19.0588235 129.5-19.0588235 21.190173 0 36.659318 2.4816176 46.407433 7.4448529.670412.3413234 1.092567 1.0299865 1.092567 1.782285v141.0871551c.000017 1.104579-.895421 2.000017-2 2.000017-.274163 0-.545399-.056367-.796861-.165601-11.051903-4.800894-27.452949-7.201341-49.203139-7.201341-35.5 0-94 17.052632-123 17.052632-18.1071779 0-46.86256621-6.55509-48.18128311-7.039155-1.31871689-.484065-2.81871689-1.487161-2.81871689-3.493353 0-1.322282 0-47.255343 0-137.7991823-.00000854-1.1045742.89542578-2.0000085 2-2.0000085.27253894 0 .54220234.0557019.79243593.1636862z" fill="url(#a)"/><g fill="#fc0"><path d="m64.5 122.9-4.9961746 3.476644 1.7625824-5.825986-4.8503882-3.677302 6.0855105-.124014 1.9984699-5.749342 1.9984699 5.749342 6.0855105.124014-4.8503882 3.677302 1.7625824 5.825986z"/><path d="m159.5 107.9-4.996175 3.476644 1.762583-5.825986-4.850388-3.677302 6.08551-.124014 1.99847-5.749342 1.99847 5.749342 6.08551.124014-4.850388 3.677302 1.762583 5.825986z"/><path d="m71.5 95.9-4.9961746 3.4766445 1.7625824-5.8259867-4.8503882-3.6773023 6.0855105-.1240133 1.9984699-5.7493422 1.9984699 5.7493422 6.0855105.1240133-4.8503882 3.6773023 1.7625824 5.8259867z"/><path d="m111.5 63.9-4.996175 3.4766445 1.762583-5.8259867-4.850388-3.6773023 6.08551-.1240133 1.99847-5.7493422 1.99847 5.7493422 6.08551.1240133-4.850388 3.6773023 1.762583 5.8259867z"/><path d="m135 67.0401526-4.944272 3.9598474 1.744272-6.0506245-4.8-3.29126 6.022291-.6641576 1.977709-5.9939579 1.977709 5.6401526 6.022291-.4132098-4.8 4.1499636 1.744272 5.7385802z"/><path d="m152 83.0401526-4.944272 3.9598474 1.744272-6.0506245-4.8-3.29126 6.022291-.6641576 1.977709-5.9939579 1.977709 5.6401526 6.022291-.4132098-4.8 4.1499636 1.744272 5.7385802z"/><path d="m151 135.040153-4.944272 3.959847 1.744272-6.050625-4.8-3.291259 6.022291-.664158 1.977709-5.993958 1.977709 5.640153 6.022291-.41321-4.8 4.149963 1.744272 5.738581z"/><path d="m135 156.040153-4.944272 3.959847 1.744272-6.050625-4.8-3.291259 6.022291-.664158 1.977709-5.993958 1.977709 5.640153 6.022291-.41321-4.8 4.149963 1.744272 5.738581z"/><path d="m111.5 167.9-4.996175 3.476644 1.762583-5.825986-4.850388-3.677302 6.08551-.124014 1.99847-5.749342 1.99847 5.749342 6.08551.124014-4.850388 3.677302 1.762583 5.825986z"/><path d="m71.5 147.9-4.9961746 3.476644 1.7625824-5.825986-4.8503882-3.677302 6.0855105-.124014 1.9984699-5.749342 1.9984699 5.749342 6.0855105.124014-4.8503882 3.677302 1.7625824 5.825986z"/><path d="m88 166.040153-4.9442719 3.959847 1.7442719-6.050625-4.8-3.291259 6.0222912-.664158 1.9777088-5.993958 1.9777088 5.640153 6.0222912-.41321-4.8 4.149963 1.7442719 5.738581z"/><path d="m88 75.0401526-4.9442719 3.9598474 1.7442719-6.0506245-4.8-3.29126 6.0222912-.6641576 1.9777088-5.9939579 1.9777088 5.6401526 6.0222912-.4132098-4.8 4.1499636 1.7442719 5.7385802z"/></g></g></svg>