<?xml version="1.0" encoding="UTF-8"?>
<svg width="35px" height="34px" viewBox="0 0 35 34" version="1.1" xmlns="http://www.w3.org/2000/svg" xmlns:xlink="http://www.w3.org/1999/xlink">
    <!-- Generator: Sketch 53.2 (72643) - https://sketchapp.com -->
    <title>Group 8</title>
    <desc>Created with Sketch.</desc>
    <g id="Symbols" stroke="none" stroke-width="1" fill="none" fill-rule="evenodd">
        <g id="Group-8" fill="#FFFFFF">
            <path d="M19,20 L19,34 C23.7693023,33.551294 28.132093,31.1061712 31,27.2740544 L19,20 Z" id="Path"></path>
            <path d="M16,14 L16,0 C11.2203861,0.450691244 6.85312741,2.90599078 4,6.74654378 L16,14 Z" id="Path"></path>
            <path d="M33.2016606,24.5114105 C34.3801235,22.1864724 34.9961382,19.6278251 34.9999643,17.0327193 C35.0181387,8.24338741 28.087017,0.803959307 19.1308906,0 L19.1308906,16.1633214 L33.2016606,24.5114105 Z M1.76004193,9.60076987 C0.604536143,11.9088809 0.00191308906,14.4441573 0,17.0140225 C0.00573926718,25.7799835 6.91964313,33.188562 15.8499429,34 L15.8499429,17.976904 L1.76004193,9.60076987 Z" id="Shape" fill-rule="nonzero"></path>
        </g>
    </g>
</svg>