<?xml version="1.0" encoding="UTF-8"?>
<svg width="199px" height="34px" viewBox="0 0 199 34" version="1.1" xmlns="http://www.w3.org/2000/svg" xmlns:xlink="http://www.w3.org/1999/xlink">
    <!-- Generator: Sketch 53.2 (72643) - https://sketchapp.com -->
    <title>Logo Negative</title>
    <desc>Created with Sketch.</desc>
    <g id="Logo-Negative" stroke="none" stroke-width="1" fill="none" fill-rule="evenodd">
        <path d="M134.369915,1 L137.644715,1 L137.644715,21.7075225 C137.634273,22.1359861 137.682683,22.5644496 137.787097,22.9808307 C137.859238,23.2791751 138.01396,23.5524252 138.233229,23.7708394 C138.474331,23.9929712 138.767639,24.1528318 139.087525,24.2355504 C139.507079,24.3545164 139.936125,24.4409527 140.368968,24.4957886 L139.922836,27.1167586 C137.910496,27.0795818 136.496162,26.6520476 135.651359,25.8620389 C134.723973,24.8656985 134.259806,23.5347662 134.369915,22.190822 L134.369915,1 Z M165.28592,1 L168.484782,1 L168.484782,10.0711589 C169.05621,9.75329654 169.660862,9.49770549 170.288294,9.30903282 C171.191949,9.020912 172.138319,8.87963985 173.088485,8.89079291 C174.289245,8.87034563 175.480512,9.10084229 176.581604,9.56927098 C177.572587,9.992158 178.455359,10.6278827 179.163475,11.428115 C179.883931,12.2813244 180.423086,13.2674412 180.748668,14.3279117 C181.128355,15.5315132 181.313452,16.7862329 181.299214,18.0455998 C181.314401,19.3449317 181.089437,20.6358989 180.634762,21.85623 C180.244633,22.9334301 179.622896,23.9158292 178.812265,24.7374383 C178.00543,25.5330235 177.034381,26.1510892 175.964613,26.5498112 C174.749615,26.987569 173.462477,27.2022655 172.167744,27.1818182 C170.817008,27.1957595 169.467221,27.0963114 168.133571,26.8844031 C166.985018,26.6799303 166.035801,26.4847517 165.28592,26.2802788 L165.28592,1 Z M71.8165022,2.02236422 C72.3679974,2.01307 72.9024066,2.21289573 73.3067732,2.58001743 C73.7310733,2.96386872 73.9607838,3.51222771 73.9332565,4.07638687 C73.9569869,4.64147546 73.7320225,5.18983445 73.3162653,5.58205054 C72.4553253,6.28934069 71.1871712,6.28934069 70.3262312,5.58205054 C69.9114233,5.18611676 69.6931033,4.63311066 69.7282243,4.06709265 C69.6883572,3.50851002 69.9085756,2.96200988 70.3262312,2.58001743 C70.7296485,2.21196631 71.265007,2.01214058 71.8165022,2.02236422 Z M58.669844,8.85361603 L58.7173048,8.83502759 C59.2308313,8.83038048 59.7443579,8.85175719 60.2550367,8.90008713 C60.7296453,8.95585245 61.2327304,9.03950044 61.6788625,9.1138542 C62.1249946,9.18820796 62.5236658,9.27185594 62.865384,9.36479814 L62.9792901,9.42985768 L62.9792901,12.3110659 C62.4534237,12.0703456 61.9028778,11.8835318 61.3371443,11.7534127 C60.4610168,11.5498693 59.5611589,11.4559977 58.6603518,11.4745861 C57.8326344,11.45228 57.0115615,11.6279407 56.2683245,11.9857682 C55.6257044,12.2748185 55.2222871,12.9198374 55.2526621,13.6122568 C55.2469668,13.9663665 55.3276502,14.3176881 55.4899664,14.634621 C55.6532317,14.9450479 55.8867392,15.2155097 56.1734028,15.4246297 C56.541699,15.6867267 56.939421,15.9051409 57.3599243,16.0752251 C57.8345329,16.2796979 58.394571,16.4841708 59.0495309,16.7072321 C59.9133185,17.0232356 60.6632001,17.339239 61.3466365,17.6366541 C62.0063424,17.9006099 62.6233336,18.257508 63.1786257,18.6961952 C63.6503866,19.0958466 64.023429,19.5940168 64.2702254,20.1553877 C64.5445492,20.8189951 64.6736428,21.5309323 64.6499123,22.2465873 C64.7410372,23.7271565 64.0158352,25.1473134 62.7514779,25.9642753 C61.1321134,26.879756 59.2725969,27.3063607 57.4073851,27.1911124 C56.130688,27.232007 54.8539909,27.1074644 53.6105163,26.8193436 C53.1169234,26.6799303 52.7277443,26.5591054 52.4050105,26.4475748 L52.4050105,23.5663665 L54.1325858,24.1426082 C55.195709,24.4428115 56.3015471,24.5785071 57.4073851,24.5422597 C58.4220983,24.6008132 59.4358623,24.4251525 60.3689428,24.0310775 C60.9849847,23.7355213 61.3608747,23.102585 61.31816,22.4324717 C61.3418904,21.7093814 60.9830863,21.0234679 60.3689428,20.6200988 C59.3874522,19.9992448 58.3366687,19.490851 57.236526,19.1051409 C56.5246131,18.8356085 55.8601611,18.5474877 55.2146934,18.2686611 C54.6176358,18.0205054 54.0585468,17.6924194 53.5535633,17.2927679 C52.5103736,16.4813825 51.9323003,15.2220157 52.0063393,13.918966 C51.9398941,12.4709265 52.6043461,11.0795818 53.7813754,10.201278 C55.2108965,9.23003195 56.9327765,8.7550973 58.669844,8.85361603 Z M151.408364,8.85361603 L151.408364,8.88149869 C152.536034,8.85268661 153.659907,9.01626489 154.730624,9.36479814 C156.384161,9.88341563 157.662756,11.1846064 158.128822,12.822248 C158.371822,13.7098461 158.489524,14.6262562 158.480032,15.5454545 L158.480032,26.5033401 L157.293511,26.6892245 C156.790426,26.7728725 156.220895,26.837932 155.58492,26.9029916 C154.948944,26.9680511 154.284492,26.9959338 153.544103,27.088876 C152.803713,27.1818182 152.082308,27.1818182 151.360903,27.1818182 C150.403143,27.1892536 149.447281,27.0860877 148.513252,26.8751089 C147.706417,26.7106012 146.93945,26.3945977 146.254115,25.9456869 C145.616241,25.4986349 145.109359,24.8963694 144.782828,24.1983735 C144.412633,23.3897764 144.234181,22.5096137 144.260759,21.6238745 C144.23513,20.7548649 144.448704,19.8942202 144.87775,19.1330235 C145.276421,18.4406041 145.84785,17.8587859 146.53888,17.4414755 C147.29066,16.9953529 148.116479,16.6812082 148.978368,16.5120534 C149.951316,16.3047923 150.944197,16.2016265 151.939926,16.2053442 C152.26266,16.2053442 152.604378,16.1681673 152.955588,16.2053442 C153.306799,16.2425211 153.639025,16.2889922 153.952266,16.3447575 L154.759101,16.4841708 C154.996405,16.5213477 155.167264,16.5957014 155.262186,16.5957014 L155.262186,15.7127505 C155.262186,15.1969213 155.205233,14.6829509 155.091327,14.1792042 C154.980268,13.6903282 154.762898,13.2311937 154.455351,12.8315423 C154.12977,12.4253848 153.70547,12.1056637 153.221369,11.9021202 C152.569257,11.637235 151.866836,11.5108336 151.161568,11.5303514 C150.206655,11.5229161 149.253641,11.6009875 148.313916,11.7627069 C147.706417,11.8547197 147.109359,12.000639 146.529388,12.1995353 L146.529388,9.50421144 C147.078985,9.33226837 147.640921,9.19936102 148.209502,9.10455998 C149.26693,8.9326169 150.336698,8.8480395 151.408364,8.85361603 Z M192.984077,8.85361603 L193.060015,8.86291025 C193.573541,8.85826314 194.087068,8.87963985 194.597747,8.92796979 C195.100832,8.98373511 195.603917,9.0673831 196.050049,9.14173686 C196.496181,9.21609062 196.894852,9.2997386 197.23657,9.3926808 L197.378953,9.4391519 L197.378953,12.2738891 C196.86068,12.0452512 196.319627,11.8677316 195.765284,11.7441185 C194.878715,11.5405751 193.970314,11.4467035 193.060015,11.4652919 C192.237993,11.4420563 191.423564,11.6177171 190.686972,11.976474 C190.041504,12.2645948 189.636188,12.9086843 189.661817,13.6029625 C189.657071,13.9570723 189.738704,14.3074644 189.899122,14.6253267 C190.064285,14.9376125 190.30159,15.2080744 190.59205,15.4153355 C190.959397,15.6783619 191.358068,15.8967761 191.778572,16.0659309 C192.243688,16.2704037 192.803726,16.4748766 193.458686,16.6979378 C194.331966,17.0139413 195.09134,17.3299448 195.765284,17.6273599 C196.389869,17.9015394 196.971739,18.2612257 197.492859,18.6961952 C197.972214,19.0949172 198.355698,19.5930874 198.612935,20.1553877 C198.885361,20.8189951 199.014454,21.5309323 198.992622,22.2465873 C199.081849,23.7271565 198.356647,25.146384 197.094188,25.9642753 C195.474823,26.879756 193.615307,27.3063607 191.750095,27.1911124 C190.473398,27.232007 189.196701,27.1074644 187.953226,26.8193436 C187.450141,26.6799303 187.041978,26.5498112 186.719244,26.4475748 L186.719244,23.5384839 C187.098931,23.6778972 187.668461,23.88237 188.475296,24.1426082 C189.538419,24.4428115 190.644257,24.5775777 191.750095,24.5422597 C192.764808,24.5998838 193.778572,24.4251525 194.711653,24.0310775 C195.325796,23.7336625 195.701686,23.102585 195.66087,22.4324717 C195.680803,21.7103108 195.322949,21.0253267 194.711653,20.6200988 C193.737756,19.9983154 192.692668,19.4899216 191.59822,19.1051409 C190.8958,18.8356085 190.221855,18.5474877 189.576388,18.2686611 C188.973635,18.019576 188.408851,17.69149 187.896273,17.2927679 C186.877763,16.4637235 186.308233,15.2155097 186.358541,13.918966 C186.301588,12.4662794 186.976482,11.0758641 188.162054,10.201278 C189.570692,9.23932617 191.268842,8.76439152 192.984077,8.85361603 Z M86.6717513,8.91867557 L86.652767,8.91867557 L87.8108119,8.91867557 C88.8112869,8.88893407 89.8089141,9.03950044 90.7533853,9.36479814 C91.5288957,9.65942492 92.2227735,10.1315713 92.7752179,10.7403427 C92.9365848,10.6288121 93.1833813,10.4801046 93.5345916,10.2756317 C93.951298,10.0469939 94.3860395,9.85088586 94.8350192,9.69009585 C95.3922097,9.48376416 95.9636384,9.31275051 96.5436102,9.17891374 C97.2128083,9.02927679 97.8981431,8.9577113 98.5844271,8.96514667 C99.7586088,8.92425211 100.928994,9.12314842 102.020593,9.55068254 C102.8616,9.9075806 103.585853,10.4866105 104.108871,11.2236422 C104.633788,11.9774034 104.986897,12.8334011 105.143518,13.7330816 C105.327666,14.7926227 105.416893,15.8651757 105.409299,16.9395876 L105.409299,26.7449898 L102.153484,26.7449898 L102.153484,17.590183 C102.159179,16.7044438 102.102226,15.819634 101.982625,14.9413302 C101.907637,14.2898054 101.704504,13.6587279 101.384618,13.0824862 C101.1027,12.6335754 100.688842,12.2776067 100.198096,12.060122 C99.5773083,11.8045309 98.9062118,11.6846355 98.2332168,11.7069416 C97.3124761,11.6781295 96.3945831,11.8203311 95.5279478,12.1251815 C95.000183,12.3073482 94.5037424,12.5675864 94.0566611,12.8966018 C94.2512506,13.5035144 94.3936332,14.1252977 94.4838088,14.7554458 C94.5796798,15.4794656 94.6271406,16.2090619 94.6261914,16.9395876 L94.6261914,26.7449898 L91.3703764,26.7449898 L91.3703764,17.590183 C91.3770209,16.7035144 91.3134234,15.8177752 91.180533,14.9413302 C91.0941542,14.2898054 90.8853264,13.6587279 90.5635418,13.0824862 C90.284472,12.6233517 89.8715625,12.2580889 89.3770203,12.0322393 C88.7780643,11.7812954 88.1297489,11.6613999 87.4785859,11.679059 C87.1463599,11.679059 86.8141339,11.6604705 86.434447,11.7255301 C86.0547601,11.7905896 85.7035498,11.7905896 85.3618316,11.7905896 L84.4126144,11.9021202 C84.1278492,11.9392971 83.9380058,12.0136509 83.8430841,12.0136509 L83.8430841,26.7728725 L80.6157456,26.7728725 L80.6157456,9.77374383 C81.3656272,9.59715365 82.3528131,9.42056346 83.5867954,9.21609062 C84.6072039,9.04879466 85.6380538,8.9493465 86.6717513,8.91867557 Z M118.119317,8.91867557 L118.071856,8.89079291 L119.191932,8.89079291 C120.486665,8.86569852 121.774752,9.07946558 122.988801,9.52279988 C125.214716,10.3007261 126.962224,12.0294511 127.734887,14.2163811 C128.181969,15.438571 128.400289,16.7295382 128.380355,18.0270113 C128.405035,19.2854487 128.229429,20.539239 127.858285,21.7446994 C127.523212,22.8014522 126.974564,23.781063 126.244616,24.6259076 C125.543145,25.4252106 124.667017,26.0609352 123.68173,26.4847517 C122.573044,26.9513215 121.376081,27.1827476 120.169626,27.1632297 C119.226104,27.1808888 118.286379,27.0451931 117.38842,26.7635783 C116.760038,26.575835 116.155387,26.320244 115.584907,26.0014522 L115.584907,33 L112.310108,33 L112.310108,9.82021493 C113.078974,9.64362475 114.047175,9.42985768 115.20522,9.21609062 C116.167726,9.04786523 117.141623,8.94841708 118.119317,8.91867557 Z M70.2313094,9.29044438 L73.5061088,9.2997386 L73.5061088,26.7635783 L70.2313094,26.7635783 L70.2313094,9.29044438 Z M172.746767,11.6418821 L172.765751,11.6232936 C171.928542,11.6139994 171.097027,11.7627069 170.316771,12.060122 C169.697881,12.286901 169.116011,12.6001162 168.589195,12.989544 L168.589195,24.049666 C169.051464,24.1658437 169.520377,24.2532094 169.994037,24.3099042 C170.724934,24.3926227 171.460577,24.4297996 172.196221,24.4214348 C173.784261,24.4874238 175.32579,23.8767935 176.420237,22.7484752 C177.541263,21.433343 178.10225,19.7455126 177.986446,18.0363055 C177.996887,17.1830961 177.907661,16.3317456 177.720665,15.4989834 C177.546009,14.771246 177.222326,14.0853326 176.771448,13.4821377 C176.348097,12.9068254 175.788059,12.4402556 175.138794,12.1251815 C174.389862,11.7850131 173.571636,11.619576 172.746767,11.6418821 Z M119.18244,11.7069416 L119.134979,11.7162358 C118.365164,11.7032239 117.5944,11.7338949 116.828382,11.809178 C116.389843,11.8547197 115.955102,11.9318617 115.527954,12.0415335 L115.527954,23.0180076 C116.740104,23.8870171 118.201899,24.3582341 119.70451,24.3656695 C120.533176,24.3879756 121.356148,24.2188208 122.106029,23.8730758 C122.756243,23.5635783 123.31723,23.1007261 123.738683,22.5254139 C124.188612,21.9212896 124.511346,21.2363055 124.6879,20.5085681 C124.880591,19.6860296 124.976462,18.8439733 124.972665,17.9991287 C125.079927,16.3112983 124.518939,14.645774 123.406457,13.3520186 C122.304416,12.2367122 120.765735,11.637235 119.18244,11.7069416 Z M152.186722,18.6590183 C151.663704,18.6553006 151.140685,18.680395 150.620514,18.7333721 C150.094648,18.7928551 149.58207,18.9341272 149.101766,19.151612 C148.66038,19.34772 148.270252,19.6395585 147.962706,20.0066802 C147.644718,20.4304967 147.487148,20.9500436 147.516574,21.475167 C147.416906,22.3980831 147.8488,23.3014813 148.63665,23.8173105 C149.578273,24.2959628 150.633803,24.5199535 151.693129,24.4679059 L153.733946,24.4679059 C154.235133,24.4446703 154.733472,24.3823991 155.224217,24.2820215 L155.224217,19.0772582 C154.861616,18.924833 154.477183,18.8244554 154.085157,18.7798432 C153.456775,18.6924775 152.821749,18.6525123 152.186722,18.6590183 Z M19,20 L31,27.2740544 C28.132093,31.1061712 23.7693023,33.551294 19,34 L19,20 Z M33.2016606,24.5114105 L19.1308906,16.1633214 L19.1308906,0 C28.087017,0.803959307 35.0181387,8.24338741 34.9999643,17.0327193 C34.9961382,19.6278251 34.3801235,22.1864724 33.2016606,24.5114105 Z M1.76004193,9.60076987 L15.8499429,17.976904 L15.8499429,34 C6.91964313,33.188562 0.00573926718,25.7799835 0,17.0140225 C0.00191308906,14.4441573 0.604536143,11.9088809 1.76004193,9.60076987 Z M16,14 L4,6.74654378 C6.85312741,2.90599078 11.2203861,0.450691244 16,0 L16,14 Z" id="Combined-Shape" fill="#FFFFFF"></path>
        <path d="M33.2016606,24.5114105 C34.3801235,22.1864724 34.9961382,19.6278251 34.9999643,17.0327193 C35.0181387,8.24338741 28.087017,0.803959307 19.1308906,0 L19.1308906,16.1633214 L33.2016606,24.5114105 Z M1.76004193,9.60076987 C0.604536143,11.9088809 0.00191308906,14.4441573 0,17.0140225 C0.00573926718,25.7799835 6.91964313,33.188562 15.8499429,34 L15.8499429,17.976904 L1.76004193,9.60076987 Z" id="Shape" fill="#FFFFFF" fill-rule="nonzero"></path>
    </g>
</svg>