<?xml version="1.0" encoding="UTF-8"?>
<svg width="1440px" height="500px" viewBox="0 0 1440 500" version="1.1" xmlns="http://www.w3.org/2000/svg" xmlns:xlink="http://www.w3.org/1999/xlink">
    <title>Group 7</title>
    <g id="Blog-posts" stroke="none" stroke-width="1" fill="none" fill-rule="evenodd">
        <g id="Effective-infrastructure-for-efficient-development-workflows-Copy" transform="translate(0.000000, -1077.000000)">
            <g id="Group-7" transform="translate(-82.972804, 1077.000000)">
                <rect id="Rectangle" fill="#FFFFFF" x="82.9728039" y="1" width="1440" height="499"></rect>
                <rect id="Rectangle" fill="#F4F6F8" x="82.9728039" y="42" width="1440" height="458"></rect>
                <path d="M111.375543,12.6421378 C161.806434,-9.56830194 225.559708,3.2550698 279.646606,23.9285786 C347.739346,49.9581842 409.357555,87.234764 470.454081,124.898269 L474.978885,127.688703 C476.486894,128.618974 477.994676,129.549318 479.502318,130.479571 L484.024919,133.269892 C484.778646,133.734846 485.532361,134.199736 486.286074,134.664541 L490.808434,137.452204 C495.330959,140.238531 499.854251,143.02036 504.380729,145.793277 L508.908358,148.56306 C510.417982,149.485222 511.92805,150.40623 513.43865,151.325921 C588.96868,197.310468 668.810308,241.24198 757.445149,260.099505 C835.700668,276.739461 931.181979,272.379192 992.910836,228.136583 C1052.79789,185.154463 1148.90346,198.05982 1212.19545,241.570166 C1272.56941,283.094213 1303.86779,353.926036 1289.52534,416.631084 C1282.35324,447.981244 1265.75702,475.064652 1244.34629,500.001726 L-5.11743884e-13,500.00167 C44.1607669,441.29813 70.7001831,371.368272 44.3698233,303.886056 C34.952311,279.754709 19.1521881,257.253737 12.3696803,232.601837 C2.59752376,197.094729 12.4189703,160.860483 24.2470927,126.865931 C39.9935182,81.6783986 62.8437214,34.0735773 111.375543,12.6421378 Z" id="Combined-Shape" fill="#DDE9F6" fill-rule="nonzero"></path>
                <ellipse id="Oval" fill="#DDE9F6" cx="1436.90478" cy="137.785047" rx="135.931975" ry="136"></ellipse>
                <circle id="Oval" fill="#959595" fill-rule="nonzero" cx="497.472804" cy="90.5" r="9.5"></circle>
                <circle id="Oval" fill="#959595" fill-rule="nonzero" cx="526.83644" cy="90.5" r="9.5"></circle>
                <circle id="Oval" fill="#959595" fill-rule="nonzero" cx="555.33644" cy="90.5" r="9.5"></circle>
                <circle id="Oval" fill="#959595" fill-rule="nonzero" cx="583.83644" cy="90.5" r="9.5"></circle>
                <circle id="Oval" fill="#959595" fill-rule="nonzero" cx="614.063713" cy="90.5" r="9.5"></circle>
                <circle id="Oval" fill="#959595" fill-rule="nonzero" cx="642.563713" cy="90.5" r="9.5"></circle>
                <circle id="Oval" fill="#959595" fill-rule="nonzero" cx="671.063713" cy="90.5" r="9.5"></circle>
                <circle id="Oval" fill="#959595" fill-rule="nonzero" cx="699.063713" cy="90.5" r="9.5"></circle>
                <circle id="Oval" fill="#959595" fill-rule="nonzero" cx="728.063713" cy="90.5" r="9.5"></circle>
                <path d="M749.145449,104 L480.800159,104 C478.135382,103.996965 475.975935,101.90412 475.972804,99.3215309 L475.972804,80.6784691 C475.975931,78.0958782 478.13538,76.0030303 480.800159,76 L749.145449,76 C751.810225,76.0030349 753.969672,78.0958801 753.972804,80.6784691 L753.972804,99.3215309 C753.969668,101.904118 751.810223,103.99696 749.145449,104 L749.145449,104 Z M480.867759,78 C479.269643,78.0016908 477.972804,79.244158 477.972804,80.777334 L477.972804,99.222691 C477.972804,100.755864 479.269646,101.998326 480.867759,102 L749.077857,102 C750.675969,101.998326 751.972804,100.755862 751.972804,99.222691 L751.972804,80.7773173 C751.972804,79.2441426 750.675972,78.0016741 749.077857,78 L480.867759,78 Z" id="Shape" fill="#959595" fill-rule="nonzero"></path>
                <polygon id="Path" fill="#959595" fill-rule="nonzero" points="934.972804 495 841.972804 495 845.125443 453 931.820165 453"></polygon>
                <rect id="Rectangle" fill="#959595" fill-rule="nonzero" x="836.972804" y="490" width="104" height="10"></rect>
                <path d="M1066.47384,189 L709.471748,189 C704.225626,189 699.972804,193.230674 699.972804,198.449474 L699.972804,198.449474 L699.972804,415 L1075.9728,415 L1075.9728,198.449474 C1075.9728,195.94332 1074.97203,193.539811 1073.19064,191.76769 C1071.40924,189.99557 1068.99315,189 1066.47388,189 L1066.47384,189 Z" id="Path" fill="#3F3D56" fill-rule="nonzero"></path>
                <path d="M699.972804,415 L699.972804,450.526325 C699.972804,453.038901 700.973583,455.448569 702.754981,457.225228 C704.536379,459.001887 706.952472,460 709.471748,460 L1066.47384,460 C1071.71997,460 1075.9728,455.758497 1075.9728,450.526325 L1075.9728,450.526325 L1075.9728,415 L699.972804,415 Z" id="Path" fill="#959595" fill-rule="nonzero"></path>
                <rect id="Rectangle" fill="#E6E6E6" fill-rule="nonzero" x="719.972804" y="209" width="339" height="189"></rect>
                <circle id="Oval" fill="#3F3D56" fill-rule="nonzero" cx="889.472804" cy="437.5" r="9.5"></circle>
                <circle id="Oval" fill="#FFFFFF" fill-rule="nonzero" cx="729.972804" cy="215" r="2"></circle>
                <circle id="Oval" fill="#FFFFFF" fill-rule="nonzero" cx="736.972804" cy="215" r="2"></circle>
                <circle id="Oval" fill="#FFFFFF" fill-rule="nonzero" cx="743.972804" cy="215" r="2"></circle>
                <rect id="Rectangle" fill="#FFFFFF" fill-rule="nonzero" x="729.972804" y="221" width="319" height="159"></rect>
                <path d="M749.115674,246 C748.484733,246 747.972804,246.494411 747.972804,247.103762 L747.972804,302.896246 C747.972804,303.505594 748.484736,304 749.115674,304 L815.829933,304 C816.460872,304 816.972804,303.505594 816.972804,302.896246 L816.972804,247.103762 C816.972804,246.494411 816.460875,246 815.829933,246 L749.115674,246 Z" id="Path" fill="#E6E6E6" fill-rule="nonzero"></path>
                <path d="M855.102992,246 C854.479137,246 853.972804,246.495812 853.972804,247.107188 L853.972804,302.89282 C853.972804,303.504193 854.47914,304 855.102992,304 L920.843419,304 C921.466996,303.999247 921.972804,303.503924 921.972804,302.89282 L921.972804,247.107188 C921.972804,246.49608 921.466999,246.000753 920.843419,246 L855.102992,246 Z" id="Path" fill="#E6E6E6" fill-rule="nonzero"></path>
                <path d="M961.107405,244 C960.480945,244.000771 959.972804,244.508064 959.972804,245.133934 L959.972804,302.866074 C959.972804,303.491943 960.480946,303.999234 961.107405,304 L1027.8382,304 C1028.46466,303.999234 1028.9728,303.491943 1028.9728,302.866074 L1028.9728,245.133934 C1028.9728,244.508064 1028.46466,244.000771 1027.8382,244 L961.107405,244 Z" id="Path" fill="#E6E6E6" fill-rule="nonzero"></path>
                <path d="M751.315805,332 C750.021092,332.002583 748.972804,333.121114 748.972804,334.5 C748.972804,335.878886 750.021092,336.997417 751.315805,337 L813.629803,337 C814.924516,336.997417 815.972804,335.878886 815.972804,334.5 C815.972804,333.121114 814.924516,332.002583 813.629803,332 L751.315805,332 Z" id="Path" fill="#E6E6E6" fill-rule="nonzero"></path>
                <path d="M751.262839,343 C749.997394,343.002583 748.972804,344.121114 748.972804,345.5 C748.972804,346.878886 749.997394,347.997417 751.262839,348 L778.682769,348 C779.948214,347.997417 780.972804,346.878886 780.972804,345.5 C780.972804,344.121114 779.948214,343.002583 778.682769,343 L751.262839,343 Z" id="Path" fill="#4299F5" fill-rule="nonzero"></path>
                <path d="M858.315805,332 C857.021092,332.002583 855.972804,333.121114 855.972804,334.5 C855.972804,335.878886 857.021092,336.997417 858.315805,337 L920.629803,337 C921.924516,336.997417 922.972804,335.878886 922.972804,334.5 C922.972804,333.121114 921.924516,332.002583 920.629803,332 L858.315805,332 Z" id="Path" fill="#E6E6E6" fill-rule="nonzero"></path>
                <path d="M858.26281,343 C856.997381,343.002583 855.972804,344.121114 855.972804,345.5 C855.972804,346.878886 856.997381,347.997417 858.26281,348 L885.682798,348 C886.948227,347.997417 887.972804,346.878886 887.972804,345.5 C887.972804,344.121114 886.948227,343.002583 885.682798,343 L858.26281,343 Z" id="Path" fill="#4299F5" fill-rule="nonzero"></path>
                <path d="M963.315805,332 C962.021092,332.002583 960.972804,333.121114 960.972804,334.5 C960.972804,335.878886 962.021092,336.997417 963.315805,337 L1025.6298,337 C1026.92452,336.997417 1027.9728,335.878886 1027.9728,334.5 C1027.9728,333.121114 1026.92452,332.002583 1025.6298,332 L963.315805,332 Z" id="Path" fill="#E6E6E6" fill-rule="nonzero"></path>
                <path d="M751.315805,321 C750.021092,321.002583 748.972804,322.121114 748.972804,323.5 C748.972804,324.878886 750.021092,325.997417 751.315805,326 L813.629803,326 C814.924516,325.997417 815.972804,324.878886 815.972804,323.5 C815.972804,322.121114 814.924516,321.002583 813.629803,321 L751.315805,321 Z" id="Path" fill="#E6E6E6" fill-rule="nonzero"></path>
                <path d="M858.315805,321 C857.021092,321.002583 855.972804,322.121114 855.972804,323.5 C855.972804,324.878886 857.021092,325.997417 858.315805,326 L920.629803,326 C921.924516,325.997417 922.972804,324.878886 922.972804,323.5 C922.972804,322.121114 921.924516,321.002583 920.629803,321 L858.315805,321 Z" id="Path" fill="#E6E6E6" fill-rule="nonzero"></path>
                <path d="M963.315805,321 C962.021092,321.002583 960.972804,322.121114 960.972804,323.5 C960.972804,324.878886 962.021092,325.997417 963.315805,326 L1025.6298,326 C1026.92452,325.997417 1027.9728,324.878886 1027.9728,323.5 C1027.9728,322.121114 1026.92452,321.002583 1025.6298,321 L963.315805,321 Z" id="Path" fill="#E6E6E6" fill-rule="nonzero"></path>
                <path d="M962.262864,343 C960.997405,343.002583 959.972804,344.121114 959.972804,345.5 C959.972804,346.878886 960.997405,347.997417 962.262864,348 L989.682744,348 C990.948202,347.997417 991.972804,346.878886 991.972804,345.5 C991.972804,344.121114 990.948202,343.002583 989.682744,343 L962.262864,343 Z" id="Path" fill="#4299F5" fill-rule="nonzero"></path>
                <g id="Group-5" transform="translate(761.972804, 255.000000)" fill-rule="nonzero">
                    <circle id="Oval" fill="#3ACC6C" cx="20" cy="20" r="20"></circle>
                    <path d="M16.7691667,27.0967742 C16.7341613,27.0967742 16.6991061,27.0959338 16.6640008,27.0942531 C16.0371636,27.0644467 15.4548132,26.7660258 15.0697347,26.2772839 L12.0654169,22.4675124 C11.3370424,21.541714 11.5058864,20.209116 12.4428564,19.488578 L12.5509281,19.4055987 C13.4896734,18.6872518 14.8407966,18.8537709 15.5714554,19.7778634 C15.9140975,20.2124077 16.4319518,20.4778311 16.9894259,20.5046365 C17.5469001,20.5314419 18.0884757,20.3169598 18.4723494,19.9173491 L24.5726399,13.5661276 C24.9652385,13.1573739 25.5063995,12.919197 26.0770578,12.9040001 C26.6477162,12.8888031 27.2011197,13.0978311 27.6155098,13.4850942 L27.7150995,13.5781622 C28.5779714,14.3844833 28.6147414,15.7280428 27.7972279,16.5791001 L18.3311874,26.4338461 C17.9250141,26.8571608 17.3600865,27.0969184 16.7691667,27.0967742 L16.7691667,27.0967742 Z" id="Path" fill="#FFFFFF"></path>
                </g>
                <g id="Group-5" transform="translate(974.972804, 255.000000)" fill-rule="nonzero">
                    <circle id="Oval" fill="#3ACC6C" cx="20" cy="20" r="20"></circle>
                    <path d="M16.7691667,27.0967742 C16.7341613,27.0967742 16.6991061,27.0959338 16.6640008,27.0942531 C16.0371636,27.0644467 15.4548132,26.7660258 15.0697347,26.2772839 L12.0654169,22.4675124 C11.3370424,21.541714 11.5058864,20.209116 12.4428564,19.488578 L12.5509281,19.4055987 C13.4896734,18.6872518 14.8407966,18.8537709 15.5714554,19.7778634 C15.9140975,20.2124077 16.4319518,20.4778311 16.9894259,20.5046365 C17.5469001,20.5314419 18.0884757,20.3169598 18.4723494,19.9173491 L24.5726399,13.5661276 C24.9652385,13.1573739 25.5063995,12.919197 26.0770578,12.9040001 C26.6477162,12.8888031 27.2011197,13.0978311 27.6155098,13.4850942 L27.7150995,13.5781622 C28.5779714,14.3844833 28.6147414,15.7280428 27.7972279,16.5791001 L18.3311874,26.4338461 C17.9250141,26.8571608 17.3600865,27.0969184 16.7691667,27.0967742 L16.7691667,27.0967742 Z" id="Path" fill="#FFFFFF"></path>
                </g>
                <rect id="Rectangle" fill="#D8D8D8" x="475.972804" y="1" width="67" height="63" rx="2"></rect>
                <rect id="Rectangle" fill="#D8D8D8" x="676.972804" y="0" width="67" height="66" rx="2"></rect>
                <rect id="Rectangle" fill="#4299F5" x="850.972804" y="110" width="67" height="66" rx="2"></rect>
                <rect id="Rectangle" fill="#D8D8D8" transform="translate(799.540084, 54.790537) rotate(16.000000) translate(-799.540084, -54.790537) " x="766.040084" y="29.2905373" width="67" height="51" rx="2"></rect>
                <rect id="Rectangle" fill="#D8D8D8" x="571.972804" y="15" width="67" height="49" rx="2"></rect>
                <path d="M311.911781,353 C379.256819,353 433.850759,407.621261 433.850759,475 C433.850759,483.569049 432.967752,491.931757 431.287809,500.002011 L192.535754,500.002011 C190.85581,491.931757 189.972804,483.569049 189.972804,475 C189.972804,407.621261 244.566744,353 311.911781,353 Z" id="Combined-Shape" fill="#F4F6F8"></path>
            </g>
        </g>
    </g>
</svg>