<svg clip-rule="evenodd" fill-rule="evenodd" stroke-linejoin="round" stroke-miterlimit="2" viewBox="0 0 383 383" xmlns="http://www.w3.org/2000/svg"><path d="m90.154 41.851-40.119-40.118c-2.309-2.311-6.056-2.311-8.369 0l-8.33 8.332 10.567 10.568c2.456-.83 5.273-.273 7.23 1.684 1.969 1.97 2.52 4.81 1.67 7.275l10.185 10.185c2.465-.85 5.307-.301 7.276 1.671 2.75 2.749 2.75 7.206 0 9.957-2.752 2.752-7.208 2.752-9.961 0-2.069-2.07-2.58-5.11-1.532-7.658l-9.5-9.499v24.996c.67.332 1.303.775 1.862 1.332 2.75 2.75 2.75 7.206 0 9.96-2.75 2.749-7.209 2.749-9.957 0-2.75-2.754-2.75-7.21 0-9.96.679-.679 1.467-1.193 2.306-1.537v-25.228c-.839-.343-1.625-.853-2.306-1.536-2.083-2.082-2.584-5.14-1.516-7.698l-10.418-10.42-27.51 27.508c-2.31 2.313-2.31 6.06 0 8.371l40.121 40.118c2.31 2.31 6.056 2.31 8.37 0l39.931-39.932c2.312-2.311 2.312-6.061 0-8.371" fill="#fff" fill-rule="nonzero" transform="matrix(4.16667 0 0 4.16667 .002083 .001042)"/></svg>