<svg height="500" width="1441" xmlns="http://www.w3.org/2000/svg" xmlns:xlink="http://www.w3.org/1999/xlink"><defs><path id="b" d="M0 0h1440v500H0z"/><linearGradient id="a"><stop offset="0" stop-color="gray" stop-opacity=".25"/><stop offset=".54" stop-color="gray" stop-opacity=".12"/><stop offset="1" stop-color="gray" stop-opacity=".1"/></linearGradient><linearGradient id="d" x1="49.975%" x2="49.975%" xlink:href="#a" y1="99.91%" y2="-.153%"/><linearGradient id="e" x1="50.021%" x2="50.021%" xlink:href="#a" y1="100.164%" y2=".172%"/><mask id="c" fill="#fff"><use fill-rule="evenodd" xlink:href="#b"/></mask></defs><g fill="none" fill-rule="evenodd" transform="translate(.153)"><use fill="#fff" xlink:href="#b"/><path d="M-.153 94h1440v406h-1440z" fill="#f4f6f8" mask="url(#c)"/><g fill="#d6e6f9" mask="url(#c)"><g transform="translate(95.847 -27)"><rect height="11" rx="2.52" width="11" y="44"/><rect height="11" rx="2.52" width="11" x="44" y="44"/><rect height="11" rx="2.52" width="11" x="89" y="44"/><rect height="11" rx="2.52" width="11" x="134" y="44"/><rect height="11" rx="2.52" width="11" x="178" y="44"/><rect height="11" rx="2.52" width="11" x="223" y="44"/><rect height="11" rx="2.52" width="11" x="267" y="44"/><rect height="11" rx="2.52" width="11" x="312" y="44"/><rect height="11" rx="2.52" width="11" x="356" y="44"/><rect height="11" rx="2.52" width="11" x="400" y="44"/><rect height="11" rx="2.52" width="11" y="89"/><rect height="11" rx="2.52" width="11" x="44" y="89"/><rect height="11" rx="2.52" width="11" x="89" y="89"/><rect height="11" rx="2.52" width="11" x="134" y="89"/><rect height="11" rx="2.52" width="11" x="178" y="89"/><rect height="11" rx="2.52" width="11" x="223" y="89"/><rect height="11" rx="2.52" width="11" x="267" y="89"/><rect height="11" rx="2.52" width="11" x="312" y="89"/><rect height="11" rx="2.52" width="11" x="356" y="89"/><rect height="11" rx="2.52" width="11" x="400" y="89"/><rect height="11" rx="2.52" width="11" y="134"/><rect height="11" rx="2.52" width="11" x="44" y="134"/><rect height="11" rx="2.52" width="11" x="89" y="134"/><rect height="11" rx="2.52" width="11" x="134" y="134"/><rect height="11" rx="2.52" width="11" x="178" y="134"/><rect height="11" rx="2.52" width="11" x="223" y="134"/><rect height="11" rx="2.52" width="11" x="267" y="134"/><rect height="11" rx="2.52" width="11" x="312" y="134"/><rect height="11" rx="2.52" width="11" x="356" y="134"/><rect height="11" rx="2.52" width="11" x="400" y="134"/><rect height="11" rx="2.52" width="11" y="179"/><rect height="11" rx="2.52" width="11" x="44" y="179"/><rect height="11" rx="2.52" width="11" x="89" y="179"/><rect height="11" rx="2.52" width="11" x="134" y="179"/><rect height="11" rx="2.52" width="11" x="178" y="179"/><rect height="11" rx="2.52" width="11" x="223" y="179"/><rect height="11" rx="2.52" width="11" x="267" y="179"/><rect height="11" rx="2.52" width="11" x="312" y="179"/><rect height="11" rx="2.52" width="11" x="356" y="179"/><rect height="11" rx="2.52" width="11" x="400" y="179"/><rect height="11" rx="2.52" width="11" y="223"/><rect height="11" rx="2.52" width="11" x="44" y="223"/><rect height="11" rx="2.52" width="11" x="89" y="223"/><rect height="11" rx="2.52" width="11" x="134" y="223"/><rect height="11" rx="2.52" width="11" x="178" y="223"/><rect height="11" rx="2.52" width="11" x="223" y="223"/><rect height="11" rx="2.52" width="11" x="267" y="223"/><rect height="11" rx="2.52" width="11" x="312" y="223"/><rect height="11" rx="2.52" width="11" x="356" y="223"/><rect height="11" rx="2.52" width="11" x="400" y="223"/><rect height="11" rx="2.52" width="11" y="268"/><rect height="11" rx="2.52" width="11" x="44" y="268"/><rect height="11" rx="2.52" width="11" x="89" y="268"/><rect height="11" rx="2.52" width="11" x="134" y="268"/><rect height="11" rx="2.52" width="11" x="178" y="268"/><rect height="11" rx="2.52" width="11" x="223" y="268"/><rect height="11" rx="2.52" width="11" x="267" y="268"/><rect height="11" rx="2.52" width="11" x="312" y="268"/><rect height="11" rx="2.52" width="11" x="356" y="268"/><rect height="11" rx="2.52" width="11" x="400" y="268"/><rect height="11" rx="2.52" width="11" y="313"/><rect height="11" rx="2.52" width="11" x="44" y="313"/><rect height="11" rx="2.52" width="11" x="89" y="313"/><rect height="11" rx="2.52" width="11" x="134" y="313"/><rect height="11" rx="2.52" width="11" x="178" y="313"/><rect height="11" rx="2.52" width="11" x="223" y="313"/><rect height="11" rx="2.52" width="11" x="267" y="313"/><rect height="11" rx="2.52" width="11" x="312" y="313"/><rect height="11" rx="2.52" width="11" x="356" y="313"/><rect height="11" rx="2.52" width="11" x="400" y="313"/><rect height="11" rx="2.52" width="11" y="357"/><rect height="11" rx="2.52" width="11" x="44" y="357"/><rect height="11" rx="2.52" width="11" x="89" y="357"/><rect height="11" rx="2.52" width="11" x="134" y="357"/><rect height="11" rx="2.52" width="11" x="178" y="357"/><rect height="11" rx="2.52" width="11" x="223" y="357"/><rect height="11" rx="2.52" width="11" x="267" y="357"/><rect height="11" rx="2.52" width="11" x="312" y="357"/><rect height="11" rx="2.52" width="11" x="356" y="357"/><rect height="11" rx="2.52" width="11" x="400" y="357"/></g></g><path d="M596.847 92h123v40h-123z" fill="#d0cde1" mask="url(#c)"/><text fill="#3d345e" font-family="NunitoSans-Regular, Nunito Sans" font-size="12.6" letter-spacing=".447" mask="url(#c)"><tspan x="619.847" y="117">Sign Up Free</tspan></text><g mask="url(#c)"><g fill-rule="nonzero" transform="translate(492)"><path d="M490.7 462.7h276.318v1.4H490.7z" fill="#3f3d56"/><path d="M331.8 300.3V151.2h170.8V0H0v450.1h502.6V300.3z" fill="#453b69"/><path d="M502.6 151.2V0H328.3v149.1h-154V0H0v151.2h157.5v149.1H0v149.8h333.2V300.3h-1.4V151.2z" fill="#000" opacity=".1"/><circle cx="205.45" cy="404.95" fill="#f37a78" r="16.45"/><circle cx="251.65" cy="404.95" fill="#007df6" r="16.45"/><circle cx="297.85" cy="404.95" fill="#d0cde1" r="16.45"/><path d="M120.4 0C120.399 66.494 66.494 120.399 0 120.4V0z" fill="#f18584"/><path d="M56 0c-.001 30.927-25.073 55.999-56 56v30.8C47.938 86.798 86.798 47.938 86.8 0z" fill="#e6ebf6" opacity=".1"/><path d="M112.7 198.8h35v35h-35z" fill="#f37a78"/><path d="M655.922 167.894l-11.58 30.607-41.765 14.654s-25.2-2.8-25.2 11.2c0 9.926 30.1 1.4 30.1 1.4l55.063-16.5 17.371-43.015z" fill="#ffb8b8"/><path d="M444.5 159.6h163.8V301H444.5z" fill="#6c63ff"/><path d="M523.25 202.484l25.206 43.658 25.206 43.658H472.838l25.206-43.658z" fill="#3f3d56"/><path d="M523.132 234.09l11.434 19.806L546 273.7h-45.738l11.435-19.804zm0-64.4l11.434 19.806L546 209.3h-45.738l11.435-19.804z" fill="#d0cde1"/><path d="M680.417 148.006s-11.581-1.654-17.371 19.853-7.445 23.162-7.445 23.162 33.915 4.963 34.742 3.308 7.445-41.36-9.926-46.323z" fill="#2f2e41"/><circle cx="673.799" cy="117.4" fill="#ffb8b8" r="22.334"/><path d="M663.873 135.598s7.445 19.026 4.963 21.507 30.606 5.79 30.606 5.79 2.482-12.407-7.444-19.852c0 0-4.136-12.408-3.31-14.89s-24.815 7.445-24.815 7.445z" fill="#ffb8b8"/><path d="M683.726 143.87a59.651 59.651 0 0 0-22.335 14.89c-9.926 10.753-14.89 14.062-14.89 14.062s-11.58 4.136-7.444 23.99c2.068 9.925.62 21.093-1.344 29.778a186.076 186.076 0 0 0-4.447 41.06v8.572s-76.102 159.65-50.459 170.404 48.805 14.062 50.46 11.58S664.7 326.682 664.7 326.682s8.272 138.142 28.952 138.142 54.595-5.79 54.595-5.79l-42.187-165.44s9.926-28.125-14.89-47.978l-3.308-9.1c13.723.008 19.996-86.848 5.79-94.3 0 0-3.309-2.482-9.926 1.654z" fill="#2f2e41"/><path d="M663.046 188.54l-11.581 30.605L609.7 233.8s-25.2-2.8-25.2 11.2c0 9.926 30.1 1.4 30.1 1.4l55.063-16.5 17.371-43.015z" fill="#ffb8b8"/><g fill="#2f2e41"><ellipse cx="608.037" cy="456.552" rx="14.476" ry="8.272"/><ellipse cx="718.882" cy="456.552" rx="14.476" ry="8.272"/><path d="M682.421 86.08c-1.15.002-2.297.116-3.425.34a15.01 15.01 0 0 0-6.538-1.506h-.593c-11.442 0-20.716 10.353-20.716 23.124h3.833l.62-4.713.907 4.713h3.194a45.203 45.203 0 0 0-1.484 11.585v23.537h5.797l3.355-8.72-.839 8.72h37.257l3.05-7.928-.762 7.928h4.194v-18.48c0-21.318-12.469-38.6-27.85-38.6z"/></g></g><g transform="translate(508.8 212.8)"><rect fill="#fff" height="39.9" rx="5.6" width="123.2"/><text fill="#3d345e" font-family="NunitoSans-Bold, Nunito Sans" font-size="12.6" font-weight="bold" letter-spacing=".447"><tspan x="22.4" y="24.9">Sign Up</tspan><tspan font-family="LucidaGrande-Bold, Lucida Grande" x="75.847" y="24.9">Now</tspan></text></g><g fill-rule="nonzero"><path d="M746.8 367.276l-2.043 2.386c-.373.406-.902.638-1.457.638s-1.084-.232-1.457-.638l-2.043-2.386V350.7h7z" fill="#007df6"/><path d="M753.953 338.388h-3.478a8.663 8.663 0 0 0 1.449-4.817c0-4.708-3.705-12.971-8.274-12.971-4.57 0-8.274 8.263-8.274 12.97a8.663 8.663 0 0 0 1.45 4.818h-3.479c-1.46.005-2.643 1.223-2.647 2.727v1.958c.004 1.504 1.187 2.723 2.647 2.727h20.606c1.46-.004 2.643-1.223 2.647-2.727v-1.958c-.004-1.504-1.187-2.722-2.647-2.727z" fill="#fff"/><path d="M743.3 372.4c-.842.004-1.635-.419-2.137-1.139l-2.763-3.925V340.2h9.8v27.136l-2.763 3.925c-.502.72-1.295 1.143-2.137 1.139zm-4.393-5.244l2.661 3.781c.409.581 1.05.923 1.732.923s1.323-.342 1.732-.923l2.661-3.781V340.74h-8.786z" fill="#fff"/><path d="M746.8 380.888c0 1.884-1.567 3.412-3.5 3.412s-3.5-1.528-3.5-3.412c0-1.885 3.5-5.688 3.5-5.688s3.5 3.803 3.5 5.688z" fill="#007df6"/></g><path d="M984.8 109.227c0 .92-.362 1.804-1.01 2.455s-1.528 1.018-2.446 1.018h-137.98a3.458 3.458 0 0 1-3.455-3.473V68.98 29.983c0-3.109-.02-3.97 0-14.583 4.975 0 5.92.173 12.439.173h128.996c.917 0 1.795.365 2.443 1.015s1.013 1.531 1.013 2.45z" fill="#fff" fill-rule="nonzero"/><g stroke="#3f3d56" stroke-linecap="round" stroke-width=".7"><path d="M853.9 42h122.5M853.9 65.1h122.5M853.9 87.5h122.5m-122.5 22.4h122.5" opacity=".7"/></g><g fill-rule="nonzero" transform="translate(836.4 15.4)"><rect fill="#3f3d56" height="7" rx="3.5" width="25.9" x="65.1" y="11.9"/><rect fill="#000" height="4.2" opacity=".1" rx="2.1" width="22.4" x="67.2" y="13.3"/><rect fill="#6c63ff" height="4.2" rx="2.1" width="8.4" x="80.5" y="13.3"/><circle cx="84" cy="15.4" fill="#fff" r="1.4"/><rect fill="#3f3d56" height="7" rx="3.5" width="25.9" x="65.1" y="56"/><rect fill="#000" height="4.2" opacity=".1" rx="2.1" width="22.4" x="67.2" y="58.1"/><rect fill="#6c63ff" height="4.2" rx="2.1" width="8.4" x="80.5" y="58.1"/><circle cx="84" cy="60.2" fill="#fff" r="1.4"/><rect fill="#3f3d56" height="7" rx="3.5" width="25.9" x="65.1" y="78.4"/><rect fill="#000" height="4.2" opacity=".1" rx="2.1" width="22.4" x="67.2" y="79.8"/><rect fill="#6c63ff" height="4.2" rx="2.1" width="8.4" x="80.5" y="79.8"/><circle cx="84" cy="81.9" fill="#fff" r="1.4"/><rect fill="#3f3d56" height="7" rx="3.5" width="25.9" x="65.1" y="34.3"/><rect fill="#000" height="4.2" opacity=".1" rx="2.1" width="22.4" x="67.2" y="35"/><rect fill="#6c63ff" height="4.2" rx="2.1" transform="rotate(180 71.4 37.1)" width="8.4" x="67.2" y="35"/><circle cx="71.4" cy="37.1" fill="#fff" r="1.4"/><path d="M39.2 15.752a8.75 8.75 0 0 1-4.265 7.516l-.12.07-.225.125-.214.112-.033.017c-.09.044-.18.087-.274.128a8.53 8.53 0 0 1-1.525.529 8.678 8.678 0 0 1-1.29.214 8.766 8.766 0 0 1-1.763-.015h-.056a6.647 6.647 0 0 1-.33-.043 9.05 9.05 0 0 1-1.034-.225l-.17-.05-.149-.047-.048-.017a8.637 8.637 0 0 1-2.318-1.174l-.022-.015-.015-.011-.16-.118-.121-.093a8.57 8.57 0 0 1-1.251-1.199A8.75 8.75 0 1 1 39.2 15.752z" fill="#434175"/><path d="M35.698 23.42l-.229.068a.513.513 0 0 1-.354-.115l-.075-.07a.283.283 0 0 0-.177-.096h-.02a.197.197 0 0 1-.078 0 .022.022 0 0 1-.015 0 .094.094 0 0 1-.045-.075 3.624 3.624 0 0 1-.102-.514 4.697 4.697 0 0 1 0-.564v-.448c.026-.169.04-.338.045-.508a1.862 1.862 0 0 0-.052-.538 1.485 1.485 0 0 0-.108-.283 27.476 27.476 0 0 0-.194-1.317.903.903 0 0 0-.312-.918 1.016 1.016 0 0 0-.246-.149 3.134 3.134 0 0 0-.224-.079l-1.208-.376a9.816 9.816 0 0 1-.325-.503 3.48 3.48 0 0 1-.254-.48 1.923 1.923 0 0 0 .498-2.568c-.019-.03-.042-.059-.063-.087a1.238 1.238 0 0 0-.052-.438v-.012a.618.618 0 0 0-.166-.314l-.04-.043a2.229 2.229 0 0 0-.321-.282c-.4-.294-.937-.651-1.426-.77a1.67 1.67 0 0 0-.735 0l-.039-.013-.07-.013.055.026a1.643 1.643 0 0 0-.783.013c-.317.096-.43.35-.564.629-.215.446-.547.829-.962 1.11-.263.177-.577.331-.704.625-.127.293-.037.589-.011.886.071.81-.27 1.604-.914 2.119-.36.282-.84.517-.918.969-.054.322.125.63.261.926.287.628.385 1.394.049 1.995-.033.056-.068.11-.1.163.182.219.384.426.577.625.219.213.45.415.69.604l.124.096.163.119.016.013.023.015c.454.327.94.61 1.45.845a.09.09 0 0 1 .012-.032.125.125 0 0 0 0 .037c.296.136.6.256.91.358l.048.017.152.049.173.05c.347.098.699.175 1.055.232.111.017.223.032.336.043h.056a9.004 9.004 0 0 0 3.111-.205c.052-.011.104-.026.156-.041a8.335 8.335 0 0 0 1.397-.499c.094-.043.192-.086.279-.132l.035-.017.217-.114a.015.015 0 0 1-.002-.02zm-7.71-.26a.368.368 0 0 0 0-.047.782.782 0 0 1 0-.15.23.23 0 0 1 .035-.083v.09a.5.5 0 0 1-.035.19z" fill="url(#d)"/><path d="M35.7 23.429l-.23.068a.513.513 0 0 1-.353-.114c-.024-.021-.05-.048-.076-.07a.277.277 0 0 0-.176-.096h-.019a.189.189 0 0 1-.08 0 .02.02 0 0 1-.015 0 .103.103 0 0 1-.045-.076 3.654 3.654 0 0 1-.101-.513 4.761 4.761 0 0 1 0-.572v-.448c.025-.169.04-.339.044-.51a1.888 1.888 0 0 0-.052-.537 1.694 1.694 0 0 0-.108-.282c-.03-.254-.068-.507-.104-.763-.027-.19-.055-.381-.091-.572 0-.03.015-.06.02-.093a.902.902 0 0 0-.332-.824 1.014 1.014 0 0 0-.246-.148c-.072-.031-.148-.056-.224-.08l-1.21-.382c-.111-.164-.22-.332-.324-.501a3.319 3.319 0 0 1-.254-.48 1.912 1.912 0 0 0 .5-2.569c-.02-.03-.043-.057-.064-.086a1.254 1.254 0 0 0-.05-.438v-.012a.68.68 0 0 0-.043-.133.782.782 0 0 0-.123-.181l-.042-.044a.592.592 0 0 0-.058-.061 2.235 2.235 0 0 0-.268-.208c-.4-.293-.938-.65-1.427-.763a1.646 1.646 0 0 0-.735 0l-.038-.01-.07-.014.055.026a1.627 1.627 0 0 0-.784.014c-.317.095-.429.349-.57.627-.213.447-.54.83-.948 1.11-.264.177-.57.331-.704.625-.135.294-.038.59-.012.887a2.445 2.445 0 0 1-.914 2.118c-.36.282-.841.516-.919.968-.055.322.125.631.262.927.287.627.38 1.394.048 1.994l-.101.164c.183.217.378.425.584.624.22.214.45.415.691.604l.124.095.163.12.015.012.023.015c.456.328.942.61 1.452.845a.936.936 0 0 1 .057-.13c.08-.115.137-.245.169-.381a.383.383 0 0 0 0-.048.797.797 0 0 1 0-.15.243.243 0 0 1 .034-.083c.02-.038.05-.074.076-.112a.414.414 0 0 0 .036-.063c.02.029.04.057.059.088.068.105.134.21.2.316.055.071.09.155.1.244a.4.4 0 0 0 0 .158c.028.067.123.122.087.191a.253.253 0 0 0 0 .225c.024.038.05.074.08.109l.049.017.152.048.172.051c.347.098.7.175 1.055.23.112.018.224.033.336.045h.057a8.895 8.895 0 0 0 1.797.015c.444-.04.884-.113 1.316-.22.053-.01.104-.026.157-.041a8.672 8.672 0 0 0 1.676-.631l.034-.018.219-.114z" fill="#6c63ff" opacity=".3"/><path d="M39.2 37.45a8.715 8.715 0 0 1-1.56 4.987 8.123 8.123 0 0 1-.858 1.06l-.095.1c-.097.1-.196.187-.298.288a.335.335 0 0 1-.037.035c-.047.043-.095.088-.146.129a8.527 8.527 0 0 1-1.271.927l-.12.071-.225.125-.152.08-.062.032-.033.016c-.06.03-.122.058-.186.084-.032.017-.064.03-.095.045l-.186.078c-.164.07-.332.138-.501.198l-.227.076h-.026a.318.318 0 0 1-.056.017l-.043.015-.127.037-.043.013-.054.015-.078.02a.292.292 0 0 1-.054.015l-.132.036a5.166 5.166 0 0 1-.294.065c-.329.07-.661.12-.996.149a9.437 9.437 0 0 1-.765.037h-.06c-.246 0-.486-.011-.726-.032l-.212-.02h-.089l-.296-.04-.237-.04-.06-.011c-.11-.02-.22-.043-.327-.071a.06.06 0 0 1-.026 0 6.472 6.472 0 0 1-.386-.097l-.169-.05-.149-.047-.048-.017a8.933 8.933 0 0 1-1.473-.644l-.086-.049-.126-.072-.069-.041a9.697 9.697 0 0 1-.559-.373l-.022-.015-.015-.01-.16-.118-.12-.093a8.572 8.572 0 0 1-1.251-1.2 8.758 8.758 0 0 1-.713-10.457A8.748 8.748 0 0 1 39.2 37.45z" fill="#434175"/><path d="M34.227 45.915a.334.334 0 0 0-.088-.092.465.465 0 0 1-.163-.429.434.434 0 0 0 0-.05 2.76 2.76 0 0 0-.212-.576 5.201 5.201 0 0 1-.152-.41c-.066-.195-.12-.372-.12-.372s0-.018-.009-.051a64.818 64.818 0 0 1-.135-.792v-.057c-.068-.417-.716-1.523-.716-1.523a.075.075 0 0 0-.027-.037 16.37 16.37 0 0 1-.64-.375c-.366-.493-.713-.614-.953-.62h-.09a.535.535 0 0 0-.06 0 .684.684 0 0 0-.096.025l-.034.012a.331.331 0 0 0-.048.022l-.011.095a2.3 2.3 0 0 1 .051-.706l.019-.066h.106a1.764 1.764 0 0 0 1.416-.773 2.015 2.015 0 0 0 .285-1.668v-.027l.053-.027c.216-.088.494.062.672-.098a.57.57 0 0 0 .133-.25 1.59 1.59 0 0 0 .097-.4.71.71 0 0 0 0-.124v-.026.01a.481.481 0 0 0-.093-.248c-.115-.146-.31-.183-.458-.29a1.209 1.209 0 0 1-.29-.373 1.323 1.323 0 0 0-.285-.378.394.394 0 0 0-.424-.074.487.487 0 0 1-.141.072.281.281 0 0 1-.154-.045c-.504-.256-1.09-.21-1.648-.135-.222.02-.44.077-.646.168a.819.819 0 0 0-.436.517c-.046.183-.011.39-.066.564-.037.123-.112.23-.154.349a.812.812 0 0 0-.04.205v-.012.137c.028.24.07.477.126.712.066.38.033.792.183 1.15a.697.697 0 0 0 .059.125 9.2 9.2 0 0 1-.165.363.742.742 0 0 0-.084-.02h-.066a.253.253 0 0 0-.066 0 .199.199 0 0 0-.046.022l-.018.018-.013.01a.081.081 0 0 0-.014.025v.014a.253.253 0 0 0-.019.074v.02c0 .04 0 .081-.01.124s0 .049-.01.072a.594.594 0 0 1-.009.06v.016c0 .024-.01.049-.015.072l-.027.088-.011.026c-.011.025-.022.05-.035.074l-.062.068a.077.077 0 0 0-.039.074l-.027.023a.09.09 0 0 0-.038.016c-.013-.031-.065-.031-.224.176-.213.24-.46.444-.732.604 0 0-1.075.816-1.134 1.192s-.404 2.004-.221 2.548c.024.07.07.18.13.312v.012s.053.216.137.536c.022.014.044.031.068.045l.124.076.085.053a7.936 7.936 0 0 0 1.448.682l.048.018.146.05.167.053c.124.037.25.073.379.104a.055.055 0 0 0 .025 0c.106.029.214.052.322.074l.06.012.232.044.29.041h.089l.208.022c.237.021.473.033.714.033h.059a8.003 8.003 0 0 0 1.732-.197c.097-.02.194-.043.29-.07l.13-.037a.274.274 0 0 0 .052-.016l.077-.021.053-.016.042-.014.125-.039.042-.017a.299.299 0 0 0 .055-.018h.026l.223-.08c.167-.064.331-.134.493-.21l.183-.082c.03-.016.062-.03.093-.05a.59.59 0 0 0-.073-.118z" fill="url(#e)"/><path d="M34.218 45.294a.405.405 0 0 0-.088-.086.426.426 0 0 1-.163-.406.399.399 0 0 0 0-.048c-.05-.19-.121-.372-.213-.544a4.654 4.654 0 0 1-.152-.387c-.065-.187-.119-.353-.119-.353l-.009-.047a68.693 68.693 0 0 1-.135-.747v-.055c-.068-.394-.716-1.44-.716-1.44a.065.065 0 0 0-.028-.034 17.66 17.66 0 0 1-.639-.355c-.366-.467-.714-.581-.953-.587h-.09a.558.558 0 0 0-.06 0 .708.708 0 0 0-.096.025l-.035.01a.339.339 0 0 0-.047.021l-.011.092c-.02-.224-.002-.45.051-.67 0-.02.013-.04.018-.06h.107c.47 0 .92-.191 1.252-.53a1.826 1.826 0 0 0 .449-1.779v-.024l.029-.007c.216-.083.494.06.672-.092a.532.532 0 0 0 .133-.237c.05-.12.082-.245.097-.374a.633.633 0 0 0 0-.118v-.024.01a.444.444 0 0 0-.093-.234c-.115-.14-.31-.174-.458-.277a1.116 1.116 0 0 1-.29-.351 1.283 1.283 0 0 0-.28-.359.405.405 0 0 0-.426-.067.544.544 0 0 1-.14.067.29.29 0 0 1-.154-.043c-.504-.243-1.09-.2-1.648-.127-.223.018-.44.071-.647.159a.787.787 0 0 0-.435.488c-.046.173-.011.362-.066.534-.037.116-.112.217-.154.33a.694.694 0 0 0-.04.188v-.012.13c.028.226.07.45.126.672.066.359.033.748.183 1.09.016.04.036.08.059.117a8.38 8.38 0 0 1-.165.342.77.77 0 0 0-.084-.018h-.066a.264.264 0 0 0-.066 0 .22.22 0 0 0-.044.018l-.018.017-.013.01a.077.077 0 0 0-.015.024.03.03 0 0 0 0 .013.22.22 0 0 0-.018.07v.02c0 .039 0 .078-.011.117-.011.04 0 .047-.01.07-.008.022 0 .037-.008.055-.01.02 0 .01 0 .015 0 .006-.01.047-.015.07l-.028.084-.01.022a.603.603 0 0 1-.035.07.196.196 0 0 1-.035.023.073.073 0 0 0-.039.071l-.027.023a.083.083 0 0 0-.038.013c-.013-.028-.065-.028-.224.166-.214.228-.46.42-.732.572 0 0-1.075.772-1.134 1.121-.058.35-.404 1.895-.221 2.41.024.066.07.17.13.294v.012s.053.205.137.508l.068.04.124.074.085.048a8.683 8.683 0 0 0 1.448.647l.048.017.146.046.167.05c.124.036.25.07.379.098a.057.057 0 0 0 .025 0c.106.028.214.05.322.071l.06.011.232.041.29.04h.089l.208.02c.237.02.473.032.714.032h.059c.254 0 .503-.015.752-.037.33-.03.657-.08.98-.15.097-.019.194-.041.29-.065l.13-.036a.283.283 0 0 0 .052-.015l.077-.02.053-.015.042-.013.125-.038.042-.015a.308.308 0 0 0 .055-.016h.026l.223-.077c.167-.06.331-.127.493-.198l.183-.079c.03-.015.062-.028.093-.044a.556.556 0 0 0-.082-.088z" fill="#6c63ff" opacity=".3"/><path d="M39.2 59.879a8.7 8.7 0 0 1-1.56 4.983 8.115 8.115 0 0 1-.858 1.059l-.095.1c-.097.099-.196.186-.298.287a.335.335 0 0 1-.037.035c-.047.043-.095.087-.146.128a8.526 8.526 0 0 1-1.271.927l-.12.07-.225.125-.11.058h-.012l-.03.017-.062.031-.033.017-.186.084-.095.045-.187.078-.264.11-.14.052-.094.035-.228.076h-.026l-.055.017-.043.015-.127.037-.043.013h-.054l-.078.02a.292.292 0 0 1-.054.015l-.132.036a8.503 8.503 0 0 1-1.29.214 9.447 9.447 0 0 1-.765.037h-.06c-.246 0-.486-.011-.726-.032l-.212-.02h-.09c-.089 0-.186-.022-.268-.035h-.028l-.236-.041-.06-.012c-.11-.02-.22-.042-.327-.07a.06.06 0 0 1-.026 0 6.478 6.478 0 0 1-.386-.097l-.17-.05-.148-.047-.048-.017-.136-.046-.095-.034a3.806 3.806 0 0 1-.203-.078l-.07-.028-.087-.035a8.548 8.548 0 0 1-.87-.419l-.087-.048-.126-.073-.069-.04c-.093-.058-.186-.116-.277-.187-.094-.061-.187-.122-.272-.186l-.023-.015-.014-.01-.16-.118-.122-.093a8.567 8.567 0 0 1-1.251-1.198 8.742 8.742 0 0 1-.739-10.464A8.752 8.752 0 0 1 39.2 59.88z" fill="#434175"/><g fill="#6c63ff" opacity=".3"><path d="M33.197 68.252l.005-.001zm1.394-1.106a.108.108 0 0 1-.053-.038c.042-.048.099-.081.161-.095.058-.015.09-.102.082-.189a.323.323 0 0 0-.069-.236.167.167 0 0 1-.039-.066 1.66 1.66 0 0 1 .11-.204.065.065 0 0 0 0-.064c.052-.13-.186-.106-.186-.106v-1.24s-.019-.1-.045-.292c-.026-.19-.063-.47-.098-.827-.07-.712-.347-.786-.347-.786a3.11 3.11 0 0 1-.431-.172 2.913 2.913 0 0 0-.453-.172 2.289 2.289 0 0 1-.587-.083 1.768 1.768 0 0 0-.4-.087l-.042-.022a1.562 1.562 0 0 1-.717-.756c.06-.068.113-.141.16-.219v.142c.185-.34.743-.418.796-.805v-.013a.451.451 0 0 0 0-.1v-.05-.039c0-.096-.037-.189-.048-.293v-.019a.679.679 0 0 1 .015-.085v-.026a.79.79 0 0 1 .028-.095c.078-.213.223-.413.3-.632.017-.05.03-.1.04-.151v-.021c.008-.05.012-.1.015-.15v-.024-.07.017-.028a.025.025 0 0 0 0-.013v-.02-.052a1.157 1.157 0 0 0-.372-.831c-.186-.168-.442-.274-.574-.493-.061-.104-.09-.223-.16-.323a.792.792 0 0 0-.577-.29 3.17 3.17 0 0 1-.656-.088c-.15-.05-.284-.138-.434-.189a.825.825 0 0 0-.895.327 1.53 1.53 0 0 1-.238.351c-.22.189-.59.108-.784.325a.549.549 0 0 0-.104.414v.126a.492.492 0 0 0 0 .074v.077c0 .05.013.099.019.146.01.082.017.166.018.25v.037c-.012.38-.106.753-.276 1.092-.186.36-.45.693-.496 1.097a.926.926 0 0 0 0 .176v.238l.017.09v.05l.027.117v.02c.052.19.121.393.162.592a1.943 1.943 0 0 1 .033.22c0 .057.01.116.012.173v.045c-.091.035-.184.064-.279.087-.167.024-.657.466-.622.576a.16.16 0 0 1 0 .047v.03c-.06.278-.135.553-.227.822l-.393 2.76c.09.062.185.12.276.189l.069.041.126.074.086.049a8.856 8.856 0 0 0 .869.425l.087.036.069.028c.032.031.07.055.111.07h.08a.183.183 0 0 0 .056 0h.03l.094.034.136.047.048.017.149.047.169.051c.126.036.254.07.384.099a.058.058 0 0 0 .026 0 4.8 4.8 0 0 0 .327.071l.06.012.235.041h.028c.09.014.186.027.268.036h.089l.211.021c.24.02.48.032.725.032h.06a8.5 8.5 0 0 0 1.273-.1 8.82 8.82 0 0 0 .776-.155l.132-.036a.288.288 0 0 0 .054-.015l.078-.02h.022c0-.13-.014-.239-.018-.324.028.038.056.07.074.095.01.012.017.026.02.041a.785.785 0 0 0-.068.19h.017l.042-.014.127-.038.042-.015.056-.017h.026l.227-.077.094-.036.14-.053.263-.112.186-.079.095-.045.185-.085.034-.017.061-.032.03-.017h.013a.83.83 0 0 0 0-.133v-.068c.011-.05-.086-.162-.242-.222zm-8.243.81l-.034-.015c.01.007.022.012.034.015z"/></g><path d="M39.2 81.585a8.706 8.706 0 0 1-1.56 4.985 8.118 8.118 0 0 1-.855 1.053l-.026.028-.069.073c-.096.098-.195.186-.298.286a.335.335 0 0 1-.037.036c-.046.043-.095.087-.145.128a6.798 6.798 0 0 1-.607.486l-.037.026-.076.054a8.745 8.745 0 0 1-.551.361l-.068.041-.052.03-.225.125-.11.057h-.013l-.03.017-.061.032-.034.017-.186.083-.095.045-.186.078-.264.11-.14.052-.095.035-.037.014-.186.063h-.026l-.056.017-.043.014-.05.015-.076.023-.043.013h-.054l-.078.02a.292.292 0 0 1-.054.015l-.133.035a8.5 8.5 0 0 1-1.069.192h-.035l-.186.019a9.443 9.443 0 0 1-.765.037h-.212c-.186 0-.384-.013-.574-.03h-.055l-.157-.015h-.089l-.186-.022-.09-.013h-.028l-.236-.041-.06-.011-.156-.03-.065-.015-.106-.026a.06.06 0 0 1-.026 0 6.476 6.476 0 0 1-.386-.097l-.067-.02h-.024l-.078-.023-.073-.022-.076-.024-.048-.017-.136-.046-.095-.034-.088-.039-.113-.045-.07-.028-.087-.035a8.546 8.546 0 0 1-.285-.123 6.27 6.27 0 0 1-.433-.216c-.053-.024-.103-.052-.153-.08l-.04-.022-.044-.024-.126-.073-.07-.04c-.092-.058-.185-.116-.277-.187a6.299 6.299 0 0 1-.272-.186l-.022-.015-.015-.011-.076-.056-.084-.061-.015-.012-.106-.081a8.57 8.57 0 0 1-1.251-1.199 8.748 8.748 0 0 1 9.098-14.12 8.749 8.749 0 0 1 6.263 8.424z" fill="#434175"/><path d="M36.884 86.077a.284.284 0 0 0-.386-.13l-2.543 1.339a.316.316 0 0 0-.031-.102.24.24 0 0 0-.104-.19.175.175 0 0 1-.056-.056.571.571 0 0 1 0-.06.176.176 0 0 0-.03-.135.339.339 0 0 0-.14-.245h-.008v-.067a.272.272 0 0 0-.036-.12c-.009-.125-.096-.24-.27-.41a.642.642 0 0 1-.14-.256v-.012c-.032-.124-.063-.264-.108-.405-.02-.08-.045-.16-.074-.237-.138-.366-.288-.318-.35-.383-.06-.065-.46-.147-.664-.256-.173-.092-.743 0-.918.042v-.037c.857-.264 1.373-1.16 1.189-2.061l-.011-.044c.09 0 .18-.019.263-.054a.359.359 0 0 0 .121-.23 1.18 1.18 0 0 0 .034-.512c0-.017-.015-.034-.02-.052a.303.303 0 0 0-.014-.044.197.197 0 0 0 0-.046.75.75 0 0 0-.057-.156.028.028 0 0 1 0 .013 5.49 5.49 0 0 0-.428-.591c-.148-.23-.234-.52-.458-.673a.905.905 0 0 0-.768-.04 2.133 2.133 0 0 1-.36.095 3.7 3.7 0 0 1-.615-.038c-.289-.02-.576.06-.817.224a.466.466 0 0 0-.134.138.737.737 0 0 0-.06.248c-.022.16-.077.315-.159.453-.063.111-.143.209-.2.322a.506.506 0 0 0-.054.369c.02.065.057.122.072.191a.713.713 0 0 1-.13.436.85.85 0 0 0-.09.415c.008.11.047.215.114.3a.43.43 0 0 0 .037.079l.01.013a.541.541 0 0 0 .037.054l.018.019.038.038a.612.612 0 0 0 .362.117l.031.061v.067c-.01 0-.382.052-.501.212a.712.712 0 0 1-.44.192s-.363.124-.355.157c.007.032-.106.076-.334.14-.229.062-.604.286-.604.341 0 .056-.598.66-.598.723-.108.22-.162.461-.16.706.022.413.046.934-.045 1.02s0 .418 0 .418a.24.24 0 0 1 0 .25c-.076.14.015.722.015.722v.606c.02.087.03.175.034.264l.015.012.083.063.076.057.015.012.022.015c.09.065.186.128.272.191.09.063.185.123.276.192l.07.042.125.074.045.025.039.023c.05.029.1.057.152.082.142.08.286.153.433.222.093.045.188.087.284.126l.088.037.068.028.114.046.089.035.095.034.135.048.048.017.077.025.072.023.078.023h.024l.067.021c.126.036.254.07.384.1a.058.058 0 0 0 .026 0l.106.026.065.016.156.03.06.012.236.042h.028l.089.013.185.023h.09l.156.015h.055c.186.018.372.027.572.031h.212c.258 0 .511-.015.764-.038l.185-.02h.036a8.259 8.259 0 0 0 1.066-.197l.132-.036a.285.285 0 0 0 .054-.015l.078-.021h.053l.043-.013.076-.023.05-.016.043-.015.056-.017h.026l.186-.065.037-.014.094-.036.14-.054.264-.112.185-.08.095-.047.186-.086.033-.017.061-.032.03-.018h.013l.11-.059.225-.128.052-.03.066-.043c.153-.093.301-.191.448-.296.035-.025.069-.048.102-.075h.037l.04-.06.037-.026a8.09 8.09 0 0 0 .605-.499c.05-.042.098-.088.145-.132a6.24 6.24 0 0 0 .334-.33l.069-.075.026-.03c.085-.09.169-.19.247-.278zm-4.233 2.999l-.046.011a.082.082 0 0 1 .015-.04s-.284.012-.572.035a.45.45 0 0 1 .014-.148c.067-.21.114-.425.142-.644l.494.776zm.095 1.476a.705.705 0 0 0 0-.076c.017-.012.028-.021.03-.029a1.999 1.999 0 0 0-.028-.254h.044l.522-.084s.07 0 .186-.027l.043.086c-.236.07-.46.174-.669.308-.013.025-.06.052-.124.076z" fill="#6c63ff" opacity=".3"/><g fill="#3acc6c"><path d="M130.087 12.828l-.719-.802c-.07-.08-.168-.126-.27-.126s-.198.045-.269.126l-4.468 4.945-1.891-2.126a.358.358 0 0 0-.27-.127.358.358 0 0 0-.27.127l-.718.802c-.072.08-.112.188-.112.3s.04.222.112.302l2.876 3.226c.071.08.168.125.27.125s.197-.045.269-.125l5.453-6.038a.447.447 0 0 0 .12-.303.45.45 0 0 0-.113-.306zm.002 21.699l-.72-.802a.361.361 0 0 0-.27-.125.361.361 0 0 0-.27.125l-4.464 4.948-1.893-2.123a.359.359 0 0 0-.27-.127c-.102 0-.2.046-.27.127l-.72.801c-.072.08-.112.188-.112.3s.04.222.112.301l2.88 3.223c.07.08.168.125.27.125s.198-.045.27-.125l5.454-6.047a.447.447 0 0 0 .114-.3.449.449 0 0 0-.11-.301zm-.002 44.1l-.72-.802a.362.362 0 0 0-.269-.125.362.362 0 0 0-.27.125l-4.467 4.946-1.89-2.126c-.072-.08-.169-.126-.27-.126s-.198.045-.27.126l-.718.802c-.072.08-.113.188-.113.301s.04.221.113.3l2.875 3.228c.15.165.39.165.539 0l5.453-6.041a.443.443 0 0 0 .12-.302.445.445 0 0 0-.113-.306z"/></g><path d="M7 63.745l.523 1.272s.428.017 1.093.035h.066c.286 0 .615.018.96.025 1.784.038 4.242.048 5.528-.126.483-.065.798-.156.852-.283a1.451 1.451 0 0 0 .077-.412c.028-.818-.385-2.071-.385-2.071s-.236-2.51-.236-2.62.202-1.865.202-1.865l-.404-1.413-.778-.505-.354-.23a4.765 4.765 0 0 1-.384.473 1.014 1.014 0 0 1-.423.31c-.263.091-.503.23-.708.408 0 0-.995.566-1.316.251-.246-.24-1.764-1.103-2.466-1.496l-.354-.198-.176.179-1.14 1.167z" fill="#fff"/><g fill="#000"><path d="M.954 62.786C.687 62.482.35 62.31 0 62.3c.227.025.444.139.624.327.065.09.123.19.173.296.057.107.514.887.586.764.108-.182-.338-.791-.43-.901zM3.5 62.3c-.169-.017-.317-.154-.385-.356a2.486 2.486 0 0 1-.12-.621c-.04-.36-.095-.716-.167-1.068a.891.891 0 0 1-.028-.221.779.779 0 0 1 .052-.214c.03-.113.069-.22.118-.32.1.148.128.478.17.67.05.24.098.477.14.719.024.12.206 1.411.22 1.411z" opacity=".1"/></g></g><g fill-rule="nonzero"><g fill="#007df6"><path d="M734.527 89.514h-25.01l-5.174 11.986H695l23.141-51.1h7.546l23.213 51.1h-9.27zm-3.09-7.177l-9.415-21.89-9.415 21.89zM788.1 65.334v36.291h-8.762v-5.82a11.611 11.611 0 0 1-4.7 4.706c-2.043 1.125-4.37 1.688-6.982 1.689-3.134 0-5.912-.766-8.334-2.3-2.422-1.532-4.298-3.712-5.628-6.54-1.33-2.825-1.994-6.107-1.994-9.844 0-3.737.677-7.055 2.03-9.953 1.354-2.899 3.241-5.15 5.663-6.756 2.422-1.604 5.177-2.407 8.263-2.407 2.611 0 4.938.563 6.981 1.689a11.617 11.617 0 0 1 4.701 4.707v-5.462zm-11.183 26.733c1.613-2.059 2.42-4.957 2.421-8.695 0-3.833-.807-6.779-2.421-8.84-1.615-2.059-3.919-3.089-6.91-3.09-2.945 0-5.237 1.067-6.874 3.199-1.638 2.132-2.458 5.09-2.458 8.875 0 3.736.82 6.611 2.458 8.623 1.638 2.012 3.953 3.018 6.945 3.018 2.944 0 5.224-1.03 6.839-3.09z"/></g><g transform="translate(837.8 355.6)"><path d="M12.99 25.9c-4.641 0-8.93-2.468-11.25-6.475s-2.32-8.943 0-12.95A12.996 12.996 0 0 1 12.99 0h118.22c7.175 0 12.99 5.798 12.99 12.95 0 7.152-5.815 12.95-12.99 12.95z" fill="#e6e6e6"/><path d="M12.686 2.1C6.453 2.1 1.4 7.114 1.4 13.3s5.053 11.2 11.286 11.2h118.128c6.233 0 11.286-5.014 11.286-11.2s-5.053-11.2-11.286-11.2z" fill="#fff"/><path d="M48.3 2.1h1v22.4h-1zm46.9 0h1v22.4h-1z" fill="#e6e6e6"/><path d="M48.3 2.1h46.9v22.4H48.3z" fill="#007df6"/><path d="M72.1 6.3a7 7 0 1 0 0 14 7 7 0 0 0 0-14zm0 2.1a2.1 2.1 0 1 1 0 4.2 2.1 2.1 0 0 1 0-4.2zm0 10.11a5.1 5.1 0 0 1-4.2-2.242c.034-1.4 2.8-2.17 4.2-2.17s4.166.77 4.2 2.17a5.108 5.108 0 0 1-4.2 2.242z" fill="#fff"/><path d="M25.2 6.3a7 7 0 1 0 0 14 7 7 0 0 0 0-14zm0 2.1a2.1 2.1 0 1 1 0 4.2 2.1 2.1 0 0 1 0-4.2zm0 10.11a5.1 5.1 0 0 1-4.2-2.242c.034-1.4 2.8-2.17 4.2-2.17s4.166.77 4.2 2.17a5.108 5.108 0 0 1-4.2 2.242zM119 6.3a7 7 0 1 0 0 14 7 7 0 0 0 0-14zm0 2.1a2.1 2.1 0 1 1 0 4.2 2.1 2.1 0 0 1 0-4.2zm0 10.11a5.1 5.1 0 0 1-4.2-2.242c.034-1.4 2.8-2.17 4.2-2.17s4.166.77 4.2 2.17a5.108 5.108 0 0 1-4.2 2.242z" fill="#e6e6e6"/><rect fill="#007df6" height="16.1" rx="4.2" width="16.1" x="64.4" y="35.7"/><rect fill="#e6e6e6" height="16.1" rx="4.2" width="16.1" x="111.3" y="35.7"/><path d="M113.4 37.1h11.9V49h-11.9zm-42.125 9.1L69.3 43.644l1.149-.899.935 1.21 3.16-3.355 1.056 1.007z" fill="#fff"/><path d="M118.175 46.2l-1.975-2.556 1.149-.899.935 1.21 3.16-3.355 1.056 1.007z" fill="#e6e6e6"/><rect fill="#e6e6e6" height="16.1" rx="4.2" width="16.1" x="16.8" y="35.7"/><path d="M19.6 37.1h11.9V49H19.6z" fill="#fff"/><path d="M25.075 46.2L23.1 43.644l1.149-.899.935 1.21 3.16-3.355 1.056 1.007z" fill="#e6e6e6"/></g></g></g></g></svg>