<svg height="690" viewBox="0 0 1440 690" width="1440" xmlns="http://www.w3.org/2000/svg" xmlns:xlink="http://www.w3.org/1999/xlink"><defs><path id="a" d="m0 0h1440v690h-1440z"/><linearGradient id="b" x1="49.991416%" x2="49.991416%" y1="100.005755%" y2="-.012249%"><stop offset="0" stop-color="#808080" stop-opacity=".25"/><stop offset=".54" stop-color="#808080" stop-opacity=".12"/><stop offset="1" stop-color="#808080" stop-opacity=".1"/></linearGradient><mask id="c" fill="#fff"><use fill="#fff" fill-rule="evenodd" xlink:href="#a"/></mask></defs><g fill="none" fill-rule="evenodd"><use fill="#fff" xlink:href="#a"/><path d="m0 0h1440v597h-1440z" fill="#f4f6f8" mask="url(#c)"/><ellipse cx="42.268781" cy="505.392523" fill="#dfe1e3" mask="url(#c)" opacity=".504063" rx="247.268781" ry="247.392523"/><ellipse cx="1212.26878" cy="125.392523" fill="#dfe1e3" mask="url(#c)" opacity=".504063" rx="247.268781" ry="247.392523"/><g mask="url(#c)"><g fill-rule="nonzero" transform="translate(315 66)"><ellipse cx="204.5" cy="583.5" fill="#007df6" opacity=".1" rx="204.5" ry="14.5"/><path d="m323.414508 503.537279c2.821158-5.052593 6.197143-9.814591 8.924262-14.932802 2.492023-4.687006 4.438622-9.655232 6.686144-14.473475 3.846178-8.24913 8.585723-16.048309 12.902094-24.072463 2.821158-5.258821 5.548277-10.986343 5.002853-16.929466-.517212-5.624408-3.827371-10.498894-5.106295-15.935821-5.209738-22.319524-17.745082-42.811114-25.390419-64.399465-1.956002-5.474423-3.855582-10.986342-6.300585-16.273285-4.70193-10.170803-11.284631-19.310465-17.867332-28.375135-2.372128-3.463172-5.013322-6.73538-7.899241-9.786469-2.360369-2.352877-5.012257-4.424534-7.156337-6.974265-4.419813-5.249447-6.488662-12.804901-12.018131-16.873222-.094039.243724-.197481.478074-.300924.721799-3.959024-10.077064-17.237273-16.723238-24.939033-25.075483-4.48358-5.100861-8.609113-10.503723-12.347266-16.170172l-16.76708-24.156829c-2.886985-4.162062-5.830393-8.436611-6.996471-13.395464-1.429387-5.98062-.103443-12.354948-1.514022-18.335568-.901995-3.600156-2.659847-6.931082-5.125103-9.711477.159866-.04687.329135-.112488.498405-.149984 3.197312-.853035 6.582701-1.003019 9.751801-1.762314 6.911837-1.640452 12.920902-6.046238 19.804527-7.808552 3.517043-.937402 7.269183-1.124882 10.457091-2.812204 3.178279-1.895742 4.801681-5.591374 4.043659-9.20528-2.228714-11.764385 3.99664-23.688129 2.943408-35.621247-.282116-3.299652-1.128463-6.514938-1.673887-9.786469-1.269521-7.5929496-1.034424-15.3733798-.583039-23.0788179 2.146124-3.4724432 4.720959-6.6626645 7.664145-9.4958744 4.231736-4.0683214 9.281608-7.4992099 12.225016-12.5892985 2.567253-4.5088999 3.187908-9.9552011 2.539042-15.1109079-.460789-3.7496049-1.739714-7.696064-4.70193-9.973949-2.962215-2.277885-7.212759-2.4466172-10.795629-1.2561177-.498405.1593582-.987406.3562125-1.467002.5624408-3.026369-1.509901-6.542335-1.7132747-9.72359-.5624408-3.573467 1.1811256-6.639125 3.5340027-9.516705 5.9806199-1.705538 1.3331694-3.201605 2.9129563-4.438622 4.6870061-1.814944 2.8122037-2.34156 6.2805882-3.028042 9.5896146-1.459722 6.3878455-3.587217 12.6055495-6.347605 18.5511703-.507808 1.0498894-1.880771 2.9340659-2.990427 4.7338762l-2.012426-.4124565c-.874558 8.3522449-7.889837 14.482849-12.159189 21.7008384-2.078253 3.5058806-3.535851 7.3398514-5.407219 10.9675944-2.135322 3.949034-4.519265 7.759376-7.137528 11.408173-2.539042 3.749605-5.081219 7.464838-7.62653 11.145701-3.189946 4.834334-6.643202 9.490823-10.344244 13.94853-3.451217-.28122-6.902433-.534319-10.344245-.590563-5.776938-.082531-11.546997.429503-17.218465 1.527964-.330592-1.98807-.534749-3.994988-.611251-6.008742 0-.121862 0-.243724 0-.365586 0-.487449.056423-1.068638.12225-1.696696 9.934782-6.632108 15.757458-17.884617 15.419517-29.798715-.337941-11.9140984-6.789154-22.8206677-17.084-28.8826024.186811-1.0537573.306168-2.1182961.357347-3.1871642 0-.6280588 0-1.2654917 0-1.8748025 0-.3187164 0-.6374328-.065827-.9374012-.058246-.6321752-.165138-1.2589543-.319732-1.8748024-.07523-.2999684-.159865-.5999368-.263308-.9374013-.200116-.58816-.461728-1.153711-.78052-1.6873222-.019687-.0327615-.041685-.0640871-.065827-.0937401-.12225-.1968543-.2445-.3937085-.385558-.5811888-.141058-.1874802-.12225-.1499842-.178673-.2249763-.099045-.137141-.205792-.2685872-.319732-.3937085l-.235096-.2437243c-.103443-.1124882-.206885-.2249763-.319731-.3280904l-.263308-.2343503-.329135-.2905944-.300924-.2249763-.338539-.2530983-.329135-.2156023-.338539-.2156023c-.112846-.0749921-.235096-.1406102-.357346-.2062283l-.347943-.1968542-.376155-.1874803-.347942-.1687322-.41377-.1781062-.338539-.1499842-.451385-.1687323-.319731-.1218621-.489001-.1687322-.29152-.0937402-.53602-.1687322-.253904-.0749921-.583039-.1593582-.225693-.0656181-.61125-.1499842-.178674-.04687-.677078-.1499842h-.112846l-.996809-.2156023c-4.11889-.8436611-8.262857-1.5717094-12.431901-2.1841449-3.413601-.5061966-6.911836-.9374012-10.278418-.1781062-4.645506 1.0311413-8.519896 4.1620614-12.8644785 6.102482-5.1345068 2.306007-10.8332452 2.9153178-16.306291 4.1808095-5.4730458 1.2654916-11.1059571 3.4308885-14.5383656 7.9022923-2.6142727 3.4121405-3.658101 7.7523082-4.4386213 11.9799877-6.5074702 35.2837826.5078084 71.4768436 1.8337525 107.3418146.5172122 13.957905-.1128463 28.881332-8.0497031 40.308253l23.1146847-.609311c1.1096554 0 2.2287145-.065618 3.3571776-.131236 1.128463-.065618 2.2569261-.149984 3.3665814-.28122 2.9314722-.273916 5.7793483-1.124611 8.3788381-2.502862 1.2037697-.68342 2.3027237-1.5358 3.263139-2.530983 3.1408892-3.22466 4.8147752-7.73356 6.3476042-12.045606.517213-1.452972 1.034425-2.924691 1.495214-4.405785.188077-.618685.36675-1.23737.526616-1.874803l.075231-.299968.263308.121862c.940386 1.762314 2.003022 3.487132 3.131485 5.155707 4.034255 5.924375 9.149954 10.986342 14.228038 16.020187 10.090341 9.983323 20.406374 20.144752 33.054564 26.556576 4.269351 2.146649 8.886646 3.955834 12.140381 7.49921 1.598656 1.715445 2.981023 3.918337 5.247353 4.5089 1.410579.365587 2.962216 0 4.306968.599937 1.97481.824913 2.698907 3.196538 3.611081 5.146333.912175 1.949794 2.97162 3.937085 4.927622 3.046554-.747989 3.693577.682995 7.48893 3.686313 9.777095.947316.524282 1.763776 1.254842 2.38858 2.137274.301154.804721.466394 1.653641.489001 2.512236.401904 2.394066 1.669835 4.558381 3.564062 6.083734-1.833752 3.027806-.36675 7.367973-.319731 11.1457 0 3.168416-1.043828 6.224344-1.758522 9.308394-2.078252 9.045922-.940385 18.513675.752309 27.634589.940386 5.033844 2.134676 10.245795 5.426027 14.154758 1.072039 1.265492 2.350964 2.362251 3.479427 3.590247 2.154129 2.419421 3.943911 5.138202 5.313181 8.071025 2.853998 5.807167 4.798098 12.01613 5.764565 18.41056.454294 3.208555 1.37289 6.334497 2.727119 9.280272 2.059445 4.480778.178673 9.992697 2.02183 14.567215.836943 2.052909 2.379176 3.805849 2.87758 5.952498.70529 3.121546-.940386 6.243092-1.382367 9.420882-1.07204 7.442966 4.316371 14.351613 4.805372 21.850823.080084.439905-.01432.893621-.263308 1.265491-.366751.412457-.996809.403083-1.495214.637433-.940386.449953-1.19429 1.715445-1.495213 2.765334-.300924 1.049889-1.147271 2.240389-2.191099 1.921672-15.45054 8.239757-31.446504 15.851455-46.897044 24.091212l-7.052894 3.749605-37.718877 20.088508c-.934409.462582-1.522177 1.416038-1.514021 2.455992 0 .449952.056423.937401.094038 1.359231-2.642484.656181-5.181526 1.443598-6.987067 1.771689-.742905.14061-1.485809.28122-2.21931.440578.178417-.284923.293829-.604496.338538-.937401.006366-.956756-.711025-1.764794-1.664483-1.874802-.921326-.090884-1.851273.031004-2.717715.356212-2.156105.587374-4.358188.991899-6.582701 1.209248-2.642484.253098-5.331988.243724-7.889837.937401-2.5578498.693677-5.078084 2.240389-6.1125084 4.687006-.5175271 1.415565-.7476775 2.91954-.6770779 4.424534-.0572809 5.794471.631694 11.572312 2.0500412 17.191938.0454979.452035.299171.857316.6864817 1.09676.3291351.131236.7240971 0 1.0532322.149984.2897045.174779.506665.447615.6112512.768669 1.579848 3.580873 1.946598 7.574202 2.369772 11.473791.626924 5.780641 1.419983 11.545658 2.379176 17.295053.564232 3.355896 1.260117 6.861777 3.451216 9.449004 2.407388 2.812204 6.215951 4.058947 9.89286 4.55577 7.758183 1.040515 15.591598-.524945 23.246339-2.127901 1.429386-.299968 2.962215-.665555 3.921409-1.771688.701365-.882884 1.037771-1.999559.940386-3.121546-.178674-3.852719-3.695717-6.561809-6.893029-8.727206l-4.36339-3.009058c-.766016-.405546-1.154477-1.280681-.940386-2.118526l.282116-5.690026h-.846348c.940386-4.012077 2.454407-7.864796 5.416623-10.620756 2.040637-1.874802 4.701929-3.187164 6.836605-4.893234 2.738799 2.099245 6.056421 3.312826 9.507301 3.477758 5.642316-7.574202 13.588576-12.729908 21.534837-17.810623 6.454051-4.064073 13.124959-7.775408 19.9832-11.117579 5.554545-2.737211 11.196861-5.302566 16.926945-7.696064 8.087319-3.393392 16.325099-6.421198 24.572283-9.374012 5.501257-1.968542 11.049534-3.908963 16.118214-6.814907 13.165402-7.583576 22.465818-22.722606 20.688489-37.880384-2.238118-19.122985 2.548446-39.052135 2.228715-58.306356-.094039-5.624407-.300924-11.248815-2.012426-16.638872.398132.281405.77241.594926 1.119059.937401 3.423005 3.187165 4.250544 8.249131 7.523087 11.886248 2.548446 2.859074 6.422836 4.687006 7.965068 8.174139 1.175483 2.671593 1.006213 6.280588 3.46062 7.817926.695886.440579 1.523425.628059 2.219311 1.059263.832513.591412 1.533619 1.347735 2.059445 2.221641 2.604869 3.702735 5.303776 7.667942 5.585892 12.186216.12225 1.790437-.047019 3.862093 1.269521 5.071341.376154.346838.855751.599937 1.053232 1.068637.41377.937402-.677078 1.931047-.865155 2.971562-.272712 1.443598 1.156675 2.540358 2.040638 3.749605 1.513371 2.069657 1.513371 4.876486 0 6.946143-7.711165 9.983323-9.102936 23.435031-15.845502 34.112031-2.332157 3.683987-4.927622 7.171119-7.184548 10.901976-6.940048 11.455043-10.447687 24.616157-13.851884 37.580416 1.454327 2.523902 3.424735 4.714812 5.783373 6.430572-1.274167 4.365455-3.470536 8.408651-6.441643 11.858126-.758343.84337-1.467915 1.729085-2.125272 2.652845-.551494-.696012-1.273787-1.238433-2.097061-1.574834-1.236631 5.381496-1.867452 10.883662-1.880772 16.404521 0 3.637117.498405 7.789805 3.46062 9.889583 1.182233.74249 2.482991 1.278261 3.846179 1.584209l6.451047 1.874802c1.134942.433728 2.366396.553568 3.564062.346838.761713-.215602 1.43879-.684302 2.219311-.834287.848078-.08737 1.704887.025011 2.501426.328091l5.576488 1.621704c1.88551.500409 3.728187 1.149254 5.510662 1.94042 1.589252.759295 3.056254 1.743567 4.617294 2.587228 2.595981 1.307603 5.290563 2.41085 8.059107 3.299652l9.610744 3.299652c2.677612 1.057936 5.476077 1.782095 8.331819 2.156023 1.97481.168733 3.977832 0 5.924431.337465 1.485809.253098 2.9246.787417 4.419813.942499 2.481361.068404 4.920791-.65453 6.958856-2.067381.796126-.448186 1.483262-1.065926 2.012425-1.809184 1.410579-2.193519.197481-5.090089-1.175482-7.302356-2.548446-4.105817-5.736354-7.949162-9.939879-10.311413-1.702098-.937401-3.545254-1.631078-5.303776-2.493487-5.002853-2.437244-8.7738-6.505565-13.503941-9.289647-1.24368-.882713-2.939222-.76899-4.053063.271847-3.930813-2.540358-8.181357-5.024471-10.344245-9.15841-.963596-1.99484-1.598649-4.131342-1.880772-6.327459 2.209907.524945 4.438622.937402 6.686144 1.302988 3.658101-14.13601 7.654741-28.525119 14.811077-41.273776zm-90.34287-399.79225c-.188077 1.059263-.394962 2.109152-.620655 3.159042-1.880772 8.802197-4.570275 18.663658-10.720399 25.216093-2.022873 1.920662-4.372971 3.46655-6.940048 4.565144l-.686481.337464c4.429217-11.792507 11.482111-22.722605 18.967583-33.277743z" fill="url(#b)"/><path d="m242.683477 52.5516812c.685509-3.2202515 1.204272-6.5973635 2.992151-9.3747152 1.222253-1.7462062 2.699052-3.3011461 4.381695-4.6135409 2.83467-2.3898142 5.863875-4.6873576 9.393317-5.8499699 3.529441-1.1626124 7.679545-1.005752 10.643905 1.2272019 2.96436 2.2329538 4.21495 6.0806469 4.678131 9.7530255.629927 5.0472138 0 10.362013-2.510442 14.7633311-2.871724 4.9918513-7.855555 8.3043737-12.042714 12.3089272-3.03351 2.8907793-5.671619 6.166876-7.84629 9.7437985-.989628 1.8643272-2.189284 3.6102777-3.57576 5.2040742-1.425794 1.6079524-3.532911 2.4467895-5.678602 2.260635-1.78788-.2860395-3.242269-1.5224685-4.631813-2.703535-1.713771-1.4947872-6.327056-4.1614139-6.484538-6.5327739-.111164-1.9192331 3.492387-6.2744157 4.372431-8.0736967 2.737932-5.7992238 4.852531-11.8705665 6.308529-18.1127618z" fill="#e1c4a7"/><path d="m242.683477 52.5516812c.685509-3.2202515 1.204272-6.5973635 2.992151-9.3747152 1.222253-1.7462062 2.699052-3.3011461 4.381695-4.6135409 2.83467-2.3898142 5.863875-4.6873576 9.393317-5.8499699 3.529441-1.1626124 7.679545-1.005752 10.643905 1.2272019 2.96436 2.2329538 4.21495 6.0806469 4.678131 9.7530255.629927 5.0472138 0 10.362013-2.510442 14.7633311-2.871724 4.9918513-7.855555 8.3043737-12.042714 12.3089272-3.03351 2.8907793-5.671619 6.166876-7.84629 9.7437985-.989628 1.8643272-2.189284 3.6102777-3.57576 5.2040742-1.425794 1.6079524-3.532911 2.4467895-5.678602 2.260635-1.78788-.2860395-3.242269-1.5224685-4.631813-2.703535-1.713771-1.4947872-6.327056-4.1614139-6.484538-6.5327739-.111164-1.9192331 3.492387-6.2744157 4.372431-8.0736967 2.737932-5.7992238 4.852531-11.8705665 6.308529-18.1127618z" fill="#000" opacity=".1"/><path d="m145 146.170509c7.448105-1.983739 15.1348-2.923798 22.840633-2.79334 12.856571.186223 26.094284 3.305452 38.33731-.642468 3.16057-1.097991 6.233923-2.433273 9.193889-3.994476 2.463479-1.229069 4.973438-2.495383 6.860556-4.506588 6.088976-6.461926 8.71049-16.192059 10.6162-24.879346 1.90571-8.687286 2.398406-17.6073508 2.891102-26.4808599 3.169986 1.48047 6.507302 2.9423178 10.021246 2.6443615 3.513943-.2979562 7.018591-2.9795623 6.999999-6.5177926-.520585 8.2217298-.929615 16.5458822.455511 24.66519.539176 3.221651 1.37583 6.396747 1.66401 9.655644 1.041169 11.769271-5.122177 23.529231-2.91899 35.140213.745769 3.571249-.86159 7.221716-3.997343 9.078354-3.16069 1.703937-6.879149 1.918093-10.355908 2.79334-6.814075 1.741182-12.763609 6.080169-19.605574 7.700306-3.188578.754202-6.507302.931114-9.6494 1.741182-4.517927 1.191825-8.617528 3.78032-13.219121 4.599699-3.44887.614535-6.999999.195534-10.486054.49349-3.030543.251401-6.00531 1.052158-9.04515 1.126648-7.436918.186222-14.474101-4.031721-19.419651-9.627711-4.94555-5.595991-8.078352-13.417342-11.183265-20.195846z" fill="#007df6"/><path d="m145 146.170509c7.448105-1.983739 15.1348-2.923798 22.840633-2.79334 12.856571.186223 26.094284 3.305452 38.33731-.642468 3.16057-1.097991 6.233923-2.433273 9.193889-3.994476 2.463479-1.229069 4.973438-2.495383 6.860556-4.506588 6.088976-6.461926 8.71049-16.192059 10.6162-24.879346 1.90571-8.687286 2.398406-17.6073508 2.891102-26.4808599 3.169986 1.48047 6.507302 2.9423178 10.021246 2.6443615 3.513943-.2979562 7.018591-2.9795623 6.999999-6.5177926-.520585 8.2217298-.929615 16.5458822.455511 24.66519.539176 3.221651 1.37583 6.396747 1.66401 9.655644 1.041169 11.769271-5.122177 23.529231-2.91899 35.140213.745769 3.571249-.86159 7.221716-3.997343 9.078354-3.16069 1.703937-6.879149 1.918093-10.355908 2.79334-6.814075 1.741182-12.763609 6.080169-19.605574 7.700306-3.188578.754202-6.507302.931114-9.6494 1.741182-4.517927 1.191825-8.617528 3.78032-13.219121 4.599699-3.44887.614535-6.999999.195534-10.486054.49349-3.030543.251401-6.00531 1.052158-9.04515 1.126648-7.436918.186222-14.474101-4.031721-19.419651-9.627711-4.94555-5.595991-8.078352-13.417342-11.183265-20.195846z" fill="#000" opacity=".1"/><g fill="#3f3d56" transform="translate(230)"><path d="m251.406331 157.291837c26.081151 0 49.594007 15.746466 59.573956 39.896441 9.979949 24.149974 4.461476 51.947207-13.982022 70.429176-18.443498 18.48197-46.179641 24.008719-70.274394 14.002992-24.094753-10.005728-39.802743-33.573341-39.798955-59.712691.005173-35.687905 28.872971-64.615918 64.481415-64.615918m0-15.959184c-32.521665 0-61.840862 19.634797-74.285489 49.748309-12.444628 30.113513-5.563795 64.775075 17.433835 87.821339s57.582818 29.938414 87.627832 17.462508c30.045013-12.475906 49.632676-41.862816 49.628888-74.457054-.051627-44.482615-36.021487-80.528543-80.405066-80.575102z"/><path d="m239.501061 122.482041h18.846108v19.883265h-18.846108z"/><path d="m285.491827 133.98804 18.857264.018566.019544 19.871522-18.857264-.018566z" transform="matrix(.8571673 .51503807 -.51503807 .8571673 116.256699 -131.341948)"/><path d="m318.552413 166.252984 18.878279.017833.018772 19.8494-18.878279-.017833z" transform="matrix(.48480962 .87461971 -.87461971 .48480962 323.079202 -196.106443)"/><path d="m319.014103 256.973412 18.876354-.0189-.019895 19.851427-18.876354.018899z" transform="matrix(-.52991926 .8480481 -.8480481 -.52991926 728.825533 129.78476)"/><path d="m165.387775 166.26454 18.878278-.017832-.018772 19.8494-18.878278.017832z" transform="matrix(-.48480962 .87461971 -.87461971 -.48480962 413.661531 108.695385)"/><path d="m164.930472 256.947205 18.876354.018899.019895 19.851426-18.876353-.018899z" transform="matrix(.52991926 .8480481 -.8480481 .52991926 308.301102 -22.425178)"/><path d="m198.45941 134.005238 18.857263-.018566-.019544 19.871522-18.857264.018566z" transform="matrix(-.8571673 .51503807 -.51503807 -.8571673 460.195038 160.240053)"/><path d="m239.501061 301.450204h18.846108v19.883265h-18.846108z"/><path d="m285.514039 289.960663 18.857263-.018566-.019544 19.871522-18.857264.018566z" transform="matrix(.8571673 -.51503807 .51503807 .8571673 -112.327234 194.735362)"/><path d="m198.442532 289.943423 18.857264.018566.019544 19.871522-18.857263-.018566z" transform="matrix(-.8571673 -.51503807 .51503807 -.8571673 231.615698 664.009652)"/><path d="m150.225587 213.956327h22.817653v16.897959h-22.817653z"/><path d="m329.769423 213.956327h22.817653v16.897959h-22.817653z" transform="matrix(-1 0 0 -1 682.3565 444.810612)"/><path d="m401.201043 40.9681633c26.08115 0 49.594006 15.7464665 59.573955 39.8964409 9.979949 24.1499748 4.461476 51.9472068-13.982022 70.4291768-18.443498 18.481969-46.17964 24.008719-70.274394 14.002991-24.094753-10.005727-39.802743-33.57334-39.798955-59.71269.005173-35.6879052 28.872971-64.6159187 64.481416-64.6159187m0-15.9591837c-32.521666 0-61.840863 19.6347967-74.28549 49.7483093-12.444627 30.1135131-5.563794 64.7750751 17.433836 87.8213391 22.997629 23.046264 57.582817 29.938413 87.627831 17.462507 30.045014-12.475905 49.632677-41.862816 49.628888-74.457053-.051627-44.4826152-36.021487-80.528543-80.405065-80.5751024z"/><path d="m389.295773 6.1677551h18.846108v19.8832653h-18.846108z"/><path d="m435.292685 17.6580653 18.857264.0185663.019544 19.8715218-18.857264-.0185663z" transform="matrix(.8571673 .51503807 -.51503807 .8571673 77.738794 -225.110817)"/><path d="m468.351698 49.925954 18.878279.0178324.018772 19.8493999-18.878279-.0178324z" transform="matrix(.48480962 .87461971 -.87461971 .48480962 298.512438 -387.054417)"/><path d="m468.80596 140.651755 18.876353-.0189-.019895 19.851427-18.876354.018899z" transform="matrix(-.52991926 .8480481 -.8480481 -.52991926 859.34862 -175.208682)"/><path d="m315.176279 49.9520798 18.878279-.0178325-.018772 19.8493999-18.878279.0178325z" transform="matrix(-.48480962 .87461971 -.87461971 -.48480962 534.339773 -195.014455)"/><path d="m314.721744 140.630625 18.876354.0189.019895 19.851426-18.876353-.0189z" transform="matrix(.52991926 .8480481 -.8480481 .52991926 280.07304 -204.133564)"/><path d="m348.254283 17.6782682 18.857263-.0185663-.019544 19.8715217-18.857264.0185663z" transform="matrix(-.8571673 .51503807 -.51503807 -.8571673 678.476359 -132.948655)"/><path d="m389.295773 185.126531h18.846108v19.883265h-18.846108z"/><path d="m435.308588 173.640287 18.857264-.018567-.019544 19.871522-18.857264.018566z" transform="matrix(.8571673 -.51503807 .51503807 .8571673 -31.022251 255.270905)"/><path d="m348.231097 173.616663 18.857264.018566.019544 19.871522-18.857263-.018566z" transform="matrix(-.8571673 -.51503807 .51503807 -.8571673 569.710834 525.118211)"/><path d="m300.010931 97.6326531h22.817654v16.8979589h-22.817654z"/><path d="m479.573501 97.6326531h22.817654v16.8979589h-22.817654z" transform="matrix(-1 0 0 -1 981.964656 212.163266)"/><path d="m101.574153 35.9926531h2.276145c35.162012 1.2018604 62.872313 30.4304134 62.274267 65.6862829-.598046 35.25587-29.283656 63.523504-64.466111 63.526778-.758715 0-1.51743 0-2.2855117 0-35.1638308-1.201925-62.8748139-30.433326-62.2741818-65.6909759.600632-35.2576504 29.2911174-63.5239298 64.4753925-63.522085m0-15.9591837c-43.8734763-.0054295-79.6517629 35.2393592-80.4031997 79.2042896-.7514368 43.96493 33.8014234 80.417171 77.6493447 81.917751.9366852 0 1.873371.046939 2.810056.046939 43.871647 0 79.645044-35.245843 80.393895-79.208983.74885-43.9631413-33.803315-80.4125306-77.649407-81.9130578-.936686 0-1.873371-.0469388-2.810056-.0469388z"/><path d="m92.7968829 1.1745603 18.8461591.00145949.001536 19.88321191-18.8461587-.0014595z" transform="matrix(.9993969 .03472507 -.03472507 .9993969 .447684 -3.542917)"/><path d="m138.353977 14.2615687 18.858576.0192067.020218 19.8701401-18.858576-.0192067z" transform="matrix(.83876561 .54449265 -.54449265 .83876561 37.009495 -76.569527)"/><path d="m170.283891 47.6574228 18.87949.017016.017912 19.8481251-18.879489-.017016z" transform="matrix(.454146 .89092727 -.89092727 .454146 149.416249 -128.69294)"/><path d="m167.616474 138.311184 18.87502-.019494-.020521 19.852831-18.87502.019493z" transform="matrix(-.5590482 .82913516 -.82913516 -.5590482 398.920621 84.301191)"/><path d="m17.2100542 42.3295891 18.8770139-.0185629-.0195408 19.8507311-18.8770139.0185628z" transform="matrix(-.51488846 .85725718 -.85725718 -.51488846 85.142775 56.310072)"/><path d="m12.2232511 134.427774 18.9427377.018231.0191917 19.918351-18.9427376-.018231z" transform="matrix(.49828388 .86701394 -.86701394 .49828388 136.082757 53.627976)"/><path d="m51.4010738 11.2253052 18.8559989-.0178363-.018776 19.8728533-18.8559989.0178363z" transform="matrix(-.87453508 .48496226 -.48496226 -.87453508 124.26695 10.15644)"/><path d="m86.6040007 180.016525 18.8461583.001459.001537 19.883212-18.8461589-.001459z" transform="matrix(.9993969 .03472507 -.03472507 .9993969 6.654249 -3.22001)"/><path d="m132.998252 170.149865 18.855999-.017836-.018776 19.872853-18.855999.017837z" transform="matrix(.87453508 -.48496226 .48496226 .87453508 -69.46241 91.660198)"/><path d="m45.9897599 167.082856 18.8585762.019207.0202186 19.87014-18.8585762-.019206z" transform="matrix(-.83876561 -.54449265 .54449265 -.83876561 5.531039 355.692903)"/><path d="m.46258285 89.5456611 22.81778245.0017671.0013057 16.8979138-22.81778245-.001767z" transform="matrix(.9993969 .03472507 -.03472507 .9993969 3.410061 -.35316)"/><path d="m179.919517 95.7685249 22.817715.001767.001306 16.8979141-22.817715-.001767z" transform="matrix(-.9993969 -.03472507 .03472507 -.9993969 378.923676 215.01779)"/></g><path d="m122.947164 510.787263c-2.267397.284758-4.465889.989905-6.488942 2.081271-2.745674 1.723405-4.43884 4.765262-5.646937 7.835372-3.029393 7.703526-3.660898 16.160454-3.78903 24.485537-.109827 6.70527.109827 13.570638 2.44365 19.823867.640127 1.979551 1.750654 3.763221 3.230743 5.18905 1.301997 1.053716 2.809931 1.805442 4.420535 2.203699 3.477854.941751 7.513995.941751 10.360343-1.318452 3.166678-2.552147 3.962923-7.044301 4.631037-11.122085.915225-5.499828 2.187387-11.301017 6.159462-15.133945 2.947024-2.825254 7.166209-4.237881 9.307835-7.741197 2.553477-4.162541 1.208097-9.596446-.421003-14.229863-1.418598-4.011861-3.496158-12.158011-7.57806-14.211029s-12.38299 1.346704-16.629633 2.137775z" fill="#e1c4a7"/><path d="m277.99226 531.824918c-1.264752 4.461547-3.507692 8.58709-6.566676 12.078384-1.876193 2.13313-4.174529 4.724697-3.189528 7.372399.400613.896318.996717 1.69219 1.74486 2.329603 13.752495 13.425624 32.992855 19.955998 52.08312 22.33238.30715.083088.630947.083088.938097 0 .562858-.252607.694191-.935583.769239-1.562424.304837-1.984335.304837-4.003401 0-5.987735-.938097-4.677918-5.018817-7.924394-9.015108-10.487893s-8.367821-5.052151-10.600491-9.23421c-2.81429-5.201844-1.604145-11.97547-4.915626-16.840504-2.682956-3.957519-7.664249-5.613502-12.392255-6.390036-1.641669-.252608-5.131388-2.048928-6.566676-1.216259-1.463431.842025-1.791765 5.978379-2.288956 7.606295z" fill="#e1c4a7"/><path d="m120.832276 511.919884c.006403-.96364-.715185-1.777491-1.674221-1.888291-.925994-.094888-1.861438.024654-2.733616.349334-2.169098.587972-4.384023.992241-6.621216 1.208506-2.657945.254919-5.372643.245477-7.954917.944145-2.5822738.698667-5.1077945 2.237624-6.1577301 4.720726-.5106903 1.418436-.7419433 2.922017-.6810393 4.428041-.0534532 5.795474.6395695 11.573773 2.0620357 17.192884.0506875.456076.3088434.863489.699957 1.104649.3310608.132181.7283337 0 1.0593945.151064.2907629.172419.5091619.444076.6148271.764757 1.5985501 3.587752 1.9674471 7.553162 2.3930961 11.480806.630592 5.784463 1.428291 11.550043 2.393097 17.29674.567532 3.351715 1.26749 6.873376 3.480867 9.441451 2.421473 2.832436 6.261778 4.050383 9.9602 4.55078 7.813034 1.03856 15.701739-.528721 23.420184-2.133768 1.471626-.146687 2.855778-.766255 3.944353-1.765551.705147-.882078 1.043778-2.000881.945888-3.125121-.179719-3.852112-3.726798-6.609016-6.942817-8.723902l-4.426756-2.974057c-.308844-.170373-.574242-.409437-.775628-.698667-.209814-.440647-.285458-.933067-.217554-1.416218l.283766-5.664871c-5.991307.094871-11.444164 3.473042-14.188318 8.789992-.614827 1.217947-1.191819 2.643606-2.468768 3.115679-1.579632.594811-3.338984-.736434-3.868681-2.332039-.368407-1.647651-.319644-3.36097.141883-4.985087 2.591733-13.860051 1.986365-28.107202 3.565997-42.118316.097639-1.572232.581682-3.096267 1.409373-4.437483.76617-1.057442 2.19446-1.982705 2.336343-3.276183z" fill="#3f3d56"/><path d="m313.168672 563.836302c.648767 1.057194 1.654828 1.854726 2.256584 2.949015s.592353 2.689354-.488927 3.310687c-.638267.277375-1.349066.348779-2.030926.20402-13.80509-1.689952-26.765318-7.47175-37.167823-16.581256-1.727168-1.439691-3.256951-3.095035-4.550778-4.9243-1.212914-1.854726-2.23778-4.03403-4.306315-4.794468-1.236319 5.2862-1.867097 10.692574-1.880487 16.117575 0 3.570348.498329 7.650747 3.460096 9.718767 1.187193.727077 2.490604 1.250705 3.854998 1.548697l6.459472 1.799085c1.139128.424531 2.372161.542945 3.572925.343124.761598-.20402 1.438573-.676975 2.218975-.816079.850293-.089123 1.709939.018845 2.51045.315303l5.575644 1.604339c1.88647.473667 3.731975 1.093846 5.519229 1.854726 1.589011.741891 3.065193 1.715622 4.616595 2.540976 2.601595 1.286973 5.30223 2.369174 8.076691 3.236498l9.816142 3.357055c2.68297 1.045032 5.487816 1.75533 8.349361 2.114388 1.974512.166926 3.97723 0 5.932936.333851 1.485585.250388 2.924158.778985 4.428547.927364 2.478824.066972 4.915176-.644179 6.957802-2.030926.796061-.438901 1.485837-1.043285 2.021523-1.771264 1.410365-2.160757.197451-5.007762-1.184707-7.187066-2.54806-4.024757-5.735485-7.799125-9.947775-10.098986-1.711243-.927364-3.554121-1.613613-5.312376-2.457513-5.002095-2.392598-8.791276-6.389534-13.520701-9.125255-4.466156-2.559523-7.343301 4.108219-5.237155 7.511643z" fill="#3f3d56"/><path d="m175 169.852517c-5.182048 3.494294-11.119507 5.76085-17.345309 6.621371-3.256604.397947-6.5377.570517-9.818986.51643-13.68235-.016135-27.340213-1.13576-40.835705-3.347573 5.374603-5.809838 10.805582-11.988555 12.835153-19.605898 1.005707-4.018025 1.213071-8.188616.61075-12.283657-.813865-5.25359-2.090258-10.428041-3.81484-15.465235 5.756217.302955 11.527841.158024 17.260743-.433432 3.269863-.322769 11.27539-3.246132 14.094238-1.03286 2.640321 2.056498.648335 9.332628.601354 12.689424v.359656c.147813 5.09559 1.266437 10.118968 3.298052 14.810476 4.13431 9.074413 12.976095 16.52576 23.11455 17.171298z" fill="#e1c4a7"/><path d="m149.24009 137.49776c-8.393103 5.336711-18.746645 6.881854-28.397026 4.23792-.819886-5.248409-2.105722-10.417756-3.843064-15.449981 5.798805.302655 11.613129.157868 17.388446-.433005 3.294055-.322451 11.35881-3.24293 14.198513-1.031841 2.707183 2.054469.70046 9.323423.653131 12.676907z" fill="#000" opacity=".1"/><circle cx="130.5" cy="106.5" fill="#e1c4a7" r="34.5"/><path d="m275 282.338187c.037692 5.599985-2.910013 10.803593-7.753048 13.685876-2.658837 1.383902-5.50847 2.372705-8.457473 2.934684-15.7309 3.726583-31.847086 6.791698-48.000859 5.878685-3.495756-.195646-7.047895-.60557-10.186557-2.124153-3.138662-1.518582-5.816862-4.360102-6.286722-7.788558-.021048-.848306-.189536-1.686656-.498051-2.478178-.622567-.87373-1.439176-1.594077-2.386887-2.105519-2.964434-2.257432-4.372147-5.992339-3.627316-9.6239-1.964014.86643-4.012602-1.090026-4.933526-3.018533-.920925-1.928506-1.644509-4.257621-3.61792-5.068152-1.343798-.568304-2.894335-.232912-4.313311-.596254-2.264723-.57762-3.646111-2.794937-5.243633-4.453266-3.260826-3.456406-7.884245-5.245166-12.15057-7.369318-12.658019-6.325875-22.976136-16.350383-33.078118-26.207195-5.083881-4.965672-10.205351-9.968609-14.236747-15.837977-1.13706-1.649013-2.161354-3.344608-3.129265-5.086786-3.056266-5.809505-5.706252-11.820357-7.9312301-17.990079-1.2780182-3.298026-2.5748307-6.782381-2.048588-10.248103.046986-.31676.1127664-.633519.1879439-.931646.6548408-2.251856 1.7115046-4.369115 3.1198682-6.251343 3.495755-5.096102 8.081585-9.922027 14.095788-11.487192 6.014204-1.565165 12.01901.326076 18.127185 1.611747 2.028247.447459 4.084638.758715 6.155161.931646 6.474666.456506 12.883551-1.267038 19.142081-2.981266l6.822362-1.863292c3.420578-.931646 5.130867-5.030887 8.589034-5.748254 1.54492-.220398 3.118309-.141297 4.632816.232911 7.019702 1.322937 14.095788 3.027849 20.269744 6.568103 1.374528.791053 2.690346 1.678371 3.937424 2.65519 4.397886 3.447089 7.874847 8.040103 9.152865 13.406382 1.409579 5.897318.084575 12.195243 1.512948 18.092561 1.165252 4.872507 4.11597 9.120811 7.010306 13.229369l16.792783 23.775599c3.748161 5.595116 7.876843 10.930297 12.357308 15.968408 9.00251 9.717065 25.748307 17.06775 25.974204 30.287803z" fill="#007df6"/><path d="m231.692741 52.5516812c.685508-3.2202515 1.195008-6.5973635 2.982887-9.3747152 1.222253-1.7462062 2.699052-3.3011461 4.381695-4.6135409 2.843933-2.3898142 5.863875-4.6873576 9.393317-5.8499699 3.529441-1.1626124 7.679545-1.005752 10.643905 1.2272019 2.96436 2.2329538 4.21495 6.0806469 4.678131 9.7530255.629927 5.0472138 0 10.362013-2.510442 14.7633311-2.871724 4.9918513-7.855555 8.3043737-12.042714 12.3089272-3.030511 2.8935147-5.668288 6.1691979-7.84629 9.7437985-.989628 1.8643272-2.189284 3.6102777-3.57576 5.2040742-1.425794 1.6079524-3.532911 2.4467895-5.678602 2.260635-1.778616-.2860395-3.242269-1.5224685-4.631813-2.703535-1.713771-1.4947872-6.33632-4.1614139-6.484538-6.5327739-.111164-1.9192331 3.492387-6.2744157 4.372431-8.0736967 2.736836-5.8005934 4.854385-11.8714897 6.317793-18.1127618z" fill="#e1c4a7"/><path d="m350.954858 450.085253c-4.318187 7.947004-9.049419 15.688078-12.898239 23.869093-2.24358 4.783179-4.186765 9.706765-6.683804 14.358898-2.722336 5.073352-6.073625 9.791008-8.917997 14.808198-7.162559 12.645939-11.152189 26.911233-14.841424 40.961236-10.319536-1.541122-20.248242-5.036063-29.251029-10.296472-.610179-.355696-1.192196-.730113-1.755437-1.132611-2.407367-1.720171-4.420144-3.931382-5.904653-6.486778 3.407613-12.851868 6.909101-25.919027 13.846363-37.273227 2.262355-3.744171 4.853268-7.160728 7.181335-10.811295 6.749515-10.577284 8.138845-23.925256 15.845872-33.828589 1.511779-2.049043 1.511779-4.840233 0-6.889276-.8918-1.151332-2.309292-2.246503-2.046446-3.669288.197135-1.039007 1.286069-1.97505.863638-2.948535-.197135-.468021-.675891-.720753-1.051385-1.057728-1.314231-1.207495-1.145259-3.26679-1.257907-5.035911-.291008-4.483645-2.985182-8.424386-5.632419-12.084313-.528063-.867664-1.227503-1.619236-2.055833-2.209061-.694665-.42122-1.520753-.608428-2.215418-1.039008-2.45949-1.53511-2.28113-5.110794-3.463938-7.759795-1.539528-3.49144-5.416509-5.269922-7.960485-8.106132-3.238641-3.603765-4.064729-8.630315-7.509892-11.784779-.347446-.340443-.720939-.653402-1.117097-.936043 1.708501 5.288642 1.877473 10.93298 1.999509 16.502436.328558 19.085914-4.458998 38.845779-2.215418 57.810007 1.764824 15.042209-7.509892 30.056337-20.69914 37.572761-5.069177 2.883012-10.607723 4.81126-16.108718 6.76759-8.251494 2.911093-16.474826 5.915791-24.566735 9.285545-5.720034 2.358828-11.352453 4.901745-16.897257 7.62875-6.854448 3.317299-13.525894 6.998094-19.9857 11.026585-7.941711 5.03591-15.883421 10.156065-21.525228 17.672489-5.454059-.149767-10.448137-3.416556-13.902687-7.628749-3.454551-4.212193-5.632419-9.360429-7.613153-14.377619-1.755438-4.352599-3.482713-8.845605-3.614136-13.53518.047969-1.028301.683006-1.938092 1.633402-2.340107l37.709045-19.928353 7.049911-3.744171c15.442215-8.171654 31.438285-15.72552 46.880501-23.887814 1.041997.308894 1.877473-.87052 2.187256-1.872086s.525692-2.293305 1.501978-2.742606c.488143-.23401 1.126484-.22465 1.492591-.636509.238564-.368467.332174-.811837.262847-1.244937-.497531-7.488343-5.885878-14.293374-4.806331-21.678753.459981-3.145104 2.083995-6.243406 1.379942-9.360428-.49753-2.143538-2.037058-3.875218-2.872533-5.906431-1.877473-4.539808 0-10.006298-2.027671-14.452502-1.347406-2.923529-2.264315-6.025769-2.722336-9.210662-.971095-6.343029-2.915117-12.499323-5.763842-18.252836-1.371026-2.909151-3.157538-5.604876-5.303861-8.003166-1.135872-1.216856-2.412553-2.302666-3.4921-3.566323-3.276191-3.875218-4.487161-9.042175-5.41651-14.040643-1.689726-9.051535-2.816209-18.440045-.750989-27.407336.71344-3.06086 1.802374-6.093639 1.755437-9.229382-.046937-4.14667-1.877473-8.986012 1.013836-11.981349 1.197552-1.071922 2.652775-1.816793 4.224314-2.162259 6.646254-1.975051 13.564742-2.873652 20.445681-3.744172l31.49461-4.109228c3.604748-.477382 7.293982-.936043 10.476299-2.723885 4.271251-2.349467 7.106235-6.702067 8.842898-11.232514 5.529158 4.024984 7.594378 11.522688 12.00644 16.717726 2.149706 2.536676 4.80633 4.58661 7.162559 6.917356 2.88097 3.025748 5.520585 6.271201 7.894774 9.706765 6.571156 8.995372 13.142311 18.056267 17.835994 28.146809 2.450102 5.24184 4.34635 10.708331 6.298922 16.14674 7.688251 21.4073 20.220384 41.728791 25.420984 63.856844 1.276682 5.410328 4.590421 10.296472 5.106727 15.828485.582016 5.868989-2.14032 11.541409-4.965917 16.764528z" fill="#3f3d56"/><g fill="#000"><path d="m186.199013 271.396471c-.794743 1.413488-1.207028 2.996581-1.198895 4.603529.725138-3.441021 5.64641-5.347533 5.965471-8.751355.145027-1.571709-.154697-1.497309-1.160222-.669604-1.527624 1.274108-2.194751 3.468922-3.606354 4.81743z" opacity=".1"/><path d="m200.874087 281.114714c-.991002.855183-1.731353 1.973668-2.139251 3.23187-.798046 1.771778-.951708 3.776269-.433383 5.653416.691568-.329783.922091-1.19664 1.134172-1.950429.339609-1.174183.83277-2.296151 1.466124-3.335515.553255-.942237 3.107447-3.043423 3.098251-4.032771-.027688-1.517-2.443566-.103646-3.125913.433429z" opacity=".1"/><path d="m204 165.554062c-2.203045 1.877475-4.631514 3.478691-7.230408 4.767385-6.790215 3.403949-14.310963 5.203312-21.148007 8.505236-3.372944 1.711714-6.649557 3.60352-9.815372 5.667066l-20.323816 12.753216c-1.632795.926188-3.137595 2.057883-4.476859 3.36685-2.444477 2.578468-2.435111 7.113976-4.682906 9.877946-2.247795 2.763969-6.125242 4.322181-9.862202 4.508239-3.743339.021408-7.461608-.606425-10.986099-1.85557-2.134536-.632354-4.229825-1.388021-6.275095-2.263117-2.138974-.899081-4.163472-2.044727-6.031584-3.413224-3.6245698-2.70832-6.5560694-6.650223-7.0992866-11.13008-.2441936-3.074124.1674521-6.164734 1.2081899-9.071015.5626187-1.890727 1.2863878-3.730712 2.1635029-5.500115.4995658-1.006456 1.0756618-1.973849 1.7233098-2.893821 4.682907-6.548197 12.896725-9.618244 20.848301-11.13008 4.177153-.806931 8.429232-1.298509 12.653214-2.003414 2.021474.445471 4.070999.755343 6.134608.927506 6.453045.454479 12.84053-1.261409 19.078162-2.968021l6.79958-1.855013c3.409156-.927507 5.113734-5.008536 8.560354-5.722716 1.539762-.219419 3.107896-.14067 4.617346.231876 6.996263 1.31706 14.04872 3.014397 20.20206 6.538922 1.376953.79275 2.694674 1.68235 3.943007 2.661944z" opacity=".1"/></g><path d="m218.6147 75c-.871238 8.3196729-7.869248 14.4301672-12.178598 21.6217489-2.070361 3.4876821-3.522425 7.3137911-5.386687 10.9236831-2.13638 3.93585-4.514219 7.734799-7.119796 11.374921l-7.616307 11.092897c-4.477977 6.524127-9.002794 13.10466-14.726735 18.566502-9.977082 1.701537-18.342842 9.137539-27.804676 12.747431-7.569467 2.886033-15.822809 3.280865-23.767002 4.83199-7.944193 1.551126-16.178798 4.700381-20.8441381 11.280913-1.7372297 2.595401-3.0526649 5.451201-3.8971512 8.460684-1.047056 2.940862-1.4558889 6.072269-1.1991235 9.184543.5714573 4.531167 3.4662163 8.517089 7.0916908 11.280913 3.625475 2.763823 7.96293 4.399555 12.309752 5.753265 3.526542 1.261585 7.244946 1.897791 10.988843 1.880509 3.74726-.188372 7.55073-1.636089 9.874032-4.569126 2.323302-2.933038 2.210884-7.398399 4.684076-10.01181 1.342976-1.326799 2.851259-2.473798 4.487345-3.412476l20.32889-12.926046c3.164419-2.078398 6.4387-3.983276 9.808455-5.706261 6.838751-3.356072 14.361377-5.170419 21.153287-8.620498 6.791911-3.450079 13.115413-9.14694 14.473795-16.667548 4.140724-23.107069 20.07595-42.585444 33.725348-61.668988-.449671-.0940076-.309149-1.1186905-.477776-1.5511254-1.742476-4.5311665-5.620891-7.9436426-9.98645-10.0964167s-9.236998-2.7544228-13.921074-3.7697049z" fill="#007df6"/><path d="m147.934812 74.0333816c.254523-2.5123869-.239838-5.0439846-1.420667-7.2751631-2.267423-3.7695146-7.01866-5.0982685-11.29007-5.9841045-4.13342-.8481407-8.285656-1.5769136-12.45671-2.1863184-3.424654-.4994607-6.933984-.9423787-10.302188-.1696282-4.704196 1.0271927-8.533411 4.1464661-12.8894961 6.0877661-5.14639 2.2994039-10.8478751 2.9025262-16.3423756 4.1747374s-11.1207184 3.4302583-14.5641896 7.8971331c-2.6155328 3.3925631-3.6598642 7.7275049-4.4407607 11.9493612-6.5200151 35.2355378.4986447 71.3757588 1.8346363 107.1861478.5174615 13.93778-.1129007 28.836786-8.0629913 40.286687l23.1540508-.612546c5.9272865-.150781 12.2967674-.461766 16.9351043-4.127619 4.1020589-3.222935 6.0401869-8.415441 7.7995559-13.334657 1.383034-3.873177 2.775476-7.821743 2.954235-11.930514.366927-8.415442-4.403127-16.680102-2.822517-24.963611 1.157232-6.182004 5.645035-11.17661 10.452723-15.238262 4.807687-4.061652 10.151654-7.53903 14.037319-12.514789 6.943393-8.792393 8.269976-20.80772 7.404404-31.974907-.517461-6.64377-1.702919-13.287539-1.129007-19.931309.432786-4.9663352 2.003988-10.0928751 5.249883-13.9660513 3.650455-4.3914845 5.579176-7.1432302 5.899061-13.3723531z" fill="#3f3d56"/><path d="m146.522675 67.9309269c-2.228819-3.7091829-6.855735-5.045995-11.097074-5.9309269 2.254685.8031344 4.183995 2.3243916 5.492111 4.330518 1.184637 2.227368 1.679042 4.7577069 1.420049 7.267739-.319746 6.213352-2.247627 8.9622896-5.934113 13.3587068-3.244483 3.8692237-4.815001 8.9811179-5.247599 13.9517992-.573663 6.63699.611279 13.273979 1.128516 19.910969.865195 11.155791-.460811 23.158857-7.39178 31.942278-3.89338 4.933025-9.235022 8.472752-14.031215 12.502017s-9.300853 9.047017-10.457582 15.222712c-1.5517093 8.275056 3.216271 16.531282 2.82129 24.938136-.178682 4.104578-1.579922 8.049115-2.962354 11.918339-1.7492001 4.914196-3.6958902 10.09199-7.7961649 13.311636-4.70215 3.662112-11.0312438 3.982193-16.9277398 4.13282l-16.3916947.433052c-.3667677.602507-.7429397 1.205014-1.1473246 1.779278l23.143982-.611921c5.9247089-.150627 12.2914199-.461294 16.9277398-4.123406 4.1002752-3.219646 6.0375602-8.406854 7.7961642-13.32105 1.382432-3.869224 2.774269-7.813761 2.952951-11.918339.366767-8.406854-4.401213-16.663081-2.82129-24.938136 1.156728-6.175695 5.64258-11.165205 10.448177-15.222712s10.147239-7.531336 14.031215-12.502017c6.940373-8.783421 8.26638-20.786487 7.401184-31.942278-.517236-6.63699-1.702178-13.273979-1.128516-19.910969.432598-4.9612673 2.003116-10.0825756 5.2476-13.9517994 3.686485-4.387003 5.642579-7.1359406 5.934113-13.3587067.257291-2.5088845-.233572-5.0378446-1.410645-7.267739z" fill="#000" opacity=".1"/><path d="m319 429.657394-43.010688 103.342606c-2.441882-1.724132-4.483518-3.940437-5.989312-6.501718 3.456471-12.881471 7.008162-25.978727 14.044889-37.359079 2.294792-3.752796 4.922853-7.177222 7.284299-10.836197 6.846288-10.601648 8.255538-23.980364 16.073066-33.906508 1.533455-2.053762 1.533455-4.851381 0-6.905144-.904586-1.153984-2.342402-2.251677-2.075787-3.677739.199961-1.041401 1.304509-1.9796.87602-2.955327-.199961-.469099-.685581-.722413-1.066459-1.060164-1.333074-1.210277-1.161679-3.274314-1.275942-5.04751-.295181-4.493973-3.027983-8.44379-5.713176-12.112148-.535634-.869663-1.245102-1.622965-2.085309-2.214149-.704625-.42219-1.542557-.609829-2.247182-1.041401-2.494753-1.538646-2.313836-5.122566-3.513603-7.777669-1.561601-3.499481-5.49417-5.282059-8.074621-8.124802-3.285076-3.612066-4.123008-8.650194-7.617567-11.811924l-.295181-.731795 3.35173-19.936726z" fill="#000" opacity=".1"/></g></g></g></svg>