<svg height="500" viewBox="0 0 1442 500" width="1442" xmlns="http://www.w3.org/2000/svg" xmlns:xlink="http://www.w3.org/1999/xlink"><defs><path id="a" d="m.846819 0h1440v500h-1440z"/><mask id="b" fill="#fff"><use fill="#fff" fill-rule="evenodd" xlink:href="#a"/></mask></defs><g fill="none" fill-rule="evenodd" transform="translate(.153181)"><use fill="#f4f6f8" xlink:href="#a"/><g fill-rule="nonzero"><g fill="#dbe9f7" mask="url(#b)" opacity=".7"><g transform="translate(-99 -40)"><path d="m1528.87528 409.033511-164.6661 78.022939 145.73665-109.099246c-23.68625-37.013669-50.29532-72.068789-79.57205-104.829185l-714.136707 177.705754 645.066747-246.352963c-29.47731-26.038008-60.78176-49.92621-93.67249-71.48081l-1088.176245 175.477713c-115.5367542 144.643833-178.51930301 324.316437-178.60826609 509.522287h1638.00000109c-.06635-143.636049-38.00125-284.709863-109.97154-408.966489z"/><path d="m1178.84682 82.5639696c-111.70816-54.4991035-234.391141-82.73918655-358.677891-82.5639696-252.954761 0-479.109526 114.732554-629.32211 295 257.224794-56.375882 705.073691-153.965746 988.000001-212.4360304z"/></g></g><g mask="url(#b)"><g transform="translate(438.846819 31)"><path d="m549.847582 438.437593h-531.7814569c-9.84774294 0-17.83091589-7.984008-17.83091589-17.832782 192.77067879-22.405987 381.91844379-22.405987 567.44329579 0 0 9.848775-7.983179 17.832782-17.830923 17.832782z" fill="#ccc"/><path d="m567.678505 421.653778-567.44329579-1.048988 65.76469329-110.668262.3146505-.524494v-243.9002788c-.0004995-5.9788623 2.3741245-11.7129893 6.6013763-15.9406834 4.2272517-4.227694 9.9607788-6.602067 15.9390155-6.602067h387.0571832c5.978236 0 11.711763 2.374373 15.939015 6.602067 4.227252 4.2276941 6.601876 9.9618211 6.601376 15.9406834v245.5786048z" fill="#c4c4c4"/><path d="m88.3410034 58.703832c-4.0530717.0045466-7.3376016 3.2894202-7.3421477 7.3429159v222.3855191c.0047272 4.053421 3.2891512 7.338188 7.3421477 7.342916h391.2317006c4.052923-.004905 7.337243-3.289569 7.342148-7.342916v-222.3855191c-.004724-4.0534222-3.28915-7.3381921-7.342148-7.3429159z" fill="#fff"/><path d="m90.9122073 325.146854c-1.2281549.002086-2.3435085.716691-2.8588083 1.831633l-20.2641465 44.05751c-.4483092.974295-.3695818 2.109857.2088851 3.012953.5784668.903095 1.5770112 1.449378 2.6494077 1.449378h426.1443027c1.090558 0 2.103334-.564823 2.676557-1.492677.573222-.927854.62513-2.086407.137182-3.061816l-22.026472-44.05751c-.530062-1.068486-1.621104-1.742961-2.813739-1.739471z" fill="#e6e6e6"/><ellipse cx="282.383536" cy="50.311921" fill="#fff" rx="4.719952" ry="4.720446"/><path d="m240.497021 383.890203c-1.421975.001792-2.666609.955721-3.038057 2.328469l-5.083066 18.881784c-.254744.945354-.054975 1.955433.540443 2.732611.595419.777178 1.518633 1.232855 2.497613 1.232855h96.668399c1.017819 0 1.97275-.492463 2.562978-1.321757.590228-.829295.742813-1.892931.409529-2.854737l-6.53501-18.881784c-.43915-1.267101-1.632611-2.116961-2.97353-2.117441z" fill="#e6e6e6"/><path d="m498.452756 305.740225v4.19664h-432.4528249l.3250981-.524938v-3.671702z" fill="#e6e6e6"/><path d="m445.074594 315.35237c-.34627.000435-.649357.232729-.739813.567012l-1.237807 4.598006c-.062025.230208-.013374.476174.13162.665426.144993.189252.369806.300223.6082.300223h23.540212c.247854 0 .480393-.119923.624121-.32187.143729-.201946.180884-.460957.099723-.69517l-1.591369-4.597999c-.106942-.308558-.397568-.515511-.724103-.515628z" fill="#e6e6e6"/><path d="m410.702987 315.35237c-.346271.000435-.649358.232729-.739813.567012l-1.237808 4.598006c-.062024.230208-.013373.476174.13162.665426s.369806.300223.608201.300223h23.540211c.247854 0 .480393-.119923.624122-.32187.143728-.201946.180884-.460957.099723-.69517l-1.59137-4.597999c-.106941-.308558-.397568-.515511-.724102-.515628z" fill="#e6e6e6"/><path d="m29.0180578 101.384429c-1.1858956.001294-2.1482255.96243-2.1482255 2.14845v88.80261c0 1.18602.9623299 2.147156 2.1482255 2.14845h205.5135702c1.185895-.001294 2.148225-.96243 2.148225-2.14845v-88.80261c0-1.18602-.96233-2.147156-2.148225-2.14845z" fill="#453b69"/><g fill="#fff"><ellipse cx="84.509872" cy="147.934184" rx="20.852896" ry="20.855078"/><path d="m131.574227 145.159446c-1.330909.021881-2.398365 1.107141-2.398365 2.43837 0 1.331228 1.067456 2.416489 2.398365 2.438369h65.840003c.871503.015002 1.684739-.436368 2.133087-1.183927.448347-.747559.463617-1.67761.04005-2.439486-.423566-.761877-1.221547-1.239705-2.093073-1.253326-.02669-.000453-.053378-.000453-.080064 0z"/><path d="m131.574227 131.03181c-1.330909.021881-2.398365 1.107141-2.398365 2.43837 0 1.331228 1.067456 2.416489 2.398365 2.438369h32.878999c.87152.015027 1.684783-.436338 2.133146-1.183908.448362-.74757.46363-1.677641.040047-2.439528s-1.221592-1.239709-2.093136-1.253303c-.026685-.000453-.053371-.000453-.080057 0z"/><path d="m131.574227 159.959826c-1.330909.021881-2.398365 1.107141-2.398365 2.43837 0 1.331228 1.067456 2.416489 2.398365 2.438369h65.840003c.871503.015002 1.684739-.436368 2.133087-1.183927.448347-.747559.463617-1.677609.04005-2.439486-.423566-.761877-1.221547-1.239705-2.093073-1.253326-.02669-.000477-.053378-.000477-.080064 0z"/></g><path d="m631.0639 170.831672-168.811517-23.404558c-2.740283-.383305-4.653375-2.912443-4.276752-5.653933l18.977345-136.90768599c.383151-2.74063616 2.912105-4.65398961 5.653342-4.2771992l168.811503 23.40456529c2.740351.3831873 4.653507 2.9124087 4.276751 5.6539333l-18.97733 136.9076856c-.383261 2.740571-2.912139 4.653863-5.653342 4.277192z" fill="#453b69"/><path d="m570.588209 128.104619-86.182845-11.948671c-.108105-.01356-.214731-.037054-.318525-.070183l50.548125-64.959295c.630563-.8250682 1.656253-1.2469871 2.684783-1.1043894s1.900779.827651 2.283146 1.7931539l20.787175 51.1777465.996253 2.449083z" fill="#fff"/><path d="m618.574196 134.757545-74.54109-10.334611 17.353215-18.980842 1.249022-1.367474 22.613087-24.7359097c.790204-.75154 1.862318-1.1321754 2.949465-1.047156 1.087147.0850195 2.087069.6276967 2.750859 1.4929451.082638.1203108.157524.2457673.224203.3756064z" fill="#fff"/><ellipse cx="571.636336" cy="60.288042" fill="#fff" rx="12.889353" ry="12.890702"/><path d="m485.485932 11.112663 15.604466 2.163518-2.163292 15.6060991-15.604466-2.163518z" fill="#fff"/></g></g><g mask="url(#b)"><g transform="translate(969.846819 186)"><path d="m54.0304915 7.88736264c-9.7212742 0-17.6019201 8.86666176-17.6019201 19.80423606v13.8963134h4.2156026l2.4405967-5.1486969-.6101578 5.1486969h27.0963008l2.2187215-4.6806322-.5546705 4.6806322h3.0507496v-10.9110765c0-12.5862559-9.068589-22.78947296-20.2552228-22.78947296z" fill="#2f2e41"/><g fill="#ffb8b8"><path d="m53.5714286 216.543956 8.4015198 21.477218 10.1699087 5.053002-7.9590366-26.53022z"/><path d="m98.5714286 218.040417 12.7109344 25.750792 6.57478-3.927829-9.642602-26.187556z"/><ellipse cx="51.071429" cy="25.45467" rx="11.785714" ry="11.831044"/><path d="m48.5714286 34.9567255s4.4217699 11.4432288 1.7687079 14.5240993c-2.6530619 3.0808705 16.8027206-4.8413665 16.8027206-4.8413665s-8.4013654-10.1228594-7.9591858-14.5240737z"/><path d="m63.7830785 43.3642994 6.4163313-1.2939993 6.4163314-7.7639856s2.9942843-10.783309 6.8440841-13.8026374v-1.2939942s-19.6767468-12.93997282-25.6653254-12.50864307c0 0-20.1045046 6.03865667-16.2546948 0 1.0827537-1.69837187 2.9437438-3.05555061 5.0595568-4.12911444 6.1425276-3.04729634 13.2601522-3.4024104 19.6709979-.98142964l27.8833643 10.28653625c1.2627736 3.0700678 1.106022 6.5474216-.4277577 9.4893097-2.5665316 5.1759921-11.5493945 31.9186022-11.5493945 31.9186022-2.1197181 4.3397627-3.9767274 8.8050446-5.5608208 13.3713025-2.1387887 6.4699864-3.8497998 10.783314-3.8497998 10.783314l-36.3592093-.4313347 2.9942843-13.3713026s-2.9942843-5.6073218-7.2718419-6.0386566c0 0-30.79838842-12.0773083-32.08165668-19.4099592 0 0-.42775277-2.5879936 1.28326826-3.8819928 1.71102103-1.2939993 20.96001502-22.4292825 20.96001502-22.4292825s8.5551102-11.2146438 12.8326627-7.76398573c4.2775526 3.45065808-7.6995996 12.07730823-7.6995996 12.07730823s-12.4049049 18.9786295-14.115906 20.2726238c0 0 11.9771521 7.3326509 15.3991942 8.1953154s11.5493944 0 15.3991942 3.4506631c3.4565098.9627914 7.1510056.497117 10.2661312-1.2939993 5.1330332-3.0193283 9.4105908-3.4506581 9.4105908-3.4506581z"/></g><path d="m45.4439035 46.7466354-6.440379 17.1957446s-5.5816622 5.1587233-3.4348675 17.1957495c0 0 .8587169 11.1772389-1.7174337 14.6163878-2.5761507 3.4391489-38.21291828 42.5594857-4.2936094 125.0990687 0 0 22.7560296-4.298936 39.930347 3.009258s45.5120391-7.73804 45.5120391-7.73804l-44.6532973-110.052825s-1.2880728-22.784394 6.0110231-33.1018207l-4.7229453-3.869045s-5.5816621-13.7566006-4.7229452-18.0555367c0 0 1.7174337-8.5978773 2.5761506-9.4576645h-3.4348675l-4.7229453 11.1772389s-7.7284568 14.6163879-14.1688109 13.3267045c-6.440354-1.2896833-1.2880728-10.3174467-1.2880728-10.3174467l2.1468047-8.5978772z" fill="#1580f2"/><path d="m71.9909379 239.638024s-9.7164434-3.937453-10.4186559-2.816244c-.7022125 1.121208-4.1240167 7.901335-4.1240167 7.901335s-13.2594935 13.560247-2.5663531 15.255277c10.6931404 1.695031 11.9763195-4.2376 11.9763195-4.2376s.427723-.423755 2.13864-.423755 8.5545103-2.542551 8.1267873-3.813821c-.4277231-1.27127-5.1327211-11.865192-5.1327211-11.865192z" fill="#2f2e41"/><path d="m118.203941 236.620879s-8.797312 2.160425-9.216234 3.888745-3.351356 13.394561-.837839 14.258731c2.513517.864171 6.283795 2.160426 7.540556 1.728331s4.189195 5.617075 10.47299 4.320825 9.216234-2.160425 8.797312-2.592495-2.09461-6.913326-7.121634-9.505821-9.635151-12.098316-9.635151-12.098316z" fill="#2f2e41"/><path d="m58.676942 13.1195694c-1.7527228-2.3557761-4.5017995-3.75991997-7.4361185-3.79814083h-.3527881c-6.8022926 0-12.3166068 6.16085733-12.3166068 13.76067503v.0000302h2.2792827l.3680974-2.8043526.5397003 2.8043526h13.5182102l1.1325705-2.3725189-.2831515 2.3725189h2.659388c1.2409787 6.1685894-.5421025 12.3371822-5.3492436 18.5057783h4.5302569l2.2651159-4.745073-.5662727 4.745073h8.6357741l1.6988432-10.9136927c0-8.1733477-4.7446625-15.1041805-11.323058-17.55465z" fill="#2f2e41"/></g></g><g mask="url(#b)"><g transform="translate(362.846819 99)"><path d="m29.3659459 24-3.3659459 16.4703084 15.7070273 11.5296916 7.2929727-21.4119823z" fill="#9f616a"/><circle cx="41.5" cy="24.5" fill="#9f616a" r="15.5"/><path d="m8.90735752 140.153766c.06892063 4.936049 21.24631568 59.871311 18.30593178 67.024575-4.6350005 4.809688-14.6049385 30.409425-18.86447038 37.238632-.55784542-.000349-3.34881892 8.499342-3.34881892 8.499342s6.698331 10.766284 13.9548514 6.233104c9.124368-21.785128 31.9754552-33.935466 32.3792206-62.329146 1.1029502 8.969481 4.3588128 66.543265 4.3588128 66.543265s-.6244876.269182 13.4337715 1.636462c2.1825473-33.415224 11.1017548-90.264709-8.8662515-125.980019-6.1393357-2.832737-51.35304728 1.133785-51.35304728 1.133785z" fill="#1580f2"/><path d="m55.841186 262c-.651962 1.299809-5.327509 13.297681-1.0727438 14.500684 4.9067324 1.387333 9.6631493-.556554 9.6631493-.556554s8.589466 2.78277 13.846144-.753919c2.4533663-2.543452 1.8957811-4.855671.7248543-6.532034-1.204155-1.671647-3.0581231-2.707672-5.0670226-2.831529-2.6675661-.197187-3.5147021-.709757-3.8202724-1.97688-.4460778-1.849768-14.2741088-1.849768-14.2741088-1.849768z" fill="#2f2e41"/><path d="m9.93868556 253s-12.14116617 3.806074-9.58512918 8.24646c1.66000872 2.752095 4.08386843 4.970923 6.98137379 6.390829 0 0 2.53216962 10.362711 9.56126723 10.362711 3.514576 0 4.7126859-1.98233 5.0321898-3.96466.292443-2.002724-.319709-4.031547-1.6730534-5.544913-1.7744612-2.031995-2.0271159-2.985909-1.370527-4.072238.9585119-1.585856-8.94612124-11.418189-8.94612124-11.418189z" fill="#2f2e41"/><path d="m63 143.762932s-2.2543951 4.566507-11.261137 2.852006c-9.0067419-1.709006-44.47011064 0-44.47011064 0s1.96717647-40.812811-2.53619447-65.3598464c-4.50337094-24.5470349 13.22831341-38.5323055 13.22831341-38.5323055l5.6305685-5.7095073c5.6305685-.566005 17.5203349 17.1505028 17.5203349 17.1505028 3.9126761.6649185 7.5652296 17.5296712 10.6812805 33.4877167.1842535.9122023.3576685 1.8134143.5310835 2.7146262 1.436093 7.4404937 3.4357848 15.7217525 4.6334322 23.1567505.0867075.527539.1679958 1.049582.2438648 1.571626 1.4236805 9.654811 3.3593409 19.224826 5.7985643 28.668431z" fill="#e6e6e6"/><path d="m23.8807509 15.0919026s-2.8786259-6.35448171 4.605808-9.242887c0 0 6.3329792-10.39825684 18.998932-3.46607643 0 0 8.6358832 3.46607643 8.6358832 12.70896343s2.8786259 10.9759225 2.8786259 10.9759225-4.286775-4.4127706-5.4382242-7.878836c-1.1514493-3.4660654-10.10636-4.2524343-13.5607023-.7863523-3.4543423 3.4660819-12.090231 2.8883997-12.090231 2.8883997l.5757274 12.7089635s-2.8786314-7.5098405-4.0300807-7.5098405c-1.1514492 0-2.3029095-10.3982569-.5757383-10.3982569z" fill="#2f2e41"/><path d="m57 112c-13.3985838-7.386546-35.1023431-23.5854002-42.1044279-32.3483552-9.22977507-11.5431917.8380874-20.3171141.8380874-20.3171141 11.4142092-7.3042904 25.0615157 17.7562255 25.0615157 17.7562255l11.0519392 9.0919771c.1838386.9102944.3568631 1.8096215.5298875 2.7089485 1.4328753 7.4249154 3.4280639 15.6888532 4.6229981 23.1083182z" fill="#000" opacity=".2"/><path d="m98 104.498962s19.431046 8.542717 22.629167-1.060437c3.198121-9.6031542-15.341127-9.4383435-15.341127-9.4383435l-7.2782032 1.1168665z" fill="#9f616a"/><path d="m12.7628074 56.4678945s-10.12838236 8.7819714-.8452745 20.3251776c9.2831079 11.5432062 51.9458506 36.2069279 51.9458506 36.2069279l27.7896015-7.57244 7.8643017 1.450583 1.4827133-14.8825225-11.5856645 1.1399809-29.4100774-6.3120457-18.7536869-15.3381836s-17.0024089-22.3202759-28.4877638-15.0174776z" fill="#e6e6e6"/><path d="m49.4224806 161 1.5775194 41-4-41z" fill="#000" opacity=".2"/></g></g></g></g></svg>