<svg height="70" viewBox="0 0 72 70" width="72" xmlns="http://www.w3.org/2000/svg"><path d="m49.63 61.93c2.85-5.37 5.84-13.5 6.24-24.43h10.43c-.88 10.74-7.45 19.88-16.67 24.43zm-10.71-24.43h11.94c-.57 14.31-6.06 23.35-8.75 26.95-1.04.21-2.11.36-3.19.43zm-18.269 23c-.221-.12-.431-.26-.641-.4l-6.98.95-6.79.92 1.38-7.09 1.47-7.54c-.23-.49-.439-.98-.63-1.48-1.03-2.63-1.69-5.43-1.92-8.36h10.43c.4 10.93 3.39 19.06 6.25 24.43-.88-.43-1.74-.9-2.569-1.43zm2.559-52.43c-2.85 5.37-5.84 13.5-6.24 24.43h-10.43c.88-10.74 7.45-19.88 16.67-24.43zm10.71 24.43h-11.94c.57-14.31 6.06-23.35 8.75-26.95 1.04-.21 2.11-.36 3.19-.43zm32.38 0h-10.43c-.4-10.93-3.39-19.06-6.24-24.43 9.22 4.55 15.79 13.69 16.67 24.43zm-27.38-27.38c1.09.07 2.15.22 3.2.43h.01c2.69 3.58 8.16 12.56 8.73 26.95h-11.94zm-5 32.38v27.38c-1.09-.07-2.15-.22-3.2-.43h-.01c-2.69-3.58-8.16-12.56-8.73-26.95zm11.01-36.46c-.42-.1-.84-.2-1.26-.29-2.34-.49-4.76-.75-7.25-.75s-4.91.26-7.25.75c-.42.09-.84.19-1.26.29-15.22 3.8-26.49 17.57-26.49 33.96 0 4.55.87 8.91 2.46 12.9l-3.88 19.96 18.901-2.56c2.779 1.62 5.809 2.86 9.009 3.66.42.1.84.2 1.26.29 2.34.49 4.76.75 7.25.75s4.91-.26 7.25-.75c.42-.09.84-.19 1.26-.29 15.221-3.8 26.49-17.57 26.49-33.96s-11.269-30.16-26.49-33.96z" fill="#fff" fill-rule="evenodd"/></svg>