<?xml version="1.0" encoding="UTF-8"?>
<svg width="72px" height="70px" viewBox="0 0 72 70" version="1.1" xmlns="http://www.w3.org/2000/svg" xmlns:xlink="http://www.w3.org/1999/xlink">
    <!-- Generator: Sketch 50.2 (55047) - http://www.bohemiancoding.com/sketch -->
    <title>Icon</title>
    <desc>Created with Sketch.</desc>
    <defs></defs>
    <g id="Desktop" stroke="none" stroke-width="1" fill="none" fill-rule="evenodd">
        <g id="Timify" transform="translate(-1084.000000, -2829.000000)" fill="#FFFFFF">
            <g id="Details" transform="translate(80.000000, 2592.000000)">
                <g id="Molecules/Cards/Features" transform="translate(960.000000, 192.000000)">
                    <g id="icon">
                        <g id="Atoms/Icons/80/White/Localization" transform="translate(40.000000, 40.000000)">
                            <g id="icon" transform="translate(4.000000, 5.000000)">
                                <path d="M49.63,61.93 C52.48,56.56 55.47,48.43 55.87,37.5 L66.3,37.5 C65.42,48.24 58.85,57.38 49.63,61.93 Z M38.92,37.5 L50.86,37.5 C50.29,51.81 44.8,60.85 42.11,64.45 C41.07,64.66 40,64.81 38.92,64.88 L38.92,37.5 Z M20.651,60.5 C20.43,60.38 20.22,60.24 20.01,60.1 L13.03,61.05 L6.24,61.97 L7.62,54.88 L9.09,47.34 C8.86,46.85 8.651,46.36 8.46,45.86 C7.43,43.23 6.77,40.43 6.54,37.5 L16.97,37.5 C17.37,48.43 20.36,56.56 23.22,61.93 C22.34,61.5 21.48,61.03 20.651,60.5 Z M23.21,8.07 C20.36,13.44 17.37,21.57 16.97,32.5 L6.54,32.5 C7.42,21.76 13.99,12.62 23.21,8.07 Z M33.92,32.5 L21.98,32.5 C22.55,18.19 28.04,9.15 30.73,5.55 C31.77,5.34 32.84,5.19 33.92,5.12 L33.92,32.5 Z M66.3,32.5 L55.87,32.5 C55.47,21.57 52.48,13.44 49.63,8.07 C58.85,12.62 65.42,21.76 66.3,32.5 Z M38.92,5.12 C40.01,5.19 41.07,5.34 42.12,5.55 L42.13,5.55 C44.82,9.13 50.29,18.11 50.86,32.5 L38.92,32.5 L38.92,5.12 Z M33.92,37.5 L33.92,64.88 C32.83,64.81 31.77,64.66 30.72,64.45 L30.71,64.45 C28.02,60.87 22.55,51.89 21.98,37.5 L33.92,37.5 Z M44.93,1.04 C44.51,0.94 44.09,0.84 43.67,0.75 C41.33,0.26 38.91,0 36.42,0 C33.93,0 31.51,0.26 29.17,0.75 C28.75,0.84 28.33,0.94 27.91,1.04 C12.69,4.84 1.42,18.61 1.42,35 C1.42,39.55 2.29,43.91 3.88,47.9 L0,67.86 L18.901,65.3 C21.68,66.92 24.71,68.16 27.91,68.96 C28.33,69.06 28.75,69.16 29.17,69.25 C31.51,69.74 33.93,70 36.42,70 C38.91,70 41.33,69.74 43.67,69.25 C44.09,69.16 44.51,69.06 44.93,68.96 C60.151,65.16 71.42,51.39 71.42,35 C71.42,18.61 60.151,4.84 44.93,1.04 Z" id="Fill-1"></path>
                            </g>
                        </g>
                    </g>
                </g>
            </g>
        </g>
    </g>
</svg>