<svg height="63" viewBox="0 0 37 63" width="37" xmlns="http://www.w3.org/2000/svg"><path d="m37 41.687234c0 3.6191671-1.3127478 6.6909449-3.9382826 9.2154256-2.6255349 2.5244807-6.4314003 4.0547845-11.4177102 4.5909574v7.506383h-5.4275492v-7.4393617c-3.2653712-.2234054-6.35418941-.8265908-9.26654745-1.8095745-2.91235803-.9829836-5.22897171-2.2340349-6.94991055-3.7531915l2.97853309-6.7691489c1.63268557 1.3404322 3.61835444 2.4686124 5.95706619 3.3845745 2.33871172.915962 4.76564042 1.4856372 7.28085872 1.7090425v-13.4042553c-3.1329913-.7595783-5.7474553-1.5973358-7.84347052-2.5132979-2.09601525-.915962-3.85002276-2.2563741-5.26207514-4.0212766-1.41205238-1.7649024-2.11806797-4.0994535-2.11806797-7.0037234 0-3.619167 1.30171626-6.7021149 3.90518783-9.2489361 2.60347157-2.54682128 6.3762424-4.06595503 11.3184258-4.55744684v-7.57340426h5.4275492v7.4393617c2.4710916.13404323 4.8869887.55850707 7.2477638 1.27340426s4.4236644 1.65318564 6.1887299 2.81489364l-2.7137746 6.7691489c-3.3536244-1.9659673-6.9278284-3.1723382-10.7227191-3.6191489v13.5382978c3.1771178.7595783 5.8136448 1.5861658 7.9096601 2.4797873 2.0960152.8936215 3.8610542 2.2228635 5.2951699 3.9877659 1.4341157 1.7649025 2.1511628 4.0994536 2.1511628 7.0037234zm-27.4686941-20.7095744c0 1.4744754.5736377 2.6585061 1.7209302 3.5521276 1.1472926.8936215 2.8020167 1.6531884 4.9642219 2.2787234v-11.9297872c-2.2504585.3574486-3.9272456 1.0723351-5.0304115 2.1446809-1.1031659 1.0723457-1.6547406 2.3904177-1.6547406 3.9542553zm12.1127013 27.2106383c2.3387117-.3574486 4.0706562-1.0499949 5.1958855-2.0776596 1.1252292-1.0276647 1.6878354-2.3010562 1.6878354-3.8202128 0-1.5191565-.5957007-2.7366975-1.7871199-3.6526595-1.1914192-.9159621-2.8902692-1.686699-5.096601-2.3122341z" fill="#fff" fill-rule="evenodd"/></svg>