<svg width="49" height="49" viewBox="0 0 49 49" fill="none" xmlns="http://www.w3.org/2000/svg">
<path d="M30.7964 5.23728C27.9136 8.6587 24.5651 12.7264 23.2526 17.953L22.9185 22.1014H31.0776C32.6245 19.367 35.85 12.6768 38.4604 9.7368C41.0709 6.79678 39.1815 4.06579 38.2495 3.26933C35.8589 1.5573 33.4444 2.09452 30.7964 5.23728Z" fill="url(#paint0_radial_74_26)"/>
<path d="M30.7964 5.23728C27.9136 8.6587 24.5651 12.7264 23.2526 17.953L22.9185 22.1014H31.0776C32.6245 19.367 35.85 12.6768 38.4604 9.7368C41.0709 6.79678 39.1815 4.06579 38.2495 3.26933C35.8589 1.5573 33.4444 2.09452 30.7964 5.23728Z" fill="url(#paint1_radial_74_26)"/>
<path d="M30.7964 5.23728C27.9136 8.6587 24.5651 12.7264 23.2526 17.953L22.9185 22.1014H31.0776C32.6245 19.367 35.85 12.6768 38.4604 9.7368C41.0709 6.79678 39.1815 4.06579 38.2495 3.26933C35.8589 1.5573 33.4444 2.09452 30.7964 5.23728Z" fill="url(#paint2_radial_74_26)"/>
<path d="M30.7964 5.23728C27.9136 8.6587 24.5651 12.7264 23.2526 17.953L22.9185 22.1014H31.0776C32.6245 19.367 35.85 12.6768 38.4604 9.7368C41.0709 6.79678 39.1815 4.06579 38.2495 3.26933C35.8589 1.5573 33.4444 2.09452 30.7964 5.23728Z" fill="url(#paint3_radial_74_26)"/>
<path d="M30.7964 5.23728C27.9136 8.6587 24.5651 12.7264 23.2526 17.953L22.9185 22.1014H31.0776C32.6245 19.367 35.85 12.6768 38.4604 9.7368C41.0709 6.79678 39.1815 4.06579 38.2495 3.26933C35.8589 1.5573 33.4444 2.09452 30.7964 5.23728Z" fill="url(#paint4_radial_74_26)"/>
<path d="M30.7964 5.23728C27.9136 8.6587 24.5651 12.7264 23.2526 17.953L22.9185 22.1014H31.0776C32.6245 19.367 35.85 12.6768 38.4604 9.7368C41.0709 6.79678 39.1815 4.06579 38.2495 3.26933C35.8589 1.5573 33.4444 2.09452 30.7964 5.23728Z" fill="url(#paint5_radial_74_26)"/>
<path d="M30.7964 5.23728C27.9136 8.6587 24.5651 12.7264 23.2526 17.953L22.9185 22.1014H31.0776C32.6245 19.367 35.85 12.6768 38.4604 9.7368C41.0709 6.79678 39.1815 4.06579 38.2495 3.26933C35.8589 1.5573 33.4444 2.09452 30.7964 5.23728Z" fill="url(#paint6_radial_74_26)"/>
<path d="M30.7964 5.23728C27.9136 8.6587 24.5651 12.7264 23.2526 17.953L22.9185 22.1014H31.0776C32.6245 19.367 35.85 12.6768 38.4604 9.7368C41.0709 6.79678 39.1815 4.06579 38.2495 3.26933C35.8589 1.5573 33.4444 2.09452 30.7964 5.23728Z" fill="url(#paint7_radial_74_26)"/>
<path d="M30.7964 5.23728C27.9136 8.6587 24.5651 12.7264 23.2526 17.953L22.9185 22.1014H31.0776C32.6245 19.367 35.85 12.6768 38.4604 9.7368C41.0709 6.79678 39.1815 4.06579 38.2495 3.26933C35.8589 1.5573 33.4444 2.09452 30.7964 5.23728Z" fill="url(#paint8_radial_74_26)"/>
<path d="M30.7964 5.23728C27.9136 8.6587 24.5651 12.7264 23.2526 17.953L22.9185 22.1014H31.0776C32.6245 19.367 35.85 12.6768 38.4604 9.7368C41.0709 6.79678 39.1815 4.06579 38.2495 3.26933C35.8589 1.5573 33.4444 2.09452 30.7964 5.23728Z" fill="url(#paint9_radial_74_26)"/>
<path d="M30.7964 5.23728C27.9136 8.6587 24.5651 12.7264 23.2526 17.953L22.9185 22.1014H31.0776C32.6245 19.367 35.85 12.6768 38.4604 9.7368C41.0709 6.79678 39.1815 4.06579 38.2495 3.26933C35.8589 1.5573 33.4444 2.09452 30.7964 5.23728Z" fill="url(#paint10_radial_74_26)"/>
<path d="M30.7964 5.23728C27.9136 8.6587 24.5651 12.7264 23.2526 17.953L22.9185 22.1014H31.0776C32.6245 19.367 35.85 12.6768 38.4604 9.7368C41.0709 6.79678 39.1815 4.06579 38.2495 3.26933C35.8589 1.5573 33.4444 2.09452 30.7964 5.23728Z" fill="url(#paint11_radial_74_26)"/>
<path d="M30.7964 5.23728C27.9136 8.6587 24.5651 12.7264 23.2526 17.953L22.9185 22.1014H31.0776C32.6245 19.367 35.85 12.6768 38.4604 9.7368C41.0709 6.79678 39.1815 4.06579 38.2495 3.26933C35.8589 1.5573 33.4444 2.09452 30.7964 5.23728Z" fill="url(#paint12_radial_74_26)"/>
<path d="M30.7964 5.23728C27.9136 8.6587 24.5651 12.7264 23.2526 17.953L22.9185 22.1014H31.0776C32.6245 19.367 35.85 12.6768 38.4604 9.7368C41.0709 6.79678 39.1815 4.06579 38.2495 3.26933C35.8589 1.5573 33.4444 2.09452 30.7964 5.23728Z" fill="url(#paint13_radial_74_26)"/>
<path d="M9.32471 31.8712L9.04346 24.1998V21.8673H31.1714C31.187 20.6017 28.1953 15.6161 24.2808 11.0495C21.1253 7.36838 22.2959 4.16596 23.9995 3.05743C26.543 1.40238 28.9917 3.03433 30.2808 4.62774C31.5698 6.22115 33.6587 8.74529 35.9761 13.0654C38.1617 17.1399 39.4917 21.8673 39.4917 25.6984C39.4917 30.3147 39.8667 33.76 37.6401 37.885C34.7834 43.1776 29.109 45.5595 23.8121 45.5595C15.0934 45.5595 9.60596 39.3516 9.32471 31.8712Z" fill="#FFC650"/>
<path d="M9.32471 31.8712L9.04346 24.1998V21.8673H31.1714C31.187 20.6017 28.1953 15.6161 24.2808 11.0495C21.1253 7.36838 22.2959 4.16596 23.9995 3.05743C26.543 1.40238 28.9917 3.03433 30.2808 4.62774C31.5698 6.22115 33.6587 8.74529 35.9761 13.0654C38.1617 17.1399 39.4917 21.8673 39.4917 25.6984C39.4917 30.3147 39.8667 33.76 37.6401 37.885C34.7834 43.1776 29.109 45.5595 23.8121 45.5595C15.0934 45.5595 9.60596 39.3516 9.32471 31.8712Z" fill="url(#paint14_radial_74_26)"/>
<path d="M9.32471 31.8712L9.04346 24.1998V21.8673H31.1714C31.187 20.6017 28.1953 15.6161 24.2808 11.0495C21.1253 7.36838 22.2959 4.16596 23.9995 3.05743C26.543 1.40238 28.9917 3.03433 30.2808 4.62774C31.5698 6.22115 33.6587 8.74529 35.9761 13.0654C38.1617 17.1399 39.4917 21.8673 39.4917 25.6984C39.4917 30.3147 39.8667 33.76 37.6401 37.885C34.7834 43.1776 29.109 45.5595 23.8121 45.5595C15.0934 45.5595 9.60596 39.3516 9.32471 31.8712Z" fill="url(#paint15_radial_74_26)"/>
<path d="M9.32471 31.8712L9.04346 24.1998V21.8673H31.1714C31.187 20.6017 28.1953 15.6161 24.2808 11.0495C21.1253 7.36838 22.2959 4.16596 23.9995 3.05743C26.543 1.40238 28.9917 3.03433 30.2808 4.62774C31.5698 6.22115 33.6587 8.74529 35.9761 13.0654C38.1617 17.1399 39.4917 21.8673 39.4917 25.6984C39.4917 30.3147 39.8667 33.76 37.6401 37.885C34.7834 43.1776 29.109 45.5595 23.8121 45.5595C15.0934 45.5595 9.60596 39.3516 9.32471 31.8712Z" fill="url(#paint16_radial_74_26)"/>
<path d="M9.32471 31.8712L9.04346 24.1998V21.8673H31.1714C31.187 20.6017 28.1953 15.6161 24.2808 11.0495C21.1253 7.36838 22.2959 4.16596 23.9995 3.05743C26.543 1.40238 28.9917 3.03433 30.2808 4.62774C31.5698 6.22115 33.6587 8.74529 35.9761 13.0654C38.1617 17.1399 39.4917 21.8673 39.4917 25.6984C39.4917 30.3147 39.8667 33.76 37.6401 37.885C34.7834 43.1776 29.109 45.5595 23.8121 45.5595C15.0934 45.5595 9.60596 39.3516 9.32471 31.8712Z" fill="url(#paint17_radial_74_26)"/>
<path d="M9.32471 31.8712L9.04346 24.1998V21.8673H31.1714C31.187 20.6017 28.1953 15.6161 24.2808 11.0495C21.1253 7.36838 22.2959 4.16596 23.9995 3.05743C26.543 1.40238 28.9917 3.03433 30.2808 4.62774C31.5698 6.22115 33.6587 8.74529 35.9761 13.0654C38.1617 17.1399 39.4917 21.8673 39.4917 25.6984C39.4917 30.3147 39.8667 33.76 37.6401 37.885C34.7834 43.1776 29.109 45.5595 23.8121 45.5595C15.0934 45.5595 9.60596 39.3516 9.32471 31.8712Z" fill="url(#paint18_radial_74_26)"/>
<path d="M9.32471 31.8712L9.04346 24.1998V21.8673H31.1714C31.187 20.6017 28.1953 15.6161 24.2808 11.0495C21.1253 7.36838 22.2959 4.16596 23.9995 3.05743C26.543 1.40238 28.9917 3.03433 30.2808 4.62774C31.5698 6.22115 33.6587 8.74529 35.9761 13.0654C38.1617 17.1399 39.4917 21.8673 39.4917 25.6984C39.4917 30.3147 39.8667 33.76 37.6401 37.885C34.7834 43.1776 29.109 45.5595 23.8121 45.5595C15.0934 45.5595 9.60596 39.3516 9.32471 31.8712Z" fill="url(#paint19_radial_74_26)"/>
<path d="M9.32471 31.8712L9.04346 24.1998V21.8673H31.1714C31.187 20.6017 28.1953 15.6161 24.2808 11.0495C21.1253 7.36838 22.2959 4.16596 23.9995 3.05743C26.543 1.40238 28.9917 3.03433 30.2808 4.62774C31.5698 6.22115 33.6587 8.74529 35.9761 13.0654C38.1617 17.1399 39.4917 21.8673 39.4917 25.6984C39.4917 30.3147 39.8667 33.76 37.6401 37.885C34.7834 43.1776 29.109 45.5595 23.8121 45.5595C15.0934 45.5595 9.60596 39.3516 9.32471 31.8712Z" fill="url(#paint20_radial_74_26)"/>
<path d="M9.32471 31.8712L9.04346 24.1998V21.8673H31.1714C31.187 20.6017 28.1953 15.6161 24.2808 11.0495C21.1253 7.36838 22.2959 4.16596 23.9995 3.05743C26.543 1.40238 28.9917 3.03433 30.2808 4.62774C31.5698 6.22115 33.6587 8.74529 35.9761 13.0654C38.1617 17.1399 39.4917 21.8673 39.4917 25.6984C39.4917 30.3147 39.8667 33.76 37.6401 37.885C34.7834 43.1776 29.109 45.5595 23.8121 45.5595C15.0934 45.5595 9.60596 39.3516 9.32471 31.8712Z" fill="url(#paint21_radial_74_26)"/>
<path d="M9.32471 31.8712L9.04346 24.1998V21.8673H31.1714C31.187 20.6017 28.1953 15.6161 24.2808 11.0495C21.1253 7.36838 22.2959 4.16596 23.9995 3.05743C26.543 1.40238 28.9917 3.03433 30.2808 4.62774C31.5698 6.22115 33.6587 8.74529 35.9761 13.0654C38.1617 17.1399 39.4917 21.8673 39.4917 25.6984C39.4917 30.3147 39.8667 33.76 37.6401 37.885C34.7834 43.1776 29.109 45.5595 23.8121 45.5595C15.0934 45.5595 9.60596 39.3516 9.32471 31.8712Z" fill="url(#paint22_radial_74_26)"/>
<path d="M9.32471 31.8712L9.04346 24.1998V21.8673H31.1714C31.187 20.6017 28.1953 15.6161 24.2808 11.0495C21.1253 7.36838 22.2959 4.16596 23.9995 3.05743C26.543 1.40238 28.9917 3.03433 30.2808 4.62774C31.5698 6.22115 33.6587 8.74529 35.9761 13.0654C38.1617 17.1399 39.4917 21.8673 39.4917 25.6984C39.4917 30.3147 39.8667 33.76 37.6401 37.885C34.7834 43.1776 29.109 45.5595 23.8121 45.5595C15.0934 45.5595 9.60596 39.3516 9.32471 31.8712Z" fill="url(#paint23_radial_74_26)"/>
<path d="M9.32471 31.8712L9.04346 24.1998V21.8673H31.1714C31.187 20.6017 28.1953 15.6161 24.2808 11.0495C21.1253 7.36838 22.2959 4.16596 23.9995 3.05743C26.543 1.40238 28.9917 3.03433 30.2808 4.62774C31.5698 6.22115 33.6587 8.74529 35.9761 13.0654C38.1617 17.1399 39.4917 21.8673 39.4917 25.6984C39.4917 30.3147 39.8667 33.76 37.6401 37.885C34.7834 43.1776 29.109 45.5595 23.8121 45.5595C15.0934 45.5595 9.60596 39.3516 9.32471 31.8712Z" fill="url(#paint24_radial_74_26)"/>
<path d="M9.32471 31.8712L9.04346 24.1998V21.8673H31.1714C31.187 20.6017 28.1953 15.6161 24.2808 11.0495C21.1253 7.36838 22.2959 4.16596 23.9995 3.05743C26.543 1.40238 28.9917 3.03433 30.2808 4.62774C31.5698 6.22115 33.6587 8.74529 35.9761 13.0654C38.1617 17.1399 39.4917 21.8673 39.4917 25.6984C39.4917 30.3147 39.8667 33.76 37.6401 37.885C34.7834 43.1776 29.109 45.5595 23.8121 45.5595C15.0934 45.5595 9.60596 39.3516 9.32471 31.8712Z" fill="url(#paint25_radial_74_26)"/>
<path d="M9.32471 31.8712L9.04346 24.1998V21.8673H31.1714C31.187 20.6017 28.1953 15.6161 24.2808 11.0495C21.1253 7.36838 22.2959 4.16596 23.9995 3.05743C26.543 1.40238 28.9917 3.03433 30.2808 4.62774C31.5698 6.22115 33.6587 8.74529 35.9761 13.0654C38.1617 17.1399 39.4917 21.8673 39.4917 25.6984C39.4917 30.3147 39.8667 33.76 37.6401 37.885C34.7834 43.1776 29.109 45.5595 23.8121 45.5595C15.0934 45.5595 9.60596 39.3516 9.32471 31.8712Z" fill="url(#paint26_radial_74_26)"/>
<path d="M23.9997 3.05767C26.5432 1.40262 28.9919 3.03457 30.2809 4.62798C31.57 6.2214 33.6589 8.74553 35.9762 13.0657C37.2276 15.3986 38.1986 17.9456 38.7999 20.4159C38.4915 21.9656 36.2901 25.0837 34.2651 25.1587C32.2401 25.2337 31.1546 23.2395 31.1715 21.8675C31.1872 20.6019 28.1955 15.6163 24.2809 11.0497C21.1254 7.36862 22.2961 4.1662 23.9997 3.05767Z" fill="#FEBD27"/>
<path d="M23.9997 3.05767C26.5432 1.40262 28.9919 3.03457 30.2809 4.62798C31.57 6.2214 33.6589 8.74553 35.9762 13.0657C37.2276 15.3986 38.1986 17.9456 38.7999 20.4159C38.4915 21.9656 36.2901 25.0837 34.2651 25.1587C32.2401 25.2337 31.1546 23.2395 31.1715 21.8675C31.1872 20.6019 28.1955 15.6163 24.2809 11.0497C21.1254 7.36862 22.2961 4.1662 23.9997 3.05767Z" fill="url(#paint27_radial_74_26)"/>
<path d="M23.9997 3.05767C26.5432 1.40262 28.9919 3.03457 30.2809 4.62798C31.57 6.2214 33.6589 8.74553 35.9762 13.0657C37.2276 15.3986 38.1986 17.9456 38.7999 20.4159C38.4915 21.9656 36.2901 25.0837 34.2651 25.1587C32.2401 25.2337 31.1546 23.2395 31.1715 21.8675C31.1872 20.6019 28.1955 15.6163 24.2809 11.0497C21.1254 7.36862 22.2961 4.1662 23.9997 3.05767Z" fill="url(#paint28_radial_74_26)"/>
<path d="M23.9997 3.05767C26.5432 1.40262 28.9919 3.03457 30.2809 4.62798C31.57 6.2214 33.6589 8.74553 35.9762 13.0657C37.2276 15.3986 38.1986 17.9456 38.7999 20.4159C38.4915 21.9656 36.2901 25.0837 34.2651 25.1587C32.2401 25.2337 31.1546 23.2395 31.1715 21.8675C31.1872 20.6019 28.1955 15.6163 24.2809 11.0497C21.1254 7.36862 22.2961 4.1662 23.9997 3.05767Z" fill="url(#paint29_radial_74_26)"/>
<path d="M9.04346 18.1345C9.04346 15.9892 10.9179 14.25 13.2301 14.25C15.5423 14.25 17.4167 15.9892 17.4167 18.1345V21.7092C17.4167 23.8546 15.5423 25.8633 13.2301 25.8633C10.9179 25.8633 9.04346 23.8546 9.04346 21.7092V18.1345Z" fill="url(#paint30_radial_74_26)"/>
<path d="M9.04346 18.1345C9.04346 15.9892 10.9179 14.25 13.2301 14.25C15.5423 14.25 17.4167 15.9892 17.4167 18.1345V21.7092C17.4167 23.8546 15.5423 25.8633 13.2301 25.8633C10.9179 25.8633 9.04346 23.8546 9.04346 21.7092V18.1345Z" fill="url(#paint31_radial_74_26)"/>
<path d="M9.04346 18.1345C9.04346 15.9892 10.9179 14.25 13.2301 14.25C15.5423 14.25 17.4167 15.9892 17.4167 18.1345V21.7092C17.4167 23.8546 15.5423 25.8633 13.2301 25.8633C10.9179 25.8633 9.04346 23.8546 9.04346 21.7092V18.1345Z" fill="url(#paint32_radial_74_26)"/>
<path d="M9.04346 18.1345C9.04346 15.9892 10.9179 14.25 13.2301 14.25C15.5423 14.25 17.4167 15.9892 17.4167 18.1345V21.7092C17.4167 23.8546 15.5423 25.8633 13.2301 25.8633C10.9179 25.8633 9.04346 23.8546 9.04346 21.7092V18.1345Z" fill="url(#paint33_radial_74_26)"/>
<path d="M9.04346 18.1345C9.04346 15.9892 10.9179 14.25 13.2301 14.25C15.5423 14.25 17.4167 15.9892 17.4167 18.1345V21.7092C17.4167 23.8546 15.5423 25.8633 13.2301 25.8633C10.9179 25.8633 9.04346 23.8546 9.04346 21.7092V18.1345Z" fill="url(#paint34_radial_74_26)"/>
<path d="M16.1245 15.6678C16.1245 15.1522 17.4839 12.7593 20.0703 12.7593C22.6568 12.7593 24.3296 14.6108 24.3296 16.7202V21.1232C24.3296 23.5922 23.1792 26.939 20.0703 26.939C17.9058 26.939 16.1245 25.1343 16.1245 23.5874V15.6678Z" fill="url(#paint35_radial_74_26)"/>
<path d="M16.1245 15.6678C16.1245 15.1522 17.4839 12.7593 20.0703 12.7593C22.6568 12.7593 24.3296 14.6108 24.3296 16.7202V21.1232C24.3296 23.5922 23.1792 26.939 20.0703 26.939C17.9058 26.939 16.1245 25.1343 16.1245 23.5874V15.6678Z" fill="url(#paint36_radial_74_26)"/>
<path d="M16.1245 15.6678C16.1245 15.1522 17.4839 12.7593 20.0703 12.7593C22.6568 12.7593 24.3296 14.6108 24.3296 16.7202V21.1232C24.3296 23.5922 23.1792 26.939 20.0703 26.939C17.9058 26.939 16.1245 25.1343 16.1245 23.5874V15.6678Z" fill="url(#paint37_radial_74_26)"/>
<path d="M16.1245 15.6678C16.1245 15.1522 17.4839 12.7593 20.0703 12.7593C22.6568 12.7593 24.3296 14.6108 24.3296 16.7202V21.1232C24.3296 23.5922 23.1792 26.939 20.0703 26.939C17.9058 26.939 16.1245 25.1343 16.1245 23.5874V15.6678Z" fill="url(#paint38_radial_74_26)"/>
<path d="M27.0493 21.1392C24.577 21.1392 22.5728 23.1434 22.5728 25.6157C22.5728 28.0881 24.577 30.0923 27.0493 30.0923H29.4341C29.8963 30.0923 30.3327 30.3054 30.6169 30.6699L33.6836 34.6024C35.439 36.8533 39.0493 35.612 39.0493 32.7575V30.1392C39.0493 25.5695 35.6438 21.7953 31.2321 21.2162C30.9628 21.1656 30.6849 21.1392 30.4009 21.1392H27.0493Z" fill="url(#paint39_radial_74_26)"/>
<path d="M27.0493 21.1392C24.577 21.1392 22.5728 23.1434 22.5728 25.6157C22.5728 28.0881 24.577 30.0923 27.0493 30.0923H29.4341C29.8963 30.0923 30.3327 30.3054 30.6169 30.6699L33.6836 34.6024C35.439 36.8533 39.0493 35.612 39.0493 32.7575V30.1392C39.0493 25.5695 35.6438 21.7953 31.2321 21.2162C30.9628 21.1656 30.6849 21.1392 30.4009 21.1392H27.0493Z" fill="url(#paint40_radial_74_26)"/>
<path d="M27.0493 21.1392C24.577 21.1392 22.5728 23.1434 22.5728 25.6157C22.5728 28.0881 24.577 30.0923 27.0493 30.0923H29.4341C29.8963 30.0923 30.3327 30.3054 30.6169 30.6699L33.6836 34.6024C35.439 36.8533 39.0493 35.612 39.0493 32.7575V30.1392C39.0493 25.5695 35.6438 21.7953 31.2321 21.2162C30.9628 21.1656 30.6849 21.1392 30.4009 21.1392H27.0493Z" fill="url(#paint41_radial_74_26)"/>
<path d="M27.0493 21.1392C24.577 21.1392 22.5728 23.1434 22.5728 25.6157C22.5728 28.0881 24.577 30.0923 27.0493 30.0923H29.4341C29.8963 30.0923 30.3327 30.3054 30.6169 30.6699L33.6836 34.6024C35.439 36.8533 39.0493 35.612 39.0493 32.7575V30.1392C39.0493 25.5695 35.6438 21.7953 31.2321 21.2162C30.9628 21.1656 30.6849 21.1392 30.4009 21.1392H27.0493Z" fill="url(#paint42_linear_74_26)"/>
<path d="M27.0493 21.1392C24.577 21.1392 22.5728 23.1434 22.5728 25.6157C22.5728 28.0881 24.577 30.0923 27.0493 30.0923H29.4341C29.8963 30.0923 30.3327 30.3054 30.6169 30.6699L33.6836 34.6024C35.439 36.8533 39.0493 35.612 39.0493 32.7575V30.1392C39.0493 25.5695 35.6438 21.7953 31.2321 21.2162C30.9628 21.1656 30.6849 21.1392 30.4009 21.1392H27.0493Z" fill="url(#paint43_radial_74_26)"/>
<path d="M27.0493 21.1392C24.577 21.1392 22.5728 23.1434 22.5728 25.6157C22.5728 28.0881 24.577 30.0923 27.0493 30.0923H29.4341C29.8963 30.0923 30.3327 30.3054 30.6169 30.6699L33.6836 34.6024C35.439 36.8533 39.0493 35.612 39.0493 32.7575V30.1392C39.0493 25.5695 35.6438 21.7953 31.2321 21.2162C30.9628 21.1656 30.6849 21.1392 30.4009 21.1392H27.0493Z" fill="url(#paint44_radial_74_26)"/>
<path d="M27.0493 21.1392C24.577 21.1392 22.5728 23.1434 22.5728 25.6157C22.5728 28.0881 24.577 30.0923 27.0493 30.0923H29.4341C29.8963 30.0923 30.3327 30.3054 30.6169 30.6699L33.6836 34.6024C35.439 36.8533 39.0493 35.612 39.0493 32.7575V30.1392C39.0493 25.5695 35.6438 21.7953 31.2321 21.2162C30.9628 21.1656 30.6849 21.1392 30.4009 21.1392H27.0493Z" fill="url(#paint45_radial_74_26)"/>
<defs>
<radialGradient id="paint0_radial_74_26" cx="0" cy="0" r="1" gradientUnits="userSpaceOnUse" gradientTransform="translate(37.6401 6.2688) rotate(127.763) scale(16.8395 6.7621)">
<stop offset="0.109516" stop-color="#FFE966"/>
<stop offset="0.544787" stop-color="#FCC728"/>
<stop offset="1" stop-color="#EEB62C"/>
</radialGradient>
<radialGradient id="paint1_radial_74_26" cx="0" cy="0" r="1" gradientUnits="userSpaceOnUse" gradientTransform="translate(35.062 16.9563) rotate(-144.282) scale(12.1243 32.6121)">
<stop offset="0.749914" stop-color="#D09937" stop-opacity="0"/>
<stop offset="0.926997" stop-color="#D09937"/>
</radialGradient>
<radialGradient id="paint2_radial_74_26" cx="0" cy="0" r="1" gradientUnits="userSpaceOnUse" gradientTransform="translate(28.7339 20.7532) rotate(-90) scale(8.15625 5.61213)">
<stop offset="0.132744" stop-color="#FDC54F"/>
<stop offset="0.586207" stop-color="#EB9C1B"/>
<stop offset="1" stop-color="#D67426"/>
</radialGradient>
<radialGradient id="paint3_radial_74_26" cx="0" cy="0" r="1" gradientUnits="userSpaceOnUse" gradientTransform="translate(29.4839 13.3938) rotate(65.8209) scale(22.6598 3.56671)">
<stop offset="0.602608" stop-color="#C16009"/>
<stop offset="1" stop-color="#CA7112" stop-opacity="0"/>
</radialGradient>
<radialGradient id="paint4_radial_74_26" cx="0" cy="0" r="1" gradientUnits="userSpaceOnUse" gradientTransform="translate(23.6714 14.9407) rotate(90) scale(19.5938 2.97825)">
<stop offset="0.423077" stop-color="#DB740B"/>
<stop offset="1" stop-color="#DB740B" stop-opacity="0"/>
</radialGradient>
<radialGradient id="paint5_radial_74_26" cx="0" cy="0" r="1" gradientUnits="userSpaceOnUse" gradientTransform="translate(23.9526 18.8313) rotate(90) scale(12.2344 1.3125)">
<stop offset="0.444444" stop-color="#B03B0A"/>
<stop offset="1" stop-color="#DA7715" stop-opacity="0"/>
</radialGradient>
<radialGradient id="paint6_radial_74_26" cx="0" cy="0" r="1" gradientUnits="userSpaceOnUse" gradientTransform="translate(25.7808 13.5344) rotate(-112.051) scale(3.99539 3.4054)">
<stop stop-color="#D4924C"/>
<stop offset="1" stop-color="#D4924C" stop-opacity="0"/>
</radialGradient>
<radialGradient id="paint7_radial_74_26" cx="0" cy="0" r="1" gradientUnits="userSpaceOnUse" gradientTransform="translate(24.2339 15.4563) rotate(-66.218) scale(3.02226 1.42312)">
<stop stop-color="#C37C50"/>
<stop offset="1" stop-color="#D87D31" stop-opacity="0"/>
</radialGradient>
<radialGradient id="paint8_radial_74_26" cx="0" cy="0" r="1" gradientUnits="userSpaceOnUse" gradientTransform="translate(37.8276 5.75317) rotate(131.898) scale(13.4769 6.2529)">
<stop stop-color="#FFE655"/>
<stop offset="0.909068" stop-color="#F8C228"/>
<stop offset="1" stop-color="#F8C228" stop-opacity="0"/>
</radialGradient>
<radialGradient id="paint9_radial_74_26" cx="0" cy="0" r="1" gradientUnits="userSpaceOnUse" gradientTransform="translate(30.7964 10.8157) rotate(54.9165) scale(9.62343 4.63527)">
<stop offset="0.581854" stop-color="#F99E40"/>
<stop offset="1" stop-color="#F99E40" stop-opacity="0"/>
</radialGradient>
<radialGradient id="paint10_radial_74_26" cx="0" cy="0" r="1" gradientUnits="userSpaceOnUse" gradientTransform="translate(33.9839 9.12817) rotate(139.462) scale(3.46178 3.85844)">
<stop stop-color="#FFBC65"/>
<stop offset="1" stop-color="#FFBC65" stop-opacity="0"/>
</radialGradient>
<radialGradient id="paint11_radial_74_26" cx="0" cy="0" r="1" gradientUnits="userSpaceOnUse" gradientTransform="translate(36.562 7.0188) rotate(130.326) scale(5.28774 2.3518)">
<stop stop-color="#FFE866"/>
<stop offset="1" stop-color="#FFE866" stop-opacity="0"/>
</radialGradient>
<radialGradient id="paint12_radial_74_26" cx="0" cy="0" r="1" gradientUnits="userSpaceOnUse" gradientTransform="translate(37.2651 6.87817) rotate(150.391) scale(10.7831 6.96762)">
<stop offset="0.562524" stop-color="#D29F51" stop-opacity="0"/>
<stop offset="0.872634" stop-color="#D29F51"/>
<stop offset="0.99198" stop-color="#D29F51" stop-opacity="0"/>
</radialGradient>
<radialGradient id="paint13_radial_74_26" cx="0" cy="0" r="1" gradientUnits="userSpaceOnUse" gradientTransform="translate(34.3589 6.03442) rotate(107.945) scale(9.75586 8.80171)">
<stop offset="0.562524" stop-color="#D29F51" stop-opacity="0"/>
<stop offset="0.872634" stop-color="#D29F51"/>
<stop offset="0.99198" stop-color="#D29F51" stop-opacity="0"/>
</radialGradient>
<radialGradient id="paint14_radial_74_26" cx="0" cy="0" r="1" gradientUnits="userSpaceOnUse" gradientTransform="translate(20.4839 33.0334) rotate(90) scale(24.5625 25.0778)">
<stop stop-color="#FFAD50"/>
<stop offset="1" stop-color="#FFAD50" stop-opacity="0"/>
</radialGradient>
<radialGradient id="paint15_radial_74_26" cx="0" cy="0" r="1" gradientUnits="userSpaceOnUse" gradientTransform="translate(24.2793 28.1584) rotate(93.0018) scale(20.5595 21.1642)">
<stop offset="0.707148" stop-color="#F783A4" stop-opacity="0"/>
<stop offset="0.894565" stop-color="#FF7676"/>
</radialGradient>
<radialGradient id="paint16_radial_74_26" cx="0" cy="0" r="1" gradientUnits="userSpaceOnUse" gradientTransform="translate(8.20264 41.5647) rotate(57.4319) scale(21.2474 8.13833)">
<stop offset="0.402589" stop-color="#E78D4F"/>
<stop offset="1" stop-color="#E78D4F" stop-opacity="0"/>
</radialGradient>
<radialGradient id="paint17_radial_74_26" cx="0" cy="0" r="1" gradientUnits="userSpaceOnUse" gradientTransform="translate(3.70264 30.7834) rotate(91.3547) scale(27.7578 8.07667)">
<stop offset="0.476427" stop-color="#E78D4F"/>
<stop offset="0.916329" stop-color="#E78D4F" stop-opacity="0"/>
</radialGradient>
<radialGradient id="paint18_radial_74_26" cx="0" cy="0" r="1" gradientUnits="userSpaceOnUse" gradientTransform="translate(22.2651 27.5022) rotate(14.0362) scale(15.0751 5.57074)">
<stop offset="0.18222" stop-color="#DA6B1C"/>
<stop offset="0.916329" stop-color="#DA6B1C" stop-opacity="0"/>
</radialGradient>
<radialGradient id="paint19_radial_74_26" cx="0" cy="0" r="1" gradientUnits="userSpaceOnUse" gradientTransform="translate(16.7339 23.9631) scale(7.125 3.58648)">
<stop offset="0.365854" stop-color="#AC3F06"/>
<stop offset="0.916329" stop-color="#AC3F06" stop-opacity="0"/>
</radialGradient>
<radialGradient id="paint20_radial_74_26" cx="0" cy="0" r="1" gradientUnits="userSpaceOnUse" gradientTransform="translate(27.7964 28.0647) rotate(5.58015) scale(8.19509 5.19311)">
<stop offset="0.368149" stop-color="#D7520C"/>
<stop offset="0.916329" stop-color="#E48630" stop-opacity="0"/>
</radialGradient>
<radialGradient id="paint21_radial_74_26" cx="0" cy="0" r="1" gradientUnits="userSpaceOnUse" gradientTransform="translate(19.9683 25.7678) rotate(5.52753) scale(5.83965 3.70051)">
<stop offset="0.231445" stop-color="#C24B10"/>
<stop offset="0.533505" stop-color="#C24B10" stop-opacity="0"/>
</radialGradient>
<radialGradient id="paint22_radial_74_26" cx="0" cy="0" r="1" gradientUnits="userSpaceOnUse" gradientTransform="translate(38.8589 21.6897) rotate(74.5214) scale(6.32309 4.46074)">
<stop offset="0.1275" stop-color="#FFEF64"/>
<stop offset="1" stop-color="#FFEF64" stop-opacity="0"/>
</radialGradient>
<radialGradient id="paint23_radial_74_26" cx="0" cy="0" r="1" gradientUnits="userSpaceOnUse" gradientTransform="translate(31.1714 31.7209) rotate(-132.852) scale(5.30703 0.596202)">
<stop offset="0.148252" stop-color="#FA915D"/>
<stop offset="1" stop-color="#FDB150" stop-opacity="0"/>
</radialGradient>
<radialGradient id="paint24_radial_74_26" cx="0" cy="0" r="1" gradientUnits="userSpaceOnUse" gradientTransform="translate(30.187 30.1741) rotate(-132.879) scale(3.58218 0.648902)">
<stop stop-color="#DE6113"/>
<stop offset="1" stop-color="#DE6113" stop-opacity="0"/>
</radialGradient>
<radialGradient id="paint25_radial_74_26" cx="0" cy="0" r="1" gradientUnits="userSpaceOnUse" gradientTransform="translate(14.6245 31.0178) rotate(7.38063) scale(9.12246 5.33578)">
<stop stop-color="#FFB450"/>
<stop offset="1" stop-color="#FFB450" stop-opacity="0"/>
</radialGradient>
<radialGradient id="paint26_radial_74_26" cx="0" cy="0" r="1" gradientUnits="userSpaceOnUse" gradientTransform="translate(32.1089 36.4553) rotate(51.6544) scale(4.00445 1.98911)">
<stop stop-color="#FFC650"/>
<stop offset="1" stop-color="#FFC650" stop-opacity="0"/>
</radialGradient>
<radialGradient id="paint27_radial_74_26" cx="0" cy="0" r="1" gradientUnits="userSpaceOnUse" gradientTransform="translate(23.5776 18.8774) rotate(58.3034) scale(27.6564 12.1948)">
<stop offset="0.426918" stop-color="#DB7203"/>
<stop offset="0.613782" stop-color="#FFBA4D"/>
<stop offset="0.981075" stop-color="#FFEE64"/>
</radialGradient>
<radialGradient id="paint28_radial_74_26" cx="0" cy="0" r="1" gradientUnits="userSpaceOnUse" gradientTransform="translate(31.9214 24.0337) rotate(59.4524) scale(6.64038 4.80568)">
<stop offset="0.485549" stop-color="#F29113"/>
<stop offset="1" stop-color="#F29113" stop-opacity="0"/>
</radialGradient>
<radialGradient id="paint29_radial_74_26" cx="0" cy="0" r="1" gradientUnits="userSpaceOnUse" gradientTransform="translate(21.3276 1.62744) rotate(140.599) scale(10.1912 7.37542)">
<stop offset="0.250825" stop-color="#F7B529"/>
<stop offset="1" stop-color="#F7B529" stop-opacity="0"/>
</radialGradient>
<radialGradient id="paint30_radial_74_26" cx="0" cy="0" r="1" gradientUnits="userSpaceOnUse" gradientTransform="translate(14.4839 19.2539) rotate(90) scale(8.34375 5.73016)">
<stop offset="0.160221" stop-color="#FFD05E"/>
<stop offset="0.480663" stop-color="#FFBC2D"/>
<stop offset="0.853933" stop-color="#F7A64D"/>
</radialGradient>
<radialGradient id="paint31_radial_74_26" cx="0" cy="0" r="1" gradientUnits="userSpaceOnUse" gradientTransform="translate(9.04346 24.6914) scale(10.9717 3.50383)">
<stop stop-color="#EA8464"/>
<stop offset="0.697248" stop-color="#FFA35C" stop-opacity="0"/>
</radialGradient>
<radialGradient id="paint32_radial_74_26" cx="0" cy="0" r="1" gradientUnits="userSpaceOnUse" gradientTransform="translate(13.9683 15.3633) rotate(90) scale(11.3438 6.63668)">
<stop offset="0.917355" stop-color="#DE8D49" stop-opacity="0"/>
<stop offset="1" stop-color="#DE8D49"/>
</radialGradient>
<radialGradient id="paint33_radial_74_26" cx="0" cy="0" r="1" gradientUnits="userSpaceOnUse" gradientTransform="translate(16.312 18.832) rotate(90) scale(13.3125 1.64063)">
<stop offset="0.423077" stop-color="#E98E14"/>
<stop offset="1" stop-color="#F9A52F" stop-opacity="0"/>
</radialGradient>
<radialGradient id="paint34_radial_74_26" cx="0" cy="0" r="1" gradientUnits="userSpaceOnUse" gradientTransform="translate(16.312 18.832) rotate(90) scale(13.7813 0.796876)">
<stop offset="0.423077" stop-color="#C85F1C"/>
<stop offset="1" stop-color="#DA7715" stop-opacity="0"/>
</radialGradient>
<radialGradient id="paint35_radial_74_26" cx="0" cy="0" r="1" gradientUnits="userSpaceOnUse" gradientTransform="translate(22.0308 18.4077) rotate(90) scale(10.6406 5.86479)">
<stop stop-color="#FFEC66"/>
<stop offset="0.578947" stop-color="#FFBC2A"/>
<stop offset="0.853933" stop-color="#FAA41C"/>
</radialGradient>
<radialGradient id="paint36_radial_74_26" cx="0" cy="0" r="1" gradientUnits="userSpaceOnUse" gradientTransform="translate(20.7651 26.939) scale(14.3437 5.95313)">
<stop stop-color="#F28558"/>
<stop offset="0.697248" stop-color="#FFA35C" stop-opacity="0"/>
</radialGradient>
<radialGradient id="paint37_radial_74_26" cx="0" cy="0" r="1" gradientUnits="userSpaceOnUse" gradientTransform="translate(24.0464 24.6421) rotate(-14.5002) scale(2.8082 2.98339)">
<stop offset="0.52459" stop-color="#B63401"/>
<stop offset="1" stop-color="#ED8915" stop-opacity="0"/>
</radialGradient>
<radialGradient id="paint38_radial_74_26" cx="0" cy="0" r="1" gradientUnits="userSpaceOnUse" gradientTransform="translate(22.0308 26.7046) rotate(90) scale(3.79687 1.75977)">
<stop stop-color="#E1683A"/>
<stop offset="1" stop-color="#E1683A" stop-opacity="0"/>
</radialGradient>
<radialGradient id="paint39_radial_74_26" cx="0" cy="0" r="1" gradientUnits="userSpaceOnUse" gradientTransform="translate(34.2651 24.6899) rotate(110.709) scale(8.21851 16.1354)">
<stop stop-color="#FFE749"/>
<stop offset="1" stop-color="#FFB043"/>
</radialGradient>
<radialGradient id="paint40_radial_74_26" cx="0" cy="0" r="1" gradientUnits="userSpaceOnUse" gradientTransform="translate(29.2964 34.6274) rotate(-38.6034) scale(7.43778 7.83009)">
<stop offset="0.252172" stop-color="#F08127"/>
<stop offset="0.638864" stop-color="#FB945B"/>
<stop offset="1" stop-color="#FB945B" stop-opacity="0"/>
</radialGradient>
<radialGradient id="paint41_radial_74_26" cx="0" cy="0" r="1" gradientUnits="userSpaceOnUse" gradientTransform="translate(25.3385 30.8482) rotate(-62.2759) scale(6.28355 11.7846)">
<stop offset="0.148252" stop-color="#FA915D"/>
<stop offset="0.821931" stop-color="#EF8049" stop-opacity="0"/>
</radialGradient>
<linearGradient id="paint42_linear_74_26" x1="36.7495" y1="36.4087" x2="33.9009" y2="30.163" gradientUnits="userSpaceOnUse">
<stop stop-color="#FFB953"/>
<stop offset="1" stop-color="#FFD338" stop-opacity="0"/>
</linearGradient>
<radialGradient id="paint43_radial_74_26" cx="0" cy="0" r="1" gradientUnits="userSpaceOnUse" gradientTransform="translate(29.5162 34.7914) rotate(-45.6266) scale(13.6318 16.9334)">
<stop offset="0.737652" stop-color="#FFE64D" stop-opacity="0"/>
<stop offset="1" stop-color="#FFE64D"/>
</radialGradient>
<radialGradient id="paint44_radial_74_26" cx="0" cy="0" r="1" gradientUnits="userSpaceOnUse" gradientTransform="translate(30.811 24.0337) scale(6.6416 2.21889)">
<stop offset="0.441796" stop-color="#FFE566"/>
<stop offset="1" stop-color="#FFE566" stop-opacity="0"/>
</radialGradient>
<radialGradient id="paint45_radial_74_26" cx="0" cy="0" r="1" gradientUnits="userSpaceOnUse" gradientTransform="translate(20.9526 22.8149) rotate(90) scale(7.125 6.60224)">
<stop offset="0.0484478" stop-color="#F4A51F"/>
<stop offset="1" stop-color="#E4A618" stop-opacity="0"/>
</radialGradient>
</defs>
</svg>
