<?xml version="1.0" encoding="UTF-8" standalone="no"?>
<!DOCTYPE svg PUBLIC "-//W3C//DTD SVG 1.1//EN" "http://www.w3.org/Graphics/SVG/1.1/DTD/svg11.dtd">
<svg width="50" height="45" viewBox="0 0 50 45" version="1.1" xmlns="http://www.w3.org/2000/svg" xmlns:xlink="http://www.w3.org/1999/xlink" xml:space="preserve" xmlns:serif="http://www.serif.com/" style="fill-rule:evenodd;clip-rule:evenodd;stroke-linejoin:round;stroke-miterlimit:2;">
    <g transform="matrix(1,0,0,1,0.00185215,-0.00032235)">
        <g transform="matrix(0.500016,0,0,0.500002,-0.000926044,0.000161174)">
            <path d="M31.398,8.323L25.128,1.464C24.564,0.845 23.808,0.432 22.982,0.292L21.597,0.054C20.827,-0.078 20.034,0.035 19.332,0.379L2.112,8.751C0.417,9.574 -0.41,11.552 0.196,13.337L8.486,37.693C8.908,38.921 9.935,39.847 11.2,40.14C12.734,40.494 14.334,39.846 15.19,38.525L31.771,12.9C32.693,11.471 32.537,9.587 31.391,8.33L31.398,8.322L31.398,8.323Z" style="fill:rgb(98,0,238);fill-rule:nonzero;"/>
        </g>
        <g transform="matrix(0.500016,0,0,0.500002,-0.000926044,0.000161174)">
            <path d="M35.12,40.394C35.14,40.394 35.159,40.394 35.179,40.394C37.138,40.394 38.751,38.782 38.751,36.822C38.751,34.863 37.138,33.25 35.179,33.25C35.159,33.25 35.138,33.251 35.118,33.251C33.181,33.284 31.606,34.886 31.606,36.822C31.606,38.76 33.182,40.362 35.119,40.394L35.12,40.394ZM97.879,8.75L80.659,0.388C79.956,0.049 79.165,-0.065 78.395,0.063L77.009,0.3C76.185,0.444 75.43,0.856 74.864,1.472C74.298,2.088 54.255,23.887 54.263,23.958C51.73,27.063 50.55,30.318 52.988,35.673C55.134,40.243 66.518,49.304 66.518,54.389C66.518,54.389 66.574,55.142 66.653,56.306L66.606,56.306C66.606,62.151 64.025,66.872 59.702,68.923C56.488,70.452 52.885,70.096 49.924,68.013L49.924,65.493C49.924,65.493 50.004,65.438 50.035,65.399L54.184,61.225C56.646,58.745 54.896,54.524 51.397,54.524L43.1,54.524C39.608,54.524 37.85,58.745 40.313,61.224L44.383,65.312L44.383,68.219C42.102,70.014 38.991,70.371 36.363,69.137C34.683,68.345 33.813,67.149 33.813,66.381L28.27,66.381C28.27,69.494 30.463,72.471 33.986,74.143C34.762,74.507 35.633,74.816 36.559,75.038C36.567,78.951 36.899,84.075 40.09,87.291C41.873,89.09 44.248,90 47.145,90C56.773,90 58.237,80.606 58.459,75.125C59.71,74.875 60.925,74.47 62.077,73.921C64.429,72.804 66.44,71.149 68.031,69.09L85.694,50.136L73.446,24.71L74.911,23.252L84.8,38.524C85.655,39.846 87.256,40.494 88.79,40.14C90.056,39.848 91.084,38.921 91.506,37.693L99.795,13.337C100.405,11.552 99.577,9.571 97.879,8.751L97.879,8.75ZM44.026,83.37C42.411,81.739 42.142,78.214 42.102,75.394L52.885,75.394C52.537,81.858 50.835,84.44 47.145,84.44C45.76,84.44 44.739,84.091 44.026,83.37Z" style="fill:rgb(60,56,53);fill-rule:nonzero;"/>
        </g>
    </g>
</svg>
