<svg height="160" viewBox="0 0 490 160" width="490" xmlns="http://www.w3.org/2000/svg"><g fill="none" fill-rule="evenodd"><path d="m-395-208h1280v800h-1280z" fill="#fff"/><path d="m280 94 56 34.291971c-13.389945 18.074231-33.732184 29.592308-56 31.708029zm63.840725 21-63.840725-39.1666667v-75.8333333c40.847934 3.79123023 72.081886 38.4576461 71.999839 79.9122807-.018586 12.1737827-2.810401 24.1797963-8.159114 35.0877193zm-143.845553-70 64.004828 39.4789272v75.5210728c-40.779915-3.843675-71.973925-38.529415-72-80.059387.009464-12.1119169 2.743905-24.0620073 7.995172-34.940613zm64.004828 21-56-34.194865c13.320515-18.1156593 33.68336-29.68071367 56-31.805135zm-96 61.314286h-19.143066v24.685714h-47.137226v-24.685714h-74.719708v-30.8571431l61.1343066-88.4571429h49.8131384l-54.3416056 81.6685714h19.5547446v-22.0114285h45.69635v22.0114285h19.143066zm349 0h-19.143066v24.685714h-47.137226v-24.685714h-74.719708v-30.8571431l61.134307-88.4571429h49.813138l-54.341606 81.6685714h19.554745v-22.0114285h45.69635v22.0114285h19.143066z" fill="#007df7" fill-rule="nonzero" transform="translate(-27)"/></g></svg>