<svg height="160" width="490" xmlns="http://www.w3.org/2000/svg"><g fill="none" fill-rule="evenodd"><path d="M-395-208H885v800H-395z" fill="#fff"/><path d="M253 94l56 34.292c-13.39 18.074-33.732 29.592-56 31.708zm63.84 21L253 75.833V0c40.848 3.791 72.082 38.458 72 79.912A79.988 79.988 0 0 1 316.84 115zM172.996 45L237 84.479V160c-40.78-3.844-71.974-38.53-72-80.06A80.54 80.54 0 0 1 172.995 45zM237 66l-56-34.195C194.32 13.69 214.683 2.125 237 0zm-96 61.314h-19.143V152H74.72v-24.686H0V96.457L61.134 8h49.813L56.606 89.669H76.16V67.657h45.696V89.67H141zm349 0h-19.143V152H423.72v-24.686H349V96.457L410.134 8h49.813l-54.341 81.669h19.555V67.657h45.696V89.67H490z" fill="#007df7" fill-rule="nonzero"/></g></svg>