<?xml version="1.0" encoding="UTF-8" standalone="no"?><!DOCTYPE svg PUBLIC "-//W3C//DTD SVG 1.1//EN" "http://www.w3.org/Graphics/SVG/1.1/DTD/svg11.dtd"><svg width="100%" height="100%" viewBox="0 0 1134 1136" version="1.1" xmlns="http://www.w3.org/2000/svg" xmlns:xlink="http://www.w3.org/1999/xlink" xml:space="preserve" style="fill-rule:evenodd;clip-rule:evenodd;stroke-linejoin:round;stroke-miterlimit:1.41421;"><path d="M92.298,256.987c-58.229,89.006 -92.298,195.287 -92.298,309.586c0,97.829 24.411,189.745 68.012,270.145c1.344,2.321 2.657,4.612 3.907,6.904c97.174,172.934 282.863,290.236 495.432,290.236l10.127,0l33.6,-666.322l-35.913,0l-61.761,44.859l-421.106,-255.408Z" style="fill:#2b98de;fill-rule:nonzero;"/><path d="M575.165,0l-1.594,475.988l-171.906,77.397l661.868,282.497c44.821,-80.183 70.325,-171.728 70.325,-269.309c0,-107.024 -31.13,-207.175 -84.359,-292.528l1.469,-0.743c-97.923,-161.201 -273.861,-270.268 -475.803,-273.302Z" style="fill:#2b98de;fill-rule:nonzero;"/><path d="M578.353,552.998l0,582.765c216.101,-4.211 401.915,-129.871 493.838,-311.041l-493.838,-271.724Z" style="fill:#6cbdf1;fill-rule:nonzero;"/><path d="M566.632,0.371c-202.817,0 -380.318,106.529 -480.554,266.151l492.275,286.367l-2.344,-552.518l-9.377,0Z" style="fill:#1e71b5;fill-rule:nonzero;"/></svg>