<svg height="24" width="136" xmlns="http://www.w3.org/2000/svg"><g fill="none"><path d="M91.674.649v14.789A3.399 3.399 0 0 0 92.549 18c.577.551 1.544.85 2.92.876l.304-1.83a5.838 5.838 0 0 1-.876-.181 1.362 1.362 0 0 1-.583-.324 1.174 1.174 0 0 1-.305-.552 3.386 3.386 0 0 1-.098-.888V.649zm21.126 0v17.643c.512.143 1.161.279 1.946.422.911.147 1.834.217 2.757.207a7.174 7.174 0 0 0 2.594-.441 5.507 5.507 0 0 0 1.946-1.265 5.578 5.578 0 0 0 1.246-2.01c.31-.852.464-1.753.454-2.66a8.478 8.478 0 0 0-.377-2.595 5.786 5.786 0 0 0-1.083-2.024 4.956 4.956 0 0 0-1.764-1.297 5.74 5.74 0 0 0-2.387-.473 5.942 5.942 0 0 0-1.914.292c-.429.132-.842.31-1.232.531V.65zm-63.872.713a1.453 1.453 0 0 0-1.019.39 1.297 1.297 0 0 0-.408 1.037c-.024.395.125.781.408 1.057a1.59 1.59 0 0 0 2.043 0c.285-.273.438-.656.422-1.05a1.336 1.336 0 0 0-.428-1.045 1.46 1.46 0 0 0-1.018-.389zM39.944 6.13a5.319 5.319 0 0 0-3.34.94 3.088 3.088 0 0 0-1.214 2.595c-.05.91.344 1.788 1.058 2.354.344.28.726.509 1.135.682.44.194.895.395 1.381.583.752.27 1.47.624 2.14 1.058.42.281.666.76.65 1.264.029.47-.227.91-.65 1.116a4.45 4.45 0 0 1-2.023.357 7.206 7.206 0 0 1-2.238-.279l-1.18-.402v2.01c.22.078.486.163.823.26.85.201 1.723.288 2.595.26a6.486 6.486 0 0 0 3.652-.857 2.9 2.9 0 0 0 1.297-2.594c.016-.5-.072-.997-.26-1.46A2.815 2.815 0 0 0 43.026 13a5.027 5.027 0 0 0-1.252-.74c-.467-.207-.98-.428-1.57-.648-.447-.156-.83-.299-1.154-.441a3.93 3.93 0 0 1-.811-.454 1.537 1.537 0 0 1-.63-1.265c-.02-.484.254-.933.695-1.135a3.49 3.49 0 0 1 1.634-.357 7.258 7.258 0 0 1 1.83.195c.386.09.762.22 1.122.389V6.532l-.078-.046c-.234-.064-.506-.123-.811-.175s-.649-.11-.973-.149c-.35-.034-.7-.049-1.05-.045zm63.373 0a12.902 12.902 0 0 0-2.186.175c-.389.066-.773.16-1.148.279v1.88c.396-.138.804-.24 1.22-.304a10.735 10.735 0 0 1 1.945-.162c.482-.014.962.075 1.408.26.33.142.62.365.843.648.21.279.358.6.435.94.077.352.117.71.116 1.07v.617c-.065 0-.181-.052-.344-.078l-.55-.097a9.552 9.552 0 0 0-.682-.097c-.24-.026-.473 0-.694 0a9.373 9.373 0 0 0-2.024.214 5.19 5.19 0 0 0-1.667.648 3.282 3.282 0 0 0-1.135 1.18 3.392 3.392 0 0 0-.422 1.74 4.106 4.106 0 0 0 .357 1.796c.223.487.57.907 1.006 1.22.468.313.992.533 1.543.648.638.147 1.292.22 1.946.214.493 0 .986 0 1.492-.065s.96-.084 1.395-.13c.434-.045.824-.09 1.167-.149l.811-.13V10.8a7.077 7.077 0 0 0-.24-1.9 3.529 3.529 0 0 0-2.322-2.414 6.655 6.655 0 0 0-2.27-.337zm28.41 0a5.274 5.274 0 0 0-3.295.94 3.1 3.1 0 0 0-1.232 2.595 2.919 2.919 0 0 0 1.05 2.354c.35.279.737.508 1.149.682.441.194.902.395 1.382.583.747.269 1.461.624 2.127 1.058.418.283.663.76.649 1.264.027.469-.228.908-.649 1.116a4.463 4.463 0 0 1-2.024.357 7.22 7.22 0 0 1-2.238-.279 30.35 30.35 0 0 1-1.2-.422v2.03c.221.072.5.163.844.26a9.86 9.86 0 0 0 2.594.26 6.486 6.486 0 0 0 3.652-.857 2.906 2.906 0 0 0 1.298-2.594 3.62 3.62 0 0 0-.26-1.46A2.886 2.886 0 0 0 134.81 13a4.904 4.904 0 0 0-1.18-.746c-.461-.208-.98-.428-1.577-.649-.448-.155-.83-.298-1.148-.44a3.853 3.853 0 0 1-.811-.455 1.583 1.583 0 0 1-.474-.551 1.563 1.563 0 0 1-.162-.714 1.2 1.2 0 0 1 .7-1.135 3.425 3.425 0 0 1 1.622-.357 7.408 7.408 0 0 1 1.85.195c.378.086.747.21 1.102.37V6.538l-.097-.032c-.234-.065-.506-.123-.811-.175s-.649-.11-.993-.15c-.349-.033-.7-.048-1.05-.045zm-72.648.045c-.707.022-1.411.091-2.108.208-.843.142-1.518.266-2.03.389v11.864h2.205v-10.3c.065 0 .195-.053.39-.079l.648-.078c.233 0 .473 0 .733-.045s.486-.032.713-.032c.445-.013.888.071 1.298.246.337.157.62.413.81.733.22.403.363.843.422 1.297.09.612.134 1.23.13 1.849v6.39h2.225v-6.844c0-.51-.032-1.019-.098-1.524a8.07 8.07 0 0 0-.292-1.298c.306-.23.645-.411 1.006-.538a4.995 4.995 0 0 1 1.848-.292c.46-.016.919.068 1.343.247.336.151.618.4.811.713.218.402.357.843.409 1.297.081.613.12 1.23.116 1.849v6.39h2.225v-6.844c.005-.75-.056-1.499-.181-2.238a4.43 4.43 0 0 0-.707-1.751 3.366 3.366 0 0 0-1.427-1.168 5.766 5.766 0 0 0-2.349-.408 5.961 5.961 0 0 0-1.394.149 9.418 9.418 0 0 0-1.168.357 6.13 6.13 0 0 0-.888.408c-.24.143-.409.247-.52.324a3.58 3.58 0 0 0-1.38-.96 5.552 5.552 0 0 0-2.012-.31h-.791zm21.49 0c-.668.02-1.334.09-1.992.208-.791.149-1.453.298-1.978.421v16.178h2.238v-4.885c.39.223.803.401 1.232.532a5.87 5.87 0 0 0 1.9.28 5.838 5.838 0 0 0 2.4-.474 4.917 4.917 0 0 0 1.752-1.298 5.747 5.747 0 0 0 1.103-2.01 8.432 8.432 0 0 0 .357-2.595 7.557 7.557 0 0 0-.442-2.66 5.325 5.325 0 0 0-3.243-3.275 7.025 7.025 0 0 0-2.594-.441h-.766zm-32.725.26v12.194h2.238V6.441zm70.054 1.64c.564-.015 1.123.1 1.635.338.443.22.826.545 1.116.947.308.421.529.9.648 1.408.128.581.19 1.175.182 1.77a4.65 4.65 0 0 1-1.07 3.289 3.762 3.762 0 0 1-2.887 1.168c-.503.006-1.005-.02-1.505-.078a7.53 7.53 0 0 1-.96-.182V9.016c.36-.272.758-.49 1.18-.648a4.476 4.476 0 0 1 1.674-.305zm-36.603.046a3.782 3.782 0 0 1 2.887 1.148 4.592 4.592 0 0 1 1.07 3.243 7.674 7.674 0 0 1-.195 1.752c-.12.507-.34.986-.648 1.407a2.97 2.97 0 0 1-1.116.94 3.62 3.62 0 0 1-1.641.345 4.871 4.871 0 0 1-2.854-.94V8.354c.292-.077.589-.13.888-.163.524-.052 1.05-.074 1.577-.064zm22.554 4.852c.434-.005.867.023 1.297.084.268.031.53.101.778.208v3.632c-.335.07-.676.114-1.018.13h-1.395a4.086 4.086 0 0 1-2.088-.454 1.745 1.745 0 0 1-.766-1.635c-.02-.366.088-.729.305-1.024.21-.256.477-.46.779-.597.328-.152.678-.25 1.037-.292a9.658 9.658 0 0 1 1.07-.052z" fill="#000"/><path d="M12.973 13.836l8.368 5.079c-2.001 2.677-5.04 4.382-8.368 4.696zm9.542 3.172l-9.542-5.793V0a11.844 11.844 0 0 1 10.761 11.818c-.003 1.8-.42 3.576-1.22 5.19zM1.194 6.662l9.554 5.812V23.59A11.844 11.844 0 0 1 0 11.805c.001-1.783.41-3.542 1.194-5.143zm9.554 3.191l-8.4-5.105A11.831 11.831 0 0 1 10.748 0z" fill="#007df7"/></g></svg>