<?xml version="1.0" encoding="UTF-8"?>
<svg width="136px" height="24px" viewBox="0 0 136 24" version="1.1" xmlns="http://www.w3.org/2000/svg" xmlns:xlink="http://www.w3.org/1999/xlink">
    <!-- Generator: Sketch 50.2 (55047) - http://www.bohemiancoding.com/sketch -->
    <title>Atoms / Logo</title>
    <desc>Created with Sketch.</desc>
    <defs></defs>
    <g id="Symbols" stroke="none" stroke-width="1" fill="none" fill-rule="evenodd">
        <g id="Mobile/Organisms/Menu/Default" transform="translate(-16.000000, -20.000000)" fill="#FFFFFF" fill-rule="nonzero">
            <g id="Menu">
                <g id="Header">
                    <g id="Atoms-/-Logo" transform="translate(16.000000, 20.000000)">
                        <path d="M91.6735135,0.648648649 L91.6735135,15.4378378 C91.5979431,16.3763125 91.9150317,17.3040905 92.5491892,18 C93.1264865,18.5513514 94.092973,18.8497297 95.4681081,18.8756757 L95.772973,17.0464865 C95.4768665,17.0084257 95.1841158,16.947707 94.8972973,16.8648649 C94.6788058,16.8068723 94.478182,16.6954146 94.3135135,16.5405405 C94.1635575,16.3879646 94.0581401,16.1973161 94.0086486,15.9891892 C93.9370833,15.6985751 93.9043658,15.3997551 93.9113514,15.1005405 L93.9113514,0.648648649 L91.6735135,0.648648649 Z M112.8,0.648648649 L112.8,18.2918919 C113.312432,18.4345946 113.961081,18.5708108 114.745946,18.7135135 C115.657251,18.8613006 116.579542,18.9307437 117.502703,18.9210811 C118.387367,18.9353082 119.267031,18.7857653 120.097297,18.48 C120.828435,18.2014021 121.491813,17.7702059 122.043243,17.2151351 C122.597338,16.6415912 123.022018,15.9559101 123.288649,15.2043243 C123.599547,14.3525813 123.753388,13.4515125 123.742703,12.5448649 C123.752592,11.6657243 123.62567,10.7903953 123.366486,9.95027027 C123.144188,9.21010105 122.775859,8.52196656 122.283243,7.92648649 C121.799236,7.36789503 121.196411,6.92464113 120.518919,6.62918919 C119.766227,6.30257502 118.952264,6.14110961 118.131892,6.15567568 C117.482387,6.1477237 116.835973,6.2463292 116.218378,6.44756757 C115.789443,6.57950733 115.376186,6.75786027 114.985946,6.97945946 L114.985946,0.648648649 L112.8,0.648648649 Z M48.9275676,1.36216216 C48.5504604,1.35479334 48.1852662,1.49435802 47.9091892,1.75135135 C47.6236158,2.0180941 47.4734952,2.39935282 47.5005405,2.78918919 C47.4766866,3.18425296 47.6258399,3.5701577 47.9091892,3.84648649 C48.500019,4.34234298 49.3616026,4.34234298 49.9524324,3.84648649 C50.2366334,3.57253033 50.3900803,3.19009335 50.3740541,2.79567568 C50.3925888,2.40142505 50.2358794,2.01914916 49.9459459,1.75135135 C49.6695038,1.49494443 49.3045556,1.35547378 48.9275676,1.36216216 Z M39.9437838,6.12972973 C38.7564324,6.06094326 37.5802841,6.39209179 36.6032432,7.07027027 C35.7979734,7.68394991 35.3447388,8.65343559 35.3902703,9.66486486 C35.3398391,10.5747793 35.7340129,11.452602 36.4475676,12.0194595 C36.7923355,12.2983079 37.1744162,12.5275564 37.5827027,12.7005405 C38.0237838,12.8951351 38.4778378,13.0962162 38.9643243,13.2843243 C39.7159314,13.5537192 40.4341427,13.9084721 41.1048649,14.3416216 C41.5247094,14.6231986 41.7698517,15.1012261 41.7535135,15.6064865 C41.782919,16.0753581 41.5268803,16.5157446 41.1048649,16.7221622 C40.4673466,16.9973576 39.7742712,17.1195343 39.0810811,17.0789189 C38.3251201,17.1039611 37.5699296,17.0098359 36.8432432,16.8 L35.6627027,16.3978378 L35.6627027,18.4086486 C35.8832432,18.4864865 36.1491892,18.5708108 36.4864865,18.6681081 C37.3360628,18.8690074 38.208546,18.9562558 39.0810811,18.9275676 C40.356136,19.0080321 41.6265601,18.7101707 42.732973,18.0713514 C43.5980593,17.5005173 44.0926548,16.5113263 44.0302703,15.4767568 C44.0463441,14.9775115 43.9579709,14.4804121 43.7708108,14.0172973 C43.6024589,13.6257469 43.3473984,13.2775338 43.0248649,12.9989189 C42.6456066,12.6930683 42.2238995,12.4439771 41.772973,12.2594595 C41.3059459,12.0518919 40.7935135,11.8313514 40.2032432,11.6108108 C39.7556757,11.4551351 39.372973,11.3124324 39.0486486,11.1697297 C38.7613756,11.0509707 38.4892038,10.8985545 38.2378378,10.7156757 C38.0422097,10.569852 37.8824721,10.3812729 37.7708108,10.1643243 C37.6601177,9.94300456 37.6044879,9.69823373 37.6086486,9.45081081 C37.5880781,8.96661284 37.8623435,8.51804802 38.3027027,8.31567568 C38.8105787,8.06597209 39.3715649,7.94353463 39.9372973,7.95891892 C40.5528123,7.94594588 41.1674769,8.01133573 41.7664865,8.15351351 C42.1529652,8.24418325 42.5290226,8.37460775 42.8886486,8.5427027 L42.8886486,6.53189189 L42.8108108,6.48648649 C42.5772973,6.42162162 42.3048649,6.36324324 42,6.31135135 C41.6951351,6.25945946 41.3513514,6.20108108 41.027027,6.16216216 C40.6778115,6.1283782 40.3270443,6.11322159 39.9762162,6.11675676 L39.9437838,6.12972973 Z M103.316757,6.12972973 C102.584458,6.12596413 101.853169,6.1845541 101.130811,6.30486486 C100.742057,6.37087948 100.358413,6.46408117 99.9827027,6.58378378 L99.9827027,8.46486486 C100.379059,8.32632648 100.787241,8.22428093 101.202162,8.16 C101.844538,8.046942 102.49588,7.99266346 103.148108,7.99783784 C103.630334,7.98422579 104.109996,8.07264273 104.555676,8.2572973 C104.886581,8.39958955 105.176508,8.6226109 105.398919,8.90594595 C105.609127,9.18492309 105.757299,9.50559509 105.833514,9.84648649 C105.911441,10.1979023 105.950594,10.5568045 105.95027,10.9167568 L105.95027,11.532973 C105.885405,11.532973 105.768649,11.4810811 105.606486,11.4551351 L105.055135,11.3578378 C104.841081,11.3189189 104.614054,11.2864865 104.374054,11.2605405 C104.134054,11.2345946 103.900541,11.2605405 103.68,11.2605405 C102.999636,11.2582289 102.321043,11.3300032 101.656216,11.4745946 C101.067183,11.5926846 100.503128,11.8121609 99.9891892,12.1232432 C99.517134,12.4145158 99.1265979,12.8206734 98.8540541,13.3037838 C98.5605233,13.8350885 98.4149209,14.4354181 98.4324324,15.0421622 C98.414528,15.6603049 98.5364817,16.2745078 98.7891892,16.8389189 C99.0123376,17.3260698 99.3589238,17.7464454 99.7945946,18.0583784 C100.262743,18.3717576 100.786893,18.5919889 101.338378,18.707027 C101.976417,18.8542732 102.629535,18.9261161 103.284324,18.9210811 C103.777297,18.9210811 104.27027,18.9210811 104.776216,18.8562162 C105.282162,18.7913514 105.736216,18.7718919 106.170811,18.7264865 C106.605405,18.6810811 106.994595,18.6356757 107.338378,18.5772973 L108.149189,18.4475676 L108.149189,10.8 C108.155699,10.1585369 108.07496,9.51916699 107.909189,8.89945946 C107.590418,7.75566216 106.717761,6.84887857 105.587027,6.48648649 C104.855515,6.24342451 104.087337,6.12929518 103.316757,6.14918919 L103.316757,6.12972973 Z M131.727568,6.12972973 C130.555114,6.06768754 129.395485,6.398684 128.432432,7.07027027 C127.62162,7.68120919 127.16126,8.65038815 127.2,9.66486486 C127.165841,10.5702816 127.55408,11.4402246 128.250811,12.0194595 C128.600771,12.2976252 128.987033,12.5267637 129.398919,12.7005405 C129.84,12.8951351 130.300541,13.0962162 130.780541,13.2843243 C131.528412,13.5528696 132.242422,13.9076976 132.908108,14.3416216 C133.326058,14.6248799 133.570624,15.1017838 133.556757,15.6064865 C133.584392,16.0749381 133.328883,16.5144139 132.908108,16.7221622 C132.270452,16.9968956 131.577486,17.1190529 130.884324,17.0789189 C130.128373,17.1037454 129.373216,17.0096244 128.646486,16.8 C128.095135,16.6183784 127.705946,16.4756757 127.446486,16.3783784 L127.446486,18.4086486 C127.667027,18.48 127.945946,18.5708108 128.28973,18.6681081 C129.139293,18.8690831 130.011787,18.9563325 130.884324,18.9275676 C132.159379,19.0080321 133.429803,18.7101707 134.536216,18.0713514 C135.400268,17.4996 135.894543,16.5110488 135.833514,15.4767568 C135.84864,14.9775801 135.760301,14.4806742 135.574054,14.0172973 C135.397948,13.6250699 135.136445,13.2771375 134.808649,12.9989189 C134.452736,12.6952256 134.055192,12.4440305 133.628108,12.252973 C133.167568,12.0454054 132.648649,11.8248649 132.051892,11.6043243 C131.604324,11.4486486 131.221622,11.3059459 130.903784,11.1632432 C130.616184,11.0451585 130.343935,10.8926985 130.092973,10.7091892 C129.894504,10.5646237 129.732392,10.3758636 129.619459,10.1578378 C129.50972,9.93617783 129.454144,9.69164175 129.457297,9.44432432 C129.439633,8.95905841 129.716163,8.5109771 130.157838,8.30918919 C130.660933,8.05905781 131.217839,7.9365385 131.779459,7.95243243 C132.401402,7.93941631 133.022507,8.00479581 133.628108,8.14702703 C134.007066,8.23325764 134.376467,8.35711538 134.730811,8.51675676 L134.730811,6.53837838 L134.633514,6.50594595 C134.4,6.44108108 134.127568,6.3827027 133.822703,6.33081081 C133.517838,6.27891892 133.174054,6.22054054 132.83027,6.18162162 C132.481055,6.14783766 132.130287,6.13268105 131.779459,6.13621622 L131.727568,6.12972973 Z M59.0789189,6.17513514 C58.3723352,6.19663904 57.6680199,6.26598701 56.9708108,6.3827027 C56.1275676,6.52540541 55.452973,6.64864865 54.9405405,6.77189189 L54.9405405,18.6356757 L57.1459459,18.6356757 L57.1459459,8.33513514 C57.2108108,8.33513514 57.3405405,8.28324324 57.5351351,8.2572973 L58.1837838,8.17945946 C58.4172973,8.17945946 58.6572973,8.17945946 58.9167568,8.13405405 C59.1762162,8.08864865 59.4032432,8.10162162 59.6302703,8.10162162 C60.0754345,8.08906215 60.5180306,8.17315541 60.9275676,8.34810811 C61.2653136,8.50546288 61.5478496,8.76087539 61.7383784,9.08108108 C61.9583039,9.4835604 62.101286,9.92350532 62.16,10.3783784 C62.250806,10.990332 62.2941784,11.6083888 62.2897297,12.227027 L62.2897297,18.6162162 L64.5145946,18.6162162 L64.5145946,11.772973 C64.5152836,11.2632916 64.4827824,10.7541062 64.4172973,10.2486486 C64.3558569,9.80892215 64.2582282,9.37501682 64.1254054,8.95135135 C64.4310697,8.72158453 64.7701405,8.54001758 65.1308108,8.41297297 C65.72313,8.20006067 66.3503558,8.10102502 66.9794595,8.12108108 C67.4395818,8.10522876 67.8976712,8.18932246 68.3221622,8.36756757 C68.6576499,8.51905483 68.9400607,8.76757629 69.132973,9.08108108 C69.351424,9.48317825 69.49018,9.92367325 69.5416216,10.3783784 C69.6234234,10.9911355 69.6624368,11.6088471 69.6583784,12.227027 L69.6583784,18.6162162 L71.8832432,18.6162162 L71.8832432,11.772973 C71.8882451,11.0231517 71.8274717,10.2743365 71.7016216,9.53513514 C71.5945694,8.9073178 71.3534145,8.30996158 70.9945946,7.78378378 C70.636843,7.26937754 70.1426294,6.865021 69.5675676,6.61621622 C68.8218628,6.31796816 68.0220794,6.17877934 67.2194595,6.20756757 C66.7503435,6.20224568 66.2822394,6.25232193 65.8248649,6.35675676 C65.4283697,6.45029969 65.0383614,6.5694689 64.6572973,6.71351351 C64.3506688,6.8258413 64.0535068,6.96249244 63.7686486,7.12216216 C63.5286486,7.26486486 63.36,7.36864865 63.2497297,7.44648649 C62.8719727,7.02129467 62.3983589,6.69221094 61.8681081,6.48648649 C61.2227392,6.25972489 60.5410241,6.15416901 59.8572973,6.17513514 L59.0659459,6.17513514 L59.0789189,6.17513514 Z M80.5686486,6.17513514 C79.9006985,6.19577712 79.2351461,6.26515065 78.5772973,6.3827027 C77.7859459,6.53189189 77.1243243,6.68108108 76.5989189,6.80432432 L76.5989189,22.9816216 L78.8367568,22.9816216 L78.8367568,18.0972973 C79.2266453,18.3196021 79.6399816,18.4979894 80.0691892,18.6291892 C80.6830906,18.8258853 81.3251988,18.9201196 81.9697297,18.9081081 C82.794193,18.921537 83.6121485,18.7601566 84.3697297,18.4345946 C85.0432135,18.1386265 85.6416996,17.6953035 86.1210811,17.1372973 C86.6200078,16.5479166 86.995041,15.8640325 87.2237838,15.1264865 C87.4771047,14.2854798 87.5974751,13.4100587 87.5805405,12.5318919 C87.5941021,11.6261338 87.4446983,10.7253163 87.1394595,9.87243243 C86.6114327,8.34497991 85.4183393,7.13995555 83.8962162,6.59675676 C83.0668616,6.28758799 82.1865508,6.13793514 81.3016216,6.15567568 L80.5362162,6.15567568 L80.5686486,6.17513514 Z M47.8443243,6.43459459 L47.8443243,18.6291892 L50.0821622,18.6291892 L50.0821622,6.44108108 L47.8443243,6.43459459 Z M117.898378,8.07567568 C118.461975,8.06042094 119.02145,8.1758682 119.532973,8.41297297 C119.976383,8.63316512 120.359355,8.95824597 120.648649,9.36 C120.957044,9.78095803 121.177633,10.2596368 121.297297,10.7675676 C121.425356,11.3489503 121.486295,11.9431049 121.478919,12.5383784 C121.558161,13.7314162 121.174878,14.9091426 120.408649,15.827027 C119.660243,16.6147947 118.607787,17.0405075 117.522162,16.9945946 C117.019394,17.0007397 116.516748,16.9747407 116.017297,16.9167568 C115.693703,16.8770599 115.373029,16.8163918 115.057297,16.7351351 L115.057297,9.01621622 C115.417449,8.74416581 115.815085,8.52568398 116.237838,8.36756757 C116.771057,8.1598978 117.339154,8.05640737 117.911351,8.0627027 L117.898378,8.07567568 Z M81.2951351,8.12108108 C82.3773284,8.07269102 83.4283128,8.49072302 84.1816216,9.26918919 C84.9420465,10.1724831 85.3253346,11.3339623 85.2518919,12.5124324 C85.254494,13.1017518 85.1891988,13.6894093 85.0572973,14.2637838 C84.9368007,14.7714276 84.7162848,15.249947 84.4086486,15.6713514 C84.1207349,16.0727441 83.7372759,16.3960091 83.292973,16.6118919 C82.7803952,16.8533577 82.218287,16.9711116 81.6518919,16.9556757 C80.6251959,16.9507626 79.6263013,16.6215814 78.7978378,16.0151351 L78.7978378,8.35459459 C79.0895691,8.27833539 79.3866233,8.22412841 79.6864865,8.19243243 C80.2101697,8.13998244 80.7364806,8.11832355 81.2627027,8.12756757 L81.2951351,8.12108108 Z M103.848649,12.972973 C104.28259,12.9682886 104.716263,12.9964773 105.145946,13.0572973 C105.414117,13.0882744 105.676337,13.1581996 105.924324,13.2648649 L105.924324,16.8972973 C105.588825,16.9673777 105.2483,17.0107568 104.905946,17.027027 L103.511351,17.027027 C102.787182,17.0636582 102.066306,16.9069461 101.422703,16.572973 C100.883686,16.2126342 100.588919,15.5831319 100.657297,14.9383784 C100.636951,14.5717345 100.744726,14.2094247 100.962162,13.9135135 C101.172429,13.6575393 101.438754,13.453357 101.740541,13.3167568 C102.068677,13.1646549 102.419063,13.0661087 102.778378,13.0248649 C103.1339,12.9877759 103.491207,12.9704519 103.848649,12.972973 Z" id="Letters"></path>
                        <path d="M12.972973,13.8356757 L21.3405405,18.9145946 C19.3398036,21.5915348 16.300249,23.2974554 12.972973,23.6108108 L12.972973,13.8356757 Z M22.5145946,17.0075676 L12.972973,11.2151351 L12.972973,0 C19.0780968,0.560692212 23.7463168,5.68757404 23.7340541,11.8183784 C23.7312763,13.6187821 23.3140122,15.3943742 22.5145946,17.0075676 Z M1.19351351,6.66162162 L10.7481081,12.4735135 L10.7481081,23.5913514 C4.66051176,23.0255045 0.0038925271,17.9192419 0,11.8054054 C0.0014128013,10.022349 0.409608109,8.26311601 1.19351351,6.66162162 Z M10.7481081,9.85297297 L2.34810811,4.74810811 C4.34618531,2.04366718 7.40061212,0.317149485 10.7481081,0 L10.7481081,9.85297297 Z" id="Sign"></path>
                    </g>
                </g>
            </g>
        </g>
    </g>
</svg>