<svg height="24" viewBox="0 0 136 24" width="136" xmlns="http://www.w3.org/2000/svg"><g fill="#fff"><path d="m91.6735135.64864865v14.78918915c-.0755704.9384747.2415182 1.8662527.8756757 2.5621622.5772973.5513514 1.5437838.8497297 2.9189189.8756757l.3048649-1.8291892c-.2961065-.0380608-.5888572-.0987795-.8756757-.1816216-.2184915-.0579926-.4191153-.1694503-.5837838-.3243244-.149956-.1525759-.2553734-.3432244-.3048649-.5513513-.0715653-.2906141-.1042828-.5894341-.0972972-.8886487v-14.45189185zm21.1264865 0v17.64324325c.512432.1427027 1.161081.2789189 1.945946.4216216.911305.1477871 1.833596.2172302 2.756757.2075676.884664.0142271 1.764328-.1353158 2.594594-.4410811.731138-.2785979 1.394516-.7097941 1.945946-1.2648649.554095-.5735439.978775-1.259225 1.245406-2.0108108.310898-.851743.464739-1.7528118.454054-2.6594594.009889-.8791406-.117033-1.7544696-.376217-2.59459463-.222298-.74016922-.590627-1.42830371-1.083243-2.02378378-.484007-.55859146-1.086832-1.00184536-1.764324-1.2972973-.752692-.32661417-1.566655-.48807958-2.387027-.47351351-.649505-.00795198-1.295919.09065352-1.913514.29189189-.428935.13193976-.842192.3102927-1.232432.53189189v-6.33081081zm-63.8724324.71351351c-.3771072-.00736882-.7423014.13219586-1.0183784.38918919-.2855734.26674275-.435694.64800147-.4086487 1.03783784-.0238539.39506377.1252994.78096851.4086487 1.0572973.5908298.49585649 1.4524134.49585649 2.0432432 0 .284201-.27395616.4376479-.65639314.4216217-1.05081081.0185347-.39425063-.1381747-.77652652-.4281082-1.04432433-.2764421-.25640692-.6413903-.39587757-1.0183783-.38918919zm-8.9837838 4.76756757c-1.1873514-.06878647-2.3634997.26236206-3.3405406.94054054-.8052698.61367964-1.2585044 1.58316532-1.2129729 2.59459459-.0504312.90991444.3437426 1.78773714 1.0572973 2.35459464.3447679.2788484.7268486.5080969 1.1351351.681081.4410811.1945946.8951351.3956757 1.3816216.5837838.7516071.2693949 1.4698184.6241478 2.1405406 1.0572973.4198445.281577.6649868.7596045.6486486 1.2648649.0294055.4688716-.2266332.9092581-.6486486 1.1156757-.6375183.2751954-1.3305937.3973721-2.0237838.3567567-.755961.0250422-1.5111515-.069083-2.2378379-.2789189l-1.1805405-.4021622v2.0108108c.2205405.0778379.4864865.1621622.8237838.2594595.8495763.2008993 1.7220595.2881477 2.5945946.2594595 1.2750549.0804645 2.545479-.2173969 3.6518919-.8562162.8650863-.5708341 1.3596818-1.5600251 1.2972973-2.5945946.0160738-.4992453-.0722994-.9963447-.2594595-1.4594595-.1683519-.3915504-.4234124-.7397635-.7459459-1.0183784-.3792583-.3058506-.8009654-.5549418-1.2518919-.7394594-.4670271-.2075676-.9794595-.4281081-1.5697298-.6486487-.4475675-.1556757-.8302702-.2983784-1.1545946-.4410811-.287273-.118759-.5594448-.2711752-.8108108-.454054-.1956281-.1458237-.3553657-.3344028-.467027-.5513514-.1106931-.22131974-.1663229-.46609057-.1621622-.71351349-.0205705-.48419797.2536949-.93276279.6940541-1.13513513.507876-.24970359 1.0688622-.37214105 1.6345946-.35675676.615515-.01297304 1.2301796.05241681 1.8291892.19459459.3864787.09066974.7625361.22109424 1.1221621.38918919v-2.01081081l-.0778378-.0454054c-.2335135-.06486487-.5059459-.12324325-.8108108-.17513514s-.6486486-.11027027-.972973-.14918919c-.3492155-.03378396-.6999827-.04894057-1.0508108-.0454054zm63.3729732 0c-.732299-.0037656-1.463588.05482437-2.185946.17513513-.388754.06601462-.772398.15921631-1.1481083.27891892v1.88108108c.3963563-.13853838.8045383-.24058393 1.2194593-.30486486.642376-.113058 1.293718-.16733654 1.945946-.16216216.482226-.01361205.961888.07480489 1.407568.25945946.330905.14229225.620832.3653136.843243.64864865.210208.27897714.35838.59964914.434595.94054054.077927.35141581.11708.71031801.116756 1.07027031v.6162162c-.064865 0-.181621-.0518919-.343784-.0778379l-.551351-.0972973c-.214054-.0389189-.441081-.0713513-.681081-.0972973-.24-.0259459-.473513 0-.694054 0-.680364-.0023116-1.358957.0694627-2.023784.2140541-.589033.11809-1.153088.3375663-1.6670268.6486486-.4720552.2912726-.8625913.6974302-1.1351351 1.1805406-.2935308.5313047-.4391332 1.1316343-.4216217 1.7383784-.0179044.6181427.1040493 1.2323456.3567568 1.7967567.2231484.4871509.5697346.9075265 1.0054054 1.2194595.4681484.3133792.9922984.5336105 1.5437834.6486486.638039.1472462 1.291157.2190891 1.945946.2140541.492973 0 .985946 0 1.491892-.0648649.505946-.0648648.96-.0843243 1.394595-.1297297.434594-.0454054.823784-.0908108 1.167567-.1491892l.810811-.1297297v-7.6475676c.00651-.6414631-.074229-1.28083301-.24-1.90054054-.318771-1.1437973-1.191428-2.05058089-2.322162-2.41297297-.731512-.24306198-1.49969-.35719131-2.27027-.3372973zm28.410811 0c-1.172454-.06204219-2.332083.26895427-3.295136.94054054-.810812.61093892-1.271172 1.58011788-1.232432 2.59459459-.034159.90541674.35408 1.77535974 1.050811 2.35459464.34996.2781657.736222.5073042 1.148108.681081.441081.1945946.901622.3956757 1.381622.5837838.747871.2685453 1.461881.6233733 2.127567 1.0572973.41795.2832583.662516.7601622.648649 1.2648649.027635.4684516-.227874.9079274-.648649 1.1156757-.637656.2747334-1.330622.3968907-2.023784.3567567-.755951.0248265-1.511108-.0692945-2.237838-.2789189-.551351-.1816216-.94054-.3243243-1.2-.4216216v2.0302702c.220541.0713514.49946.1621622.843244.2594595.849563.200975 1.722057.2882244 2.594594.2594595 1.275055.0804645 2.545479-.2173969 3.651892-.8562162.864052-.5717514 1.358327-1.5603026 1.297298-2.5945946.015126-.4991767-.073213-.9960826-.25946-1.4594595-.176106-.3922274-.437609-.7401598-.765405-1.0183784-.355913-.3036933-.753457-.5548884-1.180541-.7459459-.46054-.2075676-.979459-.4281081-1.576216-.6486487-.447568-.1556757-.83027-.2983784-1.148108-.4410811-.2876-.1180847-.559849-.2705447-.810811-.454054-.198469-.1445655-.360581-.3333256-.473514-.5513514-.109739-.22165997-.165315-.46619605-.162162-.71351348-.017664-.48526591.258866-.93334722.700541-1.13513513.503095-.25013138 1.060001-.37265069 1.621621-.35675676.621943-.01301612 1.243048.05236338 1.848649.1945946.378958.08623061.748359.21008835 1.102703.36972973v-1.97837838l-.097297-.03243243c-.233514-.06486487-.505946-.12324325-.810811-.17513514s-.648649-.11027027-.992433-.14918919c-.349215-.03378396-.699983-.04894057-1.050811-.0454054zm-72.6486491.04540541c-.7065837.0215039-1.410899.09085187-2.1081081.20756756-.8432432.14270271-1.5178378.26594595-2.0302703.38918919v11.86378381h2.2054054v-10.30054056c.0648649 0 .1945946-.0518919.3891892-.07783784l.6486487-.07783784c.2335135 0 .4735135 0 .732973-.04540541.2594594-.0454054.4864864-.03243243.7135135-.03243243.4451642-.01255947.8877603.07153379 1.2972973.24648649.337746.15735477.620282.41276728.8108108.73297297.2199255.40247932.3629076.84242424.4216216 1.29729732.090806.6119536.1341784 1.2300104.1297297 1.8486486v6.3891892h2.2248649v-6.8432432c.000689-.5096814-.0318122-1.0188668-.0972973-1.5243244-.0614404-.43972645-.1590691-.87363178-.2918919-1.29729725.3056643-.22976682.6447351-.41133377 1.0054054-.53837838.5923192-.2129123 1.219545-.31194795 1.8486487-.29189189.4601223-.01585232.9182117.06824138 1.3427027.24648649.3354877.15148726.6178985.40000872.8108108.71351351.218451.40209717.357207.84259217.4086486 1.29729732.0818018.6127571.1208152 1.2304687.1167568 1.8486486v6.3891892h2.2248648v-6.8432432c.0050019-.7498213-.0557715-1.4986365-.1816216-2.23783786-.1070522-.62781734-.3482071-1.22517356-.707027-1.75135136-.3577516-.51440624-.8519652-.91876278-1.427027-1.16756756-.7457048-.29824806-1.5454882-.43743688-2.3481081-.40864865-.469116-.00532189-.9372201.04475436-1.3945946.14918919-.3964952.09354293-.7865035.21271214-1.1675676.35675675-.3066285.11232779-.6037905.24897893-.8886487.40864865-.24.1427027-.4086486.24648649-.5189189.32432433-.377757-.42519182-.8513708-.75427555-1.3816216-.96-.6453689-.2267616-1.327084-.33231748-2.0108108-.31135135h-.7913514zm21.4897297 0c-.6679501.02064198-1.3335025.09001551-1.9913513.20756756-.7913514.14918919-1.452973.29837838-1.9783784.42162162v16.17729728h2.2378379v-4.8843243c.3898885.2223048.8032248.4006921 1.2324324.5318919.6139014.1966961 1.2560096.2909304 1.9005405.2789189.8244633.0134289 1.6424188-.1479515 2.4-.4735135.6734838-.2959681 1.2719699-.7392911 1.7513514-1.2972973.4989267-.5893807.8739599-1.2732648 1.1027027-2.0108108.2533209-.8410067.3736913-1.7164278.3567567-2.5945946.0135616-.9057581-.1358422-1.8065756-.441081-2.65945947-.5280268-1.52745252-1.7211202-2.73247688-3.2432433-3.27567567-.8293546-.30916877-1.7096654-.45882162-2.5945946-.44108108h-.7654054zm-32.7243243.25945945v12.19459461h2.2378379v-12.18810812zm70.0540537 1.64108109c.563597-.01525474 1.123072.10019252 1.634595.33729729.44341.22019215.826382.545273 1.115676.94702703.308395.42095803.528984.8996368.648648 1.4075676.128059.5813827.188998 1.1755373.181622 1.7708108.079242 1.1930378-.304041 2.3707642-1.07027 3.2886486-.748406.7877677-1.800862 1.2134805-2.886487 1.1675676-.502768.0061451-1.005414-.0198539-1.504865-.0778378-.323594-.0396969-.644268-.100365-.96-.1816217v-7.71891888c.360152-.27205041.757788-.49053224 1.180541-.64864865.533219-.20766977 1.101316-.3111602 1.673513-.30486487zm-36.6032429.0454054c1.0821933-.04839006 2.1331777.36964194 2.8864865 1.14810811.7604249.90329391 1.143713 2.06477311 1.0702703 3.24324321.0026021.5893194-.0626931 1.1769769-.1945946 1.7513514-.1204966.5076438-.3410125.9861632-.6486487 1.4075676-.2879137.4013927-.6713727.7246577-1.1156756.9405405-.5125778.2414658-1.074686.3592197-1.6410811.3437838-1.026696-.0049131-2.0255906-.3340943-2.8540541-.9405406v-7.66054051c.2917313-.0762592.5887855-.13046618.8886487-.16216216.5236832-.05244999 1.0499941-.07410888 1.5762162-.06486486zm22.5535139 4.85189192c.433941-.0046844.867614.0235043 1.297297.0843243.268171.0309771.530391.1009023.778378.2075676v3.6324324c-.335499.0700804-.676024.1134595-1.018378.1297297h-1.394595c-.724169.0366312-1.445045-.1200809-2.088648-.454054-.539017-.3603388-.833784-.9898411-.765406-1.6345946-.020346-.3666439.087429-.7289537.304865-1.0248649.210267-.2559742.476592-.4601565.778379-.5967567.328136-.1521019.678522-.2506481 1.037837-.2918919.355522-.037089.712829-.054413 1.070271-.0518919z"/><path d="m12.972973 13.8356757 8.3675675 5.0789189c-2.0007369 2.6769402-5.0402915 4.3828608-8.3675675 4.6962162zm9.5416216 3.1718919-9.5416216-5.7924325v-11.2151351c6.1051238.56069221 10.7733438 5.68757404 10.7610811 11.8183784-.0027778 1.8004037-.4200419 3.5759958-1.2194595 5.1891892zm-21.32108109-10.34594598 9.55459459 5.81189188v11.1178379c-6.08759634-.5658469-10.74421557-5.6721095-10.7481081-11.785946.0014128-1.7830564.40960811-3.54228939 1.19351351-5.14378378zm9.55459459 3.19135135-8.39999999-5.10486486c1.9980772-2.70444093 5.05250401-4.43095862 8.39999999-4.74810811z"/></g></svg>