<svg width="200" height="63" viewBox="0 0 200 63" fill="none" xmlns="http://www.w3.org/2000/svg">
<mask id="mask0_130_29" style="mask-type:luminance" maskUnits="userSpaceOnUse" x="0" y="1" width="200" height="61">
<path d="M200 1.12207H0V61.8768H200V1.12207Z" fill="white"/>
</mask>
<g mask="url(#mask0_130_29)">
<path d="M13.064 40.2881C14.4879 39.6461 16.1158 39.325 17.9553 39.325C20.0703 39.325 21.8757 39.7102 23.3752 40.477C24.8747 41.2437 25.9133 42.271 26.491 43.5552L34.876 42.9508C34.147 39.7782 32.2812 37.4063 29.286 35.8313C26.2909 34.2563 22.5518 33.4707 18.0685 33.4707C14.6202 33.4707 11.5457 33.992 8.85272 35.0381C6.15976 36.0843 4.02579 37.6631 2.45081 39.7782C0.879594 41.8933 0.09021 44.473 0.09021 47.521C0.09021 50.569 0.845599 53.1563 2.35638 55.2828C3.86716 57.4092 5.91427 58.9917 8.49393 60.0227C11.0736 61.0536 13.9517 61.1936 17.1243 61.1936C18.9372 61.1936 20.6179 61.3746 22.1665 60.9856C23.715 60.5967 25.0748 60.0532 26.2457 59.3617C27.4164 58.6707 28.3418 57.8697 29.0217 56.9632L29.9659 61.1181H34.4983V45.4815H15.6135V50.3537H26.5289C26.3023 51.336 25.7924 52.2425 24.9993 53.0728C24.206 53.9038 23.1977 54.5538 21.9777 55.0183C20.7577 55.4828 19.4169 55.7168 17.9553 55.7168C16.0932 55.7168 14.454 55.4073 13.0452 54.7918C11.6364 54.1758 10.5259 53.2428 9.72144 51.9965C8.91697 50.7502 8.51283 49.2583 8.51283 47.521C8.51283 45.7836 8.91697 44.3672 9.72144 43.1208C10.5259 41.8745 11.6401 40.9302 13.064 40.2881Z" fill="black"/>
<path d="M37.2552 61.1176H65.4691V54.9608H45.4135V49.6355H64.1096V44.4611H45.4135V40.0798H65.4691V33.168H37.2552V61.1176Z" fill="black"/>
<path d="M98.7705 42.7237C98.7705 41.1373 98.4455 38.5803 97.7925 37.3226C97.139 36.065 96.0811 35.0565 94.6196 34.3011C93.1541 33.5457 91.2808 33.168 88.9919 33.168H67.8485V61.1176H75.8178V51.033H83.4815L89.9138 61.1176H98.5855L91.8853 50.814C93.7961 50.4928 95.3031 49.8092 96.3911 48.748C97.9775 47.1993 98.7705 45.1901 98.7705 42.7237ZM75.8218 38.909H87.3339C88.4404 38.909 89.2529 39.1356 89.7698 39.5888C90.2873 40.042 90.5443 41.0882 90.5443 41.9683C90.5443 42.9012 90.2988 44.3176 89.8078 44.7066C89.3168 45.0956 88.4899 45.292 87.3339 45.292H75.8218V38.909Z" fill="black"/>
<path d="M123.581 49.1067C123.581 51.0972 122.977 52.6685 121.772 53.8278C120.564 54.9873 118.803 55.5653 116.492 55.5653C114.181 55.5653 112.451 54.9873 111.231 53.8278C110.011 52.6685 109.403 51.0972 109.403 49.1067V33.168H101.419V49.22C101.419 51.966 101.985 54.2623 103.118 56.1128C104.251 57.9637 105.935 59.3422 108.175 60.2487C110.415 61.1551 113.176 61.6086 116.458 61.6086C121.432 61.6086 125.201 60.5771 127.766 58.5112C130.328 56.4493 131.611 53.3483 131.611 49.22V33.168H123.589V49.1067H123.581Z" fill="black"/>
<path d="M165.105 47.1007C163.545 45.8844 161.699 45.0874 159.573 44.7098C157.445 44.3283 154.768 44.0639 151.546 43.9129C149.658 43.7882 148.196 43.6673 147.165 43.5502C146.134 43.4369 145.288 43.2141 144.634 42.8856C143.98 42.5569 143.653 42.0772 143.653 41.4427C143.653 40.5324 144.275 39.8602 145.521 39.4297C146.768 38.9991 148.449 38.7837 150.564 38.7837C152.679 38.7837 154.296 39.0934 155.644 39.7128C156.993 40.3323 157.929 41.2274 158.458 42.3907L166.88 41.4427C165.671 38.7347 163.771 36.7291 161.178 35.4223C158.583 34.1192 155.161 33.4658 150.904 33.4658C147.931 33.4658 145.314 33.7453 143.048 34.3004C140.781 34.8594 138.969 35.7697 137.609 37.0351C136.249 38.3003 135.569 39.9736 135.569 42.0471C135.569 44.3246 136.299 46.0393 137.76 47.1913C139.221 48.3432 140.97 49.0836 143.01 49.4121C145.05 49.7407 147.645 49.9937 150.79 50.1713C152.729 50.2468 154.265 50.3488 155.399 50.4734C156.531 50.6018 157.468 50.8587 158.213 51.2514C158.956 51.6444 159.326 52.2559 159.326 53.0944C159.326 53.8538 158.968 54.4543 158.25 54.8998C157.533 55.3418 156.615 55.6328 155.493 55.7723C154.371 55.9123 153.106 55.9803 151.696 55.9803C149.129 55.9803 147.078 55.6253 145.54 54.9188C144.004 54.2088 142.984 53.1704 142.481 51.8069L134.059 52.8304C135.219 55.6138 137.269 57.7402 140.215 59.2097C143.161 60.6787 147.063 61.4116 151.924 61.4116C155.07 61.4116 157.796 61.1281 160.1 60.5582C162.405 59.9877 164.206 59.0507 165.501 57.7477C166.798 56.4448 167.446 54.7413 167.446 52.6414C167.446 50.1599 166.665 48.3129 165.105 47.0968V47.1007Z" fill="black"/>
<path d="M169.563 33.168V40.0798H180.591V61.1176H188.674V40.0798H199.74V33.168H169.563Z" fill="black"/>
<path d="M188.473 29.002V33.1075H180.919V29.002H180.541V33.1075L166.566 33.1113V29.002H166.189V33.1075H158.258V29.002H157.88V33.1075L143.905 33.1113V29.002H143.528V33.1075H135.596V29.002H135.219V33.1075L131.819 33.1113V29.002H131.441V33.1075H123.887V29.002H123.51V33.1075L109.535 33.1113V29.002H109.157V33.1075H101.604V29.002H101.226V33.1075L98.9595 33.1113V29.002H98.5815V33.1075H90.6503V29.002H90.2723V33.1075L75.9198 33.1113V29.002H75.5423V33.1075H67.9885V29.002H67.6105V33.1075L65.7222 33.1113V29.002H65.3447V33.1075H57.4129V29.002H57.0354V33.1075L45.7044 33.1113V29.002H45.3267V33.1075H37.395V29.002H37.0174V33.1075L34.7512 33.1113V29.002H34.3735V33.1075H26.4419V29.002H26.0642V33.1075L8.69021 33.1113V29.002H8.31252V33.1075H0.380931V29.002H0.00323486V61.4347H188.851V29.002H188.473ZM181.229 40.0911L184.696 37.0393L188.164 40.0911H181.233H181.229ZM188.164 40.4688L184.696 43.5243L181.229 40.4688H188.168H188.164ZM180.919 39.8645V33.7118L184.409 36.7863L180.919 39.8607V39.8645ZM181.236 33.489H188.156L184.696 36.537L181.236 33.489ZM184.409 43.7775L180.919 46.8518V40.6992L184.409 43.7737V43.7775ZM181.229 47.0822L184.696 44.0305L188.164 47.0822H181.233H181.229ZM188.156 47.46L184.696 50.508L181.236 47.46H188.156ZM184.409 50.761L180.919 53.8355V47.6828L184.409 50.7572V50.761ZM184.409 57.7483L180.919 60.8227V54.67L184.409 57.7443V57.7483ZM181.229 54.4435H188.16L184.693 57.4953L181.225 54.4435H181.229ZM181.229 54.066L184.696 51.0103L188.164 54.066H181.225H181.229ZM184.696 58.0013L188.164 61.0532H181.233L184.7 58.0013H184.696ZM184.984 57.7483L188.473 54.674V60.8267L184.984 57.7523V57.7483ZM184.984 50.761L188.473 47.6866V53.839L184.984 50.7648V50.761ZM184.984 43.7775L188.473 40.703V46.8556L184.984 43.7812V43.7775ZM184.984 36.7863L188.473 33.7118V39.8645L184.984 36.7901V36.7863ZM180.541 33.489V47.0822H166.566V33.489H180.541ZM165.853 47.46L162.224 50.5117L158.594 47.46H165.853ZM158.586 47.0822L162.224 44.023L165.86 47.0822H158.586ZM162.518 43.7775L166.189 40.6878V46.8632L162.518 43.7737V43.7775ZM162.518 36.7863L166.189 33.6967V39.8721L162.518 36.7825V36.7863ZM165.86 40.0911H158.586L162.224 37.0318L165.86 40.0911ZM162.224 36.5408L158.594 33.489H165.853L162.224 36.5408ZM161.929 36.7863L158.258 39.8758V33.7005L161.929 36.7901V36.7863ZM165.864 40.4688L162.224 43.5281L158.583 40.4688H165.86H165.864ZM161.929 43.7775L158.258 46.867V40.6917L161.929 43.7812V43.7775ZM161.929 50.761L158.258 53.8505V47.6752L161.929 50.7648V50.761ZM161.929 57.7483L158.258 60.8377V54.6625L161.929 57.7523V57.7483ZM158.586 54.4435H165.86L162.224 57.5028L158.586 54.4435ZM166.189 54.6625V60.8377L162.518 57.7483L166.189 54.659V54.6625ZM158.583 54.066L162.224 51.0066L165.864 54.066H158.586H158.583ZM162.224 57.9978L165.86 61.0567H158.586L162.224 57.9978ZM162.518 50.761L166.189 47.6715V53.847L162.518 50.7572V50.761ZM157.88 33.489V47.0822H143.905V33.489H157.88ZM143.191 47.46L139.561 50.5117L135.931 47.46H143.191ZM135.924 47.0822L139.561 44.023L143.199 47.0822H135.924ZM139.856 43.7775L143.528 40.6878V46.8632L139.856 43.7737V43.7775ZM139.856 36.7863L143.528 33.6967V39.8721L139.856 36.7825V36.7863ZM143.199 40.0911H135.924L139.561 37.0318L143.199 40.0911ZM139.561 36.5408L135.931 33.489H143.191L139.561 36.5408ZM139.268 36.7863L135.596 39.8758V33.7005L139.268 36.7901V36.7863ZM143.203 40.4688L139.561 43.5281L135.921 40.4688H143.199H143.203ZM139.268 43.7775L135.596 46.867V40.6917L139.268 43.7812V43.7775ZM139.268 50.761L135.596 53.8505V47.6752L139.268 50.7648V50.761ZM139.268 57.7483L135.596 60.8377V54.6625L139.268 57.7523V57.7483ZM135.924 54.4435H143.199L139.561 57.5028L135.924 54.4435ZM143.528 54.6625V60.8377L139.856 57.7483L143.528 54.659V54.6625ZM135.921 54.066L139.561 51.0066L143.203 54.066H135.924H135.921ZM139.561 57.9978L143.199 61.0567H135.924L139.561 57.9978ZM139.856 50.761L143.528 47.6715V53.847L139.856 50.7572V50.761ZM135.219 33.489V47.0822H131.819V33.489H135.219ZM131.124 47.46L127.664 50.508L124.205 47.46H131.124ZM124.197 47.0822L127.664 44.0305L131.131 47.0822H124.201H124.197ZM127.951 43.7775L131.441 40.703V46.8556L127.951 43.7812V43.7775ZM127.951 36.7863L131.441 33.7118V39.8645L127.951 36.7901V36.7863ZM131.131 40.0911H124.201L127.668 37.0393L131.135 40.0911H131.131ZM127.664 36.537L124.205 33.489H131.124L127.664 36.537ZM127.378 36.7863L123.887 39.8607V33.7081L127.378 36.7825V36.7863ZM131.131 40.4688L127.664 43.5243L124.197 40.4688H131.135H131.131ZM127.378 43.7775L123.887 46.8518V40.6992L127.378 43.7737V43.7775ZM127.378 50.761L123.887 53.8355V47.6828L127.378 50.7572V50.761ZM127.378 57.7483L123.887 60.8227V54.67L127.378 57.7443V57.7483ZM124.197 54.4435H131.128L127.66 57.4953L124.193 54.4435H124.197ZM131.441 54.674V60.8267L127.951 57.7523L131.441 54.678V54.674ZM124.197 54.066L127.664 51.0103L131.131 54.066H124.193H124.197ZM127.664 58.0013L131.131 61.0532H124.201L127.668 58.0013H127.664ZM127.951 50.761L131.441 47.6866V53.839L127.951 50.7648V50.761ZM123.51 33.489V47.0822H109.535V33.489H123.51ZM108.84 47.46L105.38 50.508L101.92 47.46H108.84ZM101.913 47.0822L105.38 44.0305L108.847 47.0822H101.917H101.913ZM105.667 43.7775L109.157 40.703V46.8556L105.667 43.7812V43.7775ZM105.667 36.7863L109.157 33.7118V39.8645L105.667 36.7901V36.7863ZM108.847 40.0911H101.917L105.384 37.0393L108.851 40.0911H108.847ZM105.38 36.537L101.92 33.489H108.84L105.38 36.537ZM105.093 36.7863L101.604 39.8607V33.7081L105.093 36.7825V36.7863ZM108.847 40.4688L105.38 43.5243L101.913 40.4688H108.851H108.847ZM105.093 43.7775L101.604 46.8518V40.6992L105.093 43.7737V43.7775ZM105.093 50.761L101.604 53.8355V47.6828L105.093 50.7572V50.761ZM105.093 57.7483L101.604 60.8227V54.67L105.093 57.7443V57.7483ZM101.913 54.4435H108.844L105.376 57.4953L101.909 54.4435H101.913ZM109.157 54.674V60.8267L105.667 57.7523L109.157 54.678V54.674ZM101.913 54.066L105.38 51.0103L108.847 54.066H101.909H101.913ZM105.38 58.0013L108.847 61.0532H101.917L105.384 58.0013H105.38ZM105.667 50.761L109.157 47.6866V53.839L105.667 50.7648V50.761ZM101.226 33.489V47.0822H98.9595V33.489H101.226ZM98.2455 47.46L94.6157 50.5117L90.9863 47.46H98.2455ZM90.9788 47.0822L94.6157 44.023L98.253 47.0822H90.9788ZM94.9107 43.7775L98.5815 40.6878V46.8632L94.9107 43.7737V43.7775ZM94.9107 36.7863L98.5815 33.6967V39.8721L94.9107 36.7825V36.7863ZM98.253 40.0911H90.9788L94.6157 37.0318L98.253 40.0911ZM94.6157 36.5408L90.9863 33.489H98.2455L94.6157 36.5408ZM94.3212 36.7863L90.6503 39.8758V33.7005L94.3212 36.7901V36.7863ZM98.257 40.4688L94.6157 43.5281L90.9748 40.4688H98.253H98.257ZM94.3212 43.7775L90.6503 46.867V40.6917L94.3212 43.7812V43.7775ZM94.3212 50.761L90.6503 53.8505V47.6752L94.3212 50.7648V50.761ZM94.3212 57.7483L90.6503 60.8377V54.6625L94.3212 57.7523V57.7483ZM90.9788 54.4435H98.253L94.6157 57.5028L90.9788 54.4435ZM98.5815 54.6625V60.8377L94.9107 57.7483L98.5815 54.659V54.6625ZM90.9748 54.066L94.6157 51.0066L98.257 54.066H90.9788H90.9748ZM94.6157 57.9978L98.253 61.0567H90.9788L94.6157 57.9978ZM94.9107 50.761L98.5815 47.6715V53.847L94.9107 50.7572V50.761ZM90.2723 33.489V47.0822H75.9198V33.489H90.2723ZM75.2248 47.46L71.7654 50.508L68.3055 47.46H75.2248ZM68.298 47.0822L71.7654 44.0305L75.2328 47.0822H68.302H68.298ZM72.0524 43.7775L75.5423 40.703V46.8556L72.0524 43.7812V43.7775ZM72.0524 36.7863L75.5423 33.7118V39.8645L72.0524 36.7901V36.7863ZM75.2328 40.0911H68.302L71.7689 37.0393L75.2363 40.0911H75.2328ZM71.7654 36.537L68.3055 33.489H75.2248L71.7654 36.537ZM71.4784 36.7863L67.9885 39.8607V33.7081L71.4784 36.7825V36.7863ZM75.2328 40.4688L71.7654 43.5243L68.298 40.4688H75.2363H75.2328ZM71.4784 43.7775L67.9885 46.8518V40.6992L71.4784 43.7737V43.7775ZM71.4784 50.761L67.9885 53.8355V47.6828L71.4784 50.7572V50.761ZM71.4784 57.7483L67.9885 60.8227V54.67L71.4784 57.7443V57.7483ZM68.298 54.4435H75.2288L71.7614 57.4953L68.2945 54.4435H68.298ZM75.5423 54.674V60.8267L72.0524 57.7523L75.5423 54.678V54.674ZM68.298 54.066L71.7654 51.0103L75.2328 54.066H68.2945H68.298ZM71.7654 58.0013L75.2328 61.0532H68.302L71.7689 58.0013H71.7654ZM72.0524 50.761L75.5423 47.6866V53.839L72.0524 50.7648V50.761ZM67.6105 33.489V47.0822H65.7222V33.489H67.6105ZM65.0082 47.46L61.3788 50.5117L57.7489 47.46H65.0082ZM57.7414 47.0822L61.3788 44.023L65.0162 47.0822H57.7414ZM61.6733 43.7775L65.3447 40.6878V46.8632L61.6733 43.7737V43.7775ZM61.6733 36.7863L65.3447 33.6967V39.8721L61.6733 36.7825V36.7863ZM65.0162 40.0911H57.7414L61.3788 37.0318L65.0162 40.0911ZM61.3788 36.5408L57.7489 33.489H65.0082L61.3788 36.5408ZM61.0843 36.7863L57.4129 39.8758V33.7005L61.0843 36.7901V36.7863ZM65.0197 40.4688L61.3788 43.5281L57.7379 40.4688H65.0162H65.0197ZM61.0843 43.7775L57.4129 46.867V40.6917L61.0843 43.7812V43.7775ZM61.0843 50.761L57.4129 53.8505V47.6752L61.0843 50.7648V50.761ZM61.0843 57.7483L57.4129 60.8377V54.6625L61.0843 57.7523V57.7483ZM57.7414 54.4435H65.0162L61.3788 57.5028L57.7414 54.4435ZM65.3447 54.6625V60.8377L61.6733 57.7483L65.3447 54.659V54.6625ZM57.7379 54.066L61.3788 51.0066L65.0197 54.066H57.7414H57.7379ZM61.3788 57.9978L65.0162 61.0567H57.7414L61.3788 57.9978ZM61.6733 50.761L65.3447 47.6715V53.847L61.6733 50.7572V50.761ZM57.0354 33.489V47.0822H45.7044V33.489H57.0354ZM44.9905 47.46L41.3609 50.5117L37.7312 47.46H44.9905ZM37.7237 47.0822L41.3609 44.023L44.998 47.0822H37.7237ZM41.6555 43.7775L45.3267 40.6878V46.8632L41.6555 43.7737V43.7775ZM41.6555 36.7863L45.3267 33.6967V39.8721L41.6555 36.7825V36.7863ZM44.998 40.0911H37.7237L41.3609 37.0318L44.998 40.0911ZM41.3609 36.5408L37.7312 33.489H44.9905L41.3609 36.5408ZM41.0663 36.7863L37.395 39.8758V33.7005L41.0663 36.7901V36.7863ZM45.0019 40.4688L41.3609 43.5281L37.7199 40.4688H44.998H45.0019ZM41.0663 43.7775L37.395 46.867V40.6917L41.0663 43.7812V43.7775ZM41.0663 50.761L37.395 53.8505V47.6752L41.0663 50.7648V50.761ZM41.0663 57.7483L37.395 60.8377V54.6625L41.0663 57.7523V57.7483ZM37.7237 54.4435H44.998L41.3609 57.5028L37.7237 54.4435ZM45.3267 54.6625V60.8377L41.6555 57.7483L45.3267 54.659V54.6625ZM37.7199 54.066L41.3609 51.0066L45.0019 54.066H37.7237H37.7199ZM41.3609 57.9978L44.998 61.0567H37.7237L41.3609 57.9978ZM41.6555 50.761L45.3267 47.6715V53.847L41.6555 50.7572V50.761ZM37.0174 33.489V47.0822H34.7512V33.489H37.0174ZM34.0374 47.46L30.4077 50.5117L26.778 47.46H34.0374ZM26.7705 47.0822L30.4077 44.023L34.0449 47.0822H26.7705ZM30.7023 43.7775L34.3735 40.6878V46.8632L30.7023 43.7737V43.7775ZM30.7023 36.7863L34.3735 33.6967V39.8721L30.7023 36.7825V36.7863ZM34.0449 40.0911H26.7705L30.4077 37.0318L34.0449 40.0911ZM30.4077 36.5408L26.778 33.489H34.0374L30.4077 36.5408ZM30.1132 36.7863L26.4419 39.8758V33.7005L30.1132 36.7901V36.7863ZM34.0487 40.4688L30.4077 43.5281L26.7668 40.4688H34.0449H34.0487ZM30.1132 43.7775L26.4419 46.867V40.6917L30.1132 43.7812V43.7775ZM30.1132 50.761L26.4419 53.8505V47.6752L30.1132 50.7648V50.761ZM30.1132 57.7483L26.4419 60.8377V54.6625L30.1132 57.7523V57.7483ZM26.7705 54.4435H34.0449L30.4077 57.5028L26.7705 54.4435ZM34.3735 54.6625V60.8377L30.7023 57.7483L34.3735 54.659V54.6625ZM26.7668 54.066L30.4077 51.0066L34.0487 54.066H26.7705H26.7668ZM30.4077 57.9978L34.0449 61.0567H26.7705L30.4077 57.9978ZM30.7023 50.761L34.3735 47.6715V53.847L30.7023 50.7572V50.761ZM26.0642 33.489V47.0822H8.69021V33.489H26.0642ZM7.97638 47.46L4.34673 50.5117L0.717081 47.46H7.97638ZM0.709526 47.0822L4.34673 44.023L7.98393 47.0822H0.709526ZM4.64134 43.7775L8.31252 40.6878V46.8632L4.64134 43.7737V43.7775ZM8.31252 33.7005V39.8758L4.64134 36.7863L8.31252 33.6967V33.7005ZM4.34673 36.5408L0.717081 33.489H7.97638L4.34673 36.5408ZM7.98393 40.0911H0.709526L4.34673 37.0318L7.98393 40.0911ZM7.98773 40.4688L4.34673 43.5281L0.705751 40.4688H7.98393H7.98773ZM4.05213 36.7863L0.380931 39.8758V33.7005L4.05213 36.7901V36.7863ZM4.05213 43.7775L0.380931 46.867V40.6917L4.05213 43.7812V43.7775ZM4.05213 50.761L0.380931 53.8505V47.6752L4.05213 50.7648V50.761ZM8.31252 54.6625V60.8377L4.64134 57.7483L8.31252 54.659V54.6625ZM4.34673 57.5028L0.709526 54.4435H7.98393L4.34673 57.5028ZM0.705751 54.066L4.34673 51.0066L7.98773 54.066H0.705751ZM0.380931 54.6625L4.05213 57.7523L0.380931 60.8417V54.6665V54.6625ZM4.34673 57.9978L7.98393 61.0567H0.709526L4.34673 57.9978ZM4.64134 50.761L8.31252 47.6715V53.847L4.64134 50.7572V50.761ZM8.69021 61.0532V47.46H26.0642V61.0532H8.69021ZM34.7512 61.0532V47.46H37.0174V61.0532H34.7512ZM45.7044 61.0532V47.46H57.0354V61.0532H45.7044ZM65.7222 61.0532V47.46H67.6105V61.0532H65.7222ZM75.9198 61.0532V47.46H90.2723V61.0532H75.9198ZM98.9595 61.0532V47.46H101.226V61.0532H98.9595ZM109.535 61.0532V47.46H123.51V61.0532H109.535ZM131.819 61.0532V47.46H135.219V61.0532H131.819ZM143.905 61.0532V47.46H157.88V61.0532H143.905ZM166.566 61.0532V47.46H180.541V61.0532H166.566Z" fill="url(#paint0_radial_130_29)"/>
<path d="M199.936 6.18955C200.254 4.05558 199.283 2.09534 197.704 1.45703C196.915 2.82051 196.136 4.31996 195.499 5.8534C195.499 5.8534 194.653 4.21799 194.21 2.29174C193.504 2.9867 192.99 3.98381 192.816 5.13579C192.526 7.08846 193.315 8.89385 194.66 9.67568C194.943 11.9003 194.158 13.2789 193.35 14.0872L192.153 14.6651C192.031 14.6009 191.906 14.5404 191.783 14.48L191.48 12.8521C191.45 12.6859 191.336 12.5499 191.178 12.4895C191.019 12.4291 190.841 12.4555 190.709 12.5537L189.384 13.5509C189.251 13.513 189.115 13.4754 188.983 13.4375L188.368 11.9041C188.303 11.7492 188.168 11.6359 188.001 11.6057C187.835 11.5755 187.665 11.6359 187.555 11.7606L186.453 12.9956C186.313 12.9843 186.176 12.973 186.038 12.9654L185.134 11.5831C185.044 11.4433 184.885 11.3602 184.715 11.364C184.545 11.3678 184.394 11.4584 184.308 11.6019L183.465 13.0296C183.329 13.0447 183.189 13.0598 183.054 13.0787L181.894 11.8928C181.776 11.7719 181.603 11.7228 181.44 11.7606C181.274 11.7983 181.141 11.9154 181.085 12.0741L180.538 13.6377C180.405 13.6792 180.274 13.7207 180.145 13.7661L178.774 12.8294C178.635 12.735 178.456 12.7199 178.303 12.7879C178.148 12.8559 178.038 12.9994 178.015 13.1656L177.785 14.801C177.66 14.869 177.539 14.937 177.418 15.005L175.893 14.3554C175.738 14.2874 175.56 14.3062 175.42 14.4044C175.284 14.5026 175.205 14.6612 175.213 14.8312L175.306 16.4817C175.201 16.5724 175.095 16.663 174.99 16.7537L173.365 16.4137C173.199 16.3797 173.029 16.4326 172.913 16.5535C172.795 16.6744 172.75 16.8481 172.791 17.0105L173.206 18.6157C173.12 18.7215 173.036 18.831 172.954 18.9406L172.233 18.933C170.518 17.2711 170.779 15.6961 171.175 14.7935C172.519 14.1136 173.438 12.4555 173.365 10.552C173.32 9.38864 172.916 8.34241 172.293 7.57189C171.644 9.43774 170.624 10.9749 170.624 10.9749C170.155 9.38109 169.544 7.80609 168.909 6.36329C167.269 6.82406 166.091 8.66726 166.17 10.8239C166.249 12.8861 167.459 14.5744 169.026 15.0087C168.384 18.4382 171.054 20.6137 171.485 20.9386L171.571 21.1124C171.508 21.2331 171.446 21.354 171.386 21.4786L169.751 21.7846C169.585 21.8149 169.449 21.9281 169.384 22.0867C169.324 22.2416 169.346 22.4191 169.449 22.5551L170.426 23.8469C170.291 24.0356 170.163 24.2207 170.045 24.3907L168.795 24.8892C168.64 24.9535 168.528 25.0894 168.496 25.2556C168.466 25.4219 168.528 25.588 168.651 25.7014C169.15 26.1432 169.626 26.6304 170.181 27.0006C170.609 27.2839 171.076 27.5105 171.568 27.6917C172.636 28.3111 174.03 28.9986 175.719 29.5802C175.523 31.8049 175.383 34.1844 175.658 34.1956C175.968 34.2107 176.855 31.9635 177.528 30.1279C177.679 30.1656 177.841 30.2034 178 30.2374C178.049 32.1184 178.155 34.3014 178.396 34.2864C178.66 34.2674 179.213 32.1184 179.575 30.5622C179.783 30.5962 179.998 30.6302 180.213 30.6605C180.326 32.4356 180.485 34.3279 180.655 34.3014C180.848 34.2712 181.15 32.3374 181.365 30.8002C182.563 30.9172 183.831 30.9589 185.18 30.8909C186.09 30.8455 186.94 30.7171 187.74 30.5245C187.955 32.0995 188.288 34.2712 188.488 34.3014C188.673 34.3316 188.848 32.0692 188.96 30.1732C189.123 30.1166 189.281 30.0561 189.436 29.9957C189.784 31.5291 190.445 34.2636 190.743 34.2825C191.03 34.3014 191.129 31.1665 191.159 29.1761C191.189 29.1572 191.219 29.1421 191.249 29.1232C191.914 31.0004 193.108 34.207 193.478 34.1881C193.836 34.1692 193.493 30.2072 193.244 27.7257C196.503 24.9799 198.063 21.2256 198.606 19.7261C198.599 19.73 198.588 19.7337 198.58 19.7412L198.92 18.9519C198.989 18.797 198.969 18.6195 198.871 18.4835C198.773 18.3476 198.614 18.2682 198.444 18.2796L196.786 18.3777C196.696 18.272 196.605 18.1662 196.514 18.0644L196.858 16.444C196.891 16.2779 196.839 16.1079 196.719 15.9945C196.598 15.8774 196.424 15.8321 196.261 15.8774L194.653 16.2966C194.585 16.24 194.513 16.1871 194.445 16.1342C196.714 14.3742 196.813 11.432 196.711 10.0345C198.286 9.73988 199.638 8.21023 199.936 6.19711V6.18955Z" fill="url(#paint1_radial_130_29)"/>
<path d="M187.464 19.5265C188.502 19.205 189.02 17.9009 188.621 16.6136C188.223 15.3265 187.059 14.5436 186.02 14.8651C184.982 15.1868 184.464 16.4909 184.863 17.7781C185.261 19.0653 186.426 19.8481 187.464 19.5265Z" fill="black"/>
<path d="M181.599 20.2878C182.669 20.0967 183.344 18.8664 183.106 17.5399C182.869 16.2134 181.81 15.293 180.74 15.4841C179.67 15.6752 178.995 16.9056 179.233 18.2321C179.47 19.5586 180.529 20.479 181.599 20.2878Z" fill="black"/>
<path d="M186.208 17.4295C186.729 17.4295 187.151 17.0068 187.151 16.4853C187.151 15.9638 186.729 15.541 186.208 15.541C185.686 15.541 185.263 15.9638 185.263 16.4853C185.263 17.0068 185.686 17.4295 186.208 17.4295Z" fill="white"/>
<path d="M180.541 18.1854C181.063 18.1854 181.486 17.7626 181.486 17.2411C181.486 16.7196 181.063 16.2969 180.541 16.2969C180.02 16.2969 179.598 16.7196 179.598 17.2411C179.598 17.7626 180.02 18.1854 180.541 18.1854Z" fill="white"/>
</g>
<defs>
<radialGradient id="paint0_radial_130_29" cx="0" cy="0" r="1" gradientUnits="userSpaceOnUse" gradientTransform="translate(94.4272 45.2165) scale(67.7432 67.7433)">
<stop stop-color="#79DDF5"/>
<stop offset="0.34" stop-color="#DDD0FE"/>
<stop offset="0.67" stop-color="#E39BFF"/>
<stop offset="1" stop-color="#7C6EFF"/>
</radialGradient>
<radialGradient id="paint1_radial_130_29" cx="0" cy="0" r="1" gradientUnits="userSpaceOnUse" gradientTransform="translate(183.084 17.8792) scale(16.6678)">
<stop stop-color="#79DDF5"/>
<stop offset="0.34" stop-color="#DDD0FE"/>
<stop offset="0.67" stop-color="#E39BFF"/>
<stop offset="1" stop-color="#7C6EFF"/>
</radialGradient>
</defs>
</svg>
