<?xml version="1.0" encoding="UTF-8"?>
<svg width="170px" height="170px" viewBox="0 0 170 170" version="1.1" xmlns="http://www.w3.org/2000/svg" xmlns:xlink="http://www.w3.org/1999/xlink">
    <title>Fill 1</title>
    <g id="Ember-/-Elixir-/-EuroRust" stroke="none" stroke-width="1" fill="none" fill-rule="evenodd">
        <g id="Hero-section" transform="translate(-121.000000, -139.000000)" fill="#FFFFFF">
            <path d="M154.311088,210.81612 C156.700158,209.599487 157.651362,206.673247 156.431546,204.284222 L154.930477,201.332701 L165.523283,201.332701 L165.523283,241.810246 L146.27168,241.810246 C144.584162,236.163172 143.66456,230.187449 143.66456,224 C143.66456,221.276006 143.860489,218.599413 144.201785,215.967061 L154.311088,210.81612 Z M222.191003,206.998736 C222.191003,208.436575 221.442049,209.785932 220.086346,210.80664 C218.462032,212.023273 216.107724,212.667931 213.285714,212.667931 L193.048146,212.667931 L193.048146,201.332701 L213.285714,201.332701 C219.403755,201.332701 222.191003,204.271582 222.191003,206.998736 L222.191003,206.998736 Z M194.539734,162.741728 L202.566502,170.768347 C203.514546,171.716373 204.756483,172.190386 205.99842,172.190386 C207.243517,172.190386 208.485454,171.716373 209.433498,170.768347 L217.460266,162.741728 C236.120922,166.224143 251.886885,178.036545 260.716331,194.171946 L255.565294,204.284222 C254.348638,206.673247 255.299842,209.599487 257.688912,210.81612 L267.798215,215.967061 C268.139511,218.599413 268.33228,221.276006 268.33228,224 C268.33228,225.636925 268.250116,227.251729 268.126871,228.857053 L261.857143,228.857053 C261.408402,228.857053 261.048146,229.220462 261.048146,229.666035 L261.048146,232.905123 C261.048146,237.942301 258.665396,241.187709 254.670973,241.58272 C251.33386,241.911369 247.235152,239.866793 246.460916,235.986207 C245.162097,229.50171 240.66205,223.551268 237.716795,221.509852 C247.039223,216.017622 251.11581,207.943602 248.922669,199.171202 C246.460916,189.327534 236.708709,181.904491 226.239149,181.904491 L160.075193,181.904491 C169.018403,172.155625 181.017474,165.266637 194.539734,162.741728 L194.539734,162.741728 Z M205.99842,286.332701 C196.435821,286.332701 187.372525,284.161722 179.263593,280.296937 L177.487592,269.08179 C177.067292,266.433638 174.573938,264.619749 171.932057,265.04636 L160.760944,266.816009 C159.086067,265.04636 157.502835,263.19139 156.042848,261.238456 L206.807417,261.238456 C207.256158,261.238456 207.619574,260.875046 207.619574,260.429474 L207.619574,242.619228 C207.619574,242.170496 207.256158,241.810246 206.807417,241.810246 L193.048146,241.810246 L193.048146,230.475017 L208.428571,230.475017 C217.12213,230.475017 218.724324,238.195107 220.424482,246.36709 C221.944512,253.67953 223.515104,261.238456 231.096291,261.238456 L255.957152,261.238456 C254.497165,263.19139 252.910772,265.04636 251.235896,266.816009 L240.067943,265.04636 C237.422902,264.622909 234.929547,266.433638 234.509248,269.08179 L232.733247,280.296937 C224.627475,284.161722 215.564179,286.332701 205.99842,286.332701 L205.99842,286.332701 Z M289.821266,221.917503 L282.616135,217.594505 C282.556093,216.836084 282.486569,216.080824 282.401245,215.325563 L288.617251,209.691129 C289.24928,209.115994 289.533693,208.25329 289.366205,207.419027 C289.201877,206.581605 288.60777,205.892706 287.805093,205.605138 L279.901571,202.773701 C279.689841,202.040561 279.478111,201.307421 279.247421,200.583761 L284.23729,193.846457 C284.746073,193.160718 284.856678,192.260094 284.531183,191.470072 C284.205688,190.683211 283.488335,190.123875 282.644577,189.997472 L274.320755,188.758718 C273.973139,188.09194 273.625523,187.425162 273.258946,186.764704 L276.852031,179.161536 C277.215448,178.390475 277.149084,177.48669 276.675063,176.775671 C276.201041,176.067812 275.376243,175.63488 274.538805,175.701242 L266.107538,176.112053 C265.646157,175.530597 265.175295,174.955461 264.694953,174.389806 L266.742727,166.202022 C266.951297,165.37408 266.707965,164.498736 266.104378,163.895159 C265.50079,163.291583 264.62227,163.051416 263.797472,163.256822 L255.612696,165.304558 C255.04387,164.824225 254.468724,164.356532 253.890417,163.891999 L254.298076,155.460889 C254.339158,154.610826 253.931499,153.798684 253.223627,153.324671 C252.515754,152.850658 251.605632,152.784296 250.837717,153.147706 L243.231248,156.740724 C242.573938,156.374154 241.907148,156.026545 241.237197,155.678935 L239.99842,147.358428 C239.875174,146.511525 239.315829,145.797346 238.528953,145.471857 C237.735756,145.143208 236.838275,145.253811 236.152523,145.762585 L229.418254,150.752361 C228.694581,150.521674 227.961428,150.309949 227.228274,150.098223 L224.393624,142.194847 C224.106051,141.395345 223.417139,140.801249 222.579701,140.633765 C221.751743,140.46628 220.879543,140.750688 220.307556,141.385865 L214.673018,147.598595 C213.920903,147.513272 213.162469,147.446911 212.404034,147.383709 L208.080955,140.178712 C207.644855,139.448732 206.851659,139 205.99842,139 C205.145181,139 204.355145,139.448732 203.915884,140.178712 L199.595966,147.383709 C198.837531,147.446911 198.079097,147.513272 197.326982,147.598595 L191.689283,141.385865 C191.117297,140.750688 190.251417,140.46628 189.417139,140.633765 C188.579701,140.801249 187.893949,141.395345 187.603216,142.198007 L184.771726,150.098223 C184.038572,150.309949 183.305419,150.521674 182.581746,150.752361 L175.847477,145.762585 C175.161725,145.253811 174.261084,145.146368 173.471047,145.471857 C172.684171,145.797346 172.124826,146.511525 171.99842,147.358428 L170.759643,155.678935 C170.089692,156.026545 169.422902,156.374154 168.765592,156.740724 L161.162283,153.147706 C160.391207,152.784296 159.481086,152.853818 158.776373,153.324671 C158.065341,153.798684 157.657682,154.610826 157.698764,155.460889 L158.109583,163.891999 C157.528116,164.356532 156.95297,164.824225 156.387304,165.304558 L148.199368,163.256822 C147.37457,163.051416 146.49605,163.291583 145.895622,163.895159 C145.292035,164.498736 145.048703,165.37408 145.257273,166.202022 L147.301887,174.389806 C146.821545,174.955461 146.353843,175.530597 145.889302,176.112053 L137.461195,175.701242 C136.623757,175.64752 135.798959,176.067812 135.324937,176.775671 C134.847755,177.48669 134.781392,178.390475 135.147969,179.161536 L138.737894,186.764704 C138.374477,187.425162 138.023701,188.09194 137.679245,188.758718 L129.355423,189.997472 C128.511665,190.123875 127.794312,190.683211 127.468817,191.470072 C127.140162,192.260094 127.253927,193.160718 127.75955,193.846457 L132.752579,200.583761 C132.518729,201.307421 132.306999,202.040561 132.098429,202.773701 L124.194907,205.605138 C123.39223,205.892706 122.798123,206.581605 122.633795,207.419027 C122.466307,208.25329 122.75072,209.115994 123.382749,209.691129 L129.595594,215.325563 C129.51027,216.080824 129.443907,216.836084 129.380705,217.594505 L122.178734,221.917503 C121.44558,222.356755 121,223.146777 121,224 C121,224.853223 121.44558,225.643245 122.178734,226.082497 L129.380705,230.405495 C129.443907,231.163916 129.51027,231.919176 129.595594,232.671277 L123.382749,238.308871 C122.75072,238.884006 122.466307,239.74671 122.633795,240.580973 C122.798123,241.418395 123.39223,242.107294 124.194907,242.394862 L132.095269,245.226299 C132.306999,245.959439 132.518729,246.692579 132.752579,247.416239 L127.75955,254.150383 C127.253927,254.836122 127.140162,255.739906 127.468817,256.526768 C127.794312,257.313629 128.511665,257.876125 129.355423,257.999368 L137.676085,259.238122 C138.023701,259.90806 138.374477,260.574838 138.737894,261.232136 L135.147969,268.835304 C134.781392,269.609525 134.847755,270.51331 135.324937,271.221169 C135.776838,271.900587 136.535273,272.301918 137.34111,272.301918 C137.382192,272.301918 137.420113,272.301918 137.461195,272.298758 L145.889302,271.887947 C146.353843,272.469403 146.821545,273.044539 147.301887,273.610194 L145.257273,281.797978 C145.048703,282.62592 145.292035,283.501264 145.895622,284.104841 C146.353843,284.566213 146.976392,284.81586 147.611581,284.81586 C147.80751,284.81586 148.006599,284.790579 148.199368,284.743178 L156.387304,282.695442 C156.95297,283.175775 157.528116,283.643468 158.109583,284.108001 L157.698764,292.535951 C157.657682,293.389174 158.065341,294.198156 158.776373,294.672169 C159.180872,294.943936 159.651733,295.08298 160.125755,295.08298 C160.476531,295.08298 160.830468,295.003978 161.162283,294.849134 L168.765592,291.259276 C169.422902,291.625846 170.089692,291.973455 170.759643,292.321065 L171.99842,300.641572 C172.124826,301.485315 172.684171,302.202654 173.471047,302.528143 C173.771261,302.651387 174.087276,302.711428 174.40013,302.711428 C174.912074,302.711428 175.420857,302.550264 175.844316,302.234255 L182.581746,297.244479 C183.305419,297.478326 184.038572,297.690051 184.774886,297.901777 L187.603216,305.801993 C187.893949,306.604655 188.579701,307.198751 189.417139,307.363075 C189.575146,307.394676 189.733154,307.410477 189.891161,307.410477 C190.570592,307.410477 191.224742,307.126069 191.689283,306.614135 L197.326982,300.401405 C198.079097,300.486728 198.837531,300.553089 199.595966,300.616291 L203.915884,307.821288 C204.355145,308.551268 205.145181,309 205.99842,309 C206.851659,309 207.644855,308.551268 208.080955,307.821288 L212.404034,300.616291 C213.162469,300.553089 213.920903,300.486728 214.673018,300.401405 L220.307556,306.614135 C220.772098,307.126069 221.429408,307.410477 222.108839,307.410477 C222.263686,307.410477 222.424854,307.394676 222.582861,307.366235 C223.417139,307.198751 224.106051,306.604655 224.393624,305.801993 L227.225114,297.901777 C227.961428,297.690051 228.694581,297.478326 229.418254,297.244479 L236.152523,302.234255 C236.575983,302.550264 237.084766,302.711428 237.59671,302.711428 C237.912724,302.711428 238.228739,302.651387 238.528953,302.528143 C239.315829,302.202654 239.875174,301.485315 239.99842,300.641572 L241.237197,292.321065 C241.907148,291.973455 242.577098,291.625846 243.234408,291.259276 L250.837717,294.849134 C251.166372,295.003978 251.520309,295.08298 251.874245,295.08298 C252.345106,295.08298 252.819128,294.943936 253.223627,294.672169 C253.931499,294.198156 254.339158,293.389174 254.298076,292.535951 L253.890417,284.108001 C254.468724,283.643468 255.04387,283.175775 255.612696,282.695442 L263.797472,284.743178 C263.993401,284.790579 264.18933,284.81586 264.385259,284.81586 C265.023608,284.81586 265.642997,284.566213 266.104378,284.104841 C266.707965,283.501264 266.951297,282.62592 266.742727,281.797978 L264.694953,273.610194 C265.175295,273.044539 265.646157,272.469403 266.107538,271.887947 L274.538805,272.298758 C274.576726,272.301918 274.617808,272.301918 274.65573,272.301918 C275.464727,272.301918 276.223162,271.900587 276.675063,271.221169 C277.149084,270.51331 277.215448,269.609525 276.852031,268.835304 L273.258946,261.232136 C273.625523,260.574838 273.973139,259.90806 274.320755,259.238122 L282.644577,257.999368 C283.488335,257.876125 284.205688,257.313629 284.531183,256.526768 C284.856678,255.739906 284.746073,254.836122 284.23729,254.150383 L279.247421,247.416239 C279.478111,246.692579 279.689841,245.959439 279.901571,245.226299 L287.805093,242.394862 C288.60777,242.107294 289.201877,241.418395 289.366205,240.580973 C289.533693,239.74355 289.24928,238.884006 288.617251,238.308871 L282.401245,232.671277 C282.486569,231.919176 282.556093,231.163916 282.616135,230.405495 L289.821266,226.082497 C290.551259,225.643245 291,224.853223 291,224 C291,223.146777 290.551259,222.356755 289.821266,221.917503 L289.821266,221.917503 Z" id="Fill-1"></path>
        </g>
    </g>
</svg>