<svg width="116" height="149" viewBox="0 0 116 149" fill="none" xmlns="http://www.w3.org/2000/svg">
<g clip-path="url(#clip0_2149_20608)">
<path d="M0 0C38.28 0 76.56 0 116 0C116 42.0559 116 84.1118 116 127.442C110.576 129.476 110.576 129.476 108.768 130.116C108.336 130.269 107.905 130.422 107.473 130.576C107.254 130.654 107.034 130.732 106.808 130.812C105.601 131.24 104.395 131.67 103.189 132.101C103.065 132.145 102.941 132.189 102.814 132.234C100.136 133.19 97.4637 134.162 94.7925 135.136C90.7315 136.617 86.664 138.079 82.5922 139.53C79.3915 140.671 76.1925 141.816 72.995 142.966C72.1782 143.259 71.3613 143.553 70.5444 143.845C68.1514 144.703 65.7596 145.562 63.3798 146.456C62.89 146.638 62.4001 146.82 61.9103 147.003C61.4826 147.163 61.0564 147.328 60.6303 147.493C60.3786 147.587 60.1269 147.681 59.8749 147.774C59.667 147.854 59.4591 147.933 59.245 148.015C57.5102 148.39 55.9386 147.703 54.3249 147.107C53.9597 146.975 53.9597 146.975 53.5873 146.84C53.0603 146.649 52.534 146.457 52.0079 146.264C51.1696 145.957 50.3304 145.652 49.491 145.348C48.6135 145.03 47.7362 144.711 46.8593 144.392C44.8452 143.659 42.8293 142.931 40.8113 142.208C40.6069 142.135 40.6069 142.135 40.3982 142.06C39.8537 141.865 39.309 141.67 38.7645 141.475C34.8136 140.06 30.8667 138.635 26.9319 137.175C24.8455 136.401 22.7502 135.661 20.6437 134.943C17.1793 133.758 13.743 132.493 10.302 131.242C9.26357 130.864 8.22481 130.488 7.18598 130.111C6.3773 129.818 5.56871 129.524 4.76012 129.231C4.3748 129.091 3.98943 128.951 3.60405 128.812C3.07126 128.618 2.53857 128.425 2.00593 128.231C1.76834 128.145 1.76834 128.145 1.52596 128.057C0.439701 127.662 0.439701 127.662 0 127.442C0 85.3863 0 43.3303 0 0Z" fill="#1E264F"/>
<path d="M0 0C38.28 0 76.56 0 116 0C116 42.0559 116 84.1118 116 127.442C110.576 129.476 110.576 129.476 108.768 130.116C108.336 130.269 107.905 130.422 107.473 130.576C107.254 130.654 107.034 130.732 106.808 130.812C105.601 131.24 104.395 131.67 103.189 132.101C103.065 132.145 102.941 132.189 102.814 132.234C100.136 133.19 97.4637 134.162 94.7925 135.136C90.7315 136.617 86.664 138.079 82.5922 139.53C79.3915 140.671 76.1925 141.816 72.995 142.966C72.1782 143.259 71.3613 143.553 70.5444 143.845C68.1514 144.703 65.7596 145.562 63.3798 146.456C62.89 146.638 62.4001 146.82 61.9103 147.003C61.4826 147.163 61.0564 147.328 60.6303 147.493C60.3786 147.587 60.1269 147.681 59.8749 147.774C59.667 147.854 59.4591 147.933 59.245 148.015C57.5102 148.39 55.9386 147.703 54.3249 147.107C53.9597 146.975 53.9597 146.975 53.5873 146.84C53.0603 146.649 52.534 146.457 52.0079 146.264C51.1696 145.957 50.3304 145.652 49.491 145.348C48.6135 145.03 47.7362 144.711 46.8593 144.392C44.8452 143.659 42.8293 142.931 40.8113 142.208C40.6069 142.135 40.6069 142.135 40.3982 142.06C39.8537 141.865 39.309 141.67 38.7645 141.475C34.8136 140.06 30.8667 138.635 26.9319 137.175C24.8455 136.401 22.7502 135.661 20.6437 134.943C17.1793 133.758 13.743 132.493 10.302 131.242C9.26357 130.864 8.22481 130.488 7.18598 130.111C6.3773 129.818 5.56871 129.524 4.76012 129.231C4.3748 129.091 3.98943 128.951 3.60405 128.812C3.07126 128.618 2.53857 128.425 2.00593 128.231C1.76834 128.145 1.76834 128.145 1.52596 128.057C0.439701 127.662 0.439701 127.662 0 127.442C0 85.3863 0 43.3303 0 0ZM1.97279 1.77551C1.97279 42.8549 1.97279 83.9343 1.97279 126.258C6.20442 127.756 10.4361 129.253 14.7959 130.796C17.6002 131.803 20.4034 132.811 23.2002 133.839C26.5689 135.077 29.9426 136.3 33.3208 137.512C33.9929 137.753 34.6651 137.994 35.3372 138.235C36.4644 138.64 37.5919 139.045 38.7195 139.45C41.1599 140.325 43.6 141.202 46.0402 142.079C46.8449 142.368 47.6496 142.657 48.4543 142.946C48.7086 143.037 48.9631 143.129 49.2173 143.22C49.825 143.438 50.4326 143.656 51.0408 143.873C52.1442 144.268 53.2438 144.67 54.3371 145.093C54.5346 145.168 54.7323 145.243 54.9357 145.321C55.2989 145.459 55.6609 145.601 56.0215 145.746C57.8909 146.456 59.278 145.936 61.0809 145.272C61.2839 145.199 61.4867 145.126 61.6958 145.05C62.3632 144.809 63.0298 144.565 63.6964 144.322C64.1667 144.151 64.6373 143.981 65.1078 143.811C66.078 143.46 67.0478 143.108 68.0176 142.755C69.3374 142.276 70.6584 141.799 71.9798 141.324C72.2828 141.215 72.2828 141.215 72.5919 141.104C72.9964 140.959 73.4008 140.814 73.8052 140.668C74.8275 140.301 75.8496 139.932 76.8717 139.564C77.2795 139.417 77.687 139.27 78.0948 139.123C78.2955 139.051 78.4961 138.979 78.7028 138.904C80.4902 138.261 82.2779 137.617 84.0655 136.973C84.2645 136.902 84.4636 136.83 84.6686 136.756C87.867 135.605 91.0659 134.454 94.265 133.305C95.2074 132.966 96.1496 132.628 97.092 132.289C97.6233 132.098 98.1544 131.907 98.6856 131.716C98.8162 131.669 98.947 131.622 99.0816 131.574C100.721 130.984 102.362 130.396 104.002 129.808C104.912 129.482 105.821 129.156 106.731 128.83C107.15 128.68 107.569 128.53 107.988 128.38C108.564 128.174 109.139 127.968 109.715 127.761C109.96 127.674 109.96 127.674 110.21 127.585C111.505 127.119 112.751 126.593 114.027 126.061C114.027 85.0469 114.027 44.0326 114.027 1.77551C77.0493 1.77551 40.0713 1.77551 1.97279 1.77551Z" fill="#CA4217"/>
<path d="M62.8906 89.1104L62.9726 89.1921H62.8906V89.1104Z" fill="#D44516"/>
<path d="M68.6562 87.3242H68.738C68.7247 87.3513 68.7112 87.3783 68.6972 87.406C68.6837 87.3791 68.6702 87.3521 68.6562 87.3242Z" fill="#D44516"/>
<path d="M73.5312 79.8564L73.6132 79.9382H73.5312V79.8564Z" fill="#D44516"/>
<path d="M58.1449 92.1372C57.7138 91.9904 57.5114 91.6511 57.3029 91.3015C56.7862 90.4357 56.2546 89.5785 55.7138 88.7272C55.6629 88.6471 55.5096 88.6162 55.3976 88.5933C55.0691 88.5266 54.7746 88.4911 54.5436 88.8608C54.3512 89.1687 54.0513 89.4102 53.7959 89.6781C53.3802 90.1135 52.9685 90.553 52.5414 90.977C52.3678 91.1494 52.1796 91.3362 51.9608 91.4288C51.3871 91.6714 50.8041 91.3161 50.5629 90.6552C50.1819 89.6126 49.7799 88.5775 49.382 87.5412C49.3622 87.4901 49.3015 87.4481 49.2508 87.4165C48.7621 87.1145 48.3762 87.3311 47.9783 87.6365C47.2466 88.1981 46.5038 88.7472 45.7457 89.2723C45.059 89.748 44.301 89.4984 44.0335 88.7452C43.9189 88.4224 43.9146 88.0608 43.8579 87.7172C43.7473 87.0466 43.6348 86.3765 43.5247 85.7059C43.5141 85.6414 43.5222 85.5735 43.5082 85.5102C43.4734 85.3538 43.48 85.1444 43.3809 85.0553C43.2063 84.8977 42.9668 84.8105 42.7502 84.7023C42.7193 84.687 42.6611 84.7138 42.6206 84.7323C41.7703 85.1229 40.9216 85.5171 40.0702 85.9057C39.8214 86.0194 39.5705 86.1316 39.312 86.22C38.62 86.4566 37.9236 85.8945 37.9431 85.2311C37.9629 84.5637 37.9755 83.8963 37.9942 83.2289C38.008 82.7355 38.0218 82.2417 38.0463 81.7487C38.0534 81.6057 38.0213 81.5084 37.8974 81.4253C37.7695 81.3397 37.6717 81.2054 37.5385 81.1328C37.4549 81.0872 37.3247 81.0919 37.225 81.1156C36.1599 81.3695 35.1027 81.6613 34.0307 81.8813C33.2804 82.0353 32.7178 81.7181 32.644 80.8856C32.6146 80.5557 32.7667 80.2079 32.8456 79.8706C33.0512 78.9923 33.2534 78.1132 33.4761 77.2395C33.5369 77.0012 33.3304 76.9367 33.2485 76.7994C33.1104 76.5677 32.9214 76.3608 32.5975 76.5293C32.5777 76.5395 32.5483 76.5311 32.5235 76.5316C31.7154 76.5482 30.9072 76.562 30.0991 76.5829C29.8539 76.5893 29.6091 76.6279 29.3641 76.6285C28.5878 76.6305 28.0739 75.8512 28.3777 75.1394C28.5039 74.8431 28.6286 74.5456 28.7744 74.259C28.8054 74.1982 28.9249 74.1513 29.004 74.1507C30.0808 74.1438 31.1575 74.146 32.2343 74.146H39.1171C41.3464 74.146 43.5758 74.1479 45.8053 74.1424C45.9842 74.142 46.1028 74.1771 46.1497 74.3645C46.2608 74.8086 46.3934 75.2478 46.4887 75.6952C46.6938 76.6581 46.8805 77.625 47.0758 78.5901C47.1446 78.93 47.2077 79.2715 47.2928 79.6074C47.3162 79.7001 47.3906 79.8167 47.4723 79.8524C48.6747 80.3784 49.8854 80.885 51.1634 81.2048C52.0381 81.4236 52.9099 81.6605 53.7935 81.8373C54.4447 81.9677 55.1129 82.014 55.7736 82.0983C56.9431 82.2472 58.1192 82.2794 59.2946 82.2395C60.0354 82.2145 60.7766 82.1389 61.5122 82.0442C62.3386 81.9377 63.1644 81.8116 63.9798 81.6429C64.7196 81.4899 65.4592 81.3099 66.1735 81.0669C67.254 80.6992 68.3126 80.2675 69.3787 79.8586C69.4284 79.8394 69.4918 79.78 69.4975 79.7333C69.5551 79.2565 69.5987 78.7781 69.653 78.3008C69.7145 77.7599 69.7865 77.2202 69.8469 76.6792C69.8877 76.3144 69.9252 75.9489 69.9481 75.5827C69.9767 75.1266 70.1189 74.7131 70.3797 74.3415C70.4776 74.2022 70.6076 74.1402 70.7976 74.1406C76.4628 74.1473 82.1283 74.1471 87.7935 74.141C87.9892 74.1408 88.09 74.1969 88.1581 74.3774C88.2605 74.6482 88.3883 74.9092 88.5027 75.1756C88.7973 75.8609 88.2692 76.6624 87.4645 76.6321C86.8884 76.6102 86.3118 76.5993 85.7357 76.5808C85.3001 76.5668 84.8647 76.548 84.4293 76.5318C84.3962 76.5305 84.3629 76.5332 84.3299 76.5313C84.178 76.5218 83.9756 76.4454 83.8845 76.5151C83.6893 76.6646 83.5497 76.8877 83.393 77.0852C83.3772 77.1049 83.3976 77.1562 83.4058 77.1919C83.6337 78.1647 83.8659 79.1365 84.0888 80.1105C84.177 80.4962 84.3064 80.8846 84.1514 81.2831C83.9636 81.7657 83.4023 82.0213 82.8454 81.8874C81.7574 81.6256 80.6696 81.363 79.5796 81.1103C79.4966 81.0912 79.3827 81.1255 79.3066 81.1726C79.1559 81.2657 78.9673 81.3577 78.8941 81.5011C78.8104 81.6654 78.8313 81.8848 78.815 82.0809C78.8106 82.135 78.844 82.1914 78.8452 82.2472C78.8637 83.0553 78.8809 83.8635 78.8955 84.6716C78.9002 84.9288 78.9286 85.1908 78.8911 85.4423C78.7872 86.1419 78.0111 86.4485 77.4076 86.1735C76.3944 85.7116 75.3788 85.2551 74.3744 84.7749C74.1227 84.6544 73.9714 84.8081 73.7782 84.8787C73.5117 84.9766 73.4143 85.1675 73.3742 85.4402C73.258 86.2324 73.1162 87.0208 72.985 87.8109C72.9333 88.122 72.8988 88.4366 72.8301 88.744C72.6802 89.4163 71.8451 89.733 71.2951 89.3654C70.3273 88.7186 69.3961 88.0166 68.4545 87.3311C68.3312 87.2413 68.2264 87.2031 68.0797 87.264C67.9544 87.3161 67.8094 87.3242 67.6886 87.3836C67.6011 87.4266 67.5036 87.508 67.4703 87.5952C67.0603 88.67 66.675 89.7543 66.2544 90.8249C65.9757 91.5349 65.0881 91.7365 64.5432 91.2118C63.9173 90.6093 63.3562 89.9393 62.7638 89.3015C62.528 89.0474 62.309 88.7659 62.0319 88.5676C61.9086 88.4795 61.6602 88.5732 61.4686 88.5718C61.1727 88.5698 61.1015 88.8245 60.9873 89.0062C60.4377 89.8803 59.9105 90.7685 59.3583 91.6408C59.226 91.8502 59.0563 92.0539 58.774 92.1202C58.5678 92.1372 58.368 92.1372 58.1449 92.1372ZM76.0114 77.1635C75.7593 76.925 75.5384 76.6356 75.2492 76.4573C74.3717 75.9163 73.1497 76.1594 72.5127 77.0164C71.8625 77.8913 71.9578 79.102 72.7469 79.8424C73.4675 80.5185 74.4723 80.6133 75.3074 80.1099C75.9957 79.6952 76.35 79.0554 76.3427 78.273C76.3393 77.9144 76.132 77.5577 76.0114 77.1635ZM42.161 76.0844C42.074 76.101 41.9854 76.1118 41.9005 76.1355C41.0002 76.3861 40.3987 77.1823 40.332 78.0815C40.2931 78.6048 40.464 79.0765 40.7851 79.4818C41.2199 80.0302 41.812 80.3366 42.5024 80.2959C43.393 80.2434 44.0533 79.7905 44.4007 78.9365C44.7175 78.1574 44.5474 77.36 43.9931 76.7473C43.519 76.2235 42.9067 76.0244 42.161 76.0844Z" fill="#D44516"/>
<path d="M58.7438 20.1221C59.1628 20.2765 59.3651 20.6202 59.5736 20.9552C60.1023 21.8049 60.6274 22.6565 61.1534 23.508C61.1786 23.5488 61.1982 23.5934 61.2268 23.6482C61.4933 23.6735 61.7675 23.6997 62.0271 23.7244C62.1204 23.621 62.2057 23.5226 62.295 23.4283C62.9182 22.7707 63.5513 22.1221 64.1619 21.4531C64.3984 21.1939 64.6014 20.9201 64.9632 20.8135C65.5097 20.6526 66.0727 20.94 66.2684 21.4632C66.6711 22.5405 67.0656 23.6208 67.4712 24.6972C67.4965 24.7642 67.5866 24.8084 67.6504 24.8583C67.6746 24.8771 67.7125 24.8775 67.7399 24.8933C68.2803 25.2077 68.6153 24.8043 68.9883 24.5364C69.7569 23.9844 70.5036 23.3977 71.3004 22.8899C71.8818 22.5194 72.7565 22.8483 72.8846 23.7088C73 24.4845 73.1462 25.2557 73.275 26.0296C73.3308 26.3652 73.3671 26.7041 73.4344 27.0371C73.4533 27.1306 73.5387 27.221 73.6139 27.2912C74.0383 27.6879 74.45 27.4539 74.8641 27.2592C75.5141 26.9538 76.1651 26.651 76.8187 26.3539C77.0746 26.2375 77.3318 26.1152 77.6007 26.0387C78.4729 25.7899 79.0841 26.5855 78.9199 27.3778C78.9101 27.4253 78.8972 27.4735 78.8961 27.5216C78.8781 28.2139 78.8645 28.9061 78.8438 29.5984C78.8373 29.8187 78.8061 30.0383 78.7978 30.2587C78.7887 30.4995 78.7919 30.699 79.0304 30.898C79.3064 31.1287 79.5423 31.1803 79.8716 31.0961C80.8625 30.8428 81.8527 30.5814 82.8543 30.3774C83.7967 30.1855 84.3761 30.83 84.1816 31.7083C83.9393 32.8012 83.6822 33.8913 83.4092 34.977C83.3632 35.1597 83.4441 35.2707 83.5333 35.3496C83.7095 35.5053 83.7578 35.8217 84.1015 35.7827C84.4593 35.7418 84.8221 35.7408 85.1829 35.7284C85.759 35.7089 86.3352 35.6878 86.9117 35.6807C87.2404 35.6765 87.5824 35.6454 87.8955 35.7213C88.4753 35.8622 88.7714 36.598 88.4517 37.234C88.3647 37.4067 88.2846 37.584 88.2173 37.7651C88.1226 38.021 87.979 38.1238 87.6783 38.1224C84.4812 38.1076 81.2839 38.1123 78.0866 38.1155C77.9049 38.1157 77.7952 38.0636 77.6591 37.9168C77.1995 37.4219 76.7033 36.9594 76.2079 36.4988C75.8191 36.1372 75.4299 35.7708 75.0065 35.452C74.1602 34.8148 73.3198 34.1616 72.422 33.6029C71.4705 33.0109 70.4705 32.4905 69.4641 31.9945C68.1619 31.3526 66.796 30.8653 65.3866 30.5088C64.7387 30.3449 64.0879 30.1918 63.4369 30.0407C63.3791 30.0272 63.2915 30.0452 63.2479 30.0833C63.0189 30.2827 62.7963 30.4899 62.5775 30.7008C62.0244 31.233 61.4781 31.7724 60.9224 32.3021C60.4406 32.7615 59.9616 33.2253 59.458 33.6603C59.1743 33.9056 58.8233 34.0129 58.4359 34.047C57.9279 34.0916 57.4672 33.9862 57.0776 33.6816C56.7685 33.4398 56.512 33.1302 56.2334 32.8493C56.1997 32.8152 56.1782 32.7688 56.1449 32.7341C55.6639 32.235 55.181 31.7379 54.7004 31.2383C54.3518 30.8761 54.0058 30.5118 53.6592 30.1476C53.5733 30.0574 53.5069 30.0194 53.3498 30.0489C52.0953 30.2849 50.8716 30.6278 49.6708 31.0549C48.0012 31.6489 46.3898 32.3709 44.895 33.3277C43.9568 33.9282 43.0317 34.5526 42.1316 35.2082C41.5985 35.5964 41.1201 36.0606 40.6267 36.5015C40.289 36.8032 39.9654 37.1208 39.6409 37.4368C39.5364 37.5388 39.4505 37.6602 39.3533 37.7701C39.1661 37.9817 38.9802 38.1263 38.6478 38.1244C35.4507 38.1058 32.2534 38.1123 29.0561 38.1159C28.8839 38.1161 28.7825 38.0963 28.7282 37.8928C28.6647 37.6548 28.528 37.4359 28.4191 37.2106C28.0433 36.4343 28.5465 35.6229 29.409 35.6306C29.9772 35.6355 30.5452 35.66 31.1131 35.6787C31.5404 35.6927 31.9676 35.7091 32.3947 35.7292C32.4992 35.7341 32.6032 35.755 32.7068 35.7728C32.9001 35.8063 33.021 35.7337 33.1585 35.5822C33.4083 35.3068 33.4988 35.0693 33.3884 34.6724C33.0942 33.6177 32.8756 32.5422 32.6332 31.4735C32.5284 31.0113 33.0498 30.3504 33.5324 30.3681C33.9023 30.3816 34.2749 30.4425 34.6369 30.524C35.5089 30.7205 36.3744 30.9446 37.2446 31.1496C37.389 31.1835 37.5332 31.1857 37.6502 31.0347C37.7372 30.9223 37.8792 30.8542 37.9867 30.7556C38.0325 30.7134 38.0787 30.6443 38.0798 30.5865C38.0822 30.4585 38.0469 30.3303 38.0435 30.2016C38.024 29.4265 38.0063 28.6514 37.9934 27.8763C37.9871 27.495 37.949 27.1071 38.0027 26.7335C38.0779 26.2103 38.7441 25.8424 39.2493 26.0306C39.7542 26.2188 40.2444 26.447 40.7368 26.667C41.3703 26.9497 41.9996 27.2417 42.6305 27.5301C42.6453 27.537 42.6569 27.5524 42.6721 27.5565C42.7956 27.5899 43.4364 27.2008 43.4565 27.0738C43.5591 26.4259 43.6565 25.7771 43.7579 25.129C43.8404 24.6011 43.8773 24.06 44.0215 23.5492C44.2249 22.8281 44.9785 22.5247 45.6271 22.9234C45.9848 23.1432 46.318 23.4024 46.6601 23.647C47.2456 24.0659 47.8365 24.4774 48.4088 24.9134C48.563 25.031 48.698 25.0189 48.8509 24.981C48.9988 24.9446 49.1444 24.895 49.2865 24.8398C49.3255 24.8246 49.3603 24.7725 49.3768 24.7295C49.725 23.8205 50.0665 22.9086 50.4181 22.0008C50.551 21.6573 50.6299 21.2904 50.927 21.0219C51.3545 20.6356 52.1267 20.7023 52.4571 21.1757C52.4852 21.2158 52.5191 21.2523 52.553 21.2876C52.9641 21.7163 53.3796 22.1404 53.7856 22.5737C54.0768 22.8844 54.3735 23.1927 54.6341 23.5281C54.8487 23.8045 55.1147 23.6948 55.3656 23.6822C55.5491 23.6729 55.6821 23.5906 55.7959 23.3991C56.3696 22.435 56.9654 21.4835 57.5803 20.5452C57.6925 20.3738 57.9291 20.2838 58.1145 20.1392C58.3207 20.1221 58.5207 20.1221 58.7438 20.1221ZM58.2974 26.4835C57.1634 26.4894 56.2883 27.4407 56.2224 28.4587C56.1388 29.7558 57.3264 30.7205 58.2952 30.7096C59.557 30.6956 60.4341 29.7108 60.4455 28.566C60.4572 27.4009 59.4388 26.4638 58.2974 26.4835Z" fill="#D44516"/>
<path d="M70.4845 54.9951H46.3867V55.6576H70.4845V54.9951Z" fill="#D44516"/>
<path d="M80.7746 49.7536C81.2594 49.7536 81.7301 49.7536 82.2008 49.7425C82.2008 48.5583 82.2008 47.3853 82.1921 46.2095C82.1735 46.1905 82.1578 46.1753 82.1544 46.158C82.0512 45.6182 81.7247 45.2807 81.2104 45.1128C80.8725 45.0025 80.5253 44.994 80.1802 45.052C79.8143 45.1136 79.4878 45.2635 79.2481 45.5636C79.2055 45.6168 79.1599 45.6675 79.1041 45.7328C79.0402 45.5342 78.977 45.3576 78.9281 45.1771C78.909 45.1061 78.8754 45.0939 78.8131 45.0945C78.5635 45.0964 78.314 45.0952 78.0644 45.0952H77.8125V49.7481H79.2534C79.2534 49.6607 79.2515 49.5784 79.2538 49.4963C79.2781 48.6563 79.1881 47.8128 79.3059 46.9767C79.3655 46.5539 79.486 46.2665 79.9709 46.1706C80.2274 46.1199 80.5693 46.2446 80.6482 46.4685C80.7129 46.6516 80.7664 46.8496 80.7691 47.042C80.7817 47.9013 80.7746 48.7611 80.7746 49.6204V49.7536Z" fill="#D44516"/>
<path d="M34.679 49.7547H36.0982V47.4201H38.0101V46.2333H36.1002V44.9038H38.1782V43.7178C37.003 43.7178 35.8355 43.7178 34.668 43.729C34.668 45.745 34.668 47.75 34.679 49.7547Z" fill="#D44516"/>
<path d="M52.8409 39.9637C53.1479 39.7753 53.4193 39.546 53.5856 39.2221C53.8228 38.7605 53.8107 38.2732 53.6618 37.7924C53.5061 37.2903 53.1329 36.9948 52.6505 36.8252C52.2771 36.6938 51.8879 36.6433 51.4955 36.6372C50.8579 36.6271 50.2201 36.6344 49.5825 36.6344H49.4609V42.666H50.9265V40.4135C51.0914 40.4135 51.2453 40.4101 51.3986 40.4162C51.4312 40.4174 51.4621 40.4531 51.4955 40.4821C51.5823 40.634 51.6669 40.7769 51.7525 40.9191C52.0891 41.4776 52.4276 42.0349 52.7606 42.5954C52.7969 42.6565 52.8346 42.6729 52.8997 42.6725C53.3828 42.6703 53.8662 42.6713 54.3493 42.6713H54.4578C53.8628 41.7863 53.2807 40.9205 52.6985 40.0544C52.7563 40.0175 52.7981 39.9901 52.8409 39.9637ZM52.0398 39.0639C51.9147 39.1556 51.7513 39.2156 51.5971 39.2422C51.3826 39.2791 51.1605 39.2714 50.9257 39.2839V37.8005C51.3165 37.811 51.7119 37.7334 52.0583 37.9869C52.2007 38.0911 52.2586 38.243 52.2761 38.4028C52.3039 38.6563 52.2556 38.9055 52.0398 39.0639Z" fill="#D44516"/>
<path d="M58.3186 45.0413C58.3188 45.0681 58.3281 45.0948 58.3308 45.1218C58.3504 45.3063 58.3693 45.4907 58.389 45.6819C57.868 44.9736 57.2486 44.9606 56.6802 45.0717C56.2651 45.1676 55.972 45.4169 55.7461 45.7531C55.45 46.1942 55.3713 46.7014 55.3539 47.2136C55.3423 47.5556 55.3752 47.9025 55.4234 48.2422C55.4861 48.6868 55.6536 49.0887 55.988 49.4118C56.4322 49.8411 56.957 49.9052 57.5277 49.778C57.858 49.7044 58.101 49.5002 58.2871 49.2252C58.3466 49.1372 58.376 49.142 58.4175 49.24C58.4804 49.3893 58.5599 49.5316 58.6248 49.6801C58.6512 49.7405 58.6844 49.7569 58.7475 49.7555C58.969 49.7513 59.191 49.7539 59.4127 49.7539H59.7595V43.3457H58.318C58.318 43.917 58.318 44.4791 58.3186 45.0413ZM58.3399 48.1828C58.2695 48.4623 57.983 48.6693 57.6895 48.6864C57.2669 48.7111 56.9866 48.4793 56.8913 48.0786C56.8449 47.8839 56.824 47.6827 56.7992 47.4834C56.7923 47.4278 56.8128 47.3686 56.8205 47.311C56.8171 46.9869 56.887 46.7063 57.0576 46.4538C57.1839 46.2666 57.4999 46.1392 57.7165 46.1976C57.8268 46.2272 57.9408 46.2556 58.0405 46.3084C58.2472 46.4179 58.3218 46.6259 58.3614 46.8354C58.4461 47.2842 58.4524 47.7361 58.3399 48.1828Z" fill="#D44516"/>
<path d="M47.3564 47.3701C47.354 47.5827 47.3319 47.7995 47.2838 48.0063C47.1787 48.4583 46.9587 48.7023 46.4438 48.6806C46.2426 48.6721 46.0763 48.5873 45.9766 48.3888C45.8721 48.1803 45.8447 47.957 45.8421 47.7348C45.8332 46.8994 45.8385 46.0637 45.8385 45.2282V45.1025H44.3887V45.2395C44.3887 46.083 44.3824 46.9266 44.3921 47.7699C44.3956 48.0895 44.4162 48.4119 44.4657 48.7273C44.5168 49.0536 44.6937 49.317 44.9654 49.5184C45.3838 49.8284 45.8626 49.8716 46.3493 49.8177C46.7886 49.7692 47.1796 49.5898 47.4401 49.2059C47.4996 49.1182 47.5231 49.1639 47.544 49.2199C47.575 49.3024 47.6004 49.3878 47.6204 49.4738C47.6855 49.753 47.6841 49.7532 47.9664 49.7532H48.8011V45.1039H47.3598C47.3598 45.8654 47.3649 46.6178 47.3564 47.3701Z" fill="#D44516"/>
<path d="M54.346 46.1065C54.2832 45.8041 54.1384 45.5411 53.882 45.3533C53.6468 45.181 53.3854 45.081 53.0939 45.0457C52.7995 45.0098 52.5115 45.0157 52.2239 45.0911C51.8492 45.1891 51.549 45.3904 51.3168 45.7439C51.2386 45.5125 51.1688 45.3051 51.1005 45.1023H50.0078V49.7544H51.4507C51.4507 49.1134 51.4527 48.488 51.4497 47.8627C51.4483 47.5371 51.4523 47.2128 51.5215 46.8926C51.606 46.502 51.7374 46.2448 52.1755 46.1736C52.4401 46.1305 52.7239 46.186 52.8559 46.4947C52.9198 46.6439 52.9648 46.8137 52.9668 46.9749C52.9773 47.8579 52.9717 48.7411 52.9717 49.6244V49.7453H54.4215C54.4215 48.7425 54.4257 47.7484 54.4184 46.7547C54.4168 46.5381 54.3902 46.3186 54.346 46.1065Z" fill="#D44516"/>
<path d="M57.0267 42.7193C57.3956 42.6421 57.73 42.506 57.9588 42.184C57.9898 42.1406 58.0314 42.1049 58.0827 42.0501C58.105 42.1331 58.1196 42.188 58.1399 42.2509C58.1624 42.3184 58.1774 42.3782 58.1963 42.4369C58.2472 42.5936 58.3565 42.6719 58.5242 42.6717H59.3763V38.0447H57.9334C57.9334 38.1625 57.9355 38.273 57.933 38.3833C57.9142 39.1637 57.987 39.9469 57.8803 40.7242C57.8533 40.922 57.7807 41.1217 57.6911 41.3016C57.5568 41.5711 57.19 41.6413 56.9123 41.5908C56.7239 41.5563 56.5822 41.4513 56.522 41.2689C56.4719 41.1164 56.4189 40.9558 56.4171 40.7982C56.407 39.9232 56.4122 39.0481 56.4122 38.173V38.0439H54.9624V38.1791C54.9624 38.9909 54.958 39.8025 54.9645 40.6143C54.9671 40.9315 54.9726 41.2515 55.0144 41.5654C55.0922 42.1477 55.4577 42.5042 55.9793 42.6691C56.321 42.7773 56.6732 42.7934 57.0267 42.7193Z" fill="#D44516"/>
<path d="M64.9216 46.3227C64.8865 46.0163 64.7682 45.7382 64.5478 45.517C64.216 45.184 63.7926 45.0467 63.3387 45.0301C62.971 45.0165 62.6013 45.056 62.2219 45.0726C62.1935 45.0805 62.1759 45.0917 62.1574 45.0943C61.8299 45.141 61.5235 45.2533 61.2233 45.3872C61.1509 45.4194 61.1333 45.4545 61.1692 45.5308C61.3049 45.8197 61.434 46.1114 61.5685 46.4085C61.6391 46.3811 61.7072 46.3557 61.7747 46.3284C62.1542 46.1755 62.5395 46.0455 62.9569 46.071C63.1655 46.0836 63.388 46.1791 63.4638 46.4083C63.5042 46.5307 63.5087 46.6648 63.5302 46.7984C63.4586 46.8108 63.4022 46.827 63.3452 46.8293C63.1016 46.8398 62.8577 46.8495 62.6137 46.8536C62.23 46.8601 61.8559 46.9244 61.5032 47.0722C61.1223 47.2316 60.8356 47.4873 60.7338 47.9136C60.6667 48.1951 60.6725 48.4737 60.718 48.755C60.7723 49.0919 60.9293 49.3624 61.2061 49.5709C61.4849 49.7812 61.8084 49.8232 62.1365 49.844C62.2858 49.8534 62.4381 49.8191 62.5886 49.8009C62.8563 49.7686 63.0966 49.6678 63.298 49.4885C63.4221 49.378 63.5338 49.2537 63.6614 49.1251C63.7465 49.319 63.8271 49.4975 63.9023 49.6784C63.9242 49.7315 63.9485 49.7575 64.0106 49.7554C64.157 49.7504 64.3038 49.7538 64.4502 49.7538H64.9487V49.6082C64.9487 48.7329 64.9503 47.8576 64.9477 46.9824C64.9471 46.7623 64.9467 46.5407 64.9216 46.3227ZM63.5227 47.8631C63.5111 48.1588 63.4778 48.4231 63.2351 48.6039C63.0463 48.7443 62.8419 48.8145 62.6005 48.7846C62.4551 48.7664 62.3223 48.7352 62.2402 48.6094C62.0493 48.3166 62.1848 47.8828 62.5294 47.7591C62.7666 47.6741 63.0148 47.6573 63.2651 47.662C63.3462 47.6636 63.4273 47.6624 63.5227 47.6624V47.8631Z" fill="#D44516"/>
<path d="M42.6537 45.4883C42.2732 45.187 41.8335 45.0479 41.3547 45.0256C41.0732 45.0126 40.793 45.0288 40.5156 45.0937C40.0292 45.2077 39.6226 45.4453 39.3278 45.8522C39.027 46.2679 38.9141 46.7497 38.9033 47.2509C38.8972 47.538 38.921 47.8306 38.9741 48.1127C39.0972 48.7684 39.4424 49.2788 40.0471 49.5871C40.433 49.7838 40.8463 49.8485 41.2805 49.8296C41.5863 49.8164 41.8802 49.7747 42.1665 49.6641C42.6382 49.4818 42.9842 49.1622 43.2053 48.7128C43.3953 48.3273 43.4618 47.9112 43.4614 47.4719C43.4454 47.2498 43.4437 47.0375 43.4111 46.83C43.3269 46.2902 43.0884 45.8323 42.6537 45.4883ZM41.9814 47.7485C41.9682 48.0087 41.9118 48.2685 41.7323 48.4826C41.6184 48.6183 41.4758 48.6899 41.3059 48.7071C40.7885 48.759 40.5291 48.495 40.4348 48.0499C40.3304 47.5563 40.3353 47.0681 40.4935 46.5855C40.5044 46.553 40.5235 46.5232 40.5389 46.492C40.7666 46.1336 41.1248 46.0764 41.4697 46.191C41.7244 46.2756 41.8431 46.4869 41.9175 46.7319C42.0189 47.0663 41.9988 47.41 41.9814 47.7485Z" fill="#D44516"/>
<path d="M75.6815 45.2625C75.2228 45.0349 74.734 44.9879 74.2268 45.044C73.879 45.0824 73.5521 45.1671 73.2548 45.3533C72.8939 45.579 72.6337 45.8879 72.4793 46.2864C72.2857 46.7859 72.2607 47.301 72.3126 47.828C72.3471 48.1795 72.4402 48.5082 72.6187 48.8138C72.8062 49.1343 73.0587 49.3869 73.3852 49.5636C73.8979 49.8412 74.4465 49.8749 75.0113 49.8023C75.5663 49.7313 76.0281 49.4932 76.3856 49.046C76.4195 48.998 76.4475 48.9566 76.4751 48.9148C76.7507 48.4991 76.8379 48.0266 76.8474 47.5441C76.8533 47.243 76.8176 46.9351 76.7537 46.6403C76.6186 46.0163 76.2568 45.5482 75.6815 45.2625ZM75.3781 47.5958C75.369 47.8791 75.3274 48.1574 75.1735 48.407C75.0711 48.5727 74.923 48.6812 74.7359 48.7025C74.5239 48.727 74.3116 48.7232 74.1206 48.5824C73.9407 48.4498 73.8675 48.2586 73.8192 48.0641C73.7683 47.8587 73.7466 47.6415 73.7454 47.4293C73.744 47.1548 73.7691 46.879 73.8703 46.6177C73.9691 46.3316 74.168 46.1797 74.4369 46.1467C74.7424 46.1091 75.0315 46.1799 75.1916 46.4721C75.2765 46.6265 75.3242 46.8092 75.3516 46.985C75.3828 47.1852 75.3844 47.3922 75.3781 47.5958Z" fill="#D44516"/>
<path d="M62.209 42.7432C62.5124 42.7476 62.8046 42.6872 63.0819 42.5732C63.4219 42.4335 63.6756 42.1964 63.8119 41.8468C63.9216 41.5649 63.9427 41.2733 63.8991 40.9766C63.8578 40.6949 63.7385 40.4457 63.5197 40.264C63.25 40.0397 62.9227 39.9125 62.6055 39.7702C62.356 39.6584 62.1119 39.5341 61.8649 39.4167C61.7505 39.3622 61.7176 39.2648 61.741 39.1535C61.7641 39.0446 61.8663 39.0127 61.9592 38.989C62.1891 38.931 62.4191 38.9653 62.64 39.0263C62.8951 39.0965 63.1437 39.191 63.3929 39.2814C63.4526 39.3029 63.4771 39.2922 63.5 39.2368C63.6247 38.9355 63.7515 38.6353 63.879 38.3315C63.8574 38.3179 63.8423 38.3052 63.8251 38.2975C63.3879 38.1018 62.9322 37.9704 62.4536 37.9442C61.992 37.919 61.5331 37.9495 61.0991 38.133C60.8284 38.2472 60.6031 38.4141 60.4601 38.6828C60.3187 38.9486 60.3145 39.2342 60.3406 39.5171C60.3638 39.769 60.4593 40.0004 60.6446 40.191C60.9148 40.4692 61.2597 40.6158 61.6027 40.7704C61.8555 40.8843 62.107 41.0016 62.3534 41.1285C62.47 41.1887 62.5465 41.2903 62.5213 41.4362C62.4986 41.5672 62.3984 41.615 62.2869 41.6499C62.033 41.7294 61.7771 41.7049 61.5229 41.6594C61.3141 41.6221 61.1078 41.5728 60.8916 41.5242C60.7035 41.4534 60.524 41.3869 60.335 41.3171C60.335 41.6913 60.3331 42.0589 60.3388 42.4262C60.3392 42.4591 60.3843 42.5085 60.4193 42.5213C60.7359 42.6375 61.0624 42.7207 61.3996 42.7393C61.6684 42.7543 61.9391 42.7393 62.209 42.7432Z" fill="#D44516"/>
<path d="M68.1975 48.6782C67.9407 48.69 67.7574 48.5267 67.7562 48.2333C67.7535 47.5917 67.7552 46.9504 67.7556 46.3088C67.7556 46.2708 67.7588 46.2327 67.761 46.1838H68.9586V45.0916H67.7543V44.1449C67.4506 44.1449 67.1585 44.1429 66.8663 44.1482C66.8377 44.1486 66.7963 44.1891 66.7838 44.2202C66.673 44.4951 66.5696 44.7726 66.4583 45.047C66.4398 45.0924 66.3999 45.1362 66.3587 45.1642C66.1638 45.2958 65.9641 45.4207 65.7681 45.5509C65.7434 45.5673 65.7146 45.6002 65.714 45.6263C65.7093 45.8109 65.7114 45.9958 65.7114 46.1917H66.3056V47.6626C66.3214 48.039 66.3153 48.4065 66.3585 48.7679C66.4139 49.2305 66.6546 49.5712 67.1139 49.7322C67.3855 49.8277 67.6637 49.8287 67.947 49.8293C68.3305 49.8303 68.6876 49.7375 69.034 49.6008V48.5357C68.9902 48.5466 68.9543 48.5582 68.9176 48.5643C68.6779 48.605 68.4388 48.6673 68.1975 48.6782Z" fill="#D44516"/>
<path d="M67.0918 42.7139C67.309 42.6743 67.5193 42.5973 67.7213 42.5399V41.4496C67.4534 41.5427 67.193 41.6157 66.9164 41.6024C66.7343 41.5938 66.5889 41.5295 66.4982 41.3523C66.478 41.257 66.4486 41.17 66.4481 41.083C66.4441 40.4614 66.4459 39.8398 66.4459 39.2181V39.1039H67.6743V38.0313H66.4394V37.0654H65.5234C65.4265 37.3069 65.3315 37.5468 65.2334 37.7855C65.1831 37.9082 65.1557 38.0422 65.0231 38.1191C64.8398 38.2258 64.6639 38.345 64.4859 38.4606C64.4624 38.4758 64.4293 38.5014 64.4287 38.5229C64.4244 38.7153 64.4261 38.9078 64.4261 39.1112H65.02C65.02 39.7796 65.016 40.4367 65.0221 41.0937C65.0241 41.3158 65.0336 41.5411 65.0718 41.7591C65.1265 42.0698 65.2746 42.3346 65.5437 42.5184C65.8211 42.708 66.1409 42.7496 66.4619 42.7617C66.6714 42.7696 66.8854 42.7516 67.0918 42.7139Z" fill="#D44516"/>
<path d="M69.8906 48.0428V49.7463H71.3093V45.1035H69.8906V48.0428Z" fill="#D44516"/>
<path d="M71.1919 43.4335C70.8264 43.2098 70.4498 43.2059 70.0619 43.4071C69.897 43.5209 69.8386 43.6775 69.8449 43.8646C69.8471 43.9277 69.8489 43.9912 69.8445 44.0542C69.8317 44.2433 69.9793 44.4531 70.1813 44.5306C70.3957 44.6127 70.6145 44.613 70.828 44.589C71.0681 44.562 71.2815 44.4602 71.3565 44.1911C71.4105 43.9973 71.3995 43.805 71.3369 43.6194C71.3131 43.5483 71.2555 43.4726 71.1919 43.4335Z" fill="#D44516"/>
<path d="M14.1246 68.7029H11.8858V62.2528H9.86719V60.4199H16.1432V62.2528H14.1246V68.7029Z" fill="#D44516"/>
<path d="M20.4879 62.1719C20.6116 62.1719 20.739 62.1798 20.8706 62.1952C21.0022 62.2107 21.0987 62.2261 21.1606 62.2415L20.9635 64.3295C20.886 64.3141 20.7913 64.2987 20.6793 64.2832C20.5672 64.2678 20.4104 64.2599 20.2093 64.2599C20.0703 64.2599 19.9213 64.2735 19.7629 64.3005C19.6041 64.3277 19.4534 64.3838 19.3104 64.4688C19.1673 64.554 19.0513 64.6815 18.9623 64.8517C18.8734 65.0218 18.829 65.2538 18.829 65.5477V68.703H16.6133V62.2879H18.2606L18.6087 63.3086H18.713C18.829 63.1001 18.9798 62.9085 19.1654 62.7345C19.3511 62.5605 19.5579 62.4232 19.786 62.3226C20.014 62.2222 20.248 62.1719 20.4879 62.1719Z" fill="#D44516"/>
<path d="M28.2955 62.2871V68.7022H26.6252L26.3468 67.9019H26.2192C26.0876 68.1183 25.9193 68.2943 25.7145 68.4296C25.5096 68.5649 25.2852 68.6636 25.0416 68.7255C24.7982 68.7873 24.5447 68.8182 24.2819 68.8182C23.8642 68.8182 23.4853 68.7369 23.145 68.5746C22.8047 68.4122 22.536 68.157 22.3387 67.809C22.1416 67.461 22.043 67.0125 22.043 66.4633V62.2871H24.2586V65.7904C24.2586 66.2082 24.3184 66.5253 24.4385 66.7417C24.5583 66.9583 24.7536 67.0666 25.0242 67.0666C25.3028 67.0666 25.5192 66.991 25.6739 66.8403C25.8286 66.6896 25.9349 66.4673 25.9929 66.1733C26.0509 65.8796 26.0799 65.5199 26.0799 65.0944V62.2871H28.2955Z" fill="#D44516"/>
<path d="M34.5972 66.7308C34.5972 67.133 34.506 67.4927 34.3243 67.8097C34.1426 68.1269 33.8526 68.3743 33.4545 68.5523C33.056 68.7298 32.5321 68.819 31.8826 68.819C31.4261 68.819 31.0183 68.7937 30.6587 68.7436C30.2991 68.6933 29.9335 68.5986 29.5624 68.4594V66.6846C29.9722 66.8701 30.3861 67.0034 30.8037 67.0847C31.2213 67.166 31.5498 67.2064 31.7897 67.2064C32.0371 67.2064 32.219 67.1796 32.335 67.1254C32.451 67.0713 32.509 66.9902 32.509 66.8817C32.509 66.789 32.4701 66.7077 32.393 66.6381C32.3155 66.5686 32.1783 66.4913 31.9811 66.4061C31.784 66.321 31.5034 66.205 31.1401 66.0581C30.7842 65.9113 30.4884 65.7505 30.2527 65.5765C30.0166 65.4027 29.841 65.1938 29.7248 64.9502C29.6088 64.7067 29.5508 64.4108 29.5508 64.0628C29.5508 63.4364 29.7924 62.9647 30.276 62.6475C30.7591 62.3305 31.3991 62.1719 32.1957 62.1719C32.6208 62.1719 33.0193 62.2182 33.3906 62.3112C33.7619 62.4039 34.1484 62.5394 34.5508 62.7172L33.9473 64.1439C33.6303 63.9971 33.3095 63.8813 32.9846 63.7961C32.6597 63.711 32.4005 63.6682 32.2073 63.6682C32.0371 63.6682 31.9037 63.6915 31.8071 63.7379C31.7102 63.7842 31.6621 63.8501 31.6621 63.9352C31.6621 64.0125 31.6948 64.0821 31.7607 64.1439C31.8262 64.2058 31.9521 64.2755 32.1377 64.3528C32.3233 64.4301 32.594 64.5424 32.9499 64.6892C33.321 64.8361 33.6283 64.9967 33.872 65.1705C34.1156 65.3445 34.2973 65.5534 34.4173 65.7969C34.537 66.0407 34.5972 66.352 34.5972 66.7308Z" fill="#D44516"/>
<path d="M38.975 67.0671C39.1759 67.0671 39.3595 67.0458 39.526 67.0034C39.6921 66.9608 39.864 66.9087 40.0421 66.8466V68.4591C39.8022 68.5597 39.5471 68.6448 39.2765 68.7142C39.0056 68.7838 38.6615 68.8188 38.2441 68.8188C37.8265 68.8188 37.4609 68.7529 37.1478 68.6217C36.8345 68.4901 36.5889 68.2638 36.411 67.9428C36.233 67.6221 36.1443 67.1715 36.1443 66.5915V63.9466H35.3672V63.0416L36.3532 62.3456L36.9216 61H38.3715V62.2876H39.9492V63.9466H38.3715V66.4406C38.3715 66.6495 38.4238 66.8061 38.5282 66.9105C38.6326 67.0148 38.7815 67.0671 38.975 67.0671Z" fill="#D44516"/>
<path d="M44.0538 62.1719C44.6802 62.1719 45.2198 62.2804 45.6721 62.4966C46.1245 62.7132 46.4725 63.0381 46.7161 63.4712C46.9596 63.9044 47.0817 64.4495 47.0817 65.1068V66.0928H43.1256C43.141 66.4254 43.2669 66.7002 43.5028 66.9164C43.7386 67.133 44.0807 67.2413 44.5295 67.2413C44.9313 67.2413 45.2989 67.2027 45.6315 67.1254C45.9639 67.048 46.3081 66.9243 46.6638 66.7541V68.3433C46.3543 68.5059 46.0162 68.6257 45.6488 68.703C45.2815 68.7801 44.8195 68.819 44.2626 68.819C43.6129 68.819 43.0347 68.7048 42.5283 68.4769C42.0217 68.2487 41.6214 67.891 41.3276 67.4037C41.0337 66.9164 40.8867 66.2942 40.8867 65.5361C40.8867 64.7629 41.0203 64.1285 41.287 63.6335C41.5537 63.1387 41.925 62.7714 42.4006 62.5315C42.8763 62.2918 43.4275 62.1719 44.0538 62.1719ZM44.1349 63.6799C43.8719 63.6799 43.6536 63.7612 43.4796 63.9235C43.3056 64.0861 43.203 64.3451 43.1722 64.7008H45.0748C45.0748 64.5077 45.0377 64.3352 44.9645 64.1845C44.8909 64.0338 44.7846 63.9121 44.6455 63.8192C44.5062 63.7264 44.3359 63.6799 44.1349 63.6799Z" fill="#D44516"/>
<path d="M50.3285 68.8181C49.671 68.8181 49.1279 68.536 48.6986 67.9712C48.2693 67.4068 48.0547 66.5834 48.0547 65.5003C48.0547 64.4022 48.2733 63.5729 48.7102 63.012C49.1472 62.4514 49.7138 62.171 50.4098 62.171C50.6957 62.171 50.9432 62.2115 51.1522 62.2929C51.3611 62.374 51.5426 62.4863 51.6974 62.6293C51.8521 62.7723 51.9833 62.9327 52.0918 63.1107H52.1382C52.1072 62.9483 52.0819 62.7242 52.0628 62.4379C52.0435 62.1517 52.0338 61.8735 52.0338 61.6027V59.8857H54.2611V68.7021H52.5905L52.1149 67.8901H52.0338C51.9332 68.0604 51.8058 68.2151 51.6511 68.3541C51.4962 68.4932 51.3106 68.6057 51.0942 68.6907C50.8776 68.7755 50.6223 68.8181 50.3285 68.8181ZM51.2332 67.0665C51.5889 67.0665 51.8405 66.9544 51.9874 66.7299C52.1342 66.5058 52.2117 66.1616 52.2194 65.6976V65.5236C52.2194 65.0209 52.1478 64.6342 52.0048 64.3634C51.8616 64.0929 51.5968 63.9576 51.2102 63.9576C50.9472 63.9576 50.7286 64.0852 50.5548 64.3405C50.3808 64.5956 50.2938 64.9939 50.2938 65.5352C50.2938 66.0689 50.3808 66.4575 50.5548 66.7009C50.7286 66.9446 50.9551 67.0665 51.2332 67.0665Z" fill="#D44516"/>
<path d="M62.5854 68.7029H60.3467V62.2528H58.3281V60.4199H64.604V62.2528H62.5854V68.7029Z" fill="#D44516"/>
<path d="M68.9605 62.1719C69.0842 62.1719 69.2118 62.1798 69.3434 62.1952C69.4748 62.2107 69.5715 62.2261 69.6334 62.2415L69.4361 64.3295C69.3588 64.3141 69.2639 64.2987 69.1521 64.2832C69.0398 64.2678 68.8832 64.2599 68.6821 64.2599C68.5431 64.2599 68.3939 64.2735 68.2357 64.3005C68.0769 64.3277 67.9262 64.3838 67.7831 64.4688C67.6401 64.554 67.5241 64.6815 67.4351 64.8517C67.3462 65.0218 67.3018 65.2538 67.3018 65.5477V68.703H65.0859V62.2879H66.7332L67.0814 63.3086H67.1858C67.3018 63.1001 67.4525 62.9085 67.6381 62.7345C67.8238 62.5605 68.0307 62.4232 68.2588 62.3226C68.4868 62.2222 68.7208 62.1719 68.9605 62.1719Z" fill="#D44516"/>
<path d="M73.4257 62.1719C74.2377 62.1719 74.8718 62.3731 75.3283 62.7752C75.7844 63.1774 76.0124 63.7495 76.0124 64.4921V68.703H74.4813L74.0521 67.8563H74.0057C73.8278 68.0806 73.6441 68.264 73.4545 68.4073C73.2651 68.5503 73.0467 68.6547 72.7991 68.7204C72.5516 68.786 72.2501 68.819 71.8944 68.819C71.5232 68.819 71.1905 68.7436 70.8966 68.5927C70.6028 68.442 70.3706 68.2139 70.2006 67.9084C70.0305 67.603 69.9453 67.2143 69.9453 66.7424C69.9453 66.0543 70.1832 65.544 70.6589 65.2112C71.1345 64.8787 71.8248 64.6933 72.7297 64.6544L73.797 64.6195V64.5268C73.797 64.2407 73.7274 64.0377 73.5881 63.9178C73.4488 63.7978 73.2592 63.7379 73.0197 63.7379C72.7644 63.7379 72.4819 63.7827 72.1728 63.8714C71.8635 63.9602 71.5502 64.0742 71.2332 64.2135L70.5952 62.7519C70.9662 62.5585 71.3856 62.4135 71.8538 62.3169C72.3215 62.2202 72.8457 62.1719 73.4257 62.1719ZM73.2981 65.8608C72.8958 65.8764 72.6115 65.948 72.4454 66.0754C72.2791 66.2031 72.1961 66.3828 72.1961 66.615C72.1961 66.8314 72.2541 66.9918 72.3701 67.0964C72.4861 67.2007 72.6407 67.2528 72.8341 67.2528C73.1047 67.2528 73.3348 67.1678 73.5242 66.9977C73.7135 66.8277 73.8084 66.6073 73.8084 66.3364V65.8377L73.2981 65.8608Z" fill="#D44516"/>
<path d="M78.6443 59.7002C78.9613 59.7002 79.2377 59.7661 79.4737 59.8975C79.7096 60.0291 79.8276 60.2918 79.8276 60.6864C79.8276 61.0652 79.7096 61.3226 79.4737 61.4578C79.2377 61.5931 78.9613 61.6606 78.6443 61.6606C78.3196 61.6606 78.043 61.5931 77.8147 61.4578C77.5865 61.3226 77.4727 61.0652 77.4727 60.6864C77.4727 60.2918 77.5865 60.0291 77.8147 59.8975C78.043 59.7661 78.3196 59.7002 78.6443 59.7002ZM79.7463 62.2871V68.7022H77.5307V62.2871H79.7463Z" fill="#D44516"/>
<path d="M85.3029 62.1719C85.9679 62.1719 86.5093 62.3575 86.9269 62.7286C87.3445 63.1001 87.5533 63.6992 87.5533 64.5268V68.703H85.3376V65.1995C85.3376 64.7744 85.2757 64.4534 85.1522 64.2368C85.0283 64.0202 84.8312 63.9121 84.5605 63.9121C84.1427 63.9121 83.8624 64.0821 83.7195 64.4224C83.5761 64.7629 83.5049 65.2538 83.5049 65.8957V68.703H81.2891V62.2879H82.9596L83.2613 63.1348H83.3423C83.4816 62.9336 83.6458 62.7617 83.8355 62.6185C84.0249 62.4755 84.2415 62.3654 84.485 62.2879C84.7286 62.2107 85.0013 62.1719 85.3029 62.1719Z" fill="#D44516"/>
<path d="M90.1836 59.7002C90.5006 59.7002 90.777 59.7661 91.0129 59.8975C91.2487 60.0291 91.3668 60.2918 91.3668 60.6864C91.3668 61.0652 91.2487 61.3226 91.0129 61.4578C90.777 61.5931 90.5006 61.6606 90.1836 61.6606C89.8588 61.6606 89.582 61.5931 89.354 61.4578C89.1257 61.3226 89.0117 61.0652 89.0117 60.6864C89.0117 60.2918 89.1257 60.0291 89.354 59.8975C89.582 59.7661 89.8588 59.7002 90.1836 59.7002ZM91.2856 62.2871V68.7022H89.0699V62.2871H91.2856Z" fill="#D44516"/>
<path d="M96.8459 62.1719C97.5109 62.1719 98.0522 62.3575 98.4699 62.7286C98.8875 63.1001 99.0962 63.6992 99.0962 64.5268V68.703H96.8806V65.1995C96.8806 64.7744 96.8186 64.4534 96.6951 64.2368C96.5713 64.0202 96.3742 63.9121 96.1035 63.9121C95.6857 63.9121 95.4053 64.0821 95.2625 64.4224C95.1191 64.7629 95.0479 65.2538 95.0479 65.8957V68.703H92.832V62.2879H94.5026L94.8042 63.1348H94.8853C95.0246 62.9336 95.1887 62.7617 95.3785 62.6185C95.5679 62.4755 95.7845 62.3654 96.028 62.2879C96.2716 62.2107 96.5442 62.1719 96.8459 62.1719Z" fill="#D44516"/>
<path d="M102.66 62.1719C103.108 62.1719 103.47 62.2589 103.745 62.4329C104.019 62.6069 104.241 62.8215 104.412 63.0768H104.458L104.621 62.2879H106.535V68.7144C106.535 69.3179 106.411 69.8243 106.163 70.2343C105.916 70.6442 105.539 70.9553 105.032 71.168C104.526 71.3807 103.886 71.487 103.112 71.487C102.594 71.487 102.138 71.46 101.744 71.4059C101.349 71.3517 100.97 71.2552 100.607 71.1159V69.2714C100.993 69.4339 101.361 69.5556 101.709 69.6369C102.057 69.718 102.482 69.7586 102.985 69.7586C103.433 69.7586 103.768 69.6775 103.988 69.515C104.209 69.3526 104.319 69.1167 104.319 68.8074V68.6915C104.319 68.5909 104.325 68.471 104.336 68.3317C104.348 68.1926 104.365 68.0459 104.388 67.891H104.319C104.172 68.1463 103.963 68.3647 103.692 68.5463C103.421 68.728 103.066 68.819 102.625 68.819C101.944 68.819 101.391 68.5369 100.966 67.9721C100.541 67.4077 100.328 66.584 100.328 65.5012C100.328 64.4185 100.545 63.5929 100.978 63.0245C101.411 62.4562 101.972 62.1719 102.66 62.1719ZM103.495 63.8888C103.294 63.8888 103.124 63.9507 102.985 64.0742C102.846 64.1981 102.743 64.3818 102.677 64.6252C102.611 64.8691 102.579 65.1727 102.579 65.5361C102.579 66.0928 102.656 66.4931 102.811 66.7367C102.965 66.9804 103.205 67.1021 103.53 67.1021C103.708 67.1021 103.859 67.0731 103.982 67.0151C104.106 66.9571 104.205 66.872 104.278 66.76C104.352 66.6477 104.406 66.5067 104.441 66.3364C104.476 66.1664 104.493 65.9652 104.493 65.7334V65.4664C104.493 65.134 104.464 64.8497 104.406 64.6138C104.348 64.378 104.247 64.1981 104.104 64.0742C103.961 63.9507 103.758 63.8888 103.495 63.8888Z" fill="#D44516"/>
<path d="M1.18359 108.404H114.03" stroke="#D44516" stroke-width="1.45412"/>
<path d="M30.9766 125.864V119.246H33.5165C34.2794 119.246 34.8843 119.43 35.3315 119.798C35.7787 120.163 36.0022 120.704 36.0022 121.421C36.0022 122.134 35.7787 122.677 35.3315 123.048C34.8843 123.416 34.2794 123.601 33.5165 123.601H32.5647V125.864H30.9766ZM32.5647 122.22H33.5165C33.8026 122.22 34.018 122.141 34.1626 121.983C34.3106 121.822 34.3846 121.634 34.3846 121.421C34.3846 121.204 34.3106 121.015 34.1626 120.853C34.018 120.692 33.8026 120.612 33.5165 120.612H32.5647V122.22ZM38.0133 125.864V119.246H40.5977C41.4262 119.246 42.069 119.436 42.5261 119.818C42.9863 120.196 43.2165 120.704 43.2165 121.342C43.2165 121.966 42.9863 122.468 42.5261 122.846C42.069 123.221 41.4262 123.408 40.5977 123.408H39.5915V125.864H38.0133ZM41.4657 125.864L39.8529 122.668H41.5199L43.5322 125.864H41.4657ZM39.5915 122.382H40.4201C40.8113 122.382 41.1039 122.302 41.298 122.141C41.4953 121.976 41.5939 121.767 41.5939 121.514C41.5939 121.251 41.5101 121.036 41.3424 120.868C41.1779 120.697 40.9297 120.612 40.5977 120.612H39.5915V122.382ZM48.3831 126.022C47.7549 126.022 47.2059 125.891 46.7358 125.628C46.2688 125.361 45.9054 124.97 45.6458 124.454C45.386 123.934 45.2562 123.295 45.2562 122.535C45.2562 121.756 45.386 121.113 45.6458 120.607C45.9054 120.097 46.2688 119.719 46.7358 119.472C47.2059 119.223 47.7549 119.098 48.3831 119.098C49.0175 119.098 49.5699 119.227 50.0402 119.487C50.5137 119.747 50.8802 120.132 51.14 120.641C51.3997 121.151 51.5297 121.782 51.5297 122.535C51.5297 123.308 51.3997 123.954 51.14 124.474C50.8802 124.99 50.5137 125.378 50.0402 125.637C49.5699 125.894 49.0175 126.022 48.3831 126.022ZM48.3831 124.607C48.8433 124.607 49.2116 124.426 49.4878 124.064C49.764 123.699 49.9021 123.186 49.9021 122.525C49.9021 121.904 49.764 121.414 49.4878 121.056C49.2116 120.694 48.8433 120.513 48.3831 120.513C47.9358 120.513 47.5742 120.694 47.298 121.056C47.0218 121.414 46.8838 121.907 46.8838 122.535C46.8838 123.19 47.0218 123.699 47.298 124.064C47.5742 124.426 47.9358 124.607 48.3831 124.607ZM55.8033 124.113L57.2336 119.246H58.8809L56.6911 125.864H55.0241L52.8737 119.246H54.5407L55.9414 124.113H55.8033ZM60.8738 125.864V119.246H62.452V125.864H60.8738ZM65.1161 119.246H67.4588C68.1394 119.246 68.7393 119.38 69.2589 119.65C69.7784 119.92 70.1844 120.303 70.4771 120.799C70.773 121.292 70.921 121.881 70.921 122.565C70.921 123.239 70.773 123.824 70.4771 124.321C70.1844 124.814 69.7784 125.195 69.2589 125.465C68.7393 125.731 68.1394 125.864 67.4588 125.864H65.1161V119.246ZM66.6943 120.696V124.424H67.4588C67.817 124.424 68.1262 124.344 68.386 124.183C68.6489 124.018 68.8512 123.796 68.9926 123.517C69.1372 123.237 69.2096 122.92 69.2096 122.565C69.2096 122.197 69.1372 121.873 68.9926 121.593C68.8512 121.314 68.6489 121.095 68.386 120.937C68.1262 120.776 67.817 120.696 67.4588 120.696H66.6943ZM73.1437 125.864V119.246H77.5677V120.612H74.722V121.884H77.3902V123.255H74.722V124.483H77.5677V125.864H73.1437ZM80.1797 125.864V119.246H82.7641C83.5926 119.246 84.2354 119.436 84.6925 119.818C85.1527 120.196 85.3829 120.704 85.3829 121.342C85.3829 121.966 85.1527 122.468 84.6925 122.846C84.2354 123.221 83.5926 123.408 82.7641 123.408H81.7579V125.864H80.1797ZM83.6321 125.864L82.0193 122.668H83.6863L85.6986 125.864H83.6321ZM81.7579 122.382H82.5865C82.9777 122.382 83.2705 122.302 83.4644 122.141C83.6617 121.976 83.7603 121.767 83.7603 121.514C83.7603 121.251 83.6765 121.036 83.5088 120.868C83.3444 120.697 83.0961 120.612 82.7641 120.612H81.7579V122.382Z" fill="white"/>
</g>
<defs>
<clipPath id="clip0_2149_20608">
<rect width="116" height="148.156" fill="white"/>
</clipPath>
</defs>
</svg>
