<svg clip-rule="evenodd" fill-rule="evenodd" stroke-linejoin="round" stroke-miterlimit="2" viewBox="0 0 274 167" xmlns="http://www.w3.org/2000/svg"><g transform="translate(-47.426 -44)"><path d="m213.698 44-166.272 64.892 6.448 65.74 184.791 35.746 82.738-40.428-15.426-54.14z" fill="#e15d44"/><path d="m189.35 166.875c3.921.414 6.087 2.597 6.498 6.556v1.237c-.137.724-.559 1.145-1.265 1.262h-1.558c-.746-.076-1.166-.49-1.263-1.234v-1.174c-.139-1.471-.942-2.296-2.412-2.47-1.547.174-2.39.999-2.528 2.47v9.434c.137 1.53.98 2.364 2.528 2.502 1.47-.138 2.273-.972 2.412-2.502v-1.262c.097-.744.539-1.155 1.323-1.237h1.44c.744.1 1.186.512 1.323 1.237v1.262c-.452 3.921-2.617 6.059-6.498 6.41-3.959-.313-6.096-2.45-6.41-6.41v-9.525c.296-3.959 2.432-6.142 6.41-6.556zm15.763.001c3.942.392 6.107 2.558 6.499 6.499v9.582c-.411 3.92-2.578 6.057-6.499 6.409-3.918-.372-6.065-2.507-6.437-6.409v-9.582c.333-3.941 2.48-6.107 6.437-6.499zm36.96.234c.724.12 1.145.542 1.265 1.266v1.529c-.12.783-.55 1.196-1.294 1.234h-6.997c-.392.038-.61.256-.649.647v3.793c.04.392.257.596.649.619h4.44c.722.097 1.127.498 1.205 1.2v1.59c-.078.767-.491 1.157-1.236 1.178h-4.41c-.391.057-.608.285-.648.676v7.083c-.057.745-.459 1.16-1.205 1.237h-1.5c-.703-.038-1.096-.402-1.174-1.09v-19.724c.018-.686.362-1.101 1.029-1.238zm-26.51.03h1.854c.784-.059 1.362.286 1.734 1.028 1.408 3.503 2.848 6.993 4.32 10.47v-10.262c.08-.725.491-1.136 1.237-1.235h1.529c.685.057 1.096.43 1.233 1.117v14.405c-.018 1.764-.03 3.518-.03 5.263v.147c-.019.687-.371 1.03-1.057 1.03h-1.88c-.806.04-1.364-.303-1.679-1.03-1.466-3.443-2.916-6.892-4.35-10.349v10.145c-.078.762-.49 1.174-1.235 1.234h-1.5c-.705-.06-1.097-.433-1.175-1.118v-20.049c.039-.59.373-.855 1-.795zm-10.45 3.851c-1.527.158-2.36.991-2.497 2.5v9.494c.137 1.53.97 2.346 2.497 2.445 1.53-.1 2.371-.915 2.53-2.445v-9.493c-.159-1.53-1-2.364-2.53-2.5zm-31.068-.14v11.372l-51.63-11.372zm126.47 0-50.416 11.105v-11.106h50.416zm-109.102-93.369c3.731-1.314 7.798-.439 9.71 7.689 3.177 13.483-7.478 28.92-12.093 34.81l-.146.183.067-.064c1.915-1.858 5.07-3.84 8.696-1.833l.26.15c11.126 6.97 5.445 20.902 3.192 25.438l-.157.311c-.196.39-.404.775-.622 1.153 3.932-1.252 10.991-5.989 10.991-5.989s.144-2.042.225-2.51c1.97-11.288 7.875-16.65 10.775-18.85l.244-.182c.513-.38.911-.651 1.15-.83 1.594-1.198 15.669-6.586 16.294 7.982.544 12.674-13.183 18.177-16.762 19.394l-.23.077c-.392.13-.613.191-.613.191s1.611 4.203 8.312 3.128c6.701-1.07 14.387-7.596 14.387-7.596.111-2.487.855-6.408 1.745-10.29l.2-.862c1.21-5.158 2.616-10.053 3.06-11.191.805-2.055 5.72-2.145 6.258-.985.307.997.366 3.438.334 5.902l-.01.615c-.057 3.073-.237 5.997-.237 5.997l.536-.18c1.969-5.807 6.078-10.364 6.078-10.364.16-.154 3.372-3.199 5.988-2.437 2.68.786 1.7 10.123 1.7 10.123s-.038.274-.082.734l-.027.298c-.221 2.601-.423 9.249 3.235 9.609 4.558.445 9.742-3.571 9.742-3.571s3.216-1.334 3.575 2.245c.359 3.573-1.788 4.796-1.788 4.796-.248.185-8.944 6.588-15.638 4.648-6.793-1.966-7.15-14.226-7.15-14.226h-.628l-6.88 18.89-.021.069-.037.117c-.413 1.314-3.053 9.135-6.823 7.579-3.79-1.566-4.01-5.79-4.022-6.444v-.085s-.091.104-.27.286l-.132.132c-1.573 1.553-7.74 6.861-17.831 6.098-10.32-.781-13.656-9.242-13.656-9.242s-6.898 5.12-26.297 8.94c-8.678.944-14.83-4.356-14.83-4.356-.806.807-5.99 3.283-5.99 3.283l-.044.019c-.62.253-7.502 2.92-10.233-2.027-2.86-5.18-.983-21.99-.983-21.99h-.537s-4.29 9.211-6.525 17.076c-2.13 7.502-4.75 7.845-4.988 7.86h-.017s-.12.011-.33.014h-.171c-1.312-.017-4.815-.394-5.753-3.858-1.162-4.29 1.878-20.202 1.878-20.202l-.449.074-.008-.004c-.02.002-.04.01-.074.042l-.028.027c-.197.202-.73.967-2.142 3.775l-.23.46c-.475.956-1.041 2.123-1.715 3.549-5.9 14.312-7.853 16.549-10.857 16.4l-.206-.015c-.367-.034-.731-.086-1.093-.156-3.845-.708-4.022-5.636-4.022-5.636l-5.271 2.773s-12.87 5.204-19.57.112c-4.464-3.392-5.991-7.07-6.518-10.875h-.174c-.99-.003-5.912-.083-9.195-1.365-3.666-1.432.028-5.399.028-5.399s1.126-1.785 3.27 0c2.147 1.785 6.15.98 6.15.98.357-2.817.951-6.535 2.698-10.46 3.665-8.225 9.277-11.003 13.835-11.093 4.556-.089 7.776 1.147 10.546 5.08 6.166 15.284-16.444 23.02-16.444 23.02s-.626 4.001 5.54 3.913c6.167-.087 15.55-6.793 15.55-6.793.194-2.194.967-6.412 1.863-10.695l.194-.918c1.139-5.354 2.42-10.591 2.948-11.89.983-2.414 4.738-1.967 4.738-1.967h.005l.04-.008c.374-.063 2.943-.39 3.44 2.509.238 1.396-.163 4.695-.68 7.921l-.109.666c-.403 2.407-.853 4.807-1.348 7.197l-.007.035.445.54c.123-.574 1.556-3.169 3.074-5.814l.339-.588c1.693-2.936 3.38-5.755 3.38-5.755s3.753-6.524 9.474-6.257c4.241.198 2.044 9.885.626 14.878l-.127.44c-.238.829-.494 1.652-.767 2.47l.446.535.448-.805c.299-.823 1.955-3.55 3.783-6.444l.394-.623.396-.623c1.527-2.393 3.071-4.775 4.631-7.146s3.218-3.754 6.167-2.861c2.948.894 3.128 2.234 3.308 4.739.074 1.045-.32 4.244-.803 7.614l-.105.724c-.431 2.924-.89 5.844-1.376 8.76l-.034.197-.006.04s-1.431 9.741 1.786 9.563c3.218-.175 6.703-3.573 6.703-3.573s1.602-12.24 3.112-25.236l.113-.975.28-2.445.056-.49.11-.975.109-.974.107-.97.107-.966c.07-.642.14-1.28.207-1.912 1.699-15.82 9.027-26.455 9.027-26.455s2.142-3.307 7.806-5.544zm.684 49.78s-7.776-4.286-11.082 6.705c-3.216 10.692-2.205 14.704-2.147 14.916.002.01 10.19 4.48 14.391-6.516 4.2-10.99-1.162-15.104-1.162-15.104zm-87.495-2.677c-2.414-2.325-9.384 2.322-9.653 12.958 0 0 2.057.625 6.614-2.503 4.558-3.128 5.453-8.133 3.04-10.455zm126.016-.27s-2.863-3.665-6.526 3.039c-3.664 6.703-2.682 10.189-2.682 10.189s.056.004.159.005h.12c1.12-.01 5.399-.352 8.481-4.74 3.574-5.096.448-8.493.448-8.493zm-41.734-4.15-.067.067c-1.149 1.145-1.814 2.205-1.814 2.205s.725-.808 1.854-2.237l.027-.036zm4.644-32.311c-.865-4.587-3.3-1.187-5.234 2.585l-.201.398c-.885 1.793-1.694 3.623-2.424 5.485l-.007.02-.033.111c-.228.793-1.629 5.67-2.95 10.898l-.183.731c-.122.489-.243.98-.361 1.468l-.176.731c-.928 3.892-1.683 7.594-1.75 9.566 0 0 14.835-23.952 13.319-31.993zm-54.421-.551c3.05.318 4.728 2.003 5.032 5.054v7.399c-.304 3.05-1.981 4.705-5.032 4.964-3.066-.274-4.736-1.928-5.008-4.964v-7.4c.272-3.05 1.942-4.735 5.008-5.053zm-12.408-.001c3.05.32 4.72 2.004 5.009 5.055-.015.425-.046.842-.091 1.252-.207.567-.516 1.092-.911 1.548-1.534 2.127-3.082 4.245-4.644 6.352h4.758c.56.077.896.38 1.002.911v1.184c-.106.577-.448.895-1.025.956h-8.014c-.578-.06-.896-.38-.956-.956v-1.184c0-.167.045-.32.136-.455 2.279-2.877 4.481-5.815 6.603-8.811 0-.334.007-.66.023-.98-.227-1.03-.858-1.585-1.89-1.661-1.2.106-1.845.76-1.935 1.958v.865c-.076.576-.402.896-.98.957h-1.16c-.592-.078-.896-.402-.91-.98v-.956c.242-3.066 1.903-4.75 4.985-5.055zm24.702 0c3.05.32 4.72 2.004 5.009 5.055-.015.425-.046.842-.091 1.252-.207.567-.516 1.092-.911 1.548-1.534 2.127-3.082 4.245-4.644 6.352h4.758c.56.077.896.38 1.002.911v1.184c-.106.577-.448.895-1.025.956h-8.014c-.577-.06-.896-.38-.955-.956v-1.184c0-.167.044-.32.135-.455 2.279-2.877 4.481-5.815 6.603-8.811 0-.334.007-.66.023-.98-.227-1.03-.858-1.585-1.89-1.661-1.2.106-1.845.76-1.935 1.958v.865c-.076.576-.402.896-.98.957h-1.16c-.592-.078-.895-.402-.91-.98v-.956c.242-3.066 1.903-4.75 4.985-5.055zm13.205.024c.547.09.865.417.956.978v.934c-.03 2.49-.045 4.978-.045 7.467v6.898c-.061.562-.364.88-.911.957h-1.206c-.547-.06-.858-.356-.934-.888v-12.226c-.728.47-1.473.926-2.231 1.366-.208.173-.461.284-.729.319-.41-.106-.615-.38-.615-.82v-1.457c-.06-.607.197-1.055.775-1.342.273-.168.546-.343.82-.524.56-.335 1.115-.684 1.662-1.048.205-.133.418-.254.636-.364.187-.169.432-.259.684-.25zm-25.5 3.186c-1.198.137-1.851.797-1.957 1.982v7.285c.121 1.183.774 1.829 1.958 1.934 1.185-.105 1.837-.75 1.958-1.934v-7.285c-.121-1.2-.773-1.86-1.958-1.982z" fill="#fefefe"/></g></svg>