<svg viewBox="0 0 591 450" alt="{{include.alt}}" class="{{include.class}}">
    <g transform="matrix(1,0,0,1,0,-4.12496)">
        <g transform="matrix(4.16667,0,0,4.16667,0,0)">
            <path d="M10.488,103.607L12.917,80.622C13.215,77.823 12.718,74.996 11.484,72.466C6.22,61.757 3.447,49.997 3.372,38.065C3.372,21.285 15.357,4.358 42.125,4.358C64.08,4.358 80.376,18.833 80.866,38.77C80.886,39.609 81.028,40.44 81.286,41.239L90.438,68.632L85.399,69.201C82.838,69.482 80.899,71.646 80.9,74.223L80.9,89.518C80.903,90.961 80.281,92.335 79.193,93.284C78.121,94.243 76.692,94.7 75.263,94.54L57.01,92.521L52.426,91.998C51.519,91.74 50.575,92.265 50.317,93.171C50.058,94.078 50.583,95.021 51.49,95.28C51.674,95.332 51.865,95.353 52.056,95.343L57.482,95.951L58.483,103.567C58.557,104.043 58.413,104.528 58.091,104.887C57.774,105.252 57.312,105.46 56.828,105.456L12.178,105.456C11.235,105.459 10.468,104.699 10.464,103.756C10.463,103.701 10.466,103.645 10.471,103.59L10.488,103.607ZM7.143,103.26C6.842,106.023 8.838,108.509 11.602,108.81C11.791,108.831 11.981,108.841 12.172,108.84L56.823,108.84C59.609,108.84 61.869,106.583 61.869,103.796C61.869,103.581 61.855,103.365 61.828,103.152L60.929,96.361L70.03,97.374L74.927,97.914C79.548,98.429 83.711,95.101 84.226,90.48C84.261,90.168 84.279,89.855 84.278,89.541L84.278,74.218C84.292,73.365 84.933,72.653 85.78,72.551L90.825,71.982C92.68,71.78 94.02,70.113 93.818,68.258C93.793,68.023 93.743,67.792 93.669,67.568L84.495,40.169C84.34,39.693 84.255,39.197 84.244,38.696C83.698,16.849 65.98,0.99 42.125,0.99C17.319,0.99 0,16.234 0,38.065C0.079,50.495 2.971,62.746 8.457,73.899C9.41,75.867 9.792,78.061 9.561,80.235L7.143,103.26Z" style="fill:rgb(98,185,232);fill-rule:nonzero;"/>
        </g>
        <g transform="matrix(4.16667,0,0,4.16667,0,0)">
            <path d="M42.347,9.318C41.428,9.321 40.683,10.065 40.68,10.984L40.68,14.317C40.68,15.239 41.428,15.987 42.349,15.987C43.271,15.987 44.019,15.239 44.019,14.317L44.019,10.99C44.016,10.071 43.271,9.327 42.352,9.323L42.347,9.318Z" style="fill:rgb(19,117,188);fill-rule:nonzero;"/>
        </g>
        <g transform="matrix(4.16667,0,0,4.16667,0,0)">
            <path d="M51.396,10.552C50.732,10.66 50.193,11.147 50.02,11.798L49.155,15.017C48.932,15.908 49.455,16.816 50.338,17.07C50.478,17.103 50.621,17.121 50.765,17.122C51.522,17.122 52.184,16.613 52.38,15.882L53.239,12.662C53.478,11.773 52.951,10.859 52.062,10.62C51.845,10.565 51.619,10.55 51.396,10.575L51.396,10.552Z" style="fill:rgb(19,117,188);fill-rule:nonzero;"/>
        </g>
        <g transform="matrix(4.16667,0,0,4.16667,0,0)">
            <path d="M33.297,10.552C33.074,10.527 32.849,10.542 32.632,10.598C31.747,10.841 31.224,11.752 31.46,12.64L32.325,15.859C32.514,16.592 33.177,17.102 33.934,17.099C34.079,17.094 34.224,17.077 34.367,17.048C35.247,16.791 35.767,15.884 35.544,14.994L34.696,11.798C34.527,11.148 33.984,10.664 33.32,10.569L33.297,10.552Z" style="fill:rgb(19,117,188);fill-rule:nonzero;"/>
        </g>
        <g transform="matrix(4.16667,0,0,4.16667,0,0)">
            <path d="M60.486,14.13C59.819,14.061 59.174,14.388 58.836,14.966L57.169,17.844C56.711,18.635 56.98,19.647 57.771,20.106C58.018,20.25 58.299,20.327 58.586,20.33C59.182,20.335 59.735,20.018 60.031,19.499L61.697,16.621C62.153,15.824 61.882,14.809 61.088,14.346C60.897,14.23 60.684,14.157 60.463,14.13L60.486,14.13Z" style="fill:rgb(19,117,188);fill-rule:nonzero;"/>
        </g>
        <g transform="matrix(4.16667,0,0,4.16667,0,0)">
            <path d="M24.207,14.141C23.987,14.167 23.774,14.239 23.582,14.352C22.804,14.826 22.537,15.828 22.974,16.627L24.64,19.511C25.101,20.307 26.121,20.578 26.918,20.116C27.714,19.654 27.986,18.635 27.524,17.838L25.857,14.955C25.524,14.372 24.873,14.046 24.207,14.13L24.207,14.141Z" style="fill:rgb(19,117,188);fill-rule:nonzero;"/>
        </g>
        <g transform="matrix(4.16667,0,0,4.16667,0,0)">
            <path d="M116.983,67.593L116.983,70.686C116.983,71.538 117.672,72.234 118.529,72.234C119.388,72.234 120.077,71.538 120.077,70.686L120.077,67.593C120.077,66.742 119.388,66.045 118.529,66.045C117.672,66.045 116.983,66.742 116.983,67.593Z" style="fill:rgb(98,185,232);fill-rule:nonzero;"/>
        </g>
        <g transform="matrix(4.16667,0,0,4.16667,0,0)">
            <path d="M121.622,41.295C122.482,41.295 123.171,40.6 123.171,39.749C123.171,38.899 122.482,38.203 121.622,38.203L115.435,38.203C114.578,38.203 113.889,38.899 113.889,39.749C113.889,40.6 114.578,41.295 115.435,41.295L121.622,41.295Z" style="fill:rgb(19,117,188);fill-rule:nonzero;"/>
        </g>
        <g transform="matrix(4.16667,0,0,4.16667,0,0)">
            <path d="M91.386,50.577L121.623,50.577C122.481,50.577 123.17,49.88 123.17,49.031C123.17,48.18 122.481,47.485 121.623,47.485L90.35,47.485L91.386,50.577Z" style="fill:rgb(19,117,188);fill-rule:nonzero;"/>
        </g>
        <g transform="matrix(4.16667,0,0,4.16667,0,0)">
            <path d="M109.249,67.593L109.249,70.686C109.249,71.538 109.936,72.234 110.795,72.234C111.655,72.234 112.341,71.538 112.341,70.686L112.341,67.593C112.341,66.742 111.655,66.045 110.795,66.045C109.936,66.045 109.249,66.742 109.249,67.593Z" style="fill:rgb(98,185,232);fill-rule:nonzero;"/>
        </g>
        <g transform="matrix(4.16667,0,0,4.16667,0,0)">
            <path d="M127.811,70.686L127.811,67.593C127.811,66.742 127.122,66.045 126.263,66.045C125.405,66.045 124.716,66.742 124.716,67.593L124.716,70.686C124.716,71.538 125.405,72.234 126.263,72.234C127.122,72.234 127.811,71.538 127.811,70.686Z" style="fill:rgb(98,185,232);fill-rule:nonzero;"/>
        </g>
        <g transform="matrix(4.16667,0,0,4.16667,0,0)">
            <path d="M137.091,13.453L78.499,13.453C79.295,14.447 80.044,15.478 80.741,16.545L137.091,16.545C137.943,16.545 138.638,17.243 138.638,18.094L138.638,73.781C138.638,74.63 137.943,75.327 137.091,75.327L127.576,75.327C126.926,75.327 126.354,75.729 126.122,76.333C126.091,76.434 122.38,85.908 112.084,89.812C115.163,83.069 115.201,77.168 115.201,76.874C115.201,76.024 114.514,75.327 113.655,75.327L87.261,75.327L87.261,78.42L112.007,78.42C111.744,80.974 110.847,86.286 107.685,91.545C107.374,92.08 107.398,92.745 107.762,93.24C108.055,93.658 108.526,93.89 109.015,93.89C109.122,93.89 109.239,93.874 109.354,93.85C121.715,91.105 127.12,81.576 128.589,78.42L137.091,78.42C139.643,78.42 141.732,76.333 141.732,73.781L141.732,18.094C141.732,15.541 139.643,13.453 137.091,13.453Z" style="fill:rgb(50,149,210);fill-rule:nonzero;"/>
        </g>
        <g transform="matrix(4.16667,0,0,4.16667,0,0)">
            <path d="M135.545,70.686L135.545,67.593C135.545,66.742 134.856,66.045 133.998,66.045C133.139,66.045 132.452,66.742 132.452,67.593L132.452,70.686C132.452,71.538 133.139,72.234 133.998,72.234C134.856,72.234 135.545,71.538 135.545,70.686Z" style="fill:rgb(98,185,232);fill-rule:nonzero;"/>
        </g>
        <g transform="matrix(4.16667,0,0,4.16667,0,0)">
            <path d="M109.452,38.203L87.242,38.203L88.259,41.239C88.27,41.273 88.301,41.295 88.336,41.295L109.322,41.295C110.07,41.295 110.798,40.829 110.96,40.099C111.181,39.1 110.425,38.203 109.452,38.203Z" style="fill:rgb(19,117,188);fill-rule:nonzero;"/>
        </g>
        <g transform="matrix(4.16667,0,0,4.16667,0,0)">
            <path d="M101.513,67.593L101.513,70.686C101.513,71.538 102.202,72.234 103.061,72.234C103.919,72.234 104.608,71.538 104.608,70.686L104.608,67.593C104.608,66.742 103.919,66.045 103.061,66.045C102.202,66.045 101.513,66.742 101.513,67.593Z" style="fill:rgb(98,185,232);fill-rule:nonzero;"/>
        </g>
    </g>
</svg>
