<svg viewBox="0 0 164.9 189.61" alt="{{include.alt}}" class="{{include.class}}">
  <path d="M12.56 179.8a8.85 8.85 0 0 0 8.84 9.81h78.5a8.87 8.87 0 0 0 8.8-10l-1.58-11.94 16 1.78 8.61.95a14.8 14.8 0 0 0 16.44-14.72v-26.94a3 3 0 0 1 2.64-2.93l8.87-1a5.94 5.94 0 0 0 5-7.76l-16.13-48.17a9 9 0 0 1-.44-2.59C147.15 27.88 116 0 74.06 0 30.45 0 0 26.8 0 65.18a144.81 144.81 0 0 0 14.87 63 20.59 20.59 0 0 1 1.94 11.14zm5.88.61L22.71 140a26.35 26.35 0 0 0-2.52-14.34A139.07 139.07 0 0 1 5.93 65.18C5.93 35.68 27 5.92 74.06 5.92c38.6 0 67.25 25.45 68.11 60.5a15.26 15.26 0 0 0 .74 4.34L159 118.92l-8.86 1a8.88 8.88 0 0 0-7.91 8.83v26.89a8.76 8.76 0 0 1-3 6.62 8.89 8.89 0 0 1-6.91 2.21l-32.09-3.55-8.06-.92a3 3 0 1 0-.65 5.88l9.54 1.07 1.76 13.39a2.82 2.82 0 0 1-.69 2.32 2.9 2.9 0 0 1-2.22 1h-78.5a3 3 0 0 1-3-3.28z" fill="#81bded"/>
  <path d="M35.56 79c0 10 5.13 17.22 9.66 23.61 4 5.64 7.75 10.95 7.75 17.51V126a20.51 20.51 0 0 0 41 0v-5.85c0-6.56 3.8-11.88 7.83-17.53 4.59-6.37 9.76-13.63 9.76-23.61a38 38 0 0 0-38-38 38 38 0 0 0-38 37.99zm23.27 44h29.3v3a14.65 14.65 0 0 1-29.3 0zM41.42 79a32.15 32.15 0 0 1 64.3 0c0 8.1-4.21 14-8.66 20.21-3.85 5.41-7.84 11-8.75 18H58.66c-.89-7-4.82-12.57-8.66-18C45.59 93 41.42 87.13 41.42 79z" fill="#4e96d8"/>
  <path d="M74.45 14.64a2.94 2.94 0 0 0-2.93 2.93v5.86a2.93 2.93 0 0 0 5.87 0v-5.85a2.94 2.94 0 0 0-2.93-2.93zM90.36 16.81A3 3 0 0 0 87.94 19l-1.52 5.66a3 3 0 0 0 2.08 3.61 3.31 3.31 0 0 0 .75.09 2.94 2.94 0 0 0 2.84-2.18l1.51-5.66a2.93 2.93 0 0 0-2.07-3.59 3.27 3.27 0 0 0-1.17-.08zM58.54 16.81a3.29 3.29 0 0 0-1.17.08 2.94 2.94 0 0 0-2.06 3.59l1.52 5.66a2.91 2.91 0 0 0 2.83 2.18 4.56 4.56 0 0 0 .76-.09 3 3 0 0 0 2.07-3.61L61 19a2.93 2.93 0 0 0-2.42-2.16zM106.34 23.1a3 3 0 0 0-2.9 1.47l-2.93 5.06A2.91 2.91 0 0 0 103 34a2.89 2.89 0 0 0 2.54-1.46l2.93-5.06a2.94 2.94 0 0 0-1.07-4 2.79 2.79 0 0 0-1.1-.38zM42.56 23.12a2.81 2.81 0 0 0-1.1.37 3 3 0 0 0-1.07 4l2.93 5.07a2.93 2.93 0 0 0 5.07-2.94l-2.93-5.07a2.92 2.92 0 0 0-2.9-1.45zM86.18 76.22a2.94 2.94 0 0 0-2.07.87l-5.86 5.86a2.92 2.92 0 1 0 4.14 4.14l5.86-5.86a2.89 2.89 0 0 0 0-4.14 2.93 2.93 0 0 0-2.07-.87zM62.72 76.22a2.94 2.94 0 0 0-2.07.87 2.9 2.9 0 0 0 0 4.14L71.52 92.1v16.38a2.93 2.93 0 1 0 5.87 0v-17.6a2.89 2.89 0 0 0-.87-2.07L64.79 77.09a2.93 2.93 0 0 0-2.07-.87z" fill="#fff"/>
</svg>