<svg viewBox="0 0 449 418" alt="{{include.alt}}" class="{{include.class}}">
    <g transform="matrix(1,0,0,1,-70.8625,-2016.28)">
        <g transform="matrix(4.16667,0,0,4.16667,0,0)">
            <path d="M81.804,554.907L21.639,554.907C20.789,554.907 20.096,554.211 20.096,553.362L20.096,502.428L83.377,502.428C84.232,502.428 84.92,501.733 84.92,500.885C84.92,500.036 84.232,499.34 83.377,499.34L20.096,499.34L20.096,488.538C20.096,487.688 20.789,486.993 21.639,486.993L98.81,486.993C99.66,486.993 100.354,487.688 100.354,488.538L100.354,514.338L103.442,514.338L103.442,488.538C103.442,485.991 101.357,483.907 98.81,483.907L21.639,483.907C19.092,483.907 17.007,485.991 17.007,488.538L17.007,553.362C17.007,555.909 19.092,557.993 21.639,557.993L81.804,557.993L81.804,554.907Z" style="fill:rgb(19,117,188);fill-rule:nonzero;"/>
        </g>
        <g transform="matrix(4.16667,0,0,4.16667,0,0)">
            <path d="M95.724,502.428C96.58,502.428 97.267,501.733 97.267,500.885C97.267,500.036 96.58,499.34 95.724,499.34L89.551,499.34C88.693,499.34 88.006,500.036 88.006,500.885C88.006,501.733 88.693,502.428 89.551,502.428L95.724,502.428Z" style="fill:rgb(19,117,188);fill-rule:nonzero;"/>
        </g>
        <g transform="matrix(4.16667,0,0,4.16667,0,0)">
            <path d="M121.669,518.228L121.669,521.144L82.498,521.144L82.498,518.228C82.498,516.592 83.779,515.311 85.415,515.311L118.752,515.311C120.388,515.311 121.669,516.592 121.669,518.228ZM121.669,524.201L121.669,570.038L82.498,570.038L82.498,524.201L121.669,524.201ZM121.669,573.093L121.669,578.233C121.669,579.868 120.388,581.15 118.752,581.15L85.415,581.15C83.779,581.15 82.498,579.868 82.498,578.233L82.498,573.093L121.669,573.093ZM118.752,512.255L85.415,512.255C82.122,512.255 79.442,514.934 79.442,518.228L79.442,578.233C79.442,581.526 82.122,584.206 85.415,584.206L118.752,584.206C122.045,584.206 124.724,581.526 124.724,578.233L124.724,518.228C124.724,514.934 122.045,512.255 118.752,512.255Z" style="fill:rgb(50,149,210);fill-rule:nonzero;"/>
        </g>
        <g transform="matrix(4.16667,0,0,4.16667,0,0)">
            <path d="M53.412,511.493C52.903,511.572 52.466,511.948 52.334,512.484L44.402,544.214C44.223,544.921 44.66,545.636 45.367,545.814C45.472,545.84 45.578,545.854 45.685,545.854C46.279,545.854 46.814,545.457 46.966,544.856L54.9,513.125C55.078,512.412 54.641,511.697 53.933,511.517C53.763,511.472 53.583,511.465 53.412,511.493Z" style="fill:rgb(98,185,232);fill-rule:nonzero;"/>
        </g>
        <g transform="matrix(4.16667,0,0,4.16667,0,0)">
            <path d="M37.752,519.411C37.415,519.411 37.078,519.544 36.819,519.801L28.888,527.733C28.365,528.25 28.365,529.082 28.888,529.598L36.819,537.532C37.078,537.789 37.408,537.92 37.752,537.92C38.095,537.92 38.425,537.789 38.684,537.532C39.205,537.015 39.205,536.183 38.684,535.667L31.69,528.666L38.684,521.667C39.205,521.15 39.205,520.318 38.684,519.801C38.425,519.544 38.088,519.411 37.752,519.411Z" style="fill:rgb(98,185,232);fill-rule:nonzero;"/>
        </g>
        <g transform="matrix(4.16667,0,0,4.16667,0,0)">
            <path d="M61.549,519.411C61.212,519.411 60.875,519.544 60.618,519.801C60.095,520.318 60.095,521.15 60.618,521.667L67.612,528.666L60.618,535.667C60.095,536.183 60.095,537.015 60.618,537.532C60.875,537.789 61.205,537.92 61.549,537.92C61.894,537.92 62.224,537.789 62.481,537.532L70.414,529.598C70.936,529.082 70.936,528.25 70.414,527.733L62.481,519.801C62.224,519.544 61.887,519.411 61.549,519.411Z" style="fill:rgb(98,185,232);fill-rule:nonzero;"/>
        </g>
        <g transform="matrix(4.16667,0,0,4.16667,0,0)">
            <path d="M26.267,490.081C25.412,490.081 24.724,490.776 24.724,491.624L24.724,494.711C24.724,495.559 25.412,496.254 26.267,496.254C27.125,496.254 27.812,495.559 27.812,494.711L27.812,491.624C27.812,490.776 27.125,490.081 26.267,490.081Z" style="fill:rgb(50,149,210);fill-rule:nonzero;"/>
        </g>
        <g transform="matrix(4.16667,0,0,4.16667,0,0)">
            <path d="M33.986,490.081C33.129,490.081 32.443,490.776 32.443,491.624L32.443,494.711C32.443,495.559 33.129,496.254 33.986,496.254C34.842,496.254 35.529,495.559 35.529,494.711L35.529,491.624C35.529,490.776 34.842,490.081 33.986,490.081Z" style="fill:rgb(50,149,210);fill-rule:nonzero;"/>
        </g>
        <g transform="matrix(4.16667,0,0,4.16667,0,0)">
            <path d="M41.703,490.081C40.846,490.081 40.16,490.776 40.16,491.624L40.16,494.711C40.16,495.559 40.846,496.254 41.703,496.254C42.56,496.254 43.246,495.559 43.246,494.711L43.246,491.624C43.246,490.776 42.56,490.081 41.703,490.081Z" style="fill:rgb(50,149,210);fill-rule:nonzero;"/>
        </g>
        <g transform="matrix(4.16667,0,0,4.16667,0,0)">
            <path d="M49.42,490.081C48.564,490.081 47.877,490.776 47.877,491.624L47.877,494.711C47.877,495.559 48.564,496.254 49.42,496.254C50.277,496.254 50.963,495.559 50.963,494.711L50.963,491.624C50.963,490.776 50.277,490.081 49.42,490.081Z" style="fill:rgb(50,149,210);fill-rule:nonzero;"/>
        </g>
        <g transform="matrix(4.16667,0,0,4.16667,0,0)">
            <path d="M57.139,490.081C56.281,490.081 55.594,490.776 55.594,491.624L55.594,494.711C55.594,495.559 56.281,496.254 57.139,496.254C57.994,496.254 58.682,495.559 58.682,494.711L58.682,491.624C58.682,490.776 57.994,490.081 57.139,490.081Z" style="fill:rgb(50,149,210);fill-rule:nonzero;"/>
        </g>
        <g transform="matrix(4.16667,0,0,4.16667,0,0)">
            <path d="M64.855,490.081C63.998,490.081 63.31,490.776 63.31,491.624L63.31,494.711C63.31,495.559 63.998,496.254 64.855,496.254C65.711,496.254 66.398,495.559 66.398,494.711L66.398,491.624C66.398,490.776 65.711,490.081 64.855,490.081Z" style="fill:rgb(50,149,210);fill-rule:nonzero;"/>
        </g>
        <g transform="matrix(4.16667,0,0,4.16667,0,0)">
            <path d="M72.572,490.081C71.715,490.081 71.029,490.776 71.029,491.624L71.029,494.711C71.029,495.559 71.715,496.254 72.572,496.254C73.43,496.254 74.115,495.559 74.115,494.711L74.115,491.624C74.115,490.776 73.43,490.081 72.572,490.081Z" style="fill:rgb(50,149,210);fill-rule:nonzero;"/>
        </g>
        <g transform="matrix(4.16667,0,0,4.16667,0,0)">
            <path d="M80.289,490.081C79.433,490.081 78.746,490.776 78.746,491.624L78.746,494.711C78.746,495.559 79.433,496.254 80.289,496.254C81.146,496.254 81.834,495.559 81.834,494.711L81.834,491.624C81.834,490.776 81.146,490.081 80.289,490.081Z" style="fill:rgb(50,149,210);fill-rule:nonzero;"/>
        </g>
        <g transform="matrix(4.16667,0,0,4.16667,0,0)">
            <path d="M88.006,490.081C87.15,490.081 86.463,490.776 86.463,491.624L86.463,494.711C86.463,495.559 87.15,496.254 88.006,496.254C88.863,496.254 89.551,495.559 89.551,494.711L89.551,491.624C89.551,490.776 88.863,490.081 88.006,490.081Z" style="fill:rgb(50,149,210);fill-rule:nonzero;"/>
        </g>
        <g transform="matrix(4.16667,0,0,4.16667,0,0)">
            <path d="M95.724,490.081C94.867,490.081 94.182,490.776 94.182,491.624L94.182,494.711C94.182,495.559 94.867,496.254 95.724,496.254C96.58,496.254 97.267,495.559 97.267,494.711L97.267,491.624C97.267,490.776 96.58,490.081 95.724,490.081Z" style="fill:rgb(50,149,210);fill-rule:nonzero;"/>
        </g>
        <g transform="matrix(4.16667,0,0,4.16667,0,0)">
            <path d="M102.084,579.76C103.539,579.76 104.723,578.577 104.723,577.122C104.723,575.667 103.539,574.482 102.084,574.482C100.628,574.482 99.444,575.667 99.444,577.122C99.444,578.577 100.628,579.76 102.084,579.76Z" style="fill:rgb(98,185,232);fill-rule:nonzero;"/>
        </g>
    </g>
</svg>
