<svg viewBox="0 0 403 449" class="{{include.class}}">
    <g transform="matrix(1,0,0,1,-93.9167,-2666.3)">
        <g transform="matrix(4.16667,0,0,4.16667,0,0)">
            <path d="M60.47,651.837C60.47,651.156 59.915,650.6 59.233,650.6C58.552,650.6 57.997,651.156 57.997,651.837C57.997,652.519 58.552,653.074 59.233,653.074C59.915,653.074 60.47,652.519 60.47,651.837Z" style="fill:rgb(98,185,232);fill-rule:nonzero;"/>
        </g>
        <g transform="matrix(4.16667,0,0,4.16667,0,0)">
            <path d="M93.605,656.113C93.605,655.431 93.051,654.875 92.368,654.875C91.686,654.875 91.132,655.431 91.132,656.113C91.132,656.794 91.686,657.349 92.368,657.349C93.051,657.349 93.605,656.794 93.605,656.113Z" style="fill:rgb(98,185,232);fill-rule:nonzero;"/>
        </g>
        <g transform="matrix(4.16667,0,0,4.16667,0,0)">
            <path d="M91.132,664.664C91.132,665.345 91.686,665.9 92.368,665.9C93.051,665.9 93.605,665.345 93.605,664.664C93.605,663.982 93.051,663.427 92.368,663.427C91.686,663.427 91.132,663.982 91.132,664.664Z" style="fill:rgb(98,185,232);fill-rule:nonzero;"/>
        </g>
        <g transform="matrix(4.16667,0,0,4.16667,0,0)">
            <path d="M52.988,660.388C52.988,659.707 52.434,659.151 51.751,659.151C51.069,659.151 50.515,659.707 50.515,660.388C50.515,661.07 51.069,661.625 51.751,661.625C52.434,661.625 52.988,661.07 52.988,660.388Z" style="fill:rgb(98,185,232);fill-rule:nonzero;"/>
        </g>
        <g transform="matrix(4.16667,0,0,4.16667,0,0)">
            <path d="M64.746,651.837C64.746,651.156 64.191,650.6 63.508,650.6C62.827,650.6 62.272,651.156 62.272,651.837C62.272,652.519 62.827,653.074 63.508,653.074C64.191,653.074 64.746,652.519 64.746,651.837Z" style="fill:rgb(98,185,232);fill-rule:nonzero;"/>
        </g>
        <g transform="matrix(4.16667,0,0,4.16667,0,0)">
            <path d="M69.02,651.837C69.02,651.156 68.466,650.6 67.785,650.6C67.103,650.6 66.548,651.156 66.548,651.837C66.548,652.519 67.103,653.074 67.785,653.074C68.466,653.074 69.02,652.519 69.02,651.837Z" style="fill:rgb(98,185,232);fill-rule:nonzero;"/>
        </g>
        <g transform="matrix(4.16667,0,0,4.16667,0,0)">
            <path d="M91.132,668.939C91.132,669.621 91.686,670.175 92.368,670.175C93.051,670.175 93.605,669.621 93.605,668.939C93.605,668.256 93.051,667.703 92.368,667.703C91.686,667.703 91.132,668.256 91.132,668.939Z" style="fill:rgb(98,185,232);fill-rule:nonzero;"/>
        </g>
        <g transform="matrix(4.16667,0,0,4.16667,0,0)">
            <path d="M91.132,660.388C91.132,661.07 91.686,661.625 92.368,661.625C93.051,661.625 93.605,661.07 93.605,660.388C93.605,659.707 93.051,659.151 92.368,659.151C91.686,659.151 91.132,659.707 91.132,660.388Z" style="fill:rgb(98,185,232);fill-rule:nonzero;"/>
        </g>
        <g transform="matrix(4.16667,0,0,4.16667,0,0)">
            <path d="M62.272,677.49C62.272,678.171 62.827,678.726 63.508,678.726C64.191,678.726 64.746,678.171 64.746,677.49C64.746,676.808 64.191,676.253 63.508,676.253C62.827,676.253 62.272,676.808 62.272,677.49Z" style="fill:rgb(98,185,232);fill-rule:nonzero;"/>
        </g>
        <g transform="matrix(4.16667,0,0,4.16667,0,0)">
            <path d="M66.548,677.49C66.548,678.171 67.103,678.726 67.785,678.726C68.466,678.726 69.02,678.171 69.02,677.49C69.02,676.808 68.466,676.253 67.785,676.253C67.103,676.253 66.548,676.808 66.548,677.49Z" style="fill:rgb(98,185,232);fill-rule:nonzero;"/>
        </g>
        <g transform="matrix(4.16667,0,0,4.16667,0,0)">
            <path d="M59.233,678.726C59.915,678.726 60.47,678.171 60.47,677.49C60.47,676.808 59.915,676.253 59.233,676.253C58.552,676.253 57.997,676.808 57.997,677.49C57.997,678.171 58.552,678.726 59.233,678.726Z" style="fill:rgb(98,185,232);fill-rule:nonzero;"/>
        </g>
        <g transform="matrix(4.16667,0,0,4.16667,0,0)">
            <path d="M54.957,676.253C53.853,676.253 52.988,675.388 52.988,674.283L52.988,672.68C52.988,672.6 52.979,672.516 52.959,672.429C52.94,672.35 52.917,672.278 52.885,672.192C52.818,672.044 52.724,671.912 52.6,671.792C52.542,671.74 52.476,671.687 52.405,671.643C52.346,671.607 52.266,671.562 52.182,671.538C51.907,671.434 51.605,671.432 51.349,671.528C51.322,671.535 51.296,671.545 51.268,671.556L51.219,671.576C50.959,671.702 50.748,671.917 50.626,672.181C50.587,672.266 50.56,672.345 50.547,672.416C50.539,672.454 50.53,672.496 50.522,672.552C50.518,672.596 50.515,672.636 50.515,672.68C50.515,673.485 49.884,674.115 49.079,674.115C48.274,674.115 47.644,673.485 47.644,672.68L47.644,656.647C47.644,655.842 48.274,655.211 49.079,655.211C49.884,655.211 50.515,655.842 50.515,656.647C50.515,656.788 50.545,656.915 50.575,657.023C50.602,657.096 50.635,657.169 50.675,657.243C50.774,657.418 50.918,657.571 51.108,657.69L51.208,657.742C51.247,657.761 51.282,657.776 51.32,657.789C51.478,657.849 51.647,657.875 51.797,657.867C51.832,657.867 51.865,657.864 51.928,657.857C52.06,657.835 52.176,657.801 52.288,657.748L52.393,657.69C52.432,657.666 52.467,657.641 52.488,657.623C52.523,657.598 52.559,657.571 52.586,657.543C52.647,657.487 52.699,657.427 52.748,657.367L52.781,657.315C52.796,657.293 52.81,657.269 52.818,657.253C52.885,657.14 52.931,657.024 52.962,656.877C52.969,656.847 52.975,656.816 52.98,656.757C52.984,656.72 52.988,656.685 52.988,656.647L52.988,655.043C52.988,653.943 53.852,653.078 54.957,653.074L55.08,653.069C55.715,653 56.195,652.47 56.195,651.836C56.195,651.223 55.737,650.707 55.125,650.615L55.125,642.385L57.104,642.385C58.87,642.385 60.576,643.023 61.904,644.181L70.828,651.951C70.889,652.585 71.415,653.074 72.059,653.074C72.143,653.074 72.228,653.064 72.322,653.044C72.411,653.064 72.497,653.074 72.581,653.074L89.161,653.074C94.355,653.074 98.487,656.135 100.489,657.96C101.83,659.187 103.041,660.609 103.902,661.963C104.697,663.229 105.028,664.346 105.028,664.664C105.028,664.981 104.697,666.098 103.902,667.362C103.041,668.717 101.83,670.139 100.489,671.367C98.487,673.191 94.355,676.253 89.161,676.253L72.586,676.253C72.502,676.253 72.416,676.262 72.323,676.282C72.23,676.262 72.143,676.253 72.059,676.253C71.411,676.253 70.883,676.743 70.827,677.38L61.905,685.146C60.576,686.304 58.87,686.942 57.104,686.942L55.125,686.942L55.125,678.716C55.739,678.628 56.195,678.108 56.195,677.49C56.195,676.822 55.651,676.268 54.957,676.253ZM45.17,669.75C41.207,669.186 38.449,666.092 37.369,664.664C38.448,663.236 41.206,660.141 45.17,659.577L45.17,662.54C43.116,663.037 40.725,664.458 40.621,664.519L40.38,664.664L40.621,664.808C40.725,664.87 43.116,666.29 45.17,666.788L45.17,669.75ZM63.527,687.01L73.045,678.726L89.161,678.726C95.197,678.726 99.891,675.259 102.151,673.192C103.696,671.783 105.022,670.222 105.987,668.678C107.049,666.995 107.501,665.794 107.501,664.664C107.501,663.533 107.049,662.332 105.989,660.649C105.022,659.104 103.696,657.543 102.151,656.135C99.891,654.068 95.197,650.6 89.161,650.6L73.045,650.6L63.527,642.316C61.748,640.765 59.467,639.912 57.104,639.912L53.889,639.912C53.207,639.912 52.653,640.466 52.653,641.148L52.653,651.337C51.858,651.827 51.262,652.492 50.914,653.272C50.276,652.908 49.687,652.738 49.079,652.738C46.924,652.738 45.17,654.491 45.17,656.647L45.17,657.093C38.756,657.808 34.727,663.917 34.688,663.977L34.231,664.664L34.688,665.348C34.727,665.411 38.756,671.518 45.17,672.234L45.17,672.68C45.17,674.835 46.924,676.589 49.079,676.589C49.687,676.589 50.276,676.418 50.914,676.055C51.262,676.835 51.858,677.5 52.653,677.99L52.653,688.178C52.653,688.86 53.207,689.416 53.889,689.416L57.104,689.416C59.467,689.416 61.748,688.561 63.527,687.01Z" style="fill:rgb(50,149,210);fill-rule:nonzero;"/>
        </g>
        <g transform="matrix(4.16667,0,0,4.16667,0,0)">
            <path d="M93.605,673.214C93.605,672.533 93.051,671.978 92.368,671.978C91.686,671.978 91.132,672.533 91.132,673.214C91.132,673.896 91.686,674.451 92.368,674.451C93.051,674.451 93.605,673.896 93.605,673.214Z" style="fill:rgb(98,185,232);fill-rule:nonzero;"/>
        </g>
        <g transform="matrix(4.16667,0,0,4.16667,0,0)">
            <path d="M52.988,668.939C52.988,668.256 52.434,667.703 51.751,667.703C51.069,667.703 50.515,668.256 50.515,668.939C50.515,669.621 51.069,670.175 51.751,670.175C52.434,670.175 52.988,669.621 52.988,668.939Z" style="fill:rgb(98,185,232);fill-rule:nonzero;"/>
        </g>
        <g transform="matrix(4.16667,0,0,4.16667,0,0)">
            <path d="M77.404,669.839C74.55,669.839 72.227,667.517 72.227,664.664C72.227,661.809 74.55,659.487 77.404,659.487C80.258,659.487 82.58,661.809 82.58,664.664C82.58,667.517 80.258,669.839 77.404,669.839ZM85.054,664.664C85.054,660.445 81.622,657.013 77.404,657.013C73.187,657.013 69.755,660.445 69.755,664.664C69.755,668.881 73.187,672.313 77.404,672.313C81.622,672.313 85.054,668.881 85.054,664.664Z" style="fill:rgb(19,117,188);fill-rule:nonzero;"/>
        </g>
        <g transform="matrix(4.16667,0,0,4.16667,0,0)">
            <path d="M52.988,664.664C52.988,663.982 52.434,663.427 51.751,663.427C51.069,663.427 50.515,663.982 50.515,664.664C50.515,665.345 51.069,665.9 51.751,665.9C52.434,665.9 52.988,665.345 52.988,664.664Z" style="fill:rgb(98,185,232);fill-rule:nonzero;"/>
        </g>
        <g transform="matrix(4.16667,0,0,4.16667,0,0)">
            <path d="M41.334,704.672C36.872,704.672 33.28,701.08 33.28,696.618C33.28,692.156 36.872,688.564 41.334,688.564C45.796,688.564 49.388,692.156 49.388,696.618C49.388,701.08 45.796,704.672 41.334,704.672ZM41.334,685.879C35.419,685.879 30.595,690.704 30.595,696.618C30.595,702.533 35.419,707.357 41.334,707.357C47.248,707.357 52.073,702.533 52.073,696.618C52.073,690.704 47.248,685.879 41.334,685.879Z" style="fill:rgb(98,185,232);fill-rule:nonzero;"/>
        </g>
        <g transform="matrix(4.16667,0,0,4.16667,0,0)">
            <path d="M100.398,704.672C95.935,704.672 92.344,701.08 92.344,696.618C92.344,696.34 92.36,696.062 92.385,695.795C92.794,691.721 96.213,688.564 100.398,688.564C104.86,688.564 108.452,692.156 108.452,696.618C108.452,701.08 104.86,704.672 100.398,704.672ZM100.398,685.879C94.483,685.879 89.659,690.704 89.659,696.618C89.659,702.533 94.483,707.357 100.398,707.357C106.312,707.357 111.137,702.533 111.137,696.618C111.137,690.704 106.312,685.879 100.398,685.879Z" style="fill:rgb(98,185,232);fill-rule:nonzero;"/>
        </g>
        <g transform="matrix(4.16667,0,0,4.16667,0,0)">
            <path d="M70.866,716.753C65.659,716.753 61.469,712.564 61.469,707.357C61.469,702.15 65.659,697.96 70.866,697.96C76.073,697.96 80.262,702.15 80.262,707.357C80.262,712.564 76.073,716.753 70.866,716.753ZM70.866,695.276C64.212,695.276 58.785,700.703 58.785,707.357C58.785,714.011 64.212,719.438 70.866,719.438C77.52,719.438 82.947,714.011 82.947,707.357C82.947,700.703 77.52,695.276 70.866,695.276Z" style="fill:rgb(19,117,188);fill-rule:nonzero;"/>
        </g>
        <g transform="matrix(4.16667,0,0,4.16667,0,0)">
            <path d="M116.506,731.519L87.849,731.519C86.886,729.999 85.72,728.625 84.394,727.414C85.123,719.212 92.013,712.726 100.398,712.726C109.264,712.726 116.506,719.968 116.506,728.834L116.506,731.519ZM88.316,744.943L53.415,744.943L53.415,742.258C53.415,732.652 61.26,724.807 70.866,724.807C80.472,724.807 88.316,732.652 88.316,742.258L88.316,744.943ZM25.225,731.519L25.225,728.834C25.225,719.968 32.468,712.726 41.334,712.726C49.718,712.726 56.608,719.212 57.337,727.414C56.011,728.625 54.846,729.999 53.882,731.519L25.225,731.519ZM119.191,728.834C119.191,718.505 110.727,710.042 100.398,710.042C93.518,710.042 87.477,713.796 84.206,719.355C83.115,721.221 82.349,723.292 81.946,725.484C78.763,723.366 74.956,722.123 70.866,722.123C66.775,722.123 62.969,723.366 59.786,725.484C58.187,716.738 50.516,710.042 41.334,710.042C31.004,710.042 22.54,718.505 22.54,728.834L22.54,734.205L52.435,734.205C51.344,736.674 50.73,739.395 50.73,742.258L50.73,747.627L91.001,747.627L91.001,742.258C91.001,739.395 90.388,736.674 89.296,734.205L119.191,734.205L119.191,728.834Z" style="fill:rgb(50,149,210);fill-rule:nonzero;"/>
        </g>
        <g transform="matrix(4.16667,0,0,4.16667,0,0)">
            <path d="M27.91,726.15C27.17,726.15 26.568,726.752 26.568,727.493C26.568,728.232 27.17,728.834 27.91,728.834C28.65,728.834 29.252,728.232 29.252,727.493C29.252,726.752 28.65,726.15 27.91,726.15Z" style="fill:rgb(98,185,232);fill-rule:nonzero;"/>
        </g>
        <g transform="matrix(4.16667,0,0,4.16667,0,0)">
            <path d="M33.28,726.15C32.54,726.15 31.937,726.752 31.937,727.493C31.937,728.232 32.54,728.834 33.28,728.834C34.019,728.834 34.622,728.232 34.622,727.493C34.622,726.752 34.019,726.15 33.28,726.15Z" style="fill:rgb(98,185,232);fill-rule:nonzero;"/>
        </g>
        <g transform="matrix(4.16667,0,0,4.16667,0,0)">
            <path d="M38.649,726.15C37.91,726.15 37.307,726.752 37.307,727.493C37.307,728.232 37.91,728.834 38.649,728.834C39.389,728.834 39.992,728.232 39.992,727.493C39.992,726.752 39.389,726.15 38.649,726.15Z" style="fill:rgb(98,185,232);fill-rule:nonzero;"/>
        </g>
        <g transform="matrix(4.16667,0,0,4.16667,0,0)">
            <path d="M44.018,726.15C43.279,726.15 42.676,726.752 42.676,727.493C42.676,728.232 43.279,728.834 44.018,728.834C44.758,728.834 45.361,728.232 45.361,727.493C45.361,726.752 44.758,726.15 44.018,726.15Z" style="fill:rgb(98,185,232);fill-rule:nonzero;"/>
        </g>
        <g transform="matrix(4.16667,0,0,4.16667,0,0)">
            <path d="M49.388,726.15C48.648,726.15 48.046,726.752 48.046,727.493C48.046,728.232 48.648,728.834 49.388,728.834C50.127,728.834 50.73,728.232 50.73,727.493C50.73,726.752 50.127,726.15 49.388,726.15Z" style="fill:rgb(98,185,232);fill-rule:nonzero;"/>
        </g>
        <g transform="matrix(4.16667,0,0,4.16667,0,0)">
            <path d="M54.757,726.15C54.018,726.15 53.415,726.752 53.415,727.493C53.415,728.232 54.018,728.834 54.757,728.834C55.497,728.834 56.099,728.232 56.099,727.493C56.099,726.752 55.497,726.15 54.757,726.15Z" style="fill:rgb(98,185,232);fill-rule:nonzero;"/>
        </g>
        <g transform="matrix(4.16667,0,0,4.16667,0,0)">
            <path d="M86.974,726.15C86.234,726.15 85.632,726.752 85.632,727.493C85.632,728.232 86.234,728.834 86.974,728.834C87.714,728.834 88.316,728.232 88.316,727.493C88.316,726.752 87.714,726.15 86.974,726.15Z" style="fill:rgb(98,185,232);fill-rule:nonzero;"/>
        </g>
        <g transform="matrix(4.16667,0,0,4.16667,0,0)">
            <path d="M92.344,726.15C91.604,726.15 91.001,726.752 91.001,727.493C91.001,728.232 91.604,728.834 92.344,728.834C93.083,728.834 93.686,728.232 93.686,727.493C93.686,726.752 93.083,726.15 92.344,726.15Z" style="fill:rgb(98,185,232);fill-rule:nonzero;"/>
        </g>
        <g transform="matrix(4.16667,0,0,4.16667,0,0)">
            <path d="M97.713,726.15C96.974,726.15 96.37,726.752 96.37,727.493C96.37,728.232 96.974,728.834 97.713,728.834C98.453,728.834 99.056,728.232 99.056,727.493C99.056,726.752 98.453,726.15 97.713,726.15Z" style="fill:rgb(98,185,232);fill-rule:nonzero;"/>
        </g>
        <g transform="matrix(4.16667,0,0,4.16667,0,0)">
            <path d="M103.083,726.15C102.343,726.15 101.741,726.752 101.741,727.493C101.741,728.232 102.343,728.834 103.083,728.834C103.823,728.834 104.425,728.232 104.425,727.493C104.425,726.752 103.823,726.15 103.083,726.15Z" style="fill:rgb(98,185,232);fill-rule:nonzero;"/>
        </g>
        <g transform="matrix(4.16667,0,0,4.16667,0,0)">
            <path d="M108.452,726.15C107.713,726.15 107.11,726.752 107.11,727.493C107.11,728.232 107.713,728.834 108.452,728.834C109.192,728.834 109.795,728.232 109.795,727.493C109.795,726.752 109.192,726.15 108.452,726.15Z" style="fill:rgb(98,185,232);fill-rule:nonzero;"/>
        </g>
        <g transform="matrix(4.16667,0,0,4.16667,0,0)">
            <path d="M113.822,726.15C113.082,726.15 112.479,726.752 112.479,727.493C112.479,728.232 113.082,728.834 113.822,728.834C114.561,728.834 115.164,728.232 115.164,727.493C115.164,726.752 114.561,726.15 113.822,726.15Z" style="fill:rgb(98,185,232);fill-rule:nonzero;"/>
        </g>
        <g transform="matrix(4.16667,0,0,4.16667,0,0)">
            <path d="M57.442,739.574C56.703,739.574 56.1,740.176 56.1,740.916C56.1,741.656 56.703,742.258 57.442,742.258C58.182,742.258 58.785,741.656 58.785,740.916C58.785,740.176 58.182,739.574 57.442,739.574Z" style="fill:rgb(19,117,188);fill-rule:nonzero;"/>
        </g>
        <g transform="matrix(4.16667,0,0,4.16667,0,0)">
            <path d="M62.811,739.574C62.072,739.574 61.469,740.176 61.469,740.916C61.469,741.656 62.072,742.258 62.811,742.258C63.551,742.258 64.154,741.656 64.154,740.916C64.154,740.176 63.551,739.574 62.811,739.574Z" style="fill:rgb(19,117,188);fill-rule:nonzero;"/>
        </g>
        <g transform="matrix(4.16667,0,0,4.16667,0,0)">
            <path d="M68.181,739.574C67.441,739.574 66.839,740.176 66.839,740.916C66.839,741.656 67.441,742.258 68.181,742.258C68.921,742.258 69.523,741.656 69.523,740.916C69.523,740.176 68.921,739.574 68.181,739.574Z" style="fill:rgb(19,117,188);fill-rule:nonzero;"/>
        </g>
        <g transform="matrix(4.16667,0,0,4.16667,0,0)">
            <path d="M73.551,739.574C72.811,739.574 72.208,740.176 72.208,740.916C72.208,741.656 72.811,742.258 73.551,742.258C74.29,742.258 74.893,741.656 74.893,740.916C74.893,740.176 74.29,739.574 73.551,739.574Z" style="fill:rgb(19,117,188);fill-rule:nonzero;"/>
        </g>
        <g transform="matrix(4.16667,0,0,4.16667,0,0)">
            <path d="M78.92,739.574C78.18,739.574 77.578,740.176 77.578,740.916C77.578,741.656 78.18,742.258 78.92,742.258C79.66,742.258 80.262,741.656 80.262,740.916C80.262,740.176 79.66,739.574 78.92,739.574Z" style="fill:rgb(19,117,188);fill-rule:nonzero;"/>
        </g>
        <g transform="matrix(4.16667,0,0,4.16667,0,0)">
            <path d="M84.289,739.574C83.55,739.574 82.947,740.176 82.947,740.916C82.947,741.656 83.55,742.258 84.289,742.258C85.029,742.258 85.632,741.656 85.632,740.916C85.632,740.176 85.029,739.574 84.289,739.574Z" style="fill:rgb(19,117,188);fill-rule:nonzero;"/>
        </g>
    </g>
</svg>
