<svg viewBox="0 0 449 430" alt="{{include.alt}}" class="{{include.class}}">
    <g transform="matrix(1,0,0,1,-70.8667,-3341.42)">
        <g transform="matrix(4.16667,0,0,4.16667,0,0)">
            <path d="M52.913,803.65L54.623,807.069L117.885,807.069L117.885,872.041L119.595,872.041C120.537,872.041 121.305,872.808 121.305,873.75L121.305,875.46L56.332,875.46L56.332,878.88L124.724,878.88L124.724,873.75C124.724,871.519 123.295,869.624 121.305,868.916L121.305,803.65L52.913,803.65Z" style="fill:rgb(50,149,210);fill-rule:nonzero;"/>
        </g>
        <g transform="matrix(4.16667,0,0,4.16667,0,0)">
            <path d="M39.235,822.457C34.494,822.457 30.686,818.649 30.686,813.908C30.686,809.167 34.494,805.359 39.235,805.359C43.976,805.359 47.784,809.167 47.784,813.908C47.784,818.649 43.976,822.457 39.235,822.457ZM39.235,801.94C32.643,801.94 27.266,807.317 27.266,813.908C27.266,820.5 32.643,825.876 39.235,825.876C45.826,825.876 51.203,820.5 51.203,813.908C51.203,807.317 45.826,801.94 39.235,801.94Z" style="fill:rgb(19,117,188);fill-rule:nonzero;"/>
        </g>
        <g transform="matrix(4.16667,0,0,4.16667,0,0)">
            <path d="M27.266,829.296C21.622,829.296 17.008,833.911 17.008,839.555L17.008,867.766C17.008,871.052 19.705,873.75 22.992,873.75C23.92,873.75 24.768,873.498 25.557,873.109L25.557,878.879L28.976,878.879L28.976,867.766L25.557,867.766C25.557,869.203 24.428,870.331 22.992,870.331C21.556,870.331 20.427,869.203 20.427,867.766L20.427,839.555C20.427,835.761 23.472,832.715 27.266,832.715L33.138,832.715L39.235,842.874L45.332,832.715L81.124,832.715C82.56,832.715 83.689,833.844 83.689,835.281C83.689,836.716 82.56,837.845 81.124,837.845L49.494,837.845L49.494,878.879L52.913,878.879L52.913,841.265L81.124,841.265C84.411,841.265 87.109,838.567 87.109,835.281C87.109,831.995 84.411,829.296 81.124,829.296L43.396,829.296L39.235,836.236L35.073,829.296L27.266,829.296Z" style="fill:rgb(19,117,188);fill-rule:nonzero;"/>
        </g>
        <g transform="matrix(4.16667,0,0,4.16667,0,0)">
            <path d="M27.266,841.265C26.324,841.265 25.557,842.033 25.557,842.974C25.557,843.917 26.324,844.684 27.266,844.684C28.208,844.684 28.976,843.917 28.976,842.974C28.976,842.033 28.208,841.265 27.266,841.265Z" style="fill:rgb(98,185,232);fill-rule:nonzero;"/>
        </g>
        <g transform="matrix(4.16667,0,0,4.16667,0,0)">
            <path d="M27.266,848.104C26.324,848.104 25.557,848.872 25.557,849.814C25.557,850.755 26.324,851.523 27.266,851.523C28.208,851.523 28.976,850.755 28.976,849.814C28.976,848.872 28.208,848.104 27.266,848.104Z" style="fill:rgb(98,185,232);fill-rule:nonzero;"/>
        </g>
        <g transform="matrix(4.16667,0,0,4.16667,0,0)">
            <path d="M27.266,854.943C26.324,854.943 25.557,855.71 25.557,856.653C25.557,857.595 26.324,858.363 27.266,858.363C28.208,858.363 28.976,857.595 28.976,856.653C28.976,855.71 28.208,854.943 27.266,854.943Z" style="fill:rgb(98,185,232);fill-rule:nonzero;"/>
        </g>
        <g transform="matrix(4.16667,0,0,4.16667,0,0)">
            <path d="M27.266,861.782C26.324,861.782 25.557,862.549 25.557,863.492C25.557,864.434 26.324,865.202 27.266,865.202C28.208,865.202 28.976,864.434 28.976,863.492C28.976,862.549 28.208,861.782 27.266,861.782Z" style="fill:rgb(98,185,232);fill-rule:nonzero;"/>
        </g>
        <g transform="matrix(4.16667,0,0,4.16667,0,0)">
            <path d="M58.042,868.622C57.1,868.622 56.332,869.389 56.332,870.331C56.332,871.273 57.1,872.041 58.042,872.041C58.984,872.041 59.752,871.273 59.752,870.331C59.752,869.389 58.984,868.622 58.042,868.622Z" style="fill:rgb(98,185,232);fill-rule:nonzero;"/>
        </g>
        <g transform="matrix(4.16667,0,0,4.16667,0,0)">
            <path d="M64.882,868.622C63.939,868.622 63.172,869.389 63.172,870.331C63.172,871.273 63.939,872.041 64.882,872.041C65.824,872.041 66.591,871.273 66.591,870.331C66.591,869.389 65.824,868.622 64.882,868.622Z" style="fill:rgb(98,185,232);fill-rule:nonzero;"/>
        </g>
        <g transform="matrix(4.16667,0,0,4.16667,0,0)">
            <path d="M71.721,868.622C70.779,868.622 70.011,869.389 70.011,870.331C70.011,871.273 70.779,872.041 71.721,872.041C72.662,872.041 73.431,871.273 73.431,870.331C73.431,869.389 72.662,868.622 71.721,868.622Z" style="fill:rgb(98,185,232);fill-rule:nonzero;"/>
        </g>
        <g transform="matrix(4.16667,0,0,4.16667,0,0)">
            <path d="M78.56,868.622C77.618,868.622 76.85,869.389 76.85,870.331C76.85,871.273 77.618,872.041 78.56,872.041C79.502,872.041 80.269,871.273 80.269,870.331C80.269,869.389 79.502,868.622 78.56,868.622Z" style="fill:rgb(98,185,232);fill-rule:nonzero;"/>
        </g>
        <g transform="matrix(4.16667,0,0,4.16667,0,0)">
            <path d="M85.399,868.622C84.457,868.622 83.689,869.389 83.689,870.331C83.689,871.273 84.457,872.041 85.399,872.041C86.341,872.041 87.109,871.273 87.109,870.331C87.109,869.389 86.341,868.622 85.399,868.622Z" style="fill:rgb(98,185,232);fill-rule:nonzero;"/>
        </g>
        <g transform="matrix(4.16667,0,0,4.16667,0,0)">
            <path d="M92.238,868.622C91.296,868.622 90.528,869.389 90.528,870.331C90.528,871.273 91.296,872.041 92.238,872.041C93.18,872.041 93.948,871.273 93.948,870.331C93.948,869.389 93.18,868.622 92.238,868.622Z" style="fill:rgb(98,185,232);fill-rule:nonzero;"/>
        </g>
        <g transform="matrix(4.16667,0,0,4.16667,0,0)">
            <path d="M99.077,868.622C98.135,868.622 97.368,869.389 97.368,870.331C97.368,871.273 98.135,872.041 99.077,872.041C100.02,872.041 100.787,871.273 100.787,870.331C100.787,869.389 100.02,868.622 99.077,868.622Z" style="fill:rgb(98,185,232);fill-rule:nonzero;"/>
        </g>
        <g transform="matrix(4.16667,0,0,4.16667,0,0)">
            <path d="M105.917,868.622C104.974,868.622 104.207,869.389 104.207,870.331C104.207,871.273 104.974,872.041 105.917,872.041C106.859,872.041 107.626,871.273 107.626,870.331C107.626,869.389 106.859,868.622 105.917,868.622Z" style="fill:rgb(98,185,232);fill-rule:nonzero;"/>
        </g>
        <g transform="matrix(4.16667,0,0,4.16667,0,0)">
            <path d="M112.756,868.622C111.814,868.622 111.046,869.389 111.046,870.331C111.046,871.273 111.814,872.041 112.756,872.041C113.698,872.041 114.466,871.273 114.466,870.331C114.466,869.389 113.698,868.622 112.756,868.622Z" style="fill:rgb(98,185,232);fill-rule:nonzero;"/>
        </g>
        <g transform="matrix(4.16667,0,0,4.16667,0,0)">
            <path d="M41.368,894.348C41.368,898.282 38.167,901.482 34.233,901.482C30.299,901.482 27.099,898.282 27.099,894.348C27.099,894.1 27.114,893.852 27.135,893.619C27.503,889.967 30.554,887.214 34.233,887.214C38.167,887.214 41.368,890.415 41.368,894.348ZM34.233,883.669C28.344,883.669 23.554,888.459 23.554,894.348C23.554,900.236 28.344,905.027 34.233,905.027C40.121,905.027 44.912,900.236 44.912,894.348C44.912,888.459 40.121,883.669 34.233,883.669Z" style="fill:rgb(19,117,188);fill-rule:nonzero;"/>
        </g>
        <g transform="matrix(4.16667,0,0,4.16667,0,0)">
            <path d="M66.368,894.348C66.368,898.282 63.167,901.482 59.233,901.482C55.299,901.482 52.099,898.282 52.099,894.348C52.099,894.1 52.114,893.852 52.135,893.619C52.503,889.967 55.554,887.214 59.233,887.214C63.167,887.214 66.368,890.415 66.368,894.348ZM59.233,883.669C53.344,883.669 48.554,888.459 48.554,894.348C48.554,900.236 53.344,905.027 59.233,905.027C65.121,905.027 69.911,900.236 69.911,894.348C69.911,888.459 65.121,883.669 59.233,883.669Z" style="fill:rgb(19,117,188);fill-rule:nonzero;"/>
        </g>
        <g transform="matrix(4.16667,0,0,4.16667,0,0)">
            <path d="M91.368,894.348C91.368,898.282 88.167,901.482 84.233,901.482C80.299,901.482 77.099,898.282 77.099,894.348C77.099,894.1 77.114,893.852 77.135,893.619C77.503,889.967 80.554,887.214 84.233,887.214C88.167,887.214 91.368,890.415 91.368,894.348ZM84.233,883.669C78.344,883.669 73.554,888.459 73.554,894.348C73.554,900.236 78.344,905.027 84.233,905.027C90.121,905.027 94.911,900.236 94.911,894.348C94.911,888.459 90.121,883.669 84.233,883.669Z" style="fill:rgb(19,117,188);fill-rule:nonzero;"/>
        </g>
        <g transform="matrix(4.16667,0,0,4.16667,0,0)">
            <path d="M116.368,894.348C116.368,898.282 113.168,901.482 109.233,901.482C105.3,901.482 102.099,898.282 102.099,894.348C102.099,894.101 102.114,893.853 102.137,893.618C102.504,889.967 105.555,887.214 109.233,887.214C113.168,887.214 116.368,890.415 116.368,894.348ZM109.233,883.669C103.345,883.669 98.554,888.459 98.554,894.348C98.554,900.236 103.345,905.027 109.233,905.027C115.122,905.027 119.912,900.236 119.912,894.348C119.912,888.459 115.122,883.669 109.233,883.669Z" style="fill:rgb(19,117,188);fill-rule:nonzero;"/>
        </g>
    </g>
</svg>
