<svg viewBox="0 0 449 430" alt="{{include.alt}}" class="{{include.class}}"  style="fill-rule:evenodd;clip-rule:evenodd;stroke-linejoin:round;stroke-miterlimit:1.41421;">
  <path d="M149.604,7.125l7.125,14.246l263.592,0l0,270.717l7.125,0c3.925,0 7.125,3.196 7.125,7.121l0,7.125l-270.721,0l0,14.25l284.967,0l0,-21.375c0,-9.296 -5.954,-17.192 -14.246,-20.142l0,-271.942l-284.967,0Z" style="fill:#3295d2;fill-rule:nonzero;"/>
  <path d="M92.613,85.488c-19.755,0 -35.621,-15.867 -35.621,-35.621c0,-19.754 15.866,-35.621 35.621,-35.621c19.754,0 35.62,15.867 35.62,35.621c0,19.754 -15.866,35.621 -35.62,35.621Zm0,-85.488c-27.467,0 -49.871,22.404 -49.871,49.867c0,27.466 22.404,49.866 49.871,49.866c27.462,0 49.866,-22.4 49.866,-49.866c0,-27.463 -22.404,-49.867 -49.866,-49.867Z" style="fill:#1375bc;fill-rule:nonzero;"/>
  <path d="M42.742,113.983c-23.517,0 -42.742,19.23 -42.742,42.746l0,117.546c0,13.692 11.238,24.934 24.933,24.934c3.867,0 7.4,-1.05 10.688,-2.671l0,24.041l14.246,0l0,-46.304l-14.246,0c0,5.988 -4.704,10.688 -10.688,10.688c-5.983,0 -10.687,-4.7 -10.687,-10.688l0,-117.546c0,-15.808 12.687,-28.5 28.496,-28.5l24.466,0l25.405,42.329l25.404,-42.329l149.133,0c5.984,0 10.688,4.704 10.688,10.692c0,5.979 -4.704,10.683 -10.688,10.683l-131.792,0l0,170.975l14.246,0l0,-156.725l117.546,0c13.696,0 24.938,-11.241 24.938,-24.933c0,-13.692 -11.242,-24.938 -24.938,-24.938l-157.2,0l-17.337,28.917l-17.342,-28.917l-32.529,0Z" style="fill:#1375bc;fill-rule:nonzero;"/>
  <path d="M42.742,163.854c-3.925,0 -7.121,3.2 -7.121,7.121c0,3.929 3.196,7.125 7.121,7.125c3.925,0 7.125,-3.196 7.125,-7.125c0,-3.921 -3.2,-7.121 -7.125,-7.121Z" style="fill:#62b9e8;fill-rule:nonzero;"/>
  <path d="M42.742,192.35c-3.925,0 -7.121,3.2 -7.121,7.125c0,3.921 3.196,7.121 7.121,7.121c3.925,0 7.125,-3.2 7.125,-7.121c0,-3.925 -3.2,-7.125 -7.125,-7.125Z" style="fill:#62b9e8;fill-rule:nonzero;"/>
  <path d="M42.742,220.846c-3.925,0 -7.121,3.196 -7.121,7.125c0,3.925 3.196,7.125 7.121,7.125c3.925,0 7.125,-3.2 7.125,-7.125c0,-3.929 -3.2,-7.125 -7.125,-7.125Z" style="fill:#62b9e8;fill-rule:nonzero;"/>
  <path d="M42.742,249.342c-3.925,0 -7.121,3.196 -7.121,7.125c0,3.925 3.196,7.125 7.121,7.125c3.925,0 7.125,-3.2 7.125,-7.125c0,-3.929 -3.2,-7.125 -7.125,-7.125Z" style="fill:#62b9e8;fill-rule:nonzero;"/>
  <path d="M170.975,277.842c-3.925,0 -7.125,3.196 -7.125,7.121c0,3.925 3.2,7.125 7.125,7.125c3.925,0 7.125,-3.2 7.125,-7.125c0,-3.925 -3.2,-7.121 -7.125,-7.121Z" style="fill:#62b9e8;fill-rule:nonzero;"/>
  <path d="M199.475,277.842c-3.929,0 -7.125,3.196 -7.125,7.121c0,3.925 3.196,7.125 7.125,7.125c3.925,0 7.121,-3.2 7.121,-7.125c0,-3.925 -3.196,-7.121 -7.121,-7.121Z" style="fill:#62b9e8;fill-rule:nonzero;"/>
  <path d="M227.971,277.842c-3.925,0 -7.125,3.196 -7.125,7.121c0,3.925 3.2,7.125 7.125,7.125c3.921,0 7.125,-3.2 7.125,-7.125c0,-3.925 -3.204,-7.121 -7.125,-7.121Z" style="fill:#62b9e8;fill-rule:nonzero;"/>
  <path d="M256.467,277.842c-3.925,0 -7.125,3.196 -7.125,7.121c0,3.925 3.2,7.125 7.125,7.125c3.925,0 7.121,-3.2 7.121,-7.125c0,-3.925 -3.196,-7.121 -7.121,-7.121Z" style="fill:#62b9e8;fill-rule:nonzero;"/>
  <path d="M284.963,277.842c-3.925,0 -7.125,3.196 -7.125,7.121c0,3.925 3.2,7.125 7.125,7.125c3.925,0 7.125,-3.2 7.125,-7.125c0,-3.925 -3.2,-7.121 -7.125,-7.121Z" style="fill:#62b9e8;fill-rule:nonzero;"/>
  <path d="M313.459,277.842c-3.925,0 -7.125,3.196 -7.125,7.121c0,3.925 3.2,7.125 7.125,7.125c3.925,0 7.125,-3.2 7.125,-7.125c0,-3.925 -3.2,-7.121 -7.125,-7.121Z" style="fill:#62b9e8;fill-rule:nonzero;"/>
  <path d="M341.954,277.842c-3.925,0 -7.12,3.196 -7.12,7.121c0,3.925 3.195,7.125 7.12,7.125c3.93,0 7.125,-3.2 7.125,-7.125c0,-3.925 -3.195,-7.121 -7.125,-7.121Z" style="fill:#62b9e8;fill-rule:nonzero;"/>
  <path d="M370.454,277.842c-3.929,0 -7.125,3.196 -7.125,7.121c0,3.925 3.196,7.125 7.125,7.125c3.925,0 7.121,-3.2 7.121,-7.125c0,-3.925 -3.196,-7.121 -7.121,-7.121Z" style="fill:#62b9e8;fill-rule:nonzero;"/>
  <path d="M398.95,277.842c-3.925,0 -7.125,3.196 -7.125,7.121c0,3.925 3.2,7.125 7.125,7.125c3.925,0 7.125,-3.2 7.125,-7.125c0,-3.925 -3.2,-7.121 -7.125,-7.121Z" style="fill:#62b9e8;fill-rule:nonzero;"/>
  <path d="M101.5,385.034c0,16.391 -13.337,29.725 -29.729,29.725c-16.392,0 -29.725,-13.334 -29.725,-29.725c0,-1.034 0.062,-2.067 0.15,-3.038c1.533,-15.217 14.246,-26.687 29.575,-26.687c16.392,0 29.729,13.337 29.729,29.725Zm-29.729,-44.496c-24.538,0 -44.496,19.958 -44.496,44.496c0,24.533 19.958,44.496 44.496,44.496c24.533,0 44.496,-19.963 44.496,-44.496c0,-24.538 -19.963,-44.496 -44.496,-44.496Z" style="fill:#1375bc;fill-rule:nonzero;"/>
  <path d="M205.667,385.034c0,16.391 -13.338,29.725 -29.729,29.725c-16.392,0 -29.725,-13.334 -29.725,-29.725c0,-1.034 0.062,-2.067 0.15,-3.038c1.533,-15.217 14.245,-26.687 29.575,-26.687c16.391,0 29.729,13.337 29.729,29.725Zm-29.729,-44.496c-24.538,0 -44.496,19.958 -44.496,44.496c0,24.533 19.958,44.496 44.496,44.496c24.533,0 44.491,-19.963 44.491,-44.496c0,-24.538 -19.958,-44.496 -44.491,-44.496Z" style="fill:#1375bc;fill-rule:nonzero;"/>
  <path d="M309.834,385.034c0,16.391 -13.338,29.725 -29.73,29.725c-16.391,0 -29.725,-13.334 -29.725,-29.725c0,-1.034 0.063,-2.067 0.15,-3.038c1.534,-15.217 14.246,-26.687 29.575,-26.687c16.392,0 29.73,13.337 29.73,29.725Zm-29.73,-44.496c-24.537,0 -44.495,19.958 -44.495,44.496c0,24.533 19.958,44.496 44.495,44.496c24.534,0 44.492,-19.963 44.492,-44.496c0,-24.538 -19.958,-44.496 -44.492,-44.496Z" style="fill:#1375bc;fill-rule:nonzero;"/>
  <path d="M414,385.034c0,16.391 -13.333,29.725 -29.729,29.725c-16.387,0 -29.725,-13.334 -29.725,-29.725c0,-1.03 0.063,-2.063 0.158,-3.042c1.53,-15.213 14.242,-26.683 29.567,-26.683c16.396,0 29.729,13.337 29.729,29.725Zm-29.729,-44.496c-24.533,0 -44.496,19.958 -44.496,44.496c0,24.533 19.963,44.496 44.496,44.496c24.538,0 44.496,-19.963 44.496,-44.496c0,-24.538 -19.958,-44.496 -44.496,-44.496Z" style="fill:#1375bc;fill-rule:nonzero;"/>
</svg>