<svg height="500" viewBox="0 0 1442 500" width="1442" xmlns="http://www.w3.org/2000/svg" xmlns:xlink="http://www.w3.org/1999/xlink"><defs><path id="a" d="m.847 0h1440v500h-1440z"/><path id="b" d="m158.216 314h-150.432c-.433 0-.784-.448-.784-1s.35-1 .784-1h150.432c.433 0 .784.448.784 1s-.35 1-.784 1z"/><filter id="c" height="800%" width="109.2%" x="-4.6%" y="-250%"><feOffset dy="2" in="SourceAlpha" result="shadowOffsetOuter1"/><feGaussianBlur in="shadowOffsetOuter1" result="shadowBlurOuter1" stdDeviation="2"/><feComposite in="shadowBlurOuter1" in2="SourceAlpha" operator="out" result="shadowBlurOuter1"/><feColorMatrix in="shadowBlurOuter1" values="0 0 0 0 0 0 0 0 0 0 0 0 0 0 0 0 0 0 0.185115788 0"/></filter><mask id="d" fill="#fff"><use fill="#fff" fill-rule="evenodd" xlink:href="#a"/></mask></defs><g fill="none" fill-rule="evenodd" transform="translate(.153)"><use fill="#f4f6f8" xlink:href="#a"/><g fill-rule="nonzero" mask="url(#d)" opacity=".886"><g transform="translate(197.847 -337)"><g fill="#ced8ed"><circle cx="476.5" cy="285.5" opacity=".3" r="188.5"/><circle cx="111.5" cy="809.5" opacity=".3" r="111.5"/><ellipse cx="826" cy="809.5" opacity=".3" rx="228" ry="227.5"/><path d="m70.602 442-3.602-.729a539.002 539.002 0 0 1 2.412-10.271l3.588.793a539.201 539.201 0 0 0 -2.398 10.207zm1078.09-29a553.04 553.04 0 0 0 -5.664-19.558l3.272-1.01a555.906 555.906 0 0 1 5.7 19.68zm-1071.387-1.495-3.305-.898a555.486 555.486 0 0 1 5.777-19.735l3.27 1.02a550.36 550.36 0 0 0 -5.742 19.613zm1059.349-37.365a554.284 554.284 0 0 0 -7.089-19.061l3.188-1.25a552.923 552.923 0 0 1 7.132 19.18l-3.231 1.13zm-1047.14-1.628-3.23-1.141a556.824 556.824 0 0 1 7.226-19.242l3.185 1.259a552.03 552.03 0 0 0 -7.182 19.124zm1032.259-36.225a551.89 551.89 0 0 0 -8.48-18.496l3.087-1.482a555.517 555.517 0 0 1 8.534 18.612zm-1017.194-1.739-3.136-1.378a557.516 557.516 0 0 1 8.63-18.645l3.083 1.491a552.44 552.44 0 0 0 -8.577 18.532zm999.55-34.935a557.463 557.463 0 0 0 -9.829-17.831l2.97-1.703a559.316 559.316 0 0 1 9.89 17.941l-3.032 1.593zm-981.716-1.793-3.026-1.605a558.725 558.725 0 0 1 9.983-17.952l2.964 1.715a553.03 553.03 0 0 0 -9.921 17.842zm961.407-33.5a555.37 555.37 0 0 0 -11.117-17.07l2.837-1.918a560.074 560.074 0 0 1 11.187 17.176zm-940.917-1.803-2.899-1.822a559.822 559.822 0 0 1 11.274-17.163l2.83 1.927a557.776 557.776 0 0 0 -11.205 17.058zm918.057-31.921a550.605 550.605 0 0 0 -12.344-16.217l2.69-2.12a560.559 560.559 0 0 1 12.42 16.318zm-895.029-1.769-2.756-2.03a559.92 559.92 0 0 1 12.5-16.286l2.68 2.13a560.045 560.045 0 0 0 -12.424 16.186zm869.75-30.206a558.055 558.055 0 0 0 -13.504-15.278l2.526-2.31a559.69 559.69 0 0 1 13.587 15.372l-2.61 2.216zm-844.317-1.7-2.6-2.226a563.572 563.572 0 0 1 13.656-15.325l2.517 2.32a560.49 560.49 0 0 0 -13.573 15.23zm816.755-28.355a559.761 559.761 0 0 0 -14.592-14.256l2.352-2.488a565.14 565.14 0 0 1 14.679 14.344zm-789.062-1.599-2.43-2.41a560.933 560.933 0 0 1 14.737-14.282l2.34 2.497a558.057 558.057 0 0 0 -14.647 14.195zm759.362-26.372a559.305 559.305 0 0 0 -15.599-13.158l2.161-2.652a561.01 561.01 0 0 1 15.696 13.238zm-729.56-1.473-2.247-2.58a563.468 563.468 0 0 1 15.74-13.167l2.15 2.662a560.296 560.296 0 0 0 -15.642 13.085zm697.884-24.265c-5.4-4.07-10.96-8.101-16.527-11.984l1.96-2.804a559.24 559.24 0 0 1 16.631 12.058zm-666.132-1.323-2.052-2.739a564.266 564.266 0 0 1 16.655-11.977l1.95 2.812a557.224 557.224 0 0 0 -16.553 11.904zm632.645-22.034a558.152 558.152 0 0 0 -17.372-10.744l1.75-2.94a563.128 563.128 0 0 1 17.478 10.81zm-599.116-1.157-1.847-2.88a561.886 561.886 0 0 1 17.484-10.723l1.74 2.948a556.801 556.801 0 0 0 -17.377 10.655zm563.982-19.686a551.575 551.575 0 0 0 -18.122-9.44l1.529-3.06a556.76 556.76 0 0 1 18.235 9.498l-1.641 3.002zm-528.852-.977-1.629-3.01a561.609 561.609 0 0 1 18.218-9.404l1.517 3.066a556.305 556.305 0 0 0 -18.106 9.348zm492.265-17.23a551.171 551.171 0 0 0 -18.779-8.078l1.297-3.166a554.123 554.123 0 0 1 18.897 8.13zm-455.723-.79-1.403-3.119a559.879 559.879 0 0 1 18.854-8.034l1.286 3.17a558.006 558.006 0 0 0 -18.737 7.984zm417.872-14.667a555.818 555.818 0 0 0 -19.34-6.67l1.059-3.253a561.054 561.054 0 0 1 19.458 6.711zm-380.12-.603-1.167-3.215a555.273 555.273 0 0 1 19.384-6.618l1.048 3.256a553.132 553.132 0 0 0 -19.265 6.577zm341.201-12.015a554.629 554.629 0 0 0 -19.736-5.206l.813-3.322a558.026 558.026 0 0 1 19.86 5.238zm-302.388-.437-.927-3.293a560.903 560.903 0 0 1 19.874-5.18l.804 3.326a555.74 555.74 0 0 0 -19.751 5.147zm262.737-9.241a556.881 556.881 0 0 0 -20.067-3.733l.565-3.374a560.147 560.147 0 0 1 20.19 3.757zm-223.059-.322-.679-3.351a559.832 559.832 0 0 1 20.202-3.699l.555 3.375a555.348 555.348 0 0 0 -20.078 3.675zm182.8-6.405a561.388 561.388 0 0 0 -20.288-2.248l.315-3.406c6.774.626 13.641 1.387 20.413 2.262zm-142.52-.203-.432-3.393c6.75-.854 13.62-1.596 20.419-2.205l.306 3.407a559.105 559.105 0 0 0 -20.294 2.191zm101.874-3.552a563.292 563.292 0 0 0 -20.398-.765l.067-3.42c6.825.133 13.73.392 20.522.77l-.19 3.415zm-61.219-.088-.18-3.415a568 568 0 0 1 20.527-.712l.057 3.42c-6.778.111-13.642.35-20.404.706zm573.384 439.873a552.56 552.56 0 0 0 -2.374-10.218l3.612-.782c.83 3.416 1.626 6.843 2.388 10.283zm4.819 223-3.193-.68a618.802 618.802 0 0 0 1.798-10.32l3.202.615a603.222 603.222 0 0 1 -1.807 10.385zm-548.488 449c-3.722 0-7.436-.036-11.14-.109l.066-3.426c6.77.132 13.588.14 20.366.032l.055 3.426c-3.11.05-6.225.076-9.347.077zm29.823-.781-.18-3.423a559.46 559.46 0 0 0 20.309-1.44l.304 3.412a566.67 566.67 0 0 1 -20.433 1.45zm-61.434-.099a567.242 567.242 0 0 1 -20.428-1.512l.315-3.413c6.717.62 13.548 1.128 20.304 1.506l-.19 3.42zm102.235-3.545-.43-3.399a557.705 557.705 0 0 0 20.15-2.924l.554 3.382a567.92 567.92 0 0 1 -20.274 2.941zm-143.025-.227a561.013 561.013 0 0 1 -20.265-3.006l.566-3.38a557.785 557.785 0 0 0 20.14 2.987l-.44 3.399zm183.452-6.396-.678-3.359a552.005 552.005 0 0 0 19.88-4.398l.8 3.333a561.698 561.698 0 0 1 -20.002 4.424zm-223.857-.36a555.763 555.763 0 0 1 -19.99-4.49l.814-3.328a552.495 552.495 0 0 0 19.865 4.463l-.689 3.356zm263.688-9.227-.924-3.299a551.191 551.191 0 0 0 19.501-5.855l1.045 3.262a550.416 550.416 0 0 1 -19.622 5.892zm-303.488-.487a555.876 555.876 0 0 1 -19.655-5.972l1.055-3.258a553.079 553.079 0 0 0 19.535 5.935zm342.45-11.997-1.165-3.222a554.229 554.229 0 0 0 18.971-7.262l1.283 3.177a557.976 557.976 0 0 1 -19.088 7.307zm-381.52-.668a551.824 551.824 0 0 1 -19.15-7.409l1.295-3.172a549.035 549.035 0 0 0 19.03 7.363zm419.418-14.644-1.398-3.128a551.914 551.914 0 0 0 18.397-8.644l1.512 3.075a560.276 560.276 0 0 1 -18.51 8.697zm-457.425-.873a562.777 562.777 0 0 1 -18.54-8.798l1.525-3.068a555.035 555.035 0 0 0 18.427 8.744zm494.12-17.2-1.625-3.015a552.452 552.452 0 0 0 17.72-9.975l1.736 2.954a559.741 559.741 0 0 1 -17.83 10.035zm-530.86-1.075a557.983 557.983 0 0 1 -17.835-10.136l1.747-2.947a552.018 552.018 0 0 0 17.726 10.074l-1.638 3.01zm566.146-19.65-1.84-2.888a556.65 556.65 0 0 0 16.946-11.254l1.947 2.82a565.324 565.324 0 0 1 -17.052 11.321zm-601.426-1.269a561.71 561.71 0 0 1 -17.037-11.414l1.958-2.81a564.271 564.271 0 0 0 16.932 11.343zm635.11-21.993-2.047-2.747a557.737 557.737 0 0 0 16.088-12.464l2.147 2.67a561.33 561.33 0 0 1 -16.188 12.541zm-668.75-1.449a560.175 560.175 0 0 1 -16.15-12.625l2.157-2.66c5.26 4.27 10.66 8.49 16.051 12.549zm700.658-24.22-2.241-2.59a562.93 562.93 0 0 0 15.14-13.61l2.335 2.506a559.088 559.088 0 0 1 -15.234 13.694zm-732.486-1.613a563.996 563.996 0 0 1 -15.18-13.766l2.345-2.496a559.951 559.951 0 0 0 15.09 13.683l-2.255 2.58zm762.452-26.324-2.425-2.419a562.607 562.607 0 0 0 14.113-14.68l2.511 2.328a564.243 564.243 0 0 1 -14.2 14.771zm-792.3-1.751a565.719 565.719 0 0 1 -14.134-14.832l2.522-2.318a561.476 561.476 0 0 0 14.048 14.74zm820.154-28.305-2.596-2.235a560.863 560.863 0 0 0 13.01-15.68l2.677 2.141a567.715 567.715 0 0 1 -13.091 15.774zm-847.869-1.864a568.944 568.944 0 0 1 -13.01-15.818l2.684-2.128a564.501 564.501 0 0 0 12.932 15.721zm873.47-30.156-2.752-2.041a561.52 561.52 0 0 0 11.833-16.592l2.823 1.937a562.223 562.223 0 0 1 -11.904 16.696zm-898.902-1.944c-4.025-5.477-8-11.103-11.818-16.719l2.833-1.927a558.538 558.538 0 0 0 11.744 16.618l-2.76 2.028zm922.095-31.877-2.893-1.833a552.957 552.957 0 0 0 10.59-17.42l2.96 1.727a557.899 557.899 0 0 1 -10.657 17.526zm-945.109-1.98a560.174 560.174 0 0 1 -10.558-17.532l2.965-1.713a560.41 560.41 0 0 0 10.495 17.425zm965.77-33.46-3.02-1.615c3.203-5.99 6.325-12.1 9.283-18.16l3.078 1.503a556.349 556.349 0 0 1 -9.34 18.273zm-986.234-1.978a560.028 560.028 0 0 1 -9.24-18.251l3.084-1.492a556.75 556.75 0 0 0 9.182 18.14zm1004.237-34.9-3.13-1.388a555.859 555.859 0 0 0 7.921-18.806l3.181 1.271a558.182 558.182 0 0 1 -7.972 18.924zm-1022.038-1.93a556.978 556.978 0 0 1 -7.869-18.872l3.185-1.26a552.201 552.201 0 0 0 7.82 18.755zm1037.276-36.2-3.224-1.155a556.848 556.848 0 0 0 6.514-19.35l3.264 1.034a555.629 555.629 0 0 1 -6.554 19.47zm-1052.309-1.818a555.096 555.096 0 0 1 -6.47-19.447l3.27-1.02a552.281 552.281 0 0 0 6.43 19.326l-3.23 1.14zm1064.69-37.359-3.302-.913a547.527 547.527 0 0 0 5.05-19.73l3.335.79a555.373 555.373 0 0 1 -5.084 19.853zm-1076.907-1.758a559.982 559.982 0 0 1 -5.01-19.847l3.336-.776a554.748 554.748 0 0 0 4.979 19.723zm-9.226-39.623a612.959 612.959 0 0 1 -1.784-10.396l3.227-.604a587.12 587.12 0 0 0 1.773 10.331zm828.486 3-3.27-1.28a299.65 299.65 0 0 0 3.686-9.72l3.314 1.168a301.955 301.955 0 0 1 -3.73 9.832zm-280.42 190c-4.1 0-8.236-.084-12.296-.247l.139-3.418c6.735.273 13.62.32 20.377.132l.093 3.421c-2.762.075-5.533.113-8.313.112zm28.883-1.371-.324-3.404a297.853 297.853 0 0 0 20.205-2.628l.558 3.374a299.367 299.367 0 0 1 -20.44 2.658zm-61.733-.404a300.808 300.808 0 0 1 -20.4-2.93l.604-3.367a298.184 298.184 0 0 0 20.167 2.896l-.37 3.4zm102.378-6.31-.79-3.328c6.59-1.563 13.2-3.372 19.65-5.38l1.017 3.267a300.962 300.962 0 0 1 -19.877 5.44zm-142.93-.946a300.146 300.146 0 0 1 -19.812-5.707l1.062-3.254a296.586 296.586 0 0 0 19.584 5.644zm182.264-11.297-1.242-3.187a297.73 297.73 0 0 0 18.722-8.036l1.459 3.093a299.598 299.598 0 0 1 -18.94 8.13zm-221.443-1.475a298.738 298.738 0 0 1 -18.834-8.385l1.501-3.073a296.314 296.314 0 0 0 18.616 8.288zm258.715-16.066-1.668-2.987c5.913-3.3 11.781-6.843 17.443-10.53l1.868 2.865a302.778 302.778 0 0 1 -17.643 10.652zm-295.76-1.976a302.288 302.288 0 0 1 -17.5-10.887l1.907-2.84a299.092 299.092 0 0 0 17.302 10.764l-1.708 2.963zm330.279-20.51-2.063-2.728c5.41-4.08 10.74-8.392 15.843-12.814l2.243 2.585a304.871 304.871 0 0 1 -16.023 12.958zm-364.493-2.435a301.066 301.066 0 0 1 -15.851-13.173l2.278-2.552c5.04 4.49 10.312 8.87 15.67 13.023zm395.617-24.54-2.413-2.426c4.8-4.772 9.493-9.768 13.95-14.849l2.575 2.255a303.931 303.931 0 0 1 -14.112 15.02zm-426.382-2.85c-4.786-4.886-9.466-10-13.91-15.203l2.604-2.221a299.786 299.786 0 0 0 13.75 15.032zm453.547-28.114-2.72-2.074a298.626 298.626 0 0 0 11.798-16.61l2.857 1.885a301.014 301.014 0 0 1 -11.935 16.8zm-480.297-3.206a301.2 301.2 0 0 1 -11.707-16.956l2.883-1.844a297.93 297.93 0 0 0 11.573 16.762zm502.983-31.17-2.978-1.684a298.053 298.053 0 0 0 9.412-18.065l3.088 1.475a300.634 300.634 0 0 1 -9.522 18.274zm-525.205-3.5a300.623 300.623 0 0 1 -9.273-18.398l3.108-1.433a297.07 297.07 0 0 0 9.167 18.186l-3.002 1.643zm-17.618-36.83a302.27 302.27 0 0 1 -3.655-9.879l3.387-1.121a295.416 295.416 0 0 0 3.613 9.765zm5.455-218-3.11-1.302a310.924 310.924 0 0 1 3.934-9.698l3.066 1.412a308.784 308.784 0 0 0 -3.89 9.588zm12.917-28-3.027-1.603a300.938 300.938 0 0 1 10.387-18.117l2.909 1.81a298.69 298.69 0 0 0 -10.269 17.91zm522.976-4.997a297.897 297.897 0 0 0 -10.606-17.709l2.874-1.866a301.3 301.3 0 0 1 10.729 17.912l-2.997 1.662zm-501.224-30.065-2.777-2.009a303.585 303.585 0 0 1 12.785-16.504l2.633 2.196a299.765 299.765 0 0 0 -12.64 16.317zm478.809-4.575a301.048 301.048 0 0 0 -12.945-16.073l2.589-2.245a303.83 303.83 0 0 1 13.095 16.258l-2.74 2.06zm-452.434-27.147-2.475-2.372c4.786-5.01 9.81-9.917 14.93-14.585l2.306 2.537a300.259 300.259 0 0 0 -14.761 14.42zm425.467-4.066a300.853 300.853 0 0 0 -15.033-14.138l2.258-2.58a304.329 304.329 0 0 1 15.204 14.299zm-394.987-23.72-2.126-2.69a303.565 303.565 0 0 1 16.792-12.39l1.935 2.831a299.73 299.73 0 0 0 -16.601 12.247zm363.985-3.482a299.707 299.707 0 0 0 -16.832-11.93l1.88-2.867c5.79 3.81 11.519 7.869 17.026 12.066l-2.074 2.73zm-329.977-19.83-1.735-2.96c5.97-3.51 12.141-6.855 18.34-9.942l1.526 3.072a297.871 297.871 0 0 0 -18.131 9.83zm295.529-2.831a297.44 297.44 0 0 0 -18.318-9.482l1.465-3.1a301.3 301.3 0 0 1 18.53 9.59zm-258.628-15.541-1.308-3.172a299.01 299.01 0 0 1 19.543-7.292l1.082 3.255a295.58 295.58 0 0 0 -19.317 7.209zm221.378-2.12a295.39 295.39 0 0 0 -19.454-6.835l1.02-3.275a299.169 299.169 0 0 1 19.68 6.914zm-182.287-10.926-.853-3.322a299.419 299.419 0 0 1 20.368-4.493l.619 3.374a295.9 295.9 0 0 0 -20.134 4.441zm142.949-1.365a296.546 296.546 0 0 0 -20.216-4.053l.556-3.385a299.87 299.87 0 0 1 20.45 4.1zm-102.42-6.103-.384-3.41a304.396 304.396 0 0 1 20.79-1.626l.15 3.427c-6.86.301-13.776.842-20.556 1.609zm61.756-.585a300.535 300.535 0 0 0 -20.581-1.217l.084-3.429c6.936.17 13.94.585 20.817 1.23zm246.058 180.353a312.377 312.377 0 0 0 -3.977-9.526l2.975-1.474a319.375 319.375 0 0 1 4.025 9.635z"/></g><path d="m69.5 876c-11.322 0-20.5-9.178-20.5-20.5s9.178-20.5 20.5-20.5 20.5 9.178 20.5 20.5c-.013 11.316-9.184 20.487-20.5 20.5zm0-37.583c-9.435 0-17.083 7.648-17.083 17.083s7.648 17.083 17.083 17.083 17.083-7.648 17.083-17.083c-.01-9.43-7.652-17.073-17.083-17.083zm434-422.417c-11.322 0-20.5-9.178-20.5-20.5s9.178-20.5 20.5-20.5 20.5 9.178 20.5 20.5c-.013 11.316-9.184 20.487-20.5 20.5zm0-37.583c-9.435 0-17.083 7.648-17.083 17.083s7.648 17.083 17.083 17.083 17.083-7.648 17.083-17.083c-.01-9.43-7.652-17.073-17.083-17.083z" fill="#f0f0f0"/></g></g><g mask="url(#d)"><g transform="translate(396.847 61)"><path d="m611.858 0h-606.716a5.146 5.146 0 0 0 -5.142 5.148v313.704a5.146 5.146 0 0 0 5.142 5.148h606.716a5.16 5.16 0 0 0 4.134-2.1 4.51 4.51 0 0 0 .651-1.181 5.018 5.018 0 0 0 .357-1.867v-313.704a5.146 5.146 0 0 0 -5.142-5.148z" fill="#000" fill-rule="nonzero" opacity=".4"/><path d="m614.943 318.852a3.088 3.088 0 0 1 -3.085 3.089h-606.716a3.088 3.088 0 0 1 -3.085-3.09v-313.702a3.088 3.088 0 0 1 3.085-3.089h606.716a3.088 3.088 0 0 1 3.085 3.09v313.703z" fill="#f4f6f8" fill-rule="nonzero"/><path d="m578.849 408h-250.699a5.157 5.157 0 0 1 -5.151-5.152v-237.696a5.157 5.157 0 0 1 5.151-5.152h250.7a5.157 5.157 0 0 1 5.151 5.152v237.696a5.157 5.157 0 0 1 -5.151 5.152zm-250.699-245.94a3.092 3.092 0 0 0 -3.09 3.092v237.696a3.092 3.092 0 0 0 3.09 3.091h250.7a3.092 3.092 0 0 0 3.09-3.091v-237.696a3.092 3.092 0 0 0 -3.09-3.091h-250.7z" fill="#3f3d56" fill-rule="nonzero"/><path d="m328.151 162.06a3.092 3.092 0 0 0 -3.09 3.092v237.696a3.092 3.092 0 0 0 3.09 3.091h250.699a3.092 3.092 0 0 0 3.09-3.091v-237.696a3.092 3.092 0 0 0 -3.09-3.091h-250.7z" fill="#f4f6f8" fill-rule="nonzero"/><path d="m130.442 100a2.492 2.492 0 0 0 -2.442 2.5 2.492 2.492 0 0 0 2.442 2.5h117.04a2.491 2.491 0 0 0 2.518-2.46 2.493 2.493 0 0 0 -2.517-2.54zm-.028-23c-1.34.023-2.414 1.135-2.414 2.5s1.074 2.477 2.414 2.5h33.097c1.353.019 2.466-1.08 2.489-2.459.022-1.378-1.055-2.515-2.408-2.54h-33.178zm.028 46a2.492 2.492 0 0 0 -2.442 2.5 2.492 2.492 0 0 0 2.442 2.5h117.04a2.491 2.491 0 0 0 2.518-2.46 2.493 2.493 0 0 0 -2.517-2.54zm355.117-23a2.492 2.492 0 0 1 2.441 2.5 2.492 2.492 0 0 1 -2.441 2.5h-117.03a2.479 2.479 0 0 1 -2.175-1.213 2.515 2.515 0 0 1 -.04-2.503 2.48 2.48 0 0 1 2.216-1.284zm-.973-23c1.34.023 2.414 1.135 2.414 2.5s-1.074 2.477-2.414 2.5h-33.096c-1.353.019-2.466-1.08-2.489-2.459-.022-1.378 1.055-2.515 2.408-2.54h33.178zm.973 46a2.492 2.492 0 0 1 2.441 2.5 2.492 2.492 0 0 1 -2.441 2.5h-117.03a2.479 2.479 0 0 1 -2.175-1.213 2.515 2.515 0 0 1 -.04-2.503 2.48 2.48 0 0 1 2.216-1.284zm-198.232 96h-160.654c-3.132 0-5.67-1.808-5.673-4.037v-34.926c.003-2.229 2.541-4.037 5.673-4.037h160.654c3.132 0 5.67 1.808 5.673 4.037v34.925c-.003 2.229-2.541 4.035-5.673 4.038z" fill="#e6e6e6" fill-rule="nonzero"/><path d="m111.627 122.077c-.003.51-.924.922-2.06.923h-85.134c-1.136-.001-2.057-.414-2.06-.923v-38.154c.003-.51.924-.922 2.06-.923h85.134c1.136.001 2.057.414 2.06.923z" fill="#ccd7eb" fill-rule="nonzero"/><path d="m17 77h100v51h-100z" fill="#007df6" opacity=".3"/><path d="m595.627 143.154c-.003 1.018-.924 1.843-2.06 1.846h-85.134c-1.136-.003-2.057-.828-2.06-1.846v-76.308c.003-1.018.924-1.843 2.06-1.846h85.134c1.136.003 2.057.828 2.06 1.846z" fill="#ccd7eb" fill-rule="nonzero"/><path d="m501 59h100v90h-100z" fill="#007df6" opacity=".3"/><g fill-rule="nonzero"><path d="m2 26h615v1h-615z" fill="#000" opacity=".4"/><circle cx="17" cy="15" fill="#000" opacity=".4" r="6"/><circle cx="37" cy="15" fill="#000" opacity=".4" r="6"/><circle cx="57" cy="15" fill="#000" opacity=".4" r="6"/><path d="m263.327 197h-160.654c-3.132 0-5.67-1.808-5.673-4.037v-34.926c.003-2.229 2.541-4.037 5.673-4.037h160.654c3.132 0 5.67 1.808 5.673 4.037v34.925c-.003 2.229-2.541 4.035-5.673 4.038zm-160.654-41.387c-1.879 0-3.402 1.086-3.404 2.423v34.925c0 1.337 1.525 2.42 3.404 2.422h160.654c1.879 0 3.402-1.085 3.404-2.422v-34.924c0-1.337-1.525-2.42-3.404-2.422z" fill="#000" opacity=".45"/><circle cx="126" cy="175" fill="#f37a78" r="13"/><path d="m154.441 166a2.492 2.492 0 0 0 -2.441 2.5 2.492 2.492 0 0 0 2.441 2.5h93.042a2.491 2.491 0 0 0 2.517-2.46 2.492 2.492 0 0 0 -2.517-2.54zm0 14a2.492 2.492 0 0 0 -2.441 2.5 2.492 2.492 0 0 0 2.441 2.5h93.042a2.491 2.491 0 0 0 2.517-2.46 2.492 2.492 0 0 0 -2.517-2.54z" fill="#3f3d56"/><path d="m328.092 162a3.1 3.1 0 0 0 -3.092 3.102v64.796a3.1 3.1 0 0 0 3.092 3.102h250.816a3.1 3.1 0 0 0 3.092-3.102v-64.796a3.1 3.1 0 0 0 -3.092-3.102z" fill="#f37a78"/><path d="m510.715 259h-74.962v1.388h74.962c7.686 0 13.916 6.318 13.916 14.112s-6.23 14.112-13.916 14.112h-113.43c-7.686 0-13.916-6.318-13.916-14.112s6.23-14.112 13.916-14.112h4.239v-1.388h-4.24c-8.44 0-15.284 6.94-15.284 15.5s6.843 15.5 15.285 15.5h113.43c8.442 0 15.285-6.94 15.285-15.5s-6.843-15.5-15.285-15.5zm0 47h-74.962v1.388h74.962c7.686 0 13.916 6.318 13.916 14.112s-6.23 14.112-13.916 14.112h-113.43c-7.686 0-13.916-6.318-13.916-14.112s6.23-14.112 13.916-14.112h4.239v-1.388h-4.24c-8.44 0-15.284 6.94-15.284 15.5s6.843 15.5 15.285 15.5h113.43c8.442 0 15.285-6.94 15.285-15.5s-6.843-15.5-15.285-15.5zm0 47h-74.962v1.388h74.962c7.686 0 13.916 6.318 13.916 14.112s-6.23 14.112-13.916 14.112h-113.43c-7.686 0-13.916-6.318-13.916-14.112s6.23-14.112 13.916-14.112h4.239v-1.388h-4.24c-8.44 0-15.284 6.94-15.284 15.5s6.843 15.5 15.285 15.5h113.43c8.442 0 15.285-6.94 15.285-15.5s-6.843-15.5-15.285-15.5z" fill="#9eb1db" opacity=".45"/><path d="m410.005 255c-2.223.036-4.005 1.817-4.005 4 0 2.184 1.782 3.964 4.005 4h17.86c2.248.033 4.098-1.727 4.134-3.934.037-2.207-1.753-4.027-4-4.065h-17.994zm0 48c-2.223.036-4.005 1.817-4.005 4 0 2.184 1.782 3.964 4.005 4h17.86c2.248.033 4.098-1.727 4.134-3.934.037-2.207-1.753-4.027-4-4.065h-17.994zm-.002 47c-2.221.036-4.003 1.817-4.003 4s1.782 3.963 4.003 4h17.855a4.087 4.087 0 0 0 3.562-1.942 3.94 3.94 0 0 0 .067-4.002 4.081 4.081 0 0 0 -3.629-2.055h-17.855z" fill="#3f3d56"/><path d="m402.997 270c-2.218.036-3.997 1.817-3.997 4 0 2.184 1.779 3.964 3.997 4h101.877c2.242.033 4.089-1.727 4.126-3.934.036-2.207-1.75-4.027-3.993-4.065h-102.01zm0 48c-2.218.036-3.997 1.817-3.997 4 0 2.184 1.779 3.964 3.997 4h101.877c2.242.033 4.089-1.727 4.126-3.934.036-2.207-1.75-4.027-3.993-4.065h-102.01zm0 47c-2.218.036-3.997 1.817-3.997 4 0 2.184 1.779 3.964 3.997 4h101.877c2.242.033 4.089-1.727 4.126-3.934.036-2.207-1.75-4.027-3.993-4.065h-102.01z" fill="#9eb1db" opacity=".45"/><path d="m377 196.5c0 9.113-7.387 16.5-16.5 16.5s-16.5-7.387-16.5-16.5 7.387-16.5 16.5-16.5a16.43 16.43 0 0 1 16.5 16.5zm13.997-12.5c-2.218.036-3.997 1.817-3.997 4s1.779 3.963 3.997 4h101.868a4.078 4.078 0 0 0 3.556-1.942 3.946 3.946 0 0 0 .067-4.002 4.073 4.073 0 0 0 -3.623-2.055h-101.868zm.009 18c-2.223.036-4.006 1.817-4.006 4s1.783 3.963 4.006 4h167.85a4.09 4.09 0 0 0 3.564-1.942 3.938 3.938 0 0 0 .067-4.002 4.084 4.084 0 0 0 -3.631-2.055h-167.85z" fill="#fff"/><path d="m451.432 160.72c-1.577-6.887 2.013-14.44 8.057-17.963 2.776-1.618 6.26-2.462 9.3-1.018a3.762 3.762 0 0 1 2.337 2.75 3.134 3.134 0 0 1 -1.954 3.165 4.287 4.287 0 0 1 -3.986-.004 5.018 5.018 0 0 1 -2.205-3.98c-.296-3.93 2.716-6.806 6.191-8.035 4.452-1.575 9.251-.838 13.86-.732 4.417.093 8.831-.29 13.166-1.143a62.628 62.628 0 0 0 26.444-12.073c1.041-.811-.42-2.255-1.45-1.452a60.549 60.549 0 0 1 -26.673 11.755 67.676 67.676 0 0 1 -15.082.708c-4.812-.233-10.033-.24-14.16 2.625-3.361 2.331-5.359 6.544-3.907 10.573a6.409 6.409 0 0 0 3.72 3.96 6.565 6.565 0 0 0 5.032-.387 5.07 5.07 0 0 0 1.411-8.338c-2.66-2.478-6.94-2.646-10.208-1.476-7.528 2.696-12.766 10.71-12.296 18.69.06.983.202 1.96.423 2.92.295 1.287 2.275.742 1.98-.546zm-280.864-7c1.577-6.887-2.013-14.44-8.057-17.963-2.776-1.618-6.26-2.462-9.3-1.018a3.762 3.762 0 0 0 -2.337 2.75 3.134 3.134 0 0 0 1.954 3.165 4.287 4.287 0 0 0 3.986-.004 5.018 5.018 0 0 0 2.205-3.98c.296-3.93-2.716-6.806-6.191-8.035-4.452-1.575-9.251-.838-13.86-.732-4.417.093-8.831-.29-13.166-1.143a62.628 62.628 0 0 1 -26.444-12.073c-1.041-.811.42-2.255 1.45-1.452a60.549 60.549 0 0 0 26.673 11.755 67.676 67.676 0 0 0 15.082.708c4.812-.233 10.033-.24 14.16 2.625 3.361 2.331 5.359 6.544 3.907 10.573a6.409 6.409 0 0 1 -3.72 3.96 6.565 6.565 0 0 1 -5.032-.387 5.07 5.07 0 0 1 -1.411-8.338c2.66-2.478 6.94-2.646 10.208-1.476 7.528 2.696 12.766 10.71 12.296 18.69a17.8 17.8 0 0 1 -.423 2.92c-.295 1.287-2.275.742-1.98-.546z" fill="#3f3d56"/></g></g></g><g fill-rule="nonzero" mask="url(#d)"><g transform="translate(990.847 155)"><path d="m74.998 303h-9.486l-4.512-37h14z" fill="#ffb8b8"/><path d="m77 312-31-.001v-.378c0-3.082 1.271-6.038 3.534-8.217 2.263-2.18 5.332-3.404 8.532-3.404h18.934z" fill="#2f2e41"/><path d="m113.998 303h-9.486l-4.512-37h14z" fill="#ffb8b8"/><path d="m116 312-31-.001v-.378c0-3.082 1.271-6.038 3.534-8.217 2.263-2.18 5.332-3.404 8.532-3.404h18.934zm-5.108-25.153-8.928-2.696a3.513 3.513 0 0 1 -2.49-2.991l-8.324-78.296a.376.376 0 0 0 -.376-.35.368.368 0 0 0 -.401.32l-13.943 75.856a3.51 3.51 0 0 1 -1.502 2.28 3.56 3.56 0 0 1 -2.693.529l-11.411-2.333a3.529 3.529 0 0 1 -2.817-3.677l8.482-124.33 57.511-6.159-8.546 138.7c-.115 1.851-1.658 3.295-3.526 3.3-.351 0-.7-.052-1.036-.153z" fill="#2f2e41"/><circle cx="111" cy="24" fill="#ffb8b8" r="19"/><path d="m67 152.288 12.356-78.268c1.329-8.419 6.192-15.856 13.35-20.416a29.345 29.345 0 0 1 24.053-3.413c14.565 4.238 23.54 18.922 20.726 33.911l-12.927 69.898z" fill="#007df6"/><path d="m116.54 165.668c1.98-1.277 3.278-3.346 3.547-5.65a7.724 7.724 0 0 0 -2.154-6.284l13.067-24.734-14.716 1.535-10.152 23.252a7.744 7.744 0 0 0 -.195 10.46c2.656 3.03 7.211 3.641 10.604 1.421z" fill="#ffb8b8"/><path d="m119.013 149.965a3.582 3.582 0 0 1 -1.917-.896l-4.956-4.512a3.479 3.479 0 0 1 -.862-3.935l9.905-23.136-1.405-45.715c.55-3.998 3.223-7.403 7.012-8.93a11.592 11.592 0 0 1 11.354 1.526c3.236 2.472 4.886 6.458 4.33 10.455l2.402 28.737c.73 8.721-1.78 17.408-7.061 24.443l-15.447 20.578a3.572 3.572 0 0 1 -3.355 1.385z" fill="#007df6"/><path d="m.144 13.445a7.905 7.905 0 0 0 3.899 5.443 7.956 7.956 0 0 0 6.69.516l18.021 21.596 4.246-13.968-17.762-18.367c-1.67-3.665-5.828-5.51-9.678-4.29-3.85 1.218-6.177 5.115-5.416 9.069z" fill="#ffb8b8"/><path d="m14.5 22.467a3.523 3.523 0 0 1 1.568-1.4l6.08-2.756a3.517 3.517 0 0 1 3.967.756l17.557 18.133 42.778 16.661a11.372 11.372 0 0 1 5.55 9.913 11.37 11.37 0 0 1 -5.787 9.776 11.288 11.288 0 0 1 -11.33-.15l-27.476-9.087a36.247 36.247 0 0 1 -19.86-16.047l-13.058-22.19a3.542 3.542 0 0 1 .013-3.61z" fill="#007df6"/><path d="m126 90-.772 24.996-14.228 25.004 11.88-27.865z" fill="#000" opacity=".1"/><path d="m108.717 27.368a5.028 5.028 0 0 1 -5.504-3.672 7.634 7.634 0 0 0 -5.442-5.68c-3.528-.804-7.839.852-10.423-1.813a5.174 5.174 0 0 1 -1.234-4.563c.476-2.59 2.334-4.547 4.356-6.112a26.71 26.71 0 0 1 14.77-5.506 53.12 53.12 0 0 1 8.315.413 36.89 36.89 0 0 1 8.506 1.55 19.987 19.987 0 0 1 12.528 14.587 23.014 23.014 0 0 1 -4.743 18.843 24.813 24.813 0 0 1 -9.52 7.23c-.886.417-1.9.469-2.824.143-2.315-.918-1.937-3.779-.881-5.687 1.13-2.041 2.868-4.018 1.96-6.503a4.926 4.926 0 0 0 -2.449-2.629c-2.301-1.17-4.876-.894-7.35-.609z" fill="#2f2e41"/><g opacity=".5"><use fill="#000" filter="url(#c)" xlink:href="#b"/><use fill="#453b69" fill-opacity=".6" xlink:href="#b"/></g></g></g></g></svg>