<?xml version="1.0" encoding="UTF-8"?>
<svg viewBox="0 0 142 33" version="1.1" xmlns="http://www.w3.org/2000/svg" xmlns:xlink="http://www.w3.org/1999/xlink">
    <title>Adfinis_blau</title>
    <g id="Landing-Page" stroke="none" stroke-width="1" fill="none" fill-rule="evenodd">
        <g id="DT-/-Embroider-Initiative" transform="translate(-441, -2639)" fill="#000000" fill-rule="nonzero">
            <g id="Adfinis_blau" transform="translate(441, 2639)">
                <path d="M65.1087681,17.5632764 L64.6946934,16.5288238 C64.1669513,15.2141401 63.558018,13.7633443 62.8435363,12.0915664 C62.2362269,10.7208366 61.6337889,9.40295031 60.9469122,7.9441479 L57.6343153,7.9441479 C56.9847864,9.30687112 56.3563673,10.7000194 55.7474341,12.0915664 C55.1742249,13.3838315 54.6302445,14.6969138 53.886534,16.5288238 C53.1428235,18.3607337 52.5436332,19.9428377 51.9834146,21.4672943 C51.4345628,22.9084821 50.8467392,24.509802 50.137129,26.5194585 L53.7468853,26.5194585 C53.9368725,25.9445846 54.133355,25.3985345 54.3298374,24.8909161 C54.5246961,24.359278 54.7179309,23.7924107 54.9046704,23.243158 L55.127134,22.5930221 L63.3274353,22.5930221 L63.3452973,22.6442644 C63.6148518,23.4337151 63.8844062,24.1863354 64.1474654,24.8861122 C64.3260858,25.3761161 64.5371827,25.9509899 64.7369128,26.5242624 L68.4846941,26.5242624 C67.8351652,24.7163723 67.1758935,22.9212927 66.6254178,21.4720982 C66.1122901,20.104571 65.60241,18.8123059 65.1087681,17.5632764 Z M56.0153647,19.8195361 L56.0527126,19.7170516 C56.6356647,18.1157318 57.189388,16.6441188 57.7496066,15.2061335 C58.2286341,13.9651106 58.7027902,12.8041537 59.160708,11.7360734 L59.23378,11.5759414 L59.3052281,11.7360734 C59.6770834,12.6135967 60.1382488,13.7377232 60.7147056,15.1741071 C61.1758711,16.3686918 61.7848044,17.9652077 62.4132235,19.7170516 L62.4505714,19.8195361 L56.0153647,19.8195361 Z M79.7962383,12.5591518 L79.6809469,12.499903 C79.2289383,12.2721606 78.7572465,12.084598 78.2714694,11.939441 C77.6596718,11.7612771 77.0240571,11.6754353 76.386212,11.6848311 C75.4280552,11.6675911 74.4772971,11.853251 73.5981096,12.2292799 C72.803896,12.5847812 72.1028636,13.1150472 71.5488462,13.7793575 C70.9633176,14.4932986 70.5282846,15.3153757 70.2692745,16.1973505 C69.965936,17.1756969 69.81804,18.1944618 69.8308425,19.2174398 C69.8154869,20.2544321 69.9921284,21.2854853 70.3520894,22.2599476 C70.6731596,23.1546058 71.1809862,23.9728891 71.842758,24.6619274 C72.5052102,25.3317505 73.3075376,25.8513913 74.1940523,26.1847826 C75.1947281,26.5536808 76.2566011,26.7345437 77.3247812,26.7180221 C78.4125736,26.721015 79.4987762,26.6358585 80.5724252,26.4634123 C81.4208266,26.3342145 82.2599129,26.1512857 83.0844779,25.9157609 L83.0844779,6.79440023 L79.7962383,7.19953416 L79.7962383,12.5591518 Z M79.7962383,23.6675078 L79.7361569,23.6819196 C79.418772,23.7517834 79.0978997,23.8052337 78.7748542,23.8420516 C78.3037232,23.8948452 77.8297816,23.9194438 77.3556338,23.9157123 C76.0565762,23.9157123 75.0400636,23.4721467 74.3077198,22.5994274 C73.5753761,21.7267081 73.2067685,20.6618304 73.2067685,19.1421778 C73.2067685,17.6817741 73.5039279,16.6473214 74.0901277,15.789014 C74.6763274,14.9307065 75.6246395,14.4822926 76.8993398,14.4822926 C77.4563347,14.4799672 78.0095495,14.5726076 78.5345286,14.7561627 C78.9673362,14.9006526 79.3798267,15.0986591 79.762138,15.3454484 L79.7962383,15.3678668 L79.7962383,23.6675078 Z M99.4168799,12.5911782 L102.84964,12.5911782 L102.84964,26.5194585 L99.4168799,26.5194585 Z M118.802067,13.6208269 C118.269387,12.9875025 117.581263,12.4990951 116.803142,12.2020575 C115.968498,11.8625776 114.91139,11.6912364 113.661047,11.6912364 C110.140601,11.6912364 107.92246,12.6792508 107.367113,13.0587636 L107.367113,26.5194585 L110.798248,26.5194585 L110.798248,15.1500873 L110.846963,15.1292702 C110.87944,15.1180609 110.916787,15.0972438 110.965502,15.0748253 C111.270781,14.9146933 111.905695,14.5944293 113.401235,14.5944293 C113.940598,14.5812001 114.477674,14.6681142 114.984462,14.8506405 C115.410431,15.0126782 115.775528,15.300038 116.030203,15.6737189 C116.307774,16.1132439 116.492777,16.6033769 116.574183,17.1149068 C116.691944,17.8154775 116.746285,18.5249887 116.736566,19.2350543 L116.736566,26.5098505 L120.166078,26.5098505 L120.166078,18.6858016 C120.17436,17.7251352 120.071392,16.7666771 119.859175,15.829047 C119.679668,15.0239509 119.318333,14.269149 118.802067,13.6208269 Z M124.386391,12.5911782 L127.817527,12.5911782 L127.817527,26.5194585 L124.386391,26.5194585 Z M99.5029424,7.00737578 L102.763577,7.00737578 L102.763577,10.0658967 L99.5029424,10.0658967 Z M124.472454,7.00737578 L127.733088,7.00737578 L127.733088,10.0658967 L124.472454,10.0658967 Z M141.754792,20.9420613 C141.58962,20.4858656 141.323343,20.0717448 140.975357,19.7298622 C140.575152,19.3425289 140.116706,19.0184478 139.616218,18.7690703 C138.962837,18.4425617 138.290489,18.154357 137.602679,17.9059589 C137.189242,17.7663321 136.7833,17.6059916 136.386436,17.4255629 C136.100404,17.2972866 135.828363,17.1406164 135.574525,16.9579775 C135.38954,16.8222019 135.240757,16.6441579 135.140965,16.4391498 C135.052988,16.2369667 135.009805,16.0185883 135.014306,15.7986219 C134.993139,15.3437102 135.248507,14.9200081 135.663835,14.7209336 C136.18195,14.4707973 136.755105,14.351921 137.3315,14.3750485 C138.002133,14.3658355 138.671503,14.4351777 139.325554,14.5816188 C139.798994,14.6878553 140.261967,14.8352183 140.70905,15.0219818 L141.303369,12.3846079 C139.969574,11.9431987 138.572756,11.7150634 137.165871,11.7088509 C135.504701,11.7088509 134.173167,12.0899651 133.208616,12.8425854 C132.244066,13.5952057 131.758543,14.6408676 131.758543,15.939538 C131.744911,16.5241286 131.855539,17.1050584 132.083308,17.6449437 C132.284009,18.0947324 132.578327,18.4979044 132.947181,18.8283191 C133.337336,19.1738314 133.774594,19.4638124 134.246239,19.6898292 C134.788006,19.9524184 135.344219,20.1849718 135.91228,20.3864033 C136.909307,20.7547069 137.630284,21.0973894 138.057349,21.4048428 C138.469509,21.6689323 138.717735,22.1211241 138.716621,22.6058327 C138.716621,23.1326669 138.513643,23.4929639 138.096321,23.7107434 C137.678998,23.9285229 137.034341,24.0310074 136.147734,24.0310074 C135.349697,24.0406063 134.553801,23.9474774 133.780202,23.753979 C133.183803,23.6015032 132.597562,23.4127193 132.02485,23.1887131 L131.458136,25.9109569 C131.983566,26.1049412 132.519104,26.2711804 133.062472,26.4089674 C133.832164,26.617139 134.861667,26.7292314 136.120129,26.7292314 C138.000515,26.7292314 139.466826,26.3753397 140.478468,25.6771642 C141.490109,24.9789887 141.998365,23.9413335 141.998365,22.5850155 C142.012894,22.0276668 141.930511,21.4719815 141.754792,20.9420613 L141.754792,20.9420613 Z M93.822813,6.27877523 C91.69723,6.27877523 90.1026367,6.82962927 89.0747574,7.93133734 C88.046878,9.03304542 87.5305026,10.587927 87.5305026,12.5639557 L87.5305026,26.5194585 L90.9551433,26.5194585 L90.9551433,15.9219235 L95.3394628,15.9219235 L95.3394628,13.0971953 L90.9551433,13.0971953 L90.9551433,12.6167993 C90.9551433,11.6047651 91.1889737,10.7624709 91.6371485,10.1219429 C92.0853234,9.48141498 92.9362062,9.14834045 94.1475774,9.14834045 C94.5744535,9.14519063 95.0005221,9.18543626 95.41903,9.26843944 C95.4385159,9.27964868 95.4596256,9.27964868 95.4807353,9.2892566 L95.7340515,6.44210986 L95.7096942,6.44210986 C95.0882144,6.32303949 94.4558242,6.26829772 93.822813,6.27877523 Z M19.3234821,0 L38.6437166,33 L33.1227217,33 L13.8024872,0 L19.3234821,0 Z M23.4642283,21.215887 L30.3622243,33 L24.8428532,33 L20.7037309,25.9285714 L23.4642283,21.215887 Z M15.182736,21.2142857 L17.9432334,25.9285714 L13.8008634,33 L8.28311617,33 L15.182736,21.2142857 Z M15.1794883,7.07142857 L17.9432334,11.7873156 L5.5209949,33 L0,33 L15.1794883,7.07142857 Z" id="Combined-Shape"></path>
            </g>
        </g>
    </g>
</svg>