<svg width="278" height="67" viewBox="0 0 278 67" fill="none" xmlns="http://www.w3.org/2000/svg">
<path d="M84.96 41.21H79.75L86.01 23.21H93.34L99.6 41.21H94.04L91.19 32.29L89.77 27.59H89.39L87.92 32.29L84.96 41.21ZM95.92 37.74H83.4V33.34H95.92V37.74Z" fill="black"/>
<path d="M106.89 41.21H101.83V23.21H106.89V41.21ZM115.91 41.21H103.23V36.67H115.91V41.21Z" fill="black"/>
<path d="M123.86 41.21H118.77V23.21H123.81L123.86 41.21ZM133.35 27.75H120.19V23.21H133.35V27.75ZM132.96 34.44H120.19V29.93H132.96V34.44ZM133.35 41.21H120.19V36.67H133.35V41.21Z" fill="black"/>
<path d="M160.6 41.21H155.54V23.21H160.6V41.21ZM169.99 34.44H156.9V29.9H169.99V34.44ZM172.45 41.21H167.3V23.21H172.36L172.45 41.21Z" fill="black"/>
<path d="M186.35 41.21H181.14L187.4 23.21H194.74L201 41.21H195.47L192.62 32.29L191.2 27.59H190.78L189.29 32.29L186.35 41.21ZM197.39 37.74H184.86V33.34H197.38V37.74H197.39Z" fill="black"/>
<path d="M208.26 41.21H203.3V23.21H208.34L208.26 41.21ZM217.3 41.21H204.62V36.67H217.3V41.21Z" fill="black"/>
<path d="M243.88 41.21H238.82V23.21H243.88V41.21ZM253.27 34.44H240.18V29.9H253.27V34.44ZM255.71 41.21H250.67V23.21H255.71V41.21Z" fill="black"/>
<path d="M263.14 41.21H257.93L264.19 23.21H271.52L277.78 41.21H272.18L269.33 32.29L267.91 27.59H267.53L266.04 32.29L263.14 41.21ZM274.18 37.74H261.66V33.34H274.18V37.74Z" fill="black"/>
<path d="M3.8 11.8999L0 21.1999C3.3 22.4999 5.9 25.0999 7.2 28.3999C9.9 35.0999 6.7 42.6999 0.1 45.3999L3.9 54.6999C9.7 52.2999 14.2 47.7999 16.5 41.9999C21.3 30.0999 15.6 16.6999 3.8 11.8999Z" fill="black"/>
<path d="M13.6001 58.2999L19.6001 66.3999C22.5001 64.2999 25.1001 61.6999 27.3001 58.8999L19.5001 52.7C17.8001 54.8 15.8001 56.6999 13.6001 58.2999Z" fill="black"/>
<path d="M36.4001 33.3C36.4001 20.3 30.1001 8.00005 19.6001 0.300049L13.6001 8.40005C21.6001 14.2001 26.3001 23.5 26.4001 33.4C26.4001 46.4 32.6001 58.7 43.1001 66.4L49.0001 58.3C41.1001 52.4 36.4001 43.2001 36.4001 33.3Z" fill="black"/>
<path d="M49.3 8.2L43.5 0C40.4 2.2 37.7 4.8 35.3 7.8L43.1 14C44.9 11.8 46.9 9.9 49.3 8.2Z" fill="black"/>
<path d="M56.1001 38.9C53.0001 32.2 56.0001 24.2 62.7001 21.1L58.5001 12C53.3001 14.4 49.2001 18.6 46.9001 23.8C41.6001 35.6 46.9001 49.5 58.8001 54.7L62.9001 45.6C59.9001 44.3 57.5001 41.9 56.1001 38.9Z" fill="black"/>
<path d="M141.97 41.21H136.93V23.21H141.97V41.21Z" fill="black"/>
<path d="M145.72 36.44H138.9V31.94H145.53C146.14 32 146.75 31.86 147.28 31.55C147.89 30.49 147.89 29.19 147.28 28.13C146.75 27.82 146.14 27.69 145.53 27.75H138.9V23.22H145.72C147.01 23.19 148.29 23.46 149.46 24C150.48 24.51 151.33 25.3 151.91 26.28C153.07 28.53 153.07 31.19 151.91 33.44C151.33 34.41 150.48 35.19 149.46 35.68C148.28 36.2 147.01 36.44 145.72 36.38V36.44Z" fill="black"/>
<path d="M225.22 41.21H220.16V23.21H225.22V41.21Z" fill="black"/>
<path d="M228.69 36.44H221.87V31.94H228.5C229.11 32 229.72 31.86 230.25 31.55C230.86 30.49 230.86 29.19 230.25 28.13C229.72 27.82 229.11 27.69 228.5 27.75H221.87V23.22H228.69C229.98 23.19 231.26 23.46 232.43 24C233.45 24.51 234.3 25.3 234.88 26.28C236.04 28.53 236.04 31.19 234.88 33.44C234.3 34.41 233.45 35.19 232.43 35.68C231.25 36.2 229.98 36.44 228.69 36.38V36.44Z" fill="black"/>
</svg>
