<?xml version="1.0" encoding="UTF-8" standalone="no"?>
<!DOCTYPE svg PUBLIC "-//W3C//DTD SVG 1.1//EN" "http://www.w3.org/Graphics/SVG/1.1/DTD/svg11.dtd">
<svg viewBox="0 0 105 32" version="1.1" xmlns="http://www.w3.org/2000/svg" xmlns:xlink="http://www.w3.org/1999/xlink" xml:space="preserve" xmlns:serif="http://www.serif.com/" style="fill-rule:evenodd;clip-rule:evenodd;stroke-linejoin:round;stroke-miterlimit:2;">
    <g transform="matrix(1,0,0,1,-0.000251086,-7.41386)">
        <g transform="matrix(1.341,0,0,1.341,-216.567,-11.6761)">
            <g>
                <g>
                    <g id="EuroRust">
                        <g id="Group-6">
                            <path id="Fill-1" d="M208.391,14.854L213.604,14.854L213.604,16.902C215.342,14.788 217.408,14.268 219.114,14.268C221.442,14.268 223.639,15.374 224.885,17.52C226.754,14.886 229.541,14.268 231.509,14.268C234.231,14.268 236.592,15.536 237.871,17.747C238.297,18.495 239.051,20.121 239.051,23.34L239.051,37.028L233.837,37.028L233.837,24.835C233.837,22.365 233.575,21.357 233.346,20.901C233.018,20.056 232.231,18.951 230.361,18.951C229.082,18.951 227.967,19.633 227.279,20.576C226.36,21.844 226.262,23.73 226.262,25.615L226.262,37.028L221.048,37.028L221.048,24.835C221.048,22.365 220.786,21.357 220.557,20.901C220.228,20.056 219.441,18.951 217.572,18.951C216.293,18.951 215.178,19.633 214.49,20.576C213.571,21.844 213.473,23.73 213.473,25.615L213.473,37.028L208.391,37.028L208.391,14.854ZM190.354,14.854L195.602,14.854L195.602,16.837C196.192,16.154 197.044,15.406 197.766,14.984C198.782,14.398 199.766,14.236 200.947,14.236C202.225,14.236 203.603,14.431 205.046,15.276L202.914,19.959C201.733,19.211 200.782,19.178 200.258,19.178C199.143,19.178 198.028,19.341 197.012,20.381C195.568,21.909 195.568,24.023 195.568,25.485L195.568,36.963L190.354,36.963L190.354,14.854ZM166.809,26.006C166.809,29.842 169.236,33.061 173.007,33.061C176.287,33.061 179.336,30.688 179.336,26.071C179.336,21.227 176.319,18.918 173.007,18.918C169.236,18.918 166.809,22.072 166.809,26.006ZM179.009,14.854L184.223,14.854L184.223,36.996L179.009,36.996L179.009,34.687C176.713,37.321 173.925,37.679 172.318,37.679C165.432,37.679 161.497,31.988 161.497,25.908C161.497,18.691 166.482,14.268 172.384,14.268C174.024,14.268 176.91,14.691 179.009,17.422L179.009,14.854Z"/>
                        </g>
                    </g>
                </g>
            </g>
        </g>
    </g>
</svg>
