<?xml version="1.0" encoding="UTF-8" standalone="no"?>
<!DOCTYPE svg PUBLIC "-//W3C//DTD SVG 1.1//EN" "http://www.w3.org/Graphics/SVG/1.1/DTD/svg11.dtd">
<svg width="104" height="43" viewBox="0 0 140 43" version="1.1" xmlns="http://www.w3.org/2000/svg" xmlns:xlink="http://www.w3.org/1999/xlink" xml:space="preserve" xmlns:serif="http://www.serif.com/" style="fill-rule:evenodd;clip-rule:evenodd;stroke-linejoin:round;stroke-miterlimit:2;">
    <g transform="matrix(1,0,0,1,0.003938,0.00170027)">
        <g transform="matrix(1.341,0,0,1.341,-291.537,-15.7195)">
            <g>
                <g id="EuroRust">
                    <g id="Group-6">
                        <path id="Fill-1" d="M280.526,12.553L287.544,12.553L287.544,15.31C289.884,12.465 292.665,11.765 294.961,11.765C298.095,11.765 301.052,13.253 302.73,16.142C305.246,12.597 308.998,11.765 311.647,11.765C315.311,11.765 318.489,13.472 320.211,16.448C320.785,17.455 321.8,19.643 321.8,23.977L321.8,42.403L314.781,42.403L314.781,25.99C314.781,22.664 314.428,21.307 314.119,20.694C313.678,19.556 312.618,18.068 310.102,18.068C308.38,18.068 306.879,18.987 305.952,20.256C304.716,21.963 304.584,24.502 304.584,27.04L304.584,42.403L297.565,42.403L297.565,25.99C297.565,22.664 297.212,21.307 296.903,20.694C296.461,19.556 295.402,18.068 292.886,18.068C291.164,18.068 289.663,18.987 288.736,20.256C287.5,21.963 287.368,24.502 287.368,27.04L287.368,42.403L280.526,42.403L280.526,12.553ZM256.246,12.553L263.31,12.553L263.31,15.223C264.104,14.304 265.252,13.297 266.223,12.728C267.591,11.94 268.916,11.721 270.505,11.721C272.226,11.721 274.081,11.984 276.023,13.122L273.154,19.425C271.564,18.418 270.284,18.374 269.578,18.374C268.077,18.374 266.576,18.593 265.208,19.994C263.265,22.051 263.265,24.896 263.265,26.865L263.265,42.316L256.246,42.316L256.246,12.553ZM224.551,27.566C224.551,32.73 227.818,37.063 232.894,37.063C237.309,37.063 241.414,33.869 241.414,27.653C241.414,21.132 237.353,18.024 232.894,18.024C227.818,18.024 224.551,22.27 224.551,27.566ZM240.973,12.553L247.992,12.553L247.992,42.36L240.973,42.36L240.973,39.252C237.883,42.797 234.13,43.279 231.967,43.279C222.697,43.279 217.4,35.619 217.4,27.434C217.4,17.718 224.11,11.765 232.056,11.765C234.263,11.765 238.148,12.334 240.973,16.011L240.973,12.553Z"/>
                    </g>
                </g>
            </g>
        </g>
    </g>
</svg>
