<svg width="251" height="88" viewBox="0 0 251 88" fill="none" xmlns="http://www.w3.org/2000/svg">
<path d="M152.123 29.4962C151.211 29.7512 150.215 30.9592 150.023 31.9772C149.6 34.4792 151.614 36.3452 154.286 35.9422C156.831 35.5612 157.996 32.4862 156.343 30.5142C155.368 29.3692 153.82 28.9872 152.123 29.4962V29.4962ZM174.515 29.7292C173.392 30.3022 172.819 31.2772 172.819 32.6132C172.819 34.7132 174.134 35.9432 176.318 35.9432C178.629 35.9212 179.817 34.8192 179.817 32.6562C179.817 31.1502 179.265 30.2172 178.057 29.6872C176.869 29.1362 175.661 29.1572 174.515 29.7292ZM222.65 29.7292C221.527 30.3022 220.954 31.2772 220.954 32.6132C220.954 34.7132 222.269 35.9432 224.453 35.9432C226.764 35.9212 227.952 34.8192 227.952 32.6562C227.952 31.1502 227.4 30.2172 226.192 29.6872C225.004 29.1362 223.795 29.1572 222.65 29.7292ZM160.987 42.5592C161.05 52.3762 161.114 55.3872 161.327 55.8752C162.237 57.9752 164.422 58.7592 168.451 58.4202L170.274 58.2712V53.6482H169.532C169.066 53.6482 168.621 53.4782 168.366 53.2242C167.942 52.8002 167.942 52.5242 167.942 41.3502V29.8992H160.923L160.987 42.5592ZM110.159 31.9562C109.989 32.4222 102.949 51.8882 101.656 55.4932L100.723 58.1012H108.06L109.141 54.7512L110.222 51.4212H118.62L119.68 54.7512L120.74 58.1012H128.268L127.356 55.4932C126.253 52.4402 119.065 32.5072 118.853 31.9562C118.726 31.6382 118.301 31.5962 114.506 31.5962C110.71 31.5962 110.286 31.6382 110.159 31.9562V31.9562ZM115.672 41.8802C116.245 43.7462 116.732 45.4002 116.796 45.5272C116.86 45.7392 116.308 45.8032 114.442 45.8032H111.982L112.152 45.2092C113.34 41.1162 114.4 37.9792 114.527 38.2112C114.612 38.3602 115.121 40.0142 115.672 41.8802ZM134.862 37.4272C131.194 38.4452 129.349 40.4802 129.349 43.4492C129.349 45.3572 129.625 46.2272 130.6 47.3292C131.618 48.4742 133.145 49.2382 135.817 49.9592C139.4 50.9132 140.376 51.5072 140.376 52.7152C140.376 53.7752 139.528 54.3482 138.086 54.2422C137.174 54.1572 136.834 54.0092 136.22 53.4152C135.817 53.0332 135.435 52.4822 135.371 52.2282C135.244 51.7402 135.201 51.7402 131.873 51.7402C128.013 51.7402 128.162 51.6342 128.925 53.7122C129.498 55.2392 130.537 56.4052 132.063 57.2112C133.866 58.1862 135.477 58.5472 138.043 58.5472C143.048 58.5672 146.207 56.9352 147.098 53.8822C147.713 51.7192 147.14 49.4072 145.634 48.0082C144.489 46.9482 143.599 46.5242 140.821 45.6972C137.916 44.8482 137.216 44.5522 136.559 43.8522C135.986 43.2372 136.029 42.4952 136.665 41.8802C137.64 40.8832 139.231 41.4342 139.867 42.9822L140.164 43.6822H143.45C146.716 43.6822 146.737 43.6822 146.737 43.1942C146.737 42.2612 145.55 40.2042 144.447 39.2082C142.835 37.7662 141.415 37.2782 138.467 37.1932C136.728 37.1302 135.689 37.2152 134.862 37.4272V37.4272ZM194.596 37.3212C193.176 37.6812 192.54 38.1692 191.67 39.5052L190.843 40.8202V37.5332H183.846V58.1012H190.822L190.886 51.2522C190.97 43.7252 191.013 43.4492 192.328 42.3252C193.621 41.2442 195.805 41.8162 196.526 43.4282C196.844 44.1062 196.886 45.1882 196.95 51.1462L197.014 58.1012H203.99V51.8462C203.99 44.5732 204.096 43.7252 205.262 42.5582C205.941 41.9012 206.195 41.7742 206.98 41.7742C208.189 41.7742 209.207 42.4102 209.673 43.4282C209.991 44.1062 210.033 45.1882 210.097 51.1462L210.161 58.1012H217.18L217.074 50.1922C217.031 44.9332 216.904 42.0492 216.734 41.5192C215.886 38.8892 213.638 37.3212 210.479 37.1512C207.362 36.9812 206.089 37.5752 204.075 40.1622L203.439 41.0102L202.866 40.0142C202.294 39.0602 201.17 38.1262 199.856 37.5542C199.071 37.1942 195.678 37.0452 194.596 37.3212V37.3212ZM238.172 37.4482C236.37 37.9142 234.801 38.8052 233.762 39.9082C232.702 41.0532 232.235 41.9862 232.002 43.5132L231.832 44.5302H238.321L238.554 43.7032C239.021 41.9652 240.95 41.2232 242.519 42.1982C243.24 42.6432 243.495 43.2372 243.516 44.6362L243.537 45.4852L240.993 45.6332C236.094 45.9092 233.189 47.2662 231.811 49.9162C231.366 50.8072 231.26 51.2952 231.26 52.5882C231.238 55.0692 232.277 56.7442 234.525 57.8892C236.37 58.8442 239.678 58.7592 241.692 57.7412C242.689 57.2322 242.922 56.9992 243.219 56.1932C243.622 55.1542 243.707 55.2602 243.982 57.0832L244.11 58.1012H250.916L250.746 57.2962C250.662 56.8722 250.535 53.3522 250.45 49.5132C250.26 41.6462 250.195 41.2652 248.711 39.5682C247.736 38.4662 246.188 37.6812 244.407 37.3422C242.667 37.0242 239.529 37.0662 238.172 37.4482V37.4482ZM243.643 50.0862C243.622 51.4642 243.261 52.4612 242.498 53.1612C241.841 53.7762 241.586 53.8612 240.59 53.8612C239.02 53.8612 238.342 53.3312 238.342 52.0792C238.342 50.3622 239.742 49.4492 242.434 49.4292L243.644 49.4072V50.0862H243.643Z" fill="black"/>
<path d="M150.13 47.8172V58.1016H153.523H156.915V47.8172V37.5329H153.523H150.13V47.8172Z" fill="black"/>
<path d="M172.819 47.8172V58.1016H176.318H179.817V47.8172V37.5329H176.318H172.819V47.8172Z" fill="black"/>
<path d="M220.954 47.8172V58.1016H224.453H227.951V47.8172V37.5329H224.453H220.954V47.8172Z" fill="black"/>
<path d="M180.453 64.696V66.414L179.901 66.054C179.265 65.65 177.739 65.587 177.06 65.947C176.212 66.393 175.788 67.41 175.788 69.022C175.788 70.655 176.212 71.652 177.102 72.118C177.802 72.5 179.244 72.436 179.838 72.033C180.453 71.588 180.665 71.588 180.665 71.991C180.665 72.161 180.855 72.309 181.089 72.309C181.492 72.309 181.513 72.16 181.513 67.644V62.979H180.983C180.453 62.979 180.453 62.999 180.453 64.696ZM179.923 67.029C180.22 67.326 180.347 67.792 180.41 68.852C180.474 70.082 180.432 70.379 180.05 70.867C179.456 71.609 178.544 71.8 177.717 71.354C176.997 70.994 176.742 70.358 176.763 68.874C176.784 66.774 178.544 65.735 179.923 67.029V67.029Z" fill="black"/>
<path d="M227.527 67.6435V72.3086H228.057H228.588V67.6435V62.9785H228.057H227.527V67.6435Z" fill="black"/>
<path d="M113.658 67.9622V72.3092H116.096C118.386 72.3092 118.535 72.2872 118.535 71.8852C118.535 71.4822 118.386 71.4602 116.626 71.4602H114.718V68.0682H116.52C118.174 68.0682 118.323 68.0252 118.323 67.6442C118.323 67.2622 118.174 67.2202 116.52 67.2202H114.718V64.4632H116.626C118.386 64.4632 118.535 64.4422 118.535 64.0392C118.535 63.6362 118.386 63.6152 116.096 63.6152H113.658V67.9622V67.9622ZM151.19 67.9622C151.19 72.1392 151.211 72.3092 151.614 72.3092C151.974 72.3092 152.017 72.1392 152.081 70.4432L152.144 68.5982L154.01 68.5342C155.686 68.4712 155.855 68.4282 155.855 68.0682C155.855 67.6862 155.707 67.6442 153.947 67.6442H152.038V64.4632H154.053C155.919 64.4632 156.067 64.4422 156.067 64.0392C156.067 63.6362 155.919 63.6152 153.629 63.6152H151.19V67.9622V67.9622ZM212.472 63.7002C212.472 63.7632 213.151 65.7142 213.978 68.0682C215.441 72.1392 215.526 72.3302 216.034 72.2662C216.501 72.2032 216.649 71.9272 217.392 69.8702C217.858 68.5772 218.558 66.6472 218.94 65.5662L219.64 63.6152H219.088C218.537 63.6152 218.452 63.7632 217.264 67.2412L216.014 70.8672L214.741 67.2412C213.596 63.9112 213.448 63.6152 212.981 63.6152C212.705 63.6152 212.472 63.6572 212.472 63.7002V63.7002ZM128.416 65.7562C127.483 65.9052 126.805 66.5832 126.805 67.3462C126.805 68.0042 127.568 68.7672 128.713 69.2342C129.964 69.7432 130.409 70.1462 130.409 70.7402C130.409 71.4402 129.222 71.8002 127.971 71.4822C126.783 71.1852 126.805 71.1852 126.805 71.6522C126.805 72.1392 127.355 72.3522 128.713 72.3722C130.049 72.3932 130.961 71.9912 131.279 71.2062C131.724 70.1032 131.364 69.5522 129.582 68.6832C127.865 67.8342 127.526 67.4742 127.95 66.9012C128.247 66.4772 129.222 66.3712 130.325 66.6472C130.855 66.7742 131.025 66.7532 131.13 66.4572C131.215 66.2652 131.236 66.0742 131.194 66.0322C130.982 65.7992 129.137 65.6292 128.416 65.7562ZM134.905 65.7562C133.548 66.0322 132.742 67.2622 132.742 69.0642C132.742 70.2522 133.251 71.3542 134.057 71.9482C135.074 72.7122 138.043 72.4152 138.043 71.5662C138.043 71.3122 137.81 71.2702 136.793 71.3762C136.093 71.4602 135.287 71.4602 134.99 71.3762C134.417 71.2272 133.802 70.2942 133.802 69.5522C133.802 69.1492 133.929 69.1282 136.029 69.1282H138.255V68.4712C138.255 66.5832 136.771 65.3752 134.905 65.7562V65.7562ZM136.22 66.6052C136.77 66.8592 137.322 67.8982 137.089 68.2592C137.025 68.3862 136.262 68.4922 135.371 68.4922C134.014 68.4922 133.802 68.4492 133.802 68.1102C133.802 67.6012 134.396 66.7952 134.947 66.5832C135.541 66.3292 135.605 66.3292 136.22 66.6052V66.6052ZM164.168 65.7562C162.81 66.0322 162.005 67.2622 162.005 69.0642C162.005 70.2522 162.514 71.3542 163.319 71.9482C164.337 72.7122 167.306 72.4152 167.306 71.5662C167.306 71.3122 167.073 71.2702 166.055 71.3762C165.355 71.4602 164.549 71.4602 164.252 71.3762C163.68 71.2272 163.065 70.2942 163.065 69.5522C163.065 69.1492 163.192 69.1282 165.291 69.1282H167.518V68.4712C167.518 66.5832 166.034 65.3752 164.168 65.7562V65.7562ZM165.482 66.6052C166.034 66.8592 166.585 67.8982 166.352 68.2592C166.288 68.3862 165.525 68.4922 164.634 68.4922C163.277 68.4922 163.064 68.4492 163.064 68.1102C163.064 67.6012 163.659 66.7952 164.21 66.5832C164.804 66.3292 164.867 66.3292 165.482 66.6052V66.6052ZM171.08 65.6932C169.723 65.8632 168.6 67.8982 168.875 69.6372C169.172 71.5032 170.275 72.3932 172.183 72.3722C173.519 72.3522 174.091 72.1392 174.091 71.6942C174.091 71.3542 173.943 71.3122 172.649 71.4182C171.356 71.5032 171.144 71.4602 170.635 71.0152C170.317 70.7402 169.999 70.1882 169.935 69.8062L169.808 69.1282H174.367L174.261 68.0462C174.091 66.3712 172.883 65.4812 171.081 65.6932H171.08ZM172.883 67.0502C173.073 67.2832 173.243 67.7072 173.243 67.9832C173.243 68.4712 173.18 68.4922 171.695 68.4922C170.825 68.4922 170.084 68.4282 169.999 68.3652C169.935 68.3012 169.978 67.9622 170.105 67.6222C170.529 66.4142 172.077 66.0962 172.883 67.0502V67.0502ZM185.478 65.7352C183.528 66.0752 182.616 68.5552 183.612 70.7612C184.418 72.5212 186.751 72.9452 188.235 71.5882C188.977 70.9092 189.02 70.7822 189.105 69.4042C189.253 66.7112 187.895 65.3322 185.478 65.7352V65.7352ZM187.726 67.2622C188.277 67.9822 188.299 69.9342 187.79 70.7182C187.026 71.8852 185.224 71.8212 184.588 70.6122C184.185 69.8282 184.185 68.2162 184.588 67.4322C185.181 66.2862 186.941 66.2022 187.726 67.2622V67.2622ZM193.303 65.7562C192.985 65.8412 192.518 66.0962 192.306 66.2862C191.925 66.6262 191.903 66.6262 191.903 66.2022C191.903 65.8842 191.776 65.7352 191.479 65.7352C191.076 65.7352 191.055 65.8842 191.055 69.0222C191.055 72.0972 191.076 72.3092 191.458 72.3092C191.818 72.3092 191.861 72.0752 191.946 69.9972C192.052 67.4102 192.328 66.7112 193.324 66.5202C193.642 66.4562 194.151 66.5202 194.448 66.6472C194.978 66.9012 194.978 66.9652 195.042 69.6162C195.105 72.2872 195.105 72.3092 195.593 72.3092C196.102 72.3092 196.102 72.2872 196.187 69.8702C196.272 67.0292 196.527 66.5412 197.968 66.5412C199.177 66.5412 199.325 66.8812 199.325 69.8062V72.3092H200.385V69.8912C200.385 67.2832 200.195 66.4142 199.515 65.9682C198.816 65.5442 197.247 65.6292 196.568 66.1172C196.06 66.4992 195.954 66.5202 195.678 66.2442C195.233 65.7992 194.045 65.5662 193.303 65.7562V65.7562ZM121.143 65.9472C120.613 66.1592 120.592 66.1802 120.783 66.6682C120.867 66.9012 121.016 66.9442 121.249 66.8172C121.461 66.7112 121.969 66.5832 122.415 66.4992C123.073 66.3712 123.285 66.4352 123.73 66.8802C124.027 67.1772 124.26 67.6012 124.26 67.8342C124.26 68.3012 123.984 68.4072 122.267 68.5552C120.422 68.7252 119.51 69.9342 120.125 71.3752C120.337 71.9052 120.592 72.1182 121.228 72.2872C122.161 72.5422 123.221 72.3302 123.836 71.7792C124.176 71.4822 124.218 71.4822 124.324 71.8852C124.387 72.1182 124.578 72.3092 124.769 72.3092C125.066 72.3092 125.109 71.9272 125.109 69.5522C125.109 66.8802 125.087 66.7532 124.579 66.2652C124.154 65.8202 123.879 65.7352 122.839 65.7562C122.161 65.7562 121.397 65.8412 121.143 65.9472ZM124.26 69.2772C124.26 69.3822 124.154 69.8072 124.027 70.2522C123.857 70.8882 123.645 71.1422 123.051 71.3972C122.118 71.7792 121.355 71.6092 121.058 70.9522C120.761 70.3372 121.101 69.6162 121.779 69.3402C122.352 69.1072 124.26 69.0642 124.26 69.2762V69.2772ZM157.34 69.0222C157.34 72.1602 157.36 72.3092 157.764 72.3092C158.145 72.3092 158.188 72.1602 158.188 70.6332C158.188 68.4712 158.336 67.7712 158.951 67.1132C159.291 66.7322 159.651 66.5832 160.202 66.5832C160.796 66.5832 160.944 66.4992 160.944 66.1592C160.944 65.5022 159.672 65.5872 158.845 66.2862L158.188 66.8382V66.2862C158.188 65.8842 158.082 65.7362 157.764 65.7362C157.361 65.7362 157.34 65.8842 157.34 69.0222ZM221.442 66.0112C221.124 66.1812 221.039 66.3712 221.145 66.5622C221.293 66.7952 221.505 66.8172 222.29 66.6052C223.753 66.2452 224.559 66.6892 224.559 67.8552C224.559 68.3222 224.156 68.4922 223.053 68.4922C221.993 68.4922 220.848 68.9582 220.551 69.5102C220.148 70.2732 220.275 71.3332 220.827 71.8632C221.527 72.5212 223.074 72.5422 223.923 71.9272C224.516 71.4822 224.538 71.4822 224.665 71.8852C224.75 72.1182 224.941 72.3092 225.11 72.3092C225.343 72.3092 225.407 71.7992 225.407 69.4672C225.407 66.6472 225.407 66.6052 224.856 66.1802C224.198 65.6722 222.226 65.5662 221.442 66.0102V66.0112ZM224.495 69.8912C224.262 71.2482 223.159 71.9482 221.929 71.4612C221.421 71.2702 221.357 71.1422 221.421 70.4642C221.505 69.4882 222.078 69.1282 223.583 69.1282H224.623L224.495 69.8912V69.8912ZM230.496 67.8982C230.496 71.4822 230.963 72.3302 232.935 72.3512C233.613 72.3722 234.101 72.2452 234.525 71.9062C235.161 71.4602 235.161 71.4602 235.161 71.8852C235.161 72.1602 235.31 72.3092 235.585 72.3092C235.988 72.3092 236.009 72.1602 236.009 69.0222C236.009 65.8842 235.989 65.7352 235.585 65.7352C235.204 65.7352 235.161 65.8842 235.161 67.5802C235.161 70.1462 234.907 70.9942 233.995 71.3762C232.998 71.7792 232.68 71.7572 232.087 71.1422C231.577 70.6552 231.557 70.5062 231.557 68.1742V65.7352H230.497V67.8982H230.496ZM238.808 66.4562L238.024 67.1772V69.0012C238.024 70.7402 238.045 70.8462 238.681 71.4612C239.36 72.1392 240.632 72.5842 241.481 72.4152C241.735 72.3512 242.18 72.2662 242.477 72.2032C242.817 72.1392 243.007 71.9482 243.007 71.6932C243.007 71.3332 242.88 71.3122 241.629 71.3972C240.589 71.4822 240.144 71.4392 239.741 71.1642C239.233 70.8462 238.724 69.6372 238.914 69.2762C238.957 69.1922 239.996 69.1282 241.226 69.1282C243.686 69.1282 243.643 69.1492 243.219 67.6012C242.879 66.4352 241.947 65.7352 240.653 65.7352C239.763 65.7352 239.487 65.8412 238.808 66.4562V66.4562ZM241.778 66.9862C241.989 67.1772 242.18 67.5592 242.201 67.8562C242.265 68.3862 242.244 68.3862 240.632 68.4492C239.021 68.5132 238.978 68.4922 238.978 68.0252C238.999 66.6472 240.759 65.9902 241.778 66.9862V66.9862ZM143.472 66.7112C142.942 67.2202 143.026 68.6192 143.599 69.0012C144.235 69.4462 144.744 69.4252 145.253 68.9162C145.804 68.3652 145.804 67.1982 145.295 66.7322C144.808 66.2862 143.895 66.2652 143.472 66.7112V66.7112ZM206.005 66.6682C205.475 67.0502 205.475 68.3222 206.005 68.9162C207.171 70.2092 208.931 68.3222 207.892 66.8382C207.532 66.3082 206.62 66.2232 206.005 66.6682Z" fill="black"/>
<path d="M44.2119 0.212082C68.5124 0.212082 88.2119 19.8166 88.2119 44.0001C88.2119 68.1835 68.5124 87.7881 44.2119 87.7881C19.9114 87.7881 0.211914 68.1835 0.211914 44.0001C0.211914 19.8166 19.9114 0.212082 44.2119 0.212082Z" fill="black"/>
<path d="M29.3688 22.9007C32.2379 22.9007 34.5638 20.5749 34.5638 17.7057C34.5638 14.8366 32.2379 12.5107 29.3688 12.5107C26.4997 12.5107 24.1738 14.8366 24.1738 17.7057C24.1738 20.5749 26.4997 22.9007 29.3688 22.9007Z" fill="white"/>
<path d="M55.2388 66.1588C55.9999 66.1588 56.6168 65.5419 56.6168 64.7808C56.6168 64.0198 55.9999 63.4028 55.2388 63.4028C54.4778 63.4028 53.8608 64.0198 53.8608 64.7808C53.8608 65.5419 54.4778 66.1588 55.2388 66.1588Z" fill="white"/>
<path d="M65.4168 66.1588C66.1779 66.1588 66.7948 65.5419 66.7948 64.7808C66.7948 64.0198 66.1779 63.4028 65.4168 63.4028C64.6558 63.4028 64.0388 64.0198 64.0388 64.7808C64.0388 65.5419 64.6558 66.1588 65.4168 66.1588Z" fill="white"/>
<path fill-rule="evenodd" clip-rule="evenodd" d="M65.29 69.085C65.86 69.085 66.325 69.535 66.349 70.1V70.168H66.365C66.201 73.064 63.726 75.437 60.41 75.437C57.093 75.437 54.822 73.167 54.518 70.358C54.4863 70.2039 54.4894 70.0446 54.527 69.8919C54.5646 69.7391 54.6357 69.5966 54.7351 69.4747C54.8346 69.3528 54.96 69.2546 55.1021 69.1872C55.2443 69.1198 55.3996 69.0849 55.557 69.085C56.142 69.085 56.276 69.59 56.617 70.145C56.958 70.701 57.698 73.438 60.431 73.438C63.163 73.438 63.875 70.714 64.229 70.146C64.584 69.577 64.679 69.11 65.244 69.086H65.29V69.085Z" fill="white"/>
<path fill-rule="evenodd" clip-rule="evenodd" d="M64.8518 17.56C65.368 17.9392 65.8044 18.4163 66.1362 18.9641C66.468 19.512 66.6886 20.1198 66.7854 20.753C66.8823 21.3861 66.8535 22.0321 66.7007 22.654C66.5479 23.276 66.274 23.8618 65.8948 24.378L30.8698 72.058C30.4906 72.5742 30.0135 73.0107 29.4656 73.3425C28.9177 73.6743 28.3098 73.895 27.6767 73.9919C27.0435 74.0888 26.3975 74.06 25.7754 73.9072C25.1534 73.7545 24.5675 73.4807 24.0513 73.1015C23.5351 72.7223 23.0986 72.2451 22.7668 71.6973C22.435 71.1494 22.2143 70.5415 22.1174 69.9083C22.0205 69.2752 22.0493 68.6291 22.2021 68.0071C22.3548 67.3851 22.6286 66.7992 23.0078 66.283L58.0328 18.603C58.412 18.0868 58.8891 17.6504 59.437 17.3186C59.9848 16.9868 60.5927 16.7662 61.2258 16.6694C61.8589 16.5725 62.5049 16.6013 63.1269 16.7541C63.7489 16.9069 64.3347 17.1808 64.8508 17.56H64.8518Z" fill="white"/>
</svg>
