<?xml version="1.0" encoding="UTF-8" standalone="no"?>
<!DOCTYPE svg PUBLIC "-//W3C//DTD SVG 1.1//EN" "http://www.w3.org/Graphics/SVG/1.1/DTD/svg11.dtd">
<svg width="100%" height="100%" viewBox="0 0 1000 350" version="1.1" xmlns="http://www.w3.org/2000/svg" xmlns:xlink="http://www.w3.org/1999/xlink" xml:space="preserve" xmlns:serif="http://www.serif.com/" style="fill-rule:evenodd;clip-rule:evenodd;stroke-linejoin:round;stroke-miterlimit:2;">
    <g transform="matrix(1,0,0,1,-0.211914,-0.212082)">
        <g transform="matrix(3.98877,0,0,3.98877,-0.633361,-0.633864)">
            <path d="M152.123,29.496C151.211,29.751 150.215,30.959 150.023,31.977C149.6,34.479 151.614,36.345 154.286,35.942C156.831,35.561 157.996,32.486 156.343,30.514C155.368,29.369 153.82,28.987 152.123,29.496ZM174.515,29.729C173.392,30.302 172.819,31.277 172.819,32.613C172.819,34.713 174.134,35.943 176.318,35.943C178.629,35.921 179.817,34.819 179.817,32.656C179.817,31.15 179.265,30.217 178.057,29.687C176.869,29.136 175.661,29.157 174.515,29.729ZM222.65,29.729C221.527,30.302 220.954,31.277 220.954,32.613C220.954,34.713 222.269,35.943 224.453,35.943C226.764,35.921 227.952,34.819 227.952,32.656C227.952,31.15 227.4,30.217 226.192,29.687C225.004,29.136 223.795,29.157 222.65,29.729ZM160.987,42.559C161.05,52.376 161.114,55.387 161.327,55.875C162.237,57.975 164.422,58.759 168.451,58.42L170.274,58.271L170.274,53.648L169.532,53.648C169.066,53.648 168.621,53.478 168.366,53.224C167.942,52.8 167.942,52.524 167.942,41.35L167.942,29.899L160.923,29.899L160.987,42.559ZM110.159,31.956C109.989,32.422 102.949,51.888 101.656,55.493L100.723,58.101L108.06,58.101L109.141,54.751L110.222,51.421L118.62,51.421L119.68,54.751L120.74,58.101L128.268,58.101L127.356,55.493C126.253,52.44 119.065,32.507 118.853,31.956C118.726,31.638 118.301,31.596 114.506,31.596C110.71,31.596 110.286,31.638 110.159,31.956ZM115.672,41.88C116.245,43.746 116.732,45.4 116.796,45.527C116.86,45.739 116.308,45.803 114.442,45.803L111.982,45.803L112.152,45.209C113.34,41.116 114.4,37.979 114.527,38.211C114.612,38.36 115.121,40.014 115.672,41.88ZM134.862,37.427C131.194,38.445 129.349,40.48 129.349,43.449C129.349,45.357 129.625,46.227 130.6,47.329C131.618,48.474 133.145,49.238 135.817,49.959C139.4,50.913 140.376,51.507 140.376,52.715C140.376,53.775 139.528,54.348 138.086,54.242C137.174,54.157 136.834,54.009 136.22,53.415C135.817,53.033 135.435,52.482 135.371,52.228C135.244,51.74 135.201,51.74 131.873,51.74C128.013,51.74 128.162,51.634 128.925,53.712C129.498,55.239 130.537,56.405 132.063,57.211C133.866,58.186 135.477,58.547 138.043,58.547C143.048,58.567 146.207,56.935 147.098,53.882C147.713,51.719 147.14,49.407 145.634,48.008C144.489,46.948 143.599,46.524 140.821,45.697C137.916,44.848 137.216,44.552 136.559,43.852C135.986,43.237 136.029,42.495 136.665,41.88C137.64,40.883 139.231,41.434 139.867,42.982L140.164,43.682L143.45,43.682C146.716,43.682 146.737,43.682 146.737,43.194C146.737,42.261 145.55,40.204 144.447,39.208C142.835,37.766 141.415,37.278 138.467,37.193C136.728,37.13 135.689,37.215 134.862,37.427ZM194.596,37.321C193.176,37.681 192.54,38.169 191.67,39.505L190.843,40.82L190.843,37.533L183.846,37.533L183.846,58.101L190.822,58.101L190.886,51.252C190.97,43.725 191.013,43.449 192.328,42.325C193.621,41.244 195.805,41.816 196.526,43.428C196.844,44.106 196.886,45.188 196.95,51.146L197.014,58.101L203.99,58.101L203.99,51.846C203.99,44.573 204.096,43.725 205.262,42.558C205.941,41.901 206.195,41.774 206.98,41.774C208.189,41.774 209.207,42.41 209.673,43.428C209.991,44.106 210.033,45.188 210.097,51.146L210.161,58.101L217.18,58.101L217.074,50.192C217.031,44.933 216.904,42.049 216.734,41.519C215.886,38.889 213.638,37.321 210.479,37.151C207.362,36.981 206.089,37.575 204.075,40.162L203.439,41.01L202.866,40.014C202.294,39.06 201.17,38.126 199.856,37.554C199.071,37.194 195.678,37.045 194.596,37.321ZM238.172,37.448C236.37,37.914 234.801,38.805 233.762,39.908C232.702,41.053 232.235,41.986 232.002,43.513L231.832,44.53L238.321,44.53L238.554,43.703C239.021,41.965 240.95,41.223 242.519,42.198C243.24,42.643 243.495,43.237 243.516,44.636L243.537,45.485L240.993,45.633C236.094,45.909 233.189,47.266 231.811,49.916C231.366,50.807 231.26,51.295 231.26,52.588C231.238,55.069 232.277,56.744 234.525,57.889C236.37,58.844 239.678,58.759 241.692,57.741C242.689,57.232 242.922,56.999 243.219,56.193C243.622,55.154 243.707,55.26 243.982,57.083L244.11,58.101L250.916,58.101L250.746,57.296C250.662,56.872 250.535,53.352 250.45,49.513C250.26,41.646 250.195,41.265 248.711,39.568C247.736,38.466 246.188,37.681 244.407,37.342C242.667,37.024 239.529,37.066 238.172,37.448ZM243.643,50.086C243.622,51.464 243.261,52.461 242.498,53.161C241.841,53.776 241.586,53.861 240.59,53.861C239.02,53.861 238.342,53.331 238.342,52.079C238.342,50.362 239.742,49.449 242.434,49.429L243.644,49.407L243.644,50.086L243.643,50.086Z" style="fill-rule:nonzero;"/>
        </g>
        <g transform="matrix(3.98877,0,0,3.98877,-0.633361,-0.633864)">
            <path d="M150.13,37.533L150.13,58.102L156.915,58.102L156.915,37.533L150.13,37.533Z" style="fill-rule:nonzero;"/>
        </g>
        <g transform="matrix(3.98877,0,0,3.98877,-0.633361,-0.633864)">
            <path d="M172.819,37.533L172.819,58.102L179.817,58.102L179.817,37.533L172.819,37.533Z" style="fill-rule:nonzero;"/>
        </g>
        <g transform="matrix(3.98877,0,0,3.98877,-0.633361,-0.633864)">
            <path d="M220.954,37.533L220.954,58.102L227.951,58.102L227.951,37.533L220.954,37.533Z" style="fill-rule:nonzero;"/>
        </g>
        <g transform="matrix(3.98877,0,0,3.98877,-0.633361,-0.633864)">
            <path d="M180.453,64.696L180.453,66.414L179.901,66.054C179.265,65.65 177.739,65.587 177.06,65.947C176.212,66.393 175.788,67.41 175.788,69.022C175.788,70.655 176.212,71.652 177.102,72.118C177.802,72.5 179.244,72.436 179.838,72.033C180.453,71.588 180.665,71.588 180.665,71.991C180.665,72.161 180.855,72.309 181.089,72.309C181.492,72.309 181.513,72.16 181.513,67.644L181.513,62.979L180.983,62.979C180.453,62.979 180.453,62.999 180.453,64.696ZM179.923,67.029C180.22,67.326 180.347,67.792 180.41,68.852C180.474,70.082 180.432,70.379 180.05,70.867C179.456,71.609 178.544,71.8 177.717,71.354C176.997,70.994 176.742,70.358 176.763,68.874C176.784,66.774 178.544,65.735 179.923,67.029Z" style="fill-rule:nonzero;"/>
        </g>
        <g transform="matrix(3.98877,0,0,3.98877,-0.633361,-0.633864)">
            <path d="M227.527,62.978L227.527,72.309L228.588,72.309L228.588,62.978L227.527,62.978Z" style="fill-rule:nonzero;"/>
        </g>
        <g transform="matrix(3.98877,0,0,3.98877,-0.633361,-0.633864)">
            <path d="M113.658,63.615L113.658,72.309L116.096,72.309C118.386,72.309 118.535,72.287 118.535,71.885C118.535,71.482 118.386,71.46 116.626,71.46L114.718,71.46L114.718,68.068L116.52,68.068C118.174,68.068 118.323,68.025 118.323,67.644C118.323,67.262 118.174,67.22 116.52,67.22L114.718,67.22L114.718,64.463L116.626,64.463C118.386,64.463 118.535,64.442 118.535,64.039C118.535,63.636 118.386,63.615 116.096,63.615L113.658,63.615ZM151.19,67.962C151.19,72.139 151.211,72.309 151.614,72.309C151.974,72.309 152.017,72.139 152.081,70.443L152.144,68.598L154.01,68.534C155.686,68.471 155.855,68.428 155.855,68.068C155.855,67.686 155.707,67.644 153.947,67.644L152.038,67.644L152.038,64.463L154.053,64.463C155.919,64.463 156.067,64.442 156.067,64.039C156.067,63.636 155.919,63.615 153.629,63.615L151.19,63.615L151.19,67.962ZM212.472,63.7C212.472,63.763 213.151,65.714 213.978,68.068C215.441,72.139 215.526,72.33 216.034,72.266C216.501,72.203 216.649,71.927 217.392,69.87C217.858,68.577 218.558,66.647 218.94,65.566L219.64,63.615L219.088,63.615C218.537,63.615 218.452,63.763 217.264,67.241L216.014,70.867L214.741,67.241C213.596,63.911 213.448,63.615 212.981,63.615C212.705,63.615 212.472,63.657 212.472,63.7ZM128.416,65.756C127.483,65.905 126.805,66.583 126.805,67.346C126.805,68.004 127.568,68.767 128.713,69.234C129.964,69.743 130.409,70.146 130.409,70.74C130.409,71.44 129.222,71.8 127.971,71.482C126.783,71.185 126.805,71.185 126.805,71.652C126.805,72.139 127.355,72.352 128.713,72.372C130.049,72.393 130.961,71.991 131.279,71.206C131.724,70.103 131.364,69.552 129.582,68.683C127.865,67.834 127.526,67.474 127.95,66.901C128.247,66.477 129.222,66.371 130.325,66.647C130.855,66.774 131.025,66.753 131.13,66.457C131.215,66.265 131.236,66.074 131.194,66.032C130.982,65.799 129.137,65.629 128.416,65.756ZM134.905,65.756C133.548,66.032 132.742,67.262 132.742,69.064C132.742,70.252 133.251,71.354 134.057,71.948C135.074,72.712 138.043,72.415 138.043,71.566C138.043,71.312 137.81,71.27 136.793,71.376C136.093,71.46 135.287,71.46 134.99,71.376C134.417,71.227 133.802,70.294 133.802,69.552C133.802,69.149 133.929,69.128 136.029,69.128L138.255,69.128L138.255,68.471C138.255,66.583 136.771,65.375 134.905,65.756ZM136.22,66.605C136.77,66.859 137.322,67.898 137.089,68.259C137.025,68.386 136.262,68.492 135.371,68.492C134.014,68.492 133.802,68.449 133.802,68.11C133.802,67.601 134.396,66.795 134.947,66.583C135.541,66.329 135.605,66.329 136.22,66.605ZM164.168,65.756C162.81,66.032 162.005,67.262 162.005,69.064C162.005,70.252 162.514,71.354 163.319,71.948C164.337,72.712 167.306,72.415 167.306,71.566C167.306,71.312 167.073,71.27 166.055,71.376C165.355,71.46 164.549,71.46 164.252,71.376C163.68,71.227 163.065,70.294 163.065,69.552C163.065,69.149 163.192,69.128 165.291,69.128L167.518,69.128L167.518,68.471C167.518,66.583 166.034,65.375 164.168,65.756ZM165.482,66.605C166.034,66.859 166.585,67.898 166.352,68.259C166.288,68.386 165.525,68.492 164.634,68.492C163.277,68.492 163.064,68.449 163.064,68.11C163.064,67.601 163.659,66.795 164.21,66.583C164.804,66.329 164.867,66.329 165.482,66.605ZM171.08,65.693C169.723,65.863 168.6,67.898 168.875,69.637C169.172,71.503 170.275,72.393 172.183,72.372C173.519,72.352 174.091,72.139 174.091,71.694C174.091,71.354 173.943,71.312 172.649,71.418C171.356,71.503 171.144,71.46 170.635,71.015C170.317,70.74 169.999,70.188 169.935,69.806L169.808,69.128L174.367,69.128L174.261,68.046C174.091,66.371 172.883,65.481 171.081,65.693L171.08,65.693ZM172.883,67.05C173.073,67.283 173.243,67.707 173.243,67.983C173.243,68.471 173.18,68.492 171.695,68.492C170.825,68.492 170.084,68.428 169.999,68.365C169.935,68.301 169.978,67.962 170.105,67.622C170.529,66.414 172.077,66.096 172.883,67.05ZM185.478,65.735C183.528,66.075 182.616,68.555 183.612,70.761C184.418,72.521 186.751,72.945 188.235,71.588C188.977,70.909 189.02,70.782 189.105,69.404C189.253,66.711 187.895,65.332 185.478,65.735ZM187.726,67.262C188.277,67.982 188.299,69.934 187.79,70.718C187.026,71.885 185.224,71.821 184.588,70.612C184.185,69.828 184.185,68.216 184.588,67.432C185.181,66.286 186.941,66.202 187.726,67.262ZM193.303,65.756C192.985,65.841 192.518,66.096 192.306,66.286C191.925,66.626 191.903,66.626 191.903,66.202C191.903,65.884 191.776,65.735 191.479,65.735C191.076,65.735 191.055,65.884 191.055,69.022C191.055,72.097 191.076,72.309 191.458,72.309C191.818,72.309 191.861,72.075 191.946,69.997C192.052,67.41 192.328,66.711 193.324,66.52C193.642,66.456 194.151,66.52 194.448,66.647C194.978,66.901 194.978,66.965 195.042,69.616C195.105,72.287 195.105,72.309 195.593,72.309C196.102,72.309 196.102,72.287 196.187,69.87C196.272,67.029 196.527,66.541 197.968,66.541C199.177,66.541 199.325,66.881 199.325,69.806L199.325,72.309L200.385,72.309L200.385,69.891C200.385,67.283 200.195,66.414 199.515,65.968C198.816,65.544 197.247,65.629 196.568,66.117C196.06,66.499 195.954,66.52 195.678,66.244C195.233,65.799 194.045,65.566 193.303,65.756ZM121.143,65.947C120.613,66.159 120.592,66.18 120.783,66.668C120.867,66.901 121.016,66.944 121.249,66.817C121.461,66.711 121.969,66.583 122.415,66.499C123.073,66.371 123.285,66.435 123.73,66.88C124.027,67.177 124.26,67.601 124.26,67.834C124.26,68.301 123.984,68.407 122.267,68.555C120.422,68.725 119.51,69.934 120.125,71.375C120.337,71.905 120.592,72.118 121.228,72.287C122.161,72.542 123.221,72.33 123.836,71.779C124.176,71.482 124.218,71.482 124.324,71.885C124.387,72.118 124.578,72.309 124.769,72.309C125.066,72.309 125.109,71.927 125.109,69.552C125.109,66.88 125.087,66.753 124.579,66.265C124.154,65.82 123.879,65.735 122.839,65.756C122.161,65.756 121.397,65.841 121.143,65.947ZM124.26,69.277C124.26,69.382 124.154,69.807 124.027,70.252C123.857,70.888 123.645,71.142 123.051,71.397C122.118,71.779 121.355,71.609 121.058,70.952C120.761,70.337 121.101,69.616 121.779,69.34C122.352,69.107 124.26,69.064 124.26,69.276L124.26,69.277ZM157.34,69.022C157.34,72.16 157.36,72.309 157.764,72.309C158.145,72.309 158.188,72.16 158.188,70.633C158.188,68.471 158.336,67.771 158.951,67.113C159.291,66.732 159.651,66.583 160.202,66.583C160.796,66.583 160.944,66.499 160.944,66.159C160.944,65.502 159.672,65.587 158.845,66.286L158.188,66.838L158.188,66.286C158.188,65.884 158.082,65.736 157.764,65.736C157.361,65.736 157.34,65.884 157.34,69.022ZM221.442,66.011C221.124,66.181 221.039,66.371 221.145,66.562C221.293,66.795 221.505,66.817 222.29,66.605C223.753,66.245 224.559,66.689 224.559,67.855C224.559,68.322 224.156,68.492 223.053,68.492C221.993,68.492 220.848,68.958 220.551,69.51C220.148,70.273 220.275,71.333 220.827,71.863C221.527,72.521 223.074,72.542 223.923,71.927C224.516,71.482 224.538,71.482 224.665,71.885C224.75,72.118 224.941,72.309 225.11,72.309C225.343,72.309 225.407,71.799 225.407,69.467C225.407,66.647 225.407,66.605 224.856,66.18C224.198,65.672 222.226,65.566 221.442,66.01L221.442,66.011ZM224.495,69.891C224.262,71.248 223.159,71.948 221.929,71.461C221.421,71.27 221.357,71.142 221.421,70.464C221.505,69.488 222.078,69.128 223.583,69.128L224.623,69.128L224.495,69.891ZM230.496,67.898C230.496,71.482 230.963,72.33 232.935,72.351C233.613,72.372 234.101,72.245 234.525,71.906C235.161,71.46 235.161,71.46 235.161,71.885C235.161,72.16 235.31,72.309 235.585,72.309C235.988,72.309 236.009,72.16 236.009,69.022C236.009,65.884 235.989,65.735 235.585,65.735C235.204,65.735 235.161,65.884 235.161,67.58C235.161,70.146 234.907,70.994 233.995,71.376C232.998,71.779 232.68,71.757 232.087,71.142C231.577,70.655 231.557,70.506 231.557,68.174L231.557,65.735L230.497,65.735L230.497,67.898L230.496,67.898ZM238.808,66.456L238.024,67.177L238.024,69.001C238.024,70.74 238.045,70.846 238.681,71.461C239.36,72.139 240.632,72.584 241.481,72.415C241.735,72.351 242.18,72.266 242.477,72.203C242.817,72.139 243.007,71.948 243.007,71.693C243.007,71.333 242.88,71.312 241.629,71.397C240.589,71.482 240.144,71.439 239.741,71.164C239.233,70.846 238.724,69.637 238.914,69.276C238.957,69.192 239.996,69.128 241.226,69.128C243.686,69.128 243.643,69.149 243.219,67.601C242.879,66.435 241.947,65.735 240.653,65.735C239.763,65.735 239.487,65.841 238.808,66.456ZM241.778,66.986C241.989,67.177 242.18,67.559 242.201,67.856C242.265,68.386 242.244,68.386 240.632,68.449C239.021,68.513 238.978,68.492 238.978,68.025C238.999,66.647 240.759,65.99 241.778,66.986ZM143.472,66.711C142.942,67.22 143.026,68.619 143.599,69.001C144.235,69.446 144.744,69.425 145.253,68.916C145.804,68.365 145.804,67.198 145.295,66.732C144.808,66.286 143.895,66.265 143.472,66.711ZM206.005,66.668C205.475,67.05 205.475,68.322 206.005,68.916C207.171,70.209 208.931,68.322 207.892,66.838C207.532,66.308 206.62,66.223 206.005,66.668Z" style="fill-rule:nonzero;"/>
        </g>
        <g transform="matrix(3.98877,0,0,3.98877,-0.633361,-0.633864)">
            <path d="M44.212,0.212C68.512,0.212 88.212,19.817 88.212,44C88.212,68.184 68.512,87.788 44.212,87.788C19.911,87.788 0.212,68.184 0.212,44C0.212,19.817 19.911,0.212 44.212,0.212Z" style="fill-rule:nonzero;"/>
        </g>
        <g transform="matrix(3.98877,0,0,3.98877,-0.633361,-0.633864)">
            <path d="M29.369,22.901C32.238,22.901 34.564,20.575 34.564,17.706C34.564,14.837 32.238,12.511 29.369,12.511C26.5,12.511 24.174,14.837 24.174,17.706C24.174,20.575 26.5,22.901 29.369,22.901Z" style="fill:white;fill-rule:nonzero;"/>
        </g>
        <g transform="matrix(3.98877,0,0,3.98877,-0.633361,-0.633864)">
            <path d="M55.239,66.159C56,66.159 56.617,65.542 56.617,64.781C56.617,64.02 56,63.403 55.239,63.403C54.478,63.403 53.861,64.02 53.861,64.781C53.861,65.542 54.478,66.159 55.239,66.159Z" style="fill:white;fill-rule:nonzero;"/>
        </g>
        <g transform="matrix(3.98877,0,0,3.98877,-0.633361,-0.633864)">
            <path d="M65.417,66.159C66.178,66.159 66.795,65.542 66.795,64.781C66.795,64.02 66.178,63.403 65.417,63.403C64.656,63.403 64.039,64.02 64.039,64.781C64.039,65.542 64.656,66.159 65.417,66.159Z" style="fill:white;fill-rule:nonzero;"/>
        </g>
        <g transform="matrix(3.98877,0,0,3.98877,-0.633361,-0.633864)">
            <path d="M65.29,69.085C65.86,69.085 66.325,69.535 66.349,70.1L66.349,70.168L66.365,70.168C66.201,73.064 63.726,75.437 60.41,75.437C57.093,75.437 54.822,73.167 54.518,70.358C54.486,70.204 54.489,70.045 54.527,69.892C54.565,69.739 54.636,69.597 54.735,69.475C54.835,69.353 54.96,69.255 55.102,69.187C55.244,69.12 55.4,69.085 55.557,69.085C56.142,69.085 56.276,69.59 56.617,70.145C56.958,70.701 57.698,73.438 60.431,73.438C63.163,73.438 63.875,70.714 64.229,70.146C64.584,69.577 64.679,69.11 65.244,69.086L65.29,69.086L65.29,69.085Z" style="fill:white;"/>
        </g>
        <g transform="matrix(3.98877,0,0,3.98877,-0.633361,-0.633864)">
            <path d="M64.852,17.56C65.368,17.939 65.804,18.416 66.136,18.964C66.468,19.512 66.689,20.12 66.785,20.753C66.882,21.386 66.854,22.032 66.701,22.654C66.548,23.276 66.274,23.862 65.895,24.378L30.87,72.058C30.491,72.574 30.014,73.011 29.466,73.343C28.918,73.674 28.31,73.895 27.677,73.992C27.044,74.089 26.398,74.06 25.775,73.907C25.153,73.754 24.568,73.481 24.051,73.102C23.535,72.722 23.099,72.245 22.767,71.697C22.435,71.149 22.214,70.542 22.117,69.908C22.02,69.275 22.049,68.629 22.202,68.007C22.355,67.385 22.629,66.799 23.008,66.283L58.033,18.603C58.412,18.087 58.889,17.65 59.437,17.319C59.985,16.987 60.593,16.766 61.226,16.669C61.859,16.573 62.505,16.601 63.127,16.754C63.749,16.907 64.335,17.181 64.851,17.56L64.852,17.56Z" style="fill:white;"/>
        </g>
    </g>
</svg>
