<?xml version="1.0" encoding="UTF-8" standalone="no"?>
<!DOCTYPE svg PUBLIC "-//W3C//DTD SVG 1.1//EN" "http://www.w3.org/Graphics/SVG/1.1/DTD/svg11.dtd">
<svg width="100%" height="100%" viewBox="0 0 154 24" version="1.1" xmlns="http://www.w3.org/2000/svg" xmlns:xlink="http://www.w3.org/1999/xlink" xml:space="preserve" xmlns:serif="http://www.serif.com/" style="fill-rule:evenodd;clip-rule:evenodd;stroke-linejoin:round;stroke-miterlimit:2;">
    <g id="Group">
        <path id="Shape" d="M103.68,2.396C103.68,1.073 104.753,0 106.076,0L125.283,0C126.606,0 127.679,1.073 127.68,2.396L127.68,24L116.64,24L116.64,16.8L114.72,16.8L114.72,24L103.68,24L103.68,2.396ZM118.56,11.04L118.56,9.12L112.8,9.12L112.8,11.04L118.56,11.04ZM0,2.396C0,1.073 1.073,0 2.396,0L21.603,0C22.239,-0 22.848,0.252 23.298,0.701C23.747,1.151 24,1.76 24,2.396L24,24L12.96,24L12.96,16.8L11.04,16.8L11.04,24L0,24L0,2.396ZM14.88,11.04L14.88,9.12L9.12,9.12L9.12,11.04L14.88,11.04Z"/>
        <path id="Shape1" serif:id="Shape" d="M25.92,2.396C25.921,1.073 26.992,0.001 28.315,0L47.522,0C48.845,0 49.918,1.073 49.918,2.396L49.918,7.2L38.88,7.2L38.88,5.28L36.96,5.28L36.96,9.12L47.524,9.12C48.16,9.12 48.769,9.373 49.219,9.822C49.668,10.272 49.92,10.881 49.92,11.517L49.92,21.604C49.92,22.24 49.667,22.849 49.218,23.299C48.768,23.748 48.159,24 47.523,24L28.316,24C26.993,24 25.92,22.927 25.919,21.604L25.919,16.8L36.959,16.8L36.959,18.72L38.879,18.72L38.879,14.88L28.316,14.88C26.992,14.88 25.919,13.807 25.919,12.483L25.919,2.396L25.92,2.396ZM75.84,3.84L64.8,3.84L64.8,0L53.76,0L53.76,3.84L51.84,3.84L51.84,12.96L53.76,12.96L53.76,21.603C53.76,22.238 54.012,22.848 54.461,23.298C54.91,23.747 55.52,24 56.155,24L75.838,24L75.838,14.88L64.8,14.88L64.8,12.96L73.444,12.96C74.767,12.959 75.84,11.886 75.84,10.563L75.84,3.84Z" style="fill-rule:nonzero;"/>
        <path id="Shape2" serif:id="Shape" d="M101.76,2.396C101.759,1.073 100.686,0 99.363,0L77.76,0L77.76,24L88.8,24L88.8,16.8L90.72,16.8L90.72,24L101.76,24L101.76,14.88L96.96,14.88L96.96,12.96L99.363,12.96C100.687,12.96 101.76,11.887 101.76,10.563L101.76,2.396ZM92.64,9.12L92.64,11.04L86.88,11.04L86.88,9.12L92.64,9.12Z"/>
        <path id="Path" d="M140.64,14.88L153.6,14.88L153.6,24L129.6,24L129.6,0L140.64,0L140.64,14.88Z" style="fill-rule:nonzero;"/>
    </g>
</svg>
