<?xml version="1.0" encoding="UTF-8" standalone="no"?>
<!DOCTYPE svg PUBLIC "-//W3C//DTD SVG 1.1//EN" "http://www.w3.org/Graphics/SVG/1.1/DTD/svg11.dtd">
<svg viewBox="0 0 1000 134" version="1.1" xmlns="http://www.w3.org/2000/svg" xmlns:xlink="http://www.w3.org/1999/xlink" xml:space="preserve" xmlns:serif="http://www.serif.com/" style="fill-rule:evenodd;clip-rule:evenodd;stroke-linejoin:round;stroke-miterlimit:2;">
    <g transform="matrix(1,0,0,1,447.5,59.6667)">
        <g transform="matrix(9.52381,0,0,9.52381,-447.5,-59.6667)">
            <path d="M26.793,3.469C26.285,3.469 25.823,3.775 25.632,4.244L23.185,10.193L24.505,10.193C24.858,10.193 25.173,9.977 25.296,9.651L25.461,9.22L28.123,9.22L28.287,9.651C28.411,9.977 28.729,10.193 29.078,10.193L30.399,10.193L27.952,4.244C27.764,3.775 27.302,3.469 26.793,3.469ZM26.07,7.629L26.793,5.733L27.517,7.629L26.07,7.629Z" style="fill-rule:nonzero;"/>
        </g>
        <g transform="matrix(9.52381,0,0,9.52381,-447.5,-59.6667)">
            <path d="M85.218,4.241C85.027,3.772 84.565,3.467 84.056,3.467C83.548,3.467 83.086,3.772 82.895,4.241L80.448,10.19L81.769,10.19C82.121,10.19 82.436,9.975 82.559,9.648L82.724,9.217L85.386,9.217L85.55,9.648C85.674,9.975 85.992,10.19 86.342,10.19L87.662,10.19L85.218,4.241ZM83.333,7.629L84.056,5.733L84.78,7.629L83.333,7.629Z" style="fill-rule:nonzero;"/>
        </g>
        <g transform="matrix(9.52381,0,0,9.52381,-447.5,-59.6667)">
            <path d="M35.502,10.307C37.343,10.307 38.64,9.136 38.64,7.219L38.64,4.308C38.64,3.845 38.261,3.469 37.793,3.469L36.89,3.469L36.89,7.126C36.908,8.02 36.549,8.646 35.502,8.646L35.517,8.646C34.47,8.646 34.114,8.02 34.129,7.126L34.129,4.308C34.129,3.845 33.749,3.469 33.282,3.469L32.379,3.469L32.379,7.219C32.379,9.136 33.673,10.307 35.517,10.307L35.502,10.307Z" style="fill-rule:nonzero;"/>
        </g>
        <g transform="matrix(9.52381,0,0,9.52381,-447.5,-59.6667)">
            <path d="M43.269,5.145L44.56,5.145C45.657,5.145 46.122,5.823 46.122,6.825C46.122,7.828 45.657,8.506 44.56,8.506L43.269,8.506L43.269,5.145ZM41.534,10.196L44.81,10.196C46.572,10.196 47.913,8.812 47.913,6.828L47.913,6.834C47.913,4.85 46.572,3.467 44.81,3.467L41.534,3.467L41.534,10.196Z" style="fill-rule:nonzero;"/>
        </g>
        <g transform="matrix(9.52381,0,0,9.52381,-447.5,-59.6667)">
            <path d="M100.356,5.145L101.647,5.145C102.744,5.145 103.209,5.823 103.209,6.825C103.209,7.828 102.744,8.506 101.647,8.506L100.356,8.506L100.356,5.145ZM98.621,10.196L101.897,10.196C103.659,10.196 105,8.812 105,6.828L105,6.834C105,4.85 103.659,3.467 101.897,3.467L98.621,3.467L98.621,10.196Z" style="fill-rule:nonzero;"/>
        </g>
        <g transform="matrix(9.52381,0,0,9.52381,-447.5,-59.6667)">
            <path d="M52.466,10.249L51.651,10.249C51.125,10.249 50.699,9.826 50.699,9.305L50.699,3.525L51.513,3.525C52.04,3.525 52.466,3.947 52.466,4.469L52.466,10.249Z" style="fill-rule:nonzero;"/>
        </g>
        <g transform="matrix(9.52381,0,0,9.52381,-447.5,-59.6667)">
            <path d="M60.298,3.525L55.169,3.525L55.169,4.367C55.169,4.83 55.549,5.206 56.016,5.206L57.272,5.206L57.272,10.249L59.04,10.249L59.04,5.206L61.143,5.206L61.143,4.364C61.146,3.901 60.766,3.525 60.298,3.525Z" style="fill-rule:nonzero;"/>
        </g>
        <g transform="matrix(9.52381,0,0,9.52381,-447.5,-59.6667)">
            <path d="M68.198,6.794C68.615,6.56 69.039,6.118 69.039,5.381C69.039,4.212 68.077,3.525 66.987,3.525L63.44,3.525L63.44,10.249L67.286,10.249C68.389,10.249 69.351,9.433 69.351,8.425C69.351,7.609 68.886,7.012 68.198,6.794ZM65.21,5.095L66.751,5.095C67.098,5.095 67.289,5.287 67.289,5.628C67.289,5.969 67.034,6.161 66.686,6.161L65.21,6.161L65.21,5.095ZM66.922,8.69L65.21,8.69L65.21,7.496L66.963,7.496C67.419,7.496 67.58,7.758 67.58,8.093C67.58,8.428 67.377,8.69 66.922,8.69Z" style="fill-rule:nonzero;"/>
        </g>
        <g transform="matrix(9.52381,0,0,9.52381,-447.5,-59.6667)">
            <path d="M78.783,6.887C78.783,8.812 77.162,10.374 75.166,10.374C73.166,10.374 71.548,8.812 71.548,6.887C71.548,4.961 73.168,3.4 75.166,3.4C77.162,3.4 78.783,4.961 78.783,6.887ZM75.163,5.051C74.145,5.051 73.322,5.873 73.322,6.887C73.322,7.901 74.145,8.722 75.163,8.722C76.18,8.722 77.004,7.901 77.004,6.887C77.004,5.873 76.18,5.051 75.163,5.051Z" style="fill-rule:nonzero;"/>
        </g>
        <g transform="matrix(9.52381,0,0,9.52381,-447.5,-59.6667)">
            <path d="M94.468,8.236C94.971,7.976 95.829,7.376 95.829,5.989C95.829,4.405 94.724,3.525 93.282,3.525L89.939,3.525L89.939,10.249L91.668,10.249L91.668,8.454L92.571,8.454L93.615,9.899C93.774,10.12 94.03,10.249 94.303,10.249L95.921,10.249L94.468,8.236ZM93.141,6.887L91.668,6.887L91.668,5.095L93.177,5.095C93.915,5.095 94.13,5.497 94.13,5.992C94.13,6.485 93.877,6.887 93.141,6.887Z" style="fill-rule:nonzero;"/>
        </g>
        <g transform="matrix(9.52381,0,0,9.52381,-447.5,-59.6667)">
            <path d="M4.506,6.522L6.603,8.617L7.278,9.291C6.678,8.672 6.309,7.828 6.309,6.897C6.309,4.992 7.854,3.449 9.76,3.449C10.731,3.449 11.608,3.851 12.236,4.495C12.431,4.69 12.918,5.177 12.918,5.177L15.014,7.271C15.45,7.706 15.994,7.973 16.561,8.074C17.471,8.236 18.445,7.97 19.143,7.271L19.52,6.894L14.598,1.978C14.155,1.543 13.654,1.167 13.105,0.864C12.114,0.314 10.974,0 9.76,0C6.349,0 3.518,2.472 2.959,5.719C3.526,5.82 4.07,6.086 4.506,6.522Z" style="fill-rule:nonzero;"/>
        </g>
        <g transform="matrix(9.52381,0,0,9.52381,-447.5,-59.6667)">
            <path d="M15.014,7.272L12.918,5.177L12.244,4.503C12.844,5.122 13.213,5.966 13.213,6.897C13.213,8.802 11.667,10.345 9.762,10.345C8.791,10.345 7.914,9.943 7.286,9.299C7.091,9.104 6.603,8.617 6.603,8.617L4.506,6.522C4.07,6.086 3.526,5.82 2.959,5.719C2.049,5.557 1.075,5.824 0.377,6.522L0,6.898L4.922,11.816C5.365,12.251 5.866,12.627 6.415,12.93C7.406,13.48 8.546,13.794 9.762,13.794C13.172,13.794 16.003,11.322 16.563,8.075C15.994,7.974 15.45,7.708 15.014,7.272Z" style="fill-rule:nonzero;"/>
        </g>
    </g>
</svg>
