<svg clip-rule="evenodd" fill-rule="evenodd" stroke-linejoin="round" stroke-miterlimit="2" viewBox="0 0 1000 132" xmlns="http://www.w3.org/2000/svg"><g fill-rule="nonzero" transform="scale(9.52381)"><path d="m26.793 3.469c-.508 0-.97.306-1.161.775l-2.447 5.949h1.32c.353 0 .668-.216.791-.542l.165-.431h2.662l.164.431c.124.326.442.542.791.542h1.321l-2.447-5.949c-.188-.469-.65-.775-1.159-.775zm-.723 4.16.723-1.896.724 1.896z"/><path d="m85.218 4.241c-.191-.469-.653-.774-1.162-.774-.508 0-.97.305-1.161.774l-2.447 5.949h1.321c.352 0 .667-.215.79-.542l.165-.431h2.662l.164.431c.124.327.442.542.792.542h1.32zm-1.885 3.388.723-1.896.724 1.896z"/><path d="m35.502 10.307c1.841 0 3.138-1.171 3.138-3.088v-2.911c0-.463-.379-.839-.847-.839h-.903v3.657c.018.894-.341 1.52-1.388 1.52h.015c-1.047 0-1.403-.626-1.388-1.52v-2.818c0-.463-.38-.839-.847-.839h-.903v3.75c0 1.917 1.294 3.088 3.138 3.088z"/><path d="m43.269 5.145h1.291c1.097 0 1.562.678 1.562 1.68 0 1.003-.465 1.681-1.562 1.681h-1.291zm-1.735 5.051h3.276c1.762 0 3.103-1.384 3.103-3.368v.006c0-1.984-1.341-3.367-3.103-3.367h-3.276z"/><path d="m100.356 5.145h1.291c1.097 0 1.562.678 1.562 1.68 0 1.003-.465 1.681-1.562 1.681h-1.291zm-1.735 5.051h3.276c1.762 0 3.103-1.384 3.103-3.368v.006c0-1.984-1.341-3.367-3.103-3.367h-3.276z"/><path d="m52.466 10.249h-.815c-.526 0-.952-.423-.952-.944v-5.78h.814c.527 0 .953.422.953.944z"/><path d="m60.298 3.525h-5.129v.842c0 .463.38.839.847.839h1.256v5.043h1.768v-5.043h2.103v-.842c.003-.463-.377-.839-.845-.839z"/><path d="m68.198 6.794c.417-.234.841-.676.841-1.413 0-1.169-.962-1.856-2.052-1.856h-3.547v6.724h3.846c1.103 0 2.065-.816 2.065-1.824 0-.816-.465-1.413-1.153-1.631zm-2.988-1.699h1.541c.347 0 .538.192.538.533s-.255.533-.603.533h-1.476zm1.712 3.595h-1.712v-1.194h1.753c.456 0 .617.262.617.597s-.203.597-.658.597z"/><path d="m78.783 6.887c0 1.925-1.621 3.487-3.617 3.487-2 0-3.618-1.562-3.618-3.487 0-1.926 1.62-3.487 3.618-3.487 1.996 0 3.617 1.561 3.617 3.487zm-3.62-1.836c-1.018 0-1.841.822-1.841 1.836s.823 1.835 1.841 1.835c1.017 0 1.841-.821 1.841-1.835s-.824-1.836-1.841-1.836z"/><path d="m94.468 8.236c.503-.26 1.361-.86 1.361-2.247 0-1.584-1.105-2.464-2.547-2.464h-3.343v6.724h1.729v-1.795h.903l1.044 1.445c.159.221.415.35.688.35h1.618zm-1.327-1.349h-1.473v-1.792h1.509c.738 0 .953.402.953.897 0 .493-.253.895-.989.895z"/><path d="m4.506 6.522 2.097 2.095.675.674c-.6-.619-.969-1.463-.969-2.394 0-1.905 1.545-3.448 3.451-3.448.971 0 1.848.402 2.476 1.046.195.195.682.682.682.682l2.096 2.094c.436.435.98.702 1.547.803.91.162 1.884-.104 2.582-.803l.377-.377-4.922-4.916c-.443-.435-.944-.811-1.493-1.114-.991-.55-2.131-.864-3.345-.864-3.411 0-6.242 2.472-6.801 5.719.567.101 1.111.367 1.547.803z"/><path d="m15.014 7.272-2.096-2.095-.674-.674c.6.619.969 1.463.969 2.394 0 1.905-1.546 3.448-3.451 3.448-.971 0-1.848-.402-2.476-1.046-.195-.195-.683-.682-.683-.682l-2.097-2.095c-.436-.436-.98-.702-1.547-.803-.91-.162-1.884.105-2.582.803l-.377.376 4.922 4.918c.443.435.944.811 1.493 1.114.991.55 2.131.864 3.347.864 3.41 0 6.241-2.472 6.801-5.719-.569-.101-1.113-.367-1.549-.803z"/></g></svg>