<?xml version="1.0" encoding="UTF-8"?>
<svg width="128.223541px" height="19.7381655px" viewBox="0 0 128.223541 19.7381655" version="1.1" xmlns="http://www.w3.org/2000/svg" xmlns:xlink="http://www.w3.org/1999/xlink">
    <title>Combined Shape</title>
    <g id="Page-1" stroke="none" stroke-width="1" fill="none" fill-rule="evenodd">
        <path d="M6.8480057,11.587742 L4.07239285,11.587742 L4.07239285,16.2748257 L6.8480057,16.2748257 C8.97511303,16.2748257 9.98680012,15.4934905 9.98680012,13.9312839 C9.98680012,12.3950521 8.97511303,11.587742 6.8480057,11.587742 L6.8480057,11.587742 Z M6.51069966,4.34885303 L4.07239285,4.34885303 L4.07239285,8.54125349 L6.51069966,8.54125349 C8.35248304,8.54125349 9.31241907,7.78589318 9.31241907,6.4059749 C9.31241907,4.97364292 8.35248304,4.34885303 6.51069966,4.34885303 L6.51069966,4.34885303 Z M0,1.19800098 L6.77014807,1.19800098 C11.1280959,1.19800098 13.2290967,3.20317299 13.2290967,6.17127284 C13.2290967,7.83784304 12.3472493,9.32212489 10.6611812,9.84324697 C12.8659151,10.3376984 14.1370506,11.9523187 14.1370506,14.0616224 C14.1370506,17.2384493 12.0878009,19.4256778 7.18531174,19.4256778 L0,19.4256778 L0,1.19800098 Z M24.7468272,14.8428184 C24.0465707,14.1656148 23.0866346,13.8270131 22.049072,13.8270131 C20.752061,13.8270131 20.0000533,14.400085 20.0000533,15.3634767 C20.0000533,16.3268684 20.752061,16.8999403 22.049072,16.8999403 C23.0866346,16.8999403 24.0465707,16.5613385 24.7468272,15.8843668 L24.7468272,14.8428184 Z M24.7468272,11.223258 C24.7468272,9.60863767 23.9426065,8.7234027 21.997321,8.7234027 C20.8560252,8.7234027 19.7403739,9.16590422 18.9363842,9.81690096 L16.7572947,7.70782923 C18.1841455,6.43181068 20.3630039,5.62473243 22.5420933,5.62473243 C26.9778988,5.62473243 28.5858782,7.94206746 28.5858782,11.4315213 L28.5858782,19.4255386 L24.7468272,19.4255386 L24.7468272,18.4621469 C23.8129978,19.2954321 22.5938444,19.7381655 20.9854028,19.7381655 C18.2878786,19.7381655 16.0050561,18.1495201 16.0050561,15.3634767 C16.0050561,12.5772014 18.2878786,10.9887879 20.9854028,10.9887879 C22.5938444,10.9887879 23.8129978,11.4315213 24.7468272,12.2648064 L24.7468272,11.223258 Z M31.932601,19.4255386 L35.8756162,19.4255386 L35.8756162,0.416758511 L31.932601,0.416758511 L31.932601,19.4255386 Z M39.4813254,19.4255386 L43.4243406,19.4255386 L43.4243406,5.93712738 L39.4813254,5.93712738 L39.4813254,19.4255386 Z M41.4527175,4.58318403 C40.1557064,4.58318403 39.1181438,3.5935855 39.1181438,2.29159202 C39.1181438,0.989598536 40.1557064,0 41.4527175,0 C42.7497285,0 43.7872911,0.989598536 43.7872911,2.29159202 C43.7872911,3.5935855 42.7497285,4.58318403 41.4527175,4.58318403 L41.4527175,4.58318403 Z M50.8431097,10.2077309 L50.8431097,19.425585 L46.9000945,19.425585 L46.9000945,5.93717376 L50.8431097,5.93717376 L50.8431097,7.44743054 C51.8030457,6.457832 53.4110252,5.6245469 55.2528086,5.6245469 C58.0542969,5.6245469 59.9480624,7.39548067 59.9480624,10.780571 L59.9480624,19.425585 L56.0050472,19.425585 L56.0050472,11.1973295 C56.0050472,9.60868405 55.3047906,8.72344908 53.8779399,8.72344908 C52.6590175,8.72344908 51.4916152,9.42639569 50.8431097,10.2077309 M63.9174383,14.1917985 L63.9174383,8.98359267 L61.6346157,8.98359267 L61.6346157,5.93710418 L63.9174383,5.93710418 L63.9174383,1.90101716 L67.8604535,1.90101716 L67.8604535,5.93710418 L71.0251234,5.93710418 L71.0251234,8.98359267 L67.8604535,8.98359267 L67.8604535,14.5823502 C67.8604535,16.0926069 68.3532438,16.6392401 69.9094722,16.6392401 C70.2985293,16.6392401 70.7136929,16.6392401 71.0251234,16.6132652 L71.0251234,19.6337787 C70.2985293,19.7121674 69.5982727,19.7381423 68.7940519,19.7381423 C65.1624672,19.7381423 63.9174383,18.097547 63.9174383,14.1917985 M81.5311438,1.19809375 L93.6709268,1.19809375 L93.6709268,4.5047954 L85.6552877,4.5047954 L85.6552877,8.41100776 L92.7629729,8.41100776 L92.7629729,11.7179413 L85.6552877,11.7179413 L85.6552877,16.1186051 L93.9042687,16.1186051 L93.9042687,19.4255386 L81.5311438,19.4255386 L81.5311438,1.19809375 Z M105.344373,8.80144346 C105.033173,8.77546852 104.695867,8.74949359 104.332455,8.74949359 C102.750351,8.74949359 101.349375,9.50439006 100.571261,10.676277 L100.571261,19.4256546 L96.628477,19.4256546 L96.628477,5.93724334 L100.571261,5.93724334 L100.571261,7.60358162 C101.401357,6.37997678 102.698368,5.62461647 104.514045,5.62461647 C104.773494,5.62461647 105.136675,5.6505914 105.344373,5.67656634 L105.344373,8.80144346 Z M110.765597,12.6815417 C110.765597,15.207372 111.751408,16.6392401 113.748676,16.6392401 C114.682737,16.6392401 115.798157,16.1967386 116.472538,15.4675851 L116.472538,9.89526641 C115.798157,9.16588103 114.682737,8.72337951 113.748676,8.72337951 C111.751408,8.72337951 110.765597,10.1554796 110.765597,12.6815417 M112.529523,5.62470924 C114.034,5.62470924 115.434975,6.22375611 116.472538,7.1871478 L116.472538,0.41673532 L120.415553,0.41673532 L120.415553,19.4257474 L116.472538,19.4257474 L116.472538,18.1759357 C115.434975,19.1390954 114.034,19.7381423 112.529523,19.7381423 C109.001902,19.7381423 106.770831,17.1341553 106.770831,12.6815417 C106.770831,8.2286962 109.001902,5.62470924 112.529523,5.62470924 M123.917575,19.4255386 L127.86059,19.4255386 L127.86059,5.93712738 L123.917575,5.93712738 L123.917575,19.4255386 Z M125.888967,4.58318403 C124.591956,4.58318403 123.554394,3.5935855 123.554394,2.29159202 C123.554394,0.989598536 124.591956,0 125.888967,0 C127.186209,0 128.223541,0.989598536 128.223541,2.29159202 C128.223541,3.5935855 127.186209,4.58318403 125.888967,4.58318403 L125.888967,4.58318403 Z" id="Combined-Shape" fill="#000000"></path>
    </g>
</svg>