<svg clip-rule="evenodd" fill-rule="evenodd" stroke-linejoin="round" stroke-miterlimit="2" viewBox="0 0 120 28" xmlns="http://www.w3.org/2000/svg"><g fill-rule="nonzero" transform="translate(-8 -4)"><path d="m9.853 12.67 9.234 5.328 5.507-3.181c.589-.344.79-1.098.452-1.687-.107-.187-.265-.345-.452-.453l-14.741-8.508c-.589-.345-1.343-.144-1.688.445-.108.186-.165.402-.165.625v8.501c0-.682.553-1.235 1.235-1.235.215 0 .431.058.618.165z"/><path d="m24.594 21.179-5.507-3.174-9.234 5.328c-.589.344-1.343.136-1.688-.453-.108-.186-.165-.402-.165-.617v8.502c0 .682.553 1.235 1.235 1.235.215 0 .431-.058.618-.166l14.741-8.508c.589-.345.79-1.099.452-1.688-.107-.186-.258-.344-.452-.459z"/><path d="m9.853 23.333 9.234-5.328-9.234-5.328c-.589-.344-1.343-.143-1.688.446-.108.186-.165.402-.165.624v8.523c0 .683.553 1.236 1.235 1.236.215-.008.431-.065.618-.173z"/><path d="m41.592 14.299c-1.695 0-3.064.804-3.853 2.046v-6.299h-2.53v15.655h2.53v-1.816c.789 1.242 2.158 2.069 3.876 2.069 3.18 0 5.455-2.552 5.455-5.839 0-3.288-2.275-5.816-5.478-5.816zm-.487 9.195c-1.95 0-3.366-1.54-3.366-3.379 0-1.862 1.416-3.356 3.366-3.356 1.926 0 3.342 1.494 3.342 3.356 0 1.839-1.416 3.379-3.342 3.379zm8.193-13.448h2.529v15.655h-2.529zm12.58 4.483h2.506v11.148h-2.506v-1.562c-.604 1.057-1.625 1.816-3.18 1.816-2.484 0-4.085-1.839-4.085-4.299v-7.103h2.53v6.413c0 1.517.882 2.529 2.367 2.529 1.416 0 2.321-.942 2.391-2.39v-6.553h-.023zm10.352-.23c-3.25 0-5.664 2.506-5.664 5.816 0 3.425 2.483 5.839 5.803 5.839 1.694 0 3.156-.483 4.131-1.012v-2.505c-.975.689-2.46 1.218-3.946 1.218-1.833 0-3.179-1.103-3.435-2.713h8.309c.093-.321.163-.827.163-1.264 0-2.943-2.135-5.379-5.361-5.379zm-3.134 4.712c.162-1.448 1.416-2.62 3.11-2.62 1.648 0 2.902 1.057 2.947 2.62zm15.899-4.712c.882 0 2.02.229 2.693.62v2.667c-.65-.483-1.579-.85-2.693-.85-1.926 0-3.365 1.517-3.365 3.379s1.439 3.379 3.365 3.379c1.091 0 2.066-.368 2.693-.85v2.643c-.697.414-1.811.667-2.693.667-3.505 0-5.918-2.552-5.918-5.839-.024-3.288 2.413-5.816 5.918-5.816zm10.166 0c-3.319 0-5.872 2.505-5.872 5.816 0 3.264 2.53 5.839 5.872 5.839 3.296 0 5.873-2.552 5.873-5.839-.024-3.288-2.577-5.816-5.873-5.816zm0 9.195c-1.88 0-3.319-1.517-3.319-3.379s1.439-3.379 3.319-3.379c1.903 0 3.296 1.517 3.296 3.379s-1.416 3.379-3.296 3.379zm16.712-7.149c-.836-1.264-2.182-2.046-3.853-2.046-3.226 0-5.501 2.505-5.501 5.816 0 3.264 2.274 5.839 5.478 5.839 1.671 0 3.04-.804 3.876-2.069v1.816h2.506v-15.655h-2.506zm-3.366 7.149c-1.927 0-3.365-1.54-3.365-3.379 0-1.862 1.439-3.356 3.365-3.356 1.927 0 3.366 1.494 3.366 3.356 0 1.839-1.439 3.379-3.366 3.379zm19.056-3.816c0-2.943-2.135-5.379-5.362-5.379-3.249 0-5.663 2.505-5.663 5.816 0 3.425 2.483 5.839 5.803 5.839 1.694 0 3.156-.483 4.131-1.012v-2.505c-.975.689-2.46 1.218-3.946 1.218-1.834 0-3.18-1.103-3.435-2.713h8.309c.093-.298.163-.827.163-1.264zm-8.495-.667c.162-1.448 1.416-2.62 3.11-2.62 1.648 0 2.901 1.057 2.947 2.62z"/></g></svg>