<svg viewBox="0 0 173 88" height="88" width="173" xmlns="http://www.w3.org/2000/svg"><g fill="none" fill-rule="evenodd"><path d="M14.666 59.184l6.406-3.202-14.659-7.327-6.365 3.182zm8.275-4.137l6.383-3.19L6.408 40.402l-6.382 3.19zm-.024-8.261l6.388-3.194-6.383-3.19-6.388 3.194z" fill="#808080"/><path d="M6.388 32.138L0 35.332l14.665 7.33 6.388-3.195-14.666-7.33zm16.534 6.395l6.408-3.202-6.387-3.192-6.41 3.201zM14.665 28l-6.41 3.204 6.411 3.202 6.408-3.202z" fill="#808080"/><path d="M50.57 38.318c-1.19-1.139-2.826-1.694-4.573-1.694-3.714 0-6.734 2.723-6.734 6.974 0 4.252 3.02 6.974 6.734 6.974 1.747 0 3.465-.528 4.657-1.638v1.972c-1.302.778-2.966 1.223-4.629 1.223-4.988 0-8.509-3.473-8.509-8.531 0-5.085 3.77-8.53 8.51-8.53 1.662 0 3.214.444 4.545 1.25zm9.632-1.583l-3.437 9.114h6.901zm-3.963 10.559L54.52 51.85h-1.774l6.376-16.506h2.188l6.458 16.506h-1.83l-1.718-4.557h-7.98zm16.008-3.251h1.718c2.717 0 4.324-1.278 4.324-3.807 0-2.112-1.302-3.667-4.656-3.667-.334 0-.998.027-1.386.055zm0 7.808H70.53V35.318c.748-.111 2.161-.25 3.132-.25 4.433 0 6.402 2.056 6.402 5.112 0 2.446-1.386 4.252-3.576 4.891l5.461 6.78h-2.135l-5.101-6.39h-2.466zm14.055-1.335a15.29 15.29 0 0 0 1.912.112c4.712 0 8.038-2.362 8.038-7.391 0-3.89-2.467-6.613-8.343-6.613-.526 0-1.025.027-1.607.083v13.81zm-1.719-15.225a30.34 30.34 0 0 1 3.381-.223c7.54 0 10.089 3.919 10.089 8.143 0 4.64-2.688 8.919-9.867 8.919-1.385 0-2.439-.11-3.603-.25V35.29zm16.04 13.671c1.33 1.056 2.522 1.695 4.183 1.695 1.97 0 3.66-.862 3.66-3.027 0-1.975-1.47-2.725-3.437-3.447-2.937-1.084-4.517-2.056-4.517-4.862 0-2.807 2.327-4.254 4.794-4.254 1.607 0 2.937.5 3.935 1.306v1.779c-1.33-1.055-2.44-1.612-3.935-1.612-1.857 0-3.132 1.112-3.132 2.807 0 1.584.941 2.362 3.325 3.195 3.05 1.056 4.656 2.195 4.656 5.085 0 3.029-2.383 4.502-5.349 4.502-1.774 0-3.186-.5-4.184-1.279v-1.889zm18.466 2.89h-1.718V36.847h-5.433v-1.502h12.584v1.502h-5.433V51.85zm11.758-15.116l-3.437 9.114h6.9zm-3.964 10.559l-1.719 4.557h-1.773l6.375-16.506h2.19l6.456 16.506h-1.83l-1.717-4.557zm25.595-8.974c-1.192-1.14-2.827-1.696-4.573-1.696-3.714 0-6.734 2.723-6.734 6.974 0 4.252 3.02 6.975 6.734 6.975 1.747 0 3.464-.528 4.657-1.64v1.973c-1.304.778-2.967 1.223-4.629 1.223-4.988 0-8.509-3.473-8.509-8.53 0-5.086 3.77-8.532 8.51-8.532a8.71 8.71 0 0 1 4.544 1.252v2zm12.896-2.974h2.133l-7.427 8.224 7.955 8.281h-2.217l-7.871-8.113zm-9.257 16.505h1.719V35.345h-1.719V51.85zm14.838-.954h.149c.22 0 .366-.086.366-.297 0-.194-.129-.297-.366-.297-.05 0-.1.005-.15.012v.582zm0 .948h-.431v-1.865c.19-.038.38-.057.575-.06.5 0 .806.227.806.664a.574.574 0 0 1-.35.55l.529.711h-.513l-.44-.615h-.177v.615zm.218.524c.824 0 1.42-.605 1.42-1.456 0-.852-.595-1.456-1.42-1.456-.822 0-1.418.604-1.418 1.456 0 .851.596 1.454 1.418 1.454zm0-3.111c.949 0 1.636.722 1.636 1.655 0 .932-.687 1.655-1.636 1.655-.945 0-1.633-.723-1.633-1.655 0-.933.688-1.656 1.633-1.656z" fill="#808080"/></g></svg>
