<?xml version="1.0" encoding="UTF-8" standalone="no"?>
<!DOCTYPE svg PUBLIC "-//W3C//DTD SVG 1.1//EN" "http://www.w3.org/Graphics/SVG/1.1/DTD/svg11.dtd">
<svg viewBox="0 0 173 32" version="1.1" xmlns="http://www.w3.org/2000/svg" xmlns:xlink="http://www.w3.org/1999/xlink" xml:space="preserve" xmlns:serif="http://www.serif.com/" style="fill-rule:evenodd;clip-rule:evenodd;stroke-linejoin:round;stroke-miterlimit:2;">
    <g transform="matrix(1,0,0,1,0,-28)">
        <path d="M14.666,59.184L21.072,55.982L6.413,48.655L0.048,51.837L14.666,59.184ZM22.941,55.047L29.324,51.857L6.408,40.402L0.026,43.592L22.941,55.047ZM22.917,46.786L29.305,43.592L22.922,40.402L16.534,43.596L22.917,46.786Z"/>
        <path d="M6.388,32.138L0,35.332L14.665,42.662L21.053,39.467L6.387,32.137L6.388,32.138ZM22.922,38.533L29.33,35.331L22.943,32.139L16.533,35.34L22.922,38.533ZM14.665,28L8.255,31.204L14.666,34.406L21.074,31.204L14.665,28Z"/>
        <path d="M50.57,38.318C49.38,37.179 47.744,36.624 45.997,36.624C42.283,36.624 39.263,39.347 39.263,43.598C39.263,47.85 42.283,50.572 45.997,50.572C47.744,50.572 49.462,50.044 50.654,48.934L50.654,50.906C49.352,51.684 47.688,52.129 46.025,52.129C41.037,52.129 37.516,48.656 37.516,43.598C37.516,38.513 41.286,35.068 46.026,35.068C47.688,35.068 49.24,35.512 50.571,36.318L50.57,38.318ZM60.202,36.735L56.765,45.849L63.666,45.849L60.202,36.735ZM56.239,47.294L54.52,51.85L52.746,51.85L59.122,35.344L61.31,35.344L67.768,51.85L65.938,51.85L64.22,47.293L56.24,47.293L56.239,47.294ZM72.247,44.043L73.965,44.043C76.682,44.043 78.289,42.765 78.289,40.236C78.289,38.124 76.987,36.569 73.633,36.569C73.299,36.569 72.635,36.596 72.247,36.624L72.247,44.043ZM72.247,51.851L70.53,51.851L70.53,35.318C71.278,35.207 72.691,35.068 73.662,35.068C78.095,35.068 80.064,37.124 80.064,40.18C80.064,42.626 78.678,44.432 76.488,45.071L81.949,51.851L79.814,51.851L74.713,45.461L72.247,45.461L72.247,51.851ZM86.302,50.516C86.936,50.593 87.575,50.631 88.214,50.628C92.926,50.628 96.252,48.266 96.252,43.237C96.252,39.347 93.785,36.624 87.909,36.624C87.383,36.624 86.884,36.651 86.302,36.707L86.302,50.517L86.302,50.516ZM84.583,35.291C85.705,35.154 86.834,35.079 87.964,35.068C95.504,35.068 98.053,38.987 98.053,43.211C98.053,47.851 95.365,52.13 88.186,52.13C86.801,52.13 85.747,52.02 84.583,51.88L84.583,35.29L84.583,35.291ZM100.623,48.962C101.953,50.018 103.145,50.657 104.806,50.657C106.776,50.657 108.466,49.795 108.466,47.63C108.466,45.655 106.996,44.905 105.029,44.183C102.092,43.099 100.512,42.127 100.512,39.321C100.512,36.514 102.839,35.067 105.306,35.067C106.913,35.067 108.243,35.567 109.241,36.373L109.241,38.152C107.911,37.097 106.801,36.54 105.306,36.54C103.449,36.54 102.174,37.652 102.174,39.347C102.174,40.931 103.115,41.709 105.499,42.542C108.549,43.598 110.155,44.737 110.155,47.627C110.155,50.656 107.772,52.129 104.806,52.129C103.032,52.129 101.62,51.629 100.622,50.85L100.622,48.961L100.623,48.962ZM119.089,51.852L117.371,51.852L117.371,36.847L111.938,36.847L111.938,35.345L124.522,35.345L124.522,36.847L119.089,36.847L119.089,51.852ZM130.847,36.736L127.41,45.85L134.31,45.85L130.847,36.736ZM126.883,47.295L125.164,51.852L123.391,51.852L129.766,35.346L131.956,35.346L138.412,51.852L136.582,51.852L134.865,47.295L126.883,47.295ZM152.478,38.321C151.286,37.181 149.651,36.625 147.905,36.625C144.191,36.625 141.171,39.348 141.171,43.599C141.171,47.851 144.191,50.574 147.905,50.574C149.652,50.574 151.369,50.046 152.562,48.934L152.562,50.907C151.258,51.685 149.595,52.13 147.933,52.13C142.945,52.13 139.424,48.657 139.424,43.6C139.424,38.514 143.194,35.068 147.934,35.068C149.535,35.06 151.107,35.493 152.478,36.32L152.478,38.321ZM165.374,35.347L167.507,35.347L160.08,43.571L168.035,51.852L165.818,51.852L157.947,43.739L165.374,35.347ZM156.117,51.852L157.836,51.852L157.836,35.345L156.117,35.345L156.117,51.852ZM170.954,50.898L171.104,50.898C171.324,50.898 171.47,50.812 171.47,50.601C171.47,50.407 171.341,50.304 171.104,50.304C171.054,50.304 171.004,50.309 170.954,50.316L170.954,50.898ZM170.955,51.846L170.524,51.846L170.524,49.981C170.714,49.943 170.904,49.924 171.099,49.921C171.599,49.921 171.905,50.148 171.905,50.585C171.914,50.823 171.774,51.042 171.555,51.135L172.084,51.846L171.571,51.846L171.131,51.231L170.954,51.231L170.954,51.846L170.955,51.846ZM171.173,52.37C171.997,52.37 172.593,51.765 172.593,50.914C172.593,50.062 171.998,49.458 171.173,49.458C170.351,49.458 169.755,50.062 169.755,50.914C169.755,51.765 170.351,52.368 171.173,52.368L171.173,52.37ZM171.173,49.259C172.122,49.259 172.809,49.981 172.809,50.914C172.809,51.846 172.122,52.569 171.173,52.569C170.228,52.569 169.54,51.846 169.54,50.914C169.54,49.981 170.228,49.258 171.173,49.258L171.173,49.259Z"/>
    </g>
</svg>
