<svg viewBox="0 0 400 400" xmlns="http://www.w3.org/2000/svg"><path d="m151.22294 16.583514c-77.962784.000056-141.222946 63.260104-141.222946 141.222946.000028 11.52758 1.379803 23.04937 4.167718 34.22693.000031-.00006 30.206737 120.82695 30.206737 120.82695.000024 0 19.658353-10.65904 19.658353-10.65904.000002 0-10.585267-42.45171-10.585267-42.45171 26.304537 25.22228 61.335755 39.27982 97.775405 39.27982 11.42486.00008 22.77221-1.34996 33.8581-4.09395 0 .00002-84.52011 87.66268-85.309132 88.48103h29.579732c.79337-.8189 123.33496-127.31826 123.33496-127.31826 13.44557-13.87951 23.91354-30.40973 30.72309-48.50044-.00004-.00007 36.31005 175.01511 36.47675 175.8187h22.31389c-.16663-.80478-52.66815-254.30458-52.66815-254.30458-7.69676-37.220238-30.04567-69.6962-62.0363-90.214506-.00003-.000086 161.98939 0 162.50413 0 0-4.329397 0-20.148373 0-22.31389-.51525.000055-238.77707 0-238.77707 0zm.11065 22.498302c65.92563-.000023 119.38853 53.505312 119.38853 119.425414-.00003 65.92011-53.46292 119.4623-119.38853 119.4623-65.914684-.00007-119.499178-53.5422-119.499178-119.4623.000029-65.920078 53.584482-119.425414 119.499178-119.425414zm52.63127 18.441232c-.75817-.006059-1.49392.012648-2.24983.036882-46.86656 1.502445-90.09319 26.207321-115.183926 66.05649.000023-.00008 18.367466 0 18.367466 0 23.84488-32.057138 61.41593-50.93468 101.35301-50.93468 9.40403-.000059 18.75666.983646 27.92002 3.061244-7.00827-7.033621-14.90961-13.066512-23.45725-18.109289-1.50858-.055968-2.9654-.073765-4.46277-.073765-.7595 0-1.52854-.030824-2.28672-.036882zm153.9474 9.220615c0-.00003-16.1914 91.505387-16.1914 91.505387-11.78587-39.25587-40.02061-71.463091-77.3794-88.296613 6.58281 8.422444 12.22223 17.661554 16.78152 27.329905 32.35172 23.799898 51.41415 61.473848 51.41415 101.648068-.00004 20.36423-4.92362 40.50943-14.34728 58.56935-.00003-.00001 4.46278 21.76065 4.46278 21.76065 11.5228-16.71317 19.29812-35.67213 22.83024-55.65563 0 .00001 27.80938-156.861117 27.80938-156.861117 0-.000003-15.37999 0-15.37999 0zm-292.994279 126.691257c-.076715 1.85922-.184413 3.63629-.184413 5.49549.000025 15.55386 2.568569 31.06 7.597788 45.77113 7.324857 6.70598 15.452677 12.4398 24.231777 17.07658-10.954622-19.11838-16.707755-40.82022-16.707755-62.84771-.000024-1.85927.097098-3.63629.184412-5.49549-.000023.00004-15.121809 0-15.121809 0zm232.728339 92.7594c-23.84323 24.9899-56.85718 39.09541-91.39474 39.09541-5.68446.00001-11.4093-.37897-17.0397-1.14336-.00005-.00007-12.6138 13.13016-12.6138 13.13016 9.75224 2.08888 19.6835 3.17189 29.6535 3.17189 35.13928.00009 68.94042-13.04888 94.97234-36.66117-.00004.00001-3.5776-17.59293-3.5776-17.59293zm-197.763765 6.12248c13.687925 15.58476 30.668225 27.97918 49.680675 36.29235 0 .00002 11.28604-11.72863 11.28604-11.72863-10.71447-4.12158-20.76889-9.67738-29.98545-16.52334-10.57229-1.52048-20.99953-4.22399-30.981265-8.04038z"/><g transform="matrix(2.7988304 0 0 2.7999872 -78.22184 -83.809933)"><path d="m64.32703 79.14032c-.2773 0-.6094-.054-.8867.059.0508 1.992-.1133 3.988.0508 5.984 2.5507-.054 5.1015.11 7.6523-.109.0547.441-.0547.832.0547 1.273-2.6055-.164-5.1563-.164-7.7578-.054.0508 2.324-.1133 4.656.0508 6.984 2.8281 0 5.6562 0 8.4843-.277-.1093.445-.1093.941 0 1.387-3.6015 0-7.207 0-10.8086 0 0-5.434 0-10.922 0-16.352 3.5469.055 7.0938-.113 10.6407.055-.1094.441-.0547.941 0 1.386-2.4922-.445-4.9844-.336-7.4805-.336z"/><path d="m82.89343 84.90632c.7266-.383 1.332-.941 1.6641-1.719.4453-1.218.2773-2.66-.8321-3.547-.7226-.554-1.6054-.718-2.4414-.718-1.4922-.114-2.9922-.168-4.4843.05.0546 2.219-.1133 4.383.0546 6.602 1.9922-.059 4.1563.332 6.0391-.668zm-5.4297 1.496c-.168 0-.5-.055-.5.059-.164 2.66-.0547 5.32-.0547 7.98-.7773-.054-1.5-.054-2.2734 0 0-5.488 0-10.918 0-16.406 3.0469.109 5.9844-.223 9.0898.223 1.1641.164 2.3828.55 3.0469 1.605.7774 1.219.6133 2.719-.1641 3.938-1.164 1.605-2.9921 2.046-4.7695 2.492 2.3867 2.773 4.7695 5.488 7.207 8.148-.996-.054-2.0507-.054-3.0468 0-2.2188-2.773-4.5469-5.488-6.9844-8.039-.5 0-1.0547 0-1.5508 0z"/><path d="m92.81533 82.02332c-.1953-.195-.4414-.664-.7735-.441v12.859c-.5-.054-.9453-.113-1.4414 0 0-5.488 0-10.918 0-16.406.3282 0 .7188-.113.8868.055 4.5429 4.047 8.3672 8.148 12.7502 12.304.054 0 .273.055.273-.054.055-4.102 0-8.153 0-12.25.5.054.946.054 1.442 0 0 5.433.168 10.918-.11 16.351 0 0-.496.11-.613-.054-4.211-4.215-8.1993-8.149-12.4141-12.364z"/><path d="m57.33873 79.86332c-2.9883-2.137-7.2031-1.773-9.6406.996-1.7734 2.055-2.1602 4.77-1.6094 7.43.4453 2.383 1.9961 4.269 4.2149 5.098 2.8281 1.054 5.9843.277 8.3125-1.493 0 .496-.1094.996-.1094 1.493-2.1094 1.164-4.5469 1.441-6.9297 1.332-2.8242-.168-5.6523-1.387-7.1523-3.938-1.4922-2.66-1.6602-5.93-.1094-8.644 2.9375-5.102 9.8125-5.325 14.6914-3.329-.2774.559-.3906 1.223-.5547 1.832-.4453-.113-.7227-.5-1.1133-.777z"/></g></svg>