<svg clip-rule="evenodd" fill-rule="evenodd" stroke-linejoin="round" stroke-miterlimit="2" viewBox="0 0 120 52" xmlns="http://www.w3.org/2000/svg"><path d="m78.695.039c-.805 0-1.46.655-1.46 1.46v13.01l-10.974-13.923c-.387-.483-1.039-.669-1.623-.465-.584.205-.977.759-.977 1.377v17.168c0 .806.655 1.46 1.46 1.46.806 0 1.46-.654 1.46-1.46v-13.14l10.975 14.053c.279.348.694.547 1.139.547.164 0 .327-.028.483-.082.584-.205.977-.758.977-1.378v-17.167c0-.805-.655-1.46-1.46-1.46z"/><path d="m15.753 16.602c-.251-.314-.619-.487-1.037-.487-.208 0-.521.04-.826.231-1.128.682-2.364 1.014-3.776 1.014-4.247 0-7.1-2.929-7.1-7.29 0-4.291 2.775-7.288 6.749-7.288 1.455 0 2.667.271 3.706.831l.008.004c.256.128.518.193.779.193.483 0 .856-.211 1.106-.616.134-.201.211-.446.211-.674 0-.46-.249-.873-.706-1.167-1.362-.835-3.233-1.314-5.131-1.314-5.732 0-9.736 4.125-9.736 10.031 0 6.001 3.977 10.033 9.898 10.033 2.016 0 4.011-.592 5.475-1.626.39-.284.633-.726.633-1.153 0-.274-.089-.525-.253-.722z"/><path d="m94.737 20.126c2.287 0 4.949-.863 6.623-2.144.231-.174.771-.67.771-1.516v-5.913c0-.795-.647-1.441-1.441-1.441h-6.308c-.737 0-1.36.635-1.36 1.387s.623 1.387 1.36 1.387h4.975v3.961c-.968.863-2.898 1.504-4.566 1.504-4.202 0-6.918-2.853-6.918-7.269 0-4.347 2.748-7.269 6.837-7.269 1.285 0 2.526.297 3.586.855.268.149.563.227.851.227.491 0 .923-.238 1.159-.641.134-.235.202-.477.202-.719 0-.459-.277-.903-.718-1.155-1.504-.89-3.304-1.341-5.35-1.341-5.57 0-9.612 4.223-9.612 10.043 0 6.102 3.89 10.044 9.909 10.044z"/><path d="m118.54 17.145h-8.806v-5.563h7.101c.778 0 1.411-.633 1.411-1.411 0-.779-.607-1.412-1.411-1.412h-7.111v-5.684h8.816c.805 0 1.46-.655 1.46-1.46 0-.804-.655-1.459-1.46-1.459h-10.276c-.805 0-1.459.655-1.459 1.459v16.99c0 .805.654 1.46 1.459 1.46h10.276c.805 0 1.46-.655 1.46-1.46s-.655-1.46-1.46-1.46z"/><path d="m35.767 18.635v-17.156c0-.781-.672-1.44-1.469-1.44-.824 0-1.495.646-1.495 1.44v7.284h-9.453v-7.284c0-.781-.673-1.44-1.468-1.44-.825 0-1.496.646-1.496 1.44v17.156c0 .809.671 1.468 1.496 1.468.81 0 1.468-.659 1.468-1.468v-7.047h9.453v7.047c0 .809.671 1.468 1.495 1.468.81 0 1.469-.659 1.469-1.468z"/><path d="m50.958.734c-.233-.451-.698-.733-1.205-.734h-.001c-.507 0-.971.282-1.205.732l-9.018 17.352c-.219.421-.203.926.044 1.332.246.405.686.652 1.161.652h6.562c.75 0 1.358-.607 1.358-1.358 0-.749-.608-1.357-1.358-1.357h-4.326l6.779-13.045 6.746 13.045h-4.331c-.75 0-1.358.608-1.358 1.357 0 .751.608 1.358 1.358 1.358h6.563c.473 0 .913-.247 1.159-.651.247-.405.265-.909.047-1.33z"/><path d="m22.368 27.404c-.515 0-.918.403-.918.918v2.74h-3.721v-2.74c0-.515-.403-.918-.918-.918-.521 0-.929.403-.929.918v7.428c0 .515.408.918.929.918.515 0 .918-.403.918-.918v-2.941h3.721v2.941c0 .515.403.918.918.918.514 0 .917-.403.917-.918v-7.428c0-.515-.403-.918-.917-.918z"/><path d="m31.196 34.82h-2.816v-1.973h2.313c.479 0 .855-.386.855-.879 0-.487-.376-.868-.855-.868h-2.313v-1.886h2.69c.479 0 .854-.386.854-.879 0-.487-.375-.868-.854-.868h-3.684c-.471 0-.854.384-.854.855v7.391c0 .471.383.855.854.855h3.81c.479 0 .855-.387.855-.88 0-.487-.376-.868-.855-.868z"/><path d="m39.534 32.67h-2.128l1.069-2.604zm-.027-4.546c-.259-.595-.676-.72-.981-.72-.46 0-.798.242-1.006.72l-3.129 7.353c-.049.113-.076.232-.076.336 0 .479.382.855.867.855.384 0 .677-.191.806-.521l.704-1.729h3.556l.69 1.677c.086.214.316.573.895.573.478 0 .867-.384.867-.855 0-.108-.024-.225-.075-.361z"/><path d="m50.157 34.82h-3.043v-6.499c0-.514-.403-.917-.917-.917-.522 0-.93.403-.93.917v7.329c0 .514.403.917.918.917h3.972c.506 0 .918-.394.918-.88 0-.47-.421-.867-.918-.867z"/><path d="m58.481 27.467h-5.846c-.479 0-.854.381-.854.868 0 .493.375.879.854.879h1.999v6.536c0 .515.409.918.931.918.514 0 .917-.403.917-.918v-6.536h1.999c.479 0 .855-.386.855-.879 0-.487-.376-.868-.855-.868z"/><path d="m68.476 27.404c-.513 0-.917.403-.917.918v2.74h-3.721v-2.74c0-.515-.404-.918-.918-.918-.522 0-.93.403-.93.918v7.428c0 .515.408.918.93.918.514 0 .918-.403.918-.918v-2.941h3.721v2.941c0 .515.404.918.917.918.515 0 .918-.403.918-.918v-7.428c0-.515-.403-.918-.918-.918z"/><path d="m78.243 34.634c-.448.218-.888.325-1.341.325-1.729 0-2.892-1.182-2.892-2.942 0-1.759 1.092-2.941 2.715-2.941.424 0 .829.088 1.271.276.15.068.306.101.477.101.321 0 .587-.151.751-.435.081-.161.116-.294.116-.432 0-.324-.21-.62-.559-.788-.581-.298-1.33-.469-2.056-.469-2.781 0-4.65 1.884-4.65 4.688 0 2.805 1.883 4.689 4.688 4.689 1.067 0 1.805-.188 2.471-.627.259-.168.42-.453.42-.743 0-.18-.051-.344-.155-.493-.274-.363-.65-.469-1.256-.209z"/><path d="m86.611 32.67h-2.128l1.069-2.604zm-.028-4.546c-.258-.595-.675-.72-.98-.72-.46 0-.799.242-1.006.72l-3.13 7.353c-.049.113-.075.232-.075.336 0 .479.38.855.866.855.384 0 .678-.191.808-.521l.702-1.729h3.557l.69 1.677c.085.214.315.573.894.573.478 0 .867-.384.867-.855 0-.108-.023-.225-.075-.361z"/><path d="m93.877 29.211.042-.001c.332-.01.62-.019.863-.019.999 0 1.484.37 1.484 1.131 0 .89-.826 1.207-1.534 1.207h-.855zm2.718 3.68c.809-.354 1.607-1.19 1.607-2.581 0-1.308-.581-2.867-3.344-2.867-.176 0-1.171.013-1.911.026-.515 0-.918.403-.918.917v7.366c0 .515.409.918.93.918.515 0 .918-.403.918-.918v-2.476h.855l2.129 2.893c.222.3.45.501.837.501.501 0 .893-.376.893-.855 0-.195-.066-.387-.194-.557z"/><path d="m105.872 34.82h-2.815v-1.973h2.312c.479 0 .855-.386.855-.879 0-.487-.376-.868-.855-.868h-2.312v-1.886h2.69c.479 0 .854-.386.854-.879 0-.487-.375-.868-.854-.868h-3.684c-.471 0-.855.384-.855.855v7.391c0 .471.384.855.855.855h3.809c.479 0 .855-.387.855-.88 0-.487-.376-.868-.855-.868z"/><g fill-rule="nonzero"><path d="m32.07 49.182h-.72v-6.3h2.277c.606 0 1.092.174 1.458.522.372.342.558.783.558 1.323s-.189.984-.567 1.332c-.378.342-.861.513-1.449.513h-1.557zm1.485-5.688h-1.485v2.466h1.485c.426 0 .759-.114.999-.342.246-.234.369-.531.369-.891s-.123-.654-.369-.882c-.24-.234-.573-.351-.999-.351z"/><path d="m37.816 49.281c-.438 0-.792-.117-1.062-.351-.264-.234-.396-.528-.396-.882 0-.396.123-.708.369-.936.252-.228.675-.393 1.269-.495l1.386-.252v-.207c0-.324-.102-.591-.306-.801-.198-.21-.468-.315-.81-.315-.324 0-.585.084-.783.252-.192.168-.321.396-.387.684l-.639-.153c.018-.09.042-.177.072-.261.036-.09.075-.174.117-.252.048-.084.102-.162.162-.234s.126-.141.198-.207c.078-.066.162-.123.252-.171.096-.054.195-.099.297-.135.108-.036.225-.063.351-.081.126-.024.258-.036.396-.036.564 0 .996.159 1.296.477.306.318.459.729.459 1.233v3.024h-.666v-.594c-.198.204-.435.372-.711.504-.276.126-.564.189-.864.189zm-.765-1.296c0 .222.078.399.234.531.156.126.366.189.63.189.294 0 .564-.066.81-.198.252-.138.471-.309.657-.513v-1.08l-.981.171c-.522.096-.879.213-1.071.351-.186.132-.279.315-.279.549z"/><path d="m41.531 49.182v-4.644h.666l.009.765c.216-.342.48-.582.792-.72.318-.138.648-.186.99-.144l.027.657c-.378-.048-.723-.003-1.035.135-.306.132-.564.378-.774.738v3.213z"/><path d="m47.76 48.28.09.767c-.12.06-.267.111-.441.153-.168.042-.354.063-.558.063-.384 0-.702-.099-.954-.297-.246-.204-.369-.531-.369-.981v-2.853h-.9v-.594h.9v-1.332h.675v1.332h1.485v.594h-1.485v2.736c0 .276.072.474.216.594.15.12.333.18.549.18.126 0 .243-.009.351-.027.108-.024.315-.275.441-.335z"/><path d="m50.01 46.869c0-.156.012-.306.036-.45s.057-.282.099-.414c.048-.138.102-.267.162-.387.066-.12.141-.231.225-.333.084-.108.174-.204.27-.288.102-.09.207-.168.315-.234.114-.072.234-.132.36-.18s.255-.084.387-.108c.138-.024.279-.036.423-.036s.282.012.414.036c.138.024.267.06.387.108.126.048.246.105.36.171s.219.144.315.234c.096.084.186.18.27.288.084.102.156.213.216.333.066.12.12.249.162.387.048.132.084.273.108.423.024.144.036.294.036.45 0 .15-.012.297-.036.441s-.06.285-.108.423c-.042.132-.096.258-.162.378-.06.12-.132.234-.216.342-.084.102-.174.198-.27.288-.096.084-.201.162-.315.234-.114.066-.234.123-.36.171-.12.048-.249.084-.387.108-.132.024-.27.036-.414.036s-.285-.012-.423-.036c-.132-.024-.261-.06-.387-.108s-.246-.105-.36-.171c-.108-.072-.213-.15-.315-.234-.096-.09-.186-.186-.27-.288s-.159-.213-.225-.333c-.06-.12-.114-.246-.162-.378-.042-.138-.075-.279-.099-.423s-.036-.294-.036-.45zm.693 0c0 .534.147.969.441 1.305.3.336.681.504 1.143.504s.84-.168 1.134-.504c.3-.336.45-.771.45-1.305 0-.54-.15-.978-.45-1.314-.294-.336-.672-.504-1.134-.504s-.843.168-1.143.504c-.294.336-.441.774-.441 1.314z"/><path d="m58.116 44.538v.594h-1.476v4.05h-.675v-4.05h-.9v-.594h.9v-.711c0-.42.123-.753.369-.999.252-.252.585-.378.999-.378.216 0 .411.03.585.09.174.054.318.123.432.207l-.315.513c-.114-.06-.225-.108-.333-.144-.102-.036-.219-.054-.351-.054-.216 0-.39.063-.522.189-.126.126-.189.306-.189.54v.747z"/><path d="m63.219 42.783c.168 0 .333.015.495.045.168.024.327.063.477.117.156.048.303.111.441.189.144.072.279.156.405.252s.243.204.351.324c.114.114.216.237.306.369.096.132.18.273.252.423s.132.309.18.477c.054.162.093.333.117.513.03.174.045.354.045.54s-.015.369-.045.549c-.024.174-.063.345-.117.513-.048.162-.108.318-.18.468s-.156.291-.252.423c-.09.132-.192.258-.306.378-.108.114-.225.219-.351.315s-.261.183-.405.261c-.138.072-.285.135-.441.189-.15.048-.309.084-.477.108-.162.03-.327.045-.495.045s-.336-.015-.504-.045c-.162-.024-.321-.06-.477-.108-.15-.054-.297-.117-.441-.189-.138-.078-.27-.165-.396-.261s-.246-.201-.36-.315c-.108-.12-.21-.246-.306-.378-.09-.132-.171-.273-.243-.423s-.135-.306-.189-.468c-.048-.168-.087-.339-.117-.513-.024-.18-.036-.363-.036-.549s.012-.366.036-.54c.03-.18.069-.351.117-.513.054-.168.117-.327.189-.477s.153-.291.243-.423c.096-.132.198-.255.306-.369.114-.12.234-.228.36-.324s.258-.18.396-.252c.144-.078.291-.141.441-.189.156-.054.315-.093.477-.117.168-.03.336-.045.504-.045zm0 5.868c.15 0 .294-.012.432-.036.138-.03.27-.069.396-.117.132-.054.255-.117.369-.189.12-.072.231-.156.333-.252s.195-.198.279-.306c.084-.114.159-.234.225-.36.066-.132.123-.27.171-.414.048-.15.084-.303.108-.459s.036-.318.036-.486-.012-.33-.036-.486-.06-.306-.108-.45c-.048-.15-.105-.288-.171-.414-.066-.132-.141-.252-.225-.36-.084-.114-.177-.219-.279-.315s-.213-.18-.333-.252c-.114-.072-.237-.132-.369-.18-.126-.054-.258-.093-.396-.117-.138-.03-.282-.045-.432-.045s-.294.015-.432.045c-.138.024-.273.063-.405.117-.126.048-.249.108-.369.18-.114.072-.222.156-.324.252s-.195.201-.279.315c-.084.108-.159.228-.225.36-.066.126-.123.264-.171.414-.048.144-.084.294-.108.45s-.036.318-.036.486.012.33.036.486.06.309.108.459c.048.144.105.282.171.414.066.126.141.246.225.36.084.108.177.21.279.306s.21.18.324.252c.12.072.243.135.369.189.132.048.267.087.405.117.138.024.282.036.432.036z"/><path d="m67.485 51.171v-6.633h.666l.009.504c.174-.186.384-.33.63-.432.246-.108.51-.162.792-.162.144 0 .282.012.414.036s.258.06.378.108c.126.048.243.108.351.18.108.066.21.144.306.234s.183.189.261.297c.084.102.156.213.216.333.066.12.12.246.162.378s.075.27.099.414.036.291.036.441-.012.297-.036.441-.057.282-.099.414-.096.258-.162.378c-.06.12-.132.231-.216.333-.078.102-.165.198-.261.288s-.201.171-.315.243c-.108.066-.225.123-.351.171-.12.048-.246.084-.378.108-.132.03-.27.045-.414.045-.276 0-.537-.048-.783-.144-.24-.102-.45-.24-.63-.414v2.439zm2.025-6.111c-.264 0-.51.057-.738.171-.228.108-.282.322-.462.526v2.207c.186.216.243.435.471.543s.471.162.729.162c.468 0 .852-.168 1.152-.504.306-.342.459-.774.459-1.296 0-.126-.012-.249-.036-.369-.018-.12-.048-.234-.09-.342-.036-.114-.081-.219-.135-.315s-.117-.183-.189-.261c-.072-.084-.15-.156-.234-.216-.084-.066-.177-.12-.279-.162-.096-.048-.198-.084-.306-.108s-.222-.036-.342-.036z"/><path d="m75.381 48.489.18.558c-.12.06-.267.111-.441.153-.168.042-.354.063-.558.063-.384 0-.702-.099-.954-.297-.246-.204-.369-.531-.369-.981v-2.853h-.9v-.594h.9v-1.332h.675v1.332h1.485v.594h-1.485v2.736c0 .276.072.474.216.594.15.12.333.18.549.18.126 0 .243-.009.351-.027.108-.024.225-.066.351-.126z"/><path d="m78.075 49.29c-.504 0-.909-.159-1.215-.477-.3-.318-.45-.726-.45-1.224v-3.051h.675v2.925c0 .396.105.696.315.9.216.204.486.306.81.306.222 0 .453-.048.693-.144s.462-.252.666-.468v-3.519h.675v4.644h-.666l-.009-.504c-.192.198-.417.351-.675.459-.258.102-.531.153-.819.153z"/><path d="m81.584 49.182v-4.644h.666l.009.549c.186-.204.402-.363.648-.477.252-.114.528-.171.828-.171.324 0 .609.075.855.225.246.144.435.339.567.585.192-.246.432-.441.72-.585.288-.15.606-.225.954-.225.492 0 .885.159 1.179.477.3.312.45.717.45 1.215v3.051h-.675v-2.916c0-.396-.102-.696-.306-.9-.204-.21-.465-.315-.783-.315-.264 0-.513.063-.747.189-.228.126-.438.3-.63.522.012.06.021.123.027.189.006.06.009.12.009.18v3.051h-.675v-2.916c0-.396-.102-.696-.306-.9-.204-.21-.465-.315-.783-.315-.246 0-.483.06-.711.18-.228.114-.435.273-.621.477v3.474z"/></g><path d="m32.22 49.332h-1.02v-6.6h2.427c.636 0 1.162.183 1.561.563.404.372.605.854.605 1.432 0 .58-.205 1.064-.615 1.442l-.001.001c-.41.371-.931.552-1.55.552h-1.407zm2.865-5.928c-.366-.348-.852-.522-1.458-.522h-2.277v6.3h.72v-2.61h1.557c.588 0 1.071-.171 1.449-.513.378-.348.567-.792.567-1.332s-.186-.981-.558-1.323zm-.635.548c-.205-.199-.497-.308-.895-.308h-1.335v2.166h1.335c.399 0 .691-.106.896-.301.214-.203.322-.46.322-.782s-.108-.575-.321-.772zm.104 1.666c-.24.228-.573.342-.999.342h-1.485v-2.466h1.485c.426 0 .759.117.999.351.246.228.369.522.369.882s-.123.657-.369.891zm2.102 3.425-.001-.001c-.297-.262-.447-.597-.447-.994 0-.429.135-.784.417-1.046l.001-.001c.284-.257.741-.428 1.344-.532l1.262-.229v-.082c0-.289-.09-.517-.264-.696l-.001-.002c-.165-.174-.392-.268-.701-.268-.297 0-.52.076-.685.216-.164.144-.279.342-.339.604l-.034.147-.926-.222.028-.141c.019-.097.045-.191.078-.282l.002-.006c.038-.094.079-.184.124-.267l.002-.003c.052-.092.111-.177.177-.256.064-.077.135-.151.212-.221l.004-.004c.086-.073.178-.136.277-.188.103-.058.209-.107.319-.145l.003-.001c.116-.039.241-.068.373-.087.135-.025.276-.038.421-.038.592 0 1.069.168 1.405.524.336.35.5.8.5 1.336v3.174h-.966v-.409c-.15.117-.316.218-.496.304l-.003.001c-.295.135-.604.203-.926.203-.466 0-.857-.125-1.16-.388zm2.585-.314c.052-.045.102-.092.15-.141v.594h.666v-3.024c0-.504-.153-.915-.459-1.233-.3-.318-.732-.477-1.296-.477-.138 0-.27.012-.396.036-.126.018-.243.045-.351.081-.102.036-.201.081-.297.135-.09.048-.174.105-.252.171-.072.066-.138.135-.198.207s-.114.15-.162.234c-.042.078-.081.162-.117.252-.014.038-.026.076-.037.115l-.001.006c-.013.046-.025.092-.034.14l.639.153c.002-.011.005-.022.008-.033.068-.272.194-.489.379-.651.198-.168.459-.252.783-.252.342 0 .612.105.81.315.204.21.306.477.306.801v.207l-1.386.252c-.594.102-1.017.267-1.269.495-.246.228-.369.54-.369.936 0 .354.132.648.396.882.27.234.624.351 1.062.351.3 0 .588-.063.864-.189.209-.1.397-.221.561-.363zm-1.824-1.171c-.145.103-.216.24-.216.427 0 .182.061.315.18.415.121.098.294.155.534.155.27 0 .516-.06.739-.18.22-.12.412-.267.578-.44v-.842l-.804.14c-.52.095-.849.209-1.011.325zm.984-.473c-.522.096-.879.213-1.071.351-.186.132-.279.315-.279.549 0 .222.078.399.234.531.156.126.366.189.63.189.294 0 .564-.066.81-.198.252-.138.471-.309.657-.513v-1.08zm2.98 2.247v-4.944h.964l.006.48c.172-.183.367-.325.586-.422l.001-.001c.343-.148.7-.2 1.068-.155l.127.016.039.961-.176-.022c-.354-.045-.671-.002-.955.123l-.002.001c-.26.112-.489.321-.683.641v3.322zm.825-3.363c.21-.36.468-.606.774-.738.27-.119.565-.169.884-.149.05.003.1.008.151.014l-.027-.657c-.342-.042-.672.006-.99.144-.244.108-.459.279-.644.512-.052.064-.101.134-.148.208l-.009-.765h-.666v4.644h.675zm5.554 2.311.273.844-.116.057c-.132.067-.291.121-.472.165-.182.045-.38.067-.594.067-.41 0-.763-.106-1.046-.329l-.004-.002c-.292-.243-.423-.621-.423-1.097v-2.703h-.9v-.894h.9v-1.332h.975v1.332h1.485v.894h-1.485v2.586c0 .252.066.398.161.478.12.095.268.146.454.146.118 0 .225-.008.323-.024.093-.021.198-.059.315-.114zm-.441.335c-.108.018-.225.027-.351.027-.216 0-.399-.06-.549-.18-.144-.12-.216-.318-.216-.594v-2.736h1.485v-.594h-1.485v-1.332h-.675v1.332h-.9v.594h.9v2.853c0 .45.123.777.369.981.252.198.57.297.954.297.204 0 .39-.021.558-.063.174-.042.321-.093.441-.153l-.559-.005c.006-.003.438-.415.444-.417l.025-.345-.469.762.241-.493c-.074.029-.145.051-.213.066zm10.947-4.227v.894h-1.476v4.05h-.975v-4.05h-.9v-.894h.9v-.561c0-.451.133-.825.413-1.105.285-.285.658-.422 1.105-.422.229 0 .44.032.632.098.185.057.344.132.474.228l.111.082-.46.75-.125-.065c-.107-.057-.211-.101-.31-.135h-.003c-.083-.03-.182-.046-.301-.046-.184 0-.318.053-.417.146-.089.09-.144.227-.144.433v.597zm-1.437-1.137c.132-.126.306-.189.522-.189.132 0 .249.018.351.054.108.036.219.084.333.144l.315-.513c-.114-.084-.258-.153-.432-.207-.174-.06-.369-.09-.585-.09-.414 0-.747.126-.999.378-.246.246-.369.579-.369.999v.711h-.9v.594h.9v4.05h.675v-4.05h1.476v-.594h-1.476v-.747c0-.234.063-.414.189-.54zm10.506 8.07v-6.933h.963l.006.325c.13-.096.272-.177.427-.241.266-.116.55-.174.851-.174.152 0 .299.013.441.039.141.025.276.064.406.115.134.052.26.116.377.194.116.071.225.155.328.251.102.095.194.2.277.314.089.109.166.228.23.355.07.128.127.262.172.403.044.139.079.284.104.434.025.153.038.308.038.466s-.013.313-.038.466c-.025.15-.06.295-.104.435-.045.14-.102.274-.172.402-.064.128-.142.247-.232.356-.082.108-.174.21-.275.305-.104.096-.216.183-.338.26l-.002.001c-.116.071-.241.132-.374.183-.129.051-.263.089-.403.115-.143.032-.291.048-.444.048-.294 0-.573-.051-.838-.154l-.004-.002c-.151-.064-.291-.142-.421-.234v2.271zm.625-2.823.2.234c.048.046.098.09.15.131.144.114.304.208.48.283.246.096.507.144.783.144.144 0 .282-.015.414-.045.132-.024.258-.06.378-.108.126-.048.243-.105.351-.171.114-.072.219-.153.315-.243s.183-.186.261-.288c.084-.102.156-.213.216-.333.066-.12.12-.246.162-.378s.075-.27.099-.414.036-.291.036-.441-.012-.297-.036-.441-.057-.282-.099-.414-.096-.258-.162-.378c-.06-.12-.132-.231-.216-.333-.078-.108-.165-.207-.261-.297s-.198-.168-.306-.234c-.108-.072-.225-.132-.351-.18-.12-.048-.246-.084-.378-.108s-.27-.036-.414-.036c-.282 0-.546.054-.792.162-.18.075-.341.172-.483.292m-.147.14-.009-.504h-.666v6.633h.675l-.2-2.673m.876-3.131c-.193.091-.368.22-.526.39v2.207c.164.182.343.316.535.408.208.098.429.147.665.147.427 0 .77-.151 1.04-.454.278-.311.421-.705.421-1.196 0-.116-.011-.229-.033-.339l-.002-.008c-.016-.109-.043-.212-.081-.31l-.003-.009c-.034-.105-.074-.2-.123-.286-.048-.087-.104-.164-.168-.233l-.004-.004c-.065-.076-.134-.139-.207-.192l-.006-.004c-.073-.057-.153-.104-.243-.141l-.01-.004c-.085-.043-.175-.075-.272-.096-.096-.022-.199-.033-.309-.033-.242 0-.465.052-.671.155zm-.526 2.597v-2.207c.18-.204.234-.418.462-.526.228-.114.474-.171.738-.171.12 0 .234.012.342.036s.21.06.306.108c.102.042.195.096.279.162.084.06.162.132.234.216.072.078.135.165.189.261s.099.201.135.315c.042.108.072.222.09.342.024.12.036.243.036.369 0 .522-.153.954-.459 1.296-.3.336-.684.504-1.152.504-.258 0-.501-.054-.729-.162s-.285-.327-.471-.543zm7.161.316.272.844-.115.057c-.133.067-.291.121-.472.165-.182.045-.38.067-.594.067-.411 0-.763-.106-1.047-.329l-.003-.002c-.293-.243-.423-.621-.423-1.097v-2.703h-.9v-.894h.9v-1.332h.975v1.332h1.485v.894h-1.485v2.586c0 .252.065.398.161.478.12.095.268.146.454.146.117 0 .224-.008.322-.024.094-.021.199-.059.315-.114zm-.441.335c-.108.018-.225.027-.351.027-.216 0-.399-.06-.549-.18-.144-.12-.216-.318-.216-.594v-2.736h1.485v-.594h-1.485v-1.332h-.675v1.332h-.9v.594h.9v2.853c0 .45.123.777.369.981m1.819-.333.134.414zm0 0-.046-.144c-.048.023-.094.043-.138.06-.075.029-.146.051-.213.066m1.722.302-.001-.001c-.33-.35-.491-.796-.491-1.327v-3.201h.975v3.075c0 .37.097.625.269.792.185.174.417.264.706.264.2 0 .412-.043.637-.133.202-.081.393-.21.572-.39v-3.608h.975v4.944h-.963l-.006-.327c-.144.109-.302.199-.473.27l-.003.002c-.276.109-.568.163-.874.163-.538 0-.985-.171-1.323-.523zm2.669-.101c.052-.043.101-.089.148-.138l.009.504h.666v-4.644h-.675v3.519c-.204.216-.426.372-.666.468s-.471.144-.693.144c-.324 0-.594-.102-.81-.306-.21-.204-.315-.504-.315-.9v-2.925h-.675v3.051c0 .498.15.906.45 1.224.306.318.711.477 1.215.477.288 0 .561-.051.819-.153.195-.081.37-.188.527-.321zm2.014.516v-4.944h.963l.006.358c.135-.108.282-.199.44-.272l.002-.001c.273-.123.57-.184.89-.184.347 0 .659.081.931.246.206.121.376.275.51.462.179-.19.39-.345.632-.467.311-.161.653-.241 1.023-.241.527 0 .961.172 1.288.524.33.344.491.788.491 1.318v3.201h-.976v-3.066c0-.371-.095-.627-.262-.794l-.001-.001c-.173-.179-.394-.27-.675-.27-.239 0-.464.057-.676.171-.192.106-.373.251-.541.435.007.043.012.086.016.13.006.065.01.129.01.194v3.201h-.975v-3.066c0-.371-.096-.627-.263-.794l-.001-.001c-.173-.179-.394-.27-.675-.27-.221 0-.434.054-.642.163l-.002.001c-.195.098-.374.231-.539.402v3.565zm.824-3.624c.186-.204.393-.363.621-.477.228-.12.465-.18.711-.18.318 0 .579.105.783.315.204.204.306.504.306.9v2.916h.675v-3.051c0-.06-.003-.12-.009-.18-.006-.066-.015-.129-.027-.189.192-.222.402-.396.63-.522.234-.126.483-.189.747-.189.318 0 .579.105.783.315.204.204.306.504.306.9v2.916h.675v-3.051c0-.498-.15-.903-.45-1.215-.294-.318-.687-.477-1.179-.477-.348 0-.666.075-.954.225-.238.119-.443.274-.616.463-.036.039-.071.08-.104.122-.025-.047-.053-.093-.082-.137-.124-.182-.286-.332-.485-.448-.246-.15-.531-.225-.855-.225-.3 0-.576.057-.828.171-.183.085-.35.195-.5.33-.051.046-.1.095-.148.147l-.009-.549h-.666v4.644h.675z"/><path d="m50.003 45.956c.05-.144.107-.279.17-.405l.002-.005c.07-.127.15-.246.24-.355.089-.114.185-.216.288-.307.108-.095.219-.178.335-.248.122-.077.251-.142.385-.193.135-.051.273-.09.414-.115l.001-.001c.147-.025.297-.038.449-.038s.299.013.44.038c.147.026.286.064.415.116.133.051.26.111.381.181.123.072.237.156.341.253.102.09.198.192.286.305.09.11.167.229.232.357.07.128.127.265.171.41.051.14.089.289.114.446.025.152.038.311.038.474 0 .158-.013.313-.038.466-.025.151-.063.3-.114.446-.044.139-.101.273-.171.4-.064.128-.141.249-.231.364l-.002.003c-.088.107-.183.208-.284.302l-.003.004c-.102.089-.214.172-.334.248l-.005.003c-.121.07-.248.13-.381.181-.129.052-.268.09-.415.116-.141.025-.288.038-.44.038s-.302-.013-.449-.038h-.001c-.141-.026-.279-.064-.414-.116-.133-.051-.26-.111-.381-.181l-.009-.005c-.112-.075-.221-.156-.326-.243l-.008-.006c-.101-.095-.195-.196-.283-.303-.09-.109-.17-.228-.241-.356l-.002-.005c-.063-.125-.119-.256-.169-.394l-.003-.007c-.044-.144-.078-.292-.103-.442-.025-.153-.038-.311-.038-.475s.013-.322.038-.475c.025-.15.06-.295.104-.434zm2.698 3.298c.138-.024.267-.06.387-.108.126-.048.246-.105.36-.171.114-.072.219-.15.315-.234.096-.09.186-.186.27-.288.084-.108.156-.222.216-.342.066-.12.12-.246.162-.378.048-.138.084-.279.108-.423s.036-.291.036-.441c0-.156-.012-.306-.036-.45-.024-.15-.06-.291-.108-.423-.042-.138-.096-.267-.162-.387-.06-.12-.132-.231-.216-.333-.084-.108-.174-.204-.27-.288-.096-.09-.201-.168-.315-.234s-.234-.123-.36-.171c-.12-.048-.249-.084-.387-.108-.132-.024-.27-.036-.414-.036s-.285.012-.423.036c-.132.024-.261.06-.387.108s-.246.108-.36.18c-.108.066-.213.144-.315.234-.096.084-.186.18-.27.288-.084.102-.159.213-.225.333-.06.12-.114.249-.162.387-.042.132-.075.27-.099.414s-.036.294-.036.45.012.306.036.45.057.285.099.423c.048.132.102.258.162.378.066.12.141.231.225.333s.174.198.27.288c.102.084.207.162.315.234.114.066.234.123.36.171s.255.084.387.108c.138.024.279.036.423.036s.282-.012.414-.036zm.608-1.18c.271-.303.412-.701.412-1.205 0-.511-.141-.911-.412-1.214l-.001-.001c-.264-.302-.601-.453-1.021-.453s-.76.151-1.031.453c-.265.304-.403.704-.403 1.215 0 .505.138.902.403 1.206.271.303.611.453 1.031.453s.757-.15 1.021-.453zm-2.165.1c-.294-.336-.441-.771-.441-1.305 0-.54.147-.978.441-1.314.3-.336.681-.504 1.143-.504s.84.168 1.134.504c.3.336.45.774.45 1.314 0 .534-.15.969-.45 1.305-.294.336-.672.504-1.134.504s-.843-.168-1.143-.504zm13.557.898c-.144.076-.298.142-.461.198l-.003.001c-.158.05-.324.088-.499.113-.17.031-.343.047-.519.047s-.352-.016-.528-.047c-.169-.025-.335-.063-.497-.113l-.007-.002c-.155-.056-.308-.121-.457-.196l-.007-.003c-.144-.082-.281-.172-.413-.273-.131-.1-.256-.209-.375-.328l-.006-.005c-.111-.124-.216-.255-.315-.391l-.003-.003c-.094-.139-.179-.287-.254-.443s-.14-.318-.196-.485l-.002-.007c-.05-.173-.09-.349-.121-.529l-.001-.005c-.025-.187-.037-.376-.037-.569 0-.192.012-.379.037-.56l.001-.005c.031-.185.071-.362.121-.531l.001-.003c.056-.174.122-.339.197-.496.075-.156.16-.304.254-.442l.003-.004c.099-.137.206-.265.318-.384.119-.126.246-.239.378-.34s.271-.189.417-.265c.151-.082.305-.149.464-.199.163-.057.33-.098.5-.123.176-.031.352-.047.528-.047s.349.016.519.047c.175.025.342.066.501.123.163.05.318.117.464.199.15.075.292.164.425.265l-.091.119c-.126-.096-.261-.18-.405-.252-.138-.078-.285-.141-.441-.189-.15-.054-.309-.093-.477-.117-.162-.03-.327-.045-.495-.045s-.336.015-.504.045c-.162.024-.321.063-.477.117-.15.048-.297.111-.441.189-.138.072-.27.156-.396.252s-.246.204-.36.324c-.108.114-.21.237-.306.369-.09.132-.171.273-.243.423s-.135.309-.189.477c-.048.162-.087.333-.117.513-.024.174-.036.354-.036.54s.012.369.036.549c.03.174.069.345.117.513.054.162.117.318.189.468s.153.291.243.423c.096.132.198.258.306.378.114.114.234.219.36.315s.258.183.396.261c.144.072.291.135.441.189.156.048.315.084.477.108.168.03.336.045.504.045s.333-.015.495-.045c.168-.024.327-.06.477-.108.156-.054.303-.117.441-.189.144-.078.279-.165.405-.261s.243-.201.351-.315c.114-.12.216-.246.306-.378.096-.132.18-.273.252-.423s.132-.306.18-.468c.054-.168.093-.339.117-.513.03-.18.045-.363.045-.549s-.015-.366-.045-.54c-.024-.18-.063-.351-.117-.513-.048-.168-.108-.327-.18-.477s-.156-.291-.252-.423c-.09-.132-.192-.255-.306-.369-.108-.12-.225-.228-.351-.324l.091-.119c.132.101.255.214.369.34.119.119.225.248.32.386.101.139.189.287.264.444.076.157.138.323.188.498.057.17.097.348.122.534.032.182.047.37.047.563s-.015.384-.047.572c-.025.181-.065.359-.122.534-.05.169-.113.332-.188.489s-.163.306-.264.445c-.095.138-.201.269-.32.394m0 0c-.114.12-.237.231-.369.331-.132.101-.274.192-.425.274l-.002.001m-3.012-5.065c-.102.096-.195.201-.279.315-.084.108-.159.228-.225.36-.066.126-.123.264-.171.414-.048.144-.084.294-.108.45s-.036.318-.036.486.012.33.036.486.06.309.108.459c.048.144.105.282.171.414.066.126.141.246.225.36.084.108.177.21.279.306s.21.18.324.252c.12.072.243.135.369.189.132.048.267.087.405.117.138.024.282.036.432.036s.294-.012.432-.036c.138-.03.27-.069.396-.117.132-.054.255-.117.369-.189.12-.072.231-.156.333-.252s.195-.198.279-.306c.084-.114.159-.234.225-.36.066-.132.123-.27.171-.414.048-.15.084-.303.108-.459s.036-.318.036-.486-.012-.33-.036-.486-.06-.306-.108-.45c-.048-.15-.105-.288-.171-.414-.066-.132-.141-.252-.225-.36-.084-.114-.177-.219-.279-.315s-.213-.18-.333-.252c-.114-.072-.237-.132-.369-.18-.126-.054-.258-.093-.396-.117-.138-.03-.282-.045-.432-.045s-.294.015-.432.045c-.138.024-.273.063-.405.117-.126.048-.249.108-.369.18-.114.072-.222.156-.324.252zm.403-.124c-.105.066-.205.144-.3.233-.095.09-.183.188-.261.295l-.003.003c-.077.1-.147.211-.209.335l-.001.003c-.062.117-.115.247-.161.39l-.001.002c-.045.135-.079.277-.102.425-.022.148-.034.302-.034.463s.012.315.034.463c.023.148.057.293.103.435.045.137.099.268.162.393.062.118.132.231.211.338.078.101.166.197.262.287.095.089.195.167.3.233.112.068.227.127.345.178.124.044.25.081.379.109.128.022.262.033.403.033s.275-.011.403-.033c.13-.028.253-.065.37-.109.124-.051.238-.11.344-.177l.003-.002c.111-.066.213-.144.307-.232.096-.09.184-.186.262-.287.079-.107.15-.22.212-.338.062-.125.116-.256.161-.393.046-.142.08-.287.103-.435.022-.148.034-.302.034-.463s-.012-.315-.034-.463c-.023-.148-.057-.29-.102-.425l-.001-.002c-.045-.143-.099-.273-.161-.39l-.001-.003c-.062-.124-.132-.235-.209-.335l-.003-.003c-.078-.107-.165-.205-.261-.295-.094-.088-.196-.166-.307-.232l-.003-.002c-.105-.066-.218-.121-.34-.166l-.008-.003c-.115-.049-.236-.085-.363-.107l-.006-.001c-.127-.028-.26-.042-.4-.042s-.273.014-.4.042l-.006.001c-.127.022-.252.058-.374.108l-.004.001c-.116.045-.231.101-.343.168z"/><path d="m89.985 45.52c-.063 0-.125-.005-.185-.015-.06-.013-.118-.03-.175-.05-.053-.02-.106-.045-.16-.075-.05-.03-.096-.063-.14-.1-.043-.037-.085-.077-.125-.12-.036-.047-.07-.095-.1-.145-.03-.053-.055-.108-.075-.165s-.036-.115-.05-.175c-.01-.063-.015-.127-.015-.19s.005-.125.015-.185c.014-.063.03-.123.05-.18s.045-.11.075-.16c.03-.053.064-.102.1-.145.04-.047.082-.088.125-.125.044-.037.09-.07.14-.1.054-.03.107-.055.16-.075.057-.02.115-.035.175-.045.06-.013.122-.02.185-.02.064 0 .125.007.185.02.06.01.117.025.17.045.057.02.11.045.16.075.054.03.102.063.145.1.047.037.089.078.125.125.04.043.075.092.105.145.03.05.055.103.075.16s.035.117.045.18c.014.06.02.122.02.185s-.006.127-.02.19c-.01.06-.025.118-.045.175s-.045.112-.075.165c-.03.05-.065.098-.105.145-.036.043-.078.083-.125.12-.043.037-.091.07-.145.1-.05.03-.103.055-.16.075-.053.02-.11.037-.17.05-.06.01-.121.015-.185.015zm0-.235c.22 0 .404-.075.55-.225.15-.15.225-.342.225-.575s-.075-.425-.225-.575c-.146-.15-.33-.225-.55-.225s-.403.075-.55.225c-.146.15-.22.342-.22.575s.074.425.22.575c.147.15.33.225.55.225zm-.37-.335v-.94h.445c.097 0 .174.027.23.08.057.053.085.122.085.205 0 .057-.015.108-.045.155s-.068.083-.115.11l.22.39h-.275l-.18-.335h-.11v.335zm.39-.75h-.135v.235h.13c.044 0 .075-.012.095-.035s.03-.052.03-.085-.01-.06-.03-.08c-.02-.023-.05-.035-.09-.035z" fill-rule="nonzero"/></svg>