<svg height="88" width="112" xmlns="http://www.w3.org/2000/svg"><path d="M0 42c0-6.708 5.273-12 12.056-12 3.596 0 6.932 1.547 9.037 4.155.391.485.522.802.522 1.156 0 .67-.596 1.23-1.304 1.23-.466 0-.839-.168-1.156-.56-1.826-2.292-4.21-3.447-7.062-3.447-5.273 0-9.242 4.08-9.242 9.466s3.969 9.466 9.242 9.466c2.851 0 5.236-1.193 7.062-3.447.274-.36.703-.569 1.156-.56.708 0 1.304.56 1.304 1.23 0 .354-.15.671-.522 1.156C19.063 52.453 15.671 54 12.056 54 5.273 53.981 0 48.708 0 42zm26.665 10.51V31.806c0-.8.559-1.434 1.378-1.434.783 0 1.38.633 1.38 1.434v19.696h9.875c.745 0 1.267.522 1.267 1.23 0 .67-.522 1.23-1.267 1.23h-11.18c-.857 0-1.453-.634-1.453-1.454zm62.515.242c0 .67-.559 1.23-1.304 1.23-.429 0-.801-.243-1.193-.746l-7.006-9.391h-5.273v8.72c0 .783-.597 1.398-1.38 1.398-.8 0-1.378-.634-1.378-1.398V31.807c0-.782.596-1.397 1.397-1.397h6.746c4.435 0 7.416 2.702 7.416 6.708 0 3.093-1.752 5.422-4.603 6.335l6.094 8.274c.316.335.484.69.484 1.025zM74.422 41.404h5.31c2.926 0 4.678-1.621 4.678-4.249 0-2.608-1.789-4.285-4.677-4.285h-5.31zm22.752-9.95v21.093c0 .8-.596 1.434-1.379 1.434-.801 0-1.379-.633-1.379-1.434V31.453c0-.8.56-1.434 1.379-1.434.783-.019 1.379.615 1.379 1.434zM111.8 52.751c0 .67-.559 1.23-1.267 1.23-.354 0-.708-.168-1.1-.56L98.349 42.093c-.242-.28-.429-.596-.429-.95s.168-.671.466-.988l10.061-9.595c.429-.391.708-.559 1.062-.559.708 0 1.267.559 1.267 1.23 0 .391-.167.708-.596 1.1l-9.205 8.831 10.305 10.584c.372.317.521.597.521 1.007zm-45.503-.97L57.391 30.95c-.28-.633-.708-.95-1.304-.95s-1.025.317-1.304.95l-8.907 20.814c-.15.354-.205.634-.205.876a1.36 1.36 0 0 0 1.341 1.341c.597 0 1.063-.354 1.305-.913l1.695-4.043.056-.15 1.025-2.459 4.994-12.298 4.845 12.317 1.062 2.46 1.863 4.192c.28.559.708.913 1.342.913.708 0 1.341-.634 1.341-1.342 0-.242-.074-.54-.242-.875z" fill="#000000"/></svg>