<svg width="774" height="392" viewBox="0 0 774 392" fill="none" xmlns="http://www.w3.org/2000/svg">
<rect width="774" height="392" fill="white"/>
<mask id="mask0_1464_2399" style="mask-type:luminance" maskUnits="userSpaceOnUse" x="0" y="0" width="774" height="392">
<path d="M773.75 0H0V391.02H773.75V0Z" fill="white"/>
</mask>
<g mask="url(#mask0_1464_2399)">
<path d="M382.93 0.120085C386.02 -0.129915 390.9 0.100085 394.14 0.120085C403.36 0.180085 412.57 0.440085 421.78 0.900085C485.13 3.77008 551.76 14.4401 611.62 36.4501C670.37 58.8201 735.71 93.2001 764.87 151.98C768.72 159.74 775.87 182.54 773.14 191.43C771.73 196.03 765.28 207.92 762.85 212.88C755.97 227 749.02 241.09 742 255.13L726.22 287.09C722.73 294.31 719.23 302.05 715.22 308.97C714.48 310.25 712.86 310.71 711.43 311.08C700.05 314.01 688.55 316.78 677.15 319.6L607.91 336.72L390.46 390.53C388.5 390.93 387.37 391.25 385.41 390.83C378.84 389.41 372.26 387.82 365.71 386.28L328.73 377.59L218.25 351.7L121.87 329.12C107.11 325.66 86.59 321.53 72.38 317.38C68.56 311.61 63.95 302.96 60.45 296.82L39.09 259.34L14.42 216.05C12.28 212.32 -0.100008 191.71 -7.9209e-06 188.99C1.84999 137.03 48.12 96.3901 89.39 71.2801C153.25 32.4301 229.44 12.9401 303.22 4.71008C323.01 2.54008 342.88 1.14009 362.77 0.530085C369.53 0.280085 376.25 0.390085 382.92 0.130085L382.93 0.120085Z" fill="black"/>
<path d="M385.88 3.62007C475.65 2.99007 573.61 19.3001 654.39 59.7401C703.1 85.1701 762.74 127.43 764.86 188.07C764.92 189.85 750.11 219.02 748.05 223.18C734.6 250.63 721.01 278.02 707.28 305.33L387.73 383.98C385.59 384.18 367.2 379.48 363.43 378.6L298.67 363.49L153.47 329.63L106.01 318.58C97.43 316.58 87.85 314.58 79.43 312.27L35.05 234.85L19.01 206.88C16.88 203.16 8.87998 190.29 8.92998 187.18C9.49998 152 35.05 118.83 61.62 97.5001C151.11 25.6401 274.36 5.13007 385.88 3.62007Z" fill="black"/>
<path d="M371.29 14.84C384.23 14.45 397.19 14.49 410.13 14.97C481.47 16.93 559.37 30.09 625.17 58.2001C670.66 78.2201 720.14 107.18 740.41 155.07C743.49 163.7 749.03 180.36 745.46 189.14C741.71 198.36 737.48 207.82 733.56 216.9L700.04 294.49C696.01 295.68 691.29 296.45 687.17 297.49C676.15 300.28 665.33 302.39 654.17 304.54L594.68 315.97L401.35 353.1C399.15 353.53 388.77 355.8 387.41 355.63C377.33 354.32 366.4 352.19 356.37 350.41L294.08 339.36L86.77 302.64C84.84 298.31 81.91 292.95 79.69 288.59L65.75 261.19C53.11 236.29 40.45 210.86 27.52 186.16C28.89 158.38 40.95 134.93 60.39 115.5C134.21 41.71 271.86 16.48 371.29 14.84Z" fill="white"/>
<path d="M251.92 78.3901C272.38 76.7101 290.34 91.9101 292.07 112.37C293.8 132.83 278.65 150.83 258.2 152.62C237.67 154.41 219.59 139.19 217.85 118.65C216.11 98.1101 231.38 80.0701 251.92 78.3901Z" fill="black"/>
<path d="M251.14 82.8701C262.14 81.8901 269.11 91.6901 271.63 101.25C275.48 115.81 278.7 142.59 259.8 148.13C246.2 150.07 239.77 136.13 237.49 125.09C234.72 111.66 233.17 86.3801 251.14 82.8701Z" fill="white"/>
<path d="M343.7 72.4499C351.22 71.4399 363.58 72.9199 369.15 78.4199C375.85 85.0299 376.13 97.3499 369.33 103.97C360.87 112.2 347.46 111.5 336.56 111.63C337.38 119.87 336.39 128.37 337.79 136.6C339.09 144.27 346.36 140.66 348.72 144.17L348.41 144.72C347.07 145.54 346.35 145.49 344.79 145.6C339.87 145.47 334.99 145.34 330.07 145.45C327.12 145.52 315.94 147.07 314.05 145.86L314.03 145.04C315.61 143.03 318.72 142.48 320.7 140.86C321.97 139.82 322.07 138.84 322.21 137.28C322.75 131.09 321.81 82.9099 319.91 79.7699C318.04 76.6899 313.36 78.3399 311.34 75.9199L311.46 75.0799C313.46 72.8999 319.06 73.5599 322.11 73.4499C329.31 73.2099 336.51 72.8799 343.71 72.4499H343.7Z" fill="black"/>
<path d="M343.26 76.7001C358.34 74.5801 362.26 97.4401 348.64 105.98C344.52 107.78 340.85 107.62 336.45 107.66C336.42 97.9301 335.88 87.5101 335.61 77.7101C338.05 77.1701 340.76 76.9601 343.26 76.7001Z" fill="white"/>
<path d="M482.98 76.05C486.43 76.05 495.48 77.65 499.46 78.05C512.67 79.39 526.26 81.45 539.48 82.46C539.83 85.57 542.05 100.09 539.33 101.34C536.2 100.09 534.47 91.91 528.68 88.09C523.02 84.36 513.61 82.87 507.16 83.95C505.39 90.29 503.96 104.31 503.31 110.87C511.39 111.73 515.08 112.82 519.76 105.21C520.5 104.01 522.3 101.42 523.77 101.7C524.92 104.22 521.15 122.08 521.53 126.32C521.64 127.59 521 129.5 519.88 130.38C515.05 128.02 522.92 118.93 502.9 115.04C502.51 117.91 502.14 120.77 501.79 123.64C501.31 126.73 499.41 141.19 500.59 142.99C506.63 152.25 530.8 148.17 536.17 139.31C536.83 138.21 538.13 136.38 539.18 135.92C540.31 136.09 539.94 135.88 540.73 136.6C541.12 139.68 536.55 151.36 535.27 154.91C528.07 153.66 519.99 153.34 512.67 152.28C500.37 150.5 488.12 148.57 475.67 148.25C474.57 148.22 474.19 147.64 473.64 146.89C473.63 146.72 473.49 145.9 473.54 145.8C474.13 144.69 481.23 145.17 483.36 141.95C485.86 138.18 491.33 89.6 490.39 84.22C489.68 80.12 485.97 80.79 483.22 78.89C482.45 77.51 482.68 77.9 482.96 76.04H482.98V76.05Z" fill="black"/>
<path d="M182.35 88.79C183.24 88.79 183.3 88.82 184.15 89.11C185.92 91.15 192.01 111.46 189.98 113.31C188.61 113.13 187.41 111.87 186.61 110.86C179.65 101.59 167.05 91.12 155.59 100.37C142.23 111.15 148.53 137.42 157.25 149.2C167.52 163.07 185.16 162.89 192.79 146.89C193.62 145.15 195.64 140.75 197.09 139.62C198.45 139.39 198.04 139.45 199.49 140.26C200.03 149.29 187.93 162.54 179.33 164.86C171.86 166.87 164.88 168.06 157.3 165.96C148.5 163.47 141.07 157.55 136.68 149.53C127.16 132.5 130.46 107.33 148.55 97C158.02 91.59 169.16 92.06 179.42 95C180.43 92.59 181.11 91.1 182.38 88.8H182.35V88.79Z" fill="black"/>
<path d="M568.13 85.5801C575.44 85.8201 587.4 91.1101 595.63 91.2501C596.87 91.2701 600.58 91.9401 601.46 92.6001C601.75 93.8001 601.8 93.3501 601.39 94.3801C598.33 96.6001 590.71 92.1601 594.3 103.09C596.82 110.76 600.17 118.04 603.35 125.44C608.28 120.97 619.84 111.12 622.36 104.97C623.51 102.17 618.24 99.7001 616.96 97.4401C617.04 96.3501 616.85 96.7501 617.73 95.9801C621.27 95.8901 628.11 98.5101 631.91 99.2001C634.69 99.7001 640.05 99.7801 642.21 101.12L642.31 102.04C640.15 104.83 635.81 103 631.82 105.57C625.81 109.44 620.83 114.6 615.77 119.58C614.41 120.88 606.61 128.19 605.82 130.3C603.36 136.84 599.73 153.29 600.44 160.44C600.54 161.45 607.23 164.2 608 166.45L607.57 166.99C603.85 167.96 593.3 163.66 588.44 163.16C585.1 162.81 579.29 161.71 575.78 161.2C575.06 161.09 574.81 160.41 574.56 159.84C575.25 156.96 580.36 158.76 582.97 156.42C585.79 153.9 589.25 136.42 588.78 133.51C586.26 120.06 580.61 105.76 574.6 93.4501C572.97 90.1101 567.72 90.4501 568.13 85.5601V85.5801Z" fill="black"/>
<path d="M395.29 71.91C401.52 71.65 408.62 72.6 414.93 72.79C418.08 72.88 430.32 72.45 431.81 73.7C431.98 75.03 432.08 74.49 431.35 75.74C430.02 76.64 428.12 76.63 426.56 76.88C424.7 77.17 422.88 77.71 421.81 79.41C419.38 83.26 417.91 132.51 419.22 138.52C419.42 139.44 419.71 140.05 420.59 140.53C423.94 142.37 432.29 141.5 436.02 140.6C444.06 138.67 447.61 133.47 451.67 126.9C452.75 125.16 454.27 122.45 456.33 121.96L456.84 122.52C457.33 124.36 457.15 125.07 456.89 126.98C455.64 133.53 454.32 140.06 452.92 146.57C439.79 145.25 426.23 145.23 413.05 144.53C406.28 144.17 399.6 144.6 392.85 144.26L392.4 143.54C392.38 143.19 392.36 142.8 392.34 142.35C394.02 140.97 400.66 140.13 401.64 137.84C404.86 130.3 404.14 117.69 404.56 109.53C405.05 100.11 405.69 92.03 404.91 83.03C404.21 74.93 398.51 76.75 395.45 74.64C394.79 73.25 394.98 73.66 395.29 71.91Z" fill="black"/>
<path d="M384.47 191.58L399.55 206.61L402.85 209.92L399.84 212.89C395.52 216.66 388.79 223.83 384.48 228.12C380.1 223.31 373.97 217.48 369.24 212.87L366.26 209.78L369.25 206.84C374.39 201.82 379.46 196.74 384.47 191.59V191.58Z" fill="black"/>
<path d="M237.58 209.65C251.35 209.78 266.65 209.11 280.51 208.82L369.24 206.83L366.25 209.77L369.23 212.86C351.51 212.96 333.04 212.42 315.26 212.14L216.23 210.68C214.81 210.98 210.07 210.45 208.59 209.95C211.16 209.22 234.25 209.42 237.57 209.64L237.58 209.65Z" fill="black"/>
<path d="M216.24 210.69C214.82 210.99 210.08 210.46 208.6 209.96C211.17 209.23 234.26 209.43 237.58 209.65C233.5 210.2 218.07 209.45 216.24 210.69Z" fill="black"/>
<path d="M399.55 206.61C416.24 207.41 435.38 207.13 452.28 207.42L554.19 208.88C553.07 209.04 551.11 209.26 550.09 209.54C539.74 209.54 528.55 210.04 518.1 210.25L433.33 212.15C422.62 212.38 410.35 213 399.84 212.9L402.85 209.93L399.55 206.62V206.61Z" fill="black"/>
<path d="M440.53 265.62C450.14 265.27 450.78 282.95 443.06 288.09C433.62 288.52 433.12 270.13 440.53 265.62Z" fill="white"/>
<path d="M412.99 265.82C419.78 265.59 425.71 268.49 420.68 275.85C417.88 277.36 416.11 277.1 412.96 277.06C412.9 273.32 412.91 269.57 412.99 265.82Z" fill="white"/>
<path d="M486.94 265.81C494.4 265.59 498.67 269.61 494.16 276.68C491.39 278.39 490.17 278.11 486.9 278.08C486.88 273.99 486.9 269.9 486.93 265.81H486.94Z" fill="white"/>
<path d="M252.17 268.22C253.04 269.97 255.46 278.33 255.5 280.31C254.79 280.79 253.18 280.65 252.22 280.65C250.92 280.65 249.94 280.82 248.83 280.2C249.02 277.76 251.32 270.84 252.17 268.22Z" fill="white"/>
<path d="M336.96 268.6C338.25 269.84 340.89 278.65 340.06 280.51L338.49 280.65L333.48 280.57C334.54 276.61 335.8 272.54 336.96 268.6Z" fill="white"/>
<path d="M554.19 208.88C555.72 208.84 557.17 208.8 558.7 208.83L559.01 209.27L559.11 208.84C559.64 208.86 559.4 208.77 559.85 209.07C556.5 209.83 553.5 209.74 550.09 209.54C551.11 209.26 553.07 209.04 554.19 208.88Z" fill="black"/>
<path d="M186.46 263.47H199.27V265.99H189.17V276.02H198.23V278.54H189.17V290.58H186.46V263.48V263.47Z" fill="black"/>
<path d="M207.29 263.47H210V290.57H207.29V263.47Z" fill="black"/>
<path d="M219.4 263.47H222.03L232.91 284.34V263.47H235.54V290.57H233.18L222.03 269.16V290.57H219.4V263.47Z" fill="black"/>
<path d="M251.19 263.31H254.02L262.07 290.56H259.24L257.19 283.51H247.9L245.85 290.56H243.18L251.19 263.31ZM256.49 281.04L252.58 267.34L248.59 281.04H256.49Z" fill="black"/>
<path d="M269.66 263.47H272.29L283.17 284.34V263.47H285.8V290.57H283.44L272.29 269.16V290.57H269.66V263.47Z" fill="black"/>
<path d="M294.12 277.25V276.82C294.12 268.07 298.46 263.19 303.91 263.19C306.35 263.19 308.13 264.12 309.56 265.44L308.05 267.57C306.89 266.53 305.5 265.75 303.83 265.75C299.96 265.75 296.86 270.01 296.86 276.86V277.13C296.86 284.17 299.96 288.28 303.79 288.28C305.45 288.28 306.93 287.47 308.2 286.27L309.67 288.36C308.08 289.83 306.07 290.84 303.63 290.84C298.17 290.84 294.11 286.08 294.11 277.25H294.12Z" fill="black"/>
<path d="M317.58 263.47H320.29V290.57H317.58V263.47Z" fill="black"/>
<path d="M336.17 263.31H339L347.05 290.56H344.22L342.17 283.51H332.88L330.83 290.56H328.16L336.17 263.31ZM341.47 281.04L337.56 267.34L333.57 281.04H341.47Z" fill="black"/>
<path d="M354.63 263.47H357.34V288.05H366.82V290.57H354.63V263.47Z" fill="black"/>
<path d="M384.87 277.28V276.78C384.87 268.42 389.21 263.19 395.13 263.19C397.57 263.19 399.43 263.81 401.29 265.32L399.74 267.6C398.62 266.52 397.11 265.74 395.17 265.74C390.95 265.74 387.62 269.88 387.62 276.81V277.16C387.62 284.4 390.83 288.35 395.29 288.35C396.72 288.35 398 287.92 398.93 287.31V278.68H393.74V276.2H401.52V288.74C399.89 289.9 397.65 290.83 395.09 290.83C388.97 290.83 384.87 285.87 384.87 277.28Z" fill="black"/>
<path d="M410.31 263.47H416.85C419.6 263.47 421.84 264.32 423.31 265.79C424.66 267.14 425.44 269.16 425.44 271.6V271.72C425.44 275.82 423.23 278.34 420.1 279.39L426.14 290.58H423.04L417.39 280.01C417.04 280.05 416.69 280.05 416.35 280.05H413.02V290.58H410.31V263.48V263.47ZM416.03 277.56C420.83 277.56 422.77 275.16 422.77 271.75V271.71C422.77 267.92 420.41 265.98 416.65 265.98H413.01V277.56H416.03Z" fill="black"/>
<path d="M432.87 277.32V276.74C432.87 268.3 436.74 263.07 442.08 263.07C447.42 263.07 451.25 268.22 451.25 276.7V277.28C451.25 285.72 447.34 290.95 442 290.95C436.66 290.95 432.86 285.8 432.86 277.32H432.87ZM448.48 277.25V276.79C448.48 269.78 445.69 265.64 442.05 265.64C438.41 265.64 435.66 269.78 435.66 276.79V277.25C435.66 284.26 438.41 288.4 442.05 288.4C445.69 288.4 448.48 284.26 448.48 277.25Z" fill="black"/>
<path d="M459.32 281.85V263.46H462.03V281.89C462.03 286.15 464.04 288.43 467.29 288.43C470.54 288.43 472.48 286.22 472.48 281.97V263.47H475.23V281.82C475.23 287.7 472.06 290.96 467.26 290.96C462.46 290.96 459.32 287.71 459.32 281.86V281.85Z" fill="black"/>
<path d="M484.17 263.47H490.09C495.43 263.47 498.88 266.68 498.88 272.1V272.18C498.88 277.75 495.2 280.93 489.94 281.01H486.88V290.57H484.17V263.47ZM489.94 278.52C493.85 278.52 496.13 276.08 496.13 272.21V272.17C496.13 268.14 493.81 265.98 489.97 265.98H486.87V278.52H489.94Z" fill="black"/>
<path d="M500.59 293.93C502.49 293.27 503.14 292.15 502.99 290.56H501.6V286.69H504.93V289.98C504.93 292.96 503.73 294.39 501.06 295.21L500.6 293.93H500.59Z" fill="black"/>
<path d="M525.33 263.47H528.04V290.57H525.33V263.47Z" fill="black"/>
<path d="M537.44 263.47H540.07L550.95 284.34V263.47H553.58V290.57H551.22L540.07 269.16V290.57H537.44V263.47Z" fill="black"/>
<path d="M561.91 277.25V276.82C561.91 268.07 566.25 263.19 571.7 263.19C574.14 263.19 575.92 264.12 577.35 265.44L575.84 267.57C574.68 266.53 573.29 265.75 571.62 265.75C567.75 265.75 564.65 270.01 564.65 276.86V277.13C564.65 284.17 567.75 288.28 571.58 288.28C573.24 288.28 574.72 287.47 575.99 286.27L577.46 288.36C575.87 289.83 573.86 290.84 571.42 290.84C565.96 290.84 561.9 286.08 561.9 277.25H561.91Z" fill="black"/>
<path d="M584.63 286.69H587.96V290.56H584.63V286.69Z" fill="black"/>
</g>
</svg>
