<svg focusable="false" role="presentation" xmlns="http://www.w3.org/2000/svg" xml:space="preserve" style="fill-rule:evenodd;clip-rule:evenodd;stroke-linejoin:round;stroke-miterlimit:2" viewBox="0 0 774 392">
  <path d="M764.87,151.98c-29.16-58.78-94.5-93.16-153.25-115.53C551.76,14.44,485.13,3.77,421.78.9c-9.21-.46-18.42-.72-27.64-.78-3.24-.02-8.12-.25-11.21,0h0c-6.67.27-13.39.16-20.15.41-19.89.61-39.76,2.01-59.55,4.18-73.78,8.23-149.97,27.72-213.83,66.57C48.12,96.39,1.85,137.03,0,188.99c-.1,2.72,12.28,23.33,14.42,27.06l24.67,43.29,21.36,37.48c3.5,6.14,8.11,14.79,11.93,20.56,14.21,4.15,34.73,8.28,49.49,11.74l96.38,22.58,110.48,25.89,36.98,8.69c6.55,1.54,13.13,3.13,19.7,4.55,1.96.42,3.09.1,5.05-.3l217.45-53.81,69.24-17.12c11.4-2.82,22.9-5.59,34.28-8.52,1.43-.37,3.05-.83,3.79-2.11,4.01-6.92,7.51-14.66,11-21.88l15.78-31.96c7.02-14.04,13.97-28.13,20.85-42.25,2.43-4.96,8.88-16.85,10.29-21.45,2.73-8.89-4.42-31.69-8.27-39.45ZM745.46,189.14c-3.75,9.22-7.98,18.68-11.9,27.76l-33.52,77.59c-4.03,1.19-8.75,1.96-12.87,3-11.02,2.79-21.84,4.9-33,7.05l-59.49,11.43-193.33,37.13c-2.2.43-12.58,2.7-13.94,2.53-10.08-1.31-21.01-3.44-31.04-5.22l-62.29-11.05-207.31-36.72c-1.93-4.33-4.86-9.69-7.08-14.05l-13.94-27.4c-12.64-24.9-25.3-50.33-38.23-75.03,1.37-27.78,13.43-51.23,32.87-70.66C134.21,41.71,271.86,16.48,371.29,14.84c12.94-.39,25.9-.35,38.84.13,71.34,1.96,149.24,15.12,215.04,43.23,45.49,20.02,94.97,48.98,115.24,96.87,3.08,8.63,8.62,25.29,5.05,34.07Z"/>
  <path d="M292.07,112.37c-1.73-20.46-19.69-35.66-40.15-33.98-20.54,1.68-35.81,19.72-34.07,40.26,1.74,20.54,19.82,35.76,40.35,33.97,20.45-1.79,35.6-19.79,33.87-40.25ZM259.8,148.13c-13.6,1.94-20.03-12-22.31-23.04-2.77-13.43-4.32-38.71,13.65-42.22,11-.98,17.97,8.82,20.49,18.38,3.85,14.56,7.07,41.34-11.83,46.88Z"/>
  <path d="M369.15,78.42c-5.57-5.5-17.93-6.98-25.45-5.97h.01c-7.2.43-14.4.76-21.6,1-3.05.11-8.65-.55-10.65,1.63l-.12.84c2.02,2.42,6.7.77,8.57,3.85,1.9,3.14,2.84,51.32,2.3,57.51-.14,1.56-.24,2.54-1.51,3.58-1.98,1.62-5.09,2.17-6.67,4.18l.02.82c1.89,1.21,13.07-.34,16.02-.41,4.92-.11,9.8.02,14.72.15,1.56-.11,2.28-.06,3.62-.88l.31-.55c-2.36-3.51-9.63.1-10.93-7.57-1.4-8.23-.41-16.73-1.23-24.97,10.9-.13,24.31.57,32.77-7.66,6.8-6.62,6.52-18.94-.18-25.55ZM348.64,105.98c-4.12,1.8-7.79,1.64-12.19,1.68-.03-9.73-.57-20.15-.84-29.95,2.44-.54,5.15-.75,7.65-1.01,15.08-2.12,19,20.74,5.38,29.28Z"/>
  <path d="M482.98,76.05c3.45,0,12.5,1.6,16.48,2,13.21,1.34,26.8,3.4,40.02,4.41.35,3.11,2.57,17.63-.15,18.88-3.13-1.25-4.86-9.43-10.65-13.25-5.66-3.73-15.07-5.22-21.52-4.14-1.77,6.34-3.2,20.36-3.85,26.92,8.08.86,11.77,1.95,16.45-5.66.74-1.2,2.54-3.79,4.01-3.51,1.15,2.52-2.62,20.38-2.24,24.62.11,1.27-.53,3.18-1.65,4.06-4.83-2.36,3.04-11.45-16.98-15.34-.39,2.87-.76,5.73-1.11,8.6-.48,3.09-2.38,17.55-1.2,19.35,6.04,9.26,30.21,5.18,35.58-3.68.66-1.1,1.96-2.93,3.01-3.39,1.13.17.76-.04,1.55.68.39,3.08-4.18,14.76-5.46,18.31-7.2-1.25-15.28-1.57-22.6-2.63-12.3-1.78-24.55-3.71-37-4.03-1.1-.03-1.48-.61-2.03-1.36-.01-.17-.15-.99-.1-1.09.59-1.11,7.69-.63,9.82-3.85,2.5-3.77,7.97-52.35,7.03-57.73-.71-4.1-4.42-3.43-7.17-5.33-.77-1.38-.54-.99-.26-2.85h.02Z"/>
  <path d="M182.35,88.79c.89,0,.95.03,1.8.32,1.77,2.04,7.86,22.35,5.83,24.2-1.37-.18-2.57-1.44-3.37-2.45-6.96-9.27-19.56-19.74-31.02-10.49-13.36,10.78-7.06,37.05,1.66,48.83,10.27,13.87,27.91,13.69,35.54-2.31.83-1.74,2.85-6.14,4.3-7.27,1.36-.23.95-.17,2.4.64.54,9.03-11.56,22.28-20.16,24.6-7.47,2.01-14.45,3.2-22.03,1.1-8.8-2.49-16.23-8.41-20.62-16.43-9.52-17.03-6.22-42.2,11.87-52.53,9.47-5.41,20.61-4.94,30.87-2,1.01-2.41,1.69-3.9,2.96-6.2h-.03Z"/>
  <path d="M568.13,85.58c7.31.24,19.27,5.53,27.5,5.67,1.24.02,4.95.69,5.83,1.35.29,1.2.34.75-.07,1.78-3.06,2.22-10.68-2.22-7.09,8.71,2.52,7.67,5.87,14.95,9.05,22.35,4.93-4.47,16.49-14.32,19.01-20.47,1.15-2.8-4.12-5.27-5.4-7.53.08-1.09-.11-.69.77-1.46,3.54-.09,10.38,2.53,14.18,3.22,2.78.5,8.14.58,10.3,1.92l.1.92c-2.16,2.79-6.5.96-10.49,3.53-6.01,3.87-10.99,9.03-16.05,14.01-1.36,1.3-9.16,8.61-9.95,10.72-2.46,6.54-6.09,22.99-5.38,30.14.1,1.01,6.79,3.76,7.56,6.01l-.43.54c-3.72.97-14.27-3.33-19.13-3.83-3.34-.35-9.15-1.45-12.66-1.96-.72-.11-.97-.79-1.22-1.36.69-2.88,5.8-1.08,8.41-3.42,2.82-2.52,6.28-20,5.81-22.91-2.52-13.45-8.17-27.75-14.18-40.06-1.63-3.34-6.88-3-6.47-7.89v.02Z"/>
  <path d="M395.29,71.91c6.23-.26,13.33.69,19.64.88,3.15.09,15.39-.34,16.88.91.17,1.33.27.79-.46,2.04-1.33.9-3.23.89-4.79,1.14-1.86.29-3.68.83-4.75,2.53-2.43,3.85-3.9,53.1-2.59,59.11.2.92.49,1.53,1.37,2.01,3.35,1.84,11.7.97,15.43.07,8.04-1.93,11.59-7.13,15.65-13.7,1.08-1.74,2.6-4.45,4.66-4.94l.51.56c.49,1.84.31,2.55.05,4.46-1.25,6.55-2.57,13.08-3.97,19.59-13.13-1.32-26.69-1.34-39.87-2.04-6.77-.36-13.45.07-20.2-.27l-.45-.72c-.02-.35-.04-.74-.06-1.19,1.68-1.38,8.32-2.22,9.3-4.51,3.22-7.54,2.5-20.15,2.92-28.31.49-9.42,1.13-17.5.35-26.5-.7-8.1-6.4-6.28-9.46-8.39-.66-1.39-.47-.98-.16-2.73Z"/>
  <path d="M384.47,191.58l15.08,15.03,3.3,3.31-3.01,2.97c-4.32,3.77-11.05,10.94-15.36,15.23-4.38-4.81-10.51-10.64-15.24-15.25l-2.98-3.09,2.99-2.94c5.14-5.02,10.21-10.1,15.22-15.25h0Z"/>
  <path d="M237.58,209.65c13.77.13,29.07-.54,42.93-.83l88.73-1.99-2.99,2.94,2.98,3.09c-17.72.1-36.19-.44-53.97-.72l-99.03-1.46c-1.42.3-6.16-.23-7.64-.73,2.57-.73,25.66-.53,28.98-.31h0Z"/>
  <path d="M216.24,210.69c-1.42.3-6.16-.23-7.64-.73,2.57-.73,25.66-.53,28.98-.31-4.08.55-19.51-.2-21.34,1.04Z"/>
  <path d="M399.55,206.61c16.69.8,35.83.52,52.73.81l101.91,1.46c-1.12.16-3.08.38-4.1.66-10.35,0-21.54.5-31.99.71l-84.77,1.9c-10.71.23-22.98.85-33.49.75l3.01-2.97-3.3-3.31h0Z"/>
  <path d="M554.19,208.88c1.53-.04,2.98-.08,4.51-.05l.31.44.1-.43c.53.02.29-.07.74.23-3.35.76-6.35.67-9.76.47,1.02-.28,2.98-.5,4.1-.66Z"/>
  <path d="M186.46,263.47h12.81v2.52h-10.1v10.03h9.06v2.52h-9.06v12.04h-2.71v-27.1h0Z"/>
  <path d="M207.29,263.47h2.71v27.1h-2.71v-27.1Z"/>
  <path d="M219.4,263.47h2.63l10.88,20.87v-20.87h2.63v27.1h-2.36l-11.15-21.41v21.41h-2.63v-27.1Z"/>
  <path d="M251.19,263.31h2.83l8.05,27.25h-2.83l-2.05-7.05h-9.29l-2.05,7.05h-2.67l8.01-27.25ZM256.49,281.04l-3.91-13.7-3.99,13.7h7.9Z"/>
  <path d="M269.66,263.47h2.63l10.88,20.87v-20.87h2.63v27.1h-2.36l-11.15-21.41v21.41h-2.63v-27.1Z"/>
  <path d="M294.12,277.25v-.43c0-8.75,4.34-13.63,9.79-13.63,2.44,0,4.22.93,5.65,2.25l-1.51,2.13c-1.16-1.04-2.55-1.82-4.22-1.82-3.87,0-6.97,4.26-6.97,11.11v.27c0,7.04,3.1,11.15,6.93,11.15,1.66,0,3.14-.81,4.41-2.01l1.47,2.09c-1.59,1.47-3.6,2.48-6.04,2.48-5.46,0-9.52-4.76-9.52-13.59h.01Z"/>
  <path d="M317.58,263.47h2.71v27.1h-2.71v-27.1Z"/>
  <path d="M336.17,263.31h2.83l8.05,27.25h-2.83l-2.05-7.05h-9.29l-2.05,7.05h-2.67l8.01-27.25ZM341.47,281.04l-3.91-13.7-3.99,13.7h7.9Z"/>
  <path d="M354.63,263.47h2.71v24.58h9.48v2.52h-12.19v-27.1Z"/>
  <path d="M384.87,277.28v-.5c0-8.36,4.34-13.59,10.26-13.59,2.44,0,4.3.62,6.16,2.13l-1.55,2.28c-1.12-1.08-2.63-1.86-4.57-1.86-4.22,0-7.55,4.14-7.55,11.07v.35c0,7.24,3.21,11.19,7.67,11.19,1.43,0,2.71-.43,3.64-1.04v-8.63h-5.19v-2.48h7.78v12.54c-1.63,1.16-3.87,2.09-6.43,2.09-6.12,0-10.22-4.96-10.22-13.55Z"/>
  <path d="M410.31,263.47h6.54c2.75,0,4.99.85,6.46,2.32,1.35,1.35,2.13,3.37,2.13,5.81v.12c0,4.1-2.21,6.62-5.34,7.67l6.04,11.19h-3.1l-5.65-10.57c-.35.04-.7.04-1.04.04h-3.33v10.53h-2.71v-27.1h0ZM416.03,277.56c4.8,0,6.74-2.4,6.74-5.81v-.04c0-3.79-2.36-5.73-6.12-5.73h-3.64v11.58h3.02Z"/>
  <path d="M432.87,277.32v-.58c0-8.44,3.87-13.67,9.21-13.67s9.17,5.15,9.17,13.63v.58c0,8.44-3.91,13.67-9.25,13.67s-9.14-5.15-9.14-13.63h.01ZM448.48,277.25v-.46c0-7.01-2.79-11.15-6.43-11.15s-6.39,4.14-6.39,11.15v.46c0,7.01,2.75,11.15,6.39,11.15s6.43-4.14,6.43-11.15Z"/>
  <path d="M459.32,281.85v-18.39h2.71v18.43c0,4.26,2.01,6.54,5.26,6.54s5.19-2.21,5.19-6.46v-18.5h2.75v18.35c0,5.88-3.17,9.14-7.97,9.14s-7.94-3.25-7.94-9.1h0Z"/>
  <path d="M484.17,263.47h5.92c5.34,0,8.79,3.21,8.79,8.63v.08c0,5.57-3.68,8.75-8.94,8.83h-3.06v9.56h-2.71v-27.1ZM489.94,278.52c3.91,0,6.19-2.44,6.19-6.31v-.04c0-4.03-2.32-6.19-6.16-6.19h-3.1v12.54h3.07Z"/>
  <path d="M500.59,293.93c1.9-.66,2.55-1.78,2.4-3.37h-1.39v-3.87h3.33v3.29c0,2.98-1.2,4.41-3.87,5.23l-.46-1.28h-.01Z"/>
  <path d="M525.33,263.47h2.71v27.1h-2.71v-27.1Z"/>
  <path d="M537.44,263.47h2.63l10.88,20.87v-20.87h2.63v27.1h-2.36l-11.15-21.41v21.41h-2.63v-27.1Z"/>
  <path d="M561.91,277.25v-.43c0-8.75,4.34-13.63,9.79-13.63,2.44,0,4.22.93,5.65,2.25l-1.51,2.13c-1.16-1.04-2.55-1.82-4.22-1.82-3.87,0-6.97,4.26-6.97,11.11v.27c0,7.04,3.1,11.15,6.93,11.15,1.66,0,3.14-.81,4.41-2.01l1.47,2.09c-1.59,1.47-3.6,2.48-6.04,2.48-5.46,0-9.52-4.76-9.52-13.59h0Z"/>
  <path d="M584.63,286.69h3.33v3.87h-3.33v-3.87Z"/>
</svg>