<?xml version="1.0" encoding="UTF-8" standalone="no"?>
<!DOCTYPE svg PUBLIC "-//W3C//DTD SVG 1.1//EN" "http://www.w3.org/Graphics/SVG/1.1/DTD/svg11.dtd">
<svg width="100%" height="100%" viewBox="0 0 171 26" version="1.1" xmlns="http://www.w3.org/2000/svg" xmlns:xlink="http://www.w3.org/1999/xlink" xml:space="preserve" xmlns:serif="http://www.serif.com/" style="fill-rule:evenodd;clip-rule:evenodd;stroke-linejoin:round;stroke-miterlimit:2;">
    <g transform="matrix(1,0,0,1,-15,-37)">
        <g id="crabnebula" transform="matrix(1,0,0,1,15,37)">
            <path id="Path" d="M42.926,22C41.693,22 40.534,21.763 39.448,21.289C38.361,20.815 37.413,20.169 36.602,19.351C35.808,18.534 35.175,17.586 34.705,16.507C34.235,15.411 34,14.243 34,13C34,11.757 34.235,10.597 34.705,9.518C35.175,8.422 35.808,7.466 36.602,6.649C37.413,5.831 38.361,5.185 39.448,4.711C40.534,4.237 41.693,4 42.926,4C43.817,4 44.669,4.114 45.479,4.343C46.306,4.572 47.06,4.899 47.741,5.324C48.438,5.733 49.062,6.232 49.614,6.82C50.165,7.392 50.627,8.038 51,8.757L47.595,10.621C47.109,9.738 46.476,9.044 45.698,8.537C44.936,8.03 44.012,7.777 42.926,7.777C42.212,7.777 41.547,7.916 40.931,8.193C40.331,8.471 39.804,8.856 39.351,9.346C38.897,9.82 38.54,10.376 38.28,11.014C38.021,11.635 37.891,12.297 37.891,13C37.891,13.703 38.021,14.373 38.28,15.011C38.54,15.632 38.897,16.188 39.351,16.679C39.804,17.153 40.331,17.529 40.931,17.806C41.547,18.084 42.212,18.223 42.926,18.223C44.012,18.223 44.936,17.97 45.698,17.463C46.476,16.956 47.109,16.262 47.595,15.379L51,17.243C50.627,17.962 50.165,18.616 49.614,19.204C49.062,19.777 48.438,20.275 47.741,20.7C47.06,21.109 46.306,21.428 45.479,21.657C44.669,21.886 43.817,22 42.926,22Z" style="fill-rule:nonzero;"/>
            <path id="Path1" serif:id="Path" d="M53,10.142L56.787,10.142L56.787,11.921C56.988,11.399 57.355,10.949 57.89,10.569C58.442,10.19 59.069,10 59.771,10C59.955,10 60.147,10.008 60.348,10.024C60.549,10.04 60.766,10.079 61,10.142L61,13.771C60.716,13.676 60.44,13.605 60.172,13.557C59.905,13.51 59.621,13.486 59.32,13.486C58.501,13.486 57.874,13.755 57.439,14.292C57.004,14.83 56.787,15.526 56.787,16.379L56.787,22L53,22L53,10.142Z" style="fill-rule:nonzero;"/>
            <path id="Shape" d="M66.364,22C65.609,22 64.9,21.839 64.237,21.517C63.59,21.195 63.027,20.766 62.549,20.23C62.071,19.678 61.694,19.042 61.416,18.322C61.139,17.586 61,16.812 61,16C61,15.188 61.139,14.421 61.416,13.701C61.694,12.966 62.071,12.329 62.549,11.793C63.027,11.241 63.59,10.805 64.237,10.483C64.9,10.161 65.609,10 66.364,10C66.749,10 67.104,10.046 67.428,10.138C67.767,10.215 68.067,10.322 68.329,10.46C68.607,10.598 68.838,10.751 69.023,10.92C69.223,11.088 69.385,11.249 69.509,11.402L69.509,10.253L73,10.253L73,21.747L69.509,21.747L69.509,20.598C69.385,20.751 69.223,20.912 69.023,21.08C68.838,21.249 68.607,21.402 68.329,21.54C68.067,21.678 67.767,21.785 67.428,21.862C67.104,21.954 66.749,22 66.364,22ZM67.15,18.851C67.936,18.851 68.568,18.582 69.046,18.046C69.539,17.51 69.786,16.828 69.786,16C69.786,15.172 69.539,14.49 69.046,13.954C68.568,13.418 67.936,13.149 67.15,13.149C66.364,13.149 65.724,13.418 65.231,13.954C64.753,14.49 64.514,15.172 64.514,16C64.514,16.828 64.753,17.51 65.231,18.046C65.724,18.582 66.364,18.851 67.15,18.851Z" style="fill-rule:nonzero;"/>
            <path id="Shape1" serif:id="Shape" d="M84.636,22C84.251,22 83.888,21.953 83.549,21.858C83.225,21.779 82.925,21.669 82.647,21.527C82.385,21.385 82.154,21.227 81.954,21.054C81.753,20.88 81.599,20.715 81.491,20.557L81.491,21.74L78,21.74L78,4L81.491,4L81.491,11.096C81.599,10.938 81.753,10.773 81.954,10.599C82.154,10.426 82.385,10.268 82.647,10.126C82.925,9.984 83.225,9.874 83.549,9.795C83.888,9.7 84.251,9.653 84.636,9.653C85.391,9.653 86.093,9.819 86.74,10.15C87.403,10.481 87.973,10.93 88.451,11.498C88.929,12.05 89.306,12.704 89.584,13.461C89.861,14.202 90,14.991 90,15.826C90,16.662 89.861,17.459 89.584,18.216C89.306,18.957 88.929,19.611 88.451,20.179C87.973,20.731 87.403,21.172 86.74,21.503C86.093,21.834 85.391,22 84.636,22ZM83.85,18.76C84.636,18.76 85.268,18.484 85.746,17.932C86.239,17.38 86.486,16.678 86.486,15.826C86.486,14.975 86.239,14.273 85.746,13.721C85.268,13.169 84.636,12.893 83.85,12.893C83.064,12.893 82.424,13.169 81.931,13.721C81.453,14.273 81.214,14.975 81.214,15.826C81.214,16.678 81.453,17.38 81.931,17.932C82.424,18.484 83.064,18.76 83.85,18.76Z" style="fill-rule:nonzero;"/>
            <path id="Path2" serif:id="Path" d="M103.799,22L95.715,11.489L95.715,22L92,22L92,5L95.201,5L103.262,15.511L103.262,5L107,5L107,22L103.799,22Z" style="fill-rule:nonzero;"/>
            <path id="Shape2" serif:id="Shape" d="M115.234,22C114.375,22 113.562,21.862 112.797,21.586C112.047,21.31 111.391,20.912 110.828,20.391C110.266,19.87 109.82,19.241 109.492,18.506C109.164,17.755 109,16.92 109,16C109,15.142 109.148,14.352 109.445,13.632C109.758,12.897 110.188,12.261 110.734,11.724C111.297,11.188 111.953,10.766 112.703,10.46C113.453,10.153 114.274,10 115.164,10C115.93,10 116.664,10.123 117.367,10.368C118.086,10.598 118.711,10.95 119.242,11.425C119.773,11.885 120.195,12.467 120.508,13.172C120.836,13.862 121,14.674 121,15.609C121,15.762 120.992,15.939 120.977,16.138C120.977,16.322 120.961,16.552 120.93,16.828L112.422,16.828C112.531,17.517 112.867,18.031 113.43,18.368C113.992,18.69 114.609,18.851 115.281,18.851C115.969,18.851 116.555,18.72 117.039,18.46C117.539,18.184 117.898,17.877 118.117,17.54L120.742,19.471C120.195,20.237 119.445,20.851 118.492,21.31C117.555,21.77 116.469,22 115.234,22ZM117.484,14.552C117.328,13.939 117.016,13.502 116.547,13.241C116.078,12.966 115.586,12.828 115.07,12.828C114.805,12.828 114.539,12.858 114.274,12.919C114.008,12.981 113.758,13.08 113.523,13.218C113.289,13.356 113.078,13.533 112.891,13.747C112.719,13.962 112.594,14.23 112.516,14.552L117.484,14.552Z" style="fill-rule:nonzero;"/>
            <path id="Shape3" serif:id="Shape" d="M130.636,22C130.25,22 129.888,21.953 129.549,21.858C129.225,21.779 128.925,21.669 128.647,21.527C128.385,21.385 128.154,21.227 127.954,21.054C127.753,20.88 127.599,20.715 127.491,20.557L127.491,21.74L124,21.74L124,4L127.491,4L127.491,11.096C127.599,10.938 127.753,10.773 127.954,10.599C128.154,10.426 128.385,10.268 128.647,10.126C128.925,9.984 129.225,9.874 129.549,9.795C129.888,9.7 130.25,9.653 130.636,9.653C131.391,9.653 132.092,9.819 132.74,10.15C133.403,10.481 133.973,10.93 134.451,11.498C134.929,12.05 135.306,12.704 135.584,13.461C135.861,14.202 136,14.991 136,15.826C136,16.662 135.861,17.459 135.584,18.216C135.306,18.957 134.929,19.611 134.451,20.179C133.973,20.731 133.403,21.172 132.74,21.503C132.092,21.834 131.391,22 130.636,22ZM129.85,18.76C130.636,18.76 131.268,18.484 131.746,17.932C132.239,17.38 132.486,16.678 132.486,15.826C132.486,14.975 132.239,14.273 131.746,13.721C131.268,13.169 130.636,12.893 129.85,12.893C129.064,12.893 128.424,13.169 127.931,13.721C127.453,14.273 127.214,14.975 127.214,15.826C127.214,16.678 127.453,17.38 127.931,17.932C128.424,18.484 129.064,18.76 129.85,18.76Z" style="fill-rule:nonzero;"/>
            <path id="Path3" serif:id="Path" d="M142.795,22C141.222,22 140.03,21.515 139.218,20.544C138.406,19.573 138,18.29 138,16.693L138,10L141.831,10L141.831,16.082C141.831,16.943 141.975,17.609 142.262,18.078C142.566,18.548 143.074,18.783 143.784,18.783C144.512,18.783 145.087,18.54 145.509,18.055C145.949,17.569 146.169,16.787 146.169,15.706L146.169,10L150,10L150,21.742L146.169,21.742L146.169,20.544C145.865,20.951 145.433,21.295 144.875,21.577C144.317,21.859 143.624,22 142.795,22Z" style="fill-rule:nonzero;"/>
            <path id="Path4" serif:id="Path" d="M153,4L157,4L157,22L153,22L153,4Z" style="fill-rule:nonzero;"/>
            <path id="Shape4" serif:id="Shape" d="M164.364,22C163.609,22 162.9,21.839 162.237,21.517C161.59,21.195 161.027,20.766 160.549,20.23C160.072,19.678 159.694,19.042 159.417,18.322C159.138,17.586 159,16.812 159,16C159,15.188 159.138,14.421 159.417,13.701C159.694,12.966 160.072,12.329 160.549,11.793C161.027,11.241 161.59,10.805 162.237,10.483C162.9,10.161 163.609,10 164.364,10C164.75,10 165.104,10.046 165.428,10.138C165.767,10.215 166.068,10.322 166.33,10.46C166.607,10.598 166.839,10.751 167.024,10.92C167.224,11.088 167.385,11.249 167.508,11.402L167.508,10.253L171,10.253L171,21.747L167.508,21.747L167.508,20.598C167.385,20.751 167.224,20.912 167.024,21.08C166.839,21.249 166.607,21.402 166.33,21.54C166.068,21.678 165.767,21.785 165.428,21.862C165.104,21.954 164.75,22 164.364,22ZM165.15,18.851C165.936,18.851 166.568,18.582 167.047,18.046C167.539,17.51 167.787,16.828 167.787,16C167.787,15.172 167.539,14.49 167.047,13.954C166.568,13.418 165.936,13.149 165.15,13.149C164.364,13.149 163.724,13.418 163.232,13.954C162.753,14.49 162.515,15.172 162.515,16C162.515,16.828 162.753,17.51 163.232,18.046C163.724,18.582 164.364,18.851 165.15,18.851Z" style="fill-rule:nonzero;"/>
            <path id="Shape5" serif:id="Shape" d="M10.589,5.049C6.404,10.718 6.428,17.962 10.643,21.228C11.751,22.086 13.038,22.584 14.409,22.749C10.519,25.996 6.037,27.003 3.011,24.889C-1.139,21.989 -0.98,14.315 3.367,7.749C6.996,2.266 12.397,-0.71 16.497,0.145C14.331,1.129 12.253,2.795 10.589,5.049ZM16.088,12.29C14.134,14.187 11.9,15.449 10.013,15.869C11.127,19.959 15.408,20.273 15.408,20.273C15.408,20.273 17.956,19.671 19.88,15.23C21.464,11.573 21.326,7.794 19.729,5.871C19.597,7.729 18.293,10.149 16.088,12.29Z"/>
        </g>
    </g>
</svg>
