<?xml version="1.0" encoding="UTF-8"?>
<svg width="173px" height="32px" viewBox="0 0 173 32" version="1.1" xmlns="http://www.w3.org/2000/svg" xmlns:xlink="http://www.w3.org/1999/xlink">
    <title>Group</title>
    <g id="Landing-Page" stroke="none" stroke-width="1" fill="none" fill-rule="evenodd">
        <g id="DT-/-Embroider-Initiative" transform="translate(-238, -2644)" fill="#000000">
            <g id="Group" transform="translate(238.167, 2644.965)">
                <path d="M28.253623,14.0451314 L28.253623,14.3461743 C27.2745461,15.5630272 25.9443449,16.4248143 24.4572065,16.8057574 C22.9450313,15.5471503 21.3602905,14.3843202 19.7117366,13.3236592 C19.2442834,13.0062238 18.7504704,12.6815716 18.2306029,12.3399084 C17.2685224,11.7074088 16.2173887,11.0165564 15.0794408,10.2042867 C15.0758786,10.1352015 15.0670242,10.0677039 15.058068,10.0000517 C15.0465674,9.91254309 15.034965,9.82478699 15.034965,9.73305136 C15.034965,5.53778016 18.2780301,2.40592271 22.5590999,2.40592271 C24.7612088,2.38477754 26.8562502,3.38600322 28.2657343,5.13326911 L28.2657343,5.43769368 L25.7698005,7.652102 L25.4790289,7.652102 C24.7273177,6.79649039 23.6655994,6.30118189 22.5469887,6.28425337 C21.6585934,6.27027343 20.8031733,6.63139099 20.178681,7.28404601 C19.5542905,7.93670103 19.2149721,8.8242933 19.2392964,9.7413919 C19.2150739,10.6563358 19.5527639,11.5419383 20.1745082,12.1941294 C20.7962526,12.8464235 21.6485177,13.2091185 22.5347757,13.1984995 C23.6540988,13.1805606 24.7159189,12.6836335 25.4669177,11.8264858 L25.7576893,11.8264858 L28.253623,14.0451314 Z M20.6730029,16.8391608 C19.0755402,16.4815176 17.6415283,15.5783887 16.6024041,14.2758623 C16.7140514,14.3490611 16.8221366,14.4222599 16.9302218,14.4954587 C17.0965224,14.6080405 17.2627212,14.7207254 17.4420491,14.8333073 C18.4598005,15.5422017 19.5502195,16.1843923 20.6730029,16.8391608 Z" id="Shape"></path>
                <path d="M42.6455727,13.1036338 L43.3006993,15.8964214 L43.2070662,16.2021032 C42.6932034,16.6266556 42.0400105,16.8528498 41.3693123,16.8385194 C39.6675301,16.8385194 38.7231585,16.4239674 37.5404295,14.5690508 C37.5239419,14.5422457 37.5069455,14.5145127 37.4893384,14.4858518 C36.9032153,13.5302481 35.7171277,11.5962564 34.783646,11.5962564 L34.388046,11.5962564 L34.388046,16.5746948 L30.0699301,16.5746948 L30.0699301,2.40559441 L36.5789597,2.40559441 C40.3227585,2.40559441 42.3392295,4.23535534 42.3392295,7.1411988 C42.3533762,8.85234694 41.2893171,10.3932514 39.6675301,11.0100483 C40.1228721,11.3010904 40.4984224,11.6980128 40.7609005,12.1656596 C40.7735206,12.1854542 40.7861407,12.205455 40.7989644,12.2256619 C41.0543182,12.6289764 41.354962,13.1036338 41.8329999,13.1036338 C42.0341076,13.1112629 42.2328744,13.0586836 42.4030425,12.9529063 L42.6455727,13.1036338 Z M37.9142496,7.36566102 C37.9262591,7.75501617 37.7679987,8.13079348 37.4796697,8.39777279 C37.1907301,8.66533976 36.7989975,8.79785 36.4039064,8.76160119 L34.3874354,8.76160119 L34.3874354,5.88506813 L36.4039064,5.88506813 C36.8097857,5.86447971 37.2055892,6.01387719 37.4933076,6.2963004 C37.7807206,6.57833184 37.9335869,6.9667385 37.9142496,7.36566102 Z" id="Shape"></path>
                <path d="M51.7181949,2.40559441 C56.1911331,2.40559441 59.5384615,5.49028468 59.5384615,9.62237762 C59.5384615,13.7338821 56.1869634,16.8391608 51.7181949,16.8391608 C47.2494264,16.8391608 43.9020979,13.7545015 43.9020979,9.62237762 C43.9020979,5.49028468 47.2452567,2.40559441 51.7181949,2.40559441 Z M53.4892737,12.6696128 C54.5799621,12.0347421 55.2309561,10.8663449 55.1868615,9.62237762 C55.2309561,8.37840008 54.5799621,7.20996164 53.4892737,6.57516308 C52.3985852,5.94035421 51.0419743,5.94035421 49.9512858,6.57516308 C48.8605973,7.20996164 48.2096034,8.37840008 48.2536979,9.62237762 C48.2096034,10.8663449 48.8605973,12.0347421 49.9512858,12.6696128 C51.0419743,13.3043804 52.3985852,13.3043804 53.4892737,12.6696128 Z" id="Shape"></path>
                <polygon id="Path" fill-rule="nonzero" points="79.8027017 2.40559441 75.925948 2.40559441 73.5274501 10.4019964 70.9814231 2.40559441 68.5231161 2.40559441 66.0010127 10.3551286 63.5985276 2.40559441 59.7217738 2.40559441 59.5384615 2.73788603 64.5029228 16.8391608 66.9612298 16.8391608 69.7502759 8.97908388 72.5632457 16.8391608 75.02554 16.8391608 79.986014 2.73788603"></polygon>
                <path d="M88.577909,2.40559441 C92.9325622,2.40559441 95.6104699,5.29060659 95.6104699,9.6032016 L95.6223776,9.59467548 C95.6223776,13.9498701 92.9603469,16.8391608 88.5898167,16.8391608 L82.3916084,16.8391608 L82.3916084,2.40559441 L88.577909,2.40559441 Z M88.4134403,13.2851013 C90.1889078,13.2851013 91.4799256,11.9733994 91.4807398,9.622357 C91.4807398,9.62306837 91.4807398,9.62377974 91.4807398,9.62449111 L91.4807398,9.62023321 C91.4807398,9.62094458 91.4807398,9.62165594 91.4807398,9.622357 C91.4799256,7.26711856 90.1889078,5.95963333 88.4134403,5.95963333 L86.4267895,5.95963333 L86.4267895,13.2851013 L88.4134403,13.2851013 Z" id="Shape"></path>
                <polygon id="Path" fill-rule="nonzero" points="118.876796 5.95860236 123.286713 5.95860236 123.286713 2.40559441 110.055944 2.40559441 110.055944 5.95860236 114.465861 5.95860236 114.465861 16.8391608 118.876796 16.8391608"></polygon>
                <path d="M130.716993,2.40559441 C134.299324,2.40559441 136.228811,4.27321542 136.228811,7.23241614 L136.244848,7.21536392 C136.244848,9.10430537 135.23951,10.4133474 133.750047,11.1509954 L136.517483,16.5065702 L136.330047,16.8391608 L132.202448,16.8391608 L129.626457,11.7692675 L128.641166,11.7692675 L128.641166,16.8391608 L124.48951,16.8391608 L124.48951,2.40559441 L130.716993,2.40559441 Z M132.01,7.46096136 C132.02303,7.85790505 131.871678,8.24145646 131.596037,8.51366322 C131.319394,8.78645762 130.94352,8.9209166 130.564639,8.88257487 L128.640163,8.88257487 L128.640163,5.9532207 L130.564639,5.9532207 C130.953543,5.93088991 131.333427,6.08258669 131.609068,6.37051572 C131.883706,6.65803237 132.030047,7.05434717 132.01,7.46096136 Z" id="Shape"></path>
                <rect id="Rectangle" fill-rule="nonzero" x="138.923077" y="2.40559441" width="3.60839161" height="14.4335664"></rect>
                <polygon id="Path" fill-rule="nonzero" points="153.611266 8.86832687 158.406911 2.73788603 158.211503 2.40559441 153.694722 2.40559441 149.776379 7.53488184 149.776379 2.40559441 145.538462 2.40559441 145.538462 16.8391608 149.776379 16.8391608 149.776379 12.4000144 150.545799 11.4670905 154.144568 16.8391608 158.577893 16.8391608 158.769231 16.5068795"></polygon>
                <polygon id="Path" fill-rule="nonzero" points="171.932884 5.95860236 171.932884 2.40559441 161.174825 2.40559441 161.174825 16.8391608 172 16.8391608 172 13.2861323 165.47675 13.2861323 165.47675 11.2881143 170.391379 11.2881143 170.391379 7.95664096 165.47675 7.95664096 165.47675 5.95860236"></polygon>
                <path d="M103.020984,16.8391608 C106.143846,16.8391608 108.853147,15.3436372 108.853147,12.4511504 C108.853147,9.30396284 106.122797,8.48634254 103.710888,7.80431528 C102.765991,7.52493299 101.796035,7.20445626 101.796035,6.51831544 C101.796035,6.02528543 102.335389,5.72535592 103.150585,5.72535592 C104.551142,5.72535592 105.733893,6.57994677 106.336294,7.13872168 L106.636993,7.13872168 L108.660699,4.78448328 L108.660699,4.48455377 C107.5862,3.30948619 105.433193,2.40559441 103.066991,2.40559441 C99.7516807,2.40559441 97.4523333,4.16407704 97.4523333,6.71142625 C97.4523333,9.45186565 99.9858252,10.6515837 102.138932,11.2308955 C103.539389,11.6170965 104.488497,11.6828723 104.488497,12.4306342 C104.488497,12.9688 103.819541,13.2893283 102.786939,13.2893283 C101.474186,13.2893283 99.8812821,12.4675429 99.1078834,11.7033886 L98.8068834,11.7033886 L96.8251748,14.1438985 L96.8251748,14.4438074 C98.0793916,15.8366466 100.374629,16.8186446 103.020984,16.8186446" id="Path" fill-rule="nonzero"></path>
                <path d="M28.8671329,30.0699301 C27.8594571,27.7813378 25.8358619,24.8446603 17.9087991,20.6482091 C14.2574122,18.622879 8.01122707,15.528142 2.40559441,9.62237762 C2.91148813,11.7530126 5.5184789,16.4355021 16.7378761,22.2846267 C19.8344867,23.9616327 25.0892394,25.5534747 28.8671329,30.0699301" id="Path" fill-rule="nonzero"></path>
                <path d="M27.6643357,26.4615385 C26.7345066,23.6495237 25.057638,20.0503311 17.0826248,14.7041477 C13.2003964,12.0099397 7.50218873,8.61283914 0,0 C0.536438108,2.32369354 2.90868973,8.37289649 14.8533917,16.2237809 C18.7793707,19.0400295 23.8417392,20.7785526 27.6643357,26.4615385" id="Path" fill-rule="nonzero"></path>
            </g>
        </g>
    </g>
</svg>