<?xml version="1.0" encoding="UTF-8" standalone="no"?>
<!DOCTYPE svg PUBLIC "-//W3C//DTD SVG 1.1//EN" "http://www.w3.org/Graphics/SVG/1.1/DTD/svg11.dtd">
<svg viewBox="0 0 432 116" version="1.1" xmlns="http://www.w3.org/2000/svg" xmlns:xlink="http://www.w3.org/1999/xlink" xml:space="preserve" xmlns:serif="http://www.serif.com/" style="fill-rule:evenodd;clip-rule:evenodd;stroke-linejoin:round;stroke-miterlimit:2;">
    <g transform="matrix(1,0,0,1,-0.0001,0)">
        <g transform="matrix(1,0,0,1,-204.514,-256.619)">
            <path d="M221.097,371.814C225.243,371.834 228.786,370.763 231.816,368.523C233.715,367.119 235.224,365.175 233.262,362.911C232.345,361.853 230.234,361.334 228.165,363.115C226.548,364.507 223.543,365.02 221.097,364.814C218.718,364.613 216.066,363.325 214.573,361.756C213.413,360.537 212.602,358.833 212.262,357.27L233.874,357.27C235.87,357.27 237.476,355.979 237.476,353.94C237.476,344.97 229.929,337.833 221.097,337.833C211.786,337.833 204.514,345.58 204.514,354.823C204.514,364.066 211.786,371.77 221.097,371.814ZM221.097,344.489C227.027,344.592 230.476,348.775 231.155,351.493L211.922,351.493C212.466,348.707 215.315,344.389 221.097,344.489ZM278.213,345.105C281.951,345.105 285.077,348.232 285.077,352.105L285.077,368.212C285.077,370.182 286.776,371.814 288.747,371.814C290.718,371.814 292.349,370.183 292.349,368.212L292.349,352.105C292.349,344.221 286.028,337.833 278.213,337.833C273.931,337.833 270.057,339.6 267.543,342.522C264.96,339.6 261.154,337.833 256.872,337.833C254.29,337.833 251.775,338.58 249.601,339.872C249.057,338.58 247.765,337.833 246.338,337.833C244.367,337.833 242.736,339.397 242.736,341.503L242.736,368.212C242.736,370.249 244.378,371.814 246.338,371.814C248.383,371.814 250.008,370.097 250.008,368.089L250.008,352.105C250.008,348.231 253.135,345.105 256.872,345.105C260.678,345.105 263.807,348.163 263.873,351.901C263.874,351.968 263.873,352.038 263.873,352.105L263.873,368.212C263.873,370.182 265.64,371.814 267.543,371.814C269.514,371.814 271.145,370.183 271.145,368.212L271.145,352.105C271.145,352.037 271.142,351.968 271.145,351.901C271.277,348.163 274.339,345.105 278.213,345.105ZM298.521,368.144C298.521,370.115 300.152,371.814 302.191,371.814C304.026,371.814 305.453,370.523 305.793,368.891C308.375,370.659 311.638,371.814 315.035,371.814C324.21,371.814 331.55,364.066 331.55,354.891C331.55,345.58 324.21,337.833 315.035,337.833C311.705,337.833 308.443,338.92 305.929,340.687L305.929,327.91C305.929,325.939 304.297,324.24 302.191,324.24C300.152,324.24 298.521,325.94 298.521,327.91L298.521,368.144ZM308.647,348.027C310.346,346.26 312.521,345.241 315.035,345.241C317.482,345.241 319.725,346.26 321.424,348.027C323.123,349.726 324.143,352.173 324.143,354.891C324.143,357.474 323.123,359.92 321.424,361.62C319.725,363.387 317.482,364.406 315.035,364.406C312.521,364.406 310.346,363.387 308.647,361.62C306.948,359.92 305.929,357.474 305.929,354.891C305.929,352.173 306.948,349.726 308.647,348.027ZM352.337,371.814C356.672,371.835 360.347,370.664 363.466,368.21C365.226,366.826 366.26,364.938 364.502,362.911C363.585,361.852 361.238,361.449 359.405,363.115C357.826,364.55 354.783,365.02 352.337,364.814C349.958,364.613 347.306,363.326 345.813,361.756C344.653,360.536 343.842,358.833 343.502,357.27L365.114,357.27C367.329,357.27 368.833,355.69 368.716,353.6C368.176,344.425 361.172,337.833 352.337,337.833C343.026,337.833 335.754,345.58 335.754,354.823C335.754,364.066 343.026,371.769 352.337,371.814ZM352.337,344.489C358.268,344.592 361.716,348.775 362.395,351.493L343.162,351.493C343.706,348.707 346.555,344.388 352.337,344.489ZM391.047,337.901C387.649,337.859 384.717,339.044 382.484,340.551C382,340.878 381.464,341.435 381.056,341.91L381.056,341.435C381.056,339.464 379.357,337.901 377.318,337.901C375.347,337.901 373.716,339.465 373.716,341.435L373.716,368.212C373.716,370.181 375.347,371.814 377.318,371.814C379.357,371.814 381.056,370.183 381.056,368.212L381.056,355.799C381.056,352.905 382.671,350.23 384.52,348.385C386.388,346.522 388.315,345.169 391.047,345.037C393.083,344.938 394.649,343.338 394.649,341.435C394.649,339.464 393.085,337.926 391.047,337.901Z"/>
        </g>
        <g transform="matrix(1,0,0,1,-204.514,-256.619)">
            <path d="M416.748,372.381C414.299,372.381 412.04,371.936 409.972,371.045C407.904,370.154 406.115,368.937 404.604,367.395C403.093,365.852 401.908,364.03 401.049,361.931C400.19,359.831 399.761,357.589 399.761,355.203L399.761,355.107C399.761,352.722 400.182,350.487 401.025,348.403C401.868,346.32 403.053,344.491 404.58,342.916C406.107,341.341 407.92,340.1 410.02,339.194C412.119,338.287 414.442,337.834 416.986,337.834C418.514,337.834 419.905,337.961 421.162,338.216C422.418,338.47 423.571,338.828 424.621,339.289C425.671,339.751 426.641,340.299 427.532,340.936C428.423,341.572 429.266,342.272 430.061,343.035L426.292,347.377C424.955,346.137 423.54,345.135 422.045,344.371C420.549,343.608 418.848,343.226 416.939,343.226C415.348,343.226 413.877,343.536 412.525,344.156C411.173,344.777 410.004,345.62 409.018,346.685C408.032,347.751 407.268,349 406.728,350.431C406.187,351.863 405.916,353.39 405.916,355.012L405.916,355.108C405.916,356.73 406.187,358.265 406.728,359.712C407.268,361.16 408.032,362.424 409.018,363.506C410.004,364.587 411.173,365.438 412.525,366.058C413.877,366.679 415.348,366.989 416.939,366.989C418.975,366.989 420.724,366.599 422.188,365.82C423.651,365.041 425.099,363.983 426.53,362.647L430.3,366.464C429.441,367.387 428.542,368.206 427.604,368.922C426.665,369.637 425.655,370.258 424.574,370.782C423.492,371.307 422.307,371.705 421.019,371.975C419.73,372.246 418.307,372.381 416.748,372.381ZM436.455,338.407L442.324,338.407L442.324,352.292L458.262,352.292L458.262,338.407L464.131,338.407L464.131,371.808L458.262,371.808L458.262,357.732L442.324,357.732L442.324,371.808L436.455,371.808L436.455,338.407ZM472.72,338.407L497.485,338.407L497.485,343.655L478.589,343.655L478.589,352.34L495.338,352.34L495.338,357.589L478.589,357.589L478.589,366.559L497.724,366.559L497.724,371.808L472.72,371.808L472.72,338.407ZM520.199,372.381C517.749,372.381 515.49,371.936 513.423,371.045C511.355,370.154 509.566,368.937 508.055,367.395C506.544,365.852 505.359,364.03 504.5,361.931C503.641,359.831 503.211,357.589 503.211,355.203L503.211,355.107C503.211,352.722 503.633,350.487 504.476,348.403C505.319,346.32 506.504,344.491 508.031,342.916C509.558,341.341 511.371,340.1 513.47,339.194C515.57,338.287 517.892,337.834 520.437,337.834C521.964,337.834 523.356,337.961 524.612,338.216C525.869,338.47 527.022,338.828 528.072,339.289C529.122,339.751 530.092,340.299 530.983,340.936C531.873,341.572 532.716,342.272 533.512,343.035L529.742,347.377C528.406,346.137 526.99,345.135 525.495,344.371C524,343.608 522.298,343.226 520.39,343.226C518.799,343.226 517.328,343.536 515.976,344.156C514.624,344.777 513.455,345.62 512.468,346.685C511.482,347.751 510.719,349 510.178,350.431C509.637,351.863 509.367,353.39 509.367,355.012L509.367,355.108C509.367,356.73 509.637,358.265 510.178,359.712C510.719,361.16 511.482,362.424 512.468,363.506C513.455,364.587 514.624,365.438 515.976,366.058C517.328,366.679 518.799,366.989 520.39,366.989C522.425,366.989 524.175,366.599 525.638,365.82C527.102,365.041 528.549,363.983 529.981,362.647L533.75,366.464C532.891,367.387 531.993,368.206 531.054,368.922C530.116,369.637 529.106,370.258 528.024,370.782C526.943,371.307 525.758,371.705 524.469,371.975C523.181,372.246 521.757,372.381 520.199,372.381ZM539.906,338.407L545.775,338.407L545.775,355.203L561.665,338.407L568.87,338.407L554.984,352.769L569.49,371.808L562.38,371.808L550.976,356.778L545.775,362.122L545.775,371.808L539.906,371.808L539.906,338.407ZM588.195,372.333C586.032,372.333 584.076,372.023 582.326,371.403C580.577,370.782 579.081,369.852 577.841,368.611C576.6,367.371 575.646,365.836 574.978,364.007C574.31,362.178 573.976,360.054 573.976,357.636L573.976,338.407L579.845,338.407L579.845,357.398C579.845,360.515 580.593,362.885 582.088,364.508C583.583,366.13 585.65,366.941 588.291,366.941C590.899,366.941 592.951,366.162 594.446,364.603C595.941,363.044 596.689,360.722 596.689,357.636L596.689,338.407L602.558,338.407L602.558,357.35C602.558,359.831 602.216,362.01 601.532,363.887C600.848,365.764 599.886,367.331 598.645,368.588C597.405,369.844 595.902,370.782 594.136,371.403C592.371,372.023 590.39,372.333 588.195,372.333ZM623.315,355.775C625.542,355.775 627.3,355.219 628.588,354.105C629.876,352.992 630.52,351.56 630.52,349.811L630.52,349.715C630.52,347.743 629.868,346.256 628.564,345.254C627.26,344.252 625.51,343.751 623.315,343.751L616.492,343.751L616.492,355.776L623.315,355.776ZM610.622,338.407L623.792,338.407C625.733,338.407 627.49,338.669 629.065,339.194C630.64,339.719 631.976,340.474 633.073,341.46C634.171,342.447 635.014,343.624 635.602,344.991C636.191,346.359 636.485,347.886 636.485,349.572L636.485,349.668C636.485,351.545 636.135,353.191 635.435,354.606C634.736,356.022 633.781,357.207 632.572,358.161C631.363,359.116 629.948,359.839 628.325,360.333C626.703,360.825 624.969,361.072 623.124,361.072L616.492,361.072L616.492,371.808L610.622,371.808L610.622,338.407Z"/>
        </g>
        <g transform="matrix(1,0,0,1,-204.514,-256.619)">
            <path d="M364.868,256.619C367.574,256.619 369.787,258.833 369.787,261.538L369.787,271.579L379.828,271.579C382.534,271.579 384.747,273.793 384.747,276.498C384.747,279.204 382.534,281.418 379.828,281.418L369.787,281.418L369.787,291.458C369.787,294.164 367.574,296.378 364.868,296.378C362.162,296.378 359.949,294.164 359.949,291.458L359.949,281.418L349.908,281.418C347.202,281.418 344.989,279.204 344.989,276.498C344.989,273.793 347.202,271.579 349.908,271.579L359.949,271.579L359.949,261.538C359.949,258.833 362.162,256.619 364.868,256.619Z"/>
        </g>
        <g transform="matrix(1,0,0,1,-204.514,-256.619)">
            <path d="M231.885,279.125C230.88,273.718 233.638,271.568 237.917,271.568L292.083,271.568C295.848,271.568 297.841,274.013 297.105,277.819L307.332,277.819C306.595,274.013 308.589,271.568 312.354,271.568L337.833,271.568C337.273,273.117 336.966,274.786 336.966,276.524C336.966,278.332 337.297,280.064 337.901,281.665L319.021,281.665L327.911,309.033L356.74,309.033L357.962,302.615C360.087,303.821 362.54,304.511 365.149,304.511C366.082,304.511 366.995,304.422 367.88,304.253L366.011,314.304C365.328,317.981 363.112,319.13 359.09,319.13L325.879,319.13C321.608,319.13 320.19,317.793 318.958,313.986L310.534,287.958L293.903,287.958L285.479,313.986C284.247,317.793 282.829,319.13 278.557,319.13L245.347,319.13C241.325,319.13 239.109,317.981 238.425,314.304L231.885,279.125ZM342.807,287.307C339.836,287.307 337.412,290.821 337.412,295.129C337.412,299.437 339.836,302.951 342.807,302.951C345.778,302.951 348.202,299.437 348.202,295.129C348.202,290.821 345.778,287.307 342.807,287.307ZM261.629,287.307C264.601,287.307 267.024,290.821 267.024,295.129C267.024,299.437 264.601,302.951 261.629,302.951C258.658,302.951 256.235,299.437 256.235,295.129C256.235,290.821 258.658,287.307 261.629,287.307ZM242.489,281.665L285.415,281.665L276.525,309.034L247.696,309.034L242.489,281.665Z"/>
        </g>
    </g>
</svg>
