<svg xmlns="http://www.w3.org/2000/svg" width="163" height="28" class="d-none d-lg-inline" viewBox="0 0 163 85.809"><title>Emergent Tree</title><path d="M-105.839 3.245c0 1.792-6.88 3.244-15.368 3.244s-15.369-1.452-15.369-3.244c0-1.792 6.881-3.245 15.369-3.245s15.368 1.452 15.368 3.245" style="fill:#000;stroke-width:.367783"/><path fill="#f4a261" d="M-102.578 11.778c0 2.061-8.34 3.731-18.629 3.731-10.288 0-18.628-1.67-18.628-3.73 0-2.061 8.34-3.732 18.628-3.732 10.289 0 18.629 1.67 18.629 3.731" style="fill:#000;stroke-width:.367783"/><path fill="#e9c46a" d="M-105.839 20.089c0 1.696-6.88 3.072-15.368 3.072s-15.369-1.375-15.369-3.072 6.881-3.072 15.369-3.072 15.368 1.375 15.368 3.072" style="fill:#000;stroke-width:.367783"/><path d="M-109.098 27.129c0 1.378-5.422 2.495-12.109 2.495s-12.108-1.117-12.108-2.495c0-1.378 5.421-2.496 12.108-2.496s12.109 1.118 12.109 2.496m-31.69 2.229c0 1.378-5.42 2.495-12.108 2.495-6.687 0-12.108-1.117-12.108-2.495 0-1.378 5.421-2.496 12.108-2.496s12.109 1.118 12.109 2.496m3.26 7.244c0 1.792-6.88 3.245-15.369 3.245-8.487 0-15.368-1.452-15.368-3.245 0-1.792 6.88-3.244 15.368-3.244s15.369 1.452 15.369 3.244m-3.26 7.245c0 1.378-5.422 2.495-12.109 2.495s-12.108-1.117-12.108-2.495c0-1.378 5.421-2.495 12.108-2.495s12.109 1.117 12.109 2.495m64.928-6.488c0 1.378-5.422 2.496-12.109 2.496s-12.108-1.118-12.108-2.496c0-1.377 5.421-2.495 12.108-2.495s12.109 1.118 12.109 2.495m3.26 7.245c0 1.792-6.88 3.245-15.369 3.245-8.487 0-15.368-1.453-15.368-3.245s6.88-3.245 15.368-3.245S-72.6 42.812-72.6 44.604m-3.26 7.245c0 1.378-5.42 2.495-12.108 2.495-6.687 0-12.108-1.117-12.108-2.495 0-1.378 5.421-2.496 12.108-2.496s12.109 1.118 12.109 2.496" style="fill:#000;stroke-width:.367783"/><path fill="#264653" d="M-125.95 31.85h9.667l5.234 52.24h-18.938zm-27.633 16.444h6.666l18.948 9.676-.72 9.308z" style="fill:#000;stroke-width:.367783"/><path fill="#264653" d="m-87.283 56.244-6.662.214-19.892 10.663 2.228 8.895z" style="fill:#000;stroke-width:.367783"/><path d="M-60.775 26.508v57.17h24.762V76.07h-17.183v-6.361h14.205v-7.608h-14.205V34.123h17.183v-7.615zm28.56 0v57.17h7.58v-31.31l10.145 33.44 10.147-33.44v31.31h7.578v-57.17h-7.378l-10.346 34.1-10.347-34.1Zm39.25 0v57.17h24.76V76.07h-17.18v-6.361h14.203v-7.608H14.615V34.123h17.18v-7.615zm28.56 0v57.17h7.58v-13.97h2.814c1.084 0 2.148-.095 3.201-.26l9.124 14.23h8.976L56.096 67.03a19.78 19.78 0 0 0 7.464-7.19c2.041-3.373 3.053-7.306 3.053-11.733 0-3.118-.524-6.01-1.583-8.664v-.001c-1.05-2.637-2.52-4.925-4.406-6.84-1.877-1.904-4.093-3.397-6.62-4.471v-.002c-2.546-1.079-5.324-1.621-8.322-1.621zm7.58 7.615h2.505c1.59 0 3.187.272 4.79.83 1.58.55 2.995 1.397 4.276 2.556 1.264 1.15 2.3 2.589 3.102 4.337.783 1.715 1.186 3.796 1.186 6.262 0 2.472-.403 4.554-1.186 6.27-.803 1.75-1.831 3.193-3.073 4.342a11.88 11.88 0 0 1-4.266 2.548c-1.628.56-3.239.833-4.829.833h-2.507zm53.593-7.85c-3.816 0-7.422.752-10.778 2.263a27.759 27.759 0 0 0-8.793 6.192c-2.513 2.627-4.49 5.692-5.924 9.182-1.441 3.495-2.16 7.247-2.16 11.222 0 3.98.72 7.716 2.161 11.189 1.436 3.466 3.412 6.49 5.928 9.062 2.508 2.572 5.446 4.597 8.793 6.076 3.355 1.478 6.959 2.218 10.773 2.218h6.806V56.036H89.961v7.608h6.033V76.03c-2.504-.093-4.845-.613-7.041-1.61h-.002a20.336 20.336 0 0 1-6.36-4.497c-1.818-1.901-3.256-4.113-4.315-6.664-1.054-2.54-1.583-5.238-1.583-8.127 0-2.94.53-5.667 1.583-8.205 1.059-2.546 2.498-4.764 4.315-6.66a20.353 20.353 0 0 1 6.362-4.501c2.422-1.099 5.01-1.643 7.815-1.643.924 0 1.876.075 2.86.226l.89.137v-7.868l-.655-.101a20.363 20.363 0 0 0-3.095-.244zm10.605.235v57.17h24.762V76.07h-17.183v-6.361h14.205v-7.608h-14.205V34.123h17.183v-7.615zm28.56 0v57.17h7.58V46.156l15.272 37.52h7.327V26.51h-7.58v37.52L143.26 26.51Zm33.978 0v7.615h11.148v49.554h7.58V34.123h11.148v-7.615zm40.602 0v7.615h11.148v49.554h7.58V34.123h11.148v-7.615zm33.373 0v57.17h7.58v-13.97h2.814c1.084 0 2.15-.095 3.203-.26l9.123 14.23h8.975L264.387 67.03a19.776 19.776 0 0 0 7.464-7.19h.004c2.042-3.373 3.052-7.306 3.052-11.733 0-3.118-.523-6.01-1.583-8.664v-.001c-1.049-2.637-2.52-4.925-4.407-6.839-1.877-1.905-4.092-3.398-6.62-4.472v-.001c-2.546-1.08-5.325-1.622-8.324-1.622zm7.58 7.615h2.505c1.59 0 3.187.272 4.789.83a12.364 12.364 0 0 1 4.277 2.556c1.263 1.15 2.3 2.589 3.101 4.337.784 1.715 1.187 3.796 1.187 6.262 0 2.472-.403 4.554-1.187 6.27-.802 1.75-1.83 3.193-3.072 4.342a11.88 11.88 0 0 1-4.266 2.548c-1.628.56-3.239.833-4.829.833h-2.505zm26.477-7.615v57.17h24.76V76.07h-17.182v-6.361h14.205v-7.608H285.52V34.123h17.183v-7.615zm28.56 0v57.17h24.761V76.07h-17.183v-6.361h14.205v-7.608h-14.205V34.123h17.183v-7.615z" style="color:#000;fill:#000;stroke-width:1.54469;stroke-miterlimit:10;-inkscape-stroke:none"/></svg>