<svg height="89" width="77" xmlns="http://www.w3.org/2000/svg"><path d="M67.673 40.494c.155 1.024.21 2.083.611 3.05v.584c-1.316.073-2.605.385-3.91.56-.12.71-.054 1.441-.228 2.142-.213 1.367-.488 2.723-.717 4.086-.462 1.802-.85 3.627-1.424 5.399-.96 3.323-2.314 6.524-3.957 9.568-1.99 3.664-4.482 7.08-7.525 9.94-2.663 2.524-5.789 4.582-9.225 5.881-.968.3-1.914.691-2.918.85-.338.15-.669.312-1.013.446h-5.873c-.643-.193-1.313-.257-1.965-.409-1.13-.167-2.183-.625-3.266-.967-2.53-1.047-4.914-2.476-6.977-4.281a25.014 25.014 0 0 1-3.516-3.497c-1.44-1.594-2.645-3.38-3.816-5.178a51.754 51.754 0 0 1-3.82-7.449c-.93-2.25-1.672-4.572-2.328-6.916-.413-1.798-.967-3.569-1.2-5.403-.224-1.393-.568-2.782-.592-4.195-1.342-.168-2.664-.487-4.014-.577v-.721c.367-1.14.442-2.341.627-3.518.335-1.918.658-3.839.887-5.773.267-1.56.512-3.12.769-4.682.06-.667.164-1.33.332-1.979 1.056-.009 2.086.286 3.142.317.553.209 1.164.033 1.708.274.508.194 1.068-.003 1.583.161.529.176 1.114-.05 1.625.201.328.111.787.262 1.044-.057.04-.503-.53-.681-.815-.992-.025-.408-.03-.82.018-1.226.073-.274.178-.545.152-.833-.038-.486.147-.95.374-1.369.197-.186.423-.337.635-.505.613.569.556 1.469.819 2.202.291.38.765.56 1.09.908.307.238.39.633.465.995.094.492.292.954.467 1.421.472-.005.96-.077 1.416.088.848.276 1.748.027 2.608.22.763.145 1.542.016 2.31.073.693.282 1.449.1 2.17.205.422.057.841-.063 1.258-.118a9.041 9.041 0 0 1-1.8-.52c-1.245-.648-2.687-.737-3.94-1.361-.413-.272-.552-.788-.834-1.173a19.029 19.029 0 0 0-1.342-2.345c-.61-.8-1.199-1.616-1.786-2.432.796-1.204 1.678-2.35 2.515-3.525.285-.547.646-1.06 1.194-1.369.128.18.214.401.091.61-.193.534-.254 1.107-.484 1.628.681.777 1.626 1.264 2.276 2.07.057.369-.049.75-.019 1.125.032.628-.232 1.224-.218 1.852-.002.312-.02.624-.055.935.868.58 1.725 1.183 2.638 1.693.473.3 1.002.561 1.328 1.035.488.686 1.017 1.346 1.426 2.083 2.073.027 4.146.008 6.219.005 3.615-.02 7.232.038 10.847-.01 1.374-.521 2.898.055 4.286-.388.808-.062 1.63.086 2.43-.091.812-.21 1.67.092 2.473-.197.684-.258 1.447.057 2.124-.233.452-.184.948-.089 1.422-.131-.739-1.023-1.382-2.111-2.13-3.127-.317-.367-.108-.882-.25-1.31-.2-.645.039-1.338-.181-1.977-.098-.274-.056-.566-.046-.849 1.365.69 2.127 2.123 3.412 2.92.972.698 1.567 1.951 2.811 2.227.958.411 1.916.83 2.878 1.233.171.08.36.1.544.07 1.011-.123 2.025-.213 3.03-.378.11.398.211.8.273 1.21.237 2.03.64 4.034.956 6.052.253 1.922.61 3.826.901 5.742zm-4.363 6.309c.224-.646.03-1.352.285-1.992-.649.1-1.32.037-1.954.232-.413.099-.857 0-1.257.169-.576.24-1.217.021-1.81.194-.62.173-1.286-.038-1.891.21-.593.232-1.248-.024-1.848.168-.763.284-1.61-.048-2.372.246-.83.321-1.81-.154-2.602.282-1.024.287-2.153-.108-3.181.235-1.225.023-2.45-.008-3.674.019-.282-.006-.504.238-.786.231-5.427-.017-10.854-.002-16.28-.008-.184-.063-.357-.15-.538-.214-1.266-.045-2.532-.003-3.797-.028-1.028-.344-2.16.054-3.183-.238-.795-.426-1.77.039-2.6-.278-.764-.295-1.61.036-2.373-.246-.6-.193-1.256.065-1.849-.17-.604-.247-1.271-.036-1.89-.209-.592-.172-1.234.047-1.81-.193-.436-.184-.925-.051-1.37-.198-.547-.184-1.128-.081-1.692-.065-.024.52.052 1.032.204 1.528.032.775.213 1.53.404 2.28.348 2.356.935 4.672 1.585 6.963.318.743.402 1.577.824 2.274.212.708.503 1.39.75 2.087.661 1.501 1.238 3.04 2.019 4.486.286.474.435 1.022.78 1.461.33.412.452.945.765 1.366.425.524.644 1.18 1.078 1.7.325.39.512.878.857 1.253.373.395.586.907.925 1.33.178.218.414.389.563.632.317.586.915.949 1.28 1.5.305.515.784.889 1.19 1.316.436.41.809.903 1.337 1.2.37.233.62.614.999.837.423.229.682.661 1.1.897.92.578 1.774 1.278 2.79 1.689.584.242 1.092.64 1.701.825.584.164 1.095.506 1.678.67.776.318 1.63.341 2.41.636.405-.002.808.011 1.163.233 1.584.039 3.17.01 4.758.016.333.03.594-.255.926-.233.556.06 1.043-.263 1.588-.31 1.137-.165 2.153-.736 3.255-1.028 1.782-.845 3.539-1.76 5.135-2.925.484-.456 1.052-.81 1.59-1.198.398-.357.734-.79 1.206-1.057.657-.52 1.228-1.144 1.784-1.767.33-.615.925-1.015 1.374-1.537.69-.98 1.435-1.926 2.13-2.906.372-.47.625-1.02 1.007-1.483.768-1.404 1.658-2.745 2.303-4.215.267-.513.586-1.008.695-1.587 1.001-1.966 1.642-4.09 2.334-6.176.005-.075.019-.226.025-.3.232-.292.312-.659.388-1.015.24-1.11.632-2.184.8-3.31.207-1.001.346-2.011.59-3.006.119-.416.04-.862.182-1.273zm2.786-3.176c.424-.223.914-.088 1.37-.142-.026-.302-.185-.561-.277-.842-.037-.393.09-.823-.13-1.179.025-1.393-.356-2.754-.561-4.12-.007-.41-.089-.81-.176-1.206-.355-2.043-.59-4.1-.997-6.133-.043-.587-.11-1.172-.303-1.732-.962-.049-1.895.254-2.835.405-1.281.023-2.52.44-3.804.442-.681.199-1.393.143-2.087.242-.69.253-1.44.015-2.136.238-.591.228-1.233.055-1.842.183-.836.229-1.713.01-2.556.199-.98.238-1.995.051-2.987.166l-.144.201c-1.186.106-2.385-.007-3.575.067-1.097.54-2.334-.05-3.487.21-4.59.037-9.182-.01-13.774.015-.326.012-.587-.264-.916-.241a108.49 108.49 0 0 0-2.784-.002c-.29.035-.526-.161-.796-.226-.85-.077-1.712.052-2.558-.067-.853-.264-1.788.107-2.613-.262-.587-.16-1.2-.027-1.794-.098-.647-.315-1.39-.045-2.059-.196-.632-.429-1.437-.01-2.11-.298-.491-.167-1.058.122-1.516-.161-.415-.273-.937.001-1.37-.212-.443-.21-.967.042-1.4-.188-.484-.3-1.086.013-1.575-.274-.329-.106-.91-.292-1.035.17-.314.475.006 1.077-.305 1.548-.173.313-.099.687.003 1.01-.502.438-.069 1.132-.437 1.623-.167.327.01.717-.122 1.056-.166.383-.06.802-.096 1.203-.08.242-.265.462-.242.73-.015.227.06.476-.073.682-.229.377.032.859-.205 1.234-.28.395.004.913-.257 1.319-.192.312-.094.664-.036.998-.17.414-.279.84-.227 1.293-.21.374-.17.796-.193 1.21-.169.311-.272.644-.228 1.004.45.04.938-.096 1.352.135.437.231.95.007 1.402.182.443.176.946-.051 1.373.184.311.148.654.164.985.076.385-.14.67.284 1.052.232.377.036.791-.105 1.14.088.512.319 1.14.02 1.688.206.602.24 1.292-.091 1.874.21.51.252 1.097.056 1.626.087.706.364 1.515.147 2.272.203.759.43 1.655.165 2.482.244.975.284 2.01.062 3.004.16.69.308 1.457.207 2.19.23.798-.034 1.614.089 2.395-.112.203.124.384.33.646.278 5.207.004 10.413.005 15.62 0 .261.053.443-.154.646-.278.869.209 1.774.077 2.659.111.644-.008 1.314.042 1.919-.226.718-.074 1.453.037 2.177-.04.847-.294 1.77.004 2.632-.173.82-.52 1.925.168 2.698-.437.426.108.87.083 1.308.074.328 0 .591-.28.925-.25.506-.01 1.033.082 1.525-.08.55-.182 1.176.108 1.689-.209.502-.26 1.128.093 1.621-.215.449-.307.991.135 1.46-.147.455-.266.99-.045 1.469-.216.458-.17.972.045 1.416-.186zM35.372 9.49c-.526-.637-1.152-1.191-1.746-1.763.28-.53.118-1.126.212-1.687.269-.543.005-1.166.225-1.722.143-.396.11-.815.132-1.227.166-.156.425-.051.63-.091.404.89 1.318 1.374 1.81 2.2.3.492.828.788 1.11 1.291.43.614 1.103 1.034 1.478 1.694.275.466.766.75 1.058 1.201.396.686 1.125 1.096 1.533 1.774.327.575.931.914 1.3 1.457.215.332.513.6.718.94-.379.263-.76.046-1.13-.1-.58.042-1.076-.343-1.66-.262-.841-.247-1.747-.242-2.579-.53-.27-.026-.55-.017-.797-.146-.35-.197-.76-.08-1.14-.135-.27-.195-.296-.55-.427-.831-.234-.691-.52-1.362-.727-2.063zm-9.587 2.064c-.237-.381-.08-.86-.319-1.247-.009-.424-.074-.877.112-1.275.344.128.672.348.85.679.744 1.019 1.402 2.105 2.263 3.034.329.547.83.956 1.158 1.503 1.263 1.29 2.54 2.565 3.833 3.825.92.324 1.844.638 2.773.94.362.606.358 1.323.544 1.983.282.732.475 1.493.653 2.255.6.735 1.467 1.177 2.182 1.785.49.408 1.082.68 1.538 1.132.566.373 1.26.522 1.78.974.563.342 1.212.537 1.733.953-.313.178-.701.242-1.03.066-.398-.228-.877-.12-1.282-.334-.824-.114-1.635-.34-2.47-.406-.39-.123-.763-.27-1.182-.24a2.168 2.168 0 0 0-1.056-.242c-.753-.288-1.59-.205-2.335-.503-.227-.046-.461-.014-.688-.062-.193-.08-.364-.237-.586-.212-1.432-.005-2.864.003-4.294-.005-.057-1.02-.118-2.036-.098-3.06-.535-.223-.905-.68-1.31-1.074-.32-.32-.784-.464-1.046-.847-.096-.912-.435-1.794-.435-2.722-.201-.41-.07-.888-.29-1.288-.218-.378.035-.852-.22-1.218-.148-.653-.288-1.315-.3-1.985-.198-.37-.06-.81-.271-1.17-.234-.38.021-.862-.207-1.239zm20.368 6.114c-.282-.217-.836-.255-.842-.69.002-1.607-.025-3.214.015-4.82.213-.015.436-.094.647-.02 1.225 1.204 2.4 2.46 3.646 3.644.28.26.425.626.677.91 1.056 1.083 2.141 2.14 3.203 3.216.223.555-.617.462-.93.351-.513-.341-1.155-.028-1.684-.316-.676-.024-1.438-.06-1.946-.57-.943-.54-1.905-1.065-2.786-1.705zM15.2 33.11c-.077.422-.153.846-.204 1.273-.78.053-1.541-.164-2.32-.15-.28.662-.332 1.378-.273 2.089l.28.025c.446.124 1.048-.17 1.38.202.073.56.023 1.125-.375 1.56-.524-.25-1.099-.321-1.674-.292-.063.657-.246 1.293-.317 1.948.8.469 1.783.21 2.589.686-.041.315-.08.632-.172.94a5.15 5.15 0 0 1-.168.382c-.306-.022-.632.029-.913-.117-.994-.33-2.073-.287-3.085-.544.055-1.086.381-2.133.455-3.215.322-1.38.413-2.798.708-4.182.078-.397-.03-.842.19-1.202.267-.065.538.024.803.054.824.101 1.649.2 2.477.243l.1.047c.171.086.346.168.52.253zm42.792 6.633c-.019.463.047.902.229 1.33-.487.45-1.162.243-1.756.301-.436-.652-.777-1.361-1.119-2.065-.467-.75-.664-1.67-1.324-2.294.335 1.518.411 3.077.737 4.596-.543.062-1.08.17-1.604.32-.032-.538-.06-1.077-.175-1.603-.099-.465-.062-.956-.235-1.403-.323-.55.067-1.245-.289-1.779-.258-.499.085-1.12-.222-1.61-.13-.441.033-.925-.111-1.367-.118-.403-.073-.823-.056-1.235.527-.06 1.125.15 1.583-.198.35.317.339.817.553 1.213.53 1.006 1.084 2.023 1.38 3.124l.05.333.36.027c-.054-.22-.1-.439-.171-.653-.34-.419-.097-.97-.27-1.444-.151-.487.06-1.028-.195-1.489-.185-.352-.1-.766-.098-1.147.151-.26.455-.151.7-.178.246 0 .466-.132.7-.193.072.314.195.61.3.915.036.417-.088.865.16 1.237.21.35-.03.793.178 1.143.173.315.027.694.144 1.027.145.466.17.948.176 1.43.272.528.019 1.156.375 1.662zm-38.814-6.32c.575 0 1.142.108 1.714.152.02.05.06.152.082.202-.355.593-.577 1.261-1.02 1.8-.322.653-.629 1.314-.991 1.949-.244.368-.006.794.113 1.162.068.696.526 1.282.592 1.981.054.642.458 1.195.508 1.833-.488-.163-.994-.2-1.506-.182-.386.047-.474-.419-.482-.709-.14-.6-.406-1.176-.443-1.798a9.988 9.988 0 0 1-.187.144 38.634 38.634 0 0 0-1.01 2.098c-.613-.036-1.251.035-1.839-.174.098-.385.318-.721.534-1.05.394-.632.665-1.335 1.103-1.94.216-.457.577-.88.567-1.409.034-.542-.294-1.01-.336-1.539-.259-.923-.546-1.835-.792-2.762a21.953 21.953 0 0 1 1.702-.002c.146.253.25.53.285.822.078.61.321 1.188.326 1.807.153-.324.362-.626.432-.982.098-.517.47-.915.648-1.402zm32.519 5.182c.38.616.182 1.367.22 2.053-.163.37-.351.734-.552 1.084-.25.277-.642.363-.953.553-.524.059-1.056.033-1.582.022-.66-.241-1.226-.734-1.492-1.398-.028-.503.062-1.024-.186-1.487-.002-.788.002-1.588-.21-2.355-.03-.751-.02-1.507-.007-2.26.175-.53.56-.973 1.027-1.269.287-.214.667-.118 1-.144.489.033 1.06-.114 1.47.227.415.393.872.838.92 1.442.169.557.19 1.131.171 1.71.274.572.111 1.213.174 1.822zm-1.485 1.664c-.03-.464.087-.963-.127-1.396-.295-.593.077-1.309-.241-1.892-.269-.51-.028-1.108-.17-1.65-.145-.194-.276-.527-.576-.454-.273-.019-.413.262-.61.402.011.347-.07.716.04 1.048.425.667.056 1.489.272 2.21.19.555 0 1.151.116 1.718.113.337.475.435.737.628.195-.196.417-.373.559-.614zm-26.384-6.544c.964.073 1.778.76 2.161 1.632.015.754.01 1.51.002 2.264a7.759 7.759 0 0 1-.552 1.087c-.217.328-.609.451-.928.652-.4.314-.933.151-1.398.175-.104.253-.23.497-.309.76-.029.774.036 1.553-.025 2.326-.063.06-.192.177-.255.237-.446-.234-.924-.364-1.43-.305 0-.72-.09-1.458.084-2.165.161-.758-.155-1.594.205-2.306.057-.59-.05-1.192.045-1.776.4-.746.134-1.616.218-2.422l.184-.153c.666-.016 1.331 0 1.998-.006zm.691 2.687c.117-.437-.307-.696-.557-.977-.243.004-.487.003-.73.001-.248.76-.024 1.577-.179 2.356.41.01.828.02 1.21-.152-.03-.432.119-.829.256-1.228zm21.843 3.243c.096.68.008 1.37.048 2.054.087.278.228.54.255.836-.324.03-.679-.047-.958.162-.238.181-.536.095-.784-.01.006-.394.064-.81-.186-1.148-.209-.948.17-1.998-.225-2.915-.051-.87.082-1.752-.117-2.609-.061-.737-.015-1.478-.03-2.216.421-.13.867-.084 1.301-.078.234.143.151.423.188.652.445.814.147 1.772.241 2.656.4.813-.012 1.768.267 2.616zm-15.59-5.41c.225.36.07.832.094 1.238l-.163.185c-.77.041-1.543-.007-2.313.021.008.667.021 1.335-.015 2.002.579.171 1.19.07 1.784.082-.074.53-.166 1.057-.19 1.591-.583.012-1.166.001-1.748.013.025.673.025 1.346-.002 2.018.809.028 1.619-.025 2.426.038.026.569.033 1.139-.001 1.708-1.354-.269-2.74-.107-4.11-.159-.227-.97-.062-1.97-.015-2.95.043-.157.17-.29.165-.46.008-1.227-.01-2.455.005-3.682.368-.58.182-1.27.244-1.916.693.032 1.423-.123 2.082.15.582.072 1.205-.122 1.757.121zm12.776-.266c.17.448.037.974.071 1.453-.475.093-1.077-.166-1.457.171-.008.359-.007.719.004 1.079.067.266.255.503.233.79-.001.925.004 1.85-.003 2.776-.05.339.287.584.254.924-.02.602.07 1.22-.096 1.809-.536.004-1.07.01-1.604.002l-.001-.12c-.056-1.183.128-2.393-.191-3.55-.124-1.205-.01-2.42-.07-3.63-.42-.011-.84.014-1.26-.012-.295-.164-.114-.523-.245-.773-.085-.187-.144-.39-.082-.593.215-.156.424-.386.716-.336 1.243.008 2.488-.023 3.73.01zm-5.206.253c.16.752.013 1.526.087 2.284.048.23.15.449.13.69-.003 1.855.005 3.71 0 5.566-.33.448-1.045.33-1.549.335-.001-.401.04-.817-.16-1.18-.089-1.787.064-3.59-.1-5.375.034-.771-.073-1.555.074-2.317a2.74 2.74 0 0 1 1.518-.003zm-3.801.03c.59.363 1.07.878 1.392 1.49.02 2.03.023 4.063.001 6.095-.42.299-.742.702-1.111 1.056-.365.196-.802.226-1.211.222-.735-.007-1.469.005-2.202-.01-.016-2.013-.007-4.025 0-6.036.214-.94.091-1.907.135-2.863.996.03 2.006-.058 2.996.047zm-.181 6.534c.004-1.419.002-2.837 0-4.256.029-.24-.14-.417-.255-.605a31.122 31.122 0 0 0-.993-.005c.02 1.824.02 3.649 0 5.473.33.003.663.002.993-.004.109-.19.274-.369.255-.603zm28.019-6.154c.414.325.704.77.901 1.252.03.437.032.878-.003 1.316a4.1 4.1 0 0 1-.894 1.242c-.753.25-1.619.282-2.366.003-.38-.303-.7-.682-.93-1.109a11.855 11.855 0 0 1-.002-1.593c.302-.673.883-1.203 1.608-1.366.575-.15 1.152.044 1.686.255zm-1.347 2.916c.483-.15.876-.518 1.01-1.011-.092-.326-.33-.58-.514-.855-.278-.01-.61-.09-.803.172-.194.234-.599.42-.562.763.264.333.608.593.869.93zM6.528 34.429c.83-.31 1.677.164 2.29.704.579.581.382 1.438.382 2.173-.257.649-.85 1.136-1.52 1.306a4.568 4.568 0 0 1-1.464-.06c-.414-.047-.62-.446-.863-.735-.88-1.122-.275-3.122 1.175-3.388zm.754 2.991c.35-.19.581-.53.77-.87-.169-.316-.374-.616-.658-.84-.538-.19-1.113.235-1.25.75-.012.563.592 1.036 1.138.96zM18.31 49.996c-.534.055-1.042-.164-1.574-.152-.072.47.104.99-.168 1.413-.24.418.048.949-.19 1.374-.217.397-.12.86-.164 1.293-.3-.03-.698.127-.888-.182-.014-.447-.098-.93.123-1.34.266-.421-.033-.953.207-1.378.248-.4.105-.884.16-1.325a37.738 37.738 0 0 0-.865-.006c-.235-.23-.7-.61-.304-.92.411-.021.832-.028 1.233.09.383.102.802-.045 1.165.15.397.2.937-.118 1.258.235.02.249.01.498.007.748zm35.161 2.332c.12.432.032.897.045 1.343-.3-.041-.721.168-.908-.158.016-.47.046-.953-.213-1.37.019-.512-.139-1.05-.643-1.274-.21.135-.42.268-.626.405.04.665-.132 1.371.176 1.99.015.198.001.396-.001.596a5.92 5.92 0 0 1-.94.128c.117-.455-.205-.844-.153-1.293-.004-.297.04-.612-.12-.88-.259-.42.031-.944-.2-1.367-.27-.459-.191-1.021-.08-1.515.26-.073.519-.147.783-.198.109.252.162.519.078.789-.108.373.153.7.265 1.038.14-.137.275-.278.426-.4.593-.134 1.243 0 1.685.425.348.523.118 1.202.426 1.74zm-4.793-1.029c.313.618.168 1.312.222 1.976.32.03.638.078.953.148-.01.261-.017.522-.037.782-.408.016-.832.104-1.23-.017-.689-.545-.677-1.496-.64-2.293.038-.418-.458-.42-.74-.519-.123.712-.222 1.427-.484 2.106-.14.31-.061.661-.09.99-.285.01-.568.014-.851.007-.416-.63-.771-1.319-.913-2.067-.297.606-.322 1.288-.476 1.934-.096.136-.21.258-.311.389a14.773 14.773 0 0 1-.544-.013c-.269-.133-.3-.466-.413-.712-.379-.88-.676-1.79-1.068-2.664.103-.307.456-.151.697-.175.298-.016.383.33.458.556.205.524.332 1.082.607 1.576.158-.803.342-1.601.617-2.374l.728.001c.156.72.484 1.386.72 2.082l.237.018c-.05-.767.181-1.498.245-2.256.46-.048.918-.124 1.383-.112-.047-.333 0-.658.132-.967.249.024.487.101.717.195.053.218.114.434.173.652.196-.006.392-.011.59-.014.117.217.242.429.375.638-.339.13-.701.128-1.057.133zm-16.29 3.286c-.288-.366-.469-.804-.665-1.224-.01-.442-.021-.885.008-1.324.332-.503.451-1.235 1.068-1.48.353-.153.72-.274 1.079-.417a12.11 12.11 0 0 1 1.19 0c.256.122.502.266.747.412l-.17.493c-.7-.001-1.4-.008-2.1 0-.24.28-.562.498-.717.84-.437.752-.186 1.892.622 2.294.437.343 1.027.146 1.538.175-.008-.405-.008-.809.003-1.213a7.697 7.697 0 0 0-.874.053 26.82 26.82 0 0 0-.179-.49l.174-.357c.606 0 1.213-.011 1.82.015.023.83.013 1.66.01 2.49-.738.322-1.558.158-2.338.194-.46.033-.834-.252-1.215-.46zm-13.855-3.93c.655-.105 1.525-.136 1.888.542.377.424.31.998.287 1.522-.187.289-.565.143-.849.146-.477-.285-1.026-.225-1.557-.224.04.237-.078.604.242.676.51.403 1.18.212 1.776.259.01.215.017.434.022.652-.608.016-1.22.052-1.826-.007-.499-.066-.812-.5-1.094-.872a8.228 8.228 0 0 1-.001-1.433c.14-.277.263-.561.407-.836.23-.15.463-.295.705-.425zm-.28 1.3c.54.02 1.08.022 1.618.011-.074-.284-.288-.484-.483-.69-.524-.108-.84.324-1.135.678zm3.314-1.026c.755-.016 1.62-.105 2.18.517.078 1.085.027 2.182.014 3.272-.38.066-.77-.027-1.08-.258-.205.156-.426.344-.704.27-.426-.137-.794-.408-1.132-.695.007-.413-.102-.876.195-1.22.389-.628 1.215-.544 1.843-.698-.042-.667-.979-.493-1.376-.254-.111-.173-.353-.328-.282-.562.106-.131.228-.25.342-.372zm1.363 2.592c.047-.207.017-.423.014-.634-.153.01-.325-.015-.454.09-.321.063-.79.093-.826.515-.068.363.342.492.57.664.246-.195.525-.365.696-.635zm2.417 1.383c-.271 0-.543-.003-.814-.008.008-.998-.101-2.013.114-2.995.041-.24-.054-.518.089-.727.353-.096.642.107.917.3.494-.61 1.329-.236 1.776.236.464-.5 1.208-.282 1.806-.233.335.42.514.94.489 1.478-.068.672-.033 1.35-.033 2.026-.29.141-.612.197-.919.066-.036-.879.027-1.759-.001-2.637a9.404 9.404 0 0 1-.61-.366c-.184.168-.376.331-.57.487.013.781.007 1.56 0 2.341-.36.121-.748.126-1.11.012.092-.188.221-.37.203-.589-.01-.667.037-1.338-.023-2-.184-.318-.577-.186-.874-.214-.677.8-.122 1.905-.44 2.823zm14.332.047c-.826-.198-1.063-1.147-1.273-1.854.218-.533.343-1.184.831-1.54.195-.187.48-.133.724-.153.446.001.893-.019 1.34.024.566.346.837 1.02.867 1.658.19 1.258-1.324 2.439-2.489 1.865zm-.16-2.384c.056.434-.159.969.183 1.318.281.35.858.426 1.226.18.19-.324.41-.665.32-1.058a3.097 3.097 0 0 0-.588-.935c-.478-.107-.843.154-1.141.495zm-10.378 8.227c.074-.15.243-.217.372-.307.49-.29.952-.652 1.507-.81.006.135.015.407.019.543a14.1 14.1 0 0 1 .6-.217c.647.539 1.054 1.294 1.533 1.976-.185.173-.372.344-.565.507.433.701.925 1.37 1.481 1.98.41-.18.533-.64.814-.95.238-.288.42-.616.662-.9-.157-.17-.31-.34-.46-.513.342-.673.719-1.355 1.276-1.875.393-.091.764-.306 1.167-.326.573.198 1.047.595 1.555.914a66.62 66.62 0 0 0-.4.461c.551.052 1.104.094 1.657.131l.228.282c-.475.28-.651.818-1.031 1.189-.229.254-.496.472-.721.73-.283.413-.51.866-.842 1.247-.286-.28-.565-.57-.823-.875-.314.656-.925 1.085-1.269 1.722-.08.125-.216.267-.091.417.275.337.598.636.947.898-.332.491-.877.754-1.318 1.13-.18.12-.374.315-.609.205-.234-.223-.45-.464-.688-.681-.35.223-.556.787-1.024.74-.562-.469-1.194-.857-1.669-1.427a5.125 5.125 0 0 1 1.042-.877l.046-.17c-.51-.614-1.084-1.21-1.416-1.942-.049 0-.148.004-.198.005-.122.34-.364.605-.62.852-.444-.406-.71-.955-1.103-1.404-.415-.688-1.207-1.07-1.529-1.818.443-.367.997-.448 1.555-.37-.032-.156-.074-.31-.085-.467zm-.747 2.411c.285.247.529.535.718.863.313.404.845.825.737 1.388-.302.31-.58.642-.832.993-.44-.214-.922-.375-1.277-.727-.336-.336-.835-.5-1.053-.947-.338-.42-.43-.962-.7-1.42-.177-.292-.112-.66-.079-.983.364-.359.873-.649 1.395-.469.446.362.653.93 1.09 1.302zm13.212 1.45c-.686.743-1.445 1.5-2.443 1.79a9.002 9.002 0 0 0-.724-.991c-.042-.21-.014-.425-.014-.635.959-.874 1.547-2.087 2.563-2.912.516-.19 1.027.111 1.385.466.057.237.057.499-.054.721-.22.526-.347 1.11-.713 1.56zm-5.348 3.387c.285-.24.592-.505.989-.495.609.763 1.193 1.54 1.706 2.373-.42.5-.97.858-1.514 1.208-.511.165-.733-.33-.937-.685-.487-.503-.901-1.07-1.306-1.637.35-.26.738-.47 1.062-.764zM32.89 69.12c-.477.356-.664.948-1.128 1.315-.27.197-.272.7-.671.705-.777-.074-1.281-.754-1.821-1.243.557-.833 1.054-1.72 1.829-2.38.685.252 1.15.83 1.772 1.184l.02.42zm3.854 8.698c.26.21.515.435.715.709a7.57 7.57 0 0 1-.964.045c-.381-.416-.274-.983-.272-1.497l-.298-.247a7.61 7.61 0 0 1 .095-.57c.087-.27.467-.283.688-.42-.073.468.334.665.741.67-.02.087-.063.26-.084.347-.21.059-.42.116-.629.171.004.264.005.527.008.792zm5.2-2.02c.453.29.86.758.914 1.31a9.37 9.37 0 0 0-1.238.144l.007.282c.396-.037.794-.078 1.192-.05l.007.4a2.2 2.2 0 0 1-1.48.297c-.366-.424-.737-.92-.672-1.512-.137.055-.273.11-.409.167.027.495.084.99.05 1.487a35.607 35.607 0 0 1-.652-.01c-.03-.507.085-1.04-.094-1.526-.339.426-.139.988-.184 1.486-.473.094-.91.35-1.406.307a13.71 13.71 0 0 0-.49-.436 54.904 54.904 0 0 1 .007-1.746l.41.054c-.03.467.16.894.287 1.335.01.244.499.168.401-.1.022-.468-.012-.933.021-1.4.298-.018.577.075.85.186l-.044-.12c.426-.074.843-.19 1.245-.347.074.186.145.374.212.565.123-.47.631-.704 1.067-.773zm-.705 1.097c.282-.071.56-.161.825-.286-.334-.238-.68-.054-.825.286zm-6.496-.39c.258.06.528.106.758.246.381.476.396 1.12.393 1.703l-.611.082c-.03-.414.01-.839-.093-1.244-.162-.251-.476-.135-.717-.127a25.25 25.25 0 0 0-.033 1.482l-.46.082c-.342-.712-.105-1.539-.16-2.301a6 6 0 0 1 .923.077zm-2.27 1.544c.458-.032.916.008 1.284.316-.255.175-.52.338-.794.48a11.956 11.956 0 0 0-.992-.41c-.14-.46-.318-1.001-.007-1.434.196-.508.802-.556 1.268-.57.13.211.292.402.459.587-.005.245-.013.491-.021.739a33.21 33.21 0 0 0-1.204.002c0 .073.005.217.006.29zm.32-1.116c-.265-.1-.39.21-.551.358.33.024.663.024.995-.004-.142-.126-.273-.27-.443-.354zm3.797-23.93c-.24-.447-.121-.967-.135-1.45.331-.026.66.01.986.05.183-.086.351-.197.538-.272.211-.03.4.106.603.15a4.1 4.1 0 0 1-.106.751c-.282.05-.565.103-.85.138-.186.869-.038 1.77-.087 2.653a1.043 1.043 0 0 1-.942-.044c-.001-.659.032-1.32-.007-1.976zm-5.478 23.78c.135-.207.542-.596.643-.163-.05.267-.179.513-.244.78a1.93 1.93 0 0 1-.555 1.148c-.18.016-.362.023-.544.021a8.747 8.747 0 0 0-.674-1.961c-.186.658.11 1.372-.182 2.007-.432-.19-.875-.337-1.353-.293-.388.066-.445-.37-.61-.616-.01.207-.013.413-.015.621l-.481-.025c-.16-.32-.328-.633-.49-.95-.202.004-.405.012-.607.016-.147.229-.287.463-.438.69a8.944 8.944 0 0 1-.5-.177l.036-.44c.46-.691.828-1.435 1.22-2.163.206-.016.41-.03.616-.041.16.67.255 1.379.582 1.993.175-.322.367-.634.59-.924.31-.02.62-.02.93-.01.026-.313.092-.617.175-.917.219.035.433.098.652.14 0 .251-.003.501-.011.754.282.098.556.221.793.406.008.257.013.515.025.773.354-.029.275-.448.442-.67zm-2.223.999a.827.827 0 0 0-.003-.956c-.254.043-.618-.078-.708.25-.179.22.04.482.104.703.202-.001.404-.001.607.003zm-2.686-.93c.18 0 .362-.002.543-.008a8.765 8.765 0 0 0-.183-.806c-.197.233-.353.501-.36.815z" fill="#000000"/></svg>