<?xml version="1.0" encoding="UTF-8" standalone="no"?>
<!DOCTYPE svg PUBLIC "-//W3C//DTD SVG 1.1//EN" "http://www.w3.org/Graphics/SVG/1.1/DTD/svg11.dtd">
<svg viewBox="0 0 69 80" version="1.1" xmlns="http://www.w3.org/2000/svg" xmlns:xlink="http://www.w3.org/1999/xlink" xml:space="preserve" xmlns:serif="http://www.serif.com/" style="fill-rule:evenodd;clip-rule:evenodd;stroke-linejoin:round;stroke-miterlimit:2;">
    <g transform="matrix(1,0,0,1,-1.86517e-14,-3)">
        <path d="M67.673,40.494C67.828,41.518 67.883,42.577 68.284,43.544L68.284,44.128C66.968,44.201 65.679,44.513 64.374,44.688C64.254,45.398 64.32,46.129 64.146,46.83C63.933,48.197 63.658,49.553 63.429,50.916C62.967,52.718 62.579,54.543 62.005,56.315C61.045,59.638 59.691,62.839 58.048,65.883C56.058,69.547 53.566,72.963 50.523,75.823C47.86,78.347 44.734,80.405 41.298,81.704C40.33,82.004 39.384,82.395 38.38,82.554C38.042,82.704 37.711,82.866 37.367,83L31.494,83C30.851,82.807 30.181,82.743 29.529,82.591C28.399,82.424 27.346,81.966 26.263,81.624C23.733,80.577 21.349,79.148 19.286,77.343C18.001,76.297 16.823,75.125 15.77,73.846C14.33,72.252 13.125,70.466 11.954,68.668C10.482,66.292 9.204,63.801 8.134,61.219C7.204,58.969 6.462,56.647 5.806,54.303C5.393,52.505 4.839,50.734 4.606,48.9C4.382,47.507 4.038,46.118 4.014,44.705C2.672,44.537 1.35,44.218 0,44.128L0,43.407C0.367,42.267 0.442,41.066 0.627,39.889C0.962,37.971 1.285,36.05 1.514,34.116C1.781,32.556 2.026,30.996 2.283,29.434C2.343,28.767 2.447,28.104 2.615,27.455C3.671,27.446 4.701,27.741 5.757,27.772C6.31,27.981 6.921,27.805 7.465,28.046C7.973,28.24 8.533,28.043 9.048,28.207C9.577,28.383 10.162,28.157 10.673,28.408C11.001,28.519 11.46,28.67 11.717,28.351C11.757,27.848 11.187,27.67 10.902,27.359C10.877,26.951 10.872,26.539 10.92,26.133C10.993,25.859 11.098,25.588 11.072,25.3C11.034,24.814 11.219,24.35 11.446,23.931C11.643,23.745 11.869,23.594 12.081,23.426C12.694,23.995 12.637,24.895 12.9,25.628C13.191,26.008 13.665,26.188 13.99,26.536C14.297,26.774 14.38,27.169 14.455,27.531C14.549,28.023 14.747,28.485 14.922,28.952C15.394,28.947 15.882,28.875 16.338,29.04C17.186,29.316 18.086,29.067 18.946,29.26C19.709,29.405 20.488,29.276 21.256,29.333C21.949,29.615 22.705,29.433 23.426,29.538C23.848,29.595 24.267,29.475 24.684,29.42C24.068,29.309 23.464,29.135 22.884,28.9C21.639,28.252 20.197,28.163 18.944,27.539C18.531,27.267 18.392,26.751 18.11,26.366C17.719,25.554 17.27,24.77 16.768,24.021C16.158,23.221 15.569,22.405 14.982,21.589C15.778,20.385 16.66,19.239 17.497,18.064C17.782,17.517 18.143,17.004 18.691,16.695C18.819,16.875 18.905,17.096 18.782,17.305C18.589,17.839 18.528,18.412 18.298,18.933C18.979,19.71 19.924,20.197 20.574,21.003C20.631,21.372 20.525,21.753 20.555,22.128C20.587,22.756 20.323,23.352 20.337,23.98C20.335,24.292 20.317,24.604 20.282,24.915C21.15,25.495 22.007,26.098 22.92,26.608C23.393,26.908 23.922,27.169 24.248,27.643C24.736,28.329 25.265,28.989 25.674,29.726C27.747,29.753 29.82,29.734 31.893,29.731C35.508,29.711 39.125,29.769 42.74,29.721C44.114,29.2 45.638,29.776 47.026,29.333C47.834,29.271 48.656,29.419 49.456,29.242C50.268,29.032 51.126,29.334 51.929,29.045C52.613,28.787 53.376,29.102 54.053,28.812C54.505,28.628 55.001,28.723 55.475,28.681C54.736,27.658 54.093,26.57 53.345,25.554C53.028,25.187 53.237,24.672 53.095,24.244C52.895,23.599 53.134,22.906 52.914,22.267C52.816,21.993 52.858,21.701 52.868,21.418C54.233,22.108 54.995,23.541 56.28,24.338C57.252,25.036 57.847,26.289 59.091,26.565C60.049,26.976 61.007,27.395 61.969,27.798C62.14,27.878 62.329,27.898 62.513,27.868C63.524,27.745 64.538,27.655 65.543,27.49C65.653,27.888 65.754,28.29 65.816,28.7C66.053,30.73 66.456,32.734 66.772,34.752C67.025,36.674 67.382,38.578 67.673,40.494ZM63.31,46.803C63.534,46.157 63.34,45.451 63.595,44.811C62.946,44.911 62.275,44.848 61.641,45.043C61.228,45.142 60.784,45.043 60.384,45.212C59.808,45.452 59.167,45.233 58.574,45.406C57.954,45.579 57.288,45.368 56.683,45.616C56.09,45.848 55.435,45.592 54.835,45.784C54.072,46.068 53.225,45.736 52.463,46.03C51.633,46.351 50.653,45.876 49.861,46.312C48.837,46.599 47.708,46.204 46.68,46.547C45.455,46.57 44.23,46.539 43.006,46.566C42.724,46.56 42.502,46.804 42.22,46.797C36.793,46.78 31.366,46.795 25.94,46.789C25.756,46.726 25.583,46.639 25.402,46.575C24.136,46.53 22.87,46.572 21.605,46.547C20.577,46.203 19.445,46.601 18.422,46.309C17.627,45.883 16.652,46.348 15.822,46.031C15.058,45.736 14.212,46.067 13.449,45.785C12.849,45.592 12.193,45.85 11.6,45.615C10.996,45.368 10.329,45.579 9.71,45.406C9.118,45.234 8.476,45.453 7.9,45.213C7.464,45.029 6.975,45.162 6.53,45.015C5.983,44.831 5.402,44.934 4.838,44.95C4.814,45.47 4.89,45.982 5.042,46.478C5.074,47.253 5.255,48.008 5.446,48.758C5.794,51.114 6.381,53.43 7.031,55.721C7.349,56.464 7.433,57.298 7.855,57.995C8.067,58.703 8.358,59.385 8.605,60.082C9.266,61.583 9.843,63.122 10.624,64.568C10.91,65.042 11.059,65.59 11.404,66.029C11.734,66.441 11.856,66.974 12.169,67.395C12.594,67.919 12.813,68.575 13.247,69.095C13.572,69.485 13.759,69.973 14.104,70.348C14.477,70.743 14.69,71.255 15.029,71.678C15.207,71.896 15.443,72.067 15.592,72.31C15.909,72.896 16.507,73.259 16.872,73.81C17.177,74.325 17.656,74.699 18.062,75.126C18.498,75.536 18.871,76.029 19.399,76.326C19.769,76.559 20.019,76.94 20.398,77.163C20.821,77.392 21.08,77.824 21.498,78.06C22.418,78.638 23.272,79.338 24.288,79.749C24.872,79.991 25.38,80.389 25.989,80.574C26.573,80.738 27.084,81.08 27.667,81.244C28.443,81.562 29.297,81.585 30.077,81.88C30.482,81.878 30.885,81.891 31.24,82.113C32.824,82.152 34.41,82.123 35.998,82.129C36.331,82.159 36.592,81.874 36.924,81.896C37.48,81.956 37.967,81.633 38.512,81.586C39.649,81.421 40.665,80.85 41.767,80.558C43.549,79.713 45.306,78.798 46.902,77.633C47.386,77.177 47.954,76.823 48.492,76.435C48.89,76.078 49.226,75.645 49.698,75.378C50.355,74.858 50.926,74.234 51.482,73.611C51.812,72.996 52.407,72.596 52.856,72.074C53.546,71.094 54.291,70.148 54.986,69.168C55.358,68.698 55.611,68.148 55.993,67.685C56.761,66.281 57.651,64.94 58.296,63.47C58.563,62.957 58.882,62.462 58.991,61.883C59.992,59.917 60.633,57.793 61.325,55.707C61.33,55.632 61.344,55.481 61.35,55.407C61.582,55.115 61.662,54.748 61.738,54.392C61.978,53.282 62.37,52.208 62.538,51.082C62.745,50.081 62.884,49.071 63.128,48.076C63.247,47.66 63.168,47.214 63.31,46.803ZM66.096,43.627C66.52,43.404 67.01,43.539 67.466,43.485C67.44,43.183 67.281,42.924 67.189,42.643C67.152,42.25 67.279,41.82 67.059,41.464C67.084,40.071 66.703,38.71 66.498,37.344C66.491,36.934 66.409,36.534 66.322,36.138C65.967,34.095 65.732,32.038 65.325,30.005C65.282,29.418 65.215,28.833 65.022,28.273C64.06,28.224 63.127,28.527 62.187,28.678C60.906,28.701 59.667,29.118 58.383,29.12C57.702,29.319 56.99,29.263 56.296,29.362C55.606,29.615 54.856,29.377 54.16,29.6C53.569,29.828 52.927,29.655 52.318,29.783C51.482,30.012 50.605,29.793 49.762,29.982C48.782,30.22 47.767,30.033 46.775,30.148L46.631,30.349C45.445,30.455 44.246,30.342 43.056,30.416C41.959,30.956 40.722,30.366 39.569,30.626C34.979,30.663 30.387,30.616 25.795,30.641C25.469,30.653 25.208,30.377 24.879,30.4C23.951,30.387 23.023,30.387 22.095,30.398C21.805,30.433 21.569,30.237 21.299,30.172C20.449,30.095 19.587,30.224 18.741,30.105C17.888,29.841 16.953,30.212 16.128,29.843C15.541,29.683 14.928,29.816 14.334,29.745C13.687,29.43 12.944,29.7 12.275,29.549C11.643,29.12 10.838,29.539 10.165,29.251C9.674,29.084 9.107,29.373 8.649,29.09C8.234,28.817 7.712,29.091 7.279,28.878C6.836,28.668 6.312,28.92 5.879,28.69C5.395,28.39 4.793,28.703 4.304,28.416C3.975,28.31 3.394,28.124 3.269,28.586C2.955,29.061 3.275,29.663 2.964,30.134C2.791,30.447 2.865,30.821 2.967,31.144C2.465,31.582 2.898,32.276 2.53,32.767C2.363,33.094 2.54,33.484 2.408,33.823C2.242,34.206 2.348,34.625 2.312,35.026C2.232,35.268 2.047,35.488 2.07,35.756C2.055,35.983 2.13,36.232 1.997,36.438C1.768,36.815 2.029,37.297 1.792,37.672C1.512,38.067 1.796,38.585 1.535,38.991C1.343,39.303 1.441,39.655 1.499,39.989C1.329,40.403 1.22,40.829 1.272,41.282C1.062,41.656 1.102,42.078 1.079,42.492C0.91,42.803 0.807,43.136 0.851,43.496C1.301,43.536 1.789,43.4 2.203,43.631C2.64,43.862 3.153,43.638 3.605,43.813C4.048,43.989 4.551,43.762 4.978,43.997C5.289,44.145 5.632,44.161 5.963,44.073C6.348,43.933 6.633,44.357 7.015,44.305C7.392,44.341 7.806,44.2 8.155,44.393C8.667,44.712 9.295,44.413 9.843,44.599C10.445,44.839 11.135,44.508 11.717,44.809C12.227,45.061 12.814,44.865 13.343,44.896C14.049,45.26 14.858,45.043 15.615,45.099C16.374,45.529 17.27,45.264 18.097,45.343C19.072,45.627 20.107,45.405 21.101,45.503C21.791,45.811 22.558,45.71 23.291,45.733C24.089,45.699 24.905,45.822 25.686,45.621C25.889,45.745 26.07,45.951 26.332,45.899C31.539,45.903 36.745,45.904 41.952,45.899C42.213,45.952 42.395,45.745 42.598,45.621C43.467,45.83 44.372,45.698 45.257,45.732C45.901,45.724 46.571,45.774 47.176,45.506C47.894,45.432 48.629,45.543 49.353,45.466C50.2,45.172 51.123,45.47 51.985,45.293C52.805,44.773 53.91,45.461 54.683,44.856C55.109,44.964 55.553,44.939 55.991,44.93C56.319,44.93 56.582,44.65 56.916,44.68C57.422,44.67 57.949,44.762 58.441,44.6C58.991,44.418 59.617,44.708 60.13,44.391C60.632,44.131 61.258,44.484 61.751,44.176C62.2,43.869 62.742,44.311 63.211,44.029C63.666,43.763 64.201,43.984 64.68,43.813C65.138,43.643 65.652,43.858 66.096,43.627ZM35.372,9.49C34.846,8.853 34.22,8.299 33.626,7.727C33.906,7.197 33.744,6.601 33.838,6.04C34.107,5.497 33.843,4.874 34.063,4.318C34.206,3.922 34.173,3.503 34.195,3.091C34.361,2.935 34.62,3.04 34.825,3C35.229,3.89 36.143,4.374 36.635,5.2C36.935,5.692 37.463,5.988 37.745,6.491C38.175,7.105 38.848,7.525 39.223,8.185C39.498,8.651 39.989,8.935 40.281,9.386C40.677,10.072 41.406,10.482 41.814,11.16C42.141,11.735 42.745,12.074 43.114,12.617C43.329,12.949 43.627,13.217 43.832,13.557C43.453,13.82 43.072,13.603 42.702,13.457C42.122,13.499 41.626,13.114 41.042,13.195C40.201,12.948 39.295,12.953 38.463,12.665C38.193,12.639 37.913,12.648 37.666,12.519C37.316,12.322 36.906,12.439 36.526,12.384C36.256,12.189 36.23,11.834 36.099,11.553C35.865,10.862 35.579,10.191 35.372,9.49ZM25.785,11.554C25.548,11.173 25.705,10.694 25.466,10.307C25.457,9.883 25.392,9.43 25.578,9.032C25.922,9.16 26.25,9.38 26.428,9.711C27.172,10.73 27.83,11.816 28.691,12.745C29.02,13.292 29.521,13.701 29.849,14.248C31.112,15.538 32.389,16.813 33.682,18.073C34.602,18.397 35.526,18.711 36.455,19.013C36.817,19.619 36.813,20.336 36.999,20.996C37.281,21.728 37.474,22.489 37.652,23.251C38.252,23.986 39.119,24.428 39.834,25.036C40.324,25.444 40.916,25.716 41.372,26.168C41.938,26.541 42.632,26.69 43.152,27.142C43.715,27.484 44.364,27.679 44.885,28.095C44.572,28.273 44.184,28.337 43.855,28.161C43.457,27.933 42.978,28.041 42.573,27.827C41.749,27.713 40.938,27.487 40.103,27.421C39.713,27.298 39.34,27.151 38.921,27.181C38.595,27.012 38.232,26.929 37.865,26.939C37.112,26.651 36.275,26.734 35.53,26.436C35.303,26.39 35.069,26.422 34.842,26.374C34.649,26.294 34.478,26.137 34.256,26.162C32.824,26.157 31.392,26.165 29.962,26.157C29.905,25.137 29.844,24.121 29.864,23.097C29.329,22.874 28.959,22.417 28.554,22.023C28.234,21.703 27.77,21.559 27.508,21.176C27.412,20.264 27.073,19.382 27.073,18.454C26.872,18.044 27.003,17.566 26.783,17.166C26.565,16.788 26.818,16.314 26.563,15.948C26.415,15.295 26.275,14.633 26.263,13.963C26.065,13.593 26.203,13.153 25.992,12.793C25.758,12.413 26.013,11.931 25.785,11.554ZM46.153,17.668C45.871,17.451 45.317,17.413 45.311,16.978C45.313,15.371 45.286,13.764 45.326,12.158C45.539,12.143 45.762,12.064 45.973,12.138C47.198,13.342 48.373,14.598 49.619,15.782C49.899,16.042 50.044,16.408 50.296,16.692C51.352,17.775 52.437,18.832 53.499,19.908C53.722,20.463 52.882,20.37 52.569,20.259C52.056,19.918 51.414,20.231 50.885,19.943C50.209,19.919 49.447,19.883 48.939,19.373C47.996,18.833 47.034,18.308 46.153,17.668ZM15.2,33.11C15.123,33.532 15.047,33.956 14.996,34.383C14.216,34.436 13.455,34.219 12.676,34.233C12.396,34.895 12.344,35.611 12.403,36.322L12.683,36.347C13.129,36.471 13.731,36.177 14.063,36.549C14.136,37.109 14.086,37.674 13.688,38.109C13.164,37.859 12.589,37.788 12.014,37.817C11.951,38.474 11.768,39.11 11.697,39.765C12.497,40.234 13.48,39.975 14.286,40.451C14.245,40.766 14.206,41.083 14.114,41.391C14.063,41.521 14.007,41.648 13.946,41.773C13.64,41.751 13.314,41.802 13.033,41.656C12.039,41.326 10.96,41.369 9.948,41.112C10.003,40.026 10.329,38.979 10.403,37.897C10.725,36.517 10.816,35.099 11.111,33.715C11.189,33.318 11.081,32.873 11.301,32.513C11.568,32.448 11.839,32.537 12.104,32.567C12.928,32.668 13.753,32.767 14.581,32.81L14.681,32.857C14.852,32.943 15.027,33.025 15.201,33.11L15.2,33.11ZM57.992,39.743C57.973,40.206 58.039,40.645 58.221,41.073C57.734,41.523 57.059,41.316 56.465,41.374C56.029,40.722 55.688,40.013 55.346,39.309C54.879,38.559 54.682,37.639 54.022,37.015C54.357,38.533 54.433,40.092 54.759,41.611C54.216,41.673 53.679,41.781 53.155,41.931C53.123,41.393 53.095,40.854 52.98,40.328C52.881,39.863 52.918,39.372 52.745,38.925C52.422,38.375 52.812,37.68 52.456,37.146C52.198,36.647 52.541,36.026 52.234,35.536C52.104,35.095 52.267,34.611 52.123,34.169C52.005,33.766 52.05,33.346 52.067,32.934C52.594,32.874 53.192,33.084 53.65,32.736C54,33.053 53.989,33.553 54.203,33.949C54.733,34.955 55.287,35.972 55.583,37.073L55.633,37.406L55.993,37.433C55.939,37.213 55.893,36.994 55.822,36.78C55.482,36.361 55.725,35.81 55.552,35.336C55.401,34.849 55.612,34.308 55.357,33.847C55.172,33.495 55.257,33.081 55.259,32.7C55.41,32.44 55.714,32.549 55.959,32.522C56.205,32.522 56.425,32.39 56.659,32.329C56.731,32.643 56.854,32.939 56.959,33.244C56.995,33.661 56.871,34.109 57.119,34.481C57.329,34.831 57.089,35.274 57.297,35.624C57.47,35.939 57.324,36.318 57.441,36.651C57.586,37.117 57.611,37.599 57.617,38.081C57.889,38.609 57.636,39.237 57.992,39.743ZM19.178,33.423C19.753,33.423 20.32,33.531 20.892,33.575C20.912,33.625 20.952,33.727 20.974,33.777C20.619,34.37 20.397,35.038 19.954,35.577C19.632,36.23 19.325,36.891 18.963,37.526C18.719,37.894 18.957,38.32 19.076,38.688C19.144,39.384 19.602,39.97 19.668,40.669C19.722,41.311 20.126,41.864 20.176,42.502C19.688,42.339 19.182,42.302 18.67,42.32C18.284,42.367 18.196,41.901 18.188,41.611C18.048,41.011 17.782,40.435 17.745,39.813C17.683,39.862 17.621,39.91 17.558,39.957C17.2,40.646 16.864,41.346 16.548,42.055C15.935,42.019 15.297,42.09 14.709,41.881C14.807,41.496 15.027,41.16 15.243,40.831C15.637,40.199 15.908,39.496 16.346,38.891C16.562,38.434 16.923,38.011 16.913,37.482C16.947,36.94 16.619,36.472 16.577,35.943C16.318,35.02 16.031,34.108 15.785,33.181C16.352,33.158 16.92,33.158 17.487,33.179C17.633,33.432 17.737,33.709 17.772,34.001C17.85,34.611 18.093,35.189 18.098,35.808C18.251,35.484 18.46,35.182 18.53,34.826C18.628,34.309 19,33.911 19.178,33.424L19.178,33.423ZM51.697,38.605C52.077,39.221 51.879,39.972 51.917,40.658C51.754,41.028 51.566,41.392 51.365,41.742C51.115,42.019 50.723,42.105 50.412,42.295C49.888,42.354 49.356,42.328 48.83,42.317C48.17,42.076 47.604,41.583 47.338,40.919C47.31,40.416 47.4,39.895 47.152,39.432C47.15,38.644 47.154,37.844 46.942,37.077C46.912,36.326 46.922,35.57 46.935,34.817C47.11,34.287 47.495,33.844 47.962,33.548C48.249,33.334 48.629,33.43 48.962,33.404C49.451,33.437 50.022,33.29 50.432,33.631C50.847,34.024 51.304,34.469 51.352,35.073C51.521,35.63 51.542,36.204 51.523,36.783C51.797,37.355 51.634,37.996 51.697,38.605ZM50.212,40.269C50.182,39.805 50.299,39.306 50.085,38.873C49.79,38.28 50.162,37.564 49.844,36.981C49.575,36.471 49.816,35.873 49.674,35.331C49.529,35.137 49.398,34.804 49.098,34.877C48.825,34.858 48.685,35.139 48.488,35.279C48.499,35.626 48.418,35.995 48.528,36.327C48.953,36.994 48.584,37.816 48.8,38.537C48.99,39.092 48.8,39.688 48.916,40.255C49.029,40.592 49.391,40.69 49.653,40.883C49.848,40.687 50.07,40.51 50.212,40.269ZM23.828,33.725C24.792,33.798 25.606,34.485 25.989,35.357C26.004,36.111 25.999,36.867 25.991,37.621C25.836,37.997 25.651,38.361 25.439,38.708C25.222,39.036 24.83,39.159 24.511,39.36C24.111,39.674 23.578,39.511 23.113,39.535C23.009,39.788 22.883,40.032 22.804,40.295C22.775,41.069 22.84,41.848 22.779,42.621C22.716,42.681 22.587,42.798 22.524,42.858C22.078,42.624 21.6,42.494 21.094,42.553C21.094,41.833 21.004,41.095 21.178,40.388C21.339,39.63 21.023,38.794 21.383,38.082C21.44,37.492 21.333,36.89 21.428,36.306C21.828,35.56 21.562,34.69 21.646,33.884L21.83,33.731C22.496,33.715 23.161,33.731 23.828,33.725ZM24.519,36.412C24.636,35.975 24.212,35.716 23.962,35.435C23.719,35.439 23.475,35.438 23.232,35.436C22.984,36.196 23.208,37.013 23.053,37.792C23.463,37.802 23.881,37.812 24.263,37.64C24.233,37.208 24.382,36.811 24.519,36.412ZM46.362,39.655C46.458,40.335 46.37,41.025 46.41,41.709C46.497,41.987 46.638,42.249 46.665,42.545C46.341,42.575 45.986,42.498 45.707,42.707C45.469,42.888 45.171,42.802 44.923,42.697C44.929,42.303 44.987,41.887 44.737,41.549C44.528,40.601 44.907,39.551 44.512,38.634C44.461,37.764 44.594,36.882 44.395,36.025C44.334,35.288 44.38,34.547 44.365,33.809C44.786,33.679 45.232,33.725 45.666,33.731C45.9,33.874 45.817,34.154 45.854,34.383C46.299,35.197 46.001,36.155 46.095,37.039C46.495,37.852 46.083,38.807 46.362,39.655ZM30.772,34.245C30.997,34.605 30.842,35.077 30.866,35.483L30.703,35.668C29.933,35.709 29.16,35.661 28.39,35.689C28.398,36.356 28.411,37.024 28.375,37.691C28.954,37.862 29.565,37.761 30.159,37.773C30.085,38.303 29.993,38.83 29.969,39.364C29.386,39.376 28.803,39.365 28.221,39.377C28.246,40.05 28.246,40.723 28.219,41.395C29.028,41.423 29.838,41.37 30.645,41.433C30.671,42.002 30.678,42.572 30.644,43.141C29.29,42.872 27.904,43.034 26.534,42.982C26.307,42.012 26.472,41.012 26.519,40.032C26.562,39.875 26.689,39.742 26.684,39.572C26.692,38.345 26.674,37.117 26.689,35.89C27.057,35.31 26.871,34.62 26.933,33.974C27.626,34.006 28.356,33.851 29.015,34.124C29.597,34.196 30.22,34.002 30.772,34.245ZM43.548,33.979C43.718,34.427 43.585,34.953 43.619,35.432C43.144,35.525 42.542,35.266 42.162,35.603C42.154,35.962 42.155,36.322 42.166,36.682C42.233,36.948 42.421,37.185 42.399,37.472C42.398,38.397 42.403,39.322 42.396,40.248C42.346,40.587 42.683,40.832 42.65,41.172C42.63,41.774 42.72,42.392 42.554,42.981C42.018,42.985 41.484,42.991 40.95,42.983L40.949,42.863C40.893,41.68 41.077,40.47 40.758,39.313C40.634,38.108 40.748,36.893 40.688,35.683C40.268,35.672 39.848,35.697 39.428,35.671C39.133,35.507 39.314,35.148 39.183,34.898C39.098,34.711 39.039,34.508 39.101,34.305C39.316,34.149 39.525,33.919 39.817,33.969C41.06,33.977 42.305,33.946 43.547,33.979L43.548,33.979ZM38.342,34.232C38.502,34.984 38.355,35.758 38.429,36.516C38.477,36.746 38.579,36.965 38.559,37.206C38.556,39.061 38.564,40.916 38.559,42.772C38.229,43.22 37.514,43.102 37.01,43.107C37.009,42.706 37.05,42.29 36.85,41.927C36.761,40.14 36.914,38.337 36.75,36.552C36.784,35.781 36.677,34.997 36.824,34.235C37.32,34.091 37.846,34.09 38.342,34.232ZM34.541,34.262C35.131,34.625 35.611,35.14 35.933,35.752C35.953,37.782 35.956,39.815 35.934,41.847C35.514,42.146 35.192,42.549 34.823,42.903C34.458,43.099 34.021,43.129 33.612,43.125C32.877,43.118 32.143,43.13 31.41,43.115C31.394,41.102 31.403,39.09 31.41,37.079C31.624,36.139 31.501,35.172 31.545,34.216C32.541,34.246 33.551,34.158 34.541,34.263L34.541,34.262ZM34.36,40.796C34.364,39.377 34.362,37.959 34.36,36.54C34.389,36.3 34.22,36.123 34.105,35.935C33.774,35.928 33.443,35.926 33.112,35.93C33.132,37.754 33.132,39.579 33.112,41.403C33.442,41.406 33.775,41.405 34.105,41.399C34.214,41.209 34.379,41.03 34.36,40.796ZM62.379,34.642C62.793,34.967 63.083,35.412 63.28,35.894C63.31,36.331 63.312,36.772 63.277,37.21C63.06,37.676 62.756,38.098 62.383,38.452C61.63,38.702 60.764,38.734 60.017,38.455C59.637,38.152 59.317,37.773 59.087,37.346C59.051,36.816 59.05,36.283 59.085,35.753C59.387,35.08 59.968,34.55 60.693,34.387C61.268,34.237 61.845,34.431 62.379,34.642ZM61.032,37.558C61.515,37.408 61.908,37.04 62.042,36.547C61.95,36.221 61.712,35.967 61.528,35.692C61.25,35.682 60.918,35.602 60.725,35.864C60.531,36.098 60.126,36.284 60.163,36.627C60.427,36.96 60.771,37.22 61.032,37.557L61.032,37.558ZM6.528,34.429C7.358,34.119 8.205,34.593 8.818,35.133C9.397,35.714 9.2,36.571 9.2,37.306C8.943,37.955 8.35,38.442 7.68,38.612C7.192,38.671 6.698,38.651 6.216,38.552C5.802,38.505 5.596,38.106 5.353,37.817C4.473,36.695 5.078,34.695 6.528,34.429ZM7.282,37.42C7.632,37.23 7.863,36.89 8.052,36.55C7.883,36.234 7.678,35.934 7.394,35.71C6.856,35.52 6.281,35.945 6.144,36.46C6.132,37.023 6.736,37.496 7.282,37.42ZM18.31,49.996C17.776,50.051 17.268,49.832 16.736,49.844C16.664,50.314 16.84,50.834 16.568,51.257C16.328,51.675 16.616,52.206 16.378,52.631C16.161,53.028 16.258,53.491 16.214,53.924C15.914,53.894 15.516,54.051 15.326,53.742C15.312,53.295 15.228,52.812 15.449,52.402C15.715,51.981 15.416,51.449 15.656,51.024C15.904,50.624 15.761,50.14 15.816,49.699C15.528,49.694 15.239,49.692 14.951,49.693C14.716,49.463 14.251,49.083 14.647,48.773C15.058,48.752 15.479,48.745 15.88,48.863C16.263,48.965 16.682,48.818 17.045,49.013C17.442,49.213 17.982,48.895 18.303,49.248C18.323,49.497 18.313,49.746 18.31,49.996ZM53.471,52.328C53.591,52.76 53.503,53.225 53.516,53.671C53.216,53.63 52.795,53.839 52.608,53.513C52.624,53.043 52.654,52.56 52.395,52.143C52.414,51.631 52.256,51.093 51.752,50.869C51.542,51.004 51.332,51.137 51.126,51.274C51.166,51.939 50.994,52.645 51.302,53.264C51.317,53.462 51.303,53.66 51.301,53.86C50.992,53.928 50.677,53.971 50.361,53.988C50.478,53.533 50.156,53.144 50.208,52.695C50.204,52.398 50.248,52.083 50.088,51.815C49.829,51.395 50.119,50.871 49.888,50.448C49.618,49.989 49.697,49.427 49.808,48.933C50.068,48.86 50.327,48.786 50.591,48.735C50.7,48.987 50.753,49.254 50.669,49.524C50.561,49.897 50.822,50.224 50.934,50.562C51.074,50.425 51.209,50.284 51.36,50.162C51.953,50.028 52.603,50.162 53.045,50.587C53.393,51.11 53.163,51.789 53.471,52.327L53.471,52.328ZM48.678,51.299C48.991,51.917 48.846,52.611 48.9,53.275C49.22,53.305 49.538,53.353 49.853,53.423C49.843,53.684 49.836,53.945 49.816,54.205C49.408,54.221 48.984,54.309 48.586,54.188C47.897,53.643 47.909,52.692 47.946,51.895C47.984,51.477 47.488,51.475 47.206,51.376C47.083,52.088 46.984,52.803 46.722,53.482C46.582,53.792 46.661,54.143 46.632,54.472C46.347,54.482 46.064,54.486 45.781,54.479C45.365,53.849 45.01,53.16 44.868,52.412C44.571,53.018 44.546,53.7 44.392,54.346C44.296,54.482 44.182,54.604 44.081,54.735C43.9,54.734 43.718,54.73 43.537,54.722C43.268,54.589 43.237,54.256 43.124,54.01C42.745,53.13 42.448,52.22 42.056,51.346C42.159,51.039 42.512,51.195 42.753,51.171C43.051,51.155 43.136,51.501 43.211,51.727C43.416,52.251 43.543,52.809 43.818,53.303C43.976,52.5 44.16,51.702 44.435,50.929L45.163,50.93C45.319,51.65 45.647,52.316 45.883,53.012L46.12,53.03C46.07,52.263 46.301,51.532 46.365,50.774C46.825,50.726 47.283,50.65 47.748,50.662C47.701,50.329 47.748,50.004 47.88,49.695C48.129,49.719 48.367,49.796 48.597,49.89C48.65,50.108 48.711,50.324 48.77,50.542C48.966,50.536 49.162,50.531 49.36,50.528C49.477,50.745 49.602,50.957 49.735,51.166C49.396,51.296 49.034,51.294 48.678,51.299ZM32.388,54.585C32.1,54.219 31.919,53.781 31.723,53.361C31.713,52.919 31.702,52.476 31.731,52.037C32.063,51.534 32.182,50.802 32.799,50.557C33.152,50.404 33.519,50.283 33.878,50.14C34.274,50.12 34.672,50.12 35.068,50.14C35.324,50.262 35.57,50.406 35.815,50.552L35.645,51.045C34.945,51.044 34.245,51.037 33.545,51.045C33.305,51.325 32.983,51.543 32.828,51.885C32.391,52.637 32.642,53.777 33.45,54.179C33.887,54.522 34.477,54.325 34.988,54.354C34.98,53.949 34.98,53.545 34.991,53.141C34.699,53.142 34.407,53.16 34.117,53.194C34.059,53.03 33.999,52.867 33.938,52.704L34.112,52.347C34.718,52.347 35.325,52.336 35.932,52.362C35.955,53.192 35.945,54.022 35.942,54.852C35.204,55.174 34.384,55.01 33.604,55.046C33.144,55.079 32.77,54.794 32.389,54.586L32.388,54.585ZM18.533,50.655C19.188,50.55 20.058,50.519 20.421,51.197C20.798,51.621 20.731,52.195 20.708,52.719C20.521,53.008 20.143,52.862 19.859,52.865C19.382,52.58 18.833,52.64 18.302,52.641C18.342,52.878 18.224,53.245 18.544,53.317C19.054,53.72 19.724,53.529 20.32,53.576C20.33,53.791 20.337,54.01 20.342,54.228C19.734,54.244 19.122,54.28 18.516,54.221C18.017,54.155 17.704,53.721 17.422,53.349C17.38,52.872 17.38,52.393 17.421,51.916C17.561,51.639 17.684,51.355 17.828,51.08C18.058,50.93 18.291,50.785 18.533,50.655ZM18.253,51.955C18.793,51.975 19.333,51.977 19.871,51.966C19.797,51.682 19.583,51.482 19.388,51.276C18.864,51.168 18.548,51.6 18.253,51.954L18.253,51.955ZM21.567,50.929C22.322,50.913 23.187,50.824 23.747,51.446C23.825,52.531 23.774,53.628 23.761,54.718C23.381,54.784 22.991,54.691 22.681,54.46C22.476,54.616 22.255,54.804 21.977,54.73C21.551,54.593 21.183,54.322 20.845,54.035C20.852,53.622 20.743,53.159 21.04,52.815C21.429,52.187 22.255,52.271 22.883,52.117C22.841,51.45 21.904,51.624 21.507,51.863C21.396,51.69 21.154,51.535 21.225,51.301C21.331,51.17 21.453,51.051 21.567,50.929ZM22.93,53.521C22.977,53.314 22.947,53.098 22.944,52.887C22.791,52.897 22.619,52.872 22.49,52.977C22.169,53.04 21.7,53.07 21.664,53.492C21.596,53.855 22.006,53.984 22.234,54.156C22.48,53.961 22.759,53.791 22.93,53.521ZM25.347,54.904C25.076,54.904 24.804,54.901 24.533,54.896C24.541,53.898 24.432,52.883 24.647,51.901C24.688,51.661 24.593,51.383 24.736,51.174C25.089,51.078 25.378,51.281 25.653,51.474C26.147,50.864 26.982,51.238 27.429,51.71C27.893,51.21 28.637,51.428 29.235,51.477C29.57,51.897 29.749,52.417 29.724,52.955C29.656,53.627 29.691,54.305 29.691,54.981C29.401,55.122 29.079,55.178 28.772,55.047C28.736,54.168 28.799,53.288 28.771,52.41C28.563,52.296 28.36,52.174 28.161,52.044C27.977,52.212 27.785,52.375 27.591,52.531C27.604,53.312 27.598,54.091 27.591,54.872C27.231,54.993 26.843,54.998 26.481,54.884C26.573,54.696 26.702,54.514 26.684,54.295C26.674,53.628 26.721,52.957 26.661,52.295C26.477,51.977 26.084,52.109 25.787,52.081C25.11,52.881 25.665,53.986 25.347,54.904ZM39.679,54.951C38.853,54.753 38.616,53.804 38.406,53.097C38.624,52.564 38.749,51.913 39.237,51.557C39.432,51.37 39.717,51.424 39.961,51.404C40.407,51.405 40.854,51.385 41.301,51.428C41.867,51.774 42.138,52.448 42.168,53.086C42.358,54.344 40.844,55.525 39.679,54.951ZM39.519,52.567C39.575,53.001 39.36,53.536 39.702,53.885C39.983,54.235 40.56,54.311 40.928,54.065C41.118,53.741 41.338,53.4 41.248,53.007C41.11,52.663 40.91,52.346 40.66,52.072C40.182,51.965 39.817,52.226 39.519,52.567ZM29.141,60.794C29.215,60.644 29.384,60.577 29.513,60.487C30.003,60.197 30.465,59.835 31.02,59.677C31.026,59.812 31.035,60.084 31.039,60.22C31.237,60.143 31.437,60.071 31.639,60.003C32.286,60.542 32.693,61.297 33.172,61.979C32.987,62.152 32.8,62.323 32.607,62.486C33.04,63.187 33.532,63.856 34.088,64.466C34.498,64.286 34.621,63.826 34.902,63.516C35.14,63.228 35.322,62.9 35.564,62.616C35.407,62.446 35.254,62.276 35.104,62.103C35.446,61.43 35.823,60.748 36.38,60.228C36.773,60.137 37.144,59.922 37.547,59.902C38.12,60.1 38.594,60.497 39.102,60.816C38.968,60.969 38.835,61.123 38.702,61.277C39.253,61.329 39.806,61.371 40.359,61.408L40.587,61.69C40.112,61.97 39.936,62.508 39.556,62.879C39.327,63.133 39.06,63.351 38.835,63.609C38.552,64.022 38.325,64.475 37.993,64.856C37.707,64.576 37.428,64.286 37.17,63.981C36.856,64.637 36.245,65.066 35.901,65.703C35.821,65.828 35.685,65.97 35.81,66.12C36.085,66.457 36.408,66.756 36.757,67.018C36.425,67.509 35.88,67.772 35.439,68.148C35.259,68.268 35.065,68.463 34.83,68.353C34.596,68.13 34.38,67.889 34.142,67.672C33.792,67.895 33.586,68.459 33.118,68.412C32.556,67.943 31.924,67.555 31.449,66.985C31.756,66.648 32.106,66.353 32.491,66.108L32.537,65.938C32.027,65.324 31.453,64.728 31.121,63.996C31.072,63.996 30.973,64 30.923,64.001C30.801,64.341 30.559,64.606 30.303,64.853C29.859,64.447 29.593,63.898 29.2,63.449C28.785,62.761 27.993,62.379 27.671,61.631C28.114,61.264 28.668,61.183 29.226,61.261C29.194,61.105 29.152,60.951 29.141,60.794ZM28.394,63.205C28.679,63.452 28.923,63.74 29.112,64.068C29.425,64.472 29.957,64.893 29.849,65.456C29.547,65.766 29.269,66.098 29.017,66.449C28.577,66.235 28.095,66.074 27.74,65.722C27.404,65.386 26.905,65.222 26.687,64.775C26.349,64.355 26.257,63.813 25.987,63.355C25.81,63.063 25.875,62.695 25.908,62.372C26.272,62.013 26.781,61.723 27.303,61.903C27.749,62.265 27.956,62.833 28.393,63.205L28.394,63.205ZM41.606,64.655C40.92,65.398 40.161,66.155 39.163,66.445C38.944,66.099 38.703,65.767 38.439,65.454C38.397,65.244 38.425,65.029 38.425,64.819C39.384,63.945 39.972,62.732 40.988,61.907C41.504,61.717 42.015,62.018 42.373,62.373C42.43,62.61 42.43,62.872 42.319,63.094C42.099,63.62 41.972,64.204 41.606,64.654L41.606,64.655ZM36.258,68.042C36.543,67.802 36.85,67.537 37.247,67.547C37.856,68.31 38.44,69.087 38.953,69.92C38.533,70.42 37.983,70.778 37.439,71.128C36.928,71.293 36.706,70.798 36.502,70.443C36.015,69.94 35.601,69.373 35.196,68.806C35.546,68.546 35.934,68.336 36.258,68.042ZM32.89,69.12C32.413,69.476 32.226,70.068 31.762,70.435C31.492,70.632 31.49,71.135 31.091,71.14C30.314,71.066 29.81,70.386 29.27,69.897C29.827,69.064 30.324,68.177 31.099,67.517C31.784,67.769 32.249,68.347 32.871,68.701L32.891,69.121L32.89,69.12ZM36.744,77.818C37.004,78.028 37.259,78.253 37.459,78.527C37.139,78.562 36.817,78.578 36.495,78.572C36.114,78.156 36.221,77.589 36.223,77.075L35.925,76.828C35.949,76.637 35.981,76.447 36.02,76.258C36.107,75.988 36.487,75.975 36.708,75.838C36.635,76.306 37.042,76.503 37.449,76.508C37.429,76.595 37.386,76.768 37.365,76.855C37.155,76.914 36.945,76.971 36.736,77.026C36.74,77.29 36.741,77.553 36.744,77.818ZM41.944,75.798C42.397,76.088 42.804,76.556 42.858,77.108C42.443,77.128 42.029,77.177 41.62,77.252L41.627,77.534C42.023,77.497 42.421,77.456 42.819,77.484L42.826,77.884C42.383,78.154 41.859,78.26 41.346,78.181C40.98,77.757 40.609,77.261 40.674,76.669C40.537,76.724 40.401,76.779 40.265,76.836C40.292,77.331 40.349,77.826 40.315,78.323C40.098,78.322 39.88,78.318 39.663,78.313C39.633,77.806 39.748,77.273 39.569,76.787C39.23,77.213 39.43,77.775 39.385,78.273C38.912,78.367 38.475,78.623 37.979,78.58C37.819,78.431 37.656,78.285 37.489,78.144C37.482,77.562 37.484,76.98 37.496,76.398L37.906,76.452C37.876,76.919 38.066,77.346 38.193,77.787C38.203,78.031 38.692,77.955 38.594,77.687C38.616,77.219 38.582,76.754 38.615,76.287C38.913,76.269 39.192,76.362 39.465,76.473L39.421,76.353C39.847,76.279 40.264,76.163 40.666,76.006C40.74,76.192 40.811,76.38 40.878,76.571C41.001,76.101 41.509,75.867 41.945,75.798L41.944,75.798ZM41.239,76.895C41.521,76.824 41.799,76.734 42.064,76.609C41.73,76.371 41.384,76.555 41.239,76.895ZM34.743,76.505C35.001,76.565 35.271,76.611 35.501,76.751C35.882,77.227 35.897,77.871 35.894,78.454L35.283,78.536C35.253,78.122 35.293,77.697 35.19,77.292C35.028,77.041 34.714,77.157 34.473,77.165C34.447,77.659 34.436,78.153 34.44,78.647L33.98,78.729C33.638,78.017 33.875,77.19 33.82,76.428C34.129,76.43 34.438,76.456 34.743,76.505ZM32.473,78.049C32.931,78.017 33.389,78.057 33.757,78.365C33.502,78.54 33.237,78.703 32.963,78.845C32.639,78.694 32.308,78.557 31.971,78.435C31.831,77.975 31.653,77.434 31.964,77.001C32.16,76.493 32.766,76.445 33.232,76.431C33.362,76.642 33.524,76.833 33.691,77.018C33.686,77.263 33.678,77.509 33.67,77.757C33.269,77.75 32.867,77.751 32.466,77.759C32.466,77.832 32.471,77.976 32.472,78.049L32.473,78.049ZM32.793,76.933C32.528,76.833 32.403,77.143 32.242,77.291C32.572,77.315 32.905,77.315 33.237,77.287C33.095,77.161 32.964,77.017 32.794,76.933L32.793,76.933ZM36.59,53.003C36.35,52.556 36.469,52.036 36.455,51.553C36.786,51.527 37.115,51.563 37.441,51.603C37.624,51.517 37.792,51.406 37.979,51.331C38.19,51.301 38.379,51.437 38.582,51.481C38.57,51.734 38.534,51.985 38.476,52.232C38.194,52.282 37.911,52.335 37.626,52.37C37.44,53.239 37.588,54.14 37.539,55.023C37.236,55.159 36.886,55.143 36.597,54.979C36.596,54.32 36.629,53.659 36.59,53.003ZM31.112,76.783C31.247,76.576 31.654,76.187 31.755,76.62C31.705,76.887 31.576,77.133 31.511,77.4C31.461,77.834 31.266,78.239 30.956,78.548C30.776,78.564 30.594,78.571 30.412,78.569C30.266,77.891 30.04,77.233 29.738,76.608C29.552,77.266 29.848,77.98 29.556,78.615C29.124,78.425 28.681,78.278 28.203,78.322C27.815,78.388 27.758,77.952 27.593,77.706C27.583,77.913 27.58,78.119 27.578,78.327L27.097,78.302C26.937,77.982 26.769,77.669 26.607,77.352C26.405,77.356 26.202,77.364 26,77.368C25.853,77.597 25.713,77.831 25.562,78.058C25.394,78.004 25.227,77.945 25.062,77.881L25.098,77.441C25.558,76.75 25.926,76.006 26.318,75.278C26.524,75.262 26.728,75.248 26.934,75.237C27.094,75.907 27.189,76.616 27.516,77.23C27.691,76.908 27.883,76.596 28.106,76.306C28.416,76.286 28.726,76.286 29.036,76.296C29.062,75.983 29.128,75.679 29.211,75.379C29.43,75.414 29.644,75.477 29.863,75.519C29.863,75.77 29.86,76.02 29.852,76.273C30.134,76.371 30.408,76.494 30.645,76.679C30.653,76.936 30.658,77.194 30.67,77.452C31.024,77.423 30.945,77.004 31.112,76.782L31.112,76.783ZM28.889,77.782C29.09,77.496 29.089,77.111 28.886,76.826C28.632,76.869 28.268,76.748 28.178,77.076C27.999,77.296 28.218,77.558 28.282,77.779C28.484,77.778 28.686,77.778 28.889,77.782ZM26.203,76.852C26.383,76.852 26.565,76.85 26.746,76.844C26.698,76.573 26.637,76.304 26.563,76.038C26.366,76.271 26.21,76.539 26.203,76.853L26.203,76.852Z" style="fill-rule:nonzero;"/>
    </g>
</svg>
