<svg fill="none" viewBox="0 0 121 36" xmlns="http://www.w3.org/2000/svg"><g fill="#000"><path d="m5.54602 4.42476v3.55475h-4.567504v3.23869h4.565404v16.5095h4.3302v-16.5095h4.57378v-3.23869h-4.57378v-2.76457c0-1.34225.35488-1.69836 1.73248-1.69836h2.8413v-3.436746h-4.1412c-3.18778 0-4.76068 1.580356-4.76068 4.344926z"/><path d="m118.439 7.38745c-1.26 0-1.909 1.22214-1.909 2.44639 0 1.14206.487 1.83536.487 3.34406 0 3.5484-2.724 7.788-4.429 10.8476-.813-3.9151-.731-16.63594-6.462-16.63594-3.29 0-4.389 3.46624-4.389 6.15704 0 .7481.248 1.4202.884 1.336.584-.0759.59-.6385.427-1.1505-.204-.531-.286-1.0073-.254-1.4856.073-1.0978.812-1.8395 1.95-1.8395 2.642 0 4.228 7.1769 4.755 11.8653l.365 3.3841.122 2.1198-2.194 2.5686c-1.342 1.5487-2.56 1.9575-3.455 1.9575-.651 0-1.178-.2845-1.707-.2845-.975 0-1.464.7755-1.464 1.671 0 .8977.813 1.6309 1.665 1.6309 3.251 0 6.015-4.1595 7.762-6.4015 2.845-3.6706 9.429-14.8827 9.429-19.36882.002-1.05989-.405-2.16193-1.583-2.16193z"/><path d="m70.4423 18.6437c0 4.8191-1.7703 6.4374-4.7229 6.4374-2.2428 0-3.7779-.8682-3.7779-5.0551v-12.04651h-4.3302v12.95471c0 5.4112 2.6376 7.3855 6.8481 7.3855 2.6376 0 4.998-.9081 6.2979-3.2787v2.6866h4.0152v-19.74811h-4.3302z"/><path d="m83.9825.079834h-4.3302v27.647866h4.3302z"/><path d="m45.8823 25.0811c-2.9925 0-4.683-1.7384-4.683-7.2275 0-1.1547.0756-2.1429.2226-2.9858.5481-3.1565 2.1-4.2417 4.4625-4.2417 2.7048 0 3.6435 1.5003 3.7632 4.2417h4.4079c-.1932-4.2269-2.3289-7.48035-8.1711-7.48035-5.9073 0-8.3496 3.39465-9.0111 7.48035-.1365.8429-.1995 1.7131-.1995 2.5897v.7902c0 5.1351 2.0853 10.0721 9.2106 10.0721 6.1404 0 8.1879-3.5948 8.1879-8.1357h-4.4079c-.0042 3.1607-.8694 4.897-3.7821 4.897z"/><path d="m95.1615 22.5146v-11.2964h.0063 4.5654v-3.23869h-4.5654-.0063v-7.899676h-4.3302v7.899676h-.0021-4.5255-.042v3.23869h.042 4.5255.0021v12.1645c0 2.7646 1.575 4.345 4.3302 4.345h5.2755v-3.4368h-3.5031c-1.302 0-1.7724-.4741-1.7724-1.7763z"/><path d="m32.5389 22.3165v-7.4488-1.2411c0-4.30488-2.5977-6.24135-7.9506-6.24135-6.5436 0-8.1606 3.46835-8.2614 7.48035h4.4037v-.1749c0-3.0027 1.1802-4.0689 3.8577-4.0689 2.6376 0 3.6204.9482 3.6204 3.1987v1.0472.2213c-.1974.198-.5124.316-1.89.5921l-4.7628.9482c-4.5276.8681-5.8254 3.0806-5.8254 5.6471v.3941c0 2.5665 1.6926 5.5291 6.6129 5.5291 3.5826 0 5.6679-1.4602 6.8481-3.6327.1974 1.9744 1.575 3.1586 3.9354 3.1586h2.1252v-3.4367h-.945c-1.3734.0021-1.7682-.59-1.7682-1.9723zm-4.1328-2.8046c0 3.5147-2.2428 5.4891-5.1555 5.4891-2.1252 0-2.9925-1.1842-2.9925-2.8447 0-1.3422.3927-2.4885 2.7951-3.0027l3.4629-.6721c1.3776-.2761 1.6926-.3941 1.89-.5921z"/></g></svg>