<?xml version="1.0" encoding="UTF-8" standalone="no"?>
<!DOCTYPE svg PUBLIC "-//W3C//DTD SVG 1.1//EN" "http://www.w3.org/Graphics/SVG/1.1/DTD/svg11.dtd">
<svg width="100%" height="100%" viewBox="0 0 251 31" version="1.1" xmlns="http://www.w3.org/2000/svg" xmlns:xlink="http://www.w3.org/1999/xlink" xml:space="preserve" xmlns:serif="http://www.serif.com/" style="fill-rule:evenodd;clip-rule:evenodd;stroke-linejoin:round;stroke-miterlimit:2;">
    <g transform="matrix(1,0,0,1,-0.278,-0.726325)">
        <path d="M28.014,12.264C28.196,12.264 28.349,12.262 28.503,12.264C30.554,12.291 32.606,12.317 34.657,12.351C34.955,12.357 35.249,12.396 35.544,12.433C36.077,12.5 36.342,12.722 36.308,13.265C36.23,14.549 36.194,15.852 35.942,17.108C34.165,25.933 26.565,30.858 19.974,31.512C15.22,31.983 11.019,30.557 7.281,27.695C3.351,24.686 1.079,20.68 0.403,15.783C0.289,14.956 0.278,14.11 0.278,13.273C0.278,12.693 0.503,12.461 1.074,12.437C2.956,12.357 4.839,12.302 6.721,12.25C7.351,12.232 7.98,12.247 8.626,12.247C8.661,11.507 8.666,10.813 8.73,10.124C8.945,7.798 9.507,5.594 11.1,3.783C12.838,1.806 15.008,0.765 17.66,0.73C19.088,0.712 20.506,0.739 21.845,1.309C25.175,2.729 27.15,5.229 27.705,8.809C27.859,9.801 27.888,10.814 27.974,11.815C27.984,11.955 27.998,12.092 28.014,12.263L28.014,12.264ZM25.241,12.238C25.241,11.807 25.252,11.396 25.239,10.988C25.174,8.894 24.476,7.033 23.029,5.519C20.341,2.706 16.145,2.579 13.436,5.65C12.239,7.008 11.696,8.643 11.626,10.439C11.602,11.037 11.622,11.637 11.622,12.238L25.241,12.238ZM15.34,15.36C14.886,15.319 14.556,15.257 14.226,15.263C11.956,15.297 9.686,15.318 7.418,15.403C6.614,15.433 5.803,15.576 5.02,15.767C4.2,15.966 3.938,16.435 4.158,17.249C4.596,18.874 5.298,20.398 6.098,21.874C6.368,22.372 7.042,22.552 7.596,22.308C7.922,22.166 8.251,21.985 8.513,21.747C10.613,19.841 12.699,17.919 14.784,15.997C14.96,15.835 15.101,15.636 15.34,15.36ZM19.515,17.067C19.491,17.133 19.442,17.214 19.432,17.3C19.395,17.658 19.335,18.019 19.344,18.376C19.408,20.731 19.464,23.088 19.577,25.442C19.61,26.126 19.777,26.817 19.976,27.477C20.162,28.093 20.516,28.249 21.148,28.104C22.806,27.717 24.405,27.111 25.903,26.301C26.016,26.24 26.126,26.17 26.226,26.088C26.678,25.719 26.775,25.383 26.503,24.868C26.294,24.472 26.06,24.075 25.766,23.74C24.422,22.195 23.057,20.668 21.672,19.159C21,18.432 20.252,17.778 19.515,17.067ZM17.081,17.093C16.89,17.245 16.78,17.316 16.692,17.405C15.088,19.046 13.464,20.669 11.893,22.341C11.264,23.022 10.694,23.756 10.19,24.535C9.724,25.245 9.845,25.736 10.57,26.162C12.067,27.039 13.657,27.712 15.35,28.113C15.93,28.25 16.361,28.038 16.557,27.483C16.74,26.966 16.903,26.416 16.927,25.874C17.038,23.52 17.103,21.164 17.165,18.808C17.177,18.273 17.115,17.735 17.081,17.093ZM21.224,15.363C21.376,15.549 21.455,15.665 21.553,15.764C22.409,16.622 23.24,17.508 24.131,18.327C25.534,19.619 26.962,20.884 28.413,22.121C29.28,22.861 29.84,22.739 30.475,21.781C30.525,21.706 30.581,21.632 30.615,21.55C31.172,20.22 31.79,18.913 32.258,17.553C32.662,16.381 32.302,15.914 31.056,15.754C28.061,15.374 25.048,15.273 22.033,15.263C21.793,15.261 21.553,15.319 21.224,15.363ZM58.516,6.008L58.516,26L60.42,26L60.42,16.48L69.996,16.48L69.996,14.856L60.42,14.856L60.42,7.632L71.2,7.632L71.2,6.008L58.516,6.008ZM83.604,17.768L74.252,17.768C74.327,17.112 74.482,16.468 74.714,15.85C74.932,15.251 75.249,14.693 75.652,14.198C76.044,13.722 76.53,13.331 77.08,13.05C77.64,12.76 78.284,12.616 79.012,12.616C79.722,12.616 80.356,12.761 80.916,13.05C81.466,13.331 81.952,13.722 82.344,14.198C82.736,14.674 83.039,15.22 83.254,15.836C83.469,16.452 83.585,17.096 83.604,17.768ZM74.252,19.252L85.368,19.252C85.406,18.25 85.312,17.247 85.088,16.27C84.864,15.29 84.495,14.422 83.982,13.666C83.466,12.908 82.781,12.28 81.98,11.832C81.159,11.365 80.17,11.132 79.012,11.132C77.873,11.132 76.889,11.352 76.058,11.79C75.256,12.204 74.561,12.798 74.028,13.526C73.495,14.265 73.102,15.096 72.866,15.976C72.614,16.888 72.487,17.83 72.488,18.776C72.488,19.803 72.614,20.778 72.866,21.702C73.118,22.626 73.506,23.438 74.028,24.138C74.551,24.838 75.228,25.388 76.058,25.79C76.888,26.191 77.873,26.392 79.012,26.392C80.842,26.392 82.255,25.944 83.254,25.048C84.253,24.152 84.939,22.883 85.312,21.24L83.548,21.24C83.268,22.36 82.764,23.256 82.036,23.928C81.308,24.6 80.3,24.936 79.012,24.936C78.172,24.936 77.453,24.759 76.856,24.404C76.274,24.063 75.769,23.606 75.372,23.06C74.975,22.508 74.685,21.885 74.518,21.226C74.346,20.582 74.256,19.919 74.252,19.252ZM98.136,17.768L88.784,17.768C88.859,17.112 89.014,16.468 89.246,15.85C89.464,15.251 89.781,14.693 90.184,14.198C90.576,13.722 91.062,13.331 91.612,13.05C92.172,12.76 92.816,12.616 93.544,12.616C94.254,12.616 94.888,12.761 95.448,13.05C95.998,13.331 96.484,13.722 96.876,14.198C97.268,14.674 97.571,15.22 97.786,15.836C98.001,16.452 98.117,17.096 98.136,17.768ZM88.784,19.252L99.9,19.252C99.938,18.25 99.844,17.247 99.62,16.27C99.396,15.29 99.027,14.422 98.514,13.666C97.998,12.908 97.313,12.28 96.512,11.832C95.691,11.365 94.702,11.132 93.544,11.132C92.405,11.132 91.421,11.352 90.59,11.79C89.788,12.204 89.093,12.798 88.56,13.526C88.027,14.265 87.634,15.096 87.398,15.976C87.146,16.888 87.019,17.83 87.02,18.776C87.02,19.803 87.146,20.778 87.398,21.702C87.65,22.626 88.038,23.438 88.56,24.138C89.083,24.838 89.76,25.388 90.59,25.79C91.42,26.191 92.405,26.392 93.544,26.392C95.374,26.392 96.787,25.944 97.786,25.048C98.785,24.152 99.471,22.883 99.844,21.24L98.08,21.24C97.8,22.36 97.296,23.256 96.568,23.928C95.84,24.6 94.832,24.936 93.544,24.936C92.704,24.936 91.985,24.759 91.388,24.404C90.806,24.063 90.301,23.606 89.904,23.06C89.507,22.508 89.217,21.885 89.05,21.226C88.878,20.582 88.788,19.919 88.784,19.252ZM114.992,26L114.992,6.008L113.228,6.008L113.228,14.296L113.172,14.296C112.996,13.792 112.725,13.326 112.374,12.924C112.031,12.534 111.629,12.198 111.184,11.93C110.736,11.659 110.25,11.456 109.742,11.328C109.225,11.197 108.693,11.131 108.16,11.132C107.059,11.132 106.102,11.337 105.29,11.748C104.497,12.143 103.803,12.713 103.26,13.414C102.705,14.141 102.297,14.968 102.056,15.85C101.795,16.774 101.664,17.75 101.664,18.776C101.664,19.803 101.794,20.778 102.056,21.702C102.297,22.584 102.705,23.411 103.26,24.138C103.801,24.838 104.478,25.388 105.29,25.79C106.102,26.191 107.059,26.392 108.16,26.392C108.683,26.392 109.21,26.317 109.742,26.168C110.266,26.022 110.769,25.81 111.24,25.538C111.703,25.271 112.123,24.936 112.486,24.544C112.839,24.17 113.119,23.733 113.312,23.256L113.368,23.256L113.368,26L114.992,26ZM103.428,18.776C103.428,18.029 103.517,17.287 103.694,16.55C103.856,15.848 104.141,15.18 104.534,14.576C104.913,14.001 105.415,13.518 106.004,13.162C106.601,12.798 107.32,12.616 108.16,12.616C109.093,12.616 109.882,12.798 110.526,13.162C111.15,13.508 111.686,13.991 112.094,14.576C112.495,15.155 112.784,15.813 112.962,16.55C113.315,18.013 113.315,19.539 112.962,21.002C112.798,21.708 112.504,22.378 112.094,22.976C111.686,23.561 111.15,24.044 110.526,24.39C109.882,24.754 109.093,24.936 108.16,24.936C107.32,24.936 106.601,24.754 106.004,24.39C105.415,24.034 104.913,23.551 104.534,22.976C104.141,22.372 103.856,21.704 103.694,21.002C103.518,20.273 103.428,19.526 103.428,18.776ZM118.352,6.008L118.352,26L119.976,26L119.976,23.256L120.032,23.256C120.417,24.235 121.123,25.054 122.034,25.58C122.958,26.121 124.008,26.392 125.184,26.392C126.285,26.392 127.242,26.192 128.054,25.79C128.849,25.403 129.543,24.837 130.084,24.138C130.639,23.411 131.047,22.584 131.288,21.702C131.549,20.778 131.68,19.802 131.68,18.776C131.68,17.749 131.55,16.774 131.288,15.85C131.047,14.968 130.639,14.141 130.084,13.414C129.541,12.713 128.847,12.143 128.054,11.748C127.242,11.338 126.285,11.132 125.184,11.132C124.661,11.132 124.139,11.197 123.616,11.328C123.103,11.455 122.612,11.658 122.16,11.93C121.712,12.2 121.315,12.532 120.97,12.924C120.625,13.316 120.359,13.774 120.172,14.296L120.116,14.296L120.116,6.008L118.352,6.008ZM129.916,18.776C129.916,19.523 129.827,20.265 129.65,21.002C129.488,21.704 129.203,22.372 128.81,22.976C128.431,23.551 127.929,24.034 127.34,24.39C126.743,24.754 126.024,24.936 125.184,24.936C124.251,24.936 123.462,24.754 122.818,24.39C122.194,24.044 121.658,23.561 121.25,22.976C120.84,22.378 120.546,21.708 120.382,21.002C120.029,19.539 120.029,18.013 120.382,16.55C120.546,15.844 120.84,15.174 121.25,14.576C121.658,13.991 122.194,13.508 122.818,13.162C123.462,12.798 124.251,12.616 125.184,12.616C126.024,12.616 126.743,12.798 127.34,13.162C127.929,13.518 128.431,14.001 128.81,14.576C129.193,15.155 129.473,15.813 129.65,16.55C129.827,17.287 129.916,18.03 129.916,18.776ZM134.256,15.976L136.02,15.976C136.057,14.8 136.43,13.946 137.14,13.414C137.85,12.882 138.764,12.616 139.884,12.616C140.407,12.616 140.897,12.658 141.354,12.742C141.811,12.826 142.213,12.98 142.558,13.204C142.903,13.428 143.174,13.731 143.37,14.114C143.566,14.497 143.664,14.987 143.664,15.584C143.664,15.976 143.613,16.294 143.51,16.536C143.419,16.763 143.269,16.961 143.076,17.11C142.889,17.25 142.656,17.348 142.376,17.404C142.096,17.46 141.769,17.507 141.396,17.544C140.444,17.656 139.506,17.773 138.582,17.894C137.658,18.015 136.827,18.225 136.09,18.524C135.353,18.823 134.76,19.257 134.312,19.826C133.864,20.396 133.64,21.184 133.64,22.192C133.64,22.92 133.766,23.55 134.018,24.082C134.27,24.614 134.615,25.052 135.054,25.398C135.493,25.743 136.006,25.995 136.594,26.154C137.211,26.316 137.846,26.396 138.484,26.392C139.194,26.392 139.804,26.327 140.318,26.196C140.831,26.066 141.288,25.879 141.69,25.636C142.097,25.389 142.465,25.082 142.782,24.726C143.109,24.362 143.431,23.946 143.748,23.48L143.804,23.48C143.804,23.853 143.827,24.194 143.874,24.502C143.921,24.81 144.019,25.076 144.168,25.3C144.318,25.524 144.528,25.697 144.798,25.818C145.068,25.939 145.428,26 145.876,26C146.262,26.004 146.647,25.967 147.024,25.888L147.024,24.404C146.847,24.48 146.656,24.519 146.464,24.516C145.774,24.516 145.428,24.161 145.428,23.452L145.428,15.78C145.428,14.81 145.269,14.02 144.952,13.414C144.635,12.807 144.224,12.336 143.72,12C143.203,11.659 142.622,11.425 142.012,11.314C141.385,11.193 140.747,11.132 140.108,11.132C139.268,11.132 138.503,11.225 137.812,11.412C137.159,11.58 136.545,11.875 136.006,12.28C135.486,12.68 135.068,13.199 134.788,13.792C134.489,14.408 134.312,15.136 134.256,15.976ZM143.664,18.104L143.664,20.4C143.664,21.11 143.529,21.744 143.258,22.304C142.997,22.851 142.625,23.337 142.166,23.732C141.709,24.124 141.172,24.422 140.556,24.628C139.933,24.834 139.28,24.938 138.624,24.936C138.214,24.936 137.812,24.871 137.42,24.74C137.041,24.617 136.689,24.422 136.384,24.166C136.089,23.918 135.846,23.613 135.67,23.27C135.487,22.9 135.396,22.492 135.404,22.08C135.404,21.37 135.614,20.825 136.034,20.442C136.454,20.059 136.991,19.765 137.644,19.56C138.297,19.355 139.021,19.2 139.814,19.098C140.587,18.998 141.357,18.882 142.124,18.748C142.367,18.711 142.647,18.645 142.964,18.552C143.281,18.459 143.496,18.309 143.608,18.104L143.664,18.104ZM159.148,16.088L160.912,16.088C160.707,14.427 160.067,13.185 158.994,12.364C157.921,11.543 156.609,11.132 155.06,11.132C153.959,11.132 152.983,11.337 152.134,11.748C151.284,12.158 150.571,12.709 149.992,13.4C149.4,14.114 148.953,14.937 148.676,15.822C148.373,16.777 148.221,17.774 148.228,18.776C148.228,19.821 148.378,20.806 148.676,21.73C148.953,22.615 149.4,23.438 149.992,24.152C150.578,24.848 151.309,25.407 152.134,25.79C152.984,26.191 153.959,26.392 155.06,26.392C156.703,26.392 158.047,25.902 159.092,24.922C160.137,23.942 160.782,22.575 161.024,20.82L159.26,20.82C159.211,21.393 159.059,21.953 158.812,22.472C158.569,22.976 158.262,23.41 157.888,23.774C157.516,24.137 157.079,24.427 156.6,24.628C156.113,24.834 155.589,24.938 155.06,24.936C154.22,24.936 153.483,24.759 152.848,24.404C152.224,24.059 151.684,23.581 151.266,23.004C150.837,22.406 150.515,21.738 150.314,21.03C149.883,19.558 149.883,17.994 150.314,16.522C150.515,15.814 150.837,15.146 151.266,14.548C151.684,13.971 152.224,13.493 152.848,13.148C153.483,12.793 154.22,12.616 155.06,12.616C156.236,12.616 157.15,12.924 157.804,13.54C158.457,14.156 158.905,15.005 159.148,16.088ZM163.488,6.008L163.488,26L165.252,26L165.252,20.512L168.108,18.132L173.82,26L176.032,26L169.452,16.9L175.612,11.552L173.26,11.552L165.252,18.552L165.252,6.008L163.488,6.008ZM177.74,6.008L177.74,26L182.136,26L182.136,17.74L190.508,17.74L190.508,14.324L182.136,14.324L182.136,9.704L191.796,9.704L191.796,6.008L177.74,6.008ZM193.924,11.524L193.924,26L197.9,26L197.9,19.476C197.9,18.823 197.965,18.216 198.096,17.656C198.226,17.096 198.446,16.606 198.754,16.186C199.071,15.759 199.49,15.417 199.972,15.192C200.476,14.949 201.092,14.828 201.82,14.828C202.073,14.829 202.325,14.843 202.576,14.87C202.837,14.898 203.061,14.93 203.248,14.968L203.248,11.272C202.967,11.184 202.675,11.137 202.38,11.132C201.876,11.132 201.39,11.207 200.924,11.356C200.457,11.506 200.019,11.716 199.608,11.986C199.198,12.256 198.833,12.583 198.516,12.966C198.203,13.341 197.948,13.761 197.76,14.212L197.704,14.212L197.704,11.524L193.924,11.524ZM218.396,26L218.396,11.524L214.42,11.524L214.42,19.112C214.42,20.587 214.177,21.646 213.692,22.29C213.207,22.934 212.422,23.256 211.34,23.256C210.388,23.256 209.725,22.962 209.352,22.374C208.979,21.786 208.792,20.894 208.792,19.7L208.792,11.524L204.816,11.524L204.816,20.428C204.816,21.324 204.896,22.141 205.054,22.878C205.213,23.615 205.488,24.241 205.88,24.754C206.272,25.267 206.809,25.664 207.49,25.944C208.171,26.224 209.044,26.364 210.108,26.364C210.948,26.364 211.769,26.177 212.572,25.804C213.375,25.431 214.028,24.824 214.532,23.984L214.616,23.984L214.616,26L218.396,26ZM225.508,9.284L225.508,6.008L221.532,6.008L221.532,9.284L225.508,9.284ZM221.532,11.524L221.532,26L225.508,26L225.508,11.524L221.532,11.524ZM233.684,11.524L233.684,7.184L229.708,7.184L229.708,11.524L227.3,11.524L227.3,14.184L229.708,14.184L229.708,22.724C229.708,23.452 229.829,24.04 230.072,24.488C230.315,24.936 230.646,25.281 231.066,25.524C231.486,25.767 231.971,25.93 232.522,26.014C233.072,26.098 233.656,26.14 234.272,26.14C234.664,26.14 235.065,26.13 235.476,26.112C235.886,26.093 236.26,26.056 236.596,26L236.596,22.92C236.402,22.958 236.205,22.986 236.008,23.004C235.803,23.023 235.588,23.032 235.364,23.032C234.692,23.032 234.244,22.92 234.02,22.696C233.796,22.472 233.684,22.024 233.684,21.352L233.684,14.184L236.596,14.184L236.596,11.524L233.684,11.524ZM241.58,21.296L237.8,21.296C237.837,22.266 238.057,23.074 238.458,23.718C238.845,24.348 239.372,24.879 239.998,25.272C240.623,25.664 241.338,25.944 242.14,26.112C243.751,26.443 245.413,26.448 247.026,26.126C247.776,25.984 248.493,25.704 249.14,25.3C249.756,24.908 250.269,24.376 250.638,23.746C251.021,23.102 251.212,22.304 251.212,21.352C251.212,20.68 251.082,20.115 250.82,19.658C250.562,19.205 250.209,18.813 249.784,18.51C249.333,18.191 248.838,17.941 248.314,17.768C247.758,17.58 247.193,17.421 246.62,17.292C246.071,17.164 245.52,17.042 244.968,16.928C244.48,16.83 243.999,16.704 243.526,16.55C243.106,16.41 242.766,16.228 242.504,16.004C242.247,15.79 242.103,15.47 242.112,15.136C242.112,14.837 242.187,14.599 242.336,14.422C242.484,14.246 242.671,14.107 242.882,14.016C243.109,13.919 243.35,13.858 243.596,13.834C243.857,13.806 244.1,13.792 244.324,13.792C245.034,13.792 245.649,13.927 246.172,14.198C246.695,14.468 246.984,14.987 247.04,15.752L250.82,15.752C250.745,14.856 250.517,14.114 250.134,13.526C249.766,12.952 249.273,12.469 248.692,12.112C248.084,11.746 247.415,11.49 246.718,11.356C245.967,11.205 245.202,11.13 244.436,11.132C243.652,11.132 242.886,11.202 242.14,11.342C241.431,11.468 240.75,11.714 240.124,12.07C239.531,12.411 239.035,12.898 238.682,13.484C238.318,14.081 238.136,14.847 238.136,15.78C238.136,16.415 238.266,16.951 238.528,17.39C238.789,17.829 239.135,18.193 239.564,18.482C239.994,18.772 240.484,19.005 241.034,19.182C241.584,19.359 242.149,19.513 242.728,19.644C244.147,19.943 245.253,20.241 246.046,20.54C246.839,20.839 247.236,21.287 247.236,21.884C247.236,22.239 247.152,22.533 246.984,22.766C246.818,22.997 246.603,23.189 246.354,23.326C246.091,23.47 245.808,23.574 245.514,23.634C245.224,23.697 244.929,23.73 244.632,23.732C244.24,23.732 243.862,23.685 243.498,23.592C243.152,23.507 242.825,23.36 242.532,23.158C242.25,22.96 242.016,22.702 241.846,22.402C241.669,22.094 241.58,21.725 241.58,21.296Z"/>
    </g>
</svg>
