<svg clip-rule="evenodd" fill-rule="evenodd" stroke-linejoin="round" stroke-miterlimit="2" viewBox="0 0 218 29" xmlns="http://www.w3.org/2000/svg"><g transform="translate(-.910156 -.084897)"><path d="m31.35 11.477c-.373-.878-1.463-.837-2.282-.863-.801-.01-1.734.007-2.483-.011-.491-.02-1.039-.065-1.404-.402-.513-.456-.441-1.674-.579-2.443-.342-2.601-1.928-4.976-4.127-6.379-5.388-3.614-12.45.853-12.696 7.087-.063.705-.1 1.296-.397 1.65-.352.424-.961.468-1.488.488-3.578.158-5.559-.904-4.836 3.878 3.025 18.386 27.728 17.946 30.389-.18.126-.976.217-2.056-.09-2.81l-.007-.014zm-27.128 5.614c-.287-.886-.705-2.108-.281-2.964.286-.51 1.004-.614 1.972-.698 1.843-.135 3.776-.183 5.619-.186.568.029 1.916-.061 2.064.296.166.509-3.118 3.122-3.939 3.852-.837.68-1.708 1.431-2.615 1.955-.548.307-1.053.381-1.54-.053-.572-.512-.995-1.426-1.28-2.202zm10.886 3.043c-.167 1.325-.213 4.142-1.025 4.725-1.003.686-3.171-.377-4.131-.986-1.933-1.243-1.236-2.098-.045-3.518 1.271-1.493 3.362-3.819 4.549-4.907.184-.153.393-.362.617-.369.416.033.217 1.789.222 2.319-.041.843-.109 1.814-.188 2.736zm-4.435-9.934c-.253-.556-.114-1.841.034-2.605.519-2.965 3.401-5.249 6.429-4.686 2.703.447 4.639 3.073 4.777 5.777.037.73.159 1.557-.475 1.899-.328.161-.87.124-1.597.13h-7.261c-.933-.035-1.561.145-1.901-.503l-.005-.011zm10.782 14.269c-.846.348-1.981.832-2.848.464-.538-.262-.676-1.008-.819-2.002-.245-1.879-.414-3.856-.534-5.742-.007-.573-.177-1.911.146-2.097.141-.064.38.09.735.405.864.784 1.867 1.869 2.704 2.779.707.778 1.402 1.555 2.05 2.37.609.778 1.018 1.392.832 1.977-.341.905-1.402 1.419-2.247 1.838l-.02.008zm6.819-7.368c-.349.854-.824 2.079-1.7 2.438-.543.192-1.15-.215-1.93-.796-1.485-1.139-2.982-2.407-4.377-3.647-.413-.407-1.46-1.22-1.365-1.594.17-.503 4.352-.276 5.434-.277 1.073.048 2.218.066 3.242.277.623.135 1.052.422 1.143 1.074.105.766-.164 1.744-.448 2.525z"/><g fill-rule="nonzero"><path d="m213.683 23.418c-.982 0-1.879-.169-2.692-.508-.813-.356-1.473-.855-1.981-1.498-.508-.644-.804-1.397-.889-2.261h2.718c.118.61.431 1.109.939 1.499.508.389 1.143.584 1.905.584.677 0 1.227-.144 1.651-.432.423-.305.635-.703.635-1.194 0-.423-.144-.753-.432-.99-.271-.237-.627-.423-1.067-.559-.423-.135-.889-.254-1.397-.355-.778-.187-1.515-.415-2.209-.686-.677-.271-1.228-.643-1.651-1.118-.423-.474-.635-1.109-.635-1.904 0-.779.203-1.448.61-2.007.423-.575.999-1.016 1.727-1.32.728-.305 1.549-.458 2.463-.458 1.372 0 2.514.348 3.429 1.042.914.677 1.422 1.676 1.524 2.997h-2.591c-.068-.593-.322-1.05-.762-1.372-.423-.321-.973-.482-1.651-.482-.626 0-1.134.127-1.523.381-.39.237-.585.601-.585 1.092 0 .338.136.626.407.863.271.22.618.407 1.041.559.44.135.897.262 1.372.381.863.186 1.633.415 2.311.686.677.271 1.219.651 1.625 1.142s.618 1.169.635 2.032c0 .779-.22 1.465-.66 2.057-.424.576-1.008 1.025-1.753 1.346-.728.322-1.566.483-2.514.483z"/><path d="m204.283 23.113c-1.253 0-2.218-.305-2.896-.914-.677-.61-1.015-1.609-1.015-2.997v-6.425h-1.905v-2.261h1.905v-3.047h2.692v3.047h3.2v2.261h-3.2v6.425c0 .643.144 1.075.431 1.295.288.22.737.33 1.346.33h1.423v2.286z"/><path d="m194.901 8.307c-.491 0-.914-.169-1.27-.508-.339-.356-.508-.787-.508-1.295 0-.491.169-.906.508-1.245.356-.338.779-.508 1.27-.508.508 0 .931.17 1.27.508.355.339.533.754.533 1.245 0 .508-.178.939-.533 1.295-.339.339-.762.508-1.27.508zm-1.346 14.806v-12.597h2.692v12.597z"/><path d="m183.741 23.419c-1.032 0-1.921-.212-2.666-.635-.745-.441-1.321-1.067-1.727-1.88-.407-.829-.61-1.82-.61-2.971v-7.416h2.667v7.06c0 1.118.254 1.99.762 2.616.525.627 1.287.94 2.286.94 1.032 0 1.845-.339 2.438-1.016.592-.694.889-1.642.889-2.845v-6.755h2.692v12.597h-2.591l-.051-1.88c-.423.695-.999 1.236-1.727 1.626-.711.372-1.498.559-2.362.559z"/><path d="m169.789 23.113v-12.597h2.591l.076 2.134c.423-.762.999-1.355 1.727-1.778.745-.44 1.617-.661 2.616-.661v2.82h-.737c-1.202 0-2.099.313-2.692.939-.593.61-.889 1.55-.889 2.819v6.324z"/><path d="m156.553 23.113v-17.778h11.022v2.26h-8.33v5.207h7.187v2.26h-7.187v8.051z"/><path d="m143.203 23.113v-17.778h2.692v10.489l4.673-5.308h3.403l-5.562 5.994 5.969 6.603h-3.454l-5.029-5.943v5.943z"/><path d="m134.933 23.418c-1.236 0-2.328-.279-3.276-.838s-1.693-1.329-2.235-2.311c-.542-.999-.813-2.151-.813-3.454 0-1.287.263-2.43.788-3.429s1.261-1.778 2.209-2.336c.948-.559 2.057-.839 3.327-.839 1.507 0 2.777.39 3.81 1.169 1.049.762 1.735 1.837 2.057 3.225h-2.845c-.152-.626-.508-1.134-1.066-1.524-.542-.389-1.202-.584-1.981-.584-.796 0-1.456.203-1.981.61-.525.389-.923.914-1.194 1.574-.254.644-.381 1.355-.381 2.134 0 .812.136 1.549.407 2.209.287.644.694 1.16 1.219 1.549.541.373 1.185.559 1.93.559.762 0 1.414-.178 1.955-.533.542-.373.906-.906 1.092-1.6h2.845c-.203.897-.576 1.676-1.118 2.336-.541.661-1.219 1.177-2.031 1.55-.813.355-1.719.533-2.718.533z"/><path d="m119.042 23.418c-.813 0-1.558-.144-2.235-.432-.677-.305-1.219-.745-1.625-1.32-.407-.576-.61-1.27-.61-2.083 0-.965.237-1.735.711-2.311.491-.593 1.143-1.025 1.956-1.295.83-.288 1.735-.432 2.717-.432h3.2c0-.728-.118-1.312-.355-1.752-.237-.458-.559-.788-.965-.991-.407-.22-.881-.33-1.422-.33-.712 0-1.338.169-1.88.508-.525.322-.855.838-.99 1.549h-2.718c.085-.914.39-1.693.915-2.336.541-.644 1.227-1.135 2.057-1.473.829-.339 1.71-.509 2.641-.509 1.219 0 2.226.229 3.022.686.813.441 1.414 1.059 1.803 1.854.407.796.61 1.702.61 2.718v3.86c.017.491.118.855.305 1.092.203.22.558.347 1.066.381v2.311c-.677 0-1.27-.076-1.778-.228-.491-.153-.897-.381-1.219-.686-.321-.322-.575-.728-.761-1.219-.407.677-.999 1.253-1.778 1.727s-1.668.711-2.667.711zm.635-2.21c.694 0 1.304-.169 1.829-.508.524-.355.931-.812 1.219-1.371.287-.576.431-1.194.431-1.854v-.051h-2.996c-.491 0-.957.06-1.397.178-.424.119-.771.322-1.042.61-.254.27-.38.651-.38 1.142 0 .644.228 1.118.685 1.423.457.287 1.008.431 1.651.431z"/><path d="m106.539 23.418c-.948 0-1.812-.186-2.591-.559-.762-.389-1.371-.948-1.828-1.676l-.102 1.93h-2.59v-17.778h2.692v7.112c.44-.661 1.033-1.194 1.778-1.6.745-.424 1.625-.635 2.641-.635 1.236 0 2.302.288 3.2.863.914.576 1.617 1.363 2.108 2.362s.736 2.116.736 3.352-.245 2.362-.736 3.378c-.491.999-1.194 1.795-2.108 2.387-.898.576-1.964.864-3.2.864zm-.559-2.362c.779 0 1.456-.178 2.032-.533.575-.373 1.024-.881 1.346-1.524.322-.66.482-1.397.482-2.21 0-.846-.169-1.583-.508-2.209-.321-.643-.77-1.143-1.346-1.498-.575-.356-1.244-.534-2.006-.534-.745 0-1.405.186-1.981.559-.576.355-1.033.855-1.371 1.498-.322.627-.483 1.363-.483 2.21 0 .813.161 1.541.483 2.184.338.643.795 1.151 1.371 1.524.576.355 1.236.533 1.981.533z"/><path d="m89.439 23.418c-1.253 0-2.336-.297-3.251-.889-.897-.61-1.591-1.414-2.082-2.413-.474-.999-.712-2.116-.712-3.352 0-1.219.238-2.32.712-3.302.491-.999 1.185-1.786 2.082-2.362.915-.592 1.998-.889 3.251-.889.931 0 1.778.195 2.54.584.762.373 1.38.906 1.854 1.6v-7.06h2.717v17.778h-2.616l-.101-1.956c-.407.661-.991 1.202-1.753 1.626-.762.423-1.642.635-2.641.635zm.533-2.362c.796 0 1.482-.187 2.057-.559.576-.372 1.016-.881 1.321-1.524s.457-1.363.457-2.159c0-.914-.178-1.684-.533-2.311-.339-.626-.804-1.109-1.397-1.447-.576-.339-1.219-.508-1.93-.508-.728 0-1.38.178-1.956.533-.575.356-1.032.847-1.371 1.473-.322.627-.483 1.372-.483 2.235 0 .847.17 1.592.508 2.235.339.643.796 1.143 1.372 1.498.575.356 1.227.534 1.955.534z"/><path d="m75.457 23.418c-1.236 0-2.328-.279-3.277-.838-.948-.559-1.693-1.338-2.234-2.337-.525-.999-.788-2.141-.788-3.428 0-1.338.263-2.498.788-3.48.524-.982 1.261-1.744 2.209-2.285.965-.559 2.074-.839 3.327-.839 1.219 0 2.286.271 3.2.813.914.525 1.625 1.245 2.133 2.159.525.914.788 1.956.788 3.124 0 .237-.009.44-.026.609 0 .17-.017.373-.051.61h-9.676c.051.711.229 1.346.534 1.905.304.541.719.973 1.244 1.295.525.305 1.126.457 1.803.457.728 0 1.346-.161 1.854-.483.525-.338.914-.812 1.168-1.422h2.794c-.22.762-.592 1.456-1.117 2.083-.508.626-1.152 1.126-1.931 1.498-.778.373-1.693.559-2.742.559zm-3.581-7.797h6.984c-.034-.982-.381-1.752-1.041-2.311-.661-.576-1.465-.863-2.413-.863-.847 0-1.617.262-2.311.787-.695.525-1.101 1.32-1.219 2.387z"/><path d="m61.222 23.418c-1.236 0-2.328-.279-3.276-.838s-1.693-1.338-2.235-2.337c-.525-.999-.787-2.141-.787-3.428 0-1.338.262-2.498.787-3.48s1.261-1.744 2.21-2.285c.965-.559 2.074-.839 3.327-.839 1.219 0 2.285.271 3.2.813.914.525 1.625 1.245 2.133 2.159.525.914.787 1.956.787 3.124 0 .237-.008.44-.025.609 0 .17-.017.373-.051.61h-9.676c.051.711.228 1.346.533 1.905.305.541.72.973 1.245 1.295.525.305 1.126.457 1.803.457.728 0 1.346-.161 1.854-.483.525-.338.914-.812 1.168-1.422h2.794c-.22.762-.593 1.456-1.118 2.083-.508.626-1.151 1.126-1.93 1.498-.779.373-1.693.559-2.743.559zm-3.581-7.797h6.984c-.034-.982-.381-1.752-1.041-2.311-.66-.576-1.464-.863-2.413-.863-.846 0-1.617.262-2.311.787s-1.1 1.32-1.219 2.387z"/><path d="m42.764 23.113v-17.778h11.022v2.261h-8.33v5.206h7.187v2.26h-7.187v8.051z"/></g></g></svg>