<?xml version="1.0" encoding="UTF-8" standalone="no"?>
<!DOCTYPE svg PUBLIC "-//W3C//DTD SVG 1.1//EN" "http://www.w3.org/Graphics/SVG/1.1/DTD/svg11.dtd">
<svg width="140" height="31" viewBox="0 0 140 31" version="1.1" xmlns="http://www.w3.org/2000/svg" xmlns:xlink="http://www.w3.org/1999/xlink" xml:space="preserve" xmlns:serif="http://www.serif.com/" style="fill-rule:evenodd;clip-rule:evenodd;stroke-linejoin:round;stroke-miterlimit:2;">
    <g transform="matrix(1,0,0,1,0.000325744,0)">
        <g transform="matrix(0.211781,0,0,0.211781,-0.000256758,0)">
            <path d="M95.222,44.186C94.379,44.499 93.434,44.242 92.834,43.572C85.384,35.25 74.554,30.012 62.5,30.012C50.446,30.012 39.616,35.25 32.166,43.572C31.566,44.242 30.622,44.499 29.779,44.186L1.688,33.752C0.065,33.149 -0.52,31.155 0.52,29.772L22.13,1.033C22.619,0.383 23.386,0 24.2,0L100.8,0C101.614,0 102.381,0.383 102.871,1.033L124.48,29.772C125.52,31.155 124.935,33.149 123.312,33.752L95.222,44.186Z" style="fill-rule:nonzero;"/>
        </g>
        <g transform="matrix(0.211781,0,0,0.211781,-0.000256758,0)">
            <path d="M24.2,86.833C24.782,86.833 25.307,87.18 25.551,87.708C32.001,101.647 46.12,111.319 62.5,111.319C78.88,111.319 92.999,101.647 99.449,87.708C99.694,87.18 100.218,86.833 100.8,86.833C101.614,86.833 102.381,87.216 102.871,87.866L124.48,116.605C125.52,117.988 124.935,119.982 123.312,120.584L63.402,142.838C62.82,143.054 62.18,143.054 61.598,142.838L1.688,120.584C0.065,119.982 -0.52,117.988 0.52,116.605L22.13,87.866C22.619,87.216 23.386,86.833 24.2,86.833Z" style="fill-rule:nonzero;"/>
        </g>
        <g transform="matrix(0.211781,0,0,0.211781,-0.000256758,0)">
            <path d="M87.001,70.666C87.001,84.186 76.032,95.147 62.5,95.147C48.969,95.147 37.999,84.186 37.999,70.666C37.999,57.145 48.969,46.184 62.5,46.184C76.032,46.184 87.001,57.145 87.001,70.666Z" style="fill-rule:nonzero;"/>
        </g>
        <g transform="matrix(0.211781,0,0,0.211781,-0.000256758,0)">
            <path d="M161.692,104.939L161.692,64.966L154.274,64.966L154.274,51.568L161.692,51.568L161.692,46.807C161.692,39.572 163.538,33.815 167.229,29.533C170.92,25.178 175.829,23 181.956,23C186.828,23 191.884,24.144 197.126,26.433L193.914,39.72C192.733,39.203 191.405,38.797 189.928,38.502C188.452,38.133 187.123,37.948 185.942,37.948C181.587,37.948 179.409,40.68 179.409,46.142L179.409,51.568L192.918,51.568L192.918,64.966L179.409,64.966L179.409,104.939L161.692,104.939Z" style="fill-rule:nonzero;"/>
        </g>
        <g transform="matrix(0.211781,0,0,0.211781,-0.000256758,0)">
            <path d="M225.678,106.046C219.108,106.046 213.498,104.681 208.847,101.949C204.197,99.218 200.616,95.601 198.107,91.098C195.67,86.595 194.452,81.723 194.452,76.482C194.452,70.872 195.67,65.741 198.107,61.091C200.543,56.44 204.086,52.712 208.736,49.907C213.387,47.102 219.034,45.699 225.678,45.699C232.248,45.699 237.858,47.102 242.509,49.907C247.159,52.712 250.666,56.403 253.028,60.98C255.464,65.557 256.682,70.466 256.682,75.707C256.682,77.847 256.534,79.73 256.239,81.354L213.276,81.354C213.572,85.266 214.974,88.256 217.484,90.323C220.068,92.316 222.983,93.313 226.231,93.313C228.815,93.313 231.288,92.685 233.65,91.43C236.012,90.175 237.637,88.477 238.522,86.337L253.581,90.544C251.293,95.121 247.713,98.849 242.841,101.728C238.043,104.607 232.322,106.046 225.678,106.046ZM212.833,70.502L238.079,70.502C237.71,66.812 236.345,63.896 233.982,61.755C231.694,59.54 228.852,58.433 225.456,58.433C222.061,58.433 219.182,59.54 216.82,61.755C214.531,63.969 213.202,66.885 212.833,70.502Z" style="fill-rule:nonzero;"/>
        </g>
        <g transform="matrix(0.211781,0,0,0.211781,-0.000256758,0)">
            <path d="M299.369,61.976C295.088,62.05 291.212,62.751 287.743,64.08C284.273,65.409 281.763,67.402 280.213,70.06L280.213,104.939L262.497,104.939L262.497,46.807L278.774,46.807L278.774,58.544C280.767,54.631 283.351,51.568 286.525,49.353C289.699,47.139 293.021,45.995 296.49,45.921C297.967,45.921 298.926,45.958 299.369,46.032L299.369,61.976Z" style="fill-rule:nonzero;"/>
        </g>
        <g transform="matrix(0.211781,0,0,0.211781,-0.000256758,0)">
            <path d="M341.489,61.976C337.208,62.05 333.332,62.751 329.863,64.08C326.393,65.409 323.883,67.402 322.333,70.06L322.333,104.939L304.617,104.939L304.617,46.807L320.894,46.807L320.894,58.544C322.887,54.631 325.471,51.568 328.645,49.353C331.819,47.139 335.141,45.995 338.61,45.921C340.087,45.921 341.046,45.958 341.489,46.032L341.489,61.976Z" style="fill-rule:nonzero;"/>
        </g>
        <g transform="matrix(0.211781,0,0,0.211781,-0.000256758,0)">
            <path d="M373.986,106.046C367.343,106.046 361.695,104.644 357.045,101.839C352.468,99.033 348.962,95.343 346.526,90.766C344.09,86.189 342.872,81.243 342.872,75.928C342.872,70.539 344.09,65.557 346.526,60.98C348.962,56.403 352.505,52.712 357.156,49.907C361.806,47.102 367.416,45.699 373.986,45.699C380.556,45.699 386.166,47.102 390.817,49.907C395.468,52.712 399.011,56.403 401.447,60.98C403.883,65.557 405.101,70.539 405.101,75.928C405.101,81.243 403.883,86.189 401.447,90.766C399.011,95.343 395.468,99.033 390.817,101.839C386.166,104.644 380.556,106.046 373.986,106.046ZM361.031,75.928C361.031,80.431 362.249,84.085 364.685,86.89C367.195,89.695 370.295,91.098 373.986,91.098C377.603,91.098 380.63,89.695 383.066,86.89C385.576,84.085 386.831,80.431 386.831,75.928C386.831,71.425 385.576,67.771 383.066,64.966C380.63,62.161 377.603,60.758 373.986,60.758C370.295,60.758 367.195,62.161 364.685,64.966C362.249,67.771 361.031,71.425 361.031,75.928Z" style="fill-rule:nonzero;"/>
        </g>
        <g transform="matrix(0.211781,0,0,0.211781,-0.000256758,0)">
            <path d="M439.466,106.046C432.97,106.046 427.359,104.644 422.635,101.839C417.984,99.033 414.404,95.343 411.894,90.766C409.458,86.189 408.24,81.206 408.24,75.817C408.24,70.502 409.458,65.557 411.894,60.98C414.404,56.403 417.984,52.712 422.635,49.907C427.285,47.102 432.896,45.699 439.466,45.699C446.109,45.699 451.72,47.139 456.296,50.018C460.947,52.823 464.416,56.514 466.705,61.091L449.431,66.295C447.143,62.604 443.784,60.758 439.355,60.758C435.738,60.758 432.674,62.124 430.164,64.855C427.655,67.587 426.4,71.241 426.4,75.817C426.4,80.394 427.655,84.085 430.164,86.89C432.674,89.695 435.738,91.098 439.355,91.098C441.569,91.098 443.599,90.581 445.445,89.548C447.29,88.44 448.656,87.038 449.542,85.34L466.815,90.655C464.675,95.158 461.242,98.849 456.518,101.728C451.867,104.607 446.183,106.046 439.466,106.046Z" style="fill-rule:nonzero;"/>
        </g>
        <g transform="matrix(0.211781,0,0,0.211781,-0.000256758,0)">
            <path d="M499.86,106.046C493.29,106.046 487.68,104.681 483.029,101.949C478.379,99.218 474.799,95.601 472.289,91.098C469.853,86.595 468.635,81.723 468.635,76.482C468.635,70.872 469.853,65.741 472.289,61.091C474.725,56.44 478.268,52.712 482.919,49.907C487.569,47.102 493.216,45.699 499.86,45.699C506.43,45.699 512.04,47.102 516.691,49.907C521.341,52.712 524.848,56.403 527.21,60.98C529.646,65.557 530.864,70.466 530.864,75.707C530.864,77.847 530.716,79.73 530.421,81.354L487.459,81.354C487.754,85.266 489.156,88.256 491.666,90.323C494.25,92.316 497.166,93.313 500.414,93.313C502.997,93.313 505.47,92.685 507.833,91.43C510.195,90.175 511.819,88.477 512.705,86.337L527.764,90.544C525.475,95.121 521.895,98.849 517.023,101.728C512.225,104.607 506.504,106.046 499.86,106.046ZM487.016,70.502L512.262,70.502C511.893,66.812 510.527,63.896 508.165,61.755C505.876,59.54 503.034,58.433 499.639,58.433C496.243,58.433 493.364,59.54 491.002,61.755C488.713,63.969 487.385,66.885 487.016,70.502Z" style="fill-rule:nonzero;"/>
        </g>
        <g transform="matrix(0.211781,0,0,0.211781,-0.000256758,0)">
            <path d="M592.707,104.939L574.991,104.939L574.991,72.274C574.991,68.436 574.253,65.667 572.776,63.969C571.374,62.198 569.491,61.312 567.129,61.312C564.693,61.312 562.22,62.272 559.71,64.191C557.201,66.11 555.429,68.583 554.395,71.61L554.395,104.939L536.679,104.939L536.679,46.807L552.624,46.807L552.624,56.551C554.765,53.155 557.791,50.498 561.704,48.578C565.616,46.659 570.119,45.699 575.212,45.699C578.977,45.699 582.004,46.401 584.292,47.803C586.654,49.132 588.426,50.904 589.607,53.118C590.862,55.259 591.674,57.621 592.043,60.205C592.486,62.788 592.707,65.298 592.707,67.734L592.707,104.939Z" style="fill-rule:nonzero;"/>
        </g>
        <g transform="matrix(0.211781,0,0,0.211781,-0.000256758,0)">
            <path d="M630.057,106.046C623.487,106.046 617.877,104.681 613.226,101.949C608.575,99.218 604.995,95.601 602.485,91.098C600.049,86.595 598.831,81.723 598.831,76.482C598.831,70.872 600.049,65.741 602.485,61.091C604.921,56.44 608.465,52.712 613.115,49.907C617.766,47.102 623.413,45.699 630.057,45.699C636.627,45.699 642.237,47.102 646.887,49.907C651.538,52.712 655.044,56.403 657.407,60.98C659.843,65.557 661.061,70.466 661.061,75.707C661.061,77.847 660.913,79.73 660.618,81.354L617.655,81.354C617.95,85.266 619.353,88.256 621.863,90.323C624.446,92.316 627.362,93.313 630.61,93.313C633.194,93.313 635.667,92.685 638.029,91.43C640.391,90.175 642.015,88.477 642.901,86.337L657.96,90.544C655.672,95.121 652.092,98.849 647.22,101.728C642.421,104.607 636.7,106.046 630.057,106.046ZM617.212,70.502L642.458,70.502C642.089,66.812 640.724,63.896 638.361,61.755C636.073,59.54 633.231,58.433 629.835,58.433C626.44,58.433 623.561,59.54 621.198,61.755C618.91,63.969 617.581,66.885 617.212,70.502Z" style="fill-rule:nonzero;"/>
        </g>
    </g>
</svg>
