<svg height="88" width="69" xmlns="http://www.w3.org/2000/svg"><path d="M13.106 65.637h.571c1.8.033 1.875-2.2 1.875-2.226 0 0 .365.01.373 0l.003 5.253h-.38c-.21-1.773-.796-2.375-1.825-2.4h-.617v5.081h1.064c2.296 0 3.113-.492 3.53-3.724h.418v4.274h-8.35v-.55h1.545v-10.46H9.91v-.558l8.103-.003v4.065H17.7c-.518-3.653-1.61-3.503-4.585-3.503zm-3.31.21v.518H8.562v5.53c-.005-.004-1.456-1.165-1.46-1.15C6.666 71.412 5.853 72 4.7 72 1.028 72 .016 68.255 0 66.058c-.01-2.402 1.254-5.844 4.7-5.844 1.777 0 2.433.929 2.402.936.005.015 1.373-.995 1.365-.967.008-.009-.004 3.473-.004 4.204h-.317c-.418-1.776-1.462-3.753-3.446-3.753-2.816 0-2.71 4.377-2.71 5.424 0 1.145-.21 5.422 2.71 5.422.42 0 1.824-.399 2.09-1.354v-3.76H5.222v-.52zm53.42 1.774h.42v4.274H53.18v-.556h1.338c-.01 0-1.206-3.09-1.204-3.083h-3.838s-.722 1.87-.68 2.391c.065.72 1.098.69 1.255.69v.558h-2.82c-4.47.005-.473-5.302-3.886-5.583h-1.967v5.027h1.475v.556h-4.73v-.556H39.6V60.883h-1.475v-.562h5.766c2.03.076 3.246.946 3.246 2.695 0 2.496-2.623 3.039-2.623 3.039-.024.023 1.01.067 1.615.678.54.542.58 1.724.58 2.244v1.98c0 .1-.04.382.5.356.585-.113.861-1.026.854-.995.007-.03 3.565-10.32 3.551-10.312h.628l4.267 11.331h1.158V60.881h-1.46v-.563h4.802v.563h-1.46v10.456h.14c2.294 0 3.113-.484 3.528-3.716zm-13.48.1h3.444l-1.777-5zm-6.474-1.996c1.465 0 1.988-1.233 1.988-2.486 0-.518-.057-2.147-1.465-2.36h-2.398v4.846zM32.438 60.88v4.759h.57c1.801.032 1.875-2.201 1.875-2.227 0 0 .366.01.373 0l.003 5.253h-.38c-.21-1.773-.795-2.374-1.825-2.4h-.616v5.082H33.5c2.296 0 3.114-.493 3.53-3.725h.42v4.274h-8.353v-.55h1.547V60.878h-1.357c-.416 0-1.406.031-1.463.903v10.113h-.207c-.038.006-4.168-5.96-6.356-9.09l-.014 7.525c0 .833 1.256 1.15 1.777 1.15v.415h-4.072v-.415h.006c.521 0 1.77-.317 1.77-1.15v-8.548c-.039-.876-.87-.903-1.464-.903h-.5v-.555h3.01l5.527 8.13v-6.672c-.057-.872-1.046-.903-1.463-.903h-.31v-.555h11.816v4.065h-.314c-.519-3.653-1.617-3.51-4.593-3.51zm36.45.002h-1.48v10.45h1.48v.564h-4.715v-.563h1.486l-.005-10.451h-1.48v-.564h4.713zm-12.448-7.7H69v3.588H.012v-18l3.761-.978c-.64-1.023-.822-2.364-.317-3.139.464-.709 1.411-1.34 2.59-1.34h.025c.098-.156.213-.298.344-.423.454-.428 1.07-.643 1.782-.62 1.103.035 2.345.63 3.408 1.616l1.49-2.402-.356-.318-.105-.107a1.22 1.22 0 0 1-.392-.913c0-.48.48-1.016 1.492-1.112l1.404-.15c.691-.05 1.656-.454 1.656-1.202a.543.543 0 0 0-.523-.523c-.216.024-.877.463-1.127.629-.614.406-1.194.738-1.905.738-.976 0-1.77-.691-1.77-1.605 0-.277.071-.55.21-.787l.012-.022a1.83 1.83 0 0 1-.479-.898c-.062-.338-.038-.854.428-1.399a9.71 9.71 0 0 0 1.568-2.446l.022-.044.414-.777c.107-.164.262-.331.46-.496.314-.642.742-1.329 1.184-1.897.406-.52.966-.943 1.365-1.206a6.073 6.073 0 0 1 1.612-.734c1.738-.5 3.921-.116 5.84 1.027 1.38.82 2.457 2.215 3.045 3.856l.023-.08c.723-2.296 2.66-3.78 4.932-3.78h34.6l-.46 1.01c-1.118 2.455-3.066 3.7-5.79 3.7h-.365c-1.118 2.317-3.01 3.506-5.627 3.53-1.134 2.292-3.04 3.458-5.67 3.458H38.58c.056.253.085.536.085.855 0 .236-.03.465-.083.685.782.058 1.777.14 2.747.22 1.44.118 2.927.24 3.647.28l1.041.052c1.592.078 2.848.14 4.623.433 2.567.425 4.676 1.59 6.27 3.464.627.745 1.192 1.54 1.69 2.377.6.993 1.1 2.052 1.57 3.107h.021v.05c.134.301.265.603.395.9l.165.38c.757 2 1.387 3.62 2.012 4.861 1.378-.617 3.078-.223 3.793.938.15.244.275.464.396.677.292.519.547.967 1.07 1.545l.82.906-1.192.27c-.477.108-.92.16-1.337.16-3.056 0-4.546-2.817-6.122-6.824v5.575c.097 1.38-.198 1.916-2.27 2.775l-.02.007zm-4.352-2.474c-.248.637-.024 1.518.6 2.363l4.696-1.772c.3-.124 1.16-.483 1.353-.737.057-.076.057-.218.026-.636l-.002-.053v-9.107a29.293 29.293 0 0 0-1.108-2.248c-5.573-.67-7.049-1.284-9.926-5.96a65.68 65.68 0 0 0-1.78-.102c-.33-.016-.678-.034-1.048-.054-.74-.04-2.172-.157-3.687-.282-1.268-.103-2.578-.212-3.39-.264-.58.601-1.38.94-2.216.939-.72 0-1.25-.215-2.202-.628v-.001l-.617-.263 1.1-.987.628.267c.488.198.765.273 1.09.273.95 0 1.72-.747 1.72-1.664 0-.58-.12-.796-.163-.855h-4.737l.666-1.428h4.52c1.833 0 3.134-.651 4.03-2.028h-7.397l.666-1.429h8.29c1.87 0 3.184-.674 4.082-2.104H35.848l.666-1.428h12.76c1.755 0 3.023-.595 3.915-1.853H32.105c-1.632 0-3.03 1.087-3.566 2.77l-1.197 4.292a28.501 28.501 0 0 1-.905 3.102c.852.536 1.75 1.355 1.75 3.14 0 1.784-1.184 3.146-2.567 3.813a3.02 3.02 0 0 1 .485 1.637c0 1.527-1.146 2.798-2.642 3.037-.193.554-.414 1.045-.69 1.471v6.137a1.65 1.65 0 0 1-1.643 1.653h-.215c-.369 0-1.274.066-1.7.681-.362.522-.353 1.395.023 2.537.853.217 2.184.018 2.8-.832l.216-.295h.376c1 0 2.188-.048 2.545-.42.06-.06.237-.246.206-.999-.004-.092-.005-.776.746-1.368-.837-2.202.03-5.63.141-6.051l.146-.547.566.016c3.097.094 4.942-.502 7.076-1.19.534-.17 1.085-.348 1.675-.52.2-.065 2.643-.83 4.574-.831.173-.004 1.931.005 3.702 1.151l.107.07.01-.005.006.016c1.657 1.071 3.238 2.083 10.056 2.634 1.771.145 2.055 1.504 2.15 1.95l.01.074.345 3.405-3.814.852c-.376.072-.649.3-.789.661zm-1.016 2.474c-.547-1.038-.666-2.094-.317-2.991a2.45 2.45 0 0 1 1.84-1.545l2.547-.568-.214-2.106c-.116-.534-.27-.734-.859-.783-4.873-.393-7.269-1.054-8.848-1.789.547 1.113 1.073 2.198 1.265 2.765.34.981.083 1.98-.72 2.812l-3.98 4.205zm-16.75 0h5.495l4.914-5.192c.643-.665.462-1.19.402-1.362-.186-.55-.857-1.91-1.395-3.001a85.82 85.82 0 0 1-.735-1.515c-1.377-.802-2.663-.782-2.676-.784l-.017.001c-.394 0-.82.038-1.244.098l2.563 4.23c1.018 1.476.021 2.634-.307 3.016l-.018.018-1.917 2.071h-.378l-.068-.012-2.715-.505c-.48-.068-1.156.085-1.596.59-.46.528-.566 1.335-.308 2.347zm-.77-3.286a3.276 3.276 0 0 1 2.902-1.06l.021.004 2.342.434 1.43-1.543c.516-.603.48-.87.196-1.276l-.026-.04-2.85-4.702c-.805.188-1.396.376-1.408.38l-.017.006c-.575.168-1.12.342-1.647.512-2.02.652-3.94 1.268-6.904 1.268h-.068c-.29 1.365-.615 3.876.132 5.026l.452.696-.754.344c-.428.193-.523.39-.542.441.02.582-.032 1.397-.604 1.993-.47.49-1.154.71-2.093.803h8.744c-.327-1.658.176-2.692.694-3.286zm-15.512-.31c.571-.824 1.62-1.297 2.875-1.297h.215c.117 0 .213-.1.213-.223v-4.82c-.725.375-1.668.573-2.933.573h-.846l.142-.834.067-.39c.094-.532.164-.93.194-1.433-.53.241-1.1.393-1.63.474v11.546h1.48c-.459-1.513-.385-2.72.223-3.596zm-3.133 2.344V39.875l-6.732-1.75-6.734 1.75v12.054l6.734-1.753zm-12.6 1.251h11.735l-5.867-1.529zm2.347-17.747c-.162.248-.03 1.321.616 1.97l2.905-.756 8.163 2.122v1.417c.754-.149 1.44-.462 1.828-.855l1.14-1.16.084 1.623c.007.153.022.628.022.797 0 .72-.06 1.23-.147 1.76 1.867-.183 2.448-1.035 2.983-2.778l.154-.504h.55c.95 0 1.722-.74 1.722-1.65a1.64 1.64 0 0 0-.745-1.359l-1.456-.973 1.721-.322c1.26-.236 2.562-1.347 2.562-2.796 0-1.263-.589-1.661-1.547-2.204l-.535-.303.22-.574c.237-.62.686-1.929.99-3.2l-.014-.006.091-.325c.172-.78.276-1.52.227-2.05-.166-1.825-1.075-3.54-2.362-4.529.037 1.371-.697 2.806-1.894 3.686l.386 2.204h-.85c-.56 0-.95.309-.95.587 0 .166.064.494.132.844.104.53.233 1.19.266 1.881v.062c0 2.539-2.717 4.056-5.344 4.056h-.046c-.189 0-.584-.015-1.05-.112l-1.863 2.982c.062.122.204.347.303.5.052.082.092.144.1.16l.006.007.067.107c.094.146.25.394.318.537.025.054.038.092.03.104-.297.414-.59.831-.888 1.246.03-.042-.403-.692-.434-.747-.012-.021-.072-.113-.142-.225a6.43 6.43 0 0 1-.156-.254 7.6 7.6 0 0 0-.852-1.139c-.875-.94-1.952-1.54-2.813-1.567-.326-.01-.58.067-.753.229a.845.845 0 0 0-.215.363l-.192.588-.61-.106c-.804-.14-1.447.232-1.728.662zm8.814-5.248c-.016.075.031.173.09.217.305.24 1.546.339 1.626.342l.05.001c1.95.063 4.253-1.042 4.253-2.714-.029-.58-.14-1.153-.24-1.658-.089-.455-.16-.815-.16-1.118 0-.882.637-1.614 1.55-1.895l-.28-1.606.434-.249c1.085-.623 1.764-1.906 1.578-2.983l-.003-.022s-.01-.054-.042-.128l-3.557 2.196-.25-.032a8.11 8.11 0 0 0-.996-.066c-1.676 0-2.487.601-2.668.842l-.118.222c-.47 1.558 1.225.85 1.648 1.198.37.304-.33.946-.33.946-.182.179-.314.388-.61.388-.294 0-.532-.17-.532-.388a.599.599 0 0 0-.602-.592c-.336 0-.452.154-.653.435-.326.493-.649.893-.93 1.222-.029.033-.12.146-.107.21.025.132.25.31.394.406l.68.456-.786 1.053a.153.153 0 0 0-.009.052c0 .104.152.23.341.23.28 0 .648-.245 1.114-.554.715-.474 1.352-.866 1.918-.866 1.06 0 1.81 1.03 1.81 2.087-.173 1.562-1.699 2.18-3.198 2.232l-1.23-.039c-.084-.002-.163.076-.185.175zm2.948-11.152c-.026.032-.05.067-.077.1.36-.057.754-.092 1.182-.092a9.1 9.1 0 0 1 .92.049l2.523-1.558c-.819-.157-1.612-.144-2.302.055-.431.124-.842.31-1.22.552-.437.289-.802.607-1.026.894zm38.442-.368a6.394 6.394 0 0 1-1.426 1.853h7.022c1.756 0 3.025-.595 3.917-1.853zm-.477 5.385c1.868 0 3.184-.674 4.082-2.104H48.91c-.412.855-.93 1.56-1.55 2.104zm-5.59 3.457c1.835 0 3.135-.652 4.032-2.028H43.28c-.406.82-.91 1.498-1.51 2.028zm1.615 5.363c-.29-.049-.58-.092-.87-.131 2.092 3.18 3.395 3.726 7.137 4.217-.278-.396-.56-.763-.853-1.108-1.368-1.609-3.19-2.61-5.414-2.978zm14.932 15.416c-.31-.507-1.158-.68-1.857-.435.76 1.135 1.58 1.736 2.663 1.803a14.44 14.44 0 0 1-.437-.738c-.115-.2-.232-.408-.369-.63zm-51.923-6.56v1.475l-4.498-1.17v-1.475zm-10.48 1.474v-1.476l4.498-1.17v1.476zm0 2.966v-1.476l4.498-1.169V45zm10.48-1.476v1.476L8.917 45v-1.477zm0 2.968v1.476l-4.498-1.17V46.49zm-10.48 1.477V47.66l4.498-1.17v1.476z" fill="#808080"/></svg>
