<?xml version="1.0" encoding="UTF-8" standalone="no"?>
<!DOCTYPE svg PUBLIC "-//W3C//DTD SVG 1.1//EN" "http://www.w3.org/Graphics/SVG/1.1/DTD/svg11.dtd">
<svg viewBox="0 0 140 47" version="1.1" xmlns="http://www.w3.org/2000/svg" xmlns:xlink="http://www.w3.org/1999/xlink" xml:space="preserve" xmlns:serif="http://www.serif.com/" style="fill-rule:evenodd;clip-rule:evenodd;stroke-linejoin:round;stroke-miterlimit:2;">
    <g transform="matrix(1,0,0,1,0.000144,0.00190756)">
        <g transform="matrix(1,0,0,1,-0.4,-0.311475)">
            <g transform="matrix(0.948509,0,0,0.948509,-565.291,-5.67648)">
                <g id="EuroRust">
                    <g id="Group-6">
                        <path id="Combined-Shape" d="M713.998,43.346L719.28,43.346L719.28,7.72L713.998,7.72L713.998,43.346ZM727.062,31.554L737.806,27.039C737.214,25.519 735.439,24.459 733.345,24.459C730.659,24.461 726.927,26.856 727.062,31.554M739.673,35.931L743.771,38.695C742.449,40.676 739.263,44.084 733.755,44.084C726.927,44.084 721.828,38.74 721.828,31.923C721.828,24.689 726.973,19.761 733.165,19.761C739.402,19.761 742.453,24.783 743.454,27.5L744,28.882L727.93,35.607C729.158,38.049 731.072,39.292 733.757,39.292C736.441,39.292 738.308,37.957 739.673,35.931M705.692,31.969C705.692,27.685 702.87,24.553 699.272,24.553C695.631,24.553 692.581,27.685 692.581,31.969C692.581,36.207 695.631,39.294 699.272,39.294C702.868,39.292 705.692,36.207 705.692,31.969ZM710.335,20.499L710.335,42.333C710.335,51.315 705.1,55 698.908,55C693.08,55 689.575,51.038 688.254,47.814L692.853,45.879C693.673,47.86 695.675,50.21 698.908,50.21C702.868,50.21 705.327,47.722 705.327,43.071L705.327,41.32L705.146,41.32C703.962,42.794 701.686,44.084 698.817,44.084C692.808,44.084 687.299,38.787 687.299,31.969C687.299,25.105 692.808,19.763 698.817,19.763C701.686,19.763 703.962,21.053 705.146,22.482L705.327,22.482L705.327,20.499L710.335,20.499ZM653.51,31.922C653.51,27.547 650.369,24.553 646.727,24.553C643.085,24.553 639.943,27.547 639.943,31.922C639.943,36.252 643.084,39.292 646.727,39.292C650.368,39.292 653.51,36.253 653.51,31.922M658.79,31.922C658.79,38.923 653.373,44.084 646.726,44.084C640.078,44.084 634.662,38.925 634.662,31.922C634.662,24.875 640.078,19.761 646.726,19.761C653.373,19.763 658.79,24.875 658.79,31.922M679.829,31.922C679.829,27.547 676.688,24.553 673.046,24.553C669.404,24.553 666.262,27.547 666.262,31.922C666.262,36.252 669.402,39.292 673.046,39.292C676.686,39.292 679.829,36.253 679.829,31.922M685.108,31.922C685.108,38.923 679.692,44.084 673.044,44.084C666.397,44.084 660.98,38.925 660.98,31.922C660.98,24.875 666.397,19.761 673.044,19.761C679.692,19.763 685.108,24.875 685.108,31.922M615.428,28.714L615.428,23.554L632.499,23.554C632.674,24.463 632.775,25.546 632.775,26.717C632.775,30.586 631.727,35.377 628.359,38.785C625.082,42.24 620.892,44.082 615.339,44.082C605.049,44.084 596.4,35.607 596.4,25.197C596.4,14.788 605.049,6.311 615.339,6.311C621.029,6.311 625.082,8.568 628.132,11.517L624.536,15.155C622.351,13.082 619.391,11.47 615.34,11.47C607.829,11.47 601.955,17.597 601.955,25.197C601.955,32.797 607.829,38.923 615.34,38.923C620.211,38.923 622.989,36.942 624.764,35.147C626.211,33.684 627.163,31.584 627.532,28.713L615.428,28.714Z"/>
                    </g>
                </g>
            </g>
        </g>
    </g>
</svg>
