<?xml version="1.0" encoding="UTF-8"?>
<svg width="184.507258px" height="43.3013717px" viewBox="0 0 184.507258 43.3013717" version="1.1" xmlns="http://www.w3.org/2000/svg" xmlns:xlink="http://www.w3.org/1999/xlink">
    <title>Combined Shape</title>
    <g id="Page-1" stroke="none" stroke-width="1" fill="none" fill-rule="evenodd">
        <path d="M62.7355734,33.582271 L62.7355734,23.6262186 L54.0769736,23.6262186 L54.0769736,33.582271 L49.5901101,33.582271 L49.5901101,9.95621473 L54.0769736,9.95621473 L54.0769736,19.6752459 L62.7355734,19.6752459 L62.7355734,9.95621473 L67.2222058,9.95621473 L67.2222058,33.582271 L62.7355734,33.582271 Z M79.1869362,27.0238557 L76.0384384,27.0238557 C74.621522,27.0238557 74.2278443,27.4190457 74.2278443,28.7623208 C74.2278443,29.9474271 74.621522,30.500554 75.9596567,30.500554 C77.2190096,30.500554 78.3998117,30.1055959 79.1869362,29.6313214 L79.1869362,27.0238557 Z M83.5162361,33.5822942 L79.9740606,33.5822942 L79.6591646,32.396956 C78.0849157,33.4243573 76.2745526,33.8983998 74.5427403,33.8983998 C71.3942425,33.8983998 70.0561079,31.7649766 70.0561079,28.7623208 C70.0561079,25.2853906 71.551575,23.9421155 75.0937505,23.9421155 L79.1869362,23.9421155 L79.1869362,22.1247979 C79.1869362,20.228396 78.635926,19.5173322 75.8808749,19.5173322 C74.306626,19.5173322 72.6535954,19.7543534 71.0793465,20.0704591 L70.5283363,16.7516977 C72.181367,16.2774232 74.5427403,15.9615495 76.4318851,15.9615495 C81.8632055,15.9615495 83.4374543,17.8579515 83.4374543,22.2038823 L83.5162361,33.5822942 Z M91.8600092,33.8983302 C90.0496461,33.8983302 87.5307093,33.5031402 85.9564604,32.8711608 L86.5860214,29.5523994 C88.0029378,29.9475894 89.9708644,30.2634632 91.7026768,30.2634632 C93.5918216,30.2634632 93.9067176,29.868505 93.9067176,28.52523 C93.9067176,27.4980606 93.6703723,26.9449336 90.9153213,26.233638 C86.7435849,25.2064685 86.1925747,24.1792991 86.1925747,20.7814533 C86.1925747,17.304755 87.6880418,15.8033111 92.6471337,15.8033111 C94.2213825,15.8033111 96.3466416,16.0405643 97.763558,16.4355224 L97.3701113,19.9122207 C96.0319767,19.6751995 93.9852683,19.4381782 92.6471337,19.4381782 C90.7579888,19.4381782 90.4430928,19.8333683 90.4430928,20.9396221 C90.4430928,22.2828971 90.5218746,22.440834 92.8832479,22.9939609 C97.6850073,24.2581516 98.1572358,24.8903629 98.1572358,28.4461456 C98.078454,31.8439914 97.0552153,33.8983302 91.8600092,33.8983302 M110.830263,33.582271 L110.830263,21.4925634 C110.830263,20.5444784 110.436816,20.1492884 109.492128,20.1492884 C108.468889,20.1492884 106.579744,20.7814997 105.005265,21.5716478 L105.005265,33.582271 L100.675965,33.582271 L100.675965,9.24491904 L105.005265,8.61293966 L105.005265,17.5418226 C106.894409,16.5146532 109.492128,15.8824419 111.302491,15.8824419 C114.136324,15.8824419 115.159563,17.9367808 115.159563,21.0185209 L115.159563,33.582271 L110.830263,33.582271 Z M118.386796,33.5822246 L122.716096,33.5822246 L122.716096,16.2775856 L118.386796,16.2775856 L118.386796,33.5822246 Z M118.386796,13.8280567 L122.716096,13.8280567 L122.716096,8.84991453 L118.386796,8.84991453 L118.386796,13.8280567 Z M125.628641,16.4355456 C125.628641,12.0896148 128.147578,9.5610015 133.972345,9.5610015 C136.176386,9.5610015 138.459208,9.87710715 140.348353,10.3511497 L139.875894,14.223038 C137.986749,13.9069324 135.782939,13.5908267 134.129908,13.5908267 C131.059961,13.5908267 130.036723,14.618228 130.036723,17.1466094 L130.036723,26.2336611 C130.036723,28.7622744 131.059961,29.7894438 134.129908,29.7894438 C135.782939,29.7894438 137.986749,29.5524226 139.875894,29.1572325 L140.348353,33.0291209 C138.380426,33.5031634 136.176386,33.819269 133.972345,33.819269 C128.147578,33.819269 125.628641,31.2906558 125.628641,26.9447249 L125.628641,16.4355456 Z M149.243044,19.6752459 C146.960452,19.6752459 146.094546,20.7024153 146.094546,22.6779016 L146.094546,27.2608538 C146.094546,29.2363401 146.960452,30.2635095 149.243044,30.2635095 C151.525867,30.2635095 152.391542,29.2363401 152.391542,27.2608538 L152.391542,22.5988173 C152.391542,20.7024153 151.525867,19.6752459 149.243044,19.6752459 M149.243044,33.8983766 C143.339495,33.8983766 141.765246,30.6586996 141.765246,27.1029169 L141.765246,22.756986 C141.765246,19.2012033 143.339495,15.9615263 149.243044,15.9615263 C155.146593,15.9615263 156.720842,19.2012033 156.720842,22.756986 L156.720842,27.1029169 C156.720842,30.6586996 155.146593,33.8983766 149.243044,33.8983766 M168.134585,19.9123135 C166.481554,20.6233773 165.14342,21.4135254 163.569171,22.4409268 L163.569171,33.5823174 L159.239871,33.5823174 L159.239871,16.2774464 L162.860597,16.2774464 L163.175493,18.1738484 C164.120181,17.541869 166.166658,16.3565308 167.662357,15.8824883 L168.134585,19.9123135 Z M174.195628,29.7894438 C175.297648,30.0264651 176.793116,30.2634864 177.973918,30.2634864 C179.548167,30.2634864 180.099177,29.5524226 180.099177,27.9721263 L180.099177,21.8877303 C180.099177,20.4653708 179.548167,19.6752227 177.973918,19.6752227 C176.557001,19.6752227 175.061534,20.3865184 174.116846,21.255519 L174.195628,29.7894438 Z M184.507258,27.8139575 C184.507258,31.6067614 182.775446,33.8983534 178.839824,33.8983534 C177.344126,33.8983534 175.612544,33.6613322 174.27441,33.4243109 L174.27441,40.5358763 L169.94511,41.1678557 L169.94511,16.2776088 L173.408504,16.2776088 L173.80195,17.6997363 C175.297648,16.5937144 177.108011,15.8824187 179.233271,15.8824187 C182.696895,15.8824187 184.507258,17.9369895 184.507258,21.8877303 L184.507258,27.8139575 Z M23.7717818,0 L30.147559,3.71371956 L30.147559,27.8140502 L23.7717818,31.4486854 L23.7717818,24.4952888 L17.0023268,24.4952888 L17.0023268,43.3013717 L10.6263185,39.5876521 L10.6263185,15.4873214 L17.0023268,11.7736019 L17.0023268,18.8060829 L23.7717818,18.8060829 L23.7717818,0 Z M34.3983082,6.16324844 L40.7740854,9.79811552 L40.7740854,33.4241718 L23.7717818,43.3013717 L23.7717818,35.8737007 L34.3983082,29.7104522 L34.3983082,6.16324844 Z M17.0023037,0 L17.0023037,7.34858664 L6.37577724,13.5118351 L6.37577724,37.1381232 L0,33.4241718 L0,9.79811552 L17.0023037,0 Z" id="Combined-Shape" fill="#000000"></path>
    </g>
</svg>