<?xml version="1.0" encoding="UTF-8" standalone="no"?>
<!DOCTYPE svg PUBLIC "-//W3C//DTD SVG 1.1//EN" "http://www.w3.org/Graphics/SVG/1.1/DTD/svg11.dtd">
<svg width="100%" height="100%" viewBox="0 0 56 100" version="1.1" xmlns="http://www.w3.org/2000/svg" xmlns:xlink="http://www.w3.org/1999/xlink" xml:space="preserve" xmlns:serif="http://www.serif.com/" style="fill-rule:evenodd;clip-rule:evenodd;stroke-linejoin:round;stroke-miterlimit:2;">
    <g transform="matrix(1,0,0,1,-61.2146,-6.04102)">
        <rect x="98.271" y="6.041" width="18.528" height="75.199" style="fill-rule:nonzero;"/>
        <rect x="61.215" y="6.041" width="18.528" height="75.199" style="fill-rule:nonzero;"/>
        <rect x="85.919" y="31.104" width="6.176" height="25.062" style="fill-rule:nonzero;"/>
        <path d="M71.311,90.443L71.311,102.768L69.578,102.768L69.578,97.17L63.099,97.17L63.099,102.768L61.366,102.768L61.366,90.443L63.099,90.443L63.099,95.67L69.578,95.67L69.578,90.443L71.311,90.443Z" style="fill-rule:nonzero;"/>
        <g>
            <path d="M74.708,97.389L79.977,97.389C79.935,96.096 79.055,94.803 77.391,94.803C75.823,94.789 74.777,95.725 74.708,97.389ZM73.016,98.201C73.016,95.312 74.86,93.455 77.404,93.455C80.224,93.455 81.834,95.807 81.627,98.682L74.708,98.682C74.708,100.498 75.933,101.612 77.432,101.612C78.862,101.612 79.523,101.007 79.908,100.099L81.517,100.099C81.077,101.681 79.743,102.974 77.473,102.974C74.516,102.974 73.016,100.91 73.016,98.201Z" style="fill-rule:nonzero;"/>
        </g>
        <rect x="83.25" y="90.443" width="1.554" height="12.325" style="fill-rule:nonzero;"/>
        <g>
            <path d="M92.343,96.289C92.095,95.202 91.256,94.775 90.114,94.775C89.138,94.775 88.134,95.106 88.134,95.931C88.134,96.66 88.643,96.963 89.592,97.169L90.885,97.43C92.604,97.774 94.076,98.393 94.076,100.154C94.076,101.956 92.439,103.001 90.293,103.001C87.831,103.001 86.469,101.419 86.304,99.824L87.941,99.824C88.189,100.993 88.918,101.694 90.348,101.694C91.586,101.694 92.549,101.185 92.549,100.333C92.549,99.411 91.682,99.026 90.637,98.82L89.275,98.544C87.969,98.269 86.607,97.705 86.607,96.013C86.607,94.39 88.244,93.469 90.334,93.469C92.37,93.469 93.718,94.569 94.007,96.316L92.343,96.289Z" style="fill-rule:nonzero;"/>
        </g>
        <path d="M97.336,102.768L95.781,102.768L95.781,93.621L97.336,93.621L97.336,102.768ZM97.336,92.314L95.781,92.314L95.781,90.443L97.336,90.443L97.336,92.314Z" style="fill-rule:nonzero;"/>
        <g>
            <path d="M101.132,94.996C101.655,94.129 102.549,93.455 104.089,93.455C106.304,93.455 107.102,94.886 107.102,96.976L107.102,102.767L105.548,102.767L105.548,97.444C105.548,96.027 105.3,94.817 103.539,94.817C102.04,94.817 101.132,95.849 101.132,97.816L101.132,102.781L99.592,102.781L99.592,93.634L101.146,93.634L101.146,94.996L101.132,94.996Z" style="fill-rule:nonzero;"/>
        </g>
        <g>
            <path d="M112.769,94.789C111.118,94.789 110.293,95.959 110.293,98.036C110.293,100.126 111.132,101.296 112.769,101.296C114.144,101.296 115.355,100.36 115.355,98.036C115.369,95.725 114.158,94.789 112.769,94.789ZM115.3,93.62L116.854,93.62L116.854,101.529C116.854,103.4 116.51,104.157 115.988,104.734C115.327,105.505 114.186,105.931 112.838,105.931C110.761,105.931 109.371,104.968 109.069,103.125L110.719,103.125C110.926,103.95 111.421,104.569 112.851,104.569C113.691,104.569 114.31,104.322 114.722,103.895C115.066,103.524 115.314,103.111 115.314,101.873L115.314,101.007C114.75,101.983 113.869,102.589 112.398,102.589C110.238,102.589 108.629,100.952 108.629,98.022C108.629,95.092 110.252,93.455 112.398,93.455C113.856,93.455 114.75,94.088 115.314,95.064L115.314,93.62L115.3,93.62Z" style="fill-rule:nonzero;"/>
        </g>
    </g>
</svg>
