<?xml version="1.0" encoding="UTF-8" standalone="no"?>
<!DOCTYPE svg PUBLIC "-//W3C//DTD SVG 1.1//EN" "http://www.w3.org/Graphics/SVG/1.1/DTD/svg11.dtd">
<svg viewBox="0 0 114 48" version="1.1" xmlns="http://www.w3.org/2000/svg" xmlns:xlink="http://www.w3.org/1999/xlink" xml:space="preserve" xmlns:serif="http://www.serif.com/" style="fill-rule:evenodd;clip-rule:evenodd;stroke-linejoin:round;stroke-miterlimit:2;">
    <g transform="matrix(1,0,0,1,5.32624e-06,-20.0002)">
        <g>
            <path d="M16.197,20.02C19.25,20.019 22.297,20.23 25.337,20.477C25.568,20.507 25.871,20.453 26.022,20.677C26.918,21.765 27.742,22.925 28.362,24.196C29.209,26.004 29.609,27.982 29.951,29.939C30.759,29.927 31.566,29.927 32.374,29.939C32.63,30.211 32.64,30.659 32.728,31.013C32.565,31.912 31.658,32.389 31.084,32.985C31.353,33.847 31.709,34.678 32.01,35.529C32.107,35.789 32.084,36.069 32.086,36.341C32.102,40.187 32.135,44.031 32.116,47.877C32.129,48.274 32.037,48.722 31.696,48.969C31.323,49.261 30.824,49.273 30.372,49.269C29.675,49.252 28.976,49.299 28.282,49.229C27.81,49.192 27.317,49.239 26.868,49.064C26.538,48.884 26.332,48.534 26.22,48.184C26.156,47.571 26.228,46.95 26.185,46.333C20.615,46.343 15.046,46.333 9.477,46.338C8.507,46.348 7.537,46.314 6.569,46.355C6.619,47.059 6.64,47.795 6.384,48.465C6.268,48.782 5.985,49.031 5.642,49.065C4.432,49.251 3.195,49.238 1.984,49.079C1.331,49.019 0.762,48.509 0.584,47.889C0.507,43.694 0.485,39.498 0.52,35.303C0.546,34.977 0.503,34.599 0.73,34.332C1.098,33.89 1.703,33.609 1.834,33.002C1.744,32.265 0.976,31.944 0.53,31.442C-0.065,30.969 -0.038,30.132 0.043,29.449C0.913,29.453 1.783,29.467 2.651,29.445C2.82,29.177 2.825,28.832 2.926,28.535C3.495,26.505 4.068,24.435 5.198,22.634C5.648,21.913 6.112,21.19 6.679,20.554C7.513,20.4 8.381,20.399 9.227,20.304C11.547,20.141 13.87,20 16.197,20.02ZM9.712,41.6C9.44,41.813 9.568,42.26 9.891,42.336C11.29,42.506 12.694,42.639 14.102,42.695C16.972,42.875 19.854,42.695 22.706,42.355C23.016,42.362 23.301,41.999 23.109,41.719C23.009,41.475 22.715,41.515 22.504,41.531C20.692,41.761 18.867,41.901 17.04,41.886C16.587,41.938 16.13,41.938 15.677,41.886C13.847,41.899 12.021,41.746 10.206,41.529C10.044,41.531 9.842,41.476 9.712,41.602L9.712,41.6ZM24.932,34.68C23.669,34.934 22.734,36.24 22.927,37.513C23.043,38.447 23.716,39.29 24.608,39.598C25.208,39.833 25.863,39.731 26.491,39.752C27.049,39.734 27.628,39.817 28.167,39.637C29.041,39.374 29.746,38.604 29.918,37.707C30.1,36.844 29.82,35.945 29.178,35.34C28.67,34.83 27.938,34.583 27.224,34.624C26.461,34.652 25.688,34.564 24.932,34.682L24.932,34.68ZM4.476,34.72C3.556,34.982 2.855,35.737 2.662,36.674C2.422,37.754 2.98,38.947 3.968,39.449C4.852,39.936 5.892,39.693 6.851,39.754C7.853,39.837 8.886,39.314 9.358,38.42C9.879,37.49 9.736,36.233 8.999,35.458C8.466,34.862 7.649,34.568 6.856,34.623C6.064,34.665 5.253,34.533 4.476,34.722L4.476,34.72ZM11.625,21.85C10.402,21.948 9.148,21.968 7.959,22.267C6.68,23.987 5.461,25.847 4.981,27.964C4.874,28.373 4.905,28.957 5.314,29.174C12.514,29.199 19.714,29.174 26.914,29.184C27.169,29.199 27.527,29.18 27.608,28.883C27.665,28.311 27.521,27.743 27.363,27.199C26.811,25.444 25.817,23.866 24.696,22.419C24.606,22.331 24.536,22.174 24.386,22.182C20.148,21.736 15.881,21.625 11.625,21.85Z" style="fill-rule:nonzero;"/>
            <path d="M46.88,20.528C49.454,20.242 52.045,20.098 54.635,20.018C58.352,19.933 62.068,20.174 65.77,20.484C65.916,20.506 66.094,20.488 66.188,20.629C67.166,21.789 68.042,23.049 68.683,24.429C69.457,26.177 69.816,28.067 70.171,29.932C70.98,29.919 71.788,29.919 72.597,29.932C72.816,30.216 72.857,30.646 72.932,31.002C72.818,31.732 72.179,32.225 71.642,32.666C71.521,32.791 71.209,32.876 71.334,33.102C71.594,33.906 71.91,34.69 72.205,35.48C72.26,35.624 72.285,35.776 72.286,35.929C72.301,39.945 72.354,43.961 72.321,47.977C72.333,48.37 72.193,48.792 71.849,49.014C71.426,49.319 70.882,49.277 70.389,49.274C69.367,49.264 68.338,49.316 67.324,49.154C66.801,49.086 66.484,48.562 66.384,48.089C66.354,47.509 66.384,46.924 66.369,46.343C59.841,46.347 53.313,46.348 46.786,46.342C46.815,47.069 46.858,47.834 46.568,48.519C46.452,48.815 46.186,49.026 45.872,49.072C44.915,49.237 43.935,49.23 42.968,49.179C42.392,49.123 41.742,49.125 41.291,48.709C40.975,48.414 40.706,48.006 40.736,47.556C40.716,43.362 40.645,39.168 40.717,34.974C40.66,34.354 41.247,34.018 41.63,33.641C41.91,33.395 42.125,32.968 41.9,32.617C41.482,31.964 40.692,31.639 40.323,30.947C40.143,30.465 40.168,29.931 40.225,29.427C41.108,29.423 41.99,29.429 42.872,29.426C43.52,27.02 44.136,24.54 45.505,22.422C45.93,21.769 46.352,21.102 46.88,20.528ZM49.84,41.938C49.594,42.102 49.64,42.518 49.918,42.618C50.75,42.944 51.639,43.096 52.518,43.23C54.933,43.546 57.377,43.577 59.799,43.32C60.892,43.188 61.998,43.025 63.029,42.623C63.453,42.49 63.271,41.767 62.829,41.868C60.803,42.536 58.651,42.67 56.532,42.688C54.582,42.672 52.61,42.558 50.72,42.043C50.436,41.992 50.116,41.745 49.84,41.939L49.84,41.938ZM64.865,34.732C63.851,34.998 63.061,35.94 62.997,36.986C62.925,37.889 63.342,38.766 64.087,39.281C64.601,39.651 65.249,39.77 65.873,39.735C66.605,39.703 67.349,39.805 68.074,39.662C69.044,39.432 69.83,38.589 69.981,37.605C70.123,36.739 69.809,35.859 69.151,35.278C68.633,34.814 67.925,34.6 67.236,34.642C66.446,34.681 65.641,34.558 64.865,34.732ZM44.684,34.702C43.508,34.944 42.612,36.099 42.694,37.298C42.716,38.302 43.41,39.243 44.357,39.577C44.854,39.78 45.399,39.729 45.923,39.734C46.411,39.727 46.902,39.75 47.39,39.723C48.371,39.653 49.266,38.948 49.575,38.019C49.867,37.177 49.695,36.241 49.122,35.558C48.608,34.928 47.784,34.595 46.976,34.641C46.213,34.671 45.44,34.581 44.684,34.701L44.684,34.702ZM48.179,22.25C46.95,23.927 45.763,25.709 45.242,27.747C45.112,28.225 45.063,28.821 45.488,29.173C52.738,29.16 59.991,29.173 67.241,29.167C67.475,29.181 67.793,29.08 67.801,28.799C67.824,28.267 67.69,27.742 67.546,27.234C66.976,25.377 65.901,23.723 64.702,22.212C61.429,21.874 58.139,21.707 54.849,21.767C52.621,21.821 50.379,21.864 48.179,22.25Z" style="fill-rule:nonzero;"/>
            <path d="M87.198,20.488C91.278,20.106 95.382,19.877 99.48,20.07C101.714,20.17 103.954,20.287 106.176,20.535C107.168,21.655 108.009,22.9 108.676,24.239C109.497,26.035 109.91,27.986 110.23,29.925C111.059,29.933 111.887,29.905 112.716,29.937C112.88,30.414 113.174,30.987 112.864,31.471C112.506,32.081 111.93,32.523 111.367,32.933C111.574,33.653 111.865,34.346 112.123,35.05C112.223,35.338 112.383,35.62 112.366,35.934C112.388,39.914 112.429,43.894 112.404,47.874C112.425,48.294 112.311,48.761 111.944,49.01C111.559,49.29 111.064,49.289 110.609,49.274C109.524,49.257 108.429,49.331 107.355,49.144C106.868,49.063 106.6,48.574 106.468,48.147C106.433,47.557 106.456,46.963 106.46,46.372C103.505,46.312 100.544,46.364 97.587,46.347C94.021,46.339 90.456,46.362 86.89,46.335C86.864,47.105 86.965,47.929 86.589,48.635C86.392,49.035 85.907,49.101 85.513,49.14C84.399,49.243 83.27,49.25 82.165,49.078C81.405,48.967 80.748,48.238 80.816,47.458C80.792,43.302 80.726,39.143 80.796,34.987C80.726,34.374 81.295,34.032 81.682,33.672C81.962,33.422 82.21,33 81.989,32.636C81.569,31.953 80.728,31.629 80.379,30.892C80.23,30.426 80.255,29.924 80.294,29.442C81.184,29.402 82.075,29.445 82.966,29.42C83.396,27.663 83.897,25.916 84.603,24.248C85.174,22.966 85.952,21.786 86.807,20.678C86.884,20.533 87.046,20.496 87.198,20.488ZM86.793,41.611C86.45,41.746 86.517,42.321 86.882,42.381C88.944,42.929 91.052,43.305 93.174,43.534C97.88,44.071 102.677,43.614 107.244,42.386C107.734,42.319 107.651,41.522 107.156,41.566C104.374,42.303 101.516,42.773 98.64,42.901C94.787,43.058 90.921,42.569 87.193,41.609C87.065,41.555 86.92,41.556 86.793,41.611ZM104.771,34.731C103.846,34.99 103.102,35.81 102.959,36.761C102.758,37.809 103.313,38.934 104.254,39.431C104.811,39.757 105.472,39.766 106.098,39.747C106.888,39.714 107.723,39.867 108.467,39.521C109.363,39.12 109.995,38.176 109.965,37.189C109.992,36.219 109.385,35.289 108.512,34.879C107.929,34.579 107.259,34.624 106.625,34.632C106.007,34.654 105.374,34.56 104.771,34.732L104.771,34.731ZM84.594,34.701C83.444,34.972 82.624,36.008 82.624,37.19C82.624,37.713 82.785,38.224 83.084,38.653C83.547,39.339 84.368,39.749 85.192,39.749C85.822,39.749 86.454,39.744 87.085,39.748C87.818,39.751 88.519,39.444 89.015,38.904C89.769,38.084 89.889,36.761 89.278,35.827C88.791,35.012 87.816,34.57 86.881,34.627C86.12,34.665 85.346,34.556 84.594,34.701ZM88.265,22.237C87.777,22.872 87.322,23.532 86.901,24.214C86.152,25.432 85.477,26.738 85.235,28.159C85.16,28.555 85.296,29.249 85.825,29.183C93.003,29.179 100.181,29.183 107.359,29.18C107.594,29.195 107.866,29.07 107.898,28.81C107.91,28.12 107.719,27.444 107.494,26.797C106.916,25.169 105.965,23.705 104.907,22.35C104.832,22.233 104.7,22.188 104.57,22.178C101.309,21.853 98.03,21.691 94.753,21.757C92.587,21.827 90.404,21.855 88.265,22.237Z" style="fill-rule:nonzero;"/>
            <path d="M20.852,24.23C22.129,23.695 23.752,24.796 23.664,26.187C23.794,27.454 22.484,28.565 21.253,28.332C20.45,28.226 19.749,27.614 19.519,26.842C19.192,25.792 19.8,24.572 20.852,24.229M61.29,24.239C62.122,23.892 63.144,24.205 63.699,24.899C64.297,25.627 64.326,26.744 63.75,27.494C63.208,28.254 62.13,28.568 61.264,28.213C60.274,27.856 59.654,26.672 59.982,25.665C60.162,25.006 60.649,24.475 61.29,24.24M102.235,24.23C103.509,23.693 105.138,24.789 105.054,26.18C105.187,27.45 103.876,28.566 102.642,28.332C101.84,28.226 101.141,27.614 100.909,26.844C100.582,25.794 101.187,24.579 102.235,24.231M55.727,24.77C56.625,24.483 57.653,25.254 57.633,26.193C57.693,27.067 56.855,27.828 55.998,27.75C55.448,27.682 54.932,27.334 54.722,26.813C54.382,26 54.856,24.981 55.727,24.77M89.968,24.764C90.742,24.536 91.629,25.074 91.808,25.854C91.848,26.226 91.869,26.634 91.668,26.966C91.409,27.443 90.879,27.731 90.346,27.762C89.808,27.735 89.274,27.446 89.014,26.966C88.81,26.634 88.827,26.226 88.874,25.855C88.998,25.325 89.446,24.899 89.968,24.764M96.158,24.753C97.088,24.502 98.091,25.335 98.018,26.293C98.014,27.228 96.983,27.993 96.089,27.685C95.302,27.481 94.761,26.555 95.056,25.781C95.206,25.274 95.646,24.878 96.158,24.753" style="fill-rule:nonzero;"/>
            <path d="M56.37,54.65C57.072,54.393 57.947,54.973 57.878,55.74C57.933,56.212 57.596,56.634 57.182,56.82C56.731,56.946 56.171,56.9 55.87,56.497C55.326,55.926 55.62,54.879 56.37,54.649" style="fill-rule:nonzero;"/>
            <path d="M87.1,54.617C87.794,54.376 88.656,54.871 88.67,55.63C88.788,56.333 88.116,57.018 87.41,56.923C86.716,56.918 86.173,56.191 86.328,55.523C86.382,55.108 86.719,54.763 87.101,54.617" style="fill-rule:nonzero;"/>
            <path d="M39.524,54.813C41.18,54.343 42.961,54.676 44.507,55.362C44.498,56.002 44.5,56.642 44.507,57.285C43.401,56.801 42.229,56.292 40.992,56.414C40.582,56.456 40.105,56.594 39.911,56.994C39.761,57.414 40.1,57.78 40.447,57.961C41.771,58.641 43.418,58.859 44.402,60.079C44.965,60.785 45.068,61.774 44.828,62.624C44.598,63.443 43.923,64.074 43.151,64.394C42.113,64.839 40.951,64.804 39.851,64.674C39.038,64.515 38.258,64.217 37.545,63.794C37.565,63.097 37.553,62.399 37.55,61.702C38.606,62.388 39.785,63.035 41.085,62.982C41.587,62.937 42.26,62.807 42.397,62.235C42.513,61.785 42.173,61.402 41.795,61.22C40.629,60.619 39.238,60.427 38.24,59.523C37.406,58.807 37.142,57.566 37.496,56.546C37.803,55.659 38.643,55.054 39.524,54.813" style="fill-rule:nonzero;"/>
            <path d="M7.607,54.709C8.437,54.707 9.266,54.708 10.097,54.708C10.099,56.037 10.093,57.366 10.099,58.695C11.751,58.699 13.402,58.695 15.054,58.695C15.06,57.365 15.05,56.035 15.058,54.705C15.888,54.711 16.717,54.705 17.547,54.709C17.547,58.022 17.545,61.333 17.547,64.646C16.717,64.659 15.887,64.652 15.056,64.649C15.054,63.311 15.059,61.973 15.052,60.634C13.402,60.627 11.751,60.631 10.1,60.632C10.093,61.97 10.099,63.309 10.098,64.648C9.266,64.653 8.434,64.661 7.602,64.643C7.611,61.331 7.602,58.02 7.607,54.709" style="fill-rule:nonzero;"/>
            <path d="M46.787,54.72C47.484,54.728 48.179,54.73 48.875,54.72C48.916,56.884 48.876,59.05 48.895,61.216C48.997,61.148 49.087,61.065 49.164,60.97C49.94,59.96 50.744,58.973 51.518,57.963C52.345,57.951 53.174,57.968 54.002,57.953C53.123,59.052 52.242,60.147 51.386,61.263C52.3,62.385 53.204,63.513 54.118,64.633C53.251,64.613 52.384,64.633 51.518,64.622C50.819,63.709 50.097,62.815 49.387,61.912C49.234,61.722 49.107,61.502 48.891,61.376C48.886,62.461 48.904,63.546 48.884,64.629C48.184,64.623 47.484,64.625 46.784,64.629C46.799,61.326 46.793,58.024 46.787,54.721" style="fill-rule:nonzero;"/>
            <path d="M68.989,54.69L73.23,54.69C74.72,54.643 76.31,55.02 77.425,56.058C78.445,56.973 78.973,58.368 78.922,59.726C78.967,61.079 78.456,62.483 77.408,63.372C76.453,64.189 75.193,64.54 73.96,64.645C72.302,64.665 70.643,64.655 68.983,64.655C68.981,61.333 68.972,58.011 68.989,54.69ZM71.529,56.577C71.525,58.39 71.529,60.205 71.527,62.019C71.512,62.283 71.525,62.548 71.565,62.809C72.333,62.775 73.105,62.835 73.87,62.742C74.64,62.622 75.395,62.224 75.814,61.552C76.37,60.691 76.434,59.59 76.189,58.616C75.984,57.844 75.432,57.164 74.686,56.858C73.69,56.416 72.583,56.624 71.529,56.578L71.529,56.577Z" style="fill-rule:nonzero;"/>
            <path d="M22.005,57.865C23.262,57.658 24.658,57.93 25.615,58.81C26.628,59.74 26.827,61.3 26.408,62.56C26.094,63.495 25.279,64.195 24.36,64.513C23.01,64.993 21.39,64.847 20.238,63.96C18.804,62.844 18.601,60.543 19.712,59.138C20.276,58.44 21.129,58.018 22.005,57.865ZM22.321,59.141C21.686,59.363 21.391,60.054 21.318,60.675C21.239,61.417 21.25,62.227 21.638,62.891C22.074,63.656 23.302,63.745 23.852,63.061C24.25,62.565 24.325,61.901 24.335,61.286C24.335,60.67 24.265,59.999 23.862,59.505C23.497,59.063 22.844,58.963 22.321,59.141ZM30.4,58.48C30.866,58.154 31.378,57.857 31.96,57.817C33.093,57.686 34.207,58.203 34.84,59.151C35.477,60.071 35.58,61.268 35.32,62.334C35.12,63.164 34.606,63.939 33.85,64.359C32.794,64.949 31.45,64.903 30.395,64.334C30.4,65.556 30.398,66.778 30.395,68L28.271,68C28.269,64.642 28.269,61.284 28.271,57.926C28.978,57.923 29.686,57.924 30.394,57.926C30.394,58.111 30.398,58.296 30.4,58.481L30.4,58.48ZM30.396,59.844C30.403,60.877 30.39,61.912 30.403,62.944C30.873,63.253 31.446,63.462 32.011,63.319C32.662,63.198 33.119,62.596 33.232,61.969C33.352,61.301 33.327,60.559 32.966,59.964C32.696,59.508 32.15,59.274 31.632,59.306C31.162,59.31 30.756,59.572 30.396,59.844Z" style="fill-rule:nonzero;"/>
            <path d="M62.025,58.485C62.525,58.161 63.06,57.845 63.677,57.829C64.653,57.719 65.652,58.155 66.269,58.912C67.054,59.846 67.233,61.172 66.93,62.331C66.722,63.231 66.127,64.053 65.277,64.443C64.249,64.933 63.019,64.833 62.017,64.33C62.024,65.547 62.02,66.764 62.019,67.98C61.316,67.976 60.613,67.979 59.911,67.98C59.927,64.639 59.922,61.297 59.913,57.956C60.611,57.961 61.311,57.962 62.01,57.956C62.013,58.131 62.02,58.308 62.025,58.485ZM62.012,59.843C62.03,60.877 62.013,61.912 62.021,62.947C62.704,63.48 63.806,63.562 64.428,62.893C64.993,62.229 65.053,61.266 64.827,60.455C64.693,59.899 64.239,59.41 63.661,59.318C63.061,59.171 62.459,59.46 62.012,59.843Z" style="fill-rule:nonzero;"/>
            <path d="M83.583,57.907C84.303,57.569 85.081,57.947 85.648,58.404C85.437,59.038 85.245,59.678 85.042,60.316C84.556,60.03 84.009,59.683 83.421,59.862C82.667,60.168 82.374,61.006 82.081,61.697C82.005,62.677 82.067,63.67 82.047,64.655C81.327,64.659 80.607,64.655 79.889,64.657C79.876,62.411 79.875,60.165 79.887,57.919C80.606,57.917 81.327,57.912 82.047,57.922C82.061,58.552 82.012,59.185 82.085,59.812C82.361,59.048 82.846,58.295 83.583,57.907ZM99.295,58.8C100.7,57.39 103.349,57.417 104.625,58.988C105.251,59.718 105.441,60.708 105.416,61.644C103.804,61.67 102.19,61.624 100.578,61.668C100.626,62.272 100.916,62.896 101.474,63.188C102.377,63.685 103.524,63.561 104.408,63.08C104.717,62.93 104.972,62.692 105.29,62.56L105.288,63.908C104.303,64.663 103.01,64.886 101.797,64.775C100.694,64.72 99.567,64.235 98.924,63.313C98.001,61.963 98.164,59.981 99.295,58.8ZM101.532,59.162C101.11,59.312 100.814,59.695 100.696,60.117C100.68,60.23 100.526,60.515 100.752,60.495C101.655,60.468 102.577,60.538 103.47,60.461C103.464,60.081 103.279,59.711 103.016,59.441C102.632,59.059 102.028,59.01 101.532,59.161L101.532,59.162Z" style="fill-rule:nonzero;"/>
            <path d="M55.702,57.95C56.391,57.966 57.079,57.96 57.769,57.953C57.839,60.177 57.806,62.403 57.796,64.628C57.097,64.625 56.4,64.618 55.703,64.634C55.71,62.406 55.713,60.178 55.702,57.951" style="fill-rule:nonzero;"/>
            <path d="M86.427,57.92C87.14,57.914 87.853,57.917 88.567,57.918C88.572,60.164 88.569,62.41 88.569,64.655C87.855,64.658 87.141,64.658 86.427,64.655C86.423,62.411 86.422,60.165 86.427,57.92M90.091,57.92C90.863,57.924 91.636,57.896 92.407,57.935C92.797,59.021 93.234,60.092 93.65,61.17C93.694,61.3 93.696,61.44 93.74,61.57C93.845,61.54 93.846,61.378 93.903,61.297C94.321,60.169 94.793,59.062 95.198,57.93C95.969,57.902 96.741,57.918 97.514,57.922C96.51,60.218 95.444,62.487 94.432,64.78C94.022,64.805 93.597,64.85 93.195,64.77C92.33,62.97 91.537,61.132 90.696,59.319C90.504,58.849 90.243,58.406 90.091,57.919" style="fill-rule:nonzero;"/>
        </g>
    </g>
</svg>
