<?xml version="1.0" encoding="UTF-8"?>
<svg width="135.039272px" height="36.6601381px" viewBox="0 0 135.039272 36.6601381" version="1.1" xmlns="http://www.w3.org/2000/svg" xmlns:xlink="http://www.w3.org/1999/xlink">
    <title>Group 13</title>
    <g id="Page-1" stroke="none" stroke-width="1" fill="none" fill-rule="evenodd">
        <g id="Group-13" fill="#000000">
            <path d="M18.2147572,0 L24.0108763,4.2489887 L31.0947652,5.36869381 L32.207413,12.4974212 L36.4297454,18.330185 L32.207413,24.1627169 L31.0947652,31.2914443 L24.0108763,32.4111494 L18.2147572,36.6601381 L12.4188691,32.4111494 L5.33498018,31.2914443 L4.22233231,24.1627169 L0,18.330185 L4.22233231,12.4974212 L5.33498018,5.36869381 L12.4188691,4.2489887 L18.2147572,0 Z M21.4823748,8.25838184 L15.0111815,8.25838184 L15.0111815,15.195776 L8.25535739,15.195776 L8.25535739,21.7078307 L15.0111815,21.7078307 L15.0111815,28.5067692 L21.4823748,28.5067692 L21.4823748,21.7078307 L28.3761247,21.7078307 L28.3761247,15.195776 L21.4823748,15.195776 L21.4823748,8.25838184 Z M60.6678181,28.0589104 L56.2174576,28.0589104 L56.2174576,19.537973 L48.4684289,19.537973 L48.4684289,28.0589104 L44.0180685,28.0589104 L44.0180685,7.90491403 L48.4684289,7.90491403 L48.4684289,16.3291412 L56.2174576,16.3291412 L56.2174576,7.90491403 L60.6678181,7.90491403 L60.6678181,28.0589104 Z M69.8559884,25.0987885 C70.7895868,25.0987885 71.4769056,24.7504461 71.9177138,24.0544571 C72.3578288,23.3577723 72.578926,22.2995257 72.578926,20.8797174 C72.578926,19.4596771 72.3578288,18.4037497 71.9177138,17.7121672 C71.4769056,17.0205846 70.7895868,16.6745614 69.8559884,16.6745614 C68.8962834,16.6745614 68.1941785,17.0205846 67.7487497,17.7121672 C67.303552,18.4037497 67.0808376,19.4596771 67.0808376,20.8797174 C67.0808376,22.2995257 67.303552,23.3577723 67.7487497,24.0544571 C68.1941785,24.7504461 68.8962834,25.0987885 69.8559884,25.0987885 M69.8559884,13.4928641 C70.8856959,13.4928641 71.823915,13.6635565 72.6704145,14.0051733 C73.516452,14.3460942 74.2430462,14.8354434 74.849966,15.4715973 C75.4559617,16.1077513 75.927266,16.8805055 76.2631859,17.7882366 C76.5988747,18.6966635 76.7672967,19.7180349 76.7672967,20.8516552 C76.7672967,21.9954799 76.5988747,23.0256642 76.2631859,23.9438317 C75.927266,24.8610715 75.4559617,25.6405514 74.849966,26.2811118 C74.2430462,26.9223679 73.516452,27.4154278 72.6704145,27.761451 C71.823915,28.1067785 70.8856959,28.2795581 69.8559884,28.2795581 C68.8172706,28.2795581 67.8730447,28.1067785 67.0221556,27.761451 C66.1717285,27.4154278 65.4384344,26.9223679 64.8234285,26.2811118 C64.2084225,25.6405514 63.7324976,24.8610715 63.3968087,23.9438317 C63.0608889,23.0256642 62.8926979,21.9954799 62.8926979,20.8516552 C62.8926979,19.7180349 63.0608889,18.6966635 63.3968087,17.7882366 C63.7324976,16.8805055 64.2084225,16.1077513 64.8234285,15.4715973 C65.4384344,14.8354434 66.1717285,14.3460942 67.0221556,14.0051733 C67.8730447,13.6635565 68.8172706,13.4928641 69.8559884,13.4928641 M83.7566475,28.2795813 C83.1104523,28.2795813 82.5414216,28.1807838 82.0486314,27.9829569 C81.554917,27.7844342 81.1409085,27.5031164 80.8052196,27.1385397 C80.4686067,26.7748906 80.21401,26.3342444 80.038888,25.8175288 C79.8646903,25.3017409 79.7775914,24.7254221 79.7775914,24.0892681 L79.7775914,16.6745846 L78.6256682,16.6745846 C78.4156605,16.6745846 78.2370731,16.6029216 78.0889819,16.4605233 C77.9399666,16.3171973 77.8662675,16.1077744 77.8662675,15.8308631 L77.8662675,14.1571034 L80.0261813,13.71437 L80.8243953,10.2147117 C80.9295146,9.77197825 81.225697,9.55119132 81.7143287,9.55119132 L83.8347361,9.55119132 L83.8347361,13.7424322 L87.1334044,13.7424322 L87.1334044,16.6745846 L83.8347361,16.6745846 L83.8347361,23.7984417 C83.8347361,24.1305497 83.9114386,24.4042142 84.0641505,24.6212904 C84.2168623,24.8383666 84.4372664,24.9459771 84.7246696,24.9459771 C84.8734539,24.9459771 84.9979799,24.9304385 85.0975545,24.8979698 C85.1982843,24.8655012 85.2853832,24.828626 85.3597753,24.7873444 C85.4341675,24.7460629 85.5034769,24.7091877 85.5688588,24.6767191 C85.6344718,24.6442504 85.7111743,24.6280161 85.7982732,24.6280161 C85.9204888,24.6280161 86.0186772,24.6581655 86.0930694,24.7180007 C86.1667685,24.7785315 86.2434709,24.8729226 86.3217906,25.0014057 L87.5524956,27.0353357 C87.028285,27.4500069 86.4393857,27.7614742 85.7848733,27.9688098 C85.1310541,28.1763774 84.4543627,28.2795813 83.7566475,28.2795813 M102.238731,17.9748619 C102.238731,16.9792334 102.115822,16.0796195 101.871622,15.2774115 C101.627422,14.4752036 101.276023,13.7954489 100.818118,13.2376836 C100.360214,12.6796864 99.7995003,12.2508681 99.1359777,11.9505329 C98.4726862,11.6515893 97.7176752,11.5010738 96.8718687,11.5010738 L93.9135099,11.5010738 L93.9135099,24.462565 L96.8718687,24.462565 C97.7176752,24.462565 98.4726862,24.3120496 99.1359777,24.0124102 C99.7995003,23.7127708 100.360214,23.2839525 100.818118,22.7261872 C101.276023,22.16819 101.627422,21.4884353 101.871622,20.6862273 C102.115822,19.8840194 102.238731,18.979999 102.238731,17.9748619 M106.76718,17.9748619 C106.76718,19.432473 106.528987,20.7762119 106.053986,22.0072382 C105.578292,23.2382644 104.908763,24.3032366 104.044243,25.2021548 C103.180647,26.101073 102.139619,26.8021643 100.923007,27.3047328 C99.7057015,27.8073014 98.3550912,28.0589336 96.8718687,28.0589336 L89.4631495,28.0589336 L89.4631495,7.9047053 L96.8718687,7.9047053 C98.3550912,7.9047053 99.7057015,8.15865665 100.923007,8.66563167 C102.139619,9.17260668 103.180647,9.87369794 104.044243,10.7682097 C104.908763,11.6627214 105.578292,12.7253744 106.053986,13.9564007 C106.528987,15.1874269 106.76718,16.5276871 106.76718,17.9748619 M114.93463,25.0987885 C115.867536,25.0987885 116.554854,24.7504461 116.995663,24.0544571 C117.436471,23.3577723 117.656875,22.2995257 117.656875,20.8797174 C117.656875,19.4596771 117.436471,18.4037497 116.995663,17.7121672 C116.554854,17.0205846 115.867536,16.6745614 114.93463,16.6745614 C113.974001,16.6745614 113.271896,17.0205846 112.826699,17.7121672 C112.382194,18.4037497 112.159479,19.4596771 112.159479,20.8797174 C112.159479,22.2995257 112.382194,23.3577723 112.826699,24.0544571 C113.271896,24.7504461 113.974001,25.0987885 114.93463,25.0987885 M114.93463,13.4928641 C115.963645,13.4928641 116.901864,13.6635565 117.748363,14.0051733 C118.595094,14.3460942 119.320995,14.8354434 119.927915,15.4715973 C120.534604,16.1077513 121.005908,16.8805055 121.341828,17.7882366 C121.677517,18.6966635 121.845939,19.7180349 121.845939,20.8516552 C121.845939,21.9954799 121.677517,23.0256642 121.341828,23.9438317 C121.005908,24.8610715 120.534604,25.6405514 119.927915,26.2811118 C119.320995,26.9223679 118.595094,27.4154278 117.748363,27.761451 C116.901864,28.1067785 115.963645,28.2795581 114.93463,28.2795581 C113.895912,28.2795581 112.951687,28.1067785 112.100797,27.761451 C111.249677,27.4154278 110.517076,26.9223679 109.90207,26.2811118 C109.28614,25.6405514 108.810446,24.8610715 108.474526,23.9438317 C108.138838,23.0256642 107.97134,21.9954799 107.97134,20.8516552 C107.97134,19.7180349 108.138838,18.6966635 108.474526,17.7882366 C108.810446,16.8805055 109.28614,16.1077513 109.90207,15.4715973 C110.517076,14.8354434 111.249677,14.3460942 112.100797,14.0051733 C112.951687,13.6635565 113.895912,13.4928641 114.93463,13.4928641 M133.861242,17.1172948 C133.738333,17.2745359 133.620738,17.3983807 133.507532,17.4906845 C133.394327,17.5829883 133.232836,17.6286763 133.023521,17.6286763 C132.822524,17.6286763 132.641626,17.5785818 132.480135,17.4767693 C132.318413,17.3756526 132.137515,17.2627081 131.937211,17.1379356 C131.736214,17.0140909 131.500099,16.9011463 131.229793,16.7993338 C130.959486,16.6972895 130.623104,16.6471949 130.222495,16.6471949 C129.724391,16.6471949 129.294672,16.7439052 128.932877,16.9373257 C128.570158,17.13121 128.271665,17.4081213 128.036244,17.7673639 C127.80036,18.1268384 127.626163,18.5674846 127.512957,19.0886067 C127.399059,19.6094968 127.342456,20.1969477 127.342456,20.8516552 C127.342456,22.2257755 127.593356,23.2819348 128.095157,24.0199012 C128.596957,24.7571718 129.287973,25.126155 130.169589,25.126155 C130.640893,25.126155 131.014009,25.0640007 131.288706,24.9394601 C131.563402,24.8153835 131.797206,24.6766959 131.989424,24.524557 C132.180718,24.37265 132.35792,24.2316432 132.519411,24.1024643 C132.681133,23.9732854 132.883516,23.9090439 133.127717,23.9090439 C133.45093,23.9090439 133.69513,24.0338163 133.861242,24.2826654 L135.039272,25.8175056 C134.619949,26.3254083 134.179141,26.7379923 133.716847,27.0559533 C133.254322,27.3741462 132.780938,27.6227634 132.296927,27.8027326 C131.812916,27.9829337 131.325902,28.1067785 130.837501,28.1763542 C130.348176,28.245698 129.873175,28.2795581 129.410881,28.2795581 C128.581478,28.2795581 127.789271,28.1141999 127.034953,27.7820918 C126.279942,27.4499837 125.617112,26.968056 125.045309,26.3363085 C124.473506,25.704793 124.019992,24.928328 123.684303,24.0057541 C123.34769,23.0841078 123.180192,22.032355 123.180192,20.8516552 C123.180192,19.8191516 123.326204,18.8529769 123.61869,17.9542906 C123.911407,17.0553724 124.342512,16.2758926 124.914315,15.6160829 C125.486118,14.9572009 126.192843,14.438398 127.034953,14.0606019 C127.877063,13.6825739 128.852478,13.4928641 129.960274,13.4928641 C131.025099,13.4928641 131.958928,13.6730652 132.761532,14.0325397 C133.564135,14.3924781 134.28865,14.9180066 134.934152,15.6095892 L133.861242,17.1172948 Z" id="Combined-Shape"></path>
        </g>
    </g>
</svg>