<?xml version="1.0" encoding="UTF-8" standalone="no"?>
<!DOCTYPE svg PUBLIC "-//W3C//DTD SVG 1.1//EN" "http://www.w3.org/Graphics/SVG/1.1/DTD/svg11.dtd">
<svg viewBox="0 0 105 26" version="1.1" xmlns="http://www.w3.org/2000/svg" xmlns:xlink="http://www.w3.org/1999/xlink" xml:space="preserve" xmlns:serif="http://www.serif.com/" style="fill-rule:evenodd;clip-rule:evenodd;stroke-linejoin:round;stroke-miterlimit:2;">
    <g transform="matrix(1,0,0,1,-7.50204,-17.401)">
        <path d="M48.125,35.317L45.675,35.317L45.675,24.564L48.125,24.564L48.125,28.921L53.577,28.921L53.577,24.564L56.027,24.564L56.027,35.316L53.577,35.316L53.577,30.816L48.125,30.816L48.125,35.317ZM60.47,31.003C60.47,32.905 61.07,33.697 63.096,33.697C65.122,33.697 65.696,32.897 65.696,31.003L65.696,24.563L68.144,24.563L68.144,31.063C68.27,32.076 68.029,33.1 67.464,33.95C66.504,35.002 65.111,35.435 63.086,35.435C61.061,35.435 59.65,35.002 58.694,33.95C58.158,33.372 58.026,32.425 58.026,31.063L58.026,24.563L60.459,24.563L60.47,31.003ZM76.153,24.563L81.113,35.316L78.4,35.316L77.33,32.754L72.27,32.754L71.233,35.316L68.63,35.316L73.555,24.563L76.153,24.563ZM73.056,30.839L76.526,30.839L74.759,26.707L73.056,30.839ZM97.7,24.564L94.1,35.316L91.1,35.316L88.63,27.3L86.46,35.327L83.475,35.327L79.598,24.575L82.228,24.575L84.928,32.841L87.198,24.575L90.085,24.575L92.693,32.841L95.206,24.575L97.7,24.564ZM101.005,28.936L107.782,28.936L107.782,30.8L100.982,30.8C100.995,32.732 101.822,33.434 103.752,33.434L107.772,33.434L107.772,35.307L103.638,35.307C102.354,35.427 101.068,35.094 100.006,34.364C98.746,33.336 98.077,31.745 98.224,30.126C98.224,26.326 99.959,24.556 103.704,24.556L107.771,24.556L107.771,26.43L103.751,26.43C101.987,26.429 101.096,27.236 100.996,28.928M109.94,24.564L112.5,24.564L112.5,35.317L109.94,35.317L109.94,24.564Z" style="fill-rule:nonzero;"/>
        <path d="M21.883,37.048C21.919,37.018 21.93,36.968 21.911,36.925C19.409,31.555 16.289,26.495 12.616,21.847C8.943,17.199 9.696,24.617 9.903,27.397C10.002,28.692 10.612,29.896 11.596,30.743C14.143,33.226 20.311,36.36 21.746,37.069C21.791,37.094 21.848,37.085 21.884,37.049M20.93,39.173C20.91,39.117 20.857,39.079 20.798,39.079L20.798,39.077L10.528,39.435C11.641,41.421 13.528,42.963 15.471,42.49C16.819,42.153 19.875,40.022 20.871,39.303L20.871,39.3C20.948,39.23 20.921,39.174 20.921,39.174M21.085,38.25C21.135,38.17 21.045,38.1 21.045,38.1L21.046,38.096C16.546,35.056 7.794,30.383 7.794,30.383C6.818,33.405 8.365,36.708 11.311,37.893C11.938,38.142 12.601,38.287 13.275,38.325C13.429,38.355 19.383,38.328 20.977,38.321C21.022,38.316 21.062,38.289 21.083,38.249M21.767,17.413C21.319,17.453 20.113,17.727 20.113,17.727C18.52,18.133 17.25,19.332 16.751,20.897C16.469,21.965 16.474,23.089 16.765,24.154C17.672,28.18 22.139,34.798 23.097,36.186C23.165,36.254 23.221,36.229 23.221,36.229C23.279,36.215 23.319,36.161 23.316,36.101L23.318,36.101C24.794,21.328 21.768,17.401 21.768,17.401M25.165,36.225C25.221,36.248 25.285,36.224 25.313,36.17L25.314,36.17C26.3,34.744 30.739,28.163 31.641,24.154C31.911,23.086 31.917,21.968 31.658,20.897C31.153,19.325 29.866,18.124 28.264,17.727C26.662,17.33 27.479,17.529 26.647,17.412C26.647,17.412 23.603,21.33 25.083,36.112L25.085,36.112C25.086,36.162 25.117,36.207 25.165,36.224M27.595,39.088C27.595,39.088 27.495,39.1 27.479,39.166C27.467,39.216 27.482,39.27 27.519,39.306C28.499,40.011 31.479,42.106 32.919,42.499C32.919,42.499 35.574,43.403 37.879,39.443L27.597,39.083L27.595,39.088ZM40.615,30.36C40.615,30.36 31.885,35.044 27.37,38.09C27.324,38.125 27.303,38.184 27.319,38.24C27.335,38.296 27.362,38.317 27.425,38.317L27.425,38.319L35.311,38.299C35.917,38.251 36.513,38.114 37.079,37.891C38.554,37.313 39.741,36.177 40.385,34.729C40.989,33.349 41.071,31.795 40.615,30.359M26.545,37.059C26.585,37.089 26.64,37.093 26.685,37.069C28.155,36.335 34.278,33.222 36.813,30.752C37.797,29.898 38.405,28.69 38.505,27.391C38.69,24.516 35.805,21.856 35.805,21.856C32.139,26.492 29.025,31.538 26.525,36.894L26.528,36.894C26.501,36.949 26.512,37.014 26.556,37.058" style="fill-rule:nonzero;"/>
    </g>
</svg>
