<?xml version="1.0" encoding="UTF-8"?>
<svg width="116.525098px" height="18.5401181px" viewBox="0 0 116.525098 18.5401181" version="1.1" xmlns="http://www.w3.org/2000/svg" xmlns:xlink="http://www.w3.org/1999/xlink">
    <title>Combined Shape</title>
    <g id="Page-1" stroke="none" stroke-width="1" fill="none" fill-rule="evenodd">
        <path d="M0,18.2276304 L4.15048151,18.2276304 L4.15048151,0.000185535231 L0,0.000185535231 L0,18.2276304 Z M12.7887737,4.42654591 C15.0715962,4.42654591 17.1206149,5.20788115 18.5213591,6.66618806 L16.1091589,8.54078965 C15.4865289,7.83784304 14.4230907,7.34315974 13.3594216,7.34315974 C12.2959834,7.34315974 11.5954958,7.62934783 11.5954958,8.2283947 C11.5954958,8.85341651 12.2178947,9.29591804 14.6564326,10.0250715 C17.3539568,10.8583566 18.8584341,12.2125319 18.8584341,14.3997603 C18.8584341,16.7952521 16.9651307,18.539979 13.3594216,18.539979 C10.7134174,18.539979 8.43105687,17.654744 6.87436639,15.8840422 L9.46838846,13.9570269 C10.4022179,14.9204185 11.5954958,15.6233652 12.99624,15.6233652 C14.2414999,15.6233652 14.8638989,15.2330454 14.8638989,14.5820487 C14.8638989,13.8528952 14.293251,13.4361367 12.1920192,12.78514 C8.89774057,11.7695665 7.60096057,10.4415981 7.60096057,8.33252635 C7.60096057,6.11909105 9.49426399,4.42654591 12.7887737,4.42654591 M29.4944328,13.6447247 C28.7941763,12.9675211 27.8342402,12.6289193 26.7966776,12.6289193 C25.4996666,12.6289193 24.747659,13.2019912 24.747659,14.1653829 C24.747659,15.1287746 25.4996666,15.7018466 26.7966776,15.7018466 C27.8342402,15.7018466 28.7941763,15.3632448 29.4944328,14.6862731 L29.4944328,13.6447247 Z M29.4944328,10.0251643 C29.4944328,8.41054392 28.6902121,7.52530895 26.7449266,7.52530895 C25.6036308,7.52530895 24.4879795,7.96781047 23.6839898,8.61880721 L21.5049003,6.5099674 C22.9317511,5.23371693 25.1106095,4.42663868 27.2896989,4.42663868 C31.7255044,4.42663868 33.3334838,6.74420563 33.3334838,10.2334276 L33.3334838,18.2274449 L29.4944328,18.2274449 L29.4944328,17.2640532 C28.5606034,18.0973383 27.34145,18.5400717 25.7330084,18.5400717 C23.0354843,18.5400717 20.7526617,16.9514263 20.7526617,14.1653829 C20.7526617,11.3791076 23.0354843,9.79069411 25.7330084,9.79069411 C27.34145,9.79069411 28.5606034,10.2334276 29.4944328,11.0667127 L29.4944328,10.0251643 Z M44.5399225,13.6447247 C43.839666,12.9675211 42.8797299,12.6289193 41.8421673,12.6289193 C40.5451563,12.6289193 39.7931486,13.2019912 39.7931486,14.1653829 C39.7931486,15.1287746 40.5451563,15.7018466 41.8421673,15.7018466 C42.8797299,15.7018466 43.839666,15.3632448 44.5399225,14.6862731 L44.5399225,13.6447247 Z M44.5399225,10.0251643 C44.5399225,8.41054392 43.7357018,7.52530895 41.7904162,7.52530895 C40.6491205,7.52530895 39.5334692,7.96781047 38.7294795,8.61880721 L36.55039,6.5099674 C37.9772408,5.23371693 40.1560992,4.42663868 42.3351886,4.42663868 C46.7709941,4.42663868 48.3789735,6.74420563 48.3789735,10.2334276 L48.3789735,18.2274449 L44.5399225,18.2274449 L44.5399225,17.2640532 C43.6060931,18.0973383 42.3869397,18.5400717 40.7784981,18.5400717 C38.0809739,18.5400717 35.7981514,16.9514263 35.7981514,14.1653829 C35.7981514,11.3791076 38.0809739,9.79069411 40.7784981,9.79069411 C42.3869397,9.79069411 43.6060931,10.2334276 44.5399225,11.0667127 L44.5399225,10.0251643 Z M57.6919471,4.42654591 C60.4673289,4.42654591 62.6203118,5.72853939 63.8396962,7.81163619 L60.8044039,9.29591804 C60.1041473,8.17644484 59.2481755,7.5254481 57.9511645,7.5254481 C55.9538968,7.5254481 54.8904587,9.06167981 54.8904587,11.4833784 C54.8904587,13.9048451 55.9538968,15.4413087 57.9511645,15.4413087 C59.2481755,15.4413087 60.1041473,14.790312 60.8044039,13.6706069 L63.8396962,15.1548887 C62.6203118,17.2379855 60.4673289,18.539979 57.6919471,18.539979 C53.51559,18.539979 50.8956924,15.5973902 50.8956924,11.4833784 C50.8956924,7.36913467 53.51559,4.42654591 57.6919471,4.42654591 M74.112444,0 L78.2365879,0 L78.2365879,14.8166116 L86.3039781,14.8166116 L86.3039781,18.2274449 L74.112444,18.2274449 L74.112444,0 Z M91.6222778,10.0771605 L97.2772366,10.0771605 C97.1215214,8.48897894 96.0063322,7.52535533 94.4755172,7.52535533 C92.8934133,7.52535533 91.8558507,8.43656523 91.6222778,10.0771605 M101.116288,12.7593042 L91.6481533,12.7593042 C91.9337083,14.4516174 93.1526307,15.4412159 95.0205206,15.4412159 C96.2914251,15.4412159 97.2252545,14.842401 97.9257422,13.8790093 L100.649604,15.7798177 C99.3003798,17.5764945 97.3031122,18.5401181 94.8648054,18.5401181 C90.4551065,18.5401181 87.7314757,15.5975294 87.7314757,11.4835176 C87.7314757,7.3690419 90.4289999,4.42645315 94.4755172,4.42645315 C98.4702835,4.42645315 101.16827,7.34306697 101.16827,11.5354674 C101.16827,11.8738373 101.16827,12.4466773 101.116288,12.7593042 M106.979106,10.0771605 L112.634064,10.0771605 C112.478349,8.48897894 111.36316,7.52535533 109.832345,7.52535533 C108.250241,7.52535533 107.212678,8.43656523 106.979106,10.0771605 M116.473115,12.7593042 L107.004981,12.7593042 C107.290536,14.4516174 108.509458,15.4412159 110.377348,15.4412159 C111.648253,15.4412159 112.582082,14.842401 113.28257,13.8790093 L116.006432,15.7798177 C114.657208,17.5764945 112.65994,18.5401181 110.221633,18.5401181 C105.811934,18.5401181 103.088304,15.5975294 103.088304,11.4835176 C103.088304,7.3690419 105.785828,4.42645315 109.832345,4.42645315 C113.827111,4.42645315 116.525098,7.34306697 116.525098,11.5354674 C116.525098,11.8738373 116.525098,12.4466773 116.473115,12.7593042" id="Combined-Shape" fill="#000000"></path>
    </g>
</svg>