<?xml version="1.0" encoding="UTF-8" standalone="no"?>
<!DOCTYPE svg PUBLIC "-//W3C//DTD SVG 1.1//EN" "http://www.w3.org/Graphics/SVG/1.1/DTD/svg11.dtd">
<svg viewBox="0 0 160 160" version="1.1" xmlns="http://www.w3.org/2000/svg" xmlns:xlink="http://www.w3.org/1999/xlink" xml:space="preserve" xmlns:serif="http://www.serif.com/" style="fill-rule:evenodd;clip-rule:evenodd;stroke-linejoin:round;stroke-miterlimit:2;">
    <path id="Fill-2" d="M31.067,62.667L31.014,62.587C31.014,61.2 29.894,60.453 27.867,60.453L24.427,60.453L24.427,64.827L27.76,64.827C29.84,64.827 31.067,64.107 31.067,62.667"/>
    <path id="Fill-4" d="M135.387,79.947C131.136,80.128 126.965,78.752 123.653,76.08L127.493,71.467C129.744,73.347 132.563,74.411 135.493,74.48C137.387,74.48 138.373,73.813 138.373,72.747C138.373,71.653 137.573,71.12 134.133,70.32C128.8,69.093 124.72,67.653 124.72,62.507C124.72,57.867 128.4,54.507 134.4,54.507C138.109,54.368 141.747,55.549 144.667,57.84L141.333,62.587C139.317,61.061 136.875,60.205 134.347,60.133C132.667,60.133 131.84,60.8 131.84,61.733C131.84,62.88 132.693,63.387 136.187,64.16C141.92,65.413 145.467,67.28 145.467,71.947C145.467,77.04 141.44,79.947 135.387,79.947ZM122.507,79.787L116.453,79.787L107.04,66.08L107.04,79.787L100.16,79.787L100.16,54.8L106.667,54.8L115.653,68.133L115.653,54.8L122.507,54.8L122.507,79.787ZM90.667,79.787L97.6,79.787L97.6,54.8L90.667,54.8L90.667,79.787ZM82.133,79.867L80.347,75.36L70.667,75.36L68.88,80L55.44,80L50.4,72.427L48.08,72.427L48.08,80L41.147,80L41.2,54.88L52.267,54.88C55.227,54.64 58.157,55.6 60.4,57.547C61.915,59.093 62.715,61.2 62.613,63.36C62.712,66.763 60.648,69.853 57.467,71.067L62.341,78.357L72.24,54.693L78.907,54.693L89.573,79.867L82.133,79.867ZM17.413,140L77.413,140L77.413,130L17.413,130L17.413,140ZM14.907,41.253L19.36,37.04C20.219,38.397 21.677,39.259 23.28,39.36C24.987,39.36 26.107,38.16 26.107,35.84L26.107,20.053L32.987,20.053L32.987,35.893C33.195,38.472 32.304,41.019 30.533,42.907C28.707,44.691 26.232,45.653 23.68,45.573C20.213,45.712 16.909,44.088 14.907,41.253ZM38.987,72.827C38.987,77.333 35.493,80 29.52,80L17.68,80L17.68,54.88L29.467,54.88C31.939,54.677 34.387,55.475 36.267,57.093C37.339,58.168 37.925,59.629 37.893,61.147C37.933,63.643 36.379,65.885 34.027,66.72C36.957,67.259 39.061,69.848 38.987,72.827ZM36.08,20.053L56.16,20.053L56.16,25.893L42.827,25.893L42.827,29.707L54.8,29.707L54.8,35.04L42.933,35.04L42.933,39.013L56.267,39.013L56.267,44.88L36,44.88L36.08,20.053ZM58.48,20.053L80.373,20.053L80.373,26.107L72.88,26.107L72.88,45.013L65.947,45.013L65.947,26.107L58.48,26.107L58.48,20.053ZM0,160L160,160L160,0L0,0L0,160Z"/>
    <path id="Fill-6" d="M51.84,60.88L48.133,60.88L48.133,66.933L51.866,66.88C54.186,66.88 55.6,65.733 55.6,63.893C55.6,61.893 54.133,60.88 51.84,60.88"/>
    <path id="Fill-8" d="M28.667,69.68L24.427,69.68L24.427,74.293L28.747,74.293C30.88,74.293 32.053,73.467 32.053,72C32,70.587 30.987,69.68 28.667,69.68"/>
</svg>
