<svg viewBox="0 0 140 32" xmlns="http://www.w3.org/2000/svg"><title class="sr-only">Keyrock</title><path d="m65.093 25.25v-15.939c0-1.9565 1.5952-3.5442 3.554-3.5442h8.673v4.2919h-6.3104c-0.5048 0-0.9188 0.4097-0.9188 0.9117v14.279h-4.9978z" fill="currentColor"></path><path d="m19.315 25.26c-0.8481 0-1.6559-0.3277-2.2718-0.9218l-9.8543-9.6185c-0.9087-0.8912-0.92889-2.3662-0.03029-3.2676l9.7029-9.813c0.6159-0.6146 1.4337-0.95263 2.302-0.95263h3.3622l-0.0303 4.9987h-2.2212c-0.3332 0-0.6664 0.13317-0.8986 0.36876l-6.8859 6.8323 7.108 7.0064c0.2322 0.2356 0.5553 0.3687 0.8885 0.3687h2.0193v4.9885h-3.1905v0.0102z" fill="currentColor"></path><path d="M5.1089 0.675781H0V25.2596H5.1089V0.675781Z" fill="currentColor"></path><path d="m33.733 25.681c-2.09 0-3.9074-0.4098-5.4017-1.2292-1.4943-0.8092-2.6554-1.9975-3.4631-3.5032-0.8078-1.516-1.2217-3.3393-1.2217-5.429 0-2.0896 0.4139-3.9641 1.2217-5.4801 0.8077-1.5058 1.9991-2.6735 3.5237-3.4827 1.5347-0.80922 3.4127-1.2087 5.5935-1.2087 3.3824 0 5.8763 0.96286 7.411 2.8579 1.5246 1.8848 2.1808 4.5071 1.9587 7.7952h-14.711v0.1229c0.0404 0.9424 0.2322 1.8233 0.5755 2.612 0.3837 0.9014 0.9592 1.6389 1.7064 2.1716 0.7471 0.5429 1.6962 0.8092 2.8068 0.8092 1.1914 0 2.2213-0.297 3.0492-0.8911 0.8077-0.5737 1.3227-1.3112 1.5246-2.2024h4.9877c-0.2726 2.1409-1.2418 3.8618-2.8977 5.1114-1.6962 1.2907-3.9377 1.936-6.6638 1.936v0.0103zm0.2121-16.502c-1.7972 0-3.1401 0.57363-4.0084 1.7004-0.3433 0.4507-0.626 0.9834-0.8279 1.598l-0.0505 0.1536h9.2081v-0.1229c-0.1009-0.9833-0.5452-1.8028-1.3428-2.4072-0.7977-0.60432-1.7972-0.91161-2.9785-0.91161v-0.01025z" fill="currentColor"></path><path d="m43.9 32v-4.1178h4.0992c0.727 0 1.3833-0.4302 1.6761-1.096l1.4337-3.2369-7.4715-17.793h5.119l2.9886 7.2523 1.8982 5.3367 1.9183-5.347 3.0391-7.242h5.0887l-9.9149 23.519c-0.6966 1.6492-2.302 2.7247-4.0891 2.7247h-5.7955 0.0101z" fill="currentColor"></path><path d="m87.75 25.68c-2.0698 0-3.867-0.4098-5.3613-1.2292-1.4842-0.8092-2.6352-1.9975-3.4328-3.5032-0.7977-1.516-1.1914-3.3393-1.1914-5.4392s0.4038-3.9642 1.1914-5.4597c0.7875-1.4955 1.9486-2.6632 3.4328-3.4827s3.2915-1.2292 5.3613-1.2292c3.1098 0 5.5633 0.91166 7.31 2.7042s2.6352 4.3022 2.6352 7.4674c0 2.0896-0.4038 3.9232-1.1914 5.4392-0.7875 1.516-1.9385 2.694-3.4126 3.5032-1.4842 0.8194-3.2814 1.2292-5.3513 1.2292h0.0101zm0-16.338c-1.5548 0-2.7967 0.55313-3.6751 1.6492-0.8684 1.0858-1.3126 2.612-1.3126 4.5173 0 1.9052 0.4442 3.4008 1.3126 4.507 0.8784 1.1063 2.1102 1.6697 3.6751 1.6697 1.565 0 2.7564-0.5634 3.6449-1.6697 0.8784-1.096 1.3227-2.612 1.3227-4.507s-0.4443-3.4315-1.3227-4.5173c-0.8885-1.096-2.1102-1.6492-3.6449-1.6492z" fill="currentColor"></path><path d="m109.28 25.68c-2.05 0-3.837-0.4098-5.311-1.2292-1.474-0.8092-2.625-1.9975-3.402-3.5032-0.7778-1.516-1.1817-3.3393-1.1817-5.4392s0.4241-3.9846 1.2517-5.5007c0.828-1.516 1.999-2.6837 3.484-3.4724 1.484-0.78873 3.271-1.1985 5.29-1.1985 1.737 0 3.312 0.31755 4.655 0.93214 1.343 0.6146 2.433 1.4955 3.231 2.612 0.777 1.0858 1.211 2.3867 1.312 3.8719h-5.008c-0.202-1.1062-0.656-1.9462-1.353-2.5096-0.716-0.57358-1.665-0.87063-2.827-0.87063-0.979 0-1.857 0.24584-2.615 0.71703-0.757 0.4814-1.353 1.178-1.777 2.0794s-0.636 2.0179-0.636 3.3393c0 1.9462 0.475 3.4827 1.394 4.5685 0.929 1.0858 2.11 1.6389 3.503 1.6389 0.757 0 1.444-0.1434 2.05-0.42 0.595-0.2765 1.11-0.6863 1.524-1.2087 0.394-0.4916 0.677-1.0653 0.838-1.7003h5.008c-0.161 1.4443-0.666 2.7247-1.474 3.79-0.838 1.096-1.948 1.9667-3.301 2.5813s-2.918 0.9219-4.645 0.9219h-0.01z" fill="currentColor"></path><path d="m125.71 0h-4.967v25.25h4.967v-25.25z" fill="currentColor"></path><path d="m137.06 25.26c-0.707 0-1.373-0.2663-1.888-0.758l-7.825-7.6927c-0.323-0.297-0.505-0.7068-0.505-1.1575 0-0.4404 0.162-0.8604 0.475-1.1677l7.663-7.9283c0.515-0.51216 1.202-0.79897 1.918-0.79897h3.09v4.7529h-2.292c-0.182 0-0.343 0.0717-0.474 0.1946l-4.625 4.7222 4.857 4.9065c0.131 0.1229 0.293 0.1844 0.464 0.1844h2.06v4.7324h-2.928l0.01 0.0102z" fill="currentColor"></path></svg>