<?xml version="1.0" encoding="UTF-8" standalone="no"?>
<!DOCTYPE svg PUBLIC "-//W3C//DTD SVG 1.1//EN" "http://www.w3.org/Graphics/SVG/1.1/DTD/svg11.dtd">
<svg width="100%" height="100%" viewBox="0 0 13 6" version="1.1" xmlns="http://www.w3.org/2000/svg" xmlns:xlink="http://www.w3.org/1999/xlink" xml:space="preserve" xmlns:serif="http://www.serif.com/" style="fill-rule:evenodd;clip-rule:evenodd;stroke-linejoin:round;stroke-miterlimit:2;">
    <g transform="matrix(1,0,0,1,-0.999999,-4.35288)">
        <path d="M11.479,4.371C10.766,4.371 10.273,4.654 9.94,5.048C9.883,4.93 9.841,4.879 9.78,4.81C9.507,4.502 9.068,4.358 8.479,4.358C7.904,4.358 7.424,4.537 7.091,4.82C6.918,4.539 6.505,4.353 6.008,4.353C5.358,4.353 4.65,4.445 4.23,5.122C4.22,4.878 4.198,4.749 4.061,4.604C3.895,4.428 3.625,4.382 3.363,4.382C2.885,4.382 2.525,4.591 2.266,5.016C1.89,5.616 0.98,7.59 1,8.546C1.014,9.164 1.428,9.609 2.17,9.627C2.749,9.641 3.204,9.486 3.493,9.194C3.752,9.476 4.148,9.641 4.621,9.641C5.149,9.641 5.68,9.483 5.993,9.137C6.257,9.461 6.673,9.65 7.207,9.647C7.905,9.644 8.519,9.312 8.92,8.805C9.14,9.403 9.697,9.641 10.306,9.641C11.641,9.641 12.227,8.723 12.715,7.272C12.825,6.945 12.972,6.399 12.997,5.941C13.037,5.178 12.714,4.371 11.479,4.371ZM2.599,8.019C3.289,7.899 3.463,8.149 3.441,8.38C3.376,9.072 2.741,9.227 2.19,9.214C1.79,9.205 1.43,9.021 1.42,8.557C1.403,7.745 2.231,5.866 2.621,5.243C2.801,4.948 3.021,4.802 3.371,4.802C3.702,4.802 3.784,4.972 3.779,5.176C3.766,5.72 2.887,7.373 2.599,8.019ZM4.848,7.381C4.802,7.505 4.715,7.764 4.645,8.038C4.872,7.982 5.042,7.942 5.333,7.949C5.665,7.957 5.877,8.095 5.877,8.369C5.877,9.035 5.142,9.23 4.632,9.23C4.072,9.23 3.58,8.911 3.58,8.299C3.58,7.581 3.969,6.492 4.335,5.767C4.783,4.877 5.241,4.759 6.03,4.759C6.377,4.759 6.777,4.907 6.777,5.234C6.777,5.688 6.392,5.861 6.011,5.883C5.848,5.892 5.598,5.901 5.448,5.89C5.448,5.89 5.321,6.084 5.186,6.428C5.892,6.329 6.191,6.489 6.072,6.897C5.911,7.449 5.433,7.485 4.848,7.381L4.848,7.381ZM8.32,5.665C8.129,5.665 8.004,5.786 7.911,5.916C7.707,6.204 7.263,7.355 7.194,7.828C7.147,8.152 7.287,8.218 7.44,8.218C7.685,8.218 7.96,7.959 8.054,7.53C8.054,7.53 7.587,7.519 7.716,7.105C7.841,6.703 8.078,6.616 8.472,6.6C9.247,6.568 9.17,7.141 9.108,7.446C8.907,8.437 8.201,9.233 7.204,9.233C6.521,9.233 6.097,8.855 6.097,8.158C6.097,7.662 6.343,6.883 6.538,6.427C6.953,5.457 7.389,4.777 8.499,4.777C9.165,4.777 9.69,5.017 9.613,5.641C9.557,6.098 9.327,6.367 8.911,6.4C8.795,6.409 8.318,6.397 8.476,5.946C8.532,5.789 8.554,5.665 8.32,5.665ZM12.512,6.484C12.395,7.068 12.131,7.759 11.844,8.274C11.377,9.115 10.809,9.233 10.313,9.227C9.818,9.221 9.259,9.038 9.255,8.273C9.252,7.724 9.489,6.949 9.69,6.441C10.04,5.521 10.398,4.77 11.53,4.783C12.85,4.799 12.615,5.973 12.512,6.484ZM11.392,5.684C11.279,5.683 11.18,5.705 11.091,5.842C10.891,6.1 10.308,7.696 10.318,8.014C10.322,8.128 10.385,8.228 10.526,8.228C10.687,8.228 10.777,8.117 10.856,7.982C11.04,7.671 11.557,6.261 11.571,5.908C11.575,5.806 11.558,5.686 11.392,5.684Z" style="fill-rule:nonzero;"/>
    </g>
</svg>
