<?xml version="1.0" encoding="UTF-8"?>
<svg viewBox="0 0 190 32" version="1.1" xmlns="http://www.w3.org/2000/svg" xmlns:xlink="http://www.w3.org/1999/xlink">
    <title>lighthouse-logo</title>
    <g id="Landing-Page" stroke="none" stroke-width="1" fill="none" fill-rule="evenodd">
        <g id="lighthouse-logo" transform="translate(0, 0)" fill="#1D1D1B" fill-rule="nonzero">
            <path d="M35.077,0.0182154365 L32.333,0.0182154365 L32.333,23.9022154 L35.077,23.9022154 L35.077,0.0182154365 Z M42.516,7.61521544 L39.773,7.61521544 L39.773,23.9022154 L42.516,23.9022154 L42.516,7.61521544 Z M41.119,0.499215436 C40.126,0.499215436 39.436,1.17921544 39.436,2.15821544 C39.436,3.13621544 40.126,3.83321544 41.119,3.83321544 C42.112,3.83321544 42.836,3.13621544 42.836,2.15821544 C42.836,1.17921544 42.129,0.499215436 41.119,0.499215436 Z M60.778,10.2852154 C59.533,8.54321544 57.378,7.28321544 54.416,7.28321544 C49.686,7.28321544 46.084,10.8332154 46.084,15.7092154 C46.084,20.6022154 49.686,24.2342154 54.416,24.2342154 C57.378,24.2342154 59.583,22.9242154 60.778,21.2152154 L60.778,23.1232154 C60.778,26.4402154 58.338,28.5632154 54.5,28.5632154 C52.194,28.5632154 50.174,27.6682154 48.66,26.0592154 L46.859,27.8172154 C48.643,29.8732154 51.419,31.0182154 54.499,31.0182154 C60.004,31.0182154 63.522,27.7842154 63.522,22.7252154 L63.522,7.61521544 L60.778,7.61521544 L60.778,10.2852154 L60.778,10.2852154 Z M54.685,21.7962154 C51.235,21.7962154 48.795,19.0762154 48.795,15.7092154 C48.795,12.3592154 51.235,9.72121544 54.685,9.72121544 C58.22,9.72121544 60.812,12.3582154 60.812,15.7092154 C60.812,19.0762154 58.22,21.7962154 54.685,21.7962154 Z M76.414,7.28321544 C73.789,7.28321544 71.819,8.56021544 70.894,10.0692154 L70.894,0.0182154365 L68.134,0.0182154365 L68.134,23.9022154 L70.877,23.9022154 L70.877,14.7142154 C70.877,11.7442154 73.166,9.82121544 75.994,9.82121544 C78.956,9.82121544 80.639,11.4792154 80.639,14.6472154 L80.639,23.9022154 L83.366,23.9022154 L83.366,14.0002154 C83.349,9.80421544 80.74,7.28321544 76.414,7.28321544 Z M94.306,21.8122154 C92.623,21.8122154 91.445,20.8842154 91.445,18.7442154 L91.445,9.93821544 L96.882,9.93821544 L96.882,7.61621544 L91.428,7.61621544 L91.428,2.39121544 L88.735,2.39121544 L88.735,7.61621544 L85.672,7.61621544 L85.672,9.93821544 L88.718,9.93821544 L88.718,19.1762154 C88.718,22.4942154 90.839,24.2362154 94.02,24.2362154 C95.367,24.2362154 96.797,23.9032154 97.504,23.5062154 L97.134,21.1832154 C96.343,21.5812154 95.215,21.8132154 94.306,21.8132154 L94.306,21.8122154 Z M109.539,7.28321544 C106.913,7.28321544 104.944,8.56021544 104.018,10.0692154 L104.018,0.0182154365 L101.258,0.0182154365 L101.258,23.9022154 L104.001,23.9022154 L104.001,14.7142154 C104.001,11.7442154 106.29,9.82121544 109.118,9.82121544 C112.08,9.82121544 113.763,11.4792154 113.763,14.6472154 L113.763,23.9022154 L116.473,23.9022154 L116.473,14.0002154 C116.473,9.80421544 113.864,7.28321544 109.539,7.28321544 L109.539,7.28321544 Z M128.508,7.28321544 C123.475,7.28321544 119.722,10.9982154 119.722,15.7592154 C119.722,20.5192154 123.475,24.2342154 128.508,24.2342154 C133.54,24.2342154 137.294,20.5192154 137.294,15.7582154 C137.277,10.9982154 133.54,7.28321544 128.508,7.28321544 L128.508,7.28321544 Z M128.508,21.7302154 C125.024,21.7302154 122.465,19.1092154 122.465,15.7592154 C122.465,12.4082154 125.024,9.78721544 128.508,9.78721544 C131.992,9.78721544 134.55,12.4082154 134.55,15.7592154 C134.55,19.1092154 131.975,21.7292154 128.508,21.7292154 L128.508,21.7302154 Z M152.442,16.8202154 C152.442,19.7892154 150.186,21.6962154 147.325,21.6962154 C144.38,21.6962154 142.713,20.0542154 142.713,16.8862154 L142.713,7.61521544 L139.987,7.61521544 L139.987,17.5332154 C139.987,21.7132154 142.579,24.2342154 146.887,24.2342154 C149.547,24.2342154 151.499,22.9742154 152.425,21.4482154 L152.425,23.9022154 L155.168,23.9022154 L155.168,7.61521544 L152.425,7.61521544 L152.425,16.8202154 L152.442,16.8202154 L152.442,16.8202154 Z M165.655,14.5482154 C162.844,13.8842154 161.531,13.4702154 161.531,11.9102154 C161.531,10.5672154 162.877,9.70421544 164.981,9.70421544 C167.119,9.70421544 168.482,10.6842154 169.273,11.8272154 L171.142,10.3022154 C170.165,8.70921544 167.96,7.28221544 164.981,7.28221544 C161.581,7.28221544 158.838,9.10721544 158.838,11.9602154 C158.838,15.0792154 161.346,16.1572154 164.88,16.9362154 C167.674,17.5502154 168.802,18.0142154 168.802,19.5242154 C168.802,20.9172154 167.27,21.8122154 165.116,21.8122154 C162.726,21.8122154 161.093,20.6852154 160.184,19.0592154 L158.08,20.5692154 C159.275,22.8082154 161.699,24.2342154 165.116,24.2342154 C168.583,24.2342154 171.546,22.4102154 171.546,19.5242154 C171.529,16.5212154 169.206,15.3942154 165.655,14.5482154 Z M189.875,14.9292154 C189.875,10.1522154 186.037,7.28321544 181.914,7.28321544 C177.218,7.28321544 173.414,10.9822154 173.414,15.7592154 C173.414,20.5352154 177.083,24.2342154 182.048,24.2342154 C185.145,24.2342154 187.821,22.8412154 189.336,20.5352154 L187.249,19.0432154 C186.054,20.7012154 184.354,21.7792154 182.031,21.7792154 C178.598,21.7792154 176.326,19.3912154 176.157,16.4222154 L189.774,16.4222154 C189.858,15.9572154 189.875,15.4102154 189.875,14.9292154 L189.875,14.9292154 Z M176.275,14.1992154 C176.679,11.5122154 179.069,9.73821544 181.914,9.73821544 C184.725,9.73821544 186.946,11.5122154 187.131,14.1992154 L176.275,14.1992154 L176.275,14.1992154 Z M9,19.0142154 L22.5,19.0142154 C23.3289794,19.0142154 24.0009999,18.3421948 24.0009999,17.5132154 C24.0009999,16.6842361 23.3289794,16.0122154 22.5,16.0122154 L11.516,16.0122154 L9,19.0142154 Z M12.052,4.49321544 C12.5493435,3.85662805 12.453219,2.94051396 11.8345725,2.42102331 C11.2159259,1.90153267 10.2969911,1.96527986 9.756,2.56521544 L0,14.1952154 L0,18.8632154 L12.052,4.49321544 Z" id="Shape"></path>
            <path d="M22.502,21.0182154 L4.714,21.0182154 L16.5,6.96321544 L20.26,2.48121544 C20.614039,2.07182399 20.7200729,1.50345239 20.5374611,0.993944858 C20.3548493,0.484437324 19.9119157,0.112820248 19.3784268,0.0215262105 C18.844938,-0.069767827 18.3036398,0.133421197 17.962,0.553215436 L0.8,21.0152154 L0,21.9692154 L0,24.0182154 L22.502,24.0182154 C23.3304271,24.0182154 24.002,23.3466426 24.002,22.5182154 C24.002,21.6897883 23.3304271,21.0182154 22.502,21.0182154 L22.502,21.0182154 Z" id="Path"></path>
        </g>
    </g>
</svg>