<svg clip-rule="evenodd" fill-rule="evenodd" stroke-linejoin="round" stroke-miterlimit="2" viewBox="0 0 1000 181" xmlns="http://www.w3.org/2000/svg"><g fill-rule="nonzero" transform="matrix(9.00901 0 0 9.00901 0 -297.2947)"><path d="m2.057 50.54c-1.236-1.296-2.057-3.16-2.057-5.094v-12.44h3.724v12.384c0 1.02.3 1.877.996 2.594.698.72 1.532 1.003 2.466 1.003h4.91v3.68h-4.936c-2.159-.002-3.9-.864-5.102-2.126zm21.537-12.248c.875.38 1.667.927 2.331 1.612.677.703 1.214 1.53 1.58 2.435.386.936.58 1.954.58 3.052 0 1.088-.194 2.096-.58 3.023-.368.898-.904 1.718-1.58 2.414-.664.681-1.456 1.224-2.33 1.598-.9.386-1.871.582-2.85.575-.981.008-1.953-.188-2.855-.575-.87-.374-1.658-.918-2.317-1.598-.672-.698-1.206-1.518-1.573-2.415-.387-.927-.58-1.935-.58-3.023 0-1.098.193-2.116.58-3.052.365-.904.899-1.73 1.572-2.435.659-.685 1.447-1.233 2.318-1.613.901-.391 1.874-.589 2.856-.58 1.011 0 1.96.192 2.848.58zm-1.469 10.768c.432-.187.822-.46 1.145-.802.331-.348.59-.763.78-1.245.193-.51.289-1.053.282-1.599 0-.59-.094-1.136-.283-1.636-.332-.932-1.026-1.692-1.924-2.107-.432-.2-.892-.3-1.38-.3-.487 0-.953.1-1.4.3-.446.2-.827.476-1.144.828-.331.375-.589.81-.759 1.28-.193.523-.288 1.077-.283 1.635 0 .583.095 1.116.283 1.6.188.481.441.896.759 1.244.317.348.698.615 1.145.802.446.188.912.28 1.4.28.474.003.944-.092 1.38-.28zm53.178-15.492c.865.361 1.544.87 2.207 1.525.635.642 1.141 1.401 1.489 2.235.367.873.634 1.846.634 3.12v12.223h-3.725v-12.598c0-.568-.228-1.525-.89-2.267-.634-.716-1.547-1.125-2.503-1.124-.949-.001-1.852.409-2.476 1.124-.556.63-.89 1.515-.89 2.267v12.598h-3.724v-12.22c0-1.187.234-2.305.627-3.15.406-.87.842-1.57 1.481-2.212.676-.679 1.36-1.164 2.216-1.527.872-.379 1.815-.571 2.766-.562 1.02 0 1.88.19 2.788.568zm10.524 7.504h7.945v3.487h-7.945v.886c0 .97.293 1.693.767 2.28.656.834 1.675 1.304 2.735 1.262h5.877v3.68h-5.918c-1.298 0-2.335-.267-3.31-.773-.729-.38-1.438-.914-1.936-1.487-.566-.652-.877-1.11-1.228-1.84-.466-.995-.709-2.079-.712-3.177v-5.12c0-.942.203-1.947.597-2.874.337-.794.892-1.654 1.42-2.203.53-.55 1.253-1.138 1.996-1.484.902-.42 1.826-.704 2.838-.704h6.253v3.68h-5.876c-.988 0-1.848.322-2.51 1.015-.633.673-.987 1.562-.992 2.486zm19.918-4.39v15.986h-3.725v-15.986h-5.256v-3.677h14.236v3.677z"/><path d="m47.292 35.843-1.449 1.457c-.67-.675-1.462-1.216-2.335-1.594-.925-.401-1.924-.605-2.933-.598-1.011-.008-2.013.196-2.941.598-.897.391-1.709.955-2.387 1.66-.694.727-1.244 1.578-1.62 2.51-.397.963-.595 2.011-.595 3.141 0 1.121.198 2.16.596 3.114.378.924.927 1.767 1.62 2.486 1.393 1.444 3.32 2.254 5.326 2.238 1.042 0 2.02-.198 2.934-.592.692-.296 1.336-.696 1.908-1.185l1.47 1.477c-.774.699-1.658 1.266-2.617 1.676-1.176.503-2.443.759-3.722.75-1.334 0-2.578-.25-3.731-.75-1.137-.489-2.167-1.199-3.028-2.088-.879-.912-1.576-1.983-2.055-3.155-.505-1.212-.757-2.528-.757-3.95 0-1.435.252-2.764.757-3.988.478-1.181 1.175-2.261 2.055-3.182.861-.895 1.89-1.611 3.028-2.107 1.153-.507 2.397-.76 3.73-.76 1.322 0 2.563.252 3.723.76 1.133.491 2.16 1.198 3.023 2.081zm10.536 2.448c.875.379 1.667.927 2.331 1.612.677.703 1.214 1.53 1.58 2.435.386.937.579 1.954.579 3.052 0 1.088-.193 2.096-.58 3.023-.367.898-.903 1.718-1.579 2.414-.664.681-1.456 1.224-2.33 1.598-.9.386-1.871.582-2.85.575-.981.008-1.953-.188-2.855-.575-.871-.374-1.658-.917-2.317-1.598-.673-.698-1.206-1.517-1.573-2.414-.386-.927-.579-1.935-.579-3.023 0-1.098.193-2.115.58-3.052s.91-1.748 1.572-2.435 1.434-1.225 2.317-1.612 1.835-.58 2.856-.58c.979-.007 1.949.191 2.848.58zm-.924 12.23c.602-.261 1.145-.642 1.596-1.119.473-.502.842-1.092 1.087-1.736.263-.674.394-1.416.394-2.229 0-.825-.131-1.586-.394-2.283-.463-1.299-1.431-2.359-2.683-2.938-.603-.279-1.26-.421-1.924-.418-.68 0-1.331.14-1.953.418-.608.268-1.152.662-1.597 1.155-.462.523-.82 1.127-1.058 1.783-.269.731-.402 1.504-.394 2.283 0 .813.131 1.555.394 2.23.242.639.601 1.227 1.058 1.735.443.486.975.86 1.597 1.12.618.26 1.282.393 1.953.39.68 0 1.32-.13 1.924-.39z"/></g></svg>