<svg width="261" height="60" viewBox="0 0 261 60" fill="none" xmlns="http://www.w3.org/2000/svg">
<g clip-path="url(#clip0_1464_2396)">
<path d="M18.3 10.8C18.3 4.83 23.13 0 29.1 0C30.24 0 31.17 0.93 31.17 2.07V49.2C31.17 55.17 26.34 60 20.37 60C19.23 60 18.3 59.07 18.3 57.93V10.8ZM36.6 21.33C36.6 15.36 41.43 10.53 47.4 10.53C48.54 10.53 49.47 11.46 49.47 12.6V38.7C49.47 44.67 44.64 49.5 38.67 49.5C37.53 49.5 36.6 48.57 36.6 47.43V21.33ZM0 21.33C0 15.36 4.83 10.53 10.8 10.53C11.94 10.53 12.87 11.46 12.87 12.6V38.7C12.87 44.67 8.04 49.5 2.07 49.5C0.93 49.5 0 48.57 0 47.43V21.33ZM91.74 49.5H86.1L75.9 19.41V49.5H69.45V10.56H78.99L89.01 40.38L99.03 10.56H108.36V49.5H101.91V19.38L91.71 49.47L91.74 49.5ZM140.04 35.28C140.04 44.13 134.34 50.1 126.33 50.1C118.32 50.1 112.62 44.13 112.62 35.28C112.62 26.43 118.32 20.46 126.33 20.46C134.34 20.46 140.04 26.43 140.04 35.28ZM119.16 35.28C119.16 41.07 121.92 44.61 126.33 44.61C130.74 44.61 133.5 41.07 133.5 35.28C133.5 29.49 130.74 25.95 126.33 25.95C121.92 25.95 119.16 29.49 119.16 35.28ZM160.2 20.97V27.48C159.39 27.36 158.73 27.33 157.8 27.33C153.69 27.33 150.54 30 150.54 34.53V49.5H144.03V21.03H150.54V25.26C151.8 22.59 154.71 20.85 158.34 20.85C159.09 20.85 159.69 20.91 160.17 20.97H160.2ZM178.29 50.1C174.6 50.1 171.9 48.63 170.1 46.53V59.28H163.59V21.03H170.1V24.06C171.9 21.96 174.6 20.49 178.29 20.49C186.27 20.49 190.83 27.21 190.83 35.31C190.83 43.41 186.27 50.13 178.29 50.13V50.1ZM169.95 34.47V36.15C169.95 41.4 172.98 44.4 177 44.4C181.71 44.4 184.26 40.71 184.26 35.28C184.26 29.85 181.71 26.16 177 26.16C172.98 26.16 169.95 29.1 169.95 34.47ZM194.76 49.5V10.56H201.27V24.06C202.89 22.17 205.44 20.49 209.13 20.49C215.1 20.49 218.67 24.6 218.67 30.75V49.53H212.16V32.67C212.16 29.13 210.75 26.61 207.18 26.61C204.24 26.61 201.27 28.77 201.27 32.85V49.56H194.76V49.5ZM224.13 17.22V10.56H230.85V17.22H224.13ZM230.76 21.03V49.5H224.25V21.03H230.76ZM241.23 35.28C241.23 41.07 244.26 44.46 248.73 44.46C252.21 44.46 254.31 42.18 255.12 39.03L260.7 41.85C259.23 46.47 254.88 50.1 248.7 50.1C240.57 50.1 234.72 44.07 234.72 35.28C234.72 26.49 240.57 20.46 248.7 20.46C254.82 20.46 259.05 23.94 260.58 28.5L255.09 31.47C254.28 28.38 252.15 26.04 248.7 26.04C244.26 26.04 241.2 29.46 241.2 35.25L241.23 35.28Z" fill="black"/>
</g>
<defs>
<clipPath id="clip0_1464_2396">
<rect width="260.7" height="60" fill="white"/>
</clipPath>
</defs>
</svg>
