<svg focusable="false" role="presentation" xmlns="http://www.w3.org/2000/svg" xml:space="preserve" style="fill-rule:evenodd;clip-rule:evenodd;stroke-linejoin:round;stroke-miterlimit:2" viewBox="0 0 131 30">
<path d="M9.15 5.4C9.15 2.415 11.565 0 14.55 0C15.12 0 15.585 0.465 15.585 1.035V24.6C15.585 27.585 13.17 30 10.185 30C9.615 30 9.15 29.535 9.15 28.965V5.4ZM18.3 10.665C18.3 7.68 20.715 5.265 23.7 5.265C24.27 5.265 24.735 5.73 24.735 6.3V19.35C24.735 22.335 22.32 24.75 19.335 24.75C18.765 24.75 18.3 24.285 18.3 23.715V10.665ZM0 10.665C0 7.68 2.415 5.265 5.4 5.265C5.97 5.265 6.435 5.73 6.435 6.3V19.35C6.435 22.335 4.02 24.75 1.035 24.75C0.465 24.75 0 24.285 0 23.715L0 10.665ZM45.87 24.75H43.05L37.95 9.705V24.75H34.725V5.28H39.495L44.505 20.19L49.515 5.28H54.18V24.75H50.955V9.69L45.855 24.735L45.87 24.75ZM70.02 17.64C70.02 22.065 67.17 25.05 63.165 25.05C59.16 25.05 56.31 22.065 56.31 17.64C56.31 13.215 59.16 10.23 63.165 10.23C67.17 10.23 70.02 13.215 70.02 17.64ZM59.58 17.64C59.58 20.535 60.96 22.305 63.165 22.305C65.37 22.305 66.75 20.535 66.75 17.64C66.75 14.745 65.37 12.975 63.165 12.975C60.96 12.975 59.58 14.745 59.58 17.64ZM80.1 10.485V13.74C79.695 13.68 79.365 13.665 78.9 13.665C76.845 13.665 75.27 15 75.27 17.265V24.75H72.015V10.515H75.27V12.63C75.9 11.295 77.355 10.425 79.17 10.425C79.545 10.425 79.845 10.455 80.085 10.485H80.1ZM89.145 25.05C87.3 25.05 85.95 24.315 85.05 23.265V29.64H81.795V10.515H85.05V12.03C85.95 10.98 87.3 10.245 89.145 10.245C93.135 10.245 95.415 13.605 95.415 17.655C95.415 21.705 93.135 25.065 89.145 25.065V25.05ZM84.975 17.235V18.075C84.975 20.7 86.49 22.2 88.5 22.2C90.855 22.2 92.13 20.355 92.13 17.64C92.13 14.925 90.855 13.08 88.5 13.08C86.49 13.08 84.975 14.55 84.975 17.235ZM97.38 24.75V5.28H100.635V12.03C101.445 11.085 102.72 10.245 104.565 10.245C107.55 10.245 109.335 12.3 109.335 15.375V24.765H106.08V16.335C106.08 14.565 105.375 13.305 103.59 13.305C102.12 13.305 100.635 14.385 100.635 16.425V24.78H97.38V24.75ZM112.065 8.61V5.28H115.425V8.61H112.065ZM115.38 10.515V24.75H112.125V10.515H115.38ZM120.615 17.64C120.615 20.535 122.13 22.23 124.365 22.23C126.105 22.23 127.155 21.09 127.56 19.515L130.35 20.925C129.615 23.235 127.44 25.05 124.35 25.05C120.285 25.05 117.36 22.035 117.36 17.64C117.36 13.245 120.285 10.23 124.35 10.23C127.41 10.23 129.525 11.97 130.29 14.25L127.545 15.735C127.14 14.19 126.075 13.02 124.35 13.02C122.13 13.02 120.6 14.73 120.6 17.625L120.615 17.64Z" fill="black"/>
</svg>
