<svg height="88" width="107" xmlns="http://www.w3.org/2000/svg"><path d="M59.005 42.036c.003 3.999.003 7.995 0 11.992 1.633.095 3.52.662 4.943-.433 1.42-1.175 1.714-3.145 1.867-4.875.036-1.863.111-3.758-.327-5.583-.194-.835-.673-1.696-1.527-1.987-1.673-.488-3.55-.135-4.956.886zM53.63 30.043c1.792 0 3.585-.002 5.376.002 0 2.875.004 5.75-.001 8.623 1.56-1.244 3.592-1.917 5.59-1.714 1.687.084 3.401.77 4.482 2.107 1.245 1.5 1.764 3.447 2.008 5.344.27 2.323.262 4.7-.24 6.992-.474 2.136-1.62 4.244-3.567 5.364-2.247 1.351-4.98 1.317-7.512 1.168a53.508 53.508 0 0 1-6.137-.802c.003-9.028 0-18.055.001-27.084zm23.004 16.462a9498.822 9498.822 0 0 1 8.411-16.503c4.585-.002 9.17 0 13.757-.002 2.732 3.735 5.464 7.47 8.198 11.202-2.797 5.502-5.624 10.986-8.395 16.501a9924.728 9924.728 0 0 1-8.19-11.2c-4.594 0-9.188 0-13.781.002zm-60.735-6.809c1.484-1.405 3.339-2.552 5.416-2.731 1.567-.137 3.315.048 4.55 1.114 1.23 1.073 1.633 2.778 1.685 4.347.004 5.068-.001 10.136.002 15.204-1.793.002-3.588.002-5.381 0 .003-4.837 0-9.671.002-14.506.032-.664-.275-1.43-.982-1.595-1.648-.428-3.29.308-4.727 1.051.002 5.018-.001 10.036.002 15.052-1.793-.004-3.586.001-5.38-.002-.001-4.837.008-9.671-.003-14.508.012-.626-.232-1.367-.901-1.558-1.653-.486-3.377.187-4.798 1.018.003 5.016.002 10.032.002 15.048-1.796 0-3.59 0-5.384.002C0 50.859 0 44.086 0 37.315c1.5-.002 2.996 0 4.493 0 .255.646.505 1.296.749 1.945 2.132-1.942 5.254-2.884 8.058-2.02 1.2.353 2.136 1.313 2.599 2.456zm14.617-2.386c2.071.01 4.143.006 6.214.002.892 4.1 1.792 8.196 2.678 12.297.325 1.628.627 3.262.873 4.906.4-1.868.67-3.761 1.08-5.628.842-3.858 1.679-7.718 2.526-11.575 2.07.007 4.141 0 6.21.004C47.889 44.082 45.7 50.859 43.5 57.63c-2.127-.002-4.254.003-6.381-.002-2.21-6.771-4.394-13.547-6.602-20.319z" fill="#000000"/></svg>