<?xml version="1.0" encoding="UTF-8"?>
<svg id="uuid-447d7fef-af4f-4442-9a2d-9ae7181114e4" data-name="Layer 2" xmlns="http://www.w3.org/2000/svg" viewBox="0 0 149.39 34.02">
  <g id="uuid-d096eea1-8db8-4afd-a2e3-56d20229938e" data-name="Logos">
    <g>
      <path d="m0,0h12.7l6.52,18.13L25.74,0h12.46v34.02h-9.71V12.85l-8.33,21.17h-3.23L8.71,12.85v21.17H0V0Z" style="fill: #020204; stroke-width: 0px;"/>
      <path d="m42.1,0h10.51l6.9,23.88L66.46,0h9.13l-11.13,34.02h-11.09L42.1,0Z" style="fill: #020204; stroke-width: 0px;"/>
      <path d="m79.45,0h15.18c8.04,0,11.47,3.62,11.47,8.9v.19c0,3.81-1.95,6.33-5.76,7.33,4.19.71,6.8,3.23,6.8,7.94v.19c0,6.09-3.95,9.47-12.37,9.47h-15.32V0Zm13.23,13.51c3.04,0,4.19-1.05,4.19-3.47v-.19c0-2.33-1.24-3.38-4.19-3.38h-3.71v7.04h3.71Zm.33,13.99c3.09,0,4.52-1.43,4.52-3.95v-.19c0-2.57-1.38-3.9-4.8-3.9h-3.76v8.04h4.04Z" style="fill: #020204; stroke-width: 0px;"/>
      <polygon points="139.07 34.02 129 20.25 112.06 20.25 122.38 0 139.32 0 149.39 13.76 139.07 34.02" style="fill: #020204; stroke-width: 0px;"/>
    </g>
  </g>
</svg>