<?xml version="1.0" encoding="UTF-8" standalone="no"?>
<!DOCTYPE svg PUBLIC "-//W3C//DTD SVG 1.1//EN" "http://www.w3.org/Graphics/SVG/1.1/DTD/svg11.dtd">
<svg viewBox="0 0 107 88" version="1.1" xmlns="http://www.w3.org/2000/svg" xmlns:xlink="http://www.w3.org/1999/xlink" xml:space="preserve" xmlns:serif="http://www.serif.com/" style="fill-rule:evenodd;clip-rule:evenodd;stroke-linejoin:round;stroke-miterlimit:2;">
    <path d="M59.005,42.036C59.008,46.035 59.008,50.031 59.005,54.028C60.638,54.123 62.525,54.69 63.948,53.595C65.368,52.42 65.662,50.45 65.815,48.72C65.851,46.857 65.926,44.962 65.488,43.137C65.294,42.302 64.815,41.441 63.961,41.15C62.288,40.662 60.411,41.015 59.005,42.036ZM53.63,30.043C55.422,30.043 57.215,30.041 59.006,30.045C59.006,32.92 59.01,35.795 59.005,38.668C60.565,37.424 62.597,36.751 64.595,36.954C66.282,37.038 67.996,37.724 69.077,39.061C70.322,40.561 70.841,42.508 71.085,44.405C71.355,46.728 71.347,49.105 70.845,51.397C70.371,53.533 69.225,55.641 67.278,56.761C65.031,58.112 62.298,58.078 59.766,57.929C57.707,57.78 55.657,57.513 53.629,57.127C53.632,48.099 53.629,39.072 53.63,30.043ZM76.634,46.505C79.432,41.001 82.236,35.5 85.045,30.002C89.63,30 94.215,30.002 98.802,30C101.534,33.735 104.266,37.47 107,41.202C104.203,46.704 101.376,52.188 98.605,57.703C95.872,53.972 93.142,50.238 90.415,46.503C85.821,46.503 81.227,46.503 76.634,46.505ZM15.899,39.696C17.383,38.291 19.238,37.144 21.315,36.965C22.882,36.828 24.63,37.013 25.865,38.079C27.095,39.152 27.498,40.857 27.55,42.426C27.554,47.494 27.549,52.562 27.552,57.63C25.759,57.632 23.964,57.632 22.171,57.63C22.174,52.793 22.171,47.959 22.173,43.124C22.205,42.46 21.898,41.694 21.191,41.529C19.543,41.101 17.901,41.837 16.464,42.58C16.466,47.598 16.463,52.616 16.466,57.632C14.673,57.628 12.88,57.633 11.086,57.63C11.085,52.793 11.094,47.959 11.083,43.122C11.095,42.496 10.851,41.755 10.182,41.564C8.529,41.078 6.805,41.751 5.384,42.582C5.387,47.598 5.386,52.614 5.386,57.63C3.59,57.63 1.796,57.63 0.002,57.632C0,50.859 0,44.086 0,37.315C1.5,37.313 2.996,37.315 4.493,37.315C4.748,37.961 4.998,38.611 5.242,39.26C7.374,37.318 10.496,36.376 13.3,37.24C14.5,37.593 15.436,38.553 15.899,39.696ZM30.516,37.31C32.587,37.32 34.659,37.316 36.73,37.312C37.622,41.412 38.522,45.508 39.408,49.609C39.733,51.237 40.035,52.871 40.281,54.515C40.681,52.647 40.951,50.754 41.361,48.887C42.203,45.029 43.04,41.169 43.887,37.312C45.957,37.319 48.028,37.312 50.097,37.316C47.889,44.082 45.7,50.859 43.5,57.63C41.373,57.628 39.246,57.633 37.119,57.628C34.909,50.857 32.725,44.081 30.517,37.309L30.516,37.31Z" style="fill-rule:nonzero;"/>
</svg>
