<svg clip-rule="evenodd" fill-rule="evenodd" stroke-linejoin="round" stroke-miterlimit="2" viewBox="0 0 160 33" xmlns="http://www.w3.org/2000/svg"><g transform="translate(-0 -.000047)"><path d="m21.468 0c-1.562 0-3.1.339-4.187.786-1.086-.447-2.624-.786-4.186-.786-6.881 0-13.095 6.51-13.095 15.437 0 9.737 7.954 17.263 17.281 17.263 9.328 0 17.282-7.526 17.282-17.263 0-8.927-6.214-15.437-13.095-15.437zm-4.187 5.301c1.327.79 3.076 3.076 3.076 5.654 0 1.891-1.246 3.382-3.076 3.382-1.829 0-3.076-1.487-3.076-3.382 0-2.578 1.75-4.864 3.076-5.654zm0 23.147c-7.135 0-13.034-5.739-13.034-13.095 0-6.717 4.85-11.308 8.66-11.138-1.806 1.796-2.898 4.416-2.898 6.956 0 4.361 3.462 7.418 7.277 7.418s7.277-3.057 7.277-7.418c0-2.535-1.096-5.155-2.898-6.956 3.81-.17 8.66 4.416 8.66 11.138 0 7.356-5.904 13.095-13.034 13.095z"/><g fill-rule="nonzero"><path d="m59.45 7.451v3.556h5.423v13.349h3.838v-13.349h5.424v-3.556z"/><path d="m122.653 7.451h-9.671v3.584h9.412c1.378 0 1.919.63 1.919 2.248v.598h-7.798c-2.968 0-4.441 1.481-4.441 4.835v.8c0 3.447 1.529 4.835 4.605 4.835h11.44v-11.11c0-4.257-1.407-5.79-5.466-5.79zm-5.574 13.288c-.583 0-1.232-.297-1.232-1.746 0-1.448.644-1.702 1.232-1.702h7.239v3.452h-7.239z"/><path d="m154.534 7.451h-9.666v3.584h9.412c1.383 0 1.919.63 1.919 2.248v.598h-7.803c-2.968 0-4.44 1.481-4.44 4.835v.8c0 3.447 1.528 4.835 4.605 4.835h11.439v-11.11c0-4.257-1.406-5.79-5.466-5.79zm-5.574 13.288c-.583 0-1.232-.297-1.232-1.746 0-1.448.645-1.702 1.232-1.702h7.239v3.452h-7.239z"/><path d="m75.353 7.451v3.556h5.423v13.349h3.843v-13.349h5.423v-3.556z"/><path d="m128.89 7.451v3.556h5.423v13.349h3.843v-13.349h5.423v-3.556z"/><path d="m110.583 18.429v-5.056c0-4.431-1.717-5.922-5.592-5.922h-10.283v16.9h10.461c4.111 0 5.414-2.041 5.414-5.922zm-3.923.075c0 1.618-.545 2.249-1.928 2.249h-6.185v-9.704h6.185c1.378 0 1.928.63 1.928 2.248z"/><path d="m54.031 20.325c-.08-.156-5.212-10.156-5.842-11.139-.724-1.138-1.604-1.928-3.292-1.928-1.567 0-3.425.696-3.425 4.459v12.639h3.787v-10.541c0-.758-.047-1.877-.057-2.103-.009-.183 0-.362.094-.414.109-.061.217.038.292.179s4.831 9.548 5.842 11.138c.724 1.139 1.604 1.929 3.292 1.929 1.567 0 3.425-.696 3.425-4.459v-12.639h-3.787v10.541c0 .757.047 1.877.057 2.102.009.184 0 .363-.094.414-.109.061-.217-.037-.292-.178z"/></g></g></svg>