<?xml version="1.0" encoding="UTF-8" standalone="no"?>
<!DOCTYPE svg PUBLIC "-//W3C//DTD SVG 1.1//EN" "http://www.w3.org/Graphics/SVG/1.1/DTD/svg11.dtd">
<svg width="100%" height="100%" viewBox="0 0 141 25" version="1.1" xmlns="http://www.w3.org/2000/svg" xmlns:xlink="http://www.w3.org/1999/xlink" xml:space="preserve" xmlns:serif="http://www.serif.com/" style="fill-rule:evenodd;clip-rule:evenodd;stroke-linejoin:round;stroke-miterlimit:2;">
    <g transform="matrix(1,0,0,1,-30,-37)">
        <g id="oreilly" transform="matrix(1,0,0,1,30,37)">
            <path id="Path" d="M71,4.815L71,1L55,1L55,24L71,24L71,20.185L58.846,20.185L58.846,14.408L70.383,14.408L70.383,10.592L58.846,10.592L58.846,4.815L71,4.815Z" style="fill-rule:nonzero;"/>
            <path id="Path1" serif:id="Path" d="M83,24L83,1L86.869,1L86.869,20.185L98,20.185L98,24L83,24Z" style="fill-rule:nonzero;"/>
            <path id="Path2" serif:id="Path" d="M101,24L101,1L104.841,1L104.841,20.185L116,20.185L116,24L101,24Z" style="fill-rule:nonzero;"/>
            <path id="Path3" serif:id="Path" d="M75,1L79,1L79,24L75,24L75,1Z" style="fill-rule:nonzero;"/>
            <path id="Shape" d="M6.284,6.505C4.777,8.056 3.859,10.174 3.859,12.519C3.859,14.864 4.777,16.982 6.284,18.533C7.791,20.083 9.849,21.029 12.127,21.029C14.406,21.029 16.464,20.083 17.97,18.533C19.44,16.944 20.359,14.864 20.359,12.519C20.359,10.174 19.44,8.056 17.934,6.505C16.427,4.955 14.369,4.009 12.09,4.009C9.812,4.009 7.791,4.955 6.284,6.505M0,12.519C0,5.635 5.439,0.038 12.127,0.038C18.816,0.038 24.254,5.635 24.254,12.519C24.254,19.402 18.816,25 12.127,25C5.402,24.962 0,19.402 0,12.519M36.235,10.401L36.235,4.387L44.062,4.387C45.679,4.387 46.965,5.711 46.965,7.375C46.965,9.039 45.679,10.363 44.062,10.363L36.235,10.363L36.235,10.401ZM45.973,14.107C48.766,13.238 50.824,10.59 50.824,7.413C50.824,3.555 47.774,0.416 44.025,0.416L32.339,0.416L32.339,24.357L36.235,24.357L36.235,14.372L41.637,14.372L47.48,24.357L52,24.357L45.973,14.107ZM29.583,2.95C29.583,4.576 28.297,5.9 26.717,5.9C25.136,5.9 23.85,4.576 23.85,2.95C23.85,1.324 25.136,0 26.717,0C28.334,0.038 29.583,1.324 29.583,2.95" style="fill-rule:nonzero;"/>
            <path id="Path4" serif:id="Path" d="M134,1L129.153,1L123.019,9.539L116.847,1L112,1L121.012,13.499L121.012,24L124.988,24L124.988,13.536L134,1Z" style="fill-rule:nonzero;"/>
            <g id="Group" transform="matrix(1,0,0,1,136,0)">
                <path id="Shape1" serif:id="Shape" d="M2.5,4.615C1.346,4.615 0.385,3.686 0.385,2.5C0.385,1.346 1.314,0.385 2.5,0.385C3.654,0.385 4.615,1.314 4.615,2.5C4.615,3.654 3.686,4.615 2.5,4.615M2.5,0C1.122,0 0,1.122 0,2.5C0,3.878 1.122,5 2.5,5C3.878,5 5,3.878 5,2.5C5,1.122 3.878,0 2.5,0" style="fill-rule:nonzero;"/>
                <path id="Shape2" serif:id="Shape" d="M1.891,1.635L2.885,1.635C3.077,1.635 3.205,1.763 3.205,1.955C3.205,2.147 3.077,2.276 2.885,2.276L1.891,2.276L1.891,1.635ZM3.622,1.955C3.622,1.538 3.301,1.218 2.885,1.218L1.474,1.218L1.474,3.782L1.891,3.782L1.891,2.724L2.596,2.724L3.109,3.782L3.59,3.782L3.077,2.692C3.397,2.596 3.622,2.308 3.622,1.955Z" style="fill-rule:nonzero;"/>
            </g>
        </g>
    </g>
</svg>
