<?xml version="1.0" encoding="UTF-8"?>
<svg viewBox="0 0 211.322834 46.7901762" version="1.1" xmlns="http://www.w3.org/2000/svg" xmlns:xlink="http://www.w3.org/1999/xlink">
    <title>Combined Shape</title>
    <g id="Page-1" stroke="none" stroke-width="1" fill="none" fill-rule="evenodd">
        <path d="M47.4287639,0 C50.8304722,0 53.5880646,2.77537513 53.5880646,6.19873205 L53.5880646,40.4782212 C53.5880646,43.9004186 50.8304722,46.6760256 47.4287639,46.6760256 C45.7657065,46.6760256 44.2566008,46.0126213 43.1484075,44.9344537 L43.0473664,44.832478 L32.953,34.674 L32.9532752,40.4782212 C32.9521201,43.9006505 30.1954518,46.6760256 26.7939746,46.6760256 C23.3924973,46.6760256 20.6346739,43.9006505 20.6346739,40.4772936 L20.6346739,19.5350044 C20.6346739,16.1116475 23.3924973,13.3360404 26.7939746,13.3360404 C28.456919,13.3360404 29.9660222,13.9994448 31.0742425,15.0776124 L31.1843592,15.1885865 L41.269,25.338 L41.2694632,6.19873205 C41.2694632,2.77537513 44.0270556,0 47.4287639,0 Z M6.15930069,46.6765126 C2.75782342,46.6765126 0,43.9009056 0,40.4775487 L0,32.8713 C0,29.4477111 2.75782342,26.672336 6.15930069,26.672336 C9.56077797,26.672336 12.3186014,29.4477111 12.3186014,32.8713 L12.3186014,40.4775487 C12.3174462,43.9009056 9.55985384,46.6765126 6.15930069,46.6765126 M73.4729488,33.0927131 C73.0263648,33.0927131 72.5816291,33.1495332 72.1505243,33.2617821 C69.1716037,34.0407981 68.1102448,36.814086 68.1102448,39.148583 C68.1102448,40.6824955 68.448706,41.9580502 69.1143078,42.9386039 C69.8069404,43.9599754 70.9676428,44.7334254 72.2988465,45.0618227 C73.7945446,45.4294144 75.4249342,45.0877977 76.7693067,44.1257975 C78.3451728,42.9975114 79.2200892,40.8777714 79.0551327,38.5966157 C78.8971071,36.4202874 77.8228105,34.6145658 76.1806383,33.7701486 C75.3392215,33.3380834 74.4266469,33.1036133 73.5390238,33.0915535 C73.5173068,33.0927131 73.4958209,33.0927131 73.4729488,33.0927131 M73.504138,46.2944724 C73.0120408,46.2944724 72.5210988,46.2367246 72.0410153,46.1177501 C70.4547528,45.7271984 69.0630188,44.7911732 68.222064,43.5517979 C67.430781,42.3866366 67.0294793,40.9039782 67.0294793,39.1476553 C67.0294793,35.6489247 68.8876659,32.9890453 71.8792932,32.2067824 C72.4256828,32.0650798 72.9937893,32.0094193 73.5531167,32.0038532 C74.6056964,32.0182322 75.6841516,32.2930562 76.6727355,32.8014228 C78.654293,33.8214027 79.9487626,35.957609 80.1338189,38.5170675 C80.3267302,41.1757873 79.277385,43.6652063 77.3967883,45.0114963 C76.2215309,45.8538262 74.8582138,46.2944724 73.504138,46.2944724 M93.8598875,32.6162586 L84.6493533,32.6162586 C84.3501675,32.6162586 84.1082775,32.8595417 84.1082775,33.1605726 C84.1082775,33.4618354 84.3501675,33.7051185 84.6493533,33.7051185 L88.7143532,33.7051185 L88.7143532,45.8539654 C88.7143532,46.1552282 88.9557811,46.3985113 89.255198,46.3985113 C89.5543838,46.3985113 89.7958118,46.1552282 89.7958118,45.8539654 L89.7958118,33.7039589 L93.8608116,33.7039589 C94.1599975,33.7039589 94.4018875,33.4606758 94.4018875,33.1596449 C94.4018875,32.8583821 94.1590733,32.6162586 93.8598875,32.6162586 M99.669083,41.9799434 L102.942569,33.9722428 C102.954813,33.9404699 102.9696,33.9068417 102.986927,33.8718219 C103.007489,33.9089289 103.029206,33.9536893 103.053002,34.0070307 C103.407866,34.7957873 104.999212,38.7998695 106.25533,41.9799434 L99.669083,41.9799434 Z M108.8646,45.653309 C108.692251,45.2156778 104.649892,34.9191683 104.037427,33.5587312 C103.754645,32.9304625 103.382684,32.6400999 102.954813,32.6336062 C102.318091,32.6577257 102.008046,33.3766748 101.935271,33.5761251 L98.3681444,42.3006874 C98.3639859,42.3115876 98.3584411,42.3213282 98.3542825,42.333388 L97.0002067,45.6456557 C96.8863082,45.9237266 97.0186893,46.2412238 97.2938478,46.3546322 C97.5715477,46.4724471 97.8857506,46.3372383 97.9994181,46.0591674 L99.2234232,43.0664841 L106.683662,43.0664841 C107.351113,44.759725 107.844365,46.0153347 107.858227,46.051514 C107.942091,46.2653434 108.145861,46.3949861 108.360258,46.3949861 C108.426333,46.3949861 108.493563,46.3831582 108.558714,46.3569514 C108.837107,46.2477175 108.973647,45.9325396 108.8646,45.653309 L108.8646,45.653309 Z M117.427599,46.4623818 C116.89022,46.4623818 116.454263,46.0238229 116.454263,45.4827558 L116.454263,33.5475063 C116.454263,33.0064392 116.89022,32.5678803 117.427599,32.5678803 C117.964978,32.5678803 118.400935,33.0064392 118.400935,33.5475063 L118.400935,45.4836835 C118.400011,46.0238229 117.964054,46.4623818 117.427599,46.4623818 M158.753365,32.5669062 C158.215985,32.5669062 157.780029,33.0054651 157.780029,33.5465323 L157.780029,45.4829413 C157.780029,46.0240084 158.215985,46.4625673 158.753365,46.4625673 C159.291206,46.4625673 159.727163,46.0240084 159.727163,45.4829413 L159.727163,33.5465323 C159.727163,33.0054651 159.28982,32.5669062 158.753365,32.5669062 M135.284927,32.5677411 C134.747086,32.5677411 134.311129,33.0063 134.311129,33.5473672 L134.311129,42.7093288 L126.377507,32.8056901 C126.041356,32.3845251 125.430277,32.3179643 125.010724,32.6584215 C124.761441,32.8601911 124.654242,33.1591347 124.665794,33.4580783 C124.66256,33.4896193 124.647773,33.5158262 124.647773,33.5473672 L124.647773,45.4837762 C124.647773,46.0248433 125.083499,46.4634022 125.620878,46.4634022 C126.158951,46.4634022 126.594676,46.0248433 126.594676,45.4837762 L126.594676,36.1942591 L134.528068,46.0978978 C134.715897,46.3335276 134.996369,46.4634022 135.284927,46.4634022 C135.39305,46.4634022 135.502559,46.4448487 135.608834,46.4065821 C135.997198,46.2681264 136.258263,45.8993751 136.258263,45.4837762 L136.258263,33.5473672 C136.258263,33.0063 135.822307,32.5677411 135.284927,32.5677411 M148.942102,38.9241781 C148.507301,38.7551092 148.000187,38.6187408 147.464425,38.4723999 C145.49696,37.9401457 144.103378,37.472133 144.077271,36.2937524 C144.059944,35.4407542 145.126386,34.6311248 146.094639,34.4370086 C147.307323,34.1958128 148.802328,34.464375 150.091946,35.1592045 L150.251358,35.2475656 C150.714345,35.5193747 151.311793,35.3632932 151.581638,34.8952806 C151.852407,34.4293553 151.695536,33.8282211 151.231625,33.5566439 L151.009373,33.4311757 C149.310829,32.5181105 147.384257,32.1873939 145.716209,32.5169509 C143.923404,32.8757296 142.092479,34.4022207 142.133603,36.3364255 C142.192285,39.073534 145.060311,39.8504628 146.959621,40.3641635 C147.445018,40.4963573 147.90454,40.6206659 148.245311,40.7514682 C150.07485,41.4595171 150.167032,42.2865404 150.196373,42.5581176 C150.252744,43.0688033 149.997916,43.6599649 149.548098,44.0637359 C149.103824,44.4619409 148.452316,44.7249371 147.713939,44.8000789 C146.190979,44.9626541 144.643068,44.5152823 143.476358,43.5836635 C143.053571,43.2476129 142.443647,43.3197397 142.109807,43.7418323 C141.775966,44.1662442 141.847355,44.7815254 142.266908,45.1175761 C143.621908,46.1987826 145.350717,46.7901762 147.108867,46.7901762 C147.37594,46.7901762 147.644398,46.7755653 147.911009,46.7484307 C149.071249,46.6296882 150.084553,46.2052763 150.842337,45.524594 C151.761611,44.6998899 152.254864,43.4823149 152.128951,42.3442882 C151.963071,40.8268419 150.890853,39.6769873 148.942102,38.9241781 M177.154657,39.0620772 L172.274347,39.0620772 C171.736967,39.0620772 171.301242,39.5006361 171.301242,40.0417032 C171.301242,40.5830023 171.736967,41.0215612 172.274347,41.0215612 L176.180859,41.0215612 L176.180859,43.2373156 C175.631466,43.7227222 174.231184,44.7645025 172.304843,44.7035078 C170.858816,44.6566602 169.484179,43.917998 168.53487,42.6765354 C167.577476,41.4241726 167.216604,39.8835344 167.545131,38.4512025 C168.012277,36.4121703 169.766268,34.3490185 172.309463,34.3480908 C173.80932,34.321884 175.006295,34.734236 175.780019,35.5754064 C176.144125,35.9724518 176.76121,35.9965714 177.154657,35.6287478 C177.549028,35.2611561 177.573286,34.6414684 177.207794,34.2455826 C176.062109,32.9997135 174.311352,32.371213 172.212892,32.3918537 C169.157038,32.3918537 166.397135,34.7560364 165.649055,38.0126436 C165.188609,40.0178156 165.67932,42.1549495 166.994352,43.87231 C168.299449,45.5806256 170.213776,46.5973587 172.244081,46.6620641 C172.318705,46.6639194 172.39379,46.6662386 172.467489,46.6662386 C175.708861,46.665311 177.784449,44.4133771 177.87201,44.3141157 C178.036042,44.1339146 178.12707,43.8982849 178.12707,43.6550018 L178.12707,40.0428628 C178.127993,39.5006361 177.691112,39.0620772 177.154657,39.0620772 M194.658206,32.5669062 C194.120827,32.5669062 193.684871,33.0054651 193.684871,33.5465323 L193.684871,38.3491117 L185.904191,38.3491117 L185.904191,33.5465323 C185.904191,33.0054651 185.468234,32.5669062 184.930393,32.5669062 C184.393013,32.5669062 183.957057,33.0054651 183.957057,33.5465323 L183.957057,45.4829413 C183.957057,46.0240084 184.393013,46.4625673 184.930393,46.4625673 C185.468234,46.4625673 185.904191,46.0240084 185.904191,45.4829413 L185.904191,40.3083637 L193.684871,40.3083637 L193.684871,45.4829413 C193.684871,46.0240084 194.120827,46.4625673 194.658206,46.4625673 C195.196048,46.4625673 195.631542,46.0240084 195.631542,45.4829413 L195.631542,33.5465323 C195.631542,33.0054651 195.196048,32.5669062 194.658206,32.5669062 M210.349499,32.5669062 L201.50307,32.5669062 C200.965691,32.5669062 200.529734,33.0054651 200.529734,33.5465323 C200.529734,34.0875994 200.965691,34.5261583 201.50307,34.5261583 L204.953295,34.5261583 L204.953295,45.6016839 C204.953295,46.1429829 205.389021,46.5815418 205.927093,46.5815418 C206.464472,46.5815418 206.900198,46.1429829 206.900198,45.6016839 L206.900198,34.5252306 L210.349499,34.5252306 C210.88734,34.5252306 211.322834,34.0866717 211.322834,33.5453727 C211.322834,33.0054651 210.88734,32.5669062 210.349499,32.5669062" id="Combined-Shape" fill="#000000"></path>
    </g>
</svg>