<?xml version="1.0" encoding="UTF-8" standalone="no"?>
<!DOCTYPE svg PUBLIC "-//W3C//DTD SVG 1.1//EN" "http://www.w3.org/Graphics/SVG/1.1/DTD/svg11.dtd">
<svg width="100%" height="100%" viewBox="0 0 652 220" version="1.1" xmlns="http://www.w3.org/2000/svg" xmlns:xlink="http://www.w3.org/1999/xlink" xml:space="preserve" xmlns:serif="http://www.serif.com/" style="fill-rule:evenodd;clip-rule:evenodd;stroke-linejoin:round;stroke-miterlimit:2;">
    <g transform="matrix(1,0,0,1,-0.00023121,-0.15987)">
        <g transform="matrix(1.25,0,0,-1.25,0,219.9)">
            <path id="path3354" d="M471.711,99.237L471.236,93.566C467.928,52.928 454.699,40.404 438.396,40.404C423.744,40.404 413.346,50.327 415.474,76.789L415.947,82.699C419.257,123.103 432.485,135.862 448.788,135.862C463.204,135.862 473.837,125.699 471.711,99.237M105.475,99.237L105,93.566C101.696,52.928 88.462,40.404 72.159,40.404C57.508,40.404 47.115,50.327 49.241,76.789L49.71,82.699C53.021,123.103 66.253,135.862 82.557,135.862C96.968,135.862 107.601,125.699 105.475,99.237M453.515,175.792C427.558,175.792 406.444,167.79 391.526,151.225C393.651,156.976 394.771,163.988 394.917,172.248L303.95,172.248C284.103,172.248 272.761,163.507 264.964,141.059L268.982,172.248L177.067,172.248C160.24,172.248 148.687,164.202 144.513,148.445C133.123,166.699 112.884,175.792 87.28,175.792C38.609,175.792 6.946,147.673 1.275,87.661L0.566,80.099C-4.396,26.461 23.723,0 67.432,0C116.107,0 147.771,28.353 153.441,88.37L154.15,95.928C155.429,109.691 154.495,121.651 151.678,131.844L192.897,131.844L181.086,30.714C178.72,10.632 189.592,1.417 207.782,1.417C218.889,1.417 222.668,2.126 226.921,2.834L241.572,131.844L289.538,131.844L277.723,30.714C275.361,10.632 286.229,1.417 304.424,1.417C315.526,1.417 319.31,2.126 323.563,2.834L338.209,131.844L361.84,131.844C370.015,131.844 376.617,133.744 381.713,137.5C374.273,124.391 369.417,107.836 367.51,87.661L366.802,80.099C361.84,26.461 389.955,0 433.667,0C482.344,0 514.001,28.353 519.673,88.37L520.382,95.928C525.345,149.33 497.229,175.792 453.515,175.792" style="fill-rule:nonzero;"/>
        </g>
    </g>
</svg>
