<svg clip-rule="evenodd" fill-rule="evenodd" stroke-linejoin="round" stroke-miterlimit="2" viewBox="0 0 1000 111" xmlns="http://www.w3.org/2000/svg"><g transform="matrix(5.59021 0 0 5.59021 0 -189.43)"><path d="m103.415 34.5-8.415 19h2.152l2.215-4.987h11.267l2.215 4.987h2.151l-8.415-19zm1.585 1.325 4.832 10.883h-9.665z"/><path d="m0 52.391h1.984v-6.729h8.073c4.185 0 6.538-2.492 6.538-6.056 0-3.967-2.755-5.978-5.67-5.978h-10.925zm1.984-16.98h8.667c2.242 0 3.834 1.38 3.834 4.195 0 2.17-.945 4.295-4.24 4.295h-8.26v-8.491z" transform="translate(0 .773)"/><path d="m63.534 53.118h13.907v-1.783h-11.923v-16.98h-1.985zm16.45 0h13.907v-1.783h-11.923v-16.98h-1.985zm42.189 0h1.971v-16.981h7.817v-1.782h-17.632v1.782h7.844z" fill="#0c2340"/><path d="m2.342 43.75c0-5.655 3.996-8.014 8.154-8.014 4.159 0 8.128 2.359 8.128 8.014 0 5.601-3.97 8.068-8.128 8.068s-8.154-2.467-8.154-8.068m-2.079 0c0 6.644 4.833 9.837 10.233 9.837 5.37 0 10.26-3.19 10.288-9.837 0-6.644-4.914-9.864-10.288-9.864-5.4 0-10.233 3.217-10.233 9.864" transform="translate(18.678)"/><path d="m43.636 53.118h15.026v-1.769h-13.041v-6.721h11.718v-1.785h-11.718v-6.707h13.041v-1.783h-15.026zm91.512 0h1.985v-8.491h12.918v8.491h1.985v-18.763h-1.982v8.488h-12.919v-8.488h-1.984z"/><path d="m178.884 42.843h-8.458v-8.488h-1.985v8.488h-8.458v1.783h8.458v8.493h1.985v-8.491h8.458z"/></g></svg>