<svg xmlns="http://www.w3.org/2000/svg" xmlns:xlink="http://www.w3.org/1999/xlink" viewBox="0 0 179 21" width="179" height="88">

  <g fill="none" fill-rule="evenodd">
    <path fill="#000000" d="M103.415 1 95 20h2.152l2.215-4.987h11.267L112.849 20H115l-8.415-19h-3.17zM105 2.325l4.832 10.883h-9.665L105 2.325z"/>
    <g fill="#000000" transform="translate(0 .773)">
      <path d="M0 18.891h1.984v-6.729h8.073c4.185 0 6.538-2.492 6.538-6.056 0-3.967-2.755-5.978-5.67-5.978H0v18.763zm1.984-16.98h8.667c2.242 0 3.834 1.38 3.834 4.195 0 2.17-.945 4.295-4.24 4.295h-8.26V1.91z" />
    </g>
    <path fill="#0c2340" d="M63.534 19.618h13.907v-1.783H65.518V.855h-1.985zm16.45 0h13.907v-1.783H81.968V.855h-1.985zm42.189 0h1.971V2.637h7.817V.855h-17.632v1.782h7.844z"/>
    <g fill="#000000" transform="translate(18.678)">
      <path d="M2.342 10.25c0-5.655 3.996-8.014 8.154-8.014 4.159 0 8.128 2.359 8.128 8.014 0 5.601-3.97 8.068-8.128 8.068-4.158 0-8.154-2.467-8.154-8.068m-2.079 0c0 6.644 4.833 9.837 10.233 9.837 5.37 0 10.26-3.19 10.288-9.837 0-6.644-4.914-9.864-10.288-9.864C5.096.386.263 3.603.263 10.25" />
    </g>
    <path fill="#000000" d="M43.636 19.618h15.026v-1.769H45.621v-6.721h11.718V9.343H45.621V2.636h13.041V.853H43.636zm91.512 0h1.985v-8.491h12.918v8.491h1.985V.855h-1.982v8.488h-12.919V.855h-1.984z"/>
    <path fill="#000000" d="M178.884 9.343h-8.458V.855h-1.985v8.488h-8.458v1.783h8.458v8.493h1.985v-8.491h8.458z"/>
  </g>
</svg>
