<?xml version="1.0" encoding="UTF-8" standalone="no"?>
<!DOCTYPE svg PUBLIC "-//W3C//DTD SVG 1.1//EN" "http://www.w3.org/Graphics/SVG/1.1/DTD/svg11.dtd">
<svg viewBox="0 0 179 20" version="1.1" xmlns="http://www.w3.org/2000/svg" xmlns:xlink="http://www.w3.org/1999/xlink" xml:space="preserve" xmlns:serif="http://www.serif.com/" style="fill-rule:evenodd;clip-rule:evenodd;stroke-linejoin:round;stroke-miterlimit:2;">
    <g transform="matrix(1,0,0,1,0,-33.886)">
        <g>
            <path d="M103.415,34.5L95,53.5L97.152,53.5L99.367,48.513L110.634,48.513L112.849,53.5L115,53.5L106.585,34.5L103.415,34.5ZM105,35.825L109.832,46.708L100.167,46.708L105,35.825Z"/>
            <g transform="matrix(1,0,0,1,0,0.773)">
                <path d="M0,52.391L1.984,52.391L1.984,45.662L10.057,45.662C14.242,45.662 16.595,43.17 16.595,39.606C16.595,35.639 13.84,33.628 10.925,33.628L0,33.628L0,52.391ZM1.984,35.411L10.651,35.411C12.893,35.411 14.485,36.791 14.485,39.606C14.485,41.776 13.54,43.901 10.245,43.901L1.985,43.901L1.985,35.41L1.984,35.411Z"/>
            </g>
            <path d="M63.534,53.118L77.441,53.118L77.441,51.335L65.518,51.335L65.518,34.355L63.533,34.355L63.534,53.118ZM79.984,53.118L93.891,53.118L93.891,51.335L81.968,51.335L81.968,34.355L79.983,34.355L79.984,53.118ZM122.173,53.118L124.144,53.118L124.144,36.137L131.961,36.137L131.961,34.355L114.329,34.355L114.329,36.137L122.173,36.137L122.173,53.118Z" style="fill:rgb(12,35,64);"/>
            <g transform="matrix(1,0,0,1,18.678,0)">
                <path d="M2.342,43.75C2.342,38.095 6.338,35.736 10.496,35.736C14.655,35.736 18.624,38.095 18.624,43.75C18.624,49.351 14.654,51.818 10.496,51.818C6.338,51.818 2.342,49.351 2.342,43.75M0.263,43.75C0.263,50.394 5.096,53.587 10.496,53.587C15.866,53.587 20.756,50.397 20.784,43.75C20.784,37.106 15.87,33.886 10.496,33.886C5.096,33.886 0.263,37.103 0.263,43.75"/>
            </g>
            <path d="M43.636,53.118L58.662,53.118L58.662,51.349L45.621,51.349L45.621,44.628L57.339,44.628L57.339,42.843L45.621,42.843L45.621,36.136L58.662,36.136L58.662,34.353L43.636,34.353L43.636,53.118ZM135.148,53.118L137.133,53.118L137.133,44.627L150.051,44.627L150.051,53.118L152.036,53.118L152.036,34.355L150.054,34.355L150.054,42.843L137.135,42.843L137.135,34.355L135.151,34.355L135.148,53.118Z"/>
            <path d="M178.884,42.843L170.426,42.843L170.426,34.355L168.441,34.355L168.441,42.843L159.983,42.843L159.983,44.626L168.441,44.626L168.441,53.119L170.426,53.119L170.426,44.628L178.884,44.628L178.884,42.843Z"/>
        </g>
    </g>
</svg>
