<?xml version="1.0" encoding="UTF-8"?>
<svg width="196.674774px" height="26.6554987px" viewBox="0 0 196.674774 26.6554987" version="1.1" xmlns="http://www.w3.org/2000/svg" xmlns:xlink="http://www.w3.org/1999/xlink">
    <title>Group 9</title>
    <g id="Page-1" stroke="none" stroke-width="1" fill="none" fill-rule="evenodd">
        <g id="Group-9" transform="translate(0, 0)" fill="#000000">
            <path d="M57.3766438,13.2508102 C57.3766438,10.8360692 55.7665851,9.32186978 53.545679,9.32186978 C51.3250038,9.32186978 49.7149451,10.8360692 49.7149451,13.2508102 C49.7149451,15.6678704 51.3250038,17.1797506 53.545679,17.1797506 C55.7665851,17.1797506 57.3766438,15.6678704 57.3766438,13.2508102 M62.2042788,13.2508102 C62.2042788,18.049447 58.7286404,21.7555132 54.5118528,21.7555132 C52.3549424,21.7555132 50.7779212,21.0138362 49.7172554,19.7909271 L49.7172554,26.6554987 L44.8896205,26.6554987 L44.8896205,5.1985812 L49.7172554,5.1985812 L49.7172554,6.7127806 C50.7802315,5.48778424 52.3570217,4.74819355 54.5118528,4.74819355 C58.7286404,4.74610716 62.2042788,8.45217338 62.2042788,13.2508102" id="Fill-119"></path>
            <path d="M73.4973543,4.87586586 L73.4973543,10.1246575 C71.2082939,9.9282221 68.6697194,10.9479701 68.6697194,14.0227527 L68.6697194,21.3024594 L63.8420844,21.3024594 L63.8420844,5.1980014 L68.6697194,5.1980014 L68.6697194,8.06544839 C69.3136042,5.90674598 71.4705146,4.87586586 73.4973543,4.87586586" id="Fill-120"></path>
            <path d="M86.2761243,13.2498129 C86.2761243,10.9630912 84.6660655,9.44889183 82.5754612,9.44889183 C80.4825465,9.44889183 78.8747981,10.9630912 78.8747981,13.2498129 C78.8747981,15.5365347 80.4846258,17.0507341 82.5754612,17.0507341 C84.6660655,17.0507341 86.2761243,15.5365347 86.2761243,13.2498129 M74.0471631,13.2498129 C74.0471631,8.45117613 77.8448595,4.7451099 82.5754612,4.7451099 C87.3060629,4.7451099 91.1037592,8.44908886 91.1037592,13.2498129 C91.1037592,18.050537 87.3060629,21.754516 82.5754612,21.754516 C77.8448595,21.754516 74.0471631,18.0484498 74.0471631,13.2498129" id="Fill-121"></path>
            <path d="M104.878391,13.2503696 C104.878391,10.8356285 103.268332,9.32119721 101.047657,9.32119721 C98.8267506,9.32119721 97.2166919,10.8356285 97.2166919,13.2503696 C97.2166919,15.6674298 98.8267506,17.17931 101.047657,17.17931 C103.268332,17.17931 104.878391,15.6674298 104.878391,13.2503696 L104.878391,13.2503696 Z M109.705564,0.00222642277 L109.705564,21.3025986 L104.878391,21.3025986 L104.878391,19.7883992 C103.815415,21.0110763 102.238393,21.7527534 100.083793,21.7527534 C95.8670057,21.7527534 92.3913673,18.0490064 92.3913673,13.2480504 C92.3913673,8.44732628 95.8670057,4.74357924 100.083793,4.74357924 C102.240704,4.74357924 103.817494,5.48525632 104.878391,6.70793349 L104.878391,0.00222642277 L109.705564,0.00222642277 Z" id="Fill-122"></path>
            <path d="M127.452181,5.19832609 L127.452181,21.3025522 L122.624778,21.3025522 L122.624778,19.7883528 C121.755175,20.9804166 120.145809,21.7529389 118.021705,21.7529389 C114.771092,21.7529389 112.003334,19.4330528 112.003334,15.0848028 L112.003334,5.19623882 L116.830738,5.19623882 L116.830738,14.3760582 C116.830738,16.3738088 118.086163,17.3075148 119.632226,17.3075148 C121.402159,17.3075148 122.624778,16.2766347 122.624778,13.989913 L122.624778,5.19832609 L127.452181,5.19832609 Z" id="Fill-123"></path>
            <path d="M129.318362,13.2498129 C129.318362,8.45117613 132.955722,4.7451099 137.847353,4.7451099 C140.970206,4.7451099 143.737733,6.38732861 145.12115,8.86839848 L140.903669,11.3163039 C140.35728,10.1882497 139.199118,9.51290149 137.780816,9.51290149 C135.688363,9.51290149 134.144611,11.0271009 134.144611,13.2498129 C134.144611,15.472525 135.688363,16.9867244 137.780816,16.9867244 C139.196808,16.9867244 140.387776,16.3113762 140.903669,15.183322 L145.12115,17.5982949 C143.735654,20.1099781 141.000702,21.754516 137.847353,21.754516 C132.955722,21.754516 129.318362,18.0484498 129.318362,13.2498129" id="Fill-124"></path>
            <path d="M151.620067,9.83594152 L151.620067,15.5374391 C151.620067,16.9236192 152.811034,17.0516385 154.935138,16.9236192 L154.935138,21.3029464 C148.627284,21.9474494 146.792894,20.0468729 146.792894,15.5374391 L146.792894,9.83594152 L146.792894,5.19848843 L146.792894,3.40181164 L151.620067,1.59168355 L151.620067,5.19616924 L154.935138,5.19616924 L154.935138,9.83385425 L151.620067,9.83385425 L151.620067,9.83594152 Z" id="Fill-125"></path>
            <polygon id="Fill-126" points="157.153226 21.3024362 161.980399 21.3024362 161.980399 5.19821013 157.153226 5.19821013"></polygon>
            <polygon id="Fill-127" points="180.486325 5.19821013 174.531487 21.3047554 169.059505 21.3047554 163.104667 5.19821013 168.448658 5.19821013 171.796536 15.4091415 175.144414 5.19821013"></polygon>
            <path d="M192.063846,11.6428459 C191.633204,9.82622411 190.218367,8.86399202 188.553091,8.86399202 C186.618202,8.86399202 185.249109,9.91226607 184.772722,11.6428459 L192.063846,11.6428459 Z M188.916966,17.5495919 C190.235925,17.5495919 191.227974,17.1611275 192.239661,16.3487151 L195.868474,18.4369142 C194.291684,20.6264618 191.909748,21.754516 188.852508,21.754516 C183.347951,21.754516 179.938849,18.050537 179.938849,13.2498129 C179.938849,8.44908886 183.414488,4.7451099 188.499723,4.7451099 C193.199135,4.7451099 196.674774,8.38484729 196.674774,13.2498129 C196.674774,13.9251612 196.611471,14.452777 196.4814,15.0641156 L184.960551,15.0641156 C185.571398,16.7394987 187.145878,17.5495919 188.916966,17.5495919 L188.916966,17.5495919 Z" id="Fill-128"></path>
            <path d="M6.59505788,25.1096191 L0.185550033,14.2342397 C-0.188258988,13.6008688 0.0205935183,12.7819627 0.651540637,12.4067177 L5.71321051,9.40035118 C6.34438866,9.02510618 7.16016101,9.23476099 7.53397003,9.8683638 L11.1401412,15.9868519 L14.8803107,9.52628322 C19.5570821,1.82935418 24.399041,10.3361445 22.193614,13.9517623 L15.7575375,25.0720483 C15.2058342,26.0277866 14.1897575,26.6170929 13.0881991,26.6214994 L9.27317542,26.6370627 C8.17392738,26.6414444 7.15577141,26.0586318 6.59505788,25.1096191" id="Fill-129"></path>
            <path d="M13.7540782,20.4262693 C14.8094303,22.2252653 17.4041454,22.2164523 18.448639,20.4107307 L22.1955084,13.9390299 C24.1479559,10.7406345 26.3556932,9.02999967 29.1151339,8.65266739 C29.7835081,8.56198705 30.4387135,8.40776089 30.6170699,7.39659388 L31.6414637,1.62899932 C31.8151994,0.790380082 31.1775524,0 30.3222736,0 C25.2936413,0 19.4446159,2.00215706 14.8822052,9.51123167 L11.1397254,15.9741195 L13.7540782,20.4262693 Z M33.7041132,16.9430772 C33.7041132,19.6096823 31.5513614,21.770472 28.8951919,21.770472 C26.2390223,21.770472 24.0865015,19.6096823 24.0865015,16.9430772 C24.0865015,14.2767041 26.2390223,12.1159144 28.8951919,12.1159144 C31.5513614,12.1159144 33.7041132,14.2767041 33.7041132,16.9430772 L33.7041132,16.9430772 Z" id="Fill-130"></path>
        </g>
    </g>
</svg>