<svg clip-rule="evenodd" fill-rule="evenodd" stroke-linejoin="round" stroke-miterlimit="2" viewBox="0 0 1000 283" xmlns="http://www.w3.org/2000/svg"><g fill-rule="nonzero" transform="matrix(7.17358 0 0 7.17358 0 -4.756462)"><path d="m71.511 38.532h5.28v-14.909c0-3.578 2.565-6.411 5.884-6.411s6.185 2.683 6.185 6.411v14.909h5.733v-15.207c0-6.411-5.28-11.331-11.013-11.331-2.112 0-4.828.745-6.789 3.429v-2.833h-5.28z"/><path d="m125.521 11.994c-7.694 0-13.729 6.113-13.729 13.716 0 7.753 5.884 13.419 13.729 13.419s13.879-5.666 13.879-13.419c0-7.603-5.883-13.716-13.879-13.716zm0 21.768c-4.375 0-7.845-3.578-7.845-8.051 0-4.771 3.621-8.2 7.845-8.2 4.526 0 8.147 3.429 8.147 8.2 0 4.473-3.47 8.051-8.147 8.051z"/><path d="m110.887 38.532v-5.517c-3.923 1.939-7.694.448-7.694-3.876v-11.331h7.09v-5.218h-7.09v-6.709h-5.582v22.363c0 9.244 6.336 12.375 13.276 10.287z"/><path d="m54.614 11.994c-7.695 0-13.729 6.113-13.729 13.716 0 7.753 5.884 13.419 13.729 13.419s13.879-5.666 13.879-13.419c0-7.603-5.884-13.716-13.879-13.716zm0 21.768c-4.375 0-7.845-3.578-7.845-8.051 0-4.771 3.47-8.2 7.845-8.2 4.526 0 8.146 3.429 8.146 8.2 0 4.473-3.62 8.051-8.146 8.051z"/><path d="m19.16.663c-10.862 0-19.16 8.2-19.16 19.382 0 10.734 8.298 19.232 19.16 19.232 11.164 0 19.462-8.498 19.462-19.083 0-11.331-8.298-19.531-19.462-19.531zm0 32.8c-7.543 0-13.125-5.665-13.125-13.418 0-8.051 5.582-14.015 13.125-14.015 7.694 0 13.276 5.964 13.276 13.866s-5.582 13.567-13.276 13.567z"/><path d="m37.717 40.024c-10.863-1.193-17.802-6.56-21.273-16.698l5.431-1.789c2.716 8.051 7.845 12.076 16.445 12.971l-.604 5.516z"/></g></svg>