<?xml version="1.0" encoding="UTF-8" standalone="no"?>
<!DOCTYPE svg PUBLIC "-//W3C//DTD SVG 1.1//EN" "http://www.w3.org/Graphics/SVG/1.1/DTD/svg11.dtd">
<svg width="100%" height="100%" viewBox="0 0 360 120" version="1.1" xmlns="http://www.w3.org/2000/svg" xmlns:xlink="http://www.w3.org/1999/xlink" xml:space="preserve" xmlns:serif="http://www.serif.com/" style="fill-rule:evenodd;clip-rule:evenodd;stroke-linejoin:round;stroke-miterlimit:2;">
    <path d="M33.86,38.253C33.86,17.716 50.508,1.058 71.055,1.058L37.176,1.058C16.639,1.058 0,17.706 0,38.234L0,107.897L33.869,107.897L33.869,38.253L33.86,38.253Z" style="fill-rule:nonzero;"/>
    <path d="M71.045,75.438L52.1,75.438L64.603,107.897L100.445,107.897L85.035,72.713C80.718,74.466 75.991,75.438 71.045,75.438Z" style="fill-rule:nonzero;"/>
    <path d="M108.24,38.253C108.24,17.716 91.592,1.058 71.045,1.058C50.508,1.058 33.85,17.706 33.85,38.253L33.85,75.448L71.045,75.448C75.991,75.448 80.718,74.476 85.035,72.722C98.644,67.195 108.24,53.844 108.24,38.253Z" style="fill-rule:nonzero;"/>
    <path d="M149.238,51.709L135.029,35.527L131.655,35.527L131.655,51.709L120.048,51.709L120.048,4.574L143.901,4.574C149.009,4.574 153.116,5.994 156.213,8.834C159.311,11.674 160.854,15.391 160.854,19.984C160.854,23.834 159.749,27.074 157.548,29.724C155.346,32.373 152.316,34.117 148.475,34.965L163.246,51.709L149.238,51.709ZM142.624,25.816C144.692,25.816 146.34,25.302 147.579,24.273C148.818,23.243 149.447,21.862 149.447,20.118C149.447,18.374 148.828,17.068 147.579,16.039C146.331,15.009 144.682,14.495 142.624,14.495L131.645,14.495L131.645,25.826L142.624,25.826L142.624,25.816Z" style="fill-rule:nonzero;"/>
    <path d="M203.339,51.709L192.084,51.709L192.084,48.898C189.225,51.48 185.565,52.767 181.105,52.767C176.321,52.767 172.252,51.023 168.898,47.525C165.543,44.028 163.866,39.539 163.866,34.05C163.866,28.561 165.543,24.13 168.898,20.613C172.252,17.097 176.321,15.334 181.105,15.334C185.565,15.334 189.215,16.62 192.084,19.203L192.084,16.391L203.339,16.391L203.339,51.709ZM189.511,40.626C191.226,38.91 192.074,36.719 192.074,34.05C192.074,31.382 191.217,29.247 189.511,27.503C187.795,25.769 185.766,24.901 183.421,24.901C180.934,24.901 178.894,25.759 177.303,27.465C175.712,29.18 174.911,31.372 174.911,34.041C174.911,36.709 175.712,38.968 177.303,40.654C178.894,42.341 180.934,43.189 183.421,43.189C185.766,43.189 187.795,42.332 189.511,40.626Z" style="fill-rule:nonzero;"/>
    <rect x="212.058" y="16.391" width="11.255" height="35.318" style="fill-rule:nonzero;"/>
    <rect x="232.033" y="1.058" width="11.255" height="50.651" style="fill-rule:nonzero;"/>
    <path d="M156.766,107.897L120.038,107.897L120.038,60.762L156.547,60.762L156.547,70.75L131.645,70.75L131.645,79.612L151.811,79.612L151.811,89.037L131.645,89.037L131.645,97.9L156.757,97.9L156.757,107.887L156.766,107.897Z" style="fill-rule:nonzero;"/>
    <path d="M198.974,107.897L187.719,107.897L187.719,104.524C184.908,107.478 181.296,108.955 176.884,108.955C172.757,108.955 169.441,107.602 166.925,104.905C164.419,102.208 163.161,98.653 163.161,94.25L163.161,72.579L174.349,72.579L174.349,91.858C174.349,93.926 174.911,95.594 176.036,96.89C177.16,98.177 178.618,98.825 180.4,98.825C182.697,98.825 184.489,98.015 185.785,96.394C187.071,94.775 187.719,92.306 187.719,88.971L187.719,72.579L198.974,72.579L198.974,107.897Z" style="fill-rule:nonzero;"/>
    <path d="M233.091,72.37L232.595,83.625L230.556,83.625C222.446,83.625 218.386,88.037 218.386,96.852L218.386,107.897L207.131,107.897L207.131,72.579L218.386,72.579L218.386,79.336C221.293,74.504 225.353,72.093 230.556,72.093C231.49,72.093 232.338,72.189 233.091,72.37Z" style="fill-rule:nonzero;"/>
    <path d="M268.618,76.877C272.373,80.346 274.25,84.806 274.25,90.248C274.25,95.689 272.373,100.216 268.618,103.685C264.863,107.154 260.289,108.888 254.895,108.888C249.501,108.888 244.774,107.154 241.001,103.685C237.227,100.216 235.34,95.737 235.34,90.248C235.34,84.759 237.227,80.356 241.001,76.877C244.774,73.408 249.406,71.674 254.895,71.674C260.384,71.674 264.863,73.408 268.618,76.877ZM260.88,96.823C262.567,95.108 263.415,92.916 263.415,90.248C263.415,87.579 262.557,85.378 260.851,83.672C259.136,81.957 257.154,81.109 254.905,81.109C252.656,81.109 250.521,81.966 248.786,83.672C247.052,85.387 246.185,87.579 246.185,90.248C246.185,92.916 247.043,95.117 248.748,96.823C250.454,98.529 252.513,99.387 254.905,99.387C257.297,99.387 259.193,98.529 260.88,96.823Z" style="fill-rule:nonzero;"/>
    <path d="M314.524,76.801C317.878,80.318 319.555,84.797 319.555,90.238C319.555,95.68 317.878,100.216 314.524,103.713C311.169,107.211 307.1,108.955 302.316,108.955C297.856,108.955 294.206,107.668 291.337,105.086L291.337,119.857L280.083,119.857L280.083,72.579L291.337,72.579L291.337,75.391C294.196,72.808 297.856,71.522 302.316,71.522C307.1,71.522 311.169,73.285 314.524,76.801ZM306.118,96.852C307.71,95.165 308.51,92.964 308.51,90.238C308.51,87.513 307.71,85.369 306.118,83.663C304.527,81.947 302.487,81.099 300,81.099C297.656,81.099 295.626,81.966 293.91,83.701C292.195,85.435 291.347,87.618 291.347,90.248C291.347,92.878 292.205,95.118 293.91,96.823C295.616,98.529 297.646,99.387 300,99.387C302.487,99.387 304.527,98.539 306.118,96.852Z" style="fill-rule:nonzero;"/>
    <path d="M360,93.126L334.107,93.126C334.574,95.232 335.489,96.9 336.852,98.12C338.215,99.339 339.835,99.949 341.703,99.949C345.219,99.949 347.726,98.586 349.231,95.87L359.219,97.91C357.722,101.569 355.454,104.323 352.433,106.172C349.412,108.021 345.829,108.955 341.703,108.955C336.499,108.955 332.087,107.211 328.475,103.713C324.863,100.216 323.062,95.728 323.062,90.238C323.062,84.749 324.863,80.318 328.475,76.801C332.087,73.285 336.518,71.522 341.769,71.522C347.02,71.522 351.175,73.237 354.644,76.658C358.113,80.079 359.895,84.606 359.99,90.238L359.99,93.126L360,93.126ZM337.205,82.147C335.794,83.129 334.832,84.492 334.317,86.226L348.879,86.226C348.364,84.396 347.468,83.015 346.201,82.071C344.933,81.137 343.456,80.661 341.769,80.661C340.083,80.661 338.605,81.156 337.195,82.138L337.205,82.147Z" style="fill-rule:nonzero;"/>
    <path d="M224.361,6.175C224.361,2.764 221.598,0 218.186,0C214.774,0 212.011,2.764 212.011,6.175L212.011,12.351L218.186,12.351C219.006,12.351 219.787,12.189 220.511,11.903C222.77,10.988 224.361,8.767 224.361,6.185L224.361,6.175Z" style="fill-rule:nonzero;"/>
</svg>
