<?xml version="1.0" encoding="UTF-8"?>
<svg width="151px" height="51px" viewBox="0 0 286 96" version="1.1" xmlns="http://www.w3.org/2000/svg" xmlns:xlink="http://www.w3.org/1999/xlink">
    <title>Group 9</title>
    <defs>
        <polygon id="path-1" points="0 0 79.6845 0 79.6845 84.704 0 84.704"></polygon>
        <polygon id="path-3" points="0 0 190.3665 0 190.3665 95.0226 0 95.0226"></polygon>
    </defs>
    <g id="Web" stroke="none" stroke-width="1" fill="none" fill-rule="evenodd">
        <g id="Group-9">
            <g id="Group-3" transform="translate(0.000000, 0.837600)">
                <mask id="mask-2" fill="white">
                    <use xlink:href="#path-1"></use>
                </mask>
                <g id="Clip-2"></g>
                <path d="M56.3615,58.97 L41.3315,58.97 L51.2505,84.704 L79.6845,84.704 L67.4595,56.809 C63.9345,58.239 60.1655,58.973 56.3615,58.97 L56.3615,58.97 Z M26.8615,29.489 C26.8615,13.207 40.0695,0 56.3685,0 L29.4925,0 C13.2005,0 -0.0005,13.2 -0.0005,29.474 L-0.0005,84.704 L26.8695,84.704 L26.8695,29.489 L26.8615,29.489 Z" id="Fill-1" fill="#000000" mask="url(#mask-2)"></path>
            </g>
            <g id="Group-6" transform="translate(95.228500, 0.000000)">
                <mask id="mask-4" fill="white">
                    <use xlink:href="#path-3"></use>
                </mask>
                <g id="Clip-5"></g>
                <path d="M82.762,4.8956 C82.762,2.1906 80.57,-0.0004 77.863,-0.0004 C75.156,-0.0004 72.964,2.1906 72.964,4.8956 L72.964,9.7916 L77.863,9.7916 C78.513,9.7916 79.133,9.6626 79.708,9.4366 C81.554,8.6876 82.762,6.8946 82.762,4.9026 L82.762,4.8956 Z M172.283,65.1266 C171.164,65.9046 170.4,66.9856 169.992,68.3606 L181.544,68.3606 C181.136,66.9096 180.425,65.8136 179.42,65.0656 C178.414,64.3256 177.243,63.9476 175.904,63.9476 C174.566,63.9476 173.394,64.3406 172.275,65.1186 L172.283,65.1266 Z M190.367,73.8306 L169.826,73.8306 C170.196,75.5006 170.922,76.8216 172.003,77.7886 C173.084,78.7566 174.369,79.2396 175.851,79.2396 C178.641,79.2396 180.629,78.1596 181.824,76.0066 L189.747,77.6236 C188.56,80.5246 186.761,82.7076 184.364,84.1736 C181.968,85.6396 179.125,86.3796 175.851,86.3796 C171.723,86.3796 168.223,84.9976 165.358,82.2246 C162.492,79.4516 161.063,75.8926 161.063,71.5416 C161.063,67.1886 162.492,63.6756 165.358,60.8876 C168.223,58.0996 171.739,56.7026 175.904,56.7026 C180.07,56.7026 183.366,58.0626 186.118,60.7746 C188.87,63.4876 190.284,67.0756 190.36,71.5416 L190.36,73.8306 L190.367,73.8306 Z M147.622,76.7846 C148.884,75.4466 149.519,73.7016 149.519,71.5416 C149.519,69.3806 148.884,67.6806 147.622,66.3276 C146.359,64.9676 144.741,64.2956 142.767,64.2956 C140.908,64.2956 139.297,64.9826 137.937,66.3576 C136.576,67.7326 135.903,69.4636 135.903,71.5486 C135.903,73.6336 136.584,75.4096 137.937,76.7616 C139.29,78.1136 140.9,78.7936 142.767,78.7936 C144.741,78.7936 146.359,78.1216 147.622,76.7846 L147.622,76.7846 Z M154.289,60.8876 C156.951,63.6756 158.281,67.2266 158.281,71.5416 C158.281,75.8546 156.951,79.4516 154.289,82.2246 C151.628,84.9976 148.4,86.3796 144.605,86.3796 C141.067,86.3796 138.171,85.3596 135.895,83.3116 L135.895,95.0226 L126.967,95.0226 L126.967,57.5416 L135.895,57.5416 L135.895,59.7696 C138.163,57.7226 141.067,56.7026 144.605,56.7026 C148.4,56.7026 151.628,58.0996 154.289,60.8876 L154.289,60.8876 Z M111.733,76.7616 C113.071,75.4016 113.744,73.6646 113.744,71.5486 C113.744,69.4326 113.063,67.6876 111.71,66.3356 C110.349,64.9756 108.777,64.3036 106.992,64.3036 C105.209,64.3036 103.515,64.9826 102.139,66.3356 C100.763,67.6946 100.075,69.4326 100.075,71.5486 C100.075,73.6646 100.756,75.4096 102.109,76.7616 C103.462,78.1136 105.095,78.7936 106.992,78.7936 C108.89,78.7936 110.395,78.1136 111.733,76.7616 L111.733,76.7616 Z M117.872,60.9486 C120.851,63.6986 122.34,67.2346 122.34,71.5486 C122.34,75.8626 120.851,79.4516 117.872,82.2016 C114.893,84.9516 111.264,86.3266 106.985,86.3266 C102.706,86.3266 98.956,84.9516 95.962,82.2016 C92.968,79.4516 91.472,75.9006 91.472,71.5486 C91.472,67.1966 92.968,63.7066 95.962,60.9486 C98.956,58.1986 102.63,56.8226 106.985,56.8226 C111.34,56.8226 114.893,58.1986 117.872,60.9486 L117.872,60.9486 Z M89.687,57.3746 L89.294,66.2976 L87.676,66.2976 C81.243,66.2976 78.022,69.7956 78.022,76.7846 L78.022,85.5416 L69.093,85.5416 L69.093,57.5416 L78.022,57.5416 L78.022,62.8976 C80.328,59.0676 83.548,57.1556 87.676,57.1556 C88.417,57.1556 89.09,57.2316 89.687,57.3746 Z M62.622,85.5416 L53.693,85.5416 L53.693,82.8666 C51.463,85.2086 48.597,86.3796 45.097,86.3796 C41.823,86.3796 39.192,85.3066 37.196,83.1686 C35.208,81.0306 34.21,78.2126 34.21,74.7216 L34.21,57.5406 L43.086,57.5406 L43.086,72.8256 C43.086,74.4646 43.532,75.7876 44.424,76.8146 C45.316,77.8346 46.473,78.3486 47.887,78.3486 C49.709,78.3486 51.13,77.7066 52.158,76.4216 C53.179,75.1376 53.693,73.1806 53.693,70.5366 L53.693,57.5406 L62.622,57.5406 L62.622,85.5416 Z M29.137,85.5416 L0,85.5416 L0,48.1726 L28.964,48.1726 L28.964,56.0906 L9.209,56.0906 L9.209,63.1166 L25.206,63.1166 L25.206,70.5886 L9.209,70.5886 L9.209,77.6156 L29.13,77.6156 L29.13,85.5336 L29.137,85.5416 Z M88.848,40.9946 L97.777,40.9946 L97.777,0.8376 L88.848,0.8376 L88.848,40.9946 Z M73.002,40.9946 L81.931,40.9946 L81.931,12.9946 L73.002,12.9946 L73.002,40.9946 Z M55.114,32.2076 C56.475,30.8476 57.148,29.1106 57.148,26.9946 C57.148,24.8786 56.468,23.1866 55.114,21.8036 C53.754,20.4286 52.143,19.7416 50.283,19.7416 C48.31,19.7416 46.692,20.4216 45.43,21.7736 C44.167,23.1336 43.532,24.8716 43.532,26.9876 C43.532,29.1026 44.167,30.8936 45.43,32.2306 C46.692,33.5676 48.31,34.2396 50.283,34.2396 C52.143,34.2396 53.754,33.5606 55.114,32.2086 L55.114,32.2076 Z M66.084,40.9946 L57.156,40.9946 L57.156,38.7656 C54.888,40.8136 51.984,41.8336 48.446,41.8336 C44.651,41.8336 41.423,40.4506 38.761,37.6776 C36.1,34.9056 34.77,31.3466 34.77,26.9946 C34.77,22.6426 36.1,19.1296 38.761,16.3416 C41.423,13.5536 44.651,12.1556 48.446,12.1556 C51.984,12.1556 54.88,13.1756 57.156,15.2236 L57.156,12.9946 L66.084,12.9946 L66.084,40.9946 Z M17.918,20.4666 C19.559,20.4666 20.867,20.0586 21.849,19.2426 C22.832,18.4266 23.331,17.3316 23.331,15.9486 C23.331,14.5656 22.839,13.5316 21.849,12.7146 C20.859,11.8986 19.551,11.4916 17.918,11.4916 L9.209,11.4916 L9.209,20.4746 L17.918,20.4746 L17.918,20.4666 Z M23.165,40.9946 L11.892,28.1656 L9.216,28.1656 L9.216,40.9946 L0.008,40.9946 L0.008,3.6256 L18.931,3.6256 C22.983,3.6256 26.242,4.7516 28.699,7.0036 C31.156,9.2546 32.381,12.2006 32.381,15.8426 C32.381,18.8956 31.504,21.4646 29.757,23.5646 C28.011,25.6646 25.607,27.0476 22.56,27.7206 L34.279,40.9946 C34.279,40.9946 23.165,40.9946 23.165,40.9946 L23.165,40.9946 Z" id="Fill-4" fill="#000000" mask="url(#mask-4)"></path>
            </g>
            <path d="M85.8692,30.3267 C85.8692,14.0447 72.6612,0.8377 56.3612,0.8377 C40.0692,0.8377 26.8542,14.0377 26.8542,30.3267 L26.8542,59.8147092 L56.3612,59.8147092 C60.1662,59.8177 63.9342,59.0847 67.4602,57.6537 C78.2562,53.2717 85.8692,42.6867 85.8692,30.3267 Z" id="Fill-7" fill="#9D9D9C"></path>
        </g>
    </g>
</svg>