<?xml version="1.0" encoding="UTF-8" standalone="no"?>
<!DOCTYPE svg PUBLIC "-//W3C//DTD SVG 1.1//EN" "http://www.w3.org/Graphics/SVG/1.1/DTD/svg11.dtd">
<svg viewBox="0 0 167 75" version="1.1" xmlns="http://www.w3.org/2000/svg" xmlns:xlink="http://www.w3.org/1999/xlink" xml:space="preserve" xmlns:serif="http://www.serif.com/" style="fill-rule:evenodd;clip-rule:evenodd;stroke-linejoin:round;stroke-miterlimit:2;">
    <g id="DT_EuroRust--23_vs.2d-Copy-2" serif:id="DT_EuroRust-&apos;23_vs.2d-Copy-2">
        <g id="Group-24">
            <g id="Group-3" transform="matrix(1,0,0,1,96.1188,55.612)">
                <path id="Fill-1" d="M3.497,7.062C3.497,8.193 3.688,9.083 4.072,9.731C4.454,10.382 5.078,10.706 5.938,10.706C6.474,10.706 6.926,10.608 7.297,10.413C7.67,10.219 7.967,9.933 8.191,9.559L8.191,3.944C7.967,3.553 7.67,3.25 7.297,3.036C6.926,2.821 6.482,2.714 5.963,2.714C5.109,2.714 4.485,3.092 4.09,3.848C3.694,4.604 3.497,5.592 3.497,6.811L3.497,7.062ZM0,6.811C0,4.772 0.446,3.128 1.336,1.876C2.226,0.626 3.472,0 5.078,0C5.803,0 6.441,0.161 6.993,0.484C7.544,0.807 8.014,1.268 8.406,1.864L8.658,0.24L11.699,0.24L11.699,12.784C11.699,14.489 11.161,15.849 10.088,16.865C9.014,17.88 7.539,18.389 5.664,18.389C5.009,18.389 4.315,18.299 3.58,18.12C2.847,17.94 2.167,17.694 1.545,17.385L2.192,14.935C2.75,15.175 3.309,15.364 3.867,15.502C4.426,15.642 5.017,15.711 5.639,15.711C6.494,15.711 7.132,15.453 7.555,14.935C7.978,14.417 8.191,13.697 8.191,12.772L8.191,11.925C7.807,12.411 7.356,12.781 6.837,13.035C6.317,13.291 5.723,13.418 5.053,13.418C3.464,13.418 2.226,12.834 1.336,11.667C0.446,10.501 0,8.965 0,7.062L0,6.811Z"/>
            </g>
            <path id="Fill-4" d="M111.034,66.688L112.709,66.33L112.709,58.313L110.854,57.954L110.854,55.852L115.966,55.852L116.123,57.739C116.425,57.071 116.817,56.549 117.295,56.175C117.774,55.8 118.329,55.612 118.959,55.612C119.142,55.612 119.337,55.627 119.539,55.655C119.743,55.682 119.913,55.717 120.049,55.756L119.678,58.934L118.241,58.898C117.73,58.898 117.307,58.997 116.972,59.198C116.637,59.397 116.381,59.679 116.206,60.045L116.206,66.33L117.882,66.688L117.882,68.779L111.034,68.779L111.034,66.688Z"/>
            <path id="Fill-6" d="M125.445,62.447C125.445,63.625 125.652,64.572 126.067,65.284C126.482,65.998 127.153,66.353 128.079,66.353C128.981,66.353 129.642,65.995 130.06,65.278C130.48,64.562 130.689,63.617 130.689,62.447L130.689,62.196C130.689,61.048 130.477,60.113 130.054,59.388C129.631,58.664 128.964,58.301 128.055,58.301C127.145,58.301 126.482,58.664 126.067,59.388C125.652,60.113 125.445,61.048 125.445,62.196L125.445,62.447ZM121.948,62.196C121.948,60.268 122.489,58.689 123.571,57.458C124.653,56.228 126.147,55.613 128.055,55.613C129.97,55.613 131.47,56.226 132.551,57.453C133.632,58.679 134.173,60.26 134.173,62.196L134.173,62.447C134.173,64.391 133.632,65.974 132.551,67.196C131.47,68.418 129.979,69.029 128.079,69.029C126.155,69.029 124.653,68.418 123.571,67.196C122.489,65.974 121.948,64.391 121.948,62.447L121.948,62.196Z"/>
            <path id="Fill-8" d="M145.615,67.142C145.2,67.747 144.687,68.213 144.077,68.54C143.466,68.866 142.77,69.029 141.988,69.029C140.622,69.029 139.553,68.594 138.778,67.722C138.004,66.849 137.617,65.493 137.617,63.653L137.617,58.314L136.193,57.955L136.193,55.851L141.114,55.851L141.114,63.677C141.114,64.618 141.271,65.292 141.586,65.703C141.901,66.112 142.37,66.317 142.992,66.317C143.544,66.317 144.021,66.228 144.424,66.049C144.826,65.869 145.156,65.613 145.411,65.278L145.411,58.314L143.879,57.955L143.879,55.851L148.908,55.851L148.908,66.331L150.475,66.687L150.475,68.778L145.842,68.778L145.615,67.142Z"/>
            <g id="Group-12" transform="matrix(1,0,0,1,152.447,55.6122)">
                <path id="Fill-10" d="M10.057,6.811C10.057,5.592 9.853,4.604 9.446,3.848C9.04,3.092 8.418,2.714 7.578,2.714C7.052,2.714 6.603,2.821 6.232,3.035C5.86,3.25 5.568,3.558 5.352,3.955L5.352,9.619C5.568,9.986 5.86,10.264 6.232,10.455C6.603,10.646 7.06,10.742 7.603,10.742C8.449,10.742 9.069,10.411 9.464,9.749C9.86,9.089 10.057,8.193 10.057,7.062L10.057,6.811ZM0,2.342L0,0.24L5.076,0.24L5.244,1.745C5.628,1.188 6.085,0.758 6.621,0.455C7.155,0.152 7.779,0 8.489,0C10.093,0 11.338,0.626 12.225,1.876C13.11,3.128 13.554,4.772 13.554,6.811L13.554,7.062C13.554,8.973 13.11,10.51 12.225,11.674C11.338,12.836 10.101,13.418 8.512,13.418C7.834,13.418 7.232,13.292 6.704,13.041C6.178,12.79 5.728,12.422 5.352,11.936L5.352,15.675L7.041,16.034L7.041,18.138L0.18,18.138L0.18,16.034L1.868,15.675L1.868,2.701L0,2.342Z"/>
            </g>
            <path id="Fill-13" d="M0.451,41.593L4.664,40.692L4.664,20.541L0,19.64L0,14.355L12.85,14.355L13.24,19.099C14.003,17.419 14.986,16.107 16.19,15.166C17.394,14.224 18.788,13.753 20.373,13.753C20.835,13.753 21.321,13.789 21.833,13.859C22.344,13.929 22.77,14.014 23.111,14.115L22.179,22.103L18.568,22.013C17.284,22.013 16.221,22.264 15.378,22.763C14.536,23.265 13.892,23.975 13.451,24.896L13.451,40.692L17.665,41.593L17.665,46.849L0.451,46.849L0.451,41.593Z"/>
            <path id="Fill-15" d="M39.965,20.511C38.34,20.511 37.056,21.132 36.112,22.372C35.17,23.614 34.588,25.246 34.368,27.268L34.458,27.418L45.232,27.418L45.232,26.637C45.232,24.776 44.794,23.288 43.922,22.178C43.05,21.067 41.73,20.511 39.965,20.511M40.747,47.479C36.053,47.479 32.3,45.978 29.493,42.974C26.682,39.97 25.279,36.157 25.279,31.533L25.279,30.332C25.279,25.506 26.607,21.533 29.266,18.409C31.925,15.286 35.49,13.734 39.965,13.754C44.358,13.754 47.77,15.076 50.197,17.718C52.624,20.361 53.839,23.935 53.839,28.44L53.839,33.213L34.397,33.213L34.337,33.394C34.497,35.537 35.214,37.299 36.489,38.68C37.763,40.062 39.493,40.753 41.68,40.753C43.626,40.753 45.242,40.557 46.525,40.166C47.809,39.776 49.214,39.16 50.739,38.319L53.115,43.725C51.771,44.786 50.032,45.678 47.894,46.398C45.758,47.119 43.375,47.479 40.747,47.479"/>
            <path id="Fill-17" d="M71.113,40.992C72.437,40.992 73.641,40.707 74.724,40.137C75.808,39.566 76.651,38.851 77.252,37.989L77.252,33.034L72.767,33.034C70.902,33.034 69.488,33.469 68.524,34.34C67.562,35.211 67.08,36.258 67.08,37.478C67.08,38.58 67.436,39.441 68.149,40.062C68.861,40.683 69.849,40.992 71.113,40.992ZM78.727,46.848C78.487,46.309 78.274,45.753 78.095,45.182C77.913,44.61 77.773,44.035 77.673,43.455C76.63,44.656 75.361,45.627 73.866,46.367C72.372,47.109 70.662,47.479 68.735,47.479C65.545,47.479 63.012,46.613 61.137,44.881C59.261,43.15 58.323,40.792 58.323,37.809C58.323,34.767 59.546,32.413 61.995,30.752C64.441,29.09 68.033,28.259 72.767,28.259L77.252,28.259L77.252,25.076C77.252,23.515 76.801,22.304 75.898,21.442C74.995,20.581 73.661,20.151 71.895,20.151C70.892,20.151 69.999,20.267 69.217,20.496C68.434,20.726 67.802,21.002 67.321,21.323L66.749,24.805L60.128,24.805L60.159,17.599C61.763,16.516 63.605,15.605 65.681,14.866C67.757,14.124 70.019,13.754 72.467,13.754C76.499,13.754 79.775,14.74 82.292,16.712C84.81,18.684 86.07,21.492 86.07,25.136L86.07,38.559C86.07,39.061 86.075,39.53 86.084,39.97C86.094,40.412 86.13,40.833 86.191,41.232L88.869,41.594L88.869,46.848L78.727,46.848Z"/>
            <path id="Fill-19" d="M90.915,5.285L90.915,0L104.397,0L104.397,40.692L108.64,41.593L108.64,46.849L91.366,46.849L91.366,41.593L95.61,40.692L95.61,6.187L90.915,5.285Z"/>
            <g id="Group-23" transform="matrix(1,0,0,1,110.476,13.7534)">
                <path id="Fill-21" d="M0,5.887L0,0.601L12.85,0.601L13.211,4.896C14.255,3.334 15.563,2.128 17.139,1.278C18.713,0.427 20.534,0 22.6,0C24.688,0 26.473,0.461 27.957,1.382C29.442,2.303 30.565,3.695 31.328,5.556C32.331,3.815 33.636,2.453 35.241,1.472C36.845,0.492 38.731,0 40.899,0C44.108,0 46.641,1.107 48.498,3.32C50.353,5.531 51.281,8.9 51.281,13.424L51.281,26.938L55.524,27.84L55.524,33.096L38.702,33.096L38.702,27.84L42.493,26.938L42.493,13.395C42.493,10.932 42.093,9.22 41.289,8.26C40.487,7.298 39.293,6.817 37.709,6.817C36.465,6.817 35.387,7.093 34.474,7.644C33.561,8.194 32.834,8.96 32.292,9.942C32.292,10.321 32.302,10.647 32.321,10.916C32.341,11.187 32.352,11.462 32.352,11.742L32.352,26.938L35.903,27.84L35.903,33.096L20.043,33.096L20.043,27.84L23.595,26.938L23.595,13.395C23.595,10.993 23.193,9.295 22.39,8.304C21.588,7.313 20.384,6.817 18.779,6.817C17.595,6.817 16.557,7.042 15.664,7.494C14.771,7.943 14.034,8.579 13.453,9.4L13.453,26.938L17.245,27.84L17.245,33.096L0.451,33.096L0.451,27.84L4.695,26.938L4.695,6.788L0,5.887Z"/>
            </g>
        </g>
    </g>
</svg>
