<?xml version="1.0" encoding="UTF-8"?>
<svg viewBox="0 0 150.13411 27.8280118" version="1.1" xmlns="http://www.w3.org/2000/svg" xmlns:xlink="http://www.w3.org/1999/xlink">
    <title>Combined Shape</title>
    <g id="Page-1" stroke="none" stroke-width="1" fill="none" fill-rule="evenodd">
        <path d="M8.24944298,6.76670177 C7.94032279,6.68089173 7.60602016,6.63752287 7.25623842,6.63752287 C6.23392388,6.63752287 5.3453766,6.9448156 4.61508592,7.5503562 C4.07516523,7.99795995 3.59092313,8.57775754 3.16929058,9.27954455 L3.05400585,7.90565617 C2.99416868,7.55754569 2.88650798,7.31588606 2.73980296,7.18206877 C2.58085327,7.00812949 2.31239462,6.92347904 1.91848586,6.92347904 L0,6.92347904 L0,22.6955971 L3.4024014,22.6955971 L3.4024014,12.9283268 C3.58237496,12.4675037 3.77828971,12.0523686 3.98621809,11.6917345 C4.19299131,11.323447 4.42979863,11.0138351 4.6904022,10.7710159 C4.95516434,10.5237902 5.25573636,10.338023 5.5886528,10.2171932 C5.9190279,10.0882462 6.30854706,10.0228451 6.74635182,10.0228451 C7.04761694,10.0228451 7.33340295,10.0513711 7.60394088,10.1093509 C7.90035433,10.1626922 8.12029635,10.1884353 8.27578058,10.1884353 C8.64658619,10.1884353 8.90464841,9.98017197 9.00214372,9.60191202 L9.21607892,7.21013098 L9.10010109,7.13081466 C8.85659385,6.96406488 8.56734237,6.84091587 8.24944298,6.76670177 M20.5102172,12.8685381 L13.0615295,12.8685381 C13.2639131,11.791506 13.6739941,10.9327098 14.2818381,10.3137179 C14.9418951,9.65135715 15.8634799,9.31530647 17.02141,9.31530647 C17.5851269,9.31530647 18.0878515,9.40992944 18.5152599,9.59662426 C18.94082,9.78239141 19.3063119,10.0453876 19.6013391,10.3786553 C19.8977526,10.7133144 20.1234704,11.1149982 20.2738719,11.5769809 C20.4106426,11.9730986 20.4898864,12.4065553 20.5102172,12.8685381 M23.446628,14.8315008 C23.5736953,14.627412 23.6328394,14.295304 23.6328394,13.7860098 C23.6328394,12.6674642 23.4609519,11.6558334 23.1227218,10.7817305 C22.7925777,9.90113396 22.325663,9.1487886 21.7351464,8.54556718 C21.1437056,7.94141809 20.428663,7.47688425 19.6135838,7.16634466 C18.809363,6.84536871 17.9171192,6.68279347 16.9615728,6.68279347 C15.8239735,6.68279347 14.7827144,6.88711414 13.8666744,7.28972559 C12.9504033,7.6930328 12.1614306,8.25450879 11.5205492,8.95977458 C10.8930675,9.66225735 10.4030496,10.4992532 10.0645884,11.4466424 C9.72682033,12.3819719 9.55539493,13.4070541 9.55539493,14.4935948 C9.55539493,15.8389571 9.74160635,17.0507341 10.1096396,18.0978485 C10.4889934,19.1373097 11.0205969,20.0260234 11.6922056,20.7412617 C12.3725935,21.4449041 13.1818969,21.9901457 14.1009404,22.3630716 C15.0243734,22.7234737 16.0372156,22.9062259 17.1115123,22.9062259 C17.6708396,22.9062259 18.2433358,22.8596102 18.8128285,22.7677703 C19.3957211,22.6754665 19.9652138,22.5298213 20.5055965,22.3352413 C21.0496758,22.1395016 21.5701899,21.8832311 22.0560492,21.5722276 C22.5421395,21.2500921 22.977634,20.8658022 23.3502878,20.4295625 L23.4775862,20.2806705 L22.5229639,19.0487166 C22.3485351,18.8061293 22.0897798,18.67811 21.7741907,18.67811 C21.5463936,18.67811 21.2989588,18.76392 21.0138659,18.9429615 C20.7916136,19.0883747 20.5060586,19.2514138 20.1680595,19.4260489 C19.8413809,19.5897837 19.4398481,19.7470248 18.9727023,19.8938296 C18.5291218,20.0359959 17.988739,20.1078908 17.3663401,20.1078908 C16.7097484,20.1078908 16.1086044,20.0021357 15.5795422,19.7936405 C15.0567178,19.5874645 14.5976582,19.2688077 14.2166872,18.8490343 C13.8398747,18.4236948 13.5381475,17.8840192 13.3198227,17.2462418 C13.1195184,16.6516014 12.9963786,15.9539889 12.9534067,15.1701026 L22.6888445,15.1701026 C23.0425538,15.1701026 23.2962264,15.0580857 23.446628,14.8315008 M36.1171597,10.948202 L36.1171597,18.0372713 C35.6116627,18.6731933 35.0652731,19.1736746 34.4920839,19.5264234 C33.9135809,19.8824191 33.2142485,20.0628521 32.4132621,20.0628521 C31.8694139,20.0628521 31.3768547,19.9682292 30.9533739,19.7833897 C30.5331275,19.5908969 30.170639,19.2921852 29.8802324,18.9004739 C29.5891327,18.4858027 29.3592563,17.9454313 29.1982273,17.2986091 C29.0429741,16.6281312 28.9641924,15.8057463 28.9641924,14.8548782 C28.9641924,13.0609845 29.3160534,11.6868642 30.0098411,10.7710159 C30.7080184,9.85238458 31.6658751,9.40570851 32.9381658,9.40570851 C33.5903678,9.40570851 34.1825016,9.52514681 34.6995502,9.76100848 C35.2011197,9.98573802 35.6777377,10.3848707 36.1171597,10.948202 L36.1171597,10.948202 Z M36.1171597,8.03645851 C35.6918306,7.65541553 35.2230677,7.34533977 34.7187258,7.1117973 C34.0501206,6.79708317 33.2290345,6.63752287 32.2783397,6.63752287 C31.2257601,6.63752287 30.2662861,6.85390333 29.4285658,7.27947477 C28.5913075,7.69460985 27.8679477,8.27858198 27.2790484,9.01515685 C26.6929214,9.74802101 26.2398685,10.6253707 25.9325966,11.6230864 C25.6269419,12.6150042 25.4719197,13.7024725 25.4719197,14.8548782 C25.4719197,16.1348394 25.6112317,17.2858536 25.8856972,18.2754521 C26.162473,19.2736317 26.5644678,20.126166 27.0812854,20.810791 C27.6011063,21.4896181 28.2350569,22.0144509 28.9665027,22.3711423 C29.7055726,22.7262104 30.5372861,22.9061796 31.4390022,22.9061796 C32.5546534,22.9061796 33.5524786,22.6631284 34.4054471,22.1828241 C35.1121725,21.7809084 35.7622953,21.2669758 36.3433396,20.6509988 L36.5244683,21.9026659 L36.529551,21.9277131 C36.6561563,22.4230922 37.0098655,22.6955971 37.52599,22.6955971 L39.5345781,22.6955971 L39.5345781,0.000231919038 L36.1171597,0.000231919038 L36.1171597,8.03645851 Z M53.6900651,14.7041772 C53.6900651,16.4978391 53.3331213,17.8768297 52.6293993,18.8031143 C51.9411563,19.7117731 50.9881513,20.153115 49.7163227,20.153115 C49.0636586,20.153115 48.46598,20.0334448 47.9410764,19.7985108 C47.4485171,19.5737813 46.9762887,19.1741848 46.5370977,18.6108534 L46.5370977,11.5345397 C47.0331224,10.8900367 47.5741983,10.3849171 48.1455393,10.0333278 C48.7342076,9.67663633 49.4393159,9.4959714 50.2409953,9.4959714 C50.7834573,9.4959714 51.2746304,9.59500083 51.7048111,9.79213201 C52.121592,9.97418846 52.4762254,10.270581 52.7627045,10.6785266 C53.0611972,11.0809061 53.2894564,11.6180306 53.4423992,12.2792318 C53.6066627,12.9390414 53.6900651,13.7549326 53.6900651,14.7041772 M55.5743582,8.74942402 C55.0538442,8.05946488 54.4138868,7.52906604 53.6741239,7.17353415 C52.9447573,6.81777035 52.1176644,6.63756925 51.2154863,6.63756925 C50.6570831,6.63756925 50.121552,6.70621729 49.6271445,6.84073033 C49.1405921,6.96527086 48.6727532,7.15011033 48.2407243,7.3873635 C47.806847,7.61557184 47.3930696,7.89944074 47.0111744,8.23085305 C46.7692844,8.44004402 46.5340943,8.66686084 46.3086075,8.90852048 L46.1295581,7.71483319 L46.1249375,7.69094553 C45.9983322,7.1960303 45.6443919,6.92352543 45.1282674,6.92352543 L43.1349274,6.92352543 L43.1349274,27.8280118 L46.5370977,27.8280118 L46.5370977,21.5158713 C46.9626578,21.8913482 47.4316518,22.198641 47.9366868,22.4326473 C48.6152264,22.7468976 49.4360814,22.9062259 50.3759177,22.9062259 C51.4275732,22.9062259 52.3863541,22.6954115 53.2266158,22.2788849 C54.0740395,21.8537773 54.7973992,21.2644711 55.3754401,20.5288239 C55.9613361,19.7961916 56.4141579,18.9239441 56.7211988,17.9380563 C57.0370189,16.9454428 57.1973548,15.8575106 57.1973548,14.7041772 C57.1973548,13.4237522 57.0529601,12.2722742 56.7687913,11.2833714 C56.4917845,10.2851919 56.0900206,9.4326575 55.5743582,8.74942402 M62.638725,12.8685381 C62.8411086,11.791506 63.2514206,10.9324779 63.8590335,10.3137179 C64.5190906,9.65135715 65.4406754,9.31530647 66.5983744,9.31530647 C67.1623224,9.31530647 67.664816,9.40992944 68.0924554,9.59662426 C68.5180154,9.78239141 68.8835073,10.0456195 69.1785346,10.3784233 C69.4749481,10.7135463 69.7006659,11.115462 69.8508364,11.5769809 C69.987607,11.9730986 70.0670819,12.4065553 70.0871816,12.8685381 L62.638725,12.8685381 Z M73.0235924,14.8317327 C73.1508908,14.627644 73.2100349,14.295304 73.2100349,13.7860098 C73.2100349,12.66816 73.0381474,11.6565292 72.6999172,10.7814986 C72.3695421,9.90067012 71.9026274,9.14855668 71.3123418,8.54556718 C70.7206701,7.94141809 70.0058585,7.47711617 69.1910103,7.16634466 C68.3867895,6.84536871 67.4943147,6.68279347 66.5385373,6.68279347 C65.400938,6.68279347 64.3596789,6.88711414 63.4441009,7.28972559 C62.5273678,7.6930328 61.7383951,8.25450879 61.0979757,8.95977458 C60.470494,9.66202543 59.9804761,10.4987893 59.6415529,11.4466424 C59.3037848,12.38174 59.1325904,13.4068221 59.1325904,14.4935948 C59.1325904,15.8396528 59.3188018,17.0511979 59.6868351,18.0978485 C60.0664199,19.1375416 60.5980234,20.0262553 61.2694011,20.7412617 C61.9495579,21.4449041 62.7590924,21.9901457 63.6781358,22.3630716 C64.6015689,22.7234737 65.6144111,22.9062259 66.6884767,22.9062259 C67.2478041,22.9062259 67.8207623,22.8596102 68.390024,22.7677703 C68.9726855,22.6754665 69.5421782,22.5300533 70.082792,22.3352413 C70.6266403,22.1395016 71.1471543,21.883463 71.6330136,21.5722276 C72.119104,21.2505559 72.5545984,20.8660342 72.9274833,20.4295625 L73.0547817,20.2806705 L72.1001594,19.0487166 C71.9257306,18.8061293 71.6669753,18.67811 71.3516172,18.67811 C71.1235891,18.67811 70.8761543,18.76392 70.5908304,18.9429615 C70.3690401,19.0881428 70.0837161,19.2511819 69.7450239,19.4260489 C69.4183453,19.5900156 69.0168125,19.7470248 68.5498978,19.8935976 C68.1063172,20.0359959 67.5657035,20.1078908 66.9433045,20.1078908 C66.2869439,20.1078908 65.6857999,20.0021357 65.1567377,19.7936405 C64.6339133,19.5874645 64.1746226,19.2688077 63.7936516,18.8490343 C63.4170702,18.4236948 63.115343,17.8840192 62.8970182,17.2462418 C62.6964829,16.6513695 62.5735741,15.953757 62.5306022,15.1701026 L72.26604,15.1701026 C72.6195183,15.1701026 72.8731909,15.0580857 73.0235924,14.8317327 L73.0235924,14.8317327 Z M87.8257828,8.37853909 C87.3741161,7.84071884 86.8050855,7.41862619 86.1357871,7.12501669 C85.4782714,6.83140719 84.7038537,6.68274708 83.834713,6.68274708 C83.2873993,6.68274708 82.7629578,6.74606098 82.2796398,6.86990575 C81.8037148,6.98424183 81.3467345,7.15284697 80.9237157,7.37038703 C80.5101693,7.57795457 80.112333,7.8353847 79.7415274,8.13548794 C79.4966339,8.3335468 79.2563611,8.54714423 79.0239434,8.77372913 L78.8689213,7.71571448 L78.8640696,7.69089914 C78.7376953,7.19621583 78.383524,6.92347904 77.8673996,6.92347904 L75.8740595,6.92347904 L75.8740595,22.6955971 L79.2759988,22.6955971 L79.2759988,11.3368983 C79.7978991,10.779365 80.3655435,10.3329208 80.9657635,10.0084661 C81.5865452,9.66847278 82.259309,9.49592502 82.9651104,9.49592502 C83.9280498,9.49592502 84.6179099,9.76750221 85.0751214,10.3278186 C85.5357982,10.8825689 85.7693711,11.6864003 85.7693711,12.7175124 L85.7693711,22.6955971 L89.1865585,22.6955971 L89.1865585,12.7175124 C89.1865585,11.8341328 89.0719669,11.0152266 88.846018,10.2832901 C88.6175279,9.54300458 88.2737529,8.90151652 87.8257828,8.37853909 M103.117968,18.67811 C102.868916,18.67811 102.628874,18.7794586 102.410087,18.9749663 C102.238893,19.1182923 102.01872,19.2801718 101.755806,19.4559664 C101.501902,19.6259631 101.174069,19.7903937 100.787091,19.9420687 C100.405196,20.0821478 99.9082469,20.153115 99.3098752,20.153115 C98.6971796,20.153115 98.1353109,20.0390109 97.6425206,19.8149771 C97.1494993,19.5814346 96.7244013,19.2400498 96.3806264,18.8019547 C96.0308446,18.3462338 95.7568412,17.7805833 95.5667023,17.1217013 C95.3737909,16.44357 95.2760646,15.6608433 95.2760646,14.7946257 C95.2760646,13.957166 95.3687082,13.1936885 95.5521473,12.5255298 C95.733045,11.8657201 95.997345,11.3003015 96.3355752,10.8473636 C96.6805053,10.3981365 97.1150756,10.047243 97.6279656,9.8041918 C98.1429349,9.55974913 98.7491616,9.43590437 99.4295495,9.43590437 C99.9498325,9.43590437 100.387406,9.49713099 100.736957,9.62028 C101.099214,9.73507993 101.406024,9.86472267 101.658542,10.0108317 C101.914756,10.1441851 102.124763,10.273364 102.295727,10.4039344 C102.514514,10.5505073 102.730759,10.6249533 102.937994,10.6249533 C103.153316,10.6249533 103.31781,10.5794971 103.444878,10.4839465 C103.54838,10.4030068 103.652113,10.2993389 103.752843,10.1754942 L104.661952,8.91315886 L104.515478,8.76844138 C103.846872,8.10793596 103.074996,7.58959691 102.221566,7.22826704 C101.366287,6.86624143 100.366382,6.68279347 99.249807,6.68279347 C98.0618428,6.68279347 96.9900875,6.89221636 96.0661924,7.30456841 C95.1381388,7.70810753 94.3431593,8.28071564 93.7027399,9.00639031 C93.074103,9.72046903 92.5891679,10.5841355 92.260179,11.5751256 C91.9441278,12.5577665 91.7837919,13.6408284 91.7837919,14.7946257 C91.7837919,16.0606717 91.9649207,17.2119178 92.3227885,18.2172868 C92.6811184,19.2147706 93.176219,20.0717115 93.7951525,20.7656132 C94.4249444,21.4602107 95.1744107,21.9968714 96.0232206,22.3607524 C96.8787303,22.7225461 97.8079392,22.9062259 98.7852026,22.9062259 C99.345223,22.9062259 99.9036262,22.8596102 100.443316,22.7675384 C100.997561,22.6747707 101.533092,22.5286617 102.035123,22.333154 C102.540389,22.1364867 103.021166,21.8792884 103.462667,21.5701404 C103.919416,21.2577454 104.335042,20.8725279 104.697993,20.4246922 L104.81836,20.276496 L103.866741,19.0487166 C103.692312,18.8061293 103.433557,18.67811 103.117968,18.67811 M110.41399,0.842654633 C110.210913,0.627433766 109.965558,0.461147815 109.692016,0.351682029 C109.132458,0.104456335 108.483491,0.108167039 107.959049,0.349826677 C107.691976,0.461379734 107.449162,0.625810332 107.237306,0.838016252 C107.037464,1.03862622 106.874587,1.2807497 106.750985,1.56276325 C106.639166,1.83225317 106.582563,2.12632651 106.582563,2.43779378 C106.582563,2.73766509 106.638704,3.03104268 106.754219,3.32070956 C106.875049,3.58463342 107.036078,3.82420579 107.242158,4.04220968 C107.45078,4.24026854 107.689435,4.40191611 107.959049,4.5259928 C108.227277,4.63800969 108.515835,4.69482986 108.815945,4.69482986 C109.115131,4.69482986 109.407155,4.63847353 109.692016,4.52390552 C109.967868,4.40214803 110.209296,4.23841319 110.4096,4.0375713 C110.618453,3.82768457 110.786182,3.58648877 110.909091,3.31699885 C111.03223,3.03684065 111.094378,2.74091196 111.094378,2.43779378 C111.094378,2.12331156 111.031537,1.82645519 110.909091,1.55835678 C110.786644,1.27889434 110.617067,1.03514743 110.41399,0.842654633 M107.137339,22.6955971 L110.53974,22.6955971 L110.53974,6.92347904 L107.137339,6.92347904 L107.137339,22.6955971 Z M114.35384,22.6955971 L117.771259,22.6955971 L117.771259,0 L114.35384,0 L114.35384,22.6955971 Z M131.966737,0.842770593 C131.763891,0.627549725 131.518305,0.461263775 131.244763,0.35156607 C130.684743,0.104340375 130.035775,0.108282999 129.512027,0.349710718 C129.244261,0.461727613 129.001216,0.625926292 128.790284,0.838132212 C128.589749,1.03943794 128.426641,1.28179333 128.303732,1.56264729 C128.191913,1.83190529 128.135079,2.12621055 128.135079,2.43767782 C128.135079,2.73801297 128.191451,3.03139056 128.306966,3.3205936 C128.427103,3.5838217 128.588132,3.82339407 128.794905,4.04209372 C129.002833,4.23992066 129.24172,4.40156823 129.512027,4.52587684 C129.780024,4.63789373 130.068351,4.6947139 130.368461,4.6947139 C130.667647,4.6947139 130.959671,4.63835757 131.244763,4.52402148 C131.520846,4.40203207 131.762274,4.23829723 131.962116,4.03745534 C132.171431,3.82710477 132.33916,3.58590898 132.461607,3.31711481 C132.584515,3.03649277 132.646894,2.74056408 132.646894,2.43767782 C132.646894,2.12365944 132.584053,1.82680307 132.461607,1.55847274 C132.339622,1.27947414 132.170045,1.03549531 131.966737,0.842770593 M128.69004,22.6955971 L132.092441,22.6955971 L132.092441,6.92347904 L128.69004,6.92347904 L128.69004,22.6955971 Z M146.62682,14.8095149 C146.62682,16.5150475 146.2842,17.8495096 145.608664,18.77649 C144.940521,19.6925702 143.949164,20.1380867 142.578223,20.1380867 C141.186027,20.1380867 140.179654,19.6921064 139.5025,18.77649 C138.826964,17.8497415 138.484344,16.5152794 138.484344,14.8095149 C138.484344,13.1037503 138.826964,11.7690563 139.502269,10.8427716 C140.180578,9.91625508 141.186489,9.46586831 142.578223,9.46586831 C143.948702,9.46586831 144.939828,9.91579124 145.608664,10.8425397 C146.2842,11.7692882 146.62682,13.1039823 146.62682,14.8095149 M149.610823,11.4640827 C149.261734,10.4638159 148.749769,9.59945367 148.092253,8.8981305 C147.440744,8.18173259 146.633982,7.62930145 145.697611,7.25776715 C144.773254,6.87602841 143.723447,6.68260793 142.578223,6.68260793 C141.422835,6.68260793 140.363555,6.87602841 139.43065,7.25683947 C138.502134,7.62953336 137.696296,8.18126876 137.036239,8.89534747 C136.376875,9.598526 135.860519,10.4621925 135.500803,11.4631551 C135.153332,12.4476514 134.977055,13.5685161 134.977055,14.7944401 C134.977055,16.0201322 135.153332,17.1458673 135.501265,18.1417276 C135.860519,19.1417625 136.376875,20.005429 137.036239,20.7086075 C137.696989,21.4131776 138.501672,21.9639853 139.431343,22.3475794 C140.364941,22.7184179 141.423528,22.9062723 142.578223,22.9062723 C143.722753,22.9062723 144.771868,22.718186 145.696918,22.3468836 C146.634444,21.9642172 147.440051,21.4124818 148.089943,20.7086075 C148.749769,20.0045013 149.261734,19.1401391 149.610823,18.1398723 C149.958064,17.1456353 150.13411,16.0199003 150.13411,14.7944401 C150.13411,13.568748 149.957833,12.4478833 149.610823,11.4640827 M123.182017,18.4432455 C121.947616,18.4432455 120.947018,19.4504699 120.947018,20.6926283 C120.947018,21.9350186 121.947616,22.942243 123.182017,22.942243 C124.416419,22.942243 125.417016,21.9350186 125.417016,20.6926283 C125.417016,19.4504699 124.416419,18.4432455 123.182017,18.4432455" id="Combined-Shape" fill="#000000"></path>
    </g>
</svg>