<svg focusable="false" role="presentation" xmlns="http://www.w3.org/2000/svg" xml:space="preserve" style="fill-rule:evenodd;clip-rule:evenodd;stroke-linejoin:round;stroke-miterlimit:2" viewBox="0 0 106 23">
<g clip-path="url(#clip0_1464_1383)">
<path d="M101.354 22.485C99.848 22.485 98.653 22.125 97.766 21.402C96.879 20.66 96.436 19.351 96.436 17.474V9.928H92.57V7.144H94.859C95.91 7.144 96.529 6.629 96.714 5.598L97.178 3.124H99.714V7.144H105.776V9.928H99.714V17.413C99.714 18.217 99.89 18.783 100.24 19.113C100.611 19.423 101.24 19.578 102.127 19.578H105.714V22.485H101.354ZM81.324 22.855C79.84 22.855 78.53 22.526 77.396 21.866C76.267 21.191 75.3464 20.2172 74.736 19.052C74.097 17.856 73.778 16.464 73.778 14.876C73.778 13.268 74.087 11.856 74.705 10.639C75.345 9.423 76.231 8.474 77.365 7.794C78.52 7.114 79.85 6.774 81.355 6.774C82.84 6.774 84.118 7.114 85.19 7.794C86.2446 8.43502 87.101 9.35576 87.664 10.454C88.262 11.567 88.561 12.794 88.561 14.134V14.814C88.561 15.041 88.551 15.299 88.531 15.588H76.993C77.096 17.011 77.56 18.093 78.385 18.835C79.21 19.557 80.179 19.918 81.292 19.918C82.262 19.918 83.024 19.722 83.581 19.33C84.158 18.918 84.581 18.361 84.849 17.66H88.159C87.787 19.124 87.014 20.361 85.839 21.371C84.663 22.361 83.159 22.856 81.323 22.856L81.324 22.855ZM81.324 9.619C80.314 9.619 79.417 9.928 78.634 10.547C77.85 11.144 77.344 11.99 77.118 13.083H85.283C85.201 12.052 84.798 11.217 84.077 10.577C83.355 9.938 82.437 9.619 81.324 9.619ZM55.418 22.485V19.64H60.552V4.083C60.552 3.403 60.222 3.062 59.562 3.062H55.852V0.217H60.15C61.346 0.217 62.253 0.537 62.872 1.175C63.512 1.794 63.831 2.701 63.831 3.897V19.64H68.996V22.485H55.418ZM36.873 22.485V19.64H42.007V4.083C42.007 3.403 41.677 3.062 41.017 3.062H37.307V0.217H41.605C42.801 0.217 43.709 0.537 44.327 1.175C44.967 1.794 45.286 2.701 45.286 3.897V19.64H50.451V22.485H36.873ZM25.195 4.794C24.473 4.794 23.865 4.567 23.37 4.114C23.1392 3.88915 22.9569 3.61936 22.8344 3.32128C22.7119 3.02321 22.6519 2.70319 22.658 2.381C22.658 1.701 22.895 1.134 23.37 0.681C23.865 0.226 24.473 0 25.195 0C25.937 0 26.545 0.227 27.019 0.68C27.514 1.134 27.762 1.701 27.762 2.381C27.762 3.061 27.514 3.639 27.019 4.113C26.545 4.567 25.937 4.794 25.195 4.794ZM19.04 22.484V19.64H23.865V11.012C23.865 10.332 23.535 9.991 22.875 9.991H19.473V7.144H23.463C24.741 7.144 25.669 7.444 26.246 8.041C26.844 8.619 27.143 9.547 27.143 10.825V19.64H31.968V22.485H19.04V22.484ZM0 22.484V0.836H7.083C8.773 0.836 10.165 1.125 11.258 1.702C12.371 2.279 13.196 3.062 13.732 4.052C14.289 5.022 14.567 6.125 14.567 7.362C14.567 8.764 14.207 10.012 13.485 11.104C12.784 12.176 11.701 12.96 10.237 13.454L14.784 22.486H10.98L6.835 13.919H3.278V22.486H0V22.484ZM3.278 10.948H6.897C8.382 10.948 9.464 10.618 10.145 9.958C10.845 9.299 11.196 8.433 11.196 7.361C11.196 6.268 10.856 5.402 10.176 4.763C9.495 4.103 8.392 3.773 6.866 3.773H3.278V10.948Z" fill="black"/>
</g>
<defs>
<clipPath id="clip0_1464_1383">
<rect width="106" height="23" fill="white"/>
</clipPath>
</defs>
</svg>
