<svg width="212" height="46" viewBox="0 0 212 46" fill="none" xmlns="http://www.w3.org/2000/svg">
<g clip-path="url(#clip0_1464_1396)">
<mask id="mask0_1464_1396" style="mask-type:luminance" maskUnits="userSpaceOnUse" x="0" y="0" width="212" height="46">
<path d="M0 0H212V46H0V0Z" fill="white"/>
</mask>
<g mask="url(#mask0_1464_1396)">
<path d="M202.708 44.97C199.696 44.97 197.306 44.25 195.532 42.804C193.758 41.32 192.872 38.702 192.872 34.948V19.856H185.14V14.288H189.718C191.82 14.288 193.058 13.258 193.428 11.196L194.356 6.248H199.428V14.288H211.552V19.856H199.428V34.826C199.428 36.434 199.78 37.566 200.48 38.226C201.222 38.846 202.48 39.156 204.254 39.156H211.428V44.97H202.708ZM162.648 45.71C159.68 45.71 157.06 45.052 154.792 43.732C152.534 42.382 150.693 40.4344 149.472 38.104C148.194 35.712 147.556 32.928 147.556 29.752C147.556 26.536 148.174 23.712 149.41 21.278C150.69 18.846 152.462 16.948 154.73 15.588C157.04 14.228 159.7 13.548 162.71 13.548C165.68 13.548 168.236 14.228 170.38 15.588C172.489 16.87 174.202 18.7115 175.328 20.908C176.524 23.134 177.122 25.588 177.122 28.268V29.628C177.122 30.082 177.102 30.598 177.062 31.176H153.986C154.192 34.022 155.12 36.186 156.77 37.67C158.42 39.114 160.358 39.836 162.584 39.836C164.524 39.836 166.048 39.444 167.162 38.66C168.316 37.836 169.162 36.722 169.698 35.32H176.318C175.574 38.248 174.028 40.722 171.678 42.742C169.326 44.722 166.318 45.712 162.646 45.712L162.648 45.71ZM162.648 19.238C160.628 19.238 158.834 19.856 157.268 21.094C155.7 22.288 154.688 23.98 154.236 26.166H170.566C170.402 24.104 169.596 22.434 168.154 21.154C166.71 19.876 164.874 19.238 162.648 19.238ZM110.836 44.97V39.28H121.104V8.166C121.104 6.806 120.444 6.124 119.124 6.124H111.704V0.434H120.3C122.692 0.434 124.506 1.074 125.744 2.35C127.024 3.588 127.662 5.402 127.662 7.794V39.28H137.992V44.97H110.836ZM73.746 44.97V39.28H84.014V8.166C84.014 6.806 83.354 6.124 82.034 6.124H74.614V0.434H83.21C85.602 0.434 87.418 1.074 88.654 2.35C89.934 3.588 90.572 5.402 90.572 7.794V39.28H100.902V44.97H73.746ZM50.39 9.588C48.946 9.588 47.73 9.134 46.74 8.228C46.2783 7.77831 45.9137 7.23872 45.6688 6.64257C45.4239 6.04642 45.3038 5.40638 45.316 4.762C45.316 3.402 45.79 2.268 46.74 1.362C47.73 0.452 48.946 0 50.39 0C51.874 0 53.09 0.454 54.038 1.36C55.028 2.268 55.524 3.402 55.524 4.762C55.524 6.122 55.028 7.278 54.038 8.226C53.09 9.134 51.874 9.588 50.39 9.588ZM38.08 44.968V39.28H47.73V22.024C47.73 20.664 47.07 19.982 45.75 19.982H38.946V14.288H46.926C49.482 14.288 51.338 14.888 52.492 16.082C53.688 17.238 54.286 19.094 54.286 21.65V39.28H63.936V44.97H38.08V44.968ZM0 44.968V1.672H14.166C17.546 1.672 20.33 2.25 22.516 3.404C24.742 4.558 26.392 6.124 27.464 8.104C28.578 10.044 29.134 12.25 29.134 14.724C29.134 17.528 28.414 20.024 26.97 22.208C25.568 24.352 23.402 25.92 20.474 26.908L29.568 44.972H21.96L13.67 27.838H6.556V44.972H0V44.968ZM6.556 21.896H13.794C16.764 21.896 18.928 21.236 20.29 19.916C21.69 18.598 22.392 16.866 22.392 14.722C22.392 12.536 21.712 10.804 20.352 9.526C18.99 8.206 16.784 7.546 13.732 7.546H6.556V21.896Z" fill="black"/>
</g>
</g>
<defs>
<clipPath id="clip0_1464_1396">
<rect width="212" height="46" fill="white"/>
</clipPath>
</defs>
</svg>
