<svg height="88" width="141" xmlns="http://www.w3.org/2000/svg"><g fill="none"><path d="M19.531 36.153c-.988.332-1.112 1.49-1.12 2.379-.018 3.423.004 6.85-.01 10.278.029.8-.015 1.688.483 2.37.647.67 1.745.702 2.557.348.87-.44.907-1.524.929-2.368.015-3.412 0-6.83.007-10.241-.044-.82.044-1.776-.57-2.42-.593-.565-1.537-.576-2.276-.346zm-.691-3.2c2.008-.377 4.353-.1 5.838 1.435 1.08 1.089 1.445 2.667 1.438 4.158 0 3.654.022 7.31-.007 10.965.036 1.999-.995 4.096-2.905 4.896-1.964.822-4.368.775-6.223-.318-1.679-1.012-2.374-3.054-2.319-4.932.022-3.786-.055-7.57.04-11.35.038-2.334 1.798-4.504 4.138-4.855zM0 33.093c2.418.063 4.858-.167 7.262.194 1.76.249 3.369 1.47 3.877 3.2.83 2.913.688 6.764-2.15 8.547 1.053 3.212 2.08 6.434 3.127 9.65h-3.8c-.883-2.97-1.764-5.945-2.646-8.915-.644.029-1.287.054-1.935.084v8.83H0zm3.742 3.037a741.93 741.93 0 0 0 0 6.672c1.27-.073 3.084.248 3.739-1.166a6.646 6.646 0 0 0-.004-4.351c-.665-1.4-2.465-1.078-3.735-1.155zm25.988-3.043c2.396.052 4.81-.153 7.196.154 1.683.234 3.245 1.366 3.753 3.025.812 2.463.406 5.77-2.114 7.08 1.097.604 2.162 1.43 2.546 2.676.574 1.808.48 3.836-.212 5.6-.684 1.744-2.459 2.858-4.295 2.979-2.286.164-4.584.032-6.877.073.003-7.195 0-14.392.003-21.587zm3.743 18.554c1.29-.062 3.036.245 3.804-1.09.63-1.303.633-2.947.066-4.274-.713-1.432-2.524-1.264-3.867-1.315-.007 2.225-.003 4.454-.003 6.679zm.003-15.525a778.51 778.51 0 0 0 0 5.846c1.003-.07 2.173.132 2.974-.628 1.123-1.052 1.08-2.887.425-4.184-.673-1.216-2.232-.983-3.399-1.034zM45.31 54.674v-21.59h3.735v21.59zm7.862-21.587c1.156-.003 2.312-.003 3.468-.003 1.536 4.15 3.05 8.312 4.598 12.459.015-4.15 0-8.305.008-12.46 1.126 0 2.253 0 3.38.004v21.587h-3.26c-1.606-4.53-3.19-9.07-4.807-13.596-.014 4.53-.003 9.065-.007 13.596h-3.384c.004-7.198 0-14.392.004-21.587zm50.417.048c1.844-.322 3.93-.143 5.429 1.074 1.295 1.034 1.844 2.737 1.833 4.348 0 3.782.029 7.567-.015 11.348 0 2.032-1.189 4.096-3.15 4.805-1.993.694-4.375.625-6.167-.563-1.497-1.026-2.14-2.897-2.107-4.65.021-3.892-.074-7.787.047-11.674.084-2.284 1.855-4.334 4.13-4.688zm.436 3.328c-.86.475-.85 1.579-.875 2.434-.003 3.416 0 6.836 0 10.256.033.72-.01 1.516.428 2.137.637.782 1.913.826 2.737.336.826-.518.76-1.618.808-2.466.004-3.3-.007-6.6.004-9.898-.022-.811.01-1.68-.414-2.408-.647-.752-1.843-.818-2.688-.39zm14.56-3.31c1.99-.38 4.301-.14 5.812 1.334 1.182 1.136 1.555 2.83 1.526 4.417-.015 3.65.029 7.304-.022 10.954.01 1.98-1.087 4.026-2.985 4.78-1.98.777-4.39.723-6.223-.421-1.566-1.001-2.257-2.923-2.217-4.717.007-3.774-.033-7.545.022-11.32-.03-2.374 1.701-4.64 4.086-5.027zm.457 3.34c-.835.493-.79 1.582-.83 2.418-.012 3.296.006 6.592-.008 9.884.036.822-.048 1.72.402 2.455.622.81 1.891.866 2.737.402.852-.512.808-1.626.84-2.488 0-3.42.005-6.836-.003-10.256-.033-.844-.003-1.94-.845-2.426-.691-.377-1.613-.38-2.293.01zm-34.699-3.216h3.743c-.004 2.93-.004 5.857-.004 8.784 1.324.007 2.649.004 3.97.007.003-2.93 0-5.86.003-8.79h3.742c0 7.197.004 14.392 0 21.59-1.247 0-2.495 0-3.742-.004-.004-3.186 0-6.376-.004-9.566h-3.965c-.004 3.19 0 6.38-.004 9.57-1.247 0-2.495 0-3.739-.004-.003-7.194-.003-14.39 0-21.587zm45.19 0c2.56.1 5.173-.255 7.7.29 2.115.492 3.458 2.564 3.633 4.64.249 2.667.062 5.352.125 8.03-.022 2.152.164 4.505-1.05 6.402-.878 1.414-2.554 2.108-4.167 2.185-2.078.102-4.16.018-6.24.043-.005-7.197 0-14.392 0-21.59zm3.742 3.037c.004 5.173-.007 10.347.004 15.52.991-.07 2.067.092 2.985-.368.911-.552.951-1.732.977-2.678.015-3.04 0-6.084.007-9.124-.04-.994.03-2.23-.86-2.9-.914-.596-2.081-.374-3.113-.45z" fill="#000000"/><path d="M71.197 32.105a.708.708 0 0 1 .346-.1c1.598-.062 3.198.5 4.442 1.496 1.504 1.194 2.47 2.932 3.072 4.728l.823-.098.126-.148.766.099c-.216.1-.43.2-.646.296-.245-.137-.525-.033-.786-.02.18.182.16.448.194.683a.769.769 0 0 1-.022.317c.631 1.06.94 2.28.89 3.512-.07 1.755-.724 3.455-1.691 4.908l-.209-.044.087-.153c-.75-.887-1.504-1.77-2.251-2.66.13.274.058.565-.007.844-.076.542-.38 1.01-.636 1.48-.167.306-.38.587-.533.9-.023.289-.048.6.083.87.076.17.213.309.277.487.167.404.152.848.184 1.276.032.492.058.986.092 1.478.053.434.18.855.248 1.287.021.164-.037.335.024.494.096.28.221.553.307.838.039.247.035.5.03.75-.007.172-.127.38-.321.37-.266-.002-.535.02-.8-.017-.274-.075-.345-.39-.43-.623-.033-.604.096-1.216-.027-1.815-.04-.238-.077-.476-.114-.714-.046-.348-.192-.67-.3-1.001-.286.067-.43.327-.62.52-.274.078-.56.108-.84.16-.155.038-.305-.017-.449-.068.008-.118.017-.236.028-.355.249-.045.593-.094.664-.386.064-.246.296-.516.122-.762-.131-.298-.438-.44-.677-.636-.518-.433-1.184-.625-1.739-1-.216-.193-.557-.11-.767-.313-.169-.205-.342-.43-.389-.697.014-.135.09-.252.16-.365.411-.63.81-1.267 1.238-1.886.328-.427.79-.721 1.226-1.027.087-.058.135-.153.187-.24.14-.255.283-.507.426-.76-.078-.22-.185-.433-.229-.665-.037-.152-.036-.33-.159-.444-.464-.521-.924-1.046-1.386-1.57-.08-.101-.213-.121-.329-.157-.286-.08-.572-.165-.861-.234-.721-.16-1.412-.427-2.094-.703a.352.352 0 0 1-.224-.373c-.001-.131.112-.212.2-.293.163-.132.229-.357.417-.463.109-.068.24-.07.365-.076.75-.024 1.5-.054 2.25-.08-.214-.34-.366-.726-.658-1.01l-.45-.481c.329-.192.658-.383.987-.572l.063-.188c-.235.044-.464.17-.709.122-.164-.024-.314-.097-.468-.151-.19-.071-.397-.017-.593-.008.202-.34.63-.444 1-.423.387.002.753.137 1.13.202.131.057.243.147.363.223l-.215-4.52zm6.941 7.503c-.265.086-.532.168-.798.25-.292.056-.374.424-.662.488-.374.064-.753.099-1.13.155.126.415.086.85.113 1.278.014.323.172.615.23.929.046.338-.018.68.011 1.02.175.384.328.796.625 1.11.72.854 1.436 1.714 2.155 2.57.746-1.334 1.248-2.835 1.254-4.375.001-1.228-.3-2.48-.984-3.511-.272.017-.553-.007-.814.086zm-3.409-.741c.285.06.564.164.854.194.645-.113 1.284-.26 1.927-.384.292-.067.595-.094.872-.21-1.22.11-2.436.27-3.653.4zm-3.164-6.707c.086 1.508.176 3.016.263 4.524.167.029.34.042.503.093.26.17.415.484.722.583.337.117.677.226 1.012.354-.208.39-.705.403-1.09.469.028.2 0 .4-.027.6.283-.152.564-.34.889-.383.268-.023.5.148.696.309 1.334-.138 2.668-.286 4.002-.428-.403-1.477-1.095-2.905-2.178-4.005a7.067 7.067 0 0 0-4.792-2.115zm.453 15.769c.113.12.229.24.37.326.335.215.668.433 1.004.645.06-.336.19-.66.19-1.003.015-.428.151-.845.136-1.274-.527.485-1.12.887-1.7 1.306z" fill="#000000"/></g></svg>