<?xml version="1.0" encoding="UTF-8" standalone="no"?>
<!DOCTYPE svg PUBLIC "-//W3C//DTD SVG 1.1//EN" "http://www.w3.org/Graphics/SVG/1.1/DTD/svg11.dtd">
<svg viewBox="0 0 180 60" version="1.1" xmlns="http://www.w3.org/2000/svg" xmlns:xlink="http://www.w3.org/1999/xlink" xml:space="preserve" xmlns:serif="http://www.serif.com/" style="fill-rule:evenodd;clip-rule:evenodd;stroke-linejoin:round;stroke-miterlimit:2;">
    <g transform="matrix(0.772532,0,0,0.772532,0,0)">
        <g>
            <g>
                <g id="EuroRust">
                    <g id="Group-2">
                        <g id="erlang-sponsor">
                            <g id="Group-3">
                                <path id="Fill-1" d="M233,56.516L227.987,56.516L227.987,48.853C227.987,48.19 227.839,47.674 227.544,47.379C227.249,47.084 226.88,46.936 226.512,46.936C226.069,46.936 225.627,47.084 225.184,47.452C224.743,47.822 224.374,48.263 224.152,48.853L224.152,56.516L219.212,56.516L219.212,42.884L223.636,42.884L223.636,44.873C224.152,44.137 224.816,43.547 225.7,43.179C226.586,42.811 227.618,42.59 228.798,42.59C229.756,42.59 230.494,42.737 231.01,43.106C231.526,43.474 231.968,43.842 232.263,44.358C232.558,44.873 232.706,45.389 232.854,45.979C232.927,46.568 233,47.084 233,47.526L233,56.516ZM207.562,49.664C207.562,50.548 207.784,51.284 208.226,51.8C208.668,52.316 209.258,52.611 209.996,52.611C210.733,52.611 211.249,52.316 211.765,51.8C212.208,51.284 212.429,50.548 212.429,49.664C212.429,48.779 212.208,48.042 211.765,47.526C211.322,47.011 210.733,46.716 209.996,46.716C209.258,46.716 208.742,47.011 208.226,47.526C207.784,48.042 207.562,48.779 207.562,49.664ZM209.996,56.811C208.742,56.811 207.709,56.589 206.751,56.221C205.793,55.853 205.055,55.337 204.392,54.674C203.728,54.01 203.286,53.274 202.99,52.39C202.695,51.505 202.474,50.621 202.474,49.737C202.474,48.779 202.622,47.895 202.99,47.084C203.286,46.2 203.802,45.464 204.392,44.8C204.981,44.137 205.793,43.621 206.751,43.253C207.709,42.884 208.742,42.663 209.996,42.663C211.176,42.663 212.281,42.884 213.24,43.253C214.198,43.621 214.936,44.137 215.6,44.8C216.263,45.464 216.705,46.2 217,47.084C217.295,47.969 217.516,48.853 217.516,49.737C217.516,50.695 217.369,51.579 217,52.39C216.705,53.274 216.189,54.01 215.6,54.674C214.936,55.337 214.198,55.853 213.24,56.221C212.281,56.589 211.176,56.811 209.996,56.811ZM195.838,56.516L200.778,56.516L200.778,42.884L195.838,42.884L195.838,56.516ZM195.838,41.705L200.778,41.705L200.778,37.579L195.838,37.579L195.838,41.705ZM194.438,55.779C193.774,56.073 193.036,56.295 192.226,56.516C191.414,56.736 190.677,56.811 189.866,56.811C189.276,56.811 188.76,56.736 188.318,56.589C187.802,56.443 187.359,56.221 186.99,55.927C186.622,55.632 186.327,55.189 186.106,54.674C185.884,54.158 185.811,53.569 185.811,52.831L185.811,46.568L184.115,46.568L184.115,42.884L185.811,42.884L185.811,38.61L190.751,38.61L190.751,42.884L193.406,42.884L193.406,46.568L190.751,46.568L190.751,51.063C190.751,51.505 190.824,51.8 191.046,52.021C191.267,52.168 191.488,52.316 191.857,52.316C192.078,52.316 192.373,52.242 192.667,52.168C192.963,52.095 193.258,51.947 193.626,51.874L194.438,55.779ZM174.897,53.274C175.193,53.274 175.488,53.2 175.783,53.126C176.077,53.053 176.372,52.906 176.593,52.758C176.815,52.611 176.963,52.463 177.036,52.316C177.184,52.168 177.184,51.947 177.184,51.8L177.184,50.768C176.888,50.695 176.593,50.548 176.225,50.473C175.856,50.4 175.561,50.4 175.267,50.4C174.676,50.4 174.16,50.548 173.792,50.842C173.423,51.137 173.201,51.505 173.201,51.947C173.201,52.316 173.349,52.611 173.644,52.906C173.94,53.2 174.456,53.274 174.897,53.274ZM173.423,56.811C172.76,56.811 172.096,56.663 171.506,56.443C170.916,56.221 170.4,55.927 169.957,55.484C169.516,55.116 169.22,54.6 168.925,54.085C168.63,53.569 168.557,52.979 168.557,52.316C168.557,51.652 168.704,50.989 169,50.4C169.294,49.81 169.736,49.369 170.253,48.926C170.769,48.485 171.358,48.19 172.096,47.968C172.833,47.747 173.571,47.6 174.456,47.6C175.561,47.6 176.446,47.747 177.184,48.115L177.184,47.674C177.184,47.011 176.963,46.568 176.593,46.273C176.225,45.979 175.635,45.832 174.824,45.832C174.013,45.832 173.349,45.979 172.685,46.2C172.022,46.421 171.358,46.79 170.621,47.306L169.22,44.21C170.989,43.031 173.054,42.442 175.34,42.442C177.552,42.442 179.175,42.958 180.355,43.916C181.534,44.873 182.124,46.347 182.124,48.263L182.124,50.916C182.124,51.358 182.197,51.727 182.345,51.874C182.492,52.021 182.714,52.168 183.083,52.168L183.083,56.295C182.714,56.368 182.271,56.443 181.976,56.516C181.681,56.589 181.312,56.589 181.017,56.589C180.133,56.589 179.469,56.443 179.027,56.073C178.584,55.779 178.289,55.264 178.143,54.674L178.068,54.158C177.479,54.969 176.741,55.558 175.929,55.927C175.119,56.295 174.381,56.811 173.423,56.811ZM159.193,52.611C160.077,52.611 160.889,52.168 161.552,51.211L161.552,48.779C161.33,48.19 160.962,47.674 160.519,47.306C160.077,46.936 159.561,46.716 159.045,46.716C158.677,46.716 158.381,46.79 158.013,46.936C157.718,47.084 157.422,47.306 157.202,47.6C156.981,47.895 156.833,48.19 156.686,48.558C156.538,48.926 156.465,49.294 156.465,49.737C156.465,50.621 156.686,51.284 157.202,51.8C157.718,52.316 158.381,52.611 159.193,52.611ZM157.865,56.811C156.906,56.811 156.095,56.663 155.285,56.295C154.474,55.927 153.81,55.484 153.219,54.821C152.63,54.158 152.187,53.421 151.893,52.536C151.598,51.652 151.376,50.695 151.376,49.664C151.376,48.631 151.524,47.747 151.819,46.863C152.114,45.979 152.556,45.242 153.072,44.653C153.589,43.989 154.252,43.547 154.99,43.179C155.727,42.811 156.538,42.663 157.422,42.663C158.307,42.663 159.118,42.884 159.856,43.253C160.593,43.621 161.183,44.21 161.552,44.948L161.552,37.579L166.492,37.579L166.492,51.063C166.492,51.505 166.566,51.874 166.713,52.021C166.861,52.168 167.082,52.316 167.45,52.316L167.45,56.443C166.566,56.589 165.902,56.736 165.386,56.736C163.69,56.736 162.732,56.073 162.51,54.821L162.437,54.305C161.994,55.116 161.33,55.705 160.519,56.148C159.634,56.589 158.75,56.811 157.865,56.811ZM149.828,56.516L144.814,56.516L144.814,48.853C144.814,48.19 144.667,47.674 144.372,47.379C144.076,47.084 143.708,46.936 143.339,46.936C142.897,46.936 142.455,47.084 142.012,47.452C141.57,47.822 141.201,48.263 140.98,48.853L140.98,56.516L136.04,56.516L136.04,42.884L140.464,42.884L140.464,44.873C140.98,44.137 141.644,43.547 142.528,43.179C143.413,42.811 144.446,42.59 145.626,42.59C146.584,42.59 147.322,42.737 147.838,43.106C148.354,43.474 148.795,43.842 149.091,44.358C149.386,44.873 149.534,45.389 149.68,45.979C149.754,46.568 149.828,47.084 149.828,47.526L149.828,56.516ZM123.578,56.811C122.178,56.811 121.145,56.368 120.408,55.558C119.67,54.748 119.302,53.495 119.302,51.874L119.302,42.884L124.242,42.884L124.242,50.768C124.242,51.358 124.389,51.874 124.61,52.168C124.832,52.463 125.274,52.684 125.717,52.684C126.085,52.684 126.454,52.611 126.897,52.39C127.265,52.242 127.708,51.8 128.076,51.284L128.076,42.884L133.016,42.884L133.016,51.063C133.016,51.505 133.09,51.874 133.237,52.021C133.385,52.168 133.607,52.316 133.975,52.316L133.975,56.443C133.09,56.589 132.427,56.736 131.911,56.736C130.215,56.736 129.256,56.073 129.035,54.821L128.961,54.305C128.297,55.189 127.56,55.779 126.676,56.148C125.717,56.589 124.758,56.811 123.578,56.811ZM107.799,49.664C107.799,50.548 108.02,51.284 108.463,51.8C108.906,52.316 109.495,52.611 110.233,52.611C110.97,52.611 111.486,52.316 112.002,51.8C112.445,51.284 112.666,50.548 112.666,49.664C112.666,48.779 112.445,48.042 112.002,47.526C111.559,47.011 110.97,46.716 110.233,46.716C109.495,46.716 108.979,47.011 108.463,47.526C108.02,48.042 107.799,48.779 107.799,49.664ZM110.233,56.811C108.979,56.811 107.947,56.589 106.988,56.221C106.03,55.853 105.292,55.337 104.628,54.674C103.966,54.01 103.523,53.274 103.228,52.39C102.932,51.505 102.712,50.621 102.712,49.737C102.712,48.779 102.859,47.895 103.228,47.084C103.523,46.2 104.039,45.464 104.628,44.8C105.219,44.137 106.03,43.621 106.988,43.253C107.947,42.884 108.979,42.663 110.233,42.663C111.412,42.663 112.518,42.884 113.477,43.253C114.435,43.621 115.173,44.137 115.837,44.8C116.501,45.464 116.942,46.2 117.238,47.084C117.533,47.969 117.754,48.853 117.754,49.737C117.754,50.695 117.606,51.579 117.238,52.39C116.942,53.274 116.426,54.01 115.837,54.674C115.173,55.337 114.435,55.853 113.477,56.221C112.518,56.589 111.486,56.811 110.233,56.811ZM89.956,56.589L89.956,38.095L102.638,38.095L102.638,42.515L95.044,42.515L95.044,45.611L101.237,45.611L101.237,49.737L95.044,49.737L95.044,56.589L89.956,56.589ZM145.92,33.01C145.256,33.305 144.519,33.526 143.708,33.747C142.897,33.969 142.16,34.042 141.348,34.042C140.759,34.042 140.243,33.969 139.8,33.821C139.284,33.674 138.841,33.453 138.473,33.158C138.104,32.863 137.809,32.421 137.588,31.906C137.367,31.39 137.293,30.8 137.293,30.064L137.293,23.8L135.597,23.8L135.597,20.116L137.293,20.116L137.293,15.842L142.233,15.842L142.233,20.116L144.888,20.116L144.888,23.8L142.233,23.8L142.233,28.294C142.233,28.737 142.307,29.032 142.528,29.253C142.75,29.4 142.971,29.548 143.339,29.548C143.56,29.548 143.855,29.473 144.151,29.4C144.446,29.326 144.74,29.178 145.108,29.105L145.92,33.01ZM129.109,34.042C127.929,34.042 126.749,33.821 125.569,33.453C124.389,33.085 123.431,32.495 122.694,31.758L124.389,28.81C125.274,29.4 126.085,29.842 126.822,30.137C127.634,30.432 128.297,30.579 128.961,30.579C129.625,30.579 129.993,30.357 129.993,29.916C129.993,29.695 129.846,29.473 129.625,29.326C129.329,29.178 128.813,28.958 128.076,28.737C127.118,28.442 126.306,28.221 125.644,27.926C124.98,27.631 124.464,27.337 124.094,27.042C123.653,26.747 123.431,26.379 123.21,26.011C123.062,25.643 122.914,25.2 122.914,24.684C122.914,24.021 123.062,23.358 123.357,22.769C123.653,22.179 124.021,21.663 124.537,21.22C125.053,20.779 125.644,20.484 126.306,20.189C126.97,19.895 127.708,19.821 128.518,19.821C129.552,19.821 130.509,19.968 131.394,20.189C132.28,20.484 133.237,21 134.123,21.737L132.28,24.684C131.394,24.094 130.731,23.726 130.141,23.505C129.552,23.285 129.035,23.137 128.518,23.137C128.224,23.137 128.002,23.21 127.781,23.285C127.56,23.432 127.486,23.578 127.486,23.8C127.486,24.094 127.634,24.242 127.929,24.464C128.224,24.61 128.74,24.832 129.552,25.053C130.509,25.348 131.394,25.568 132.058,25.863C132.721,26.158 133.237,26.452 133.68,26.822C134.123,27.19 134.344,27.558 134.565,27.926C134.712,28.369 134.86,28.81 134.86,29.4C134.86,30.137 134.712,30.727 134.492,31.316C134.269,31.906 133.828,32.347 133.385,32.715C132.869,33.085 132.28,33.453 131.616,33.6C130.805,33.894 129.993,34.042 129.109,34.042ZM111.043,34.042C109.643,34.042 108.611,33.6 107.874,32.79C107.135,31.979 106.767,30.727 106.767,29.105L106.767,20.116L111.707,20.116L111.707,28.001C111.707,28.589 111.855,29.105 112.075,29.4C112.371,29.695 112.739,29.916 113.182,29.916C113.551,29.916 113.919,29.842 114.362,29.621C114.73,29.473 115.173,29.032 115.542,28.516L115.542,20.116L120.482,20.116L120.482,28.294C120.482,28.737 120.555,29.105 120.702,29.253C120.85,29.4 121.072,29.548 121.441,29.548L121.441,33.674C120.555,33.821 119.892,33.969 119.376,33.969C117.68,33.969 116.721,33.305 116.501,32.052L116.426,31.536C115.762,32.421 115.026,33.01 114.141,33.379C113.255,33.821 112.223,34.042 111.043,34.042ZM94.969,23.653L98.214,23.653C98.508,23.653 98.804,23.505 99.099,23.137C99.394,22.769 99.467,22.326 99.467,21.663C99.467,21 99.32,20.558 99.025,20.189C98.731,19.821 98.435,19.673 98.067,19.673L94.969,19.673L94.969,23.653ZM89.956,33.894L89.956,15.327L98.435,15.327C99.32,15.327 100.131,15.547 100.942,15.916C101.679,16.284 102.343,16.8 102.932,17.39C103.523,17.979 103.891,18.642 104.187,19.453C104.482,20.189 104.628,21 104.628,21.811C104.628,22.915 104.407,23.874 103.891,24.832C103.448,25.789 102.786,26.527 101.975,27.115L105.882,33.894L100.204,33.894L96.96,28.221L95.044,28.221L95.044,33.894L89.956,33.894ZM65.771,32.2C64.518,32.2 63.484,31.168 63.484,29.916C63.484,28.663 64.518,27.631 65.771,27.631L65.844,27.631C67.098,27.631 68.056,28.663 68.056,29.916C68.056,31.168 67.024,32.2 65.771,32.2ZM36.129,9.064C36.129,7.81 37.162,6.779 38.415,6.779L38.489,6.779C39.742,6.779 40.701,7.81 40.701,9.064C40.701,10.316 39.669,11.347 38.415,11.347C37.162,11.347 36.129,10.316 36.129,9.064ZM60.019,46.127C58.544,46.273 56.923,45.537 56.701,44.578C55.816,39.716 54.416,38.685 52.129,36.842C54.932,35.073 57.881,32.421 57.881,28.81C57.881,24.979 55.227,22.547 53.457,21.368C50.95,19.748 48.148,19.379 47.411,19.379L17.475,19.379C21.604,14.737 27.134,11.642 33.254,10.463L36.793,14.148C37.605,14.957 38.931,15.032 39.742,14.221L43.724,10.463C51.908,12.01 58.913,17.021 63.043,24.242L60.315,30.357C59.872,31.39 60.315,32.642 61.347,33.158L66.582,35.442C66.73,37.063 66.73,38.685 66.655,40.305L63.78,40.305C63.484,40.305 63.338,40.527 63.338,40.748L63.338,42.074C63.338,45.242 61.568,45.979 60.019,46.127ZM32.147,33.453L32.147,28.147L41.66,28.147C42.176,28.147 45.125,28.737 45.125,30.947C45.125,32.79 42.84,33.453 40.996,33.453L32.147,33.453ZM8.773,29.768C8.773,28.516 9.806,27.484 11.06,27.484L11.133,27.484C12.387,27.484 13.345,28.516 13.345,29.768C13.345,31.021 12.313,32.052 11.06,32.052C9.806,32.052 8.773,31.021 8.773,29.768ZM10.469,35.221L15.411,33.01C16.443,32.569 16.959,31.316 16.443,30.284L15.484,28.001L19.466,28.001L19.466,45.979L11.355,45.979C10.396,42.515 10.101,38.832 10.469,35.221ZM23.742,62.043C23.742,63.295 22.71,64.326 21.456,64.326C20.203,64.326 19.171,63.295 19.171,62.043C19.171,60.789 20.203,59.758 21.456,59.758L21.53,59.758C22.71,59.832 23.742,60.789 23.742,62.043ZM57.66,62.19C57.66,63.442 56.628,64.474 55.375,64.474C54.12,64.474 53.088,63.442 53.088,62.19C53.088,60.937 54.12,59.905 55.375,59.905L55.448,59.905C56.701,59.905 57.66,60.937 57.66,62.19ZM53.825,56.958C52.72,56.736 51.613,57.4 51.319,58.579L50.139,63.958C42.618,67.347 34.065,67.274 26.618,63.885L25.438,58.506C25.217,57.4 24.111,56.663 22.931,56.884L18.212,57.915C17.327,57.032 16.516,56.073 15.779,55.042L38.858,55.042C39.078,55.042 39.3,54.969 39.3,54.748L39.3,46.568C39.3,46.347 39.153,46.273 38.858,46.273L32.074,46.273L32.074,41.116L39.374,41.116C40.037,41.116 42.913,41.336 43.872,45.021C44.166,46.127 44.83,49.884 45.198,51.063C45.641,52.39 47.411,55.042 49.254,55.042L61.126,55.042C60.315,56.073 59.43,57.105 58.544,58.063L53.825,56.958ZM76.536,37.579L73.218,35.516C73.218,35.221 73.145,34.926 73.145,34.632L75.946,31.979C76.241,31.684 76.314,31.316 76.241,30.947C76.167,30.579 75.873,30.284 75.578,30.137L71.965,28.81L71.743,27.926L74.029,24.757C74.25,24.464 74.323,24.021 74.177,23.726C74.029,23.358 73.734,23.137 73.366,23.063L69.531,22.474C69.383,22.179 69.236,21.958 69.089,21.663L70.711,18.126C70.858,17.758 70.858,17.39 70.638,17.021C70.415,16.652 70.047,16.506 69.679,16.506L65.771,16.652C65.623,16.431 65.402,16.211 65.255,15.99L66.139,12.231C66.214,11.863 66.139,11.495 65.844,11.2C65.55,10.905 65.18,10.831 64.812,10.905L61.052,11.79C60.831,11.642 60.609,11.422 60.388,11.274L60.535,7.369C60.535,6.999 60.388,6.631 60.019,6.411C59.724,6.19 59.282,6.19 58.913,6.337L55.3,8.032C55.079,7.885 54.784,7.737 54.489,7.59L53.9,3.758C53.825,3.389 53.604,3.094 53.236,2.947C52.867,2.8 52.499,2.874 52.129,3.094L48.96,5.379L48.074,5.158L46.895,1.474C46.748,1.106 46.452,0.811 46.01,0.736C45.641,0.663 45.273,0.811 44.977,1.031L42.324,3.832C42.028,3.832 41.733,3.758 41.438,3.758L39.374,0.442C39.3,0.221 38.931,-0 38.489,-0C38.046,-0 37.752,0.221 37.53,0.516L35.466,3.832C35.171,3.832 34.876,3.905 34.581,3.905L31.926,1.106C31.631,0.811 31.263,0.736 30.894,0.811C30.526,0.884 30.231,1.179 30.083,1.474L28.755,5.084C28.535,5.158 28.239,5.232 28.019,5.305L24.922,3.021C24.627,2.8 24.184,2.726 23.89,2.874C23.52,3.021 23.299,3.316 23.226,3.684L22.636,7.515C22.342,7.663 22.12,7.81 21.824,7.958L18.286,6.337C17.917,6.19 17.548,6.19 17.18,6.411C16.884,6.631 16.664,6.999 16.664,7.369L16.811,11.274C16.59,11.422 16.368,11.642 16.147,11.79L12.387,10.905C12.019,10.831 11.649,10.905 11.355,11.2C11.06,11.495 10.985,11.863 11.06,12.231L11.944,15.99C11.724,16.211 11.576,16.431 11.428,16.652L7.52,16.506C7.152,16.506 6.784,16.652 6.561,17.021C6.341,17.315 6.341,17.758 6.488,18.126L8.11,21.663C7.963,21.884 7.816,22.179 7.668,22.474L3.833,23.063C3.465,23.137 3.17,23.358 3.022,23.726C2.876,24.094 2.949,24.464 3.17,24.757L5.308,28.001L5.088,28.885L1.474,30.137C1.105,30.284 0.885,30.579 0.81,30.947C0.737,31.316 0.885,31.684 1.105,31.979L3.908,34.632C3.908,34.926 3.833,35.221 3.833,35.516L0.516,37.579C0.221,37.726 0,38.095 0,38.463C0,38.832 0.221,39.2 0.516,39.421L3.833,41.484C3.833,41.779 3.908,42.074 3.908,42.368L1.105,45.021C0.81,45.316 0.737,45.684 0.81,46.052C0.81,46.421 1.105,46.716 1.474,46.863L5.088,48.19L5.308,49.074L3.022,52.242C2.801,52.536 2.728,52.979 2.876,53.274C3.022,53.569 3.317,53.863 3.686,53.937L7.52,54.526C7.668,54.821 7.816,55.042 7.963,55.337L6.341,58.874C6.193,59.242 6.193,59.61 6.414,59.978C6.636,60.273 7.004,60.495 7.373,60.495L11.281,60.348C11.428,60.569 11.649,60.789 11.797,61.011L10.912,64.769C10.839,65.137 10.912,65.505 11.207,65.8C11.503,66.095 11.871,66.168 12.24,66.095L16,65.21C16.221,65.358 16.443,65.58 16.664,65.726L16.516,69.632C16.516,70 16.664,70.369 17.032,70.589C17.4,70.81 17.77,70.81 18.139,70.664L21.678,69.042C21.899,69.19 22.194,69.337 22.488,69.485L23.079,73.316C23.152,73.684 23.374,73.979 23.742,74.126C24.111,74.274 24.479,74.201 24.774,73.979L27.945,71.695L28.83,71.916L30.157,75.526C30.305,75.895 30.599,76.116 30.967,76.189C31.337,76.264 31.706,76.116 32.001,75.895L34.654,73.095C34.95,73.095 35.245,73.168 35.539,73.168L37.605,76.484C37.825,76.779 38.194,77 38.562,77C38.931,77 39.3,76.779 39.521,76.484L41.586,73.168C41.881,73.168 42.176,73.095 42.47,73.095L45.125,75.895C45.42,76.189 45.789,76.264 46.157,76.189C46.526,76.116 46.821,75.821 46.968,75.526L48.296,71.916L49.18,71.695L52.277,73.979C52.572,74.201 53.015,74.274 53.384,74.126C53.752,73.979 53.973,73.684 54.047,73.316L54.637,69.485C54.932,69.337 55.153,69.19 55.448,69.042L58.987,70.664C59.356,70.81 59.724,70.81 60.093,70.589C60.388,70.369 60.609,70 60.609,69.632L60.462,65.726C60.683,65.58 60.904,65.358 61.126,65.21L64.886,66.095C65.255,66.168 65.623,66.095 65.918,65.8C66.214,65.505 66.287,65.137 66.214,64.769L65.328,61.011C65.475,60.789 65.698,60.569 65.844,60.348L69.752,60.495C70.121,60.495 70.49,60.348 70.711,59.978C70.932,59.685 70.932,59.242 70.785,58.874L69.015,55.264C69.162,55.042 69.31,54.748 69.458,54.453L73.291,53.863C73.661,53.79 73.955,53.569 74.102,53.2C74.25,52.831 74.177,52.463 73.955,52.168L71.67,49.001L71.891,48.115L75.503,46.79C75.873,46.643 76.094,46.347 76.167,45.979C76.241,45.611 76.094,45.242 75.873,44.948L73.07,42.295C73.07,42 73.145,41.705 73.145,41.411L76.462,39.348C76.757,39.126 76.978,38.758 76.978,38.39C76.978,38.021 76.831,37.726 76.536,37.579Z"/>
                            </g>
                        </g>
                    </g>
                </g>
            </g>
        </g>
    </g>
</svg>
