<svg clip-rule="evenodd" fill-rule="evenodd" stroke-linejoin="round" stroke-miterlimit="2" viewBox="0 0 1000 563" xmlns="http://www.w3.org/2000/svg"><g fill-rule="nonzero" transform="scale(9.52381)"><path d="m11.603 0c6.57 0 11.911 4.543 12.034 10.866.062 1.781-1.227 2.764-2.64 2.764-1.35 0-2.517-.982-2.578-2.64-.062-3.562-3.07-6.202-6.877-6.202-3.562 0-6.262 2.517-6.262 5.955 0 3.745 2.517 5.404 7.736 7.307 5.586 2.026 10.683 4.42 10.683 11.541 0 6.202-4.851 11.174-11.603 11.174-6.631 0-12.096-4.666-12.096-10.989 0-3.929 1.903-6.692 3.745-6.692 1.597 0 2.578 1.043 2.578 2.455 0 1.228-1.043 1.78-1.043 3.991 0 3.929 3.192 6.446 6.816 6.446 3.806 0 6.323-2.64 6.323-5.832 0-3.929-2.517-5.587-7.736-7.43-5.832-2.084-10.683-4.603-10.683-11.54 0-6.262 5.034-11.174 11.603-11.174z"/><path d="m38.397 40.767c-6.63 0-12.155-5.342-12.155-12.096 0-6.998 5.586-12.217 12.34-12.217 7.245 0 12.34 5.403 12.34 12.771v8.963c0 1.536-1.228 2.579-2.64 2.579-1.473 0-2.702-1.043-2.702-2.579v-8.78c0-4.851-2.762-8.166-7.121-8.166-3.868 0-6.937 3.254-6.937 7.429 0 3.868 3.008 7.184 6.815 7.184 1.413 0 2.026-.368 2.886-.368 1.167 0 2.394.981 2.394 2.394-.001 1.903-2.273 2.886-5.22 2.886z"/><path d="m66.05 59.063c-6.877 0-12.586-4.913-12.586-11.298 0-2.149 1.228-3.13 2.64-3.13s2.578.921 2.64 2.701c.061 3.991 3.254 6.937 7.245 6.937 4.237 0 6.998-2.701 6.998-6.201 0-3.991-3.069-5.648-8.288-7.307-6.078-1.964-11.235-4.666-11.235-12.155 0-6.877 5.28-12.156 12.156-12.156 6.937 0 12.647 5.034 12.647 11.665 0 4.052-1.656 7.183-3.929 7.183-1.535 0-2.578-1.104-2.578-2.455 0-1.413 1.227-2.026 1.227-4.543 0-4.237-3.315-7.061-7.306-7.061-3.868 0-6.937 2.948-6.937 6.816 0 4.358 3.131 6.201 8.288 7.92 5.955 1.965 11.235 4.42 11.235 11.603 0 6.446-5.095 11.481-12.217 11.481z"/><path d="m93.335 40.767c-6.877 0-12.524-5.403-12.524-12.156 0-6.754 5.464-12.155 12.217-12.155 6.815 0 11.972 4.727 11.972 10.744 0 2.333-1.657 3.745-4.358 3.745h-7.06c-1.413 0-2.456-.982-2.456-2.272 0-1.228 1.043-2.211 2.456-2.211h5.279c.491 0 .861-.246.861-.737 0-1.78-2.273-4.543-6.508-4.543-3.93 0-7.122 3.377-7.122 7.429 0 4.114 3.254 7.368 7.306 7.368 4.667 0 6.202-2.763 8.105-2.763 1.597 0 2.455 1.043 2.455 2.211 0 1.104-.737 2.087-2.578 3.254-1.845 1.164-4.606 2.086-8.045 2.086z"/></g></svg>