<?xml version="1.0" encoding="UTF-8" standalone="no"?>
<!DOCTYPE svg PUBLIC "-//W3C//DTD SVG 1.1//EN" "http://www.w3.org/Graphics/SVG/1.1/DTD/svg11.dtd">
<svg viewBox="0 0 361 80" version="1.1" xmlns="http://www.w3.org/2000/svg" xmlns:xlink="http://www.w3.org/1999/xlink" xml:space="preserve" xmlns:serif="http://www.serif.com/" style="fill-rule:evenodd;clip-rule:evenodd;stroke-linejoin:round;stroke-miterlimit:2;">
    <g transform="matrix(1,0,0,1,-19.9137,-19.8607)">
        <g transform="matrix(1,0,0,1,19.8198,19.8198)">
            <path d="M52.252,4.113C50.731,1.589 47.992,0.041 45.045,0.041C42.098,0.041 39.359,1.589 37.838,4.113L25.982,24.419C44.39,33.609 56.585,51.927 57.964,72.455L49.64,72.455C48.264,54.859 37.646,39.256 21.784,31.518L10.811,50.491C19.719,54.486 25.997,62.764 27.441,72.419L8.324,72.419C7.611,72.368 7.052,71.768 7.052,71.053C7.052,70.832 7.105,70.615 7.207,70.419L12.505,61.41C10.71,59.913 8.659,58.753 6.45,57.986L1.207,66.995C0.478,68.246 0.094,69.668 0.094,71.116C0.094,74.062 1.686,76.79 4.252,78.239C5.496,78.939 6.897,79.311 8.324,79.32L34.505,79.32C35.492,67.13 30.014,55.277 20.09,48.131L24.252,40.923C36.78,49.528 43.851,64.157 42.811,79.32L64.991,79.32C66.041,56.346 54.756,34.478 35.423,22.023L43.838,7.608C44.226,6.959 45.077,6.74 45.73,7.122C46.685,7.644 82.288,69.77 82.955,70.491C83.069,70.695 83.128,70.925 83.128,71.158C83.128,71.909 82.51,72.527 81.759,72.527C81.749,72.527 81.739,72.527 81.73,72.527L73.153,72.527C73.261,74.821 73.261,77.11 73.153,79.392L81.766,79.392C81.784,79.392 81.802,79.392 81.82,79.392C86.357,79.392 90.09,75.659 90.09,71.122C90.09,71.11 90.09,71.098 90.09,71.086C90.091,69.641 89.705,68.222 88.973,66.977L52.252,4.113ZM224,50.995L197.405,16.653L190.775,16.653L190.775,62.689L197.495,62.689L197.495,27.41L224.847,62.689L230.721,62.689L230.721,16.653L224,16.653L224,50.995ZM157.027,42.455L180.865,42.455L180.865,36.473L157.009,36.473L157.009,22.617L183.91,22.617L183.91,16.635L150.162,16.635L150.162,62.689L184.252,62.689L184.252,56.707L157.009,56.707L157.027,42.455ZM128.991,36.617C119.712,34.383 117.117,32.617 117.117,28.329C117.117,24.473 120.523,21.86 125.604,21.86C130.23,21.996 134.694,23.606 138.342,26.455L141.946,21.356C137.328,17.736 131.596,15.825 125.73,15.95C116.613,15.95 110.252,21.356 110.252,29.05C110.252,37.338 115.658,40.203 125.495,42.599C134.252,44.617 136.937,46.491 136.937,50.689C136.937,54.887 133.333,57.482 127.766,57.482C122.225,57.457 116.888,55.361 112.811,51.608L108.757,56.455C113.979,60.943 120.646,63.406 127.532,63.392C137.405,63.392 143.748,58.077 143.748,49.86C143.694,42.905 139.586,39.176 128.991,36.617ZM352.613,16.653L338.757,38.275L324.991,16.653L316.955,16.653L335.135,44.491L335.135,62.707L342.054,62.707L342.054,44.275L360.36,16.653L352.613,16.653ZM236.162,22.887L251.243,22.887L251.243,62.707L258.162,62.707L258.162,22.887L273.243,22.887L273.243,16.653L236.18,16.653L236.162,22.887ZM305.243,44.725C312.198,42.797 316.054,37.932 316.054,30.977C316.054,22.131 309.586,16.563 299.153,16.563L278.685,16.563L278.685,62.671L285.532,62.671L285.532,46.131L297.153,46.131L308.829,62.707L316.829,62.707L304.216,45.014L305.243,44.725ZM285.514,40.221L285.514,22.743L298.432,22.743C305.171,22.743 309.027,25.932 309.027,31.464C309.027,36.995 304.901,40.221 298.505,40.221L285.514,40.221Z" style="fill-rule:nonzero;"/>
        </g>
    </g>
</svg>
