<?xml version="1.0" encoding="UTF-8" standalone="no"?>
<!DOCTYPE svg PUBLIC "-//W3C//DTD SVG 1.1//EN" "http://www.w3.org/Graphics/SVG/1.1/DTD/svg11.dtd">
<svg viewBox="0 0 135 32" version="1.1" xmlns="http://www.w3.org/2000/svg" xmlns:xlink="http://www.w3.org/1999/xlink" xml:space="preserve" xmlns:serif="http://www.serif.com/" style="fill-rule:evenodd;clip-rule:evenodd;stroke-linejoin:round;stroke-miterlimit:2;">
    <g transform="matrix(1,0,0,1,1.86e-05,-3.87e-05)">
        <g transform="matrix(1,0,0,1,-19.4,-17.7)">
            <g id="Skovik" transform="matrix(0.142985,0,0,0.142985,16.6261,15.1692)">
                <path d="M128.9,179.4C128.9,173.2 126.3,168.3 121.1,164.7C115.9,161.1 109.45,157.8 101.75,154.8C94.05,151.8 85.7,148.8 76.7,145.8C67.7,142.8 59.35,138.8 51.65,133.8C43.95,128.8 37.5,122.5 32.3,114.9C27.1,107.3 24.5,97.4 24.5,85.2C24.5,74.8 26.35,65.65 30.05,57.75C33.75,49.85 38.95,43.35 45.65,38.25C52.35,33.15 60.45,29.3 69.95,26.7C79.45,24.1 89.9,22.8 101.3,22.8C114.5,22.8 127.05,23.95 138.95,26.25C150.85,28.55 160.6,31.8 168.2,36L154.1,73.2C151.7,71.8 148.65,70.35 144.95,68.85C141.25,67.35 137,66.05 132.2,64.95C127.4,63.85 122.3,62.95 116.9,62.25C111.5,61.55 106,61.2 100.4,61.2C90.4,61.2 82.65,62.95 77.15,66.45C71.65,69.95 68.9,74.8 68.9,81C68.9,87.2 71.5,92.15 76.7,95.85C81.9,99.55 88.35,102.95 96.05,106.05C103.75,109.15 112.1,112.25 121.1,115.35C130.1,118.45 138.45,122.45 146.15,127.35C153.85,132.25 160.3,138.4 165.5,145.8C170.7,153.2 173.3,162.7 173.3,174.3C173.3,185.9 171.3,195.9 167.3,204.3C163.3,212.7 157.65,219.65 150.35,225.15C143.05,230.65 134.3,234.7 124.1,237.3C113.9,239.9 102.7,241.2 90.5,241.2C82.3,241.2 74.55,240.75 67.25,239.85C59.95,238.95 53.2,237.85 47,236.55C40.8,235.25 35.35,233.85 30.65,232.35C25.95,230.85 22.2,229.4 19.4,228L34.1,190.5C36.3,191.7 39.35,193 43.25,194.4C47.15,195.8 51.5,197.15 56.3,198.45C61.1,199.75 66.25,200.8 71.75,201.6C77.25,202.4 82.8,202.8 88.4,202.8C101.6,202.8 111.65,200.9 118.55,197.1C125.45,193.3 128.9,187.4 128.9,179.4ZM261.5,171.6L247.1,171.6L247.1,237L205.1,237L205.1,27L247.1,27L247.1,147.6L260.3,141.9L299.6,79.5L345.8,79.5L305.6,136.8L305.9,136.8L286.7,150.6L306.8,163.8L306.5,163.8L352.7,237L304.1,237L261.5,171.6ZM361.1,158.4C361.1,132.4 368,112 381.8,97.2C395.6,82.4 415.3,75 440.9,75C454.3,75 466,77.1 476,81.3C486,85.5 494.3,91.35 500.9,98.85C507.5,106.35 512.45,115.15 515.75,125.25C519.05,135.35 520.7,146.4 520.7,158.4C520.7,171.2 518.9,182.75 515.3,193.05C511.7,203.35 506.5,212.1 499.7,219.3C492.9,226.5 484.55,232 474.65,235.8C464.75,239.6 453.5,241.5 440.9,241.5C427.3,241.5 415.5,239.4 405.5,235.2C395.5,231 387.2,225.15 380.6,217.65C374,210.15 369.1,201.35 365.9,191.25C362.7,181.15 361.1,170.2 361.1,158.4ZM404.3,158.4C404.3,165 405,171.2 406.4,177C407.8,182.8 409.95,187.85 412.85,192.15C415.75,196.45 419.5,199.9 424.1,202.5C428.7,205.1 434.3,206.4 440.9,206.4C465.3,206.4 477.5,190.4 477.5,158.4C477.5,151.4 476.85,144.95 475.55,139.05C474.25,133.15 472.15,128.05 469.25,123.75C466.35,119.45 462.55,116.1 457.85,113.7C453.15,111.3 447.5,110.1 440.9,110.1C429.5,110.1 420.55,113.9 414.05,121.5C407.55,129.1 404.3,141.4 404.3,158.4ZM606.2,161.1L612.5,185.4L617.3,185.4L621.8,160.5L651.2,79.5L696.5,79.5L624.5,238.5L600.5,238.5L525.5,79.5L574.4,79.5L606.2,161.1ZM719.6,79.5L761.6,79.5L761.6,237L719.6,237L719.6,79.5ZM713.3,40.2C713.3,33.8 715.6,28.45 720.2,24.15C724.8,19.85 731.3,17.7 739.7,17.7C748.3,17.7 755.1,19.9 760.1,24.3C765.1,28.7 767.6,34 767.6,40.2C767.6,46 765.1,51 760.1,55.2C755.1,59.4 748.3,61.5 739.7,61.5C731.3,61.5 724.8,59.4 720.2,55.2C715.6,51 713.3,46 713.3,40.2ZM866,171.6L851.6,171.6L851.6,237L809.6,237L809.6,27L851.6,27L851.6,147.6L864.8,141.9L904.1,79.5L950.3,79.5L910.1,136.8L910.4,136.8L891.2,150.6L911.3,163.8L911,163.8L957.2,237L908.6,237L866,171.6Z"/>
            </g>
        </g>
    </g>
</svg>
