<?xml version="1.0" encoding="UTF-8"?>
<svg viewBox="0 0 127.221927 23.1714949" version="1.1" xmlns="http://www.w3.org/2000/svg" xmlns:xlink="http://www.w3.org/1999/xlink">
    <title>Combined Shape</title>
    <g id="Page-1" stroke="none" stroke-width="1" fill="none" fill-rule="evenodd">
        <path d="M121.797306,15.4372269 L111.843775,15.4372269 L111.843775,5.44244407 C111.843775,2.4400202 114.277461,0 117.265392,0 L121.797306,0 C124.788241,0 127.221927,2.44303515 127.221927,5.44244407 L127.221927,9.99176792 C127.221927,12.9941918 124.788241,15.4372269 121.797306,15.4372269 L121.797306,15.4372269 Z M114.103956,13.168363 L121.797306,13.168363 C123.542981,13.168363 124.958742,11.7441482 124.958742,9.99176792 L124.958742,5.44244407 C124.958742,3.69307876 123.539977,2.26886395 121.797306,2.26886395 L117.265392,2.26886395 C115.522721,2.26886395 114.103956,3.69307876 114.103956,5.44244407 L114.103956,13.165348 L114.103956,13.168363 Z M17.7748731,10.839432 C17.1864358,7.09788216 15.4208928,5.69081372 11.238529,5.69081372 L6.53611313,5.69081372 C2.25463674,5.68503138 0,7.2919984 0,10.2772603 L0,11.4901968 C0,13.162565 0.847192635,14.6039418 2.32001866,15.3286888 C3.2353656,15.8196614 4.24751475,15.9509276 6.50215149,15.9509276 L10.718477,15.9509276 C12.0261155,15.9509276 12.7425443,15.9852516 13.0724573,16.0821938 C13.8884607,16.279093 14.3461341,16.8043897 14.3461341,17.5919867 L14.3461341,18.2170085 C14.3461341,19.6268444 13.5273584,19.9893338 10.4567183,19.9893338 L7.41749843,19.9893338 C5.32504582,19.9893338 4.70518822,19.8580676 4.15094357,19.3330029 C3.75842099,18.9732965 3.59646789,18.4795409 3.4968933,17.5947697 L0.00277237841,18.0228923 C0.591440727,21.7616591 2.3539803,23.1714949 6.53911654,23.1714949 L11.3438793,23.1714949 C15.6225834,23.1714949 17.8772201,21.5647598 17.8772201,18.545174 L17.8772201,17.3637784 C17.8772201,15.6570862 17.0300275,14.2470184 15.5602048,13.4937454 C14.6446269,13.0340819 13.7292799,12.9028157 11.3750686,12.9028157 L7.15874311,12.9028157 C5.81968434,12.9028157 5.13444481,12.8687236 4.80753519,12.7715495 C3.98875943,12.5746502 3.53108596,12.0180446 3.53108596,11.2617566 L3.53108596,10.6054257 C3.53108596,9.22689893 4.34986172,8.86742442 7.42050184,8.86742442 L10.3629195,8.86742442 C12.4553721,8.86742442 13.0752297,8.9986906 13.6297053,9.5237553 C14.0219969,9.88346173 14.184181,10.3742024 14.2807522,11.2617566 L17.7776455,10.833634 L17.7748731,10.839432 Z M38.2592841,12.2492678 C38.2592841,9.75776161 37.8327999,8.34514275 36.7240795,7.26347235 C35.5811665,6.14747794 34.1425332,5.68804633 31.7229399,5.68804633 L26.9181771,5.68804633 C24.5015873,5.68804633 23.0629539,6.14747794 21.9172685,7.26347235 C20.8055448,8.34514275 20.382064,9.75497858 20.382064,12.2492678 L20.382064,16.6102734 C20.382064,19.1017797 20.8083172,20.5143985 21.9172685,21.5960689 C23.0601815,22.7120633 24.4988149,23.1714949 26.9181771,23.1714949 L31.7229399,23.1714949 C34.1395298,23.1714949 35.5781631,22.7120633 36.7240795,21.5960689 C37.8355722,20.5143985 38.2592841,19.1045627 38.2592841,16.6102734 L38.2592841,12.2492678 Z M23.8817297,12.9028157 C23.8817297,10.8707411 24.0124935,10.1800862 24.5327765,9.62371241 C25.0560629,9.09841578 25.6756895,8.97016456 27.7995624,8.97016456 L30.8387822,8.97016456 C32.9626551,8.97016456 33.5852851,9.10143073 34.1055681,9.62371241 C34.6286235,10.1800862 34.7593874,10.8707411 34.7593874,12.9028157 L34.7593874,15.9537106 C34.7593874,17.9888002 34.6286235,18.6764401 34.1055681,19.2330458 C33.5822817,19.7581105 32.9626551,19.8893767 30.8387822,19.8893767 L27.7995624,19.8893767 C25.6756895,19.8893767 25.0560629,19.7581105 24.5327765,19.2330458 C24.0097211,18.6764401 23.8817297,17.9888002 23.8817297,15.9537106 L23.8817297,12.9028157 Z M44.5937067,0 L41.0993547,0 L41.0993547,16.6102734 C41.0993547,19.1017797 41.5230666,20.5143985 42.6347903,21.5960689 C43.7777033,22.7120633 45.2163367,23.1714949 47.6356989,23.1714949 L51.9797848,23.1714949 L51.9797848,19.8923917 L48.5170842,19.8923917 C46.3932113,19.8923917 45.7705813,19.7611255 45.2502983,19.2358289 C44.7926248,18.7450882 44.6276683,18.0885254 44.5964791,16.6130565 L44.5964791,0 L44.5937067,0 Z M70.3802913,5.68503138 L66.883398,5.68503138 L66.883398,19.8893767 L60.3812465,19.8893767 C58.2573737,19.8893767 57.6347437,19.7581105 57.1144607,19.2330458 C56.5914053,18.6764401 56.4606414,17.9888002 56.4606414,15.9537106 L56.4606414,5.68503138 L52.9665205,5.68503138 L52.9665205,16.6102734 C52.9665205,19.1017797 53.3900013,20.5143985 54.501725,21.5960689 C55.644638,22.7120633 57.0832714,23.1714949 59.5026336,23.1714949 L70.3830637,23.1714949 L70.3830637,5.68503138 L70.3802913,5.68503138 Z M82.795926,19.8893767 C79.594753,19.9550098 78.8725485,19.364312 78.8725485,16.6102734 L78.8725485,8.96714961 L86.2930503,8.96714961 L86.7195345,5.68804633 L78.8753208,5.68804633 L78.8753208,0 L75.3811999,0 L75.3811999,5.68503138 L72.9960304,5.68503138 L72.9960304,8.96436658 L75.3811999,8.96436658 L75.3811999,16.6072585 C75.3811999,19.0989966 75.8049117,20.5116155 76.9166355,21.5932859 C78.0595485,22.7092803 79.4979508,23.1687119 81.9175441,23.1687119 L88.2575114,23.1687119 L88.2575114,19.8893767 L82.7989294,19.8893767 L82.795926,19.8893767 Z M93.2840645,12.4433841 C93.2840645,9.26122295 93.741738,8.8331004 97.207442,8.8331004 L100.246893,8.8331004 C103.709594,8.8331004 104.17027,9.26122295 104.17027,12.4433841 L93.2868369,12.4433841 L93.2840645,12.4433841 Z M104.167498,17.5919867 C104.067923,18.4767578 103.905739,18.9705135 103.513448,19.329988 C102.959203,19.8552846 102.336342,19.9865508 100.246893,19.9865508 L97.207673,19.9865508 C95.0838002,19.9865508 94.4299809,19.8552846 93.9408872,19.329988 C93.4178318,18.7736142 93.2870679,18.0829593 93.2870679,16.0508847 L93.2870679,15.5255881 L107.664391,15.5255881 L107.664391,12.2464848 C107.664391,9.65502148 107.240679,8.3080357 106.129187,7.22636531 C105.017463,6.14167997 103.54764,5.68503138 101.128047,5.68503138 L96.3262877,5.68503138 C93.9066945,5.68503138 92.4368719,6.14469491 91.3251481,7.26045741 C90.2136554,8.3421278 89.7899436,9.75196363 89.7899436,12.2464848 L89.7899436,16.6072585 C89.7899436,19.0674556 90.2136554,20.4772915 91.3251481,21.5932859 C92.4368719,22.7092803 93.9066945,23.1687119 96.3262877,23.1687119 L101.128047,23.1687119 C105.313183,23.1687119 107.078726,21.7588761 107.664391,18.0201093 L104.17027,17.5919867 L104.167498,17.5919867 Z" id="Combined-Shape" fill="#000000"></path>
    </g>
</svg>