<svg clip-rule="evenodd" fill-rule="evenodd" stroke-linejoin="round" stroke-miterlimit="2" viewBox="0 0 886 102" xmlns="http://www.w3.org/2000/svg"><path d="m2641140 1061530c0-97720 79190-176800 176800-176800 97580 0 176770 79080 176770 176800 0 97580-79190 176760-176770 176760-97610 0-176800-79180-176800-176760zm0 0c0-97720 79190-176800 176800-176800 97580 0 176770 79080 176770 176800 0 97580-79190 176760-176770 176760-97610 0-176800-79180-176800-176760zm-358770-199040 137500-106810 58040 52860-306060 260320c-295380-224900-684990-427920-1074360-317160-100710 33580-231590 114140-241670 234980 6690 241670 271870 285300 436340 359170 305460 93980 610920 181230 859290 412830 110790 114140 151070 268420 120840 433030-36900 208090-228250 406000-433000 456360-416210 94120-815660-43520-1144590-261690l-135250 139720-59450-50210 310570-315260c292000 204740 619240 420310 1001870 383520 63790-20160 127570-53710 167850-117490 57050-87260 36900-208100-16810-292040-285300-322340-741800-265140-1074110-496780-174550-124290-298730-308800-268530-530460 20150-211340 228250-402800 422950-466440 419560-174540 899570-33550 1238580 221550zm0 0 137500-106810 58040 52860-306060 260320c-295380-224900-684990-427920-1074360-317160-100710 33580-231590 114140-241670 234980 6690 241670 271870 285300 436340 359170 305460 93980 610920 181230 859290 412830 110790 114140 151070 268420 120840 433030-36900 208090-228250 406000-433000 456360-416210 94120-815660-43520-1144590-261690l-135250 139720-59450-50210 310570-315260c292000 204740 619240 420310 1001870 383520 63790-20160 127570-53710 167850-117490 57050-87260 36900-208100-16810-292040-285300-322340-741800-265140-1074110-496780-174550-124290-298730-308800-268530-530460 20150-211340 228250-402800 422950-466440 419560-174540 899570-33550 1238580 221550zm14752330 1681660 3300 6690c271900 9970 576700-44120 828500-101170-10500 20860-88500 202520-88500 202520h-1243500l858700-1944860c-345700 0-591900-34080-873800 140470l-150800 88420 20700-355680h1484500zm0 0 3300 6690c271900 9970 576700-44120 828500-101170-10500 20860-88500 202520-88500 202520h-1243500l858700-1944860c-345700 0-591900-34080-873800 140470l-150800 88420 20700-355680h1484500zm-10628830-945070c-50360-43660-129160-78690-199670-72000-80560 16670-157730 77220-198010 151040-117490 228150-117490 584070 50320 788820 50360 43520 107410 70480 181270 63640 107410-13290 198050-120840 228250-221410 59420-227620 88880-521270-62160-710090zm448920 1053110h-353210v-148320c-151040 147690-382630 218170-590760 140960-224870-90610-339010-325590-355780-553840-26860-255200 70480-503470 302070-641120 141000-80560 369250-107410 513590-6830l130880 97470v-344220h-129290v-100720h482500zm-448920-1053110c-50360-43660-129160-78690-199670-72000-80560 16670-157730 77220-198010 151040-117490 228150-117490 584070 50320 788820 50360 43520 107410 70480 181270 63640 107410-13290 198050-120840 228250-221410 59420-227620 88880-521270-62160-710090zm448920 1053110h-353210v-148320c-151040 147690-382630 218170-590760 140960-224870-90610-339010-325590-355780-553840-26860-255200 70480-503470 302070-641120 141000-80560 369250-107410 513590-6830l130880 97470v-344220h-129290v-100720h482500zm6908110-1556620v542270c201400-181240 489000-373580 757500-235930 177900 110760 152700 314030 148800 527970-6100 344750-27100 725030-27100 725030l-339900-2720c3400-308810 21300-601470-8900-913630-16800-63780-40300-134260-104100-167850-177900-57160-308800 87290-426300 208130v876070h-382600v-1458620h-139600v-100720zm0 0v542270c201400-181240 489000-373580 757500-235930 177900 110760 152700 314030 148800 527970-6100 344750-27100 725030-27100 725030l-339900-2720c3400-308810 21300-601470-8900-913630-16800-63780-40300-134260-104100-167850-177900-57160-308800 87290-426300 208130v876070h-382600v-1458620h-139600v-100720zm6623200 247530h348200l19500 100710h-367700l20900 1208380h-381800l16800-1208380h-238200v-100710h238200v-54450s91300-34080 172100-71360c109000-50360 172000-96490 172000-96490zm0 0h348200l19500 100710h-367700l20900 1208380h-381800l16800-1208380h-238200v-100710h238200v-54450s91300-34080 172100-71360c109000-50360 172000-96490 172000-96490zm-8450500 139480c-5100 6970-103700 139720-103700 139720-167800-130880-436400-226130-647800-138840-47000 26710-77300 73830-80600 124180-3300 60440 30200 110760 80600 141000 261800 120840 671300 97330 745100 463190 13500 144350-50300 265180-161100 352440-258500 198050-667900 151070-953300 53700-1200-4470 66600-218660 66400-225250 90200 58570 175800 90140 259200 117740 154400 40380 396100 97470 506900-63790 13400-33440 26800-80420 3300-114000-127500-171200-359100-140960-530300-228250-114100-47110-235900-130420-266100-261300-40600-112630-19200-272410 68100-366390 268500-245030 727900-148540 1013300 5850zm0 0c-5100 6970-103700 139720-103700 139720-167800-130880-436400-226130-647800-138840-47000 26710-77300 73830-80600 124180-3300 60440 30200 110760 80600 141000 261800 120840 671300 97330 745100 463190 13500 144350-50300 265180-161100 352440-258500 198050-667900 151070-953300 53700-1200-4470 66600-218660 66400-225250 90200 58570 175800 90140 259200 117740 154400 40380 396100 97470 506900-63790 13400-33440 26800-80420 3300-114000-127500-171200-359100-140960-530300-228250-114100-47110-235900-130420-266100-261300-40600-112630-19200-272410 68100-366390 268500-245030 727900-148540 1013300 5850zm1243400 27100-76600 112620c-105000-149030-340700-182470-438100-138840-245000 154380-245000 476620-201400 738450 30300 147690 137700 328930 305500 365860 104000 0 241500-90740 291900-136970-6900-1770 125900 138450 125900 138450s-83900 62940-159400 79080c-234900 90640-530300 53710-714900-117490-199200-184730-271900-426260-224900-684750 40200-221520 248400-429640 463200-490040 211500-57060 467700-10720 628800 133630zm0 0-76600 112620c-105000-149030-340700-182470-438100-138840-245000 154380-245000 476620-201400 738450 30300 147690 137700 328930 305500 365860 104000 0 241500-90740 291900-136970-6900-1770 125900 138450 125900 138450s-83900 62940-159400 79080c-234900 90640-530300 53710-714900-117490-199200-184730-271900-426260-224900-684750 40200-221520 248400-429640 463200-490040 211500-57060 467700-10720 628800 133630zm11659700 148320c-43600-67130-114100-137610-184600-167850-60400-20120-134300-10040-184600 20020-198100 131060-241700 355920-238300 580820 16700 204640 77200 436380 288600 520150 114100 30340 222200-17520 288700-107270 187600-253130 180900-614130 30200-845870zm298700-77210c10100-77210 43700-164460 127600-191320 57000-16770 124200 0 171200 33550 40300 33580 53700 80560 63700 127570-3300 77210-50300 144340-120800 171200-43600 13420-100700 6690-141000-3390 80600 184620 110800 463230 3400 651200-127500 221520-355800 365860-604200 375940-90700 10080-198100 16780-241700 107410 0 26860 23500 53710 50400 63790 194600 26850 456500-70520 577300 130880 33600 60440 20100 144340-13400 201400-151100 201390-439700 218200-664600 154280-87300-30060-162100-88140-248400-160980l132500-103430c124200 117490 300500 210840 471700 153790 40300-13430 80500-47010 94000-90780 10000-53560-13500-100680-60500-124040-181200-63930-547200 61030-543700-171200-3400-47010 13400-90640 46900-117490 33600-30200 70600-46980 110800-63780-231600-80560-459800-315650-483400-570610-40200-302110 100800-584070 372600-725030 251800-127670 614300-100710 832500 87260 23500 16810 43700 40280 67100 63780zm-298700 77210c-43600-67130-114100-137610-184600-167850-60400-20120-134300-10040-184600 20020-198100 131060-241700 355920-238300 580820 16700 204640 77200 436380 288600 520150 114100 30340 222200-17520 288700-107270 187600-253130 180900-614130 30200-845870zm298700-77210c10100-77210 43700-164460 127600-191320 57000-16770 124200 0 171200 33550 40300 33580 53700 80560 63700 127570-3300 77210-50300 144340-120800 171200-43600 13420-100700 6690-141000-3390 80600 184620 110800 463230 3400 651200-127500 221520-355800 365860-604200 375940-90700 10080-198100 16780-241700 107410 0 26860 23500 53710 50400 63790 194600 26850 456500-70520 577300 130880 33600 60440 20100 144340-13400 201400-151100 201390-439700 218200-664600 154280-87300-30060-162100-88140-248400-160980l132500-103430c124200 117490 300500 210840 471700 153790 40300-13430 80500-47010 94000-90780 10000-53560-13500-100680-60500-124040-181200-63930-547200 61030-543700-171200-3400-47010 13400-90640 46900-117490 33600-30200 70600-46980 110800-63780-231600-80560-459800-315650-483400-570610-40200-302110 100800-584070 372600-725030 251800-127670 614300-100710 832500 87260 23500 16810 43700 40280 67100 63780zm-22200580-237690s-84430 799240 10080 1090290c30200 53700 83910 87250 151040 73820 134260-40270 255100-120830 362510-214820v-848580h-201390v-100710h584030v1308460h-382640v-201400c-73860 26850-151030 97230-231590 127530-167850 73870-396100 187970-570640 50360-127540-164460-124190-382770-130920-597460-3350-198050 33580-398810 50360-586780h-194670l-3380-100710zm0 0s-84430 799240 10080 1090290c30200 53700 83910 87250 151040 73820 134260-40270 255100-120830 362510-214820v-848580h-201390v-100710h584030v1308460h-382640v-201400c-73860 26850-151030 97230-231590 127530-167850 73870-396100 187970-570640 50360-127540-164460-124190-382770-130920-597460-3350-198050 33580-398810 50360-586780h-194670l-3380-100710zm20688380 184620c53700 107410 70500 247630 67200 381890-13500 265190 23500 480750 0 742580-110800 10050-377700 0-377700 0s54600-631820 4200-960750c-13400-47010-84600-87140-131600-107300-174600-33550-312200 90640-426300 214820v853230h-369400v-1208380h-146800v-100710h516200v304820c177800-167810 402800-348450 657800-304820 73900 20150 169500 107410 206400 184620zm0 0c53700 107410 70500 247630 67200 381890-13500 265190 23500 480750 0 742580-110800 10050-377700 0-377700 0s54600-631820 4200-960750c-13400-47010-84600-87140-131600-107300-174600-33550-312200 90640-426300 214820v853230h-369400v-1208380h-146800v-100710h516200v304820c177800-167810 402800-348450 657800-304820 73900 20150 169500 107410 206400 184620zm-3948200-184620v1309090h-381800v-1208380h-192900v-100710zm0 0v1309090h-381800v-1208380h-192900v-100710zm-16232210-281570c0-97720 79080-176800 176660-176800 97720 0 176800 79080 176800 176800 0 97580-79080 176760-176800 176760-97580 0-176660-79180-176660-176760zm0 0c0-97720 79080-176800 176660-176800 97720 0 176800 79080 176800 176800 0 97580-79080 176760-176800 176760-97580 0-176660-79180-176660-176760zm15862010 0c0-97720 79200-176800 176800-176800s176800 79080 176800 176800c0 97580-79200 176760-176800 176760s-176800-79180-176800-176760zm0 0c0-97720 79200-176800 176800-176800s176800 79080 176800 176800c0 97580-79200 176760-176800 176760s-176800-79180-176800-176760zm-10396510 281570s-84400 799240 10080 1090290c30200 53700 83900 87250 151030 73820 134270-40270 255110-120830 362520-214820v-848580h-201400v-100710h584030v1308460h-382630v-201400c-73870 26850-151040 97230-231600 127530-167850 73870-396100 187970-570640 50360-127530-164460-124190-382770-130920-597460-3340-198050 33590-398810 50360-586780h-194660l-3390-100710zm0 0s-84400 799240 10080 1090290c30200 53700 83900 87250 151030 73820 134270-40270 255110-120830 362520-214820v-848580h-201400v-100710h584030v1308460h-382630v-201400c-73870 26850-151040 97230-231600 127530-167850 73870-396100 187970-570640 50360-127530-164460-124190-382770-130920-597460-3340-198050 33590-398810 50360-586780h-194660l-3390-100710zm12237910 0s-84400 799240 10100 1090290c30200 53700 83900 87250 151000 73820 134300-40270 255100-120830 362700-214820v-848580h-201400v-100710h583900v1308460h-382500v-201400c-74000 26850-151200 97230-231800 127530-167800 73870-396000 187970-570600 50360-127400-164460-124200-382770-130900-597460-3300-198050 33500-398810 50400-586780h-194700l-3400-100710zm0 0s-84400 799240 10100 1090290c30200 53700 83900 87250 151000 73820 134300-40270 255100-120830 362700-214820v-848580h-201400v-100710h583900v1308460h-382500v-201400c-74000 26850-151200 97230-231800 127530-167800 73870-396000 187970-570600 50360-127400-164460-124200-382770-130900-597460-3300-198050 33500-398810 50400-586780h-194700l-3400-100710zm-10593100 0h268500v100710h-268500l21000 1208380h-381800l16800-1208380h-268520v-100710h268520v-54450s91300-34080 172100-71360c109000-50360 171900-96490 171900-96490zm0 0h268500v100710h-268500l21000 1208380h-381800l16800-1208380h-268520v-100710h268520v-54450s91300-34080 172100-71360c109000-50360 171900-96490 171900-96490zm-5649050 255980c-50360-43660-129190-78690-199670-72000-80560 16670-157770 77220-198050 151040-117450 228150-117450 584070 50360 788820 50360 43520 107410 70480 181280 63640 107410-13290 198010-120840 228250-221410 59520-227620 88870-521270-62170-710090zm448920 1053110h-353210v-148320c-151030 147690-382630 218170-590760 140960-224900-90610-339010-325590-355780-553840-26850-255200 70480-503470 302080-641120 140990-80560 369240-107410 513550-6830l130910 97470v-344220h-129290v-100720h482500zm-448920-1053110c-50360-43660-129190-78690-199670-72000-80560 16670-157770 77220-198050 151040-117450 228150-117450 584070 50360 788820 50360 43520 107410 70480 181280 63640 107410-13290 198010-120840 228250-221410 59520-227620 88870-521270-62170-710090zm448920 1053110h-353210v-148320c-151030 147690-382630 218170-590760 140960-224900-90610-339010-325590-355780-553840-26850-255200 70480-503470 302080-641120 140990-80560 369240-107410 513550-6830l130910 97470v-344220h-129290v-100720h482500zm13524830-969200c-33600-92260-121600-192940-230800-222400-92200-29360-207900 6090-278400 79920-184600 171060-178900 377420-120200 671220zm226600-8320-788800 679640c29300 83900 94000 183000 201400 209850 176100 29320 323100-44510 423800-172070l104800 113260c-177900 191310-465600 256970-714000 203260-218200-50360-408700-261200-469100-476020-77200-268530-10900-551080 204000-725630 187900-161110 501700-237690 723200-113510 100700 53710 226600 155270 314700 281220zm-226600 8320c-33600-92260-121600-192940-230800-222400-92200-29360-207900 6090-278400 79920-184600 171060-178900 377420-120200 671220zm226600-8320-788800 679640c29300 83900 94000 183000 201400 209850 176100 29320 323100-44510 423800-172070l104800 113260c-177900 191310-465600 256970-714000 203260-218200-50360-408700-261200-469100-476020-77200-268530-10900-551080 204000-725630 187900-161110 501700-237690 723200-113510 100700 53710 226600 155270 314700 281220zm-3240800 8320c-33600-92260-121800-192940-230900-222400-92300-29360-208000 6090-278500 79920-184600 171060-178800 377420-120100 671220zm226400-8320-788800 679640c29400 83900 94000 183000 201400 209850 176300 29320 323100-44510 423900-172070l104900 113260c-177900 191310-465700 256970-714100 203260-218200-50360-408800-261200-469200-476020-77200-268530-10800-551080 204000-725630 188000-161110 501800-237690 723300-113510 100700 53710 226500 155270 314600 281220zm-226400 8320c-33600-92260-121800-192940-230900-222400-92300-29360-208000 6090-278500 79920-184600 171060-178800 377420-120100 671220zm226400-8320-788800 679640c29400 83900 94000 183000 201400 209850 176300 29320 323100-44510 423900-172070l104900 113260c-177900 191310-465700 256970-714100 203260-218200-50360-408800-261200-469200-476020-77200-268530-10800-551080 204000-725630 188000-161110 501800-237690 723300-113510 100700 53710 226500 155270 314600 281220zm-7980080 8320c-33590-92260-121720-192940-230760-222400-92360-29360-207980 6090-278460 79920-184620 171060-178910 377420-120240 671220zm226480-8320-788810 679640c29500 83900 93990 183000 201400 209850 176300 29320 323110-44510 423830-172070l104910 113260c-177890 191310-465560 256970-713960 203260-218170-50360-408890-261200-469290-476020-77210-268530-10720-551080 204110-725630 187970-161110 501640-237690 723160-113510 100710 53710 226660 155270 314650 281220zm-226480 8320c-33590-92260-121720-192940-230760-222400-92360-29360-207980 6090-278460 79920-184620 171060-178910 377420-120240 671220zm226480-8320-788810 679640c29500 83900 93990 183000 201400 209850 176300 29320 323110-44510 423830-172070l104910 113260c-177890 191310-465560 256970-713960 203260-218170-50360-408890-261200-469290-476020-77210-268530-10720-551080 204110-725630 187970-161110 501640-237690 723160-113510 100710 53710 226660 155270 314650 281220z" fill-rule="nonzero" transform="matrix(.00003543 0 0 .00003543 -17.716557 -19.969235)"/></svg>