<svg clip-rule="evenodd" fill-rule="evenodd" stroke-linejoin="round" stroke-miterlimit="2" viewBox="0 0 210 71" xmlns="http://www.w3.org/2000/svg"><g fill-rule="nonzero" transform="translate(0 -.011875)"><path d="m48.54 70.36c-.68-.22-1.4-.35-2.03-.67-.58-.29-1.15-.69-1.58-1.17-3.35-3.74-6.68-7.51-10-11.28-3.9-4.44-7.8-8.88-11.69-13.33-3.81-4.35-7.61-8.7-11.41-13.06-3.19-3.67-6.37-7.35-9.55-11.02-1-1.16-1.82-2.41-2.28-3.88v-1.33l2.3-5.03.11.02c.03.11.07.23.08.34.28 1.77 1.1 3.29 2.24 4.62 3.76 4.35 7.54 8.67 11.33 13 6.17 7.06 12.34 14.12 18.53 21.17 3.85 4.38 7.69 8.76 11.59 13.09 1.38 1.53 3.14 2.43 5.27 2.38.83-.02 1.61-.24 2.37-.54 4.13-1.62 8.27-3.22 12.39-4.87 6.48-2.59 12.94-5.2 19.41-7.81.12-.05.23-.09.38-.07-.15.09-.3.18-.45.27-6.79 3.85-13.58 7.7-20.36 11.56-3.48 1.98-6.94 3.98-10.42 5.96-1.39.8-2.86 1.41-4.47 1.6-.03 0-.06.03-.09.04h-1.68z"/><path d="m209.53 41.65h-2.79v-3.59c-.4.37-.74.68-1.07 1-1.58 1.56-3.49 2.51-5.66 2.9-6.57 1.16-11.13-2.78-12.79-7.01-.58-1.49-.62-3.03-.63-4.6-.04-4.63 4.32-9.53 9.29-10.23 2.83-.4 5.51-.09 7.92 1.52.76.5 1.41 1.17 2.1 1.78.27.24.52.5.84.82v-11.92h2.79zm-11.61-1.92c.91-.11 1.58-.13 2.23-.27 6.57-1.49 8.29-8.5 5.39-12.94-1.52-2.33-3.71-3.65-6.5-3.87-2.51-.2-4.81.37-6.71 2.12-2.21 2.04-3.21 4.53-2.82 7.55.4 3.12 3.01 6.24 6.57 7.1.68.17 1.39.23 1.85.31z"/><path d="m87.27 47.44c-.66.28-1.31.57-1.97.84-6.14 2.52-12.28 5.04-18.43 7.54-4.14 1.69-8.31 3.33-12.45 5.02-1.71.7-3.36.55-4.99-.2-1.24-.57-2.21-1.5-3.1-2.51-2.38-2.7-4.73-5.42-7.1-8.12-6.95-7.92-13.91-15.84-20.87-23.76-3.96-4.51-7.94-9.01-11.89-13.53-.83-.94-1.39-2.03-1.54-3.3-.08-.71.15-1.28.68-1.74.75-.64 1.64-.9 2.59-1 3.78-.39 7.57-.79 11.35-1.18 3.59-.37 7.18-.71 10.76-1.08 3.77-.38 7.54-.78 11.32-1.16 2.86-.29 5.72-.57 8.57-.86 3.3-.34 6.59-.69 9.89-1.02 3.58-.36 7.15-.72 10.73-1.07.83-.08 1.67-.14 2.5-.26 1.39-.19 2.49.34 3.33 1.37 1.47 1.8 2.91 3.63 4.31 5.49 2.11 2.79 4.18 5.62 6.27 8.43.07.09.13.18.15.31-.6-.6-1.21-1.21-1.81-1.81-2.65-2.66-5.3-5.33-7.96-7.99-.76-.76-1.57-1.46-2.31-2.23-.65-.67-1.46-.8-2.28-.68-2.58.35-5.15.78-7.72 1.19-2.81.45-5.62.91-8.43 1.37-2.73.45-5.46.91-8.18 1.36-2.99.5-5.98.99-8.98 1.49-3.14.52-6.28 1.05-9.42 1.58-2.88.49-5.75.98-8.62 1.49-1.26.23-2.5.51-3.75.79-.44.1-.84.29-1.14.68-.43.57-.49 1.15-.09 1.71.55.78 1.13 1.54 1.76 2.25 7.25 8.24 14.5 16.47 21.77 24.69 3.67 4.15 7.38 8.26 11.08 12.38.74.82 1.59 1.5 2.64 1.89.35.13.71.18 1.09.08 5.56-1.47 11.12-2.92 16.68-4.39 5.09-1.34 10.17-2.7 15.26-4.04l.27-.06.02.06z"/><path d="m136.72 35.83c-.73 1.33-1.54 2.49-2.62 3.44-2.01 1.78-4.34 2.81-7.06 2.8-1.08 0-2.18.07-3.24-.09-3.23-.49-5.71-2.19-7.38-4.98-2.27-3.79-2.35-7.68-.19-11.53 1.58-2.82 4.01-4.69 7.2-5.26 3.5-.63 6.87-.21 9.8 2.08 2.36 1.85 3.68 4.3 4.08 7.25.08.56.11 1.13.17 1.74h-19.92c.14.82.2 1.59.42 2.33.89 3.08 2.86 5.14 6.01 5.84 3.67.81 7.51-.52 9.7-3.9.16-.25.33-.51.52-.74.06-.07.23-.15.3-.11.73.36 1.45.73 2.21 1.13zm-2.5-6.98c-.59-3.39-3.71-6.31-8.34-6.26-2.49.02-4.54.94-6.17 2.82-.87 1-1.33 2.2-1.81 3.45h16.32z"/><path d="m181.12 24.19v-3.73h2.62v21.17h-2.63v-3.58c-.31.29-.54.5-.77.72-1.49 1.42-3.15 2.57-5.18 3.03-.98.22-2 .28-3.01.3-4.48.09-7.8-1.99-9.94-5.8-1.98-3.51-1.94-7.23.12-10.68 1.95-3.27 4.91-5.26 8.81-5.61 3.6-.32 6.66.81 9.14 3.47.24.26.47.53.71.8zm.03 6.95c.12-2.43-.83-4.49-2.59-6.18-2.13-2.04-4.74-2.64-7.59-2.24-4.87.68-8.16 5.59-7 10.37.98 4.06 5.28 7.54 10.53 6.36 3.31-.74 6.87-3.78 6.64-8.32z"/><path d="m143.45 28.4v13.22h-2.92v-28.61h1.04c2.27.03 4.54.04 6.81.1 1.7.04 3.41.02 5.07.41 2.41.56 4.92 2.42 5.46 5.49.39 2.22.17 4.37-1.32 6.22-1.2 1.48-2.8 2.28-4.62 2.65s-3.68.37-5.52.42c-1.31.04-2.62.06-3.99.09zm.02-2.88c.09 0 .15.01.21.01 2.05 0 4.09 0 6.14-.03 1.21-.02 2.42-.13 3.53-.68 1.19-.59 2.14-1.46 2.41-2.77.18-.85.11-1.78.01-2.66-.14-1.15-.96-1.91-1.83-2.58-.86-.66-1.9-.82-2.94-.86-2.44-.08-4.88-.09-7.32-.13-.07 0-.13.02-.22.03v9.65z"/><path d="m58.32 34.86c.21.32.39.59.56.86.8 1.23 1.75 2.31 3.03 3.09 2.8 1.7 6.63.3 7.71-2.31.64-1.54.48-3.03-.5-4.4-.8-1.13-1.82-2.06-2.88-2.93-1.68-1.37-3.4-2.68-5.07-4.05-.58-.47-1.1-1-1.63-1.53-3.03-3.05-2.54-9.07 2.81-10.84 2.89-.96 5.63-.43 7.96 1.61.78.69 1.45 1.5 2.15 2.28.28.31.24.39-.09.63-.67.48-1.33.97-1.99 1.45-.65-.67-1.26-1.33-1.91-1.97-1.33-1.31-2.96-1.74-4.73-1.34-2.8.63-3.8 3.49-2.15 5.91.73 1.06 1.76 1.82 2.77 2.58 1.7 1.28 3.41 2.55 5.07 3.88 1.32 1.05 2.42 2.32 3.13 3.88 1.26 2.76.86 6.21-2.05 8.59-3.03 2.47-6.36 2.69-9.88 1.13-.8-.36-1.45-.93-2.07-1.52-.98-.93-1.82-1.96-2.5-3.13-.23-.4-.21-.45.18-.69.67-.4 1.35-.78 2.07-1.2z"/><path d="m92.44 20.47h2.86c0 .08.01.2.01.31 0 2.84 0 5.68-.03 8.52-.01 1.35 0 2.7-.11 4.05-.16 2.23-.7 4.33-2.29 6.04-1.56 1.67-3.48 2.52-5.73 2.69-1.49.12-2.98.13-4.44-.21-3.61-.85-6.02-3.51-6.44-7.19-.17-1.46-.22-2.95-.23-4.42-.04-3.17-.03-6.33-.04-9.5 0-.09.01-.18.02-.31.87 0 1.73 0 2.59.01.06 0 .18.18.18.28.03.98.04 1.95.05 2.93.03 2.83.03 5.66.09 8.48.02 1 .09 2.03.32 3 .43 1.78 1.58 3.02 3.28 3.74 1.8.77 3.66.81 5.5.29 2.28-.65 4.22-2.59 4.23-5.66 0-2.22.06-4.44.09-6.67.03-2.04.05-4.07.07-6.11 0-.07 0-.14.02-.27z"/><path d="m106.94 22.84h-3.89v-2.37h3.88v-7.8h2.79v7.77h4.45v2.43h-4.43v18.77h-2.81v-18.8z"/><path d="m98.41 20.47h2.86v21.16h-2.86z"/><path d="m99.79 11.82c1.41 0 2.39.91 2.39 2.21 0 1.21-1.06 2.21-2.33 2.2-1.29 0-2.28-.97-2.28-2.22 0-1.2 1.01-2.19 2.22-2.19z"/></g></svg>