<svg viewBox="0 0 1303.81 353.24" xmlns="http://www.w3.org/2000/svg"><g fill="#000000"><path d="m229.6 189.3c-15-16.7-37.8-28.3-67.8-34.5l-55.3-11.8c-14.1-3-26.4-6.2-33.6-13.9s-11.9-18-10.4-30.1c2-16.1 10.3-25.9 19-33 11.7-9.6 26.4-15.2 44.7-15.3h.7c13.7 0 25.4 2.3 34.9 6.7s17.4 10 23 16.4 11.4 16.2 15.3 26.5l48.7-18.3a125.89 125.89 0 0 0 -9.4-21.1 112.72 112.72 0 0 0 -21.4-28.5c-9.4-9.1-21.8-16.9-37-23.2-14.8-6.1-33.4-9.2-55.3-9.2h-1.1a127.38 127.38 0 0 0 -45.2 8.3 113.94 113.94 0 0 0 -36.7 22.5 108.43 108.43 0 0 0 -24.5 32.9 88.37 88.37 0 0 0 -8.8 39.1c.1 22.6 7.3 42.2 21.3 58s34.2 27.2 59.8 32.4l58.2 12.7c15.9 3.5 30.6 9.7 39.7 17.5 7.8 6.7 12.5 18.5 10.9 29.7-2.4 17-11.2 26.9-18.2 32.4-12.5 9.8-24 13.9-45.7 14.6h-.7c-25.1 0-42.2-4.8-59.8-17.5-9.8-7.1-16.1-14.3-20.9-24.2l-.1-.1a114.2 114.2 0 0 1 -6-13.9l-48.1 17.2c.9 4.1 1.5 5.9 1.5 5.9 2.4 8 3.9 11.3 8.5 20.2a109.66 109.66 0 0 0 24.4 30.6c10.5 9.4 24.2 17.4 40.3 23.6 15.9 6.2 35.2 9.3 57.6 9.3h1.1c20.4-.1 38.3-3.3 53.2-9.4s27.1-14.2 36.7-24.1a105 105 0 0 0 21.8-32.4 88.51 88.51 0 0 0 7.2-34.8c.1-24-7.6-44.6-22.5-61.2zm500.8 97.9c-13.1 6.7-22.6 10.4-40.7 11.2h-.9c-13 0-21.8-2.8-27.8-9-6.7-6.9-9.8-18-9.2-33.8v-97.6h71v-52.6h-70.8v-79.7h-52.7v79.6h-34.3v52.7h34.3v102.6c.1 30.4 7.8 53.7 22.1 69.1s35.6 23.1 63.6 23.1h.7c25.3-1.6 40.1-4 67.6-18.5zm464.4-182.1a234.69 234.69 0 0 0 -27.8.8c-46 4.6-79.8 33.2-95.2 80.6-9.8 30.1-9.4 81.1-9.2 86.7v78.1h52.8v-83.9c0-.2-1.1-41.4 6.5-64.6 5.7-17.5 17.1-41 50.1-44.4a158 158 0 0 1 22.8-.8z" transform="translate(.2)"/><path d="m1244.1 105h52.7v246.3h-52.7z"/><circle cx="1270.5" cy="38.8" r="33.31"/><path d="m472.3 105.2v132.4a62.1 62.1 0 0 1 -124.2 0v-132.4h-52.7v132.4c0 63.1 51.7 114.8 114.8 114.8s114.8-51.7 114.8-114.8v-132.4zm552.6 117.7a127.38 127.38 0 0 0 -254.7 5.9c1.7 70.3 60 126.1 130.3 124.4 70.3-1.5 126-59.9 124.4-130.3zm-125.7 79a76.12 76.12 0 1 1 74.3-77.9 76.16 76.16 0 0 1 -74.3 77.9z" transform="translate(.2)"/></g></svg>