<?xml version="1.0" encoding="UTF-8"?>
<svg width="77px" height="92px" viewBox="0 0 77 92" version="1.1" xmlns="http://www.w3.org/2000/svg" xmlns:xlink="http://www.w3.org/1999/xlink">
    <title>Svelte_Logo</title>
    <g id="OG-imges" stroke="none" stroke-width="1" fill="none" fill-rule="evenodd">
        <g id="Svelte-and-SvelteKit" transform="translate(-52, -98)" fill="#FFFFFF" fill-rule="nonzero">
            <g id="Svelte_Logo" transform="translate(52.1333, 98.24)">
                <path d="M33.8675698,4.0450483 C45.9783385,-3.63603018 62.8247283,-0.0670442211 71.2867398,12.11406 C75.4012958,17.7778856 77.0315916,24.9158575 75.7118283,31.8986561 C75.1683964,35.1572954 73.9262663,38.2607615 72.0630711,41.0538809 C74.7802307,46.0970133 75.6341952,51.9160121 74.6249645,57.5798377 C73.4604675,64.3298763 69.4235446,70.3040485 63.6010596,73.9506211 L42.2519481,87.528285 C30.1411794,95.2093635 13.3724228,91.6403776 4.8327782,79.4592733 C0.795855304,73.7954478 -0.834440481,66.6574759 0.407689641,59.7522639 C0.95112157,56.4936245 2.19325169,53.3901585 4.05644688,50.597039 C1.33928723,45.5539067 0.485322774,39.7349079 1.4945535,34.0710823 C2.65905049,27.3210437 6.69597339,21.3468715 12.5184583,17.7002989 Z M62.7876304,17.7150341 C58.7463285,11.8990881 51.5186154,9.18498003 44.6017716,10.9685368 C43.0474247,11.4338125 41.5707952,12.05418 40.2496003,12.9071855 L18.8773303,26.477726 C15.3800498,28.6490125 12.8930947,32.293672 12.1936386,36.3260612 C11.4164652,40.5135423 12.4267907,44.7785694 14.8360284,48.190591 C18.8773303,54.006537 26.1050435,56.7206451 33.0218872,54.9370883 C34.5762341,54.5493586 36.0528637,53.928991 37.3740585,53.0759856 L45.5343798,47.8804072 C45.9229665,47.6477694 46.3892706,47.4926775 46.8555747,47.3375856 C48.953943,46.794764 51.1300286,47.5702234 52.3735062,49.3537802 C53.0729623,50.3618775 53.3838317,51.6801586 53.1506796,52.9208937 C52.9175276,54.1616289 52.2180715,55.1697262 51.1300286,55.8676397 L29.835476,69.4381803 C29.4468893,69.6708181 28.9805852,69.82591 28.5142812,69.9810019 C26.4159128,70.5238235 24.2398272,69.6708181 22.9963496,67.8872614 C22.3746109,66.95671 22.0637415,65.7935208 22.1414588,64.7078776 L22.2191762,63.9324181 L21.4420027,63.6997803 C18.4110263,62.7692289 15.6132018,61.3734019 13.0485294,59.5122992 L11.9604866,58.7368397 L11.5718999,59.9775748 C11.4164652,60.6754883 11.2610305,61.2958559 11.1055958,61.9937694 C10.4061397,66.1812505 11.3387478,70.4462776 13.8257029,73.8582992 C17.8670048,79.6742452 25.094718,82.3883533 32.0115617,80.6047965 C33.5659086,80.1395209 35.0425382,79.5191533 36.363733,78.6661479 L57.736003,65.0956073 C61.2332835,62.9243208 63.7202386,59.2796613 64.4196947,55.2472721 C65.1191508,51.059791 64.1865427,46.794764 61.6995876,43.3827423 C57.6582857,37.5667964 50.4305725,34.8526882 43.5137288,36.636245 C41.9593819,37.1015207 40.4827523,37.7218883 39.1615575,38.5748937 L31.0012362,43.7704721 C30.6126495,44.0031099 30.1463454,44.1582018 29.6800413,44.3132937 C27.581673,44.8561153 25.4055873,44.0806558 24.1621098,42.2970991 C23.4626537,41.2890018 23.1517843,39.9707207 23.3849364,38.7299856 C23.6180884,37.4892504 24.3175445,36.4811531 25.4055873,35.7832396 L46.70014,22.212699 C47.0887267,21.9800612 47.5550308,21.8249693 48.0213348,21.6698774 C50.1197032,21.1270558 52.2957888,21.9025152 53.5392664,23.686072 C54.1610051,24.6166233 54.4718745,25.7798125 54.3941571,26.8654558 L54.3164398,27.6409152 L55.0936133,27.8735531 C58.1245897,28.8041044 60.9224142,30.1999315 63.4870866,32.0610342 L64.5751294,32.8364936 L64.9637161,31.5957585 C65.1968682,30.897845 65.3523028,30.2774774 65.5077375,29.5795639 C66.2071936,25.3920828 65.2745855,21.1270558 62.7876304,17.7150341 Z" id="Combined-Shape"></path>
            </g>
        </g>
    </g>
</svg>