<?xml version="1.0" encoding="UTF-8"?>
<svg width="124px" height="29px" viewBox="0 0 124 29" version="1.1" xmlns="http://www.w3.org/2000/svg" xmlns:xlink="http://www.w3.org/1999/xlink">
    <title>Group</title>
    <g id="Landing-Page" stroke="none" stroke-width="1" fill="none" fill-rule="evenodd">
        <g id="DT-/-Embroider-Initiative" transform="translate(-450, -2636)" fill="#000000" fill-rule="nonzero">
            <g id="Group" transform="translate(450, 2636)">
                <path d="M124,11.7745458 C123.872434,11.3602806 123.625113,11.0188819 123.257169,10.7510418 C122.88315,10.4788747 122.47789,10.2825163 122.04139,10.1614474 C121.60489,10.0409842 121.18401,9.98767581 120.77875,10.0023875 C120.373491,10.0177051 120.077573,10.0709269 119.890997,10.1614474 C119.329535,10.4641629 118.541578,11.0538439 117.529731,11.9309229 C116.51528,12.8086077 115.407975,13.8521023 114.208685,15.0619262 C113.008526,16.27175 111.784069,17.5800559 110.537918,18.9868439 C109.290898,20.3930261 108.153221,21.7772272 107.124018,23.1380627 C108.059499,21.7159572 108.995848,20.3930261 109.930462,19.1678847 C110.865076,17.9427434 111.753697,16.8387575 112.595456,15.8551483 C113.437216,14.8723179 114.193064,14.0477684 114.863001,13.3822788 C115.532938,12.7167891 116.039729,12.2177152 116.382508,11.8849703 C116.569083,11.7338722 116.569083,11.5522255 116.382508,11.3406362 C116.195932,11.1289603 115.929519,10.9247268 115.587609,10.7277626 C115.243962,10.5314042 114.886432,10.3650751 114.512412,10.2286021 C114.138393,10.0922157 113.841608,10.0242821 113.623792,10.0242821 C113.374735,10.0249744 112.922615,10.3357381 112.268298,10.9552752 C111.613982,11.5755047 110.881564,12.3773807 110.071045,13.3602977 C109.259658,14.343907 108.410956,15.4325753 107.522335,16.6270816 C106.634582,17.8222803 105.823195,18.9868439 105.090777,20.120859 C104.357492,21.2547876 103.757846,22.2842628 103.290973,23.2066021 C102.823233,24.1296336 102.588928,24.8177101 102.588928,25.2716104 C102.588928,25.4831997 102.70608,25.763415 102.939517,26.110785 C103.173821,26.458155 103.43763,26.7768804 103.734416,27.064365 C104.029466,27.3518496 104.326251,27.548208 104.623036,27.6539594 C104.918086,27.7597974 105.143713,27.6919503 105.300783,27.4497259 L105.488227,27.0863461 C106.080062,26.1493817 106.85153,25.0833002 107.802632,23.8874092 C108.752866,22.6929029 109.758639,21.4830791 110.819083,20.2572454 C111.878659,19.0327964 112.939103,17.8602712 113.998679,16.7415736 C115.059122,15.6229625 116.024977,14.6692959 116.898845,13.8827374 C116.680161,14.2454249 116.353003,14.6992386 115.916503,15.2442651 C115.480002,15.7879935 115.051312,16.33302 114.629565,16.8773542 C114.209552,17.4209961 113.835533,17.9360799 113.507507,18.4192305 C113.180349,18.9043716 113.017204,19.252434 113.017204,19.463331 C113.017204,19.6750069 113.094438,19.9019138 113.250641,20.1434458 C113.406843,20.3856702 113.616849,20.6126636 113.882394,20.8235607 C114.146204,21.0358423 114.427369,21.2168832 114.724154,21.3679814 C115.020072,21.5196853 115.308179,21.5948883 115.589344,21.5948883 C115.838401,21.5948883 116.134319,21.4977043 116.477965,21.3000478 C116.820743,21.1037759 117.171332,20.8541957 117.529731,20.5513936 C117.88813,20.2499761 118.246528,19.916539 118.605795,19.5531591 C118.962458,19.1905581 119.267054,18.8431016 119.516978,18.509751 C119.734794,18.2381897 119.797276,18.0864857 119.703554,18.0558507 C119.609832,18.025908 119.453629,18.0419178 119.236681,18.1011109 C119.017129,18.162381 118.799313,18.2295357 118.582364,18.3054309 C118.362813,18.3813262 118.238718,18.403913 118.207478,18.3739703 C118.144129,18.3133926 118.254339,18.1324383 118.534636,17.8296361 C118.814933,17.5275263 119.173332,17.1495213 119.609832,16.6957076 C120.045465,16.2418073 120.529693,15.7586566 121.059915,15.2435728 C121.589269,14.7291813 122.079573,14.238069 122.532561,13.7682454 C122.983814,13.2998065 123.351758,12.8832048 123.631188,12.5205173 C123.842062,12.2472252 123.96442,12.0426455 124,11.9063456 L124,11.7745458 L124,11.7745458 Z M105.699101,12.4526702 C105.24698,11.983539 104.724568,11.5755912 104.132733,11.2275289 C103.54003,10.8801589 102.923897,10.6079918 102.285201,10.4103353 C101.645637,10.2139769 101.076364,10.160755 100.57825,10.2512755 C99.8926935,10.4029794 99.1359775,10.7809845 98.3107058,11.3858964 C97.4845663,11.9908083 96.6575589,12.7401548 95.8322872,13.631859 C95.0061477,14.5242555 94.2190589,15.5145283 93.4710208,16.603889 C92.7229827,17.6932497 92.0747409,18.7666871 91.5297665,19.8254127 C90.9847921,20.8848307 90.5708546,21.8830652 90.291425,22.8207219 C90.0111277,23.7576863 89.9330263,24.5442449 90.0571207,25.1797918 C90.1196019,25.4825939 90.3851467,25.8073771 90.8511519,26.1553529 C91.3197604,26.5034152 91.8413044,26.8215349 92.419255,27.1090195 C92.9954699,27.3965041 93.5716849,27.6227186 94.1496354,27.788442 C94.7258504,27.9547711 95.1545404,28.0227047 95.4348377,27.9933678 C96.0891541,27.9022416 96.8302499,27.5701891 97.6563894,26.9945276 C98.4825289,26.4208565 99.3234209,25.7022315 100.180801,24.8397777 C101.038181,23.9779297 101.872131,23.0176861 102.683518,21.9582681 C103.493169,20.9001482 104.194346,19.8647017 104.787049,18.8504574 C105.378885,17.8376843 105.838815,16.8847101 106.165974,15.9916212 C106.493132,15.099917 106.610284,14.3812055 106.516562,13.8368714 C106.424576,13.3829711 106.151221,12.9218015 105.699101,12.4526702 L105.699101,12.4526702 Z M103.478417,13.6325513 C103.13477,14.4037924 102.620169,15.3268239 101.934612,16.4002613 C101.249055,17.4736122 100.469776,18.6082331 99.5967759,19.8028259 C98.7229077,20.9986303 97.8742056,22.0873852 97.0480661,23.0696098 C96.2219265,24.0531326 95.4895087,24.8390854 94.8508126,25.4293721 C94.2112488,26.0196588 93.7990468,26.2392098 93.6116034,26.0868135 C93.3929194,25.9358019 93.4632107,25.4672764 93.8216094,24.6807179 C94.1791404,23.8940728 94.6946098,22.9644642 95.3654143,21.8903345 C96.0353509,20.8169837 96.7981415,19.6896321 97.6572572,18.509751 C98.5146373,17.3305622 99.3477191,16.2571248 100.158238,15.2882273 C100.968758,14.3206278 101.694233,13.5493868 102.333797,12.9744176 C102.971625,12.4000541 103.415936,12.1731473 103.66586,12.2936104 C103.882809,12.4147659 103.820327,12.8612237 103.478417,13.6325513 L103.478417,13.6325513 Z" id="Shape"></path>
                <path d="M100.014399,0 L100.004046,0 C99.9522786,0 99.9065511,0.00348255855 99.8668632,0.00983008964 C99.5881846,0.0694658134 99.11538,0.427280412 98.4484495,1.0819601 C97.781519,1.73729941 96.9920735,2.58662079 96.0775245,3.62861183 C95.1629756,4.67190676 94.1716391,5.86265261 93.1026521,7.20347421 C92.0336652,8.54366517 90.9638155,9.92903226 89.8948286,11.3589704 C88.8258417,12.7889085 87.7948172,14.2122846 86.8034806,15.6265419 C85.8104185,17.0413957 84.9357301,18.3599489 84.1763957,19.5808377 C83.415767,20.8024083 82.8051762,21.8824254 82.3398779,22.8202071 C81.8745795,23.7586705 81.6422323,24.4369516 81.6422323,24.8530901 C81.6422323,25.0621394 81.719969,25.2934316 81.8745795,25.5463702 C82.0298803,25.799394 82.2309948,26.0306862 82.4792172,26.2390537 C82.7268356,26.4475065 83.0062907,26.6263872 83.316202,26.7751846 C83.6261996,26.9238968 83.9202357,26.9986364 84.1996908,26.9986364 C84.4472229,26.9986364 84.7412591,26.9029323 85.0830933,26.7082855 C85.4236334,26.5150022 85.7724561,26.2692223 86.1287851,25.9710309 C86.4842513,25.674203 86.841443,25.3386844 87.197772,24.9657534 C87.5532382,24.594186 87.8552119,24.2435831 88.1045559,23.9152232 C88.3211142,23.6478821 88.3832345,23.4984881 88.2900541,23.4683196 C88.1968736,23.4388328 88.0424356,23.4545988 87.8258773,23.5128906 C87.6075935,23.5731425 87.3832701,23.6472003 87.1511818,23.7363424 C86.9182306,23.8261663 86.786225,23.8562496 86.7560276,23.8261663 C86.6619844,23.7363424 86.8086573,23.3346064 87.1969092,22.6196799 C87.5842984,21.9039865 88.1511461,20.9734486 88.8940015,19.8266176 C89.6385823,18.6797866 90.5367384,17.3769143 91.5901953,15.9162111 C92.6436521,14.4567862 93.7833872,12.9383025 95.0076748,11.3589704 C96.2319625,9.78023483 97.5106055,8.20221514 98.8427409,6.62219273 C100.174876,5.04348273 101.492344,3.55455401 102.795145,2.15409412 C103.042764,1.88606275 103.066059,1.61803137 102.864168,1.35 C102.662277,1.0819601 102.377559,0.836211697 102.004837,0.612741146 C101.632978,0.389925952 101.230059,0.226091977 100.796079,0.121237517 C100.462183,0.0409341203 100.201623,0.000721582286 100.014399,0 L100.014399,0 Z M84.385534,10.5548166 C83.7350827,11.1806862 82.9982668,11.9847548 82.1772435,12.9677893 C81.3562201,13.9508238 80.503964,15.0386813 79.6198713,16.2300833 C78.7357785,17.4214854 77.9226928,18.5834007 77.1786296,19.7151474 C76.4345663,20.8468941 75.8225951,21.8750963 75.3420255,22.7978789 C74.8615422,23.7212581 74.6218613,24.406016 74.6218613,24.8530049 C74.6218613,25.0620542 74.699598,25.2933464 74.8542085,25.5463702 C75.0095093,25.7993088 75.2185614,26.030601 75.4814511,26.2390537 C75.7442545,26.4474212 76.0230193,26.626302 76.3191261,26.7750994 C76.6131622,26.9244934 76.8998647,26.9985512 77.1786296,26.9985512 C77.4261617,26.9985512 77.7201978,26.9029323 78.0620321,26.7082855 C78.4032624,26.514917 78.7596776,26.269137 79.1313641,25.9710309 C79.5030506,25.6741178 79.8594658,25.3385992 80.2000059,24.9657534 C80.5411499,24.5941008 80.8510612,24.2434979 81.1298261,23.9152232 C81.3462118,23.6477969 81.4006534,23.4984029 81.2924605,23.4682343 C81.1836637,23.4387476 81.0210293,23.4545136 80.8046435,23.5128054 C80.5875676,23.5731425 80.3705779,23.6472003 80.1541922,23.7362572 C79.9371162,23.8260811 79.8123579,23.8562496 79.7818155,23.8260811 C79.6576611,23.7074522 79.7586066,23.3496055 80.0837892,22.7533079 C80.409058,22.1576068 80.8510612,21.4354365 81.4092812,20.5861151 C81.9668109,19.7367938 82.6100149,18.8284988 83.3381167,17.8605486 C84.0662184,16.8925983 84.7718015,15.9685373 85.4540896,15.0897292 C86.1348246,14.2116028 86.7473998,13.4363392 87.2909525,12.7665804 C87.8319168,12.0961398 88.1977364,11.6570766 88.3832345,11.4480273 C88.5376725,11.2698283 88.5307702,11.075778 88.3599394,10.8674105 C88.1891086,10.6596395 87.9492552,10.465078 87.6395164,10.2867938 C87.3289149,10.107913 86.9889788,9.95127517 86.6171197,9.81756202 C86.2443979,9.68325232 85.9501892,9.61635313 85.7336309,9.61635313 C85.4853223,9.61635313 85.0359854,9.92894704 84.385534,10.5548166 L84.385534,10.5548166 Z M89.9181237,8.45446342 C90.3831632,8.15693675 90.84734,7.81419986 91.3132422,7.42689193 C91.777419,7.0402402 92.1881032,6.64507481 92.5444322,6.24269964 C92.9007612,5.84031595 93.0802198,5.52051228 93.0802198,5.28196768 C93.0802198,4.98444953 92.9792743,4.73148539 92.7773833,4.52243608 C92.5754923,4.31469068 92.3201089,4.14233792 92.0103701,4.00865034 C91.6997686,3.87430655 91.3667347,3.77797172 91.0112685,3.71833344 C90.6549396,3.65869516 90.3210429,3.64428414 90.0113042,3.67377091 C89.7947459,3.70391389 89.5298718,3.84546746 89.2218586,4.09777539 C88.9112571,4.35138722 88.5773605,4.64236033 88.2218943,4.96937378 C87.8647025,5.29704343 87.5161386,5.64699861 87.1762025,6.01923079 C86.833678,6.39211066 86.5256648,6.7276463 86.2461235,7.02451676 C85.9976422,7.29254813 85.951052,7.55402595 86.1063528,7.80633388 C86.2607907,8.05995423 86.5084092,8.2755571 86.8509336,8.45446342 C87.1908698,8.63272205 87.5549638,8.77495739 87.9432157,8.87850199 C88.329742,8.98332492 88.6317157,9.00556783 88.8499996,8.94599773 C89.0958925,8.91651095 89.4522214,8.75262925 89.9181237,8.45446342 L89.9181237,8.45446342 Z M77.2722414,11.0018054 C77.0870021,10.8229247 76.8613846,10.6217158 76.597891,10.3989458 C76.3343974,10.1760905 76.0702135,9.97496686 75.808014,9.79540433 C75.5445204,9.61712013 75.2730029,9.47556657 74.994238,9.37134019 C74.7154732,9.26719904 74.4513756,9.24555268 74.2037572,9.30452623 C73.2121618,9.48281043 72.1972713,9.93755445 71.1584818,10.6676504 C70.1204687,11.3976611 69.1129119,12.2693106 68.1365015,13.2811502 C67.1601773,14.294268 66.2375182,15.3893694 65.3700772,16.5656871 C64.5018597,17.7426867 63.7432154,18.8744334 63.0920738,19.9616091 C62.4416225,21.0494666 61.9292162,22.0325011 61.5575297,22.9113093 C61.1858432,23.7901174 61,24.4382299 61,24.8543684 C61,25.0634177 61.0776504,25.2947952 61.2322609,25.5477337 C61.3869577,25.8006723 61.5967,26.0320497 61.8601937,26.2404173 C62.1229971,26.4487848 62.4018482,26.6277508 62.6971785,26.776463 C62.9912146,26.9259422 63.2779171,27 63.5573722,27 C63.6815265,27 63.9211211,26.8656051 64.2775363,26.598264 C64.6339516,26.3295594 65.052746,25.9723944 65.5333156,25.5254908 C66.0138851,25.078502 66.5561436,24.5575406 67.1607813,23.9611578 C67.764815,23.3661385 68.3767863,22.7402689 68.9973854,22.0849126 C68.6555511,22.6812954 68.3927477,23.2173411 68.2075084,23.6931349 C68.0210612,24.1702071 67.9281396,24.5575406 67.9281396,24.8543684 C67.9281396,25.0634177 68.0050998,25.2947952 68.1610907,25.5477337 C68.3150973,25.8006723 68.5254436,26.0320497 68.7883333,26.2404173 C69.0511367,26.4487848 69.3299015,26.6277508 69.6253181,26.776463 C69.9193542,26.9259422 70.2067469,27 70.4855118,27 C70.7330439,27 71.0270801,26.9042958 71.3689143,26.709649 C71.7094543,26.5163658 72.0665598,26.2705858 72.4382463,25.9723944 C72.8099328,25.6755666 73.1663481,25.3399628 73.5068018,24.967117 C73.8480321,24.5955495 74.1573395,24.2449467 74.4367083,23.9165867 C74.653094,23.6492456 74.7075356,23.4997664 74.5993427,23.4696831 C74.4904596,23.4401963 74.3279115,23.4558772 74.1115258,23.5142542 C73.8944498,23.574506 73.6767699,23.6485639 73.4603842,23.737706 C73.2439984,23.8274446 73.1192402,23.8576132 73.0886977,23.8274446 C72.9638531,23.7088157 73.0421937,23.3661385 73.3216488,22.7999242 C73.6004137,22.2343065 74.0026427,21.5567073 74.5296299,20.7663594 C75.0567035,19.9780569 75.6527133,19.1208099 76.3197301,18.1974307 C76.9861429,17.2747333 77.6293469,16.403169 78.2485655,15.5833344 C78.8685607,14.7641816 79.4347183,14.041926 79.945744,13.4161417 C80.4575463,12.7902721 80.821209,12.3590493 81.0382849,12.1198315 C81.1928955,11.9416325 81.1849579,11.7475822 81.0150761,11.5392147 C80.8445041,11.3308472 80.5968856,11.1368821 80.2710129,10.9585979 C79.945744,10.7797172 79.6046,10.6230794 79.2481848,10.4893662 C78.8917695,10.3556531 78.6049808,10.2881573 78.3885951,10.2881573 C78.1390785,10.286879 77.767392,10.5254151 77.2722414,11.0018054 L77.2722414,11.0018054 Z M66.0908453,22.5299413 C66.4161141,21.8751815 66.8880559,21.0934411 67.5092589,20.1837826 C68.1292541,19.2754877 68.8413944,18.3147813 69.6478367,17.30226 C70.4535888,16.2897387 71.2819459,15.358519 72.1348922,14.5091977 C72.9871482,13.660558 73.8081716,12.9613124 74.5993427,12.4095007 C75.3898236,11.8583707 76.0642603,11.6125907 76.62179,11.6722461 C75.8777268,12.4475096 75.0328044,13.4227037 74.0882307,14.5990215 C73.142449,15.7760211 72.2357514,17.0047503 71.3682241,18.2852945 C70.7177727,18.9707342 70.0660272,19.6411748 69.4155758,20.2958494 C68.7650382,20.9518875 68.176362,21.5396629 67.6492885,22.0607096 C67.1216972,22.5823528 66.6882356,22.9919292 66.3470916,23.2894388 C66.0059475,23.5876302 65.8201043,23.7213433 65.7895618,23.6911748 C65.6647173,23.5732277 65.7656628,23.1852124 66.0908453,22.5299413 Z" id="Shape"></path>
                <path d="M65.3203877,6.03285825 C64.8266132,6.03285825 64.4326761,6.144027 64.1405527,6.36701077 C63.8464531,6.58999454 63.5760671,6.86529302 63.3295665,7.19225142 C63.0822926,7.54863259 62.9045269,7.88343989 62.7967849,8.19535526 C62.6883556,8.50727063 62.8503122,8.66353445 63.282569,8.66353445 L64.764494,8.66353445 C63.5912747,10.1498945 62.3869529,11.7395744 61.1529892,13.4338498 C59.9182522,15.1282101 58.7919445,16.7485883 57.7733789,18.2937939 C56.7548132,19.8395948 55.9213163,21.2069883 55.2728882,22.3951239 C54.6251475,23.5839399 54.3006327,24.3876236 54.3006327,24.8028589 C54.3006327,25.0114544 54.3779595,25.2423296 54.5320117,25.4947191 C54.6866652,25.7471087 54.8941588,25.9779839 55.1572417,26.1858991 C55.4190359,26.3938143 55.696639,26.5723918 55.9907386,26.7207812 C56.2835494,26.8698509 56.5690571,26.943748 56.8473476,26.943748 C57.0939341,26.943748 57.3867449,26.8483366 57.7271546,26.6541123 C58.0661897,26.4611636 58.421807,26.2160022 58.7919445,25.918458 C59.1620821,25.6221894 59.5170121,25.2873991 59.8568204,24.9153627 C60.1958554,24.5445167 60.5051625,24.1946749 60.7827657,23.8671127 C60.9982497,23.6002669 61.0524644,23.4511972 60.9447224,23.4210942 C60.836379,23.3916714 60.6744223,23.4074032 60.4589383,23.4655685 C60.242767,23.5257746 60.0266815,23.5996717 59.8111976,23.6886203 C59.5950262,23.7781641 59.4707878,23.8082672 59.4403726,23.7781641 C59.2857191,23.6597928 59.4707878,23.1314585 59.995579,22.1950321 C60.5203701,21.2586057 61.2534281,20.0776982 62.1952684,18.6507789 C63.1365073,17.2239446 64.2549104,15.6402173 65.5517666,13.902063 C66.8485369,12.162633 68.2062235,10.4173356 69.6259434,8.66293919 L71.2922498,8.66293919 C71.7550076,8.66293919 72.1489447,8.52228815 72.4727721,8.23916628 C72.7966854,7.95667368 73.0974007,7.65260721 73.3756912,7.32564882 C73.6221919,6.99869042 73.8152511,6.70116329 73.9546971,6.43370521 C74.0928543,6.16625564 73.9150026,6.03220346 73.4213141,6.03220346 L71.847542,6.03220346 L72.9585562,4.82834449 C73.1126083,4.64982652 73.1053052,4.4569203 72.9361314,4.24832477 C72.7655829,4.0410303 72.5190822,3.8474693 72.1951689,3.66895132 C71.8712556,3.49108813 71.5309318,3.3347988 71.1766033,3.20074662 C70.8216733,3.06669445 70.5354782,3 70.3199943,3 C70.0728063,3 69.648454,3.27529848 69.0463361,3.82458587 C68.4448196,4.37518282 67.7421768,5.1108371 66.9397825,6.03154868 L65.3203877,6.03154868 L65.3203877,6.03285825 Z M51.0149315,17.5810146 C50.273969,18.6220364 49.6103333,19.609485 49.0241103,20.5459114 C48.4371141,21.4823378 47.9592345,22.3298156 47.5890969,23.0869842 C47.218272,23.8455134 47.0338906,24.4177267 47.0338906,24.8035392 C47.0338906,25.0121347 47.11053,25.2430099 47.2652695,25.4953994 C47.4192357,25.747789 47.6274167,25.9786642 47.8898981,26.1865794 C48.1516064,26.3944946 48.4292095,26.5730721 48.7233091,26.7214615 C49.0161199,26.8705312 49.3024008,26.9444283 49.580004,26.9444283 C49.827192,26.9444283 50.1193154,26.8490169 50.4597251,26.6547926 C50.7988461,26.4618439 51.1543775,26.2166825 51.524515,25.9191383 C51.89534,25.6228697 52.2496685,25.2880794 52.5893909,24.916043 C52.9284259,24.5452821 53.2371316,24.1954402 53.5154221,23.867793 C53.7309061,23.6009472 53.7851208,23.4518775 53.6773788,23.4218595 C53.5689495,23.3923517 53.4069928,23.4080835 53.1915088,23.4662488 C52.974736,23.5264549 52.759252,23.600352 52.5437681,23.6893006 C52.3269953,23.7788444 52.2033583,23.8089475 52.1729431,23.7788444 C52.0493921,23.6604731 52.149831,23.3034881 52.4737443,22.7083999 C52.7975718,22.1139919 53.237819,21.3933892 53.7937127,20.5459114 C54.348919,19.6984336 54.9893567,18.7921102 55.7151116,17.826261 C56.4401791,16.8604119 57.13423,15.9384417 57.798553,15.0615412 C58.4615014,14.1852358 59.0636193,13.4116551 59.6036181,12.7433501 C60.1430154,12.0744498 60.5217448,11.6362546 60.7378303,11.4276591 C60.8918824,11.2792697 60.8839779,11.1007772 60.7147181,10.8927769 C60.544857,10.6848617 60.3048861,10.4840896 59.9975551,10.2905456 C59.688248,10.0975968 59.3564301,9.9341559 59.0021875,9.80013773 C58.6471716,9.66603453 58.3609766,9.5993656 58.1454926,9.5993656 L58.0992683,9.5993656 C57.7284434,9.5993656 57.0185835,10.0158764 55.9696026,10.8477074 C54.9199344,11.6801336 53.7388106,12.7505782 52.4281215,14.0577655 C51.1160578,15.3662284 49.7656742,16.8153423 48.376971,18.4049372 C46.9876663,19.9952974 45.7377217,21.5332749 44.6266217,23.0196349 C45.552653,21.5633779 46.5090994,20.2032126 47.4972499,18.9399044 C48.484713,17.6771913 49.4107443,16.5399928 50.2753437,15.5290741 C51.1391699,14.5187506 51.9112349,13.6640447 52.5900782,12.9657216 C53.2682342,12.2679938 53.7778177,11.754626 54.1182274,11.4270638 C54.3032962,11.2785894 54.3032962,11.1000969 54.1182274,10.8920966 C53.9331586,10.6841814 53.6700757,10.4834093 53.3309548,10.2898653 C52.9912324,10.0970016 52.6363024,9.9334756 52.2661649,9.79945744 C51.89534,9.66535424 51.6019277,9.5986853 51.3864438,9.5986853 C51.0156188,9.5986853 50.3057589,10.0151961 49.256778,10.8470271 C48.2071098,11.6794533 47.0265875,12.7498979 45.715297,14.0570852 C44.4032332,15.3655481 43.0528497,16.814662 41.6641464,18.4043419 C40.2747558,19.9946171 39.0248972,21.5326796 37.9137971,23.0190397 C38.8398284,21.5626976 39.7962749,20.2026174 40.7844253,18.9392241 C41.7718884,17.676511 42.6979197,16.5393125 43.5624332,15.5283938 C44.4263453,14.5180703 45.1984103,13.6634494 45.8771677,12.9650413 C46.5553237,12.2673135 47.0649931,11.7540307 47.4054028,11.4263835 C47.5904716,11.2779091 47.5904716,11.0994166 47.4054028,10.8915014 C47.2203341,10.6835011 46.9572511,10.482814 46.6181302,10.289185 C46.2784078,10.0963213 45.9241652,9.93288034 45.5533403,9.79877714 C45.1825154,9.66475898 44.8890173,9.59800501 44.6735333,9.59800501 C44.4263453,9.59800501 43.986184,9.90345757 43.3542523,10.5122368 C42.7210318,11.1216963 41.9952769,11.9096483 41.1783624,12.8754974 C40.3600731,13.8419419 39.5186717,14.9117912 38.6547596,16.0855556 C37.7901602,17.2600003 36.9950689,18.4043419 36.2706028,19.5185805 C35.5448479,20.6329041 34.94273,21.6445031 34.4648504,22.5508265 C33.9862835,23.4577451 33.7470001,24.1339586 33.7470001,24.5798921 C33.7470001,24.7878073 33.8626466,25.0631568 34.0940255,25.404495 C34.3254045,25.7458331 34.5950172,26.059024 34.9044103,26.3415166 C35.2124287,26.6240092 35.5131439,26.816958 35.8072435,26.9209581 C36.1000543,27.0248732 36.3083211,26.9582043 36.4325595,26.720186 C36.4939913,26.6018146 36.5555091,26.512866 36.6176283,26.4527449 C37.1424194,25.6215942 37.7981506,24.6844875 38.5853373,23.6434657 C39.372524,22.6031242 40.2126367,21.5411833 41.1082527,20.4556872 C42.0032674,19.3714667 42.9213082,18.3232167 43.8632344,17.312298 C44.8044733,16.3019745 45.6920989,15.3949709 46.5255958,14.5926477 C45.7846333,15.5441256 45.0509739,16.5249413 44.3259064,17.5352647 C43.6001515,18.5461835 42.9524108,19.5120327 42.3819968,20.4334075 C41.8102081,21.3554627 41.3475362,22.1800656 40.9926062,22.9084917 C40.6369889,23.6363226 40.4598246,24.1940796 40.4598246,24.5805724 C40.4598246,24.7884876 40.5755571,25.0638371 40.8068501,25.4051753 C41.038229,25.7465134 41.3006246,26.0597043 41.5941227,26.3421969 C41.8869335,26.6246895 42.1797443,26.8176383 42.4738438,26.9215534 C42.7666546,27.0255535 42.9907305,26.9588846 43.1453841,26.7207812 L43.516209,26.0969505 C44.0714153,25.2652045 44.735051,24.3431493 45.5070301,23.3315503 C46.2784078,22.3213119 47.1046016,21.2966172 47.9844087,20.2555954 C48.8641298,19.2151688 49.7590585,18.2048453 50.6698822,17.2240297 C51.5794171,16.2424487 52.4360261,15.3662284 53.2391077,14.593328 C52.4968565,15.5454012 51.755894,16.5406731 51.0149315,17.5810146 L51.0149315,17.5810146 Z M36.3386504,10.9823208 C36.1535816,10.8038283 35.9289043,10.6030562 35.6671102,10.3807697 C35.4047146,10.157803 35.1416317,9.95771112 34.8799235,9.77853836 C34.6175279,9.60064115 34.3471419,9.45939485 34.0695387,9.35539472 C33.7919355,9.25147962 33.5295399,9.22988024 33.2830393,9.28872578 C32.2948889,9.46662299 31.2842277,9.92037992 30.2504544,10.6488911 C29.2159938,11.3773172 28.2133231,12.2470747 27.2410676,13.2567179 C26.2687262,14.2676366 25.349998,15.3603608 24.4860859,16.5341253 C23.6215724,17.70857 22.8660897,18.8378601 22.2176616,19.9226759 C21.5699208,21.008172 21.0602514,21.9890727 20.6895124,22.8659733 C20.3193748,23.7428738 20.1342201,24.3895795 20.1342201,24.8048147 C20.1342201,25.0134102 20.2116328,25.2442854 20.365599,25.496675 C20.5195653,25.7490645 20.7278321,25.9799397 20.990915,26.1878549 C21.2526232,26.3957702 21.5302264,26.5743477 21.8244119,26.7227371 C22.1172227,26.8718918 22.4027303,26.9457889 22.6810209,26.9457889 C22.8039705,26.9457889 23.043168,26.8116857 23.3981839,26.5449249 C23.7531139,26.2768035 24.1694757,25.9204139 24.6487299,25.4744803 C25.1266095,25.0284618 25.6672956,24.5086312 26.2687262,23.9135429 C26.87093,23.3198152 27.4803511,22.6953042 28.0976766,22.0413704 C27.7579542,22.6364586 27.4955587,23.1713408 27.3104899,23.6461018 C27.1253352,24.1221384 27.0328008,24.5086312 27.0328008,24.8048147 C27.0328008,25.0134102 27.1095261,25.2442854 27.2641797,25.496675 C27.418146,25.7490645 27.6264128,25.9799397 27.8888084,26.1878549 C28.1505166,26.3957702 28.4288071,26.5743477 28.7223052,26.7227371 C29.015116,26.8718918 29.3006237,26.9457889 29.5789142,26.9457889 C29.8254149,26.9457889 30.1182256,26.8502924 30.4586353,26.6560681 C30.7977563,26.4632044 31.1533736,26.217958 31.5235112,25.9204139 C31.8943361,25.6242303 32.2485787,25.289355 32.5883011,24.9173185 C32.927422,24.5465576 33.2360418,24.1967158 33.5143323,23.8690686 C33.7298163,23.6023078 33.784031,23.4531531 33.676289,23.4231351 C33.5678597,23.3937123 33.4059889,23.4093591 33.1905049,23.4676094 C32.9743336,23.5277305 32.7575608,23.6016275 32.5420768,23.6905761 C32.3259055,23.78012 32.2023545,23.8102231 32.1719393,23.78012 C32.0483023,23.6617486 32.1256291,23.3198152 32.4032323,22.75483 C32.6808355,22.1904401 33.0820756,21.5143116 33.6068667,20.7256794 C34.1310565,19.939088 34.7252699,19.0837018 35.389507,18.1623269 C36.0524553,17.2416323 36.6929789,16.3719599 37.3109918,15.5539048 C37.9283174,14.7365301 38.4915141,14.0158423 39.0010977,13.3914163 C39.5106812,12.7669053 39.8729143,12.3366186 40.0890856,12.09792 C40.2430519,11.9201078 40.2351473,11.7264788 40.0658876,11.5185635 C39.8960264,11.3106483 39.6488384,11.1171043 39.3249251,10.9392071 C39.0010977,10.7607146 38.6613753,10.6044168 38.3064454,10.4709939 C37.9514295,10.3369757 37.6652344,10.2702217 37.4497504,10.2702217 C37.2025625,10.2689462 36.8317376,10.5069645 36.3386504,10.9823208 L36.3386504,10.9823208 Z M25.2039363,22.4854331 C25.5277637,21.8320946 25.9984261,21.052051 26.6157516,20.1443671 C27.2330772,19.2380437 27.9423357,18.2794227 28.7454174,17.2690992 C29.5478117,16.2587758 30.3727167,15.3295775 31.22271,14.4820997 C32.0714144,13.6353022 32.8891023,12.9375744 33.676289,12.3869604 C34.4634757,11.8370267 35.1350159,11.5917803 35.6903082,11.6513061 C34.9493457,12.4248869 34.1078584,13.3979642 33.1673069,14.5717286 C32.2254666,15.7461733 31.3225474,16.9722354 30.4586353,18.2499999 C29.8108946,18.9339518 29.1624665,19.6029371 28.5141243,20.2561906 C27.8662977,20.9108047 27.2793873,21.4973043 26.7545962,22.0172199 C26.2291177,22.5377308 25.7974624,22.9464182 25.4584273,23.243282 C25.1180176,23.5408261 24.9335503,23.674249 24.903221,23.644146 C24.7788967,23.5264549 24.8800229,23.1392819 25.2039363,22.4854331 L25.2039363,22.4854331 Z M16.8241179,11.0713544 C15.9747261,11.6957804 15.1412292,12.4314347 14.3243147,13.2783173 C13.5060254,14.1257951 12.7339603,15.0549933 12.0095802,16.0653168 C11.2838253,17.0762355 10.6823088,18.0943824 10.2038278,19.1197574 C9.7245735,20.1444521 9.37754805,21.1560512 9.16206406,22.1512381 C8.94597865,23.1471903 8.94597865,24.0620173 9.16206406,24.8931681 C9.25459846,25.2207302 9.47008245,25.5176791 9.80989073,25.7851202 C10.1489257,26.0525612 10.5349583,26.2827561 10.967215,26.4763001 C11.3988703,26.6698441 11.8469361,26.8104101 12.309694,26.8993587 C12.7729674,26.9889876 13.143105,27.0184104 13.4207941,26.9889876 C13.8212609,26.9588846 14.3157228,26.8104101 14.9026331,26.5429691 C15.4882547,26.2748477 16.0904585,25.9335096 16.7084714,25.5176791 C17.3251096,25.1010833 17.935218,24.6328701 18.5373359,24.1130395 C19.1394539,23.5931238 19.6867557,23.0510986 20.1812176,22.4861134 C20.489236,22.1297237 20.5896749,21.9060767 20.4819329,21.8178084 C20.3735035,21.7281795 20.1190984,21.8328599 19.7178583,22.130319 C19.0998454,22.5469148 18.4911117,22.9477788 17.8889078,23.3335912 C17.2874773,23.7206792 16.723679,24.0554695 16.198802,24.3372818 C15.6740108,24.6197744 15.2034343,24.8428262 14.7869866,25.0055868 C14.3705389,25.1691128 14.0381196,25.2508333 13.7915331,25.2508333 C12.9884514,25.1913074 12.680433,24.6642487 12.8655018,23.6677012 C13.0505706,22.6724293 13.5284501,21.4607384 14.3005152,20.0339041 C14.7320846,20.3608711 15.2186419,20.6662386 15.7592421,20.9474556 C16.2986394,21.2305435 16.8162134,21.312264 17.3105894,21.192617 C18.0819671,21.0148049 18.899569,20.5393635 19.7640825,19.7657828 C20.6279946,18.9928823 21.4383794,18.1381764 22.1951509,17.20175 C22.951321,16.2654086 23.5759496,15.3518572 24.0703255,14.4599051 C24.5634127,13.5686332 24.8264956,12.8996479 24.8569108,12.4537144 C24.887326,12.0973247 24.7022572,11.7258835 24.3017045,11.3387955 C23.9004644,10.9529831 23.4060884,10.6181928 22.8197795,10.3357002 C22.2334706,10.0538028 21.6082405,9.84520729 20.9446048,9.71186943 C20.2809691,9.57776623 19.7178583,9.58567466 19.254499,9.73406406 C18.4831213,10.0015051 17.6728224,10.4468434 16.8241179,11.0713544 L16.8241179,11.0713544 Z M16.1994893,17.3803275 C16.755383,16.7113422 17.3489091,16.0502653 17.9821296,15.3963315 C18.6140613,14.743078 19.2551863,14.1408466 19.9036144,13.5902326 C20.5513552,13.040299 21.1375781,12.5871373 21.6630566,12.2300673 C22.0636094,11.9927293 22.2804681,11.9031004 22.3108833,11.9626262 C22.3412126,12.0227473 22.2645731,12.2156961 22.0795044,12.5419827 C21.6472476,13.2554423 21.0913539,14.0060631 20.413198,14.7934198 C19.7336673,15.5813718 19.039015,16.3026548 18.3298424,16.9559083 C17.6192951,17.6105224 16.9483563,18.1525476 16.3158232,18.5835147 C15.6826027,19.0144817 15.181611,19.2452719 14.8114734,19.2746947 C15.1802363,18.680967 15.6435956,18.0492278 16.1994893,17.3803275 L16.1994893,17.3803275 Z" id="Shape"></path>
                <path d="M3.33167055,29 C3.57022356,28.9146077 3.91464201,28.7233361 4.36491734,28.4261851 C4.99601257,28.0099088 5.58160709,27.5630785 6.12038079,27.083045 C6.65849444,26.6056606 7.03636123,26.1961839 7.25200101,25.8559394 C7.4669893,25.5164014 7.28233767,25.4241212 6.69806326,25.5789223 C6.11246874,25.7337234 5.90474101,25.3391704 6.07422002,24.398001 C6.24303898,23.4568315 6.72114793,22.1985538 7.50589807,20.6238743 C8.29129969,19.049813 9.3537002,17.2672603 10.6930053,15.2762162 C12.0323961,13.2852604 13.6104342,11.2867985 15.4278911,9.28017719 C15.5815888,9.0947956 15.6428794,8.89447256 15.6125341,8.67784816 C15.5815888,8.46259252 15.4971537,8.23782627 15.3586285,8.00694039 C15.2201891,7.77538338 15.035546,7.55197706 14.8046993,7.33535266 C14.5739384,7.12009701 14.3352053,6.93471542 14.089186,6.77988783 C15.6283925,6.75000495 17.1219954,6.77241711 18.5695661,6.84914653 C20.0163654,6.92656474 21.3254109,7.0426788 22.4959314,7.19682643 C22.8032412,7.2280604 23.0729195,7.0426788 23.3044519,6.6413616 C23.5358987,6.24071552 23.7125697,5.76198011 23.8359222,5.20583532 C23.958589,4.65036166 24.0126789,4.10236754 23.9975063,3.56251528 C23.9816479,3.02266302 23.8662675,2.62948766 23.6512792,2.3816293 C23.4653503,2.19692766 22.9113354,2.08148472 21.98752,2.03463818 C21.063619,1.98845394 19.9161575,1.98845394 18.5464215,2.03463818 C17.1754853,2.08081359 15.689683,2.18945694 14.089186,2.35922597 C12.4874032,2.52898616 10.9251378,2.73745988 9.40050387,2.98395833 C7.87584424,3.23113673 6.48242348,3.52448172 5.21957297,3.86401094 C3.95671388,4.20354017 3.0024933,4.5743122 2.35556539,4.97494944 C2.17092233,5.06730026 2.03243147,5.31447867 1.94010994,5.7158047 C1.84778841,6.11713074 1.83987636,6.51844794 1.91703384,6.91977397 C1.9935227,7.32109118 2.16300171,7.64500784 2.42481083,7.89218624 C2.68595132,8.13935582 3.07898215,8.16991866 3.60325186,7.98521702 C4.55748102,7.64568779 5.75834667,7.38288799 7.20584024,7.19818635 C8.65267376,7.01280475 10.2083387,6.88989109 11.8714977,6.82810312 C11.2245613,7.35301394 10.4853033,8.14003578 9.6544095,9.18918629 C8.82282997,10.2390433 7.96025372,11.4273823 7.06735795,12.7542741 C6.17446217,14.081784 5.31255455,15.4793209 4.48098359,16.944677 C3.64941263,18.4107397 2.8943391,19.8082765 2.21774315,21.1351683 C1.53981853,22.4620601 1.0010534,23.6511056 0.600761994,24.7001854 C0.199813964,25.7486472 0,26.5207982 0,27.0144309 C0,27.1067994 0.0995778131,27.2691065 0.300050971,27.5006459 C0.499865792,27.7321852 0.753755141,27.9637246 1.06237821,28.1946458 C1.36968804,28.4261851 1.70864606,28.6271704 2.07859223,28.7969836 C2.28200819,28.8900585 2.47601199,28.9578779 2.66083506,29 L3.33167055,29 L3.33167055,29 Z" id="Path"></path>
            </g>
        </g>
    </g>
</svg>