<svg clip-rule="evenodd" fill-rule="evenodd" stroke-linejoin="round" stroke-miterlimit="2" viewBox="0 0 1182 141" xmlns="http://www.w3.org/2000/svg"><g fill-rule="nonzero" transform="matrix(4.16667 0 0 4.16667 -106.3750851 -102.6113618)"><path d="m309 49.29c0 4.56-1.33 5.91-5 7-4.906 1.235-9.941 1.883-15 1.93-5.472.075-10.936-.434-16.3-1.52v-5.27h28.89v-7.17h-20.45c-6.15 0-8.44-1.69-8.44-7.69v-3.14c0-4.73 1.4-6.16 5.24-7.15 4.705-1.057 9.508-1.61 14.33-1.65 5.476-.05 10.942.469 16.31 1.55v5.28h-28.42v6.06h20.45c6.15 0 8.43 1.66 8.43 7.66zm-49.23 7.42c-5.886 1.085-11.865 1.591-17.85 1.51-6.035.084-12.063-.422-18-1.51v-30.52c5.899-1.098 11.89-1.617 17.89-1.55 5.963-.067 11.918.452 17.78 1.55v5.45h-27v6.1h17.61v6.33h-17.62v7.2h27.19zm-46.14 0c-5.262 1.085-10.628 1.592-16 1.51-5.409.082-10.811-.425-16.11-1.51v-31.31h8.62v25.46h23.48zm-42.44.19c-3.105.767-6.291 1.16-9.49 1.17l-13.27-26.82h-.74l-13.28 26.82c-3.037-.013-6.061-.406-9-1.17l16.81-31.49h12z"/><path d="m153.68 48.9v.02c0 3.072-2.528 5.6-5.6 5.6s-5.6-2.528-5.6-5.6c0-3.065 2.516-5.589 5.58-5.6 3.07-.006 5.604 2.51 5.62 5.58z"/><path d="m115 56.94c-2.812.75-5.71 1.129-8.62 1.13v-13.68h-21.44v13.68c-2.91 0-5.808-.38-8.62-1.13v-30.94c2.812-.75 5.71-1.13 8.62-1.13v13.2h21.42v-13.21c2.917.002 5.822.385 8.64 1.14zm-50.69-25.22h-15.12v25.8h-8.54v-25.8h-15.12v-5.51c6.41-1.099 12.907-1.617 19.41-1.55 6.49-.066 12.973.452 19.37 1.55z"/></g></svg>