<?xml version="1.0" encoding="UTF-8" standalone="no"?>
<!DOCTYPE svg PUBLIC "-//W3C//DTD SVG 1.1//EN" "http://www.w3.org/Graphics/SVG/1.1/DTD/svg11.dtd">
<svg viewBox="0 0 45 64" version="1.1" xmlns="http://www.w3.org/2000/svg" xmlns:xlink="http://www.w3.org/1999/xlink" xml:space="preserve" xmlns:serif="http://www.serif.com/" style="fill-rule:evenodd;clip-rule:evenodd;stroke-linejoin:round;stroke-miterlimit:2;">
    <g transform="matrix(1,0,0,1,0,-12)">
        <path d="M15.448,27.333L29.552,27.333L29.552,41.333L15.448,41.333L15.448,27.333ZM15.448,42.667L29.552,42.667L29.552,56.667L15.448,56.667L15.448,42.667ZM30.896,12L45,12L45,26L30.896,26L30.896,12ZM15.448,12L29.552,12L29.552,26L15.448,26L15.448,12ZM0,12L14.104,12L14.104,26L0,26L0,12ZM0,64.667L0,66.83L3.319,66.83L3.319,76L6.084,76L6.084,66.83L9.403,66.83L9.403,64.667L0,64.667ZM14.645,68.751C14.555,69.51 14.485,70.314 14.42,71.145C14.356,71.976 14.292,72.813 14.244,73.645C14.184,74.481 14.142,75.263 14.104,76L16.144,76C16.174,75.01 16.206,74.02 16.241,73.03C16.283,71.968 16.341,70.89 16.426,69.802L16.846,71.001C16.996,71.45 17.146,71.904 17.296,72.348C17.451,72.791 17.59,73.223 17.73,73.628C17.874,74.038 17.987,74.382 18.088,74.67L19.432,74.67L19.802,73.628L20.262,72.348C20.418,71.904 20.573,71.45 20.739,71.001L21.184,69.776C21.26,70.859 21.319,71.944 21.36,73.029C21.398,74.099 21.44,75.091 21.462,76L23.507,76C23.47,75.263 23.417,74.481 23.368,73.644C23.31,72.814 23.251,71.976 23.186,71.144C23.126,70.344 23.053,69.547 22.966,68.75C22.886,68.054 22.793,67.36 22.688,66.667L20.916,66.667C20.747,67.012 20.591,67.363 20.45,67.72C20.268,68.135 20.091,68.59 19.898,69.072C19.702,69.568 19.513,70.067 19.331,70.568C19.143,71.078 18.972,71.555 18.806,71.998C18.646,71.555 18.479,71.078 18.303,70.568C18.121,70.064 17.938,69.56 17.756,69.072C17.574,68.59 17.392,68.135 17.226,67.72C17.06,67.304 16.916,66.95 16.787,66.667L14.918,66.667C14.81,67.359 14.719,68.054 14.645,68.751ZM25.522,66.667L27.537,66.667L27.537,76L25.522,76L25.522,66.667ZM10.075,66.667L12.09,66.667L12.09,76L10.075,76L10.075,66.667ZM35.597,66.667L35.597,68.44L31.569,68.44L31.569,70.164L34.794,70.164L34.794,71.937L31.57,71.937L31.57,76L29.553,76L29.553,66.667L35.597,66.667ZM39.7,72.18L37.862,69.226L36.269,66.666L38.431,66.666C38.431,66.666 38.661,66.848 39.621,68.474C40.472,69.914 40.648,70.417 40.648,70.417C40.648,70.417 40.812,69.895 41.636,68.483C42.464,67.065 42.837,66.667 42.837,66.667L45,66.667L41.596,72.18L41.596,76L39.7,76L39.7,72.18Z" style="fill-rule:nonzero;"/>
    </g>
</svg>
