<svg clip-rule="evenodd" fill-rule="evenodd" stroke-linejoin="round" stroke-miterlimit="2" viewBox="0 0 704 1000" xmlns="http://www.w3.org/2000/svg"><path d="m15.448 27.333h14.104v14h-14.104zm0 15.334h14.104v14h-14.104zm15.448-30.667h14.104v14h-14.104zm-15.448 0h14.104v14h-14.104zm-15.448 0h14.104v14h-14.104zm0 52.667v2.163h3.319v9.17h2.765v-9.17h3.319v-2.163zm14.645 4.084c-.09.759-.16 1.563-.225 2.394-.064.831-.128 1.668-.176 2.5-.06.836-.102 1.618-.14 2.355h2.04c.03-.99.062-1.98.097-2.97.042-1.062.1-2.14.185-3.228l.42 1.199c.15.449.3.903.45 1.347.155.443.294.875.434 1.28.144.41.257.754.358 1.042h1.344l.37-1.042.46-1.28c.156-.444.311-.898.477-1.347l.445-1.225c.076 1.083.135 2.168.176 3.253.038 1.07.08 2.062.102 2.971h2.045c-.037-.737-.09-1.519-.139-2.356-.058-.83-.117-1.668-.182-2.5-.06-.8-.133-1.597-.22-2.394-.08-.696-.173-1.39-.278-2.083h-1.772c-.169.345-.325.696-.466 1.053-.182.415-.359.87-.552 1.352-.196.496-.385.995-.567 1.496-.188.51-.359.987-.525 1.43-.16-.443-.327-.92-.503-1.43-.182-.504-.365-1.008-.547-1.496-.182-.482-.364-.937-.53-1.352-.166-.416-.31-.77-.439-1.053h-1.869c-.108.692-.199 1.387-.273 2.084zm10.877-2.084h2.015v9.333h-2.015zm-15.447 0h2.015v9.333h-2.015zm25.522 0v1.773h-4.028v1.724h3.225v1.773h-3.224v4.063h-2.017v-9.333zm4.103 5.513-1.838-2.954-1.593-2.56h2.162s.23.182 1.19 1.808c.851 1.44 1.027 1.943 1.027 1.943s.164-.522.988-1.934c.828-1.418 1.201-1.816 1.201-1.816h2.163l-3.404 5.513v3.82h-1.896z" fill-rule="nonzero" transform="matrix(15.625 0 0 15.625 0 -187.5)"/></svg>