<?xml version="1.0" encoding="UTF-8" standalone="no"?>
<!DOCTYPE svg PUBLIC "-//W3C//DTD SVG 1.1//EN" "http://www.w3.org/Graphics/SVG/1.1/DTD/svg11.dtd">
<svg viewBox="0 0 124 27" version="1.1" xmlns="http://www.w3.org/2000/svg" xmlns:xlink="http://www.w3.org/1999/xlink" xml:space="preserve" xmlns:serif="http://www.serif.com/" style="fill-rule:evenodd;clip-rule:evenodd;stroke-linejoin:round;stroke-miterlimit:2;">
    <g transform="matrix(1,0,0,1,0,-28)">
        <path d="M119.252,43.499C119.167,41.729 118.072,40.045 115.294,40.045C112.852,40.045 111.504,41.897 111.336,43.499L119.252,43.499ZM123.717,49.227C122.789,52.259 120.01,54.786 115.714,54.786C110.915,54.786 106.618,51.333 106.618,45.436C106.618,39.877 110.746,36.171 115.21,36.171C120.6,36.171 123.884,39.624 123.884,45.267C123.884,45.941 123.8,46.7 123.8,46.7L111.25,46.7C111.335,49.058 113.356,50.658 115.63,50.658C117.82,50.658 119.083,49.564 119.588,47.963L123.717,49.227ZM93.144,44.172C93.144,42.15 94.323,40.549 96.427,40.549C98.702,40.549 99.712,42.066 99.712,44.003L99.712,54.195L104.429,54.195L104.429,43.161C104.429,39.286 102.407,36.17 98.112,36.17C96.259,36.17 94.154,37.011 93.059,38.781L93.059,36.591L88.427,36.591L88.427,54.111L93.144,54.111L93.144,44.172ZM80.764,36.676L85.481,36.676L85.481,54.196L80.765,54.196L80.764,36.676ZM83.124,28C84.724,28 86.071,29.348 86.071,30.949C86.071,32.548 84.808,33.812 83.124,33.812C81.524,33.812 80.176,32.464 80.176,30.949C80.176,29.349 81.523,28 83.123,28L83.124,28ZM56.764,44.172C56.764,42.152 57.943,40.55 60.048,40.55C62.322,40.55 63.332,42.067 63.332,44.004L63.332,54.196L68.049,54.196L68.049,43.162C68.049,39.287 66.028,36.171 61.732,36.171C59.879,36.171 57.774,37.012 56.68,38.782L56.68,36.59L52.048,36.59L52.048,54.11L56.763,54.11L56.764,44.172ZM44.215,36.677L48.932,36.677L48.932,54.197L44.215,54.197L44.215,36.677ZM46.488,28C48.088,28 49.435,29.348 49.435,30.949C49.435,32.548 48.172,33.812 46.489,33.812C44.889,33.812 43.54,32.464 43.54,30.949C43.625,29.349 44.888,28 46.488,28ZM33.013,51.248C31.498,51.248 30.739,50.238 30.739,49.227C30.739,47.878 31.665,47.205 32.929,47.037L36.887,46.447L36.887,47.205C36.887,50.238 35.035,51.248 33.013,51.248ZM26.023,49.478C26.023,52.258 28.297,54.786 32.087,54.786C34.699,54.786 36.382,53.606 37.224,52.174C37.224,52.848 37.308,53.774 37.392,54.28L41.772,54.28C41.688,53.69 41.519,52.427 41.519,51.501L41.519,42.825C41.519,39.287 39.414,36.171 33.855,36.171C29.14,36.171 26.613,39.203 26.36,41.982L30.571,42.908C30.739,41.393 31.834,40.045 33.94,40.045C35.96,40.045 36.887,41.055 36.887,42.319C36.887,42.909 36.55,43.414 35.54,43.583L31.244,44.257C28.298,44.594 26.024,46.363 26.024,49.48L26.023,49.478ZM24.592,41.393C24.086,41.309 23.58,41.225 23.16,41.225C20.718,41.225 18.612,42.404 18.612,46.195L18.612,54.196L13.896,54.196L13.896,36.676L18.528,36.676L18.528,39.288C19.622,36.928 21.981,36.508 23.497,36.508C23.917,36.508 24.256,36.508 24.592,36.592L24.592,41.393ZM11.285,36.929L11.285,41.056L5.81,41.056C6.315,40.804 6.737,40.382 7.157,40.045C8,39.203 8.589,38.192 9.01,36.929L11.285,36.929ZM1.347,41.056L0,41.056L0,36.929L7.664,36.929C7.158,38.192 6.401,39.203 5.306,39.961C4.295,40.635 2.948,40.972 1.347,41.056ZM9.855,50.321C10.445,50.321 11.033,50.238 11.285,50.154L11.285,54.112C10.865,54.28 10.023,54.533 8.675,54.533C5.307,54.533 3.201,52.511 3.201,49.143L3.201,42.15L7.833,42.15L7.833,48.383C7.833,49.815 8.507,50.32 9.855,50.32L9.855,50.321ZM7.833,35.834L7.833,31.705L3.622,31.705L3.622,34.147C3.622,34.821 3.453,35.412 3.116,35.833L7.833,35.834ZM78.154,50.32L77.311,50.32C75.964,50.32 75.291,49.815 75.291,48.3L75.291,28.757L70.658,28.757L70.658,49.141C70.658,52.511 72.763,54.531 76.133,54.531C76.974,54.531 77.648,54.448 78.153,54.279L78.154,50.32Z" style="fill-rule:nonzero;"/>
    </g>
</svg>
