<?xml version="1.0" encoding="UTF-8"?>
<svg viewBox="0 0 130.338935 26.3473942" version="1.1" xmlns="http://www.w3.org/2000/svg" xmlns:xlink="http://www.w3.org/1999/xlink">
    <title>Combined Shape</title>
    <g id="Page-1" stroke="none" stroke-width="1" fill="none" fill-rule="evenodd">
        <path d="M27.312779,5.11984469 C28.7883774,5.11984469 29.9844276,6.55843848 29.9844276,8.33308296 C29.9844276,10.1074955 28.7883774,11.5460893 27.312779,11.5460893 L24.7476358,11.5460893 L24.7476358,5.11984469 L27.312779,5.11984469 Z M38.866666,24.9739697 L31.6637958,15.5833359 C34.8582689,15.0851738 37.3266098,11.8030556 37.3266098,7.82541218 C37.3266098,3.50360091 34.4133021,0 30.8198377,0 L24.7476358,0 L22.6424765,0 L22.2418678,0 L17.8594307,0 L12.5628017,0 L5.6743655,0 L0,0 L0,5.77339253 L5.6743655,5.77339253 L5.6743655,26.3473942 L12.5628017,26.3473942 L12.5628017,5.77339253 L17.8594307,5.77339253 L17.8594307,26.3473942 L24.7476358,26.3473942 L24.7476358,16.2250559 L31.1901812,26.3473942 L38.866666,26.3473942 L39.9201698,26.3473942 L45.7551022,26.3473942 L45.7551022,0 L38.866666,0 L38.866666,24.9739697 Z M57.631001,11.9269004 L54.2198204,11.9269004 L54.2198204,5.39814753 L57.631001,5.39814753 C59.1301646,5.39814753 60.3451594,6.85970131 60.3451594,8.66263991 C60.3451594,10.4653466 59.1301646,11.9269004 57.631001,11.9269004 L57.631001,11.9269004 Z M130.338935,26.3473942 L118.913733,12.32325 L129.164371,0 L120.680662,0 L112.559441,10.8570579 L112.559441,0 L106.912337,0 L105.671005,0 L98.4020599,0 L93.7426159,6.96592023 L89.0831719,0 L87.8931285,0 L80.5728943,0 L78.2140624,0 L71.3256262,0 L65.6510296,0 L65.6510296,2.96578066 C64.3085054,1.14683964 62.3502821,0 60.1686513,0 L54.2198204,0 L50.9588103,0 L47.3313841,0 L47.3313841,26.3473942 L54.2198204,26.3473942 L54.2198204,17.6272384 L60.1686513,17.6272384 C64.2160928,17.6272384 67.4972026,13.6813679 67.4972026,8.81361921 C67.4972026,7.7451682 67.338946,6.72101372 67.0492325,5.77339253 L71.3256262,5.77339253 L71.3256262,26.3473942 L78.2140624,26.3473942 L78.2140624,5.77339253 L84.7300758,5.77339253 L90.2549639,13.4459701 L90.2549639,26.3473942 L97.1434001,26.3473942 L97.1434001,13.566568 L105.671005,1.72385421 L105.671005,26.3473942 L112.559441,26.3473942 L112.559441,15.7220235 L121.431283,26.3473942 L130.338935,26.3473942 Z" id="Combined-Shape" fill="#000000"></path>
    </g>
</svg>