<svg enable-background="new 0 0 280.3 55.8" viewBox="0 0 280.3 55.8" xmlns="http://www.w3.org/2000/svg"><path d="m3 42.5 22.9 12.8c1.1.8 2.5.8 3.6 0l24.3-13.7c.8-.5 1.4-1 1.4-1.9 0-.7-.5-1.4-1.2-1.7l-6.5-4.3 6.2-3.5c1.2-.5 2-1.7 2.1-3v-9.5c.2-1.5-.7-3-2.1-3.6l-23.9-13.4c-1.3-.9-3.1-.9-4.4 0l-23.9 13.6c-.9.4-1.4 1.3-1.4 2.3 0 1.2 1.2 2 1.4 2.2l6.2 3.6-6.6 3.9c-.6.4-1 1.1-1.1 1.8v9.2c-.3 2.1.9 4.3 3 5.2zm47.9-2.7-23.2 12.8-22.5-12.4 7-3.9 14.6 8.2c.5.3 1.1.3 1.6 0l15.8-9zm1.9-13.6-6.3-3.8 6.3-3.6zm-23.4-22 21.3 12.3-7 4.2-14.4-8.6zm-1.8 10.6 13 7.7-13 7.3-13.3-7.5zm-23.5 1.8 21.8-12.4v7.9l-15.2 8.4zm6.9 7.7 15.8 8.9c.5.3 1.2.3 1.7 0l15.2-8.9 6.8 4.1-22.9 12.7-23.2-13.1zm-8 6.7 6.1 3.4-6.1 3.4z"/><path d="m87.3 15.5h-16.3c-.7 0-1.3.5-1.3 1.2v.8c0 .7.6 1.2 1.2 1.2h5.7c.4 0 .7.3.7.7v18.7c0 .7.6 1.3 1.4 1.3h.9c.7 0 1.4-.6 1.4-1.3v-18.7c0-.4.3-.7.7-.7h5.7c.7 0 1.2-.5 1.2-1.2v-.7c-0-.8-.6-1.3-1.3-1.3z"/><path d="m138.2 16.8c0-.7-.6-1.3-1.4-1.3h-.8c-.7 0-1.3.6-1.4 1.3v13.3c0 3.2-2.6 5.8-5.8 5.8s-5.8-2.6-5.8-5.8v-13.3c0-.7-.6-1.3-1.4-1.3h-.9c-.7 0-1.3.6-1.4 1.3v13.5c0 5.2 4.2 9.4 9.4 9.4s9.4-4.2 9.4-9.4z"/><path d="m185.1 36.3h-8.2c-.4 0-.7-.3-.7-.7v-18.7c0-.7-.6-1.3-1.4-1.3h-.9c-.7 0-1.4.6-1.4 1.3v21.3c0 .7.6 1.3 1.3 1.3h11.2c.7 0 1.2-.5 1.2-1.2v-.8c.1-.6-.3-1.2-.9-1.2-.1 0-.2 0-.2 0z"/><path d="m107.6 29.8c2.9-1.1 4.9-3.9 5-7 0-4-3.2-7.3-7.3-7.3h-.1-8.4c-.7 0-1.3.6-1.3 1.3v.6 20.6c0 .7.6 1.3 1.3 1.3h.8c.7 0 1.3-.6 1.3-1.3v-7.3c0-.4.3-.7.7-.7h4.2c.1 0 .3.1.4.2l4.3 8.5c.4.6 1.2.9 1.8.5l.7-.4c.6-.4.9-1.2.5-1.8zm-2.6-2.7h-5.3c-.4 0-.7-.3-.7-.6v-6.5-.4c0-.4.3-.7.6-.7h5.2c2.3 0 4.2 1.8 4.2 4.1.1 2.3-1.7 4.2-4 4.1z"/><path d="m162.7 36.3h-9.8c-.4 0-.7-.3-.7-.7v-6c0-.4.3-.7.7-.7h8.1c.7 0 1.2-.5 1.3-1.2v-.8c0-.7-.6-1.2-1.3-1.2h-8.1c-.4 0-.7-.3-.7-.7v-5.6c0-.4.3-.7.7-.7h9.8c.7 0 1.2-.5 1.3-1.2v-.8c0-.7-.6-1.2-1.3-1.2h-12.8c-.7 0-1.3.5-1.4 1.3v.1 21.4c0 .7.6 1.3 1.4 1.3h12.8c.7 0 1.2-.5 1.2-1.2v-.8c0-.7-.5-1.3-1.2-1.3z"/><path d="m253.4 36.3h-9.7c-.4 0-.7-.3-.7-.7v-.5-5.5c0-.4.3-.7.7-.7h8.1c.7 0 1.2-.5 1.3-1.2v-.8c0-.7-.6-1.2-1.3-1.2h-8.1c-.4 0-.7-.3-.7-.7v-5.2-.4c0-.4.3-.7.7-.7h.1 9.8c.7 0 1.2-.5 1.3-1.2v-.8c0-.7-.6-1.2-1.3-1.2h-12.8c-.7 0-1.3.6-1.3 1.3v21.4c0 .7.6 1.3 1.3 1.3h12.8c.7 0 1.2-.5 1.2-1.2v-.8c-.1-.7-.6-1.2-1.4-1.2z"/><path d="m213.5 37.4-10.2-21.5c-.1-.2-.4-.3-.6-.4h-.4c-.2 0-.5.2-.6.4l-10.3 21.5c-.3.6 0 1.4.6 1.6l.8.3c.6.3 1.4 0 1.7-.6l2-4.3c.1-.1.2-.1.2-.1h11.1c.1 0 .3.1.3.2l2 4.2c.3.6 1.1.9 1.7.6l.8-.3c.9-.2 1.2-1 .9-1.6zm-7.2-6h-7.7c-.2 0-.4-.2-.4-.4v-.1l4.1-8.6h.1.1l4.1 8.6c.1.2 0 .3-.1.4-.1.1-.2.1-.2.1z"/><path d="m232.1 16.4-.8-.6c-.6-.4-1.4-.3-1.9.3l-6.1 8.3c-.1.1-.2.1-.3 0l-6.1-8.3c-.5-.6-1.3-.7-1.9-.3l-.8.6c-.4.5-.4 1.2 0 1.7l7.3 9.9v10.2c0 .7.6 1.3 1.4 1.3h.9c.7 0 1.4-.6 1.4-1.3v-10.3l7.1-9.8c.2-.5.2-1.2-.2-1.7z"/><path d="m275.4 29.8c2.9-1.1 4.9-3.9 5-7 0-4-3.3-7.3-7.3-7.3h-8.5c-.7 0-1.3.6-1.3 1.3v21.3c0 .7.6 1.3 1.3 1.3h.8c.7 0 1.3-.6 1.3-1.3v-7.4c0-.4.3-.7.7-.7h4.2c.1 0 .3.1.4.2l4.3 8.5c.3.6 1.2.9 1.8.5l.7-.4c.7-.4.9-1.2.5-1.8zm-2.7-2.6h-5.3c-.4 0-.7-.3-.7-.6v-7c0-.4.3-.7.7-.7h5.2c2.3.2 4 2.2 3.8 4.5-.1 1.9-1.7 3.5-3.7 3.8z"/></svg>