<?xml version="1.0" encoding="UTF-8" standalone="no"?>
<!DOCTYPE svg PUBLIC "-//W3C//DTD SVG 1.1//EN" "http://www.w3.org/Graphics/SVG/1.1/DTD/svg11.dtd">
<svg width="100%" height="100%" viewBox="0 0 286 55" version="1.1" xmlns="http://www.w3.org/2000/svg" xmlns:xlink="http://www.w3.org/1999/xlink" xml:space="preserve" xmlns:serif="http://www.serif.com/" style="fill-rule:evenodd;clip-rule:evenodd;stroke-linejoin:round;stroke-miterlimit:2;">
    <path d="M61.84,53.04L54.25,53.04C53.96,51.81 53.75,50.29 53.6,48.77C51.58,52.17 47.53,53.98 42.76,53.98C36.11,53.98 28.31,50.65 28.31,39.02L28.31,17.49L36.04,17.49L36.04,37.72C36.04,45.52 40.95,47.11 44.35,47.11C48.76,47.11 53.45,44.22 53.45,37.43L53.45,17.56L61.18,17.56L61.18,46.54C61.18,48.42 61.47,51.38 61.83,53.04M75.38,10.19C72.49,10.19 70.25,7.95 70.25,5.13C70.25,2.31 72.49,-0 75.38,-0C78.27,-0 80.44,2.24 80.44,5.13C80.44,8.02 78.2,10.19 75.38,10.19M71.55,17.56L79.21,17.56L79.21,53.04L71.55,53.04L71.55,17.56ZM116.59,10.19C113.7,10.19 111.53,7.95 111.53,5.13C111.53,2.31 113.7,-0 116.59,-0C119.48,-0 121.65,2.24 121.65,5.13C121.65,8.02 119.41,10.19 116.59,10.19M120.34,17.56L120.34,53.04L112.68,53.04L112.68,23.92L99.6,23.92L99.6,53.04L92.01,53.04L92.01,23.92L85.07,23.92L85.07,17.56L92.01,17.56L92.01,6.43L99.6,6.43L99.6,17.56L120.34,17.56ZM127.96,35.27C127.96,24.5 135.26,16.55 146.24,16.55C157.22,16.55 164.52,24.5 164.52,35.27C164.52,46.04 157.22,53.91 146.24,53.91C135.26,53.91 127.96,46.04 127.96,35.27M135.69,35.19C135.69,42.05 139.81,47.04 146.24,47.04C152.67,47.04 156.79,42.05 156.79,35.19C156.79,28.33 152.6,23.48 146.24,23.48C139.88,23.48 135.69,28.4 135.69,35.19M190.05,16.55C198.65,16.55 204.29,21.46 204.29,31.22L204.29,53.04L196.63,53.04L196.63,32.73C196.63,24.92 191.79,23.48 188.47,23.48C183.92,23.48 179.3,26.37 179.3,33.16L179.3,53.03L171.64,53.03L171.64,17.56L178.8,17.56L179.09,21.68C181.11,18.57 185.24,16.55 190.07,16.55M218.84,54.12C215.8,54.12 213.42,51.67 213.42,48.77C213.42,45.87 215.8,43.35 218.84,43.35C221.88,43.35 224.33,45.81 224.33,48.77C224.33,51.73 221.8,54.12 218.84,54.12M237.94,10.19C235.05,10.19 232.81,7.95 232.81,5.13C232.81,2.31 235.05,0 237.94,0C240.83,0 243,2.24 243,5.13C243,8.02 240.76,10.19 237.94,10.19M234.11,17.56L241.77,17.56L241.77,53.04L234.11,53.04L234.11,17.56ZM249.24,35.27C249.24,24.5 256.54,16.55 267.52,16.55C278.5,16.55 285.8,24.5 285.8,35.27C285.8,46.04 278.5,53.91 267.52,53.91C256.54,53.91 249.24,46.04 249.24,35.27M256.97,35.19C256.97,42.05 261.09,47.04 267.52,47.04C273.95,47.04 278.07,42.05 278.07,35.19C278.07,28.33 273.88,23.48 267.52,23.48C261.16,23.48 256.97,28.4 256.97,35.19" style="fill-rule:nonzero;"/>
    <path d="M10,6.92L0,6.92L0,0.07L29.53,0.07L29.53,6.92L17.83,6.92L17.96,53.04L10,53.04L10,6.92Z" style="fill-rule:nonzero;"/>
</svg>
