<svg clip-rule="evenodd" fill-rule="evenodd" stroke-linejoin="round" stroke-miterlimit="2" viewBox="0 0 360 173" xmlns="http://www.w3.org/2000/svg"><path d="m362.5 78.017v-21.685h-82.488v79.903c-.444-9.361-3.862-16.624-10.335-21.732-4.476-3.531-11.196-6.354-20.163-8.463l-20.46-4.825c-7.895-1.845-13.057-3.452-15.488-4.824-2.234-1.214-3.802-2.799-4.717-4.747l-.001.003c-.007-.014-.012-.027-.019-.041v-.001c-.608-1.332-.957-2.886-.957-4.556 0-3.572 1.227-6.611 3.764-8.999 0-.003.001-.007.001-.007.055-.054.112-.104.167-.154l.001-.001c.002-.01.004-.012.007-.006.554-.504 1.162-.98 1.834-1.423 3.838-2.531 8.974-3.796 15.407-3.796 5.783 0 10.621.977 14.514 2.926 5.839 2.954 8.973 7.937 9.406 14.949h23.411c-.428-12.391-5.031-21.842-13.812-28.355-8.782-6.512-19.391-9.768-31.826-9.768-14.893 0-26.183 3.454-33.87 10.361-4.726 4.248-7.992 9.165-9.813 14.746h-.009c-.391 1.202-.719 2.452-.977 3.714h-.002c-2.85 13.445-11.508 22.577-25.982 22.577-23.176 0-31.881-19.718-31.881-39.274 0-20.536 8.705-40.249 31.881-40.249 12.81 0 23.988 8.869 25.629 20.534h24.979c-3.124-27.11-24.814-42.229-50.607-42.229-34.633 0-55.648 24.664-57.524 57.156v-54.36h-25.802v72.955c0 17.417-5.914 25.468-24.317 25.468-20.869 0-24.155-12.652-24.155-25.468v-72.955h-25.796v72.955c0 31.877 18.399 47.158 49.951 47.158 31.388 0 50.118-15.443 50.118-47.158v-9.147c1.876 31.644 22.891 56.306 57.524 56.306 14.23 0 26.365-4.59 35.314-12.768.555.446 1.124.881 1.724 1.292 4.641 3.217 13.162 6.196 25.567 8.938l12.622 2.769c7.388 1.582 12.783 3.401 16.188 5.457 3.4 2.109 5.102 5.09 5.102 8.938 0 6.593-3.472 11.101-10.417 13.525-3.661 1.266-8.427 1.898-14.295 1.898-9.798 0-16.717-2.399-20.755-7.198-2.206-2.636-3.688-6.616-4.441-11.942h-23.253c0 12.129 4.396 21.659 13.189 28.592 8.795 6.935 20.866 10.401 36.216 10.401 15.029 0 26.66-3.52 34.895-10.56 7.573-6.474 11.654-14.48 12.263-24.01v32.818h25.799v-48.477h49.129v-20.046h-49.129v-27.115z" fill-rule="nonzero" transform="translate(-2.5 -2.595)"/></svg>