<svg clip-rule="evenodd" fill-rule="evenodd" stroke-linejoin="round" stroke-miterlimit="2" viewBox="0 0 132 31" xmlns="http://www.w3.org/2000/svg"><g fill-rule="nonzero"><g transform="translate(-3.344 29.87)"><path d="m16.133.806c-2.551 0-4.787-.447-6.707-1.34s-3.414-2.152-4.481-3.776c-1.068-1.625-1.601-3.539-1.601-5.741v-19.013h8.54v18.167c0 1.007.164 1.863.493 2.568s.809 1.243 1.44 1.612 1.41.554 2.337.554c.926 0 1.708-.185 2.346-.554s1.118-.907 1.44-1.612.484-1.561.484-2.568v-18.167h8.54v19.013c0 2.189-.531 4.096-1.592 5.721-1.06 1.624-2.551 2.887-4.471 3.786-1.92.9-4.176 1.35-6.768 1.35z"/><path d="m32.065 0v-29.064h6.627l13.273 17.442-6.103-3.021h4.21v-14.421h8.057v29.064h-6.566l-13.334-17.684 6.103 3.041h-4.21v14.643z"/><path d="m65.178-7.936v-6.304h6.687c1.41 0 2.515-.353 3.314-1.058.798-.705 1.198-1.749 1.198-3.132v-.04c0-1.396-.4-2.44-1.198-3.132-.799-.691-1.904-1.037-3.314-1.037h-6.687v-6.425h8.722c2.269 0 4.233.436 5.891 1.309s2.941 2.101 3.847 3.686c.906 1.584 1.36 3.451 1.36 5.599v.04c0 2.149-.454 4.009-1.36 5.58s-2.189 2.783-3.847 3.635c-1.658.853-3.622 1.279-5.891 1.279zm-4.27 7.936v-29.064h8.54v29.064z"/><path d="m92.913-7.13-.241-9.95h1.007l8.741-11.984h8.963l-9.93 13.394-5.539 4.512zm-8.177 7.13v-29.064h8.54v29.064zm17.181 0-6.667-11.199 6.244-5.478 10.332 16.677z"/></g><path d="m16.577.806c-2.31 0-4.371-.346-6.184-1.038-1.813-.691-3.35-1.698-4.612-3.021-1.263-1.323-2.226-2.934-2.891-4.834-.664-1.9-.997-4.052-.997-6.455v-.041c0-3.168.581-5.894 1.743-8.177 1.161-2.283 2.819-4.038 4.975-5.267 2.155-1.229 4.723-1.843 7.704-1.843 2.43 0 4.615.443 6.556 1.329 1.94.887 3.511 2.105 4.713 3.656s1.903 3.34 2.105 5.368l.02.201h-8.399l-.04-.181c-.215-1.021-.786-1.843-1.713-2.467-.926-.625-2.007-.937-3.242-.937-1.209 0-2.239.326-3.092.977s-1.504 1.588-1.954 2.81-.675 2.692-.675 4.411v.04c0 1.316.145 2.497.434 3.545.288 1.047.704 1.94 1.248 2.679.544.738 1.195 1.302 1.954 1.692.759.389 1.608.584 2.548.584.926 0 1.752-.161 2.477-.484.725-.322 1.306-.782 1.743-1.379.436-.598.695-1.293.775-2.085l.04-.403h-4.431v-5.68h12.649v3.827c0 2.068-.302 3.914-.906 5.539s-1.487 3.004-2.649 4.139c-1.161 1.135-2.575 2.001-4.24 2.598-1.665.598-3.551.897-5.659.897z" transform="translate(101.614 29.87)"/></g></svg>