<?xml version="1.0" encoding="UTF-8" standalone="no"?>
<!DOCTYPE svg PUBLIC "-//W3C//DTD SVG 1.1//EN" "http://www.w3.org/Graphics/SVG/1.1/DTD/svg11.dtd">
<svg width="100%" height="100%" viewBox="0 0 92 30" version="1.1" xmlns="http://www.w3.org/2000/svg" xmlns:xlink="http://www.w3.org/1999/xlink" xml:space="preserve" xmlns:serif="http://www.serif.com/" style="fill-rule:evenodd;clip-rule:evenodd;stroke-linejoin:round;stroke-miterlimit:2;">
    <path d="M3.73,24.105C1.678,24.105 0,22.436 0,20.396L0,5.561C0,3.521 1.678,1.852 3.73,1.852C5.781,1.852 7.46,3.521 7.46,5.561L7.46,20.396C7.46,22.436 5.781,24.105 3.73,24.105M13.042,29.661C10.99,29.661 9.312,27.992 9.312,25.952L9.312,11.116C9.312,9.076 10.99,7.407 13.042,7.407C15.093,7.407 16.772,9.076 16.772,11.116L16.772,25.952C16.772,27.992 15.093,29.661 13.042,29.661M22.353,22.254C20.302,22.254 18.623,20.584 18.623,18.545L18.623,3.709C18.623,1.669 20.302,0 22.353,0C24.405,0 26.083,1.669 26.083,3.709L26.083,18.545C26.083,20.584 24.405,22.254 22.353,22.254M33.522,9.259L33.698,9.259C34.898,9.259 35.942,10.073 36.228,11.231L37.396,15.965C37.66,16.998 37.906,17.961 38.082,18.976L38.118,18.976C38.294,17.978 38.523,17.015 38.787,15.982L40.114,10.286C40.254,9.685 40.793,9.259 41.414,9.259C42.031,9.259 42.568,9.681 42.711,10.278L44.087,16.017C44.368,17.12 44.579,17.891 44.773,18.976L44.808,18.976C45.002,17.856 45.196,17.173 45.442,16.07L46.588,11.253C46.866,10.084 47.915,9.259 49.122,9.259L45.689,22.215L43.769,22.215L41.428,12.288L41.393,12.288L38.928,22.215L36.991,22.215L33.522,9.259ZM54.989,16.885C54.865,15.467 54.161,14.714 52.858,14.714C51.802,14.714 50.833,15.309 50.622,16.885L54.989,16.885ZM48.421,17.795C48.421,14.259 50.939,12.963 52.876,12.963C54.971,12.963 56.978,14.206 56.978,17.988L56.978,18.495L50.587,18.495C50.675,20.176 51.714,20.911 53.087,20.911C53.781,20.911 54.309,20.78 54.765,20.54C55.424,20.193 56.24,20.344 56.771,20.865L56.855,20.946C55.887,22.014 54.601,22.627 52.928,22.627C50.587,22.627 48.421,21.209 48.421,17.795ZM62.707,15.387C64.644,15.387 65.525,14.792 65.525,13.304C65.525,11.868 64.644,11.255 62.69,11.255L61.406,11.255L61.406,15.387L62.707,15.387ZM59.223,9.259L62.672,9.259C65.489,9.259 67.69,10.24 67.69,13.234C67.69,16.367 65.278,17.295 62.602,17.295L61.406,17.295L61.406,22.215L59.223,22.215L59.223,9.259ZM68.907,9.259L71.09,9.259L71.09,22.215C69.884,22.215 68.907,21.243 68.907,20.044L68.907,9.259ZM79.096,19.844L79.096,17.795C76.508,18.145 75.135,18.775 75.135,19.791C75.135,20.526 75.645,20.911 76.437,20.911C77.547,20.911 78.409,20.491 79.096,19.844M73.004,20.194C73.004,18.18 74.73,16.832 79.096,16.342L79.096,16.062C79.096,15.134 78.603,14.731 77.564,14.731C76.783,14.731 76.089,14.958 75.489,15.276C74.827,15.626 74.013,15.482 73.553,14.895L73.356,14.644C74.36,13.733 75.927,12.963 77.863,12.963C80.364,12.963 81.227,14.153 81.227,16.324L81.227,20.159C81.227,21.279 81.297,21.962 81.491,22.435L79.307,22.435C79.184,22.049 79.096,21.769 79.096,21.244C78.145,22.207 77.036,22.575 75.645,22.575C74.131,22.575 73.004,21.734 73.004,20.194M83.433,13.138L85.616,13.138L85.616,14.399C86.215,13.768 87.342,12.963 89.032,12.963C90.67,12.963 91.726,13.926 91.726,15.764L91.726,22.435L89.543,22.435L89.543,16.307C89.543,15.274 89.102,14.801 88.152,14.801C87.201,14.801 86.409,15.291 85.616,16.009L85.616,22.435L83.433,22.435L83.433,13.138Z"/>
</svg>
