<svg clip-rule="evenodd" fill-rule="evenodd" stroke-linejoin="round" stroke-miterlimit="2" viewBox="0 0 1000 546" xmlns="http://www.w3.org/2000/svg"><g fill-rule="nonzero" transform="scale(11.3618)"><path d="m82.687 0h5.327l-11.986 35.847h-5.82l-7.598-23.477h5.295l5.228 16.507h.066zm-29.305 12.369h5.294l8.78 23.478h-5.36l-1.776-5.227h-8.78l-1.84 5.227h-5.195zm-20.888 0v8.55h.066c.556-.865 1.365-1.538 2.318-1.925.963-.403 1.997-.609 3.041-.608.856 0 1.7.176 2.533.527.833.35 1.583.887 2.252 1.61.669.724 1.211 1.65 1.628 2.78.416 1.129.625 2.471.625 4.028 0 1.556-.209 2.9-.625 4.028-.417 1.13-.96 2.055-1.628 2.778-.604.67-1.342 1.207-2.166 1.575s-1.716.56-2.619.563c-1.249 0-2.367-.197-3.354-.592-.964-.375-1.759-1.088-2.236-2.006h-.066v2.17h-4.438v-23.477zm23.453 5.787-3.058 8.616h6.083l-2.96-8.616zm-19.639 14.634c.701 0 1.3-.148 1.792-.444.498-.3.92-.71 1.234-1.2.329-.504.57-1.085.723-1.743.154-.669.231-1.353.23-2.039.003-.696-.075-1.391-.23-2.07-.137-.619-.382-1.21-.723-1.744-.314-.49-.736-.9-1.234-1.2-.493-.296-1.09-.444-1.792-.444-.68 0-1.271.148-1.775.444-.505.297-.933.708-1.25 1.2-.341.534-.586 1.124-.723 1.743-.156.679-.233 1.374-.23 2.071 0 .703.076 1.381.23 2.04.153.657.394 1.238.723 1.742.33.505.745.904 1.25 1.2.504.296 1.095.444 1.775.444z"/><path d="m20.183 17.328-3.217 4.825-3.252-4.825h-5.79l6.076 8.756-14 21.916h5.683l11.212-18.02 3.86 5.826h5.79l-6.827-9.829 6.077-8.65z"/></g></svg>