<?xml version="1.0" encoding="UTF-8"?>
<svg viewBox="0 0 127.77481 50.2544863" version="1.1" xmlns="http://www.w3.org/2000/svg" xmlns:xlink="http://www.w3.org/1999/xlink">
    <title>Combined Shape</title>
    <g id="Page-1" stroke="none" stroke-width="1" fill="none" fill-rule="evenodd">
        <path d="M9.6026348,0 C45.9025404,0.00208727134 82.2024461,0.00139151423 118.502583,0.00417454269 C120.010064,0.00417454269 121.461866,0.310075754 122.815248,0.984032479 C124.442635,1.7943576 125.721625,2.99337902 126.608093,4.59431614 C127.393138,6.01226914 127.776189,7.52948349 127.774806,9.15871473 C127.766254,19.8933193 127.776882,30.6281558 127.764406,41.3627604 C127.762096,43.5469739 127.012629,45.4844256 125.593865,47.1352253 C124.131204,48.8370472 122.257538,49.8182967 120.047491,50.1564346 C119.648037,50.2176612 119.246735,50.2544863 118.841737,50.2538406 C100.517933,50.2529129 82.1941289,50.2529129 63.8703249,50.2529129 C45.5465208,50.2529129 27.2229478,50.2603343 8.89914378,50.2429404 C6.72559911,50.2408531 4.78424113,49.4834056 3.12589678,48.0508417 C1.40170844,46.5614576 0.435303536,44.6597215 0.104235347,42.415441 C0.0427809594,41.9977548 0.00327456715,41.5800686 0.00350559868,41.1565844 C0.00604694555,30.4382142 -0.0135907348,19.719612 0.0194467745,9.00124171 C0.0275328782,6.33510044 1.06994716,4.05974276 3.06952509,2.27327041 C4.46957618,1.02253104 6.1320791,0.337210281 7.98402787,0.0960144818 C8.52186928,0.0259749323 9.06040379,0 9.6026348,0 Z M118.618561,3.85883954 C82.5027871,3.85883954 46.3870136,3.85883954 10.271009,3.86006047 C9.68996472,3.86006047 9.10938248,3.85449441 8.52741404,3.89508025 C7.33020863,3.9785711 6.30027006,4.43962615 5.44083275,5.25690884 C4.36630508,6.27874412 3.84602207,7.55406691 3.84602207,9.04391481 L3.84602207,41.2250005 C3.84602207,41.501448 3.85410817,41.776504 3.90123861,42.0492408 C4.22029316,43.8964759 5.21765629,45.2228209 6.92382417,45.9992859 C7.66913189,46.3381196 8.45949077,46.405608 9.26833217,46.4053761 C27.4717688,46.4012015 45.6752054,46.4021292 63.878642,46.4021292 L118.004017,46.4012015 C118.528227,46.4009696 119.053824,46.4306553 119.57711,46.354122 C121.231989,46.1122304 122.462925,45.2515789 123.304573,43.8097382 C123.829477,42.91082 123.971748,41.9267875 123.971748,40.9068076 C123.971748,30.9182866 123.971748,20.9295336 123.968789,10.9407806 C123.968558,10.1708094 123.98704,9.40130205 123.934365,8.63040317 C123.831325,7.12478477 123.179585,5.91555891 122.029048,4.97002499 C121.03954,4.15668492 119.875372,3.85883954 118.618561,3.85883954 Z M65.9296476,9.15850601 C67.610171,9.15781025 69.2918495,9.15804217 70.9709867,9.21532617 C72.1543302,9.25568008 73.3489943,9.21903688 74.5150104,9.49246942 C76.2010785,9.8881233 77.7372072,10.5885188 79.0559352,11.7386053 C80.0315814,12.5895163 80.6558286,13.6598226 81.0444236,14.8797168 C81.6388678,16.7457373 81.7275839,18.6351817 81.2659829,20.5424839 C80.8258678,22.3609611 79.728468,23.6896253 78.1805567,24.6773684 C78.050948,24.7599316 77.9171808,24.8378564 77.7975064,24.9334071 C77.6270052,25.0697755 77.6200742,25.2330465 77.7637758,25.3960855 C77.8725917,25.5192346 78.013983,25.5990147 78.1505226,25.6864482 C79.7448712,26.7064281 80.8461986,28.1081468 81.4018294,29.9301027 C81.523352,30.3287716 81.5466862,30.7439066 81.5808788,31.1550991 C81.6781431,32.329769 81.6910809,33.5035113 81.4819973,34.670064 C81.2458831,35.9882918 80.6724628,37.1397699 79.8012429,38.1525603 C79.0499284,39.0257355 78.2237596,39.8040558 77.1878142,40.3272651 C76.1996923,40.826123 75.1734503,41.2238641 74.0584921,41.2939037 C72.226181,41.4089355 70.3906355,41.3284596 68.5564761,41.3437663 C66.9722929,41.3569857 65.3869545,41.315936 63.8036954,41.3579133 C61.8237552,41.410559 59.8440459,41.3836564 57.8645678,41.3804095 C57.229,41.3792499 56.5871944,41.3908458 55.9548611,41.2934398 C55.3010419,41.1930189 54.7253113,40.9469528 54.3741433,40.33631 C54.1784596,39.9963167 54.1458842,39.6129545 54.0881263,39.2370137 C53.9587486,38.3928284 53.9705313,37.5386706 53.9502005,36.689615 C53.8596361,32.9014495 53.9000666,29.1123562 53.895446,25.3237268 C53.895446,22.4187089 53.8852806,19.513923 53.8998356,16.6089051 C53.9069976,15.1661368 53.953666,13.7231365 53.9968688,12.280832 C54.0081894,11.9014125 54.0707989,11.5231525 54.1144639,11.1448926 C54.2736446,9.768685 55.389758,9.22715404 56.4016761,9.20048335 C59.5774355,9.11629674 62.7536571,9.15989752 65.9296476,9.15850601 Z M112.648059,9.00495241 C113.177583,9.00379282 113.435183,9.23362458 113.462214,9.78582381 C113.532679,11.2197792 113.540072,12.6551262 113.458055,14.0888496 C113.431487,14.5524558 113.188904,14.7676767 112.726841,14.8071029 C112.662383,14.812669 112.597463,14.8115094 112.533005,14.812437 C109.171265,14.8667061 105.809063,14.8347013 102.447555,14.8729679 C101.179422,14.8875788 99.9096732,14.8646188 98.6431583,14.9216709 C97.6596571,14.9661994 96.6731524,14.9165687 95.6919615,15.0436603 C94.3644543,15.2157443 93.504786,15.9977752 92.9722583,17.1647918 C92.545081,18.1012809 92.4919437,19.0869368 92.8941696,20.0510243 C93.3844185,21.226158 94.2547143,21.9353665 95.5369393,22.1009567 C96.2991124,22.1992903 97.0649819,22.2305994 97.8317755,22.2479933 C100.175244,22.3006389 102.518886,22.3073066 104.862585,22.3037699 L109.550027,22.29369 C110.331268,22.2932755 111.112508,22.2943771 111.893741,22.2983198 C112.120152,22.2994794 112.34587,22.2966963 112.569046,22.3484143 C112.883018,22.4212368 113.067843,22.6049167 113.116591,22.9214862 C113.143621,23.0972808 113.163259,23.2758585 113.163952,23.4535085 C113.168342,24.5163934 113.166725,25.5792784 113.165107,26.6421633 C113.164876,26.763457 113.161411,26.8861422 113.143853,27.0058124 C113.059295,27.582595 112.854601,27.768826 112.269629,27.8047735 C112.140714,27.8126587 112.011105,27.808948 111.881727,27.808948 C107.322782,27.8103395 102.764068,27.8010628 98.2053535,27.8217036 C97.2955514,27.8258781 96.37697,27.8087161 95.4747918,27.9645657 C94.4088123,28.1484775 93.5225754,28.6334202 92.9713341,29.6149016 C92.7537024,30.0019744 92.6421142,30.4245309 92.5808908,30.8612345 C92.4304893,31.9336281 92.6240937,32.9169648 93.2829957,33.8033594 C93.8899155,34.6201783 94.6865122,35.0200067 95.6896512,35.1120785 C97.3424508,35.2637536 98.9973296,35.2523895 100.652902,35.2535491 C102.08368,35.2544768 103.514227,35.2537811 104.945005,35.2537811 C107.232449,35.2537811 109.519892,35.2561003 111.807566,35.25123 C112.131703,35.2505342 112.453068,35.2758134 112.774895,35.3010925 C113.1792,35.3326335 113.438418,35.5835699 113.458517,35.9878048 C113.535451,37.5354006 113.535451,39.083924 113.457362,40.6315197 C113.437494,41.0248544 113.254286,41.2145642 112.875163,41.3061722 C112.723606,41.3428154 112.570894,41.3455984 112.417258,41.3435112 C110.518641,41.3166086 108.619331,41.3173043 106.721407,41.2795015 C104.935302,41.243786 103.149428,41.2836761 101.364479,41.2363646 C100.047599,41.2015767 98.7293331,41.2426264 97.4145326,41.1860381 C96.0452087,41.1271307 94.6615608,41.1591355 93.3164953,40.8518428 C91.4585397,40.4269671 89.8029677,39.5876521 88.4754605,38.1905718 C87.5751306,37.2431826 87.0176515,36.0917045 86.720545,34.8207882 C86.3636012,33.2931375 86.3335671,31.7511078 86.6170428,30.209542 C86.8596259,28.8894588 87.4815628,27.7583897 88.3973718,26.7854893 C88.8769933,26.2761951 89.4032831,25.8241849 89.988717,25.4415185 C90.0626471,25.3932793 90.1328807,25.3359953 90.1947972,25.2729133 C90.3592916,25.1052359 90.3588296,24.9572715 90.1952592,24.786811 C90.0367716,24.6214528 89.8371604,24.5108274 89.6502558,24.3837357 C87.8985747,23.1937592 86.9342491,21.4977352 86.5978672,19.4420049 C86.2642577,17.4022769 86.5495816,15.4281821 87.468394,13.5705106 C88.1501681,12.1926796 89.2131442,11.1692209 90.5478133,10.4273119 C91.6685473,9.80460926 92.8572046,9.37231217 94.1345779,9.22620317 C94.8235139,9.1473507 95.5170706,9.07661539 96.2097032,9.06385985 C101.688616,8.96367082 107.168453,9.0170122 112.648059,9.00495241 Z M27.5570887,26.9938918 C28.2439455,27.6826913 28.8277622,28.4610116 29.4483129,29.207559 C29.6809616,29.4874853 29.9082967,29.7725137 30.1243111,30.0656594 C30.4329693,30.4842733 30.4466001,30.805945 30.1390972,31.2245588 C29.6259761,31.9226352 29.0500145,32.5701531 28.4888389,33.229267 C27.6233948,34.2455362 26.7542542,35.2585586 25.8832653,36.2699575 C25.0966029,37.1830228 24.3046268,38.0916816 23.5161162,39.0033553 C23.1404589,39.4377397 22.7463191,39.8582089 22.3988477,40.3143936 C21.9490293,40.9048595 21.3783814,41.1690153 20.642546,41.1495341 L19.8428517,41.1389002 L18.2425904,41.1448957 C17.4910448,41.1448957 16.7394992,41.1493022 15.9879536,41.1425765 C15.7139502,41.1402573 15.4390227,41.1223996 15.1666365,41.0929458 C14.7362248,41.046562 14.5705752,40.705873 14.8055343,40.3399047 C15.1742606,39.7652093 15.6508786,39.276324 16.0907627,38.7589126 C16.9917857,37.6988107 17.902974,36.6475217 18.8146245,35.5962327 C19.5458393,34.7529751 20.283754,33.9152835 21.0186653,33.0750409 C21.9187642,32.046248 22.8153975,31.0144402 23.719886,29.9893581 C24.4531801,29.1583921 25.1952534,28.3350796 25.9340922,27.5094478 C26.0960453,27.3285509 26.2515295,27.1404646 26.4273445,26.9741786 C26.8062363,26.6160956 27.1872072,26.6230532 27.5570887,26.9938918 Z M21.0741129,9.04869234 C21.8750992,9.04869234 22.4270335,9.30658631 22.9223651,9.91885257 C24.174325,11.4662164 25.4724912,12.9755455 26.7503266,14.5015728 C27.9089498,15.8849698 29.0631833,17.2720776 30.2231926,18.6540831 C31.5703375,20.2594267 32.9237202,21.8594362 34.270403,23.4652436 C35.2321873,24.6123152 36.1858855,25.7663443 37.1455905,26.9150393 C38.2764898,28.2687507 39.4110857,29.6192153 40.5422161,30.9729267 C41.8498546,32.5374525 43.1544897,34.1045295 44.4621281,35.6690553 C45.5156319,36.9293033 46.5723702,38.1867684 47.6251809,39.4477122 C47.8428126,39.7083892 48.0784647,39.9563106 48.2572831,40.2469052 C48.5645551,40.7466907 48.3887401,41.0572303 47.8053855,41.1066291 C47.1111357,41.1655365 46.4166549,41.1342274 45.7224052,41.1441999 C45.4234503,41.1483745 45.1242645,41.1448957 44.8253097,41.1448957 C44.0414197,41.1448957 43.2572987,41.1488383 42.4734087,41.1425765 C42.2236636,41.1404892 41.9732254,41.1200804 41.7248665,41.0917862 C41.2563346,41.0386768 40.9723968,40.7016984 40.6972383,40.3733011 C39.2990354,38.7051074 37.9077635,37.0311158 36.5146434,35.3585157 C35.4738463,34.1089359 34.4353596,32.857037 33.3929453,31.6086168 C32.0963963,30.0559188 30.7954577,28.5069316 29.4991398,26.9540017 C28.555376,25.8233964 27.6166949,24.6883846 26.6747793,23.5563878 C25.6499234,22.3248977 24.6222952,21.0957268 23.5988255,19.8628452 C22.4408954,18.468316 21.2855067,17.0716995 20.1308111,15.6743873 C19.001991,14.3081523 17.873633,12.9416853 16.7485095,11.5722034 C16.3479008,11.0844777 15.9569954,10.5886348 15.5635487,10.0948791 C15.5134149,10.0320291 15.470674,9.9617576 15.4332469,9.89055845 C15.1885845,9.42672037 15.3489204,9.08858242 15.8671242,9.04869234 L21.0741129,9.04869234 Z M60.1654108,27.474312 C59.8618354,27.4740801 59.6971099,27.6607749 59.6740067,27.9669081 C59.6679999,28.0478478 59.6698482,28.1290195 59.668924,28.2101911 C59.6451278,30.3023328 59.7179027,32.3937787 59.7248337,34.4856884 C59.7250647,34.5582791 59.7308405,34.6315655 59.7412369,34.7036923 C59.8181704,35.2296847 59.9528618,35.349123 60.4867757,35.3495868 C60.8246278,35.349882 61.1624875,35.3500928 61.5030016,35.3502402 L66.5023747,35.3502826 C68.1533261,35.3164224 70.2455477,35.3959706 72.3373072,35.3036668 C73.6301596,35.2466148 74.548741,34.609997 75.1875432,33.5313416 C75.6440615,32.7609065 75.7274639,31.9102275 75.677099,31.0210499 C75.5770624,29.261944 74.1693872,27.7762706 72.4204785,27.6709794 C71.0185792,27.5867928 69.6148316,27.5394813 68.2106219,27.5213916 C67.2492997,27.508868 66.2875154,27.517449 65.3261932,27.5148979 C64.8010585,27.5137383 64.2747687,27.528813 63.7507892,27.5026062 C62.5558941,27.4427711 61.3605369,27.4747759 60.1654108,27.474312 Z M43.8736249,8.9607684 L44.3424307,8.96327656 C45.5054434,8.96327656 46.6684562,8.96118929 47.8314689,8.96559575 C47.9918048,8.96629151 48.1537579,8.99017917 48.3124766,9.0173137 C48.740578,9.09036819 48.8979105,9.4510023 48.6846684,9.83065376 C48.4936053,10.1713428 48.2207571,10.4531245 47.9696258,10.7488212 C47.1108816,11.7599882 46.2484409,12.7679084 45.3825347,13.7730455 C44.5854759,14.6986344 43.7821792,15.6188891 42.981655,16.541695 C42.1497104,17.501144 41.3179969,18.460825 40.4858213,19.4200422 C39.6855281,20.342848 38.8843107,21.2649581 38.0842485,22.187764 C37.8245691,22.4874033 37.5671999,22.7888981 37.3077515,23.0885375 C37.2442178,23.1618239 37.1825324,23.2378934 37.1106816,23.3023668 C36.7394139,23.6344749 36.4058044,23.6435198 36.0738121,23.2747685 C35.5329673,22.6738663 35.0168428,22.050004 34.4970219,21.4303164 C34.1747329,21.0460265 33.8561404,20.6577941 33.5504857,20.2600529 C33.0655505,19.6285374 33.0565403,19.2848334 33.5576477,18.6772055 C34.278235,17.8035665 35.0207704,16.948249 35.7591471,16.0896848 C36.7826168,14.8999401 37.8083969,13.7122827 38.8378734,12.5281041 C39.7294241,11.5023262 40.6327574,10.4867527 41.5203805,9.45749603 C41.9041239,9.0124434 42.417707,8.98298968 42.9363728,8.96652343 C43.2485734,8.9564736 43.561082,8.95838049 43.8736249,8.9607684 Z M65.76446,14.8604675 C65.1261199,14.8549014 64.4875487,14.8514226 63.8492086,14.8555972 C62.7266264,14.8630186 61.6035821,14.8349564 60.481693,14.9052279 C60.0371883,14.9328262 59.8091602,15.0930823 59.7361542,15.4847935 C59.705196,15.6515433 59.6786274,15.8222357 59.6779343,15.9913047 C59.6746998,16.9885566 59.6079317,17.9844169 59.6252591,18.9823645 C59.6388899,19.7690339 59.6296487,20.5561671 59.6268763,21.3430684 C59.6261832,21.5626958 59.6448968,21.7795401 59.668693,21.997544 C59.6950306,22.2385078 59.8246393,22.3781231 60.0455054,22.4516414 C60.1792727,22.4961699 60.3162744,22.4947784 60.4532761,22.492923 C62.0524764,22.4718184 63.6516766,22.5131 65.25157,22.4562798 C66.8010985,22.4010831 68.3529373,22.4676438 69.903852,22.4064172 C70.7182382,22.3741805 71.5351657,22.389951 72.3495518,22.344031 C73.6521076,22.2707446 74.6319124,21.6617252 75.2092602,20.484968 C75.6759439,19.533868 75.6174929,18.5247883 75.3307828,17.5382047 C74.9544324,16.2429369 74.1134776,15.4080283 72.775805,15.1146507 C71.911054,14.9247091 71.0296687,14.8880658 70.1522109,14.8690485 C68.6902434,14.8375075 67.2271207,14.8604675 65.76446,14.8604675 Z" id="Combined-Shape" fill="#000000"></path>
    </g>
</svg>