<svg clip-rule="evenodd" fill-rule="evenodd" stroke-linejoin="round" stroke-miterlimit="2" viewBox="0 0 232 49" xmlns="http://www.w3.org/2000/svg"><g fill-rule="nonzero" transform="translate(-8 -39.5)"><path d="m22 88.5h28l14-24.5-14-24.5z"/><path d="m8 64 14-24.5 14 24.5-14 24.5z"/><path d="m22 39.5 14 24.5 14-24.5z"/><path d="m238.55 80.65-16.9-23.5h-.1v23.5h-1v-25h1.4l16.9 23.55h.1v-23.5h1.05v25zm-25.25 0-2.8-7h-14.25l-3 7h-1.1l10.8-25h1.05l10.5 25zm-9.8-23.85-6.8 15.95h13.4zm-18.4 23.85v-25h1v25zm-9 0-7.25-12.35h-5.65v12.35h-1.05v-25h6.7c1 0 1.983.133 2.95.4.967.167 1.833.5 2.6 1s1.367 1.167 1.8 2c.5.8.75 1.8.75 3 0 1.1-.217 2.033-.65 2.8-.367.767-.9 1.4-1.6 1.9-.633.467-1.367.833-2.2 1.1-.833.233-1.667.367-2.5.4l7.3 12.4zm-.25-18.55c0-1.033-.2-1.9-.6-2.6s-.933-1.267-1.6-1.7c-.633-.4-1.383-.683-2.25-.85-.867-.2-1.783-.3-2.75-.3h-5.45v10.7h5.75c2.233 0 3.95-.45 5.15-1.35 1.167-.9 1.75-2.2 1.75-3.9zm-21.5 6c0 1.933-.317 3.717-.95 5.35-.6 1.6-1.483 3-2.65 4.2-1.133 1.133-2.5 2.033-4.1 2.7-1.567.667-3.317 1-5.25 1-1.867 0-3.6-.333-5.2-1-1.567-.667-2.933-1.567-4.1-2.7-1.133-1.2-2.017-2.6-2.65-4.2-.633-1.633-.95-3.4-.95-5.3 0-1.933.333-3.7 1-5.3.6-1.633 1.467-3.033 2.6-4.2 1.167-1.133 2.533-2.017 4.1-2.65 1.6-.667 3.333-1 5.2-1 1.933 0 3.683.333 5.25 1 1.6.633 2.967 1.517 4.1 2.65 1.167 1.167 2.05 2.567 2.65 4.2.667 1.6 1 3.367 1 5.3zm-1 0c0-1.667-.283-3.233-.85-4.7-.533-1.5-1.333-2.783-2.4-3.85-1-1.1-2.25-1.967-3.75-2.6-1.467-.667-3.117-1-4.95-1s-3.483.333-4.95 1-2.717 1.533-3.75 2.6c-1 1.067-1.783 2.35-2.35 3.85-.533 1.5-.8 3.083-.8 4.75s.267 3.25.8 4.75c.567 1.467 1.35 2.75 2.35 3.85 1.033 1.133 2.283 2.017 3.75 2.65 1.467.667 3.133 1 5 1 1.8 0 3.433-.333 4.9-1 1.467-.633 2.717-1.517 3.75-2.65 1.067-1.1 1.867-2.383 2.4-3.85.533-1.5.8-3.083.8-4.75zm-36-11.45v24h-1v-24h-8.5v-1h17.9v1zm-12.25 18c0 1.067-.2 2.017-.6 2.85-.433.833-1 1.533-1.7 2.1-.667.567-1.467 1-2.4 1.3-.9.3-1.85.45-2.85.45-1.533 0-2.95-.283-4.25-.85-1.267-.533-2.317-1.3-3.15-2.3l.8-.7c.833.933 1.817 1.633 2.95 2.1s2.333.7 3.6.7c.867 0 1.7-.1 2.5-.3.8-.267 1.483-.633 2.05-1.1.6-.5 1.083-1.1 1.45-1.8s.55-1.517.55-2.45c0-.967-.183-1.767-.55-2.4-.333-.667-.833-1.217-1.5-1.65-.6-.433-1.3-.8-2.1-1.1-.767-.333-1.55-.617-2.35-.85l-2.8-1c-.833-.333-1.567-.767-2.2-1.3-.6-.533-1.083-1.167-1.45-1.9-.333-.733-.5-1.633-.5-2.7s.2-2.017.6-2.85c.433-.833 1-1.533 1.7-2.1.667-.567 1.483-1 2.45-1.3.9-.333 1.867-.5 2.9-.5 1.333 0 2.567.267 3.7.8 1.133.467 2.05 1.15 2.75 2.05l-.85.75c-.633-.833-1.433-1.467-2.4-1.9-1-.433-2.083-.65-3.25-.65-.833 0-1.65.117-2.45.35-.767.233-1.45.583-2.05 1.05-.6.5-1.1 1.1-1.5 1.8-.367.7-.55 1.517-.55 2.45s.167 1.717.5 2.35c.333.667.783 1.217 1.35 1.65s1.217.817 1.95 1.15l2.2.75c1.033.333 2 .7 2.9 1.1.933.333 1.733.783 2.4 1.35.667.5 1.2 1.117 1.6 1.85.367.733.55 1.633.55 2.7zm-25.4-8.85v14.85h-1.05v-14.85l-11.7-19.15h1.25l11 18.05 10.95-18h1.2z"/></g></svg>