<svg width="547" height="694" xmlns="http://www.w3.org/2000/svg"><g fill="none" fill-rule="evenodd"><path fill="#FFF" d="M13 33.2481769L193.645161 0.5 517 80.5930954 517 174.5 546.5 182.911689 517 250.5 517 619.477905 193.667582 678.5 160.854544 673.506652 162.804587 693.5 -9.0957515e-13 693.5 0 161.850597 13 166.301707z"/><path d="M455.489 332.5l1.511-3.56a7.08 7.08 0 0 0-3.462-3.248c-1.432-.55-3.215.183-4.463.915a4.284 4.284 0 0 0-1.757 1.903L446 331.191a12.322 12.322 0 0 1 9.489 1.309zm-64.374 156.342l-50.147 108.154-63.533-19.111c-5.06 3.363-9.904 6.412-14.435 9.056l84.774 25.559L410 478.5a76.454 76.454 0 0 1-12.537 5.738c-.743.288-2.99 1.942-6.348 4.604zM154 325.5c.162.456.325.894.478 1.377 7.527 21.454 14.027 40.04 21.32 50.749a49.735 49.735 0 0 1 3.606 6.874L195 353.918c-8.591 2.119-27.54-14.133-41-28.418zm192.028-23.513a.82.82 0 0 0 .143-.198l1.013-2.006a.903.903 0 0 0-.802-1.306.898.898 0 0 0-.802.496l-.538 1.062a13.225 13.225 0 0 0-2.043-3.086 121.969 121.969 0 0 1-10.751-12.26l-.153-.189L235 477.5c9.703-2.968 20.195-5.793 30.534-8.563 18.753-5.038 36.466-9.796 47.764-14.95 10.43-4.759 27.506-15.418 43.508-27.166 16.988-12.458 28.787-23.162 31.574-28.65.959-1.88 1.917-3.921 2.93-6.089 2.876-6.162 6.137-13.142 10.357-17.99a40.181 40.181 0 0 1 3.333-4.075c-39.02-16.173-52.064-53.701-58.972-68.03z"/><path d="M159.16201 132.035396L287.455669 171.5 293 160.60645 292.963998 160.615364 164.850349 120.5 159 132.04431z"/><path d="M45.39 126.831l120.035-6.884 127.926 40.496 109.735-19.366 1.572.486L517 174.5V80.593L193.645.5 13 33.248v133.054c1.905.783 3.766 1.584 5.6 2.394l26.79-41.865z" fill="#F37A78" fill-rule="nonzero"/><path d="M499.2 333.752a10.563 10.563 0 0 1 4.197 7.356c.36 3.43-.496 6.879-2.417 9.744-1.132 1.419-5.301 4.948-9.327 8.361-1.68 1.428-3.28 2.784-4.492 3.844 2.695.36 9.56 1.976 11.68 9.26 1.645 5.729-.215 10.345-6.01 14.925.557 1.356 1.976 6.43-4.26 13.005a7.616 7.616 0 0 0 1.798 4.31c1.797 1.752 6.81 9.88-.414 17.693-.108.125-2.695 2.963.342 8.217 3.216 5.595-1.096 13.92-10.027 19.363-1.465.898-2.948 1.904-4.493 2.972-7.404 5.048-16.622 11.325-35.302 13.319-14.573 1.545-20.378 2.587-23.55 7.41-1.23 1.876-3.378 3.735-6.478 5.585L348.02 612.94l-85.087-25.56c-1.15.665-2.283 1.312-3.397 1.922a230.835 230.835 0 0 1-29.461 13.409c-10.9 4.275-19.516 7.651-27.854 14.89-7.35 6.412-14.439 9.618-21.204 9.618-5.796 0-11.357-2.362-16.64-7.085-1.141-1.015-3.72-3.521-7.377-7.185l3.855 60.558 32.813 4.993L517 619.478V250.5l-37.602 80.666c2.677-.521 13.558-2.254 19.803 2.586z" fill="#453B69" fill-rule="nonzero"/><path fill="#1580F2" fill-rule="nonzero" d="M420.84657 194.561947L431 197.5 425.711191 183.5 411 191.721239z"/><path d="M416.345 206.296c2.937.77 6.04-.698 7.24-3.425a4.5 4.5 0 0 0 0-3.776 4.62 4.62 0 0 0-2.931-2.372 5.886 5.886 0 0 0-1.588-.223c-2.45.013-4.671 1.44-5.651 3.63a4.506 4.506 0 0 0 0 3.777 4.582 4.582 0 0 0 2.93 2.389z" fill="#1580F2" fill-rule="nonzero"/><path fill="#1580F2" fill-rule="nonzero" d="M426 211.798246L403.873459 205.5 401 212.201754 423.117476 218.5 426 211.798246z"/><path d="M342.796 296.684a13.17 13.17 0 0 1 2.053 3.075l.54-1.058a.904.904 0 0 1 1.708.404.9.9 0 0 1-.096.403l-1.018 1.999a.818.818 0 0 1-.144.197c6.942 14.343 20.07 51.678 59.256 67.796a86.137 86.137 0 0 1 10.409-9.099c2.863-2.223 5.132-3.98 5.69-5.172.838-1.793 4.277-4.966 7.6-8.068 2.611-2.411 5.312-4.903 5.763-5.898 1.08-2.367 4.33-7.225 8.94-8.875l2.585-5.02a5.195 5.195 0 0 1 2.179-2.24c1.44-.78 3.538-1.578 5.321-.897a7.943 7.943 0 0 1 4.097 3.747 8.702 8.702 0 0 1 1.981 7.889c-.9 4.4-1.8 8.56-6.636 16.27-.522.824-1.008 1.613-1.44 2.429.107-.099.224-.18.342-.278.765-.646 1.8-1.47 3.034-2.349L530 191.625 398.73 153.5l-.46.09L332 284.466a121.89 121.89 0 0 0 10.796 12.218zm50.549-69.92l9.553-22.894a.905.905 0 0 1 1.09-.511l7.446 2.178c-.072-.135-.153-.27-.225-.412a6.528 6.528 0 0 1-.081-5.379 8.09 8.09 0 0 1 4.376-4.258l-7.14-2.089a.898.898 0 0 1-.64-.762.896.896 0 0 1 .45-.896l17.433-9.86a.904.904 0 0 1 1.287.466l6.303 16.843c.038.1.057.207.057.314 0 .49-.403.893-.894.896a1.27 1.27 0 0 1-.262 0l-7.446-2.187c.081.135.153.278.225.421a6.528 6.528 0 0 1 .081 5.379 8.091 8.091 0 0 1-4.394 4.249l7.159 2.098a.9.9 0 0 1 .576 1.2l-9.58 22.85a.901.901 0 0 1-.829.556.793.793 0 0 1-.252 0l-23.708-6.947a.899.899 0 0 1-.558-.475.892.892 0 0 1-.027-.798v.018zm-3.809 11.196a.902.902 0 0 1 1.126-.6l43.336 13.186c.37.12.62.465.62.851a.902.902 0 0 1-.88.897.91.91 0 0 1-.262 0l-43.337-13.16a.9.9 0 0 1-.603-1.192v.018zm-5.465 10.703a.901.901 0 0 1 1.134-.582l22.943 7.126a.91.91 0 0 1 .775.897.912.912 0 0 1-1.046.896.893.893 0 0 1-.27-.045l-22.942-7.171a.898.898 0 0 1-.594-1.139v.018zm-6.717-12.863l1.017-2a.902.902 0 0 1 1.732.345.892.892 0 0 1-.13.463l-1.017 1.999a.901.901 0 0 1-.801.493.907.907 0 0 1-.405-.099.898.898 0 0 1-.396-1.22v.019zm-5.646 11.097l1.882-3.702a.906.906 0 0 1 1.71.408.893.893 0 0 1-.098.408l-1.882 3.702a.901.901 0 0 1-.802.484.897.897 0 0 1-.81-1.318v.018zm-5.637 11.09l1.882-3.703a.902.902 0 0 1 1.732.344.892.892 0 0 1-.129.463l-1.864 3.702a.901.901 0 0 1-.801.493.838.838 0 0 1-.405-.099.896.896 0 0 1-.415-1.2zm-5.636 11.106l1.873-3.703a.904.904 0 0 1 1.708.404.9.9 0 0 1-.096.403l-1.882 3.702a.901.901 0 0 1-.802.493.9.9 0 0 1-.801-1.3zm-5.646 11.097l1.882-3.702a.907.907 0 0 1 1.207-.394.898.898 0 0 1 .405 1.21l-1.882 3.72a.901.901 0 0 1-.81.493.897.897 0 0 1-.801-1.327zm-5.636 11.107l1.882-3.702a.902.902 0 0 1 1.672.462.887.887 0 0 1-.07.344l-1.881 3.703a.901.901 0 0 1-.802.493.819.819 0 0 1-.405-.099.9.9 0 0 1-.396-1.201zM391 489.5c-4.588 3.592-11.267 9.142-19.23 15.716-24.95 20.601-63.833 52.689-94.77 73.2l63.697 19.084L391 489.5z" fill="#1580F2" fill-rule="nonzero"/><path fill="#1580F2" fill-rule="nonzero" d="M423 219.883715L401.250248 213.5 396 226.107394 417.749752 232.5z"/><path d="M195 354.5c3.321-2.366 34.075-24.627 45.901-47.84 11.592-22.693 71.156-55.004 77.402-44.378 0 0 3.744 9.898 13.302 22.396l.153.189L398 153.5l-110.856 18.076L195 354.5z" fill="#453B69" fill-rule="nonzero"/><path d="M195.618 354.312l.315-.216L288 171.296h-.126L159.647 131.5h-.162L109 232.053c10.054 11.042 18.426 25.644 25.63 41.415a.901.901 0 0 1 1.015-.207.904.904 0 0 1 .45 1.187l-.513 1.133c7.392 16.509 13.57 34.168 19.137 50.146 13.426 14.369 32.329 30.716 40.899 28.585zm-7.914-88.037a.901.901 0 0 1-.845.584.965.965 0 0 1-.315-.054l-31.393-11.572a.902.902 0 0 1-.59-.845.905.905 0 0 1 1.21-.845l31.394 11.572a.9.9 0 0 1 .53 1.16h.01zm-24.037-25.905c.252-2.697 3.354-4.702 6.942-4.37a7.199 7.199 0 0 1 5.189 2.698l.9-2.347a2.973 2.973 0 0 0-.9-3.363c-2.464-1.978-6.817-1.295-6.862-1.286a.916.916 0 0 1-1.06-.9c0-.443.326-.826.764-.898.216 0 5.188-.836 8.282 1.654a4.775 4.775 0 0 1 1.439 5.395l-3.813 10.16a.9.9 0 0 1-1.151.531.9.9 0 0 1-.53-1.16l.395-1.06a8.209 8.209 0 0 1-7.923-1.322 4.5 4.5 0 0 1-1.681-3.732h.009zm-22.005 21.805l-1.853 4.1a.9.9 0 0 1-1.196.45.903.903 0 0 1-.44-1.187l1.852-4.1a.9.9 0 0 1 .796-.48.904.904 0 0 1 .84 1.217zm1.951-26.894l14.973-18.064a.901.901 0 0 1 1.592.63l-.666 23.377c0 .494-.405.9-.9.9a.903.903 0 0 1-.898-.9l.197-7.121-8.372-3.138-4.56 5.494a.903.903 0 0 1-1.258.117.899.899 0 0 1-.117-1.313l.009.018zm3.066 15.798l-1.312 2.904a.9.9 0 0 1-1.196.45.903.903 0 0 1-.441-1.187l1.313-2.913a.9.9 0 0 1 1.636.746zm2.41 14.584a.91.91 0 0 1-.575-.845.913.913 0 0 1 1.241-.845l13.22 4.972a.9.9 0 0 1-.307 1.745h-.008a.758.758 0 0 1-.315-.063l-13.255-4.964z" fill="#1580F2" fill-rule="nonzero"/><path fill="#1580F2" fill-rule="nonzero" d="M158 220.5L150 229.754005 157.646778 232.5z"/><path d="M169.619 244.454c1.627.199 3.272-.25 4.495-1.228a1.11 1.11 0 0 1 .15-.092l.736-1.74a.849.849 0 0 1-.273-.345c-.49-1.312-2.347-2.355-4.495-2.523-2.667-.218-5.061.959-5.23 2.565-.029.829.392 1.621 1.13 2.127a6.547 6.547 0 0 0 3.487 1.236z" fill="#1580F2" fill-rule="nonzero"/><path d="M52.33 140.075L30 174.809a251.231 251.231 0 0 1 22.501 12.923l20.278-1.44c.02-.002.042-.002.063-.002.493 0 .898.404.898.896a.9.9 0 0 1-.836.894l-17.929 1.28c14.774 9.72 26.616 19.62 36.63 27.973 2.994 2.504 5.835 4.874 8.48 7.011a77.185 77.185 0 0 1 8.588 8.156L159 132.5l-106.67 7.575zm41.686 38.016l-49.305 3.506h-.063a.9.9 0 0 1-.9-.896.9.9 0 0 1 .837-.893l49.305-3.505a.9.9 0 0 1 .962.896.9.9 0 0 1-.836.892zm5.379-9.453l-49.305 3.506h-.063l-.032.001a.9.9 0 0 1-.897-.895.9.9 0 0 1 .866-.895l49.305-3.505c.02-.002.042-.002.063-.002.493 0 .898.404.898.896a.9.9 0 0 1-.835.894zm5.378-9.452l-49.305 3.505h-.062l-.032.001a.9.9 0 0 1-.897-.895.9.9 0 0 1 .866-.894l49.305-3.506c.02-.002.042-.002.063-.002.493 0 .898.405.898.896a.9.9 0 0 1-.836.895z" fill="#453B69" fill-rule="nonzero"/><path fill="#9EB1DB" fill-rule="nonzero" d="M292.543147 160.628889L287 171.491111 287.035994 171.5 287.161975 171.482222 398.042916 153.624444 404 141.98 402.425242 141.5 292.543147 160.628889z"/><path d="M159.152 132.13L165 120.5l-120.17 6.889L18 169.007c4.043 1.79 7.942 3.62 11.697 5.493l22.412-34.783 107.043-7.587z" fill="#9EB1DB" fill-rule="nonzero"/><path d="M105.041 156.502l-49.177 3.309c-.479.016-.864.392-.864.844 0 .463.404.845.895.845h.094l49.178-3.31c.466-.031.833-.402.833-.844 0-.464-.404-.846-.896-.846-.02 0-.042 0-.063.002zm-5.982 10.025l-49.195 3.284c-.479.016-.864.392-.864.844 0 .463.404.845.895.845h.094l49.178-3.31c.466-.031.833-.402.833-.844 0-.464-.404-.846-.896-.846-.02 0-.042 0-.063.002l.018.025zm-5.01 8.975l-49.214 3.31c-.467.029-.835.4-.835.842 0 .02 0 .04.003.06.033.442.427.787.895.786h.062l49.215-3.31c.484-.035.854-.437.823-.895-.027-.444-.422-.795-.893-.795-.019 0-.036 0-.055.002zM74 186.318a.886.886 0 0 0-.95-.815L53 186.913c.824.527 1.649 1.052 2.464 1.587l17.728-1.253a.884.884 0 0 0 .806-.93zM203 383.509l3.103.364c2.958-4.32 7.963-6.745 13.137-6.364 2.619.31 4.6 1.536 5.578 3.446a6.346 6.346 0 0 1 .134 5.172l3.184.373L240 364.473l-25.11-2.973L203 383.51zm14.142-12.49c1.63-2.699 4.628-4.245 7.739-3.992a4.177 4.177 0 0 1 3.354 2.11 4.069 4.069 0 0 1-.225 3.854 8.29 8.29 0 0 1-6.976 4.027 5.213 5.213 0 0 1-.754-.045 4.158 4.158 0 0 1-3.353-2.1 4.07 4.07 0 0 1 .215-3.855z" fill="#9EB1DB" fill-rule="nonzero"/><path d="M219.253 379.534c-4.324-.315-8.532 1.595-11.253 5.109l3.344.385 12.112 1.472a5.124 5.124 0 0 0 .111-4.359c-.711-1.424-2.245-2.357-4.314-2.607z" fill="#9EB1DB" fill-rule="nonzero"/><path d="M318.737 261.583c-6.282-10.615-65.645 21.66-77.176 44.328-11.828 23.188-42.491 45.424-45.767 47.788l-.314.216L180 384.662c2.89 6.381 6.021 14.91 8.507 21.705 1.705 4.656 3.177 8.665 4.012 10.435.395.828.46 1.778.18 2.651-1.024 3.218-3.85 10.903-8.338 14.03 2.414 5.887 4.801 13.203 4.918 19.324.08 4.557 3.688 10.902 7.18 17.077 3.302 5.815 6.433 11.325 6.398 15.045.897.153 2.871.693 3.59 2.571 7.555-3.838 17.462-7.343 28.366-10.668L332 283.954c-9.53-12.475-13.263-22.37-13.263-22.37zM195.534 430.625l-1.992 4.027a.898.898 0 0 1-.808.503.904.904 0 0 1-.799-1.294l1.984-4.036a.902.902 0 0 1 .807-.502.906.906 0 0 1 .808 1.302zM253.63 382.2c.486.06.838.51.78.998a.902.902 0 0 1-.897.79h-.107l-13.273-1.68a.909.909 0 0 1-.788-.899.91.91 0 0 1 1.021-.899l13.264 1.69zm-52.138 36.338l-1.993 4.026a.898.898 0 0 1-.798.504.904.904 0 0 1-.808-1.294l1.983-4.036a.902.902 0 0 1 .808-.503.906.906 0 0 1 .808 1.303zm5.958-12.089l-1.983 4.027a.898.898 0 0 1-1.203.413.899.899 0 0 1-.412-1.204l1.992-4.036a.901.901 0 0 1 1.193-.404.899.899 0 0 1 .413 1.204zm5.923-12.088l-1.947 4.071a.898.898 0 0 1-1.203.414.899.899 0 0 1-.413-1.205l1.993-4.035a.898.898 0 0 1 .79-.474.902.902 0 0 1 .816 1.274l-.036-.045zm16.243-6.93a.899.899 0 0 1-.79.467h-.099l-27.02-3.172a.902.902 0 0 1-.682-1.322l12.806-23.43a.898.898 0 0 1 .897-.459l27.083 3.164a.897.897 0 0 1 .691.476c.14.264.14.58 0 .845l-12.886 23.431zm31.408 4.755h-.09l-23.574-2.886a.908.908 0 0 1-.796-.898.908.908 0 0 1 1.012-.9l23.574 2.886a.904.904 0 0 1 .845.899c0 .494-.405.9-.899.9l-.054-.001h-.018z" fill="#9EB1DB" fill-rule="nonzero"/><path d="M221.027 375.487a6.205 6.205 0 0 0 5.628-2.87 2.15 2.15 0 0 0 .152-2.058 2.27 2.27 0 0 0-1.856-1.059h-.508a6.215 6.215 0 0 0-5.086 2.895 2.168 2.168 0 0 0-.195 2.016 2.278 2.278 0 0 0 1.865 1.076z" fill="#9EB1DB" fill-rule="nonzero"/><path d="M393.691 227.576l23.715 6.914a.797.797 0 0 0 .253 0 .902.902 0 0 0 .828-.553l9.557-22.784a.881.881 0 0 0 .068-.34.896.896 0 0 0-.645-.855l-7.16-2.088a8.075 8.075 0 0 0 4.395-4.228 6.466 6.466 0 0 0-.081-5.353 6.213 6.213 0 0 0-.225-.42l7.448 2.177c.087.01.175.01.262 0a.9.9 0 0 0 .894-.892.883.883 0 0 0-.057-.312l-6.305-16.762a.902.902 0 0 0-1.287-.464l-17.438 9.813a.89.89 0 0 0-.45.892c.04.357.292.657.64.758l7.142 2.079a8.073 8.073 0 0 0-4.377 4.237 6.466 6.466 0 0 0 .08 5.353c.073.143.154.276.226.41l-7.449-2.168a.906.906 0 0 0-1.09.509l-9.556 22.784a.886.886 0 0 0 0 .731.9.9 0 0 0 .612.562zm16.987-35.567l14.682-8.288 5.278 14.113-10.133-2.962-9.827-2.863zm1.892 8.127c1.006-2.282 3.286-3.77 5.8-3.783.552.002 1.1.08 1.63.232a4.757 4.757 0 0 1 3.009 2.471 4.752 4.752 0 0 1 0 3.934c-1.232 2.842-4.416 4.372-7.43 3.569a4.722 4.722 0 0 1-3.01-2.462 4.76 4.76 0 0 1-.008-3.997l.009.036zm-8.548 4.88l21.968 6.405-2.864 6.815-21.977-6.405 2.873-6.816zm-3.548 8.474l21.976 6.405-5.305 12.66-21.976-6.415 5.305-12.65zm-255.87 23.398l4.619-5.444 8.48 3.11-.2 7.055c0 .49.41.891.91.891s.911-.402.911-.89l.674-23.163a.893.893 0 0 0-.592-.891.926.926 0 0 0-1.02.267l-15.175 17.889a.878.878 0 0 0 .119 1.256.93.93 0 0 0 1.275-.08zm13.49-15.902l-.336 11.679-7.287-2.673 7.624-9.006zm6.585 22.915a8.2 8.2 0 0 0 7.914 1.323l-.395 1.061a.901.901 0 0 0 .844 1.215.9.9 0 0 0 .836-.585l3.81-10.211c.731-1.916.15-4.1-1.438-5.398-3.09-2.492-8.085-1.691-8.274-1.655a.915.915 0 0 0-.763.9.916.916 0 0 0 1.06.899c.044 0 4.392-.693 6.854 1.286a2.978 2.978 0 0 1 .898 3.365l-.898 2.348a7.188 7.188 0 0 0-5.184-2.699c-3.593-.333-6.683 1.638-6.935 4.373a4.506 4.506 0 0 0 1.671 3.778zm5.103-6.37c2.048.19 3.818 1.305 4.285 2.7a.9.9 0 0 0 .26.369l-.7 1.862c-.05.029-.1.062-.144.099a5.335 5.335 0 0 1-4.285 1.313 5.824 5.824 0 0 1-3.324-1.331 2.767 2.767 0 0 1-1.078-2.276c.162-1.764 2.443-3.005 4.986-2.771v.036zm220.909 1.777l43.172 13.183a.902.902 0 0 0 .26 0 .899.899 0 1 0 .26-1.751l-43.172-13.183a.902.902 0 0 0-1.21.841.9.9 0 0 0 .69.874v.036zm-5.985 10.964l22.977 7.173a.895.895 0 0 0 .27.045.913.913 0 0 0 1.047-.897.911.911 0 0 0-.776-.896l-22.977-7.129a.904.904 0 0 0-1.247.829.9.9 0 0 0 .706.875zm-230.65 3.807a.87.87 0 0 0-.056.305c0 .368.238.698.593.822l31.192 11.242a.979.979 0 0 0 .313.052h.008c.49 0 .894-.394.894-.873a.876.876 0 0 0-.589-.822l-31.202-11.25a.927.927 0 0 0-.312-.055.894.894 0 0 0-.84.58zm8.038 16.421h.008c.493 0 .898-.418.898-.928 0-.39-.237-.74-.591-.872l-13.149-5.121a.875.875 0 0 0-.362-.079c-.492 0-.898.418-.898.928 0 .405.258.766.632.886l13.193 5.13a.725.725 0 0 0 .27.056zm210.443-22.098c.14.066.293.1.449.098.365 0 .7-.204.868-.529l2.04-4.043a.982.982 0 0 0-.874-1.428.982.982 0 0 0-.873.537l-2.04 4.043a.98.98 0 0 0 .43 1.322zm-17 33c.136.067.287.1.44.098a.976.976 0 0 0 .878-.539l2.04-4.036a.983.983 0 0 0-.44-1.322.98.98 0 0 0-1.308.431l-2.04 4.046a.981.981 0 0 0 .43 1.322zm-5.999 11.007c.136.062.29.093.444.09.371 0 .712-.176.879-.453l2.063-3.405c.05-.1.076-.208.076-.316 0-.453-.446-.825-.987-.825-.347 0-.667.152-.846.4l-2.063 3.404c-.242.403-.047.9.434 1.105zm16.991-33.016a.903.903 0 0 0 .438.107.972.972 0 0 0 .864-.533l2.03-3.999a.964.964 0 0 0 .139-.5.975.975 0 0 0-.971-.968.973.973 0 0 0-.897.597l-2.03 3.999a.972.972 0 0 0 .428 1.297zm-5.995 11c.136.069.287.106.441.107a.98.98 0 0 0 .872-.538l2.048-4.041a.984.984 0 0 0 .105-.44.983.983 0 1 0-1.859-.44l-2.038 4.04a.983.983 0 0 0 .431 1.311zm16.984-32.995a.952.952 0 0 0 1.273-.41l1.073-2.076a.916.916 0 0 0 .136-.48.945.945 0 0 0-.95-.932.952.952 0 0 0-.877.574l-1.073 2.076a.927.927 0 0 0 .418 1.248zm-242.201 36.165c-.45-.127-.98-.058-1.317.173.42.585.827 1.17 1.235 1.764l.664-.946c.261-.374-.002-.821-.582-.99zm11.17-23.98c-.432-.214-.948.002-1.144.477l-1.266 3.094c-.196.474-.005 1.041.425 1.26a.85.85 0 0 0 .364.086c.34-.001.65-.222.789-.563l1.266-3.084c.052-.125.079-.261.079-.399 0-.376-.201-.718-.513-.871zm-5.08 10.996c-.49-.205-1.074.002-1.296.458l-2.024 4.173c-.221.455-.005.998.481 1.208.13.053.27.081.413.082a.99.99 0 0 0 .894-.54l2.034-4.155a.855.855 0 0 0 .091-.386.916.916 0 0 0-.592-.84zm79.309 116.875c.247.034.498.048.748.046 2.834-.038 5.457-1.558 6.934-4.02a4.077 4.077 0 0 0 .223-3.848 4.15 4.15 0 0 0-3.333-2.105c-3.092-.253-6.072 1.29-7.692 3.984a4.079 4.079 0 0 0-.214 3.847 4.13 4.13 0 0 0 3.334 2.096zm-1.551-5.072a6.522 6.522 0 0 1 5.348-3.076h.534a2.383 2.383 0 0 1 1.908 1.116 2.307 2.307 0 0 1-.196 2.15c-1.28 2.034-3.551 3.204-5.919 3.05a2.391 2.391 0 0 1-1.96-1.135 2.325 2.325 0 0 1 .24-2.105h.045z" fill="#FFF" fill-rule="nonzero"/><path d="M242.905 364.098a.904.904 0 0 0-.696-.47l-27.291-3.121a.91.91 0 0 0-.905.452l-12.904 23.116a.876.876 0 0 0-.109.423c0 .447.345.828.797.88l27.29 3.122h.1a.909.909 0 0 0 .796-.461l12.904-23.116a.871.871 0 0 0 .018-.825zm-19.27 21.99l-11.855-1.374-3.274-.373c2.663-3.238 6.782-4.998 11.014-4.708 2.026.23 3.527 1.09 4.223 2.42a4.474 4.474 0 0 1-.108 4.035zm5.064.577l-3.21-.364a6.005 6.005 0 0 0-.136-5.045c-.986-1.862-2.984-3.06-5.625-3.36-5.217-.372-10.264 1.992-13.247 6.206l-3.129-.355 11.964-21.44 25.32 2.9-11.937 21.458zm32.46 3.947l-23.164-3.105a.78.78 0 0 0-.106-.007c-.488 0-.889.44-.889.974 0 .49.338.91.783.967l23.173 3.057h.106a.969.969 0 0 0 .053.002c.486 0 .885-.437.885-.97 0-.509-.367-.936-.832-.967l-.009.049zm-22.152-8.425c-.062.42.284.81.769.866l13.217 1.447h.107c.452.003.84-.292.894-.68.057-.42-.293-.808-.778-.86l-13.208-1.454a1.098 1.098 0 0 0-.112-.006c-.453 0-.838.298-.889.687zm-43.54 47.409a.966.966 0 0 0-1.274.416l-2.099 4.155a.919.919 0 0 0 .428 1.231.953.953 0 0 0 1.273-.416l2.108-4.146a.91.91 0 0 0 .097-.408.923.923 0 0 0-.534-.832zm5.978-12.001a.961.961 0 0 0-1.265.412l-2.086 4.173a.91.91 0 0 0 .425 1.22.947.947 0 0 0 1.265-.413l2.095-4.108a.894.894 0 0 0 .121-.449.918.918 0 0 0-.555-.835zm6.022-12.003a.965.965 0 0 0-1.263.417l-2.107 4.158a.911.911 0 0 0 .436 1.24.97.97 0 0 0 .418.093.952.952 0 0 0 .854-.519l2.098-4.148a.911.911 0 0 0-.436-1.241zm6.031-11.996a.962.962 0 0 0-1.27.416l-2.131 4.155a.912.912 0 0 0 .436 1.24c.13.062.272.094.416.093a.95.95 0 0 0 .853-.518l2.094-4.146a.92.92 0 0 0-.398-1.24z" fill="#FFF" fill-rule="nonzero"/><path d="M442.589 337.635c.07 0 6.726-1.553 9.609 2.682a.464.464 0 0 0 .367.183.407.407 0 0 0 .236-.067c.2-.122.26-.382.13-.573-3.267-4.732-10.29-3.105-10.587-3.03a.433.433 0 0 0-.344.415.44.44 0 0 0 .449.427c.035 0 .07-.004.105-.012l.035-.025z" fill="#9EB1DB" fill-rule="nonzero"/><path d="M164.322 619.761c5.277 4.724 10.832 7.087 16.62 7.087 6.758 0 13.838-3.207 21.18-9.62 8.3-7.239 16.907-10.616 27.82-14.891a230.398 230.398 0 0 0 29.372-13.41c1.113-.61 2.244-1.257 3.392-1.922 4.541-2.64 9.396-5.685 14.467-9.044 30.925-20.514 69.792-52.605 94.732-73.208 7.96-6.575 14.637-12.09 19.223-15.718 3.365-2.695 5.617-4.311 6.398-4.599a76.733 76.733 0 0 0 12.555-5.73c3.096-1.85 5.241-3.71 6.47-5.586 3.168-4.823 8.975-5.865 23.522-7.41 18.657-1.994 27.82-8.272 35.26-13.32 1.561-1.069 3.042-2.074 4.487-2.973 8.92-5.442 13.228-13.768 10.015-19.364-3.015-5.254-.449-8.083-.34-8.218 7.179-7.805 2.162-15.942.412-17.694a7.621 7.621 0 0 1-1.795-4.31c6.228-6.575 4.81-11.677 4.254-13.006 5.788-4.58 7.646-9.197 6.004-14.927-2.073-7.284-8.975-8.9-11.667-9.26 1.212-1.06 2.81-2.416 4.487-3.844 4.02-3.413 8.185-6.943 9.315-8.362a14.752 14.752 0 0 0 2.415-9.745 10.566 10.566 0 0 0-4.191-7.356c-6.237-4.841-17.105-3.108-19.744-2.587l-.592.117a.45.45 0 0 0-.341.539.43.43 0 0 0 .251.305.504.504 0 0 0 .287 0c.126 0 12.96-2.874 19.627 2.3a9.753 9.753 0 0 1 3.85 6.754 13.986 13.986 0 0 1-2.244 9.107c-1.067 1.347-5.384 5.003-9.19 8.236-2.063 1.752-4.01 3.404-5.267 4.545-2.351 2.137-3.59 4.167-3.59 6.035a4.83 4.83 0 0 0 1.75 3.638c.081.08.191.126.305.126a.468.468 0 0 0 .323-.144.449.449 0 0 0 0-.638 3.99 3.99 0 0 1-1.462-2.973c0-1.58 1.077-3.359 3.159-5.272 1.346.072 9.414.835 11.666 8.694 1.526 5.335-.135 9.494-5.501 13.814a10.78 10.78 0 0 0-5.385-6.108.449.449 0 1 0-.332.827 10.323 10.323 0 0 1 5.125 6.161c.808 2.66 0 0 0 0v.054c.116.216 2.764 5.326-4.084 12.448a.422.422 0 0 0-.125.333 8.566 8.566 0 0 0 2.1 5.092c4.222 4.698 4.032 11.976-.431 16.445-.126.135-3.15 3.413.215 9.278 2.97 5.156-1.202 12.96-9.71 18.152-1.472.898-2.961 1.922-4.487 2.99-7.314 4.995-16.423 11.21-34.856 13.168-14.861 1.58-20.793 2.694-24.176 7.823-2.379 3.592-8.436 7.185-18.523 10.966-1.993.737-11.496 8.587-25.882 20.47-30.028 24.806-80.292 66.319-112.447 84.084a229.747 229.747 0 0 1-29.319 13.347c-10.975 4.31-19.636 7.724-28.053 15.062-13.255 11.559-25.577 12.412-36.615 2.542-8.023-7.078-86.593-87.31-111.12-139.457a.438.438 0 0 0 .055-.242.45.45 0 0 0-.35-.395 79.182 79.182 0 0 1-6.408-18.862c3.653-2.81 54.357-40.56 131.517-36.357 1.104 2.03 9.558 17.963 9.764 29.406.081 4.787 3.752 11.227 7.296 17.46 3.366 5.919 6.552 11.505 6.282 14.936a.451.451 0 0 0 .413.485c.117 0 2.639.216 3.285 2.183-5.268 3.449-6.282 6.062-6.363 6.17a.47.47 0 0 0 .26.584h.162a.457.457 0 0 0 .422-.288c.069-.172 1.05-2.568 6.282-5.91 14.179-7.32 37.081-13.472 59.23-19.382 18.845-5.03 36.587-9.79 47.976-14.972 22.696-10.32 69.389-43.902 75.626-56.108.969-1.895 1.93-3.942 2.952-6.116 2.854-6.09 6.094-13.005 10.267-17.81 3.832-5.443 9.45-9.826 13.56-13.033 3.06-2.389 5.277-4.122 5.932-5.514.754-1.626 4.271-4.895 7.368-7.77 2.907-2.694 5.384-5.038 5.95-6.205 1.04-2.273 4.146-6.97 8.534-8.47a.43.43 0 0 0 .26-.189l.745-1.455a12.391 12.391 0 0 1 10.23 1.249c.073.046.157.07.243.072h.126a.496.496 0 0 0 .287-.252l1.543-3.512a8.095 8.095 0 0 1 1.338 6.629c-.898 4.329-1.732 8.415-6.498 16.005a24.406 24.406 0 0 0-2.198 4.05c-.626.424-1.273.813-1.939 1.168-5.645 3-19.492 11.173-26.115 22.086a.46.46 0 0 0 .153.62.53.53 0 0 0 .233.062.468.468 0 0 0 .386-.215c6.497-10.724 20.183-18.79 25.765-21.763.73-.388 1.437-.817 2.118-1.284a20.798 20.798 0 0 0 1.795-1.401c2.27-1.922 6.856-5.389 12.043-7.024 7.61-2.398 19.115-11.54 19.6-11.927a.45.45 0 0 0-.566-.7A123.659 123.659 0 0 1 473 342.976a42.426 42.426 0 0 1-8.83 4.401 34.885 34.885 0 0 0-9.324 4.85c-1.22.898-2.262 1.707-3.025 2.353-.116.1-.233.18-.34.279.43-.818.897-1.608 1.435-2.434 4.846-7.724 5.708-11.892 6.614-16.302a8.752 8.752 0 0 0-1.974-7.903 7.933 7.933 0 0 0-4.083-3.755c-1.795-.655-3.868.144-5.304.898a5.193 5.193 0 0 0-2.172 2.246l-2.576 5.03c-4.594 1.652-7.834 6.52-8.911 8.891-.449.997-3.141 3.494-5.744 5.91-3.311 3.08-6.74 6.287-7.574 8.083-.556 1.195-2.818 2.955-5.671 5.183a85.989 85.989 0 0 0-10.375 9.116 40.146 40.146 0 0 0-3.338 4.069c-4.227 4.868-7.494 11.837-10.374 17.963-1.014 2.164-1.975 4.203-2.935 6.08-2.782 5.452-14.601 16.167-31.616 28.58-16.028 11.73-33.133 22.372-43.579 27.124-11.316 5.146-29.059 9.88-47.842 14.927-10.356 2.766-20.865 5.587-30.584 8.55-10.903 3.324-20.811 6.826-28.367 10.662-.71-1.878-2.693-2.417-3.59-2.57 0-3.718-3.096-9.223-6.399-15.034-3.49-6.135-7.098-12.476-7.18-17.065-.116-6.117-2.503-13.428-4.917-19.31 4.487-3.126 7.314-10.778 8.337-14.02a3.598 3.598 0 0 0-.18-2.65c-.834-1.797-2.306-5.775-4.01-10.428-2.487-6.79-5.619-15.313-8.508-21.69a50.134 50.134 0 0 0-3.59-6.907c-7.26-10.778-13.73-29.406-21.224-50.988-.153-.458-.314-.898-.476-1.383-5.555-15.996-11.72-33.6-19.097-50.09-.314-.71-.628-1.41-.951-2.111-7.18-15.754-15.544-30.34-25.577-41.369a77.374 77.374 0 0 0-8.597-8.191 462.092 462.092 0 0 1-8.49-7.042c-10.024-8.388-21.879-18.33-36.668-28.094-.826-.548-1.66-1.087-2.495-1.625a251.364 251.364 0 0 0-22.517-12.979 246.738 246.738 0 0 0-11.666-5.514 183.646 183.646 0 0 0-5.591-2.39A241.577 241.577 0 0 0 .56 161.514a.451.451 0 0 0-.56.435.45.45 0 0 0 .264.41l.152.054c43.58 15.412 71.031 38.414 91.08 55.209 3.006 2.515 5.842 4.895 8.498 7.05 26.07 21.09 41.793 66.365 54.42 102.74 7.512 21.646 14 40.336 21.323 51.195 3.545 5.272 8.454 18.646 12.043 28.409 1.795 4.859 3.186 8.694 4.03 10.49.3.625.349 1.343.134 2.003-.978 3.09-3.661 10.41-7.834 13.472a115.161 115.161 0 0 0-4.308-9.116c3.42.52 4.128 2.569 4.155 2.694a.458.458 0 0 0 .431.315h.135a.46.46 0 0 0 .296-.566c0-.117-.996-3.045-5.788-3.377-80.212-4.49-132.065 36.285-132.586 36.698-.52.414 0 0 0 0-6.102 5.605-2.055 11.389-2.019 11.443.083.12.222.191.368.188a.466.466 0 0 0 .26-.08.46.46 0 0 0 .108-.63c-.144-.197-3.347-4.84 1.283-9.744a80.034 80.034 0 0 0 6.22 18.152c-3.115.161-14.234.305-15.948-5.443-1.274-4.302-3.76-10.823-6.165-17.128-3.168-8.29-6.749-17.694-6.282-19.032.27-.808-.52-1.661-2.235-3.512a87.376 87.376 0 0 1-8.669-10.777.459.459 0 0 0-.628-.117.47.47 0 0 0-.117.629 89.337 89.337 0 0 0 8.76 10.912c1.094 1.186 2.135 2.308 2.036 2.614-.52 1.571 2.055 8.487 6.282 19.642 2.405 6.287 4.882 12.79 6.157 17.065 1.597 5.39 9.979 6.153 14.619 6.153 1.148 0 2.055-.054 2.584-.09 20.811 44.288 80.194 108.55 102.917 131.705l5.061 72.445v.054a.451.451 0 0 0 .449.422.451.451 0 0 0 .413-.485l-1.14-16.275-3.805-55.209c3.643 3.71 6.228 6.215 7.368 7.23zm282.553-291.774a4.275 4.275 0 0 1 1.795-1.868c1.275-.692 3.096-1.41 4.56-.898a7.123 7.123 0 0 1 3.535 3.188l-1.543 3.494a13.038 13.038 0 0 0-9.702-1.311l1.355-2.605z" fill="#9EB1DB" fill-rule="nonzero"/></g></svg>