<svg xmlns="http://www.w3.org/2000/svg" width="58" height="77"><path fill="#E15D44" d="M29.346 77h-.766l-.251-.17c-2.332-1.564-4.774-3.074-7.136-4.53a116.307 116.307 0 0 1-13.214-9.016l-.04-.033a24.922 24.922 0 0 1-5.611-6.658A21.368 21.368 0 0 1 0 47.033V10.872l.374-.306C8.524 3.849 18.66.127 29.146 0h.023c10.372.21 20.38 3.928 28.446 10.568l.373.308v.49c-.004 5.277-.004 10.554 0 15.83v18.879a21.834 21.834 0 0 1-2.07 10.02c-2.182 4.37-6.007 7.412-9.422 9.92-3.389 2.375-6.928 4.571-10.352 6.697a341.494 341.494 0 0 0-6.541 4.127l-.257.161zM9.267 61.708a114.849 114.849 0 0 0 12.967 8.84c2.225 1.371 4.52 2.787 6.739 4.265 2.029-1.314 4.103-2.601 6.114-3.85 3.4-2.11 6.916-4.292 10.24-6.617 3.206-2.355 6.81-5.212 8.79-9.177a19.832 19.832 0 0 0 1.851-9.09c.007-6.293.007-12.586 0-18.876V11.862c-7.647-6.165-17.067-9.613-26.82-9.817C19.285 2.17 9.74 5.62 2.01 11.853V47c.019 3 .734 5.952 2.086 8.617a22.79 22.79 0 0 0 5.171 6.092zM24.61 12.433a19.405 19.405 0 0 1 16.314 3.916 13.69 13.69 0 0 1 4.73 8.34c.753 3.303-.053 6.64-.44 9.929-.525 1.67 2.13 1.957 1.75 3.548a1.204 1.204 0 0 1-.756.77 1.19 1.19 0 0 1-1.064-.15 3.91 3.91 0 0 1-2.387-4.155c.325-3.464 1.263-7.007.242-10.45a11.76 11.76 0 0 0-6.308-7.715c-5.58-2.907-13.076-2.744-17.898 1.615-1.37 1.111-2.105 2.815-3.467 3.922-1.272.083-1.663-1.286-1.02-2.203a15.353 15.353 0 0 1 10.304-7.367zm-5.2 8.35A12.543 12.543 0 0 1 35.737 17.8a10.664 10.664 0 0 1 5.031 7.45c.727 3.521-.9 7.004-.51 10.52.53 2.365 2.953 2.97 4.919 3.908.665.305.986 1.07.74 1.76a1 1 0 0 1-.221.349c-.727.478-1.567.032-2.296-.2-2.299-.858-4.694-2.339-5.4-4.857-.903-3.141.559-6.297.503-9.463a8.555 8.555 0 0 0-4.745-7.79 10.195 10.195 0 0 0-11.056 1.331c-2.072 1.668-2.754 4.47-4.817 6.142a8.626 8.626 0 0 1-3.758 1.856 1.17 1.17 0 0 1-.82-1.962 24.648 24.648 0 0 0 3.261-1.99 37.18 37.18 0 0 0 2.84-4.072zm6.853-.49c3.576-1.077 7.353.91 8.516 4.48.781 2.626-.652 5.162-1.938 7.349-3.863 6.181-10.54 10.135-17.475 11.83-.359.1-.742.044-1.058-.154a1.339 1.339 0 0 1-.604-.887c.11-1.278 1.523-1.389 2.467-1.732 6.652-1.926 13.031-6.23 15.884-12.777a3.94 3.94 0 0 0-.911-4.927 4.524 4.524 0 0 0-3.837-.901 4.55 4.55 0 0 0-3.096 2.453c-2.007 4.454-6.517 7.255-11.109 8.365-1.274.07-1.518-1.945-.333-2.281a22.237 22.237 0 0 0 6.175-3.18c2.89-2.146 3.419-6.742 7.319-7.639zm2.149 5.775l.017.007c.54.214.818.839.624 1.406-1.143 3.472-3.91 6.184-6.829 8.12a24.572 24.572 0 0 1-7.911 3.33 1.119 1.119 0 0 1-1.126-.52 1.226 1.226 0 0 1-.01-1.284 7.457 7.457 0 0 1 2.484-1.075c3.594-1.053 6.826-3.152 9.317-6.052a25.76 25.76 0 0 0 2.171-3.477 1.033 1.033 0 0 1 1.263-.455zm3.779 11.377a1.01 1.01 0 0 1 .834-.257c.3.045.567.226.73.494a14.353 14.353 0 0 0 3.734 3.75 44.049 44.049 0 0 0 5 2.46c1.208.64.046 2.54-1.085 2.004-3.568-1.195-7.163-3.155-9.24-6.534-.386-.564-.648-1.462.027-1.917zm-3.804 4.257c1.483-.493 2.618.982 3.773 1.694 2.433 2.001 5.367 3.085 8.148 4.409.463.236.71.774.594 1.298a1.12 1.12 0 0 1-1.078.897 27.536 27.536 0 0 1-5.787-2.513c-1.765-.93-3.262-2.367-5.1-3.14-1.024.255-2 .68-2.893 1.26a39.81 39.81 0 0 1-7.661 3.225c-.487.092-1.073.362-1.517 0a1.175 1.175 0 0 1-.483-1.088 1.15 1.15 0 0 1 .703-.95c1.765-.78 3.653-1.228 5.401-2.069 2.038-.845 3.846-2.21 5.9-3.023zm-3.434 8.117A16.012 16.012 0 0 1 29.457 48a20.007 20.007 0 0 1 4.785 2.175c1.758.976 3.74 1.522 5.409 2.658.825.746.066 2.383-1.003 2.143-3.293-.95-6.14-3-9.372-4.132-2.95 1.123-5.709 2.74-8.755 3.605-1.395.542-2.15-1.837-.851-2.356 1.697-.892 3.573-1.39 5.282-2.274zm2.322 3.593c1.789-1.111 3.613.284 5.236 1.157.607.427 1.54.788 1.475 1.835.129.835-.619 1.448-1.213 1.596-1.379-.333-2.552-1.398-3.936-1.71-1.226.232-2.274 1.143-3.479 1.475-.468.033-.914-.246-1.163-.729a1.84 1.84 0 0 1-.028-1.586 9.65 9.65 0 0 1 3.108-2.038z"/></svg>