<svg height="77" width="58" xmlns="http://www.w3.org/2000/svg"><path d="m21.976 41.28a1.683 1.683 0 0 1 -1.679-1.687c0-.932.752-1.688 1.68-1.688.926 0 1.678.756 1.678 1.688s-.752 1.688-1.679 1.688zm-6.715 10.127a1.683 1.683 0 0 1 -1.678-1.688c0-.932.751-1.688 1.678-1.688.928 0 1.68.756 1.68 1.688s-.752 1.688-1.68 1.688zm12.59-.844a1.683 1.683 0 0 1 -1.678-1.688c0-.932.751-1.688 1.678-1.688.928 0 1.68.756 1.68 1.688s-.752 1.688-1.68 1.688zm-15.947-12.658a1.683 1.683 0 0 1 -1.679-1.687c0-.932.752-1.688 1.68-1.688.926 0 1.678.756 1.678 1.688s-.752 1.687-1.679 1.687zm20.144-.843a1.683 1.683 0 0 1 -1.679-1.688c0-.932.752-1.688 1.68-1.688.926 0 1.678.756 1.678 1.688s-.752 1.688-1.679 1.688zm10.072-8.439a1.683 1.683 0 0 1 -1.679-1.687c0-.932.752-1.688 1.68-1.688.926 0 1.678.756 1.678 1.688s-.752 1.687-1.679 1.687zm3.357 18.564a1.683 1.683 0 0 1 -1.677-1.687c0-.932.751-1.688 1.678-1.688.928 0 1.68.756 1.68 1.688s-.752 1.687-1.68 1.687zm-25.18-17.72a1.683 1.683 0 0 1 -1.678-1.687c0-.933.751-1.688 1.678-1.688.928 0 1.68.755 1.68 1.688 0 .932-.752 1.687-1.68 1.687zm36.511 14.254c.22.42.252.914.091 1.36-2.7 7.587-9.62 12.842-17.618 13.376-.464.032-.928.048-1.39.048a19.448 19.448 0 0 1 -4.784-.59 19.106 19.106 0 0 1 -2.796-.909 1.667 1.667 0 0 1 -.218-.115c-8.337 4.156-18.422 2.03-24.396-5.145-5.973-7.175-6.28-17.53-.743-25.05 5.538-7.52 15.479-10.246 24.048-6.596a20.026 20.026 0 0 1 20.551 1.62c.715.508.92 1.483.473 2.24a2.543 2.543 0 0 0 -.02 2.542 2.516 2.516 0 0 0 2.186 1.278 1.68 1.68 0 0 1 1.593 1.153 1.693 1.693 0 0 1 -.586 1.884 2.556 2.556 0 0 0 -1.007 2.025 2.522 2.522 0 0 0 2.068 2.49c.666.12 1.196.629 1.343 1.292a1.692 1.692 0 0 1 -.666 1.745 2.547 2.547 0 0 0 -1.066 2.068 2.508 2.508 0 0 0 1.871 2.44 1.68 1.68 0 0 1 1.066.844zm-52.458-4.972c.01 9.316 7.52 16.866 16.787 16.877 9.27 0 16.786-7.556 16.786-16.877 0-9.32-7.515-16.876-16.786-16.876s-16.787 7.556-16.787 16.876zm34.71 16.34c6.113-.408 11.517-4.135 14.099-9.72-2.553-1.69-3.39-5.066-1.925-7.763a5.918 5.918 0 0 1 -1.878-7.188 5.914 5.914 0 0 1 -2.847-6.666 16.53 16.53 0 0 0 -13.748-1.537c8.312 5.902 10.94 17.11 6.124 26.123.6.423.858 1.187.639 1.888a1.68 1.68 0 0 1 -1.598 1.182 1.65 1.65 0 0 1 -.87-.253 20.317 20.317 0 0 1 -3.358 3.42c.068.018.137.041.204.057 1.684.427 3.425.581 5.158.458z" fill="#f88d25"/></svg>