<svg width="15" height="12" viewBox="0 0 15 12" fill="none" xmlns="http://www.w3.org/2000/svg">
<path d="M5.4 9L7.5 7.425L9.5625 9L8.775 6.45L10.875 4.8H8.325L7.5 2.25L6.675 4.8H4.125L6.1875 6.45L5.4 9ZM0 12V7.5C0.4125 7.5 0.765625 7.35313 1.05938 7.05938C1.35313 6.76563 1.5 6.4125 1.5 6C1.5 5.5875 1.35313 5.23438 1.05938 4.94063C0.765625 4.64688 0.4125 4.5 0 4.5V0H15V4.5C14.5875 4.5 14.2344 4.64688 13.9406 4.94063C13.6469 5.23438 13.5 5.5875 13.5 6C13.5 6.4125 13.6469 6.76563 13.9406 7.05938C14.2344 7.35313 14.5875 7.5 15 7.5V12H0ZM1.5 10.5H13.5V8.5875C13.0375 8.3125 12.6719 7.94688 12.4031 7.49063C12.1344 7.03438 12 6.5375 12 6C12 5.4625 12.1344 4.96563 12.4031 4.50938C12.6719 4.05313 13.0375 3.6875 13.5 3.4125V1.5H1.5V3.4125C1.9625 3.6875 2.32812 4.05313 2.59688 4.50938C2.86563 4.96563 3 5.4625 3 6C3 6.5375 2.86563 7.03438 2.59688 7.49063C2.32812 7.94688 1.9625 8.3125 1.5 8.5875V10.5Z" fill="#02CEBA"/>
</svg>
