<svg xmlns="http://www.w3.org/2000/svg" viewBox="0 0 27 40"><defs><style>.cls-1{fill:#fff;}</style></defs><title>Elixir-logo-white-1</title><g id="Layer_2" data-name="Layer 2"><g id="Layer_1-2" data-name="Layer 1"><path id="path-1" class="cls-1" d="M4.194,12.137C2.019,16.666-.035,21.353,0,26.442A13.512,13.512,0,0,0,13.509,40h.057a14.756,14.756,0,0,0,3.082-.337c6.1-1.316,10.332-6.2,10.352-11.843v-.081a11.822,11.822,0,0,0-.551-3.5c-1.194-3.949-4.149-7.012-6.775-10.151A20.535,20.535,0,0,1,16.425,9.34,27.633,27.633,0,0,1,14.585,0C9.39,1.764,6.309,7.732,4.194,12.137Z"/></g></g></svg>