<svg viewBox="0 0 140 96" xmlns="http://www.w3.org/2000/svg"><path d="M85.109 83.146c-.008-.041-.015-.083-.026-.124l-.031.037.031-.036A1.127 1.127 0 0 0 85 83c0 .034.017.062.021.1l.088.05m.159 0L85 83a.457.457 0 0 0 .056.158c.018.03.138 0 .212-.008m39.854-28.891c0-.08 0-.161.01-.245l-.021.022.023-.025L125 54c.026.023.054.043.08.067zM90.874 92.928c-3.651-6.779-9.786-8.309-16.874-7.854a19 19 0 0 1 5.848 2.726 28.617 28.617 0 0 1 4.406 4.028c2.711 2.887 6.942 4.659 9.746 4.06a8.305 8.305 0 0 1-3.126-2.956m42.039-31.46c-4.161-4.139-9.745-4.673-14.913-1.061a11.226 11.226 0 0 1 8.07 3.412A25.918 25.918 0 0 0 128.4 66a10.072 10.072 0 0 0 11.6.307c-3.663-1.435-3.663-1.435-7.087-4.841m-48.9-35.483A15.352 15.352 0 0 0 93 23.812c-.905.083-1.29.081-1.658.156a13.231 13.231 0 0 1-11.49-2.84c-1.25-1.012-2.521-2-3.787-2.989-5.017-3.93-10.771-5.245-17.065-5.132.1.317.108.533.217.646 6.848 7.093 14.774 11.979 24.792 12.332M103.848 44.1c-5.609.5-10.481 2.859-15.058 5.971a15.133 15.133 0 0 1-11.522 2.779c-.745-.132-1.5-.231-2.243-.344-.009.1-.017.212-.025.317.269.141.529.306.809.419a15.9 15.9 0 0 0 2.133.8c8.145 1.97 15.943.96 22.974-3.659 4.431-2.911 9.019-3.462 13.991-2.71.5.075 1 .168 1.507.216.467.045.955.518 1.586.007a19.913 19.913 0 0 0-14.152-3.8m16.92 9.335c1.411.116 2.821.24 4.232.361-3.188-2.734-7.074-2.951-11-2.732-5.986.332-10.3 3.7-14.231 7.728C96.3 62.341 93.17 66.322 88 67.748c.086.152.109.228.133.228.7.01 1.392.042 2.086.011 7.509-.332 14.582-1.878 20.209-7.2 1.772-1.675 3.358-3.536 5.068-5.275a6.405 6.405 0 0 1 5.272-2.079M66.844 23.306c-.211-.149-.413-.523-.844-.136a30.844 30.844 0 0 0 13.449 10.2c8.762 3.469 17.656 4.062 26.752 1 7.062-2.376 12.14-.055 14.777 6.634.382-7.763-4.3-13.42-11.758-14.529-4.195-.623-8.069.735-12 1.847-10.937 3.093-21.1 1.566-30.377-5.012M85 84c-.171-1.251-1.243-1.8-2.086-2.456-3.731-2.893-8.093-3.917-12.719-4a24.293 24.293 0 0 1-8.095-1.22c-1.193-.441-2.528-1.009-2.5-2.545.03-1.559 1.391-2 2.63-2.369 1.014-.3 2.061-.494 3.215-.762-2.933-1.873-5.8-2.132-9.615-.6-6.006 2.402-11.93 2.116-17.92-.039a70.192 70.192 0 0 1-9.51-4.816l-.085.058.085-.051c-.078-.235-.217-.241-.4-.11l.245.214a37.606 37.606 0 0 0 10.048 10.542c7.617 5.6 15.937 8.945 25.672 7.463a134.12 134.12 0 0 1 9.483-1.106C77.424 81.883 81.212 83 85 84M20.6 7.861c-1.754.472-3.155-.285-4.6-1.847A31.222 31.222 0 0 1 23 5a3.081 3.081 0 0 1-2.4 2.861M52.491 67.31l-1.1-.2c-7.8-1.465-12.733-6.234-15.07-13.73-1.456-4.674 1.191-8.115 6.043-8.341 3.972-.186 6.692 2.12 9.1 4.805C54.561 53.3 57.4 57 60.447 60.511c4.383 5.056 9.553 8.312 16.615 7.307a31.351 31.351 0 0 0 16.663-7.7c.722-.635 1.514-1.189 2.275-1.78l-.479-.571a34.947 34.947 0 0 1-12.351 1.479c-6.36-.323-12.42-1.665-17.842-5.192A23.831 23.831 0 0 1 55 40.761c-1.4-4.654 1.467-7.91 6.241-7.237a9.51 9.51 0 0 1 4.9 2.342c1.161.991 2.275 2.042 3.459 3 5.573 4.523 13.359 4.775 20.433-.136-11.629-.054-19.541-6.515-26.49-14.7-2.719-3.2-5.375-6.468-8.151-9.621C50.02 8.3 44.062 2.925 35.9 1.091 25.48-1.253 15.418.278 5.76 4.746A24.555 24.555 0 0 0 0 8.342c.983 0 1.519.012 2.054 0 4.869-.127 8.518 2.059 11.15 6.082a26.891 26.891 0 0 1 3.506 9.646c1.021 5.056.493 10.21 1.082 15.289 1.516 13.059 8.123 22.17 20.425 26.836a23.947 23.947 0 0 0 14.274 1.115" fill="#fff"/></svg>