<?xml version="1.0" encoding="UTF-8"?>
<svg enable-background="new 0 0 67.6 66.5" version="1.1" viewBox="0 0 67.6 66.5" xml:space="preserve" xmlns="http://www.w3.org/2000/svg">
<style type="text/css">
	.st0{fill:#666666;}
</style>
<path class="st0" d="m5.2 34c-2.2 4.5-4.2 9.2-4.2 14.3 0 7.5 6 13.5 13.5 13.6h0.1c1 0 2.1-0.1 3.1-0.3 6-1.4 10.3-6.3 10.3-12v-0.1c0-1.2-0.2-2.4-0.6-3.5-1.2-3.9-4.1-7-6.8-10.2-1.3-1.4-2.4-3-3.2-4.7-1.1-3-1.8-6.1-1.8-9.3-5.2 1.8-8.3 7.8-10.4 12.2z"/>
<path class="st0" d="m53 44.2v0 0 0 0m0.1 0l-0.1-0.1v0.1h0.1m18.8-13.7v-0.1h-0.1c0.1 0 0.1 0 0.1 0.1zm-16.1 18.3c-1.7-3.2-4.6-3.9-8-3.7 1 0.3 1.9 0.7 2.8 1.3 0.8 0.6 1.5 1.2 2.1 1.9 1.3 1.4 3.3 2.2 4.6 1.9-0.7-0.3-1.2-0.8-1.5-1.4m19.8-14.9c-2-2-4.6-2.2-7-0.5 1.4 0 2.8 0.6 3.8 1.6 0.3 0.4 0.7 0.7 1.1 1 1.6 1.2 3.8 1.3 5.5 0.1-1.8-0.6-1.8-0.6-3.4-2.2m-23.1-16.7c1.5 0.1 3-0.3 4.2-1-0.4 0-0.6 0-0.8 0.1-1.9 0.4-3.9-0.1-5.4-1.3-0.6-0.5-1.2-0.9-1.8-1.4-2.4-1.9-5.1-2.5-8.1-2.4 0 0.1 0.1 0.3 0.1 0.3 3.3 3.2 7.1 5.5 11.8 5.7m9.4 8.5c-2.6 0.2-5 1.4-7.1 2.8-1.6 1.2-3.5 1.6-5.4 1.3-0.4-0.1-0.7-0.1-1.1-0.2v0.1c0.1 0.1 0.2 0.1 0.4 0.2 0.3 0.1 0.7 0.3 1 0.4 3.8 0.9 7.5 0.5 10.9-1.7 2.1-1.4 4.3-1.6 6.6-1.3 0.2 0 0.5 0.1 0.7 0.1s0.5 0.2 0.7 0c-2-1.3-4.3-2-6.7-1.7m8 4.4c0.7 0.1 1.3 0.1 2 0.2-1.5-1.3-3.3-1.4-5.2-1.3-2.8 0.2-4.9 1.7-6.7 3.7-1.6 1.7-3.1 3.6-5.6 4.2 0 0.1 0.1 0.1 0.1 0.1h1c3.5-0.2 6.9-0.9 9.5-3.4 0.8-0.8 1.6-1.7 2.4-2.5 0.6-0.7 1.5-1 2.5-1m-25.5-14.2c-0.1-0.1-0.2-0.2-0.4-0.1 1.6 2.2 3.8 3.8 6.4 4.8 4.1 1.6 8.3 1.9 12.6 0.5 3.3-1.1 5.7 0 7 3.1 0.2-3.7-2-6.3-5.6-6.9-2-0.3-3.8 0.3-5.7 0.9-5.1 1.5-9.9 0.8-14.3-2.3m8.6 28.7c-0.1-0.6-0.6-0.9-1-1.2-1.8-1.4-3.8-1.9-6-1.9-1.3 0-2.6-0.2-3.8-0.6-0.6-0.2-1.2-0.5-1.2-1.2s0.7-0.9 1.2-1.1c0.5-0.1 1-0.2 1.5-0.4-1.4-0.9-2.7-1-4.5-0.3-2.8 1.1-5.6 1-8.5 0-1.6-0.6-3.1-1.4-4.5-2.3 0-0.1-0.1-0.1-0.2-0.1l0.1 0.1c1.2 2 2.9 3.6 4.7 5 3.6 2.6 7.5 4.2 12.1 3.5 1.5-0.2 3-0.4 4.5-0.5 2 0 3.8 0.5 5.6 1m-30.4-36c-0.8 0.2-1.5-0.1-2.2-0.9 1.1-0.3 2.2-0.4 3.3-0.5 0 0.7-0.5 1.3-1.1 1.4m15 28.1l-0.5-0.1c-3.7-0.7-6-2.9-7.1-6.5-0.7-2.2 0.6-3.8 2.9-3.9 1.9-0.1 3.2 1 4.3 2.3 1.5 1.6 2.8 3.4 4.2 5 2.1 2.4 4.5 3.9 7.8 3.5 2.9-0.4 5.7-1.7 7.9-3.6 0.3-0.3 0.7-0.6 1.1-0.8l-0.2-0.3c-1.9 0.6-3.9 0.8-5.8 0.7-3-0.2-5.9-0.8-8.4-2.5-2.3-1.4-4.1-3.7-4.9-6.3-0.7-2.2 0.7-3.7 2.9-3.4 0.9 0.1 1.7 0.5 2.3 1.1 0.5 0.5 1.1 1 1.6 1.4 2.6 2.1 6.3 2.3 9.7-0.1-5.5 0-9.2-3.1-12.5-6.9-1.3-1.5-2.5-3.1-3.9-4.5-2.5-2.9-5.4-5.4-9.2-6.3-4.9-1.2-9.7-0.5-14.3 1.6-1 0.4-1.9 1-2.7 1.7h1c2.3-0.1 4 1 5.3 2.9 0.8 1.4 1.4 2.9 1.7 4.6 0.5 2.4 0.2 4.8 0.5 7.2 0.7 6.2 3.8 10.5 9.6 12.7 2.1 0.8 4.5 1 6.7 0.5"/>
</svg>
