<svg viewBox="0 0 1701 993" xmlns="http://www.w3.org/2000/svg" fill-rule="evenodd" clip-rule="evenodd" stroke-linejoin="round" stroke-miterlimit="1.414"><path d="M927.024 212.185l-653.715 255.13 25.351 258.462 726.524 140.537 325.291-158.945-60.651-212.858-362.8-282.326z" fill="#e15d44"/><path d="M1070.14 710.912h198.214l-198.214 43.659v-43.659zm-299.014 0v44.711l-202.988-44.711h202.988zm186.22-130.955s-3.86-13.705 10.543-40.058c14.403-26.358 25.66-11.95 25.66-11.95s12.288 13.356-1.761 33.39c-14.059 20.014-34.442 18.618-34.442 18.618zm-110.678 18.966c-16.518 43.235-56.571 25.655-56.571 25.655s-4.568-15.461 8.434-58.68c12.996-43.21 43.569-26.358 43.569-26.358s21.081 16.173 4.568 59.383m-29.869-180.954s24.956-65.004 30.926-33.37c5.96 31.615-52.361 125.785-52.361 125.785.703-21.081 21.435-92.415 21.435-92.415M460.153 579.957c1.057-41.814 28.462-60.087 37.953-50.945 9.491 9.131 5.97 28.806-11.949 41.105-17.915 12.298-26.004 9.84-26.004 9.84m755.804-6.943c1.411 14.05-7.027 18.857-7.027 18.857s-34.791 26.009-61.483 18.274c-26.707-7.731-28.114-55.933-28.114-55.933h-2.469l-27.051 74.271s-10.882 37.2-27.051 30.527c-16.163-6.683-15.814-25.669-15.814-25.669s-25.291 29.125-71.683 25.619c-40.576-3.072-53.688-36.337-53.688-36.337s-27.121 20.134-103.391 35.145c-34.119 3.716-58.307-17.121-58.307-17.121-3.167 3.172-23.545 12.907-23.545 12.907s-29.161 12.478-40.407-7.895c-11.241-20.363-3.865-86.459-3.865-86.459h-2.11s-16.867 36.217-25.654 67.139c-8.778 30.921-19.68 30.906-19.68 30.906s-20.019 1.745-24.588-15.117c-4.568-16.867 7.387-79.427 7.387-79.427l-1.766.294s-1.052-1.835-16.503 30.856c-26.358 63.942-32.682 66.581-47.793 63.808-15.117-2.783-15.81-22.159-15.81-22.159l-20.727 10.902s-50.596 20.458-76.939.439c-17.55-13.336-23.555-27.794-25.625-42.756h.01s-22.437.26-36.846-5.366c-14.413-5.631.11-21.226.11-21.226s4.429-7.017 12.857 0c8.439 7.017 24.179 3.855 24.179 3.855 1.401-11.077 3.74-25.694 10.608-41.13 14.408-32.333 36.472-43.255 54.391-43.609 17.914-.349 30.572 4.509 41.464 19.969 24.244 60.092-64.65 90.51-64.65 90.51s-2.464 15.729 21.78 15.38c24.248-.339 61.139-26.707 61.139-26.707 1.76-20.024 15.814-82.923 19.675-92.399 3.865-9.496 18.627-7.735 18.627-7.735s11.596-2.464 13.7 9.83c2.105 12.303-8.428 62.196-8.428 62.196l1.75 2.12c1.058-4.928 26.707-47.794 26.707-47.794s14.758-25.649 37.25-24.602c22.483 1.052-1.057 69.937-1.057 69.937l1.756 2.105 1.76-3.167c2.813-7.746 36.188-58.327 36.188-58.327s12.653-14.762 24.243-11.251c11.591 3.516 12.299 8.783 13.007 18.632.698 9.83-9.137 68.152-9.137 68.152s-5.625 38.302 7.022 37.599c12.653-.688 26.353-14.044 26.353-14.044s9.84-75.199 16.518-137.385c6.678-62.197 35.49-104.01 35.49-104.01s8.423-13.002 30.691-21.795c14.668-5.166 30.657-1.725 38.173 30.228 15.815 67.104-55.513 146.517-55.513 146.517s18.971-30.213 42.87-15.805c52.701 33.016 9.486 105.766 9.486 105.766 15.461-4.923 43.215-23.545 43.215-23.545s.564-8.03.883-9.87c9.431-54.027 41.788-73.528 47.843-78.091 6.269-4.708 61.603-25.889 64.062 31.385 2.458 57.274-69.214 77.303-69.214 77.303s6.334 16.523 32.677 12.299c26.348-4.21 56.566-29.864 56.566-29.864 1.052-23.54 16.523-79.762 19.68-87.846 3.161-8.08 22.487-8.434 24.602-3.871 2.808 9.142.339 49.2.339 49.2l2.11-.708c7.74-22.832 23.894-40.746 23.894-40.746s13.002-12.653 23.545-9.581c10.538 3.087 6.683 39.799 6.683 39.799s-5.616 40.073 12.288 41.833c17.92 1.751 38.303-14.039 38.303-14.039s12.643-5.242 14.054 8.827zM856.845 725.918c-.539 2.848-2.194 4.503-4.972 4.962h-6.125c-2.932-.299-4.583-1.925-4.967-4.852v-4.614c-.544-5.785-3.701-9.027-9.481-9.715-6.084.688-9.401 3.93-9.94 9.715v37.091c.539 6.014 3.856 9.291 9.94 9.835 5.78-.544 8.937-3.821 9.481-9.835v-4.963c.384-2.927 2.12-4.543 5.202-4.862h5.665c2.923.394 4.658 2.01 5.197 4.862v4.963c-1.775 15.415-10.289 23.819-25.545 25.201-15.565-1.232-23.969-9.636-25.201-25.201v-37.45c1.162-15.565 9.561-24.148 25.201-25.774 15.416 1.626 23.929 10.209 25.545 25.774v4.863zm36.429-30.634c15.495 1.541 24.009 10.054 25.55 25.55v37.674c-1.616 15.41-10.135 23.814-25.55 25.196-15.406-1.462-23.845-9.855-25.311-25.196v-37.674c1.312-15.496 9.75-24.009 25.311-25.55zm9.944 63.333v-37.324c-.623-6.015-3.93-9.292-9.944-9.83-6.005.618-9.282 3.895-9.82 9.83v37.324c.538 6.015 3.815 9.222 9.82 9.611 6.014-.389 9.321-3.596 9.944-9.611zm77.837 20.003c-.075 2.703-1.461 4.05-4.159 4.05h-7.392c-3.166.154-5.361-1.192-6.598-4.05a4661.027 4661.027 0 0 1-17.101-40.686v39.883c-.309 2.997-1.925 4.618-4.858 4.853h-5.895c-2.773-.235-4.314-1.701-4.623-4.394v-78.824c.155-2.324 1.466-3.362 3.93-3.127h7.286c3.083-.235 5.357 1.122 6.818 4.039a2426.917 2426.917 0 0 0 16.987 41.161v-40.343c.314-2.852 1.93-4.468 4.862-4.857h6.01c2.693.224 4.309 1.69 4.848 4.394v56.63c-.07 6.938-.115 13.835-.115 20.692v.579zm57.529-82.417c2.848.474 4.503 2.13 4.972 4.977v6.01c-.469 3.082-2.159 4.703-5.087 4.853h-27.51c-1.541.149-2.394 1.007-2.548 2.543v14.912c.154 1.541 1.007 2.344 2.548 2.434h17.456c2.843.384 4.434 1.96 4.738 4.723v6.249c-.304 3.012-1.93 4.548-4.858 4.628h-17.336c-1.541.225-2.394 1.122-2.548 2.658v27.849c-.225 2.928-1.806 4.559-4.738 4.863h-5.895c-2.768-.15-4.314-1.581-4.618-4.284v-77.547c.07-2.699 1.421-4.329 4.044-4.868h41.38zM600.728 437.682c2.204.299 3.521 1.491 3.94 3.581v4.653c-.419 2.269-1.761 3.521-4.03 3.761h-31.51c-2.269-.24-3.521-1.492-3.755-3.761v-4.653c0-.658.174-1.257.533-1.79a805.397 805.397 0 0 0 25.959-34.642c0-1.312.03-2.593.09-3.85-.893-4.055-3.371-6.234-7.431-6.534-4.713.419-7.252 2.988-7.606 7.701v3.401c-.299 2.264-1.581 3.521-3.85 3.761h-4.563c-2.329-.305-3.521-1.581-3.581-3.851v-3.76c.952-12.054 7.486-18.677 19.6-19.874 11.994 1.256 18.558 7.879 19.695 19.874a65.995 65.995 0 0 1-.359 4.922 19.54 19.54 0 0 1-3.581 6.085 2411.992 2411.992 0 0 1-18.259 24.976h18.708zm32.58-55.853c11.995 1.251 18.588 7.874 19.785 19.869v29.091c-1.197 11.994-7.79 18.498-19.785 19.515-12.054-1.077-18.617-7.581-19.69-19.515v-29.091c1.073-11.995 7.636-18.618 19.69-19.869zm7.7 49.05v-28.642c-.478-4.713-3.042-7.312-7.7-7.791-4.713.539-7.281 3.132-7.695 7.791v28.642c.473 4.653 3.042 7.191 7.695 7.605 4.658-.414 7.222-2.952 7.7-7.605zm47.618-45.115v3.671c-.12 9.79-.179 19.575-.179 29.36v27.121c-.24 2.209-1.432 3.461-3.581 3.76h-4.743c-2.15-.239-3.372-1.401-3.671-3.491v-48.067c-2.863 1.85-5.79 3.64-8.772 5.371-.893.713-1.851 1.132-2.863 1.252-1.611-.414-2.419-1.492-2.419-3.222v-5.731c-.239-2.383.773-4.144 3.047-5.276a111.699 111.699 0 0 0 3.222-2.06 157.055 157.055 0 0 0 6.533-4.119 26.639 26.639 0 0 1 2.504-1.432c.718-.658 1.611-.982 2.688-.982h4.474c2.149.354 3.401 1.641 3.76 3.845zm50.484 16.293v29.805c-.779 6.448-3.791 11.55-9.037 15.306-6.569 3.82-13.282 4.059-20.144.718-6.504-3.821-9.845-9.551-10.025-17.186v-1.252c.12-2.329 1.282-3.641 3.492-3.94h4.658c2.144.299 3.396 1.611 3.755 3.94v.892c-.06.36-.03.719.09 1.078.838 3.815 3.192 5.964 7.072 6.443 4.059-.119 6.653-2.119 7.79-5.999.115-1.013.145-2.115.085-3.312v-8.414c-2.324 1.138-4.743 1.641-7.247 1.522h-.449c-.957 0-1.85-.055-2.683-.175a20.996 20.996 0 0 1-6.269-2.065 14.842 14.842 0 0 1-5.192-4.024c-3.162-3.462-4.862-7.551-5.102-12.264a3.832 3.832 0 0 1 0-1.162v.089-.807.628a5.142 5.142 0 0 1 0-1.347c0-1.012.12-2.024.359-3.037 1.013-4.419 3.282-8.119 6.803-11.102a17.164 17.164 0 0 1 5.641-3.221c2.144-.898 4.294-1.347 6.443-1.347h.354a13.81 13.81 0 0 0 2.24.539c2.149.239 4.239.808 6.269 1.7 1.905.958 3.695 2.24 5.371 3.851 3.102 3.401 4.893 7.461 5.366 12.174h.36v1.79-.628.807-.089.089zm-18.259 8.324c.893-.119 1.85-.449 2.863-.987 1.91-1.252 2.922-3.067 3.047-5.456.055-.958.085-1.94.085-2.958 0-.833-.085-1.671-.27-2.503-.234-1.257-.892-2.359-1.965-3.312-1.197-1.012-2.448-1.641-3.76-1.88-.539 0-1.072-.03-1.611-.09-.479.06-.957.09-1.431.09-1.137.12-2.21.538-3.222 1.252a6.425 6.425 0 0 0-2.06 2.508c-.598 1.372-.808 2.773-.628 4.205-.12 1.371-.06 2.688.179 3.94.24 1.431.923 2.568 2.06 3.401 1.072.957 2.294 1.551 3.671 1.79.474.06.952.09 1.431.09.539 0 1.072-.03 1.611-.09z" fill="#fefefe"/></svg>