<svg height="112" width="119" xmlns="http://www.w3.org/2000/svg" xmlns:xlink="http://www.w3.org/1999/xlink"><defs><path id="a" d="M51.796 52.093L39.283 39.648v-8.392h15.714c7.306 0 13.445-4.992 15.197-11.721h17.539v20.837H68.09v11.721zM35.355 65.209L26.095 56l9.26-9.209L44.615 56zM7.857 15.628c0-4.31 3.525-7.814 7.856-7.814h39.284c4.332 0 7.856 3.505 7.856 7.814 0 4.31-3.524 7.814-7.856 7.814H15.713c-4.331 0-7.856-3.505-7.856-7.814zm68.09 48.186h31.427V48.186H75.948zm-68.09 40.372h54.996V88.558H7.857zM115.23 71.628V40.372H95.589V11.721H70.194C68.442 4.99 62.304 0 54.997 0H15.713C7.05 0 0 7.01 0 15.628c0 8.617 7.049 15.628 15.713 15.628h15.714v8.392L14.987 56l16.44 16.352v8.392H0V112h70.71V80.744H39.283v-8.392l12.513-12.445h16.295v11.72z"/><filter id="b" height="103.6%" width="106.9%" x="-1.7%" y="-1.8%"><feOffset dx="4" in="SourceAlpha" result="shadowOffsetOuter1"/><feColorMatrix in="shadowOffsetOuter1" values="0 0 0 0 0.0901960784 0 0 0 0 0.882352941 0 0 0 0 0.996078431 0 0 0 1 0"/></filter><path id="d" d="M55.027 52.093L42.514 39.648v-8.392h15.713c7.307 0 13.446-4.992 15.198-11.721h17.538v20.837H71.322v11.721zM38.586 65.209L29.326 56l9.26-9.209L47.846 56zM11.087 15.628c0-4.31 3.525-7.814 7.857-7.814h39.283c4.333 0 7.857 3.505 7.857 7.814 0 4.31-3.524 7.814-7.857 7.814H18.944c-4.332 0-7.857-3.505-7.857-7.814zm68.091 48.186h31.427V48.186H79.178zm-68.09 40.372h54.996V88.558H11.087zm107.374-32.558V40.372H98.82V11.721H73.425C71.673 4.99 65.534 0 58.227 0H18.944C10.28 0 3.231 7.01 3.231 15.628c0 8.617 7.048 15.628 15.713 15.628h15.713v8.392L18.217 56l16.44 16.352v8.392H3.231V112h70.71V80.744H42.514v-8.392l12.513-12.445h16.295v11.72z"/><filter id="e" height="101.8%" width="101.7%" x="-.9%" y="-.9%"><feOffset dx="2" in="SourceAlpha" result="shadowOffsetInner1"/><feComposite in="shadowOffsetInner1" in2="SourceAlpha" k2="-1" k3="1" operator="arithmetic" result="shadowInnerInner1"/><feColorMatrix in="shadowInnerInner1" values="0 0 0 0 1 0 0 0 0 0.152941176 0 0 0 0 0.321568627 0 0 0 0.5 0"/></filter><mask id="c" fill="#fff"><use fill-rule="evenodd" xlink:href="#a"/></mask></defs><g fill="none" fill-rule="evenodd"><use fill="#000" filter="url(#b)" xlink:href="#a"/><use fill="#ff2752" xlink:href="#a"/><g fill="#000" mask="url(#c)"><use xlink:href="#d"/><use filter="url(#e)" xlink:href="#d"/></g></g></svg>