<svg height="112" viewBox="0 0 119 112" width="119" xmlns="http://www.w3.org/2000/svg" xmlns:xlink="http://www.w3.org/1999/xlink"><defs><path id="a" d="m51.7962308 52.0930233-12.513014-12.4450233v-8.392186h15.7132867c7.3066783 0 13.4453357-4.991814 15.1973671-11.7209303h17.5386469v20.8372093h-19.6416084v11.7209303zm-16.4413357 13.1157209-9.2590542-9.2087442 9.2590542-9.2087442 9.2603636 9.2087442zm-27.49825174-49.5808372c0-4.3093954 3.52501394-7.81395351 7.85664334-7.81395351h39.2832168c4.3329388 0 7.8566434 3.50455811 7.8566434 7.81395351 0 4.3093953-3.5237046 7.8139535-7.8566434 7.8139535h-39.2832168c-4.3316294 0-7.85664334-3.5045582-7.85664334-7.8139535zm68.09090904 48.1860465h31.4265736v-15.627907h-31.4265736zm-68.09090904 40.3720935h54.99650354v-15.6279075h-54.99650354zm107.37412564-32.55814v-31.255814h-19.6416082v-28.6511628h-25.3952902c-1.7520314-6.72911625-7.8906888-11.7209302-15.1973671-11.7209302h-39.2832168c-8.66456817 0-15.7132867 7.0104186-15.7132867 15.627907 0 8.6174883 7.04871853 15.627907 15.7132867 15.627907h15.7132867v8.392186l-16.4400262 16.352 16.4400262 16.352v8.392186h-31.4265734v31.255814h70.7097902v-31.255814h-31.4265734v-8.392186l12.513014-12.4450233h16.2946783v11.7209303z"/><filter id="b" height="103.6%" width="106.9%" x="-1.7%" y="-1.8%"><feOffset dx="4" dy="0" in="SourceAlpha" result="shadowOffsetOuter1"/><feColorMatrix in="shadowOffsetOuter1" type="matrix" values="0 0 0 0 0.0901960784   0 0 0 0 0.882352941   0 0 0 0 0.996078431  0 0 0 1 0"/></filter><path id="c" d="m55.027 52.0930233-12.513014-12.4450233v-8.392186h15.7132867c7.3066783 0 13.4453357-4.991814 15.1973672-11.7209303h17.5386468v20.8372093h-19.6416084v11.7209303zm-16.4413357 13.1157209-9.2590542-9.2087442 9.2590542-9.2087442 9.2603637 9.2087442zm-27.4982517-49.5808372c0-4.3093954 3.525014-7.81395351 7.8566433-7.81395351h39.2832168c4.3329388 0 7.8566434 3.50455811 7.8566434 7.81395351 0 4.3093953-3.5237046 7.8139535-7.8566434 7.8139535h-39.2832168c-4.3316293 0-7.8566433-3.5045582-7.8566433-7.8139535zm68.0909091 48.1860465h31.4265733v-15.627907h-31.4265733zm-68.0909091 40.3720935h54.9965035v-15.6279075h-54.9965035zm107.3741254-32.55814v-31.255814h-19.6416079v-28.6511628h-25.3952902c-1.7520315-6.72911625-7.8906889-11.7209302-15.1973672-11.7209302h-39.2832168c-8.6645681 0-15.71328667 7.0104186-15.71328667 15.627907 0 8.6174883 7.04871857 15.627907 15.71328667 15.627907h15.7132868v8.392186l-16.4400263 16.352 16.4400263 16.352v8.392186h-31.42657347v31.255814h70.70979017v-31.255814h-31.4265734v-8.392186l12.513014-12.4450233h16.2946783v11.7209303z"/><filter id="d" height="101.8%" width="101.7%" x="-.9%" y="-.9%"><feOffset dx="2" dy="0" in="SourceAlpha" result="shadowOffsetInner1"/><feComposite in="shadowOffsetInner1" in2="SourceAlpha" k2="-1" k3="1" operator="arithmetic" result="shadowInnerInner1"/><feColorMatrix in="shadowInnerInner1" type="matrix" values="0 0 0 0 1   0 0 0 0 0.152941176   0 0 0 0 0.321568627  0 0 0 0.5 0"/></filter><mask id="e" fill="#fff"><use fill="#fff" fill-rule="evenodd" xlink:href="#a"/></mask></defs><g fill="none" fill-rule="evenodd"><use fill="#000" filter="url(#b)" xlink:href="#a"/><use fill="#ff2752" fill-rule="evenodd" xlink:href="#a"/><g fill="#000" mask="url(#e)"><use fill-rule="evenodd" xlink:href="#c"/><use filter="url(#d)" xlink:href="#c"/></g></g></svg>