<?xml version="1.0" encoding="UTF-8"?>
<svg width="80px" height="80px" viewBox="0 0 80 80" version="1.1" xmlns="http://www.w3.org/2000/svg" xmlns:xlink="http://www.w3.org/1999/xlink">
    <!-- Generator: Sketch 49.1 (51147) - http://www.bohemiancoding.com/sketch -->
    <title>Atoms/Icons/80/Contact</title>
    <desc>Created with Sketch.</desc>
    <defs>
        <path d="M5.9351823,53.906874 L0.5,53.906874 L0.5,15.3484848 L48.9848485,15.3484848 L48.9848485,53.906874 L17.235397,53.906874 L5.9351823,63.5837847 L5.9351823,53.906874 Z M43.9848485,20.3484848 L5.5,20.3484848 L5.5,48.906874 L10.9351823,48.906874 L10.9351823,52.7192456 L15.3870802,48.906874 L43.9848485,48.906874 L43.9848485,20.3484848 Z M32.0151515,5.5 L32.0151515,9.39037048 L27.0151515,9.39037048 L27.0151515,0.5 L75.5,0.5 L75.5,39.059241 L70.0648177,39.059241 L70.0648177,48.7348536 L58.7646916,39.059241 L54.5756389,39.059241 L54.5756389,34.059241 L60.6128312,34.059241 L65.0648177,37.871207 L65.0648177,34.059241 L70.5,34.059241 L70.5,5.5 L32.0151515,5.5 Z M16.2571471,32.6969697 C17.7215894,32.6969697 18.9090909,33.8844712 18.9090909,35.3489135 C18.9090909,36.8133559 17.7215894,38 16.2571471,38 C14.7935621,38 13.6060606,36.8133559 13.6060606,35.3489135 C13.6060606,33.8844712 14.7935621,32.6969697 16.2571471,32.6969697 Z M25.8030303,32.6969697 C27.2677094,32.6969697 28.4545455,33.8844712 28.4545455,35.3489135 C28.4545455,36.8133559 27.2677094,38 25.8030303,38 C24.3383512,38 23.1515152,36.8133559 23.1515152,35.3489135 C23.1515152,33.8844712 24.3383512,32.6969697 25.8030303,32.6969697 Z M34.2874501,32.6969697 C35.7518924,32.6969697 36.9393939,33.8844712 36.9393939,35.3489135 C36.9393939,36.8133559 35.7518924,38 34.2874501,38 C32.8230078,38 31.6363636,36.8133559 31.6363636,35.3489135 C31.6363636,33.8844712 32.8230078,32.6969697 34.2874501,32.6969697 Z" id="path-1"></path>
        <filter x="-1.3%" y="-1.6%" width="105.3%" height="103.2%" filterUnits="objectBoundingBox" id="filter-3">
            <feOffset dx="2" dy="0" in="SourceAlpha" result="shadowOffsetOuter1"></feOffset>
            <feColorMatrix values="0 0 0 0 0.0901960784   0 0 0 0 0.882352941   0 0 0 0 0.996078431  0 0 0 1 0" type="matrix" in="shadowOffsetOuter1"></feColorMatrix>
        </filter>
        <filter x="-1.3%" y="-1.6%" width="105.3%" height="103.2%" filterUnits="objectBoundingBox" id="filter-4">
            <feOffset dx="2" dy="0" in="SourceAlpha" result="shadowOffsetInner1"></feOffset>
            <feComposite in="shadowOffsetInner1" in2="SourceAlpha" operator="arithmetic" k2="-1" k3="1" result="shadowInnerInner1"></feComposite>
            <feColorMatrix values="0 0 0 0 1   0 0 0 0 0.152941176   0 0 0 0 0.321568627  0 0 0 1 0" type="matrix" in="shadowInnerInner1"></feColorMatrix>
        </filter>
        <path d="M7.9351823,53.906874 L2.5,53.906874 L2.5,15.3484848 L50.9848485,15.3484848 L50.9848485,53.906874 L19.235397,53.906874 L7.9351823,63.5837847 L7.9351823,53.906874 Z M45.9848485,20.3484848 L7.5,20.3484848 L7.5,48.906874 L12.9351823,48.906874 L12.9351823,52.7192456 L17.3870802,48.906874 L45.9848485,48.906874 L45.9848485,20.3484848 Z M34.0151515,5.5 L34.0151515,9.39037048 L29.0151515,9.39037048 L29.0151515,0.5 L77.5,0.5 L77.5,39.059241 L72.0648177,39.059241 L72.0648177,48.7348536 L60.7646916,39.059241 L56.5756389,39.059241 L56.5756389,34.059241 L62.6128312,34.059241 L67.0648177,37.871207 L67.0648177,34.059241 L72.5,34.059241 L72.5,5.5 L34.0151515,5.5 Z M18.2571471,32.6969697 C19.7215894,32.6969697 20.9090909,33.8844712 20.9090909,35.3489135 C20.9090909,36.8133559 19.7215894,38 18.2571471,38 C16.7935621,38 15.6060606,36.8133559 15.6060606,35.3489135 C15.6060606,33.8844712 16.7935621,32.6969697 18.2571471,32.6969697 Z M27.8030303,32.6969697 C29.2677094,32.6969697 30.4545455,33.8844712 30.4545455,35.3489135 C30.4545455,36.8133559 29.2677094,38 27.8030303,38 C26.3383512,38 25.1515152,36.8133559 25.1515152,35.3489135 C25.1515152,33.8844712 26.3383512,32.6969697 27.8030303,32.6969697 Z M36.2874501,32.6969697 C37.7518924,32.6969697 38.9393939,33.8844712 38.9393939,35.3489135 C38.9393939,36.8133559 37.7518924,38 36.2874501,38 C34.8230078,38 33.6363636,36.8133559 33.6363636,35.3489135 C33.6363636,33.8844712 34.8230078,32.6969697 36.2874501,32.6969697 Z" id="path-5"></path>
        <filter x="-0.7%" y="-0.8%" width="101.3%" height="101.6%" filterUnits="objectBoundingBox" id="filter-6">
            <feOffset dx="1" dy="0" in="SourceAlpha" result="shadowOffsetInner1"></feOffset>
            <feComposite in="shadowOffsetInner1" in2="SourceAlpha" operator="arithmetic" k2="-1" k3="1" result="shadowInnerInner1"></feComposite>
            <feColorMatrix values="0 0 0 0 1   0 0 0 0 0.152941176   0 0 0 0 0.321568627  0 0 0 0.5 0" type="matrix" in="shadowInnerInner1"></feColorMatrix>
        </filter>
    </defs>
    <g id="Atoms/Icons/80/Contact" stroke="none" stroke-width="1" fill="none" fill-rule="evenodd">
        <g id="Contact-icon" transform="translate(2.000000, 8.000000)">
            <mask id="mask-2" fill="white">
                <use xlink:href="#path-1"></use>
            </mask>
            <g id="Combined-Shape" fill-rule="nonzero">
                <use fill="black" fill-opacity="1" filter="url(#filter-3)" xlink:href="#path-1"></use>
                <use fill="#FF2752" fill-rule="evenodd" xlink:href="#path-1"></use>
                <use fill="black" fill-opacity="1" filter="url(#filter-4)" xlink:href="#path-1"></use>
            </g>
            <g id="Combined-Shape" mask="url(#mask-2)" fill-rule="nonzero">
                <use fill="#000000" fill-rule="evenodd" xlink:href="#path-5"></use>
                <use fill="black" fill-opacity="1" filter="url(#filter-6)" xlink:href="#path-5"></use>
            </g>
        </g>
    </g>
</svg>