<svg height="80" width="80" xmlns="http://www.w3.org/2000/svg" xmlns:xlink="http://www.w3.org/1999/xlink"><defs><path id="a" d="M5.935 53.907H.5V15.348h48.485v38.559h-31.75l-11.3 9.677zm38.05-33.559H5.5v28.559h5.435v3.812l4.452-3.812h28.598zM32.015 5.5v3.89h-5V.5H75.5v38.56h-5.435v9.675l-11.3-9.676h-4.19v-5h6.038l4.452 3.812V34.06H70.5V5.5zM16.257 32.697a2.652 2.652 0 1 1 0 5.304 2.652 2.652 0 0 1 0-5.304zm9.546 0a2.652 2.652 0 1 1 0 5.303 2.652 2.652 0 0 1 0-5.303zm8.484 0a2.652 2.652 0 1 1 0 5.304 2.652 2.652 0 0 1 0-5.304z"/><filter id="b" height="103.2%" width="105.3%" x="-1.3%" y="-1.6%"><feOffset dx="2" in="SourceAlpha" result="shadowOffsetOuter1"/><feColorMatrix in="shadowOffsetOuter1" values="0 0 0 0 0.0901960784 0 0 0 0 0.882352941 0 0 0 0 0.996078431 0 0 0 1 0"/></filter><filter id="c" height="103.2%" width="105.3%" x="-1.3%" y="-1.6%"><feOffset dx="2" in="SourceAlpha" result="shadowOffsetInner1"/><feComposite in="shadowOffsetInner1" in2="SourceAlpha" k2="-1" k3="1" operator="arithmetic" result="shadowInnerInner1"/><feColorMatrix in="shadowInnerInner1" values="0 0 0 0 1 0 0 0 0 0.152941176 0 0 0 0 0.321568627 0 0 0 1 0"/></filter><path id="e" d="M7.935 53.907H2.5V15.348h48.485v38.559h-31.75l-11.3 9.677zm38.05-33.559H7.5v28.559h5.435v3.812l4.452-3.812h28.598zM34.015 5.5v3.89h-5V.5H77.5v38.56h-5.435v9.675l-11.3-9.676h-4.19v-5h6.038l4.452 3.812V34.06H72.5V5.5zM18.257 32.697a2.652 2.652 0 1 1 0 5.304 2.652 2.652 0 0 1 0-5.304zm9.546 0a2.652 2.652 0 1 1 0 5.303 2.652 2.652 0 0 1 0-5.303zm8.484 0a2.652 2.652 0 1 1 0 5.304 2.652 2.652 0 0 1 0-5.304z"/><filter id="f" height="101.6%" width="101.3%" x="-.7%" y="-.8%"><feOffset dx="1" in="SourceAlpha" result="shadowOffsetInner1"/><feComposite in="shadowOffsetInner1" in2="SourceAlpha" k2="-1" k3="1" operator="arithmetic" result="shadowInnerInner1"/><feColorMatrix in="shadowInnerInner1" values="0 0 0 0 1 0 0 0 0 0.152941176 0 0 0 0 0.321568627 0 0 0 0.5 0"/></filter><mask id="d" fill="#fff"><use fill-rule="evenodd" xlink:href="#a"/></mask></defs><g fill="none" transform="translate(2 8)"><use fill="#000" filter="url(#b)" xlink:href="#a"/><use fill="#ff2752" fill-rule="evenodd" xlink:href="#a"/><g fill="#000"><use filter="url(#c)" xlink:href="#a"/><g mask="url(#d)"><use fill-rule="evenodd" xlink:href="#e"/><use filter="url(#f)" xlink:href="#e"/></g></g></g></svg>