<svg height="128" width="123" xmlns="http://www.w3.org/2000/svg" xmlns:xlink="http://www.w3.org/1999/xlink"><defs><path id="a" d="M66.436 59.317c6.869 0 12.46 5.604 12.46 12.488 0 6.884-5.591 12.488-12.46 12.488s-12.46-5.604-12.46-12.488c0-6.884 5.592-12.488 12.46-12.488m-18.69 12.488c0-10.334 8.38-18.732 18.69-18.732s18.69 8.398 18.69 18.732-8.38 18.732-18.69 18.732-18.69-8.398-18.69-18.732zm50.417 46.376a33.031 33.031 0 0 1 1.851 6.073l.764 3.746H32.095l.763-3.746a33.031 33.031 0 0 1 1.852-6.073H3.436l.765-3.73c2.383-11.786 12.834-20.34 24.856-20.34 7.288 0 14.003 3.153 18.69 8.258a33.997 33.997 0 0 1 18.689-5.589 33.99 33.99 0 0 1 18.69 5.589c4.687-5.105 11.401-8.258 18.689-8.258 12.023 0 22.474 8.554 24.857 20.34l.764 3.73zm-58.173 3.575h52.893a26.096 26.096 0 0 0-1.558-3.575 28.152 28.152 0 0 0-4.407-6.243c-.142-.157-.298-.313-.452-.469a28.033 28.033 0 0 0-4.97-4.027 27.902 27.902 0 0 0-15.06-4.418 27.901 27.901 0 0 0-15.06 4.418 28.033 28.033 0 0 0-4.97 4.027c-.154.156-.31.312-.451.469a28.152 28.152 0 0 0-4.408 6.243 26.096 26.096 0 0 0-1.557 3.575zm-28.517-9.818h26.555a33.917 33.917 0 0 1 4.83-5.698c-3.522-3.653-8.46-5.885-13.801-5.885-7.74 0-14.608 4.683-17.584 11.583zm92.342-11.583c-5.34 0-10.278 2.232-13.8 5.885a33.917 33.917 0 0 1 4.83 5.698H121.4c-2.976-6.9-9.845-11.583-17.585-11.583zM89.798 76.488c0-7.743 6.292-14.049 14.017-14.049s14.018 6.306 14.018 14.049-6.293 14.049-14.018 14.049c-7.725 0-14.017-6.307-14.017-14.05zm21.805 0c0-4.308-3.489-7.805-7.788-7.805-4.298 0-7.787 3.497-7.787 7.805s3.489 7.805 7.787 7.805c4.299 0 7.788-3.497 7.788-7.805zM29.057 90.537c-7.725 0-14.017-6.307-14.017-14.05S21.332 62.44 29.057 62.44s14.017 6.306 14.017 14.049-6.292 14.049-14.017 14.049zm0-21.854c-4.298 0-7.787 3.497-7.787 7.805s3.489 7.805 7.787 7.805c4.299 0 7.788-3.497 7.788-7.805s-3.49-7.805-7.788-7.805zm2.446-11.192V43.489H27.5V19.184h34.264V43.49H45.473zm2.227-32.063v11.817h4.002v5.167l5.171-5.167h12.631V25.428zm46.723 25.819V34.34h-6.23V0h49.84v34.341H97.32zm0-45.003v21.854h6.23v8.07l8.052-8.07h23.098V6.244zm9.345 14.049c-1.72 0-3.115-1.399-3.115-3.122s1.396-3.122 3.115-3.122 3.115 1.398 3.115 3.122-1.395 3.122-3.115 3.122zm9.345 0c-1.72 0-3.115-1.399-3.115-3.122s1.396-3.122 3.115-3.122 3.115 1.398 3.115 3.122-1.396 3.122-3.115 3.122zm9.345 0c-1.72 0-3.115-1.399-3.115-3.122s1.395-3.122 3.115-3.122 3.115 1.398 3.115 3.122-1.396 3.122-3.115 3.122z"/><filter id="b" height="101.6%" width="101.6%" x="-.8%" y="-.8%"><feOffset dx="2" in="SourceAlpha" result="shadowOffsetInner1"/><feComposite in="shadowOffsetInner1" in2="SourceAlpha" k2="-1" k3="1" operator="arithmetic" result="shadowInnerInner1"/><feColorMatrix in="shadowInnerInner1" values="0 0 0 0 1 0 0 0 0 0.152941176 0 0 0 0 0.321568627 0 0 0 0.5 0"/></filter></defs><g fill="none" fill-rule="evenodd"><path d="M-196-2560h1280v4865H-196z" fill="#fff"/><g fill="#000" transform="translate(-3)"><use xlink:href="#a"/><use filter="url(#b)" xlink:href="#a"/></g></g></svg>