<svg height="128" viewBox="0 0 123 128" width="123" xmlns="http://www.w3.org/2000/svg" xmlns:xlink="http://www.w3.org/1999/xlink"><defs><path id="a" d="m66.4363636 59.3170732c6.8683947 0 12.459673 5.6039024 12.459673 12.4878048 0 6.8839025-5.5912783 12.4878049-12.459673 12.4878049s-12.4596729-5.6039024-12.4596729-12.4878049c0-6.8839024 5.5912782-12.4878048 12.4596729-12.4878048m-18.6895094 12.4878048c0-10.3336585 8.3791301-18.7317073 18.6895094-18.7317073 10.3103794 0 18.6895094 8.3980488 18.6895094 18.7317073 0 10.3336586-8.37913 18.7317074-18.6895094 18.7317074-10.3103793 0-18.6895094-8.3980488-18.6895094-18.7317074zm50.4157304 46.376585c.8083213 1.93561 1.4172878 3.964878 1.8518184 6.072196l.763155 3.746341h-68.6823892l.763155-3.746341c.4345311-2.107318 1.0434976-4.136586 1.8518189-6.072196h-31.27377906l.76471242-3.730731c2.38291245-11.785366 12.83346314-20.3395125 24.85549004-20.3395125 7.2889087 0 14.0031149 3.1531707 18.6895094 8.2575605 5.4215152-3.5590239 11.8693959-5.5882922 18.6895094-5.5882922 6.8216709 0 13.2695517 2.0292683 18.6895094 5.5882922 4.6879519-5.1043898 11.4021582-8.2575605 18.6895097-8.2575605 12.023584 0 22.474135 8.5541465 24.857047 20.3395125l.764713 3.730731zm-58.1726555 3.574635h52.8928691c-.4360886-1.233171-.9500501-2.435122-1.5574591-3.574635-1.1852264-2.294634-2.6803872-4.386341-4.4076093-6.243902-.1417288-.156098-.2974747-.312195-.4516632-.468293-1.4951607-1.529756-3.161642-2.872195-4.969852-4.027317-4.3920347-2.809756-9.5783736-4.417561-15.0606297-4.417561-5.4806986 0-10.6670375 1.607805-15.0590722 4.417561-1.80821 1.155122-3.4746913 2.497561-4.969852 4.027317-.1541885.156098-.3099344.312195-.4516632.468293-1.7272221 1.857561-3.2223829 3.949268-4.4076093 6.243902-.607409 1.139513-1.1213705 2.341464-1.5574591 3.574635zm-28.5170764-9.818537h26.5546779c1.4032707-2.076098 3.0230282-3.996098 4.8296807-5.697561-3.521415-3.652683-8.4585604-5.884878-13.8006452-5.884878-7.7390143 0-14.607409 4.682927-17.5837134 11.582439zm92.3417513-11.582439c-5.3405276 0-10.277673 2.232195-13.7990881 5.884878 1.8066526 1.701463 3.4264101 3.621463 4.8296808 5.697561h26.5546783c-2.976305-6.899512-9.844699-11.582439-17.585271-11.582439zm-14.0163536-23.8673171c0-7.742439 6.2921348-14.0487805 14.0171316-14.0487805 7.724998 0 14.017132 6.3063415 14.017132 14.0487805s-6.292134 14.0487805-14.017132 14.0487805c-7.7249968 0-14.0171316-6.3063415-14.0171316-14.0487805zm21.8044276 0c0-4.3082927-3.488708-7.8048781-7.787296-7.8048781-4.2985867 0-7.7872951 3.4965854-7.7872951 7.8048781s3.4887084 7.804878 7.7872951 7.804878c4.298588 0 7.787296-3.4965853 7.787296-7.804878zm-82.5453332 14.0487805c-7.7249972 0-14.017132-6.3063415-14.017132-14.0487805s6.2921348-14.0487805 14.017132-14.0487805c7.7249973 0 14.0171321 6.3063415 14.0171321 14.0487805s-6.2921348 14.0487805-14.0171321 14.0487805zm0-21.8536586c-4.2985871 0-7.7872955 3.4965854-7.7872955 7.8048781s3.4887084 7.804878 7.7872955 7.804878c4.2985872 0 7.7872956-3.4965853 7.7872956-7.804878s-3.4887084-7.8048781-7.7872956-7.8048781zm2.4452108-11.1921951v-14.0019512h-4.0026699v-24.3043903h34.2641006v24.3043903h-16.2910224zm2.2271666-32.062439v11.8165853h4.0026699v5.1668293l5.1707643-5.1668293h12.6309934v-11.8165853zm46.7237735 25.8185366v-16.9053659h-6.2298365v-34.3414634h49.8386918v34.3414634h-26.7415731zm0-45.00292686v21.85365856h6.2298365v8.0702439l8.0520636-8.0702439h23.0971182v-21.85365856zm9.3447547 14.04878046c-1.7194349 0-3.1149182-1.3986341-3.1149182-3.1219512s1.3954833-3.1219512 3.1149182-3.1219512 3.1149182 1.3986341 3.1149182 3.1219512-1.3954833 3.1219512-3.1149182 3.1219512zm9.3447547 0c-1.7194349 0-3.1149182-1.3986341-3.1149182-3.1219512s1.3954833-3.1219512 3.1149182-3.1219512 3.1149179 1.3986341 3.1149179 3.1219512-1.395483 3.1219512-3.1149179 3.1219512zm9.3447549 0c-1.719435 0-3.114918-1.3986341-3.114918-3.1219512s1.395483-3.1219512 3.114918-3.1219512 3.114918 1.3986341 3.114918 3.1219512-1.395483 3.1219512-3.114918 3.1219512z"/><filter id="b" height="101.6%" width="101.6%" x="-.8%" y="-.8%"><feOffset dx="2" dy="0" in="SourceAlpha" result="shadowOffsetInner1"/><feComposite in="shadowOffsetInner1" in2="SourceAlpha" k2="-1" k3="1" operator="arithmetic" result="shadowInnerInner1"/><feColorMatrix in="shadowInnerInner1" type="matrix" values="0 0 0 0 1   0 0 0 0 0.152941176   0 0 0 0 0.321568627  0 0 0 0.5 0"/></filter></defs><g fill="none" fill-rule="evenodd"><path d="m-196-2560h1280v4865h-1280z" fill="#fff"/><g fill="#000" transform="translate(-3)"><use fill-rule="evenodd" xlink:href="#a"/><use filter="url(#b)" xlink:href="#a"/></g></g></svg>