<svg height="112" viewBox="0 0 146 112" width="146" xmlns="http://www.w3.org/2000/svg" xmlns:xlink="http://www.w3.org/1999/xlink"><defs><path id="a" d="m40.3639411 105.182569c3.2430203-7.5332619 10.7606988-12.6599703 19.2197895-12.6599703 8.4573883 0 15.9750667 5.1267084 19.218087 12.6599703zm19.2197895-30.1909949c-4.693442 0-8.5118643-3.8228746-8.5118643-8.5217892 0-4.6989145 3.8184223-8.5217891 8.5118643-8.5217891 4.6917395 0 8.5118642 3.8228746 8.5118642 8.5217891 0 4.6989146-3.8201247 8.5217892-8.5118642 8.5217892zm83.4162694-35.7915144v61.3568823h-58.8884815c1.2001729 2.277022 2.1109423 4.738114 2.6420827 7.357712l.8256508 4.085346h-55.9927453l.8273532-4.085346c2.6029281-12.8679013 14.0292547-22.2094866 27.1698707-22.2094866 7.4887381 0 14.4139908 3.0405744 19.4734429 8.0343428h57.1333355v-47.7220192h-20.428475v3.4087156h-27.2379651v-3.4087156h-20.4284741v7.7071061c4.1010162 2.7559466 6.8094914 7.4395219 6.8094914 12.7451878 0 8.4587279-6.8741816 15.3392205-15.3213556 15.3392205-8.4488765 0-15.3213557-6.8804926-15.3213557-15.3392205s6.8724792-15.3392204 15.3213557-15.3392204c.575402 0 1.1422921.0392002 1.7023728.1005571v-12.0310619h30.6427112v-3.4087157h6.8094914v3.4087157h6.809491v-3.4087157h6.809492v3.4087157zm-38.774606 41.6971143-11.351422-9.7608573-8.2922581 7.7241497-4.638966-4.9903598 12.7490702-11.8776697 11.4433499 9.8409621 15.864413-14.2007094 4.538526 5.082395zm-56.5589543-43.4013017v13.6348626l-18.1592112-13.6348626h-29.5072285v-37.4958723h54.4759311v37.4958723zm-6.8094914 0v-6.8174314h6.8094914v-23.86100958h-40.85694832v23.86100958h24.96870252zm-3.4047457-22.1566518c1.8794196 0 3.4047457 1.5271046 3.4047457 3.4087156 0 1.8816111-1.5253261 3.4087157-3.4047457 3.4087157s-3.4047457-1.5271046-3.4047457-3.4087157c0-1.881611 1.5253261-3.4087156 3.4047457-3.4087156zm-10.2142371 0c1.8794197 0 3.4047457 1.5271046 3.4047457 3.4087156 0 1.8816111-1.525326 3.4087157-3.4047457 3.4087157-1.8794196 0-3.4047457-1.5271046-3.4047457-3.4087157 0-1.881611 1.5253261-3.4087156 3.4047457-3.4087156zm-10.214237 0c1.8794196 0 3.4047457 1.5271046 3.4047457 3.4087156 0 1.8816111-1.5253261 3.4087157-3.4047457 3.4087157-1.8794197 0-3.4047457-1.5271046-3.4047457-3.4087157 0-1.881611 1.525326-3.4087156 3.4047457-3.4087156z"/><filter id="b" height="102.7%" width="104.2%" x="-1%" y="-1.3%"><feOffset dx="3" dy="0" in="SourceAlpha" result="shadowOffsetOuter1"/><feColorMatrix in="shadowOffsetOuter1" type="matrix" values="0 0 0 0 0.0901960784   0 0 0 0 0.882352941   0 0 0 0 0.996078431  0 0 0 1 0"/></filter><path id="c" d="m43.3639411 105.182569c3.2430203-7.5332619 10.7606988-12.6599703 19.2197895-12.6599703 8.4573883 0 15.9750667 5.1267084 19.218087 12.6599703zm19.2197895-30.1909949c-4.693442 0-8.5118643-3.8228746-8.5118643-8.5217892 0-4.6989145 3.8184223-8.5217891 8.5118643-8.5217891 4.6917395 0 8.5118642 3.8228746 8.5118642 8.5217891 0 4.6989146-3.8201247 8.5217892-8.5118642 8.5217892zm83.4162694-35.7915144v61.3568823h-58.8884815c1.2001729 2.277022 2.1109423 4.738114 2.6420827 7.357712l.8256508 4.085346h-55.9927453l.8273532-4.085346c2.6029281-12.8679013 14.0292547-22.2094866 27.1698707-22.2094866 7.4887381 0 14.4139908 3.0405744 19.4734429 8.0343428h57.1333355v-47.7220192h-20.428475v3.4087156h-27.2379651v-3.4087156h-20.4284741v7.7071061c4.1010162 2.7559466 6.8094914 7.4395219 6.8094914 12.7451878 0 8.4587279-6.8741816 15.3392205-15.3213556 15.3392205-8.4488765 0-15.3213557-6.8804926-15.3213557-15.3392205s6.8724792-15.3392204 15.3213557-15.3392204c.575402 0 1.1422921.0392002 1.7023728.1005571v-12.0310619h30.6427112v-3.4087157h6.8094914v3.4087157h6.809491v-3.4087157h6.809492v3.4087157zm-38.774606 41.6971143-11.351422-9.7608573-8.2922581 7.7241497-4.638966-4.9903598 12.7490702-11.8776697 11.4433499 9.8409621 15.864413-14.2007094 4.538526 5.082395zm-56.5589543-43.4013017v13.6348626l-18.1592112-13.6348626h-29.5072285v-37.4958723h54.4759311v37.4958723zm-6.8094914 0v-6.8174314h6.8094914v-23.86100958h-40.85694832v23.86100958h24.96870252zm-3.4047457-22.1566518c1.8794196 0 3.4047457 1.5271046 3.4047457 3.4087156 0 1.8816111-1.5253261 3.4087157-3.4047457 3.4087157s-3.4047457-1.5271046-3.4047457-3.4087157c0-1.881611 1.5253261-3.4087156 3.4047457-3.4087156zm-10.2142371 0c1.8794197 0 3.4047457 1.5271046 3.4047457 3.4087156 0 1.8816111-1.525326 3.4087157-3.4047457 3.4087157-1.8794196 0-3.4047457-1.5271046-3.4047457-3.4087157 0-1.881611 1.5253261-3.4087156 3.4047457-3.4087156zm-10.214237 0c1.8794196 0 3.4047457 1.5271046 3.4047457 3.4087156 0 1.8816111-1.5253261 3.4087157-3.4047457 3.4087157-1.8794197 0-3.4047457-1.5271046-3.4047457-3.4087157 0-1.881611 1.525326-3.4087156 3.4047457-3.4087156z"/><filter id="d" height="101.8%" width="101.4%" x="-.7%" y="-.9%"><feOffset dx="2" dy="0" in="SourceAlpha" result="shadowOffsetInner1"/><feComposite in="shadowOffsetInner1" in2="SourceAlpha" k2="-1" k3="1" operator="arithmetic" result="shadowInnerInner1"/><feColorMatrix in="shadowInnerInner1" type="matrix" values="0 0 0 0 1   0 0 0 0 0.152941176   0 0 0 0 0.321568627  0 0 0 0.5 0"/></filter><mask id="e" fill="#fff"><use fill="#fff" fill-rule="evenodd" xlink:href="#a"/></mask></defs><g fill="none" fill-rule="evenodd"><use fill="#000" filter="url(#b)" xlink:href="#a"/><use fill="#ff2752" fill-rule="evenodd" xlink:href="#a"/><g fill="#000" mask="url(#e)"><use fill-rule="evenodd" xlink:href="#c"/><use filter="url(#d)" xlink:href="#c"/></g></g></svg>