<svg height="112" width="146" xmlns="http://www.w3.org/2000/svg" xmlns:xlink="http://www.w3.org/1999/xlink"><defs><path id="a" d="M40.364 105.183c3.243-7.534 10.76-12.66 19.22-12.66 8.457 0 15.975 5.126 19.218 12.66zm19.22-30.191c-4.694 0-8.512-3.823-8.512-8.522 0-4.7 3.818-8.522 8.512-8.522 4.691 0 8.512 3.823 8.512 8.522s-3.82 8.522-8.512 8.522zM143 39.2v61.357H84.112a27.466 27.466 0 0 1 2.642 7.358l.825 4.085H31.587l.827-4.085c2.603-12.868 14.03-22.21 27.17-22.21 7.488 0 14.414 3.04 19.473 8.035h57.134V46.017h-20.429v3.41H88.524v-3.41H68.096v7.708c4.1 2.756 6.81 7.44 6.81 12.745 0 8.459-6.875 15.339-15.322 15.339-8.45 0-15.322-6.88-15.322-15.34s6.873-15.338 15.322-15.338c.575 0 1.142.039 1.702.1v-12.03H91.93v-3.41h6.81v3.41h6.809v-3.41h6.81v3.41zm-38.775 41.697l-11.351-9.76-8.292 7.723-4.64-4.99 12.75-11.878 11.443 9.841L120 57.633l4.538 5.082zM47.666 37.496V51.13L29.507 37.496H0V0h54.476v37.496zm-6.81 0v-6.818h6.81V6.818H6.81v23.86h24.97zm-3.404-22.157a3.408 3.408 0 0 1 3.405 3.409c0 1.882-1.525 3.409-3.405 3.409s-3.405-1.527-3.405-3.41a3.408 3.408 0 0 1 3.405-3.408zm-10.214 0a3.408 3.408 0 0 1 3.405 3.409 3.408 3.408 0 0 1-3.405 3.409 3.408 3.408 0 0 1-3.405-3.41 3.408 3.408 0 0 1 3.405-3.408zm-10.214 0a3.408 3.408 0 0 1 3.404 3.409 3.408 3.408 0 0 1-3.404 3.409 3.408 3.408 0 0 1-3.405-3.41 3.408 3.408 0 0 1 3.405-3.408z"/><filter id="b" height="102.7%" width="104.2%" x="-1%" y="-1.3%"><feOffset dx="3" in="SourceAlpha" result="shadowOffsetOuter1"/><feColorMatrix in="shadowOffsetOuter1" values="0 0 0 0 0.0901960784 0 0 0 0 0.882352941 0 0 0 0 0.996078431 0 0 0 1 0"/></filter><path id="d" d="M43.364 105.183c3.243-7.534 10.76-12.66 19.22-12.66 8.457 0 15.975 5.126 19.218 12.66zm19.22-30.191c-4.694 0-8.512-3.823-8.512-8.522 0-4.7 3.818-8.522 8.512-8.522 4.691 0 8.512 3.823 8.512 8.522s-3.82 8.522-8.512 8.522zM146 39.2v61.357H87.112a27.466 27.466 0 0 1 2.642 7.358l.825 4.085H34.587l.827-4.085c2.603-12.868 14.03-22.21 27.17-22.21 7.488 0 14.414 3.04 19.473 8.035h57.134V46.017h-20.429v3.41H91.524v-3.41H71.096v7.708c4.1 2.756 6.81 7.44 6.81 12.745 0 8.459-6.875 15.339-15.322 15.339-8.45 0-15.322-6.88-15.322-15.34s6.873-15.338 15.322-15.338c.575 0 1.142.039 1.702.1v-12.03H94.93v-3.41h6.81v3.41h6.809v-3.41h6.81v3.41zm-38.775 41.697l-11.351-9.76-8.292 7.723-4.64-4.99 12.75-11.878 11.443 9.841L123 57.633l4.538 5.082zM50.666 37.496V51.13L32.507 37.496H3V0h54.476v37.496zm-6.81 0v-6.818h6.81V6.818H9.81v23.86h24.97zm-3.404-22.157a3.408 3.408 0 0 1 3.405 3.409c0 1.882-1.525 3.409-3.405 3.409s-3.405-1.527-3.405-3.41a3.408 3.408 0 0 1 3.405-3.408zm-10.214 0a3.408 3.408 0 0 1 3.405 3.409 3.408 3.408 0 0 1-3.405 3.409 3.408 3.408 0 0 1-3.405-3.41 3.408 3.408 0 0 1 3.405-3.408zm-10.214 0a3.408 3.408 0 0 1 3.404 3.409 3.408 3.408 0 0 1-3.404 3.409 3.408 3.408 0 0 1-3.405-3.41 3.408 3.408 0 0 1 3.405-3.408z"/><filter id="e" height="101.8%" width="101.4%" x="-.7%" y="-.9%"><feOffset dx="2" in="SourceAlpha" result="shadowOffsetInner1"/><feComposite in="shadowOffsetInner1" in2="SourceAlpha" k2="-1" k3="1" operator="arithmetic" result="shadowInnerInner1"/><feColorMatrix in="shadowInnerInner1" values="0 0 0 0 1 0 0 0 0 0.152941176 0 0 0 0 0.321568627 0 0 0 0.5 0"/></filter><mask id="c" fill="#fff"><use fill-rule="evenodd" xlink:href="#a"/></mask></defs><g fill="none" fill-rule="evenodd"><use fill="#000" filter="url(#b)" xlink:href="#a"/><use fill="#ff2752" xlink:href="#a"/><g fill="#000" mask="url(#c)"><use xlink:href="#d"/><use filter="url(#e)" xlink:href="#d"/></g></g></svg>