<svg height="140" width="142" xmlns="http://www.w3.org/2000/svg" xmlns:xlink="http://www.w3.org/1999/xlink"><defs><path id="b" d="M44.348 52.658c0-12.668 11.285-22.72 24.448-22.72 12.994 0 24.157 9.796 24.442 22.233l8.501 26.501h-8.495v3.616c0 6.59-2.98 9.553-9.552 9.553h-3.689v16.46H44.348zm6.528 0v49.707h23.93v-16.46h9.552c3.358 0 3.689-.33 3.689-3.617v-9.553h6.288L88.047 53.13v-.47c0-9.21-8.505-16.785-18.585-16.785s-18.586 7.575-18.586 16.784zm62.514 63.505c10.817-10.738 17.52-25.044 18.873-40.286l5.504.504c-1.472 16.575-8.758 32.13-20.514 43.8-11.776 11.688-27.286 18.726-43.672 19.82l-.361-5.607c15.07-1.004 29.338-7.48 40.17-18.231zM63.478 5.542C32.665 8.088 8.283 32.419 5.504 63.396L0 62.896C3.022 29.22 29.527 2.769 63.026 0zm68.859 59.744a64.532 64.532 0 0 0-18.324-40.498C103.318 13.912 89.123 7.235 74.044 5.984L74.5.406c16.395 1.36 31.827 8.62 43.453 20.44a70.151 70.151 0 0 1 19.916 44.028zM5.518 74.843c2.285 30.978 26.295 55.687 57.09 58.749l-.545 5.527C28.584 135.788 2.483 108.928 0 75.253zm74.196-9.725l-2.361 2.39-4.1-2.766a9.361 9.361 0 0 1-1.92.805l-.968 4.893h-3.339l-.967-4.893a9.361 9.361 0 0 1-1.921-.805l-4.1 2.767-2.36-2.39 2.732-4.152a9.612 9.612 0 0 1-.795-1.945l-4.832-.98v-3.38l4.832-.98c.197-.682.461-1.334.795-1.945l-2.732-4.15 2.36-2.391 4.1 2.766a9.361 9.361 0 0 1 1.92-.804l.968-4.894h3.34l.966 4.894c.674.2 1.318.466 1.922.804l4.099-2.766 2.36 2.39-2.732 4.151c.334.61.598 1.263.795 1.945l4.833.98v3.38l-4.833.98a9.612 9.612 0 0 1-.795 1.945zm-11.018-4.821c2.148 0 3.895-1.77 3.895-3.945s-1.747-3.944-3.895-3.944-3.896 1.769-3.896 3.944 1.747 3.945 3.896 3.945z"/><filter id="a" height="102.9%" width="105.8%" x="-1.5%" y="-1.4%"><feOffset dx="4" in="SourceAlpha" result="shadowOffsetOuter1"/><feColorMatrix in="shadowOffsetOuter1" values="0 0 0 0 0.0901960784 0 0 0 0 0.882352941 0 0 0 0 0.996078431 0 0 0 1 0"/></filter><filter id="c" height="102.9%" width="105.8%" x="-1.5%" y="-1.4%"><feOffset dx="4" in="SourceAlpha" result="shadowOffsetInner1"/><feComposite in="shadowOffsetInner1" in2="SourceAlpha" k2="-1" k3="1" operator="arithmetic" result="shadowInnerInner1"/><feColorMatrix in="shadowInnerInner1" values="0 0 0 0 1 0 0 0 0 0.152941176 0 0 0 0 0.321568627 0 0 0 1 0"/></filter><path id="d" d="M46.087 52.658c0-12.668 11.285-22.72 24.449-22.72 12.994 0 24.156 9.796 24.442 22.233l8.5 26.501h-8.495v3.616c0 6.59-2.98 9.553-9.552 9.553h-3.689v16.46H46.087zm6.528 0v49.707h23.93v-16.46h9.552c3.358 0 3.689-.33 3.689-3.617v-9.553h6.288L89.786 53.13v-.47c0-9.21-8.505-16.785-18.585-16.785s-18.586 7.575-18.586 16.784zm62.515 63.505c10.816-10.738 17.519-25.044 18.872-40.286l5.504.504c-1.472 16.575-8.757 32.13-20.514 43.8-11.776 11.688-27.285 18.726-43.672 19.82l-.361-5.607c15.07-1.004 29.338-7.48 40.17-18.231zM65.217 5.542C34.404 8.088 10.022 32.419 7.243 63.396l-5.504-.5C4.761 29.22 31.266 2.769 64.765 0zm68.859 59.744a64.531 64.531 0 0 0-18.324-40.498C105.057 13.912 90.862 7.235 75.783 5.984l.455-5.578c16.396 1.36 31.827 8.62 43.453 20.44a70.151 70.151 0 0 1 19.916 44.028zM7.257 74.843c2.285 30.978 26.295 55.687 57.09 58.749l-.545 5.527c-33.478-3.331-59.58-30.191-62.063-63.866zm74.196-9.725l-2.361 2.39-4.1-2.766a9.361 9.361 0 0 1-1.92.805l-.968 4.893h-3.339l-.967-4.893a9.361 9.361 0 0 1-1.921-.805l-4.1 2.767-2.36-2.39 2.732-4.152a9.612 9.612 0 0 1-.794-1.945l-4.833-.98v-3.38l4.833-.98c.197-.682.46-1.334.794-1.945l-2.732-4.15 2.36-2.391 4.1 2.766a9.361 9.361 0 0 1 1.921-.804l.967-4.894h3.34l.967 4.894c.673.2 1.317.466 1.92.804l4.1-2.766 2.36 2.39-2.732 4.151c.334.61.598 1.263.795 1.945l4.833.98v3.38l-4.833.98a9.612 9.612 0 0 1-.795 1.945zm-11.018-4.821c2.148 0 3.895-1.77 3.895-3.945s-1.747-3.944-3.895-3.944-3.896 1.769-3.896 3.944 1.748 3.945 3.896 3.945z"/><filter id="e" height="101.4%" width="101.5%" x="-.7%" y="-.7%"><feOffset dx="2" in="SourceAlpha" result="shadowOffsetInner1"/><feComposite in="shadowOffsetInner1" in2="SourceAlpha" k2="-1" k3="1" operator="arithmetic" result="shadowInnerInner1"/><feColorMatrix in="shadowInnerInner1" values="0 0 0 0 1 0 0 0 0 0.152941176 0 0 0 0 0.321568627 0 0 0 0.5 0"/></filter></defs><g fill="none" fill-rule="evenodd"><use fill="#000" filter="url(#a)" xlink:href="#b"/><use fill="#ff2752" xlink:href="#b"/><g fill="#000"><use filter="url(#c)" xlink:href="#b"/><use xlink:href="#d"/><use filter="url(#e)" xlink:href="#d"/></g></g></svg>