<svg height="140" viewBox="0 0 142 140" width="142" xmlns="http://www.w3.org/2000/svg" xmlns:xlink="http://www.w3.org/1999/xlink"><defs><path id="a" d="m44.3478261 52.6584151c0-12.6682264 11.2849989-22.7213082 24.4486273-22.7213082 12.9939458 0 24.156641 9.796717 24.4420164 22.2343271l8.5006602 26.5007295h-8.4951511v3.6159749c0 6.590478-2.9793631 9.5526666-9.5518117 9.5526666h-3.6889452v16.461082h-35.6553959zm6.5283752 0v49.7067799h23.9296628v-16.4610818h9.5518117c3.3583946 0 3.6889452-.3291321 3.6889452-3.6159748v-9.5526667h6.288175l-6.288175-19.6068679v-.4701887c0-9.2089811-8.505068-16.7846164-18.5846589-16.7846164-10.0806928 0-18.5857608 7.5756353-18.5857608 16.7846164zm62.5141817 63.5043729c10.816139-10.737462 17.51916-25.0439687 18.872145-40.2862675l5.50479.5044068c-1.472366 16.574652-8.757922 32.1292557-20.514739 43.8002647-11.775608 11.687859-27.2851877 18.725964-43.6713336 19.819033l-.3614591-5.605769c15.0707443-1.00432 29.3378777-7.479601 40.1705967-18.231668zm-49.9121221-110.62120648c-30.8135094 2.54670313-55.19574872 26.87717078-57.97426962 57.85464488l-5.50399128-.4993317c3.02166911-33.6765346 29.5270343-60.12888418 63.0262262-62.8968947zm68.8583931 59.74466728c-1.114993-15.2345699-7.622999-29.6173649-18.323599-40.4979213-10.695052-10.8760793-24.8892949-17.55372565-39.9688751-18.80396549l.4548726-5.57850975c16.3953823 1.35992964 31.8266565 8.61960345 43.4525335 20.44035814 11.631424 11.8274704 18.705248 27.4638632 19.916762 44.028142zm-126.81831433 9.5565185c2.28436684 30.9782897 26.29456753 55.6869517 57.09035603 58.7490177l-.5456361 5.527712c-33.4785914-3.331954-59.57947472-30.191948-62.0630596-63.8668993zm74.19532993-9.7244176-2.3607653 2.3904604-4.0993391-2.7668931c-.6032695.3381132-1.2477217.6052226-1.921113.8047094l-.9672348 4.8936252h-3.3391304l-.9672348-4.8936252c-.6733913-.1994868-1.3178435-.4665962-1.9211131-.8047094l-4.0993391 2.7668931-2.3607652-2.3904604 2.7325217-4.1509032c-.333913-.6108578-.5977043-1.2634163-.794713-1.9452779l-4.8328348-.9794013v-3.3811321l4.8328348-.9794012c.1970087-.6818617.4608-1.3344202.794713-1.945278l-2.7325217-4.1509032 2.3607652-2.3904603 4.0993391 2.766893c.6032696-.3381132 1.2477218-.6052226 1.9211131-.8047094l.9672348-4.8936252h3.3391304l.9672348 4.8936252c.6733913.1994868 1.3178435.4665962 1.921113.8047094l4.0993391-2.766893 2.3607653 2.3904603-2.7325218 4.1509032c.3339131.6108578.5977044 1.2634163.7947131 1.945278l4.8328348.9794012v3.3811321l-4.8328348.9794013c-.1970087.6818616-.4608 1.3344201-.7947131 1.9452779zm-11.0180174-4.8214944c2.1481739 0 3.8956521-1.7694591 3.8956521-3.944654 0-2.175195-1.7474782-3.9446541-3.8956521-3.9446541s-3.8956522 1.7694591-3.8956522 3.9446541c0 2.1751949 1.7474783 3.944654 3.8956522 3.944654z"/><filter id="b" height="102.9%" width="105.8%" x="-1.5%" y="-1.4%"><feOffset dx="4" dy="0" in="SourceAlpha" result="shadowOffsetOuter1"/><feColorMatrix in="shadowOffsetOuter1" type="matrix" values="0 0 0 0 0.0901960784   0 0 0 0 0.882352941   0 0 0 0 0.996078431  0 0 0 1 0"/></filter><filter id="c" height="102.9%" width="105.8%" x="-1.5%" y="-1.4%"><feOffset dx="4" dy="0" in="SourceAlpha" result="shadowOffsetInner1"/><feComposite in="shadowOffsetInner1" in2="SourceAlpha" k2="-1" k3="1" operator="arithmetic" result="shadowInnerInner1"/><feColorMatrix in="shadowInnerInner1" type="matrix" values="0 0 0 0 1   0 0 0 0 0.152941176   0 0 0 0 0.321568627  0 0 0 1 0"/></filter><path id="d" d="m46.0869565 52.6584151c0-12.6682264 11.2849989-22.7213082 24.4486274-22.7213082 12.9939457 0 24.1566409 9.796717 24.4420163 22.2343271l8.5006608 26.5007295h-8.4951516v3.6159749c0 6.590478-2.9793632 9.5526666-9.5518118 9.5526666h-3.6889451v16.461082h-35.655396zm6.5283752 0v49.7067799h23.9296628v-16.4610818h9.5518118c3.3583945 0 3.6889451-.3291321 3.6889451-3.6159748v-9.5526667h6.2881751l-6.2881751-19.6068679v-.4701887c0-9.2089811-8.505068-16.7846164-18.5846589-16.7846164-10.0806928 0-18.5857608 7.5756353-18.5857608 16.7846164zm62.5141823 63.5043729c10.816138-10.737462 17.51916-25.0439687 18.872144-40.2862675l5.50479.5044068c-1.472365 16.574652-8.757922 32.1292557-20.514738 43.8002647-11.775608 11.687859-27.2851883 18.725964-43.6713342 19.819033l-.3614591-5.605769c15.0707443-1.00432 29.3378773-7.479601 40.1705973-18.231668zm-49.9121227-110.62120648c-30.8135094 2.54670313-55.1957487 26.87717078-57.97426959 57.85464488l-5.50399128-.4993317c3.02166911-33.6765346 29.52703437-60.12888418 63.02622627-62.8968947zm68.8583927 59.74466728c-1.114992-15.2345699-7.622998-29.6173649-18.323598-40.4979213-10.695053-10.8760793-24.8892954-17.55372565-39.9688757-18.80396549l.4548726-5.57850975c16.3953823 1.35992964 31.8266571 8.61960345 43.4525341 20.44035814 11.631424 11.8274704 18.705247 27.4638632 19.916761 44.028142zm-126.8183139 9.5565185c2.28436684 30.9782897 26.2945675 55.6869517 57.090356 58.7490177l-.5456361 5.527712c-33.4785913-3.331954-59.57947469-30.191948-62.06305957-63.8668993zm74.1953299-9.7244176-2.3607652 2.3904604-4.0993391-2.7668931c-.6032696.3381132-1.2477218.6052226-1.9211131.8047094l-.9672348 4.8936252h-3.3391304l-.9672348-4.8936252c-.6733913-.1994868-1.3178435-.4665962-1.921113-.8047094l-4.0993392 2.7668931-2.3607652-2.3904604 2.7325218-4.1509032c-.3339131-.6108578-.5977044-1.2634163-.7947131-1.9452779l-4.8328348-.9794013v-3.3811321l4.8328348-.9794012c.1970087-.6818617.4608-1.3344202.7947131-1.945278l-2.7325218-4.1509032 2.3607652-2.3904603 4.0993392 2.766893c.6032695-.3381132 1.2477217-.6052226 1.921113-.8047094l.9672348-4.8936252h3.3391304l.9672348 4.8936252c.6733913.1994868 1.3178435.4665962 1.9211131.8047094l4.0993391-2.766893 2.3607652 2.3904603-2.7325217 4.1509032c.333913.6108578.5977043 1.2634163.794713 1.945278l4.8328348.9794012v3.3811321l-4.8328348.9794013c-.1970087.6818616-.4608 1.3344201-.794713 1.9452779zm-11.0180174-4.8214944c2.1481739 0 3.8956522-1.7694591 3.8956522-3.944654 0-2.175195-1.7474783-3.9446541-3.8956522-3.9446541s-3.8956522 1.7694591-3.8956522 3.9446541c0 2.1751949 1.7474783 3.944654 3.8956522 3.944654z"/><filter id="e" height="101.4%" width="101.5%" x="-.7%" y="-.7%"><feOffset dx="2" dy="0" in="SourceAlpha" result="shadowOffsetInner1"/><feComposite in="shadowOffsetInner1" in2="SourceAlpha" k2="-1" k3="1" operator="arithmetic" result="shadowInnerInner1"/><feColorMatrix in="shadowInnerInner1" type="matrix" values="0 0 0 0 1   0 0 0 0 0.152941176   0 0 0 0 0.321568627  0 0 0 0.5 0"/></filter></defs><g fill="none" fill-rule="evenodd"><use fill="#000" filter="url(#b)" xlink:href="#a"/><use fill="#ff2752" fill-rule="evenodd" xlink:href="#a"/><g fill="#000"><use filter="url(#c)" xlink:href="#a"/><use fill-rule="evenodd" xlink:href="#d"/><use filter="url(#e)" xlink:href="#d"/></g></g></svg>