<svg height="80" width="80" xmlns="http://www.w3.org/2000/svg" xmlns:xlink="http://www.w3.org/1999/xlink"><defs><path id="a" d="M25.768 41.232l-3.536 3.536L12.464 35l9.768-9.768 3.536 3.536L19.536 35zM50.464 35l-6.232-6.232 3.536-3.536L57.536 35l-9.768 9.768-3.536-3.536zM35.618 23.242l4.764 1.516-7 22-4.764-1.516zm33.846 5.338l-4.928.84C62.452 17.195 52.805 7.548 40.58 5.464l.84-4.928c14.318 2.44 25.604 13.726 28.044 28.044zM28.58.536l.84 4.928C17.195 7.548 7.548 17.195 5.464 29.42l-4.928-.84C2.976 14.262 14.262 2.976 28.58.536zm12.84 68.928l-.84-4.928c12.225-2.084 21.872-11.731 23.956-23.956l4.928.84c-2.44 14.318-13.726 25.604-28.044 28.044zM.536 41.42l4.928-.84C7.548 52.805 17.195 62.452 29.42 64.536l-.84 4.928C14.262 67.024 2.976 55.738.536 41.42z"/><filter id="b" height="102.9%" width="105.8%" x="-1.5%" y="-1.5%"><feOffset dx="2" in="SourceAlpha" result="shadowOffsetOuter1"/><feColorMatrix in="shadowOffsetOuter1" values="0 0 0 0 0.0901960784 0 0 0 0 0.882352941 0 0 0 0 0.996078431 0 0 0 1 0"/></filter><filter id="c" height="102.9%" width="105.8%" x="-1.5%" y="-1.5%"><feOffset dx="2" in="SourceAlpha" result="shadowOffsetInner1"/><feComposite in="shadowOffsetInner1" in2="SourceAlpha" k2="-1" k3="1" operator="arithmetic" result="shadowInnerInner1"/><feColorMatrix in="shadowInnerInner1" values="0 0 0 0 1 0 0 0 0 0.152941176 0 0 0 0 0.321568627 0 0 0 1 0"/></filter><path id="e" d="M27.768 41.232l-3.536 3.536L14.464 35l9.768-9.768 3.536 3.536L21.536 35zM52.464 35l-6.232-6.232 3.536-3.536L59.536 35l-9.768 9.768-3.536-3.536zM37.618 23.242l4.764 1.516-7 22-4.764-1.516zm33.846 5.338l-4.928.84C64.452 17.195 54.805 7.548 42.58 5.464l.84-4.928c14.318 2.44 25.604 13.726 28.044 28.044zM30.58.536l.84 4.928C19.195 7.548 9.548 17.195 7.464 29.42l-4.928-.84C4.976 14.262 16.262 2.976 30.58.536zm12.84 68.928l-.84-4.928c12.225-2.084 21.872-11.731 23.956-23.956l4.928.84c-2.44 14.318-13.726 25.604-28.044 28.044zM2.536 41.42l4.928-.84C9.548 52.805 19.195 62.452 31.42 64.536l-.84 4.928C16.262 67.024 4.976 55.738 2.536 41.42z"/><filter id="f" height="101.5%" width="101.5%" x="-.7%" y="-.7%"><feOffset dx="1" in="SourceAlpha" result="shadowOffsetInner1"/><feComposite in="shadowOffsetInner1" in2="SourceAlpha" k2="-1" k3="1" operator="arithmetic" result="shadowInnerInner1"/><feColorMatrix in="shadowInnerInner1" values="0 0 0 0 1 0 0 0 0 0.152941176 0 0 0 0 0.321568627 0 0 0 0.5 0"/></filter><mask id="d" fill="#fff"><use fill-rule="evenodd" xlink:href="#a"/></mask></defs><g fill="none" transform="translate(5 5)"><use fill="#000" filter="url(#b)" xlink:href="#a"/><use fill="#ff2752" fill-rule="evenodd" xlink:href="#a"/><g fill="#000"><use filter="url(#c)" xlink:href="#a"/><g mask="url(#d)"><use fill-rule="evenodd" xlink:href="#e"/><use filter="url(#f)" xlink:href="#e"/></g></g></g></svg>