<svg height="80" viewBox="0 0 80 80" width="80" xmlns="http://www.w3.org/2000/svg" xmlns:xlink="http://www.w3.org/1999/xlink"><defs><path id="a" d="m25.767767 41.232233-3.535534 3.535534-9.7677669-9.767767 9.7677669-9.767767 3.535534 3.535534-6.2322331 6.232233zm24.6966991-6.232233-6.2322331-6.232233 3.535534-3.535534 9.7677669 9.767767-9.7677669 9.767767-3.535534-3.535534zm-14.8467806-11.7580091 4.764629 1.5160182-7 22-4.764629-1.5160182zm33.8467648 5.3379085-4.9289006.8402012c-2.0839073-12.2248965-11.730594-21.87171182-23.955651-23.95565038l.8402026-4.92890044c14.3177513 2.4406687 25.6037167 13.72678452 28.044349 28.04434962zm-40.8845516-28.04434962.8402026 4.92890044c-12.225057 2.08393856-21.8717437 11.73075388-23.95565095 23.95565038l-4.9289007-.8402012c2.44063234-14.3175651 13.72659775-25.60368092 28.04434905-28.04434962zm12.8402026 68.92890042-.8402026-4.9289004c12.225057-2.0839386 21.8717437-11.7307539 23.955651-23.9556504l4.9289006.8402012c-2.4406323 14.3175651-13.7265977 25.6036809-28.044349 28.0443496zm-40.88455165-28.0443496 4.9289007-.8402012c2.08390725 12.2248965 11.73059395 21.8717118 23.95565095 23.9556504l-.8402026 4.9289004c-14.3177513-2.4406687-25.60371671-13.7267845-28.04434905-28.0443496z"/><filter id="b" height="102.9%" width="105.8%" x="-1.5%" y="-1.5%"><feOffset dx="2" dy="0" in="SourceAlpha" result="shadowOffsetOuter1"/><feColorMatrix in="shadowOffsetOuter1" type="matrix" values="0 0 0 0 0.0901960784   0 0 0 0 0.882352941   0 0 0 0 0.996078431  0 0 0 1 0"/></filter><filter id="c" height="102.9%" width="105.8%" x="-1.5%" y="-1.5%"><feOffset dx="2" dy="0" in="SourceAlpha" result="shadowOffsetInner1"/><feComposite in="shadowOffsetInner1" in2="SourceAlpha" k2="-1" k3="1" operator="arithmetic" result="shadowInnerInner1"/><feColorMatrix in="shadowInnerInner1" type="matrix" values="0 0 0 0 1   0 0 0 0 0.152941176   0 0 0 0 0.321568627  0 0 0 1 0"/></filter><path id="d" d="m27.767767 41.232233-3.535534 3.535534-9.7677669-9.767767 9.7677669-9.767767 3.535534 3.535534-6.2322331 6.232233zm24.6966991-6.232233-6.2322331-6.232233 3.535534-3.535534 9.7677669 9.767767-9.7677669 9.767767-3.535534-3.535534zm-14.8467806-11.7580091 4.764629 1.5160182-7 22-4.764629-1.5160182zm33.8467648 5.3379085-4.9289006.8402012c-2.0839073-12.2248965-11.730594-21.87171182-23.955651-23.95565038l.8402026-4.92890044c14.3177513 2.4406687 25.6037167 13.72678452 28.044349 28.04434962zm-40.8845516-28.04434962.8402026 4.92890044c-12.225057 2.08393856-21.8717437 11.73075388-23.95565095 23.95565038l-4.9289007-.8402012c2.44063234-14.3175651 13.72659775-25.60368092 28.04434905-28.04434962zm12.8402026 68.92890042-.8402026-4.9289004c12.225057-2.0839386 21.8717437-11.7307539 23.955651-23.9556504l4.9289006.8402012c-2.4406323 14.3175651-13.7265977 25.6036809-28.044349 28.0443496zm-40.88455165-28.0443496 4.9289007-.8402012c2.08390725 12.2248965 11.73059395 21.8717118 23.95565095 23.9556504l-.8402026 4.9289004c-14.3177513-2.4406687-25.60371671-13.7267845-28.04434905-28.0443496z"/><filter id="e" height="101.5%" width="101.5%" x="-.7%" y="-.7%"><feOffset dx="1" dy="0" in="SourceAlpha" result="shadowOffsetInner1"/><feComposite in="shadowOffsetInner1" in2="SourceAlpha" k2="-1" k3="1" operator="arithmetic" result="shadowInnerInner1"/><feColorMatrix in="shadowInnerInner1" type="matrix" values="0 0 0 0 1   0 0 0 0 0.152941176   0 0 0 0 0.321568627  0 0 0 0.5 0"/></filter><mask id="f" fill="#fff"><use fill="#fff" fill-rule="evenodd" xlink:href="#a"/></mask></defs><g fill="none" transform="translate(5 5)"><use fill="#000" filter="url(#b)" xlink:href="#a"/><use fill="#ff2752" fill-rule="evenodd" xlink:href="#a"/><g fill="#000"><use filter="url(#c)" xlink:href="#a"/><g mask="url(#f)"><use fill-rule="evenodd" xlink:href="#d"/><use filter="url(#e)" xlink:href="#d"/></g></g></g></svg>