<svg height="80" width="80" xmlns="http://www.w3.org/2000/svg" xmlns:xlink="http://www.w3.org/1999/xlink"><defs><path id="a" d="M49.63 61.93c2.85-5.37 5.84-13.5 6.24-24.43H66.3c-.88 10.74-7.45 19.88-16.67 24.43zM38.92 37.5h11.94c-.57 14.31-6.06 23.35-8.75 26.95-1.04.21-2.11.36-3.19.43zm-18.27 23c-.22-.12-.43-.26-.64-.4l-6.98.95-6.79.92 1.38-7.09 1.47-7.54c-.23-.49-.44-.98-.63-1.48a29.117 29.117 0 0 1-1.92-8.36h10.43c.4 10.93 3.39 19.06 6.25 24.43-.88-.43-1.74-.9-2.57-1.43zm2.56-52.43c-2.85 5.37-5.84 13.5-6.24 24.43H6.54c.88-10.74 7.45-19.88 16.67-24.43zM33.92 32.5H21.98c.57-14.31 6.06-23.35 8.75-26.95 1.04-.21 2.11-.36 3.19-.43zm32.38 0H55.87c-.4-10.93-3.39-19.06-6.24-24.43 9.22 4.55 15.79 13.69 16.67 24.43zM38.92 5.12c1.09.07 2.15.22 3.2.43h.01c2.69 3.58 8.16 12.56 8.73 26.95H38.92zm-5 32.38v27.38c-1.09-.07-2.15-.22-3.2-.43h-.01c-2.69-3.58-8.16-12.56-8.73-26.95zM44.93 1.04c-.42-.1-.84-.2-1.26-.29C41.33.26 38.91 0 36.42 0s-4.91.26-7.25.75c-.42.09-.84.19-1.26.29C12.69 4.84 1.42 18.61 1.42 35c0 4.55.87 8.91 2.46 12.9L0 67.86l18.9-2.56a34.5 34.5 0 0 0 9.01 3.66c.42.1.84.2 1.26.29 2.34.49 4.76.75 7.25.75s4.91-.26 7.25-.75c.42-.09.84-.19 1.26-.29C60.15 65.16 71.42 51.39 71.42 35S60.15 4.84 44.93 1.04z"/><filter id="b" height="102.9%" width="105.6%" x="-1.4%" y="-1.4%"><feOffset dx="2" in="SourceAlpha" result="shadowOffsetOuter1"/><feColorMatrix in="shadowOffsetOuter1" values="0 0 0 0 0.0901960784 0 0 0 0 0.882352941 0 0 0 0 0.996078431 0 0 0 1 0"/></filter><path id="d" d="M51.63 61.93c2.85-5.37 5.84-13.5 6.24-24.43H68.3c-.88 10.74-7.45 19.88-16.67 24.43zM40.92 37.5h11.94c-.57 14.31-6.06 23.35-8.75 26.95-1.04.21-2.11.36-3.19.43zm-18.27 23c-.22-.12-.43-.26-.64-.4l-6.98.95-6.79.92 1.38-7.09 1.47-7.54c-.23-.49-.44-.98-.63-1.48a29.117 29.117 0 0 1-1.92-8.36h10.43c.4 10.93 3.39 19.06 6.25 24.43-.88-.43-1.74-.9-2.57-1.43zm2.56-52.43c-2.85 5.37-5.84 13.5-6.24 24.43H8.54c.88-10.74 7.45-19.88 16.67-24.43zM35.92 32.5H23.98c.57-14.31 6.06-23.35 8.75-26.95 1.04-.21 2.11-.36 3.19-.43zm32.38 0H57.87c-.4-10.93-3.39-19.06-6.24-24.43 9.22 4.55 15.79 13.69 16.67 24.43zM40.92 5.12c1.09.07 2.15.22 3.2.43h.01c2.69 3.58 8.16 12.56 8.73 26.95H40.92zm-5 32.38v27.38c-1.09-.07-2.15-.22-3.2-.43h-.01c-2.69-3.58-8.16-12.56-8.73-26.95zM46.93 1.04c-.42-.1-.84-.2-1.26-.29C43.33.26 40.91 0 38.42 0s-4.91.26-7.25.75c-.42.09-.84.19-1.26.29C14.69 4.84 3.42 18.61 3.42 35c0 4.55.87 8.91 2.46 12.9L2 67.86l18.9-2.56a34.5 34.5 0 0 0 9.01 3.66c.42.1.84.2 1.26.29 2.34.49 4.76.75 7.25.75s4.91-.26 7.25-.75c.42-.09.84-.19 1.26-.29C62.15 65.16 73.42 51.39 73.42 35S62.15 4.84 46.93 1.04z"/><filter id="e" height="101.4%" width="101.4%" x="-.7%" y="-.7%"><feOffset dx="1" in="SourceAlpha" result="shadowOffsetInner1"/><feComposite in="shadowOffsetInner1" in2="SourceAlpha" k2="-1" k3="1" operator="arithmetic" result="shadowInnerInner1"/><feColorMatrix in="shadowInnerInner1" values="0 0 0 0 1 0 0 0 0 0.152941176 0 0 0 0 0.321568627 0 0 0 0.5 0"/></filter><mask id="c" fill="#fff"><use fill-rule="evenodd" xlink:href="#a"/></mask></defs><g fill="none" fill-rule="evenodd" transform="translate(4 5)"><use fill="#000" filter="url(#b)" xlink:href="#a"/><use fill="#ff2752" xlink:href="#a"/><g fill="#000" mask="url(#c)"><use xlink:href="#d"/><use filter="url(#e)" xlink:href="#d"/></g></g></svg>