<svg height="80" viewBox="0 0 80 80" width="80" xmlns="http://www.w3.org/2000/svg" xmlns:xlink="http://www.w3.org/1999/xlink"><defs><path id="a" d="m49.6299 61.9302c2.85-5.37 5.84-13.5 6.24-24.43h10.43c-.88 10.74-7.45 19.88-16.67 24.43zm-10.71-24.43h11.94c-.57 14.31-6.06 23.35-8.75 26.95-1.04.21-2.11.36-3.19.43zm-18.269 23c-.221-.12-.431-.26-.641-.4l-6.98.95-6.79.92 1.38-7.09 1.47-7.54c-.23-.49-.439-.98-.63-1.48-1.03-2.63-1.69-5.43-1.92-8.36h10.43c.4 10.93 3.39 19.06 6.25 24.43-.88-.43-1.74-.9-2.569-1.43zm2.559-52.43c-2.85 5.37-5.84 13.5-6.24 24.43h-10.43c.88-10.74 7.45-19.88 16.67-24.43zm10.71 24.43h-11.94c.57-14.31 6.06-23.35 8.75-26.95 1.04-.21 2.11-.36 3.19-.43zm32.38 0h-10.43c-.4-10.93-3.39-19.06-6.24-24.43 9.22 4.55 15.79 13.69 16.67 24.43zm-27.38-27.38c1.09.07 2.15.22 3.2.43h.01c2.69 3.58 8.16 12.56 8.73 26.95h-11.94zm-5 32.38v27.38c-1.09-.07-2.15-.22-3.2-.43h-.01c-2.69-3.58-8.16-12.56-8.73-26.95zm11.01-36.46c-.42-.1-.84-.2-1.26-.29-2.34-.49-4.76-.75-7.25-.75s-4.91.26-7.25.75c-.42.09-.84.19-1.26.29-15.22 3.8-26.49 17.57-26.49 33.96 0 4.55.87 8.91 2.46 12.9l-3.88 19.96 18.901-2.56c2.779 1.62 5.809 2.86 9.009 3.66.42.1.84.2 1.26.29 2.34.49 4.76.75 7.25.75s4.91-.26 7.25-.75c.42-.09.84-.19 1.26-.29 15.221-3.8 26.49-17.57 26.49-33.96s-11.269-30.16-26.49-33.96z"/><filter id="b" height="102.9%" width="105.6%" x="-1.4%" y="-1.4%"><feOffset dx="2" dy="0" in="SourceAlpha" result="shadowOffsetOuter1"/><feColorMatrix in="shadowOffsetOuter1" type="matrix" values="0 0 0 0 0.0901960784   0 0 0 0 0.882352941   0 0 0 0 0.996078431  0 0 0 1 0"/></filter><path id="c" d="m51.6299 61.9302c2.85-5.37 5.84-13.5 6.24-24.43h10.43c-.88 10.74-7.45 19.88-16.67 24.43zm-10.71-24.43h11.94c-.57 14.31-6.06 23.35-8.75 26.95-1.04.21-2.11.36-3.19.43zm-18.269 23c-.221-.12-.431-.26-.641-.4l-6.98.95-6.79.92 1.38-7.09 1.47-7.54c-.23-.49-.439-.98-.63-1.48-1.03-2.63-1.69-5.43-1.92-8.36h10.43c.4 10.93 3.39 19.06 6.25 24.43-.88-.43-1.74-.9-2.569-1.43zm2.559-52.43c-2.85 5.37-5.84 13.5-6.24 24.43h-10.43c.88-10.74 7.45-19.88 16.67-24.43zm10.71 24.43h-11.94c.57-14.31 6.06-23.35 8.75-26.95 1.04-.21 2.11-.36 3.19-.43zm32.38 0h-10.43c-.4-10.93-3.39-19.06-6.24-24.43 9.22 4.55 15.79 13.69 16.67 24.43zm-27.38-27.38c1.09.07 2.15.22 3.2.43h.01c2.69 3.58 8.16 12.56 8.73 26.95h-11.94zm-5 32.38v27.38c-1.09-.07-2.15-.22-3.2-.43h-.01c-2.69-3.58-8.16-12.56-8.73-26.95zm11.01-36.46c-.42-.1-.84-.2-1.26-.29-2.34-.49-4.76-.75-7.25-.75s-4.91.26-7.25.75c-.42.09-.84.19-1.26.29-15.22 3.8-26.49 17.57-26.49 33.96 0 4.55.87 8.91 2.46 12.9l-3.88 19.96 18.901-2.56c2.779 1.62 5.809 2.86 9.009 3.66.42.1.84.2 1.26.29 2.34.49 4.76.75 7.25.75s4.91-.26 7.25-.75c.42-.09.84-.19 1.26-.29 15.221-3.8 26.49-17.57 26.49-33.96s-11.269-30.16-26.49-33.96z"/><filter id="d" height="101.4%" width="101.4%" x="-.7%" y="-.7%"><feOffset dx="1" dy="0" in="SourceAlpha" result="shadowOffsetInner1"/><feComposite in="shadowOffsetInner1" in2="SourceAlpha" k2="-1" k3="1" operator="arithmetic" result="shadowInnerInner1"/><feColorMatrix in="shadowInnerInner1" type="matrix" values="0 0 0 0 1   0 0 0 0 0.152941176   0 0 0 0 0.321568627  0 0 0 0.5 0"/></filter><mask id="e" fill="#fff"><use fill="#fff" fill-rule="evenodd" xlink:href="#a"/></mask></defs><g fill="none" fill-rule="evenodd" transform="translate(4 5)"><use fill="#000" filter="url(#b)" xlink:href="#a"/><use fill="#ff2752" fill-rule="evenodd" xlink:href="#a"/><g fill="#000" mask="url(#e)"><use fill-rule="evenodd" xlink:href="#c"/><use filter="url(#d)" xlink:href="#c"/></g></g></svg>