<svg height="80" width="80" xmlns="http://www.w3.org/2000/svg" xmlns:xlink="http://www.w3.org/1999/xlink"><defs><path id="a" d="M37 41.687c0 3.62-1.313 6.691-3.938 9.216-2.626 2.524-6.432 4.054-11.418 4.59V63h-5.428v-7.44c-3.265-.223-6.354-.826-9.266-1.809S1.72 51.517 0 49.998l2.979-6.77c1.632 1.341 3.618 2.47 5.957 3.385a26.225 26.225 0 0 0 7.28 1.71V34.917c-3.133-.76-5.747-1.597-7.843-2.513a13.62 13.62 0 0 1-5.262-4.021C1.699 26.619.993 24.284.993 21.38c0-3.62 1.302-6.702 3.905-9.25 2.604-2.546 6.376-4.065 11.318-4.557V0h5.428v7.44c2.471.133 4.887.558 7.248 1.273s4.423 1.653 6.189 2.815l-2.714 6.769c-3.354-1.966-6.928-3.173-10.723-3.62v13.539c3.177.76 5.814 1.586 7.91 2.48a13.592 13.592 0 0 1 5.295 3.988C36.283 36.448 37 38.783 37 41.687zM9.531 20.977c0 1.475.574 2.66 1.721 3.553 1.148.893 2.802 1.653 4.964 2.279v-11.93c-2.25.357-3.927 1.072-5.03 2.144-1.103 1.073-1.655 2.39-1.655 3.955zm12.113 27.211c2.339-.357 4.07-1.05 5.196-2.077 1.125-1.028 1.688-2.301 1.688-3.82 0-1.52-.596-2.737-1.787-3.653-1.192-.916-2.89-1.687-5.097-2.312z"/><filter id="b" height="103.2%" width="110.8%" x="-2.7%" y="-1.6%"><feOffset dx="2" in="SourceAlpha" result="shadowOffsetOuter1"/><feColorMatrix in="shadowOffsetOuter1" values="0 0 0 0 0.0901960784 0 0 0 0 0.882352941 0 0 0 0 0.996078431 0 0 0 1 0"/></filter><path id="d" d="M39 41.687c0 3.62-1.313 6.691-3.938 9.216-2.626 2.524-6.432 4.054-11.418 4.59V63h-5.428v-7.44c-3.265-.223-6.354-.826-9.266-1.809S3.72 51.517 2 49.998l2.979-6.77c1.632 1.341 3.618 2.47 5.957 3.385a26.225 26.225 0 0 0 7.28 1.71V34.917c-3.133-.76-5.747-1.597-7.843-2.513a13.62 13.62 0 0 1-5.262-4.021c-1.412-1.765-2.118-4.1-2.118-7.004 0-3.62 1.302-6.702 3.905-9.25 2.604-2.546 6.376-4.065 11.318-4.557V0h5.428v7.44c2.471.133 4.887.558 7.248 1.273s4.423 1.653 6.189 2.815l-2.714 6.769c-3.354-1.966-6.928-3.173-10.723-3.62v13.539c3.177.76 5.814 1.586 7.91 2.48a13.592 13.592 0 0 1 5.295 3.988C38.283 36.448 39 38.783 39 41.687zm-27.469-20.71c0 1.475.574 2.66 1.721 3.553 1.148.893 2.802 1.653 4.964 2.279v-11.93c-2.25.357-3.927 1.072-5.03 2.144-1.103 1.073-1.655 2.39-1.655 3.955zm12.113 27.211c2.339-.357 4.07-1.05 5.196-2.077 1.125-1.028 1.688-2.301 1.688-3.82 0-1.52-.596-2.737-1.787-3.653-1.192-.916-2.89-1.687-5.097-2.312z"/><filter id="e" height="101.6%" width="102.7%" x="-1.4%" y="-.8%"><feOffset dx="1" in="SourceAlpha" result="shadowOffsetInner1"/><feComposite in="shadowOffsetInner1" in2="SourceAlpha" k2="-1" k3="1" operator="arithmetic" result="shadowInnerInner1"/><feColorMatrix in="shadowInnerInner1" values="0 0 0 0 1 0 0 0 0 0.152941176 0 0 0 0 0.321568627 0 0 0 0.5 0"/></filter><mask id="c" fill="#fff"><use fill-rule="evenodd" xlink:href="#a"/></mask></defs><g fill="none" fill-rule="evenodd" transform="translate(22 9)"><use fill="#000" filter="url(#b)" xlink:href="#a"/><use fill="#ff2752" xlink:href="#a"/><g fill="#000" mask="url(#c)"><use xlink:href="#d"/><use filter="url(#e)" xlink:href="#d"/></g></g></svg>