<svg height="80" width="80" xmlns="http://www.w3.org/2000/svg" xmlns:xlink="http://www.w3.org/1999/xlink"><defs><path id="a" d="M36 51.242l15.506 8.1-2.912-17.25L61.09 29.848l-17.307-2.56L36 11.618l-7.783 15.668-17.307 2.56 12.496 12.245-2.912 17.25zm0 5.641L13.888 68.435l4.153-24.6L.222 26.375l24.679-3.652L36 .381l11.1 22.342 24.678 3.652-17.82 17.46 4.154 24.6z"/><filter id="b" height="102.9%" width="105.6%" x="-1.4%" y="-1.5%"><feOffset dx="2" in="SourceAlpha" result="shadowOffsetOuter1"/><feColorMatrix in="shadowOffsetOuter1" values="0 0 0 0 0.0901960784 0 0 0 0 0.882352941 0 0 0 0 0.996078431 0 0 0 1 0"/></filter><path id="d" d="M38 51.242l15.506 8.1-2.912-17.25L63.09 29.848l-17.307-2.56L38 11.618l-7.783 15.668-17.307 2.56 12.496 12.245-2.912 17.25zm0 5.641L15.888 68.435l4.153-24.6-17.819-17.46 24.679-3.652L38 .381l11.1 22.342 24.678 3.652-17.82 17.46 4.154 24.6z"/><filter id="e" height="101.5%" width="101.4%" x="-.7%" y="-.7%"><feOffset dx="1" in="SourceAlpha" result="shadowOffsetInner1"/><feComposite in="shadowOffsetInner1" in2="SourceAlpha" k2="-1" k3="1" operator="arithmetic" result="shadowInnerInner1"/><feColorMatrix in="shadowInnerInner1" values="0 0 0 0 1 0 0 0 0 0.152941176 0 0 0 0 0.321568627 0 0 0 0.5 0"/></filter><mask id="c" fill="#fff"><use fill-rule="evenodd" xlink:href="#a"/></mask></defs><g fill="none" transform="translate(4 4)"><use fill="#000" filter="url(#b)" xlink:href="#a"/><use fill="#ff2752" fill-rule="evenodd" xlink:href="#a"/><g fill="#000" mask="url(#c)"><use fill-rule="evenodd" xlink:href="#d"/><use filter="url(#e)" xlink:href="#d"/></g></g></svg>