<svg height="80" viewBox="0 0 80 80" width="80" xmlns="http://www.w3.org/2000/svg" xmlns:xlink="http://www.w3.org/1999/xlink"><defs><path id="a" d="m36 51.2419167 15.5062355 8.1005855-2.9124243-17.2505249 12.4958049-12.2440877-17.3062127-2.5608253-7.7834034-15.6678478-7.7834034 15.6678478-17.3062127 2.5608253 12.4958049 12.2440877-2.9124243 17.2505249zm0 5.6411666-22.1120206 11.5515021 4.1531412-24.5993918-17.81912155-17.4601708 24.67880305-3.6517581 11.0991979-22.34248115 11.0991979 22.34248115 24.678803 3.6517581-17.8191215 17.4601708 4.1531412 24.5993918z"/><filter id="b" height="102.9%" width="105.6%" x="-1.4%" y="-1.5%"><feOffset dx="2" dy="0" in="SourceAlpha" result="shadowOffsetOuter1"/><feColorMatrix in="shadowOffsetOuter1" type="matrix" values="0 0 0 0 0.0901960784   0 0 0 0 0.882352941   0 0 0 0 0.996078431  0 0 0 1 0"/></filter><path id="c" d="m38 51.2419167 15.5062355 8.1005855-2.9124243-17.2505249 12.4958049-12.2440877-17.3062127-2.5608253-7.7834034-15.6678478-7.7834034 15.6678478-17.3062127 2.5608253 12.4958049 12.2440877-2.9124243 17.2505249zm0 5.6411666-22.1120206 11.5515021 4.1531412-24.5993918-17.81912155-17.4601708 24.67880305-3.6517581 11.0991979-22.34248115 11.0991979 22.34248115 24.678803 3.6517581-17.8191215 17.4601708 4.1531412 24.5993918z"/><filter id="d" height="101.5%" width="101.4%" x="-.7%" y="-.7%"><feOffset dx="1" dy="0" in="SourceAlpha" result="shadowOffsetInner1"/><feComposite in="shadowOffsetInner1" in2="SourceAlpha" k2="-1" k3="1" operator="arithmetic" result="shadowInnerInner1"/><feColorMatrix in="shadowInnerInner1" type="matrix" values="0 0 0 0 1   0 0 0 0 0.152941176   0 0 0 0 0.321568627  0 0 0 0.5 0"/></filter><mask id="e" fill="#fff"><use fill="#fff" fill-rule="evenodd" xlink:href="#a"/></mask></defs><g fill="none" transform="translate(4 4)"><use fill="#000" filter="url(#b)" xlink:href="#a"/><use fill="#ff2752" fill-rule="evenodd" xlink:href="#a"/><g fill="#000" mask="url(#e)"><use fill-rule="evenodd" xlink:href="#c"/><use filter="url(#d)" xlink:href="#c"/></g></g></svg>