<svg height="112" width="101" xmlns="http://www.w3.org/2000/svg" xmlns:xlink="http://www.w3.org/1999/xlink"><defs><path id="a" d="M0 0h96.372v91.478L75.852 112H0zm7.814 7.814v96.372h62.512V85.955h18.232V7.814zM78.14 93.767v4.895l4.894-4.895zm-29.954-62.51v-7.815h31.256v7.814zm0 13.023v-7.814h18.233v7.814zM23.442 32.243l10.26-10.26 5.525 5.524-15.785 15.785-9.274-9.274 5.524-5.524zM48.186 66.42v-7.814h31.256v7.814zm0 13.023v-7.814h18.233v7.814zM23.442 67.406l10.26-10.261 5.525 5.524-15.785 15.786-9.274-9.274 5.524-5.524z"/><filter id="b" height="103.6%" width="108.3%" x="-2.1%" y="-1.8%"><feOffset dx="4" in="SourceAlpha" result="shadowOffsetOuter1"/><feColorMatrix in="shadowOffsetOuter1" values="0 0 0 0 0.0901960784 0 0 0 0 0.882352941 0 0 0 0 0.996078431 0 0 0 1 0"/></filter><path id="d" d="M3 0h96.372v91.478L78.852 112H3zm7.814 7.814v96.372h62.512V85.955h18.232V7.814zM81.14 93.767v4.895l4.894-4.895zm-29.954-62.51v-7.815h31.256v7.814zm0 13.023v-7.814h18.233v7.814zM26.442 32.243l10.26-10.26 5.525 5.524-15.785 15.785-9.274-9.274 5.524-5.524zM51.186 66.42v-7.814h31.256v7.814zm0 13.023v-7.814h18.233v7.814zM26.442 67.406l10.26-10.261 5.525 5.524-15.785 15.786-9.274-9.274 5.524-5.524z"/><filter id="e" height="101.8%" width="102.1%" x="-1%" y="-.9%"><feOffset dx="2" in="SourceAlpha" result="shadowOffsetInner1"/><feComposite in="shadowOffsetInner1" in2="SourceAlpha" k2="-1" k3="1" operator="arithmetic" result="shadowInnerInner1"/><feColorMatrix in="shadowInnerInner1" values="0 0 0 0 1 0 0 0 0 0.152941176 0 0 0 0 0.321568627 0 0 0 0.5 0"/></filter><mask id="c" fill="#fff"><use fill-rule="evenodd" xlink:href="#a"/></mask></defs><g fill="none" fill-rule="evenodd"><use fill="#000" filter="url(#b)" xlink:href="#a"/><use fill="#ff2752" xlink:href="#a"/><g fill="#000" mask="url(#c)"><use xlink:href="#d"/><use filter="url(#e)" xlink:href="#d"/></g></g></svg>