<svg height="112" viewBox="0 0 101 112" width="101" xmlns="http://www.w3.org/2000/svg" xmlns:xlink="http://www.w3.org/1999/xlink"><defs><path id="a" d="m0 0h96.372093v91.4779535l-20.5207442 20.5220465h-75.8513488zm7.81395349 7.81395349v96.37209351h62.51162791v-18.2312563h18.2325581v-78.14083721zm70.32558141 85.95348841v4.8941395l4.8941395-4.8941395zm-29.9534884-62.511107v-7.8139535h31.255814v7.8139535zm0 13.0232558v-7.8139535h18.2325582v7.8139535zm-24.744186-12.0363535 10.2610232-10.2610232 5.5244651 5.5244651-15.7854883 15.7854883-9.2738605-9.2738604 5.5244651-5.5244651zm24.744186 34.1758884v-7.8139535h31.255814v7.8139535zm0 13.0232558v-7.8139535h18.2325582v7.8139535zm-24.744186-12.0363535 10.2610232-10.2610232 5.5244651 5.5244651-15.7854883 15.7854883-9.2738605-9.2738604 5.5244651-5.5244651z"/><filter id="b" height="103.6%" width="108.3%" x="-2.1%" y="-1.8%"><feOffset dx="4" dy="0" in="SourceAlpha" result="shadowOffsetOuter1"/><feColorMatrix in="shadowOffsetOuter1" type="matrix" values="0 0 0 0 0.0901960784   0 0 0 0 0.882352941   0 0 0 0 0.996078431  0 0 0 1 0"/></filter><path id="c" d="m3 0h96.372093v91.4779535l-20.5207442 20.5220465h-75.8513488zm7.8139535 7.81395349v96.37209351h62.5116279v-18.2312563h18.2325581v-78.14083721zm70.3255814 85.95348841v4.8941395l4.8941395-4.8941395zm-29.9534884-62.511107v-7.8139535h31.255814v7.8139535zm0 13.0232558v-7.8139535h18.2325582v7.8139535zm-24.744186-12.0363535 10.2610232-10.2610232 5.5244651 5.5244651-15.7854883 15.7854883-9.2738605-9.2738604 5.5244651-5.5244651zm24.744186 34.1758884v-7.8139535h31.255814v7.8139535zm0 13.0232558v-7.8139535h18.2325582v7.8139535zm-24.744186-12.0363535 10.2610232-10.2610232 5.5244651 5.5244651-15.7854883 15.7854883-9.2738605-9.2738604 5.5244651-5.5244651z"/><filter id="d" height="101.8%" width="102.1%" x="-1%" y="-.9%"><feOffset dx="2" dy="0" in="SourceAlpha" result="shadowOffsetInner1"/><feComposite in="shadowOffsetInner1" in2="SourceAlpha" k2="-1" k3="1" operator="arithmetic" result="shadowInnerInner1"/><feColorMatrix in="shadowInnerInner1" type="matrix" values="0 0 0 0 1   0 0 0 0 0.152941176   0 0 0 0 0.321568627  0 0 0 0.5 0"/></filter><mask id="e" fill="#fff"><use fill="#fff" fill-rule="evenodd" xlink:href="#a"/></mask></defs><g fill="none" fill-rule="evenodd"><use fill="#000" filter="url(#b)" xlink:href="#a"/><use fill="#ff2752" fill-rule="evenodd" xlink:href="#a"/><g fill="#000" mask="url(#e)"><use fill-rule="evenodd" xlink:href="#c"/><use filter="url(#d)" xlink:href="#c"/></g></g></svg>