<svg height="80" viewBox="0 0 80 80" width="80" xmlns="http://www.w3.org/2000/svg" xmlns:xlink="http://www.w3.org/1999/xlink"><defs><path id="a" d="m54.9389722 6.71232877c10.8010232 0 20.0610278 8.11886113 20.0610278 18.34993773v44.9377335h-29.2571724v-13.2938979h-3.0268491c-5.3933581 0-7.8380342-2.3929773-7.8380342-7.7148194v-2.9202989h-6.9702492l6.9748247-21.4022718c.2337861-10.0449442 9.3942951-17.95638323 20.0564524-17.95638323zm15.2498427 58.49315073v-40.143213c0-7.4367918-6.9786265-13.5554172-15.2498427-13.5554172-8.2712163 0-15.2498428 6.1186254-15.2498428 13.5554172v.3795146l-5.1603929 15.8346822h5.1603929v7.7148194c0 2.6544967.2715447 2.9202989 3.0268491 2.9202989h7.8380342v13.2938979zm-63.1944016-47.2501606c.23496966-10.0460262 9.4185801-17.9553189 20.1051216-17.9553189 2.6975916 0 5.377455.52585267 7.8941055 1.52291059l-1.7774271 4.45533698c-1.9587322-.77601934-4.0365022-1.18372702-6.1166784-1.18372702-8.2987673 0-15.2985471 6.12028845-15.2985471 13.55541715v.3805101l-5.17430312 15.8336867h5.17430312v7.7148194c0 2.6529874.2738399 2.9202989 3.0418351 2.9202989h7.8530201v13.2938979h9.8511195v4.7945205h-14.6623046v-13.2938979h-3.041835c-5.40314632 0-7.85302018-2.391468-7.85302018-7.7148194v-2.9202989h-6.98980272z"/><filter id="b" height="102.9%" width="105.3%" x="-1.3%" y="-1.4%"><feOffset dx="2" dy="0" in="SourceAlpha" result="shadowOffsetOuter1"/><feColorMatrix in="shadowOffsetOuter1" type="matrix" values="0 0 0 0 0.0901960784   0 0 0 0 0.882352941   0 0 0 0 0.996078431  0 0 0 1 0"/></filter><filter id="c" height="102.9%" width="105.3%" x="-1.3%" y="-1.4%"><feOffset dx="2" dy="0" in="SourceAlpha" result="shadowOffsetInner1"/><feComposite in="shadowOffsetInner1" in2="SourceAlpha" k2="-1" k3="1" operator="arithmetic" result="shadowInnerInner1"/><feColorMatrix in="shadowInnerInner1" type="matrix" values="0 0 0 0 1   0 0 0 0 0.152941176   0 0 0 0 0.321568627  0 0 0 1 0"/></filter><path id="d" d="m56.9389722 6.71232877c10.8010232 0 20.0610278 8.11886113 20.0610278 18.34993773v44.9377335h-29.2571724v-13.2938979h-3.0268491c-5.3933581 0-7.8380342-2.3929773-7.8380342-7.7148194v-2.9202989h-6.9702492l6.9748247-21.4022718c.2337861-10.0449442 9.3942951-17.95638323 20.0564524-17.95638323zm15.2498427 58.49315073v-40.143213c0-7.4367918-6.9786265-13.5554172-15.2498427-13.5554172-8.2712163 0-15.2498428 6.1186254-15.2498428 13.5554172v.3795146l-5.1603929 15.8346822h5.1603929v7.7148194c0 2.6544967.2715447 2.9202989 3.0268491 2.9202989h7.8380342v13.2938979zm-63.1944016-47.2501606c.23496966-10.0460262 9.4185801-17.9553189 20.1051216-17.9553189 2.6975916 0 5.377455.52585267 7.8941055 1.52291059l-1.7774271 4.45533698c-1.9587322-.77601934-4.0365022-1.18372702-6.1166784-1.18372702-8.2987673 0-15.2985471 6.12028845-15.2985471 13.55541715v.3805101l-5.17430312 15.8336867h5.17430312v7.7148194c0 2.6529874.2738399 2.9202989 3.0418351 2.9202989h7.8530201v13.2938979h9.8511195v4.7945205h-14.6623046v-13.2938979h-3.041835c-5.4031463 0-7.85302018-2.391468-7.85302018-7.7148194v-2.9202989h-6.98980272z"/><filter id="e" height="101.4%" width="101.3%" x="-.7%" y="-.7%"><feOffset dx="1" dy="0" in="SourceAlpha" result="shadowOffsetInner1"/><feComposite in="shadowOffsetInner1" in2="SourceAlpha" k2="-1" k3="1" operator="arithmetic" result="shadowInnerInner1"/><feColorMatrix in="shadowInnerInner1" type="matrix" values="0 0 0 0 1   0 0 0 0 0.152941176   0 0 0 0 0.321568627  0 0 0 0.5 0"/></filter><mask id="f" fill="#fff"><use fill="#fff" fill-rule="evenodd" xlink:href="#a"/></mask></defs><g fill="none" transform="translate(2 5)"><use fill="#000" filter="url(#b)" xlink:href="#a"/><use fill="#ff2752" fill-rule="evenodd" xlink:href="#a"/><g fill="#000"><use filter="url(#c)" xlink:href="#a"/><g mask="url(#f)"><use fill-rule="evenodd" xlink:href="#d"/><use filter="url(#e)" xlink:href="#d"/></g></g></g></svg>