<svg height="80" width="80" xmlns="http://www.w3.org/2000/svg" xmlns:xlink="http://www.w3.org/1999/xlink"><defs><path id="a" d="M54.939 6.712C65.74 6.712 75 14.832 75 25.062V70H45.743V56.706h-3.027c-5.393 0-7.838-2.393-7.838-7.715v-2.92h-6.97l6.975-21.402c.233-10.045 9.394-17.957 20.056-17.957zm15.25 58.493V25.062c0-7.437-6.979-13.555-15.25-13.555s-15.25 6.118-15.25 13.555v.38l-5.16 15.834h5.16v7.715c0 2.655.272 2.92 3.027 2.92h7.838v13.294zM6.994 17.955C7.23 7.91 16.413 0 27.1 0c2.697 0 5.377.526 7.894 1.523l-1.778 4.455A16.63 16.63 0 0 0 27.1 4.795c-8.3 0-15.299 6.12-15.299 13.555v.38L6.627 34.564H11.8v7.715c0 2.653.274 2.92 3.042 2.92h7.853v13.294h9.851v4.795H17.885V49.994h-3.042c-5.403 0-7.853-2.392-7.853-7.715v-2.92H0z"/><filter id="b" height="102.9%" width="105.3%" x="-1.3%" y="-1.4%"><feOffset dx="2" in="SourceAlpha" result="shadowOffsetOuter1"/><feColorMatrix in="shadowOffsetOuter1" values="0 0 0 0 0.0901960784 0 0 0 0 0.882352941 0 0 0 0 0.996078431 0 0 0 1 0"/></filter><filter id="c" height="102.9%" width="105.3%" x="-1.3%" y="-1.4%"><feOffset dx="2" in="SourceAlpha" result="shadowOffsetInner1"/><feComposite in="shadowOffsetInner1" in2="SourceAlpha" k2="-1" k3="1" operator="arithmetic" result="shadowInnerInner1"/><feColorMatrix in="shadowInnerInner1" values="0 0 0 0 1 0 0 0 0 0.152941176 0 0 0 0 0.321568627 0 0 0 1 0"/></filter><path id="e" d="M56.939 6.712C67.74 6.712 77 14.832 77 25.062V70H47.743V56.706h-3.027c-5.393 0-7.838-2.393-7.838-7.715v-2.92h-6.97l6.975-21.402c.233-10.045 9.394-17.957 20.056-17.957zm15.25 58.493V25.062c0-7.437-6.979-13.555-15.25-13.555s-15.25 6.118-15.25 13.555v.38l-5.16 15.834h5.16v7.715c0 2.655.272 2.92 3.027 2.92h7.838v13.294zM8.994 17.955C9.23 7.91 18.413 0 29.1 0c2.697 0 5.377.526 7.894 1.523l-1.778 4.455A16.63 16.63 0 0 0 29.1 4.795c-8.3 0-15.299 6.12-15.299 13.555v.38L8.627 34.564H13.8v7.715c0 2.653.274 2.92 3.042 2.92h7.853v13.294h9.851v4.795H19.885V49.994h-3.042c-5.403 0-7.853-2.392-7.853-7.715v-2.92H2z"/><filter id="f" height="101.4%" width="101.3%" x="-.7%" y="-.7%"><feOffset dx="1" in="SourceAlpha" result="shadowOffsetInner1"/><feComposite in="shadowOffsetInner1" in2="SourceAlpha" k2="-1" k3="1" operator="arithmetic" result="shadowInnerInner1"/><feColorMatrix in="shadowInnerInner1" values="0 0 0 0 1 0 0 0 0 0.152941176 0 0 0 0 0.321568627 0 0 0 0.5 0"/></filter><mask id="d" fill="#fff"><use fill-rule="evenodd" xlink:href="#a"/></mask></defs><g fill="none" transform="translate(2 5)"><use fill="#000" filter="url(#b)" xlink:href="#a"/><use fill="#ff2752" fill-rule="evenodd" xlink:href="#a"/><g fill="#000"><use filter="url(#c)" xlink:href="#a"/><g mask="url(#d)"><use fill-rule="evenodd" xlink:href="#e"/><use filter="url(#f)" xlink:href="#e"/></g></g></g></svg>