<svg height="80" viewBox="0 0 80 80" width="80" xmlns="http://www.w3.org/2000/svg" xmlns:xlink="http://www.w3.org/1999/xlink"><defs><path id="a" d="m35 .00040385c19.3294231 0 35 15.66923075 35 34.99999995 0 19.3294231-15.6705769 35-35 35s-35-15.6705769-35-35c0-19.3307692 15.6705769-34.99999995 35-34.99999995zm2.6923077 64.48749995c14.1844231-1.2855769 25.5096154-12.6107692 26.7951923-26.7951923h-4.9875v-5.3846153h4.9875c-1.2855769-14.1844231-12.6107692-25.50961543-26.7951923-26.79653851v4.98884611h-5.3846154v-4.98884611c-14.1844231 1.28692308-25.50961538 12.61211541-26.7951923 26.79653851h4.9875v5.3846153h-4.9875c1.28557692 14.1844231 12.6107692 25.5096154 26.7951923 26.7951923v-4.9875h5.3846154zm0-46.9879038v14.8076923h6.7307692v5.3846154h-12.1153846v-20.1923077z"/><filter id="b" height="102.9%" width="105.7%" x="-1.4%" y="-1.4%"><feOffset dx="2" dy="0" in="SourceAlpha" result="shadowOffsetOuter1"/><feColorMatrix in="shadowOffsetOuter1" type="matrix" values="0 0 0 0 0.0901960784   0 0 0 0 0.882352941   0 0 0 0 0.996078431  0 0 0 1 0"/></filter><path id="c" d="m37 .00040385c19.3294231 0 35 15.66923075 35 34.99999995 0 19.3294231-15.6705769 35-35 35s-35-15.6705769-35-35c0-19.3307692 15.6705769-34.99999995 35-34.99999995zm2.6923077 64.48749995c14.1844231-1.2855769 25.5096154-12.6107692 26.7951923-26.7951923h-4.9875v-5.3846153h4.9875c-1.2855769-14.1844231-12.6107692-25.50961543-26.7951923-26.79653851v4.98884611h-5.3846154v-4.98884611c-14.1844231 1.28692308-25.50961538 12.61211541-26.7951923 26.79653851h4.9875v5.3846153h-4.9875c1.28557692 14.1844231 12.6107692 25.5096154 26.7951923 26.7951923v-4.9875h5.3846154zm0-46.9879038v14.8076923h6.7307692v5.3846154h-12.1153846v-20.1923077z"/><filter id="d" height="101.4%" width="101.4%" x="-.7%" y="-.7%"><feOffset dx="1" dy="0" in="SourceAlpha" result="shadowOffsetInner1"/><feComposite in="shadowOffsetInner1" in2="SourceAlpha" k2="-1" k3="1" operator="arithmetic" result="shadowInnerInner1"/><feColorMatrix in="shadowInnerInner1" type="matrix" values="0 0 0 0 1   0 0 0 0 0.152941176   0 0 0 0 0.321568627  0 0 0 0.5 0"/></filter><mask id="e" fill="#fff"><use fill="#fff" fill-rule="evenodd" xlink:href="#a"/></mask></defs><g fill="none" fill-rule="evenodd" transform="translate(3 5)"><use fill="#000" filter="url(#b)" xlink:href="#a"/><use fill="#ff2752" fill-rule="evenodd" xlink:href="#a"/><g fill="#000" mask="url(#e)"><use fill-rule="evenodd" xlink:href="#c"/><use filter="url(#d)" xlink:href="#c"/></g></g></svg>