<?xml version="1.0" encoding="UTF-8"?>
<svg width="80px" height="80px" viewBox="0 0 80 80" version="1.1" xmlns="http://www.w3.org/2000/svg" xmlns:xlink="http://www.w3.org/1999/xlink">
    <!-- Generator: Sketch 49.1 (51147) - http://www.bohemiancoding.com/sketch -->
    <title>Atoms/Icons/80/Time</title>
    <desc>Created with Sketch.</desc>
    <defs>
        <path d="M35,0.000403846154 C54.3294231,0.000403846154 70,15.6696346 70,35.0004038 C70,54.3298269 54.3294231,70.0004038 35,70.0004038 C15.6705769,70.0004038 0,54.3298269 0,35.0004038 C0,15.6696346 15.6705769,0.000403846154 35,0.000403846154 Z M37.6923077,64.4879038 C51.8767308,63.2023269 63.2019231,51.8771346 64.4875,37.6927115 L59.5,37.6927115 L59.5,32.3080962 L64.4875,32.3080962 C63.2019231,18.1236731 51.8767308,6.79848077 37.6923077,5.51155769 L37.6923077,10.5004038 L32.3076923,10.5004038 L32.3076923,5.51155769 C18.1232692,6.79848077 6.79807692,18.1236731 5.5125,32.3080962 L10.5,32.3080962 L10.5,37.6927115 L5.5125,37.6927115 C6.79807692,51.8771346 18.1232692,63.2023269 32.3076923,64.4879038 L32.3076923,59.5004038 L37.6923077,59.5004038 L37.6923077,64.4879038 Z M37.6923077,17.5 L37.6923077,32.3076923 L44.4230769,32.3076923 L44.4230769,37.6923077 L32.3076923,37.6923077 L32.3076923,17.5 L37.6923077,17.5 Z" id="path-1"></path>
        <filter x="-1.4%" y="-1.4%" width="105.7%" height="102.9%" filterUnits="objectBoundingBox" id="filter-3">
            <feOffset dx="2" dy="0" in="SourceAlpha" result="shadowOffsetOuter1"></feOffset>
            <feColorMatrix values="0 0 0 0 0.0901960784   0 0 0 0 0.882352941   0 0 0 0 0.996078431  0 0 0 1 0" type="matrix" in="shadowOffsetOuter1"></feColorMatrix>
        </filter>
        <path d="M37,0.000403846154 C56.3294231,0.000403846154 72,15.6696346 72,35.0004038 C72,54.3298269 56.3294231,70.0004038 37,70.0004038 C17.6705769,70.0004038 2,54.3298269 2,35.0004038 C2,15.6696346 17.6705769,0.000403846154 37,0.000403846154 Z M39.6923077,64.4879038 C53.8767308,63.2023269 65.2019231,51.8771346 66.4875,37.6927115 L61.5,37.6927115 L61.5,32.3080962 L66.4875,32.3080962 C65.2019231,18.1236731 53.8767308,6.79848077 39.6923077,5.51155769 L39.6923077,10.5004038 L34.3076923,10.5004038 L34.3076923,5.51155769 C20.1232692,6.79848077 8.79807692,18.1236731 7.5125,32.3080962 L12.5,32.3080962 L12.5,37.6927115 L7.5125,37.6927115 C8.79807692,51.8771346 20.1232692,63.2023269 34.3076923,64.4879038 L34.3076923,59.5004038 L39.6923077,59.5004038 L39.6923077,64.4879038 Z M39.6923077,17.5 L39.6923077,32.3076923 L46.4230769,32.3076923 L46.4230769,37.6923077 L34.3076923,37.6923077 L34.3076923,17.5 L39.6923077,17.5 Z" id="path-4"></path>
        <filter x="-0.7%" y="-0.7%" width="101.4%" height="101.4%" filterUnits="objectBoundingBox" id="filter-5">
            <feOffset dx="1" dy="0" in="SourceAlpha" result="shadowOffsetInner1"></feOffset>
            <feComposite in="shadowOffsetInner1" in2="SourceAlpha" operator="arithmetic" k2="-1" k3="1" result="shadowInnerInner1"></feComposite>
            <feColorMatrix values="0 0 0 0 1   0 0 0 0 0.152941176   0 0 0 0 0.321568627  0 0 0 0.5 0" type="matrix" in="shadowInnerInner1"></feColorMatrix>
        </filter>
    </defs>
    <g id="Atoms/Icons/80/Time" stroke="none" stroke-width="1" fill="none" fill-rule="evenodd">
        <g id="Icn" transform="translate(3.000000, 5.000000)">
            <mask id="mask-2" fill="white">
                <use xlink:href="#path-1"></use>
            </mask>
            <g id="Mask">
                <use fill="black" fill-opacity="1" filter="url(#filter-3)" xlink:href="#path-1"></use>
                <use fill="#FF2752" fill-rule="evenodd" xlink:href="#path-1"></use>
            </g>
            <g id="Combined-Shape" mask="url(#mask-2)">
                <use fill="#000000" fill-rule="evenodd" xlink:href="#path-4"></use>
                <use fill="black" fill-opacity="1" filter="url(#filter-5)" xlink:href="#path-4"></use>
            </g>
        </g>
    </g>
</svg>