<?xml version="1.0" encoding="UTF-8"?>
<svg width="80px" height="80px" viewBox="0 0 80 80" version="1.1" xmlns="http://www.w3.org/2000/svg" xmlns:xlink="http://www.w3.org/1999/xlink">
    <!-- Generator: Sketch 49.1 (51147) - http://www.bohemiancoding.com/sketch -->
    <title>Atoms/Icons/80/Tutoring</title>
    <desc>Created with Sketch.</desc>
    <defs>
        <path d="M40.5,2.5 L64.5,2.5 L64.5,50.5 L0.5,50.5 L0.5,2.5 L25.5,2.5 L25.5,0 L30.5,0 L30.5,2.5 L35.5,2.5 L35.5,0 L40.5,0 L40.5,2.5 Z M22,7.5 L5.5,7.5 L5.5,45.5 L59.5,45.5 L59.5,7.5 L44,7.5 L44,10.5 L22,10.5 L22,7.5 Z M25.8920575,70.6340497 L22.1079425,67.3659503 L33.5,54.1751469 L44.8920575,67.3659503 L41.1079425,70.6340497 L33.5,61.8248531 L25.8920575,70.6340497 Z M18.7074328,34.8261087 L15.2925672,31.1738913 L25.348475,21.7715008 L34.4986716,29.6689224 L47.3290996,18.1404055 L50.6709004,21.8595945 L34.5651582,36.3310776 L25.4821633,28.4916571 L18.7074328,34.8261087 Z" id="path-1"></path>
        <filter x="-1.6%" y="-1.4%" width="106.2%" height="102.8%" filterUnits="objectBoundingBox" id="filter-3">
            <feOffset dx="2" dy="0" in="SourceAlpha" result="shadowOffsetOuter1"></feOffset>
            <feColorMatrix values="0 0 0 0 0.0901960784   0 0 0 0 0.882352941   0 0 0 0 0.996078431  0 0 0 1 0" type="matrix" in="shadowOffsetOuter1"></feColorMatrix>
        </filter>
        <filter x="-1.6%" y="-1.4%" width="106.2%" height="102.8%" filterUnits="objectBoundingBox" id="filter-4">
            <feOffset dx="2" dy="0" in="SourceAlpha" result="shadowOffsetInner1"></feOffset>
            <feComposite in="shadowOffsetInner1" in2="SourceAlpha" operator="arithmetic" k2="-1" k3="1" result="shadowInnerInner1"></feComposite>
            <feColorMatrix values="0 0 0 0 1   0 0 0 0 0.152941176   0 0 0 0 0.321568627  0 0 0 1 0" type="matrix" in="shadowInnerInner1"></feColorMatrix>
        </filter>
        <path d="M42.5,2.5 L66.5,2.5 L66.5,50.5 L2.5,50.5 L2.5,2.5 L27.5,2.5 L27.5,0 L32.5,0 L32.5,2.5 L37.5,2.5 L37.5,0 L42.5,0 L42.5,2.5 Z M24,7.5 L7.5,7.5 L7.5,45.5 L61.5,45.5 L61.5,7.5 L46,7.5 L46,10.5 L24,10.5 L24,7.5 Z M27.8920575,70.6340497 L24.1079425,67.3659503 L35.5,54.1751469 L46.8920575,67.3659503 L43.1079425,70.6340497 L35.5,61.8248531 L27.8920575,70.6340497 Z M20.7074328,34.8261087 L17.2925672,31.1738913 L27.348475,21.7715008 L36.4986716,29.6689224 L49.3290996,18.1404055 L52.6709004,21.8595945 L36.5651582,36.3310776 L27.4821633,28.4916571 L20.7074328,34.8261087 Z" id="path-5"></path>
        <filter x="-0.8%" y="-0.7%" width="101.6%" height="101.4%" filterUnits="objectBoundingBox" id="filter-6">
            <feOffset dx="1" dy="0" in="SourceAlpha" result="shadowOffsetInner1"></feOffset>
            <feComposite in="shadowOffsetInner1" in2="SourceAlpha" operator="arithmetic" k2="-1" k3="1" result="shadowInnerInner1"></feComposite>
            <feColorMatrix values="0 0 0 0 1   0 0 0 0 0.152941176   0 0 0 0 0.321568627  0 0 0 0.5 0" type="matrix" in="shadowInnerInner1"></feColorMatrix>
        </filter>
    </defs>
    <g id="Atoms/Icons/80/Tutoring" stroke="none" stroke-width="1" fill="none" fill-rule="evenodd">
        <g id="Tutoring" transform="translate(7.000000, 5.000000)">
            <mask id="mask-2" fill="white">
                <use xlink:href="#path-1"></use>
            </mask>
            <g id="Combined-Shape" fill-rule="nonzero">
                <use fill="black" fill-opacity="1" filter="url(#filter-3)" xlink:href="#path-1"></use>
                <use fill="#FF2752" fill-rule="evenodd" xlink:href="#path-1"></use>
                <use fill="black" fill-opacity="1" filter="url(#filter-4)" xlink:href="#path-1"></use>
            </g>
            <g id="Combined-Shape" mask="url(#mask-2)" fill-rule="nonzero">
                <use fill="#000000" fill-rule="evenodd" xlink:href="#path-5"></use>
                <use fill="black" fill-opacity="1" filter="url(#filter-6)" xlink:href="#path-5"></use>
            </g>
        </g>
    </g>
</svg>