<svg height="80" width="80" xmlns="http://www.w3.org/2000/svg" xmlns:xlink="http://www.w3.org/1999/xlink"><defs><path id="a" d="M40.5 2.5h24v48H.5v-48h25V0h5v2.5h5V0h5zM22 7.5H5.5v38h54v-38H44v3H22zm3.892 63.134l-3.784-3.268L33.5 54.176l11.392 13.19-3.784 3.268-7.608-8.81zm-7.185-35.808l-3.414-3.652 10.055-9.402 9.15 7.897L47.33 18.14l3.342 3.72L34.565 36.33l-9.083-7.84z"/><filter id="b" height="102.8%" width="106.2%" x="-1.6%" y="-1.4%"><feOffset dx="2" in="SourceAlpha" result="shadowOffsetOuter1"/><feColorMatrix in="shadowOffsetOuter1" values="0 0 0 0 0.0901960784 0 0 0 0 0.882352941 0 0 0 0 0.996078431 0 0 0 1 0"/></filter><filter id="c" height="102.8%" width="106.2%" x="-1.6%" y="-1.4%"><feOffset dx="2" in="SourceAlpha" result="shadowOffsetInner1"/><feComposite in="shadowOffsetInner1" in2="SourceAlpha" k2="-1" k3="1" operator="arithmetic" result="shadowInnerInner1"/><feColorMatrix in="shadowInnerInner1" values="0 0 0 0 1 0 0 0 0 0.152941176 0 0 0 0 0.321568627 0 0 0 1 0"/></filter><path id="e" d="M42.5 2.5h24v48h-64v-48h25V0h5v2.5h5V0h5zM24 7.5H7.5v38h54v-38H46v3H24zm3.892 63.134l-3.784-3.268L35.5 54.176l11.392 13.19-3.784 3.268-7.608-8.81zm-7.185-35.808l-3.414-3.652 10.055-9.402 9.15 7.897L49.33 18.14l3.342 3.72L36.565 36.33l-9.083-7.84z"/><filter id="f" height="101.4%" width="101.6%" x="-.8%" y="-.7%"><feOffset dx="1" in="SourceAlpha" result="shadowOffsetInner1"/><feComposite in="shadowOffsetInner1" in2="SourceAlpha" k2="-1" k3="1" operator="arithmetic" result="shadowInnerInner1"/><feColorMatrix in="shadowInnerInner1" values="0 0 0 0 1 0 0 0 0 0.152941176 0 0 0 0 0.321568627 0 0 0 0.5 0"/></filter><mask id="d" fill="#fff"><use fill-rule="evenodd" xlink:href="#a"/></mask></defs><g fill="none" transform="translate(7 5)"><use fill="#000" filter="url(#b)" xlink:href="#a"/><use fill="#ff2752" fill-rule="evenodd" xlink:href="#a"/><g fill="#000"><use filter="url(#c)" xlink:href="#a"/><g mask="url(#d)"><use fill-rule="evenodd" xlink:href="#e"/><use filter="url(#f)" xlink:href="#e"/></g></g></g></svg>