<svg height="80" viewBox="0 0 80 80" width="80" xmlns="http://www.w3.org/2000/svg" xmlns:xlink="http://www.w3.org/1999/xlink"><defs><path id="a" d="m0 0v12.8571429 47.1428571h60v-60zm4.28571429 12.8571429h51.42964281v-8.57142861h-51.42964281zm0 42.8571428v-38.5714286h51.42964281v38.5714286zm17.77382141-13.91775-5.3678571-5.3678571 5.3678571-5.3689286-3.03-3.03-8.3989286 8.3989286 8.3989286 8.3978571zm18.9111429 3.0301072 8.3989285-8.3978572-8.3989285-8.3989286-3.03 3.03 5.3678571 5.3689286-5.3678571 5.3678572zm-5.7866786-17.235-4.0682143-1.3478572-6.3 19.0210714 4.0682143 1.3478572zm-26.61257143-21.16328576c1.18285714 0 2.14285713.96 2.14285713 2.14285715 0 1.18285714-.95999999 2.14285711-2.14285713 2.14285711s-2.14285714-.95999997-2.14285714-2.14285711c0-1.18285715.96-2.14285715 2.14285714-2.14285715zm6.42857143 0c1.1828571 0 2.1428571.96 2.1428571 2.14285715 0 1.18285714-.96 2.14285711-2.1428571 2.14285711s-2.1428571-.95999997-2.1428571-2.14285711c0-1.18285715.96-2.14285715 2.1428571-2.14285715zm6.4285714 0c1.1828572 0 2.1428572.96 2.1428572 2.14285715 0 1.18285714-.96 2.14285711-2.1428572 2.14285711-1.1828571 0-2.1428571-.95999997-2.1428571-2.14285711 0-1.18285715.96-2.14285715 2.1428571-2.14285715z"/><filter id="b" height="103.3%" width="106.7%" x="-1.7%" y="-1.7%"><feOffset dx="2" dy="0" in="SourceAlpha" result="shadowOffsetOuter1"/><feColorMatrix in="shadowOffsetOuter1" type="matrix" values="0 0 0 0 0.0901960784   0 0 0 0 0.882352941   0 0 0 0 0.996078431  0 0 0 1 0"/></filter><path id="c" d="m2 0v12.8571429 47.1428571h60v-60zm4.28571429 12.8571429h51.42964281v-8.57142861h-51.42964281zm0 42.8571428v-38.5714286h51.42964281v38.5714286zm17.77382141-13.91775-5.3678571-5.3678571 5.3678571-5.3689286-3.03-3.03-8.3989286 8.3989286 8.3989286 8.3978571zm18.9111429 3.0301072 8.3989285-8.3978572-8.3989285-8.3989286-3.03 3.03 5.3678571 5.3689286-5.3678571 5.3678572zm-5.7866786-17.235-4.0682143-1.3478572-6.3 19.0210714 4.0682143 1.3478572zm-26.6125714-21.16328576c1.1828571 0 2.1428571.96 2.1428571 2.14285715 0 1.18285714-.96 2.14285711-2.1428571 2.14285711-1.18285717 0-2.14285717-.95999997-2.14285717-2.14285711 0-1.18285715.96-2.14285715 2.14285717-2.14285715zm6.4285714 0c1.1828571 0 2.1428571.96 2.1428571 2.14285715 0 1.18285714-.96 2.14285711-2.1428571 2.14285711s-2.1428571-.95999997-2.1428571-2.14285711c0-1.18285715.96-2.14285715 2.1428571-2.14285715zm6.4285714 0c1.1828572 0 2.1428572.96 2.1428572 2.14285715 0 1.18285714-.96 2.14285711-2.1428572 2.14285711-1.1828571 0-2.1428571-.95999997-2.1428571-2.14285711 0-1.18285715.96-2.14285715 2.1428571-2.14285715z"/><filter id="d" height="101.7%" width="101.7%" x="-.8%" y="-.8%"><feOffset dx="1" dy="0" in="SourceAlpha" result="shadowOffsetInner1"/><feComposite in="shadowOffsetInner1" in2="SourceAlpha" k2="-1" k3="1" operator="arithmetic" result="shadowInnerInner1"/><feColorMatrix in="shadowInnerInner1" type="matrix" values="0 0 0 0 1   0 0 0 0 0.152941176   0 0 0 0 0.321568627  0 0 0 0.5 0"/></filter><mask id="e" fill="#fff"><use fill="#fff" fill-rule="evenodd" xlink:href="#a"/></mask></defs><g fill="none" fill-rule="evenodd" transform="translate(10 10)"><use fill="#000" filter="url(#b)" xlink:href="#a"/><use fill="#ff2752" fill-rule="evenodd" xlink:href="#a"/><g fill="#000" mask="url(#e)"><use fill-rule="evenodd" xlink:href="#c"/><use filter="url(#d)" xlink:href="#c"/></g></g></svg>