<?xml version="1.0" encoding="UTF-8"?>
<svg width="80px" height="80px" viewBox="0 0 80 80" version="1.1" xmlns="http://www.w3.org/2000/svg" xmlns:xlink="http://www.w3.org/1999/xlink">
    <!-- Generator: Sketch 49.1 (51147) - http://www.bohemiancoding.com/sketch -->
    <title>Atoms/Icons/80/Code</title>
    <desc>Created with Sketch.</desc>
    <defs>
        <path d="M0,0 L0,12.8571429 L0,60 L60,60 L60,0 L0,0 Z M4.28571429,12.8571429 L55.7153571,12.8571429 L55.7153571,4.28571429 L4.28571429,4.28571429 L4.28571429,12.8571429 Z M4.28571429,55.7142857 L4.28571429,17.1428571 L55.7153571,17.1428571 L55.7153571,55.7142857 L4.28571429,55.7142857 Z M22.0595357,41.7965357 L16.6916786,36.4286786 L22.0595357,31.05975 L19.0295357,28.02975 L10.6306071,36.4286786 L19.0295357,44.8265357 L22.0595357,41.7965357 Z M40.9706786,44.8266429 L49.3696071,36.4287857 L40.9706786,28.0298571 L37.9406786,31.0598571 L43.3085357,36.4287857 L37.9406786,41.7966429 L40.9706786,44.8266429 Z M35.184,27.5916429 L31.1157857,26.2437857 L24.8157857,45.2648571 L28.884,46.6127143 L35.184,27.5916429 Z M8.57142857,6.42835714 C9.75428571,6.42835714 10.7142857,7.38835714 10.7142857,8.57121429 C10.7142857,9.75407143 9.75428571,10.7140714 8.57142857,10.7140714 C7.38857143,10.7140714 6.42857143,9.75407143 6.42857143,8.57121429 C6.42857143,7.38835714 7.38857143,6.42835714 8.57142857,6.42835714 Z M15,6.42835714 C16.1828571,6.42835714 17.1428571,7.38835714 17.1428571,8.57121429 C17.1428571,9.75407143 16.1828571,10.7140714 15,10.7140714 C13.8171429,10.7140714 12.8571429,9.75407143 12.8571429,8.57121429 C12.8571429,7.38835714 13.8171429,6.42835714 15,6.42835714 Z M21.4285714,6.42835714 C22.6114286,6.42835714 23.5714286,7.38835714 23.5714286,8.57121429 C23.5714286,9.75407143 22.6114286,10.7140714 21.4285714,10.7140714 C20.2457143,10.7140714 19.2857143,9.75407143 19.2857143,8.57121429 C19.2857143,7.38835714 20.2457143,6.42835714 21.4285714,6.42835714 Z" id="path-1"></path>
        <filter x="-1.7%" y="-1.7%" width="106.7%" height="103.3%" filterUnits="objectBoundingBox" id="filter-3">
            <feOffset dx="2" dy="0" in="SourceAlpha" result="shadowOffsetOuter1"></feOffset>
            <feColorMatrix values="0 0 0 0 0.0901960784   0 0 0 0 0.882352941   0 0 0 0 0.996078431  0 0 0 1 0" type="matrix" in="shadowOffsetOuter1"></feColorMatrix>
        </filter>
        <path d="M2,0 L2,12.8571429 L2,60 L62,60 L62,0 L2,0 Z M6.28571429,12.8571429 L57.7153571,12.8571429 L57.7153571,4.28571429 L6.28571429,4.28571429 L6.28571429,12.8571429 Z M6.28571429,55.7142857 L6.28571429,17.1428571 L57.7153571,17.1428571 L57.7153571,55.7142857 L6.28571429,55.7142857 Z M24.0595357,41.7965357 L18.6916786,36.4286786 L24.0595357,31.05975 L21.0295357,28.02975 L12.6306071,36.4286786 L21.0295357,44.8265357 L24.0595357,41.7965357 Z M42.9706786,44.8266429 L51.3696071,36.4287857 L42.9706786,28.0298571 L39.9406786,31.0598571 L45.3085357,36.4287857 L39.9406786,41.7966429 L42.9706786,44.8266429 Z M37.184,27.5916429 L33.1157857,26.2437857 L26.8157857,45.2648571 L30.884,46.6127143 L37.184,27.5916429 Z M10.5714286,6.42835714 C11.7542857,6.42835714 12.7142857,7.38835714 12.7142857,8.57121429 C12.7142857,9.75407143 11.7542857,10.7140714 10.5714286,10.7140714 C9.38857143,10.7140714 8.42857143,9.75407143 8.42857143,8.57121429 C8.42857143,7.38835714 9.38857143,6.42835714 10.5714286,6.42835714 Z M17,6.42835714 C18.1828571,6.42835714 19.1428571,7.38835714 19.1428571,8.57121429 C19.1428571,9.75407143 18.1828571,10.7140714 17,10.7140714 C15.8171429,10.7140714 14.8571429,9.75407143 14.8571429,8.57121429 C14.8571429,7.38835714 15.8171429,6.42835714 17,6.42835714 Z M23.4285714,6.42835714 C24.6114286,6.42835714 25.5714286,7.38835714 25.5714286,8.57121429 C25.5714286,9.75407143 24.6114286,10.7140714 23.4285714,10.7140714 C22.2457143,10.7140714 21.2857143,9.75407143 21.2857143,8.57121429 C21.2857143,7.38835714 22.2457143,6.42835714 23.4285714,6.42835714 Z" id="path-4"></path>
        <filter x="-0.8%" y="-0.8%" width="101.7%" height="101.7%" filterUnits="objectBoundingBox" id="filter-5">
            <feOffset dx="1" dy="0" in="SourceAlpha" result="shadowOffsetInner1"></feOffset>
            <feComposite in="shadowOffsetInner1" in2="SourceAlpha" operator="arithmetic" k2="-1" k3="1" result="shadowInnerInner1"></feComposite>
            <feColorMatrix values="0 0 0 0 1   0 0 0 0 0.152941176   0 0 0 0 0.321568627  0 0 0 0.5 0" type="matrix" in="shadowInnerInner1"></feColorMatrix>
        </filter>
    </defs>
    <g id="Atoms/Icons/80/Code" stroke="none" stroke-width="1" fill="none" fill-rule="evenodd">
        <g id="Icn" transform="translate(10.000000, 10.000000)">
            <mask id="mask-2" fill="white">
                <use xlink:href="#path-1"></use>
            </mask>
            <g id="Mask">
                <use fill="black" fill-opacity="1" filter="url(#filter-3)" xlink:href="#path-1"></use>
                <use fill="#FF2752" fill-rule="evenodd" xlink:href="#path-1"></use>
            </g>
            <g id="Combined-Shape" mask="url(#mask-2)">
                <use fill="#000000" fill-rule="evenodd" xlink:href="#path-4"></use>
                <use fill="black" fill-opacity="1" filter="url(#filter-5)" xlink:href="#path-4"></use>
            </g>
        </g>
    </g>
</svg>