<svg height="80" width="80" xmlns="http://www.w3.org/2000/svg" xmlns:xlink="http://www.w3.org/1999/xlink"><defs><path id="a" d="M0 0v60h60V0zm4.286 12.857h51.43V4.286H4.285zm0 42.857V17.143h51.43v38.571zM22.06 41.797l-5.368-5.368 5.368-5.37-3.03-3.03-8.4 8.4 8.4 8.398zm18.91 3.03l8.4-8.398-8.4-8.4-3.03 3.03 5.369 5.37-5.368 5.368zm-5.786-17.235l-4.068-1.348-6.3 19.02 4.068 1.349zM8.571 6.428a2.144 2.144 0 1 1-.001 4.288 2.144 2.144 0 0 1 .001-4.288zm6.429 0a2.144 2.144 0 1 1-.002 4.288A2.144 2.144 0 0 1 15 6.428zm6.429 0a2.144 2.144 0 1 1-.002 4.288 2.144 2.144 0 0 1 .002-4.288z"/><filter id="b" height="103.3%" width="106.7%" x="-1.7%" y="-1.7%"><feOffset dx="2" in="SourceAlpha" result="shadowOffsetOuter1"/><feColorMatrix in="shadowOffsetOuter1" values="0 0 0 0 0.0901960784 0 0 0 0 0.882352941 0 0 0 0 0.996078431 0 0 0 1 0"/></filter><path id="d" d="M2 0v60h60V0zm4.286 12.857h51.43V4.286H6.285zm0 42.857V17.143h51.43v38.571zM24.06 41.797l-5.368-5.368 5.368-5.37-3.03-3.03-8.4 8.4 8.4 8.398zm18.91 3.03l8.4-8.398-8.4-8.4-3.03 3.03 5.369 5.37-5.368 5.368zm-5.786-17.235l-4.068-1.348-6.3 19.02 4.068 1.349zM10.571 6.428a2.144 2.144 0 1 1-.001 4.288 2.144 2.144 0 0 1 .001-4.288zm6.429 0a2.144 2.144 0 1 1-.002 4.288A2.144 2.144 0 0 1 17 6.428zm6.429 0a2.144 2.144 0 1 1-.002 4.288 2.144 2.144 0 0 1 .002-4.288z"/><filter id="e" height="101.7%" width="101.7%" x="-.8%" y="-.8%"><feOffset dx="1" in="SourceAlpha" result="shadowOffsetInner1"/><feComposite in="shadowOffsetInner1" in2="SourceAlpha" k2="-1" k3="1" operator="arithmetic" result="shadowInnerInner1"/><feColorMatrix in="shadowInnerInner1" values="0 0 0 0 1 0 0 0 0 0.152941176 0 0 0 0 0.321568627 0 0 0 0.5 0"/></filter><mask id="c" fill="#fff"><use fill-rule="evenodd" xlink:href="#a"/></mask></defs><g fill="none" fill-rule="evenodd" transform="translate(10 10)"><use fill="#000" filter="url(#b)" xlink:href="#a"/><use fill="#ff2752" xlink:href="#a"/><g fill="#000" mask="url(#c)"><use xlink:href="#d"/><use filter="url(#e)" xlink:href="#d"/></g></g></svg>