<svg width="1176" height="237" xmlns="http://www.w3.org/2000/svg"><defs><linearGradient x1="0%" y1="50%" x2="75.962%" y2="50%" id="a"><stop stop-color="#1580F2" offset="0%"/><stop stop-color="#C16CCD" offset="51.809%"/><stop stop-color="#F37A78" offset="100%"/></linearGradient></defs><g fill="none" fill-rule="evenodd"><path fill="#F4F6F8" d="M0 0H1176V236.333H0z"/><g transform="translate(783 169)" fill="#E04E39" fill-rule="nonzero"><path d="M93.583 25.451s-2.316 1.81-4.354 1.607c-2.039-.202-1.399-4.787-1.399-4.787s.44-4.205-.76-4.559c-1.198-.35-2.676 1.096-2.676 1.096s-1.838 2.052-2.717 4.669l-.242.08s.28-4.589-.039-5.634c-.239-.523-2.437-.481-2.796.442-.36.927-2.119 7.363-2.24 10.06 0 0-3.436 2.936-6.43 3.418-2.998.484-3.718-1.408-3.718-1.408s8.151-2.293 7.87-8.85c-.276-6.558-6.572-4.131-7.283-3.594-.69.523-4.369 2.756-5.443 8.942-.035.208-.1 1.129-.1 1.129s-3.157 2.13-4.915 2.694c0 0 4.915-8.328-1.077-12.108-1.685-1.022-3.154-.082-4.028.781-.536.53 7.264-8.06 5.465-15.746-.856-3.66-2.673-4.051-4.34-3.457-2.531 1.004-3.49 2.491-3.49 2.491s-3.277 4.788-4.038 11.91c-.759 7.118-1.877 15.728-1.877 15.728s-1.56 1.53-2.997 1.61c-1.44.077-.8-4.307-.8-4.307s1.119-6.676 1.042-7.805c-.083-1.125-.162-1.728-1.481-2.129-1.319-.404-2.758 1.286-2.758 1.286s-3.794 5.791-4.113 6.676l-.203.365-.198-.243s2.676-7.885.12-8.004c-2.557-.122-4.236 2.816-4.236 2.816s-2.917 4.909-3.038 5.47l-.198-.24s1.198-5.712.959-7.122c-.242-1.408-1.558-1.126-1.558-1.126s-1.678-.202-2.118.885c-.44 1.087-2.038 8.286-2.239 10.579 0 0-4.195 3.017-6.953 3.056-2.756.041-2.476-1.758-2.476-1.758s10.11-3.484 7.352-10.362c-1.239-1.77-2.676-2.326-4.714-2.287-2.039.042-4.567 1.292-6.204 4.992-.785 1.764-1.068 3.442-1.23 4.708 0 0-1.768.365-2.726-.44-.962-.805-1.455 0-1.455 0S-.912 29.09.725 29.731c1.64.644 4.195.944 4.195.944a7.707 7.707 0 0 0 2.915 4.565c2.997 2.293 8.747-.21 8.747-.21l2.357-1.331s.08 2.177 1.8 2.494c1.717.318 2.437-.006 5.434-7.326 1.758-3.742 1.88-3.54 1.88-3.54.197-.042-1.16 7.118-.64 9.049.518 1.933 2.796 1.731 2.796 1.731s1.239.24 2.239-3.3c.997-3.54 2.918-7.442 2.918-7.442.236 0-.602 7.321.675 9.655 1.28 2.335 4.596.784 4.596.784s2.32-1.176 2.68-1.538c0 0 2.749 2.358 6.628 1.93 8.673-1.72 11.76-4.042 11.76-4.042s1.49 3.802 6.106 4.155c5.272.401 8.151-2.937 8.151-2.937s-.041 2.17 1.797 2.937c1.84.763 3.077-3.534 3.077-3.534l3.077-8.535c.28 0 .44 5.55 3.478 6.435 3.036.885 6.992-2.073 6.992-2.073s.958-.531.8-2.14c-.163-1.61-1.6-1.01-1.6-1.01zm-80.036-4.027c1.076 1.046.678 3.297-1.36 4.705-2.036 1.41-2.956 1.128-2.956 1.128.12-4.787 3.239-6.88 4.316-5.833zM53.305 4.891c.679 3.62-5.953 14.401-5.953 14.401.08-2.414 2.437-10.578 2.437-10.578s2.835-7.443 3.516-3.823zM46.75 32.365s-.52-1.77.959-6.718c1.48-4.947 4.956-3.017 4.956-3.017s2.399 1.85.52 6.798c-1.877 4.948-6.435 2.937-6.435 2.937zm20.22-9.693c1.638-3.018 2.918-1.37 2.918-1.37s1.398 1.53-.2 3.823c-1.6 2.293-3.916 2.132-3.916 2.132s-.44-1.57 1.198-4.585z"/><path d="M84.511 34.033v-.825h.572c.08 0 .16.007.243.015.083.011.163.03.23.057a.392.392 0 0 1 .167.115c.046.05.066.118.066.202 0 .191-.062.313-.188.363-.125.05-.288.073-.484.073h-.606zm-.68-1.31v3.14h.68v-1.341h.426l.836 1.34h.714l-.919-1.371c.125-.011.242-.034.355-.069a.85.85 0 0 0 .284-.149.641.641 0 0 0 .192-.252.838.838 0 0 0 .071-.37c0-.34-.117-.581-.346-.719-.234-.14-.568-.21-.999-.21H83.83zm-1.091 1.573a2.112 2.112 0 0 1 .672-1.574c.205-.194.452-.347.731-.458.285-.11.585-.164.907-.164.318 0 .618.053.898.164a2.214 2.214 0 0 1 1.232 1.15c.122.267.184.561.184.882a2.145 2.145 0 0 1-.68 1.585 2.219 2.219 0 0 1-.736.463c-.28.11-.58.164-.898.164-.322 0-.622-.054-.907-.164a2.2 2.2 0 0 1-1.224-1.162 2.143 2.143 0 0 1-.18-.886zm-.84 0c0 .432.088.818.259 1.161.175.348.405.642.694.887.292.244.626.431 1.006.561.38.13.777.195 1.191.195.418 0 .815-.065 1.195-.195.38-.13.714-.317 1.007-.561.288-.245.518-.539.693-.887.171-.343.255-.73.255-1.16 0-.425-.084-.81-.255-1.154a2.741 2.741 0 0 0-.693-.883 3.128 3.128 0 0 0-1.007-.561 3.568 3.568 0 0 0-1.195-.199c-.414 0-.81.065-1.19.199-.38.13-.715.317-1.007.561-.289.24-.519.535-.694.883-.171.343-.259.73-.259 1.153z"/></g><path d="M166.316 155.576v8.978c-.122 1.383-1.333 2.6-3.133 3.147-1.8.547-3.881.332-5.384-.556l-38.246-27.054c-.993-.691-1.553-1.635-1.553-2.621s.56-1.93 1.553-2.621l38.586-26.994c1.503-.888 3.585-1.103 5.385-.556 1.8.547 3.01 1.764 3.133 3.147v8.978h842.027v-8.978c.122-1.383 1.333-2.6 3.133-3.147 1.8-.547 3.881-.332 5.384.556l38.246 27.054c.993.691 1.553 1.635 1.553 2.621s-.56 1.93-1.553 2.621l-38.586 26.994c-1.503.888-3.585 1.103-5.385.556-1.8-.547-3.01-1.764-3.133-3.147v-8.978H166.316z" fill="url(#a)" fill-rule="nonzero"/><text font-family="NunitoSans-Bold, Nunito Sans" font-size="16" font-weight="bold" fill="#000"><tspan x="118" y="51">Document</tspan></text><text font-family="NunitoSans-Bold, Nunito Sans" font-size="16" font-weight="bold" letter-spacing="2" fill="#FFF"><tspan x="293" y="142">WEBSITES</tspan></text><text font-family="NunitoSans-Bold, Nunito Sans" font-size="16" font-weight="bold" letter-spacing="2" fill="#FFF"><tspan x="780" y="142">WEB APPS</tspan></text><text font-family="NunitoSans-Regular, Nunito Sans" font-size="16" fill="#000"><tspan x="118" y="75">Content-centric</tspan></text><text font-family="NunitoSans-Bold, Nunito Sans" font-size="16" font-weight="bold" fill="#000"><tspan x="965.032" y="51">Applications</tspan></text><text font-family="NunitoSans-Regular, Nunito Sans" font-size="16" fill="#000"><tspan x="939.416" y="75">Behavior-centric</tspan></text></g></svg>