<svg height="500" viewBox="0 0 1442 500" width="1442" xmlns="http://www.w3.org/2000/svg" xmlns:xlink="http://www.w3.org/1999/xlink"><defs><path id="a" d="m.846819 0h1440v500h-1440z"/><mask id="b" fill="#fff"><use fill="#fff" fill-rule="evenodd" xlink:href="#a"/></mask></defs><g fill="none" fill-rule="evenodd" transform="translate(.153181)"><use fill="#f4f6f8" xlink:href="#a"/><path d="m.846819 395h1440v105h-1440z" fill="#dfe1e3" mask="url(#b)" opacity=".4"/><g fill="#e6e6e6" fill-rule="nonzero" mask="url(#b)" opacity=".6"><g transform="translate(675.846819 46)"><circle cx="6.00923" cy="5.90411" r="5.54965"/><circle cx="34.10149" cy="5.90411" r="5.54965"/><circle cx="62.19376" cy="5.90411" r="5.54965"/><circle cx="90.28602" cy="5.90411" r="5.54965"/><circle cx="118.37828" cy="5.90411" r="5.54965"/><circle cx="146.47054" cy="5.90411" r="5.54965"/><circle cx="174.5628" cy="5.90411" r="5.54965"/><circle cx="202.65506" cy="5.90411" r="5.54965"/><circle cx="230.74732" cy="5.90411" r="5.54965"/><circle cx="258.83958" cy="5.90411" r="5.54965"/><circle cx="286.93185" cy="5.90411" r="5.54965"/><circle cx="315.02411" cy="5.90411" r="5.54965"/><circle cx="343.11637" cy="5.90411" r="5.54965"/><circle cx="371.20863" cy="5.90411" r="5.54965"/><circle cx="399.30089" cy="5.90411" r="5.54965"/><circle cx="427.39315" cy="5.90411" r="5.54965"/><circle cx="455.48541" cy="5.90411" r="5.54965"/><circle cx="483.57767" cy="5.90411" r="5.54965"/><circle cx="511.66993" cy="5.90411" r="5.54965"/><circle cx="539.7622" cy="5.90411" r="5.54965"/><circle cx="567.85446" cy="5.90411" r="5.54965"/><circle cx="595.94672" cy="5.90411" r="5.54965"/><circle cx="6.00923" cy="34.34899" r="5.54965"/><circle cx="34.10149" cy="34.34899" r="5.54965"/><circle cx="62.19376" cy="34.34899" r="5.54965"/><circle cx="90.28602" cy="34.34899" r="5.54965"/><circle cx="118.37828" cy="34.34899" r="5.54965"/><circle cx="146.47054" cy="34.34899" r="5.54965"/><circle cx="174.5628" cy="34.34899" r="5.54965"/><circle cx="202.65506" cy="34.34899" r="5.54965"/><circle cx="230.74732" cy="34.34899" r="5.54965"/><circle cx="258.83958" cy="34.34899" r="5.54965"/><circle cx="286.93185" cy="34.34899" r="5.54965"/><circle cx="315.02411" cy="34.34899" r="5.54965"/><circle cx="343.11637" cy="34.34899" r="5.54965"/><circle cx="371.20863" cy="34.34899" r="5.54965"/><circle cx="399.30089" cy="34.34899" r="5.54965"/><circle cx="427.39315" cy="34.34899" r="5.54965"/><circle cx="455.48541" cy="34.34899" r="5.54965"/><circle cx="483.57767" cy="34.34899" r="5.54965"/><circle cx="511.66993" cy="34.34899" r="5.54965"/><circle cx="539.7622" cy="34.34899" r="5.54965"/><circle cx="567.85446" cy="34.34899" r="5.54965"/><circle cx="595.94672" cy="34.34899" r="5.54965"/><circle cx="6.00923" cy="62.79387" r="5.54965"/><circle cx="34.10149" cy="62.79387" r="5.54965"/><circle cx="62.19376" cy="62.79387" r="5.54965"/><circle cx="90.28602" cy="62.79387" r="5.54965"/><circle cx="118.37828" cy="62.79387" r="5.54965"/><circle cx="146.47054" cy="62.79387" r="5.54965"/><circle cx="174.5628" cy="62.79387" r="5.54965"/><circle cx="202.65506" cy="62.79387" r="5.54965"/><circle cx="230.74732" cy="62.79387" r="5.54965"/><circle cx="258.83958" cy="62.79387" r="5.54965"/><circle cx="286.93185" cy="62.79387" r="5.54965"/><circle cx="315.02411" cy="62.79387" r="5.54965"/><circle cx="343.11637" cy="62.79387" r="5.54965"/><circle cx="371.20863" cy="62.79387" r="5.54965"/><circle cx="399.30089" cy="62.79387" r="5.54965"/><circle cx="427.39315" cy="62.79387" r="5.54965"/><circle cx="455.48541" cy="62.79387" r="5.54965"/><circle cx="483.57767" cy="62.79387" r="5.54965"/><circle cx="511.66993" cy="62.79387" r="5.54965"/><circle cx="539.7622" cy="62.79387" r="5.54965"/><circle cx="567.85446" cy="62.79387" r="5.54965"/><circle cx="595.94672" cy="62.79387" r="5.54965"/><circle cx="6.00923" cy="91.23874" r="5.54965"/><circle cx="34.10149" cy="91.23874" r="5.54965"/><circle cx="62.19376" cy="91.23874" r="5.54965"/><circle cx="90.28602" cy="91.23874" r="5.54965"/><circle cx="118.37828" cy="91.23874" r="5.54965"/><circle cx="146.47054" cy="91.23874" r="5.54965"/><circle cx="174.5628" cy="91.23874" r="5.54965"/><circle cx="202.65506" cy="91.23874" r="5.54965"/><circle cx="230.74732" cy="91.23874" r="5.54965"/><circle cx="258.83958" cy="91.23874" r="5.54965"/><circle cx="286.93185" cy="91.23874" r="5.54965"/><circle cx="315.02411" cy="91.23874" r="5.54965"/><circle cx="343.11637" cy="91.23874" r="5.54965"/><circle cx="371.20863" cy="91.23874" r="5.54965"/><circle cx="399.30089" cy="91.23874" r="5.54965"/><circle cx="427.39315" cy="91.23874" r="5.54965"/><circle cx="455.48541" cy="91.23874" r="5.54965"/><circle cx="483.57767" cy="91.23874" r="5.54965"/><circle cx="511.66993" cy="91.23874" r="5.54965"/><circle cx="539.7622" cy="91.23874" r="5.54965"/><circle cx="567.85446" cy="91.23874" r="5.54965"/><circle cx="595.94672" cy="91.23874" r="5.54965"/><circle cx="6.00923" cy="119.68362" r="5.54965"/><circle cx="34.10149" cy="119.68362" r="5.54965"/><circle cx="62.19376" cy="119.68362" r="5.54965"/><circle cx="90.28602" cy="119.68362" r="5.54965"/><circle cx="118.37828" cy="119.68362" r="5.54965"/><circle cx="146.47054" cy="119.68362" r="5.54965"/><circle cx="174.5628" cy="119.68362" r="5.54965"/><circle cx="202.65506" cy="119.68362" r="5.54965"/><circle cx="230.74732" cy="119.68362" r="5.54965"/><circle cx="258.83958" cy="119.68362" r="5.54965"/><circle cx="286.93185" cy="119.68362" r="5.54965"/><circle cx="315.02411" cy="119.68362" r="5.54965"/><circle cx="343.11637" cy="119.68362" r="5.54965"/><circle cx="371.20863" cy="119.68362" r="5.54965"/><circle cx="399.30089" cy="119.68362" r="5.54965"/><circle cx="427.39315" cy="119.68362" r="5.54965"/><circle cx="455.48541" cy="119.68362" r="5.54965"/><circle cx="483.57767" cy="119.68362" r="5.54965"/><circle cx="511.66993" cy="119.68362" r="5.54965"/><circle cx="539.7622" cy="119.68362" r="5.54965"/><circle cx="567.85446" cy="119.68362" r="5.54965"/><circle cx="595.94672" cy="119.68362" r="5.54965"/><circle cx="6.00923" cy="148.1285" r="5.54965"/><circle cx="34.10149" cy="148.1285" r="5.54965"/><circle cx="62.19376" cy="148.1285" r="5.54965"/><circle cx="90.28602" cy="148.1285" r="5.54965"/><circle cx="118.37828" cy="148.1285" r="5.54965"/><circle cx="146.47054" cy="148.1285" r="5.54965"/><circle cx="174.5628" cy="148.1285" r="5.54965"/><circle cx="202.65506" cy="148.1285" r="5.54965"/><circle cx="230.74732" cy="148.1285" r="5.54965"/><circle cx="258.83958" cy="148.1285" r="5.54965"/><circle cx="286.93185" cy="148.1285" r="5.54965"/><circle cx="315.02411" cy="148.1285" r="5.54965"/><circle cx="343.11637" cy="148.1285" r="5.54965"/><circle cx="371.20863" cy="148.1285" r="5.54965"/><circle cx="399.30089" cy="148.1285" r="5.54965"/><circle cx="427.39315" cy="148.1285" r="5.54965"/><circle cx="455.48541" cy="148.1285" r="5.54965"/><circle cx="483.57767" cy="148.1285" r="5.54965"/><circle cx="511.66993" cy="148.1285" r="5.54965"/><circle cx="539.7622" cy="148.1285" r="5.54965"/><circle cx="567.85446" cy="148.1285" r="5.54965"/><circle cx="595.94672" cy="148.1285" r="5.54965"/><circle cx="6.00923" cy="176.57337" r="5.54965"/><circle cx="34.10149" cy="176.57337" r="5.54965"/><circle cx="62.19376" cy="176.57337" r="5.54965"/><circle cx="90.28602" cy="176.57337" r="5.54965"/><circle cx="118.37828" cy="176.57337" r="5.54965"/><circle cx="146.47054" cy="176.57337" r="5.54965"/><circle cx="174.5628" cy="176.57337" r="5.54965"/><circle cx="202.65506" cy="176.57337" r="5.54965"/><circle cx="230.74732" cy="176.57337" r="5.54965"/><circle cx="258.83958" cy="176.57337" r="5.54965"/><circle cx="286.93185" cy="176.57337" r="5.54965"/><circle cx="315.02411" cy="176.57337" r="5.54965"/><circle cx="343.11637" cy="176.57337" r="5.54965"/><circle cx="371.20863" cy="176.57337" r="5.54965"/><circle cx="399.30089" cy="176.57337" r="5.54965"/><circle cx="427.39315" cy="176.57337" r="5.54965"/><circle cx="455.48541" cy="176.57337" r="5.54965"/><circle cx="483.57767" cy="176.57337" r="5.54965"/><circle cx="511.66993" cy="176.57337" r="5.54965"/><circle cx="539.7622" cy="176.57337" r="5.54965"/><circle cx="567.85446" cy="176.57337" r="5.54965"/><circle cx="595.94672" cy="176.57337" r="5.54965"/><circle cx="6.00923" cy="205.01825" r="5.54965"/><circle cx="34.10149" cy="205.01825" r="5.54965"/><circle cx="62.19376" cy="205.01825" r="5.54965"/><circle cx="90.28602" cy="205.01825" r="5.54965"/><circle cx="118.37828" cy="205.01825" r="5.54965"/><circle cx="146.47054" cy="205.01825" r="5.54965"/><circle cx="174.5628" cy="205.01825" r="5.54965"/><circle cx="202.65506" cy="205.01825" r="5.54965"/><circle cx="230.74732" cy="205.01825" r="5.54965"/><circle cx="258.83958" cy="205.01825" r="5.54965"/><circle cx="286.93185" cy="205.01825" r="5.54965"/><circle cx="315.02411" cy="205.01825" r="5.54965"/><circle cx="343.11637" cy="205.01825" r="5.54965"/><circle cx="371.20863" cy="205.01825" r="5.54965"/><circle cx="399.30089" cy="205.01825" r="5.54965"/><circle cx="427.39315" cy="205.01825" r="5.54965"/><circle cx="455.48541" cy="205.01825" r="5.54965"/><circle cx="483.57767" cy="205.01825" r="5.54965"/><circle cx="511.66993" cy="205.01825" r="5.54965"/><circle cx="539.7622" cy="205.01825" r="5.54965"/><circle cx="567.85446" cy="205.01825" r="5.54965"/><circle cx="595.94672" cy="205.01825" r="5.54965"/><circle cx="6.00923" cy="233.46313" r="5.54965"/><circle cx="34.10149" cy="233.46313" r="5.54965"/><circle cx="62.19376" cy="233.46313" r="5.54965"/><circle cx="90.28602" cy="233.46313" r="5.54965"/><circle cx="118.37828" cy="233.46313" r="5.54965"/><circle cx="146.47054" cy="233.46313" r="5.54965"/><circle cx="174.5628" cy="233.46313" r="5.54965"/><circle cx="202.65506" cy="233.46313" r="5.54965"/><circle cx="230.74732" cy="233.46313" r="5.54965"/><circle cx="258.83958" cy="233.46313" r="5.54965"/><circle cx="286.93185" cy="233.46313" r="5.54965"/><circle cx="315.02411" cy="233.46313" r="5.54965"/><circle cx="343.11637" cy="233.46313" r="5.54965"/><circle cx="371.20863" cy="233.46313" r="5.54965"/><circle cx="399.30089" cy="233.46313" r="5.54965"/><circle cx="427.39315" cy="233.46313" r="5.54965"/><circle cx="455.48541" cy="233.46313" r="5.54965"/><circle cx="483.57767" cy="233.46313" r="5.54965"/><circle cx="511.66993" cy="233.46313" r="5.54965"/><circle cx="539.7622" cy="233.46313" r="5.54965"/><circle cx="567.85446" cy="233.46313" r="5.54965"/><circle cx="595.94672" cy="233.46313" r="5.54965"/><circle cx="6.00923" cy="261.908" r="5.54965"/><circle cx="34.10149" cy="261.908" r="5.54965"/><circle cx="62.19376" cy="261.908" r="5.54965"/><circle cx="90.28602" cy="261.908" r="5.54965"/><circle cx="118.37828" cy="261.908" r="5.54965"/><circle cx="146.47054" cy="261.908" r="5.54965"/><circle cx="174.5628" cy="261.908" r="5.54965"/><circle cx="202.65506" cy="261.908" r="5.54965"/><circle cx="230.74732" cy="261.908" r="5.54965"/><circle cx="258.83958" cy="261.908" r="5.54965"/><circle cx="286.93185" cy="261.908" r="5.54965"/><circle cx="315.02411" cy="261.908" r="5.54965"/><circle cx="343.11637" cy="261.908" r="5.54965"/><circle cx="371.20863" cy="261.908" r="5.54965"/><circle cx="399.30089" cy="261.908" r="5.54965"/><circle cx="427.39315" cy="261.908" r="5.54965"/><circle cx="455.48541" cy="261.908" r="5.54965"/><circle cx="483.57767" cy="261.908" r="5.54965"/><circle cx="511.66993" cy="261.908" r="5.54965"/><circle cx="539.7622" cy="261.908" r="5.54965"/><circle cx="567.85446" cy="261.908" r="5.54965"/><circle cx="595.94672" cy="261.908" r="5.54965"/></g></g><g mask="url(#b)"><g fill-rule="nonzero" transform="translate(486.846819 29)"><path d="m341 250v122.16454l20.385879 33.302293 1.551472 2.533167h80.437392l1.625257-158z" fill="#e6e6e6"/><path d="m341 251v121.797706l20.727948 33.202294 1.272052-155z" fill="#000" opacity=".1"/><path d="m146 247v122.1652l-20.385879 33.302294-1.551472 2.532506h-80.4373917l-1.6252573-158z" fill="#e6e6e6"/><path d="m147 247v121.797847l-20.727948 33.202153-1.272052-155z" fill="#000" opacity=".1"/><path d="m469 244.615896v7.384104h-438v-10.666667l40.7061602-21.333333h361.4725508z" fill="#e6e6e6"/><path d="m469 245.077403v6.922597h-438v-10z" fill="#000" opacity=".1"/><g fill="#3f3d56"><path d="m94.955837 281h-19.7336889l-8.2221481-6h37z"/><path d="m94.955837 305h-19.7336889l-8.2221481-6h37z"/><path d="m94.955837 339h-19.7336889l-8.2221481-6h37z"/><path d="m94.955837 372h-19.7336889l-8.2221481-6h37z"/><path d="m392.044163 285h19.733689l8.222148-6h-37z"/><path d="m392.044163 309h19.733689l8.222148-6h-37z"/><path d="m392.044163 342h19.733689l8.222148-6h-37z"/><path d="m392.044163 375h19.733689l8.222148-6h-37z"/><path d="m406.77679 79h-164.553574c-1.650563 0-3.233584.6569919-4.400708 1.8269816-1.167125 1.1699897-1.822508 2.7568962-1.822508 4.4115115v111.1196419c0 1.654615.655386 3.241519 1.82251 4.411508 1.167124 1.169988 2.750144 1.827188 4.400706 1.826979h62.465931l-2.340264 14.978271s-13.374267 7.122497-3.970457 7.331996c9.403809.209499 53.706004 0 53.706004 0s8.567905 0-5.015341-7.541495l-2.201409-14.768772h61.90911c1.650564.000214 3.233586-.656984 4.40071-1.826974 1.167125-1.16999 1.8225-2.756897 1.8225-4.411513v-111.1196419c0-1.6546163-.655373-3.2415259-1.822498-4.4115169-1.167124-1.1699911-2.750147-1.8269762-4.400712-1.8269762z"/></g><path d="m242 86h165v92h-165z" fill="#f2f2f2"/><circle cx="324" cy="83" fill="#f2f2f2" r="1"/><circle cx="324" cy="194" fill="#f2f2f2" r="4"/><path d="m318 236.043209v1.956791h-113v-1.565432l.155313-.391359 2.78501-7.043209h107.749234z" fill="#3f3d56"/><path d="m360.96471 234.147761c-.20739.869773-.99044 1.787348-2.759657 2.655048-6.348917 3.113805-19.258416-.830348-19.258416-.830348s-9.946637-1.660703-9.946637-6.020031c.279283-.187592.570516-.357463.871915-.508574 2.669261-1.385201 11.519672-4.80328 27.212375.144724 1.156098.355964 2.188751 1.019762 2.982925 1.91745.713739.688452 1.047524 1.670931.897495 2.641731z" fill="#3f3d56"/><path d="m360.964851 233.966652c-7.739076 2.846756-14.637271 3.059185-21.716701-1.661104-2.677114-1.899998-5.918868-2.924812-9.24815-2.923614 2.65828-1.350103 11.472282-4.681575 27.100428.141057 1.151342.346944 2.179746.993923 2.970653 1.868865.710791.671015 1.04319 1.628599.89377 2.574796z" fill="#000" opacity=".1"/><ellipse cx="352" cy="231" fill="#f2f2f2" rx="3" ry="1"/><path d="m318 236v2h-113v-1.6l.155313-.4z" fill="#000" opacity=".1"/><path d="m61.9635991.01864835c-1.1381199-.09220329-2.2777693.15900269-3.2679314.72033024-.9722261.65696094-1.5849987 1.80789046-2.2104839 2.87889668-2.3914954 4.14377918-5.6290953 7.75232853-9.507713 10.59706333-2.8250811 2.0421164-6.4167519 4.5883664-5.9334053 8.3534974.2549831 1.2434071.720517 2.4355208 1.3770437 3.526258 2.6061721 5.1910833 9.7180261 9.2026917 9.0184909 15.1261486 2.5893097-4.2772134-.8740813-6.3921753 1.7152283-10.6693498 1.2331002-2.0369168 3.3752056-4.3362021 5.2369396-3.0570196.6233643.4283115 1.0326741 1.1965099 1.6817273 1.5723191 1.5487246.8967374 3.1963515-.8176265 4.5672694-2.0319318 4.7273179-4.187333 11.4500049-3.0903422 17.3326779-1.785669 2.7771943.6159302 5.8276262 1.424022 7.4693513 4.0430916 2.1585265 3.4435269-2.0507912 7.162577-3.1143315 11.0558245-.1762402.6733584-.0068063 1.3891904.4534753 1.9158625.4602815.5266722 1.1529506.7972922 1.853869.7242911 1.765124-.1718055 3.8561018-.3126219 3.9605568-1.0769141 2.2207991.0779929 4.9419454-.1701612 5.8934821-2.4519046.2908206-.9027877.4445401-1.8430955.4561559-2.7903227.3492373-3.8328224 1.9978725-7.3295145 3.0900395-10.9774675 1.092166-3.6479531 1.567062-7.9231127-.276051-11.157417-.657788-1.0761086-1.471287-2.051685-2.4147566-2.8958601-10.459342-9.98748959-24.211079-11.63455202-37.3816343-11.61972685z" fill="#714c41"/><path d="m54.4985847 48.6166425s2.2789223 18.9794735-6.0771413 20.4978367c-8.3560635 1.5183631 7.596425 27.3304445 7.596425 27.3304445l37.9821316 4.5550763-9.1157153-30.3671643s-6.0771413-2.2775381-2.2789222-17.4611169c3.7982191-15.1835789-28.1067778-4.5550763-28.1067778-4.5550763z" fill="#efb7b9"/><path d="m31 376 3.0403433 41h15.9596567l-4.5595246-41z" fill="#efb7b9"/><path d="m148 296.541499 2.307384 35.458501 17.692616-7.708166-6.923488-29.291834z" fill="#efb7b9"/><path d="m19 216.38724s.7640984 43.929489 5.3487489 58.320185c4.5846504 14.390696 3.8205121 15.148097 3.0564137 17.420313-.7640985 2.272216-1.5282102.757407-1.5282102 4.544431 0 3.787025-1.5282035 63.622018 0 68.923857 1.5282035 5.30184-4.5846106 14.390697 0 15.148097 4.5846106.757401 25.9794865 0 26.7435916-4.544431.7641051-4.544432-6.1128207-6.05924-3.0564071-9.088857 3.0564137-3.029617 7.6410243-65.136833 7.6410243-65.136833l10.697438-43.172082 19.8666658-22.722152h42.025607l12.989747 49.988736s-5.348749 14.390696-1.528211 14.390696c3.820539 0 26.743592 4.544432 26.743592-12.11848s-7.641024-65.89424-9.169215-67.409049c-1.52819-1.514808.764099-6.816647-1.52821-9.088863-2.292308-2.272216-29.035893-18.17772-38.969226-21.207337s-23.8680983-6.635471-23.8680983-6.635471z" fill="#1165bf"/><path d="m167.344948 317.595647s-11.455861-3.722794-16.801974 7.445593c-5.346112 11.168388-3.0549 14.14662-3.0549 14.14662s17.565695 5.956471 20.620602 2.978232c1.329117-1.295767 5.549601-1.74589 9.893911-1.840938 6.616554-.144761 8.376936-9.270783 2.128015-11.395933-.186408-.063387-.375088-.118449-.566039-.165187-6.109808-1.489116-12.219615-11.168387-12.219615-11.168387z" fill="#2f2e41"/><ellipse cx="71" cy="38.5" fill="#f0c2c4" rx="23" ry="22.5"/><path d="m41.0366999 78.61858s37.3119229 7.6294233 46.4495409-4.5776567c9.1376181-12.20708 12.9449502 34.3324117 12.9449502 34.3324117l4.568809 48.82832-6.8532136 26.702988s-35.7889887 28.991817-47.2110046 31.280639c-11.422016 2.288821-28.9357818 3.814718-28.9357818 3.814718s5.3303059-84.686622 5.3303059-86.212505 13.706394-54.168915 13.706394-54.168915z" fill="#1580f2"/><path d="m53.5276863 65.1685381s-8.2768506-4.7522693-10.5544471-.1866804c-2.2775966 4.5655888-23.5351535 15.9795476-25.81275 15.9795476-2.2775966 0 4.5551931 63.1572897 1.5183955 70.7666007-3.0367976 7.60931-17.4615648 63.157303-9.11037963 67.722885 8.35118513 4.565582 2.27759653-4.565589 10.62878173 6.848377 8.3511852 11.413965 49.3479034 11.413939 51.6254999 6.848383 2.2775966-4.565556-18.2207658-38.807525-14.4247737-70.7666 3.795992-31.959076 9.8695806-76.0931166 4.5551931-82.1805661-5.3143876-6.0874496-8.4255198-15.0319468-8.4255198-15.0319468z" fill="#2f2e41"/><path d="m81 69.6551842 1.0580276-3.6551842s31.6043284 10.5179216 33.1235124 17.3806525c1.519185 6.8627308.759586 54.9018265-4.55754 58.7144525s-12.9130294 9.912829-7.595897 19.063131c5.317133 9.150301 11.393818 19.063136 15.951385 19.825658 4.557567.762521 12.913023 6.100203 10.634253 11.437851-2.278771 5.337649-29.6240002-4.575154-29.6240002-4.575154s-18.2301551-13.725455-17.4705629-35.076169c.7595923-21.350713-1.5191779-83.1152378-1.5191779-83.1152378z" fill="#2f2e41"/><path d="m106.323209 160-18.2356788 34.28976s-26.5936929 27.431805-11.3972706 30.479788c15.1964224 3.047982 23.5544164-25.145828 23.5544164-25.145828l19.755324-28.193776z" fill="#efb7b9"/><path d="m63.2442375 6.01402627c-.9264871-.06750163-1.8545006.10948146-2.6881403.51265998-.7537459.54127596-1.3749767 1.24129805-1.818296 2.04891217-2.0436482 3.02263068-4.7076256 5.59159958-7.8208517 7.54192768-2.3238582 1.4533918-5.2782913 3.2655421-4.8807025 5.9451909.2158287.8984407.5999551 1.7494975 1.1327292 2.5096347 2.1511856 3.7318426 3.0075644 8.0511049 2.4395459 12.3041799l6.3898212-9.1322509c1.0143258-1.4496614 2.7763787-3.0860778 4.3078016-2.1756799.5127706.304825.8494571.8515559 1.3833538 1.1190181 1.273956.6382105 2.6292548-.5818881 3.7569522-1.4461273 3.8885942-2.9801282 9.4185483-2.1993973 14.2575177-1.2708646 2.2844614.4383599 4.7936888 1.0134809 6.144142 2.8774771 2.2441927 3.0976027-.0991742 7.573407 1.2106044 11.1518959.7407371-.5099326 1.239835-1.2931204 1.3834603-2.1709351 1.8267823.0555239 4.0651443-.121074 4.8478551-1.745023.2380654-.6364168.3649299-1.3078443.3752247-1.9858686.287279-2.7278231 1.6434098-5.2164237 2.5418084-7.8126688s1.2890385-5.6388802-.2270757-7.9407389c-.5546435-.7799301-1.224058-1.4745083-1.9863197-2.0609868-8.6036758-7.10809017-19.915593-8.28030233-30.7494306-8.26975253z" fill="#714c41"/><path d="m106.985847 81 6.971361 1.8738118s16.223803 42.0716782 12.482649 70.8635972-5.985848 22.730442-5.985848 22.730442-5.985847-13.638269-19.454009-10.60754z" fill="#2f2e41"/><path d="m32.6504023 412.206569c-1.8570873 2.474482-1.4847426 6.011645-3.129764 8.626424-1.425931 2.266528-4.1132526 3.454932-5.896817 5.463324-.5691158.667228-1.0764764 1.382842-1.5160651 2.138359-1.6545078 2.717365-2.9993226 6.200005-1.3698488 8.93188 1.3108096 2.197625 4.0660815 3.056539 6.5929838 3.641915 3.1938475.739928 6.5122759 1.332073 9.7429918.766665 3.230716-.565409 6.3881498-2.505128 7.5400655-5.518229.2264037-.757643.4955552-1.502369.8062105-2.230738 1.7510845-3.380145 7.2435786-3.416682 9.035686-6.776112 1.2541455-2.350977.1012731-5.192765-1.0511176-7.5933l-3.5196633-7.33178c-1.1680185-2.433096-5.9029917-1.033852-8.3714437-1.6169-3.2193831-.760361-6.5472109-1.598145-8.8632181 1.498492z" fill="#2f2e41"/><path d="m7 175.292299 31.5707621 49.143103s19.5438046 24.94957 25.5572834 13.608857-21.0471726-30.241908-21.0471726-30.241908l-20.2954918-37.802351z" fill="#efb7b9"/><path d="m22.6140178 82.5297735-6.0599821-1.5297735s-12.11996427 3.8244205-15.14995204 19.886989c-3.02998777 16.062569-.75750023 80.312849 3.02998777 81.07773 3.78748801.76488 18.70636807-11.187272 21.09440147-8.653173 2.3880334 2.534098-5.1869492-10.46893-2.9144748-17.352891 2.2724743-6.88396.0000197-73.4288815.0000197-73.4288815z" fill="#2f2e41"/></g></g><g fill="#e04e39" fill-rule="nonzero" mask="url(#b)"><g transform="translate(743.846819 135)"><path d="m133.690254 36.3592657s-3.308341 2.5837466-6.220525 2.2952495c-2.912183-.2884972-1.997648-6.8390799-1.997648-6.8390799s.627953-6.0075292-1.087328-6.5123994c-1.711065-.5006273-3.822504 1.5655216-3.822504 1.5655216s-2.625601 2.9316402-3.881506 6.6693755l-.345585.1145504s.400373-6.5548252-.054788-8.0482225c-.34137-.7466984-3.481133-.687302-3.995296.6321482-.514163 1.323693-3.025974 10.5174189-3.198766 14.3697046 0 0-4.909832 4.1959368-9.1874962 4.8832388-4.2818789.6915446-5.3102042-2.010995-5.3102042-2.010995s11.6445194-3.2752913 11.2441464-12.6429641c-.396158-9.3676727-9.3897894-5.9014641-10.4054712-5.1335525-.9861808.7466986-6.2415971 3.9371378-7.7756562 12.7744848-.0505734.2969825-.1432912 1.6121901-.1432912 1.6121901s-4.5094591 3.0419481-7.0212699 3.8480431c0 0 7.0212699-11.8962655-1.5382736-17.2971023-2.4077164-1.4590136-4.5063739-.1162824-5.7545505 1.1162719-.7662074.7566175 10.3777998-11.5148976 7.8069866-22.49476038-1.2221898-5.22688985-3.8182897-5.78691376-6.1994527-4.93839268-3.6159962 1.43400062-4.9856916 3.55954592-4.9856916 3.55954592s-4.6822516 6.83907994-5.769579 17.01284774c-1.0831131 10.169525-2.6803888 22.468838-2.6803888 22.468838s-2.2294429 2.1849418-4.2818789 2.2994922c-2.0566507.1103078-1.1421154-6.1517779-1.1421154-6.1517779s1.5972757-9.5373768 1.4877001-11.1495669c-.1180046-1.6079474-.2317947-2.4691963-2.1156528-3.0419481-1.8838582-.5769943-3.9405088 1.8370482-3.9405088 1.8370482s-5.4197798 8.2730804-5.8749401 9.5373768l-.2907969.5218405-.282368-.3478937s3.8225042-11.2641173.1727923-11.4338214c-3.6539262-.1739468-6.051947 4.0219898-6.051947 4.0219898s-4.1680887 7.0130268-4.3408811 7.8148793l-.2823681-.3436511s1.7110659-8.1585302 1.3696955-10.1737677c-.3455847-2.010995-2.2252284-1.6079475-2.2252284-1.6079475s-2.3980207-.2884971-3.0259735 1.2642964c-.6279527 1.5527936-2.9121834 11.836869-3.1987659 15.1121604 0 0-5.9929447 4.3104871-9.9334533 4.3656409-3.9362942.0593966-3.5359217-2.5116223-3.5359217-2.5116223s14.4429126-4.9765761 10.5024038-14.8024502c-1.7700681-2.5285928-3.8225041-3.32196-6.7346875-3.2668062-2.9121834.0593964-6.5239652 1.8455334-8.86298366 7.1318196-1.12104312 2.5201077-1.5256301 4.9171798-1.75742473 6.7245296 0 0-2.52445421.5218404-3.89414973-.6279055-1.37390998-1.1497461-2.07772276 0-2.07772276 0s-2.35166186 3.020735-.01264335 3.9371377c2.34323297.9206455 5.99294473 1.3491485 5.99294473 1.3491485.33715583 1.6079475 1.31069327 4.3444279 4.1638744 6.5208845 4.281879 3.2752914 12.4958376-.301225 12.4958376-.301225l3.3673438-1.9006871s.1137901 3.1098296 2.5708132 3.5637885c2.4528086.4539588 3.4811339-.0084852 7.7630128-10.4665075 2.5118108-5.3456828 2.6846032-5.0571857 2.6846032-5.0571857.282368-.0593964-1.656278 10.1695252-.9145351 12.9272186.7417427 2.7619362 3.9952964 2.4734391 3.9952964 2.4734391s1.7700681.3436509 3.1987659-4.7135347c1.4244833-5.0571856 4.1680889-10.6319691 4.1680889-10.6319691.3371558 0-.8597474 10.4580223.9651085 13.7927102 1.8290703 3.3346877 6.5661095 1.1200477 6.5661095 1.1200477s3.3125561-1.6800716 3.8267186-2.1976695c0 0 3.9278655 3.3686286 9.4698642 2.7576934 12.3904765-2.4564684 16.7987889-5.7741859 16.7987889-5.7741859s2.1282961 5.430535 8.7239069 5.935405c7.5312186.5727518 11.6445196-4.1959368 11.6445196-4.1959368s-.059003 3.1013445 2.566598 4.1959368c2.629816 1.0903495 4.395669-5.0487005 4.395669-5.0487005l4.395669-12.1932478c.400373 0 .627953 7.9294294 4.968834 9.1937258 4.336667 1.2642965 9.988241-2.9613385 9.988241-2.9613385s1.369696-.7594263 1.142116-3.0589186c-.231795-2.299492-2.284231-1.4424857-2.284231-1.4424857zm-114.337968-5.752973c1.5382735 1.4933971.969323 4.7092921-1.9428604 6.7202871-2.9079689 2.0152375-4.2228767 1.61219-4.2228767 1.61219.1727924-6.83908 4.6274637-9.8301168 6.1657371-8.3324771zm56.7981127-23.61858419c.9693229 5.17173599-8.5047556 20.57239359-8.5047556 20.57239359.11379-3.4492382 3.4811338-15.1121604 3.4811338-15.1121604s4.0500843-10.63196916 5.0236218-5.46023319zm-9.364503 39.24834249s-.7417428-2.5285928 1.3696955-9.5967734c2.1156529-7.0681806 7.0802723-4.3104871 7.0802723-4.3104871s3.426346 2.6431432.7417429 9.7113238c-2.6803888 7.0681805-9.1917107 4.1959367-9.1917107 4.1959367zm28.885825-13.847864c2.3390186-4.310487 4.1680889-1.9558411 4.1680889-1.9558411s1.9976484 2.1849418-.2865825 5.4602332c-2.2842307 3.2752914-5.5925722 3.0461907-5.5925722 3.0461907s-.6279527-2.2443384 1.7110658-6.5505828z"/><path d="m120.730106 48.6180082v-1.1787176h.817639c.113396 0 .226791.010914.346154.0218281.119364.0163711.232759.0436562.328249.0818553.101459.0381992.179046.0927695.238727.1637108.06565.0709414.095491.1691678.095491.2892224 0 .2728513-.089523.4474762-.268568.5184174-.179045.0709414-.411803.1036836-.692307.1036836zm-.972812-1.8717599v4.4856752h.972812v-1.915416h.608753l1.193634 1.915416h1.020557l-1.312997-1.9590722c.179045-.0163711.346154-.0491133.507294-.0982265.155173-.0491133.292441-.1200545.405836-.212824.119363-.0927695.208886-.212824.274536-.3601637.071618-.1473397.101459-.3219646.101459-.5293315 0-.4856754-.167109-.829468-.495358-1.0259209-.334218-.2019099-.811672-.3001364-1.426393-.3001364zm-1.557692 2.2482947c0-.4583903.083554-.8785812.256631-1.260573.173077-.3819919.405836-.7094134.704244-.9877217.292441-.2783084.644563-.4965894 1.04443-.6548432.405836-.1582537.835544-.2346521 1.295093-.2346521.453581 0 .883289.0763984 1.283156.2346521.405836.1582538.75199.3765348 1.050398.6548432.298409.2783083.531167.6057298.710213.9877217.173077.3819918.262599.8021827.262599 1.260573 0 .4583901-.089522.8785811-.262599 1.26603-.179046.3819917-.411804.7203273-.710213.9986356-.298408.2837654-.644562.5020465-1.050398.6603002-.399867.1582538-.829575.2346521-1.283156.2346521-.459549 0-.889257-.0763983-1.295093-.2346521-.399867-.1582537-.751989-.3765348-1.04443-.6603002-.298408-.2783083-.531167-.6166439-.704244-.9986356-.173077-.3874489-.256631-.8076399-.256631-1.26603zm-1.199602 0c0 .6166439.125331 1.1678035.370027 1.6589358.250663.4965894.578912.9167803.990716 1.26603.417771.3492497.895225.6166439 1.438329.8021829.543103.1855388 1.110079.2783083 1.700928.2783083.596817 0 1.163793-.0927695 1.706896-.2783083.543104-.185539 1.020558-.4529332 1.438329-.8021829.411804-.3492497.740054-.7694406.990717-1.26603.244695-.4911323.364058-1.0422919.364058-1.6589358 0-.6057299-.119363-1.1568895-.364058-1.6480219-.250663-.4965893-.578913-.9167804-.990717-1.260573-.417771-.3492497-.895225-.6166439-1.438329-.8021828-.543103-.1909958-1.110079-.2837653-1.706896-.2837653-.590849 0-1.157825.0927695-1.700928.2837653-.543104.1855389-1.020558.4529331-1.438329.8021828-.411804.3437926-.740053.7639837-.990716 1.260573-.244696.4911324-.370027 1.042292-.370027 1.6480219z"/></g></g></g></svg>