<?xml version="1.0" encoding="UTF-8"?>
<svg width="1440px" height="502px" viewBox="0 0 1440 502" version="1.1" xmlns="http://www.w3.org/2000/svg" xmlns:xlink="http://www.w3.org/1999/xlink">
    <title>Group</title>
    <defs>
        <rect id="path-1" x="0" y="0" width="1440" height="426"></rect>
    </defs>
    <g id="Blog-posts" stroke="none" stroke-width="1" fill="none" fill-rule="evenodd">
        <g id="Simplifying-releases-with-Rust-" transform="translate(0.000000, -1070.000000)">
            <g id="Group" transform="translate(0.000000, 1070.785047)">
                <g id="Rectangle-2" transform="translate(0.000000, 0.214953)" fill="#FFFFFF">
                    <rect id="Rectangle" x="0" y="0" width="1440" height="500"></rect>
                </g>
                <g id="calling-all-tech-founders-we-are-seeking-startups-for-pro-bono-product-design" transform="translate(0.000000, 74.214953)">
                    <mask id="mask-2" fill="white">
                        <use xlink:href="#path-1"></use>
                    </mask>
                    <use id="Rectangle" fill="#F4F6F8" xlink:href="#path-1"></use>
                </g>
                <path d="M1214.91647,235 C1307.10189,235 1381.83294,309.768447 1381.83294,402 C1381.83294,438.709485 1369.99439,472.652545 1349.92867,500.215983 L1079.90427,500.215983 C1059.83855,472.652545 1048,438.709485 1048,402 C1048,309.768447 1122.73105,235 1214.91647,235 Z" id="Combined-Shape" fill="#DFE1E3" opacity="0.504062562"></path>
                <path d="M67.4132179,173 C163.186694,173 240.826436,250.678596 240.826436,346.5 C240.826436,413.251404 203.14913,471.198398 147.911114,500.214321 L0,500.215 L0.000614596648,186.597428 C20.7240736,177.84125 43.5035612,173 67.4132179,173 Z" id="Combined-Shape" fill="#DFE1E3" opacity="0.504062562"></path>
                <ellipse id="Oval" fill="#DFE1E3" opacity="0.504062562" cx="585.931975" cy="136" rx="135.931975" ry="136"></ellipse>
                <g id="undraw_code_thinking_re_gka2" transform="translate(265.000000, 46.214953)" fill-rule="nonzero">
                    <path d="M200,216.876102 C200.022651,213.573373 198.204281,210.534926 195.288738,209.004069 C192.373196,207.473212 188.849732,207.706836 186.160121,209.609342 C183.470509,211.511849 182.066089,214.763984 182.521536,218.034998 L157.291776,251.199845 C155.090509,255.618673 155.74197,260.931421 158.945052,264.682515 L160.924202,267 L170.004952,265.176895 L180.296955,256.061407 L179.085981,245.730531 L191.799481,225.676495 L191.783045,225.662103 C196.401647,225.36686 199.997747,221.52162 200,216.876102 L200,216.876102 Z" id="Path" fill="#FFB9B9"></path>
                    <polygon id="Path" fill="#FFB8B8" points="27.04569 376 23 360.886495 79.0292233 338 85 360.305412"></polygon>
                    <path d="M12.8376664,384 L0,334.853392 L0.60308064,334.686008 C10.8526217,331.841988 21.3984825,338.099911 24.1589591,348.664086 L24.1592812,348.665298 L32,378.682401 L12.8376664,384 Z" id="Path" fill="#2F2E41"></path>
                    <polygon id="Path" fill="#FFB8B8" points="105.614356 376 93 366.708055 122.381764 313 141 326.714243"></polygon>
                    <path d="M100.013247,389 L59,358.767257 L59.377234,358.241418 C65.7888738,349.305348 78.13287,347.329013 86.9495524,353.826953 L86.9505718,353.827696 L112,372.292964 L100.013247,389 Z" id="Path" fill="#2F2E41"></path>
                    <path d="M213.237182,299.677534 L181.33371,268.571776 C175.577028,262.959031 166.58222,262.454746 160.238532,267.389095 L100,334.554972 L105.392422,342.973412 L162.909386,303.886763 L201.853432,355 L239,336.359059 L213.237182,299.677534 Z" id="Path" fill="#2F2E41"></path>
                    <path d="M199.784058,305.767809 L176.631285,303.994713 L159.864185,299.947909 C157.924756,296.935572 154.310407,295.438838 150.797247,296.193209 C147.284088,296.94758 144.610743,299.794453 144.090909,303.334861 C143.571074,306.875269 145.314043,310.364856 148.463311,312.088822 C151.612578,313.812788 155.506027,313.408677 158.230395,311.075071 L158.227948,311.087064 L168.320293,315.22426 L211.657065,330 L217,325.862804 L199.784058,305.767809 Z" id="Path" fill="#FFB9B9"></path>
                    <polygon id="Path" fill="#2F2E41" points="255 370.623038 241.837452 379 226.281633 379 153.888955 352.073734 47.9913668 371.221202 45 348.482972 141.923488 306 226.880618 334.122593"></polygon>
                    <circle id="Oval" fill="#FFB9B9" cx="227" cy="202" r="23"></circle>
                    <path d="M287,295.469674 C287,309.552751 284.802978,323.547849 280.490564,336.940221 L278.761052,342.31329 L270.468763,380.606682 L261.584203,383 L255.068847,374.623333 L242.038134,365.050008 L232.561252,349.493333 L224.434841,335.815374 L221.899759,331.543252 L213.015173,286.668213 L179.253789,267.521562 L168,265.726551 L170.369229,259.144878 L180.438417,245.383196 L190.507551,244.186484 L193.469086,241.793148 L195.838306,242.989807 L208.89874,248.072317 L251.242521,230 L257.438032,231.023163 L278.760982,248.973191 C284.212031,263.856674 287.001731,279.600207 287,295.469674 L287,295.469674 Z" id="Path" fill="#4299F5"></path>
                    <polygon id="Path" fill="#000000" opacity="0.1" points="279 289.612837 256.747936 304.515171 223.533612 335 221.02738 330.744344 214 294.977854 215.757063 294.977854 233.910475 261"></polygon>
                    <polygon id="Path" fill="#4299F5" points="234.908689 258 216.35195 291.843336 205.577126 303.718888 196 306.093998 221.739361 334 258.253546 301.343778 281 286.499558"></polygon>
                    <path d="M208.235517,185.441673 L205.665816,186.421699 C204.878,185.892956 204.334346,185.075646 204.154453,184.149569 C203.97456,183.223492 204.173163,182.264507 204.706573,181.483581 C204.720414,181.463296 204.73447,181.443164 204.748739,181.423185 L200,181.202906 C206.166275,173.062188 215.557815,167.932903 225.79441,167.115026 C236.031006,166.297148 246.130079,169.869184 253.532102,176.92583 C253.748317,176.187712 256.105141,177.623773 257.067378,179.079913 C257.390696,177.878828 259.60053,183.684932 260.382134,187.789079 C260.743999,186.422569 262.135292,188.62862 260.916392,190.745407 C261.688705,190.633564 262.037553,192.592245 261.439678,193.683468 C262.284635,193.289991 262.142186,195.628124 261.226095,197.190673 C262.431742,197.084488 261.123235,221.700049 243.029939,219.906541 C241.77032,214.169567 242.125274,214.526018 240.642013,207.148971 C239.951645,206.422601 239.195616,205.760985 238.440827,205.100562 L234.358446,201.528522 C229.611398,197.37492 225.293135,192.248519 218.969256,190.696139 C214.62331,189.629289 211.87539,189.38843 214.243794,184.534086 C212.103972,185.419236 210.105757,186.735554 207.946757,187.557662 C207.97576,186.879358 208.277511,186.120327 208.235517,185.441673 Z" id="Path" fill="#2F2E41"></path>
                    <circle id="Oval" fill="#FFB9B9" cx="238.5" cy="204.5" r="4.5"></circle>
                    <polygon id="Rectangle" fill="#C6C6C6" transform="translate(52.059562, 115.946204) rotate(-86.189920) translate(-52.059562, -115.946204) " points="42.43432 106.320962 61.6848044 106.320962 61.6848044 125.571447 42.43432 125.571447"></polygon>
                    <path d="M31.4985245,116 L54,117.498516 L52.5014755,140 L30,138.501484 L31.4985245,116 Z M52.9565184,118.411696 L32.4116956,117.043482 L31.0434816,137.588269 L51.5883044,138.956484 L52.9565184,118.411696 Z" id="Shape" fill="#CCCCCC"></path>
                    <polygon id="Rectangle" fill="#C4C4C4" transform="translate(144.253954, 60.177823) rotate(-12.126750) translate(-144.253954, -60.177823) " points="134.628712 50.5525804 153.879196 50.5525804 153.879196 69.8030648 134.628712 69.8030648"></polygon>
                    <path d="M139.224596,40 L144,62.2246042 L121.775396,67 L117,44.7753958 L139.224596,40 Z M142.826088,61.465952 L138.465935,41.1739289 L118.173903,45.5340739 L122.534048,65.8261145 L142.826088,61.465952 Z" id="Shape" fill="#CCCCCC"></path>
                    <polygon id="Rectangle" fill="#C4C4C4" transform="translate(131.421240, 152.734951) rotate(-43.127120) translate(-131.421240, -152.734951) " points="121.796002 143.109709 141.046478 143.109709 141.046478 162.360193 121.796002 162.360193"></polygon>
                    <path d="M147,136.039527 L129.96046,152 L114,134.960455 L131.03954,119 L147,136.039527 Z M130.007357,150.5652 L145.565201,135.992612 L130.992607,120.434791 L115.434764,135.007388 L130.007357,150.5652 Z" id="Shape" fill="#CCCCCC"></path>
                    <path d="M859.321047,0 L289.678953,0 C285.520637,0 281.532634,1.64831466 278.59226,4.58234617 C275.651885,7.51637768 274,11.4957804 274,15.6451299 L274,332.354799 C274,336.504157 275.651874,340.483571 278.592248,343.417616 C281.532622,346.35166 285.520629,348 289.678953,348 L859.321047,348 C867.980305,348 875,340.995386 875,332.354799 L875,15.6451299 C875,7.0045624 867.980285,0 859.321047,0 Z" id="Path" fill="#3F3D56"></path>
                    <rect id="Rectangle" fill="#FFFFFF" x="295" y="28" width="558" height="315"></rect>
                    <polygon id="Path" fill="#F2F2F2" points="694 343 295 343 295 28"></polygon>
                    <rect id="Rectangle" fill="#3F3D56" x="671" y="190" width="52" height="11"></rect>
                    <rect id="Rectangle" fill="#3F3D56" x="622" y="132" width="150" height="5"></rect>
                    <rect id="Rectangle" fill="#3F3D56" x="622" y="149" width="150" height="5"></rect>
                    <rect id="Rectangle" fill="#3F3D56" x="622" y="168" width="150" height="5"></rect>
                    <rect id="Rectangle" fill="#1580F2" x="791" y="46" width="22" height="22"></rect>
                    <path d="M824,78 L798,78 L798,52 L824,52 L824,78 Z M799.130432,76.8696032 L822.869525,76.8696032 L822.869525,53.1304842 L799.130432,53.1304842 L799.130432,76.8696032 Z" id="Shape" fill="#CCCCCC"></path>
                    <path d="M890.276601,335.749423 L835.666619,335.749423 L835.666619,331.785864 C835.666626,331.577447 835.584444,331.377563 835.438151,331.230185 C835.291859,331.082807 835.09344,331 834.886544,331 L816.163056,331 C815.956151,331 815.757712,331.082762 815.611397,331.23013 C815.465082,331.377499 815.382876,331.577384 815.382864,331.78581 L815.382864,335.749423 L803.680867,335.749423 L803.680867,331.785864 C803.68087,331.577437 803.598677,331.377547 803.452372,331.230168 C803.306067,331.08279 803.107635,331 802.90073,331 L784.177331,331 C783.970427,331 783.771995,331.08279 783.625691,331.230169 C783.479388,331.377548 783.397197,331.577438 783.397202,331.785864 L783.397202,331.785864 L783.397202,335.749423 L771.695089,335.749423 L771.695089,331.785864 C771.695094,331.577438 771.612903,331.377548 771.4666,331.230169 C771.320296,331.08279 771.121865,331 770.91496,331 L752.191472,331 C751.984567,331 751.786135,331.08279 751.63983,331.230168 C751.493525,331.377547 751.411332,331.577437 751.411334,331.785864 L751.411334,331.785864 L751.411334,335.749423 L739.709248,335.749423 L739.709248,331.785864 C739.709251,331.577437 739.627058,331.377547 739.480753,331.230168 C739.334448,331.08279 739.136016,331 738.92911,331 L720.205694,331 C719.998798,331 719.800373,331.082779 719.654071,331.230147 C719.507768,331.377515 719.425572,331.577393 719.425565,331.78581 L719.425565,335.749423 L707.723461,335.749423 L707.723461,331.785864 C707.723463,331.577437 707.641271,331.377547 707.494966,331.230168 C707.348661,331.08279 707.150228,331 706.943323,331 L688.219907,331 C688.013002,331 687.814571,331.08279 687.668267,331.230169 C687.521963,331.377548 687.439773,331.577438 687.439778,331.785864 L687.439778,331.785864 L687.439778,335.749423 L675.737611,335.749423 L675.737611,331.785864 C675.737616,331.577438 675.655426,331.377548 675.509122,331.230169 C675.362818,331.08279 675.164387,331 674.957482,331 L656.234066,331 C656.027161,331 655.828728,331.08279 655.682423,331.230168 C655.536118,331.377547 655.453926,331.577437 655.453928,331.785864 L655.453928,331.785864 L655.453928,335.749423 L643.751824,335.749423 L643.751824,331.785864 C643.751826,331.577437 643.669634,331.377547 643.523329,331.230168 C643.377024,331.08279 643.178591,331 642.971686,331 L496.304996,331 C496.098091,331 495.89966,331.08279 495.753356,331.230169 C495.607052,331.377548 495.524862,331.577438 495.524867,331.785864 L495.524867,331.785864 L495.524867,335.749423 L483.8227,335.749423 L483.8227,331.785864 C483.822705,331.577438 483.740515,331.377548 483.594211,331.230169 C483.447907,331.08279 483.249476,331 483.042571,331 L464.319208,331 C464.112303,331 463.91387,331.08279 463.767565,331.230168 C463.62126,331.377547 463.539068,331.577437 463.53907,331.785864 L463.53907,331.785864 L463.53907,335.749423 L451.836913,335.749423 L451.836913,331.785864 C451.83692,331.577447 451.754738,331.377563 451.608445,331.230185 C451.462153,331.082807 451.263733,331 451.056837,331 L432.33335,331 C432.126445,331 431.928014,331.08279 431.78171,331.230169 C431.635406,331.377548 431.553216,331.577438 431.553221,331.785864 L431.553221,331.785864 L431.553221,335.749423 L419.851063,335.749423 L419.851063,331.785864 C419.851068,331.577438 419.768877,331.377548 419.622574,331.230169 C419.47627,331.08279 419.277839,331 419.070934,331 L400.347518,331 C400.140612,331 399.94218,331.08279 399.795875,331.230168 C399.64957,331.377547 399.567378,331.577437 399.56738,331.785864 L399.56738,331.785864 L399.56738,335.749423 L387.865276,335.749423 L387.865276,331.785864 C387.865281,331.577438 387.78309,331.377548 387.636787,331.230169 C387.490483,331.08279 387.292051,331 387.085147,331 L368.36173,331 C368.154825,331 367.956393,331.08279 367.810088,331.230168 C367.663783,331.377547 367.58159,331.577437 367.581593,331.785864 L367.581593,331.785864 L367.581593,335.749423 L355.879435,335.749423 L355.879435,331.785864 C355.879437,331.577437 355.797245,331.377547 355.65094,331.230168 C355.504635,331.08279 355.306203,331 355.099297,331 L336.375863,331 C335.945028,331 335.595759,331.351808 335.595734,331.78581 L335.595734,335.749423 L323.893612,335.749423 L323.893612,331.785864 C323.893617,331.577443 323.81143,331.377557 323.665132,331.230178 C323.518834,331.0828 323.32041,331 323.11351,331 L304.390093,331 C303.959239,331 303.609961,331.351842 303.609956,331.785864 L303.609956,331.785864 L303.609956,335.749423 L267.723372,335.749423 C257.382732,335.749448 249,344.193822 249,354.610478 L249,363.138999 C249,373.555635 257.382751,382 267.723372,382 L890.276584,382 C900.617218,382 909,373.555649 909,363.138999 L909,354.610478 C909,349.608217 907.027369,344.810833 903.51605,341.273699 C900.004731,337.736564 895.242359,335.749423 890.276601,335.749423 Z" id="Path" fill="#3F3D56"></path>
                </g>
                <g id="Rust_programming_language_black_logo" transform="translate(577.000000, 199.214953)" fill="#453B69" fill-rule="nonzero">
                    <path d="M151.909242,74.6286192 L145.490439,70.651935 C145.436339,70.0261921 145.37493,69.4019111 145.307671,68.7805542 L150.834568,63.634257 C151.39603,63.1108552 151.647519,62.3359866 151.495456,61.5874343 C151.34778,60.8344959 150.819946,60.2146011 150.102035,59.9499761 L143.039889,57.3183469 C142.86297,56.7072241 142.677278,56.1004873 142.487199,55.4908266 L146.888246,49.3795987 C147.337124,48.7582418 147.429239,47.9497468 147.136811,47.2450549 C146.844382,46.5389011 146.205426,46.0330435 145.455347,45.9087721 L138.013045,44.6982226 C137.72354,44.1338844 137.422339,43.5783182 137.118214,43.0315241 L140.247198,36.1600478 C140.567407,35.461204 140.50161,34.654171 140.074665,34.0108839 C139.649181,33.3734448 138.928345,33.0006307 138.159259,33.029871 L130.599985,33.2930339 C130.209593,32.8047205 129.81189,32.3207931 129.406877,31.8456378 L131.146826,24.4916961 C131.322283,23.7446058 131.101499,22.9565791 130.557583,22.4156331 C130.018052,21.8746871 129.234344,21.6509986 128.481341,21.8264405 L121.126767,23.5662398 C120.650108,23.1627234 120.166139,22.7635929 119.676322,22.3732346 L119.94097,14.8146106 C119.970212,14.0499761 119.597366,13.323354 118.959872,12.8993693 C118.320916,12.4724606 117.512352,12.4081319 116.810524,12.7253894 L109.953078,15.8541042 C109.398926,15.5500048 108.843312,15.2488294 108.286236,14.9578882 L107.072658,7.51622551 C106.949838,6.76182513 106.443937,6.12146202 105.73626,5.83490683 C105.030046,5.54104157 104.215632,5.63607262 103.601533,6.08344959 L97.4897793,10.4841185 C96.8873768,10.2925944 96.2820501,10.1083803 95.6767233,9.93293837 L93.0448677,2.8713999 C92.7772957,2.15208791 92.1573475,1.62430005 91.4072687,1.47517439 C90.6557277,1.32751075 89.886641,1.57751553 89.3602699,2.13600573 L84.2135301,7.66242714 C83.5921197,7.59371237 82.966323,7.53084568 82.3419883,7.47967511 L78.3649621,1.04680363 C77.9628731,0.396206402 77.2508099,0 76.4787989,0 C75.706788,0 75.0020355,0.396206402 74.6072572,1.04680363 L70.630231,7.47967511 C70.0044342,7.53084568 69.3786374,7.59371237 68.7586892,7.66242714 L63.6119494,2.13600573 C63.0899647,1.57751553 62.3150295,1.32751075 61.5649506,1.47517439 C60.8119475,1.62576206 60.1919993,2.15208791 59.9273516,2.8713999 L57.295496,9.93293837 C56.6843207,10.1083803 56.0789939,10.2940564 55.48244,10.4841185 L49.3706864,6.08344959 C48.7492761,5.63461061 47.9392494,5.53957955 47.2359591,5.83490683 C46.5297446,6.12731008 46.0223813,6.7676732 45.8995614,7.51622551 L44.6859835,14.9578882 C44.124521,15.2488294 43.568907,15.5485428 43.0191416,15.8541042 L36.1616957,12.7253894 C35.464254,12.4066699 34.6556895,12.4724606 34.012347,12.8993693 C33.3748531,13.323354 33.0020069,14.0499761 33.0312497,14.8146106 L33.2944353,22.3732346 C32.8060798,22.7635929 32.3221108,23.1627234 31.8439904,23.5662398 L24.4894162,21.8264405 C23.7422616,21.6524606 22.9541671,21.8746871 22.4131746,22.4156331 C21.8692577,22.9580411 21.6484743,23.7402198 21.8239313,24.4916961 L23.5492589,31.8456378 C23.1471698,32.3222551 22.7494672,32.8047205 22.3590753,33.2930339 L14.7998012,33.029871 C14.0380252,33.0079408 13.3084164,33.3734448 12.8843952,34.0108839 C12.4574498,34.6453989 12.3931155,35.45828 12.7104003,36.1600478 L15.8393842,43.0315241 C15.5352586,43.5827043 15.2340574,44.1382704 14.9430911,44.6982226 L7.50078841,45.9087721 C6.744861,46.0315815 6.10736709,46.5374391 5.81932512,47.2450549 C5.52689672,47.9541328 5.62193595,48.7655518 6.06788926,49.3795987 L10.4689367,55.4908266 C10.277396,56.0946393 10.091704,56.701376 9.91624698,57.3183469 L2.85410116,59.9499761 C2.13765159,60.2175251 1.60981833,60.83742 1.46067985,61.5874343 C1.31154137,62.3389107 1.56156765,63.1079312 2.12156803,63.634257 L7.64846475,68.7805542 C7.57974408,69.4019111 7.51833411,70.0276541 7.465697,70.651935 L1.04689367,74.6286192 C0.396240479,75.0306737 0,75.7412136 0,76.5146202 C0,77.2880268 0.396240479,77.9912566 1.04689367,78.386001 L7.465697,82.3626851 C7.51833411,82.9884281 7.57974408,83.612709 7.64846475,84.2340659 L2.12156803,89.3803631 C1.56156765,89.9023029 1.31154137,90.6771715 1.46067985,91.4271859 C1.60981833,92.1801242 2.13765159,92.7985571 2.85410116,93.0646441 L9.91624698,95.6962733 C10.091704,96.3073961 10.277396,96.9141328 10.4689367,97.5237936 L6.06788926,103.635022 C5.62047381,104.25784 5.52543458,105.066335 5.81932512,105.769565 C6.11321566,106.478643 6.75217171,106.984501 7.51540983,107.105848 L14.9577126,108.316398 C15.2486788,108.880736 15.5469558,109.436302 15.8540056,109.983096 L12.7250217,116.839952 C12.4062748,117.537334 12.4720712,118.345829 12.8990166,118.989116 C13.3259621,119.628017 14.0526467,120.000831 14.8144226,119.970129 L22.3590753,119.705504 C22.7523915,120.196742 23.148632,120.677745 23.5521832,121.155824 L21.8268556,128.509766 C21.6513986,129.255394 21.872182,130.030263 22.4160989,130.571209 C22.9556292,131.116541 23.7407995,131.334381 24.4923405,131.158939 L31.8469147,129.43376 C32.3250351,129.840201 32.8090041,130.234945 33.2973595,130.623841 L33.034174,138.182465 C33.0049311,138.9471 33.3777774,139.673722 34.0152713,140.097707 C34.6498409,140.523153 35.4627918,140.587482 36.16462,140.268763 L43.0220659,137.140048 C43.5747556,137.447071 44.1303695,137.745323 44.6889078,138.036264 L45.9024856,145.477926 C46.0253056,146.235251 46.5312067,146.875614 47.2388834,147.173865 C47.945098,147.467731 48.7595111,147.372699 49.3736107,146.926785 L55.4853642,142.526116 C56.0892289,142.71764 56.6960178,142.904778 57.3130417,143.08022 L59.9448973,150.141758 C60.2124693,150.858146 60.8324175,151.388858 61.5824963,151.53506 C62.3340373,151.687109 63.103124,151.435643 63.6294951,150.874228 L68.7762349,145.347807 C69.3976453,145.419446 70.0234421,145.479388 70.6477767,145.534945 L74.6248029,151.953196 C75.0254298,152.60087 75.737493,153 76.4963446,153 C77.2551963,153 77.9731081,152.602332 78.3825078,151.953196 L82.359534,145.534945 C82.9853308,145.479388 83.6096654,145.419446 84.2310758,145.347807 L89.3778156,150.874228 C89.8998003,151.435643 90.6747355,151.687109 91.4248144,151.53506 C92.1778175,151.387396 92.7977657,150.858146 93.0624134,150.141758 L95.694269,143.08022 C96.3054443,142.904778 96.9122333,142.71764 97.5219465,142.526116 L103.6337,146.926785 C104.25511,147.372699 105.065137,147.467731 105.768427,147.173865 C106.476104,146.882924 106.982005,146.241099 107.104825,145.477926 L108.318403,138.036264 C108.879865,137.745323 109.435479,137.442685 109.985245,137.140048 L116.842691,140.268763 C117.540132,140.587482 118.348697,140.523153 118.992039,140.097707 C119.629533,139.670798 120.000917,138.9471 119.973137,138.182465 L119.709951,130.623841 C120.198307,130.233483 120.682276,129.840201 121.158934,129.43376 L128.513508,131.158939 C129.260663,131.334381 130.048757,131.116541 130.58975,130.571209 C131.133667,130.028801 131.35445,129.249546 131.178993,128.509766 L129.453665,121.155824 C129.857217,120.677745 130.254919,120.196742 130.643849,119.705504 L138.203123,119.970129 C138.964899,120.000831 139.694508,119.628017 140.118529,118.989116 C140.545475,118.351677 140.611271,117.540258 140.291062,116.839952 L137.162078,109.983096 C137.467666,109.428992 137.767405,108.873426 138.056909,108.316398 L145.499212,107.105848 C146.256601,106.984501 146.894095,106.478643 147.180675,105.769565 C147.473103,105.063411 147.380988,104.249068 146.932111,103.635022 L142.531063,97.5237936 C142.721142,96.9199809 142.906834,96.3132441 143.083753,95.6962733 L150.145899,93.0646441 C150.863811,92.7956331 151.393106,92.1772002 151.53932,91.4271859 C151.691383,90.6757095 151.439894,89.906689 150.878432,89.3803631 L145.351535,84.2340659 C145.418794,83.612709 145.480204,82.9869661 145.534303,82.3626851 L151.953106,78.386001 C152.60376,77.9854085 153,77.2734066 153,76.5146202 C153,75.7558337 152.605222,75.0379838 151.954568,74.6286192 L151.909242,74.6286192 Z M108.922268,127.992212 C106.465869,127.462962 104.915999,125.038939 105.44237,122.582752 C105.967279,120.126565 108.381275,118.562207 110.837674,119.088533 C113.294072,119.613397 114.858564,122.041806 114.332193,124.497993 C113.805822,126.954181 111.393288,128.518538 108.936889,127.992212 L108.922268,127.992212 Z M106.743676,113.225848 C104.506599,112.746307 102.298764,114.170311 101.830879,116.413043 L99.5499374,127.056522 C92.5170344,130.243717 84.6360891,132.027377 76.448094,132.027377 C68.0261561,132.027377 60.0721037,130.170616 52.9076079,126.837219 L50.6266664,116.193741 C50.1470838,113.956856 47.9509466,112.52408 45.7138693,113.006546 L36.3122963,115.024128 C34.5723474,113.225848 32.9493697,111.310607 31.4579849,109.293024 L77.2230292,109.293024 C77.7406275,109.293024 78.085693,109.199455 78.085693,108.728686 L78.085693,92.5003058 C78.085693,92.0295366 77.7406275,91.9359675 77.2230292,91.9359675 L63.84443,91.9359675 L63.84443,81.6872336 L78.3050143,81.6872336 C79.6253285,81.6872336 85.3671601,82.0644338 87.1948376,89.4066794 C87.7694594,91.6581844 89.0371365,98.997506 89.8998003,101.351352 C90.7595398,103.982981 94.2569834,109.24624 97.9854455,109.24624 L120.794861,109.24624 C121.05366,109.24624 121.330004,109.217 121.620971,109.164367 C120.041857,111.313531 118.301908,113.345733 116.444988,115.246355 L106.824094,113.184912 L106.743676,113.225848 Z M43.4329278,127.77291 C40.9765293,128.30216 38.563995,126.737802 38.0376239,124.278691 C37.5127149,121.822504 39.0728204,119.395557 41.5321432,118.869231 C43.9885418,118.344367 46.4010761,119.908724 46.9274472,122.36345 C47.4523562,124.819637 45.8907885,127.246584 43.4329278,127.77291 Z M26.0334381,57.4499283 C27.051089,59.7452938 26.0158924,62.4354037 23.7232538,63.4588151 C21.4276909,64.4778404 18.751971,63.4412709 17.7284716,61.1488294 C16.7049722,58.856388 17.7460173,56.163354 20.038656,55.1399427 C22.3342189,54.1223794 25.0099387,55.1574869 26.0334381,57.4499283 Z M20.6966199,70.0817487 L30.4929712,65.7249403 C32.5838343,64.79656 33.5342265,62.3476828 32.5984557,60.2569995 L30.5806997,55.6955088 L38.5055093,55.6955088 L38.5055093,91.3687052 L22.5681616,91.3687052 C21.1805889,86.485571 20.4334343,81.3392738 20.4334343,76.0175346 C20.4334343,73.9853321 20.543095,71.9823698 20.7536434,70.0086479 L20.6966199,70.0817487 Z M63.6835944,66.6167702 L63.6835944,56.0902532 L82.5452261,56.0902532 C83.5204748,56.0902532 89.4319148,57.2174677 89.4319148,61.6312948 C89.4319148,65.3009556 84.8992747,66.6167702 81.1708126,66.6167702 L63.6251087,66.6167702 L63.6835944,66.6167702 Z M132.258054,76.0906355 C132.258054,77.488323 132.206879,78.8684663 132.104529,80.2427616 L126.358311,80.2427616 C125.783689,80.2427616 125.552671,80.6199618 125.552671,81.182838 L125.552671,83.8144673 C125.552671,90.0134161 122.058151,91.3730913 118.987653,91.709355 C116.063369,92.0383086 112.832035,90.4871094 112.437257,88.6976015 C110.711929,79.0044338 107.846131,76.9429909 103.313491,73.346431 C108.942738,69.7791113 114.791306,64.5012327 114.791306,57.4104539 C114.791306,49.7933493 109.571459,44.997936 106.018454,42.6440898 C101.017928,39.3545533 95.4910312,38.696646 93.9996464,38.696646 L34.6366816,38.696646 C42.693084,29.7198662 53.6445275,23.3454754 65.9265202,21.0062494 L72.9301803,28.345571 C74.5092937,29.9976493 77.1265278,30.0707501 78.7933697,28.4800764 L86.6304508,20.9945533 C103.006441,24.0501672 116.89679,34.2550406 124.938571,48.334257 L119.57251,60.4397516 C118.646974,62.5304348 119.591518,64.9866221 121.677994,65.9076923 L132.000717,70.4984233 C132.179098,72.3259436 132.272675,74.1827043 132.272675,76.054085 L132.258054,76.0906355 Z M72.8950889,14.8321548 C74.708145,13.0923555 77.5885647,13.1654563 79.3138923,14.9798184 C81.0392198,16.7927186 80.9807341,19.6728906 79.1632916,21.4126899 C77.3502356,23.1524892 74.4698158,23.0793884 72.7444883,21.2635643 C71.0191607,19.4506641 71.0776464,16.5704921 72.8950889,14.8306928 L72.8950889,14.8321548 Z M126.117057,57.6692308 C127.133246,55.3738653 129.816277,54.3358337 132.11184,55.3592451 C134.407402,56.3768084 135.445523,59.0727664 134.422024,61.3681319 C133.405835,63.6634974 130.722805,64.7015289 128.427242,63.6781175 C126.131679,62.6605542 125.093558,59.9645963 126.117057,57.6692308 Z" id="Shape"></path>
                </g>
            </g>
        </g>
    </g>
</svg>