<svg width="41" height="55" viewBox="0 0 41 55" fill="none" xmlns="http://www.w3.org/2000/svg">
<path d="M20.7447 55H20.2032L20.0258 54.8786C18.3773 53.7614 16.651 52.6829 14.9813 51.6429C11.7251 49.7154 8.60405 47.5636 5.64035 45.2029L5.61208 45.1793C4.024 43.8415 2.68138 42.2317 1.64566 40.4236C0.578874 38.3077 0.0153816 35.9696 0 33.595V7.76571L0.264381 7.54714C6.02561 2.74929 13.1908 0.0907143 20.6033 0H20.6196C27.9515 0.15 35.0262 2.80571 40.728 7.54857L40.9917 7.76857V8.11857C40.9889 11.8879 40.9889 15.6571 40.9917 19.4257V32.9107C41.0718 35.3799 40.5703 37.8329 39.5284 40.0679C37.986 43.1893 35.2821 45.3621 32.868 47.1536C30.4723 48.85 27.9706 50.4186 25.5502 51.9371C23.9979 52.9021 22.4566 53.8848 20.9264 54.885L20.7447 55ZM6.55084 44.0771C9.46024 46.3906 12.5228 48.5003 15.7172 50.3914C17.2901 51.3707 18.9124 52.3821 20.481 53.4379C21.9153 52.4993 23.3814 51.58 24.803 50.6879C27.2065 49.1807 29.6919 47.6221 32.0416 45.9614C34.308 44.2793 36.8556 42.2386 38.2553 39.4064C39.1933 37.3771 39.6417 35.1519 39.5638 32.9136C39.5687 28.4186 39.5687 23.9236 39.5638 19.4307V8.47286C34.1581 4.06929 27.4991 1.60643 20.6047 1.46071C13.6326 1.55 6.8852 4.01429 1.42087 8.46643V33.5714C1.4343 35.7143 1.93973 37.8229 2.89546 39.7264C3.85079 41.3831 5.08827 42.8562 6.55084 44.0779V44.0771ZM17.3968 8.88071C21.4618 7.99899 25.7032 9.02773 28.9292 11.6779C30.7179 13.1914 31.9054 15.3069 32.2728 17.635C32.8051 19.9943 32.2353 22.3779 31.9618 24.7271C31.5906 25.92 33.4675 26.125 33.1988 27.2614C33.1165 27.5197 32.9184 27.7235 32.6644 27.8114C32.4111 27.8986 32.1319 27.8589 31.9123 27.7043C30.7455 27.22 30.0513 25.9989 30.2249 24.7364C30.4547 22.2621 31.1177 19.7314 30.396 17.2721C29.7914 14.8582 28.1581 12.8397 25.9369 11.7614C21.9924 9.685 16.6934 9.80143 13.2848 12.915C12.3163 13.7086 11.7967 14.9257 10.8339 15.7164C9.93477 15.7757 9.65837 14.7979 10.1129 14.1429C11.6783 11.4113 14.3325 9.49383 17.3968 8.88071ZM13.7209 14.845C16.4866 11.2967 21.4338 10.3834 25.2625 12.7143C27.1661 13.8719 28.4674 15.819 28.8189 18.0357C29.3328 20.5507 28.1827 23.0386 28.4584 25.55C28.833 27.2393 30.5458 27.6714 31.9356 28.3414C32.4057 28.5593 32.6326 29.1057 32.4587 29.5986C32.4244 29.6917 32.3712 29.7767 32.3025 29.8479C31.7886 30.1893 31.1948 29.8707 30.6795 29.705C29.0543 29.0921 27.3613 28.0343 26.8622 26.2357C26.2239 23.9921 27.2574 21.7379 27.2178 19.4764C27.2531 17.1238 25.9485 14.9597 23.8635 13.9121C21.302 12.6364 18.2367 13.0093 16.048 14.8629C14.5833 16.0543 14.1012 18.0557 12.6429 19.25C11.8787 19.9059 10.9663 20.3612 9.98637 20.5757C9.66341 20.5644 9.37654 20.3641 9.25192 20.0628C9.12731 19.7615 9.18794 19.4145 9.40672 19.1743C10.2104 18.7615 10.9811 18.2862 11.7119 17.7529C12.4445 16.8296 13.1152 15.8579 13.7195 14.8443L13.7209 14.845ZM18.5653 14.495C21.0932 13.7257 23.7631 15.145 24.5853 17.695C25.1374 19.5707 24.1244 21.3821 23.2153 22.9443C20.4845 27.3593 15.7646 30.1836 10.8622 31.3943C10.6084 31.4657 10.3377 31.4257 10.1143 31.2843C9.89081 31.1425 9.73604 30.9128 9.68736 30.6507C9.76511 29.7379 10.764 29.6586 11.4313 29.4136C16.1336 28.0379 20.6429 24.9636 22.6597 20.2871C23.3059 19.1094 23.036 17.6342 22.0157 16.7679C21.2564 16.1457 20.2573 15.9087 19.3033 16.1243C18.3479 16.3412 17.5423 16.9862 17.1148 17.8764C15.696 21.0579 12.5079 23.0586 9.2618 23.8514C8.36121 23.9014 8.18873 22.4621 9.0264 22.2221C10.5902 21.7007 12.0632 20.9342 13.3915 19.9507C15.4345 18.4179 15.8084 15.135 18.5653 14.4943V14.495ZM20.0844 18.62L20.0965 18.625C20.4782 18.7779 20.6747 19.2243 20.5376 19.6293C19.7296 22.1093 17.7736 24.0464 15.7101 25.4293C13.9986 26.5475 12.1056 27.3527 10.1179 27.8079C9.80269 27.8575 9.48883 27.7111 9.32189 27.4364C9.14861 27.1565 9.14588 26.8019 9.31482 26.5193C9.84888 26.1572 10.444 25.897 11.0708 25.7514C13.6114 24.9993 15.8961 23.5 17.6569 21.4286C18.233 20.6432 18.7462 19.8127 19.1916 18.945C19.3695 18.6294 19.7482 18.4915 20.0844 18.62ZM22.7558 26.7464C22.9147 26.5982 23.1315 26.5307 23.3454 26.5629C23.5574 26.595 23.7462 26.7243 23.8614 26.9157C24.5693 27.9662 25.4644 28.8745 26.501 29.5943C27.6413 30.2548 28.8218 30.8417 30.0355 31.3514C30.8894 31.8086 30.068 33.1657 29.2685 32.7829C26.7463 31.9293 24.205 30.5293 22.7367 28.1157C22.4639 27.7129 22.2787 27.0714 22.7558 26.7464ZM20.0668 29.7871C21.1151 29.435 21.9174 30.4886 22.7339 30.9971C24.4538 32.4264 26.5278 33.2007 28.4937 34.1464C28.821 34.315 28.9956 34.6993 28.9136 35.0736C28.8397 35.4413 28.5229 35.7077 28.1516 35.7143C26.7244 35.2763 25.3518 34.674 24.0607 33.9193C22.8131 33.255 21.7548 32.2286 20.4556 31.6764C19.7317 31.8586 19.0418 32.1621 18.4105 32.5764C16.6898 33.5331 14.8747 34.3052 12.9949 34.88C12.6507 34.9457 12.2364 35.1386 11.9226 34.88C11.6777 34.7027 11.5471 34.4053 11.5811 34.1029C11.6103 33.8014 11.8013 33.5406 12.0781 33.4243C13.3258 32.8671 14.6604 32.5471 15.8961 31.9464C17.3367 31.3429 18.6148 30.3679 20.0668 29.7871ZM17.6393 35.585C18.629 34.9908 19.7026 34.5527 20.8231 34.2857C22.0134 34.651 23.1507 35.1734 24.2057 35.8393C25.4484 36.5364 26.8495 36.9264 28.0293 37.7379C28.6125 38.2707 28.0759 39.44 27.3203 39.2686C24.9924 38.59 22.9799 37.1257 20.6952 36.3171C18.6098 37.1193 16.6595 38.2743 14.5063 38.8921C13.5202 39.2793 12.9865 37.58 13.9047 37.2093C15.1043 36.5721 16.4305 36.2164 17.6386 35.585H17.6393ZM19.2807 38.1514C20.5453 37.3579 21.8347 38.3543 22.982 38.9779C23.4111 39.2829 24.0706 39.5407 24.0247 40.2886C24.1159 40.885 23.5871 41.3229 23.1672 41.4286C22.1924 41.1907 21.3632 40.43 20.3849 40.2071C19.5182 40.3729 18.7774 41.0236 17.9256 41.2607C17.5947 41.2843 17.2795 41.085 17.1034 40.74C16.9278 40.3848 16.9205 39.9684 17.0836 39.6071C17.7157 38.9826 18.4619 38.4882 19.2807 38.1514Z" fill="#E15D44"/>
</svg>
