<svg width="48" height="35" viewBox="0 0 48 35" fill="none" xmlns="http://www.w3.org/2000/svg">
<path d="M17.9793 19.8729C17.5967 19.872 17.2301 19.7198 16.9602 19.4497C16.6903 19.1796 16.5392 18.8138 16.5401 18.4328C16.5401 17.6372 17.1847 16.9918 17.9801 16.9918C18.7738 16.9918 19.4184 17.6372 19.4184 18.4328C19.4184 19.2284 18.7738 19.8738 17.9793 19.8738V19.8729ZM12.2235 28.518C11.8409 28.5169 11.4744 28.3645 11.2047 28.0942C10.935 27.824 10.7841 27.4581 10.7852 27.077C10.7852 26.2814 11.4289 25.6361 12.2235 25.6361C13.019 25.6361 13.6635 26.2814 13.6635 27.077C13.6635 27.8727 13.019 28.518 12.2235 28.518ZM23.015 27.7975C22.6324 27.7964 22.2659 27.644 21.9962 27.3737C21.7264 27.1035 21.5756 26.7376 21.5767 26.3565C21.5767 25.5609 22.2204 24.9156 23.015 24.9156C23.8104 24.9156 24.455 25.5609 24.455 26.3565C24.455 27.1522 23.8104 27.7975 23.015 27.7975ZM9.34608 16.9918C8.96349 16.9909 8.59692 16.8387 8.32703 16.5686C8.05714 16.2985 7.90602 15.9327 7.90693 15.5517C7.90693 14.7561 8.55151 14.1107 9.34694 14.1107C10.1407 14.1107 10.7852 14.7561 10.7852 15.5517C10.7852 16.3473 10.1407 16.9918 9.34608 16.9918ZM26.6124 16.2722C26.2297 16.2713 25.863 16.1189 25.5931 15.8486C25.3231 15.5784 25.1721 15.2124 25.1733 14.8312C25.1733 14.0356 25.8178 13.3902 26.6133 13.3902C27.407 13.3902 28.0516 14.0356 28.0516 14.8312C28.0516 15.6268 27.407 16.2722 26.6124 16.2722ZM35.2456 9.06807C34.863 9.06716 34.4964 8.91493 34.2265 8.64485C33.9566 8.37477 33.8055 8.00897 33.8064 7.62793C33.8064 6.83231 34.451 6.18694 35.2464 6.18694C36.0402 6.18694 36.6847 6.83231 36.6847 7.62793C36.6847 8.42355 36.0402 9.06807 35.2456 9.06807ZM38.123 24.9156C37.327 24.9127 36.6837 24.2682 36.6856 23.4754C36.6856 22.6798 37.3293 22.0344 38.1239 22.0344C38.9193 22.0344 39.5639 22.6798 39.5639 23.4754C39.5639 24.271 38.9193 24.9156 38.1239 24.9156H38.123ZM16.5401 9.78856C15.7437 9.78621 15.0999 9.14157 15.1018 8.34842C15.1018 7.55195 15.7455 6.90743 16.5401 6.90743C17.3355 6.90743 17.9801 7.55195 17.9801 8.34842C17.9801 9.14404 17.3355 9.78856 16.5401 9.78856ZM47.8353 21.9567C48.0239 22.3153 48.0513 22.737 47.9133 23.1177C45.5991 29.5945 39.6676 34.0805 32.8122 34.5364C32.4144 34.5637 32.0167 34.5774 31.6207 34.5774C30.2382 34.5795 28.8607 34.4103 27.5201 34.0737C26.7025 33.8767 25.9012 33.6173 25.1236 33.2977C25.0589 33.2696 24.9965 33.2368 24.9367 33.1996C17.7907 36.7474 9.14637 34.9325 4.02578 28.8074C-1.09395 22.6824 -1.35709 13.8426 3.38892 7.42305C8.13579 1.00347 16.6567 -1.32363 24.0016 1.79226C29.6789 -1.02321 36.4524 -0.491436 41.6168 3.1752C42.2296 3.60886 42.4053 4.44119 42.0222 5.08741C41.6278 5.75582 41.6213 6.58294 42.005 7.25744C42.387 7.93043 43.1026 8.34709 43.8788 8.34842C44.4993 8.34924 45.0495 8.74587 45.2442 9.3327C45.4401 9.92061 45.2381 10.5675 44.7419 10.941C44.2 11.3522 43.8809 11.9911 43.8788 12.6697C43.8749 13.7122 44.6217 14.6077 45.6513 14.7953C46.2222 14.8978 46.6765 15.3323 46.8025 15.8983C46.9295 16.4639 46.7048 17.0504 46.2316 17.3879C45.6592 17.7954 45.3191 18.4526 45.3179 19.1533C45.3123 20.1308 45.9723 20.988 46.9216 21.2362C47.3145 21.3375 47.6463 21.5991 47.8353 21.9567ZM2.8712 17.7123C2.87978 25.6651 9.31694 32.1103 17.2601 32.1197C25.2058 32.1197 31.6482 25.6693 31.6482 17.7123C31.6482 9.75612 25.2067 3.30581 17.2601 3.30581C9.31351 3.30581 2.8712 9.75612 2.8712 17.7123ZM32.6227 31.6612C37.8625 31.3129 42.4945 28.1313 44.7076 23.3636C42.5193 21.9209 41.8019 19.0389 43.0576 16.7366C41.1382 15.3232 40.468 12.7682 41.4479 10.6004C39.4258 9.48048 38.4218 7.13907 39.0076 4.90985C35.4611 2.77784 31.1553 2.29841 27.2236 3.59776C34.3482 8.63611 36.6007 18.204 32.4727 25.8981C32.987 26.2592 33.2082 26.9114 33.0204 27.5099C32.834 28.108 32.2795 28.5165 31.6507 28.5189C31.3868 28.5176 31.1285 28.4428 30.905 28.3029C30.0646 29.3858 29.0984 30.3658 28.0267 31.2225C28.085 31.2378 28.1441 31.2575 28.2016 31.2711C29.645 31.6356 31.1373 31.7671 32.6227 31.6621V31.6612Z" fill="#F88D25"/>
</svg>
