<?xml version="1.0" encoding="UTF-8"?>
<svg width="30px" height="50px" viewBox="0 0 30 50" version="1.1" xmlns="http://www.w3.org/2000/svg" xmlns:xlink="http://www.w3.org/1999/xlink">
    <title>Group 11</title>
    <g id="Consulting" stroke="none" stroke-width="1" fill="none" fill-rule="evenodd">
        <g id="CTA-Rust-v2" transform="translate(-85, -461)" fill="#FFFFFF">
            <g id="Group-11" transform="translate(85, 461.497)">
                <path d="M21,24.5030375 C23.209139,24.5030375 25.209139,25.398468 26.6568542,26.8461833 C28.1045695,28.2938985 29,30.2938985 29,32.5030375 L29,39.5030375 C29,41.9883189 27.9926407,44.2383189 26.363961,45.8669986 C24.7352814,47.4956782 22.4852814,48.5030375 20,48.5030375 L10,48.5030375 C7.51471863,48.5030375 5.26471863,47.4956782 3.63603897,45.8669986 C2.00735931,44.2383189 1,41.9883189 1,39.5030375 L1,24.5030375 Z" id="Rectangle" stroke="#B3B3B3" stroke-width="2"></path>
                <rect id="Rectangle" stroke="#B3B3B3" stroke-width="2" x="1" y="20.5030375" width="6" height="18" rx="3"></rect>
                <rect id="Rectangle" stroke="#B3B3B3" stroke-width="2" x="7" y="17.5030375" width="6" height="18" rx="3"></rect>
                <rect id="Rectangle" stroke="#B3B3B3" stroke-width="2" transform="translate(21, 13.503) rotate(24) translate(-21, -13.503)" x="18" y="1.50303752" width="6" height="24" rx="3"></rect>
                <rect id="Rectangle" stroke="#B3B3B3" stroke-width="2" transform="translate(18.0191, 15.4113) rotate(343) translate(-18.0191, -15.4113)" x="15.0190707" y="4.41131374" width="6" height="22" rx="3"></rect>
                <path d="M14.0273904,17.5071838 C14.7689964,17.3084711 15.5864086,17.3926715 16.3038476,17.8068851 L22.3660254,21.3068851 C22.7027534,21.5012951 22.9877485,21.7509102 23.2157093,22.0380379 C23.4424289,22.2662872 23.5635996,22.4040487 23.6700271,22.5505066 L27.7030631,28.1677336 C28.1732447,28.8226167 28.3425578,29.6047627 28.2352022,30.3468857 C28.1278466,31.0890087 27.7438222,31.7911088 27.1073285,32.2859001 C26.4522197,32.7951624 25.6775103,33.0013538 24.9421777,32.9198037 C24.2170779,32.8393884 23.5335721,32.4790392 23.0527814,31.8670852 L18.9980918,26.2904443 L13.3038476,23.0030375 C12.5864086,22.588824 12.1047828,21.9230244 11.9060701,21.1814184 C11.7073574,20.4398125 11.7915578,19.6224002 12.2057714,18.9049613 C12.6199849,18.1875224 13.2857845,17.7058965 14.0273904,17.5071838 Z" id="Combined-Shape" stroke="#B3B3B3" stroke-width="2"></path>
                <path d="M23.3059161,29.5033554 C23.6795215,27.8084986 24.4008372,26.6215027 25.5,27.5030375 C27.2041016,28.8697367 28,29.7416138 28,32.5030375 C28,35.2644613 26.8807119,37.5030375 25.5,37.5030375 C24.9373366,37.5030375 24.4180878,37.1312771 24.0003108,36.5038706 L23,36.5030375 L23,29.5030375 Z" id="Combined-Shape"></path>
            </g>
        </g>
    </g>
</svg>