<?xml version="1.0" encoding="UTF-8"?>
<svg width="47px" height="34px" viewBox="0 0 47 34" version="1.1" xmlns="http://www.w3.org/2000/svg" xmlns:xlink="http://www.w3.org/1999/xlink">
    <title>ember-cookies</title>
    <g id="Consulting" stroke="none" stroke-width="1" fill="none" fill-rule="evenodd">
        <g id="Desktop-/-Ember" transform="translate(-788, -6403)" fill="#B3B3B3" fill-rule="nonzero">
            <g id="Group-10" transform="translate(82, 6249)">
                <g id="Group-9" transform="translate(599, 154)">
                    <g id="ember-cookies" transform="translate(107, 0)">
                        <path d="M17.604744,19.3050922 C17.2301145,19.304218 16.8711517,19.1563666 16.6068744,18.8939838 C16.3425971,18.6316011 16.1946448,18.2762527 16.1955222,17.9061385 C16.1955222,17.1332703 16.8266975,16.5063106 17.6055273,16.5063106 C18.3826925,16.5063106 19.0138639,17.1332703 19.0138639,17.9061385 C19.0138639,18.6790068 18.3826925,19.3059665 17.604744,19.3059665 L17.604744,19.3050922 Z M11.9688517,27.7031859 C11.5942222,27.7021173 11.2353573,27.5540717 10.9712758,27.2914946 C10.7071944,27.0290147 10.559438,26.6735692 10.5605092,26.3033579 C10.5605092,25.5304896 11.1908052,24.9036271 11.9688517,24.9036271 C12.7477794,24.9036271 13.3788529,25.5304896 13.3788529,26.3033579 C13.3788529,27.0763233 12.7477794,27.7031859 11.9688517,27.7031859 Z M22.5355377,27.0032719 C22.1609082,27.0022033 21.8020433,26.8541577 21.5379619,26.5915806 C21.2737825,26.3291007 21.126124,25.9736552 21.1271952,25.6034439 C21.1271952,24.8305757 21.7574912,24.2037131 22.5355377,24.2037131 C23.3143675,24.2037131 23.9455389,24.8305757 23.9455389,25.6034439 C23.9455389,26.3764093 23.3143675,27.0032719 22.5355377,27.0032719 Z M9.15137556,16.5063106 C8.77675587,16.5054363 8.41782244,16.3575849 8.15355493,16.0952022 C7.88928741,15.8328194 7.74131562,15.477471 7.74220266,15.1073569 C7.74220266,14.3344886 8.37335844,13.7075289 9.15221764,13.7075289 C9.92944163,13.7075289 10.5605151,14.3344886 10.5605151,15.1073569 C10.5605151,15.8802251 9.92944163,16.5063106 9.15137556,16.5063106 Z M26.0579948,15.8072708 C25.6832674,15.8063966 25.3242067,15.6583509 25.0599294,15.3957739 C24.7955542,15.133294 24.6476999,14.7777513 24.648868,14.4074429 C24.648868,13.6345746 25.2799484,13.0076149 26.0588761,13.0076149 C26.8360413,13.0076149 27.4672127,13.6345746 27.4672127,14.4074429 C27.4672127,15.1803111 26.8360413,15.8072708 26.0579948,15.8072708 Z M34.5113437,8.80897605 C34.1367142,8.80809206 33.7777514,8.66021155 33.5134741,8.39784823 C33.2491968,8.13548491 33.1012445,7.78013648 33.1021219,7.4099835 C33.1021219,6.63709582 33.7332972,6.01016522 34.512127,6.01016522 C35.2893901,6.01016522 35.9204636,6.63709582 35.9204636,7.4099835 C35.9204636,8.18287117 35.2893901,8.80897605 34.5113437,8.80897605 Z M37.3288002,24.2037131 C36.5493829,24.2008959 35.9194844,23.5748105 35.9213407,22.8046622 C35.9213407,22.031794 36.551635,21.4048342 37.3296815,21.4048342 C38.1085113,21.4048342 38.7396826,22.031794 38.7396826,22.8046622 C38.7396826,23.5775305 38.1085113,24.2037131 37.3296815,24.2037131 L37.3288002,24.2037131 Z M16.1955261,9.50888033 C15.4157171,9.50659748 14.7853291,8.88037602 14.7871854,8.10988778 C14.7871854,7.33617438 15.4174796,6.7100695 16.1955261,6.7100695 C16.9743559,6.7100695 17.6055273,7.33617438 17.6055273,8.10988778 C17.6055273,8.88277545 16.9743559,9.50888033 16.1955261,9.50888033 Z M46.8387687,21.3293543 C47.0234396,21.6777084 47.0502688,22.0873597 46.9151437,22.4571824 C44.6491543,28.7489283 38.8412223,33.1067551 32.1286375,33.5496292 C31.7391246,33.5761491 31.3497097,33.5894577 30.9619594,33.5894577 C29.6082603,33.5914977 28.2594571,33.4271321 26.9467852,33.1001493 C26.1462178,32.908778 25.3616109,32.6567895 24.6002103,32.3463211 C24.5368581,32.319024 24.4757581,32.2871611 24.4172039,32.251024 C17.420073,35.6974568 8.95582602,33.9344119 3.94191074,27.9843172 C-1.07116245,22.0343197 -1.32882059,13.447089 3.31831813,7.21095729 C7.96629893,0.974796468 16.309697,-1.28581402 23.5015844,1.74104929 C29.060612,-0.993977568 35.693003,-0.477397326 40.7498156,3.08447616 C41.3498494,3.5057457 41.5218892,4.3142945 41.1467701,4.94205081 C40.7605864,5.59136311 40.7542218,6.39485078 41.1299284,7.05007907 C41.5039704,7.70384052 42.2046627,8.10859578 42.9646925,8.10988778 C43.5722659,8.11068435 44.1110038,8.4959819 44.3016478,9.06604509 C44.4934667,9.63715742 44.2956748,10.2655646 43.8098119,10.628393 C43.2792011,11.0278443 42.9667487,11.6484897 42.9646925,12.3077009 C42.9608737,13.3204147 43.692116,14.1903287 44.7002668,14.3725686 C45.2592736,14.47214 45.7041094,14.8942255 45.8274845,15.4440539 C45.9518387,15.9934936 45.7318198,16.5632362 45.2684777,16.8910933 C44.7080023,17.2869502 44.3749874,17.9253728 44.3738124,18.6060525 C44.3683291,19.5556236 45.0145796,20.3883318 45.9441033,20.6294403 C46.3288182,20.7278459 46.653706,20.9819715 46.8387687,21.3293543 Z M2.81138354,17.2062245 C2.81978479,24.9317985 9.12284262,31.1928473 16.9005267,31.2019787 C24.6806978,31.2019787 30.9888865,24.9358785 30.9888865,17.2062245 C30.9888865,9.4773672 24.6815791,3.21135439 16.9005267,3.21135439 C9.11948408,3.21135439 2.81138354,9.4773672 2.81138354,17.2062245 Z M31.9430852,30.7565789 C37.0737271,30.4182305 41.6092309,27.3275346 43.7762265,22.6960565 C41.6335143,21.2945771 40.9310595,18.4949212 42.1606001,16.2584021 C40.281186,14.8853855 39.624948,12.4033866 40.5844342,10.2975246 C38.6044596,9.20960274 37.6213754,6.93509112 38.1949718,4.76956403 C34.7223542,2.69846946 30.5062549,2.23273766 26.656462,3.49496284 C33.6326387,8.38935794 35.8382135,17.6838758 31.7962101,25.1581412 C32.299796,25.5089239 32.5163878,26.1424894 32.3325001,26.7238891 C32.1499833,27.3049003 31.6070349,27.7017287 30.9913344,27.7040602 C30.7329321,27.7027973 30.4800132,27.6301345 30.2611692,27.4942317 C29.4382769,28.5461912 28.4922052,29.4981908 27.4428314,30.3304134 C27.4999169,30.3452762 27.5577857,30.3644133 27.6140878,30.3776248 C29.0274182,30.7317103 30.4886298,30.8594531 31.9430852,30.7574532 L31.9430852,30.7565789 Z" id="Shape"></path>
                    </g>
                </g>
            </g>
        </g>
    </g>
</svg>