<?xml version="1.0" encoding="UTF-8"?>
<svg width="36px" height="48px" viewBox="0 0 36 48" version="1.1" xmlns="http://www.w3.org/2000/svg" xmlns:xlink="http://www.w3.org/1999/xlink">
    <title>ember-simple-auth</title>
    <g id="Consulting" stroke="none" stroke-width="1" fill="none" fill-rule="evenodd">
        <g id="Desktop-/-Ember" transform="translate(-194, -6389)" fill="#B3B3B3" fill-rule="nonzero">
            <g id="Group-10" transform="translate(82, 6249)">
                <g id="Group-7" transform="translate(0, 140)">
                    <g id="ember-simple-auth" transform="translate(112, 0)">
                        <path d="M18.1044655,48 L17.6318836,48 L17.4770618,47.8940509 C16.0383709,46.91904 14.5317818,45.9778036 13.0745891,45.0701673 C10.2328145,43.3879855 7.50898909,41.5100509 4.92248727,39.4498036 L4.89781527,39.4292073 C3.51185455,38.2616727 2.34011345,36.8567564 1.43621236,35.2787782 C0.505199127,33.4321745 0.0134239418,31.3916509 0,29.3192727 L0,6.77734691 L0.230732509,6.58659491 C5.25871418,2.39938036 11.5119709,0.0791688436 17.9810618,0 L17.9952873,0 C24.3940364,0.130909091 30.56832,2.44861964 35.5444364,6.58784291 L35.7745745,6.77984291 L35.7745745,7.08529745 C35.7721309,10.3748945 35.7721309,13.6643782 35.7745745,16.9533382 L35.7745745,28.7220655 C35.84448,30.8770036 35.4068073,33.0178036 34.4975127,34.9683491 C33.1514182,37.69248 30.7916509,39.5887418 28.6848,41.1522327 C26.5940073,42.6327273 24.4107055,44.0016873 22.2983564,45.3269236 C20.9436218,46.1691055 19.5984873,47.0267345 18.26304,47.8996364 L18.1044655,48 Z M5.71709673,38.4672873 C8.25620945,40.4863418 10.9289891,42.3275345 13.7168291,43.9779491 C15.0895418,44.8326109 16.5053673,45.7152873 17.8743273,46.6367127 C19.12608,45.8175709 20.4055855,45.0152727 21.6462545,44.2367127 C23.7438545,42.9213382 25.9129309,41.5611055 27.9635782,40.1117673 C29.9415273,38.6437527 32.1648873,36.8627782 33.3864436,34.39104 C34.2050618,32.6200145 34.5963927,30.6780218 34.5284073,28.7245964 C34.5326836,24.8016873 34.5326836,20.8787782 34.5284073,16.9577018 L34.5284073,7.394496 C29.8107055,3.55138036 23.9992145,1.40197527 17.9822836,1.27480145 C11.8975418,1.35272727 6.00890182,3.50338036 1.240032,7.38888436 L1.240032,29.2986764 C1.25175273,31.1688436 1.69285527,33.0090764 2.52694691,34.6703127 C3.36068945,36.11616 4.440672,37.4017745 5.71709673,38.4679855 L5.71709673,38.4672873 Z M15.1826618,7.75043782 C18.7302982,6.98093673 22.4318836,7.87874618 25.2473018,10.1916218 C26.8083491,11.5124945 27.8447127,13.3587491 28.1653527,15.3905455 C28.6299055,17.4495709 28.1326255,19.5298036 27.8939345,21.5800145 C27.5699782,22.6210909 29.208,22.8 28.9734982,23.7917673 C28.9016727,24.0171927 28.7287855,24.1950545 28.5071127,24.2717673 C28.2860509,24.3478691 28.0423855,24.3132218 27.8507345,24.1782982 C26.8324364,23.7556364 26.2265891,22.6899491 26.3780945,21.5881309 C26.5786473,19.4287418 27.1572655,17.2201309 26.5274182,15.0738327 C25.9997673,12.9671564 24.5743418,11.2055564 22.63584,10.2644945 C19.1933673,8.45236364 14.5687855,8.55397527 11.5940073,11.2712727 C10.7487709,11.9638691 10.2953018,13.0260655 9.45504,13.7161309 C8.67034473,13.7678836 8.42912291,12.9145309 8.82580364,12.3428945 C10.1919709,9.95895273 12.5083636,8.28552436 15.1826618,7.75043782 Z M11.9746036,12.9556364 C14.3883055,9.85893818 18.7058618,9.06187636 22.0472727,11.0961164 C23.7085964,12.1063855 24.8442764,13.8056727 25.15104,15.7402473 C25.5995345,17.9351564 24.5958109,20.1064145 24.8364218,22.2981818 C25.1633455,23.77248 26.6581527,24.1495855 27.8710691,24.7343127 C28.2813382,24.92448 28.47936,25.4013382 28.3275927,25.8315055 C28.2976582,25.9127564 28.2512291,25.9869382 28.1912727,26.0490764 C27.7427782,26.3470255 27.2245527,26.0689745 26.7748364,25.9243636 C25.35648,25.3894691 23.8789527,24.4662982 23.4433745,22.8966109 C22.8863127,20.93856 23.7882764,18.9712582 23.7537164,16.9975855 C23.7845236,14.9444073 22.6459636,13.0557382 20.8263273,12.1414691 C18.5908364,11.0281309 15.9156655,11.3535709 14.0055273,12.9712582 C12.7272436,14.0110255 12.3065018,15.7577018 11.0338036,16.8 C10.3668655,17.3724218 9.57058909,17.7697745 8.71537745,17.9569745 C8.43352145,17.9471127 8.18316218,17.7723055 8.07440291,17.5093527 C7.96565236,17.2464 8.01860143,16.9435636 8.20950109,16.7339345 C8.91089455,16.3736727 9.58350545,15.9588655 10.2212945,15.49344 C10.8606545,14.6876509 11.4459927,13.8396218 11.9733818,12.9550255 L11.9746036,12.9556364 Z M16.2024436,12.6501818 C18.4086109,11.9787927 20.7387055,13.2174545 21.4562618,15.4429091 C21.9380945,17.0798836 21.0540218,18.6607418 20.2606255,20.0241164 C17.8773818,23.8772073 13.7581964,26.3420509 9.47973818,27.3986618 C9.25824,27.4609745 9.02199273,27.4260655 8.82702545,27.3026618 C8.63197964,27.1789091 8.49690764,26.9784436 8.45442327,26.7497018 C8.52227782,25.9530764 9.39403636,25.8838691 9.97640727,25.6700509 C14.0802327,24.46944 18.0156218,21.7864145 19.7757382,17.7051055 C20.3396945,16.6772945 20.1041455,15.3898473 19.2137018,14.6338036 C18.55104,14.0907927 17.6790982,13.8839564 16.8465164,14.0721164 C16.0127127,14.2614109 15.3096436,14.82432 14.9365527,15.6012218 C13.6983273,18.3778036 10.9159855,20.1238691 8.08302545,20.8157673 C7.297056,20.8594036 7.146528,19.6032873 7.87758545,19.3938327 C9.24235636,18.9387927 10.5278836,18.2698473 11.6871273,17.41152 C13.4701091,16.0738036 13.7964218,13.2087273 16.2024436,12.6495709 L16.2024436,12.6501818 Z M17.5282036,16.2501818 L17.5387636,16.2545455 C17.8718836,16.3879855 18.0433745,16.7775709 17.9237236,17.1310255 C17.21856,19.2953891 15.5115055,20.9859491 13.7106327,22.1928436 C12.21696,23.1687273 10.5648873,23.8714473 8.83016727,24.2687127 C8.55507491,24.312 8.28116073,24.1842327 8.13546764,23.9444945 C7.98424145,23.7002182 7.98185891,23.3907491 8.12929745,23.1441164 C8.59538618,22.8281018 9.11476364,22.6010182 9.66178909,22.4739491 C11.87904,21.8175709 13.87296,20.5090909 15.4096582,18.7013236 C15.9124364,18.0158836 16.36032,17.2910836 16.7490327,16.5338182 C16.9042909,16.2583855 17.2347927,16.1380364 17.5282036,16.2501818 Z M19.8596073,23.3423127 C19.9982836,23.2129745 20.1874909,23.1540655 20.3741673,23.1821673 C20.5591855,23.2101818 20.7239564,23.3230255 20.8244945,23.4900655 C21.4422982,24.4068655 22.2234764,25.1995636 23.1281455,25.8277527 C24.1233164,26.4041891 25.1535709,26.9163927 26.2128,27.3612218 C26.9580218,27.7602327 26.2411636,28.9446109 25.5434182,28.6105309 C23.3422255,27.8655709 21.1243636,26.6437527 19.8429382,24.5373382 C19.6048582,24.1858036 19.4432291,23.6259491 19.8596073,23.3423127 Z M17.5128436,25.9960145 C18.4277236,25.6887273 19.1279127,26.6082327 19.8404945,27.0520145 C21.3414982,28.2994036 23.1515345,28.9751564 24.8672291,29.8004945 C25.1528727,29.9476364 25.3052509,30.2830255 25.2336873,30.6096873 C25.1691927,30.9305891 24.8927127,31.1630836 24.5686691,31.1688436 C23.3231127,30.7865891 22.1252073,30.2609455 20.9984291,29.6022982 C19.9096145,29.0225455 18.9860073,28.1267782 17.85216,27.6448582 C17.2203927,27.8038691 16.6182982,28.0687418 16.0673455,28.4303127 C14.5656436,29.2652509 12.9815564,29.9390836 11.3410036,30.4407273 C11.0406109,30.4980655 10.67904,30.6664145 10.4051782,30.4407273 C10.1914473,30.2859927 10.0774691,30.0264436 10.1071418,29.7625309 C10.1326255,29.4994036 10.2993164,29.2717964 10.5408873,29.1702982 C11.6297891,28.6840145 12.7945309,28.4047418 13.87296,27.8804945 C15.1302109,27.3538036 16.2456436,26.5028945 17.5128436,25.9960145 Z M15.3942982,31.056 C16.2580364,30.5374255 17.1949964,30.1550836 18.1728873,29.9220655 C19.2116945,30.2408727 20.2042473,30.6967855 21.1249745,31.2779345 C22.2095127,31.8863127 23.4322909,32.2266764 24.4619345,32.9348945 C24.9709091,33.3998836 24.5026036,34.4203636 23.8431709,34.2707782 C21.8115491,33.6785455 20.0551855,32.4006109 18.0612655,31.6949236 C16.24128,32.3950255 14.5392,33.4030255 12.6600436,33.9421964 C11.7994473,34.2801164 11.3336727,32.7970909 12.1350109,32.4735709 C13.1819345,31.9174691 14.3393455,31.60704 15.3936873,31.056 L15.3942982,31.056 Z M16.8267927,33.2957673 C17.9304436,32.6032582 19.0557382,33.4728436 20.0570182,34.0170764 C20.4315055,34.2832582 21.0070691,34.5082473 20.9670109,35.16096 C21.0466036,35.6814545 20.5851055,36.0636218 20.2186473,36.1558691 C19.3679127,35.9482473 18.6442473,35.2843636 17.7904582,35.0898327 C17.0340655,35.2345309 16.3875491,35.8024145 15.64416,36.0093382 C15.3553745,36.0299345 15.0802909,35.856 14.9266036,35.5549091 C14.7733527,35.2449164 14.7669818,34.8815127 14.9093236,34.5661964 C15.4609745,34.0211782 16.1122036,33.5897018 16.8267927,33.2957673 Z" id="Shape"></path>
                    </g>
                </g>
            </g>
        </g>
    </g>
</svg>