<?xml version="1.0" encoding="UTF-8"?>
<svg width="54px" height="24px" viewBox="0 0 54 24" version="1.1" xmlns="http://www.w3.org/2000/svg" xmlns:xlink="http://www.w3.org/1999/xlink">
    <title>qunit-dom</title>
    <g id="Consulting" stroke="none" stroke-width="1" fill="none" fill-rule="evenodd">
        <g id="Desktop-/-Ember" transform="translate(-486, -6667)" fill="#B3B3B3" fill-rule="nonzero">
            <g id="Group-10" transform="translate(82, 6249)">
                <g id="Group-6" transform="translate(301, 418)">
                    <g id="qunit-dom" transform="translate(103, 0)">
                        <path d="M0.7425,9.88007143 L7.84157143,5.2245 C7.98480643,5.14663393 8.14632429,5.10867 8.30925,5.11457143 C9.18697179,5.18665179 9.86570357,5.91470679 9.87621429,6.79532143 C9.89443929,7.15361143 9.72867857,7.49643429 9.4365,7.70464286 L4.12521429,11.2030714 L9.43360714,14.6754643 C9.72675,14.8953214 9.89164286,15.2472857 9.87332143,15.61275 C9.85316786,16.4894786 9.17948893,17.2120179 8.30635714,17.2935 C8.13916929,17.3033357 7.97376536,17.2546393 7.83867857,17.1556071 L0.740571429,12.5260714 C0.295666393,12.2299393 0.0201409393,11.7380571 0,11.2040357 C0.0143044071,10.6673143 0.292024286,10.1721536 0.7425,9.88007143 Z M17.6869286,22.01175 L17.6869286,20.2210714 C14.634,19.8903214 12.4065,18.1276071 12.4065,13.9946786 L12.4065,6.30932143 C12.4065,1.67882143 15.2125714,0.000964285715 18.8421429,0.000964285715 C22.4726786,0.000964285715 25.30575,1.68171429 25.30575,6.30932143 L25.30575,13.9956429 C25.30575,18.1015714 23.0502857,19.8912857 19.9703571,20.2220357 L19.9703571,22.0127143 C19.9832786,22.3158857 19.868625,22.6105714 19.6542643,22.8254143 C19.4399036,23.0401607 19.1453143,23.1552964 18.8421429,23.1428571 C18.5357893,23.1577071 18.23715,23.0443071 18.0179679,22.82985 C17.7987857,22.6153929 17.6788286,22.3192607 17.6869286,22.0127143 L17.6869286,22.01175 Z M21.7301786,6.30835714 C21.7301786,4.15992857 20.6308929,3.14067857 18.8421429,3.14067857 C17.0263929,3.14067857 15.9811071,4.15992857 15.9811071,6.30835714 L15.9811071,13.9946786 C15.9811071,15.6204643 16.5866786,16.58475 17.6878929,16.9434643 L17.6878929,15.4825714 C17.6771893,15.1779536 17.7973393,14.8832679 18.0178714,14.6728607 C18.2384036,14.4624536 18.5383929,14.3563821 18.8421429,14.3813571 C19.1437714,14.3556107 19.4416393,14.4622607 19.6583143,14.6737286 C19.8748929,14.8851964 19.9888714,15.1804607 19.9703571,15.4825714 L19.9703571,16.9434643 C21.0696429,16.58475 21.72825,15.6204643 21.72825,13.9946786 L21.7301786,6.30932143 L21.7301786,6.30835714 Z M37.9060714,1.10121429 C37.9060714,0.329785714 38.7864643,0 39.6938571,0 C40.57425,0 41.4826071,0.33075 41.4826071,1.10121429 L41.4826071,13.9946786 C41.4826071,18.59625 38.5675714,20.304 34.8820714,20.304 C31.1695714,20.304 28.2805683,18.59625 28.2805683,13.9946786 L28.2805683,1.10217857 C28.2786429,0.33075 29.1580714,0 30.0664286,0 C30.9468214,0 31.8551786,0.33075 31.8551786,1.10121429 L31.8551786,13.9946786 C31.8551786,16.1469643 32.9824286,17.1633214 34.8801429,17.1633214 C36.7788214,17.1633214 37.9060714,16.1440714 37.9060714,13.9946786 L37.9060714,1.10217857 L37.9060714,1.10121429 Z M53.2835357,12.5231786 L46.1603571,17.1546429 C46.0375071,17.2571464 45.879075,17.3067107 45.7196786,17.2925357 C44.8406357,17.2139464 44.15715,16.4938179 44.12475,15.6117857 C44.1184821,15.2479607 44.2812536,14.9017821 44.5654286,14.6745 L49.9008214,11.2030714 L44.5654286,7.70560714 C44.2826036,7.4895975 44.1190607,7.15214571 44.12475,6.79628571 C44.1467357,5.90977929 44.8356214,5.18349857 45.7196786,5.11457143 C45.8739643,5.10492857 46.02825,5.1435 46.1603571,5.22546429 L53.2835357,9.88103571 C53.7290357,10.1741786 53.9971071,10.6707857 54,11.2040357 C53.9904536,11.7342 53.7230571,12.2265643 53.2835357,12.5231786 Z" id="Shape"></path>
                    </g>
                </g>
            </g>
        </g>
    </g>
</svg>