<svg width="56" height="24" viewBox="0 0 56 24" fill="none" xmlns="http://www.w3.org/2000/svg">
<g clip-path="url(#clip0_104_25)">
<path d="M0.77 10.246L8.132 5.418C8.28054 5.33725 8.44804 5.29788 8.617 5.304C9.52723 5.37875 10.2311 6.13377 10.242 7.047C10.2609 7.41856 10.089 7.77408 9.786 7.99L4.278 11.618L9.783 15.219C10.087 15.447 10.258 15.812 10.239 16.191C10.2181 17.1002 9.51947 17.8495 8.614 17.934C8.44062 17.9442 8.26909 17.8937 8.129 17.791L0.768 12.99C0.306617 12.6829 0.0208869 12.1728 0 11.619C0.0148342 11.0624 0.30284 10.5489 0.77 10.246ZM18.342 22.827V20.97C15.176 20.627 12.866 18.799 12.866 14.513V6.543C12.866 1.741 15.776 0.001 19.54 0.001C23.305 0.001 26.243 1.744 26.243 6.543V14.514C26.243 18.772 23.904 20.628 20.71 20.971V22.828C20.7234 23.1424 20.6045 23.448 20.3822 23.6708C20.1599 23.8935 19.8544 24.0129 19.54 24C19.2223 24.0154 18.9126 23.8978 18.6853 23.6754C18.458 23.453 18.3336 23.1459 18.342 22.828V22.827ZM22.535 6.542C22.535 4.314 21.395 3.257 19.54 3.257C17.657 3.257 16.573 4.314 16.573 6.542V14.513C16.573 16.199 17.201 17.199 18.343 17.571V16.056C18.3319 15.7401 18.4565 15.4345 18.6852 15.2163C18.9139 14.9981 19.225 14.8881 19.54 14.914C19.8528 14.8873 20.1617 14.9979 20.3864 15.2172C20.611 15.4365 20.7292 15.7427 20.71 16.056V17.571C21.85 17.199 22.533 16.199 22.533 14.513L22.535 6.543V6.542ZM39.31 1.142C39.31 0.342 40.223 0 41.164 0C42.077 0 43.019 0.343 43.019 1.142V14.513C43.019 19.285 39.996 21.056 36.174 21.056C32.324 21.056 29.328 19.285 29.328 14.513V1.143C29.326 0.343 30.238 0 31.18 0C32.093 0 33.035 0.343 33.035 1.142V14.513C33.035 16.745 34.204 17.799 36.172 17.799C38.141 17.799 39.31 16.742 39.31 14.513V1.143V1.142ZM55.257 12.987L47.87 17.79C47.7426 17.8963 47.5783 17.9477 47.413 17.933C46.5014 17.8515 45.7926 17.1047 45.759 16.19C45.7525 15.8127 45.9213 15.4537 46.216 15.218L51.749 11.618L46.216 7.991C45.9227 7.76699 45.7531 7.41704 45.759 7.048C45.7818 6.12866 46.4962 5.37548 47.413 5.304C47.573 5.294 47.733 5.334 47.87 5.419L55.257 10.247C55.719 10.551 55.997 11.066 56 11.619C55.9901 12.1688 55.7128 12.6794 55.257 12.987Z" fill="#FC1B52"/>
</g>
<defs>
<clipPath id="clip0_104_25">
<rect width="56" height="24" fill="white"/>
</clipPath>
</defs>
</svg>
