<?xml version="1.0" encoding="UTF-8"?>
<svg width="1440px" height="500px" viewBox="0 0 1440 500" version="1.1" xmlns="http://www.w3.org/2000/svg" xmlns:xlink="http://www.w3.org/1999/xlink">
    <title>Group</title>
    <g id="Blog-posts" stroke="none" stroke-width="1" fill="none" fill-rule="evenodd">
        <g id="Effective-infrastructure-for-efficient-development-workflows-Copy-2" transform="translate(1.000000, -1094.000000)">
            <g id="Group" transform="translate(-1.000000, 1094.000000)">
                <rect id="Rectangle" fill="#FFFFFF" x="0" y="0" width="1440" height="500"></rect>
                <path d="M234.726642,14.7690406 C286.13568,-7.8506961 351.125499,5.20899171 406.261456,26.2634804 C473.960997,52.1182199 535.382337,88.8685374 596.155286,126.253463 L600.769798,129.093878 C603.845429,130.988079 606.919764,132.883242 609.993533,134.778033 L614.603853,137.619776 L614.603853,137.619776 L619.213872,140.459963 L619.213872,140.459963 L623.824138,143.297596 C630.739997,147.55163 637.658539,151.793671 644.588088,156.008548 C721.583086,202.840515 802.973307,247.581613 893.327292,266.786654 C973.100639,283.73326 1070.43388,279.292644 1133.36002,234.234724 C1194.40863,190.460521 1292.37824,203.603707 1356.89783,247.915877 C1418.4428,290.205144 1450.34823,362.342275 1435.7276,426.202868 C1429.56218,453.127144 1416.56502,476.961298 1399.55404,499.000341 L129.946951,499.000425 C169.576903,441.836636 191.472392,375.522676 166.421311,311.380075 C156.821137,286.804028 140.714557,263.888402 133.800496,238.782209 C123.838799,202.620767 133.850738,165.718786 145.908274,131.097775 C161.960111,85.0775157 185.253509,36.5954216 234.726642,14.7690406 Z" id="Combined-Shape" fill="#EBF4FF"></path>
                <rect id="Rectangle" stroke="#979797" fill="#F9F9F9" x="281.5" y="1.5" width="398" height="356" rx="15"></rect>
                <g id="undraw_team_collaboration_re_ow29" transform="translate(281.000000, 0.000000)" fill-rule="nonzero">
                    <path d="M28.4313531,53.4731885 C70.7605863,52.7653081 113.094381,52.6636212 155.432738,53.1681277 C197.764956,53.675612 240.082967,54.7919981 282.386772,56.5172862 C306.125198,57.4854977 329.854012,58.645397 353.573216,59.9969841 C355.478874,60.1054279 355.472313,57.2540222 353.573216,57.145949 C311.311512,54.7407967 269.018962,52.9411283 226.695565,51.7469437 C184.378177,50.5559713 142.048575,49.9739547 99.706759,50.0008938 C75.9469827,50.0160993 52.1885141,50.2231953 28.4313531,50.6221819 C26.5258924,50.6540469 26.5198746,53.5051771 28.4313531,53.473217 L28.4313531,53.4731885 Z" id="Path" fill="#A8A7A7"></path>
                    <path d="M324.400094,34.9954674 L342.599906,33.7292656 C344.459151,33.5999134 344.47423,30.8741353 342.599906,31.004532 L324.400094,32.2707338 C322.540849,32.400086 322.52577,35.1258732 324.400094,34.9954674 Z" id="Path" fill="#A8A7A7"></path>
                    <path d="M324.400094,51.9954674 L342.599906,50.7292656 C344.459151,50.5999134 344.47423,47.8741353 342.599906,48.004532 L324.400094,49.2707338 C322.540849,49.400086 322.52577,52.1258732 324.400094,51.9954674 Z" id="Path" fill="#A8A7A7"></path>
                    <path d="M322.41243,44.7670606 L348.587552,46.9932553 C350.476635,47.1539149 350.464988,44.3926145 348.587552,44.2329394 L322.41243,42.0067447 C320.523396,41.8460851 320.534993,44.6073855 322.41243,44.7670606 Z" id="Path" fill="#A8A7A7"></path>
                    <path d="M39.8831777,31 C37.1677275,30.9834226 34.7052944,32.5858579 33.6290406,35.0700266 C32.4186732,37.5143055 32.9919233,40.4627687 35.0307978,42.2798453 C36.9264874,43.8868811 39.517554,44.4113865 41.8923045,43.668809 C44.3407677,42.816741 45.9845464,40.5196571 45.9950323,37.9354881 C46.1043458,35.0693816 44.4010035,32.441819 41.7340633,31.3625503 C40.9198959,31.1421768 40.0797637,31.6174768 39.8524839,32.4270431 C39.6521674,33.2355436 40.1213788,34.0589713 40.9208108,34.3018697 C41.1873878,34.4044925 40.6772899,34.1713051 40.9262052,34.3064217 C41.028545,34.3619803 41.132812,34.412174 41.2333061,34.471492 C41.318749,34.5219194 41.4005413,34.577102 41.483649,34.6311466 C41.7691725,34.816843 41.3442626,34.494831 41.5267631,34.6617505 C41.685045,34.8065198 41.8418586,34.9477632 41.9857013,35.1075093 C42.0401037,35.1679043 42.2532164,35.3358196 42.0876026,35.2184537 C41.9608913,35.1286537 42.0387373,35.1497675 42.0875516,35.2218778 C42.1246085,35.2766032 42.1637966,35.3298349 42.2003945,35.3848956 C42.3196467,35.5647136 42.4280518,35.7514447 42.5250348,35.9440983 C42.5475197,35.9886731 42.5680672,36.0342945 42.5909295,36.078656 C42.633758,36.1617703 42.6958492,36.1835548 42.5951512,36.0794384 C42.4989399,35.9799654 42.5601949,35.9867629 42.5946209,36.0824866 C42.6172486,36.1454116 42.6419464,36.2075441 42.6639623,36.2706927 C42.7356891,36.4762754 42.7958949,36.685671 42.844301,36.8979109 C42.866735,36.9960122 42.8847536,37.0946926 42.9040162,37.1934035 C42.9723379,37.5434183 42.8940943,36.9758128 42.9105934,37.235804 C42.9243801,37.4528766 42.9404408,37.6676325 42.9366475,37.8855687 C42.9349139,37.9852991 42.9305631,38.0849041 42.9235949,38.1843839 C42.9200769,38.2340086 42.9145296,38.2835012 42.9112461,38.3331259 C42.8953893,38.5722878 42.8948692,38.2457442 42.928459,38.2233907 C42.8585437,38.4264263 42.8121675,38.6367648 42.7902351,38.850304 C42.762835,38.9450625 42.7302955,39.0377481 42.6998057,39.1314701 C42.5933972,39.4584608 42.7997389,38.9532215 42.6863147,39.1767257 C42.5929569,39.3687074 42.4886168,39.5551915 42.3738093,39.7352578 C42.3239752,39.8106805 42.1360498,39.9810038 42.2897226,39.8624694 C42.4564785,39.7338353 42.2022912,39.9553481 42.148052,40.0123494 C42.0783842,40.0855672 42.0060754,40.1562415 41.9311255,40.2243722 C41.8831442,40.2710451 41.8324912,40.314911 41.7794208,40.3557496 C41.7696926,40.3508827 42.0349745,40.1792181 41.8919986,40.2700749 C41.7102425,40.3855814 41.5381534,40.5091351 41.3466079,40.6096953 C41.3243065,40.6214004 41.0794395,40.7344378 41.0804593,40.7384411 C41.0698949,40.6972904 41.3952591,40.6242961 41.1719185,40.6962032 C41.1250111,40.711302 41.0789908,40.7295404 41.032267,40.7452386 C40.8289216,40.8134425 40.6213787,40.8685257 40.4109271,40.9101463 C40.362745,40.9197075 40.311779,40.9245643 40.2643108,40.9367977 C40.1061919,40.977542 40.4154139,40.9128998 40.4247036,40.9182443 C40.3078264,40.9132279 40.1907947,40.9235516 40.0766198,40.9489499 C39.8595951,40.9613299 39.6420368,40.9613095 39.4250145,40.9488889 C39.3747929,40.9460236 39.3246937,40.9410347 39.2744926,40.9381288 C39.1579378,40.9313821 39.0724133,40.8476988 39.2275138,40.9385352 C39.3471787,41.0086438 39.3372262,40.957495 39.2312052,40.9379865 C39.1816261,40.9288419 39.1318124,40.9211401 39.0822435,40.9118736 C38.8674332,40.8718184 38.6550066,40.8199743 38.445934,40.7565779 C38.3334276,40.7224177 38.2231951,40.6826895 38.1122081,40.6440383 C38.063847,40.6300632 38.0167692,40.6120067 37.9714858,40.5900648 C37.9708127,40.5775164 38.2575395,40.7265836 38.1061611,40.6452983 C37.9150949,40.5426755 37.7175126,40.4566756 37.5309434,40.3445424 C37.4313875,40.2846961 37.3357575,40.2196271 37.2389549,40.1555539 C37.1963746,40.129997 37.1558939,40.101118 37.1178929,40.0691882 C37.1210948,40.0563045 37.3550405,40.2723 37.2322349,40.1556962 C37.0769305,40.0082141 36.9107966,39.8761965 36.7637112,39.7191531 C36.7300602,39.6832352 36.6982346,39.6456305 36.6647059,39.6096313 L36.6322378,39.5726668 C36.5493341,39.4716968 36.5478011,39.4721811 36.6276389,39.5741197 C36.7086969,39.597916 36.7050055,39.6865679 36.6280875,39.5714271 C36.6006773,39.5303984 36.5715437,39.4905584 36.5441946,39.4494991 C36.4199703,39.2731237 36.3140351,39.084639 36.2280182,38.8869434 C36.2354724,38.881162 36.3605214,39.2536725 36.2649017,38.9725572 C36.2468321,38.9194474 36.2265192,38.8672012 36.2088167,38.8139593 C36.1736701,38.7083696 36.1427384,38.6016013 36.1160216,38.4936543 C36.0895801,38.3867336 36.0760075,38.2764294 36.0493416,38.1699455 C36.0043819,37.9904471 36.0755996,38.3115548 36.0674826,38.3035584 C36.0419894,38.2784513 36.0528393,38.1227899 36.0509324,38.0855409 C36.0386957,37.8463892 36.0660448,37.6142585 36.0703072,37.3765496 C36.0736417,37.1923976 36.0550113,37.5200691 36.0511567,37.5104672 C36.0520949,37.4553078 36.0618998,37.4006547 36.0801986,37.3485874 C36.1078841,37.2232149 36.1336526,37.0979745 36.1675484,36.973994 C36.2063592,36.8320359 36.2510436,36.6918186 36.3016016,36.5533422 C36.320487,36.5015228 36.3435124,36.4504654 36.3610823,36.3982193 C36.4254576,36.2068227 36.2336165,36.6293542 36.3393927,36.4567854 C36.4849179,36.2193407 36.5933047,35.9623875 36.7478137,35.7278894 C36.7844219,35.6723003 37.0070384,35.3626641 36.8888929,35.5189961 C36.7712266,35.6747084 37.0098019,35.3795816 37.0549656,35.3294793 C37.2425953,35.1212973 37.4632336,34.9503847 37.6574915,34.7510527 C37.7724759,34.6330568 37.5772288,34.8091514 37.5657161,34.8173612 C37.62588,34.774534 37.6847896,34.730081 37.7456979,34.6882597 C37.8518922,34.6153264 37.9606903,34.5463727 38.072092,34.4813986 C38.1975796,34.4080894 38.3394746,34.3535164 38.4610974,34.2759702 C38.6047769,34.1843514 38.3512116,34.3161861 38.3466738,34.3189397 C38.4122996,34.2864909 38.4809157,34.2604298 38.5515675,34.2411191 C38.6700088,34.1992673 39.1851441,33.977785 39.2932046,34.0470503 C39.2883099,34.0439106 38.9020578,34.07802 39.2142981,34.058034 C39.2880856,34.0533093 39.3615671,34.046146 39.4354769,34.0430978 C39.5849484,34.0369303 39.7339101,34.0406592 39.8832287,34.0483813 C40.7256999,34.0428787 41.4072963,33.3637284 41.4128188,32.5242808 C41.3948257,31.6900824 40.7204317,31.0181087 39.8832287,31.0001802 L39.8831777,31 Z" id="Path" fill="#A8A7A7"></path>
                    <path d="M59.8831777,31 C57.1677275,30.9834226 54.7052944,32.5858579 53.6290406,35.0700266 C52.4186732,37.5143055 52.9919233,40.4627687 55.0307978,42.2798453 C56.9264874,43.8868811 59.517554,44.4113865 61.8923045,43.668809 C64.3407677,42.816741 65.9845464,40.5196571 65.9950323,37.9354881 C66.1043458,35.0693816 64.4010035,32.441819 61.7340633,31.3625503 C60.9198959,31.1421768 60.0797637,31.6174768 59.8524839,32.4270431 C59.6521674,33.2355436 60.1213788,34.0589713 60.9208108,34.3018697 C61.1873878,34.4044925 60.6772899,34.1713051 60.9262052,34.3064217 C61.028545,34.3619803 61.132812,34.412174 61.2333061,34.471492 C61.318749,34.5219194 61.4005413,34.577102 61.483649,34.6311466 C61.7691725,34.816843 61.3442626,34.494831 61.5267631,34.6617505 C61.685045,34.8065198 61.8418586,34.9477632 61.9857013,35.1075093 C62.0401037,35.1679043 62.2532164,35.3358196 62.0876026,35.2184537 C61.9608913,35.1286537 62.0387373,35.1497675 62.0875516,35.2218778 C62.1246085,35.2766032 62.1637966,35.3298349 62.2003945,35.3848956 C62.3196467,35.5647136 62.4280518,35.7514447 62.5250348,35.9440983 C62.5475197,35.9886731 62.5680672,36.0342945 62.5909295,36.078656 C62.633758,36.1617703 62.6958492,36.1835548 62.5951512,36.0794384 C62.4989399,35.9799654 62.5601949,35.9867629 62.5946209,36.0824866 C62.6172486,36.1454116 62.6419464,36.2075441 62.6639623,36.2706927 C62.7356891,36.4762754 62.7958949,36.685671 62.844301,36.8979109 C62.866735,36.9960122 62.8847536,37.0946926 62.9040162,37.1934035 C62.9723379,37.5434183 62.8940943,36.9758128 62.9105934,37.235804 C62.9243801,37.4528766 62.9404408,37.6676325 62.9366475,37.8855687 C62.9349139,37.9852991 62.9305631,38.0849041 62.9235949,38.1843839 C62.9200769,38.2340086 62.9145296,38.2835012 62.9112461,38.3331259 C62.8953893,38.5722878 62.8948692,38.2457442 62.928459,38.2233907 C62.8585437,38.4264263 62.8121675,38.6367648 62.7902351,38.850304 C62.762835,38.9450625 62.7302955,39.0377481 62.6998057,39.1314701 C62.5933972,39.4584608 62.7997389,38.9532215 62.6863147,39.1767257 C62.5929569,39.3687074 62.4886168,39.5551915 62.3738093,39.7352578 C62.3239752,39.8106805 62.1360498,39.9810038 62.2897226,39.8624694 C62.4564785,39.7338353 62.2022912,39.9553481 62.148052,40.0123494 C62.0783842,40.0855672 62.0060754,40.1562415 61.9311255,40.2243722 C61.8831442,40.2710451 61.8324912,40.314911 61.7794208,40.3557496 C61.7696926,40.3508827 62.0349745,40.1792181 61.8919986,40.2700749 C61.7102425,40.3855814 61.5381534,40.5091351 61.3466079,40.6096953 C61.3243065,40.6214004 61.0794395,40.7344378 61.0804593,40.7384411 C61.0698949,40.6972904 61.3952591,40.6242961 61.1719185,40.6962032 C61.1250111,40.711302 61.0789908,40.7295404 61.032267,40.7452386 C60.8289216,40.8134425 60.6213787,40.8685257 60.4109271,40.9101463 C60.362745,40.9197075 60.311779,40.9245643 60.2643108,40.9367977 C60.1061919,40.977542 60.4154139,40.9128998 60.4247036,40.9182443 C60.3078264,40.9132279 60.1907947,40.9235516 60.0766198,40.9489499 C59.8595951,40.9613299 59.6420368,40.9613095 59.4250145,40.9488889 C59.3747929,40.9460236 59.3246937,40.9410347 59.2744926,40.9381288 C59.1579378,40.9313821 59.0724133,40.8476988 59.2275138,40.9385352 C59.3471787,41.0086438 59.3372262,40.957495 59.2312052,40.9379865 C59.1816261,40.9288419 59.1318124,40.9211401 59.0822435,40.9118736 C58.8674332,40.8718184 58.6550066,40.8199743 58.445934,40.7565779 C58.3334276,40.7224177 58.2231951,40.6826895 58.1122081,40.6440383 C58.063847,40.6300632 58.0167692,40.6120067 57.9714858,40.5900648 C57.9708127,40.5775164 58.2575395,40.7265836 58.1061611,40.6452983 C57.9150949,40.5426755 57.7175126,40.4566756 57.5309434,40.3445424 C57.4313875,40.2846961 57.3357575,40.2196271 57.2389549,40.1555539 C57.1963746,40.129997 57.1558939,40.101118 57.1178929,40.0691882 C57.1210948,40.0563045 57.3550405,40.2723 57.2322349,40.1556962 C57.0769305,40.0082141 56.9107966,39.8761965 56.7637112,39.7191531 C56.7300602,39.6832352 56.6982346,39.6456305 56.6647059,39.6096313 L56.6322378,39.5726668 C56.5493341,39.4716968 56.5478011,39.4721811 56.6276389,39.5741197 C56.7086969,39.597916 56.7050055,39.6865679 56.6280875,39.5714271 C56.6006773,39.5303984 56.5715437,39.4905584 56.5441946,39.4494991 C56.4199703,39.2731237 56.3140351,39.084639 56.2280182,38.8869434 C56.2354724,38.881162 56.3605214,39.2536725 56.2649017,38.9725572 C56.2468321,38.9194474 56.2265192,38.8672012 56.2088167,38.8139593 C56.1736701,38.7083696 56.1427384,38.6016013 56.1160216,38.4936543 C56.0895801,38.3867336 56.0760075,38.2764294 56.0493416,38.1699455 C56.0043819,37.9904471 56.0755996,38.3115548 56.0674826,38.3035584 C56.0419894,38.2784513 56.0528393,38.1227899 56.0509324,38.0855409 C56.0386957,37.8463892 56.0660448,37.6142585 56.0703072,37.3765496 C56.0736417,37.1923976 56.0550113,37.5200691 56.0511567,37.5104672 C56.0520949,37.4553078 56.0618998,37.4006547 56.0801986,37.3485874 C56.1078841,37.2232149 56.1336526,37.0979745 56.1675484,36.973994 C56.2063592,36.8320359 56.2510436,36.6918186 56.3016016,36.5533422 C56.320487,36.5015228 56.3435124,36.4504654 56.3610823,36.3982193 C56.4254576,36.2068227 56.2336165,36.6293542 56.3393927,36.4567854 C56.4849179,36.2193407 56.5933047,35.9623875 56.7478137,35.7278894 C56.7844219,35.6723003 57.0070384,35.3626641 56.8888929,35.5189961 C56.7712266,35.6747084 57.0098019,35.3795816 57.0549656,35.3294793 C57.2425953,35.1212973 57.4632336,34.9503847 57.6574915,34.7510527 C57.7724759,34.6330568 57.5772288,34.8091514 57.5657161,34.8173612 C57.62588,34.774534 57.6847896,34.730081 57.7456979,34.6882597 C57.8518922,34.6153264 57.9606903,34.5463727 58.072092,34.4813986 C58.1975796,34.4080894 58.3394746,34.3535164 58.4610974,34.2759702 C58.6047769,34.1843514 58.3512116,34.3161861 58.3466738,34.3189397 C58.4122996,34.2864909 58.4809157,34.2604298 58.5515675,34.2411191 C58.6700088,34.1992673 59.1851441,33.977785 59.2932046,34.0470503 C59.2883099,34.0439106 58.9020578,34.07802 59.2142981,34.058034 C59.2880856,34.0533093 59.3615671,34.046146 59.4354769,34.0430978 C59.5849484,34.0369303 59.7339101,34.0406592 59.8832287,34.0483813 C60.7256999,34.0428787 61.4072963,33.3637284 61.4128188,32.5242808 C61.3948257,31.6900824 60.7204317,31.0181087 59.8832287,31.0001802 L59.8831777,31 Z" id="Path" fill="#A8A7A7"></path>
                    <path d="M80.8831777,31 C78.1677275,30.9834226 75.7052944,32.5858579 74.6290406,35.0700266 C73.4186732,37.5143055 73.9919233,40.4627687 76.0307978,42.2798453 C77.9264874,43.8868811 80.517554,44.4113865 82.8923045,43.668809 C85.3407677,42.816741 86.9845464,40.5196571 86.9950323,37.9354881 C87.1043458,35.0693816 85.4010035,32.441819 82.7340633,31.3625503 C81.9198959,31.1421768 81.0797637,31.6174768 80.8524839,32.4270431 C80.6521674,33.2355436 81.1213788,34.0589713 81.9208108,34.3018697 C82.1873878,34.4044925 81.6772899,34.1713051 81.9262052,34.3064217 C82.028545,34.3619803 82.132812,34.412174 82.2333061,34.471492 C82.318749,34.5219194 82.4005413,34.577102 82.483649,34.6311466 C82.7691725,34.816843 82.3442626,34.494831 82.5267631,34.6617505 C82.685045,34.8065198 82.8418586,34.9477632 82.9857013,35.1075093 C83.0401037,35.1679043 83.2532164,35.3358196 83.0876026,35.2184537 C82.9608913,35.1286537 83.0387373,35.1497675 83.0875516,35.2218778 C83.1246085,35.2766032 83.1637966,35.3298349 83.2003945,35.3848956 C83.3196467,35.5647136 83.4280518,35.7514447 83.5250348,35.9440983 C83.5475197,35.9886731 83.5680672,36.0342945 83.5909295,36.078656 C83.633758,36.1617703 83.6958492,36.1835548 83.5951512,36.0794384 C83.4989399,35.9799654 83.5601949,35.9867629 83.5946209,36.0824866 C83.6172486,36.1454116 83.6419464,36.2075441 83.6639623,36.2706927 C83.7356891,36.4762754 83.7958949,36.685671 83.844301,36.8979109 C83.866735,36.9960122 83.8847536,37.0946926 83.9040162,37.1934035 C83.9723379,37.5434183 83.8940943,36.9758128 83.9105934,37.235804 C83.9243801,37.4528766 83.9404408,37.6676325 83.9366475,37.8855687 C83.9349139,37.9852991 83.9305631,38.0849041 83.9235949,38.1843839 C83.9200769,38.2340086 83.9145296,38.2835012 83.9112461,38.3331259 C83.8953893,38.5722878 83.8948692,38.2457442 83.928459,38.2233907 C83.8585437,38.4264263 83.8121675,38.6367648 83.7902351,38.850304 C83.762835,38.9450625 83.7302955,39.0377481 83.6998057,39.1314701 C83.5933972,39.4584608 83.7997389,38.9532215 83.6863147,39.1767257 C83.5929569,39.3687074 83.4886168,39.5551915 83.3738093,39.7352578 C83.3239752,39.8106805 83.1360498,39.9810038 83.2897226,39.8624694 C83.4564785,39.7338353 83.2022912,39.9553481 83.148052,40.0123494 C83.0783842,40.0855672 83.0060754,40.1562415 82.9311255,40.2243722 C82.8831442,40.2710451 82.8324912,40.314911 82.7794208,40.3557496 C82.7696926,40.3508827 83.0349745,40.1792181 82.8919986,40.2700749 C82.7102425,40.3855814 82.5381534,40.5091351 82.3466079,40.6096953 C82.3243065,40.6214004 82.0794395,40.7344378 82.0804593,40.7384411 C82.0698949,40.6972904 82.3952591,40.6242961 82.1719185,40.6962032 C82.1250111,40.711302 82.0789908,40.7295404 82.032267,40.7452386 C81.8289216,40.8134425 81.6213787,40.8685257 81.4109271,40.9101463 C81.362745,40.9197075 81.311779,40.9245643 81.2643108,40.9367977 C81.1061919,40.977542 81.4154139,40.9128998 81.4247036,40.9182443 C81.3078264,40.9132279 81.1907947,40.9235516 81.0766198,40.9489499 C80.8595951,40.9613299 80.6420368,40.9613095 80.4250145,40.9488889 C80.3747929,40.9460236 80.3246937,40.9410347 80.2744926,40.9381288 C80.1579378,40.9313821 80.0724133,40.8476988 80.2275138,40.9385352 C80.3471787,41.0086438 80.3372262,40.957495 80.2312052,40.9379865 C80.1816261,40.9288419 80.1318124,40.9211401 80.0822435,40.9118736 C79.8674332,40.8718184 79.6550066,40.8199743 79.445934,40.7565779 C79.3334276,40.7224177 79.2231951,40.6826895 79.1122081,40.6440383 C79.063847,40.6300632 79.0167692,40.6120067 78.9714858,40.5900648 C78.9708127,40.5775164 79.2575395,40.7265836 79.1061611,40.6452983 C78.9150949,40.5426755 78.7175126,40.4566756 78.5309434,40.3445424 C78.4313875,40.2846961 78.3357575,40.2196271 78.2389549,40.1555539 C78.1963746,40.129997 78.1558939,40.101118 78.1178929,40.0691882 C78.1210948,40.0563045 78.3550405,40.2723 78.2322349,40.1556962 C78.0769305,40.0082141 77.9107966,39.8761965 77.7637112,39.7191531 C77.7300602,39.6832352 77.6982346,39.6456305 77.6647059,39.6096313 L77.6322378,39.5726668 C77.5493341,39.4716968 77.5478011,39.4721811 77.6276389,39.5741197 C77.7086969,39.597916 77.7050055,39.6865679 77.6280875,39.5714271 C77.6006773,39.5303984 77.5715437,39.4905584 77.5441946,39.4494991 C77.4199703,39.2731237 77.3140351,39.084639 77.2280182,38.8869434 C77.2354724,38.881162 77.3605214,39.2536725 77.2649017,38.9725572 C77.2468321,38.9194474 77.2265192,38.8672012 77.2088167,38.8139593 C77.1736701,38.7083696 77.1427384,38.6016013 77.1160216,38.4936543 C77.0895801,38.3867336 77.0760075,38.2764294 77.0493416,38.1699455 C77.0043819,37.9904471 77.0755996,38.3115548 77.0674826,38.3035584 C77.0419894,38.2784513 77.0528393,38.1227899 77.0509324,38.0855409 C77.0386957,37.8463892 77.0660448,37.6142585 77.0703072,37.3765496 C77.0736417,37.1923976 77.0550113,37.5200691 77.0511567,37.5104672 C77.0520949,37.4553078 77.0618998,37.4006547 77.0801986,37.3485874 C77.1078841,37.2232149 77.1336526,37.0979745 77.1675484,36.973994 C77.2063592,36.8320359 77.2510436,36.6918186 77.3016016,36.5533422 C77.320487,36.5015228 77.3435124,36.4504654 77.3610823,36.3982193 C77.4254576,36.2068227 77.2336165,36.6293542 77.3393927,36.4567854 C77.4849179,36.2193407 77.5933047,35.9623875 77.7478137,35.7278894 C77.7844219,35.6723003 78.0070384,35.3626641 77.8888929,35.5189961 C77.7712266,35.6747084 78.0098019,35.3795816 78.0549656,35.3294793 C78.2425953,35.1212973 78.4632336,34.9503847 78.6574915,34.7510527 C78.7724759,34.6330568 78.5772288,34.8091514 78.5657161,34.8173612 C78.62588,34.774534 78.6847896,34.730081 78.7456979,34.6882597 C78.8518922,34.6153264 78.9606903,34.5463727 79.072092,34.4813986 C79.1975796,34.4080894 79.3394746,34.3535164 79.4610974,34.2759702 C79.6047769,34.1843514 79.3512116,34.3161861 79.3466738,34.3189397 C79.4122996,34.2864909 79.4809157,34.2604298 79.5515675,34.2411191 C79.6700088,34.1992673 80.1851441,33.977785 80.2932046,34.0470503 C80.2883099,34.0439106 79.9020578,34.07802 80.2142981,34.058034 C80.2880856,34.0533093 80.3615671,34.046146 80.4354769,34.0430978 C80.5849484,34.0369303 80.7339101,34.0406592 80.8832287,34.0483813 C81.7256999,34.0428787 82.4072963,33.3637284 82.4128188,32.5242808 C82.3948257,31.6900824 81.7204317,31.0181087 80.8832287,31.0001802 L80.8831777,31 Z" id="Path" fill="#A8A7A7"></path>
                    <path d="M381.626807,359 L17.3732026,359 C7.78280176,358.989492 0.0107930021,351.22629 0,341.646484 L0,17.3540106 C0.0107543703,7.77410839 7.78270587,0.0107424901 17.3732026,0 L381.626807,0 C391.217302,0.0107425005 398.989251,7.77410999 399,17.3540106 L399,341.646484 C398.989212,351.226288 391.217207,358.989492 381.626807,359 Z M17.3732026,1.97796143 C8.87586171,1.98761901 1.98981715,8.86605663 1.98014888,17.3540106 L1.98014888,341.646484 C1.99004089,350.134265 8.87603439,357.01243 17.3732026,357.022039 L381.626807,357.022039 C390.123972,357.012425 397.009959,350.134261 397.019851,341.646484 L397.019851,17.3540106 C397.010183,8.86606049 390.124144,1.98762446 381.626807,1.97796143 L17.3732026,1.97796143 Z" id="Shape" fill="#848282"></path>
                    <path d="M16.433265,221 L144.413625,220.607045 L271.741022,220.216086 L343.566735,219.995544 C344.366209,219.967584 345,219.305268 345,218.497772 C345,217.690276 344.366209,217.02796 343.566735,217 L215.586375,217.392965 L88.2589775,217.783914 L16.433265,218.004456 C15.6337914,218.032416 15,218.694732 15,219.502228 C15,220.309724 15.6337914,220.97204 16.433265,221 L16.433265,221 Z" id="Path" fill="#A8A7A7"></path>
                    <path d="M81.1577329,218.555328 L81.9997205,171.444675 C82.0341473,169.518631 78.8767044,169.518252 78.8422671,171.444675 L78.0002795,218.555328 C77.9658527,220.481373 81.1232956,220.481742 81.1577329,218.555328 Z" id="Path" fill="#E6E6E6"></path>
                    <path d="M142.723938,218.575133 L144.493523,160.124929 L144.9991,143.424867 C145.056656,141.523927 142.333545,141.526162 142.276062,143.424867 L140.506477,201.875071 L140.0009,218.575133 C139.943344,220.476073 142.666455,220.473838 142.723938,218.575133 Z" id="Path" fill="#A8A7A7"></path>
                    <path d="M203.209812,115.431236 C202.117149,136.268818 200.095302,197.731212 199.002639,218.568764 C198.902408,220.480114 201.690282,220.47404 201.790188,218.568764 C202.882851,197.731182 204.904698,136.268798 205.997361,115.431236 C206.097592,113.519886 203.309727,113.52596 203.209812,115.431236 Z" id="Path" fill="#A8A7A7"></path>
                    <path d="M263.393941,197.64524 L263.000328,217.572036 C262.962715,219.475904 266.173791,219.476072 266.211403,217.572036 C266.676281,194.037086 267.868468,194.804251 267.999672,188.161962 C268.037274,186.258094 264.826199,186.257927 264.788597,188.161962 C264.788597,188.161962 263.85882,174.11034 263.393941,197.64524 Z" id="Path" fill="#A8A7A7"></path>
                    <path d="M324,145.432795 L324.296191,201.509893 L324.381003,217.567205 C324.405448,218.366417 324.98451,219 325.690501,219 C326.396493,219 326.975555,218.366417 327,217.567205 L326.703809,161.490107 L326.618997,145.432795 C326.594552,144.633583 326.01549,144 325.309499,144 C324.603507,144 324.024445,144.633583 324,145.432795 L324,145.432795 Z" id="Path" fill="#A8A7A7"></path>
                    <path d="M16.5774962,219.192844 C14.1195505,212.412447 19.6602943,205.891058 25.3535196,202.960702 C32.1743555,199.449963 40.0208804,198.654212 46.9140225,195.269782 C57.1905903,190.224177 64.6757128,181.168798 71.3360893,172.104664 C78.191361,162.775294 84.4638278,152.76256 93.1746222,145.01099 C97.7648023,140.835314 103.186107,137.685892 109.079721,135.771174 C116.505593,133.44483 124.381119,133.285245 132.054248,134.222776 C147.909776,136.160067 162.60795,142.733979 177.906577,146.912193 C192.330265,150.851461 208.222357,153.066678 222.379793,146.940899 C229.572702,143.828591 235.454676,138.608765 241.772367,134.091757 C247.88652,129.674299 254.722922,126.363854 261.97284,124.309921 C276.184588,120.342822 291.704934,121.402121 304.936069,128.108532 C317.098461,134.193912 326.728383,144.396679 332.126142,156.916033 C338.398777,171.957936 337.582118,188.767212 335.533096,204.599779 C335.003444,208.692243 334.373118,212.771025 333.735933,216.84775 C333.44261,218.724421 336.303521,219.532791 336.599318,217.640183 C339.151069,201.314234 341.694624,184.471215 338.519842,168.042525 C335.774915,153.697275 327.916883,140.847604 316.416196,131.898032 C304.867009,122.924059 290.5099,118.375636 275.921425,119.06903 C268.276596,119.425164 260.750652,121.105389 253.676087,124.035473 C246.332281,127.084785 240.113601,131.604407 233.796968,136.360113 C227.302455,141.249719 220.607643,145.294181 212.544506,146.888873 C204.723449,148.435691 196.587284,147.855854 188.800485,146.395391 C172.733402,143.381899 157.757248,136.473952 141.826523,132.934477 C127.066723,129.655152 111.139591,129.327486 97.9227,137.697784 C87.7558536,144.136445 80.5718535,154.132197 73.6773356,163.784246 C66.8432559,173.351668 59.9227651,183.582421 49.9295328,190.118029 C43.8335109,194.104852 36.9808821,195.575917 30.1615309,197.817952 C23.3245709,200.065769 16.7610085,203.857882 13.9732949,210.889486 C12.7718238,213.785463 12.6795136,217.025134 13.714121,219.985316 C14.3624518,221.773783 17.2331616,221.001571 16.5774962,219.192883 L16.5774962,219.192844 Z" id="Path" fill="#A8A7A7"></path>
                    <polygon id="Path" fill="#E6E6E6" points="80.5 165.499 80.496 165.501 80.504 165.499"></polygon>
                    <path d="M85.1495082,162.910034 C83.7222597,160.47579 80.6779977,159.390664 77.949142,160.343468 C76.6219843,160.809996 75.5472383,161.773765 74.9694862,163.015449 C74.9122373,163.146065 74.8787731,163.283421 74.8320509,163.417253 C74.7672558,163.518155 74.6893722,163.609265 74.6313257,163.714814 C73.3527869,166.168535 74.0647345,169.151043 76.3275457,170.820659 C78.590357,172.490275 81.7657171,172.376018 83.8928628,170.548441 C86.1259114,168.604348 86.6491756,165.423733 85.1495082,162.910034 L85.1495082,162.910034 Z M79.9206962,165.57827 L79.9600617,165.560922 C79.9504348,165.561778 79.9407568,165.559927 79.9321998,165.555594 L79.9333562,165.555411 L79.9641986,165.559108 L79.9699803,165.556583 L79.9521567,165.552598 C79.9676078,165.55208 79.9693723,165.554125 79.970409,165.556439 C80.1483063,165.477983 80.0278473,165.515713 79.9247135,165.546483 L79.9178353,165.544956 C79.8534246,165.513469 79.7842112,165.492079 79.7128038,165.481592 C79.7062246,165.478021 79.6983794,165.475438 79.6928668,165.471627 C79.6356079,165.43237 79.3462431,165.214677 79.6146841,165.442921 C79.5562688,165.393228 79.4985315,165.344419 79.4435853,165.2908 C79.4111963,165.258771 79.381839,165.224023 79.3558627,165.186969 C79.3206408,165.128783 79.2864888,165.070085 79.2534068,165.010875 L79.2484225,164.978944 C79.2440464,164.952398 79.2407568,164.941386 79.2371083,164.925449 C79.2388129,164.908974 79.2415542,164.89128 79.2442258,164.874115 C79.2642699,164.822325 79.2770395,164.768188 79.2821957,164.713141 L79.2937591,164.699086 C79.3367133,164.641367 79.3743143,164.574038 79.4153147,164.514035 C79.1986001,164.831046 79.5000467,164.47905 79.5225854,164.434455 C79.5264133,164.426842 79.5197244,164.430999 79.5213692,164.425728 C79.5301315,164.421034 79.52745,164.424259 79.5380365,164.418288 C79.6052041,164.380193 79.6688528,164.33771 79.737057,164.301324 C79.8182801,164.257958 80.1382481,164.170477 79.8064177,164.261827 C79.8817992,164.24109 79.9541404,164.21489 80.0303195,164.195727 C80.0441258,164.192271 80.1558325,164.177217 80.2160122,164.166781 C80.2688451,164.165495 80.3201129,164.163968 80.3255258,164.164024 C80.3503473,164.164323 80.3751688,164.167252 80.4000002,164.168308 C80.3449344,164.175402 80.5889726,164.226199 80.6614433,164.236923 C80.6719003,164.244834 80.6772533,164.249932 80.6914983,164.259964 C80.7527645,164.30309 80.8272988,164.341416 80.8919742,164.381671 C80.6027889,164.20166 80.8957423,164.395967 80.9509876,164.449173 C80.9840231,164.480989 81.0144468,164.514918 81.0455385,164.548376 C81.0740322,164.580234 81.0997923,164.614268 81.1225649,164.650142 C81.169965,164.733821 81.2204054,164.818498 81.2702278,164.900823 L81.2840441,164.921945 C81.2837565,164.924653 81.2836134,164.927373 81.2836155,164.930096 C81.3095856,165.063618 81.3479076,165.194635 81.3981233,165.321579 C81.4005902,165.33232 81.4024801,165.343177 81.4037854,165.354106 C81.4084008,165.427234 81.4147507,165.500131 81.4149102,165.573672 L81.4142423,165.588553 C80.9470843,165.353971 80.3912785,165.350145 79.9206862,165.57827 L79.9206962,165.57827 Z" id="Shape" fill="#A8A7A7"></path>
                    <path d="M80.499424,165.499265 C80.503764,165.500605 80.499614,165.500365 80.498634,165.500735 L80.499424,165.499265 Z" id="Path" fill="#E6E6E6"></path>
                    <path d="M80.49945,165.49982 L80.50055,165.50018 L80.49945,165.49982 Z" id="Path" fill="#E6E6E6"></path>
                    <path d="M80.50226,165.499541 L80.49774,165.500271 C80.50347,165.500871 80.5014,165.499871 80.50226,165.499541 Z" id="Path" fill="#E6E6E6"></path>
                    <polygon id="Path" fill="#E6E6E6" points="80.499 165.4995 80.499 165.4995 80.501 165.5005"></polygon>
                    <polygon id="Path" fill="#E6E6E6" points="143.5 137.499 143.496 137.501 143.504 137.499"></polygon>
                    <path d="M148.149508,134.910034 C146.72226,132.47579 143.677998,131.390664 140.949142,132.343468 C139.621984,132.809996 138.547238,133.773765 137.969486,135.015449 C137.912237,135.146065 137.878773,135.283421 137.832051,135.417253 C137.767256,135.518155 137.689372,135.609265 137.631326,135.714814 C136.352787,138.168535 137.064735,141.151043 139.327546,142.820659 C141.590357,144.490275 144.765717,144.376018 146.892863,142.548441 C149.125911,140.604348 149.649176,137.423733 148.149508,134.910034 Z M142.920696,137.57827 L142.960062,137.560922 C142.950418,137.561787 142.940722,137.559936 142.93215,137.555594 L142.933306,137.555411 L142.964149,137.559108 L142.96993,137.556583 L142.952107,137.552598 C142.967558,137.55208 142.969322,137.554125 142.970359,137.556439 C143.148256,137.477983 143.027797,137.515713 142.924664,137.546483 L142.917785,137.544956 C142.853375,137.513469 142.784161,137.492079 142.712754,137.481592 C142.706175,137.478021 142.69833,137.475438 142.692817,137.471627 C142.635558,137.43237 142.346193,137.214677 142.614634,137.442921 C142.556219,137.393228 142.498482,137.344419 142.443535,137.2908 C142.411146,137.258771 142.381789,137.224023 142.355813,137.186969 C142.320591,137.128783 142.286439,137.070085 142.253357,137.010875 L142.248373,136.978944 C142.243997,136.952398 142.240707,136.941386 142.237058,136.925449 C142.238763,136.908974 142.241504,136.89128 142.244176,136.874115 C142.26422,136.822325 142.27699,136.768188 142.282146,136.713141 L142.293709,136.699086 C142.336663,136.641367 142.374265,136.574038 142.415265,136.514035 C142.19855,136.831046 142.499997,136.47905 142.522536,136.434455 C142.526363,136.426842 142.519675,136.430999 142.521319,136.425728 C142.530082,136.421034 142.5274,136.424259 142.537987,136.418288 C142.605154,136.380193 142.668803,136.33771 142.737007,136.301324 C142.81823,136.257958 143.138198,136.170477 142.806368,136.261827 C142.881749,136.24109 142.954091,136.21489 143.03027,136.195727 C143.044076,136.192271 143.155783,136.177217 143.215962,136.166781 C143.268795,136.165495 143.320063,136.163968 143.325476,136.164024 C143.350297,136.164323 143.375119,136.167252 143.39995,136.168308 C143.344885,136.175402 143.588923,136.226199 143.661393,136.236923 C143.67185,136.244834 143.677203,136.249932 143.691448,136.259964 C143.752715,136.30309 143.827249,136.341416 143.891924,136.381671 C143.602739,136.20166 143.895692,136.395967 143.950938,136.449173 C143.983973,136.480989 144.014397,136.514918 144.045489,136.548376 C144.073982,136.580234 144.099742,136.614268 144.122515,136.650142 C144.169915,136.733821 144.220356,136.818498 144.270178,136.900823 L144.283994,136.921945 C144.283707,136.924653 144.283564,136.927373 144.283566,136.930096 C144.309536,137.063618 144.347858,137.194635 144.398073,137.321579 C144.40054,137.33232 144.40243,137.343177 144.403736,137.354106 C144.408351,137.427234 144.414701,137.500131 144.41486,137.573672 L144.414192,137.588553 C143.947048,137.353988 143.391265,137.350161 142.920686,137.57827 L142.920696,137.57827 Z" id="Shape" fill="#A8A7A7"></path>
                    <path d="M143.50226,137.499541 L143.49774,137.500271 C143.50347,137.500871 143.5014,137.499871 143.50226,137.499541 Z" id="Path" fill="#E6E6E6"></path>
                    <polygon id="Path" fill="#E6E6E6" points="143.499 137.4995 143.499 137.4995 143.501 137.5005"></polygon>
                    <path d="M143.499424,137.499265 C143.503764,137.500605 143.499614,137.500365 143.498634,137.500735 L143.499424,137.499265 Z" id="Path" fill="#E6E6E6"></path>
                    <path d="M143.49945,137.49982 L143.50055,137.50018 L143.49945,137.49982 Z" id="Path" fill="#A8A7A7"></path>
                    <polygon id="Path" fill="#E6E6E6" points="204.499 151.4995 204.499 151.4995 204.501 151.5005"></polygon>
                    <path d="M210.149508,106.910034 C208.72226,104.47579 205.677998,103.390664 202.949142,104.343468 C201.621984,104.809996 200.547238,105.773765 199.969486,107.015449 C199.912237,107.146065 199.878773,107.283421 199.832051,107.417253 C199.767256,107.518155 199.689372,107.609265 199.631326,107.714814 C198.352787,110.168535 199.064735,113.151043 201.327546,114.820659 C203.590357,116.490275 206.765717,116.376018 208.892863,114.548441 C211.125911,112.604348 211.649176,109.423733 210.149508,106.910034 L210.149508,106.910034 Z M204.920696,109.57827 L204.960062,109.560922 C204.950418,109.561787 204.940722,109.559936 204.93215,109.555594 L204.933306,109.555411 L204.964149,109.559108 L204.96993,109.556583 L204.952107,109.552598 C204.967558,109.55208 204.969322,109.554125 204.970359,109.556439 C205.148256,109.477983 205.027797,109.515713 204.924664,109.546483 L204.917785,109.544956 C204.853375,109.513469 204.784161,109.492079 204.712754,109.481592 C204.706175,109.478021 204.69833,109.475438 204.692817,109.471627 C204.635558,109.43237 204.346193,109.214677 204.614634,109.442921 C204.556219,109.393228 204.498482,109.344419 204.443535,109.2908 C204.411146,109.258771 204.381789,109.224023 204.355813,109.186969 C204.320591,109.128783 204.286439,109.070085 204.253357,109.010875 L204.248373,108.978944 C204.243997,108.952398 204.240707,108.941386 204.237058,108.925449 C204.238763,108.908974 204.241504,108.89128 204.244176,108.874115 C204.26422,108.822325 204.27699,108.768188 204.282146,108.713141 L204.293709,108.699086 C204.336663,108.641367 204.374265,108.574038 204.415265,108.514035 C204.19855,108.831046 204.499997,108.47905 204.522536,108.434455 C204.526363,108.426842 204.519675,108.430999 204.521319,108.425728 C204.530082,108.421034 204.5274,108.424259 204.537987,108.418288 C204.605154,108.380193 204.668803,108.33771 204.737007,108.301324 C204.81823,108.257958 205.138198,108.170477 204.806368,108.261827 C204.881749,108.24109 204.954091,108.21489 205.03027,108.195727 C205.044076,108.192271 205.155783,108.177217 205.215962,108.166781 C205.268795,108.165495 205.320063,108.163968 205.325476,108.164024 C205.350297,108.164323 205.375119,108.167252 205.39995,108.168308 C205.344885,108.175402 205.588923,108.226199 205.661393,108.236923 C205.67185,108.244834 205.677203,108.249932 205.691448,108.259964 C205.752715,108.30309 205.827249,108.341416 205.891924,108.381671 C205.602739,108.20166 205.895692,108.395967 205.950938,108.449173 C205.983973,108.480989 206.014397,108.514918 206.045489,108.548376 C206.073982,108.580234 206.099742,108.614268 206.122515,108.650142 C206.169915,108.733821 206.220356,108.818498 206.270178,108.900823 L206.283994,108.921945 C206.283707,108.924653 206.283564,108.927373 206.283566,108.930096 C206.309536,109.063618 206.347858,109.194635 206.398073,109.321579 C206.40054,109.33232 206.40243,109.343177 206.403736,109.354106 C206.408351,109.427234 206.414701,109.500131 206.41486,109.573672 L206.414192,109.588553 C205.947048,109.353988 205.391265,109.350161 204.920686,109.57827 L204.920696,109.57827 Z" id="Shape" fill="#A8A7A7"></path>
                    <polygon id="Path" fill="#E6E6E6" points="204.5 151.499 204.496 151.501 204.504 151.499"></polygon>
                    <path d="M204.49945,151.49982 L204.50055,151.50018 L204.49945,151.49982 Z" id="Path" fill="#E6E6E6"></path>
                    <path d="M204.50226,151.499541 L204.49774,151.500271 C204.50347,151.500871 204.5014,151.499871 204.50226,151.499541 Z" id="Path" fill="#E6E6E6"></path>
                    <path d="M204.499424,151.499265 C204.503764,151.500605 204.499614,151.500365 204.498634,151.500735 L204.499424,151.499265 Z" id="Path" fill="#E6E6E6"></path>
                    <path d="M272.149508,183.910034 C270.72226,181.47579 267.677998,180.390664 264.949142,181.343468 C263.621984,181.809996 262.547238,182.773765 261.969486,184.015449 C261.912237,184.146065 261.878773,184.283421 261.832051,184.417253 C261.767256,184.518155 261.689372,184.609265 261.631326,184.714814 C260.352787,187.168535 261.064735,190.151043 263.327546,191.820659 C265.590357,193.490275 268.765717,193.376018 270.892863,191.548441 C273.125911,189.604348 273.649176,186.423733 272.149508,183.910034 L272.149508,183.910034 Z M266.920696,186.57827 L266.960062,186.560922 C266.950418,186.561787 266.940722,186.559936 266.93215,186.555594 L266.933306,186.555411 L266.964149,186.559108 L266.96993,186.556583 L266.952107,186.552598 C266.967558,186.55208 266.969322,186.554125 266.970359,186.556439 C267.148256,186.477983 267.027797,186.515713 266.924664,186.546483 L266.917785,186.544956 C266.853375,186.513469 266.784161,186.492079 266.712754,186.481592 C266.706175,186.478021 266.69833,186.475438 266.692817,186.471627 C266.635558,186.43237 266.346193,186.214677 266.614634,186.442921 C266.556219,186.393228 266.498482,186.344419 266.443535,186.2908 C266.411146,186.258771 266.381789,186.224023 266.355813,186.186969 C266.320591,186.128783 266.286439,186.070085 266.253357,186.010875 L266.248373,185.978944 C266.243997,185.952398 266.240707,185.941386 266.237058,185.925449 C266.238763,185.908974 266.241504,185.89128 266.244176,185.874115 C266.26422,185.822325 266.27699,185.768188 266.282146,185.713141 L266.293709,185.699086 C266.336663,185.641367 266.374265,185.574038 266.415265,185.514035 C266.19855,185.831046 266.499997,185.47905 266.522536,185.434455 C266.526363,185.426842 266.519675,185.430999 266.521319,185.425728 C266.530082,185.421034 266.5274,185.424259 266.537987,185.418288 C266.605154,185.380193 266.668803,185.33771 266.737007,185.301324 C266.81823,185.257958 267.138198,185.170477 266.806368,185.261827 C266.881749,185.24109 266.954091,185.21489 267.03027,185.195727 C267.044076,185.192271 267.155783,185.177217 267.215962,185.166781 C267.268795,185.165495 267.320063,185.163968 267.325476,185.164024 C267.350297,185.164323 267.375119,185.167252 267.39995,185.168308 C267.344885,185.175402 267.588923,185.226199 267.661393,185.236923 C267.67185,185.244834 267.677203,185.249932 267.691448,185.259964 C267.752715,185.30309 267.827249,185.341416 267.891924,185.381671 C267.602739,185.20166 267.895692,185.395967 267.950938,185.449173 C267.983973,185.480989 268.014397,185.514918 268.045489,185.548376 C268.073982,185.580234 268.099742,185.614268 268.122515,185.650142 C268.169915,185.733821 268.220356,185.818498 268.270178,185.900823 L268.283994,185.921945 C268.283707,185.924653 268.283564,185.927373 268.283566,185.930096 C268.309536,186.063618 268.347858,186.194635 268.398073,186.321579 C268.40054,186.33232 268.40243,186.343177 268.403736,186.354106 C268.408351,186.427234 268.414701,186.500131 268.41486,186.573672 L268.414192,186.588553 C267.947048,186.353988 267.391265,186.350161 266.920686,186.57827 L266.920696,186.57827 Z" id="Shape" fill="#A8A7A7"></path>
                    <polygon id="Path" fill="#E6E6E6" points="267.5 120.499 267.496 120.501 267.504 120.499"></polygon>
                    <path d="M267.49945,120.49982 L267.50055,120.50018 L267.49945,120.49982 Z" id="Path" fill="#E6E6E6"></path>
                    <path d="M267.50226,120.499541 L267.49774,120.500271 C267.50347,120.500871 267.5014,120.499871 267.50226,120.499541 Z" id="Path" fill="#E6E6E6"></path>
                    <path d="M267.499424,120.499265 C267.503764,120.500605 267.499614,120.500365 267.498634,120.500735 L267.499424,120.499265 Z" id="Path" fill="#E6E6E6"></path>
                    <polygon id="Path" fill="#E6E6E6" points="267.499 120.4995 267.499 120.4995 267.501 120.5005"></polygon>
                    <path d="M325.49945,140.49982 L325.50055,140.50018 L325.49945,140.49982 Z" id="Path" fill="#E6E6E6"></path>
                    <path d="M331.149508,137.910034 C329.72226,135.47579 326.677998,134.390664 323.949142,135.343468 C322.621984,135.809996 321.547238,136.773765 320.969486,138.015449 C320.912237,138.146065 320.878773,138.283421 320.832051,138.417253 C320.767256,138.518155 320.689372,138.609265 320.631326,138.714814 C319.352787,141.168535 320.064735,144.151043 322.327546,145.820659 C324.590357,147.490275 327.765717,147.376018 329.892863,145.548441 C332.125911,143.604348 332.649176,140.423733 331.149508,137.910034 L331.149508,137.910034 Z M325.920696,140.57827 L325.960062,140.560922 C325.950418,140.561787 325.940722,140.559936 325.93215,140.555594 L325.933306,140.555411 L325.964149,140.559108 L325.96993,140.556583 L325.952107,140.552598 C325.967558,140.55208 325.969322,140.554125 325.970359,140.556439 C326.148256,140.477983 326.027797,140.515713 325.924664,140.546483 L325.917785,140.544956 C325.853375,140.513469 325.784161,140.492079 325.712754,140.481592 C325.706175,140.478021 325.69833,140.475438 325.692817,140.471627 C325.635558,140.43237 325.346193,140.214677 325.614634,140.442921 C325.556219,140.393228 325.498482,140.344419 325.443535,140.2908 C325.411146,140.258771 325.381789,140.224023 325.355813,140.186969 C325.320591,140.128783 325.286439,140.070085 325.253357,140.010875 L325.248373,139.978944 C325.243997,139.952398 325.240707,139.941386 325.237058,139.925449 C325.238763,139.908974 325.241504,139.89128 325.244176,139.874115 C325.26422,139.822325 325.27699,139.768188 325.282146,139.713141 L325.293709,139.699086 C325.336663,139.641367 325.374265,139.574038 325.415265,139.514035 C325.19855,139.831046 325.499997,139.47905 325.522536,139.434455 C325.526363,139.426842 325.519675,139.430999 325.521319,139.425728 C325.530082,139.421034 325.5274,139.424259 325.537987,139.418288 C325.605154,139.380193 325.668803,139.33771 325.737007,139.301324 C325.81823,139.257958 326.138198,139.170477 325.806368,139.261827 C325.881749,139.24109 325.954091,139.21489 326.03027,139.195727 C326.044076,139.192271 326.155783,139.177217 326.215962,139.166781 C326.268795,139.165495 326.320063,139.163968 326.325476,139.164024 C326.350297,139.164323 326.375119,139.167252 326.39995,139.168308 C326.344885,139.175402 326.588923,139.226199 326.661393,139.236923 C326.67185,139.244834 326.677203,139.249932 326.691448,139.259964 C326.752715,139.30309 326.827249,139.341416 326.891924,139.381671 C326.602739,139.20166 326.895692,139.395967 326.950938,139.449173 C326.983973,139.480989 327.014397,139.514918 327.045489,139.548376 C327.073982,139.580234 327.099742,139.614268 327.122515,139.650142 C327.169915,139.733821 327.220356,139.818498 327.270178,139.900823 L327.283994,139.921945 C327.283707,139.924653 327.283564,139.927373 327.283566,139.930096 C327.309536,140.063618 327.347858,140.194635 327.398073,140.321579 C327.40054,140.33232 327.40243,140.343177 327.403736,140.354106 C327.408351,140.427234 327.414701,140.500131 327.41486,140.573672 L327.414192,140.588553 C326.947048,140.353988 326.391265,140.350161 325.920686,140.57827 L325.920696,140.57827 Z" id="Shape" fill="#A8A7A7"></path>
                    <polygon id="Path" fill="#E6E6E6" points="325.5 140.499 325.496 140.501 325.504 140.499"></polygon>
                    <polygon id="Path" fill="#E6E6E6" points="325.499 140.4995 325.499 140.4995 325.501 140.5005"></polygon>
                    <path d="M325.499424,140.499265 C325.503764,140.500605 325.499614,140.500365 325.498634,140.500735 L325.499424,140.499265 Z" id="Path" fill="#E6E6E6"></path>
                    <path d="M325.50226,140.499541 L325.49774,140.500271 C325.50347,140.500871 325.5014,140.499871 325.50226,140.499541 Z" id="Path" fill="#A8A7A7"></path>
                    <path d="M309.200376,186.353298 L263.073653,188.99835 C262.533685,189.029385 262.064613,188.619001 262.006054,188.064326 C261.947496,187.509651 262.319936,187.004704 262.853718,186.915077 L310,179 L309.200376,186.353298 Z" id="Path" fill="#3F3D56"></path>
                    <path d="M368.005927,288.375434 L385.252635,259 L398,265.095197 C398,265.095197 376.034772,292.869631 375.334977,293.668686 C375.948457,296.432418 374.814005,299.292798 372.483002,300.859586 C370.151999,302.426374 367.107826,302.374665 364.830053,300.72959 C362.552279,299.084516 361.513248,296.187217 362.217963,293.445877 C362.922677,290.704536 365.225001,288.687627 368.005927,288.375434 L368.005927,288.375434 Z" id="Path" fill="#FFB6B6"></path>
                    <path d="M375.190545,221 L403.490458,235.727525 C407.066571,238.297237 409.392163,242.250572 409.896865,246.617948 C410.401567,250.985323 409.038695,255.362751 406.142501,258.676637 L386.632845,281 L378.133577,269.512079 L384.684511,255.849318 L372,252.51298 L375.190545,221 Z" id="Path" fill="#4299F5"></path>
                    <path d="M295.71079,186.458613 L292.478514,219.976528 L278,220 C278,220 286.30675,185.890303 286.608708,184.879978 C284.837878,182.682294 284.646972,179.651466 286.128778,177.260577 C287.610584,174.869689 290.457818,173.614539 293.28663,174.105174 C296.115441,174.595809 298.339218,176.730485 298.87713,179.471677 C299.415043,182.21287 298.155543,184.992137 295.71079,186.458662 L295.71079,186.458613 Z" id="Path" fill="#FFB6B6"></path>
                    <path d="M323,256 L290.433909,250.002086 C276.720268,248.3459 271.092402,239.284057 273.566819,230.44524 L281.530004,202 L294.031169,208.730905 L293.983107,223.841648 L311.482086,221.438998 L323,256 Z" id="Path" fill="#4299F5"></path>
                    <polygon id="Path" fill="#FFB6B6" points="309.998057 489 301.190163 489 297 454 310 454"></polygon>
                    <path d="M309.999528,499 L282,498.998955 L282,498.647978 C282.000427,492.682283 286.879493,487.846263 292.898195,487.845934 L292.898878,487.845934 L298.013343,484 L307.555822,487.846521 L310,487.846601 L309.999528,499 Z" id="Path" fill="#2F2E41"></path>
                    <polygon id="Path" fill="#FFB6B6" points="374.001943 489 382.809837 489 387 454 374 454"></polygon>
                    <path d="M373.000472,499 L401,498.998955 L401,498.647978 C400.999578,492.682281 396.12051,487.846258 390.101805,487.845934 L390.101132,487.845934 L384.986657,484 L375.444178,487.846521 L373,487.846601 L373.000472,499 Z" id="Path" fill="#2F2E41"></path>
                    <path d="M296.017309,429.445513 C296.150177,427.473239 297.206666,416.565856 297.206666,416.565856 L299.737217,393.434117 L304.197297,332.117102 L308.172796,316 L327.851605,323.635661 L343.81935,316.011221 L362.798465,322.054096 L377.576853,327.573952 C377.576853,327.573952 377.602144,329.936907 377.716013,332.791373 C377.867879,336.528022 378.133535,341.108968 378.76617,342.299901 C379.82267,344.404525 379.556974,355.702578 379.556974,355.702578 C379.556974,355.702578 380.607131,378.689363 381.929356,381.209838 C383.251581,383.730313 383.517247,388.979242 383.118723,390.031529 C382.7202,391.083816 384.440948,418.689393 384.440948,418.689393 C384.440948,418.689393 388.857424,467.54099 386.086469,474.907138 C383.315514,482.273286 372.844705,477.448127 372.844705,477.448127 C372.844705,477.448127 373.350805,475.48215 370.314154,474.555855 C367.277503,473.62956 358.028311,404.360421 358.028311,404.360421 C358.028311,404.360421 356.307562,390.157482 354.725974,386.086931 C353.144386,382.016379 351.689333,370.57967 351.689333,370.57967 C351.689333,370.57967 341.921415,351.65083 341.79488,347.441633 C341.79488,347.441633 340.516934,343.503381 339.308618,347.83861 C338.100303,352.17384 334.538554,362.558213 334.538554,362.558213 L331.065383,375.311808 L326.978526,394.36664 L324.334105,410.409525 C324.334105,410.409525 320.373793,431.70128 319.741158,432.621268 C319.108523,433.541255 319.741158,452.993075 319.741158,452.993075 C319.741158,452.993075 316.679216,469.55893 312.351954,472.451202 C308.024692,475.343474 296.560125,472.497134 296.560125,472.497134 C296.560125,472.497134 295.884441,431.417748 296.017309,429.445513 Z" id="Path" fill="#2F2E41"></path>
                    <path d="M310.571057,263.315591 L308.05114,295.665665 L304.265117,299.548495 C303.575363,300.255892 303.20599,301.211101 303.24207,302.194126 C303.27815,303.17715 303.716572,304.103244 304.456362,304.759116 L304.456362,304.759116 L302.370514,308.30365 L301.63201,319.472222 C301.205508,321.231696 301.593333,323.087993 302.68975,324.535015 C303.786166,325.982037 305.476851,326.868903 307.300858,326.953821 L372.586733,329.993301 C374.400254,330.077733 376.158143,329.360644 377.386131,328.0355 C378.614118,326.710356 379.185682,324.913691 378.946617,323.130234 L373.395196,281.715492 L373.395196,278.61881 L370.909925,272.638414 L372.187272,252.604096 L375.158436,220.805356 L357.887582,216.384549 L348.523389,210 L332.254979,210.256677 L322.383596,218.290615 L309.221802,220.333256 L299.268006,222.293962 L298,225.024738 L300.536002,224.478579 L309.727868,260.0059 L310.571057,263.315591 Z" id="Path" fill="#4299F5"></path>
                    <circle id="Oval" fill="#FFB6B6" cx="340" cy="187" r="19"></circle>
                    <path d="M335.80633,205 L349.611538,204.297275 C351.380437,204.207207 353.311076,204.051321 354.597705,202.836526 C355.28979,202.086284 355.822152,201.20371 356.162577,200.242212 C357.438862,197.283678 358.715187,194.325075 359.958873,191.352735 C361.679156,187.241355 363.368674,182.900303 362.929565,178.466482 C362.826581,176.441665 361.975641,174.526699 360.540995,173.091216 C359.035385,171.66865 356.757828,171.438337 354.996875,172.530579 C354.565837,169.689027 352.85003,167.202851 350.343468,165.787869 C347.845246,164.410508 344.992557,163.806925 342.149206,164.054097 C338.023205,164.319539 334.084322,165.868811 330.886354,168.484088 C329.98693,169.312197 329.02647,170.071741 328.013073,170.756316 C326.982919,171.443741 325.714736,171.677909 324.506316,171.403833 C323.281582,171.077152 322.486256,169.898649 322.643307,168.64325 C320.628702,170.146477 320.088073,172.931096 321.394316,175.076435 C319.936622,175.685854 318.265548,175.488561 316.990588,174.556517 C315.159133,175.463519 314.000534,177.327536 314,179.367934 C313.999467,181.408332 315.157092,183.272952 316.988072,184.180908 C318.819052,185.088863 321.007372,184.883447 322.636583,183.650685 C323.474444,184.821852 323.162422,186.413406 323.053257,187.848302 C322.944093,189.283198 323.329705,191.066468 324.715819,191.463063 C326.589728,191.999212 328.107589,189.481179 330.056804,189.508001 C331.033287,189.587311 331.905509,190.148229 332.381335,191.002886 C332.840653,191.848538 333.155157,192.764835 333.311858,193.713932 L335.806519,204.921908" id="Path" fill="#2F2E41"></path>
                    <path d="M872.367749,376.335369 C872.367749,373.378105 871.376186,370.978064 870.158777,370.972573 L538.273858,370.972573 C537.050946,370.978064 536.064885,373.378105 536.059412,376.335369 L536.059412,498.070596 C536.059538,498.639474 535.628378,499.115471 535.063069,499.170549 C534.172288,499.25618 533.281508,499.33588 532.390727,499.409649 C532.368667,499.409649 532.346647,499.415181 532.324587,499.415181 C531.83987,499.459291 531.355113,499.492389 530.870357,499.531018 L530.864844,499.531018 C530.61549,499.069253 530.369026,498.603464 530.125452,498.133649 C530.043086,497.975375 530,497.799537 530,497.621053 L530,369.378073 C530,368.561489 530.033046,367.739413 530.088082,366.92839 C530.166712,365.814677 530.304622,364.705961 530.501225,363.606969 C531.43217,358.481419 533.536444,355.011013 535.927171,355 L872.499911,355 C872.848811,355.002301 873.193617,355.075478 873.513465,355.215102 C873.983257,355.423325 874.408002,355.721305 874.76392,356.092361 C875.24706,356.595415 875.660252,357.161438 875.992324,357.775121 C877.36383,360.51267 878.153501,363.505391 878.311438,366.564174 C878.311438,366.597272 878.316951,366.63038 878.316951,366.663477 C878.394077,367.55731 878.432605,368.467647 878.427122,369.378013 L878.504218,381.201568 L878.553811,388.252657 L878.702551,410.377024 L878.757627,418.233694 L879,498.896537 L879,498.896537 C879,499.505959 878.506751,500 877.898295,500 L873.469464,500 C872.861004,500 872.367749,499.505963 872.367749,498.896537 L872.367749,376.335369 Z" id="Path" fill="#A8A7A7"></path>
                    <path d="M783.069469,300 L746.925532,300 C745.860824,300.001628 744.998896,300.850755 745.000001,301.896933 L745.000001,358 L785.000001,358 L785.000001,301.896933 C785.000001,301.393755 784.796956,300.911111 784.434854,300.555311 C784.072751,300.19951 783.581559,300 783.069469,300 L783.069469,300 Z M765.119114,331.877082 C762.766524,331.866312 760.862083,329.995023 760.85111,327.683376 L760.85111,321.212378 C760.85111,318.896256 762.761954,317.018668 765.119099,317.018668 C767.476244,317.018668 769.387087,318.896256 769.387087,321.212378 L769.387087,327.683376 C769.376147,329.995025 767.471706,331.866327 765.119114,331.877082 Z" id="Shape" fill="#CCCCCC"></path>
                    <path d="M745,356 L745,361.855322 C745.001209,362.486982 745.479693,362.998719 746.070297,363 L783.929723,363 C784.519593,362.996842 784.997047,362.486198 785,361.855322 L785,356 L745,356 Z" id="Path" fill="#3F3D56"></path>
                    <path d="M842.038698,211 L688.961312,211 C686.223074,211.004351 684.004376,213.218729 684,215.951651 L684,319.048398 C684.002661,321.782023 686.222371,323.997388 688.961312,324 L842.038698,324 C844.777638,323.997388 846.997345,321.782021 847,319.048398 L847,215.951651 C846.995629,213.218731 844.776934,211.004351 842.038698,211 Z" id="Path" fill="#D0CDCD"></path>
                    <path d="M840.34377,215 L689.65624,215 C688.188406,215.003179 687,216.192045 687,217.657579 L687,318.347939 C687.002523,319.811591 688.190287,320.997486 689.65624,321 L840.34377,321 C841.809721,320.997486 842.997482,319.811589 843,318.347939 L843,217.657579 C843,216.192049 841.8116,215.003184 840.34377,215 Z" id="Path" fill="#FFFFFF"></path>
                    <path d="M811.349926,364 L721.650111,364 C721.152844,364 720.682092,363.773726 720.36877,363.3841 C720.055448,362.994474 719.932971,362.48305 720.0354,361.992053 L721.427261,355.32193 C721.590468,354.553102 722.262467,354.002856 723.041694,354 L809.958313,354 C810.737538,354.002863 811.409533,354.553106 811.572747,355.32193 L812.964598,361.992053 C813.06703,362.483049 812.944556,362.994473 812.631235,363.3841 C812.317914,363.773727 811.847163,364 811.349896,364 L811.349926,364 Z" id="Path" fill="#CCCCCC"></path>
                    <rect id="Rectangle" fill="#E6E6E6" x="724" y="356" width="3" height="2" rx="0.48819"></rect>
                    <rect id="Rectangle" fill="#E6E6E6" x="729" y="356" width="3" height="2" rx="0.48819"></rect>
                    <rect id="Rectangle" fill="#E6E6E6" x="735" y="356" width="3" height="2" rx="0.48819"></rect>
                    <rect id="Rectangle" fill="#E6E6E6" x="740" y="356" width="3" height="2" rx="0.48819"></rect>
                    <rect id="Rectangle" fill="#E6E6E6" x="746" y="356" width="3" height="2" rx="0.48819"></rect>
                    <rect id="Rectangle" fill="#E6E6E6" x="751" y="356" width="3" height="2" rx="0.48819"></rect>
                    <rect id="Rectangle" fill="#E6E6E6" x="757" y="356" width="3" height="2" rx="0.48819"></rect>
                    <rect id="Rectangle" fill="#E6E6E6" x="762" y="356" width="3" height="2" rx="0.48819"></rect>
                    <rect id="Rectangle" fill="#E6E6E6" x="768" y="356" width="3" height="2" rx="0.48819"></rect>
                    <rect id="Rectangle" fill="#E6E6E6" x="773" y="356" width="3" height="2" rx="0.48819"></rect>
                    <rect id="Rectangle" fill="#E6E6E6" x="779" y="356" width="3" height="2" rx="0.48819"></rect>
                    <rect id="Rectangle" fill="#E6E6E6" x="784" y="356" width="3" height="2" rx="0.48819"></rect>
                    <rect id="Rectangle" fill="#E6E6E6" x="790" y="356" width="3" height="2" rx="0.48819"></rect>
                    <rect id="Rectangle" fill="#E6E6E6" x="795" y="356" width="3" height="2" rx="0.48819"></rect>
                    <rect id="Rectangle" fill="#E6E6E6" x="801" y="356" width="3" height="2" rx="0.48819"></rect>
                    <rect id="Rectangle" fill="#E6E6E6" x="806" y="356" width="3" height="2" rx="0.48819"></rect>
                    <rect id="Rectangle" fill="#E6E6E6" x="724" y="358" width="3" height="2" rx="0.48819"></rect>
                    <rect id="Rectangle" fill="#E6E6E6" x="729" y="358" width="3" height="2" rx="0.48819"></rect>
                    <rect id="Rectangle" fill="#E6E6E6" x="735" y="358" width="3" height="2" rx="0.48819"></rect>
                    <rect id="Rectangle" fill="#E6E6E6" x="740" y="358" width="3" height="2" rx="0.48819"></rect>
                    <rect id="Rectangle" fill="#E6E6E6" x="746" y="358" width="3" height="2" rx="0.48819"></rect>
                    <rect id="Rectangle" fill="#E6E6E6" x="751" y="358" width="3" height="2" rx="0.48819"></rect>
                    <rect id="Rectangle" fill="#E6E6E6" x="757" y="358" width="3" height="2" rx="0.48819"></rect>
                    <rect id="Rectangle" fill="#E6E6E6" x="762" y="358" width="3" height="2" rx="0.48819"></rect>
                    <rect id="Rectangle" fill="#E6E6E6" x="768" y="358" width="3" height="2" rx="0.48819"></rect>
                    <rect id="Rectangle" fill="#E6E6E6" x="773" y="358" width="3" height="2" rx="0.48819"></rect>
                    <rect id="Rectangle" fill="#E6E6E6" x="779" y="358" width="3" height="2" rx="0.48819"></rect>
                    <rect id="Rectangle" fill="#E6E6E6" x="784" y="358" width="3" height="2" rx="0.48819"></rect>
                    <rect id="Rectangle" fill="#E6E6E6" x="790" y="358" width="3" height="2" rx="0.48819"></rect>
                    <rect id="Rectangle" fill="#E6E6E6" x="795" y="358" width="3" height="2" rx="0.48819"></rect>
                    <rect id="Rectangle" fill="#E6E6E6" x="801" y="358" width="3" height="2" rx="0.48819"></rect>
                    <rect id="Rectangle" fill="#E6E6E6" x="806" y="358" width="3" height="2" rx="0.48819"></rect>
                    <rect id="Rectangle" fill="#E6E6E6" x="750" y="362" width="22" height="2" rx="0.48819"></rect>
                    <path d="M833.452,229 L692.548,229 C692.243395,228.99395 692,228.771874 692,228.5 C692,228.228126 692.243395,228.00605 692.548,228 L833.452,228 C833.756605,228.00605 834,228.228126 834,228.5 C834,228.771874 833.756605,228.99395 833.452,229 L833.452,229 Z" id="Path" fill="#CACACA"></path>
                    <circle id="Oval" fill="#CCCCCC" cx="701.5" cy="221.5" r="3.5"></circle>
                    <circle id="Oval" fill="#CCCCCC" cx="713.5" cy="221.5" r="3.5"></circle>
                    <circle id="Oval" fill="#CCCCCC" cx="724.5" cy="221.5" r="3.5"></circle>
                    <path d="M826.41828,219 L818.581759,219 C818.258621,219.005378 818,219.227652 818,219.5 C818,219.772348 818.258621,219.994622 818.581759,220 L826.418241,220 C826.741379,219.994622 827,219.772348 827,219.5 C827,219.227652 826.741379,219.005378 826.418241,219 L826.41828,219 Z" id="Path" fill="#CCCCCC"></path>
                    <path d="M826.418482,221 L818.581557,221 C818.258493,221.005487 818,221.227729 818,221.5 C818,221.772271 818.258493,221.994513 818.581557,222 L826.418443,222 C826.741507,221.994513 827,221.772271 827,221.5 C827,221.227729 826.741507,221.005487 826.418443,221 L826.418482,221 Z" id="Path" fill="#CCCCCC"></path>
                    <path d="M826.41828,224 L818.581759,224 C818.258621,224.005378 818,224.227652 818,224.5 C818,224.772348 818.258621,224.994622 818.581759,225 L826.418241,225 C826.741379,224.994622 827,224.772348 827,224.5 C827,224.227652 826.741379,224.005378 826.418241,224 L826.41828,224 Z" id="Path" fill="#CCCCCC"></path>
                    <rect id="Rectangle" fill="#4299F5" x="754" y="259" width="22" height="5" rx="2.41507"></rect>
                    <rect id="Rectangle" fill="#E6E6E6" x="743" y="269" width="45" height="5" rx="2.41507"></rect>
                    <rect id="Rectangle" fill="#E6E6E6" x="743" y="278" width="45" height="5" rx="2.41507"></rect>
                    <polygon id="Path" fill="#FFB6B6" points="514.071248 427 506 423.097658 517.087367 389 529 394.757848"></polygon>
                    <path d="M568,421.521976 C567.403619,421.885917 566.807237,422.243835 566.204825,422.601909 C565.005991,423.317892 563.795185,424.022143 562.584329,424.714633 C561.975886,425.060947 561.361421,425.40727 560.752978,425.747707 L560.752978,425.765188 L560.716832,425.771044 L560.70481,425.7769 L559.777112,426 L558.445806,422.572492 L557.831341,420.993791 L556.963864,418.757717 L555.373493,414.667087 L547,393.128161 L560.018093,390 L560.506046,391.942642 L560.512057,391.942642 L560.752998,392.905081 L565.301231,410.875795 L566.228929,414.54975 L566.259044,414.661221 L566.819279,416.856195 L567.301241,418.757726 L567.837352,420.882338 L568,421.521976 Z" id="Path" fill="#FFB6B6"></path>
                    <path d="M644.749798,345.131294 C643.936638,346.442825 643.105652,347.748397 642.268763,349.042032 C640.713634,351.450458 639.116987,353.823132 637.478823,356.160056 C637.478823,356.166005 637.472901,356.166005 637.466978,356.171953 C636.511234,357.061192 635.455502,357.835453 634.321174,358.479048 C634.273685,358.514819 634.220283,358.538653 634.172794,358.568455 C633.337462,359.032217 632.448324,359.390636 631.525552,359.63558 C631.193168,359.719018 630.854841,359.802486 630.522446,359.885954 C629.32351,360.172098 628.13641,360.416542 626.955212,360.631145 C624.854061,361.006725 622.776649,361.274994 620.711103,361.441899 C620.544896,361.459804 620.378718,361.471701 620.212511,361.483628 C611.718822,362.109581 603.450644,361.10209 594.820469,359.45078 C590.558754,358.639986 586.208062,357.668265 581.703017,356.660763 C580.231021,356.326922 578.753093,355.999049 577.257337,355.671177 C577.144561,355.647383 577.025843,355.617501 576.907125,355.593667 C574.77037,355.122743 572.59799,354.657707 570.372189,354.198669 C567.570614,353.620413 564.680034,353.060032 561.676678,352.529454 L561.890344,356.780001 C562.068175,360.04979 562.744792,363.272773 563.896547,366.336305 C565.178636,370.103971 566.193577,373.084717 564.050879,379.290624 L563.018101,382.295263 C564.1034,385.319909 563.71453,388.680607 561.967515,391.374644 L561.759781,391.69059 L570.372189,413.57521 L570.930125,414.994051 L566.520019,414.994051 L561.095012,415 L551.900949,415 L538.635107,388.268622 L538,386.992852 L538,386.927289 L539.371076,335.557076 C539.388893,335.103996 539.424507,334.644969 539.483851,334.191889 C539.97229,330.031244 542.104535,326.242136 545.401547,323.675841 C548.560786,321.195991 552.578212,320.092204 556.554324,320.611617 L561.094963,321.2018 L570.372139,322.406039 L576.907076,323.258522 L577.037679,323.276368 L596.310193,325.78021 L597.693173,320.116789 L597.948397,320.021415 L606.062232,317.0347 L634.125206,306.703413 L634.196435,306.679619 L636.042363,306 L636.261972,306.357675 C636.327288,306.465016 636.392564,306.572317 636.451909,306.679619 C638.276361,309.964775 639.76201,313.428483 640.885734,317.016835 C642.775294,322.878707 644.330928,328.843909 645.545081,334.883465 C645.598522,335.145775 645.646005,335.384238 645.687529,335.598854 L645.705355,335.664417 C645.723123,335.76575 645.735028,335.831322 645.74096,335.849227 C646.297245,338.974924 645.953379,342.195171 644.749798,345.131294 L644.749798,345.131294 Z" id="Path" fill="#2F2E41"></path>
                    <path d="M646.561807,326.065808 C646.472683,325.686688 646.359821,325.301687 646.241051,324.928497 C645.298012,322.102011 644.199424,319.329522 642.950288,316.623652 C641.548447,313.543395 639.867399,310.243971 637.865615,306.672055 C636.897382,304.942357 635.855893,303.143573 634.741147,301.275703 C634.18278,300.339775 633.602638,299.386078 633.00072,298.414614 C632.97718,298.369918 632.951404,298.32643 632.92349,298.284313 L632.751248,298 L604.963726,301.708147 L594.616181,303.088347 L593.998428,308.229999 L593.849934,309.503571 C593.844007,309.503571 593.844007,309.503571 593.849934,309.509482 L593.434117,312.98068 L593.434117,312.986591 L592.881701,317.571418 L592.834175,317.565507 L577.479178,315.581138 L561.654912,313.537495 L553.15471,312.441657 C549.175483,311.924516 545.154588,313.021382 541.993393,315.48637 C538.694549,318.036944 536.560866,321.801644 536.071219,325.935537 C536.017747,326.3502 535.982105,326.776675 535.964264,327.197258 L527.945216,346.146726 C523.146685,357.479463 520.090761,369.4695 518.880684,381.711765 L513,400.459847 L513.837531,400.536853 L526.299721,401.691956 L529.590494,402 L536.837378,391.450135 C537.663054,390.247639 538.447142,389.009629 539.177757,387.741978 C540.380696,385.671596 541.450093,383.526864 542.379446,381.320824 L558.055218,344.120874 C559.266983,344.32826 560.466871,344.525712 561.654882,344.713231 C567.149455,345.601802 572.424213,346.326447 577.479158,346.887166 C593.915241,348.717562 608.147583,348.859724 620.817697,347.307808 C624.375782,346.875397 627.815065,346.306735 631.135546,345.601822 C632.353278,345.347072 633.555149,345.07261 634.741157,344.778436 C635.020315,344.713281 635.293574,344.648135 635.566824,344.57702 C640.555109,343.294136 644.548636,339.572719 646.169787,334.696519 C647.122271,331.9156 647.258281,328.92121 646.561807,326.065808 Z" id="Path" fill="#2F2E41"></path>
                    <path d="M516.847098,421.944578 L507.98876,417.671774 L506.599591,417 L504.380491,422.483223 L488.888886,425.914811 C487.316655,426.261616 486.151488,427.597484 486.013599,429.211338 C485.875711,430.825192 486.797177,432.341623 488.287503,432.953438 L503.424275,439.168986 L508.22931,434.817503 L507.050586,440.65783 L512.75167,443 L519,422.985604 L516.847098,421.944578 Z" id="Path" fill="#2F2E41"></path>
                    <polygon id="Path" fill="#2F2E41" points="570.217 414 570.783 415 570.217 415"></polygon>
                    <path d="M567.385901,414.781688 L558.258793,418.0056 L556.826285,418.509972 L559.045485,423.95636 L550.58036,437.312386 C549.720232,438.666844 549.824516,440.434257 550.837704,441.673836 C551.850891,442.913414 553.537297,443.33681 554.99925,442.718651 L569.848886,436.441337 L570.214618,429.972018 L573.406263,434.937325 L579,432.573864 L569.605878,414 L567.385901,414.781688 Z" id="Path" fill="#2F2E41"></path>
                    <path d="M511.747694,217.738011 C512.633701,219.481737 514.238786,220.739467 516.131056,221.172772 C518.023325,221.606076 520.008399,221.170445 521.552136,219.983099 L540.96298,233 L541,220.769755 L522.561459,210.283671 C520.366795,207.740277 516.635818,207.257028 513.876934,209.158822 C511.118049,211.060616 510.203302,214.746322 511.747694,217.737971 L511.747694,217.738011 Z" id="Path" fill="#FFB6B6"></path>
                    <path d="M526,224.220402 L534.988141,214 L571.585425,235.715804 L620.099055,231.27515 C624.953929,230.830905 629.754982,232.56788 633.200576,236.015153 C636.646171,239.462427 638.379319,244.262839 637.93014,249.114925 L637.93014,249.114925 C637.085637,258.127218 629.101416,264.755282 620.082945,263.930689 L565.44482,258.875879 L526,224.220402 Z" id="Path" fill="#CCCCCC"></path>
                    <path d="M638.942132,224.279017 L638.858411,224.17271 L638.858411,224.17271 C624.990128,222.790966 611.617194,229.787474 604.737328,242.024324 L600.642211,249.30807 C587.396256,265.659195 597.021597,276.935381 597.59781,278.612248 L593,300.017829 L594.0305,307.181617 L594.545161,309.309637 L647.028488,337 C650.016552,322.503639 647.127311,310.150644 636.241306,300.713973 L646.773966,267.623209 C651.517073,252.762523 648.576978,236.490972 638.942132,224.279017 L638.942132,224.279017 Z" id="Path" fill="#CCCCCC"></path>
                    <path d="M597.206595,385 L580.539064,385 C578.643728,384.99856 577.037981,383.564535 576.771899,381.635695 C575.7427,373.851484 575.7427,365.959943 576.771899,358.175732 C577.034677,356.271621 578.604367,354.845849 580.47513,354.812035 C585.719306,352.395888 591.366762,352.396188 597.263958,354.811735 C598.375712,354.826896 599.42405,355.346552 600.12779,356.231323 C600.861888,357.152139 601.153715,358.3637 600.922385,359.530194 C599.583508,366.378761 599.583508,373.432676 600.922385,380.281244 C601.153715,381.447738 600.861888,382.659298 600.12779,383.580115 C599.411391,384.480921 598.338535,385.002394 597.206595,385 Z" id="Path" fill="#4299F5"></path>
                    <path d="M595.104124,362.999961 L580.895876,362.999961 C580.576753,363.003127 580.280662,362.813231 580.120284,362.502541 C579.959905,362.191851 579.959905,361.808149 580.120284,361.497459 C580.280662,361.186769 580.576753,360.996873 580.895876,361.000039 L595.104124,361.000039 C595.423247,360.996873 595.719338,361.186769 595.879716,361.497459 C596.040095,361.808149 596.040095,362.191851 595.879716,362.502541 C595.719338,362.813231 595.423247,363.003127 595.104124,362.999961 Z" id="Path" fill="#FFFFFF"></path>
                    <path d="M595.104124,370.999961 L580.895876,370.999961 C580.576753,371.003127 580.280662,370.813231 580.120284,370.502541 C579.959905,370.191851 579.959905,369.808149 580.120284,369.497459 C580.280662,369.186769 580.576753,368.996873 580.895876,369.000039 L595.104124,369.000039 C595.423247,368.996873 595.719338,369.186769 595.879716,369.497459 C596.040095,369.808149 596.040095,370.191851 595.879716,370.502541 C595.719338,370.813231 595.423247,371.003127 595.104124,370.999961 Z" id="Path" fill="#FFFFFF"></path>
                    <path d="M595.103645,377.999955 L580.896355,377.999955 C580.577128,378.003341 580.280854,377.813495 580.120366,377.502716 C579.959878,377.191938 579.959878,376.808062 580.120366,376.497284 C580.280854,376.186505 580.577128,375.996659 580.896355,376.000045 L595.103645,376.000045 C595.422872,375.996659 595.719146,376.186505 595.879634,376.497284 C596.040122,376.808062 596.040122,377.191938 595.879634,377.502716 C595.719146,377.813495 595.422872,378.003341 595.103645,377.999955 L595.103645,377.999955 Z" id="Path" fill="#FFFFFF"></path>
                    <path d="M514.206595,224 L497.539064,224 C495.643728,223.99856 494.037981,222.564535 493.771899,220.635695 C492.7427,212.851484 492.7427,204.959943 493.771899,197.175732 C494.034677,195.271621 495.604367,193.845849 497.47513,193.812035 C502.719306,191.395888 508.366762,191.396188 514.263958,193.811735 C515.375712,193.826896 516.42405,194.346552 517.12779,195.231323 C517.861888,196.152139 518.153715,197.3637 517.922385,198.530194 C516.583508,205.378761 516.583508,212.432676 517.922385,219.281244 C518.153715,220.447738 517.861888,221.659298 517.12779,222.580115 C516.411391,223.480921 515.338535,224.002394 514.206595,224 L514.206595,224 Z" id="Path" fill="#4299F5"></path>
                    <path d="M513.104124,202.999961 L498.895876,202.999961 C498.576753,203.003127 498.280662,202.813231 498.120284,202.502541 C497.959905,202.191851 497.959905,201.808149 498.120284,201.497459 C498.280662,201.186769 498.576753,200.996873 498.895876,201.000039 L513.104124,201.000039 C513.423247,200.996873 513.719338,201.186769 513.879716,201.497459 C514.040095,201.808149 514.040095,202.191851 513.879716,202.502541 C513.719338,202.813231 513.423247,203.003127 513.104124,202.999961 L513.104124,202.999961 Z" id="Path" fill="#FFFFFF"></path>
                    <path d="M513.104124,209.999961 L498.895876,209.999961 C498.576753,210.003127 498.280662,209.813231 498.120284,209.502541 C497.959905,209.191851 497.959905,208.808149 498.120284,208.497459 C498.280662,208.186769 498.576753,207.996873 498.895876,208.000039 L513.104124,208.000039 C513.423247,207.996873 513.719338,208.186769 513.879716,208.497459 C514.040095,208.808149 514.040095,209.191851 513.879716,209.502541 C513.719338,209.813231 513.423247,210.003127 513.104124,209.999961 L513.104124,209.999961 Z" id="Path" fill="#FFFFFF"></path>
                    <path d="M513.103645,216.999955 L498.896355,216.999955 C498.577128,217.003341 498.280854,216.813495 498.120366,216.502716 C497.959878,216.191938 497.959878,215.808062 498.120366,215.497284 C498.280854,215.186505 498.577128,214.996659 498.896355,215.000045 L513.103645,215.000045 C513.422872,214.996659 513.719146,215.186505 513.879634,215.497284 C514.040122,215.808062 514.040122,216.191938 513.879634,216.502716 C513.719146,216.813495 513.422872,217.003341 513.103645,216.999955 Z" id="Path" fill="#FFFFFF"></path>
                    <path d="M217.206595,268 L200.539064,268 C198.643728,267.99856 197.037981,266.564535 196.771899,264.635695 C195.7427,256.851484 195.7427,248.959943 196.771899,241.175732 C197.034677,239.271621 198.604367,237.845849 200.47513,237.812035 C205.719306,235.395888 211.366762,235.396188 217.263958,237.811735 C218.375712,237.826896 219.42405,238.346552 220.12779,239.231323 C220.861888,240.152139 221.153715,241.3637 220.922385,242.530194 C219.583508,249.378761 219.583508,256.432676 220.922385,263.281244 C221.153715,264.447738 220.861888,265.659298 220.12779,266.580115 C219.411391,267.480921 218.338535,268.002394 217.206595,268 Z" id="Path" fill="#4299F5"></path>
                    <path d="M215.104124,246.999961 L200.895876,246.999961 C200.576753,247.003127 200.280662,246.813231 200.120284,246.502541 C199.959905,246.191851 199.959905,245.808149 200.120284,245.497459 C200.280662,245.186769 200.576753,244.996873 200.895876,245.000039 L215.104124,245.000039 C215.423247,244.996873 215.719338,245.186769 215.879716,245.497459 C216.040095,245.808149 216.040095,246.191851 215.879716,246.502541 C215.719338,246.813231 215.423247,247.003127 215.104124,246.999961 Z" id="Path" fill="#FFFFFF"></path>
                    <path d="M215.104124,253.999961 L200.895876,253.999961 C200.576753,254.003127 200.280662,253.813231 200.120284,253.502541 C199.959905,253.191851 199.959905,252.808149 200.120284,252.497459 C200.280662,252.186769 200.576753,251.996873 200.895876,252.000039 L215.104124,252.000039 C215.423247,251.996873 215.719338,252.186769 215.879716,252.497459 C216.040095,252.808149 216.040095,253.191851 215.879716,253.502541 C215.719338,253.813231 215.423247,254.003127 215.104124,253.999961 Z" id="Path" fill="#FFFFFF"></path>
                    <path d="M215.103645,260.999955 L200.896355,260.999955 C200.577128,261.003341 200.280854,260.813495 200.120366,260.502716 C199.959878,260.191938 199.959878,259.808062 200.120366,259.497284 C200.280854,259.186505 200.577128,258.996659 200.896355,259.000045 L215.103645,259.000045 C215.422872,258.996659 215.719146,259.186505 215.879634,259.497284 C216.040122,259.808062 216.040122,260.191938 215.879634,260.502716 C215.719146,260.813495 215.422872,261.003341 215.103645,260.999955 L215.103645,260.999955 Z" id="Path" fill="#FFFFFF"></path>
                    <path d="M601.840105,363.061416 C603.487074,362.074526 604.618515,360.398333 604.929978,358.483869 C605.241442,356.569404 604.700934,354.613327 603.453894,353.14198 L615,333 L603.082774,333.681352 L593.945444,352.704055 C591.59599,355.044326 591.343428,358.797246 593.357557,361.439679 C595.371686,364.082112 599.015877,364.778832 601.840095,363.061426 L601.840105,363.061416 Z" id="Path" fill="#FFB6B6"></path>
                    <path d="M606.782016,348 L596,339.650526 L615.592209,301.902089 L608.250905,253.830865 C607.516389,249.020264 608.971907,244.134072 612.222847,240.497003 C615.473787,236.859934 620.183332,234.848811 625.074659,235.008878 L625.074659,235.008878 C634.160462,235.316373 641.281097,242.878437 640.991469,251.912418 L639.177602,306.64802 L606.782016,348 Z" id="Path" fill="#CCCCCC"></path>
                    <path d="M86.3916069,338.021945 C87.7718089,336.642888 88.4666622,334.726909 88.2891918,332.78957 C88.1117214,330.852231 87.0801579,329.092545 85.4720804,327.984019 L96,276 L84.3738817,279.710867 L75.9467705,329.992437 C74.2145988,332.864473 74.9169681,336.570545 77.5816764,338.619065 C80.2463847,340.667585 84.031188,340.41107 86.3915671,338.021975 L86.3916069,338.021945 Z" id="Path" fill="#9E616A"></path>
                    <path d="M102.017071,227.428574 L94.8446397,222.002381 C94.8446397,222.002381 88.5174362,221.55332 87.3968267,232.989117 C86.2762171,244.424913 83.9752486,266.711431 83.9752486,266.711431 L73,317.657867 L88.1927116,321 L99.9479877,266.019775 L107,249.692714 L102.017071,227.428574 Z" id="Path" fill="#9DC4ED"></path>
                    <polygon id="Path" fill="#9E616A" points="90 310 130.615155 309.333287 134 282 90 282"></polygon>
                    <polygon id="Path" fill="#9E616A" points="126.002011 481 135.487537 481 140 445 126 445.00099"></polygon>
                    <polygon id="Path" fill="#9E616A" points="68 481 77.6639344 480.933878 82 445 69.4313525 447.777126"></polygon>
                    <polygon id="Path" fill="#FFB6B6" points="97.1241539 258.292887 95 263.872134 95.4244332 269.452385 137 284 134.937473 259.580251 130.263738 254"></polygon>
                    <circle id="Oval" fill="#9E616A" cx="115" cy="194" r="15"></circle>
                    <path d="M123.84042,475.872772 L138.436263,475 L138.436263,481.264986 L152.312933,490.866332 C153.719783,491.839476 154.331502,493.616095 153.822731,495.251245 C153.31396,496.886396 151.802928,498 150.093319,498 L132.71642,498 L129.721256,491.802968 L128.551789,498 L122,498 L123.84042,475.872772 Z" id="Path" fill="#2F2E41"></path>
                    <path d="M64.687247,476.970271 L79.289423,476 L79.3332289,482.23375 L93.2888688,491.690382 C94.7037283,492.648854 95.3283969,494.412349 94.8306262,496.0429 C94.3328554,497.67345 92.8283191,498.792144 91.1172488,498.803971 L73.7255555,498.92522 L70.68449,492.77999 L69.5573725,498.954281 L63,499 L64.687247,476.970271 Z" id="Path" fill="#2F2E41"></path>
                    <path d="M65.1215975,454.112854 L71.9007233,399.661885 L79.9662751,342.252279 C74.0597072,331.229419 87.3596885,297 87.3596885,297 L89.2370487,297.090517 L131.729349,305.145981 L131.720189,305.104889 C140.411261,328.925231 143.290709,340.692987 142.81443,366.05934 L141.102232,457.24592 L141.639353,457.24592 C143.495387,457.24592 145,458.757871 145,460.622957 C145,462.488044 143.495387,464 141.639353,464 L124.83615,464 C123.634135,464.002065 122.522544,463.358858 121.920941,462.313149 C121.319337,461.26744 121.319337,459.978475 121.920941,458.932766 C122.522544,457.887056 123.634135,457.24385 124.83615,457.24592 L125.269394,457.24592 L109.846081,348.669826 L96.7694973,394.258652 L81.9826606,453.694449 C87.3596885,452.343635 86.5247963,455.473437 86.5247963,457.245969 C86.5247908,459.111054 85.0201771,460.623002 83.1641439,460.623002 L66.360971,460.623002 C64.7487806,460.624687 63.3630345,459.474533 63.0601206,457.883332 C62.7572067,456.29213 63.622666,454.709228 65.1216468,454.112854 L65.1215975,454.112854 Z" id="Path" fill="#2F2E41"></path>
                    <path d="M84.0097573,299.260779 L85.3527718,285.821365 C85.6388975,284.696618 86.6162106,283.884166 87.7735585,283.808936 C88.3331232,277.406875 90.6873874,249.787887 90.8280453,248.583353 L90.8335379,248.532414 L91.9040918,225.646599 C91.984572,223.925746 93.3439432,222.539984 95.0617744,222.427613 L100.716223,222.057745 C100.877453,222.052313 101.005353,221.919951 101.005368,221.758514 C101.005361,220.496484 101.506333,219.28614 102.398077,218.393745 C103.28982,217.50135 104.499289,217 105.760411,217 L122.501391,217 C124.744945,217.000911 126.637273,218.672336 126.916839,220.900006 C126.932238,221.053746 127.0633,221.169717 127.21766,221.166189 L127.219632,221.166189 C131.15064,221.085139 134.550925,223.890703 135.220722,227.767863 C137.50942,241.093724 142.096145,271.338376 139.828392,288.152663 C139.038956,294.005997 140.740745,289.369996 141.039328,294.267463 C141.099184,295.223326 140.776492,296.163736 140.142466,296.881157 C141.480042,297.367673 142.177188,298.840853 141.705766,300.184664 L142,300.111777 C141.825875,300.803029 141.384476,301.396746 140.772908,301.762312 C140.161341,302.127879 139.429704,302.235349 138.738954,302.06108 L94.9404441,308 C93.5020142,307.637149 83.6471668,300.700185 84.0097573,299.260779 Z" id="Path" fill="#9DC4ED"></path>
                    <path d="M201.70754,244.534481 C201.146319,246.396435 199.78216,247.916264 197.98214,248.685003 C196.182119,249.453743 194.131145,249.392424 192.381105,248.517547 L175.271694,264 L173,252.084839 L189.606377,239.247403 C191.321142,236.366495 194.937987,235.212581 198.025295,236.561442 C201.112602,237.910303 202.694546,241.335595 201.70758,244.534481 L201.70754,244.534481 Z" id="Path" fill="#9E616A"></path>
                    <path d="M141.983747,232.008246 C141.983747,232.008246 136.072336,218.703111 128.606166,221.347825 C121.139997,223.992538 124.994936,236.902049 124.994936,236.902049 L153.045597,279 C153.045597,279 193.504974,253.150565 188.585105,252.967979 C183.665236,252.785394 182.193561,243.87327 182.193561,243.87327 L160.810064,254.514713 L160.086558,250.726491 L158.926905,251.881465 L155.934437,249.535636 L141.983747,232.008246 Z" id="Path" fill="#9DC4ED"></path>
                    <circle id="Oval" fill="#FFB6B6" cx="626.5" cy="196.5" r="20.5"></circle>
                    <path d="M692.70777,227.269184 C690.326338,230.632154 686.850965,233.07066 682.871126,234.171094 C681.278339,234.643469 679.633994,234.921798 677.97403,235 C677.769081,233.129368 677.278222,231.300984 676.518481,229.57828 C676.595678,231.411919 676.339778,233.244371 675.763114,234.98732 C673.270469,234.846467 670.833596,234.195788 668.60419,233.075788 C664.16424,230.8498 661.036551,226.668708 660.163685,221.792526 C659.289507,216.167794 661.848406,210.644579 662.773506,205.028336 C663.702851,199.412075 661.958739,192.298733 656.442074,190.822753 C652.240905,189.697819 652.711944,190.184179 649.219476,192.768154 C652.852362,198.121448 639.433912,217.73892 633.942544,216.02821 C630.837841,215.061031 628.850231,212.222015 628.20945,212.222015 C623.893725,219.631394 632.020181,232.115727 623.83006,234.708172 L624.504796,234.035739 C629.448569,227.975445 619.11543,215.148546 624.059223,209.088232 C625.438374,207.392361 626.906656,205.383533 626.499282,203.239399 C626.1131,201.200962 622.866771,200.122546 621.916186,201.797258 C623.626363,197.893797 621.101428,192.683528 616.921501,191.68119 C613.208358,190.788885 613.276238,191.888411 609.550382,192.366302 C609.30686,190.761582 608.851687,189.195954 608.196677,187.710051 C608.265053,189.311112 608.077402,190.91282 607.640762,192.455118 C606.324549,192.429479 605.053628,191.971606 604.025219,191.152551 C600.986821,188.71234 601.602117,183.586668 604.313782,180.791232 C607.029691,177.995795 611.065351,176.989266 614.914262,176.337973 C616.033155,168.572983 637.530574,167.762978 640.380085,175.521756 C641.593768,169.727871 648.871512,166.720973 654.528229,168.518399 C660.184946,170.315826 664.110264,175.581022 666.176894,181.129607 C668.243514,186.673962 668.82064,192.64125 670.093723,198.418205 C671.366807,204.195161 673.518313,210.077852 677.948614,214.015152 C682.378915,217.948193 689.597279,219.25079 694.265231,215.596838 C695.641596,219.512714 695.063152,223.847849 692.70777,227.269184 Z" id="Path" fill="#2F2E41"></path>
                    <path d="M97.9974693,185.449799 C95.7149738,186.543378 93.1599417,184.898187 91.1893435,183.267934 L91.8942607,183.875709 C88.4114663,187.258566 86.7831503,192.125584 85.9875072,196.916578 C85.191067,201.702589 85.1022637,206.597117 84.0994859,211.349114 C83.0959311,216.096089 81.0141844,220.865561 77.125758,223.773017 C71.9165097,227.667227 64.7318615,227.417264 58.3390908,226.223514 C58.2539237,226.206218 58.1745547,226.19315 58.0893876,226.175854 C59.8094543,221.217707 60.5086733,215.963798 60.145103,210.729275 C58.431528,215.97486 55.5143623,220.74836 51.6260744,224.669375 C47.387583,223.504991 43.2504555,222 39.2552206,220.16915 C36.6701622,218.981287 33.8866564,217.357022 33.1692167,214.606805 C32.4499439,211.877395 34.1202009,209.014504 36.3535826,207.291031 C38.5869644,205.567558 41.328071,204.668377 43.8724037,203.440573 C46.4125623,202.218537 48.9262412,200.476177 49.9433148,197.845815 C52.2891402,191.794913 45.6065484,184.851591 48.2108836,178.903536 C49.495174,175.978625 52.6408666,174.387647 55.597516,173.161047 C60.1111502,171.293518 64.7460791,169.732741 69.4706038,168.48939 C73.618058,167.397194 77.948608,166.548427 82.1736381,167.264391 C86.3986682,167.980354 90.5379235,170.545881 92.0585677,174.55165 C94.5957874,175.407718 97.2894539,176.3726 98.9177898,178.504708 C100.545359,180.631823 100.414146,184.293703 97.9974693,185.449799 Z" id="Path" fill="#2F2E41"></path>
                    <path d="M117.647553,178.638554 C111.230508,173.528721 106.042095,174.400992 102.03958,177.575603 C101.366713,176.82059 98.5032194,178.897885 97.5336773,178.5993 L94.0269424,185.239562 C92.2224159,188.451472 91.482084,191.730137 91.7737857,193.575485 C88.4544859,202.964552 96.3258003,209.304917 105.634378,212.652797 C109.348681,213.998018 113.401362,214.057224 117.152732,212.821069 L117.267141,211.221188 L117.972042,212.532419 C117.972042,212.532419 126.48186,230.206325 128.492746,231 C127.272602,227.807367 124.054416,212.633669 123.156137,209.47074 C121.924421,205.167321 122.765818,198.330336 123.489741,194.138487 C123.940953,191.554172 123.96456,188.912308 123.559605,186.320209 L123.541689,186.206902 L125.532691,190.260973 L130,187.427538 C128.292662,182.411559 128.258582,176.411067 117.647553,178.638554 Z" id="Path" fill="#2F2E41"></path>
                </g>
                <path d="M25.5,237 C83.2137564,237 130,301.694854 130,381.5 C130,430.544165 112.330223,473.88162 85.313369,500.003943 L0.999950812,500.003 L0.998571609,240.993812 C8.85741306,238.382927 17.0619125,237 25.5,237 Z" id="Combined-Shape" fill="#EBF4FF"></path>
            </g>
        </g>
    </g>
</svg>