<svg height="500" viewBox="0 0 1440 500" width="1440" xmlns="http://www.w3.org/2000/svg"><g fill="none" fill-rule="evenodd"><path d="m0 0h1440v500h-1440z" fill="#fff"/><path d="m234.726642 14.7690406c51.409038-22.6197367 116.398857-9.56004889 171.534814 11.4944398 67.699541 25.8547395 129.120881 62.605057 189.89383 99.9899826l4.614512 2.840415c3.075631 1.894201 6.149966 3.789364 9.223735 5.684155l4.61032 2.841743 4.610019 2.840187 4.610266 2.837633c6.915859 4.254034 13.834401 8.496075 20.76395 12.710952 76.994998 46.831967 158.385219 91.573065 248.739204 110.778106 79.773347 16.946606 177.106588 12.50599 240.032728-32.55193 61.04861-43.774203 159.01822-30.631017 223.53781 13.681153 61.54497 42.289267 93.4504 114.426398 78.82977 178.286991-6.16542 26.924276-19.16258 50.75843-36.17356 72.797473l-1269.607089.000084c39.629952-57.163789 61.525441-123.477749 36.47436-187.62035-9.600174-24.576047-25.706754-47.491673-32.620815-72.597866-9.961697-36.161442.050242-73.063423 12.107778-107.684434 16.051837-46.0202593 39.345235-94.5023534 88.818368-116.3287344z" fill="#ebf4ff"/><rect fill="#f9f9f9" height="356" rx="15" stroke="#979797" width="398" x="281.5" y="1.5"/><g fill-rule="nonzero" transform="translate(281)"><path d="m28.4313531 53.4731885c42.3292332-.7078804 84.6630279-.8095673 127.0013849-.3050608 42.332218.5074843 84.650229 1.6238704 126.954034 3.3491585 23.738426.9682115 47.46724 2.1281108 71.186444 3.4796979 1.905658.1084438 1.899097-2.7429619 0-2.8510351-42.261704-2.4051523-84.554254-4.2048207-126.877651-5.3990053-42.317388-1.1909724-84.64699-1.772989-126.988806-1.7460499-23.7597763.0152055-47.5182449.2223015-71.2754059.6212881-1.9054607.031865-1.9114785 2.8829952 0 2.8510351z" fill="#a8a7a7"/><path d="m324.400094 34.9954674 18.199812-1.2662018c1.859245-.1293522 1.874324-2.8551303 0-2.7247336l-18.199812 1.2662018c-1.859245.1293522-1.874324 2.8551394 0 2.7247336z" fill="#a8a7a7"/><path d="m324.400094 51.9954674 18.199812-1.2662018c1.859245-.1293522 1.874324-2.8551303 0-2.7247336l-18.199812 1.2662018c-1.859245.1293522-1.874324 2.8551394 0 2.7247336z" fill="#a8a7a7"/><path d="m322.41243 44.7670606 26.175122 2.2261947c1.889083.1606596 1.877436-2.6006408 0-2.7603159l-26.175122-2.2261947c-1.889034-.1606596-1.877437 2.6006408 0 2.7603159z" fill="#a8a7a7"/><path d="m39.8831777 31c-2.7154502-.0165774-5.1778833 1.5858579-6.2541371 4.0700266-1.2103674 2.4442789-.6371173 5.3927421 1.4017572 7.2098187 1.8956896 1.6070358 4.4867562 2.1315412 6.8615067 1.3889637 2.4484632-.852068 4.0922419-3.1491519 4.1027278-5.7333209.1093135-2.8661065-1.5940288-5.4936691-4.260969-6.5729378-.8141674-.2203735-1.6542996.2549265-1.8815794 1.0644928-.2003165.8085005.2688949 1.6319282 1.0683269 1.8748266.266577.1026228-.2435209-.1305646.0053944.004552.1023398.0555586.2066068.1057523.3071009.1650703.0854429.0504274.1672352.10561.2503429.1596546.2855235.1856964-.1393864-.1363156.0431141.0306039.1582819.1447693.3150955.2860127.4589382.4457588.0544024.060395.2675151.2283103.1019013.1109444-.1267113-.0898-.0488653-.0686862-.000051.0034241.0370569.0547254.076245.1079571.1128429.1630178.1192522.179818.2276573.3665491.3246403.5592027.0224849.0445748.0430324.0901962.0658947.1345577.0428285.0831143.1049197.1048988.0042217.0007824-.0962113-.099473-.0349563-.0926755-.0005303.0030482.0226277.062925.0473255.1250575.0693414.1882061.0717268.2055827.1319326.4149783.1803387.6272182.022434.0981013.0404526.1967817.0597152.2954926.0683217.3500148-.0099219-.2175907.0065772.0424005.0137867.2170726.0298474.4318285.0260541.6497647-.0017336.0997304-.0060844.1993354-.0130526.2988152-.003518.0496247-.0090653.0991173-.0123488.148742-.0158568.2391619-.0163769-.0873817.0172129-.1097352-.0699153.2030356-.1162915.4133741-.1382239.6269133-.0274001.0947585-.0599396.1874441-.0904294.2811661-.1064085.3269907.0999332-.1782486-.013491.0452556-.0933578.1919817-.1976979.3784658-.3125054.5585321-.0498341.0754227-.2377595.245746-.0840867.1272116.1667559-.1286341-.0874314.0928787-.1416706.14988-.0696678.0732178-.1419766.1438921-.2169265.2120228-.0479813.0466729-.0986343.0905388-.1517047.1313774-.0097282-.0048669.2555537-.1765315.1125778-.0856747-.1817561.1155065-.3538452.2390602-.5453907.3396204-.0223014.0117051-.2671684.1247425-.2661486.1287458-.0105644-.0411507.3147998-.114145.0914592-.0422379-.0469074.0150988-.0929277.0333372-.1396515.0490354-.2033454.0682039-.4108883.1232871-.6213399.1649077-.0481821.0095612-.0991481.014418-.1466163.0266514-.1581189.0407443.1511031-.0238979.1603928-.0185534-.1168772-.0050164-.2339089.0053073-.3480838.0307056-.2170247.01238-.434583.0123596-.6516053-.000061-.0502216-.0028653-.1003208-.0078542-.1505219-.0107601-.1165548-.0067467-.2020793-.09043-.0469788.0004064.1196649.0701086.1097124.0189598.0036914-.0005487-.0495791-.0091446-.0993928-.0168464-.1489617-.0261129-.2148103-.0400552-.4272369-.0918993-.6363095-.1552957-.1125064-.0341602-.2227389-.0738884-.3337259-.1125396-.0483611-.0139751-.0954389-.0320316-.1407223-.0539735-.0006731-.0125484.2860537.1365188.1346753.0552335-.1910662-.1026228-.3886485-.1886227-.5752177-.3007559-.0995559-.0598463-.1951859-.1249153-.2919885-.1889885-.0425803-.0255569-.083061-.0544359-.121062-.0863657.0032019-.0128837.2371476.2031118.114342.086508-.1553044-.1474821-.3214383-.2794997-.4685237-.4365431-.033651-.0359179-.0654766-.0735226-.0990053-.1095218l-.0324681-.0369645c-.0829037-.10097-.0844367-.1004857-.0045989.0014529.081058.0237963.0773666.1124482.0004486-.0026926-.0274102-.0410287-.0565438-.0808687-.0838929-.121928-.1242243-.1763754-.2301595-.3648601-.3161764-.5625557.0074542-.0057814.1325032.3667291.0368835.0856138-.0180696-.0531098-.0383825-.105356-.056085-.1585979-.0351466-.1055897-.0660783-.212358-.0927951-.320305-.0264415-.1069207-.0400141-.2172249-.06668-.3237088-.0449597-.1794984.026258.1416093.018141.1336129-.0254932-.0251071-.0146433-.1807685-.0165502-.2180175-.0122367-.2391517.0151124-.4712824.0193748-.7089913.0033345-.184152-.0152959.1435195-.0191505.1339176.0009382-.0551594.0107431-.1098125.0290419-.1618798.0276855-.1253725.053454-.2506129.0873498-.3745934.0388108-.1419581.0834952-.2821754.1340532-.4206518.0188854-.0518194.0419108-.1028768.0594807-.1551229.0643753-.1913966-.1274658.2311349-.0216896.0585661.1455252-.2374447.253912-.4943979.408421-.728896.0366082-.0555891.2592247-.3652253.1410792-.2088933-.1176663.1557123.120909-.1394145.1660727-.1895168.1876297-.208182.408268-.3790946.6025259-.5784266.1149844-.1179959-.0802627.0580987-.0917754.0663085.0601639-.0428272.1190735-.0872802.1799818-.1291015.1061943-.0729333.2149924-.141887.3263941-.2068611.1254876-.0733092.2673826-.1278822.3890054-.2054284.1436795-.0916188-.1098858.0402159-.1144236.0429695.0656258-.0324488.1342419-.0585099.2048937-.0778206.1184413-.0418518.6335766-.2633341.7416371-.1940688-.0048947-.0031397-.3911468.0309697-.0789065.0109837.0737875-.0047247.147269-.011888.2211788-.0149362.1494715-.0061675.2984332-.0024386.4477518.0052835.8424712-.0055026 1.5240676-.6846529 1.5295901-1.5241005-.0179931-.8341984-.6923871-1.5061721-1.5295901-1.5241006z" fill="#a8a7a7"/><path d="m59.8831777 31c-2.7154502-.0165774-5.1778833 1.5858579-6.2541371 4.0700266-1.2103674 2.4442789-.6371173 5.3927421 1.4017572 7.2098187 1.8956896 1.6070358 4.4867562 2.1315412 6.8615067 1.3889637 2.4484632-.852068 4.0922419-3.1491519 4.1027278-5.7333209.1093135-2.8661065-1.5940288-5.4936691-4.260969-6.5729378-.8141674-.2203735-1.6542996.2549265-1.8815794 1.0644928-.2003165.8085005.2688949 1.6319282 1.0683269 1.8748266.266577.1026228-.2435209-.1305646.0053944.004552.1023398.0555586.2066068.1057523.3071009.1650703.0854429.0504274.1672352.10561.2503429.1596546.2855235.1856964-.1393864-.1363156.0431141.0306039.1582819.1447693.3150955.2860127.4589382.4457588.0544024.060395.2675151.2283103.1019013.1109444-.1267113-.0898-.0488653-.0686862-.000051.0034241.0370569.0547254.076245.1079571.1128429.1630178.1192522.179818.2276573.3665491.3246403.5592027.0224849.0445748.0430324.0901962.0658947.1345577.0428285.0831143.1049197.1048988.0042217.0007824-.0962113-.099473-.0349563-.0926755-.0005303.0030482.0226277.062925.0473255.1250575.0693414.1882061.0717268.2055827.1319326.4149783.1803387.6272182.022434.0981013.0404526.1967817.0597152.2954926.0683217.3500148-.0099219-.2175907.0065772.0424005.0137867.2170726.0298474.4318285.0260541.6497647-.0017336.0997304-.0060844.1993354-.0130526.2988152-.003518.0496247-.0090653.0991173-.0123488.148742-.0158568.2391619-.0163769-.0873817.0172129-.1097352-.0699153.2030356-.1162915.4133741-.1382239.6269133-.0274001.0947585-.0599396.1874441-.0904294.2811661-.1064085.3269907.0999332-.1782486-.013491.0452556-.0933578.1919817-.1976979.3784658-.3125054.5585321-.0498341.0754227-.2377595.245746-.0840867.1272116.1667559-.1286341-.0874314.0928787-.1416706.14988-.0696678.0732178-.1419766.1438921-.2169265.2120228-.0479813.0466729-.0986343.0905388-.1517047.1313774-.0097282-.0048669.2555537-.1765315.1125778-.0856747-.1817561.1155065-.3538452.2390602-.5453907.3396204-.0223014.0117051-.2671684.1247425-.2661486.1287458-.0105644-.0411507.3147998-.114145.0914592-.0422379-.0469074.0150988-.0929277.0333372-.1396515.0490354-.2033454.0682039-.4108883.1232871-.6213399.1649077-.0481821.0095612-.0991481.014418-.1466163.0266514-.1581189.0407443.1511031-.0238979.1603928-.0185534-.1168772-.0050164-.2339089.0053073-.3480838.0307056-.2170247.01238-.434583.0123596-.6516053-.000061-.0502216-.0028653-.1003208-.0078542-.1505219-.0107601-.1165548-.0067467-.2020793-.09043-.0469788.0004064.1196649.0701086.1097124.0189598.0036914-.0005487-.0495791-.0091446-.0993928-.0168464-.1489617-.0261129-.2148103-.0400552-.4272369-.0918993-.6363095-.1552957-.1125064-.0341602-.2227389-.0738884-.3337259-.1125396-.0483611-.0139751-.0954389-.0320316-.1407223-.0539735-.0006731-.0125484.2860537.1365188.1346753.0552335-.1910662-.1026228-.3886485-.1886227-.5752177-.3007559-.0995559-.0598463-.1951859-.1249153-.2919885-.1889885-.0425803-.0255569-.083061-.0544359-.121062-.0863657.0032019-.0128837.2371476.2031118.114342.086508-.1553044-.1474821-.3214383-.2794997-.4685237-.4365431-.033651-.0359179-.0654766-.0735226-.0990053-.1095218l-.0324681-.0369645c-.0829037-.10097-.0844367-.1004857-.0045989.0014529.081058.0237963.0773666.1124482.0004486-.0026926-.0274102-.0410287-.0565438-.0808687-.0838929-.121928-.1242243-.1763754-.2301595-.3648601-.3161764-.5625557.0074542-.0057814.1325032.3667291.0368835.0856138-.0180696-.0531098-.0383825-.105356-.056085-.1585979-.0351466-.1055897-.0660783-.212358-.0927951-.320305-.0264415-.1069207-.0400141-.2172249-.06668-.3237088-.0449597-.1794984.026258.1416093.018141.1336129-.0254932-.0251071-.0146433-.1807685-.0165502-.2180175-.0122367-.2391517.0151124-.4712824.0193748-.7089913.0033345-.184152-.0152959.1435195-.0191505.1339176.0009382-.0551594.0107431-.1098125.0290419-.1618798.0276855-.1253725.053454-.2506129.0873498-.3745934.0388108-.1419581.0834952-.2821754.1340532-.4206518.0188854-.0518194.0419108-.1028768.0594807-.1551229.0643753-.1913966-.1274658.2311349-.0216896.0585661.1455252-.2374447.253912-.4943979.408421-.728896.0366082-.0555891.2592247-.3652253.1410792-.2088933-.1176663.1557123.120909-.1394145.1660727-.1895168.1876297-.208182.408268-.3790946.6025259-.5784266.1149844-.1179959-.0802627.0580987-.0917754.0663085.0601639-.0428272.1190735-.0872802.1799818-.1291015.1061943-.0729333.2149924-.141887.3263941-.2068611.1254876-.0733092.2673826-.1278822.3890054-.2054284.1436795-.0916188-.1098858.0402159-.1144236.0429695.0656258-.0324488.1342419-.0585099.2048937-.0778206.1184413-.0418518.6335766-.2633341.7416371-.1940688-.0048947-.0031397-.3911468.0309697-.0789065.0109837.0737875-.0047247.147269-.011888.2211788-.0149362.1494715-.0061675.2984332-.0024386.4477518.0052835.8424712-.0055026 1.5240676-.6846529 1.5295901-1.5241005-.0179931-.8341984-.6923871-1.5061721-1.5295901-1.5241006z" fill="#a8a7a7"/><path d="m80.8831777 31c-2.7154502-.0165774-5.1778833 1.5858579-6.2541371 4.0700266-1.2103674 2.4442789-.6371173 5.3927421 1.4017572 7.2098187 1.8956896 1.6070358 4.4867562 2.1315412 6.8615067 1.3889637 2.4484632-.852068 4.0922419-3.1491519 4.1027278-5.7333209.1093135-2.8661065-1.5940288-5.4936691-4.260969-6.5729378-.8141674-.2203735-1.6542996.2549265-1.8815794 1.0644928-.2003165.8085005.2688949 1.6319282 1.0683269 1.8748266.266577.1026228-.2435209-.1305646.0053944.004552.1023398.0555586.2066068.1057523.3071009.1650703.0854429.0504274.1672352.10561.2503429.1596546.2855235.1856964-.1393864-.1363156.0431141.0306039.1582819.1447693.3150955.2860127.4589382.4457588.0544024.060395.2675151.2283103.1019013.1109444-.1267113-.0898-.0488653-.0686862-.000051.0034241.0370569.0547254.076245.1079571.1128429.1630178.1192522.179818.2276573.3665491.3246403.5592027.0224849.0445748.0430324.0901962.0658947.1345577.0428285.0831143.1049197.1048988.0042217.0007824-.0962113-.099473-.0349563-.0926755-.0005303.0030482.0226277.062925.0473255.1250575.0693414.1882061.0717268.2055827.1319326.4149783.1803387.6272182.022434.0981013.0404526.1967817.0597152.2954926.0683217.3500148-.0099219-.2175907.0065772.0424005.0137867.2170726.0298474.4318285.0260541.6497647-.0017336.0997304-.0060844.1993354-.0130526.2988152-.003518.0496247-.0090653.0991173-.0123488.148742-.0158568.2391619-.0163769-.0873817.0172129-.1097352-.0699153.2030356-.1162915.4133741-.1382239.6269133-.0274001.0947585-.0599396.1874441-.0904294.2811661-.1064085.3269907.0999332-.1782486-.013491.0452556-.0933578.1919817-.1976979.3784658-.3125054.5585321-.0498341.0754227-.2377595.245746-.0840867.1272116.1667559-.1286341-.0874314.0928787-.1416706.14988-.0696678.0732178-.1419766.1438921-.2169265.2120228-.0479813.0466729-.0986343.0905388-.1517047.1313774-.0097282-.0048669.2555537-.1765315.1125778-.0856747-.1817561.1155065-.3538452.2390602-.5453907.3396204-.0223014.0117051-.2671684.1247425-.2661486.1287458-.0105644-.0411507.3147998-.114145.0914592-.0422379-.0469074.0150988-.0929277.0333372-.1396515.0490354-.2033454.0682039-.4108883.1232871-.6213399.1649077-.0481821.0095612-.0991481.014418-.1466163.0266514-.1581189.0407443.1511031-.0238979.1603928-.0185534-.1168772-.0050164-.2339089.0053073-.3480838.0307056-.2170247.01238-.434583.0123596-.6516053-.000061-.0502216-.0028653-.1003208-.0078542-.1505219-.0107601-.1165548-.0067467-.2020793-.09043-.0469788.0004064.1196649.0701086.1097124.0189598.0036914-.0005487-.0495791-.0091446-.0993928-.0168464-.1489617-.0261129-.2148103-.0400552-.4272369-.0918993-.6363095-.1552957-.1125064-.0341602-.2227389-.0738884-.3337259-.1125396-.0483611-.0139751-.0954389-.0320316-.1407223-.0539735-.0006731-.0125484.2860537.1365188.1346753.0552335-.1910662-.1026228-.3886485-.1886227-.5752177-.3007559-.0995559-.0598463-.1951859-.1249153-.2919885-.1889885-.0425803-.0255569-.083061-.0544359-.121062-.0863657.0032019-.0128837.2371476.2031118.114342.086508-.1553044-.1474821-.3214383-.2794997-.4685237-.4365431-.033651-.0359179-.0654766-.0735226-.0990053-.1095218l-.0324681-.0369645c-.0829037-.10097-.0844367-.1004857-.0045989.0014529.081058.0237963.0773666.1124482.0004486-.0026926-.0274102-.0410287-.0565438-.0808687-.0838929-.121928-.1242243-.1763754-.2301595-.3648601-.3161764-.5625557.0074542-.0057814.1325032.3667291.0368835.0856138-.0180696-.0531098-.0383825-.105356-.056085-.1585979-.0351466-.1055897-.0660783-.212358-.0927951-.320305-.0264415-.1069207-.0400141-.2172249-.06668-.3237088-.0449597-.1794984.026258.1416093.018141.1336129-.0254932-.0251071-.0146433-.1807685-.0165502-.2180175-.0122367-.2391517.0151124-.4712824.0193748-.7089913.0033345-.184152-.0152959.1435195-.0191505.1339176.0009382-.0551594.0107431-.1098125.0290419-.1618798.0276855-.1253725.053454-.2506129.0873498-.3745934.0388108-.1419581.0834952-.2821754.1340532-.4206518.0188854-.0518194.0419108-.1028768.0594807-.1551229.0643753-.1913966-.1274658.2311349-.0216896.0585661.1455252-.2374447.253912-.4943979.408421-.728896.0366082-.0555891.2592247-.3652253.1410792-.2088933-.1176663.1557123.120909-.1394145.1660727-.1895168.1876297-.208182.408268-.3790946.6025259-.5784266.1149844-.1179959-.0802627.0580987-.0917754.0663085.0601639-.0428272.1190735-.0872802.1799818-.1291015.1061943-.0729333.2149924-.141887.3263941-.2068611.1254876-.0733092.2673826-.1278822.3890054-.2054284.1436795-.0916188-.1098858.0402159-.1144236.0429695.0656258-.0324488.1342419-.0585099.2048937-.0778206.1184413-.0418518.6335766-.2633341.7416371-.1940688-.0048947-.0031397-.3911468.0309697-.0789065.0109837.0737875-.0047247.147269-.011888.2211788-.0149362.1494715-.0061675.2984332-.0024386.4477518.0052835.8424712-.0055026 1.5240676-.6846529 1.5295901-1.5241005-.0179931-.8341984-.6923871-1.5061721-1.5295901-1.5241006z" fill="#a8a7a7"/><path d="m381.626807 359h-364.2536044c-9.59040084-.010508-17.3624096-7.77371-17.3732026-17.353516v-324.2924734c.01075437-9.57990221 7.78270587-17.34326811 17.3732026-17.3540106h364.2536044c9.590495.0107425 17.362444 7.77410999 17.373193 17.3540106v324.2924734c-.010788 9.579804-7.782793 17.343008-17.373193 17.353516zm-364.2536044-357.02203857c-8.49734089.00965758-15.38338545 6.8880952-15.39305372 15.37604917v324.2924734c.00989201 8.487781 6.89588551 15.365946 15.39305372 15.375555h364.2536044c8.497165-.009614 15.383152-6.887778 15.393044-15.375555v-324.2924734c-.009668-8.48795011-6.895707-15.36638614-15.393044-15.37604917z" fill="#848282"/><path d="m16.433265 221 127.98036-.392955 127.327397-.390959 71.825713-.220542c.799474-.02796 1.433265-.690276 1.433265-1.497772s-.633791-1.469812-1.433265-1.497772l-127.98036.392965-127.3273975.390949-71.8257125.220542c-.7994736.02796-1.433265.690276-1.433265 1.497772s.6337914 1.469812 1.433265 1.497772z" fill="#a8a7a7"/><path d="m81.1577329 218.555328.8419876-47.110653c.0344268-1.926044-3.1230161-1.926423-3.1574534 0l-.8419876 47.110653c-.0344268 1.926045 3.1230161 1.926414 3.1574534 0z" fill="#e6e6e6"/><path d="m142.723938 218.575133 1.769585-58.450204.505577-16.700062c.057556-1.90094-2.665555-1.898705-2.723038 0l-1.769585 58.450204-.505577 16.700062c-.057556 1.90094 2.665555 1.898705 2.723038 0z" fill="#a8a7a7"/><path d="m203.209812 115.431236c-1.092663 20.837582-3.11451 82.299976-4.207173 103.137528-.100231 1.91135 2.687643 1.905276 2.787549 0 1.092663-20.837582 3.11451-82.299966 4.207173-103.137528.100231-1.91135-2.687634-1.905276-2.787549 0z" fill="#a8a7a7"/><path d="m263.393941 197.64524-.393613 19.926796c-.037613 1.903868 3.173463 1.904036 3.211075 0 .464878-23.53495 1.657065-22.767785 1.788269-29.410074.037602-1.903868-3.173473-1.904035-3.211075 0 0 0-.929777-14.051622-1.394656 9.483278z" fill="#a8a7a7"/><path d="m324 145.432795.296191 56.077098.084812 16.057312c.024445.799212.603507 1.432795 1.309498 1.432795.705992 0 1.285054-.633583 1.309499-1.432795l-.296191-56.077098-.084812-16.057312c-.024445-.799212-.603507-1.432795-1.309498-1.432795-.705992 0-1.285054.633583-1.309499 1.432795z" fill="#a8a7a7"/><path d="m16.5774962 219.192844c-2.4579457-6.780397 3.0827981-13.301786 8.7760234-16.232142 6.8208359-3.510739 14.6673608-4.30649 21.5605029-7.69092 10.2765678-5.045605 17.7616903-14.100984 24.4220668-23.165118 6.8552717-9.32937 13.1277385-19.342104 21.8385329-27.093674 4.5901801-4.175676 10.0114848-7.325098 15.9050988-9.239816 7.425872-2.326344 15.301398-2.485929 22.974527-1.548398 15.855528 1.937291 30.553702 8.511203 45.852329 12.689417 14.423688 3.939268 30.31578 6.154485 44.473216.028706 7.192909-3.112308 13.074883-8.332134 19.392574-12.849142 6.114153-4.417458 12.950555-7.727903 20.200473-9.781836 14.211748-3.967099 29.732094-2.9078 42.963229 3.798611 12.162392 6.08538 21.792314 16.288147 27.190073 28.807501 6.272635 15.041903 5.455976 31.851179 3.406954 47.683746-.529652 4.092464-1.159978 8.171246-1.797163 12.247971-.293323 1.876671 2.567588 2.685041 2.863385.792433 2.551751-16.325949 5.095306-33.168968 1.920524-49.597658-2.744927-14.34525-10.602959-27.194921-22.103646-36.144493-11.549187-8.973973-25.906296-13.522396-40.494771-12.829002-7.644829.356134-15.170773 2.036359-22.245338 4.966443-7.343806 3.049312-13.562486 7.568934-19.879119 12.32464-6.494513 4.889606-13.189325 8.934068-21.252462 10.52876-7.821057 1.546818-15.957222.966981-23.744021-.493482-16.067083-3.013492-31.043237-9.921439-46.973962-13.460914-14.7598-3.279325-30.686932-3.606991-43.903823 4.763307-10.1668464 6.438661-17.3508465 16.434413-24.2453644 26.086462-6.8340797 9.567422-13.7545705 19.798175-23.7478028 26.333783-6.0960219 3.986823-12.9486507 5.457888-19.7680019 7.699923-6.83696 2.247817-13.4005224 6.03993-16.188236 13.071534-1.2014711 2.895977-1.2937813 6.135648-.2591739 9.09583.6483308 1.788467 3.5190406 1.016255 2.8633752-.792433z" fill="#a8a7a7"/><path d="m80.5 165.499-.004.002.008-.002z" fill="#e6e6e6"/><path d="m85.1495082 162.910034c-1.4272485-2.434244-4.4715105-3.51937-7.2003662-2.566566-1.3271577.466528-2.4019037 1.430297-2.9796558 2.671981-.0572489.130616-.0907131.267972-.1374353.401804-.0647951.100902-.1426787.192012-.2007252.297561-1.2785388 2.453721-.5665912 5.436229 1.69622 7.105845 2.2628113 1.669616 5.4381714 1.555359 7.5653171-.272218 2.2330486-1.944093 2.7563128-5.124708 1.2566454-7.638407zm-5.228812 2.668236.0393655-.017348c-.0096269.000856-.0193049-.000995-.0278619-.005328l.0011564-.000183.0308424.003697.0057817-.002525-.0178236-.003985c.0154511-.000518.0172156.001527.0182523.003841.1778973-.078456.0574383-.040726-.0456955-.009956l-.0068782-.001527c-.0644107-.031487-.1336241-.052877-.2050315-.063364-.0065792-.003571-.0144244-.006154-.019937-.009965-.0572589-.039257-.3466237-.25695-.0781827-.028706-.0584153-.049693-.1161526-.098502-.1710988-.152121-.032389-.032029-.0617463-.066777-.0877226-.103831-.0352219-.058186-.0693739-.116884-.1024559-.176094l-.0049843-.031931c-.0043761-.026546-.0076657-.037558-.0113142-.053495.0017046-.016475.0044459-.034169.0071175-.051334.0200441-.05179.0328137-.105927.0379699-.160974l.0115634-.014055c.0429542-.057719.0805552-.125048.1215556-.185051-.2167146.317011.084732-.034985.1072707-.07958.0038279-.007613-.002861-.003456-.0012162-.008727.0087623-.004694.0060808-.001469.0166673-.00744.0671676-.038095.1308163-.080578.1990205-.116964.0812231-.043366.4011911-.130847.0693607-.039497.0753815-.020737.1477227-.046937.2239018-.0661.0138063-.003456.125513-.01851.1856927-.028946.0528329-.001286.1041007-.002813.1095136-.002757.0248215.000299.049643.003228.0744744.004284-.0550658.007094.1889724.057891.2614431.068615.010457.007911.01581.013009.030055.023041.0612662.043126.1358005.081452.2004759.121707-.2891853-.180011.0037681.014296.0590134.067502.0330355.031816.0634592.065745.0945509.099203.0284937.031858.0542538.065892.0770264.101766.0474001.083679.0978405.168356.1476629.250681l.0138163.021122c-.0002876.002708-.0004307.005428-.0004286.008151.0259701.133522.0642921.264539.1145078.391483.0024669.010741.0043568.021598.0056621.032527.0046154.073128.0109653.146025.0111248.219566l-.0006679.014881c-.467158-.234582-1.0229638-.238408-1.4935561-.010283z" fill="#a8a7a7"/><path d="m80.499424 165.499265c.00434.00134.00019.0011-.00079.00147z" fill="#e6e6e6"/><path d="m80.49945 165.49982.0011.00036z" fill="#e6e6e6"/><path d="m80.50226 165.499541-.00452.00073c.00573.0006.00366-.0004.00452-.00073z" fill="#e6e6e6"/><path d="m80.499 165.4995.002.001z" fill="#e6e6e6"/><path d="m143.5 137.499-.004.002.008-.002z" fill="#e6e6e6"/><path d="m148.149508 134.910034c-1.427248-2.434244-4.47151-3.51937-7.200366-2.566566-1.327158.466528-2.401904 1.430297-2.979656 2.671981-.057249.130616-.090713.267972-.137435.401804-.064795.100902-.142679.192012-.200725.297561-1.278539 2.453721-.566591 5.436229 1.69622 7.105845s5.438171 1.555359 7.565317-.272218c2.233048-1.944093 2.756313-5.124708 1.256645-7.638407zm-5.228812 2.668236.039366-.017348c-.009644.000865-.01934-.000986-.027912-.005328l.001156-.000183.030843.003697.005781-.002525-.017823-.003985c.015451-.000518.017215.001527.018252.003841.177897-.078456.057438-.040726-.045695-.009956l-.006879-.001527c-.06441-.031487-.133624-.052877-.205031-.063364-.006579-.003571-.014424-.006154-.019937-.009965-.057259-.039257-.346624-.25695-.078183-.028706-.058415-.049693-.116152-.098502-.171099-.152121-.032389-.032029-.061746-.066777-.087722-.103831-.035222-.058186-.069374-.116884-.102456-.176094l-.004984-.031931c-.004376-.026546-.007666-.037558-.011315-.053495.001705-.016475.004446-.034169.007118-.051334.020044-.05179.032814-.105927.03797-.160974l.011563-.014055c.042954-.057719.080556-.125048.121556-.185051-.216715.317011.084732-.034985.107271-.07958.003827-.007613-.002861-.003456-.001217-.008727.008763-.004694.006081-.001469.016668-.00744.067167-.038095.130816-.080578.19902-.116964.081223-.043366.401191-.130847.069361-.039497.075381-.020737.147723-.046937.223902-.0661.013806-.003456.125513-.01851.185692-.028946.052833-.001286.104101-.002813.109514-.002757.024821.000299.049643.003228.074474.004284-.055065.007094.188973.057891.261443.068615.010457.007911.01581.013009.030055.023041.061267.043126.135801.081452.200476.121707-.289185-.180011.003768.014296.059014.067502.033035.031816.063459.065745.094551.099203.028493.031858.054253.065892.077026.101766.0474.083679.097841.168356.147663.250681l.013816.021122c-.000287.002708-.00043.005428-.000428.008151.02597.133522.064292.264539.114507.391483.002467.010741.004357.021598.005663.032527.004615.073128.010965.146025.011124.219566l-.000668.014881c-.467144-.234565-1.022927-.238392-1.493506-.010283z" fill="#a8a7a7"/><path d="m143.50226 137.499541-.00452.00073c.00573.0006.00366-.0004.00452-.00073z" fill="#e6e6e6"/><path d="m143.499 137.4995.002.001z" fill="#e6e6e6"/><path d="m143.499424 137.499265c.00434.00134.00019.0011-.00079.00147z" fill="#e6e6e6"/><path d="m143.49945 137.49982.0011.00036z" fill="#a8a7a7"/><path d="m204.499 151.4995.002.001z" fill="#e6e6e6"/><path d="m210.149508 106.910034c-1.427248-2.434244-4.47151-3.51937-7.200366-2.566566-1.327158.466528-2.401904 1.430297-2.979656 2.671981-.057249.130616-.090713.267972-.137435.401804-.064795.100902-.142679.192012-.200725.297561-1.278539 2.453721-.566591 5.436229 1.69622 7.105845s5.438171 1.555359 7.565317-.272218c2.233048-1.944093 2.756313-5.124708 1.256645-7.638407zm-5.228812 2.668236.039366-.017348c-.009644.000865-.01934-.000986-.027912-.005328l.001156-.000183.030843.003697.005781-.002525-.017823-.003985c.015451-.000518.017215.001527.018252.003841.177897-.078456.057438-.040726-.045695-.009956l-.006879-.001527c-.06441-.031487-.133624-.052877-.205031-.063364-.006579-.003571-.014424-.006154-.019937-.009965-.057259-.039257-.346624-.25695-.078183-.028706-.058415-.049693-.116152-.098502-.171099-.152121-.032389-.032029-.061746-.066777-.087722-.103831-.035222-.058186-.069374-.116884-.102456-.176094l-.004984-.031931c-.004376-.026546-.007666-.037558-.011315-.053495.001705-.016475.004446-.034169.007118-.051334.020044-.05179.032814-.105927.03797-.160974l.011563-.014055c.042954-.057719.080556-.125048.121556-.185051-.216715.317011.084732-.034985.107271-.07958.003827-.007613-.002861-.003456-.001217-.008727.008763-.004694.006081-.001469.016668-.00744.067167-.038095.130816-.080578.19902-.116964.081223-.043366.401191-.130847.069361-.039497.075381-.020737.147723-.046937.223902-.0661.013806-.003456.125513-.01851.185692-.028946.052833-.001286.104101-.002813.109514-.002757.024821.000299.049643.003228.074474.004284-.055065.007094.188973.057891.261443.068615.010457.007911.01581.013009.030055.023041.061267.043126.135801.081452.200476.121707-.289185-.180011.003768.014296.059014.067502.033035.031816.063459.065745.094551.099203.028493.031858.054253.065892.077026.101766.0474.083679.097841.168356.147663.250681l.013816.021122c-.000287.002708-.00043.005428-.000428.008151.02597.133522.064292.264539.114507.391483.002467.010741.004357.021598.005663.032527.004615.073128.010965.146025.011124.219566l-.000668.014881c-.467144-.234565-1.022927-.238392-1.493506-.010283z" fill="#a8a7a7"/><path d="m204.5 151.499-.004.002.008-.002z" fill="#e6e6e6"/><path d="m204.49945 151.49982.0011.00036z" fill="#e6e6e6"/><path d="m204.50226 151.499541-.00452.00073c.00573.0006.00366-.0004.00452-.00073z" fill="#e6e6e6"/><path d="m204.499424 151.499265c.00434.00134.00019.0011-.00079.00147z" fill="#e6e6e6"/><path d="m272.149508 183.910034c-1.427248-2.434244-4.47151-3.51937-7.200366-2.566566-1.327158.466528-2.401904 1.430297-2.979656 2.671981-.057249.130616-.090713.267972-.137435.401804-.064795.100902-.142679.192012-.200725.297561-1.278539 2.453721-.566591 5.436229 1.69622 7.105845s5.438171 1.555359 7.565317-.272218c2.233048-1.944093 2.756313-5.124708 1.256645-7.638407zm-5.228812 2.668236.039366-.017348c-.009644.000865-.01934-.000986-.027912-.005328l.001156-.000183.030843.003697.005781-.002525-.017823-.003985c.015451-.000518.017215.001527.018252.003841.177897-.078456.057438-.040726-.045695-.009956l-.006879-.001527c-.06441-.031487-.133624-.052877-.205031-.063364-.006579-.003571-.014424-.006154-.019937-.009965-.057259-.039257-.346624-.25695-.078183-.028706-.058415-.049693-.116152-.098502-.171099-.152121-.032389-.032029-.061746-.066777-.087722-.103831-.035222-.058186-.069374-.116884-.102456-.176094l-.004984-.031931c-.004376-.026546-.007666-.037558-.011315-.053495.001705-.016475.004446-.034169.007118-.051334.020044-.05179.032814-.105927.03797-.160974l.011563-.014055c.042954-.057719.080556-.125048.121556-.185051-.216715.317011.084732-.034985.107271-.07958.003827-.007613-.002861-.003456-.001217-.008727.008763-.004694.006081-.001469.016668-.00744.067167-.038095.130816-.080578.19902-.116964.081223-.043366.401191-.130847.069361-.039497.075381-.020737.147723-.046937.223902-.0661.013806-.003456.125513-.01851.185692-.028946.052833-.001286.104101-.002813.109514-.002757.024821.000299.049643.003228.074474.004284-.055065.007094.188973.057891.261443.068615.010457.007911.01581.013009.030055.023041.061267.043126.135801.081452.200476.121707-.289185-.180011.003768.014296.059014.067502.033035.031816.063459.065745.094551.099203.028493.031858.054253.065892.077026.101766.0474.083679.097841.168356.147663.250681l.013816.021122c-.000287.002708-.00043.005428-.000428.008151.02597.133522.064292.264539.114507.391483.002467.010741.004357.021598.005663.032527.004615.073128.010965.146025.011124.219566l-.000668.014881c-.467144-.234565-1.022927-.238392-1.493506-.010283z" fill="#a8a7a7"/><path d="m267.5 120.499-.004.002.008-.002z" fill="#e6e6e6"/><path d="m267.49945 120.49982.0011.00036z" fill="#e6e6e6"/><path d="m267.50226 120.499541-.00452.00073c.00573.0006.00366-.0004.00452-.00073z" fill="#e6e6e6"/><path d="m267.499424 120.499265c.00434.00134.00019.0011-.00079.00147z" fill="#e6e6e6"/><path d="m267.499 120.4995.002.001z" fill="#e6e6e6"/><path d="m325.49945 140.49982.0011.00036z" fill="#e6e6e6"/><path d="m331.149508 137.910034c-1.427248-2.434244-4.47151-3.51937-7.200366-2.566566-1.327158.466528-2.401904 1.430297-2.979656 2.671981-.057249.130616-.090713.267972-.137435.401804-.064795.100902-.142679.192012-.200725.297561-1.278539 2.453721-.566591 5.436229 1.69622 7.105845s5.438171 1.555359 7.565317-.272218c2.233048-1.944093 2.756313-5.124708 1.256645-7.638407zm-5.228812 2.668236.039366-.017348c-.009644.000865-.01934-.000986-.027912-.005328l.001156-.000183.030843.003697.005781-.002525-.017823-.003985c.015451-.000518.017215.001527.018252.003841.177897-.078456.057438-.040726-.045695-.009956l-.006879-.001527c-.06441-.031487-.133624-.052877-.205031-.063364-.006579-.003571-.014424-.006154-.019937-.009965-.057259-.039257-.346624-.25695-.078183-.028706-.058415-.049693-.116152-.098502-.171099-.152121-.032389-.032029-.061746-.066777-.087722-.103831-.035222-.058186-.069374-.116884-.102456-.176094l-.004984-.031931c-.004376-.026546-.007666-.037558-.011315-.053495.001705-.016475.004446-.034169.007118-.051334.020044-.05179.032814-.105927.03797-.160974l.011563-.014055c.042954-.057719.080556-.125048.121556-.185051-.216715.317011.084732-.034985.107271-.07958.003827-.007613-.002861-.003456-.001217-.008727.008763-.004694.006081-.001469.016668-.00744.067167-.038095.130816-.080578.19902-.116964.081223-.043366.401191-.130847.069361-.039497.075381-.020737.147723-.046937.223902-.0661.013806-.003456.125513-.01851.185692-.028946.052833-.001286.104101-.002813.109514-.002757.024821.000299.049643.003228.074474.004284-.055065.007094.188973.057891.261443.068615.010457.007911.01581.013009.030055.023041.061267.043126.135801.081452.200476.121707-.289185-.180011.003768.014296.059014.067502.033035.031816.063459.065745.094551.099203.028493.031858.054253.065892.077026.101766.0474.083679.097841.168356.147663.250681l.013816.021122c-.000287.002708-.00043.005428-.000428.008151.02597.133522.064292.264539.114507.391483.002467.010741.004357.021598.005663.032527.004615.073128.010965.146025.011124.219566l-.000668.014881c-.467144-.234565-1.022927-.238392-1.493506-.010283z" fill="#a8a7a7"/><path d="m325.5 140.499-.004.002.008-.002z" fill="#e6e6e6"/><path d="m325.499 140.4995.002.001z" fill="#e6e6e6"/><path d="m325.499424 140.499265c.00434.00134.00019.0011-.00079.00147z" fill="#e6e6e6"/><path d="m325.50226 140.499541-.00452.00073c.00573.0006.00366-.0004.00452-.00073z" fill="#a8a7a7"/><path d="m309.200376 186.353298-46.126723 2.645052c-.539968.031035-1.00904-.379349-1.067599-.934024-.058558-.554675.313882-1.059622.847664-1.149249l47.146282-7.915077z" fill="#3f3d56"/><path d="m368.005927 288.375434 17.246708-29.375434 12.747365 6.095197s-21.965228 27.774434-22.665023 28.573489c.61348 2.763732-.520972 5.624112-2.851975 7.1909s-5.375176 1.515079-7.652949-.129996c-2.277774-1.645074-3.316805-4.542373-2.61209-7.283713.704714-2.741341 3.007038-4.75825 5.787964-5.070443z" fill="#ffb6b6"/><path d="m375.190545 221 28.299913 14.727525c3.576113 2.569712 5.901705 6.523047 6.406407 10.890423.504702 4.367375-.85817 8.744803-3.754364 12.058689l-19.509656 22.323363-8.499268-11.487921 6.550934-13.662761-12.684511-3.336338z" fill="#4299f5"/><path d="m295.71079 186.458613-3.232276 33.517915-14.478514.023472s8.30675-34.109697 8.608708-35.120022c-1.77083-2.197684-1.961736-5.228512-.47993-7.619401 1.481806-2.390888 4.32904-3.646038 7.157852-3.155403 2.828811.490635 5.052588 2.625311 5.5905 5.366503.537913 2.741193-.721587 5.52046-3.16634 6.986985z" fill="#ffb6b6"/><path d="m323 256-32.566091-5.997914c-13.713641-1.656186-19.341507-10.718029-16.86709-19.556846l7.963185-28.44524 12.501165 6.730905-.048062 15.110743 17.498979-2.40265z" fill="#4299f5"/><path d="m309.998057 489h-8.807894l-4.190163-35h13z" fill="#ffb6b6"/><path d="m309.999528 499-27.999528-.001045v-.350977c.000427-5.965695 4.879493-10.801715 10.898195-10.802044h.000683l5.114465-3.845934 9.542479 3.846521 2.444178.00008z" fill="#2f2e41"/><path d="m374.001943 489h8.807894l4.190163-35h-13z" fill="#ffb6b6"/><path d="m373.000472 499 27.999528-.001045v-.350977c-.000422-5.965697-4.87949-10.80172-10.898195-10.802044h-.000673l-5.114475-3.845934-9.542479 3.846521-2.444178.00008z" fill="#2f2e41"/><path d="m296.017309 429.445513c.132868-1.972274 1.189357-12.879657 1.189357-12.879657l2.530551-23.131739 4.46008-61.317015 3.975499-16.117102 19.678809 7.635661 15.967745-7.62444 18.979115 6.042875 14.778388 5.519856s.025291 2.362955.13916 5.217421c.151866 3.736649.417522 8.317595 1.050157 9.508528 1.0565 2.104624.790804 13.402677.790804 13.402677s1.050157 22.986785 2.372382 25.50726 1.587891 7.769404 1.189367 8.821691c-.398523 1.052287 1.322225 28.657864 1.322225 28.657864s4.416476 48.851597 1.645521 56.217745-13.241764 2.540989-13.241764 2.540989.5061-1.965977-2.530551-2.892272-12.285843-70.195434-12.285843-70.195434-1.720749-14.202939-3.302337-18.27349c-1.581588-4.070552-3.036641-15.507261-3.036641-15.507261s-9.767918-18.92884-9.894453-23.138037c0 0-1.277946-3.938252-2.486262.396977-1.208315 4.33523-4.770064 14.719603-4.770064 14.719603l-3.473171 12.753595-4.086857 19.054832-2.644421 16.042885s-3.960312 21.291755-4.592947 22.211743c-.632635.919987 0 20.371807 0 20.371807s-3.061942 16.565855-7.389204 19.458127-15.791829.045932-15.791829.045932-.675684-41.079386-.542816-43.051621z" fill="#2f2e41"/><path d="m310.571057 263.315591-2.519917 32.350074-3.786023 3.88283c-.689754.707397-1.059127 1.662606-1.023047 2.645631.03608.983024.474502 1.909118 1.214292 2.56499l-2.085848 3.544534-.738504 11.168572c-.426502 1.759474-.038677 3.615771 1.05774 5.062793 1.096416 1.447022 2.787101 2.333888 4.611108 2.418806l65.285875 3.03948c1.813521.084432 3.57141-.632657 4.799398-1.957801 1.227987-1.325144 1.799551-3.121809 1.560486-4.905266l-5.551421-41.414742v-3.096682l-2.485271-5.980396 1.277347-20.034318 2.971164-31.79874-17.270854-4.420807-9.364193-6.384549-16.26841.256677-9.871383 8.033938-13.161794 2.042641-9.953796 1.960706-1.268006 2.730776 2.536002-.546159 9.191866 35.527321z" fill="#4299f5"/><circle cx="340" cy="187" fill="#ffb6b6" r="19"/><path d="m335.80633 205 13.805208-.702725c1.768899-.090068 3.699538-.245954 4.986167-1.460749.692085-.750242 1.224447-1.632816 1.564872-2.594314 1.276285-2.958534 2.55261-5.917137 3.796296-8.889477 1.720283-4.11138 3.409801-8.452432 2.970692-12.886253-.102984-2.024817-.953924-3.939783-2.38857-5.375266-1.50561-1.422566-3.783167-1.652879-5.54412-.560637-.431038-2.841552-2.146845-5.327728-4.653407-6.74271-2.498222-1.377361-5.350911-1.980944-8.194262-1.733772-4.126001.265442-8.064884 1.814714-11.262852 4.429991-.899424.828109-1.859884 1.587653-2.873281 2.272228-1.030154.687425-2.298337.921593-3.506757.647517-1.224734-.326681-2.02006-1.505184-1.863009-2.760583-2.014605 1.503227-2.555234 4.287846-1.248991 6.433185-1.457694.609419-3.128768.412126-4.403728-.519918-1.831455.907002-2.990054 2.771019-2.990588 4.811417-.000533 2.040398 1.157092 3.905018 2.988072 4.812974 1.83098.907955 4.0193.702539 5.648511-.530223.837861 1.171167.525839 2.762721.416674 4.197617-.109164 1.434896.276448 3.218166 1.662562 3.614761 1.873909.536149 3.39177-1.981884 5.340985-1.955062.976483.07931 1.848705.640228 2.324531 1.494885.459318.845652.773822 1.761949.930523 2.711046l2.494661 11.207976" fill="#2f2e41"/><path d="m872.367749 376.335369c0-2.957264-.991563-5.357305-2.208972-5.362796h-331.884919c-1.222912.005491-2.208973 2.405532-2.214446 5.362796v121.735227c.000126.568878-.431034 1.044875-.996343 1.099953-.890781.085631-1.781561.165331-2.672342.2391-.02206 0-.04408.005532-.06614.005532-.484717.04411-.969474.077208-1.45423.115837h-.005513c-.249354-.461765-.495818-.927554-.739392-1.397369-.082366-.158274-.125452-.334112-.125452-.512596v-128.24298c0-.816584.033046-1.63866.088082-2.449683.07863-1.113713.21654-2.222429.413143-3.321421.930945-5.12555 3.035219-8.595956 5.425946-8.606969h336.57274c.3489.002301.693706.075478 1.013554.215102.469792.208223.894537.506203 1.250455.877259.48314.503054.896332 1.069077 1.228404 1.68276 1.371506 2.737549 2.161177 5.73027 2.319114 8.789053 0 .033098.005513.066206.005513.099303.077126.893833.115654 1.80417.110171 2.714536l.077096 11.823555.049593 7.051089.14874 22.124367.055076 7.85667.242373 80.662843c0 .609422-.493249 1.103463-1.101705 1.103463h-4.428831c-.60846 0-1.101715-.494037-1.101715-1.103463z" fill="#a8a7a7"/><path d="m783.069469 300h-36.143937c-1.064708.001628-1.926636.850755-1.925531 1.896933v56.103067h40v-56.103067c0-.503178-.203045-.985822-.565147-1.341622-.362103-.355801-.853295-.555311-1.365385-.555311zm-17.950355 31.877082c-2.35259-.01077-4.257031-1.882059-4.268004-4.193706v-6.470998c0-2.316122 1.910844-4.19371 4.267989-4.19371s4.267988 1.877588 4.267988 4.19371v6.470998c-.01094 2.311649-1.915381 4.182951-4.267973 4.193706z" fill="#ccc"/><path d="m745 356v5.855322c.001209.63166.479693 1.143397 1.070297 1.144678h37.859426c.58987-.003158 1.067324-.513802 1.070277-1.144678v-5.855322z" fill="#3f3d56"/><path d="m842.038698 211h-153.077386c-2.738238.004351-4.956936 2.218729-4.961312 4.951651v103.096747c.002661 2.733625 2.222371 4.94899 4.961312 4.951602h153.077386c2.73894-.002612 4.958647-2.217979 4.961302-4.951602v-103.096747c-.004371-2.73292-2.223066-4.9473-4.961302-4.951651z" fill="#d0cdcd"/><path d="m840.34377 215h-150.68753c-1.467834.003179-2.65624 1.192045-2.65624 2.657579v100.69036c.002523 1.463652 1.190287 2.649547 2.65624 2.652061h150.68753c1.465951-.002514 2.653712-1.188411 2.65623-2.652061v-100.69036c0-1.46553-1.1884-2.654395-2.65623-2.657579z" fill="#fff"/><path d="m811.349926 364h-89.699815c-.497267 0-.968019-.226274-1.281341-.6159s-.435799-.90105-.33337-1.392047l1.391861-6.670123c.163207-.768828.835206-1.319074 1.614433-1.32193h86.916619c.779225.002863 1.45122.553106 1.614434 1.32193l1.391851 6.670123c.102432.490996-.020042 1.00242-.333363 1.392047s-.784072.6159-1.281339.6159z" fill="#ccc"/><g fill="#e6e6e6"><rect height="2" rx=".48819" width="3" x="724" y="356"/><rect height="2" rx=".48819" width="3" x="729" y="356"/><rect height="2" rx=".48819" width="3" x="735" y="356"/><rect height="2" rx=".48819" width="3" x="740" y="356"/><rect height="2" rx=".48819" width="3" x="746" y="356"/><rect height="2" rx=".48819" width="3" x="751" y="356"/><rect height="2" rx=".48819" width="3" x="757" y="356"/><rect height="2" rx=".48819" width="3" x="762" y="356"/><rect height="2" rx=".48819" width="3" x="768" y="356"/><rect height="2" rx=".48819" width="3" x="773" y="356"/><rect height="2" rx=".48819" width="3" x="779" y="356"/><rect height="2" rx=".48819" width="3" x="784" y="356"/><rect height="2" rx=".48819" width="3" x="790" y="356"/><rect height="2" rx=".48819" width="3" x="795" y="356"/><rect height="2" rx=".48819" width="3" x="801" y="356"/><rect height="2" rx=".48819" width="3" x="806" y="356"/><rect height="2" rx=".48819" width="3" x="724" y="358"/><rect height="2" rx=".48819" width="3" x="729" y="358"/><rect height="2" rx=".48819" width="3" x="735" y="358"/><rect height="2" rx=".48819" width="3" x="740" y="358"/><rect height="2" rx=".48819" width="3" x="746" y="358"/><rect height="2" rx=".48819" width="3" x="751" y="358"/><rect height="2" rx=".48819" width="3" x="757" y="358"/><rect height="2" rx=".48819" width="3" x="762" y="358"/><rect height="2" rx=".48819" width="3" x="768" y="358"/><rect height="2" rx=".48819" width="3" x="773" y="358"/><rect height="2" rx=".48819" width="3" x="779" y="358"/><rect height="2" rx=".48819" width="3" x="784" y="358"/><rect height="2" rx=".48819" width="3" x="790" y="358"/><rect height="2" rx=".48819" width="3" x="795" y="358"/><rect height="2" rx=".48819" width="3" x="801" y="358"/><rect height="2" rx=".48819" width="3" x="806" y="358"/><rect height="2" rx=".48819" width="22" x="750" y="362"/></g><path d="m833.452 229h-140.904c-.304605-.00605-.548-.228126-.548-.5s.243395-.49395.548-.5h140.904c.304605.00605.548.228126.548.5s-.243395.49395-.548.5z" fill="#cacaca"/><circle cx="701.5" cy="221.5" fill="#ccc" r="3.5"/><circle cx="713.5" cy="221.5" fill="#ccc" r="3.5"/><circle cx="724.5" cy="221.5" fill="#ccc" r="3.5"/><path d="m826.41828 219h-7.836521c-.323138.005378-.581759.227652-.581759.5s.258621.494622.581759.5h7.836482c.323138-.005378.581759-.227652.581759-.5s-.258621-.494622-.581759-.5z" fill="#ccc"/><path d="m826.418482 221h-7.836925c-.323064.005487-.581557.227729-.581557.5s.258493.494513.581557.5h7.836886c.323064-.005487.581557-.227729.581557-.5s-.258493-.494513-.581557-.5z" fill="#ccc"/><path d="m826.41828 224h-7.836521c-.323138.005378-.581759.227652-.581759.5s.258621.494622.581759.5h7.836482c.323138-.005378.581759-.227652.581759-.5s-.258621-.494622-.581759-.5z" fill="#ccc"/><rect fill="#4299f5" height="5" rx="2.41507" width="22" x="754" y="259"/><rect fill="#e6e6e6" height="5" rx="2.41507" width="45" x="743" y="269"/><rect fill="#e6e6e6" height="5" rx="2.41507" width="45" x="743" y="278"/><path d="m514.071248 427-8.071248-3.902342 11.087367-34.097658 11.912633 5.757848z" fill="#ffb6b6"/><path d="m568 421.521976c-.596381.363941-1.192763.721859-1.795175 1.079933-1.198834.715983-2.40964 1.420234-3.620496 2.112724-.608443.346314-1.222908.692637-1.831351 1.033074v.017481l-.036146.005856-.012022.005856-.927698.2231-1.331306-3.427508-.614465-1.578701-.867477-2.236074-1.590371-4.09063-8.373493-21.538926 13.018093-3.128161.487953 1.942642h.006011l.240941.962439 4.548233 17.970714.927698 3.673955.030115.111471.560235 2.194974.481962 1.901531.536111 2.124612z" fill="#ffb6b6"/><path d="m644.749798 345.131294c-.81316 1.311531-1.644146 2.617103-2.481035 3.910738-1.555129 2.408426-3.151776 4.7811-4.78994 7.118024 0 .005949-.005922.005949-.011845.011897-.955744.889239-2.011476 1.6635-3.145804 2.307095-.047489.035771-.100891.059605-.14838.089407-.835332.463762-1.72447.822181-2.647242 1.067125-.332384.083438-.670711.166906-1.003106.250374-1.198936.286144-2.386036.530588-3.567234.745191-2.101151.37558-4.178563.643849-6.244109.810754-.166207.017905-.332385.029802-.498592.041729-8.493689.625953-16.761867-.381538-25.392042-2.032848-4.261715-.810794-8.612407-1.782515-13.117452-2.790017-1.471996-.333841-2.949924-.661714-4.44568-.989586-.112776-.023794-.231494-.053676-.350212-.07751-2.136755-.470924-4.309135-.93596-6.534936-1.394998-2.801575-.578256-5.692155-1.138637-8.695511-1.669215l.213666 4.250547c.177831 3.269789.854448 6.492772 2.006203 9.556304 1.282089 3.767666 2.29703 6.748412.154332 12.954319l-1.032778 3.004639c1.085299 3.024646.696429 6.385344-1.050586 9.079381l-.207734.315946 8.612408 21.88462.557936 1.418841h-4.410106l-5.425007.005949h-9.194063l-13.265842-26.731378-.635107-1.27577v-.065563l1.371076-51.370213c.017817-.45308.053431-.912107.112775-1.365187.488439-4.160645 2.620684-7.949753 5.917696-10.516048 3.159239-2.47985 7.176665-3.583637 11.152777-3.064224l4.540639.590183 9.277176 1.204239 6.534937.852483.130603.017846 19.272514 2.503842 1.38298-5.663421.255224-.095374 8.113835-2.986715 28.062974-10.331287.071229-.023794 1.845928-.679619.219609.357675c.065316.107341.130592.214642.189937.321944 1.824452 3.285156 3.310101 6.748864 4.433825 10.337216 1.88956 5.861872 3.445194 11.827074 4.659347 17.86663.053441.26231.100924.500773.142448.715389l.017826.065563c.017768.101333.029673.166905.035605.18481.556285 3.125697.212419 6.345944-.991162 9.282067z" fill="#2f2e41"/><path d="m646.561807 326.065808c-.089124-.37912-.201986-.764121-.320756-1.137311-.943039-2.826486-2.041627-5.598975-3.290763-8.304845-1.401841-3.080257-3.082889-6.379681-5.084673-9.951597-.968233-1.729698-2.009722-3.528482-3.124468-5.396352-.558367-.935928-1.138509-1.889625-1.740427-2.861089-.02354-.044696-.049316-.088184-.07723-.130301l-.172242-.284313-27.787522 3.708147-10.347545 1.3802-.617753 5.141652-.148494 1.273572c-.005927 0-.005927 0 0 .005911l-.415817 3.471198v.005911l-.552416 4.584827-.047526-.005911-15.354997-1.984369-15.824266-2.043643-8.500202-1.095838c-3.979227-.517141-8.000122.579725-11.161317 3.044713-3.298844 2.550574-5.432527 6.315274-5.922174 10.449167-.053472.414663-.089114.841138-.106955 1.261721l-8.019048 18.949468c-4.798531 11.332737-7.854455 23.322774-9.064532 35.565039l-5.880684 18.748082.837531.077006 12.46219 1.155103 3.290773.308044 7.246884-10.549865c.825676-1.202496 1.609764-2.440506 2.340379-3.708157 1.202939-2.070382 2.272336-4.215114 3.201689-6.421154l15.675772-37.19995c1.211765.207386 2.411653.404838 3.599664.592357 5.494573.888571 10.769331 1.613216 15.824276 2.173935 16.436083 1.830396 30.668425 1.972558 43.338539.420642 3.558085-.432411 6.997368-1.001073 10.317849-1.705986 1.217732-.25475 2.419603-.529212 3.605611-.823386.279158-.065155.552417-.130301.825667-.201416 4.988285-1.282884 8.981812-5.004301 10.602963-9.880501.952484-2.780919 1.088494-5.775309.39202-8.630711z" fill="#2f2e41"/><path d="m516.847098 421.944578-8.858338-4.272804-1.389169-.671774-2.2191 5.483223-15.491605 3.431588c-1.572231.346805-2.737398 1.682673-2.875287 3.296527-.137888 1.613854.783578 3.130285 2.273904 3.7421l15.136772 6.215548 4.805035-4.351483-1.178724 5.840327 5.701084 2.34217 6.24833-20.014396z" fill="#2f2e41"/><path d="m570.217 414 .566 1h-.566z" fill="#2f2e41"/><path d="m567.385901 414.781688-9.127108 3.223912-1.432508.504372 2.2192 5.446388-8.465125 13.356026c-.860128 1.354458-.755844 3.121871.257344 4.36145 1.013187 1.239578 2.699593 1.662974 4.161546 1.044815l14.849636-6.277314.365732-6.469319 3.191645 4.965307 5.593737-2.363461-9.394122-18.573864z" fill="#2f2e41"/><path d="m511.747694 217.738011c.886007 1.743726 2.491092 3.001456 4.383362 3.434761 1.892269.433304 3.877343-.002327 5.42108-1.189673l19.410844 13.016901.03702-12.230245-18.438541-10.486084c-2.194664-2.543394-5.925641-3.026643-8.684525-1.124849-2.758885 1.901794-3.673632 5.5875-2.12924 8.579149z" fill="#ffb6b6"/><path d="m526 224.220402 8.988141-10.220402 36.597284 21.715804 48.51363-4.440654c4.854874-.444245 9.655927 1.29273 13.101521 4.740003 3.445595 3.447274 5.178743 8.247686 4.729564 13.099772-.844503 9.012293-8.828724 15.640357-17.847195 14.815764l-54.638125-5.05481z" fill="#ccc"/><path d="m638.942132 224.279017-.083721-.106307c-13.868283-1.381744-27.241217 5.614764-34.121083 17.851614l-4.095117 7.283746c-13.245955 16.351125-3.620614 27.627311-3.044401 29.304178l-4.59781 21.405581 1.0305 7.163788.514661 2.12802 52.483327 27.690363c2.988064-14.496361.098823-26.849356-10.787182-36.286027l10.53266-33.090764c4.743107-14.860686 1.803012-31.132237-7.831834-43.344192z" fill="#ccc"/><path d="m597.206595 385h-16.667531c-1.895336-.00144-3.501083-1.435465-3.767165-3.364305-1.029199-7.784211-1.029199-15.675752 0-23.459963.262778-1.904111 1.832468-3.329883 3.703231-3.363697 5.244176-2.416147 10.891632-2.415847 16.788828-.0003 1.111754.015161 2.160092.534817 2.863832 1.419588.734098.920816 1.025925 2.132377.794595 3.298871-1.338877 6.848567-1.338877 13.902482 0 20.75105.23133 1.166494-.060497 2.378054-.794595 3.298871-.716399.900806-1.789255 1.422279-2.921195 1.419885z" fill="#4299f5"/><path d="m595.104124 362.999961h-14.208248c-.319123.003166-.615214-.18673-.775592-.49742-.160379-.31069-.160379-.694392 0-1.005082.160378-.31069.456469-.500586.775592-.49742h14.208248c.319123-.003166.615214.18673.775592.49742.160379.31069.160379.694392 0 1.005082-.160378.31069-.456469.500586-.775592.49742z" fill="#fff"/><path d="m595.104124 370.999961h-14.208248c-.319123.003166-.615214-.18673-.775592-.49742-.160379-.31069-.160379-.694392 0-1.005082.160378-.31069.456469-.500586.775592-.49742h14.208248c.319123-.003166.615214.18673.775592.49742.160379.31069.160379.694392 0 1.005082-.160378.31069-.456469.500586-.775592.49742z" fill="#fff"/><path d="m595.103645 377.999955h-14.20729c-.319227.003386-.615501-.18646-.775989-.497239-.160488-.310778-.160488-.694654 0-1.005432.160488-.310779.456762-.500625.775989-.497239h14.20729c.319227-.003386.615501.18646.775989.497239.160488.310778.160488.694654 0 1.005432-.160488.310779-.456762.500625-.775989.497239z" fill="#fff"/><path d="m514.206595 224h-16.667531c-1.895336-.00144-3.501083-1.435465-3.767165-3.364305-1.029199-7.784211-1.029199-15.675752 0-23.459963.262778-1.904111 1.832468-3.329883 3.703231-3.363697 5.244176-2.416147 10.891632-2.415847 16.788828-.0003 1.111754.015161 2.160092.534817 2.863832 1.419588.734098.920816 1.025925 2.132377.794595 3.298871-1.338877 6.848567-1.338877 13.902482 0 20.75105.23133 1.166494-.060497 2.378054-.794595 3.298871-.716399.900806-1.789255 1.422279-2.921195 1.419885z" fill="#4299f5"/><path d="m513.104124 202.999961h-14.208248c-.319123.003166-.615214-.18673-.775592-.49742-.160379-.31069-.160379-.694392 0-1.005082.160378-.31069.456469-.500586.775592-.49742h14.208248c.319123-.003166.615214.18673.775592.49742.160379.31069.160379.694392 0 1.005082-.160378.31069-.456469.500586-.775592.49742z" fill="#fff"/><path d="m513.104124 209.999961h-14.208248c-.319123.003166-.615214-.18673-.775592-.49742-.160379-.31069-.160379-.694392 0-1.005082.160378-.31069.456469-.500586.775592-.49742h14.208248c.319123-.003166.615214.18673.775592.49742.160379.31069.160379.694392 0 1.005082-.160378.31069-.456469.500586-.775592.49742z" fill="#fff"/><path d="m513.103645 216.999955h-14.20729c-.319227.003386-.615501-.18646-.775989-.497239-.160488-.310778-.160488-.694654 0-1.005432.160488-.310779.456762-.500625.775989-.497239h14.20729c.319227-.003386.615501.18646.775989.497239.160488.310778.160488.694654 0 1.005432-.160488.310779-.456762.500625-.775989.497239z" fill="#fff"/><path d="m217.206595 268h-16.667531c-1.895336-.00144-3.501083-1.435465-3.767165-3.364305-1.029199-7.784211-1.029199-15.675752 0-23.459963.262778-1.904111 1.832468-3.329883 3.703231-3.363697 5.244176-2.416147 10.891632-2.415847 16.788828-.0003 1.111754.015161 2.160092.534817 2.863832 1.419588.734098.920816 1.025925 2.132377.794595 3.298871-1.338877 6.848567-1.338877 13.902482 0 20.75105.23133 1.166494-.060497 2.378054-.794595 3.298871-.716399.900806-1.789255 1.422279-2.921195 1.419885z" fill="#4299f5"/><path d="m215.104124 246.999961h-14.208248c-.319123.003166-.615214-.18673-.775592-.49742-.160379-.31069-.160379-.694392 0-1.005082.160378-.31069.456469-.500586.775592-.49742h14.208248c.319123-.003166.615214.18673.775592.49742.160379.31069.160379.694392 0 1.005082-.160378.31069-.456469.500586-.775592.49742z" fill="#fff"/><path d="m215.104124 253.999961h-14.208248c-.319123.003166-.615214-.18673-.775592-.49742-.160379-.31069-.160379-.694392 0-1.005082.160378-.31069.456469-.500586.775592-.49742h14.208248c.319123-.003166.615214.18673.775592.49742.160379.31069.160379.694392 0 1.005082-.160378.31069-.456469.500586-.775592.49742z" fill="#fff"/><path d="m215.103645 260.999955h-14.20729c-.319227.003386-.615501-.18646-.775989-.497239-.160488-.310778-.160488-.694654 0-1.005432.160488-.310779.456762-.500625.775989-.497239h14.20729c.319227-.003386.615501.18646.775989.497239.160488.310778.160488.694654 0 1.005432-.160488.310779-.456762.500625-.775989.497239z" fill="#fff"/><path d="m601.840105 363.061416c1.646969-.98689 2.77841-2.663083 3.089873-4.577547.311464-1.914465-.229044-3.870542-1.476084-5.341889l11.546106-20.14198-11.917226.681352-9.13733 19.022703c-2.349454 2.340271-2.602016 6.093191-.587887 8.735624s5.65832 3.339153 8.482538 1.621747z" fill="#ffb6b6"/><path d="m606.782016 348-10.782016-8.349474 19.592209-37.748437-7.341304-48.071224c-.734516-4.810601.721002-9.696793 3.971942-13.333862s7.960485-5.648192 12.851812-5.488125c9.085803.307495 16.206438 7.869559 15.91681 16.90354l-1.813867 54.735602z" fill="#ccc"/><path d="m86.3916069 338.021945c1.380202-1.379057 2.0750553-3.295036 1.8975849-5.232375s-1.2090339-3.697025-2.8171114-4.805551l10.5279196-51.984019-11.6261183 3.710867-8.4271112 50.28157c-1.7321717 2.872036-1.0298024 6.578108 1.6349059 8.626628s6.4495116 1.792005 8.8098907-.59709z" fill="#9e616a"/><path d="m102.017071 227.428574-7.1724313-5.426193s-6.3272035-.449061-7.447813 10.986736c-1.1206096 11.435796-3.4215781 33.722314-3.4215781 33.722314l-10.9752486 50.946436 15.1927116 3.342133 11.7552761-54.980225 7.0520123-16.327061z" fill="#9dc4ed"/><path d="m90 310 40.615155-.666713 3.384845-27.333287h-44z" fill="#9e616a"/><path d="m126.002011 481h9.485526l4.512463-36-14 .00099z" fill="#9e616a"/><path d="m68 481 9.6639344-.066122 4.3360656-35.933878-12.5686475 2.777126z" fill="#9e616a"/><path d="m97.1241539 258.292887-2.1241539 5.579247.4244332 5.580251 41.5755668 14.547615-2.062527-24.419749-4.673735-5.580251z" fill="#ffb6b6"/><circle cx="115" cy="194" fill="#9e616a" r="15"/><path d="m123.84042 475.872772 14.595843-.872772v6.264986l13.87667 9.601346c1.40685.973144 2.018569 2.749763 1.509798 4.384913-.508771 1.635151-2.019803 2.748755-3.729412 2.748755h-17.376899l-2.995164-6.197032-1.169467 6.197032h-6.551789z" fill="#2f2e41"/><path d="m64.687247 476.970271 14.602176-.970271.0438059 6.23375 13.9556399 9.456632c1.4148595.958472 2.0395281 2.721967 1.5417574 4.352518-.4977708 1.63055-2.0023071 2.749244-3.7133774 2.761071l-17.3916933.121249-3.0410655-6.14523-1.1271175 6.174291-6.5573725.045719z" fill="#2f2e41"/><path d="m65.1215975 454.112854 6.7791258-54.450969 8.0655518-57.409606c-5.9065679-11.02286 7.3934134-45.252279 7.3934134-45.252279l1.8773602.090517 42.4923003 8.055464-.00916-.041092c8.691072 23.820342 11.57052 35.588098 11.094241 60.954451l-1.712198 91.18658h.537121c1.856034 0 3.360647 1.511951 3.360647 3.377037 0 1.865087-1.504613 3.377043-3.360647 3.377043h-16.803203c-1.202015.002065-2.313606-.641142-2.915209-1.686851-.601604-1.045709-.601604-2.334674 0-3.380383.601603-1.04571 1.713194-1.688916 2.915209-1.686846h.433244l-15.423313-108.576094-13.0765837 45.588826-14.7868367 59.435797c5.3770279-1.350814 4.5421357 1.778988 4.5421357 3.55152-.0000055 1.865085-1.5046192 3.377033-3.3606524 3.377033h-16.8031729c-1.6121904.001685-2.9979365-1.148469-3.3008504-2.73967-.3029139-1.591202.5625454-3.174104 2.0615262-3.770478z" fill="#2f2e41"/><path d="m84.0097573 299.260779 1.3430145-13.439414c.2861257-1.124747 1.2634388-1.937199 2.4207867-2.012429.5595647-6.402061 2.9138289-34.021049 3.0544868-35.225583l.0054926-.050939 1.0705539-22.885815c.0804802-1.720853 1.4398514-3.106615 3.1576826-3.218986l5.6544486-.369868c.16123-.005432.28913-.137794.289145-.299231-.000007-1.26203.500965-2.472374 1.392709-3.364769.891743-.892395 2.101212-1.393745 3.362334-1.393745h16.74098c2.243554.000911 4.135882 1.672336 4.415448 3.900006.015399.15374.146461.269711.300821.266183h.001972c3.931008-.08105 7.331293 2.724514 8.00109 6.601674 2.288698 13.325861 6.875423 43.570513 4.60767 60.3848-.789436 5.853334.912353 1.217333 1.210936 6.1148.059856.955863-.262836 1.896273-.896862 2.613694 1.337576.486516 2.034722 1.959696 1.5633 3.303507l.294234-.072887c-.174125.691252-.615524 1.284969-1.227092 1.650535-.611567.365567-1.343204.473037-2.033954.298768l-43.7985099 5.93892c-1.4384299-.362851-11.2932773-7.299815-10.9306868-8.739221z" fill="#9dc4ed"/><path d="m201.70754 244.534481c-.561221 1.861954-1.92538 3.381783-3.7254 4.150522-1.800021.76874-3.850995.707421-5.601035-.167456l-17.109411 15.482453-2.271694-11.915161 16.606377-12.837436c1.714765-2.880908 5.33161-4.034822 8.418918-2.685961 3.087307 1.348861 4.669251 4.774153 3.682285 7.973039z" fill="#9e616a"/><path d="m141.983747 232.008246s-5.911411-13.305135-13.377581-10.660421c-7.466169 2.644713-3.61123 15.554224-3.61123 15.554224l28.050661 42.097951s40.459377-25.849435 35.539508-26.032021c-4.919869-.182585-6.391544-9.094709-6.391544-9.094709l-21.383497 10.641443-.723506-3.788222-1.159653 1.154974-2.992468-2.345829z" fill="#9dc4ed"/><circle cx="626.5" cy="196.5" fill="#ffb6b6" r="20.5"/><path d="m692.70777 227.269184c-2.381432 3.36297-5.856805 5.801476-9.836644 6.90191-1.592787.472375-3.237132.750704-4.897096.828906-.204949-1.870632-.695808-3.699016-1.455549-5.42172.077197 1.833639-.178703 3.666091-.755367 5.40904-2.492645-.140853-4.929518-.791532-7.158924-1.911532-4.43995-2.225988-7.567639-6.40708-8.440505-11.283262-.874178-5.624732 1.684721-11.147947 2.609821-16.76419.929345-5.616261-.814767-12.729603-6.331432-14.205583-4.201169-1.124934-3.73013-.638574-7.222598 1.945401 3.632886 5.353294-9.785564 24.970766-15.276932 23.260056-3.104703-.967179-5.092313-3.806195-5.733094-3.806195-4.315725 7.409379 3.810731 19.893712-4.37939 22.486157l.674736-.672433c4.943773-6.060294-5.389366-18.887193-.445573-24.947507 1.379151-1.695871 2.847433-3.704699 2.440059-5.848833-.386182-2.038437-3.632511-3.116853-4.583096-1.442141 1.710177-3.903461-.814758-9.11373-4.994685-10.116068-3.713143-.892305-3.645263.207221-7.371119.685112-.243522-1.60472-.698695-3.170348-1.353705-4.656251.068376 1.601061-.119275 3.202769-.555915 4.745067-1.316213-.025639-2.587134-.483512-3.615543-1.302567-3.038398-2.440211-2.423102-7.565883.288563-10.361319 2.715909-2.795437 6.751569-3.801966 10.60048-4.453259 1.118893-7.76499 22.616312-8.574995 25.465823-.816217 1.213683-5.793885 8.491427-8.800783 14.148144-7.003357 5.656717 1.797427 9.582035 7.062623 11.648665 12.611208 2.06662 5.544355 2.643746 11.511643 3.916829 17.288598 1.273084 5.776956 3.42459 11.659647 7.854891 15.596947 4.430301 3.933041 11.648665 5.235638 16.316617 1.581686 1.376365 3.915876.797921 8.251011-1.557461 11.672346z" fill="#2f2e41"/><path d="m97.9974693 185.449799c-2.2824955 1.093579-4.8375276-.551612-6.8081258-2.181865l.7049172.607775c-3.4827944 3.382857-5.1111104 8.249875-5.9067535 13.040869-.7964402 4.786011-.8852435 9.680539-1.8880213 14.432536-1.0035548 4.746975-3.0853015 9.516447-6.9737279 12.423903-5.2092483 3.89421-12.3938965 3.644247-18.7866672 2.450497-.0851671-.017296-.1645361-.030364-.2497032-.04766 1.7200667-4.958147 2.4192857-10.212056 2.0557154-15.446579-1.713575 5.245585-4.6307407 10.019085-8.5190286 13.9401-4.2384914-1.164384-8.3756189-2.669375-12.3708538-4.500225-2.5850584-1.187863-5.3685642-2.812128-6.0860039-5.562345-.7192728-2.72941.9509842-5.592301 3.1843659-7.315774 2.2333818-1.723473 4.9744884-2.622654 7.5188211-3.850458 2.5401586-1.222036 5.0538375-2.964396 6.0709111-5.594758 2.3458254-6.050902-4.3367664-12.994224-1.7324312-18.942279 1.2842904-2.924911 4.429983-4.515889 7.3866324-5.742489 4.5136342-1.867529 9.1485631-3.428306 13.8730878-4.671657 4.1474542-1.092196 8.4780042-1.940963 12.7030343-1.224999 4.2250301.715963 8.3642854 3.28149 9.8849296 7.287259 2.5372197.856068 5.2308862 1.82095 6.8592221 3.953058 1.6275692 2.127115 1.4963562 5.788995-.9203205 6.945091z" fill="#2f2e41"/><path d="m117.647553 178.638554c-6.417045-5.109833-11.605458-4.237562-15.607973-1.062951-.672867-.755013-3.5363606 1.322282-4.5059027 1.023697l-3.5067349 6.640262c-1.8045265 3.21191-2.5448584 6.490575-2.2531567 8.335923-3.3192998 9.389067 4.5520146 15.729432 13.8605923 19.077312 3.714303 1.345221 7.766984 1.404427 11.518354.168272l.114409-1.599881.704901 1.311231s8.509818 17.673906 10.520704 18.467581c-1.220144-3.192633-4.43833-18.366331-5.336609-21.52926-1.231716-4.303419-.390319-11.140404.333604-15.332253.451212-2.584315.474819-5.226179.069864-7.818278l-.017916-.113307 1.991002 4.054071 4.467309-2.833435c-1.707338-5.015979-1.741418-11.016471-12.352447-8.788984z" fill="#2f2e41"/></g><path d="m25.5 237c57.7137564 0 104.5 64.694854 104.5 144.5 0 49.044165-17.669777 92.38162-44.686631 118.503943l-84.31341819-.000943-.0013792-259.009188c7.85884145-2.610885 16.06334089-3.993812 24.50142839-3.993812z" fill="#ebf4ff"/></g></svg>