<svg clip-rule="evenodd" fill-rule="evenodd" stroke-linejoin="round" stroke-miterlimit="2" viewBox="0 0 108 77" xmlns="http://www.w3.org/2000/svg"><g transform="translate(0 .004776)"><g transform="translate(15.7892)"><path d="m46.986 40.351h-7.108l-15.218 35.342h7.108zm31.437 5.857c-3.455-3.304-8.11-6.708-15.569-6.708-9.111 0-14.267 4.856-14.267 11.814 0 6.208 5.056 9.111 11.263 9.962l4.055.551c3.154.4 6.158 1.101 6.158 3.604 0 2.954-3.905 4.105-6.508 4.105-3.805 0-7.86-1.602-10.213-4.455l-6.708 4.255c3.605 4.205 7.86 7.158 16.12 7.158 10.112 0 16.069-4.855 16.069-12.314 0-6.058-3.804-8.861-13.015-10.163l-3.905-.55c-3.004-.451-4.506-1.352-4.506-3.254 0-1.652 1.652-3.755 5.257-3.755 3.804 0 6.708 1.753 9.261 4.406z"/><path d="m35.342 35.338-13.015-35.343h-9.211l-13.116 35.343h9.411l1.752-5.657h13.016l1.752 5.657zm-13.165-12.015h-8.961l4.355-14.918zm17.17 12.015h8.81v-35.343h-8.81z"/></g><path d="m43.562 35.376c-19.508 0-35.38-15.872-35.38-35.381h11.125c0 13.375 10.881 24.256 24.255 24.256z" fill="#63c7f2" transform="translate(64.348)"/><path d="m34.938 75.705h-10.985c0-13.208-10.745-23.953-23.953-23.953v-10.985c19.265 0 34.938 15.673 34.938 34.938" fill="#f7ab00"/></g></svg>