<svg width="252" height="88" xmlns="http://www.w3.org/2000/svg"><g fill="none" fill-rule="evenodd"><g transform="matrix(1 0 0 -1 .021 87.873)"><path d="M152.102 58.377c-.912-.255-1.908-1.463-2.1-2.481-.423-2.502 1.591-4.368 4.263-3.965 2.545.381 3.71 3.456 2.057 5.428-.975 1.145-2.523 1.527-4.22 1.018zm22.392-.233c-1.123-.573-1.696-1.548-1.696-2.884 0-2.1 1.315-3.33 3.499-3.33 2.311.022 3.499 1.124 3.499 3.287 0 1.506-.552 2.439-1.76 2.969-1.188.551-2.396.53-3.542-.042zm48.135 0c-1.123-.573-1.696-1.548-1.696-2.884 0-2.1 1.315-3.33 3.499-3.33 2.311.022 3.499 1.124 3.499 3.287 0 1.506-.552 2.439-1.76 2.969-1.188.551-2.397.53-3.542-.042zm-61.663-12.83c.063-9.817.127-12.828.34-13.316.91-2.1 3.095-2.884 7.124-2.545l1.823.149V34.225h-.742c-.466 0-.911.17-1.166.424-.424.424-.424.7-.424 11.874v11.451h-7.019l.064-12.66zm-50.828 10.603c-.17-.466-7.21-19.932-8.503-23.537l-.933-2.608h7.337l1.081 3.35 1.081 3.33h8.398l1.06-3.33 1.06-3.35H128.247l-.912 2.608c-1.103 3.053-8.291 22.986-8.503 23.537-.127.318-.552.36-4.347.36-3.796 0-4.22-.042-4.347-.36zm5.513-9.924c.573-1.866 1.06-3.52 1.124-3.647.064-.212-.488-.276-2.354-.276h-2.46l.17.594c1.188 4.093 2.248 7.23 2.375 6.998.085-.149.594-1.803 1.145-3.669zm19.19 4.453c-3.668-1.018-5.513-3.053-5.513-6.022 0-1.908.276-2.778 1.251-3.88 1.018-1.145 2.545-1.909 5.217-2.63 3.583-.954 4.559-1.548 4.559-2.756 0-1.06-.848-1.633-2.29-1.527-.912.085-1.252.233-1.866.827-.403.382-.785.933-.849 1.187-.127.488-.17.488-3.498.488-3.86 0-3.711.106-2.948-1.972.573-1.527 1.612-2.693 3.138-3.499 1.803-.975 3.414-1.336 5.98-1.336 5.005-.02 8.164 1.612 9.055 4.665.615 2.163.042 4.475-1.464 5.874-1.145 1.06-2.035 1.484-4.813 2.311-2.905.849-3.605 1.145-4.262 1.845-.573.615-.53 1.357.106 1.972.975.997 2.566.446 3.202-1.102l.297-.7h3.286c3.266 0 3.287 0 3.287.488 0 .933-1.187 2.99-2.29 3.986-1.612 1.442-3.032 1.93-5.98 2.015-1.739.063-2.778-.022-3.605-.234zm59.734.106c-1.42-.36-2.056-.848-2.926-2.184l-.827-1.315v3.287h-6.997V29.772h6.976l.064 6.849c.084 7.527.127 7.803 1.442 8.927 1.293 1.081 3.477.509 4.198-1.103.318-.678.36-1.76.424-7.718l.064-6.955h6.976v6.255c0 7.273.106 8.121 1.272 9.288.679.657.933.784 1.718.784 1.209 0 2.227-.636 2.693-1.654.318-.678.36-1.76.424-7.718l.064-6.955h7.019l-.106 7.909c-.043 5.259-.17 8.143-.34 8.673-.848 2.63-3.096 4.198-6.255 4.368-3.117.17-4.39-.424-6.404-3.011l-.636-.848-.573.996c-.572.954-1.696 1.888-3.01 2.46-.785.36-4.178.509-5.26.233zm43.576-.127c-1.802-.466-3.371-1.357-4.41-2.46-1.06-1.145-1.527-2.078-1.76-3.605l-.17-1.017H238.3l.233.827c.467 1.738 2.396 2.48 3.965 1.505.721-.445.976-1.039.997-2.438l.021-.849-2.544-.148c-4.899-.276-7.804-1.633-9.182-4.283-.445-.891-.551-1.379-.551-2.672-.022-2.481 1.017-4.156 3.265-5.301 1.845-.955 5.153-.87 7.167.148.997.509 1.23.742 1.527 1.548.403 1.039.488.933.763-.89l.128-1.018h6.806l-.17.805c-.084.424-.211 3.944-.296 7.783-.19 7.867-.255 8.248-1.739 9.945-.975 1.102-2.523 1.887-4.304 2.226-1.74.318-4.878.276-6.235-.106zm5.471-12.638c-.021-1.378-.382-2.375-1.145-3.075-.657-.615-.912-.7-1.908-.7-1.57 0-2.248.53-2.248 1.782 0 1.717 1.4 2.63 4.092 2.65l1.21.022v-.679z" fill="#000" fill-rule="nonzero"/><path fill="#000" fill-rule="nonzero" d="M150.108916 40.0559036L150.108916 29.7715663 153.501687 29.7715663 156.894458 29.7715663 156.894458 40.0559036 156.894458 50.340241 153.501687 50.340241 150.108916 50.340241z"/><path fill="#000" fill-rule="nonzero" d="M172.798072 40.0559036L172.798072 29.7715663 176.296867 29.7715663 179.795663 29.7715663 179.795663 40.0559036 179.795663 50.340241 176.296867 50.340241 172.798072 50.340241z"/><path fill="#000" fill-rule="nonzero" d="M220.933012 40.0559036L220.933012 29.7715663 224.431807 29.7715663 227.930602 29.7715663 227.930602 40.0559036 227.930602 50.340241 224.431807 50.340241 220.933012 50.340241z"/><path d="M180.432 23.177v-1.718l-.552.36c-.636.404-2.162.467-2.841.107-.848-.446-1.272-1.463-1.272-3.075 0-1.633.424-2.63 1.314-3.096.7-.382 2.142-.318 2.736.085.615.445.827.445.827.042 0-.17.19-.318.424-.318.403 0 .424.149.424 4.665v4.665h-.53c-.53 0-.53-.02-.53-1.717zm-.53-2.333c.297-.297.424-.763.487-1.823.064-1.23.022-1.527-.36-2.015-.594-.742-1.506-.933-2.333-.487-.72.36-.975.996-.954 2.48.021 2.1 1.781 3.139 3.16 1.845z" fill="#000" fill-rule="nonzero"/><path fill="#000" fill-rule="nonzero" d="M227.506506 20.2293976L227.506506 15.5643373 228.036627 15.5643373 228.566747 15.5643373 228.566747 20.2293976 228.566747 24.8944578 228.036627 24.8944578 227.506506 24.8944578z"/><path d="M113.637 19.911v-4.347h2.438c2.29 0 2.439.022 2.439.424 0 .403-.149.425-1.909.425h-1.908v3.392h1.802c1.654 0 1.803.043 1.803.424 0 .382-.149.424-1.803.424h-1.802V23.41h1.908c1.76 0 1.909.021 1.909.424 0 .403-.149.424-2.439.424h-2.438v-4.347zm37.532 0c0-4.177.021-4.347.424-4.347.36 0 .403.17.467 1.866l.063 1.845 1.866.064c1.676.063 1.845.106 1.845.466 0 .382-.148.424-1.908.424h-1.909v3.181h2.015c1.866 0 2.014.021 2.014.424 0 .403-.148.424-2.438.424h-2.439v-4.347zm61.282 4.262c0-.063.679-2.014 1.506-4.368 1.463-4.071 1.548-4.262 2.056-4.198.467.063.615.339 1.358 2.396.466 1.293 1.166 3.223 1.548 4.304l.7 1.951h-.552c-.551 0-.636-.148-1.824-3.626l-1.25-3.626-1.273 3.626c-1.145 3.33-1.293 3.626-1.76 3.626-.276 0-.509-.042-.509-.085zm-84.056-2.056c-.933-.149-1.611-.827-1.611-1.59 0-.658.763-1.421 1.908-1.888 1.251-.509 1.696-.912 1.696-1.506 0-.7-1.187-1.06-2.438-.742-1.188.297-1.166.297-1.166-.17 0-.487.55-.7 1.908-.72 1.336-.021 2.248.381 2.566 1.166.445 1.103.085 1.654-1.697 2.523-1.717.849-2.056 1.209-1.632 1.782.297.424 1.272.53 2.375.254.53-.127.7-.106.805.19.085.192.106.383.064.425-.212.233-2.057.403-2.778.276zm6.489 0c-1.357-.276-2.163-1.506-2.163-3.308 0-1.188.509-2.29 1.315-2.884 1.017-.764 3.986-.467 3.986.382 0 .254-.233.296-1.25.19-.7-.084-1.506-.084-1.803 0-.573.149-1.188 1.082-1.188 1.824 0 .403.127.424 2.227.424h2.226v.657c0 1.888-1.484 3.096-3.35 2.715zm1.315-.849c.55-.254 1.102-1.293.869-1.654-.064-.127-.827-.233-1.718-.233-1.357 0-1.569.043-1.569.382 0 .509.594 1.315 1.145 1.527.594.254.658.254 1.273-.022zm27.948.849c-1.358-.276-2.163-1.506-2.163-3.308 0-1.188.509-2.29 1.314-2.884 1.018-.764 3.987-.467 3.987.382 0 .254-.233.296-1.251.19-.7-.084-1.506-.084-1.803 0-.572.149-1.187 1.082-1.187 1.824 0 .403.127.424 2.226.424h2.227v.657c0 1.888-1.484 3.096-3.35 2.715zm1.314-.849c.552-.254 1.103-1.293.87-1.654-.064-.127-.827-.233-1.718-.233-1.357 0-1.57.043-1.57.382 0 .509.595 1.315 1.146 1.527.594.254.657.254 1.272-.022zm5.598.912c-1.357-.17-2.48-2.205-2.205-3.944.297-1.866 1.4-2.756 3.308-2.735 1.336.02 1.908.233 1.908.678 0 .34-.148.382-1.442.276-1.293-.085-1.505-.042-2.014.403-.318.275-.636.827-.7 1.209l-.127.678h4.559l-.106 1.082c-.17 1.675-1.378 2.565-3.18 2.353zm1.803-1.357c.19-.233.36-.657.36-.933 0-.488-.063-.509-1.548-.509-.87 0-1.611.064-1.696.127-.064.064-.021.403.106.743.424 1.208 1.972 1.526 2.778.572zm12.595 1.315c-1.95-.34-2.862-2.82-1.866-5.026.806-1.76 3.139-2.184 4.623-.827.742.679.785.806.87 2.184.148 2.693-1.21 4.072-3.627 3.669zm2.248-1.527c.551-.72.573-2.672.064-3.456-.764-1.167-2.566-1.103-3.202.106-.403.784-.403 2.396 0 3.18.593 1.146 2.353 1.23 3.138.17zm5.577 1.506c-.318-.085-.785-.34-.997-.53-.381-.34-.403-.34-.403.084 0 .318-.127.467-.424.467-.403 0-.424-.149-.424-3.287 0-3.075.021-3.287.403-3.287.36 0 .403.234.488 2.312.106 2.587.382 3.286 1.378 3.477.318.064.827 0 1.124-.127.53-.254.53-.318.594-2.969.063-2.671.063-2.693.551-2.693.509 0 .509.022.594 2.439.085 2.841.34 3.329 1.781 3.329 1.209 0 1.357-.34 1.357-3.265v-2.503h1.06v2.418c0 2.608-.19 3.477-.87 3.923-.699.424-2.268.339-2.947-.149-.508-.382-.614-.403-.89-.127-.445.445-1.633.678-2.375.488zm-72.16-.191c-.53-.212-.551-.233-.36-.721.084-.233.233-.276.466-.149.212.106.72.234 1.166.318.658.128.87.064 1.315-.381.297-.297.53-.721.53-.954 0-.467-.276-.573-1.993-.721-1.845-.17-2.757-1.379-2.142-2.82.212-.53.467-.743 1.103-.912.933-.255 1.993-.043 2.608.508.34.297.382.297.488-.106.063-.233.254-.424.445-.424.297 0 .34.382.34 2.757 0 2.672-.022 2.799-.53 3.287-.425.445-.7.53-1.74.509-.678 0-1.442-.085-1.696-.191zm3.117-3.33c0-.105-.106-.53-.233-.975-.17-.636-.382-.89-.976-1.145-.933-.382-1.696-.212-1.993.445-.297.615.043 1.336.721 1.612.573.233 2.481.276 2.481.064zm33.08.255c0-3.138.02-3.287.424-3.287.381 0 .424.149.424 1.676 0 2.162.148 2.862.763 3.52.34.381.7.53 1.251.53.594 0 .742.084.742.424 0 .657-1.272.572-2.099-.127l-.657-.552v.552c0 .402-.106.55-.424.55-.403 0-.424-.148-.424-3.286zm64.102 3.011c-.318-.17-.403-.36-.297-.551.148-.233.36-.255 1.145-.043 1.463.36 2.269-.084 2.269-1.25 0-.467-.403-.637-1.506-.637-1.06 0-2.205-.466-2.502-1.018-.403-.763-.276-1.823.276-2.353.7-.658 2.247-.679 3.096-.064.593.445.615.445.742.042.085-.233.276-.424.445-.424.233 0 .297.51.297 2.842 0 2.82 0 2.862-.551 3.287-.658.508-2.63.614-3.414.17zm3.053-3.88c-.233-1.357-1.336-2.057-2.566-1.57-.508.191-.572.319-.508.997.084.976.657 1.336 2.162 1.336h1.04l-.128-.763zm6.001 1.993c0-3.584.467-4.432 2.439-4.453.678-.021 1.166.106 1.59.445.636.446.636.446.636.021 0-.275.149-.424.424-.424.403 0 .424.149.424 3.287s-.02 3.287-.424 3.287c-.381 0-.424-.149-.424-1.845 0-2.566-.254-3.414-1.166-3.796-.997-.403-1.315-.381-1.908.234-.51.487-.53.636-.53 2.968v2.439h-1.06v-2.163zm8.312 1.442l-.784-.721v-1.824c0-1.739.021-1.845.657-2.46.679-.678 1.951-1.123 2.8-.954.254.064.699.149.996.212.34.064.53.255.53.51 0 .36-.127.381-1.378.296-1.04-.085-1.485-.042-1.888.233-.508.318-1.017 1.527-.827 1.888.043.084 1.082.148 2.312.148 2.46 0 2.417-.021 1.993 1.527-.34 1.166-1.272 1.866-2.566 1.866-.89 0-1.166-.106-1.845-.721zm2.97-.53c.211-.191.402-.573.423-.87.064-.53.043-.53-1.569-.593-1.611-.064-1.654-.043-1.654.424.021 1.378 1.781 2.035 2.8 1.039zm-98.306.275c-.53-.509-.446-1.908.127-2.29.636-.445 1.145-.424 1.654.085.551.551.551 1.718.042 2.184-.487.446-1.4.467-1.823.021zm62.533.043c-.53-.382-.53-1.654 0-2.248 1.166-1.293 2.926.594 1.887 2.078-.36.53-1.272.615-1.887.17z" fill="#000" fill-rule="nonzero"/><ellipse fill="#FFDC09" cx="44.191" cy="43.873" rx="44" ry="43.788"/></g><circle fill="#000" cx="29.369" cy="17.706" r="5.195"/><circle fill="#000" cx="55.239" cy="64.781" r="1.378"/><circle fill="#000" cx="65.417" cy="64.781" r="1.378"/><path d="M65.29 69.085c.57 0 1.035.45 1.059 1.015v.068h.016c-.164 2.896-2.639 5.269-5.955 5.269-3.317 0-5.588-2.27-5.892-5.079a1.06 1.06 0 0 1 1.039-1.273c.585 0 .719.505 1.06 1.06.341.556 1.081 3.293 3.814 3.293 2.732 0 3.444-2.724 3.798-3.292.355-.569.45-1.036 1.015-1.06h.046z" fill="#000"/><path d="M64.852 17.56a4.877 4.877 0 0 1 1.043 6.818L30.87 72.058a4.877 4.877 0 1 1-7.862-5.775l35.025-47.68a4.877 4.877 0 0 1 6.818-1.043z" fill="#000"/></g></svg>