<svg clip-rule="evenodd" fill-rule="evenodd" stroke-linejoin="round" stroke-miterlimit="2" viewBox="0 0 183 24" xmlns="http://www.w3.org/2000/svg" xmlns:xlink="http://www.w3.org/1999/xlink"><linearGradient id="a" gradientTransform="matrix(-17.77543886 17.79344189 -17.79344189 -17.77543886 25.515692 3.521488)" gradientUnits="userSpaceOnUse" x2="1"><stop offset="0" stop-color="#3459f8"/><stop offset=".4" stop-color="#3459f8"/><stop offset=".46" stop-color="#2f53e6"/><stop offset=".58" stop-color="#2442b5"/><stop offset=".74" stop-color="#112869"/><stop offset=".85" stop-color="#041635"/><stop offset="1" stop-color="#041635"/></linearGradient><linearGradient id="b" gradientTransform="matrix(17.77558021 -17.79358338 17.79358338 17.77558021 8.50409 20.516002)" gradientUnits="userSpaceOnUse" x2="1"><stop offset="0" stop-color="#3478f8"/><stop offset=".4" stop-color="#3478f8"/><stop offset=".46" stop-color="#2f6fe6"/><stop offset=".58" stop-color="#2457b5"/><stop offset=".74" stop-color="#113069"/><stop offset=".85" stop-color="#041635"/><stop offset="1" stop-color="#041635"/></linearGradient><g fill-rule="nonzero"><path d="m46.697 6.047c-.887 0-1.692.533-2.025 1.35l-4.264 10.368h2.301a1.47 1.47 0 0 0 1.379-.944l.287-.752h4.639l.287.752c.215.568.769.944 1.379.944h2.301l-4.264-10.368a2.173 2.173 0 0 0 -2.02-1.35zm-1.261 7.25 1.261-3.305 1.261 3.305zm103.087-5.905a2.185 2.185 0 0 0 -2.025-1.35c-.886 0-1.691.533-2.024 1.35l-4.265 10.368h2.302c.615 0 1.163-.376 1.378-.944l.287-.752h4.639l.287.752c.216.568.769.944 1.379.944h2.302zm-3.285 5.905 1.26-3.305 1.261 3.305zm-83.363 4.666c3.209 0 5.469-2.041 5.469-5.382v-5.072a1.47 1.47 0 0 0 -1.476-1.462h-1.574v6.372c.031 1.558-.594 2.65-2.419 2.65h.026c-1.825 0-2.446-1.092-2.42-2.65v-4.91a1.47 1.47 0 0 0 -1.476-1.462h-1.574v6.534c0 3.341 2.256 5.382 5.47 5.382zm13.537-8.997h2.25c1.913 0 2.722 1.183 2.722 2.93 0 1.746-.809 2.929-2.722 2.929h-2.25zm-3.024 8.804h5.71c3.071 0 5.408-2.412 5.408-5.869v.01c0-3.458-2.337-5.869-5.408-5.869h-5.71zm102.518-8.804h2.25c1.912 0 2.722 1.183 2.722 2.93 0 1.746-.81 2.929-2.722 2.929h-2.25zm-3.024 8.804h5.71c3.071 0 5.408-2.412 5.408-5.869v.01c0-3.458-2.337-5.869-5.408-5.869h-5.71zm-80.441.092h-1.42a1.654 1.654 0 0 1 -1.661-1.645v-10.074h1.42c.918 0 1.661.737 1.661 1.645zm13.65-11.719h-8.939v1.468a1.47 1.47 0 0 0 1.476 1.462h2.189v8.789h3.081v-8.789h3.665v-1.467a1.463 1.463 0 0 0 -1.472-1.463zm13.768 5.697c.728-.406 1.466-1.178 1.466-2.462 0-2.036-1.676-3.235-3.577-3.235h-6.182v11.719h6.704c1.923 0 3.599-1.422 3.599-3.179 0-1.421-.81-2.462-2.01-2.843zm-5.208-2.96h2.686c.605 0 .938.335.938.929s-.445.929-1.05.929h-2.574zm2.984 6.265h-2.984v-2.081h3.056c.794 0 1.076.457 1.076 1.04 0 .584-.354 1.041-1.148 1.041zm20.673-3.142c0 3.355-2.825 6.077-6.305 6.077-3.486 0-6.305-2.722-6.305-6.077 0-3.357 2.824-6.078 6.305-6.078 3.48 0 6.305 2.721 6.305 6.078zm-6.31-3.199a3.203 3.203 0 0 0 -3.209 3.199 3.203 3.203 0 0 0 3.209 3.198 3.203 3.203 0 0 0 3.209-3.198 3.203 3.203 0 0 0 -3.209-3.199zm33.646 5.549c.877-.452 2.373-1.498 2.373-3.914 0-2.762-1.927-4.296-4.439-4.296h-5.828v11.719h3.014v-3.128h1.574l1.82 2.518c.276.386.722.61 1.199.61h2.819zm-2.312-2.351h-2.568v-3.122h2.63c1.286 0 1.661.701 1.661 1.564 0 .858-.441 1.558-1.723 1.558z" fill="#041635"/><path d="m7.853 11.367 3.656 3.651 1.175 1.175a5.98 5.98 0 0 1 -1.689-4.172 6.011 6.011 0 0 1 6.015-6.009c1.692 0 3.221.7 4.315 1.823l1.19 1.188 3.652 3.649a5.063 5.063 0 0 0 2.697 1.4 5.087 5.087 0 0 0 4.499-1.4l.658-.657-8.579-8.567a11.954 11.954 0 0 0 -2.601-1.942 11.988 11.988 0 0 0 -5.831-1.506c-5.944 0-10.878 4.308-11.853 9.967a5.05 5.05 0 0 1 2.696 1.4z" fill="url(#a)"/><path d="m26.167 12.674-3.652-3.651-1.176-1.175a5.98 5.98 0 0 1 1.689 4.173 6.012 6.012 0 0 1 -6.015 6.009c-1.692 0-3.221-.7-4.315-1.824l-1.189-1.188-3.656-3.651a5.05 5.05 0 0 0 -2.696-1.4 5.095 5.095 0 0 0 -4.5 1.4l-.657.656 8.578 8.57a11.998 11.998 0 0 0 8.435 3.448c5.944 0 10.879-4.308 11.853-9.967a5.048 5.048 0 0 1 -2.699-1.4z" fill="url(#b)"/></g></svg>