<svg clip-rule="evenodd" fill-rule="evenodd" stroke-linejoin="round" stroke-miterlimit="2" viewBox="0 0 199 53" xmlns="http://www.w3.org/2000/svg"><g fill="#2962ff" transform="matrix(2.63158 0 0 2.63158 -1.31579 -.000343)"><path d="m17.642 6.268c.952-2.105.25-4.561-1.754-5.714-1.805-1.002-4.06-.601-5.514.852-.3-.05-.55-.05-.851-.05-4.963 0-9.023 3.96-9.023 8.821 0 4.862 4.06 8.821 9.072 8.821s9.071-3.96 9.071-8.82c-.047-1.36-.389-2.695-1.002-3.91zm-4.21 8.12c-.3.25-.602.4-.952.6-.351.151-.752.301-1.153.351-.401.1-.902.15-1.404.15-.753-.002-1.499-.138-2.205-.4-.651-.3-1.253-.652-1.754-1.153s-.852-1.052-1.153-1.704c-.3-.651-.4-1.353-.4-2.105v-.05c0-.752.15-1.454.4-2.105.301-.652.652-1.203 1.153-1.704s1.103-.852 1.754-1.153c.702-.3 1.454-.4 2.256-.4.5 0 .952.05 1.403.1.4.1.802.2 1.103.35.35.15.651.3.952.501.3.2.551.401.802.652l-1.504 1.654c-.39-.347-.829-.634-1.303-.852-.451-.2-.902-.3-1.453-.3-.451 0-.852.1-1.253.25s-.702.4-1.003.701c-.3.301-.501.652-.651 1.053-.15.4-.251.802-.251 1.253v.05c0 .451.1.852.25 1.253.151.4.351.752.652 1.052.25.301.602.552 1.003.702.4.15.802.25 1.253.25.601 0 1.152-.1 1.553-.35.463-.233.886-.537 1.253-.902l1.504 1.453c-.3.301-.552.552-.852.802z"/><path d="m31.138 9.075c-.1-.903-.451-1.604-.952-2.106-.502-.5-1.253-.751-2.206-.751-1.002 0-1.804.35-2.405 1.102-.602.752-.902 1.704-.902 2.857v1.855c0 1.202.3 2.155.902 2.906.601.752 1.403 1.103 2.405 1.103.953 0 1.704-.25 2.206-.702.551-.45.852-1.202.952-2.105h.852v.05c-.1 1.103-.501 2.005-1.203 2.607-.702.651-1.654.952-2.857.952-1.253 0-2.305-.451-3.057-1.353s-1.153-2.055-1.153-3.458v-1.805c0-1.403.401-2.556 1.153-3.458s1.804-1.353 3.057-1.353c1.203 0 2.155.3 2.857.952.702.601 1.103 1.504 1.203 2.606v.05h-.852zm8.42 7.618c-.05-.301-.1-.502-.15-.702s-.05-.401-.05-.601c-.301.45-.752.802-1.253 1.052-.502.3-1.103.401-1.755.401-.802 0-1.453-.2-1.904-.651-.461-.446-.716-1.064-.702-1.705 0-.751.351-1.353 1.002-1.804.652-.451 1.604-.702 2.707-.702h1.854v-1.001c0-.601-.2-1.052-.601-1.403s-.952-.502-1.654-.502c-.651 0-1.203.15-1.604.502-.45.3-.651.701-.651 1.152h-.852v-.05c-.05-.601.25-1.152.852-1.654.601-.5 1.403-.701 2.305-.701.952 0 1.704.25 2.256.701.55.451.852 1.103.852 2.005v4.01c0 .3 0 .551.05.852.05.25.1.551.15.802h-.852zm-.2-4.01h-1.905c-.852 0-1.504.15-2.055.551-.501.351-.752.802-.752 1.303 0 .452.15.802.451 1.103.301.3.752.401 1.303.401.652 0 1.254-.15 1.805-.451.501-.3.902-.702 1.102-1.153v-1.754zm13.632 4.01v-4.813c0-1.002-.2-1.754-.551-2.155-.351-.4-.902-.652-1.554-.652-.702 0-1.303.201-1.704.652s-.652 1.002-.752 1.704v5.263h-.952v-4.812c0-1.002-.2-1.704-.551-2.155s-.903-.652-1.554-.652c-.652 0-1.203.15-1.554.502-.4.35-.651.752-.802 1.303v5.764h-.952v-8.17h.852l.1 1.353c.25-.5.652-.852 1.103-1.102.492-.267 1.044-.405 1.604-.401.651 0 1.203.15 1.604.45.45.302.751.753.952 1.404.25-.601.601-1.052 1.102-1.353.452-.35 1.053-.501 1.705-.501.902 0 1.603.3 2.105.852.5.601.751 1.503.751 2.706v4.812h-.952zm2.506 0h.952v-8.22h-.952zm0-10.576h.952v-1.253h-.952zm3.007 10.576h.953v-11.879h-.953zm5.513 1.303c-.2.551-.5 1.052-.852 1.403-.35.401-.852.602-1.553.602-.1 0-.251 0-.401-.05-.15 0-.25-.05-.351-.05l.1-.753c.05 0 .15 0 .3.05h.301c.401 0 .752-.15.953-.4.25-.301.45-.652.601-1.103l.451-1.103-3.258-8.119h1.053l2.306 6.014.3 1.003h.05l2.556-6.967h1.053zm10.977-2.306c-.702.752-1.604 1.153-2.707 1.153-1.153 0-2.055-.4-2.706-1.153-.702-.752-1.003-1.754-1.003-2.957v-.25c0-1.203.351-2.206 1.003-2.957.701-.752 1.603-1.153 2.706-1.153 1.153 0 2.055.4 2.707 1.153.701.751 1.002 1.754 1.002 2.957v.25c.05 1.203-.3 2.155-1.002 2.957zm.1-3.258c0-.952-.25-1.754-.752-2.405-.501-.652-1.203-1.003-2.055-1.003s-1.554.351-2.055 1.003c-.501.651-.752 1.453-.752 2.405v.251c0 .952.251 1.754.752 2.406.501.651 1.203.952 2.055.952s1.554-.3 2.055-.952.752-1.454.752-2.406z" fill-rule="nonzero"/></g></svg>