<svg height="88" width="111" xmlns="http://www.w3.org/2000/svg"><g fill="none"><path d="M79.527 42V32h7.514c2.36 0 4.624.465 6.42 1.298h4.759c2.62 0 5.213.637 6.941 1.765 3.745 2.343 4.839 6.421 4.839 8.995 0 1.996-.777 6.276-4.839 8.88-1.728 1.127-4.32 1.764-6.941 1.764h-4.76C91.666 55.535 89.403 56 87.042 56h-7.514v-9H84v5h5v-5h5v-5h-5v-5h-5v5zm16.81-6.763c2.752 2.546 3.778 6.084 3.778 8.821 0 .955-.204 5.395-3.791 8.706h.887c1.93 0 4.868 0 7.317-1.735 1.296-1.1 3.34-3.327 3.34-7.058 0-2.835-1.41-5.467-3.629-7.086-1.9-1.244-3.888-1.648-7.028-1.648zm-52.042-1.939h2.016v7.662h.058c1.785-2.575 4.435-3.182 6.135-3.182 5.156 0 8.468 4.05 8.468 8.272 0 4.541-3.514 8.33-8.468 8.33-1.642 0-4.378-.578-6.135-3.153h-.058v2.777h-2.016zm8.209 6.302c-3.63 0-6.308 3.037-6.308 6.508 0 3.702 2.91 6.45 6.308 6.45 3.86 0 6.452-2.892 6.452-6.421 0-4.02-2.996-6.537-6.452-6.537zm12.066 7.231c.144 3.095 3.025 5.727 6.106 5.727 2.88-.058 4.926-1.764 5.646-3.731h2.131c-1.094 3.152-4.118 5.553-7.748 5.553-4.406 0-8.209-3.586-8.209-8.272 0-4.483 3.6-8.243 8.18-8.33a8.181 8.181 0 0 1 7.029 4.05c1.065 1.706 1.295 3.47 1.209 5.003zm12.3-1.822c-.636-3.731-3.66-5.409-6.166-5.409-2.477 0-5.559 1.678-6.135 5.409z" fill="#e2011a"/><path d="M2.074 46.831c.144 3.095 3.024 5.727 6.106 5.727 2.88-.058 4.925-1.764 5.646-3.731h2.13c-1.094 3.152-4.118 5.553-7.747 5.553C3.802 54.38 0 50.794 0 46.108c0-4.483 3.6-8.243 8.18-8.33a8.181 8.181 0 0 1 7.028 4.05c1.066 1.706 1.296 3.47 1.21 5.003zm12.299-1.822c-.634-3.731-3.658-5.409-6.164-5.409-2.477 0-5.56 1.678-6.135 5.409zm4.002-6.826h2.016v1.822l-.058-.058v.058h.058c.893-1.562 2.823-2.227 4.292-2.227 1.324 0 4.118.607 5.3 3.037 1.18-2.43 3.974-3.037 5.3-3.037 2.418 0 6.307 1.446 6.307 6.826v9.4h-2.016v-9.169c0-1.735-.317-2.574-.72-3.297-.664-1.128-1.874-1.938-3.572-1.938-1.7 0-2.91.81-3.572 1.938-.403.723-.72 1.562-.72 3.297v9.17h-2.016v-9.17c0-1.735-.317-2.574-.72-3.297-.662-1.128-1.872-1.938-3.571-1.938-1.7 0-2.91.81-3.572 1.938-.403.723-.72 1.562-.72 3.297v9.17h-2.016V38.182z" fill="#1a171b"/></g></svg>