<svg height="88" width="130" xmlns="http://www.w3.org/2000/svg" xmlns:xlink="http://www.w3.org/1999/xlink"><linearGradient id="a"><stop offset="0" stop-color="#ef7f21"/><stop offset="1" stop-color="#fabe11"/></linearGradient><linearGradient id="b" x1="50%" x2="50%" xlink:href="#a" y1="468.988%" y2="1.056%"/><linearGradient id="c" x1="50%" x2="50%" xlink:href="#a" y1="385.419%" y2="-76.913%"/><linearGradient id="d" x1="50%" x2="50%" xlink:href="#a" y1="313.592%" y2="-209.25%"/><linearGradient id="e" x1="50%" x2="50%" xlink:href="#a" y1="102.816%" y2="-365.073%"/><linearGradient id="f" x1="50%" x2="50%" xlink:href="#a" y1="180.743%" y2="-281.544%"/><linearGradient id="g" x1="50.001%" x2="50.001%" y1="100.16%" y2="52.505%"><stop offset="0" stop-color="#1784b1"/><stop offset="1" stop-color="#0ea8de"/></linearGradient><linearGradient id="h" x1="7.931%" x2="90.674%" y1="50%" y2="50%"><stop offset="0" stop-color="#fff"/><stop offset="1" stop-color="#adabac"/></linearGradient><g fill="none"><path d="M32.584 4.665l-13.987 3.04-3.686 3.62L35.17 7.549z" fill="url(#b)" transform="translate(0 22)"/><path d="M37.26 9.92l-24.102 3.122-3.69 3.619 31.624-2.476z" fill="url(#c)" transform="translate(0 22)"/><path d="M43.703 17.208l-35.988 1.17-1.925 2.075 1.925 1.113 36.012 1.877 2.85-2.99z" fill="url(#d)" transform="translate(0 22)"/><path d="M18.597 32.239l13.987 3.04 2.586-2.818-20.259-3.842z" fill="url(#e)" transform="translate(0 22)"/><path d="M13.158 26.902l24.102 3.344 3.832-4.06-31.624-2.904z" fill="url(#f)" transform="translate(0 22)"/><path d="M55.512 52.373V33.047h13.793v2.429H57.96v6.019h8.868v2.429H57.96v6.048h11.345v2.4zm28.29-16.124c-.694-.514-1.531-.773-2.505-.773h-5.91v6.019h5.91c.996 0 1.831-.267 2.505-.8.788-.57 1.183-1.309 1.183-2.209 0-.903-.395-1.647-1.183-2.237zm2.702 16.124l-4.474-6.765c-.752-1.122-1.982-1.683-3.69-1.683h-2.953v8.448h-2.45V33.047h8.36c1.632 0 3.059.497 4.277 1.492 1.259 1.086 1.888 2.401 1.888 3.947 0 1.27-.421 2.373-1.266 3.312-.808.94-1.867 1.575-3.181 1.906.468.038 1.117.67 1.941 1.904l4.478 6.765zm17.343-14.77c-1.446-1.418-3.192-2.127-5.237-2.127h-4.926v14.496h4.926c2.008 0 3.753-.71 5.237-2.127 1.445-1.454 2.166-3.166 2.166-5.135 0-1.989-.721-3.69-2.166-5.107zm1.716 11.954c-1.915 1.877-4.23 2.816-6.954 2.816h-7.376V33.047h7.376c2.723 0 5.039.949 6.954 2.845 1.934 1.894 2.897 4.169 2.897 6.818 0 2.668-.963 4.95-2.897 6.847zm6.306-11.394h2.447v14.21h-2.447zm0-5.116h2.447v2.919h-2.447zm6.109 19.326V33.047h2.447v16.925h8.868v2.4z" fill="#0ea8de"/><path d="M0 20.453l20.854 19.462 6.22-5.79L12.14 20.452 27.074 5.805 20.854 0z" fill="url(#g)" transform="translate(0 22)"/><path d="M12.14 20.453l14.934 13.671V5.805z" fill="url(#h)" transform="translate(0 22)"/></g></svg>