<svg height="88" width="151" xmlns="http://www.w3.org/2000/svg"><g fill="none"><path d="M125.642 37.942c-1.88 1.31-2.372 2.21-2.453 5.567 0 .491-.082 2.62-.082 3.848v4.175c0 .9.9 1.146 1.636 1.146h.736c.163 0 .245.164.245.246v.41c0 .163-.082.245-.245.245h-7.526c-.163 0-.245-.082-.245-.246v-.409c0-.164.082-.246.245-.246h.246c.818-.082 2.045-.163 2.045-1.146v-7.286c0-2.293-.164-6.632 5.398-6.304zm-17.75 6.385v.082h5.726V44c0-2.456-.49-5.076-3.517-5.076-2.945 0-3.6 3.03-3.6 5.403v1.474c0 3.193.164 7.123 4.418 7.123 2.78 0 4.58-1.392 4.826-4.175 0 0 0-.164.163-.164h.655c.327 0 .245.327.245.327-.082.492-.163 1.065-.327 1.556-1.063 3.11-3.68 3.52-6.217 3.52-5.071 0-6.872-3.848-6.872-8.432 0-4.34 2.7-7.533 7.2-7.533 4.417 0 6.543 2.784 6.543 6.878 0 .49-.081.655-.49.655h-8.753c-.163 0-.245-.082-.245-.246v-.737c0-.164.082-.246.245-.246zm-16.032 0v.082h5.807V44c0-2.456-.49-5.076-3.517-5.076-2.945 0-3.6 3.03-3.6 5.403v1.474c0 3.193.165 7.123 4.418 7.123 2.863 0 4.58-1.392 4.826-4.175 0 0 0-.164.164-.164h.654c.327 0 .246.327.246.327-.164.492-.246 1.065-.41 1.556-1.063 3.11-3.68 3.52-6.216 3.52-5.072 0-6.871-3.848-6.871-8.432 0-4.34 2.7-7.533 7.198-7.533 4.417 0 6.544 2.784 6.544 6.878 0 .49-.082.655-.49.655H91.86c-.164 0-.246-.082-.246-.246v-.737c0-.164.164-.246.246-.246zm-4.99 7.615c.082.081 0 .163.164.163-.982 1.392-2.454 1.801-3.927 1.801-3.272 0-3.68-1.637-3.68-4.42V36.221c0-.49.408-.9.9-.9h1.062c.491 0 .9.41.9.9v2.05h3.436c.163 0 .245.081.245.245v.655c0 .163-.082.245-.245.245h-3.436v10.07c0 1.392.082 3.193 1.882 3.193.736 0 1.636-.655 2.126-1.228 0 0 .082-.082.164 0 0 .082.327.41.409.492zm-13.579-14c2.7.081 3.927 1.31 3.927 3.356 0 1.228-.327 1.392-1.473 1.392-1.308 0-1.39-.327-1.472-1.228 0-.737 0-2.374-1.39-2.374-1.555 0-2.373 1.228-2.373 4.42v8.025c0 .9.9 1.146 1.636 1.146h.736c.164 0 .246.164.246.246v.41c0 .163-.082.245-.246.245h-7.607c-.163 0-.245-.082-.245-.246v-.409c0-.164.082-.246.245-.246h.246c.818-.082 2.045-.163 2.045-1.146v-7.286c0-2.702.081-6.468 5.725-6.304zm-18.568 6.385v.082h5.89V44c0-2.456-.491-5.076-3.518-5.076-2.944 0-3.599 3.03-3.599 5.403v1.474c0 3.193.246 7.123 4.417 7.123 2.781 0 4.581-1.392 4.826-4.175 0 0 .082-.164.246-.164h.572c.246 0 .164.327.164.327-.082.492-.164 1.065-.327 1.556-1.064 3.11-3.681 3.52-6.217 3.52-5.071 0-6.87-3.848-6.87-8.432 0-4.34 2.617-7.533 7.116-7.533 4.417 0 6.543 2.784 6.543 6.878 0 .49-.081.655-.49.655h-8.753c-.163 0-.245-.082-.245-.246v-.737c0-.164.082-.246.245-.246zm-17.177 8.024l.572-.573c.082-.082.164-.082.245 0l.164.164c.49.49 1.309.736 2.209.736 3.844 0 4.008-4.093 4.008-7.04 0-2.866-.164-6.796-3.927-6.796-2.863 0-3.926 2.21-3.926 4.75v12.361c0 .983.982 1.146 1.8 1.146h.572c.164 0 .246.082.246.246v.41c0 .163-.164.245-.246.245h-7.525c-.164 0-.246-.082-.246-.246v-.409c0-.164.082-.246.246-.246h.163c.818-.08 2.127 0 2.127-1.146V38.515a.89.89 0 0 1 .9-.737h.982c.49 0 .9.41.9.9v1.638h.163c.981-1.883 2.781-2.456 4.826-2.456 4.744 0 6.135 3.766 6.135 7.86 0 4.748-1.718 8.105-6.953 8.105-1.227 0-2.29-.328-3.19-1.065-.082 0-.082 0-.164-.082-.245-.163-.163-.245-.081-.327zm-6.054.327c.164 0 .246.082.164.328v.41c0 .163-.082.245-.245.245h-7.28c-.164 0-.246-.082-.246-.246v-.41c0-.163.164-.245.246-.245h1.063c.245 0 .49-.164.49-.41 0-.327-.245-.572-.408-.818l-2.863-4.42-2.945 4.42c-.245.41-.327.655-.327.82 0 .326.245.41.49.49h1.146c.163 0 .245.164.245.246v.41c0 .163-.163.245-.245.245H15.05c-.164 0-.245-.082-.245-.246v-.41c0-.163.081-.245.245-.245h.9c.981-.082 1.308-.41 1.963-1.31l3.763-5.567-3.518-5.73c-.49-.9-.818-1.065-1.636-1.065h-.981c-.164 0-.246-.082-.246-.246v-.41c0-.163.082-.245.246-.245h8.016c.164 0 .245.082.245.246v.41c0 .163-.081.245-.245.245h-.982c-.327 0-.736 0-.818.081-.245.082-.245.328-.245.41 0 .164.164.327.245.491l2.536 4.257 2.863-4.257c.082-.082.245-.327.245-.573 0-.328-.163-.49-.409-.49h-1.308c-.164 0-.246-.083-.246-.247v-.41c0-.163.082-.245.246-.245h5.48c.082 0 .164.082.164.246v.41c0 .163-.164.245-.246.245h-.409c-1.145.082-1.472.327-2.208 1.31l-3.436 5.076 3.763 5.65c.164.244.327.49.49.654.573.737 1.31.9 1.8.9zm-27.075-8.35v-.082h5.89v-.41c0-2.456-.491-5.076-3.518-5.076-2.944 0-3.599 3.03-3.599 5.404v1.473c0 3.193.164 7.123 4.417 7.123 2.781 0 4.581-1.392 4.826-4.175 0 0 0-.164.164-.164h.654c.328 0 .246.328.246.328-.164.573-.246 1.146-.41 1.637-1.063 3.111-3.68 3.52-6.216 3.52C1.8 53.906 0 50.058 0 45.474c0-4.34 2.618-7.532 7.116-7.45 4.418 0 6.544 2.783 6.544 6.877 0 .49-.081.655-.49.655H4.417c-.163 0-.245-.082-.245-.246v-.737c0-.164.082-.246.245-.246z" fill="#211f20"/><path d="M144.702 36.795h3.926v-.245c0-1.474-.327-3.193-2.372-3.193-1.963 0-2.454 1.965-2.454 3.438v.901c0 2.047.163 4.585 3.026 4.585 1.882 0 3.109-.9 3.272-2.702 0 0 .082-.082.164-.082h.409c.245 0 .163.164.163.164-.081.327-.081.655-.245.982-.736 2.047-2.536 2.293-4.254 2.293-3.517 0-4.744-2.456-4.744-5.404 0-2.783 1.8-4.83 4.908-4.83 3.027 0 4.499 1.883 4.499 4.42 0 .246-.082.41-.327.41h-5.971a.176.176 0 0 1-.164-.164v-.408c0-.082.082-.164.164-.164zm-7.608 4.75l.164.163c.163.163.163.163-.246.49-.654.492-1.472.738-2.372.738-2.944 0-4.171-2.293-4.171-4.913 0-2.7 1.063-5.24 4.171-5.24 1.227 0 2.454.328 3.19 1.392v-3.602a.56.56 0 0 1 .573-.573h.736a.56.56 0 0 1 .573.573v10.89c0 .736 1.227.736 1.636.736.082 0 .163.082.163.164v.245a.176.176 0 0 1-.163.164h-3.354a.176.176 0 0 1-.164-.164v-5.403c0-1.8-.572-3.766-2.78-3.766-2.455 0-2.536 2.865-2.536 4.666 0 1.638.409 4.176 2.535 4.176.655 0 1.145-.246 1.554-.492.246-.245.41-.327.491-.245zm-9.488-3.276c.981.164 1.472 1.556 1.472 3.111 0 1.228-.327 1.392-1.472 1.392-1.064 0-1.39-.164-1.39-1.392 0-1.555.326-2.947 1.39-3.11z" fill="#bdda44"/></g></svg>