<?xml version="1.0" encoding="UTF-8" standalone="no"?>
<!DOCTYPE svg PUBLIC "-//W3C//DTD SVG 1.1//EN" "http://www.w3.org/Graphics/SVG/1.1/DTD/svg11.dtd">
<svg width="100%" height="100%" viewBox="0 0 1413 422" version="1.1" xmlns="http://www.w3.org/2000/svg" xmlns:xlink="http://www.w3.org/1999/xlink" xml:space="preserve" xmlns:serif="http://www.serif.com/" style="fill-rule:evenodd;clip-rule:evenodd;stroke-linejoin:round;stroke-miterlimit:2;">
    <g transform="matrix(1,0,0,1,-320.342,-415.86)">
        <g transform="matrix(1,0,0,1,-483,-5231.5)">
            <g transform="matrix(1,0,0,1,0,1)">
                <path d="M2027.61,6067.39L2090.05,6067.39L2216.27,5754.74L2154.27,5754.74L2102.09,5894.79L2045.45,5754.74L1975.87,5754.74L2068.64,5964.36L2027.61,6067.39ZM1847.93,5988L1912.16,5988L1912.16,5800.68L1963,5800.68L1963,5754.74L1912.16,5754.74L1912.16,5726.2C1912.16,5708.36 1920.63,5695.42 1941.15,5695.42C1950.51,5695.42 1958.54,5697.21 1964.78,5699.44L1964.78,5650.82C1954.53,5647.7 1945.16,5646.36 1931.33,5646.36C1879.6,5646.36 1847.93,5673.57 1847.93,5727.98L1847.93,5754.74L1817.16,5754.74L1817.16,5800.68L1847.93,5800.68L1847.93,5988ZM1722.5,5988L1786.72,5988L1786.72,5754.74L1722.5,5754.74L1722.5,5988ZM1754.16,5723.08C1775.12,5723.08 1791.18,5707.91 1791.18,5687.84C1791.18,5667.77 1775.12,5652.61 1754.16,5652.61C1733.65,5652.61 1717.59,5667.77 1717.59,5687.84C1717.59,5707.91 1733.65,5723.08 1754.16,5723.08ZM1533.07,5992.91C1567.41,5992.91 1595.96,5972.84 1608,5949.2L1608,5988L1672.22,5988L1672.22,5649.04L1608,5649.04L1608,5789.53C1595.06,5765.89 1571.87,5749.39 1534.41,5749.39C1475.98,5749.39 1431.83,5794.44 1431.83,5871.15L1431.83,5874.72C1431.83,5952.32 1476.43,5992.91 1533.07,5992.91ZM1552.25,5942.51C1520.14,5942.51 1497.84,5919.76 1497.84,5873.38L1497.84,5869.81C1497.84,5823.43 1517.91,5798.9 1554.03,5798.9C1589.27,5798.9 1609.78,5822.53 1609.78,5868.92L1609.78,5872.49C1609.78,5919.76 1586.14,5942.51 1552.25,5942.51ZM1300.3,5992.91C1364.08,5992.91 1404.22,5964.81 1411.8,5914.41L1350.7,5914.41C1346.68,5934.03 1331.96,5946.97 1302.08,5946.97C1266.85,5946.97 1245.89,5924.67 1244.1,5885.87L1412.24,5885.87L1412.24,5868.03C1412.24,5784.62 1358.72,5749.39 1298.51,5749.39C1230.72,5749.39 1178.54,5797.11 1178.54,5870.7L1178.54,5874.27C1178.54,5948.75 1229.83,5992.91 1300.3,5992.91ZM1244.99,5846.17C1249.9,5813.17 1269.52,5793.99 1298.51,5793.99C1329.29,5793.99 1347.13,5810.94 1349.36,5846.17L1244.99,5846.17ZM803.342,5988L868.012,5988L868.012,5764.11L956.766,5988L980.404,5988L1068.71,5764.11L1068.71,5988L1140.52,5988L1140.52,5669.11L1046.86,5669.11L973.268,5867.58L898.786,5669.11L803.342,5669.11L803.342,5988Z" style="fill:rgb(0,71,214);fill-rule:nonzero;"/>
            </g>
        </g>
    </g>
</svg>
