<svg clip-rule="evenodd" fill-rule="evenodd" stroke-linejoin="round" stroke-miterlimit="2" viewBox="0 0 741 196" xmlns="http://www.w3.org/2000/svg"><g transform="translate(-8.977 -23.897)"><path d="m204.538 121.676c0 54.003-43.778 97.78-97.78 97.78s-97.781-43.777-97.781-97.78c0-54.002 43.779-97.779 97.781-97.779s97.78 43.777 97.78 97.779" fill="#fffffe"/><path d="m310.81 91.788c0-8.223-8.364-16.291-22.672-16.291-14.355 0-22.72 8.068-22.72 16.291v24.234c0 8.239 8.365 16.299 22.72 16.299 14.308 0 22.672-8.06 22.672-16.299zm-22.672 46.894c-4.851 0-9.489-.571-14.55-2.156-4.638-1.474-8.17.544-8.17 3.449v26.921c0 2.033-1.76 3.181-4.833 3.181h-.671c-3.087 0-4.85-1.148-4.85-3.181v-75.108c0-11.987 13.232-22.66 33.074-22.66 19.812 0 33.041 10.673 33.041 22.66v24.234c0 11.965-13.229 22.66-33.041 22.66zm105.667-1.46h-.659c-3.104 0-4.873-1.153-4.873-3.162v-42.272c0-8.223-8.359-16.291-22.673-16.291-14.332 0-22.726 8.068-22.726 16.291v42.272c0 2.009-1.762 3.162-4.82 3.162h-.676c-3.066 0-4.842-1.153-4.842-3.162v-95.976c0-2.029 1.776-3.182 4.842-3.182h.676c3.058 0 4.82 1.153 4.82 3.182v29.752c0 2.884 3.535 4.913 8.168 3.457 5.07-1.579 9.714-2.165 14.558-2.165 19.819 0 33.064 10.673 33.064 22.66v42.272c0 2.009-1.792 3.162-4.859 3.162m139.911-59.706c-5.601-2.059-7.221-2.019-13.413-2.019-14.307 0-22.689 8.068-22.689 16.291v42.272c0 2.009-1.76 3.162-4.857 3.162h-.652c-3.082 0-4.844-1.153-4.844-3.162v-42.272c0-11.987 13.21-22.387 33.042-22.66 8.282-.091 13.154.599 18.667 3.044 2.214 1.012 3.08 2.893 1.54 4.334-1.54 1.594-4.341 1.915-6.794 1.01m66.264 14.272c0-8.223-8.378-16.291-22.697-16.291-14.304 0-22.686 8.068-22.686 16.291v3.027c0 4.015 3.537 6.339 9.7 6.339h25.999c6.165 0 9.684-2.324 9.684-6.339zm.668 14.851h-36.351c-6.163 0-9.7 2.324-9.7 6.347v3.036c0 8.239 8.382 16.299 22.686 16.299 11.031 0 16.556-4.465 20.071-7.792 1.513-1.578 4.634-2.015 6.827-1.014 2.193 1.014 2.86 2.897 1.547 4.472-3.97 5.047-13.459 10.695-28.445 10.695-19.832 0-33.049-10.695-33.049-22.66v-24.234c0-11.987 13.217-22.66 33.049-22.66 19.837 0 33.082 10.673 33.082 22.66v8.513c0 4.039-3.546 6.338-9.717 6.338zm50.998 32.043c-14.547 0-25.347-5.648-30.638-11.259-1.322-1.447-1.519-3.324.888-4.472 1.97-1.014 4.835-.879 6.608.73 4.823 4.306 13 8.64 23.142 8.64 16.303 0 22.707-7.501 22.707-14.417 0-12.394-22.707-12.705-22.707-12.705-19.396-.713-30.638-7.637-30.638-18.027 0-8.806 10.361-18.044 30.638-18.044 8.825 0 17.402 2.444 22.237 5.64 1.991 1.298 1.991 3.332 0 4.464-1.951 1.151-4.631 1.151-7.479-.288-3.943-2.15-8.584-3.606-14.758-3.606-16.518 0-20.699 7.923-20.699 11.834 0 10.833 20.476 11.839 20.476 11.839 17.625.698 33.278 5.763 33.278 18.893 0 11.811-12.351 20.778-33.055 20.778m94.925-1.267c-3.166.741-6.947 1.267-11.296 1.267-19.842 0-33.077-10.695-33.077-22.66v-32.647c0-4.037-3.509-6.34-9.695-6.34h-3.294c-3.082 0-4.868-2.13-4.868-3.707 0-1.597 1.786-4.062 4.868-4.062h3.294c6.186 0 9.695-2.296 9.695-6.33v-24.746c0-1.991 1.773-3.167 4.858-3.167h.68c3.068 0 4.829 1.176 4.829 3.167v24.746c0 4.034 3.522 6.33 9.726 6.33h14.047c3.082 0 4.842 2.465 4.842 4.062 0 1.577-1.76 3.707-4.842 3.707h-14.047c-6.204 0-9.726 2.303-9.726 6.34v32.647c0 8.239 8.379 16.299 22.71 16.299 2.932 0 5.444-.403 7.607-.864 7.422-1.536 8.062 4.915 3.689 5.958m-282.561-21.613c0 8.075-7.868 16.048-21.313 16.048-13.473 0-21.338-7.973-21.338-16.048v-23.865c0-8.097 7.865-16.039 21.338-16.039 13.445 0 21.313 7.942 21.313 16.039zm-21.307-46.235c-20.873 0-33.077 9.748-33.077 19.677v29.254c0 9.92 12.204 19.658 33.077 19.658 20.846 0 33.036-9.738 33.036-19.658v-29.254c0-9.929-12.19-19.677-33.036-19.677zm-88.066 134.262c-2.886 2.296-6.654 3.356-11.008 3.356-5.886 0-11.127-3.063-14.422-6.123l4.709-6.946c2.942 3.061 7.475 5.121 10.595 5.121 3.06 0 5.416-1.471 5.416-4.179 0-2.768-3.003-3.827-4.769-4.474-1.763-.647-4.827-1.707-6.18-2.296-1-.47-3.061-1.237-4.828-2.943-1.765-1.649-3.177-4.002-3.177-7.83 0-3.885 1.883-6.945 4.237-8.889 2.296-1.94 6.006-3.237 10.715-3.237s10.126 2.238 12.891 5.004l-4.062 6.652c-2.354-2.355-6.004-4.122-9.066-4.122-3.061 0-5.296 1.18-5.296 3.65 0 2.474 2.296 3.415 4.119 4.122 1.766.706 4.769 1.767 6.063 2.296 1.119.41 3.827 1.472 5.652 3.295 1.708 1.707 3.179 4.18 3.179 7.83 0 3.885-1.826 7.417-4.768 9.713m27.389-10.125-4.649.295c-2.885.117-4.592 1.354-4.592 3.532 0 2.236 1.824 3.59 4.415 3.59 2.53 0 4.237-1.648 4.826-2.65zm9.359 12.774h-9.006l-.175-3.061c-1.237 1.236-3.593 3.707-8.302 3.707-5.121 0-10.535-2.765-10.535-9.24 0-6.476 5.946-8.654 11.302-8.89l7.298-.294v-.647c0-3.061-2.177-4.652-5.944-4.652-3.71 0-7.418 1.649-8.888 2.591l-2.474-6.121c2.474-1.236 7.005-2.943 12.421-2.943 5.417 0 8.534 1.234 10.83 3.355 2.238 2.118 3.473 4.945 3.473 9.831zm7.553 0h9.419v-40.618h-9.419zm31.739-22.132c-4.18 0-6.593 3.235-6.593 7.534 0 4.297 2.413 7.535 6.593 7.535 4.119 0 6.593-3.238 6.593-7.535 0-4.299-2.474-7.534-6.593-7.534zm0 22.778c-9.184 0-16.132-5.708-16.132-15.069 0-9.359 6.948-15.127 16.132-15.127 9.18 0 16.068 5.768 16.068 15.127 0 9.361-6.888 15.069-16.068 15.069zm50.643-.646h-9.418v-15.13c0-3.824-.589-6.71-4.474-6.71-4.06 0-5.179 3.298-5.179 7.477v14.363h-9.419v-29.02h9.419l-.061 4.179h.118c1.591-2.59 4.24-4.709 8.42-4.709 8.416 0 10.594 5.414 10.594 12.419zm43.881-2.649c-2.886 2.296-6.653 3.356-11.008 3.356-5.885 0-11.124-3.063-14.422-6.123l4.709-6.946c2.944 3.061 7.475 5.121 10.596 5.121 3.063 0 5.416-1.471 5.416-4.179 0-2.768-3.003-3.827-4.769-4.474-1.764-.647-4.827-1.707-6.181-2.296-.999-.47-3.061-1.237-4.826-2.943-1.767-1.649-3.179-4.002-3.179-7.83 0-3.885 1.884-6.945 4.237-8.889 2.296-1.94 6.006-3.237 10.715-3.237 4.71 0 10.123 2.238 12.892 5.004l-4.063 6.652c-2.353-2.355-6.003-4.122-9.063-4.122-3.063 0-5.299 1.18-5.299 3.65 0 2.474 2.296 3.415 4.12 4.122 1.766.706 4.769 1.767 6.063 2.296 1.119.41 3.827 1.472 5.651 3.295 1.706 1.707 3.181 4.18 3.181 7.83 0 3.885-1.826 7.417-4.77 9.713m25.154-19.483c-4.179 0-6.592 3.235-6.592 7.534 0 4.297 2.413 7.535 6.592 7.535 4.12 0 6.593-3.238 6.593-7.535 0-4.299-2.473-7.534-6.593-7.534zm0 22.778c-9.183 0-16.131-5.708-16.131-15.069 0-9.359 6.948-15.127 16.131-15.127 9.181 0 16.069 5.768 16.069 15.127 0 9.361-6.888 15.069-16.069 15.069zm58.531-22.486h-6.418v10.42c0 2.473.355 3.06.825 3.59.412.472 1.001.707 2.238.707 1.472 0 2.823-.53 2.823-.53l.47 7.358c-.705.177-3.293.941-6.711.941-3.354 0-5.591-.999-7.062-2.708-1.472-1.706-2.059-4.119-2.059-8.534v-11.244h-9.773v21.84h-9.476v-21.84h-3.71v-7.123h3.71v-1.589c0-3.237.648-6.063 2.354-7.829 1.706-1.824 4.474-3 8.124-3 3.708 0 6.416.763 6.416.763l-.47 6.534s-1.826-.53-3.476-.53c-2.765 0-3.472 1.589-3.472 3.768v1.883h9.773v-7.887h9.476v7.887h6.418zm50.471-7.18-9.538 29.02h-8.886l-5.651-17.778-5.709 17.778h-8.891l-9.534-29.02h9.534l5.124 18.542 5.589-18.542h7.711l5.594 18.542 5.119-18.542zm21.392 16.246-4.649.295c-2.886.117-4.592 1.354-4.592 3.532 0 2.236 1.826 3.59 4.415 3.59 2.535 0 4.241-1.648 4.826-2.65zm9.361 12.774h-9.006l-.177-3.061c-1.238 1.236-3.591 3.707-8.297 3.707-5.124 0-10.54-2.765-10.54-9.24 0-6.476 5.948-8.654 11.302-8.89l7.299-.294v-.647c0-3.061-2.175-4.652-5.943-4.652-3.71 0-7.42 1.649-8.891 2.591l-2.468-6.121c2.468-1.236 7.003-2.943 12.419-2.943s8.536 1.234 10.832 3.355c2.233 2.118 3.47 4.945 3.47 9.831zm26.391-20.369h-.412c-.527-.292-1.764-.705-3.413-.705-2.118 0-3.653 1.177-4.357 2.12-.705.941-1.471 2.825-1.471 6.062v12.892h-9.419v-29.02h9.419l-.058 4.119h.115c1.649-3.177 4.065-4.649 7.185-4.649 1.941 0 2.943.53 2.943.53zm24.027 2.768c-.057-2.648-1.998-5.828-5.943-5.828-3.887 0-5.886 3.06-6.006 5.828zm8.652 5.357h-20.659c.414 4.179 3.591 6.063 7.416 6.063 3.767 0 7.065-1.649 8.713-2.766l3.71 4.884c-.944.707-4.768 4.709-13.775 4.709-8.948 0-15.481-5.533-15.481-15.127 0-9.596 7.065-15.069 15.659-15.069 8.593 0 14.537 5.709 14.537 14.185 0 1.414-.12 3.121-.12 3.121zm-704.526-9.824c-34.583-34.587-34.585-90.656 0-125.242 34.585-34.584 90.657-34.584 125.242 0 34.587 34.586 34.583 90.655 0 125.242-34.585 34.582-90.655 34.586-125.242 0" fill="#512f7b"/><path d="m157.352 77.414c-2.119-5.005-5.653-8.182-11.577-9.226-5.923-1.044-25.951-3.412-39.044 4.193-13.092 7.603-20.937 17.895-20.937 17.895s-9.556 14.895 18.039 35.237c21.784 16.06 35.467 12.1 38.876 10.617 5.001-2.177 10.915-9.956 14.134-17.425 3.219-7.468 5.639-27.395.509-41.291zm-18.289 68.347s-16.802 6.178-40.264-16.801c-23.463-22.979-17.251-35.675-17.251-35.675s-6.091-3.081-9.907.673c-3.276 3.222-31.981 32.805-1.287 62.999 12.931 12.723 37.092 25.71 66.005 1.531 0 0 9.357-6.834 2.704-12.727zm-71.497 17.385c-4.552 5.011-9.351 1.567-10.019.114-.793-1.723-3.139-1.804-5.386-.34-2.247 1.463-3.013 4.555-.291 7.176 1.395 1.344 5.675 3.68 10.921 3.563 4.364-.096 7.955-4.102 7.955-4.102s3.578-4.23 1.546-6.23c-2.283-2.245-4.726-.181-4.726-.181z" fill="#fffffe"/></g></svg>