<?xml version="1.0" encoding="UTF-8" standalone="no"?>
<!DOCTYPE svg PUBLIC "-//W3C//DTD SVG 1.1//EN" "http://www.w3.org/Graphics/SVG/1.1/DTD/svg11.dtd">
<svg width="825" height="221" viewBox="0 0 825 221" version="1.1" xmlns="http://www.w3.org/2000/svg" xmlns:xlink="http://www.w3.org/1999/xlink" xml:space="preserve" xmlns:serif="http://www.serif.com/" style="fill-rule:evenodd;clip-rule:evenodd;stroke-linejoin:round;stroke-miterlimit:1.41421;">
    <g transform="matrix(1,0,0,1,-88,-289.56)">
        <g transform="matrix(1,0,0,1,88,289)">
            <path id="qonto" d="M241.52,101.84C241.52,108.24 242.16,114.2 243.44,119.72C244.72,125.24 246.8,130.04 249.68,134.12C252.56,138.2 256.28,141.4 260.84,143.72C265.4,146.04 270.88,147.2 277.28,147.2C283.36,147.2 288.96,146.16 294.08,144.08C299.2,142 303.12,139.84 305.84,137.6L305.84,58.88C303.6,58.24 300.6,57.68 296.84,57.2C293.08,56.72 287.84,56.48 281.12,56.48C269.12,56.48 259.52,60.4 252.32,68.24C245.12,76.08 241.52,87.28 241.52,101.84ZM222.68,74.6C225.64,66.52 229.84,59.68 235.28,54.08C240.72,48.48 247.28,44.16 254.96,41.12C262.64,38.08 271.28,36.56 280.88,36.56C291.28,36.56 300.44,37.32 308.36,38.84C316.28,40.36 322.88,41.76 328.16,43.04L328.16,217.118L305.84,221.207L305.84,158.48C303.12,160.24 299,162.08 293.48,164C287.96,165.92 281.6,166.88 274.4,166.88C265.44,166.88 257.48,165.28 250.52,162.08C243.56,158.88 237.68,154.4 232.88,148.64C228.08,142.88 224.44,136 221.96,128C219.48,120 218.24,111.28 218.24,101.84C218.24,91.76 219.72,82.68 222.68,74.6ZM469.72,101.6C469.72,111.52 468.28,120.48 465.4,128.48C462.52,136.48 458.48,143.36 453.28,149.12C448.08,154.88 441.88,159.32 434.68,162.44C427.48,165.56 419.64,167.12 411.16,167.12C402.68,167.12 394.84,165.56 387.64,162.44C380.44,159.32 374.24,154.88 369.04,149.12C363.84,143.36 359.8,136.48 356.92,128.48C354.04,120.48 352.6,111.52 352.6,101.6C352.6,91.84 354.04,82.92 356.92,74.84C359.8,66.76 363.84,59.84 369.04,54.08C374.24,48.32 380.44,43.88 387.64,40.76C394.84,37.64 402.68,36.08 411.16,36.08C419.64,36.08 427.48,37.64 434.68,40.76C441.88,43.88 448.08,48.32 453.28,54.08C458.48,59.84 462.52,66.76 465.4,74.84C468.28,82.92 469.72,91.84 469.72,101.6ZM446.44,101.6C446.44,87.52 443.28,76.36 436.96,68.12C430.64,59.88 422.04,55.76 411.16,55.76C400.28,55.76 391.68,59.88 385.36,68.12C379.04,76.36 375.88,87.52 375.88,101.6C375.88,115.68 379.04,126.84 385.36,135.08C391.68,143.32 400.28,147.44 411.16,147.44C422.04,147.44 430.64,143.32 436.96,135.08C443.28,126.84 446.44,115.68 446.44,101.6ZM494.16,42.8C499.28,41.52 506.08,40.16 514.56,38.72C523.04,37.28 532.8,36.56 543.84,36.56C553.76,36.56 562,37.96 568.56,40.76C575.12,43.56 580.36,47.48 584.28,52.52C588.2,57.56 590.96,63.6 592.56,70.64C594.16,77.68 594.96,85.44 594.96,93.92L594.96,164L572.64,164L572.64,98.72C572.64,91.04 572.12,84.48 571.08,79.04C570.04,73.6 568.32,69.2 565.92,65.84C563.52,62.48 560.32,60.04 556.32,58.52C552.32,57 547.36,56.24 541.44,56.24C539.04,56.24 536.56,56.32 534,56.48C531.44,56.64 529,56.84 526.68,57.08C524.36,57.32 522.28,57.6 520.44,57.92C518.6,58.24 517.28,58.48 516.48,58.64L516.48,164L494.16,164L494.16,42.8ZM645.8,39.2L693.08,39.2L693.08,57.92L645.8,57.92L645.8,115.52C645.8,121.76 646.28,126.92 647.24,131C648.2,135.08 649.64,138.28 651.56,140.6C653.48,142.92 655.88,144.56 658.76,145.52C661.64,146.48 665,146.96 668.84,146.96C675.56,146.96 680.96,146.2 685.04,144.68C689.12,143.16 691.96,142.08 693.56,141.44L697.88,159.92C695.64,161.04 691.72,162.44 686.12,164.12C680.52,165.8 674.12,166.64 666.92,166.64C658.44,166.64 651.44,165.56 645.92,163.4C640.4,161.24 635.96,158 632.6,153.68C629.24,149.36 626.88,144.04 625.52,137.72C624.16,131.4 623.48,124.08 623.48,115.76L623.48,4.4L645.8,0.56L645.8,39.2ZM824.56,101.6C824.56,111.52 823.12,120.48 820.24,128.48C817.36,136.48 813.32,143.36 808.12,149.12C802.92,154.88 796.72,159.32 789.52,162.44C782.32,165.56 774.48,167.12 766,167.12C757.52,167.12 749.68,165.56 742.48,162.44C735.28,159.32 729.08,154.88 723.88,149.12C718.68,143.36 714.64,136.48 711.76,128.48C708.88,120.48 707.44,111.52 707.44,101.6C707.44,91.84 708.88,82.92 711.76,74.84C714.64,66.76 718.68,59.84 723.88,54.08C729.08,48.32 735.28,43.88 742.48,40.76C749.68,37.64 757.52,36.08 766,36.08C774.48,36.08 782.32,37.64 789.52,40.76C796.72,43.88 802.92,48.32 808.12,54.08C813.32,59.84 817.36,66.76 820.24,74.84C823.12,82.92 824.56,91.84 824.56,101.6ZM801.28,101.6C801.28,87.52 798.12,76.36 791.8,68.12C785.48,59.88 776.88,55.76 766,55.76C755.12,55.76 746.52,59.88 740.2,68.12C733.88,76.36 730.72,87.52 730.72,101.6C730.72,115.68 733.88,126.84 740.2,135.08C746.52,143.32 755.12,147.44 766,147.44C776.88,147.44 785.48,143.32 791.8,135.08C798.12,126.84 801.28,115.68 801.28,101.6Z" style="fill:rgb(65,70,96);"/>
        </g>
        <g transform="matrix(1,0,0,1,88,289)">
            <path id="Combined-Shape" d="M22.217,73.822C8.92,60.502 1.011,42.765 0,24C18.749,25.041 36.443,32.984 49.652,46.291C62.945,59.614 70.853,77.35 71.868,96.114C53.119,95.073 35.425,87.129 22.217,73.822ZM129.783,73.822C116.575,87.129 98.881,95.073 80.132,96.114C81.147,77.35 89.055,59.614 102.348,46.291C115.557,32.984 133.251,25.041 152,24C150.989,42.765 143.08,60.502 129.783,73.822ZM129.783,126.178C143.08,139.498 150.989,157.235 152,176C133.251,174.959 115.557,167.016 102.348,153.709C89.055,140.386 81.147,122.65 80.132,103.886C98.881,104.927 116.575,112.871 129.783,126.178ZM22.217,126.178C35.425,112.871 53.378,104.919 72.127,103.878C71.112,122.642 62.945,140.386 49.652,153.709C36.443,167.016 18.749,174.959 0,176C1.011,157.235 8.92,139.498 22.217,126.178Z" style="fill:rgb(107,90,237);"/>
        </g>
    </g>
</svg>
