<svg height="88" width="140" xmlns="http://www.w3.org/2000/svg"><g fill="none" fill-rule="evenodd"><path d="M41.048 44.432c0 1.096.108 2.116.325 3.06s.57 1.767 1.058 2.465c.489.699 1.12 1.247 1.893 1.644s1.703.595 2.788.595c1.031 0 1.98-.178 2.85-.534.868-.356 1.532-.725 1.994-1.109V37.08c-.38-.11-.889-.206-1.527-.288s-1.526-.123-2.666-.123c-2.035 0-3.663.67-4.884 2.013s-1.831 3.259-1.831 5.751zm-3.195-4.663c.501-1.383 1.214-2.554 2.136-3.512.923-.959 2.035-1.698 3.338-2.218s2.768-.781 4.396-.781c1.763 0 3.317.13 4.66.39s2.462.5 3.358.72v29.796l-3.785.7V54.127c-.462.301-1.16.616-2.097.945-.936.329-2.014.493-3.235.493-1.52 0-2.87-.274-4.05-.822a8.426 8.426 0 0 1-2.992-2.3c-.814-.986-1.431-2.164-1.852-3.533s-.63-2.862-.63-4.478c0-1.725.25-3.28.753-4.663zm41.895 4.622c0 1.698-.244 3.232-.733 4.601-.488 1.37-1.173 2.547-2.055 3.533a9.044 9.044 0 0 1-3.154 2.28c-1.221.534-2.551.801-3.99.801-1.437 0-2.767-.267-3.988-.801a9.044 9.044 0 0 1-3.154-2.28c-.882-.986-1.567-2.164-2.056-3.533-.488-1.37-.732-2.903-.732-4.601 0-1.67.244-3.197.732-4.58.489-1.384 1.174-2.568 2.056-3.554a9.044 9.044 0 0 1 3.154-2.28c1.221-.534 2.55-.801 3.989-.801 1.438 0 2.768.267 3.989.8a9.044 9.044 0 0 1 3.154 2.28c.882.987 1.567 2.171 2.055 3.554.489 1.384.733 2.91.733 4.581zm-3.948 0c0-2.41-.536-4.32-1.608-5.73-1.072-1.411-2.53-2.116-4.375-2.116s-3.304.705-4.376 2.115c-1.071 1.41-1.607 3.32-1.607 5.731s.536 4.32 1.607 5.73c1.072 1.411 2.53 2.116 4.376 2.116s3.303-.705 4.375-2.115 1.608-3.32 1.608-5.731zm8.093-10.065c.868-.219 2.021-.452 3.46-.698 1.438-.247 3.093-.37 4.965-.37 1.682 0 3.08.24 4.192.719s2.001 1.15 2.666 2.013 1.133 1.896 1.404 3.102c.272 1.205.407 2.533.407 3.984v11.996h-3.785V43.898c0-1.315-.088-2.437-.264-3.369-.177-.93-.468-1.684-.875-2.26a3.467 3.467 0 0 0-1.628-1.252c-.679-.26-1.52-.39-2.524-.39-.407 0-.828.013-1.262.04s-.848.062-1.241.103c-.394.042-.746.09-1.058.144-.312.055-.536.096-.672.123v18.035h-3.785zm25.716-.616h8.019v3.204h-8.019v9.86c0 1.068.082 1.951.245 2.65.162.698.407 1.246.732 1.643.326.397.733.678 1.221.842.489.164 1.059.246 1.71.246 1.14 0 2.055-.13 2.747-.39s1.174-.445 1.445-.555l.733 3.164c-.38.191-1.045.431-1.995.719-.95.287-2.035.431-3.256.431-1.438 0-2.625-.185-3.561-.555s-1.69-.924-2.26-1.663c-.569-.74-.97-1.65-1.2-2.732s-.346-2.335-.346-3.76v-19.06l3.785-.658zm30.316 10.681c0 1.698-.244 3.232-.732 4.601-.489 1.37-1.174 2.547-2.056 3.533a9.044 9.044 0 0 1-3.154 2.28c-1.221.534-2.55.801-3.989.801-1.438 0-2.768-.267-3.989-.801a9.044 9.044 0 0 1-3.154-2.28c-.882-.986-1.567-2.164-2.055-3.533-.489-1.37-.733-2.903-.733-4.601 0-1.67.244-3.197.733-4.58.488-1.384 1.173-2.568 2.055-3.554a9.044 9.044 0 0 1 3.154-2.28c1.221-.534 2.551-.801 3.99-.801 1.437 0 2.767.267 3.988.8a9.044 9.044 0 0 1 3.154 2.28c.882.987 1.567 2.171 2.056 3.554.488 1.384.732 2.91.732 4.581zm-3.948 0c0-2.41-.536-4.32-1.607-5.73-1.072-1.411-2.53-2.116-4.376-2.116-1.845 0-3.303.705-4.375 2.115s-1.608 3.32-1.608 5.731.536 4.32 1.608 5.73c1.072 1.411 2.53 2.116 4.375 2.116s3.304-.705 4.376-2.115c1.071-1.41 1.607-3.32 1.607-5.731z" fill="#414660"/><path d="M3.731 39.524A12.879 12.879 0 0 1 0 31.13a12.728 12.728 0 0 1 8.34 3.756 12.887 12.887 0 0 1 3.73 8.394 12.727 12.727 0 0 1-8.339-3.756zm18.067 0a12.727 12.727 0 0 1-8.34 3.756 12.887 12.887 0 0 1 3.732-8.394 12.728 12.728 0 0 1 8.34-3.756 12.879 12.879 0 0 1-3.732 8.394zm0 8.821a12.879 12.879 0 0 1 3.731 8.394 12.728 12.728 0 0 1-8.339-3.755 12.887 12.887 0 0 1-3.731-8.395 12.727 12.727 0 0 1 8.339 3.756zm-18.067 0a12.836 12.836 0 0 1 8.383-3.757c-.17 3.161-1.542 6.15-3.775 8.396A12.728 12.728 0 0 1 0 56.739a12.879 12.879 0 0 1 3.731-8.394z" fill="#6b5aed"/></g></svg>