<svg viewBox="0 0 162 30" xmlns="http://www.w3.org/2000/svg" fill-rule="evenodd" clip-rule="evenodd" stroke-linejoin="round" stroke-miterlimit="2"><path d="M54.672 6.148c-4.846 0-8.019 3.32-8.019 8.796 0 6.799 4.853 8.75 8.318 8.75a9.537 9.537 0 0 0 6.89-2.947l-2.234-2.238a6.405 6.405 0 0 1-4.602 1.699c-2.702 0-4.523-1.577-4.523-3.736h12.035s2.101-10.324-7.865-10.324zm-4.162 7.388c0-2.904 2.205-4.312 4.583-4.312s4.519 1.437 4.519 4.312H50.51zm-40.173-.291c-1.54-.194-6.001-.018-6.001-2.048 0-1.204 1.87-1.855 3.597-1.855a9.148 9.148 0 0 1 5.106 1.467l2.313-2.311c-.687-.553-3.238-2.35-7.411-2.35-3.807 0-7.228 1.987-7.228 5.174 0 4.887 5.907 4.887 8.372 5.128 1.493.147 2.878.248 2.878 1.71 0 1.362-2.087 2.117-3.702 2.117-2.634 0-4.21-.863-5.757-2.25l-2.489 2.49a11.415 11.415 0 0 0 8.026 3.173c4.418 0 7.646-1.944 7.646-5.86 0-2.595-1.749-4.14-5.325-4.585m12.703-7.097a10.8 10.8 0 0 0-6.792 2.346l2.338 2.325a7.342 7.342 0 0 1 4.494-1.455c2.943 0 3.821 1.171 3.821 2.494v1.649h-5.253c-1.939 0-5.756.489-5.756 4.75 0 3.13 1.799 5.433 6.087 5.433 2.159 0 3.781-.697 4.908-2.044v1.699h3.802V12.113c0-3.931-2.41-5.965-7.652-5.965h.003zm3.872 11.071c0 3.234-2.317 3.076-4.39 3.076-2.072 0-3.436-.557-3.436-2.016 0-1.358 1.08-1.797 3.346-1.797h4.48v.737zM42.469 6.511v1.883a6.115 6.115 0 0 0-4.958-2.246c-3.598 0-5.465 2.019-6.091 4.172-.234.801-.317 2.328-.317 4.585 0 2.123.022 4.057.763 5.544 1.032 2.081 3.547 3.234 5.645 3.234a6.424 6.424 0 0 0 4.958-2.156v1.067a3.194 3.194 0 0 1-1.22 2.699 4.805 4.805 0 0 1-3.184 1.042c-1.256 0-2.461-.686-3.148-1.164l-2.558 2.562c1.658 1.344 3.641 2.256 5.781 2.274a8.727 8.727 0 0 0 5.689-1.915c1.529-1.2 2.496-3.46 2.496-5.857V6.511h-3.856zm0 8.401c.038.921.001 1.844-.112 2.76-.234 1.078-1.475 2.515-3.727 2.515-.565 0-3.458-.324-3.782-2.824a19.09 19.09 0 0 1-.111-2.473c0-1.947.079-2.569.18-3.061.198-.981 1.482-2.425 3.713-2.425 2.73 0 3.598 1.857 3.734 2.576.106.966.147 1.939.123 2.91" fill="rgb(0,220,0)" fill-rule="nonzero"/><path fill="rgb(142,142,142)" fill-rule="nonzero" d="M73.179 0H74.755V23.694H73.179z"/><path d="M92.838 23.694h-1.605V12.555c0-2.749-.885-4.352-3.702-4.352-2.393 0-5.012 1.571-6.095 2.588v12.892h-1.604V7.068h1.41l.097 2.156c1.932-1.373 4.159-2.487 6.476-2.487 3.504 0 5.012 2.031 5.012 5.75l.011 11.207zm12.355-.589c-.788.553-2.393.981-3.573.981-3.08 0-4.227-1.276-4.227-4.19V8.477h-2.652V7.068h2.662V2.325l1.605-.262v5.005h4.72v1.409h-4.731v11.092c0 1.998.461 3.173 2.72 3.173a6.5 6.5 0 0 0 3.015-.881l.461 1.244zm12.678-1.768c0 .916.162 1.372 1.015 1.372a3.406 3.406 0 0 0 1.014-.194l.134 1.046a3.427 3.427 0 0 1-1.771.392c-1.439 0-1.964-1.078-1.899-2.092a7.994 7.994 0 0 1-5.649 2.225c-4.26 0-4.914-2.947-4.914-4.517 0-4.743 4.292-5.563 8.156-5.563.788 0 1.54.033 2.259.065v-1.473c0-3.27-.816-4.513-3.957-4.513-2.785 0-3.868 1.045-4.228 3.108l-1.54-.262c.526-3.076 2.555-4.19 5.897-4.19 3.9 0 5.473 1.437 5.473 5.562l.01 9.034zm-1.604-5.89c-.756-.068-1.54-.1-2.558-.1-3.343 0-6.192.69-6.192 4.06 0 1.797.687 3.302 3.439 3.302a7.147 7.147 0 0 0 5.311-2.353v-4.909zm4.749 0c0-5.857 2.878-8.706 7.731-8.706 3.145 0 5.735 1.797 5.897 5.39l-1.734.197c-.295-2.849-1.673-4.189-4.357-4.189-2.788 0-5.864 1.57-5.864 7.068 0 5.921 2.878 7.362 5.666 7.362 2.555 0 4.318-1.178 4.782-3.798l1.64.331c-.622 3.564-3.475 4.973-6.389 4.973-5.473.011-7.372-3.59-7.372-8.628zm15.726 0c0-5.857 2.878-8.706 7.731-8.706 3.149 0 5.735 1.797 5.901 5.39l-1.738.197c-.295-2.849-1.673-4.189-4.357-4.189-2.785 0-5.864 1.57-5.864 7.068 0 5.921 2.878 7.362 5.666 7.362 2.555 0 4.318-1.178 4.785-3.798l1.637.331c-.622 3.564-3.472 4.973-6.389 4.973-5.473.011-7.372-3.59-7.372-8.628zm25.033 7.658c-.788.553-2.392.981-3.572.981-3.08 0-4.228-1.276-4.228-4.19V8.477h-2.651V7.068h2.651V2.325l1.609-.262v5.005h4.716v1.409h-4.716v11.092c0 1.998.457 3.173 2.716 3.173a6.5 6.5 0 0 0 3.015-.881l.46 1.244z" fill="rgb(142,142,142)" fill-rule="nonzero"/></svg>