<svg height="88" width="124" xmlns="http://www.w3.org/2000/svg"><path d="M119.252 43.499c-.085-1.77-1.18-3.454-3.958-3.454-2.442 0-3.79 1.852-3.958 3.454zm4.465 5.728c-.928 3.032-3.707 5.559-8.003 5.559-4.799 0-9.096-3.453-9.096-9.35 0-5.559 4.128-9.265 8.592-9.265 5.39 0 8.674 3.453 8.674 9.096 0 .674-.084 1.433-.084 1.433h-12.55c.085 2.358 2.106 3.958 4.38 3.958 2.19 0 3.453-1.094 3.958-2.695zm-30.573-5.055c0-2.022 1.179-3.623 3.283-3.623 2.275 0 3.285 1.517 3.285 3.454v10.192h4.717V43.161c0-3.875-2.022-6.991-6.317-6.991-1.853 0-3.958.841-5.053 2.611v-2.19h-4.632v17.52h4.717zm-12.38-7.496h4.717v17.52h-4.716zM83.124 28c1.6 0 2.947 1.348 2.947 2.949 0 1.599-1.263 2.863-2.947 2.863-1.6 0-2.948-1.348-2.948-2.863 0-1.6 1.347-2.949 2.947-2.949zm-26.36 16.172c0-2.02 1.179-3.622 3.284-3.622 2.274 0 3.284 1.517 3.284 3.454v10.192h4.717V43.162c0-3.875-2.021-6.991-6.317-6.991-1.853 0-3.958.841-5.052 2.611V36.59h-4.632v17.52h4.715zm-12.549-7.495h4.717v17.52h-4.717zM46.488 28c1.6 0 2.947 1.348 2.947 2.949 0 1.599-1.263 2.863-2.946 2.863-1.6 0-2.949-1.348-2.949-2.863.085-1.6 1.348-2.949 2.948-2.949zM33.013 51.248c-1.515 0-2.274-1.01-2.274-2.021 0-1.349.926-2.022 2.19-2.19l3.958-.59v.758c0 3.033-1.852 4.043-3.874 4.043zm-6.99-1.77c0 2.78 2.274 5.308 6.064 5.308 2.612 0 4.295-1.18 5.137-2.612 0 .674.084 1.6.168 2.106h4.38c-.084-.59-.253-1.853-.253-2.779v-8.676c0-3.538-2.105-6.654-7.664-6.654-4.715 0-7.242 3.032-7.495 5.811l4.211.926c.168-1.515 1.263-2.863 3.369-2.863 2.02 0 2.947 1.01 2.947 2.274 0 .59-.337 1.095-1.347 1.264l-4.296.674c-2.946.337-5.22 2.106-5.22 5.223zm-1.431-8.085c-.506-.084-1.012-.168-1.432-.168-2.442 0-4.548 1.179-4.548 4.97v8.001h-4.716v-17.52h4.632v2.612c1.094-2.36 3.453-2.78 4.969-2.78.42 0 .759 0 1.095.084zm-13.307-4.464v4.127H5.81c.505-.252.927-.674 1.347-1.011.843-.842 1.432-1.853 1.853-3.116zm-9.938 4.127H0v-4.127h7.664c-.506 1.263-1.263 2.274-2.358 3.032-1.011.674-2.358 1.011-3.959 1.095zm8.508 9.265c.59 0 1.178-.083 1.43-.167v3.958c-.42.168-1.262.421-2.61.421-3.368 0-5.474-2.022-5.474-5.39V42.15h4.632v6.233c0 1.432.674 1.937 2.022 1.937zM7.833 35.834v-4.129H3.622v2.442c0 .674-.169 1.265-.506 1.686zM78.154 50.32h-.843c-1.347 0-2.02-.505-2.02-2.02V28.757h-4.633v20.384c0 3.37 2.105 5.39 5.475 5.39.841 0 1.515-.083 2.02-.252z" fill="#48d6b6"/></svg>