<svg height="88" width="89" xmlns="http://www.w3.org/2000/svg"><radialGradient id="a" cx="53.651%" cy="49.971%" gradientTransform="matrix(-.4065 .73828 -.44495 -.6745 .977 .44)" r="38.703%"><stop offset="0" stop-color="#39acde"/><stop offset="1" stop-color="#0e3c64"/></radialGradient><linearGradient id="b" x1="50%" x2="50%" y1="67.525%" y2="100%"><stop offset="0" stop-color="#818485"/><stop offset="1" stop-color="#fff" stop-opacity="0"/></linearGradient><g fill="none"><path d="M82.687 0h5.327L76.028 35.847h-5.82L62.61 12.37h5.295l5.228 16.507h.066zM53.382 12.369h5.294l8.78 23.478h-5.36L60.32 30.62h-8.78l-1.84 5.227h-5.195zm-20.888 0v8.55h.066a4.986 4.986 0 0 1 2.318-1.925 7.858 7.858 0 0 1 3.041-.608c.856 0 1.7.176 2.533.527.833.35 1.583.887 2.252 1.61.669.724 1.211 1.65 1.628 2.78.416 1.129.625 2.471.625 4.028 0 1.556-.209 2.9-.625 4.028-.417 1.13-.96 2.055-1.628 2.778a6.47 6.47 0 0 1-4.785 2.138c-1.249 0-2.367-.197-3.354-.592a4.256 4.256 0 0 1-2.236-2.006h-.066v2.17h-4.438V12.37zm23.453 5.787l-3.058 8.616h6.083l-2.96-8.616zM36.308 32.79c.701 0 1.3-.148 1.792-.444.498-.3.92-.71 1.234-1.2.329-.504.57-1.085.723-1.743a8.98 8.98 0 0 0 .23-2.039 9.12 9.12 0 0 0-.23-2.07 5.417 5.417 0 0 0-.723-1.744c-.314-.49-.736-.9-1.234-1.2-.493-.296-1.09-.444-1.792-.444-.68 0-1.271.148-1.775.444a3.74 3.74 0 0 0-1.25 1.2 5.401 5.401 0 0 0-.723 1.743 9.065 9.065 0 0 0-.23 2.071c0 .703.076 1.381.23 2.04.153.657.394 1.238.723 1.742.33.505.745.904 1.25 1.2.504.296 1.095.444 1.775.444z" fill="url(#a)" transform="translate(0 20)"/><path d="M20.183 17.328l-3.217 4.825-3.252-4.825h-5.79L14 26.084 0 48h5.683l11.212-18.02 3.86 5.826h5.79l-6.827-9.829 6.077-8.65z" fill="url(#b)" transform="translate(0 20)"/></g></svg>