<svg viewBox="0 0 450 450" xmlns="http://www.w3.org/2000/svg"><path d="m412.1 62.6c4.5 4.5 4.5 11.8 0 16.2l-71.7 71.7c-4.5 4.5-11.8 4.5-16.2 0l-27.3-27.3c-4.5-4.5-4.5-11.8 0-16.2l71.7-71.7c4.5-4.5 11.8-4.5 16.2 0z" fill="#35a4d9"/><path d="m66 35.6c4.6-4.6 12.1-4.6 16.7 0l69.8 69.8c4.6 4.6 4.6 12.1 0 16.7l-27.3 27.3c-4.6 4.6-12.1 4.6-16.7 0l-69.8-69.8c-4.6-4.6-4.6-12.1 0-16.7z" fill="#52bbb5"/><path d="m323.4 301.6c4.9-4.9 12.8-4.9 17.7 0l70.3 70.3c4.9 4.9 4.9 12.8 0 17.7l-25.8 25.8c-4.9 4.9-12.8 4.9-17.7 0l-70.3-70.3c-4.9-4.9-4.9-12.8 0-17.7z" fill="#00569d"/><path d="m154.3 329.4c4.1 4.1 4.1 10.9 0 15l-72.3 72.3c-4.1 4.1-10.9 4.1-15 0l-29.1-29.1c-4.1-4.1-4.1-10.9 0-15l72.3-72.3c4.1-4.1 10.9-4.1 15 0z" fill="#b3c45b"/><g fill="#1d1d1b"><path d="m89.3 275.2c-1.9 0-3.5-.3-4.8-.9s-2.3-1.3-2.9-2.3c-.7-.9-1-1.9-1.1-2.9 0-.2.1-.3.2-.5.1-.1.3-.2.5-.2h1.7c.3 0 .5.1.6.2s.2.3.3.5c.1.5.4 1 .8 1.5s1 .9 1.8 1.3c.8.3 1.8.5 3 .5 1.9 0 3.2-.3 4.1-1s1.3-1.5 1.3-2.6c0-.8-.2-1.4-.7-1.8-.5-.5-1.2-.9-2.1-1.3-1-.4-2.2-.8-3.7-1.2-1.6-.5-2.9-1-3.9-1.5s-1.8-1.2-2.3-2-.8-1.8-.8-3.1c0-1.2.3-2.2.9-3.1s1.5-1.7 2.7-2.2 2.6-.8 4.3-.8c1.3 0 2.5.2 3.5.5 1 .4 1.8.8 2.5 1.4s1.2 1.2 1.5 1.9.5 1.3.6 2c0 .2-.1.3-.2.4s-.3.2-.5.2h-1.7c-.2 0-.3 0-.5-.1s-.3-.2-.4-.5c-.1-.9-.6-1.6-1.5-2.2s-2-.9-3.4-.9-2.6.3-3.4.8c-.9.5-1.3 1.4-1.3 2.5 0 .7.2 1.4.6 1.8.4.5 1.1.9 2 1.3s2 .8 3.5 1.2c1.7.5 3.2 1 4.3 1.5s1.9 1.2 2.5 2c.5.8.8 1.8.8 3 0 1.4-.4 2.5-1.1 3.5s-1.7 1.7-3 2.2c-1.4.6-2.9.9-4.7.9"/><path d="m103.1 254.8c-.2 0-.4-.1-.5-.2s-.2-.3-.2-.5v-1.8c0-.2.1-.4.2-.6s.3-.2.5-.2h2c.2 0 .4.1.6.2.2.2.2.3.2.6v1.8c0 .2-.1.4-.2.5-.2.1-.3.2-.6.2zm.3 20c-.2 0-.4-.1-.5-.2s-.2-.3-.2-.5v-15.4c0-.2.1-.4.2-.5s.3-.2.5-.2h1.6c.2 0 .4.1.5.2s.2.3.2.5v15.4c0 .2-.1.4-.2.5s-.3.2-.5.2z"/><path d="m112.1 274.8c-.2 0-.4-.1-.5-.2s-.2-.3-.2-.5v-15.4c0-.2.1-.4.2-.5s.3-.2.5-.2h1.5c.2 0 .4.1.5.2s.2.3.2.5v1.1c.5-.7 1.1-1.2 1.9-1.6s1.7-.6 2.7-.6c2.4 0 4.2 1 5.2 3 .5-.9 1.2-1.6 2.2-2.2 1-.5 2-.8 3.3-.8 1.1 0 2.2.3 3.1.8s1.6 1.3 2.2 2.4c.5 1.1.8 2.4.8 4v9.4c0 .2-.1.4-.2.5s-.3.2-.5.2h-1.5c-.2 0-.4-.1-.5-.2s-.2-.3-.2-.5v-9.2c0-1.2-.2-2.2-.5-2.9s-.8-1.2-1.4-1.5-1.2-.4-1.9-.4c-.6 0-1.1.1-1.7.4s-1.1.8-1.4 1.5c-.4.7-.6 1.6-.6 2.9v9.1c0 .2-.1.4-.2.5s-.3.2-.5.2h-1.5c-.2 0-.4-.1-.5-.2s-.2-.3-.2-.5v-9.1c0-1.2-.2-2.2-.6-2.9s-.8-1.2-1.4-1.5-1.2-.4-1.9-.4c-.6 0-1.1.1-1.7.4s-1.1.8-1.4 1.5c-.4.7-.6 1.6-.6 2.8v9.1c0 .2-.1.4-.2.5s-.3.2-.5.2h-2z"/><path d="m141.8 281c-.2 0-.4-.1-.5-.2s-.2-.3-.2-.5v-21.6c0-.2.1-.4.2-.5s.3-.2.5-.2h1.5c.2 0 .4.1.5.2s.2.3.2.5v1.4c.5-.7 1.2-1.3 2.1-1.8s2-.7 3.3-.7c1.2 0 2.2.2 3.1.6s1.6 1 2.1 1.7c.6.7 1 1.5 1.3 2.4s.4 1.9.5 2.9v1.1 1.1c0 1-.2 2-.5 2.9s-.7 1.7-1.3 2.4-1.3 1.3-2.1 1.7c-.9.4-1.9.6-3.1.6-1.3 0-2.3-.2-3.2-.7s-1.6-1-2.1-1.7v7.5c0 .2-.1.4-.2.5s-.3.2-.5.2h-1.6zm6.9-8.5c1.1 0 2-.2 2.7-.7.6-.5 1.1-1.1 1.4-1.9s.4-1.6.5-2.6c0-.6 0-1.3 0-1.9 0-.9-.2-1.8-.5-2.6s-.7-1.4-1.4-1.9c-.6-.5-1.5-.7-2.7-.7-1.1 0-1.9.2-2.6.7s-1.1 1.1-1.5 1.9c-.3.8-.5 1.6-.5 2.4v1.2 1.3c0 .8.2 1.5.5 2.2s.8 1.3 1.5 1.8c.8.6 1.6.8 2.6.8"/><path d="m162 274.8c-.2 0-.4-.1-.5-.2s-.2-.3-.2-.5v-21.6c0-.2.1-.4.2-.5s.3-.2.5-.2h1.5c.2 0 .4.1.6.2s.2.3.2.5v21.6c0 .2-.1.4-.2.5s-.3.2-.6.2z"/><path d="m170.5 254.8c-.2 0-.4-.1-.5-.2s-.2-.3-.2-.5v-1.8c0-.2.1-.4.2-.6s.3-.2.5-.2h2c.2 0 .4.1.6.2.2.2.2.3.2.6v1.8c0 .2-.1.4-.2.5-.2.1-.3.2-.6.2zm.2 20c-.2 0-.4-.1-.5-.2s-.2-.3-.2-.5v-15.4c0-.2.1-.4.2-.5s.3-.2.5-.2h1.6c.2 0 .4.1.5.2s.2.3.2.5v15.4c0 .2-.1.4-.2.5s-.3.2-.5.2z"/><path d="m181.1 274.8c-.2 0-.4-.1-.5-.2s-.2-.3-.2-.5v-13.6h-2.8c-.2 0-.4-.1-.5-.2s-.2-.3-.2-.5v-1.1c0-.2.1-.4.2-.5s.3-.2.5-.2h2.8v-1.6c0-1.1.2-2.1.6-2.9s1-1.5 1.8-1.9c.8-.5 1.9-.7 3.3-.7h2c.2 0 .4.1.5.2s.2.3.2.5v1.1c0 .2-.1.4-.2.5s-.3.2-.5.2h-2.1c-1 0-1.7.3-2.1.8s-.6 1.3-.6 2.3v1.5h4.2c.2 0 .4.1.5.2s.2.3.2.5v1.1c0 .2-.1.4-.2.5s-.3.2-.5.2h-4.2v13.6c0 .2-.1.4-.2.5s-.3.2-.5.2z"/><path d="m195 281c-.2 0-.3-.1-.5-.2-.1-.1-.2-.3-.2-.5 0-.1 0-.2 0-.3s.1-.2.1-.3l2.5-6-6.2-14.7c-.1-.3-.2-.4-.2-.6s.1-.4.2-.5.3-.2.5-.2h1.6c.2 0 .4.1.5.2s.2.2.3.4l4.9 11.8 5.1-11.8c.1-.2.2-.3.3-.4s.3-.2.5-.2h1.5c.2 0 .4.1.5.2s.2.3.2.5c0 .1-.1.3-.2.6l-9.2 21.3c-.1.2-.2.3-.3.4s-.3.2-.5.2h-1.4z"/><path d="m224 274.8c-.2 0-.4-.1-.5-.2s-.2-.3-.2-.5v-19.1h-6.2c-.2 0-.4-.1-.5-.2s-.2-.3-.2-.5v-1.4c0-.2.1-.4.2-.6.1-.1.3-.2.5-.2h15.7c.2 0 .4.1.6.2.1.1.2.3.2.6v1.4c0 .2-.1.4-.2.5s-.3.2-.6.2h-6.2v19.1c0 .2-.1.4-.2.5s-.3.2-.6.2z"/><path d="m241.4 275.2c-1.6 0-3-.3-4.1-.9s-2-1.5-2.5-2.6-.9-2.4-1-3.8c0-.4 0-.8 0-1.4s0-1 0-1.4c.1-1.5.4-2.7 1-3.8s1.4-2 2.6-2.6c1.1-.6 2.5-.9 4.1-.9s3 .3 4.1.9 2 1.5 2.6 2.6.9 2.4 1 3.8v1.4 1.4c-.1 1.4-.4 2.7-1 3.8s-1.4 2-2.5 2.6c-1.3.5-2.7.9-4.3.9m0-2.5c1.3 0 2.4-.4 3.2-1.3s1.2-2.1 1.3-3.8c0-.3 0-.7 0-1.2s0-.9 0-1.2c-.1-1.6-.5-2.9-1.3-3.8s-1.9-1.3-3.2-1.3-2.4.4-3.2 1.3-1.2 2.1-1.3 3.8v1.2s0 .9 0 1.2c0 1.6.5 2.9 1.3 3.8.7.8 1.8 1.3 3.2 1.3"/><path d="m254.7 274.8c-.2 0-.4-.1-.5-.2s-.2-.3-.2-.5v-15.4c0-.2.1-.4.2-.5s.3-.2.5-.2h1.5c.2 0 .4.1.5.2s.2.3.2.5v1.1c.5-.7 1.1-1.2 1.9-1.6s1.7-.6 2.7-.6c2.5 0 4.2 1 5.2 3 .5-.9 1.2-1.6 2.2-2.2 1-.5 2-.8 3.3-.8 1.1 0 2.2.3 3.1.8s1.6 1.3 2.2 2.4c.5 1.1.8 2.4.8 4v9.4c0 .2-.1.4-.2.5s-.3.2-.5.2h-1.5c-.2 0-.4-.1-.5-.2s-.2-.3-.2-.5v-9.2c0-1.2-.2-2.2-.5-2.9s-.8-1.2-1.4-1.5-1.2-.4-1.9-.4c-.6 0-1.1.1-1.7.4s-1.1.8-1.4 1.5c-.4.7-.6 1.6-.6 2.9v9.1c0 .2-.1.4-.2.5s-.3.2-.5.2h-1.5c-.2 0-.4-.1-.5-.2s-.2-.3-.2-.5v-9.1c0-1.2-.2-2.2-.6-2.9s-.8-1.2-1.4-1.5-1.2-.4-1.9-.4c-.6 0-1.1.1-1.7.4s-1.1.8-1.4 1.5c-.4.7-.6 1.6-.6 2.8v9.1c0 .2-.1.4-.2.5s-.3.2-.5.2h-2z"/><path d="m290.6 275.2c-1.6 0-3-.3-4.1-.9s-2-1.5-2.5-2.6c-.6-1.1-.9-2.4-1-3.8 0-.4 0-.8 0-1.4s0-1 0-1.4c.1-1.5.4-2.7 1-3.8s1.4-2 2.6-2.6c1.1-.6 2.5-.9 4.1-.9s3 .3 4.1.9 2 1.5 2.6 2.6.9 2.4 1 3.8v1.4 1.4c-.1 1.4-.4 2.7-1 3.8s-1.4 2-2.5 2.6c-1.3.5-2.7.9-4.3.9m0-2.5c1.3 0 2.4-.4 3.2-1.3s1.2-2.1 1.3-3.8c0-.3 0-.7 0-1.2s0-.9 0-1.2c-.1-1.6-.5-2.9-1.3-3.8s-1.9-1.3-3.2-1.3-2.4.4-3.2 1.3-1.2 2.1-1.3 3.8v1.2s0 .9 0 1.2c0 1.6.5 2.9 1.3 3.8.7.8 1.8 1.3 3.2 1.3"/><path d="m303.9 274.8c-.2 0-.4-.1-.5-.2s-.2-.3-.2-.5v-15.4c0-.2.1-.4.2-.6s.3-.2.5-.2h1.5c.2 0 .4.1.6.2.2.2.2.3.2.6v1.4c.4-.7 1-1.3 1.8-1.7s1.7-.6 2.8-.6h1.3c.2 0 .4.1.5.2s.2.3.2.5v1.3c0 .2-.1.4-.2.5s-.3.2-.5.2h-2c-1.2 0-2.1.3-2.8 1s-1 1.6-1 2.8v9.6c0 .2-.1.4-.2.5-.2.1-.3.2-.6.2h-1.6z"/><path d="m317.1 274.8c-.2 0-.4-.1-.5-.2s-.2-.3-.2-.5v-15.4c0-.2.1-.4.2-.6s.3-.2.5-.2h1.5c.2 0 .4.1.6.2.2.2.2.3.2.6v1.4c.4-.7 1-1.3 1.8-1.7s1.7-.6 2.8-.6h1.3c.2 0 .4.1.5.2s.2.3.2.5v1.3c0 .2-.1.4-.2.5s-.3.2-.5.2h-2c-1.2 0-2.1.3-2.8 1s-1 1.6-1 2.8v9.6c0 .2-.1.4-.2.5-.2.1-.3.2-.6.2h-1.6z"/><path d="m336.1 275.2c-1.6 0-3-.3-4.1-.9s-2-1.5-2.5-2.6c-.6-1.1-.9-2.4-1-3.8 0-.4 0-.8 0-1.4s0-1 0-1.4c.1-1.5.4-2.7 1-3.8s1.4-2 2.6-2.6c1.1-.6 2.5-.9 4.1-.9s3 .3 4.1.9 2 1.5 2.6 2.6.9 2.4 1 3.8v1.4 1.4c-.1 1.4-.4 2.7-1 3.8s-1.4 2-2.5 2.6c-1.3.5-2.7.9-4.3.9m0-2.5c1.3 0 2.4-.4 3.2-1.3s1.2-2.1 1.3-3.8c0-.3 0-.7 0-1.2s0-.9 0-1.2c-.1-1.6-.5-2.9-1.3-3.8s-1.9-1.3-3.2-1.3-2.4.4-3.2 1.3-1.2 2.1-1.3 3.8v1.2s0 .9 0 1.2c0 1.6.5 2.9 1.3 3.8.8.8 1.8 1.3 3.2 1.3"/><path d="m352.7 274.8c-.3 0-.5-.1-.7-.2s-.3-.3-.4-.6l-4.6-15.1c0-.1-.1-.2-.1-.3 0-.2.1-.4.2-.5s.3-.2.5-.2h1.4c.2 0 .4.1.6.2.1.1.2.2.3.4l3.6 12.3 3.9-12.1c0-.2.1-.3.3-.5.1-.2.4-.2.6-.2h1.1c.3 0 .5.1.7.2.2.2.2.3.3.5l3.9 12.1 3.6-12.3c0-.1.1-.2.2-.4.1-.1.3-.2.6-.2h1.5c.2 0 .3.1.5.2.1.1.2.3.2.5 0 .1 0 .2-.1.3l-4.8 15.1c-.1.3-.2.5-.4.6s-.4.2-.7.2h-1.3c-.3 0-.5-.1-.7-.2s-.3-.3-.4-.6l-3.8-11.6-3.7 11.6c-.1.3-.2.5-.4.6s-.4.2-.7.2z"/></g><path d="m54.3 209.1 14.4-17.5c.8-.9 1.1-2.1 1-3.3v-.2-.1c-.2-1.2-.9-2.3-1.9-2.8-.8-.6-1.8-1-2.8-1-.2 0-.4 0-.6 0-1.3.1-2.4.8-3.1 1.8l-13 15.8-13.1-15.8c-.8-1-1.8-1.6-3.1-1.7-.2 0-.4 0-.6 0-.9 0-1.9.3-2.8.9-1 .7-1.7 1.7-1.9 2.9-.2 1.3.1 2.7 1 3.6l14.5 17.4-14.3 17.3c-1 1-1.4 2.3-1.1 3.7.2 1.2.9 2.2 1.9 2.9.9.6 1.8.9 2.7.9.3 0 .5 0 .8-.1 1.1-.2 2-.7 2.9-1.6l13.1-15.9 13.1 15.9c.8.9 1.8 1.4 2.9 1.6.3 0 .5.1.8.1 1 0 1.9-.3 2.5-.8 1.2-.7 1.9-1.8 2.1-3.1s-.2-2.5-1-3.4z" fill="#23254e"/><path d="m132.5 193.3c1.2 0 2.3-.5 3.2-1.4s1.3-2 1.3-3.1c0-1.2-.5-2.2-1.3-3.1-.9-.9-2-1.4-3.2-1.4h-28.9c-1.2 0-2.3.4-3.2 1.3-1.2 1.1-1.5 2.4-1.5 3.3v40.5c0 1.2.5 2.4 1.5 3.3.9.8 2 1.3 3.2 1.3h28.7c1.3 0 2.5-.5 3.4-1.4s1.3-2 1.3-3.1c0-1.3-.5-2.5-1.4-3.3s-2-1.2-3.2-1.2h-24v-11.2h13.8c1.2 0 2.3-.4 3.2-1.2 1.2-1.1 1.5-2.4 1.5-3.3s-.3-2.1-1.5-3.3c-.9-.8-2-1.2-3.2-1.2h-13.8v-11.2h24.1z" fill="#23254e"/><path d="m214.7 184.3c-1.6 0-3.1.7-3.8 1.8l-18.1 21.9-18-21.6c-.8-1.3-2.3-2-3.9-2-1.2 0-2.3.4-3.2 1.2-1.2 1.1-1.5 2.4-1.5 3.3v40.5c0 1.2.5 2.4 1.5 3.3.9.8 2 1.2 3.2 1.2s2.3-.4 3.2-1.2c1.2-1.1 1.5-2.4 1.5-3.2v-27.6l13.6 16.4c.2.3.5.5.9.6.4.3.8.4 1.2.6.3.1.6.2.9.2h.2.3.2c.2 0 .4 0 .6-.1.3 0 .7-.2.9-.3.3-.1.8-.2 1.1-.5.1-.1.3-.2.4-.3.2-.1.3-.3.5-.5l4.2-5 .1-.1 9.3-11.3v27.7c0 1.2.5 2.3 1.3 3.1.9.9 2 1.4 3.4 1.4 1.2 0 2.4-.5 3.2-1.4.9-.9 1.3-2 1.3-3.1v-40.5c0-1.2-.5-2.2-1.3-3.1-.7-.9-1.9-1.4-3.2-1.4" fill="#23254e"/><path d="m283.7 188.9c-1.6-1.4-3.4-2.6-5.4-3.4s-4.3-1.2-6.6-1.2h-18.4c-1.3 0-2.5.5-3.4 1.4s-1.3 2-1.3 3.1v40.5c0 1.2.5 2.3 1.3 3.1.9.9 2.1 1.4 3.4 1.4 1.2 0 2.3-.4 3.2-1.3 1.2-1.1 1.5-2.4 1.5-3.3v-13.4h.8.2 13.5c.8 0 1.2 0 1.8-.1 1.7-.2 2.8-.6 4.5-1.3 1.8-.8 3.5-1.8 4.9-3.1 1.6-1.4 2.8-3.1 3.7-5s1.4-4.1 1.4-6.3-.5-4.3-1.4-6.2-2.2-3.5-3.7-4.9m-4.3 11.1c0 .9-.2 1.8-.6 2.6s-.9 1.6-1.6 2.1c-.7.7-1.6 1.2-2.5 1.5-.9.4-2 .6-3.1.6h-13.8v-13.6h13.8c1.1 0 2.2.2 3.1.6 1 .4 1.8.9 2.5 1.5s1.2 1.3 1.6 2.1c.4.9.6 1.7.6 2.6" fill="#23254e"/><path d="m351.9 184.3c-1.2 0-2.3.4-3.2 1.2-1 .9-1.5 2-1.5 3.3v25.5c0 1.4-.3 2.8-.9 4-.6 1.3-1.4 2.4-2.5 3.4-1 1-2.3 1.7-3.8 2.3-1.4.6-3 .9-4.7.9-.2 0-.3 0-.5.1-1.5 0-2.9-.3-4.2-.9-1.5-.6-2.7-1.4-3.8-2.3-1.1-1-1.9-2.1-2.5-3.4-.6-1.2-.9-2.5-.9-4v-25.5c0-1.2-.5-2.3-1.3-3.1-.9-.9-2-1.3-3.3-1.3s-2.5.5-3.3 1.4c-.9.9-1.3 2-1.3 3.1v25.5c0 2.8.6 5.4 1.7 7.7s2.6 4.4 4.6 6.2c1.9 1.7 4.1 3.1 6.7 4.1 2.5 1 5.3 1.5 8.2 1.5s5.6-.5 8.1-1.5 4.7-2.4 6.7-4.1c2-1.8 3.6-4 4.7-6.3 1.1-2.4 1.6-5 1.6-7.7v-25.5c0-.9-.3-2.1-1.5-3.3-.8-.9-2-1.3-3.1-1.3" fill="#23254e"/><path d="m423 211.9v-.9h-.5c-.9-1.6-2-3-3.4-4.3-1.5-1.4-3.3-2.6-5.3-3.4s-4.3-1.2-6.6-1.2h-8.6c-.8 0-1.5-.1-2.1-.4-.5-.2-1-.5-1.7-1.1-.5-.4-.8-.9-1.1-1.5-.2-.5-.3-1-.3-1.5 0-.6.1-1.1.3-1.6.3-.6.6-1 1.1-1.5s1-.8 1.7-1.1c.6-.3 1.3-.4 2.1-.4h17.4c1.2 0 2.3-.4 3.2-1.2 1.2-1.1 1.5-2.4 1.5-3.3s-.3-2.1-1.5-3.3c-.9-.8-2-1.3-3.2-1.3h-17.4c-2 0-3.9.3-5.7 1-1.7.7-3.3 1.6-4.6 2.9-1.3 1.2-2.4 2.6-3.1 4.3-.8 1.7-1.2 3.5-1.2 5.4 0 1.8.4 3.6 1.2 5.3.8 1.6 1.8 3.1 3.3 4.4 1.3 1.2 2.9 2.2 4.6 2.8s3.6 1 5.6 1h8.6c1.1 0 2.2.2 3.1.6 1 .4 1.7.9 2.4 1.5s1.2 1.4 1.6 2.2.6 1.6.6 2.5-.2 1.7-.6 2.5-.9 1.6-1.6 2.2-1.5 1.1-2.5 1.5-2 .6-3.1.6h-18.4c-1.1 0-2.2.4-3.1 1.1-1 .9-1.6 2.1-1.6 3.4 0 .9.3 2.1 1.5 3.2.6.6 1.3 1 2.1 1.1.3.1.7.2 1 .2h18.5c2.4 0 4.6-.4 6.7-1.2 2-.8 3.8-2 5.4-3.4 1.5-1.4 2.8-3.1 3.7-4.9 1-1.9 1.4-4.1 1.4-6.3-.1-2-.6-4-1.4-5.9" fill="#23254e"/></svg>