<svg clip-rule="evenodd" fill-rule="evenodd" stroke-linejoin="round" stroke-miterlimit="1.414" viewBox="0 0 1701 993" xmlns="http://www.w3.org/2000/svg"><path d="M-7.369-11.963h1718.12v1016.61H-7.369z" fill="#38c892"/><path d="M212.598 546.944v-103.28c0-23.184 19.322-41.63 42.88-41.63h59.289c41.554 0 75.166 33.462 75.166 74.826 0 25.823-12.175 48.482-32.291 62.445-3.342 2.319-1.337 6.935 2.923 4.939 8.732-3.951 15.409-8.978 22.488-19.693 11.91 16.86 9.794 38.991-5.295 54.011-15.085 15.019-43.669 17.917-57.964-1.316l-22.763-26.876c-1.322 22.13-19.321 39.257-42.348 39.257-22.763 0-42.085-19.233-42.085-42.683zm81.58-80.67v25.073c1.852 1.107 3.705 1.107 6.669 1.107 7.778 0 13.332-5.902 13.332-13.643 0-7.742-5.554-14.378-13.332-14.378-2.964 0-4.817.734-6.669 1.841zm103.696 34.827v-56.646c0-23.188 19.058-42.421 42.616-42.421 23.29 0 41.817 19.233 41.817 42.421v51.638c0 3.164 2.384 6.59 5.825 6.59 3.175 0 5.822-3.426 5.822-6.59v-51.638c0-23.188 19.058-42.421 42.615-42.421 22.496 0 41.818 19.233 41.818 42.421v56.646c0 49.006-41.027 89.845-90.255 89.845-49.495 0-90.258-40.839-90.258-89.845zm307.71 11.468c15.662-1 28.065-9.479 38.161-17.697 7.632 8.309 11.976 13.975 11.976 36.265 0 27.663-30.701 57.699-58.755 57.699h-69.879c-22.495 0-41.553-19.758-41.553-42.417V443.402c0-23.45 18.527-41.63 41.553-41.63h66.437c28.585 0 53.201 23.188 53.201 53.22 0 25.032-18.264 46.109-41.821 51.641-4.08.571-3.954 6.309.68 5.936zm157.069-98.941c16.147-16.598 42.352-16.598 58.231 0 15.88 16.073 15.88 42.683 0 59.281l-36.259 36.888v36.884c0 23.184-19.057 41.893-42.352 41.893-23.026 0-42.084-18.709-42.084-41.893v-36.884l-36.259-36.888c-15.88-16.598-15.88-43.208 0-59.281 15.879-16.598 41.553-16.598 57.433 0l20.91 21.077zm120.52 174.946c-23.818 0-42.876-18.18-42.876-41.102v-104.07c0-22.922 18.26-42.155 42.085-42.155h40.759c51.612 0 92.638 42.155 92.638 93.53 0 51.904-42.348 93.797-94.491 93.797zm56.283-93.378c0-7.682-5.875-14.267-14.329-14.267h-7.716v27.435h7.716c8.454 0 14.329-5.852 14.329-13.168zm146.465 80.202c-16.407 16.335-43.143 16.335-59.549 0-16.147-16.069-16.147-41.888 0-58.224l100.575-101.435c12.969-15.02 35.469-18.971 52.67-8.697 12.969 6.586 21.178 20.287 21.178 36.097V547.21c0 22.921-20.647 41.364-41.821 41.364-20.219 0-34.238-11.435-39.697-27.272l17.579-26.994c3.175-3.825-1.673-7.316-5.145-3.434zm232.128-161.77c16.147-16.598 42.348-16.598 58.227 0 15.884 16.073 15.884 42.683 0 59.281l-36.259 36.888v36.884c0 23.184-19.057 41.893-42.348 41.893-23.026 0-42.084-18.709-42.084-41.893v-36.884l-36.263-36.888c-15.88-16.598-15.88-43.208 0-59.281 15.883-16.598 41.557-16.598 57.437 0l20.91 21.077z" fill="#493397"/></svg>