<svg viewBox="0 0 910 1302" alt="{{include.alt}}" class="{{include.class}}">
  <path d="M314.092 314.55h280.883v279.996H314.092zM314.092 627.921h281.325v281.321H314.092zM628.513 0h281.321v281.325H628.513zM314.092 0h281.325v281.325H314.092zM0 0h281.209v281.325H0zM0 1075.21v43.22h63.763v183.225h53.116V1118.43h63.767v-43.22H0zM297.759 1120.58c-2.042 12.042-3.763 25.592-5.484 40.43-1.829 14.733-3.225 30.324-4.516 46.453-1.288 16.13-2.58 32.367-3.546 48.496-1.184 16.238-2.046 31.396-2.796 45.7h40.967a9896.528 9896.528 0 0 1 1.937-57.637c.85-20.588 2.02-41.492 3.72-62.613l8.43 23.259c3.008 8.708 6.02 17.525 9.03 26.129 3.12 8.604 5.916 16.987 8.712 24.837 2.904 7.959 5.162 14.625 7.204 20.217h26.987l7.421-20.217 9.246-24.837c3.121-8.604 6.238-17.421 9.571-26.13l8.93-23.762c1.503 21.288 2.79 42.367 3.545 63.117.754 20.754 1.613 40 2.042 57.637h41.075c-.75-14.304-1.825-29.462-2.792-45.7-1.183-16.129-2.367-32.366-3.658-48.496-1.184-16.129-2.796-31.72-4.409-46.454-1.829-14.837-3.654-28.387-5.591-40.429h-35.592c-2.904 5.483-5.917 12.367-9.354 20.43-3.659 8.066-7.209 16.883-11.08 26.237-3.87 9.462-7.741 19.25-11.395 29.033-3.763 9.892-7.204 19.142-10.538 27.742-3.225-8.6-6.558-17.85-10.108-27.742-3.654-9.783-7.313-19.57-10.967-29.033-3.658-9.354-7.312-18.171-10.646-26.238-3.333-8.062-6.237-14.946-8.816-20.429h-37.53zM510.963 1120.58h41.075v181.075h-41.075zM199.613 1120.58h41.075v181.075h-41.075zM716.063 1154.988v-34.408h-123.12v181.075h41.074v-78.817h65.7v-34.408h-65.7v-33.442h82.046z" fill="#cc3b43"/>
  <path d="M801.988 1301.788v-74.17l-37.408-57.346-32.413-49.692h44.009s4.658 3.525 24.212 35.092c17.317 27.962 20.888 37.729 20.888 37.729s3.337-10.15 20.108-37.558c16.842-27.534 24.442-35.263 24.442-35.263h44.008l-69.267 107.038v74.17h-38.579z" fill="#cc3b43" fill-rule="nonzero"/>
</svg>