<svg width="535" height="603" xmlns="http://www.w3.org/2000/svg"><g transform="translate(-36 .5)" fill="none"><path fill="#6B5AED" d="M0 0H571V602H0z"/><g transform="translate(152.267 265.336)" fill="#F5F6FA"><path d="M78.009 32.871c0 2.066.206 3.99.62 5.771.413 1.782 1.085 3.331 2.015 4.648a9.747 9.747 0 0 0 3.605 3.099c1.473.749 3.242 1.123 5.31 1.123 1.963 0 3.772-.336 5.426-1.007 1.654-.671 2.92-1.368 3.798-2.091v-25.41c-.723-.206-1.692-.386-2.907-.541-1.214-.155-2.907-.233-5.077-.233-3.876 0-6.977 1.265-9.302 3.796-2.326 2.53-3.488 6.146-3.488 10.845zm-6.086-8.792c.956-2.608 2.313-4.816 4.07-6.623 1.757-1.808 3.876-3.202 6.357-4.184 2.48-.98 5.27-1.471 8.371-1.471 3.36 0 6.318.245 8.876.735 2.558.491 4.69.943 6.395 1.356V70.08l-7.209 1.32V51.153c-.878.568-2.209 1.162-3.992 1.782-1.783.62-3.837.93-6.163.93-2.894 0-5.465-.517-7.713-1.55s-4.147-2.479-5.697-4.338c-1.55-1.86-2.726-4.08-3.527-6.662-.801-2.582-1.202-5.397-1.202-8.444 0-3.253.478-6.184 1.434-8.792zm79.792 8.715c0 3.202-.465 6.094-1.396 8.676-.93 2.582-2.235 4.803-3.914 6.662a17.22 17.22 0 0 1-6.008 4.3c-2.325 1.006-4.858 1.51-7.596 1.51-2.74 0-5.272-.504-7.597-1.51a17.22 17.22 0 0 1-6.008-4.3c-1.68-1.86-2.984-4.08-3.914-6.662-.93-2.582-1.396-5.474-1.396-8.676 0-3.15.465-6.03 1.396-8.638.93-2.608 2.235-4.841 3.914-6.7a17.22 17.22 0 0 1 6.008-4.3c2.325-1.007 4.858-1.51 7.597-1.51 2.738 0 5.27.503 7.596 1.51a17.22 17.22 0 0 1 6.008 4.3c1.68 1.859 2.984 4.092 3.914 6.7.93 2.608 1.396 5.487 1.396 8.638zm-7.52 0c0-4.545-1.02-8.147-3.061-10.807-2.042-2.66-4.82-3.99-8.333-3.99-3.515 0-6.292 1.33-8.334 3.99-2.04 2.66-3.062 6.262-3.062 10.807 0 4.544 1.021 8.146 3.062 10.806 2.042 2.66 4.82 3.99 8.334 3.99 3.514 0 6.291-1.33 8.333-3.99 2.041-2.66 3.062-6.262 3.062-10.806zm15.414-18.98c1.653-.412 3.85-.851 6.589-1.316 2.739-.465 5.891-.697 9.457-.697 3.204 0 5.865.451 7.984 1.355 2.119.904 3.811 2.17 5.078 3.796 1.266 1.627 2.157 3.576 2.674 5.849.517 2.272.775 4.777.775 7.514v22.62h-7.21v-21.07c0-2.48-.167-4.597-.503-6.353-.336-1.756-.891-3.176-1.667-4.26-.775-1.085-1.808-1.873-3.1-2.363-1.292-.491-2.894-.736-4.806-.736-.776 0-1.577.026-2.403.077-.827.052-1.615.116-2.365.194-.749.077-1.42.168-2.015.271-.594.103-1.02.18-1.28.232v34.008h-7.208v-39.12zm48.978-1.161h15.27v6.042h-15.27v18.592c0 2.014.155 3.68.465 4.996.31 1.317.775 2.35 1.395 3.099a5.02 5.02 0 0 0 2.326 1.588c.93.31 2.015.465 3.256.465 2.17 0 3.914-.246 5.232-.736s2.235-.84 2.752-1.046l1.395 5.965c-.723.361-1.99.813-3.798 1.355-1.809.543-3.876.814-6.202.814-2.739 0-5-.349-6.782-1.046-1.783-.697-3.217-1.743-4.303-3.137-1.085-1.395-1.847-3.112-2.286-5.152-.44-2.04-.66-4.402-.66-7.088V1.42l7.21-1.24v12.473zm57.738 20.14c0 3.203-.466 6.095-1.396 8.677-.93 2.582-2.235 4.803-3.914 6.662a17.22 17.22 0 0 1-6.008 4.3c-2.326 1.006-4.858 1.51-7.597 1.51-2.739 0-5.27-.504-7.596-1.51a17.22 17.22 0 0 1-6.008-4.3c-1.68-1.86-2.984-4.08-3.915-6.662-.93-2.582-1.395-5.474-1.395-8.676 0-3.15.465-6.03 1.395-8.638.93-2.608 2.235-4.841 3.915-6.7a17.22 17.22 0 0 1 6.008-4.3c2.325-1.007 4.857-1.51 7.596-1.51 2.74 0 5.271.503 7.597 1.51a17.22 17.22 0 0 1 6.008 4.3c1.68 1.859 2.984 4.092 3.914 6.7.93 2.608 1.396 5.487 1.396 8.638zm-7.52 0c0-4.544-1.02-8.146-3.062-10.806-2.04-2.66-4.819-3.99-8.333-3.99-3.514 0-6.292 1.33-8.333 3.99-2.041 2.66-3.062 6.262-3.062 10.807 0 4.544 1.02 8.146 3.062 10.806 2.041 2.66 4.82 3.99 8.333 3.99 3.514 0 6.292-1.33 8.333-3.99 2.042-2.66 3.062-6.262 3.062-10.806zM7.175 23.829A24.63 24.63 0 0 1 0 7.747c6.056.335 11.77 2.9 16.037 7.195a24.647 24.647 0 0 1 7.176 16.081 24.518 24.518 0 0 1-16.037-7.195zm34.744 0a24.518 24.518 0 0 1-16.037 7.195 24.647 24.647 0 0 1 7.175-16.081 24.517 24.517 0 0 1 16.037-7.195 24.63 24.63 0 0 1-7.175 16.08zm0 16.899a24.63 24.63 0 0 1 7.175 16.081 24.517 24.517 0 0 1-16.037-7.195 24.647 24.647 0 0 1-7.175-16.081c6.056.336 11.77 2.9 16.037 7.195zm-34.743 0c4.266-4.295 10.064-6.862 16.12-7.198-.328 6.057-2.966 11.784-7.259 16.084A24.517 24.517 0 0 1 0 56.808a24.63 24.63 0 0 1 7.176-16.081z"/></g></g></svg>