<svg viewBox="0 0 60 90" xmlns="http://www.w3.org/2000/svg" fill-rule="evenodd" clip-rule="evenodd" stroke-linejoin="round" stroke-miterlimit="2"><path fill="rgb(203,59,67)" transform="matrix(1.29252 0 0 1.01777 1.905 .612)" d="M-1.474 -0.601H44.947V87.828H-1.474z"/><path d="M28.257 40.028h3.134v3.11h-3.134v-3.11zm0 3.408h3.134v3.11h-3.134v-3.11zm3.433-6.815h3.134v3.11H31.69v-3.11zm-3.433 0h3.134v3.11h-3.134v-3.11zm-3.433 0h3.134v3.11h-3.134v-3.11zm0 11.704v.48h.737v2.038h.615v-2.037h.737v-.48h-2.09l.001-.001zm3.254.907a28.31 28.31 0 0 0-.12 1.61h.453l.022-.66c.01-.235.022-.474.041-.716l.093.266.1.3c.035.098.066.194.097.284l.08.232h.298l.082-.232.102-.284.106-.3.1-.272c.016.24.03.482.038.723.01.238.018.458.023.66h.455l-.03-.523-.04-.556a13.272 13.272 0 0 0-.11-.995h-.396a12.212 12.212 0 0 0-.353.867l-.116.318a31.508 31.508 0 0 0-.233-.65 10.082 10.082 0 0 0-.216-.535h-.415a9.014 9.014 0 0 0-.06.463zm2.417-.463h.448v2.074h-.448v-2.074zm-3.432 0h.447v2.074h-.447v-2.074zm5.671 0v.394h-.895v.383h.717v.394h-.717v.903h-.448v-2.074h1.343zm.912 1.225l-.408-.656-.354-.57h.48s.051.04.264.403c.19.32.23.43.23.43s.035-.115.22-.43c.182-.313.265-.402.265-.402h.48l-.756 1.225v.85h-.42v-.85z" fill="white" fill-rule="nonzero"/></svg>