<svg height="690" width="1440" xmlns="http://www.w3.org/2000/svg" xmlns:xlink="http://www.w3.org/1999/xlink"><defs><path id="a" d="M0 0h1440v690H0z"/><linearGradient id="c" x1="49.991%" x2="49.991%" y1="100.006%" y2="-.012%"><stop offset="0" stop-color="gray" stop-opacity=".25"/><stop offset=".54" stop-color="gray" stop-opacity=".12"/><stop offset="1" stop-color="gray" stop-opacity=".1"/></linearGradient><mask id="b" fill="#fff"><use fill-rule="evenodd" xlink:href="#a"/></mask></defs><g fill="none" fill-rule="evenodd"><use fill="#fff" xlink:href="#a"/><path d="M0 0h1440v597H0z" fill="#f4f6f8" mask="url(#b)"/><ellipse cx="42.269" cy="505.393" fill="#dfe1e3" mask="url(#b)" opacity=".504" rx="247.269" ry="247.393"/><ellipse cx="1212.269" cy="125.393" fill="#dfe1e3" mask="url(#b)" opacity=".504" rx="247.269" ry="247.393"/><g mask="url(#b)"><g fill-rule="nonzero" transform="translate(315 66)"><ellipse cx="204.5" cy="583.5" fill="#007df6" opacity=".1" rx="204.5" ry="14.5"/><path d="M323.415 503.537c2.82-5.052 6.197-9.814 8.924-14.933 2.492-4.687 4.438-9.655 6.686-14.473 3.846-8.25 8.586-16.048 12.902-24.072 2.821-5.26 5.548-10.987 5.003-16.93-.517-5.624-3.828-10.499-5.106-15.936-5.21-22.32-17.746-42.81-25.39-64.4-1.957-5.474-3.856-10.986-6.301-16.272-4.702-10.171-11.285-19.311-17.868-28.376a80.175 80.175 0 0 0-7.899-9.786c-2.36-2.353-5.012-4.425-7.156-6.974-4.42-5.25-6.489-12.805-12.018-16.874-.095.244-.198.478-.301.722-3.96-10.077-17.238-16.723-24.94-25.075a147.633 147.633 0 0 1-12.347-16.17l-16.767-24.157c-2.887-4.162-5.83-8.437-6.996-13.396-1.43-5.98-.104-12.355-1.514-18.335a23.101 23.101 0 0 0-5.125-9.712c.16-.047.329-.112.498-.15 3.197-.853 6.583-1.003 9.752-1.762 6.912-1.64 12.92-6.046 19.804-7.809 3.517-.937 7.27-1.125 10.457-2.812a8.65 8.65 0 0 0 4.044-9.205c-2.229-11.765 3.997-23.688 2.944-35.621-.283-3.3-1.129-6.515-1.674-9.787-1.27-7.593-1.035-15.373-.583-23.079a48.773 48.773 0 0 1 7.664-9.496c4.231-4.068 9.281-7.499 12.225-12.589 2.567-4.509 3.188-9.955 2.539-15.11-.461-3.75-1.74-7.697-4.702-9.975-2.962-2.278-7.213-2.446-10.796-1.256-.498.16-.987.356-1.467.563a12.364 12.364 0 0 0-9.723-.563c-3.574 1.181-6.64 3.534-9.517 5.98a21.71 21.71 0 0 0-4.439 4.688c-1.815 2.812-2.341 6.28-3.028 9.59a93.537 93.537 0 0 1-6.347 18.55c-.508 1.05-1.881 2.935-2.99 4.734l-2.013-.412c-.875 8.352-7.89 14.483-12.16 21.7-2.078 3.507-3.535 7.34-5.407 10.968a106.258 106.258 0 0 1-7.137 11.409c-2.54 3.75-5.081 7.464-7.627 11.145a158.453 158.453 0 0 1-10.344 13.949c-3.451-.281-6.902-.534-10.344-.59a84.227 84.227 0 0 0-17.219 1.527 47.66 47.66 0 0 1-.61-6.008v-.366c0-.488.056-1.069.121-1.697 9.935-6.632 15.758-17.884 15.42-29.798-.338-11.915-6.79-22.821-17.084-28.883.187-1.054.306-2.118.357-3.187V71.16c0-.319 0-.637-.066-.937a12.356 12.356 0 0 0-.32-1.875c-.075-.3-.16-.6-.263-.938a8.845 8.845 0 0 0-.78-1.687.806.806 0 0 0-.066-.094 7.779 7.779 0 0 0-.386-.58c-.14-.188-.122-.15-.178-.226a4.484 4.484 0 0 0-.32-.394l-.235-.243c-.103-.113-.207-.225-.32-.328l-.263-.235-.33-.29-.3-.225-.339-.253-.329-.216-.338-.216c-.113-.075-.235-.14-.358-.206l-.348-.197-.376-.187-.348-.169-.413-.178-.339-.15-.451-.169-.32-.122-.49-.168-.29-.094-.537-.169-.254-.075-.583-.16-.225-.065-.612-.15-.178-.047-.677-.15h-.113l-.997-.215a224.68 224.68 0 0 0-12.432-2.184c-3.413-.507-6.912-.938-10.278-.178-4.646 1.03-8.52 4.162-12.865 6.102-5.134 2.306-10.833 2.915-16.306 4.18-5.473 1.266-11.106 3.432-14.538 7.903-2.615 3.412-3.659 7.752-4.439 11.98-6.508 35.284.508 71.477 1.834 107.342.517 13.958-.113 28.881-8.05 40.308l23.115-.61c1.11 0 2.228-.065 3.357-.13a56.83 56.83 0 0 0 3.366-.282 22.32 22.32 0 0 0 8.38-2.502 14.448 14.448 0 0 0 3.262-2.531c3.141-3.225 4.815-7.734 6.348-12.046a115.518 115.518 0 0 0 1.495-4.406c.188-.619.367-1.237.527-1.875l.075-.3.263.122a57.96 57.96 0 0 0 3.132 5.156c4.034 5.924 9.15 10.986 14.228 16.02 10.09 9.983 20.406 20.145 33.054 26.557 4.27 2.146 8.887 3.956 12.14 7.499 1.6 1.715 2.982 3.918 5.248 4.509 1.41.365 2.962 0 4.307.6 1.975.825 2.7 3.196 3.611 5.146.912 1.95 2.972 3.937 4.928 3.047a9.836 9.836 0 0 0 3.686 9.777 7.196 7.196 0 0 1 2.389 2.137 7.75 7.75 0 0 1 .489 2.512 9.92 9.92 0 0 0 3.564 6.084c-1.834 3.028-.367 7.368-.32 11.146 0 3.168-1.044 6.224-1.758 9.308-2.079 9.046-.94 18.514.752 27.635.94 5.034 2.135 10.245 5.426 14.154 1.072 1.266 2.35 2.363 3.48 3.59a33.362 33.362 0 0 1 5.313 8.072 63.13 63.13 0 0 1 5.764 18.41 33.441 33.441 0 0 0 2.727 9.28c2.06 4.481.179 9.993 2.022 14.568.837 2.053 2.38 3.806 2.878 5.952.705 3.122-.94 6.243-1.383 9.421-1.072 7.443 4.317 14.352 4.806 21.851.08.44-.015.894-.264 1.265-.366.413-.996.404-1.495.638-.94.45-1.194 1.715-1.495 2.765-.301 1.05-1.147 2.24-2.191 1.922-15.45 8.24-31.447 15.851-46.897 24.091l-7.053 3.75-37.719 20.088a2.718 2.718 0 0 0-1.514 2.456c0 .45.056.938.094 1.36-2.642.656-5.182 1.443-6.987 1.771-.743.14-1.486.281-2.22.44.179-.284.294-.604.34-.937a1.877 1.877 0 0 0-1.665-1.874 6.046 6.046 0 0 0-2.718.356 39.75 39.75 0 0 1-6.583 1.209c-2.642.253-5.332.244-7.89.937-2.557.694-5.078 2.24-6.112 4.687a11.338 11.338 0 0 0-.677 4.425 67.523 67.523 0 0 0 2.05 17.192c.045.452.3.857.686 1.097.33.13.724 0 1.054.15.29.174.506.447.61.768 1.58 3.581 1.947 7.574 2.37 11.474.628 5.78 1.42 11.546 2.38 17.295.564 3.356 1.26 6.862 3.451 9.45 2.407 2.811 6.216 4.058 9.893 4.555 7.758 1.04 15.591-.525 23.246-2.128 1.43-.3 2.962-.666 3.922-1.772.701-.883 1.037-2 .94-3.121-.179-3.853-3.696-6.562-6.893-8.727l-4.363-3.01a1.873 1.873 0 0 1-.94-2.118l.281-5.69h-.846c.94-4.012 2.454-7.865 5.417-10.62 2.04-1.876 4.702-3.188 6.836-4.894a16.96 16.96 0 0 0 9.507 3.478c5.643-7.575 13.59-12.73 21.535-17.81a210.84 210.84 0 0 1 19.984-11.119 299 299 0 0 1 16.926-7.696c8.088-3.393 16.326-6.42 24.573-9.374 5.501-1.968 11.05-3.909 16.118-6.814 13.165-7.584 22.466-22.723 20.688-37.88-2.238-19.124 2.549-39.053 2.23-58.307-.095-5.625-.302-11.249-2.013-16.64.398.282.772.596 1.119.938 3.423 3.187 4.25 8.25 7.523 11.887 2.548 2.859 6.423 4.687 7.965 8.174 1.175 2.671 1.006 6.28 3.46 7.818.696.44 1.524.628 2.22 1.059a7.415 7.415 0 0 1 2.06 2.222c2.604 3.702 5.303 7.667 5.585 12.186.122 1.79-.047 3.862 1.27 5.071.376.347.856.6 1.053 1.069.414.937-.677 1.93-.865 2.971-.273 1.444 1.157 2.54 2.04 3.75a5.881 5.881 0 0 1 0 6.946c-7.71 9.983-9.102 23.435-15.845 34.112-2.332 3.684-4.928 7.171-7.185 10.902-6.94 11.455-10.447 24.616-13.851 37.58a20.786 20.786 0 0 0 5.783 6.431 31.84 31.84 0 0 1-6.442 11.858 29.863 29.863 0 0 0-2.125 2.653 5.17 5.17 0 0 0-2.097-1.575 74.045 74.045 0 0 0-1.88 16.405c0 3.637.498 7.79 3.46 9.89a12.294 12.294 0 0 0 3.846 1.583l6.451 1.875a6.763 6.763 0 0 0 3.564.347c.762-.215 1.439-.684 2.22-.834a5.46 5.46 0 0 1 2.5.328l5.577 1.622c1.886.5 3.728 1.149 5.511 1.94 1.59.76 3.056 1.744 4.617 2.587a55.894 55.894 0 0 0 8.06 3.3l9.61 3.3a35.062 35.062 0 0 0 8.332 2.156c1.975.168 3.978 0 5.924.337 1.486.253 2.925.787 4.42.943 2.482.068 4.921-.655 6.959-2.068a6.21 6.21 0 0 0 2.012-1.809c1.411-2.194.198-5.09-1.175-7.302-2.548-4.106-5.736-7.95-9.94-10.312-1.702-.937-3.545-1.63-5.304-2.493-5.003-2.438-8.773-6.506-13.504-9.29a3.215 3.215 0 0 0-4.053.272c-3.93-2.54-8.181-5.025-10.344-9.158a20.574 20.574 0 0 1-1.88-6.328c2.21.525 4.438.937 6.685 1.303 3.659-14.136 7.655-28.525 14.812-41.274zm-90.343-399.792a89.242 89.242 0 0 1-.621 3.16c-1.88 8.801-4.57 18.663-10.72 25.215a23.516 23.516 0 0 1-6.94 4.565l-.687.338c4.43-11.793 11.482-22.723 18.968-33.278z" fill="url(#c)"/><path d="M242.683 52.552c.686-3.22 1.205-6.598 2.993-9.375a21.452 21.452 0 0 1 4.381-4.614c2.835-2.39 5.864-4.687 9.394-5.85 3.53-1.162 7.68-1.005 10.644 1.228 2.964 2.233 4.214 6.08 4.678 9.753.63 5.047 0 10.362-2.51 14.763-2.872 4.992-7.856 8.304-12.043 12.309a47.664 47.664 0 0 0-7.847 9.744 27.76 27.76 0 0 1-3.576 5.204 6.804 6.804 0 0 1-5.678 2.26c-1.788-.286-3.242-1.522-4.632-2.703-1.714-1.495-6.327-4.162-6.484-6.533-.112-1.92 3.492-6.274 4.372-8.074a90.664 90.664 0 0 0 6.308-18.112z" fill="#e1c4a7"/><path d="M242.683 52.552c.686-3.22 1.205-6.598 2.993-9.375a21.452 21.452 0 0 1 4.381-4.614c2.835-2.39 5.864-4.687 9.394-5.85 3.53-1.162 7.68-1.005 10.644 1.228 2.964 2.233 4.214 6.08 4.678 9.753.63 5.047 0 10.362-2.51 14.763-2.872 4.992-7.856 8.304-12.043 12.309a47.664 47.664 0 0 0-7.847 9.744 27.76 27.76 0 0 1-3.576 5.204 6.804 6.804 0 0 1-5.678 2.26c-1.788-.286-3.242-1.522-4.632-2.703-1.714-1.495-6.327-4.162-6.484-6.533-.112-1.92 3.492-6.274 4.372-8.074a90.664 90.664 0 0 0 6.308-18.112z" fill="#000" opacity=".1"/><path d="M145 146.17a83.269 83.269 0 0 1 22.84-2.793c12.857.186 26.095 3.306 38.338-.642a66.449 66.449 0 0 0 9.194-3.995c2.463-1.229 4.973-2.495 6.86-4.506 6.09-6.462 8.71-16.192 10.617-24.88 1.905-8.687 2.398-17.607 2.89-26.48 3.17 1.48 6.508 2.942 10.022 2.644 3.514-.298 7.019-2.98 7-6.518-.52 8.222-.93 16.546.455 24.665.54 3.222 1.376 6.397 1.664 9.656 1.042 11.77-5.122 23.53-2.919 35.14a8.525 8.525 0 0 1-3.997 9.078c-3.16 1.704-6.879 1.918-10.356 2.794-6.814 1.74-12.763 6.08-19.605 7.7-3.189.754-6.508.931-9.65 1.741-4.518 1.192-8.617 3.78-13.219 4.6-3.449.614-7 .195-10.486.493-3.03.252-6.005 1.053-9.045 1.127-7.437.186-14.474-4.032-19.42-9.628-4.945-5.596-8.078-13.417-11.183-20.195z" fill="#007df6"/><path d="M145 146.17a83.269 83.269 0 0 1 22.84-2.793c12.857.186 26.095 3.306 38.338-.642a66.449 66.449 0 0 0 9.194-3.995c2.463-1.229 4.973-2.495 6.86-4.506 6.09-6.462 8.71-16.192 10.617-24.88 1.905-8.687 2.398-17.607 2.89-26.48 3.17 1.48 6.508 2.942 10.022 2.644 3.514-.298 7.019-2.98 7-6.518-.52 8.222-.93 16.546.455 24.665.54 3.222 1.376 6.397 1.664 9.656 1.042 11.77-5.122 23.53-2.919 35.14a8.525 8.525 0 0 1-3.997 9.078c-3.16 1.704-6.879 1.918-10.356 2.794-6.814 1.74-12.763 6.08-19.605 7.7-3.189.754-6.508.931-9.65 1.741-4.518 1.192-8.617 3.78-13.219 4.6-3.449.614-7 .195-10.486.493-3.03.252-6.005 1.053-9.045 1.127-7.437.186-14.474-4.032-19.42-9.628-4.945-5.596-8.078-13.417-11.183-20.195z" fill="#000" opacity=".1"/><g fill="#3f3d56"><path d="M481.406 157.292c26.081 0 49.594 15.746 59.574 39.896 9.98 24.15 4.462 51.947-13.982 70.43-18.443 18.481-46.18 24.008-70.274 14.002-24.095-10.005-39.803-33.573-39.8-59.712.006-35.688 28.874-64.616 64.482-64.616m0-15.96c-32.521 0-61.84 19.635-74.285 49.749-12.445 30.113-5.564 64.775 17.434 87.821s57.582 29.939 87.628 17.463c30.045-12.476 49.632-41.863 49.628-74.457-.051-44.483-36.021-80.529-80.405-80.575z"/><path d="M469.501 122.482h18.846v19.883h-18.846z"/><path d="M521.962 130.547l16.154 9.729-10.218 17.043-16.154-9.728z"/><path d="M562.108 163.107l9.137 16.52-17.351 9.64-9.137-16.52z"/><path d="M571.848 264.149l-9.987 16.018-16.824-10.537 9.987-16.018z"/><path d="M418.062 172.74l-9.137 16.52-17.352-9.64 9.137-16.52z"/><path d="M407.797 253.605l9.987 16.018-16.824 10.537-9.987-16.018z"/><path d="M451.064 147.59l-16.154 9.727-10.218-17.043 16.154-9.728z"/><path d="M469.501 301.45h18.846v19.883h-18.846z"/><path d="M511.747 296.23L527.9 286.5l10.218 17.044-16.154 9.728z"/><path d="M440.85 313.274l-16.155-9.728 10.218-17.043 16.154 9.728z"/><path d="M380.226 213.956h22.817v16.898h-22.817z"/><path d="M582.587 230.854H559.77v-16.898h22.818z"/><path d="M631.201 40.968c26.081 0 49.594 15.747 59.574 39.897 9.98 24.15 4.461 51.947-13.982 70.429-18.444 18.482-46.18 24.008-70.274 14.003-24.095-10.006-39.803-33.574-39.8-59.713.006-35.688 28.874-64.616 64.482-64.616m0-15.959c-32.522 0-61.84 19.635-74.285 49.748-12.445 30.114-5.564 64.775 17.433 87.822 22.998 23.046 57.583 29.938 87.628 17.462 30.045-12.476 49.633-41.863 49.63-74.457-.053-44.483-36.022-80.528-80.406-80.575z"/><path d="M619.296 6.168h18.846V26.05h-18.846z"/><path d="M671.763 14.217l16.154 9.729L677.7 40.989l-16.154-9.728z"/><path d="M711.908 46.78l9.136 16.52-17.351 9.64-9.137-16.52z"/><path d="M721.64 147.827l-9.987 16.018-16.824-10.536 9.986-16.018z"/><path d="M567.85 56.428l-9.137 16.52-17.351-9.64 9.137-16.52z"/><path d="M557.589 137.288l9.987 16.019-16.825 10.536-9.987-16.018z"/><path d="M600.86 31.262l-16.155 9.728-10.218-17.043 16.154-9.728z"/><path d="M619.296 185.127h18.846v19.883h-18.846z"/><path d="M661.541 179.91l16.155-9.729 10.217 17.043-16.154 9.728z"/><path d="M590.638 196.947l-16.155-9.728 10.218-17.043 16.155 9.728z"/><path d="M530.01 97.633h22.819v16.898H530.01z"/><path d="M732.391 114.53h-22.817V97.634h22.817z"/><path d="M331.574 35.993h2.276c35.162 1.202 62.873 30.43 62.275 65.686-.598 35.256-29.284 63.523-64.467 63.527h-2.285c-35.164-1.202-62.875-30.434-62.274-65.691.6-35.258 29.29-63.524 64.475-63.522m0-15.96c-43.873-.005-79.652 35.24-80.403 79.205-.751 43.965 33.801 80.417 77.65 81.918.936 0 1.873.046 2.81.046 43.871 0 79.644-35.245 80.393-79.209.75-43.963-33.803-80.412-77.65-81.913-.936 0-1.873-.047-2.81-.047z"/><path d="M323.148.853l18.835.656-.69 19.871-18.834-.655z"/><path d="M375.29 10.725l15.808 10.285-10.802 16.677-15.807-10.284z"/><path d="M414.29 44.661l8.56 16.828-17.676 9.03-8.558-16.828z"/><path d="M420.536 145.955L410 161.616 393.551 150.5l10.536-15.66z"/><path d="M269.994 49.268l-9.703 16.193-17.008-10.238 9.704-16.192z"/><path d="M255.623 131.209l9.423 16.433-17.26 9.941-9.423-16.432z"/><path d="M303.871 25.267l-16.482 9.16-9.62-17.388 16.48-9.16z"/><path d="M316.955 179.695l18.835.656-.69 19.871-18.834-.655z"/><path d="M359.365 175.963l16.482-9.16 9.621 17.389-16.481 9.16z"/><path d="M287.932 190.508l-15.808-10.284 10.803-16.677 15.807 10.284z"/><path d="M230.763 89.155l22.804.794-.586 16.887-22.804-.794z"/><path d="M432.438 113.06l-22.804-.795.586-16.888 22.804.795z"/></g><path d="M122.947 510.787c-2.267.285-4.466.99-6.489 2.082-2.745 1.723-4.439 4.765-5.647 7.835-3.03 7.703-3.66 16.16-3.789 24.485-.11 6.706.11 13.571 2.444 19.824.64 1.98 1.75 3.764 3.23 5.19a11.364 11.364 0 0 0 4.421 2.203c3.478.942 7.514.942 10.36-1.318 3.167-2.553 3.963-7.045 4.632-11.122.915-5.5 2.187-11.301 6.159-15.134 2.947-2.826 7.166-4.238 9.308-7.742 2.553-4.162 1.208-9.596-.421-14.23-1.419-4.011-3.496-12.157-7.578-14.21s-12.383 1.346-16.63 2.137zm155.045 21.038a31.27 31.27 0 0 1-6.566 12.078c-1.877 2.133-4.175 4.725-3.19 7.373.4.896.997 1.692 1.745 2.33 13.752 13.425 32.993 19.955 52.083 22.332.307.083.631.083.938 0 .563-.253.694-.936.77-1.563a19.717 19.717 0 0 0 0-5.987c-.939-4.678-5.02-7.925-9.016-10.488s-8.368-5.053-10.6-9.235c-2.815-5.201-1.604-11.975-4.916-16.84-2.683-3.958-7.664-5.614-12.392-6.39-1.642-.253-5.131-2.049-6.567-1.216-1.463.842-1.792 5.978-2.289 7.606z" fill="#e1c4a7"/><path d="M120.832 511.92a1.89 1.89 0 0 0-1.674-1.888 6.064 6.064 0 0 0-2.734.349 40.03 40.03 0 0 1-6.62 1.208c-2.659.255-5.373.246-7.956.945-2.582.698-5.107 2.237-6.157 4.72a11.678 11.678 0 0 0-.681 4.428 67.52 67.52 0 0 0 2.062 17.193c.05.456.308.864.7 1.105.33.132.728 0 1.059.15.29.173.51.445.615.766 1.598 3.587 1.967 7.553 2.393 11.48.63 5.785 1.428 11.55 2.393 17.297.567 3.352 1.267 6.874 3.48 9.442 2.422 2.832 6.263 4.05 9.961 4.55 7.813 1.039 15.702-.528 23.42-2.133a6.835 6.835 0 0 0 3.945-1.766c.705-.882 1.043-2 .945-3.125-.18-3.852-3.726-6.609-6.942-8.724l-4.427-2.974a2.297 2.297 0 0 1-.776-.699 2.488 2.488 0 0 1-.217-1.416l.283-5.665a16.253 16.253 0 0 0-14.188 8.79c-.615 1.218-1.192 2.644-2.469 3.116-1.58.595-3.339-.736-3.868-2.332a10.14 10.14 0 0 1 .142-4.985c2.591-13.86 1.986-28.107 3.566-42.118a9.58 9.58 0 0 1 1.409-4.438c.766-1.057 2.194-1.983 2.336-3.276zm192.337 51.916c.648 1.057 1.655 1.855 2.256 2.95s.593 2.689-.489 3.31a3.352 3.352 0 0 1-2.03.204c-13.806-1.69-26.766-7.472-37.168-16.581a25.83 25.83 0 0 1-4.551-4.925c-1.213-1.854-2.238-4.034-4.307-4.794a71.544 71.544 0 0 0-1.88 16.118c0 3.57.498 7.65 3.46 9.718a12.48 12.48 0 0 0 3.855 1.549l6.46 1.8a6.963 6.963 0 0 0 3.572.342c.762-.204 1.44-.677 2.22-.816.85-.089 1.71.019 2.51.315l5.576 1.605a37.248 37.248 0 0 1 5.519 1.855c1.589.741 3.065 1.715 4.616 2.54a55.69 55.69 0 0 0 8.077 3.237l9.816 3.357a35.018 35.018 0 0 0 8.35 2.114c1.974.167 3.977 0 5.933.334 1.485.25 2.924.78 4.428.928a11.823 11.823 0 0 0 6.958-2.031 6.263 6.263 0 0 0 2.021-1.772c1.41-2.16.198-5.007-1.184-7.187-2.548-4.024-5.736-7.799-9.948-10.099-1.711-.927-3.554-1.613-5.312-2.457-5.003-2.393-8.792-6.39-13.521-9.125-4.466-2.56-7.343 4.108-5.237 7.511z" fill="#3f3d56"/><path d="M175 169.853a41.092 41.092 0 0 1-17.345 6.62c-3.257.399-6.538.571-9.82.517A254.355 254.355 0 0 1 107 173.643c5.375-5.81 10.806-11.989 12.835-19.606a31.621 31.621 0 0 0 .61-12.284 90.53 90.53 0 0 0-3.814-15.465c5.756.303 11.528.158 17.26-.433 3.27-.323 11.276-3.247 14.095-1.033 2.64 2.056.648 9.332.601 12.69v.359a40.194 40.194 0 0 0 3.298 14.81c4.135 9.075 12.977 16.526 23.115 17.172z" fill="#e1c4a7"/><path d="M149.24 137.498c-8.393 5.336-18.747 6.882-28.397 4.238a89.82 89.82 0 0 0-3.843-15.45c5.799.302 11.613.158 17.388-.433 3.295-.323 11.36-3.243 14.199-1.032 2.707 2.054.7 9.323.653 12.677z" fill="#000" opacity=".1"/><circle cx="130.5" cy="106.5" fill="#e1c4a7" r="34.5"/><path d="M275 282.338c.038 5.6-2.91 10.804-7.753 13.686a30.812 30.812 0 0 1-8.458 2.935c-15.73 3.726-31.847 6.791-48 5.878-3.496-.195-7.048-.605-10.187-2.124-3.139-1.518-5.817-4.36-6.287-7.788a7.323 7.323 0 0 0-.498-2.478 7.028 7.028 0 0 0-2.387-2.106 9.655 9.655 0 0 1-3.627-9.624c-1.964.867-4.013-1.09-4.933-3.018-.921-1.929-1.645-4.258-3.618-5.069-1.344-.568-2.895-.232-4.314-.596-2.264-.577-3.646-2.795-5.243-4.453-3.261-3.456-7.885-5.245-12.15-7.37-12.659-6.325-22.977-16.35-33.079-26.207-5.084-4.965-10.205-9.968-14.237-15.838a61.675 61.675 0 0 1-3.129-5.086 142.394 142.394 0 0 1-7.931-17.99c-1.278-3.298-2.575-6.783-2.049-10.249.047-.316.113-.633.188-.931a19.544 19.544 0 0 1 3.12-6.252c3.496-5.096 8.082-9.922 14.096-11.487 6.014-1.565 12.019.326 18.127 1.612a46.56 46.56 0 0 0 6.155.932c6.475.456 12.884-1.267 19.142-2.982l6.823-1.863c3.42-.932 5.13-5.03 8.589-5.748a12.158 12.158 0 0 1 4.632.233c7.02 1.323 14.096 3.028 20.27 6.568a33.414 33.414 0 0 1 3.938 2.655c4.397 3.447 7.874 8.04 9.152 13.406 1.41 5.898.085 12.196 1.513 18.093 1.166 4.873 4.116 9.12 7.01 13.23l16.793 23.775a147.882 147.882 0 0 0 12.358 15.968c9.002 9.717 25.748 17.068 25.974 30.288z" fill="#007df6"/><path d="M231.693 52.552c.685-3.22 1.195-6.598 2.983-9.375a21.452 21.452 0 0 1 4.381-4.614c2.844-2.39 5.864-4.687 9.394-5.85 3.53-1.162 7.68-1.005 10.644 1.228 2.964 2.233 4.214 6.08 4.678 9.753.63 5.047 0 10.362-2.51 14.763-2.872 4.992-7.856 8.304-12.043 12.309a48.015 48.015 0 0 0-7.847 9.744 27.76 27.76 0 0 1-3.576 5.204 6.804 6.804 0 0 1-5.678 2.26c-1.779-.286-3.242-1.522-4.632-2.703-1.714-1.495-6.336-4.162-6.484-6.533-.112-1.92 3.492-6.274 4.372-8.074a91.28 91.28 0 0 0 6.318-18.112z" fill="#e1c4a7"/><path d="M350.955 450.085c-4.318 7.947-9.05 15.688-12.898 23.87-2.244 4.783-4.187 9.706-6.684 14.358-2.723 5.074-6.074 9.791-8.918 14.808-7.163 12.646-11.152 26.912-14.842 40.962a81.984 81.984 0 0 1-29.25-10.297 22.47 22.47 0 0 1-1.756-1.132 20.84 20.84 0 0 1-5.905-6.487c3.408-12.852 6.91-25.92 13.847-37.273 2.262-3.745 4.853-7.161 7.181-10.812 6.75-10.577 8.139-23.925 15.846-33.828a5.8 5.8 0 0 0 0-6.89c-.892-1.15-2.31-2.246-2.047-3.669.198-1.039 1.286-1.975.864-2.948-.197-.468-.676-.721-1.051-1.058-1.315-1.208-1.146-3.267-1.258-5.036-.291-4.484-2.985-8.424-5.633-12.084a7.497 7.497 0 0 0-2.056-2.21c-.694-.42-1.52-.608-2.215-1.038-2.46-1.536-2.281-5.111-3.464-7.76-1.54-3.492-5.416-5.27-7.96-8.106-3.239-3.604-4.065-8.63-7.51-11.785a9.38 9.38 0 0 0-1.117-.936c1.708 5.288 1.877 10.933 2 16.502.328 19.086-4.46 38.846-2.216 57.81 1.765 15.042-7.51 30.057-20.7 37.573-5.069 2.883-10.607 4.811-16.108 6.768-8.252 2.91-16.475 5.915-24.567 9.285a281.119 281.119 0 0 0-16.897 7.629 213.68 213.68 0 0 0-19.986 11.027c-7.942 5.035-15.883 10.156-21.525 17.672-5.454-.15-10.448-3.417-13.903-7.629-3.454-4.212-5.632-9.36-7.613-14.377-1.755-4.353-3.483-8.846-3.614-13.536a2.677 2.677 0 0 1 1.633-2.34l37.71-19.928 7.05-3.744c15.442-8.172 31.438-15.726 46.88-23.888 1.042.309 1.877-.87 2.187-1.872s.526-2.293 1.502-2.743c.488-.234 1.127-.224 1.493-.636.238-.369.332-.812.263-1.245-.498-7.488-5.886-14.294-4.807-21.679.46-3.145 2.084-6.243 1.38-9.36-.497-2.144-2.037-3.876-2.872-5.907-1.878-4.54 0-10.006-2.028-14.452a33.345 33.345 0 0 1-2.722-9.21 62.427 62.427 0 0 0-5.764-18.254 33.269 33.269 0 0 0-5.304-8.003c-1.136-1.217-2.413-2.303-3.492-3.566-3.276-3.875-4.487-9.042-5.417-14.04-1.69-9.052-2.816-18.44-.75-27.408.713-3.061 1.802-6.094 1.755-9.23-.047-4.146-1.878-8.986 1.014-11.98a9.34 9.34 0 0 1 4.224-2.163c6.646-1.975 13.565-2.874 20.446-3.744l31.494-4.11c3.605-.477 7.294-.936 10.476-2.723 4.272-2.35 7.107-6.703 8.843-11.233 5.53 4.025 7.595 11.523 12.007 16.718 2.15 2.536 4.806 4.586 7.162 6.917a80.189 80.189 0 0 1 7.895 9.707c6.571 8.995 13.142 18.056 17.836 28.147 2.45 5.241 4.346 10.708 6.3 16.146 7.687 21.408 20.22 41.73 25.42 63.857 1.277 5.41 4.59 10.297 5.107 15.829.582 5.869-2.14 11.541-4.966 16.764z" fill="#3f3d56"/><g fill="#000"><path d="M186.199 271.396A9.29 9.29 0 0 0 185 276c.725-3.441 5.647-5.348 5.966-8.751.145-1.572-.155-1.498-1.16-.67-1.528 1.274-2.195 3.469-3.607 4.817zm14.675 9.719a7.198 7.198 0 0 0-2.14 3.232 8.362 8.362 0 0 0-.433 5.653c.692-.33.923-1.197 1.135-1.95.34-1.175.832-2.297 1.466-3.336.553-.942 3.107-3.043 3.098-4.033-.028-1.517-2.444-.103-3.126.434zM204 165.555a35.375 35.375 0 0 1-7.23 4.766c-6.79 3.404-14.311 5.204-21.148 8.506a104.958 104.958 0 0 0-9.816 5.667l-20.324 12.753a21.775 21.775 0 0 0-4.476 3.367c-2.445 2.578-2.436 7.114-4.683 9.878-2.248 2.764-6.126 4.322-9.863 4.508a32.337 32.337 0 0 1-10.986-1.856 57.4 57.4 0 0 1-6.275-2.263 29.644 29.644 0 0 1-6.031-3.413c-3.625-2.708-6.556-6.65-7.1-11.13a21.784 21.784 0 0 1 1.209-9.071 34.607 34.607 0 0 1 2.163-5.5 22.083 22.083 0 0 1 1.723-2.894c4.683-6.548 12.897-9.618 20.849-11.13 4.177-.807 8.429-1.299 12.653-2.003 2.021.445 4.07.755 6.134.927 6.454.455 12.841-1.261 19.079-2.968l6.8-1.855c3.408-.927 5.113-5.008 8.56-5.723a12.13 12.13 0 0 1 4.617.232c6.996 1.317 14.049 3.015 20.202 6.54a33.303 33.303 0 0 1 3.943 2.661z" opacity=".1"/></g><path d="M218.615 75c-.872 8.32-7.87 14.43-12.179 21.622-2.07 3.487-3.522 7.314-5.387 10.923a108.335 108.335 0 0 1-7.12 11.375l-7.616 11.093c-4.478 6.524-9.002 13.105-14.726 18.567-9.978 1.701-18.343 9.137-27.805 12.747-7.57 2.886-15.823 3.281-23.767 4.832-7.944 1.551-16.179 4.7-20.844 11.281a29.576 29.576 0 0 0-3.897 8.46 21.993 21.993 0 0 0-1.2 9.185c.572 4.531 3.467 8.517 7.092 11.281 3.626 2.764 7.963 4.4 12.31 5.753A32.181 32.181 0 0 0 124.465 214c3.747-.188 7.55-1.636 9.874-4.57 2.323-2.932 2.21-7.398 4.684-10.01a21.873 21.873 0 0 1 4.487-3.413l20.33-12.926a104.648 104.648 0 0 1 9.808-5.707c6.838-3.356 14.36-5.17 21.153-8.62 6.792-3.45 13.115-9.147 14.474-16.668 4.14-23.107 20.076-42.585 33.725-61.669-.45-.094-.31-1.118-.478-1.55-1.742-4.532-5.62-7.945-9.986-10.097s-9.237-2.755-13.921-3.77z" fill="#007df6"/><path d="M147.935 74.033a12.796 12.796 0 0 0-1.42-7.275c-2.268-3.77-7.02-5.098-11.29-5.984a220.683 220.683 0 0 0-12.458-2.186c-3.424-.5-6.934-.943-10.302-.17-4.704 1.027-8.533 4.147-12.89 6.088-5.146 2.3-10.847 2.902-16.342 4.175s-11.12 3.43-14.564 7.897c-2.615 3.392-3.66 7.727-4.44 11.95-6.52 35.235.498 71.375 1.834 107.185C66.58 209.651 65.95 224.55 58 236l23.154-.613c5.927-.15 12.297-.461 16.935-4.127 4.102-3.223 6.04-8.416 7.8-13.335 1.383-3.873 2.775-7.822 2.954-11.93.367-8.416-4.403-16.68-2.823-24.964 1.158-6.182 5.645-11.177 10.453-15.238 4.808-4.062 10.152-7.54 14.037-12.515 6.944-8.792 8.27-20.808 7.405-31.975-.518-6.644-1.703-13.287-1.13-19.931.434-4.967 2.005-10.093 5.25-13.966 3.651-4.392 5.58-7.143 5.9-13.373z" fill="#3f3d56"/><path d="M146.523 67.93c-2.23-3.708-6.856-5.045-11.097-5.93a10.94 10.94 0 0 1 5.492 4.33 12.702 12.702 0 0 1 1.42 7.268c-.32 6.214-2.248 8.963-5.934 13.359-3.245 3.87-4.815 8.981-5.248 13.952-.574 6.637.611 13.274 1.129 19.91.865 11.157-.461 23.16-7.392 31.943-3.894 4.933-9.235 8.473-14.031 12.502s-9.301 9.047-10.458 15.223c-1.552 8.275 3.216 16.531 2.821 24.938-.178 4.104-1.58 8.049-2.962 11.918-1.75 4.914-3.696 10.092-7.796 13.312-4.702 3.662-11.031 3.982-16.928 4.133l-16.392.433A31.851 31.851 0 0 1 58 237l23.144-.612c5.925-.15 12.291-.461 16.928-4.123 4.1-3.22 6.037-8.407 7.796-13.321 1.382-3.87 2.774-7.814 2.953-11.919.367-8.407-4.401-16.663-2.821-24.938 1.156-6.176 5.642-11.165 10.448-15.223s10.147-7.53 14.03-12.502c6.941-8.783 8.267-20.786 7.402-31.942-.517-6.637-1.702-13.274-1.128-19.91.432-4.962 2.003-10.083 5.247-13.953 3.687-4.387 5.643-7.136 5.934-13.358a12.777 12.777 0 0 0-1.41-7.268zM319 429.658L275.99 533a20.98 20.98 0 0 1-5.99-6.502c3.456-12.881 7.008-25.978 14.045-37.359 2.295-3.753 4.923-7.177 7.284-10.836 6.846-10.602 8.256-23.98 16.073-33.907a5.757 5.757 0 0 0 0-6.905c-.904-1.154-2.342-2.251-2.076-3.677.2-1.042 1.305-1.98.876-2.956-.2-.469-.685-.722-1.066-1.06-1.333-1.21-1.162-3.274-1.276-5.047-.295-4.494-3.028-8.444-5.713-12.113a7.55 7.55 0 0 0-2.085-2.214c-.705-.422-1.543-.61-2.248-1.041-2.494-1.539-2.313-5.123-3.513-7.778-1.562-3.5-5.494-5.282-8.075-8.125-3.285-3.612-4.123-8.65-7.617-11.811l-.296-.732L277.665 361z" fill="#000" opacity=".1"/></g></g></g></svg>