<svg width="1442" height="500" xmlns="http://www.w3.org/2000/svg" xmlns:xlink="http://www.w3.org/1999/xlink"><defs><path id="a" d="M0.847 0H1440.847V500H0.847z"/><linearGradient x1="49.997%" y1="100%" x2="49.997%" y2="-.012%" id="c"><stop stop-color="gray" stop-opacity=".25" offset="0%"/><stop stop-color="gray" stop-opacity=".12" offset="54%"/><stop stop-color="gray" stop-opacity=".1" offset="100%"/></linearGradient></defs><g transform="translate(.153)" fill="none" fill-rule="evenodd"><mask id="b" fill="#fff"><use xlink:href="#a"/></mask><use fill="#F4F6F8" xlink:href="#a"/><path d="M1748.837 727.449c-8.133 11.585-18.132 22.702-29.866 33.202-5.511 5.008-11.553 9.814-18.091 14.39l-.2.136H-322l.364-.147c1.82-.822 12.504-5.826 29.12-14.39a1157.495 1157.495 0 0 0 43.68-23.742c137.394-78.213 401.315-263.342 181.511-432.934-204.333-157.657 15.67-186.277 160.8-189.606 55.763-1.253 111.392 4.01 163.564 15.474 67.032 14.747 189.574 37.363 349.226 47.717 5.242.345 10.532.675 15.87.99a2638.23 2638.23 0 0 0 254.403 2.666c2.493-.074 5.005-.18 7.535-.285 83.87-3.417 167.102-10.873 248.833-22.289 5.296-.748 10.52-1.454 15.725-2.107 272.33-36.467 523.383 87.82 460.629 228.286-23.224 51.941-17.327 107.327 60.06 152.117 126.583 73.145 111.167 145.153 79.517 190.522z" fill="#007DF6" fill-rule="nonzero" opacity=".1" mask="url(#b)" transform="rotate(15 724.5 444.677)"/><g mask="url(#b)"><g transform="translate(533.45 84)"><ellipse fill="#3F3D56" fill-rule="nonzero" transform="rotate(-60.79 244.968 62.605)" cx="244.968" cy="62.605" rx="4.958" ry="3.787"/><ellipse fill="#3F3D56" fill-rule="nonzero" transform="rotate(-60.79 247.924 57.316)" cx="247.924" cy="57.316" rx="4.958" ry="3.787"/><ellipse fill="#3F3D56" fill-rule="nonzero" transform="rotate(-60.79 250.883 52.028)" cx="250.883" cy="52.028" rx="4.958" ry="3.787"/><ellipse fill="#3F3D56" fill-rule="nonzero" transform="rotate(-60.79 253.84 46.734)" cx="253.839" cy="46.734" rx="4.958" ry="3.787"/><ellipse fill="#3F3D56" fill-rule="nonzero" transform="rotate(-60.79 256.793 41.448)" cx="256.793" cy="41.448" rx="4.958" ry="3.787"/><ellipse fill="#3F3D56" fill-rule="nonzero" transform="rotate(-60.79 259.753 36.158)" cx="259.753" cy="36.158" rx="4.958" ry="3.787"/><path fill="#D0D2D5" fill-rule="nonzero" d="M168.07 212.17L99.47 211.285278 99.6705231 209.515833 102.987949 180.32 163.232821 180.32 167.665436 209.515833 168.003159 211.727639z"/><path fill="#000" fill-rule="nonzero" opacity=".1" d="M168.07 212.17L133.803453 212.17 99.47 211.68 99.6707186 209.72 167.731948 209.72z"/><path fill="#D0D2D5" fill-rule="nonzero" d="M87.71 210.21H178.85V212.66H87.71z"/><path d="M266.56 5.77A5.744 5.744 0 0 0 260.844 0H5.72a5.751 5.751 0 0 0-4.056 1.701A5.738 5.738 0 0 0 0 5.77V160.23h266.56V5.77z" fill="#444053" fill-rule="nonzero"/><path d="M0 158.76v18.238a5.775 5.775 0 0 0 1.67 4.082 5.697 5.697 0 0 0 4.05 1.69h255.124c3.157 0 5.716-2.576 5.716-5.755V158.76H0z" fill="#D0D2D5" fill-rule="nonzero"/><path fill="#007DF6" fill-rule="nonzero" opacity=".1" d="M10.78 9.8H256.27V148.96H10.78z"/><path fill="#000" fill-rule="nonzero" opacity=".1" d="M140.14 182.77L167.58 210.21 163.371757 182.77z"/><path fill="#FFF" fill-rule="nonzero" d="M17.64 28.42H207.26999999999998V129.85000000000002H17.64z"/><path fill="#007DF6" fill-rule="nonzero" opacity=".1" d="M28.42 54.88H81.34V57.82H28.42z"/><path fill="#007DF6" fill-rule="nonzero" opacity=".1" d="M33.32 40.18H38.22V54.879999999999995H33.32z"/><path fill="#007DF6" fill-rule="nonzero" opacity=".1" d="M40.67 40.18H45.57V54.879999999999995H40.67z"/><path fill="#007DF6" fill-rule="nonzero" opacity=".1" d="M48.02 40.18H52.92V54.879999999999995H48.02z"/><path fill="#007DF6" fill-rule="nonzero" opacity=".1" d="M55.37 40.18H60.269999999999996V54.879999999999995H55.37z"/><path fill="#007DF6" fill-rule="nonzero" opacity=".1" d="M62.72 40.18H67.62V54.879999999999995H62.72z"/><path fill="#007DF6" fill-rule="nonzero" opacity=".1" d="M70.56 40.18H75.46000000000001V54.879999999999995H70.56z"/><path fill="#007DF6" fill-rule="nonzero" opacity=".1" d="M33.32 43.12H38.22V44.589999999999996H33.32z"/><path fill="#007DF6" fill-rule="nonzero" opacity=".1" d="M40.67 43.12H45.57V44.589999999999996H40.67z"/><path fill="#007DF6" fill-rule="nonzero" opacity=".1" d="M48.02 43.12H52.92V44.589999999999996H48.02z"/><path fill="#007DF6" fill-rule="nonzero" opacity=".1" d="M55.37 43.12H60.269999999999996V44.589999999999996H55.37z"/><path fill="#007DF6" fill-rule="nonzero" opacity=".1" d="M62.72 43.12H67.62V44.589999999999996H62.72z"/><path fill="#007DF6" fill-rule="nonzero" opacity=".1" d="M70.56 43.12H75.46000000000001V44.589999999999996H70.56z"/><path fill="#007DF6" fill-rule="nonzero" opacity=".1" d="M33.32 49.98H38.22V51.449999999999996H33.32z"/><path fill="#007DF6" fill-rule="nonzero" opacity=".1" d="M40.67 49.98H45.57V51.449999999999996H40.67z"/><path fill="#007DF6" fill-rule="nonzero" opacity=".1" d="M48.02 49.98H52.92V51.449999999999996H48.02z"/><path fill="#007DF6" fill-rule="nonzero" opacity=".1" d="M55.37 49.98H60.269999999999996V51.449999999999996H55.37z"/><path fill="#007DF6" fill-rule="nonzero" opacity=".1" d="M62.72 49.98H67.62V51.449999999999996H62.72z"/><path fill="#007DF6" fill-rule="nonzero" opacity=".1" d="M70.56 49.98H75.46000000000001V51.449999999999996H70.56z"/><path fill="#007DF6" fill-rule="nonzero" opacity=".1" d="M144.06 61.74H196.98000000000002V64.68H144.06z"/><path fill="#007DF6" fill-rule="nonzero" opacity=".1" d="M148.96 47.53H153.86V62.230000000000004H148.96z"/><path fill="#007DF6" fill-rule="nonzero" opacity=".1" d="M156.31 47.53H161.21V62.230000000000004H156.31z"/><path fill="#007DF6" fill-rule="nonzero" opacity=".1" d="M164.15 47.53H169.05V62.230000000000004H164.15z"/><path fill="#007DF6" fill-rule="nonzero" opacity=".1" d="M171.5 47.53H176.4V62.230000000000004H171.5z"/><path fill="#007DF6" fill-rule="nonzero" opacity=".1" d="M178.85 47.53H183.75V62.230000000000004H178.85z"/><path fill="#007DF6" fill-rule="nonzero" opacity=".1" d="M186.2 47.53H191.1V62.230000000000004H186.2z"/><path fill="#007DF6" fill-rule="nonzero" opacity=".1" d="M148.96 49.98H153.86V51.449999999999996H148.96z"/><path fill="#007DF6" fill-rule="nonzero" opacity=".1" d="M156.31 49.98H161.21V51.449999999999996H156.31z"/><path fill="#007DF6" fill-rule="nonzero" opacity=".1" d="M164.15 49.98H169.05V51.449999999999996H164.15z"/><path fill="#007DF6" fill-rule="nonzero" opacity=".1" d="M171.5 49.98H176.4V51.449999999999996H171.5z"/><path fill="#007DF6" fill-rule="nonzero" opacity=".1" d="M178.85 49.98H183.75V51.449999999999996H178.85z"/><path fill="#007DF6" fill-rule="nonzero" opacity=".1" d="M186.2 49.98H191.1V51.449999999999996H186.2z"/><path fill="#007DF6" fill-rule="nonzero" opacity=".1" d="M148.96 57.33H153.86V58.8H148.96z"/><path fill="#007DF6" fill-rule="nonzero" opacity=".1" d="M156.31 57.33H161.21V58.8H156.31z"/><path fill="#007DF6" fill-rule="nonzero" opacity=".1" d="M164.15 57.33H169.05V58.8H164.15z"/><path fill="#007DF6" fill-rule="nonzero" opacity=".1" d="M171.5 57.33H176.4V58.8H171.5z"/><path fill="#007DF6" fill-rule="nonzero" opacity=".1" d="M178.85 57.33H183.75V58.8H178.85z"/><path fill="#007DF6" fill-rule="nonzero" opacity=".1" d="M186.2 57.33H191.1V58.8H186.2z"/><path fill="#007DF6" fill-rule="nonzero" opacity=".1" d="M144.06 81.83H196.98000000000002V84.77H144.06z"/><path fill="#007DF6" fill-rule="nonzero" opacity=".1" d="M148.96 67.13H153.86V81.83H148.96z"/><path fill="#007DF6" fill-rule="nonzero" opacity=".1" d="M156.31 67.13H161.21V81.83H156.31z"/><path fill="#007DF6" fill-rule="nonzero" opacity=".1" d="M164.15 67.13H169.05V81.83H164.15z"/><path fill="#007DF6" fill-rule="nonzero" opacity=".1" d="M171.5 67.13H176.4V81.83H171.5z"/><path fill="#007DF6" fill-rule="nonzero" opacity=".1" d="M178.85 67.13H183.75V81.83H178.85z"/><path fill="#007DF6" fill-rule="nonzero" opacity=".1" d="M186.2 67.13H191.1V81.83H186.2z"/><path fill="#007DF6" fill-rule="nonzero" opacity=".1" d="M148.96 70.07H153.86V71.53999999999999H148.96z"/><path fill="#007DF6" fill-rule="nonzero" opacity=".1" d="M156.31 70.07H161.21V71.53999999999999H156.31z"/><path fill="#007DF6" fill-rule="nonzero" opacity=".1" d="M164.15 70.07H169.05V71.53999999999999H164.15z"/><path fill="#007DF6" fill-rule="nonzero" opacity=".1" d="M171.5 70.07H176.4V71.53999999999999H171.5z"/><path fill="#007DF6" fill-rule="nonzero" opacity=".1" d="M178.85 70.07H183.75V71.53999999999999H178.85z"/><path fill="#007DF6" fill-rule="nonzero" opacity=".1" d="M186.2 70.07H191.1V71.53999999999999H186.2z"/><path fill="#007DF6" fill-rule="nonzero" opacity=".1" d="M148.96 77.42H153.86V78.89H148.96z"/><path fill="#007DF6" fill-rule="nonzero" opacity=".1" d="M156.31 77.42H161.21V78.89H156.31z"/><path fill="#007DF6" fill-rule="nonzero" opacity=".1" d="M164.15 77.42H169.05V78.89H164.15z"/><path fill="#007DF6" fill-rule="nonzero" opacity=".1" d="M171.5 77.42H176.4V78.89H171.5z"/><path fill="#007DF6" fill-rule="nonzero" opacity=".1" d="M178.85 77.42H183.75V78.89H178.85z"/><path fill="#007DF6" fill-rule="nonzero" opacity=".1" d="M186.2 77.42H191.1V78.89H186.2z"/><path d="M101.486 88s1.878 10.294-2.335 13.65c-4.213 3.357 3.56 23.497 16.474 21.15 12.914-2.347 18.145-19.247 18.145-19.247s-12.914-2.682-8.128-16.333l-24.156.78z" fill="#EFB7B9" fill-rule="nonzero"/><path d="M101.486 88s1.878 10.294-2.335 13.65c-4.213 3.357 3.56 23.497 16.474 21.15 12.914-2.347 18.145-19.247 18.145-19.247s-12.914-2.682-8.128-16.333l-24.156.78z" fill="#000" fill-rule="nonzero" opacity=".1"/><circle fill="#EFB7B9" fill-rule="nonzero" cx="112.7" cy="74.48" r="21.56"/><path d="M147.973 115.281v14.569H76.93v-13.903a8.98 8.98 0 0 1 5.5-8.267l2.039-.862c5.153-2.187 11.413-4.901 13.46-6.031a3.37 3.37 0 0 0 .628-.405c1.12-1.116.898.334.898.334s-.032.275-.053.754c-.12 3.278.354 16.17 15.517 15.097 14.795-1.057 15.445-10.999 15.31-13.925a7.25 7.25 0 0 0-.07-.81c0-.077 1.273.353 2.997.972 3.1 1.137 7.656 2.968 8.883 3.83.381.265.844.546 1.346.825a8.923 8.923 0 0 1 4.595 7.822h-.007z" fill="#D6E6F9" fill-rule="nonzero"/><path d="M133.28 102.774c-1.253 5.74-5.188 16.495-19.382 16.782-15.114.293-15.984-14.558-15.892-18.771.226-.11.438-.247.633-.406 1.122-1.108.899.332.899.332s-1.908 16.96 15.482 15.733c17.39-1.227 15.26-14.631 15.26-14.631 0-.08 1.273.332 3 .961z" fill="#000" fill-rule="nonzero" opacity=".1"/><path d="M87.165 75.25c1.406-.459 3.082.316 3.865 1.408.784 1.092.893 2.413.988 3.678.931.197 1.455-.86 1.539-1.652.351-3.245.369-6.549 1.455-9.677 1.085-3.128 3.457-6.158 7.105-7.362a8.189 8.189 0 0 1 3.865-.37c.77.13 1.497.398 2.266.525 2.66.44 5.56-.825 8.058.056 1.563.553 2.572 1.832 3.289 3.114.32.688.751 1.318 1.279 1.864 1.054.95 2.726 1.2 4.244 1.5 1.518.3 3.184.814 3.834 1.99.587 1.057.155 2.29-.042 3.446a8.43 8.43 0 0 0 .868 5.319c.28.535.85 1.141 1.521.969.306-.104.564-.314.728-.592 1.757-2.466 1.7-5.665 3.89-7.866.734-.737 1.68-1.314 2.392-2.065a4.65 4.65 0 0 0 1.24-4.227c-.393-1.694-1.756-3.107-2.835-4.58a17.985 17.985 0 0 1-3.04-6.322 1.13 1.13 0 0 1 0-.825c.207-.27.473-.488.777-.637a2.95 2.95 0 0 0 1.009-3.763c-.612-1.278-1.986-2.226-3.493-2.797-1.508-.57-3.163-.813-4.8-1.056-1.075.158-2.337-.458-2.67-1.321-.148-.384-.148-.8-.3-1.184-.29-.736-1.13-1.258-2.034-1.437a5.96 5.96 0 0 0-2.748.194c-1.012.285-2.185.704-3.067.218-.464-.264-.724-.743-1.223-.958-1.012-.434-2.08.44-2.811 1.162a6.921 6.921 0 0 1-2.54 1.709c-1.016.352-2.267.352-3.142-.208-.703-.447-1.054-1.166-1.613-1.737-.917-.94-2.368-1.451-3.816-1.567a13.454 13.454 0 0 0-4.308.472c-2.675.65-5.23 1.72-7.572 3.17-1.17.736-2.291 1.596-2.903 2.705a6.153 6.153 0 0 0-.653 2.79c-.11 3.033.896 6.232 3.514 8.356-1.596.67-2.137 2.308-2.51 3.762-.597 2.318-1.198 4.679-.973 7.046.113 1.222.447 2.444.267 3.66-.084.588-.288 1.166-.239 1.761a1.682 1.682 0 0 0 1.34 1.328z" fill="#454B69" fill-rule="nonzero"/><g opacity=".1" transform="translate(85.26 48.02)" fill="#000" fill-rule="nonzero"><path d="M54.207 16.588a5.061 5.061 0 0 1-.93 1.366c-.709.752-1.672 1.331-2.412 2.072-2.206 2.203-2.16 5.419-3.92 7.883a1.345 1.345 0 0 1-.732.59c-.677.173-1.25-.435-1.534-.971a8.562 8.562 0 0 1-.768-2.065 8.408 8.408 0 0 0 .768 5.87c.284.537.857 1.144 1.534.971.307-.104.567-.314.732-.593 1.77-2.471 1.714-5.676 3.92-7.883.74-.738 1.692-1.317 2.411-2.068a4.644 4.644 0 0 0 1.25-4.237 5.08 5.08 0 0 0-.319-.935zM49.396 1.345a2.173 2.173 0 0 0-.783.635c-.105.266-.105.561 0 .826.204.8.466 1.585.783 2.348a2.946 2.946 0 0 0 1.002-3.809 3.86 3.86 0 0 0-.355-.6 2.95 2.95 0 0 1-.647.6zM3.863 6.104A9.577 9.577 0 0 1 .482.138 8.448 8.448 0 0 0 .326 1.55a10.718 10.718 0 0 0 1.7 6.354 3.617 3.617 0 0 1 1.837-1.8zm39.942 16.093c.198-1.158.634-2.39.042-3.452-.655-1.18-2.33-1.698-3.862-1.995-1.534-.296-3.208-.55-4.278-1.503a6.809 6.809 0 0 1-1.288-1.868c-.709-1.285-1.739-2.566-3.314-3.12-2.518-.883-5.439.384-8.12-.057-.775-.127-1.507-.395-2.283-.526a8.294 8.294 0 0 0-3.895.353c-3.675 1.207-6.065 4.236-7.159 7.378-1.094 3.142-1.119 6.446-1.466 9.697-.085.794-.612 1.853-1.55 1.656-.096-1.268-.213-2.591-.995-3.686-.783-1.094-2.454-1.874-3.895-1.412a1.877 1.877 0 0 1-1.09-.706c.049.47.042.944-.022 1.412-.085.59-.29 1.169-.24 1.765a1.69 1.69 0 0 0 1.345 1.335c1.416-.46 3.105.317 3.895 1.412.79 1.094.899 2.418.995 3.685.938.198 1.465-.861 1.55-1.655.354-3.252.372-6.563 1.466-9.698 1.094-3.134 3.484-6.17 7.16-7.378a8.294 8.294 0 0 1 3.894-.37c.775.13 1.508.399 2.284.526 2.68.441 5.601-.826 8.118.056 1.576.555 2.592 1.836 3.315 3.12.321.69.757 1.322 1.288 1.868 1.063.953 2.748 1.204 4.277 1.504 1.53.3 3.084.78 3.785 1.875.018-.06.029-.138.043-.216zM.637 20.595a9.901 9.901 0 0 0-.17-2.867 12.741 12.741 0 0 0-.099 3.004c.021.258.057.512.092.77.043-.304.12-.604.177-.907z"/></g><path fill="#FFF" fill-rule="nonzero" d="M217.07 107.31H248.92V129.36H217.07z"/><path d="M245.94 123.971a3.898 3.898 0 0 1-1.972 1.64c.035.278.041.56.017.839l-3.165-.188 3.08.668a3.92 3.92 0 0 1-1.518 2.319h-4.284v.111h-4.368c0-.038 0-.073.028-.111a3.908 3.908 0 0 1 2.399-2.646 3.891 3.891 0 0 1 2.5-4.136 3.446 3.446 0 0 1-.031-.536l2.036.794-2.015-1.17a3.883 3.883 0 0 1 1.537-2.691l1.853 2.973-1.39-3.272a3.969 3.969 0 0 1 4.717.715 3.869 3.869 0 0 1 .56 4.691h.017z" fill="#007DF6" fill-rule="nonzero" opacity=".1"/><path d="M243.525 128.116a3.84 3.84 0 0 1-1.064 1.133h-4.325v.111h-4.406c0-.038 0-.073.028-.11a3.75 3.75 0 0 1 .433-1 3.928 3.928 0 0 1 1.987-1.627c-.036-.28.82-.242 1.958-.056 2.228.367 5.541 1.303 5.389 1.549zm-24.956-4.145a3.897 3.897 0 0 0 1.972 1.64 3.94 3.94 0 0 0-.018.839l3.165-.188-3.08.668a3.92 3.92 0 0 0 1.519 2.319h4.293v.111h4.37c0-.038-.021-.073-.028-.111a4.055 4.055 0 0 0-.43-1.006 3.928 3.928 0 0 0-1.972-1.64 3.892 3.892 0 0 0-2.5-4.136c.025-.178.036-.357.036-.536l-2.036.794 2.011-1.17a3.883 3.883 0 0 0-1.536-2.691l-1.853 2.973 1.389-3.272a3.967 3.967 0 0 0-4.715.715 3.87 3.87 0 0 0-.56 4.691h-.027z" fill="#007DF6" fill-rule="nonzero" opacity=".1"/><path d="M220.996 128.116c.271.444.633.83 1.063 1.133h4.326v.111h4.405c0-.038-.021-.073-.028-.11a3.994 3.994 0 0 0-.433-1 3.946 3.946 0 0 0-1.988-1.627c.036-.28-.818-.242-1.956-.056-2.232.367-5.552 1.303-5.39 1.549z" fill="#007DF6" fill-rule="nonzero" opacity=".1"/><path fill="#464353" fill-rule="nonzero" d="M229.32 112.21H236.18V120.05H229.32z"/><path fill="#000" fill-rule="nonzero" opacity=".1" d="M229.32 112.21H236.18V120.05H229.32z"/><path fill="#A1616A" fill-rule="nonzero" d="M226.021738 127.134928L225.89 129.36 227.734328 129.36 227.85 126.42z"/><path fill="#A1616A" fill-rule="nonzero" d="M236.485045 127.134928L236.18 129.36 238.024293 129.36 238.14 126.42z"/><path d="M231.106 116.416s-.067 1.041-.3 1.313c-.233.272 2.082 2.68 3.904.3 0 0-.783-.715-.6-1.516.184-.801-3.004-.097-3.004-.097z" fill="#A1616A" fill-rule="nonzero"/><path d="M231.106 116.416s-.067 1.041-.3 1.313c-.233.272 2.082 2.68 3.904.3 0 0-.783-.715-.6-1.516.184-.801-3.004-.097-3.004-.097z" fill="#000" fill-rule="nonzero" opacity=".1"/><circle fill="#A1616A" fill-rule="nonzero" cx="232.75" cy="113.68" r="3.43"/><path d="M232.404 118.475s-1.47-.025-1.688-1.365a8.955 8.955 0 0 1-.92.696c-.142.049-1.545.843-1.81.891-.259.053-.5.173-.696.348-.7.55-1.125 1.38-1.16 2.27-.049 1.57-.24 4.637-.24 4.637l.073 1.11v.725s1.302.348 2.09-.349c0 0 0-.264.145-.348.147-.083.167-.435.143-.581a5.646 5.646 0 0 1 0-.651.466.466 0 0 0 .195.289c.058.196.074.403.049.606-.073.142-.146.48-.073.553.075.133.056.3-.049.41-.133.187-.238.39-.313.607 0 0-.074.431-.147.48a2.008 2.008 0 0 0-.167.557h8.704a8.374 8.374 0 0 1-.348-1.354c.025-.216-.216-1.11-.048-1.35.246-.32.381-.709.386-1.111l.097.94-.264 2.088s1.615.509 1.786.192c.18-.552.318-1.116.41-1.689 0 0 .387-1.74.485-1.98.097-.24.313-5.069-.993-5.769-1.305-.7-3.767-1.904-3.83-1.845a1.619 1.619 0 0 1-1.817.993z" fill="#007DF6" fill-rule="nonzero"/><path d="M228.212 122.99c-.287.358-.41.797-.345 1.23.067.43.228.843.473 1.22m8.49-1.96c.088.182.157.368.206.558.178.48.06.992-.323 1.402" stroke="#000" stroke-width=".7" opacity=".1"/><path d="M230.958 110.977c.275-.075.569-.044.824.086.25.133.514.24.785.32.182.04.35.04.554.068.693.129 1.24.676 1.382 1.382.158.884-.35 1.752-.35 2.654.001.515.178 1.014.5 1.41.27.253.507.542.702.859.102.23.123.491.22.718.215.406.57.716.997.868.422.146.83.333 1.216.56.702.478 1.115 1.393 1.929 1.59a.316.316 0 0 0 .256 0 .326.326 0 0 0 .12-.25 1.191 1.191 0 0 0-.327-.966c-.2-.205-.49-.36-.554-.636-.063-.276.105-.513.196-.764.291-.815-.193-1.702-.743-2.363-.55-.66-1.21-1.314-1.343-2.154a5.803 5.803 0 0 1-.032-.854 5.79 5.79 0 0 0-.294-1.727 2.56 2.56 0 0 0-.42-.83c-.176-.215-.4-.38-.583-.588a8.906 8.906 0 0 1-.652-1.077 3.14 3.14 0 0 0-2.577-1.483c-.986 0-1.919.445-2.753.98-.307.172-.573.41-.779.7-.35.571-.245 1.325-.448 1.971-.204.646-.684 1.124-.852 1.756a1.26 1.26 0 0 0-.025.57c.063.2.146.393.249.575.186.462.292.954.312 1.454.053.603.077 1.253-.231 1.766-.24.312-.538.57-.877.762a1.68 1.68 0 0 0 1.224.384c.666.028 1.437 0 1.851-.539.248-.386.348-.853.28-1.31a5.625 5.625 0 0 0-.294-1.465c-.228-.664-.578-1.292-.68-1.989a1.908 1.908 0 0 1 .35-1.436c.127-.162.351-.244.456-.417.134-.23.095-.47.41-.585z" fill="#464353" fill-rule="nonzero"/><g opacity=".1" transform="translate(227.36 110.25)" fill="#000" fill-rule="nonzero"><path d="M1.069 4.082c.185.453.29.936.31 1.426 0 .155.024.314.028.472a4.902 4.902 0 0 0 0-1.035 4.2 4.2 0 0 0-.31-1.409 3.188 3.188 0 0 1-.247-.56c-.052.18-.06.372-.025.556.062.192.144.376.244.55zm2.294 3.247c-.41.525-1.177.556-1.838.532-.28 0-.558-.042-.825-.127-.133.11-.275.211-.415.31.342.28.778.415 1.216.377.661.028 1.427 0 1.838-.528.235-.353.337-.78.285-1.201-.03.231-.12.451-.26.637zm8.708 1.409c.01.04.023.079.041.116.042-.099.09-.2.13-.303.083-.232.107-.481.069-.725a1.464 1.464 0 0 1-.045.165c-.09.247-.255.493-.195.747zM7.39 2.807c.04-.241.04-.488 0-.73A1.719 1.719 0 0 0 6.02.723C5.835.69 5.65.69 5.47.655a4.516 4.516 0 0 1-.78-.313 1.147 1.147 0 0 0-.818-.088c-.314.112-.276.352-.415.584-.1.17-.327.254-.452.409-.276.372-.4.837-.349 1.3.044-.27.156-.524.324-.737.126-.158.348-.24.453-.408.14-.236.1-.472.414-.585.274-.074.565-.044.818.085.25.13.51.235.78.313.181.039.348.039.55.067a1.722 1.722 0 0 1 1.396 1.525zm5.421 7.752a.344.344 0 0 1-.254 0c-.808-.194-1.225-1.092-1.915-1.56a7.225 7.225 0 0 0-1.208-.55 1.795 1.795 0 0 1-.989-.849c-.097-.229-.118-.482-.219-.704a4.092 4.092 0 0 0-.696-.842 2.208 2.208 0 0 1-.502-1.236 2.73 2.73 0 0 0-.031.412c.006.513.191 1.006.522 1.395.269.247.503.53.697.841.1.226.121.483.219.705.213.399.565.703.989.852.42.143.824.327 1.208.55.696.468 1.107 1.366 1.915 1.56a.317.317 0 0 0 .254 0 .322.322 0 0 0 .118-.247 1.175 1.175 0 0 0-.02-.398.213.213 0 0 1-.088.07z"/></g><path fill="#007DF6" fill-rule="nonzero" opacity=".1" d="M220.5 109.27H224.91V115.64H220.5z"/><path fill="#007DF6" fill-rule="nonzero" opacity=".1" d="M220.99 110.25H224.42000000000002V114.66H220.99z"/><path fill="#007DF6" fill-rule="nonzero" opacity=".1" d="M239.61 109.76H246.96V113.68H239.61z"/><path fill="#007DF6" fill-rule="nonzero" opacity=".1" d="M240.59 110.25H245.98V113.19H240.59z"/></g></g><ellipse fill="#FFF" fill-rule="nonzero" mask="url(#b)" cx="679.477" cy="139.076" rx="1.695" ry="1.833"/><path fill="#C0BCCF" fill-rule="nonzero" mask="url(#b)" d="M434.163 325.031H579.203V375.011H434.163z"/><path fill="#C0BCCF" fill-rule="nonzero" mask="url(#b)" d="M1026.083 300.531H1057.443V572.971H1026.083z"/><path fill="#000" fill-rule="nonzero" opacity=".1" mask="url(#b)" d="M434.163 325.031H579.203V327.971H434.163z"/><path fill="#000" fill-rule="nonzero" opacity=".1" mask="url(#b)" d="M1026.083 300.531H1057.443V327.971H1026.083z"/><path fill="#C0BCCF" fill-rule="nonzero" mask="url(#b)" d="M434.163 373.051H579.203V423.031H434.163z"/><path fill="#C0BCCF" fill-rule="nonzero" mask="url(#b)" d="M434.163 423.031H579.203V473.011H434.163z"/><path fill="#C0BCCF" fill-rule="nonzero" mask="url(#b)" d="M434.163 473.011H579.203V522.991H434.163z"/><path fill="#000" fill-rule="nonzero" opacity=".1" mask="url(#b)" d="M434.163 420.091H579.203V424.011H434.163z"/><path fill="#000" fill-rule="nonzero" opacity=".1" mask="url(#b)" d="M434.163 371.091H579.203V375.011H434.163z"/><path fill="#000" fill-rule="nonzero" opacity=".1" mask="url(#b)" d="M434.163 470.071H579.203V473.99100000000004H434.163z"/><g mask="url(#b)"><path d="M334.558 555.995s-3.234-95.805-55.066-149.94c-21.756-22.716-36.045-51.567-39.828-82.79a244.275 244.275 0 0 1-1.215-44.659" stroke="#535461" stroke-width="1.96"/><path d="M205.982 244.326c3.547 10.701 33.202 35.28 33.202 35.28s9.085-37.446 5.537-48.138c-3.548-10.697-15.096-16.493-25.793-12.946-10.698 3.548-16.494 15.096-12.946 25.794v.01zm-12.368 69.864c8.82 7.056 47.04 11.584 47.04 11.584s-12.74-36.368-21.56-43.414c-8.792-7.053-21.637-5.642-28.69 3.15-7.052 8.793-5.641 21.637 3.151 28.69l.06-.01zM228.6 414.983c11.153 1.646 46.462-13.72 46.462-13.72s-29.351-25-40.494-26.656c-11.15-1.648-21.524 6.054-23.172 17.204-1.648 11.15 6.055 21.524 17.204 23.172zm43.63 70.305c10.711 3.509 48.118-5.703 48.118-5.703s-24.706-29.567-35.417-33.075c-10.709-3.518-22.242 2.31-25.76 13.019-3.518 10.708 2.311 22.241 13.02 25.76h.039zm9.8-170.931c-5.204 9.996-38.387 29.576-38.387 29.576s-3.018-38.406 2.186-48.412a20.404 20.404 0 1 1 36.2 18.836zm49.99 82.868c-7.958 7.987-45.472 16.729-45.472 16.729s8.614-37.554 16.562-45.54c7.953-7.984 20.872-8.008 28.856-.055 7.983 7.954 8.007 20.873.054 28.857v.01zm37.534 87.21c-6.488 9.213-41.993 24.177-41.993 24.177s2.136-38.465 8.633-47.687a20.404 20.404 0 1 1 33.32 23.52l.04-.01z" fill="#007DF6" fill-rule="nonzero"/><path d="M323.17 516.344s29.4-42.767 24.245-83.006a78.635 78.635 0 0 1 9.29-48.862 132.3 132.3 0 0 1 13.829-19.865" stroke="#535461" stroke-width="1.96"/><path d="M367.437 339.268c-1.892 5.802 3.106 26.049 3.106 26.049s16.004-13.387 17.895-19.179c1.895-5.8-1.271-12.036-7.07-13.93-5.8-1.895-12.037 1.27-13.931 7.07v-.01zm-27.862 26.44c1.559 5.88 16.768 20.179 16.768 20.179s6.155-19.933 4.596-25.833a11.05 11.05 0 0 0-21.364 5.655zm-17.189 55.145c4.322 4.302 24.657 8.957 24.657 8.957s-4.743-20.315-9.075-24.617c-4.33-4.303-11.328-4.281-15.63.049-4.304 4.33-4.282 11.328.048 15.63v-.019zm-3.606 44.698c3.538 4.969 22.795 12.995 22.795 12.995s-1.245-20.825-4.783-25.794c-3.534-4.974-10.431-6.14-15.405-2.607-4.974 3.535-6.141 10.432-2.607 15.406zm59.24-71.324c-5.477 2.685-26.224.529-26.224.529s11.035-17.699 16.523-20.345a11.047 11.047 0 1 1 9.712 19.845l-.01-.03zm-4.88 52.165c-6.036.911-25.146-7.301-25.146-7.301s15.827-13.583 21.863-14.504c6.033-.917 11.666 3.229 12.584 9.261.917 6.032-3.23 11.666-9.261 12.583l-.04-.039zm-11.71 50.049c-5.792 1.96-26.069-2.94-26.069-2.94s13.309-16.063 19.1-17.993c5.792-1.924 12.046 1.21 13.97 7.002 1.925 5.791-1.21 12.046-7.002 13.97v-.04z" fill="#007DF6" fill-rule="nonzero"/><path d="M367.437 339.268c-1.892 5.802 3.106 26.049 3.106 26.049s16.004-13.387 17.895-19.179c1.895-5.8-1.271-12.036-7.07-13.93-5.8-1.895-12.037 1.27-13.931 7.07v-.01zm-27.862 26.44c1.559 5.88 16.768 20.179 16.768 20.179s6.155-19.933 4.596-25.833a11.05 11.05 0 0 0-21.364 5.655zm-17.189 55.145c4.322 4.302 24.657 8.957 24.657 8.957s-4.743-20.315-9.075-24.617c-4.33-4.303-11.328-4.281-15.63.049-4.304 4.33-4.282 11.328.048 15.63v-.019zm-3.606 44.698c3.538 4.969 22.795 12.995 22.795 12.995s-1.245-20.825-4.783-25.794c-3.534-4.974-10.431-6.14-15.405-2.607-4.974 3.535-6.141 10.432-2.607 15.406zm59.24-71.324c-5.477 2.685-26.224.529-26.224.529s11.035-17.699 16.523-20.345a11.047 11.047 0 1 1 9.712 19.845l-.01-.03zm-4.88 52.165c-6.036.911-25.146-7.301-25.146-7.301s15.827-13.583 21.863-14.504c6.033-.917 11.666 3.229 12.584 9.261.917 6.032-3.23 11.666-9.261 12.583l-.04-.039zm-11.71 50.049c-5.792 1.96-26.069-2.94-26.069-2.94s13.309-16.063 19.1-17.993c5.792-1.924 12.046 1.21 13.97 7.002 1.925 5.791-1.21 12.046-7.002 13.97v-.04z" fill="#FFF" fill-rule="nonzero" opacity=".5"/></g><path fill="#C0BCCF" fill-rule="nonzero" mask="url(#b)" d="M431.223 296.611H1061.363V326.01099999999997H431.223z"/><path d="M947.046 390.524a71.54 71.54 0 0 0 4.175-42.953 366.52 366.52 0 0 1-6.987-52.185c-1.118-16.807-3.568-27.695-6.243-34.75 0 0 1.029-22.874-14.465-34.8-15.494-11.927-53.685-28.646-53.685-28.646-1.857-5.346-2.481-8.933-1.873-10.759.647-1.94 3.153-4 7.519-6.185h-.147a14.19 14.19 0 0 0 3.106-1.421 13.485 13.485 0 0 0 2.793-2.323c6.115-5.35 6.204-15.17 9.104-22.99 2.235-6.018 6.42-11.173 9.418-16.876 5.459-10.388 6.733-23.138 1.656-33.702-5.076-10.565-17.1-18.16-29.106-16.798a52.303 52.303 0 0 0-11.328 3.048c-8.693 3.058-15.553-5.596-24.246-2.528-4.36 1.538-20.638 3.204-24.166 7.683a4.018 4.018 0 0 0-1.666 2.254c-.922 4.351 7.046 13.063 12.955 20.021a31.89 31.89 0 0 0-7.271 20.247v1a32.085 32.085 0 0 0 9.75 22.961c-.5 4.371-1.244 9.29-2.312 14.328-2.979 11.1-7.04 16.65-12.183 16.65-3.587 0-33.878 12.737-39.015 15.19-10.075 4.812-22.309 13.12-26.026 43.01-.493 3.959-.017 13.58-.51 16.77-3.385 21.9-5.573 24.07-5.573 36.9 0 16.874-1.093 23.734-2.874 36.822-.856 6.285-2.163 19.307-2.352 27.255-.546 22.917 1.323 51.266-2.068 54.98-7.233 7.958-4.136 39.769 0 52.695 4.135 12.926 29.958 91.473 29.958 91.473h.98l.314 1.96 1.039 6.507a9.682 9.682 0 0 1-.98-.607 1.676 1.676 0 0 0-2.48.666l-5.047 11.27s-20.658-8.928-21.716 11.956v2.391c-.05 11.104 6.066 15.24 11.309 16.729a43.228 43.228 0 0 1 13.465 6.252c4.969 3.567 12.534 7.213 21.139 5.233 1.739-.388 3.52-.553 5.301-.49 3.715.108 9.996-.98 9.8-9.27.04-.653.04-1.308 0-1.96 0 0-4.36-16.788-4.547-24.5a5.733 5.733 0 0 1 .412-2.294c.735-1.41.98-4.076.911-6.928 0-2.491-.127-4.98-.382-7.458a1.156 1.156 0 0 0-2.107-.5l-.167.226c-.666-2.205-1.44-4.783-2.165-7.213l-.598-1.96h1.391s-8.28-48.814-5.184-52.734c2.029-2.597-1.244-33.673-3.753-54.88 25.166 1.597 65.278-2.852 92.718-4.224a35.123 35.123 0 0 0 14.984-4.175c-2.48 20.11-7.086 60.3-4.773 63.27 3.097 3.978-5.164 52.694-5.164 52.694h1.244l-.45 1.49h.156c-.764 2.577-1.597 5.35-2.313 7.712l-.166-.225a1.156 1.156 0 0 0-2.107.5 72.667 72.667 0 0 0-.382 7.457c0 2.852.186 5.518.911 6.929.293.728.433 1.508.412 2.293-.187 7.762-4.548 24.5-4.548 24.5-.04.653-.04 1.307 0 1.96-.205 8.33 6.076 9.388 9.8 9.27 1.781-.063 3.563.102 5.302.49 8.605 1.96 16.17-1.675 21.139-5.232a43.228 43.228 0 0 1 13.465-6.253c5.243-1.49 11.358-5.625 11.31-16.728v-2.392c-1.089-20.864-21.747-11.936-21.747-11.936l-5.076-11.31a1.676 1.676 0 0 0-2.48-.666 9.673 9.673 0 0 1-.98.608l1.362-8.497h.98s25.823-78.547 29.959-91.473c4.136-12.926 7.232-44.747 0-52.694-3.42-3.764-12.368-9.957-20.864-15.455a193.717 193.717 0 0 1 20.864 14.465l13.171-31.145zm-44.61 9.967l-3.282-1.96a15.602 15.602 0 0 0-2.48-3.224 26.137 26.137 0 0 1-2.528-2.842c-2.019-6.106-9.477-31.36.47-44.384 7.223-9.487 7.772-27.813 7.203-39.906 4.9 24.02 11.76 57.82 12.427 64.758.813 8.664-8.066 22.295-11.81 27.558z" fill="url(#c)" fill-rule="nonzero" mask="url(#b)"/><path d="M921.694 251.041s12.74.98 15.68 47.04a374.536 374.536 0 0 0 6.673 51.45 73.05 73.05 0 0 1-3.92 42.297l-12.553 30.713s-23.52-19.6-31.36-18.62c0 0 13.72-18.62 12.74-29.4-.98-10.78-16.66-88.2-16.66-88.2l29.4-35.28z" fill="#D6E6F9" fill-rule="nonzero" mask="url(#b)"/><path d="M768.814 251.041s12.74.98 15.68 47.04a374.536 374.536 0 0 0 6.673 51.45 73.05 73.05 0 0 1-3.92 42.297l-12.553 30.713s-23.52-19.6-31.36-18.62c0 0 13.72-18.62 12.74-29.4-.98-10.78-16.66-88.2-16.66-88.2l29.4-35.28z" fill="#D6E6F9" fill-rule="nonzero" mask="url(#b)" transform="matrix(-1 0 0 1 1532.075 0)"/><path d="M774.694 397.061s-30.38 18.62-37.24 26.46c-6.86 7.84-3.92 39.2 0 51.94 3.92 12.74 28.42 90.16 28.42 90.16h24.5s-7.84-48.02-4.9-51.94c2.94-3.92-5.88-73.5-5.88-73.5l-4.9-43.12zm115.64 0s30.38 18.62 37.24 26.46c6.86 7.84 3.92 39.2 0 51.94-3.92 12.74-28.42 90.16-28.42 90.16h-24.5s7.84-48.02 4.9-51.94c-2.94-3.92 5.88-73.5 5.88-73.5l4.9-43.12z" fill="#5F546F" fill-rule="nonzero" mask="url(#b)"/><path d="M774.694 397.061s-30.38 18.62-37.24 26.46c-6.86 7.84-3.92 39.2 0 51.94 3.92 12.74 28.42 90.16 28.42 90.16h24.5s-7.84-48.02-4.9-51.94c2.94-3.92-5.88-73.5-5.88-73.5l-4.9-43.12zm115.64 0s30.38 18.62 37.24 26.46c6.86 7.84 3.92 39.2 0 51.94-3.92 12.74-28.42 90.16-28.42 90.16h-24.5s7.84-48.02 4.9-51.94c-2.94-3.92 5.88-73.5 5.88-73.5l4.9-43.12z" fill="#000" fill-rule="nonzero" opacity=".1" mask="url(#b)"/><path d="M826.634 149.121s0 38.22-13.72 57.82 62.72 2.94 62.72 2.94a20.355 20.355 0 0 1-7.35-10.29c-4.038-14.377-5.567-39.7.49-50.47 8.82-15.68-42.14 0-42.14 0z" fill="#D6A4A6" fill-rule="nonzero" mask="url(#b)"/><circle fill="#000" fill-rule="nonzero" opacity=".1" mask="url(#b)" cx="848.703" cy="142.751" r="32.34"/><circle fill="#EFB7B9" fill-rule="nonzero" mask="url(#b)" cx="848.703" cy="141.771" r="32.34"/><path d="M871.772 475.304c-35.054 1.549-93.364 8.075-102.204-1.607-14.259-15.611-9.202-29.665-1.842-38.22 2.881-3.361 5.468-8.987 7.565-14.602a168.956 168.956 0 0 0 1.96-5.596c2.264-6.987 9.8-11.809 18.326-11.809h70.786c8.575 0 16.12 4.9 18.345 11.888a31.448 31.448 0 0 0 4.508 9.163 22.187 22.187 0 0 0 3.617 3.92c3.567 3.028 5.88 9.555 7.379 16.738 3.165 15.21-10.241 29.322-28.44 30.125z" fill="#5F546F" fill-rule="nonzero" mask="url(#b)"/><path d="M871.772 475.304c-35.054 1.549-93.364 8.075-102.204-1.607-14.259-15.611-9.202-29.665-1.842-38.22 2.881-3.361 5.468-8.987 7.565-14.602a168.956 168.956 0 0 0 1.96-5.596c2.264-6.987 9.8-11.809 18.326-11.809h70.786c8.575 0 16.12 4.9 18.345 11.888a31.448 31.448 0 0 0 4.508 9.163 22.187 22.187 0 0 0 3.617 3.92c3.567 3.028 5.88 9.555 7.379 16.738 3.165 15.21-10.241 29.322-28.44 30.125z" fill="#000" fill-rule="nonzero" opacity=".1" mask="url(#b)"/><path d="M890.334 398.041c-27.44 45.08-119.56-5.88-119.56-5.88s-2.186-1.196-3.695-5.096c.755-2.381 1.45-4.763 2.078-7.027a20.227 20.227 0 0 1 19.54-14.827h75.46a20.198 20.198 0 0 1 19.542 14.925 42.728 42.728 0 0 0 4.802 11.506c.97 3.949 1.833 6.399 1.833 6.399z" fill="#000" fill-rule="nonzero" opacity=".1" mask="url(#b)"/><path d="M817.756 193.623h-5.88s-6.333 3.167-18.562 7.973c-8.728 3.43-18.13 9.45-27.114 14.89-18.133 16.61-13.72 41.836-12.74 66.336.98 24.5 26.134 43.679 16.334 72.099s.98 34.3.98 34.3 92.12 50.96 119.56 5.88c0 0-10.78-30.38 0-45.08s5.88-50.96 5.88-50.96l35.28-35.28s.98-22.54-13.72-34.3c-14.7-11.76-49-30.38-49-30.38l-7.408-.441-43.61-5.037z" fill="#D6E6F9" fill-rule="nonzero" mask="url(#b)"/><path d="M829.652 151.669c-.745 9.222-.45 19.747 6.37 26.01 3.352 3.076 7.84 4.615 12.24 5.683a78.204 78.204 0 0 0 14.122 2.088c4.351.235 8.987 0 12.642-2.323 7.487-4.831 7.31-15.572 10.31-23.97 2.116-5.94 6.095-11.006 8.937-16.66 5.175-10.232 6.39-22.805 1.568-33.213-4.821-10.408-16.219-17.875-27.606-16.513a48.147 48.147 0 0 0-10.78 3.009c-8.252 3.018-14.75-5.518-23.001-2.5-4.508 1.647-22.422 3.46-23.52 8.82-1.303 6.37 16.033 22.256 17.905 27.833 2.46 7.183.813 14.386.813 21.736z" fill="#000" fill-rule="nonzero" opacity=".1" mask="url(#b)"/><path d="M830.632 150.689c-.745 9.222-.45 19.747 6.37 26.01 3.352 3.076 7.84 4.615 12.24 5.683a78.204 78.204 0 0 0 14.122 2.088c4.351.235 8.987 0 12.642-2.323 7.487-4.831 7.31-15.572 10.31-23.97 2.116-5.94 6.095-11.006 8.937-16.66 5.175-10.232 6.39-22.805 1.568-33.213-4.821-10.408-16.219-17.875-27.606-16.513a48.147 48.147 0 0 0-10.78 3.009c-8.252 3.018-14.75-5.518-23.001-2.5-4.508 1.647-22.422 3.46-23.52 8.82-1.303 6.37 16.033 22.256 17.905 27.833 2.46 7.183.813 14.386.813 21.736z" fill="#454B69" fill-rule="nonzero" mask="url(#b)"/><path d="M811.876 193.623l-3.144 1.554c2.865.8 7.488 3.74 26.675 5.662 12.138 1.215 34.374 2.123 37.632.673l-4.265-2.411-50.588-5.478h-6.31zm-39.632 138.66s27.44 1.568 36.26 13.328c8.82 11.76 11.76 15.68 22.54 15.68s45.08 1.96 49.98 3.92" fill="#000" fill-rule="nonzero" opacity=".1" mask="url(#b)"/><path fill="#CB919B" fill-rule="nonzero" mask="url(#b)" d="M932.728 398.688H945.6049999999999V493.493H932.728z"/><path fill="#CB919B" fill-rule="nonzero" mask="url(#b)" d="M911.658 492.317H939.745V495.825H911.658z"/><path fill="#CB919B" fill-rule="nonzero" mask="url(#b)" d="M731.407 398.688H744.284V493.493H731.407z"/><path fill="#CB919B" fill-rule="nonzero" mask="url(#b)" d="M733.749 492.317H761.836V495.825H733.749z"/><path fill="#C0BCCF" fill-rule="nonzero" mask="url(#b)" d="M826.212 498.177H853.133V612.886H826.212z"/><path d="M840.265 457.047c72.52 2.528 74.912-25.255 74.912-25.255l-4.685-77.038c-1.166-119.981-70.227-102.302-70.227-102.302s-69.06-17.64-70.226 102.302l-4.685 77.038s2.342 27.783 74.911 25.255z" fill="#CB919B" fill-rule="nonzero" mask="url(#b)"/><path d="M840.265 457.047c72.52 2.528 74.912-25.255 74.912-25.255l-4.685-77.038c-1.166-119.981-70.227-102.302-70.227-102.302s-69.06-17.64-70.226 102.302l-4.685 77.038s2.342 27.783 74.911 25.255z" fill="#FFF" fill-rule="nonzero" opacity=".1" mask="url(#b)"/><path d="M838.305 452.235c69.169 2.41 71.393-24.079 71.393-24.079l-4.459-73.431c-1.117-114.356-66.934-97.5-66.934-97.5s-65.816-16.856-66.934 97.5l-4.459 73.431s2.225 26.49 71.393 24.079z" fill="#CB919B" fill-rule="nonzero" mask="url(#b)"/><rect fill="#C0BCCF" fill-rule="nonzero" mask="url(#b)" x="823.88" y="420.924" width="29.263" height="50.333" rx="12.25"/><path d="M734.788 384.635h4.949c7.036 0 12.74 5.703 12.74 12.74v5.987h-30.429v-5.987c0-7.037 5.704-12.74 12.74-12.74zm201.292 0h4.949c7.036 0 12.74 5.703 12.74 12.74v5.987H923.34v-5.987c0-7.037 5.704-12.74 12.74-12.74z" fill="#CB919B" fill-rule="nonzero" mask="url(#b)"/><path fill="#000" fill-rule="nonzero" opacity=".1" mask="url(#b)" d="M826.212 498.177H853.133V502.86100000000005H826.212z"/><path d="M840.265 500.52h78.4l5.88-11.702c3.509-19.894-9.359-21.07-9.359-21.07H765.354s-12.877 1.167-9.359 21.07l5.88 11.702h78.39z" fill="#CB919B" fill-rule="nonzero" mask="url(#b)"/><path d="M840.265 500.52h78.4l5.88-11.702c3.509-19.894-9.359-21.07-9.359-21.07H765.354s-12.877 1.167-9.359 21.07l5.88 11.702h78.39z" fill="#FFF" fill-rule="nonzero" opacity=".1" mask="url(#b)"/><path d="M840.265 500.52h78.4l5.88-10.036c3.509-17.052-9.359-18.061-9.359-18.061H765.354s-12.877.98-9.359 18.061l5.88 10.036h78.39z" fill="#CB919B" fill-rule="nonzero" mask="url(#b)"/></g></svg>