<svg clip-rule="evenodd" fill-rule="evenodd" stroke-linejoin="round" stroke-miterlimit="2" viewBox="0 0 1600 1446" xmlns="http://www.w3.org/2000/svg"><g transform="translate(400.5)"><g fill="#fff"><path d="m597.734 582.635h113.26v4.69h-113.26z"/><path d="m695.314 536.025v-24.23h-81.92v24.23zm-25.9-14.24c.153-4.399 3.813-7.933 8.215-7.933 4.401 0 8.061 3.534 8.215 7.933v8.75c0 1.646-1.355 3-3 3h-10.43c-1.646 0-3-1.354-3-3zm-30.1 8.75c0 1.646-1.355 3-3 3h-10.44c-1.646 0-3-1.354-3-3v-8.75c.153-4.399 3.813-7.933 8.215-7.933 4.401 0 8.061 3.534 8.215 7.933zm6.84 0v-8.75c.153-4.399 3.813-7.933 8.215-7.933 4.401 0 8.061 3.534 8.215 7.933v8.75c0 1.646-1.355 3-3 3h-10.44c-1.646 0-3-1.354-3-3z" fill-rule="nonzero"/><path d="m300.554 542.025h17.84v34.54h-17.84z"/><path d="m750.594 379.635h-537.36v235.88h537.36zm-378.49 210.65c0 1.646-1.355 3-3 3h-119.26c-1.646 0-3-1.354-3-3v-10.65c0-1.646 1.354-3 3-3h12.67v-67.84c0-1.646 1.354-3 3-3h27c-6.411-5.147-10.148-12.938-10.151-21.16.003-8.222 3.74-16.013 10.151-21.16h-27c-1.642-.01-2.989-1.358-2.997-3 0-.675.228-1.33.647-1.86l44-55.65c.569-.72 1.438-1.14 2.355-1.14s1.786.42 2.355 1.14l44 55.65c.418.53.646 1.185.646 1.86-.008 1.641-1.355 2.99-2.996 3h-27c6.417 5.143 10.16 12.936 10.162 21.16-.002 8.224-3.745 16.017-10.162 21.16h27c1.645 0 3 1.354 3 3v67.84h12.66c1.645 0 3 1.354 3 3zm172.44 0c0 1.646-1.355 3-3 3h-119.23c-1.646 0-3-1.354-3-3v-10.65c0-1.646 1.354-3 3-3h12.66v-67.84c0-1.646 1.354-3 3-3h27c-6.411-5.147-10.148-12.938-10.151-21.16.003-8.222 3.74-16.013 10.151-21.16h-27c-1.646 0-3-1.354-3-3v-10.86c-.008-.198.009-.396.05-.59v-.1c.029-.136.069-.27.12-.4 0-.06 0-.11.07-.17.05-.112.11-.219.18-.32l.08-.14c.098-.134.205-.261.32-.38l43.94-44.76c1.192-1.134 3.088-1.134 4.28 0l44 44.76c.114.117.218.244.31.38l.09.14c.062.103.119.21.17.32l.08.17c.05.13.09.264.12.4v.1c.014.18.014.36 0 .54v10.91c0 1.646-1.355 3-3 3h-27c6.417 5.143 10.16 12.936 10.162 21.16-.002 8.224-3.745 16.017-10.162 21.16h27c1.645 0 3 1.354 3 3v67.84h12.66c1.645 0 3 1.354 3 3zm172.44 0c0 1.646-1.355 3-3 3h-119.25c-1.646 0-3-1.354-3-3v-10.65c0-1.646 1.354-3 3-3h12.66v-67.84c0-1.646 1.354-3 3-3h27c-6.418-5.143-10.161-12.936-10.163-21.16.002-8.224 3.745-16.017 10.163-21.16h-11.52c-1.646 0-3-1.354-3-3v-7.86h-12.48c-1.646 0-3-1.354-3-3v-10.94c-.01-.15-.01-.3 0-.45.003-.06.003-.12 0-.18.03-.118.067-.235.11-.35.017-.059.04-.116.07-.17.057-.136.128-.267.21-.39v-.07c.098-.145.209-.282.33-.41l.13-.11c.058-.062.122-.119.19-.17l44-33.93c1.078-.83 2.592-.83 3.67 0l44 33.93c.067.051.131.108.19.17l.13.11c.12.128.231.265.33.41-.003.02-.003.04 0 .06.079.128.15.262.21.4.029.054.052.111.07.17.043.113.077.231.1.35.005.06.005.12 0 .18.014.15.014.3 0 .45-.015.15 0 .05 0 .07v10.82c0 1.646-1.355 3-3 3h-12.29v7.86c0 1.646-1.355 3-3 3h-11.53c6.417 5.143 10.16 12.936 10.162 21.16-.002 8.224-3.745 16.017-10.162 21.16h27c1.645 0 3 1.354 3 3v67.84h12.66c1.645 0 3 1.354 3 3z" fill-rule="nonzero"/><path d="m522.884 576.575v-34.55h-29c1.94 2.569 2.993 5.701 3 8.92v25.63zm116.55 0v-25.63c.007-3.219 1.06-6.351 3-8.92h-29v34.55zm55.88 0v-34.55h-29c1.94 2.569 2.993 5.701 3 8.92v25.63zm-49.88-25.63v25.63h17.88v-25.63c0-4.893-4.027-8.92-8.92-8.92-4.894 0-8.92 4.027-8.92 8.92zm-350.88-11.92c0-1.646 1.354-3 3-3h23.84c1.645 0 3 1.354 3 3v37.55h26.05v-64.78h-81.93v64.78h26zm400.77-92.41v-4.87h-81.93v4.87zm-172.44 89.41v-24.23h-81.93v24.23zm-25.91-16.92c0-1.646 1.354-3 3-3h10.43c1.645 0 3 1.354 3 3v10.43c0 1.646-1.355 3-3 3h-10.43c-1.646 0-3-1.354-3-3zm-30.11 10.43c0 1.646-1.355 3-3 3h-10.43c-1.646 0-3-1.354-3-3v-10.43c0-1.646 1.354-3 3-3h10.43c1.645 0 3 1.354 3 3zm187.49-120.92-35.16 27.13h70.33z" fill-rule="nonzero"/><path d="m456.434 522.105h4.43v4.43h-4.43z"/><path d="m252.844 582.635h113.26v4.69h-113.26z"/><path d="m309.474 409.665-37.77 47.81h75.54z" fill-rule="nonzero"/><path d="m502.974 522.105h4.43v4.43h-4.43z"/><path d="m628.874 452.615h50.97v4.87h-50.97z"/><circle cx="309.474" cy="484.635" r="21.16"/><path d="m675.514 484.635c0-11.608-9.552-21.16-21.16-21.16-11.609 0-21.16 9.552-21.16 21.16 0 11.593 9.527 21.138 21.12 21.16 11.616.005 21.183-9.543 21.2-21.16z" fill-rule="nonzero"/><path d="m440.954 452.615h81.93v4.87h-81.93z"/><path d="m679.844 521.785c-.083-1.157-1.055-2.066-2.215-2.071-1.16.004-2.133.914-2.215 2.071v5.75h4.43zm-197.93-112.68-36.81 37.51h73.63z" fill-rule="nonzero"/><path d="m170.414 1328.68h622v-1216.82h-622zm48.22-78.15h-6.42c-1.646 0-3-1.35-3-3s1.354-3 3-3h6.42c1.645 0 3 1.35 3 3s-1.355 3-3 3zm0-66.59h-6.42c-1.646 0-3-1.35-3-3s1.354-3 3-3h6.42c1.645 0 3 1.35 3 3s-1.355 3-3 3zm202.34 100.34h-138.44c-1.646 0-3-1.35-3-3s1.354-3 3-3h138.44c1.645 0 3 1.35 3 3s-1.355 3-3 3zm205.09-33.7h-343.53c-1.646 0-3-1.35-3-3s1.354-3 3-3h343.53c1.645 0 3 1.35 3 3s-1.355 3-3 3zm-380.16-254.71c.761.566 1.211 1.461 1.212 2.41-.008 1.644-1.358 2.99-3.002 3-.645 0-1.272-.21-1.79-.59l-31.9-23.73c-.759-.566-1.206-1.459-1.207-2.405 0-.946.448-1.839 1.207-2.405l31.9-23.73c.518-.384 1.145-.592 1.79-.592 1.644.008 2.994 1.358 3.002 3.002 0 .949-.451 1.844-1.212 2.41l-28.66 21.32zm-34.38 51h307.63c1.645 0 3 1.35 3 3s-1.355 3-3 3h-307.63c-1.646 0-3-1.35-3-3s1.354-3 3-3zm57.55-50 27.57-51.36c.523-.973 1.541-1.582 2.645-1.582 1.644.008 2.994 1.358 3.002 3.002 0 .496-.123.983-.357 1.42l-27.57 51.36c-.523.97-1.541 1.58-2.645 1.58-1.644-.01-2.995-1.356-3.003-3 0-.496.123-.983.358-1.42zm54.76-43.59c-.762-.566-1.212-1.461-1.213-2.41.008-1.644 1.359-2.994 3.003-3.002.644 0 1.272.208 1.79.592l31.9 23.69c.758.566 1.205 1.459 1.206 2.405 0 .946-.448 1.839-1.206 2.405l-31.91 23.73c-.518.38-1.145.59-1.79.59-1.644-.01-2.995-1.356-3.003-3 0-.949.451-1.844 1.213-2.41l28.67-21.31zm226.12-153.45h.06c12.068 0 22 9.931 22 22s-9.932 22-22 22c-12.069 0-22-9.931-22-22-.001-12.046 9.893-21.967 21.94-22zm-21.94-49v-.01c0-12.041 9.908-21.95 21.95-21.95 12.041 0 21.95 9.909 21.95 21.95s-9.909 21.95-21.95 21.95h-.01c-12.028-.033-21.913-9.923-21.94-21.95zm62.53 230c1.645 0 3 1.354 3 3s-1.355 3-3 3h-189.57c-1.646 0-3-1.354-3-3s1.354-3 3-3zm-142.86 36c0 1.65-1.355 3-3 3h-43.71c-1.646 0-3-1.35-3-3s1.354-3 3-3h43.71c1.645 0 3 1.35 3 3zm71.47-63h-118.18c-1.646 0-3-1.354-3-3s1.354-3 3-3h118.18c1.645 0 3 1.354 3 3s-1.355 3-3 3zm-121.18-118.29c0-1.646 1.354-3 3-3h28.85c1.645 0 3 1.354 3 3s-1.355 3-3 3h-28.85c-1.646 0-3-1.354-3-3zm-112.57-74h69.62c1.645 0 3 1.354 3 3s-1.355 3-3 3h-69.62c-1.646 0-3-1.354-3-3s1.354-3 3-3zm-3-24.51c0-1.646 1.354-3 3-3h144.42c1.645 0 3 1.354 3 3s-1.355 3-3 3h-144.42c-1.632-.007-2.976-1.339-3-2.97zm3 68h144.42c1.645 0 3 1.354 3 3s-1.355 3-3 3h-144.42c-1.646 0-3-1.354-3-3s1.354-3 3-3zm0 27.52h69.62c1.645 0 3 1.354 3 3s-1.355 3-3 3h-69.62c-1.646 0-3-1.354-3-3s1.354-3 3-3zm-73.88 247.29h238.31c1.645 0 3 1.35 3 3s-1.355 3-3 3h-238.31c-1.646 0-3-1.35-3-3s1.354-3 3-3zm328.9 98.11c1.645 0 3 1.35 3 3s-1.355 3-3 3h-257.89c-1.646 0-3-1.35-3-3s1.354-3 3-3zm-257.89 33.7h167.3c1.645 0 3 1.35 3 3s-1.355 3-3 3h-167.3c-1.646 0-3-1.35-3-3s1.354-3 3-3zm465.38 38.89h-75.9c-1.646 0-3-1.35-3-3s1.354-3 3-3h75.9c1.645 0 3 1.35 3 3s-1.355 3-3 3zm0-32.89h-252.13c-1.646 0-3-1.35-3-3s1.354-3 3-3h252.13c1.645 0 3 1.35 3 3s-1.355 3-3 3zm0-164.81h-188.76c-1.646 0-3-1.35-3-3s1.354-3 3-3h188.76c1.645 0 3 1.35 3 3s-1.355 3-3 3zm0-33h-263.23c-1.646 0-3-1.35-3-3s1.354-3 3-3h263.23c1.645 0 3 1.35 3 3s-1.355 3-3 3zm0-33h-117.37c-1.646 0-3-1.354-3-3s1.354-3 3-3h117.37c1.645 0 3 1.354 3 3s-1.355 3-3 3zm0-148.42h-144c-1.646 0-3-1.354-3-3s1.354-3 3-3h144c1.645 0 3 1.354 3 3s-1.355 3-3 3zm-147-30.25c0-1.646 1.354-3 3-3h43.66c1.645 0 3 1.354 3 3s-1.355 3-3 3h-43.63c-1.646 0-3-1.354-3-3v-.01zm147 3h-54.35c-1.646 0-3-1.354-3-3s1.354-3 3-3h54.35c1.645 0 3 1.354 3 3s-1.355 3-3 3zm0-43.66h-144c-1.646 0-3-1.354-3-3s1.354-3 3-3h144c1.645 0 3 1.354 3 3s-1.355 3-3 3zm0-27.37h-144c-1.646 0-3-1.354-3-3s1.354-3 3-3h144c1.645 0 3 1.354 3 3s-1.355 3-3 3zm-224.42-490.3c1.645 0 3 1.354 3 3s-1.355 3-3 3h-208c-1.646 0-3-1.354-3-3s1.354-3 3-3zm-74.79-30.08c0-1.646 1.354-3 3-3h300.81c1.645 0 3 1.354 3 3s-1.355 3-3 3h-300.81c-1.646 0-3-1.354-3-3zm304.89 96.25c1.645 0 3 1.354 3 3s-1.355 3-3 3h-301.89c-1.646 0-3-1.354-3-3s1.354-3 3-3zm-541.38-165.42h253.1c1.645 0 3 1.354 3 3s-1.355 3-3 3h-253.1c-1.646 0-3-1.354-3-3s1.354-3 3-3zm0 33.08h541.1c1.645 0 3 1.354 3 3s-1.355 3-3 3h-541.1c-1.646 0-3-1.354-3-3s1.354-3 3-3zm0 33.09h193.53c1.645 0 3 1.354 3 3s-1.355 3-3 3h-193.53c-1.646 0-3-1.354-3-3s1.354-3 3-3zm0 33.08h63.23c1.645 0 3 1.354 3 3s-1.355 3-3 3h-63.23c-1.646 0-3-1.354-3-3s1.354-3 3-3zm0 33.09h311.28c1.645 0 3 1.354 3 3s-1.355 3-3 3h-311.28c-1.646 0-3-1.354-3-3s1.354-3 3-3zm0 33.08h193.53c1.645 0 3 1.354 3 3s-1.355 3-3 3h-193.53c-1.646 0-3-1.354-3-3s1.354-3 3-3zm-5 60.62c0-1.646 1.354-3 3-3h543.38c1.645 0 3 1.354 3 3v241.88c0 1.646-1.355 3-3 3h-543.36c-1.646 0-3-1.354-3-3zm-.44 302.88c0-1.646 1.354-3 3-3h147.76c1.645 0 3 1.354 3 3v19.55c0 1.646-1.355 3-3 3h-147.74c-1.646 0-3-1.354-3-3zm21.95 49.36c12.041 0 21.95 9.909 21.95 21.95s-9.909 21.95-21.95 21.95c-12.042 0-21.95-9.909-21.95-21.95.027-12.039 9.931-21.934 21.97-21.95zm0 71h.05c12.068 0 22 9.931 22 22s-9.932 22-22 22c-12.069 0-22-9.931-22-22l-.001-.04c0-12.058 9.913-21.984 21.971-22zm-21.95 96c0-1.646 1.354-3 3-3h145.25c1.645 0 3 1.354 3 3v19.55c0 1.646-1.355 3-3 3h-145.23c-1.646 0-3-1.354-3-3zm0 235.52c0-1.65 1.354-3 3-3h145.25c1.645 0 3 1.35 3 3v19.55c0 1.65-1.355 3-3 3h-145.23c-1.646 0-3-1.35-3-3zm576.29-1125.385h-65.75c-.103-.003-.207-.005-.31-.005-5.261 0-9.59 4.329-9.59 9.59s4.329 9.59 9.59 9.59c.103 0 .206-.002.31-.005h65.75c5.141-.166 9.28-4.441 9.28-9.585s-4.139-9.419-9.28-9.585z" fill-rule="nonzero"/><circle cx="481.914" cy="484.635" r="21.16"/><path d="m425.294 582.635h113.26v4.69h-113.26z"/><path d="m654.314 519.575c-1.21.005-2.205 1-2.21 2.21v5.75h4.43v-5.75c0-1.212-.998-2.21-2.21-2.21zm-187.32 57v-25.63c.002-3.22 1.056-6.353 3-8.92h-29v34.55zm164.1-57c-1.212.005-2.209.998-2.22 2.21v5.75h4.44v-5.75c0-1.212-.998-2.21-2.21-2.21zm-158.1 31.37v25.63h17.84v-25.63c0-4.893-4.027-8.92-8.92-8.92-4.894 0-8.92 4.027-8.92 8.92z" fill-rule="nonzero"/></g><path d="m795.384 80.705h-628c-1.646 0-3 1.354-3 3v1247.995c0 1.65 1.354 3 3 3h32.39v46.09c-15.965 1.52-28.299 15.09-28.299 31.13.003 9.75 4.556 18.95 12.299 24.87v-2c-.001-1.81.258-3.6.77-5.33 2.402-8.01 9.831-13.54 18.2-13.54 10.373 0 18.927 8.49 19 18.87v2c7.742-5.92 12.295-15.12 12.298-24.87 0-16.04-12.334-29.61-28.298-31.13v-46.11h589.64c1.645 0 3-1.35 3-3v-1247.995c-.018-1.635-1.365-2.973-3-2.98zm-592.58 1334.255c-6.43 0-11.72-5.29-11.72-11.71 0-6.43 5.29-11.72 11.72-11.72 6.429 0 11.72 5.29 11.72 11.72v.04c-.028 6.41-5.308 11.67-11.72 11.67zm589.58-86.28h-622v-1216.815h622z" fill="#1580f2" fill-rule="nonzero"/><path d="m210.234 621.515h543.36c1.645 0 3-1.354 3-3v-241.88c0-1.646-1.355-3-3-3h-543.36c-1.646 0-3 1.354-3 3v241.88c0 1.646 1.354 3 3 3zm3-241.88h537.36v235.88h-537.36zm72.17 431.39h144.42c1.645 0 3-1.354 3-3s-1.355-3-3-3h-144.42c-1.646 0-3 1.354-3 3s1.354 3 3 3zm115.57 27.52h28.85c1.645 0 3-1.354 3-3s-1.355-3-3-3h-28.85c-1.646 0-3 1.354-3 3s1.354 3 3 3zm-115.57 0h69.62c1.645 0 3-1.354 3-3s-1.355-3-3-3h-69.62c-1.646 0-3 1.354-3 3s1.354 3 3 3zm-56.66 5.19h.05c12.068 0 22-9.931 22-22s-9.932-22-22-22c-12.069 0-22 9.931-22 22-.001 12.05 9.9 21.973 21.95 22zm-6.89-23.19 2.87 3.44 11.11-11c.554-.509 1.279-.792 2.031-.792 1.645 0 3 1.354 3 3 0 .767-.294 1.505-.821 2.062l-13.43 13.25c-.561.556-1.32.869-2.11.87h-.14c-.838-.039-1.622-.427-2.16-1.07l-5-5.95c-.459-.541-.711-1.228-.711-1.938 0-1.646 1.354-3 3-3 .899 0 1.751.403 2.321 1.098z" fill="#1580f2" fill-rule="nonzero"/><path d="m217.244 824.385 5 5.95c.538.643 1.322 1.031 2.16 1.07h.14c.79-.001 1.549-.314 2.11-.87l13.39-13.25c.527-.557.821-1.295.821-2.062 0-1.646-1.355-3-3-3-.752 0-1.477.283-2.031.792l-11.11 11-2.87-3.44c-.57-.695-1.423-1.098-2.321-1.098-1.646 0-3 1.354-3 3 0 .71.252 1.397.711 1.938z" fill="#fff" fill-rule="nonzero"/><path d="m285.404 740.065h144.42c1.645 0 3-1.354 3-3s-1.355-3-3-3h-144.42c-1.646 0-3 1.354-3 3s1.354 3 3 3zm0 27.51h69.62c1.645 0 3-1.354 3-3s-1.355-3-3-3h-69.62c-1.646 0-3 1.354-3 3s1.354 3 3 3z" fill="#1580f2" fill-rule="nonzero"/><circle cx="228.744" cy="750.825" fill="#1580f2" r="21.95"/><path d="m747.914 805.165h-54.35c-1.646 0-3 1.354-3 3s1.354 3 3 3h54.35c1.645 0 3-1.354 3-3s-1.355-3-3-3zm-143.97 6h43.66c1.645 0 3-1.354 3-3s-1.355-3-3-3h-43.66c-1.646 0-3 1.354-3 3s1.354 3 3 3zm143.97 21.25h-144c-1.646 0-3 1.354-3 3s1.354 3 3 3h144c1.645 0 3-1.354 3-3s-1.355-3-3-3zm-197.96-59.65h.01c12.041 0 21.95-9.909 21.95-21.95s-9.909-21.95-21.95-21.95c-12.042 0-21.95 9.909-21.95 21.95v.01c.032 12.024 9.916 21.907 21.94 21.94zm-6.89-23.19 2.87 3.44 11.11-11c.562-.555 1.32-.867 2.11-.867 1.644.008 2.993 1.358 3.001 3.002 0 .802-.321 1.571-.891 2.135l-13.44 13.3c-.561.55-1.315.859-2.1.86h-.15c-.839-.041-1.624-.433-2.16-1.08l-5-6c-.44-.536-.68-1.209-.68-1.902 0-1.645 1.354-3 3-3 .882 0 1.72.389 2.29 1.062z" fill="#1580f2" fill-rule="nonzero"/><path d="m538.454 753.415 5 6c.536.647 1.321 1.039 2.16 1.08h.15c.785-.001 1.539-.31 2.1-.86l13.45-13.3c.57-.564.891-1.333.891-2.135-.008-1.644-1.357-2.994-3.001-3.002-.79 0-1.549.312-2.11.867l-11.11 11-2.87-3.44c-.57-.673-1.408-1.062-2.29-1.062-1.646 0-3 1.355-3 3 0 .694.24 1.366.68 1.902z" fill="#fff" fill-rule="nonzero"/><circle cx="549.954" cy="821.785" fill="#1580f2" r="21.95"/><path d="m747.914 734.135h-144c-1.646 0-3 1.354-3 3s1.354 3 3 3h144c1.645 0 3-1.354 3-3s-1.355-3-3-3zm0 27.37h-144c-1.646 0-3 1.354-3 3s1.354 3 3 3h144c1.645 0 3-1.354 3-3s-1.355-3-3-3z" fill="#1580f2" fill-rule="nonzero"/><path d="m360.524 679.515c0-1.656-1.345-3-3-3h-147.73c-1.656 0-3 1.344-3 3v19.55c0 1.656 1.344 3 3 3h147.73c1.655 0 3-1.344 3-3z" fill="#1580f2"/><path d="m212.214 156.595h253.1c1.645 0 3-1.354 3-3s-1.355-3-3-3h-253.1c-1.646 0-3 1.354-3 3s1.354 3 3 3zm0 33.08h541.1c1.645 0 3-1.354 3-3s-1.355-3-3-3h-541.1c-1.646 0-3 1.354-3 3s1.354 3 3 3zm540.3 33.09c1.645 0 3-1.354 3-3s-1.355-3-3-3h-300.81c-1.646 0-3 1.354-3 3s1.354 3 3 3zm-540.3 0h193.53c1.645 0 3-1.354 3-3s-1.355-3-3-3h-193.53c-1.646 0-3 1.354-3 3s1.354 3 3 3zm100.23 30.08c0 1.646 1.354 3 3 3h208c1.645 0 3-1.354 3-3s-1.355-3-3-3h-208c-1.646 0-3 1.354-3 3zm-100.23 3h63.23c1.645 0 3-1.354 3-3s-1.355-3-3-3h-63.23c-1.646 0-3 1.354-3 3s1.354 3 3 3zm0 33.09h311.28c1.645 0 3-1.354 3-3s-1.355-3-3-3h-311.28c-1.646 0-3 1.354-3 3s1.354 3 3 3zm236.49 30.08c0 1.646 1.354 3 3 3h301.89c1.645 0 3-1.354 3-3s-1.355-3-3-3h-301.89c-1.646 0-3 1.354-3 3zm-236.49 3h193.53c1.645 0 3-1.354 3-3s-1.355-3-3-3h-193.53c-1.646 0-3 1.354-3 3s1.354 3 3 3zm-165.617-241.31h-.077c-25.52 0-46.52 21-46.52 46.52.005 14.786 7.054 28.718 18.964 37.48v-2.28c.001-1.698.162-3.392.48-5.06 2.419-13.011 13.88-22.537 27.115-22.537 13.234 0 24.695 9.526 27.115 22.537.317 1.668.478 3.362.48 5.06v2.28c11.909-8.763 18.958-22.695 18.963-37.48 0-25.52-21-46.52-46.52-46.52zm-.043 49.61c-8.993-.005-16.39-7.407-16.39-16.4 0-8.997 7.403-16.4 16.4-16.4 8.996 0 16.4 7.403 16.4 16.4-.028 8.985-7.425 16.365-16.41 16.37z" fill="#1580f2" fill-rule="nonzero"/><circle cx="46.554" cy="113.915" fill="#fff" r="16.4"/><path d="m73.674 157.345c-2.42-13.011-13.881-22.537-27.115-22.537-13.235 0-24.696 9.526-27.115 22.537-.318 1.668-.479 3.362-.48 5.06v12c0 1.646 1.354 3 3 3l49.18-.41c1.645 0 3-1.354 3-3v-11.59c.001-1.698-.156-3.392-.47-5.06zm129.13 1234.195c-6.43 0-11.72 5.29-11.72 11.72s5.29 11.72 11.72 11.72c6.418 0 11.703-5.27 11.72-11.69v-.02c0-6.43-5.289-11.72-11.72-11.73zm18.22 37.91c-2.386-8.04-9.828-13.59-18.215-13.59-8.388 0-15.829 5.55-18.215 13.59-.512 1.73-.771 3.52-.77 5.32v7.79c0 1.65 1.354 3 3 3l32-.27c1.645 0 3-1.35 3-3v-7.52c-.014-1.8-.284-3.59-.8-5.32z" fill="#fff" fill-rule="nonzero"/><path d="m15.604 31.175h399.34c8.4-.213 15.195-7.182 15.195-15.585s-6.795-15.372-15.195-15.585h-399.34c-8.401.213-15.196 7.182-15.196 15.585s6.795 15.372 15.196 15.585z" fill="#f37a78" fill-rule="nonzero"/><path d="m783.064.005h-65.75c-.132-.003-.263-.005-.395-.005-8.553 0-15.59 7.038-15.59 15.59s7.037 15.59 15.59 15.59c.131 0 .263-.002.395-.005h65.75c8.4-.213 15.195-7.182 15.195-15.585s-6.795-15.372-15.195-15.585zm0 25.17h-65.75c-.103.003-.207.005-.31.005-5.261 0-9.59-4.329-9.59-9.59s4.329-9.59 9.59-9.59c.103 0 .206.002.31.005h65.75c5.141.166 9.28 4.441 9.28 9.585s-4.139 9.419-9.28 9.585zm-203.66 6h65.75c.131.003.263.005.394.005 8.553 0 15.59-7.038 15.59-15.59s-7.037-15.59-15.59-15.59c-.131 0-.263.002-.394.005h-65.75c-8.401.213-15.196 7.182-15.196 15.585s6.795 15.372 15.196 15.585z" fill="#9eb1db" fill-rule="nonzero"/><path d="m218.634 1177.94h-6.42c-1.646 0-3 1.35-3 3s1.354 3 3 3h6.42c1.645 0 3-1.35 3-3s-1.355-3-3-3zm60.9 3c0 1.65 1.354 3 3 3h257.89c1.645 0 3-1.35 3-3s-1.355-3-3-3h-257.89c-1.646 0-3 1.35-3 3zm468.38 30.7h-252.13c-1.646 0-3 1.35-3 3s1.354 3 3 3h252.13c1.645 0 3-1.35 3-3s-1.355-3-3-3zm-465.38 6h167.3c1.645 0 3-1.35 3-3s-1.355-3-3-3h-167.3c-1.646 0-3 1.35-3 3s1.354 3 3 3zm-63.9 26.9h-6.42c-1.646 0-3 1.35-3 3s1.354 3 3 3h6.42c1.645 0 3-1.35 3-3s-1.355-3-3-3zm529.28 0h-75.9c-1.646 0-3 1.35-3 3s1.354 3 3 3h75.9c1.645 0 3-1.35 3-3s-1.355-3-3-3zm-121.85 0h-343.53c-1.646 0-3 1.35-3 3s1.354 3 3 3h343.53c1.645 0 3-1.35 3-3s-1.355-3-3-3zm-205.09 33.75h-138.44c-1.646 0-3 1.35-3 3s1.354 3 3 3h138.44c1.645 0 3-1.35 3-3s-1.355-3-3-3z" fill="#1580f2" fill-rule="nonzero"/><path d="m354.844 1395.85h-67.01c-8.668.22-15.68 7.41-15.68 16.07 0 8.68 7.012 15.86 15.68 16.08h66.61c.133 0 .267.01.4.01 8.822 0 16.08-7.26 16.08-16.09 0-8.82-7.258-16.07-16.08-16.07z" fill="#9eb1db" fill-rule="nonzero"/><path d="m713.984 576.635h-12.67v-67.84c0-1.646-1.355-3-3-3h-27c6.417-5.143 10.16-12.936 10.162-21.16-.002-8.224-3.745-16.017-10.162-21.16h11.49c1.645 0 3-1.354 3-3v-7.86h12.51c1.645 0 3-1.354 3-3v-10.89c.014-.15.014-.3 0-.45.005-.06.005-.12 0-.18-.023-.119-.057-.236-.1-.35-.018-.059-.041-.116-.07-.17-.06-.138-.131-.272-.21-.4-.003-.02-.003-.04 0-.06-.099-.145-.21-.282-.33-.41l-.13-.11c-.059-.062-.122-.118-.19-.17l-44-33.93c-1.078-.83-2.592-.83-3.67 0l-44 33.93c-.068.051-.132.108-.19.17l-.13.11c-.121.127-.231.265-.33.41v.07c-.082.123-.153.254-.21.39-.03.054-.053.111-.07.17-.043.115-.08.232-.11.35.003.06.003.12 0 .18-.01.15-.01.3 0 .45.009.15 0 .05 0 .07v10.87c0 1.646 1.354 3 3 3h12.48v7.86c0 1.646 1.354 3 3 3h11.49c-6.418 5.143-10.161 12.936-10.163 21.16.002 8.224 3.745 16.017 10.163 21.16h-27c-1.646 0-3 1.354-3 3v67.84h-12.81c-1.646 0-3 1.354-3 3v10.6c0 1.646 1.354 3 3 3h119.25c1.645 0 3-1.354 3-3v-10.65c0-1.646-1.355-3-3-3zm-47.67-34.61h29v34.55h-26v-25.63c-.007-3.219-1.06-6.351-3-8.92zm-3 8.92v25.63h-17.88v-25.63c0-4.893 4.026-8.92 8.92-8.92 4.893 0 8.92 4.027 8.92 8.92zm-9-142.33 35.17 27.13h-70.29zm-41 38v-4.87h82v4.87zm15.48 10.86v-4.86h51v4.86zm4.33 27.16c0-11.608 9.552-21.16 21.16-21.16s21.16 9.552 21.16 21.16c0 11.597-9.534 21.144-21.13 21.16-11.583-.044-21.094-9.577-21.11-21.16zm-19.81 27.16h82v24.23h-81.92zm29 30.23c-1.94 2.569-2.993 5.701-3 8.92v25.63h-26v-34.55zm68.67 45.26h-113.25v-4.69h113.25z" fill="#1580f2" fill-rule="nonzero"/><path d="m662.574 530.535v-8.75c-.154-4.399-3.814-7.933-8.215-7.933-4.402 0-8.062 3.534-8.215 7.933v8.75c0 1.646 1.354 3 3 3h10.43c1.645 0 3-1.354 3-3zm-6-3h-4.43v-5.75c.082-1.157 1.055-2.067 2.215-2.071 1.16.005 2.132.914 2.215 2.071zm15.84 6h10.43c1.645 0 3-1.354 3-3v-8.75c-.154-4.399-3.814-7.933-8.215-7.933-4.402 0-8.062 3.534-8.215 7.933v8.75c0 1.646 1.354 3 3 3zm3-11.75c.082-1.157 1.055-2.067 2.215-2.071 1.16.005 2.132.914 2.215 2.071v5.75h-4.43zm-44.32-8.21c-4.506 0-8.215 3.704-8.22 8.21v8.75c0 1.646 1.354 3 3 3h10.44c1.645 0 3-1.354 3-3v-8.75c-.006-4.506-3.715-8.21-8.22-8.21zm2.21 14h-4.43v-5.79c.082-1.157 1.055-2.067 2.215-2.071 1.16.005 2.132.914 2.215 2.071zm-91.76 49.06h-12.66v-67.84c0-1.646-1.355-3-3-3h-27c6.417-5.143 10.16-12.936 10.162-21.16-.002-8.224-3.745-16.017-10.162-21.16h27c1.645 0 3-1.354 3-3v-10.91c.014-.18.014-.36 0-.54v-.1c-.03-.136-.07-.27-.12-.4l-.08-.17c-.051-.11-.108-.216-.17-.32l-.09-.14c-.092-.136-.196-.263-.31-.38l-44-44.76c-1.192-1.134-3.088-1.134-4.28 0l-44 44.73c-.115.119-.222.246-.32.38l-.08.14c-.07.101-.13.208-.18.32 0 .06 0 .11-.07.17-.051.13-.091.264-.12.4v.1c-.041.194-.058.392-.05.59v10.86c0 1.646 1.354 3 3 3h27c-6.411 5.147-10.148 12.938-10.151 21.16.003 8.222 3.74 16.013 10.151 21.16h-27c-1.646 0-3 1.354-3 3v67.84h-12.7c-1.646 0-3 1.354-3 3v10.68c0 1.646 1.354 3 3 3h119.23c1.645 0 3-1.354 3-3v-10.65c0-1.646-1.355-3-3-3zm-47.69-34.61h29v34.55h-26.02v-25.63c-.001-3.217-1.047-6.348-2.98-8.92zm-3 8.92v25.63h-17.86v-25.63c0-4.893 4.026-8.92 8.92-8.92 4.893 0 8.92 4.027 8.92 8.92zm-8.94-141.84 36.82 37.51h-73.63zm-41 48.37v-4.86h81.93v4.86zm19.81 27.16c0-11.608 9.551-21.16 21.16-21.16 11.608 0 21.16 9.552 21.16 21.16s-9.552 21.16-21.16 21.16h-.01c-11.583-.044-21.094-9.577-21.11-21.16zm-19.81 27.16h81.93v24.23h-81.89zm29 30.23c-1.944 2.567-2.998 5.7-3 8.92v25.63h-26v-34.55zm68.63 45.26h-113.23v-4.69h113.23z" fill="#1580f2" fill-rule="nonzero"/><path d="m463.864 516.105h-10.43c-1.646 0-3 1.354-3 3v10.43c0 1.646 1.354 3 3 3h10.43c1.645 0 3-1.354 3-3v-10.43c0-1.646-1.355-3-3-3zm-3 10.43h-4.43v-4.43h4.43zm39.11 6h10.43c1.645 0 3-1.354 3-3v-10.43c0-1.646-1.355-3-3-3h-10.43c-1.646 0-3 1.354-3 3v10.43c0 1.646 1.354 3 3 3zm3-10.43h4.43v4.43h-4.43zm-133.87 54.53h-12.66v-67.84c0-1.646-1.355-3-3-3h-27c6.417-5.143 10.16-12.936 10.162-21.16-.002-8.224-3.745-16.017-10.162-21.16h27c1.641-.01 2.988-1.359 2.996-3 0-.675-.228-1.33-.646-1.86l-44-55.65c-.569-.72-1.438-1.14-2.355-1.14s-1.786.42-2.355 1.14l-44 55.65c-.419.529-.647 1.185-.647 1.86.008 1.642 1.355 2.99 2.997 3h27c-6.411 5.147-10.148 12.938-10.151 21.16.003 8.222 3.74 16.013 10.151 21.16h-27c-1.646 0-3 1.354-3 3v67.84h-12.59c-1.646 0-3 1.354-3 3v10.65c0 1.646 1.354 3 3 3h119.26c1.645 0 3-1.354 3-3v-10.65c0-1.646-1.355-3-3-3zm-68.55-.06v-34.55h17.84v34.55zm-28.85-119.1 37.77-47.81 37.77 47.81zm16.61 27.16c0-11.608 9.551-21.16 21.16-21.16 11.608 0 21.16 9.552 21.16 21.16s-9.552 21.16-21.16 21.16h-.01c-11.599-.022-21.134-9.562-21.15-21.16zm-19.8 27.16h81.93v64.78h-26.05v-37.55c0-1.646-1.355-3-3-3h-23.84c-1.646 0-3 1.354-3 3v37.55h-26zm97.59 75.49h-113.26v-4.69h113.26z" fill="#1580f2" fill-rule="nonzero"/><path d="m358.024 1131.39c0-1.66-1.345-3-3-3h-145.23c-1.656 0-3 1.34-3 3v19.55c0 1.66 1.344 3 3 3h145.23c1.655 0 3-1.34 3-3zm0-235.515c0-1.656-1.345-3-3-3h-145.23c-1.656 0-3 1.344-3 3v19.55c0 1.656 1.344 3 3 3h145.23c1.655 0 3-1.344 3-3z" fill="#1580f2"/><path d="m246.524 949.045c-.565-.763-1.46-1.214-2.409-1.214-.645 0-1.274.208-1.791.594l-31.9 23.73c-.759.566-1.206 1.459-1.207 2.405 0 .946.448 1.839 1.207 2.405l31.9 23.735c.518.38 1.145.59 1.79.59 1.644-.01 2.994-1.361 3.002-3.005 0-.949-.451-1.844-1.212-2.41l-28.66-21.31 28.66-21.28c.773-.565 1.231-1.467 1.231-2.424 0-.656-.215-1.294-.611-1.816zm76.7 51.035c.985 1.31 2.868 1.59 4.19.62l31.9-23.73c.758-.566 1.205-1.459 1.206-2.405 0-.946-.448-1.839-1.206-2.405l-31.91-23.73c-.518-.384-1.145-.592-1.79-.592-1.644.008-2.995 1.358-3.003 3.002 0 .949.451 1.844 1.213 2.41l28.67 21.32-28.67 21.31c-.755.566-1.2 1.456-1.2 2.4 0 .649.211 1.281.6 1.8zm-51.51 1.2c1.105 0 2.126-.61 2.65-1.58l27.57-51.36c.234-.437.357-.924.357-1.42-.008-1.644-1.358-2.994-3.002-3.002-1.104 0-2.122.609-2.645 1.582l-27.57 51.36c-.235.436-.358.924-.358 1.42.008 1.642 1.356 2.99 2.998 3zm247.44-53.445h-118.18c-1.646 0-3 1.354-3 3s1.354 3 3 3h118.18c1.645 0 3-1.354 3-3s-1.355-3-3-3zm228.76 33h-117.37c-1.646 0-3 1.354-3 3s1.354 3 3 3h117.37c1.645 0 3-1.354 3-3s-1.355-3-3-3zm-349.94 3c0 1.646 1.354 3 3 3h189.57c1.645 0 3-1.354 3-3s-1.355-3-3-3h-189.57c-1.646 0-3 1.354-3 3zm349.94 30.005h-263.23c-1.646 0-3 1.35-3 3s1.354 3 3 3h263.23c1.645 0 3-1.35 3-3s-1.355-3-3-3zm-346.94 0c-1.646 0-3 1.35-3 3s1.354 3 3 3h43.71c1.645 0 3-1.35 3-3s-1.355-3-3-3zm346.94 33h-188.76c-1.646 0-3 1.35-3 3s1.354 3 3 3h188.76c1.645 0 3-1.35 3-3s-1.355-3-3-3zm-536.39 6h307.63c1.645 0 3-1.35 3-3s-1.355-3-3-3h-307.63c-1.646 0-3 1.35-3 3s1.354 3 3 3zm0 33h238.31c1.645 0 3-1.35 3-3s-1.355-3-3-3h-238.31c-1.646 0-3 1.35-3 3s1.354 3 3 3z" fill="#1580f2" fill-rule="nonzero"/></g></svg>