<svg clip-rule="evenodd" fill-rule="evenodd" stroke-linejoin="round" stroke-miterlimit="2" viewBox="0 0 1785 1080" xmlns="http://www.w3.org/2000/svg"><path d="m748.752 765.5335h27.6v27.6h-27.6z" fill="#fff"/><path d="m256 333.46h140v-39.88h-140zm79.68-21.67h47.46c1.646 0 3 1.354 3 3s-1.354 3-3 3h-47.46c-1.646 0-3-1.354-3-3s1.354-3 3-3zm-24.86-9c6.583 0 12 5.417 12 12s-5.417 12-12 12-12-5.417-12-12c.005-6.58 5.4-12.002 11.98-12.04zm-46.09 3c0-1.646 1.354-3 3-3h18.07c1.646 0 3 1.354 3 3v18.08c0 1.646-1.354 3-3 3h-18.09c-1.646 0-3-1.354-3-3z" fill="#fff" fill-rule="nonzero" transform="translate(225.322 -13.7865)"/><path d="m538.33 635.9c0-7.346-6.044-13.39-13.39-13.39s-13.39 6.044-13.39 13.39 6.044 13.39 13.39 13.39c7.343-.005 13.385-6.047 13.39-13.39z" fill="#fff" fill-rule="nonzero" transform="translate(225.322 -13.7865)"/><path d="m569 221.02-13.28 21.25h26.57z" fill="#fff" fill-rule="nonzero" transform="translate(225.322 -13.7865)"/><path d="m368.17 480.32-13.29 21.25h26.57z" fill="#fff" fill-rule="nonzero" transform="translate(225.322 -13.7865)"/><circle cx="724.062" cy="168.9535" fill="#fff" r="13.39"/><path d="m295.51 242-.43.44c-.48.51-1 1-1.46 1.5-.2.21-.42.4-.63.6-.48.46-1 .92-1.45 1.36l-.72.62c-.48.41-1 .82-1.46 1.22-.26.22-.53.42-.79.63l-1.47 1.12-.87.61c-.49.34-1 .68-1.49 1-.3.21-.61.4-.92.6-.5.31-1 .62-1.51.92l-1 .56c-.51.29-1 .56-1.53.83l-1 .53c-.51.26-1 .5-1.55.74l-1.08.49c-.52.23-1.05.45-1.57.66l-1.13.44c-.53.2-1.06.39-1.6.57l-1.17.4-1.62.48c-.4.12-.8.24-1.2.34s-1.11.28-1.66.41l-1.22.28c-.56.12-1.14.22-1.71.32l-1.21.22-1.82.24c-.39.05-.77.11-1.16.15-.67.07-1.35.11-2 .16-.33 0-.66.06-1 .07-1.013.06-2.033.09-3.06.09-1 0-2 0-3-.08l-1-.08c-.67-.05-1.34-.09-2-.16l-1.15-.14c-.61-.08-1.21-.15-1.81-.24l-1.2-.22c-.57-.1-1.15-.2-1.72-.32-.4-.08-.79-.18-1.19-.27l-1.67-.4-1.18-.34c-.54-.16-1.09-.31-1.62-.48s-.77-.26-1.16-.39l-1.59-.56-1.12-.45-1.57-.64-1.08-.49-1.54-.73-1-.53c-.5-.26-1-.53-1.51-.81l-1-.57c-.5-.29-1-.59-1.48-.89l-.95-.61c-.48-.32-1-.64-1.44-1l-.9-.64c-.48-.35-.95-.7-1.41-1.06l-.85-.67c-.47-.37-.92-.75-1.38-1.14l-.79-.69c-.46-.4-.9-.81-1.34-1.22l-.62-.59 8.49 8.4c10.99 12.546 26.882 19.752 43.561 19.752 31.768 0 57.91-26.141 57.91-57.91 0-16.093-6.709-31.48-18.501-42.432l-8.35-8.29c20.082 22.112 19.929 56.319-.35 78.25z" fill="#2a1210" fill-rule="nonzero" transform="translate(225.322 -13.7865)"/><path d="m213.05 240.21c1.85-1.5 21.54-10.3 23.17-11.33 2.52-1.59 5.26-5.54 5.26-5.54l-.23-6.78c-.535-1.19-.915-2.443-1.13-3.73-.21-1.79-.68-4.68-.68-4.68-3.43-.17-1.95-3.53-3.52-6.33-1.4-2.51-1.66-6.07-.19-6.82.91-.47 2 .73 2 .73-.557-3.978-.891-7.984-1-12 0-5.14 4-9.58 6.28-11.76 1.85-1.74 4.28-1.71 5.25-2s1.9-1.67 5.42-1.68c3.425.011 6.769 1.057 9.59 3 2.5 1.72 7.07 6 8 9.19.84 3 1.1 7.61-.37 15.29.526-.002 1.049.079 1.55.24 1 .4 1.93 2.37 1.34 4.81s-1.36 2.95-2.1 6.48c-.42 2-2.77 1.14-2.77 1.14s-.53 3.86-.6 4.88c-.332 1.566-.885 3.078-1.64 4.49l-.08 5.69s2.45 6.29 8.64 8 14.53 4.88 20.22 10.55c9.901-10.703 15.406-24.759 15.406-39.34 0-31.779-26.15-57.93-57.93-57.93-31.779 0-57.93 26.151-57.93 57.93 0 14.736 5.623 28.931 15.714 39.67.709-.792 1.489-1.519 2.33-2.17z" fill="#453b69" fill-rule="nonzero" transform="translate(225.322 -13.7865)"/><path d="m214.6 246 .79.69c.46.39.91.77 1.38 1.14l.85.67c.46.36.93.71 1.41 1.06l.9.64c.47.33 1 .65 1.44 1l.95.61c.49.3 1 .6 1.48.89l1 .57c.5.28 1 .55 1.51.81l1 .53 1.54.73 1.08.49 1.57.64 1.12.45 1.59.56c.39.13.77.27 1.16.39s1.08.32 1.62.48l1.18.34 1.67.4c.4.09.79.19 1.19.27.57.12 1.15.22 1.72.32l1.2.22c.6.09 1.2.16 1.81.24l1.15.14c.67.07 1.34.11 2 .16l1 .08c1 .05 2 .08 3 .08s2.05 0 3.06-.09c.33 0 .66-.05 1-.07.68-.05 1.36-.09 2-.16.39 0 .77-.1 1.16-.15l1.82-.24 1.21-.22c.57-.1 1.15-.2 1.71-.32l1.22-.28c.55-.13 1.11-.26 1.66-.41s.8-.22 1.2-.34l1.62-.48 1.17-.4c.54-.18 1.07-.37 1.6-.57l1.13-.44c.52-.21 1.05-.43 1.57-.66l1.08-.49c.52-.24 1-.48 1.55-.74l1-.53c.51-.27 1-.54 1.53-.83l1-.56c.51-.3 1-.61 1.51-.92.31-.2.62-.39.92-.6.51-.33 1-.67 1.49-1l.87-.61 1.47-1.12c.26-.21.53-.41.79-.63.5-.4 1-.81 1.46-1.22l.72-.62c.49-.44 1-.9 1.45-1.36.21-.2.43-.39.63-.6.5-.49 1-1 1.46-1.5l.43-.44c-5.69-5.67-13.91-8.8-20.22-10.55s-8.64-8-8.64-8l.08-5.69c.755-1.412 1.308-2.924 1.64-4.49.07-1 .6-4.88.6-4.88s2.35.9 2.77-1.14c.74-3.53 1.51-4 2.1-6.48s-.31-4.41-1.34-4.81c-.501-.161-1.024-.242-1.55-.24 1.47-7.68 1.21-12.29.37-15.29-.91-3.2-5.48-7.47-8-9.19-2.821-1.943-6.165-2.989-9.59-3-3.52 0-4.45 1.4-5.42 1.68s-3.4.26-5.25 2c-2.31 2.18-6.28 6.62-6.28 11.76.109 4.016.443 8.022 1 12s-1.12-1.2-2-.73c-1.47.75-1.21 4.31.19 6.82 1.57 2.8.09 6.16 3.52 6.33 0 0 .47 2.89.68 4.68.215 1.287.595 2.54 1.13 3.73l.23 6.78s-2.74 3.95-5.26 5.54c-1.63 1-21.32 9.83-23.17 11.33-.821.635-1.584 1.341-2.28 2.11l.46.47c.43.44.86.88 1.29 1.3l.13.13.62.59c.49.46.93.87 1.39 1.24z" fill="#fff" fill-rule="nonzero" transform="translate(225.322 -13.7865)"/><path d="m340.54 206.12h111.75c1.646 0 3-1.354 3-3s-1.354-3-3-3h-111.75c-1.646 0-3 1.354-3 3s1.354 3 3 3z" fill="#1580f2" fill-rule="nonzero" transform="translate(225.322 -13.7865)"/><path d="m340.54 230.12h58.46c1.646 0 3-1.354 3-3s-1.354-3-3-3h-58.46c-1.646 0-3 1.354-3 3s1.354 3 3 3z" fill="#1580f2" fill-rule="nonzero" transform="translate(225.322 -13.7865)"/><path d="m340.54 182.12h58.46c1.646 0 3-1.354 3-3s-1.354-3-3-3h-58.46c-1.646 0-3 1.354-3 3s1.354 3 3 3z" fill="#1580f2" fill-rule="nonzero" transform="translate(225.322 -13.7865)"/><path d="m418 182.12h35.85c1.646 0 3-1.354 3-3s-1.354-3-3-3h-35.85c-1.646 0-3 1.354-3 3s1.354 3 3 3z" fill="#1580f2" fill-rule="nonzero" transform="translate(225.322 -13.7865)"/><path d="m532 279.42h30.65c1.646 0 3 1.354 3 3s-1.354 3-3 3h-30.65v9.08h14.39c1.646 0 3 1.354 3 3s-1.354 3-3 3h-14.39v14.7h44.52c1.646 0 3-1.354 3-3v-43.13c0-1.646-1.354-3-3-3h-44.52z" fill="#9eb1db" fill-rule="nonzero" transform="translate(225.322 -13.7865)"/><path d="m526 300.5h-43.39c-1.646 0-3-1.354-3-3s1.354-3 3-3h43.39v-9.08h-43.39c-1.646 0-3-1.354-3-3s1.354-3 3-3h43.39v-49.33h-87.39v120.29h87.39zm-43.39-58.77h32.52c1.646 0 3 1.354 3 3s-1.354 3-3 3h-32.52c-1.646 0-3-1.354-3-3s1.354-3 3-3zm0 15.09h32.52c1.646 0 3 1.354 3 3s-1.354 3-3 3h-32.52c-1.646 0-3-1.354-3-3s1.354-3 3-3zm-24.99 84.75h-.02c-7.642 0-13.93-6.288-13.93-13.93s6.288-13.93 13.93-13.93 13.93 6.288 13.93 13.93v.01c-.011 7.628-6.282 13.904-13.91 13.92zm-.01-37.69c-7.632-.006-13.91-6.288-13.91-13.92 0-7.636 6.284-13.92 13.92-13.92s13.92 6.284 13.92 13.92v.04c-.033 7.617-6.303 13.869-13.92 13.88zm.01-37.68h-.02c-7.642 0-13.93-6.288-13.93-13.93s6.288-13.93 13.93-13.93 13.93 6.288 13.93 13.93c-.011 7.63-6.28 13.908-13.91 13.93zm41.25 72h-16.26c-1.646 0-3-1.354-3-3s1.354-3 3-3h16.26c1.646 0 3 1.354 3 3s-1.354 3-3 3zm16.26-15.08h-32.52c-1.646 0-3-1.354-3-3s1.354-3 3-3h32.52c1.646 0 3 1.354 3 3s-1.354 3-3 3z" fill="#fff" fill-rule="nonzero" transform="translate(225.322 -13.7865)"/><path d="m432.61 227.09v126.29c0 1.646 1.354 3 3 3h93.39c1.646 0 3-1.354 3-3v-52.88h14.39c1.646 0 3-1.354 3-3s-1.354-3-3-3h-14.39v-9.08h30.65c1.646 0 3-1.354 3-3s-1.354-3-3-3h-30.65v-52.33c0-1.646-1.354-3-3-3h-93.39c-1.646 0-3 1.354-3 3zm6 3h87.39v49.33h-43.39c-1.646 0-3 1.354-3 3s1.354 3 3 3h43.39v9.08h-43.39c-1.646 0-3 1.354-3 3s1.354 3 3 3h43.39v49.88h-87.39z" fill="#1580f2" fill-rule="nonzero" transform="translate(225.322 -13.7865)"/><path d="m457.62 238.35c-.003 0-.007 0-.01 0-7.642 0-13.93 6.288-13.93 13.93s6.288 13.93 13.93 13.93 13.93-6.288 13.93-13.93c0-.003 0-.007 0-.01-.011-7.632-6.288-13.909-13.92-13.92zm7.66 11.93c-.078.108-.161.211-.25.31l-7.75 7.64c-.56.55-1.315.859-2.1.86h-.18c-.839-.041-1.623-.434-2.16-1.08l-2.82-3.38-1.18-1.42c-.452-.54-.699-1.222-.699-1.925 0-.89.395-1.735 1.079-2.305.539-.449 1.219-.695 1.92-.695.893 0 1.74.398 2.31 1.085l1.91 2.29 5.42-5.34c.567-.605 1.36-.949 2.189-.949 1.646 0 3 1.355 3 3 0 .715-.255 1.406-.719 1.949z" fill="#1580f2" fill-rule="nonzero" transform="translate(225.322 -13.7865)"/><path d="m461.93 245.63c-.42.144-.802.38-1.12.69l-5.42 5.34-1.91-2.29c-.57-.687-1.417-1.085-2.31-1.085-.701 0-1.381.246-1.92.695-.684.57-1.079 1.415-1.079 2.305 0 .703.247 1.385.699 1.925l1.18 1.42 2.82 3.38c.537.646 1.321 1.039 2.16 1.08h.15c.785-.001 1.54-.31 2.1-.86l7.75-7.64c.089-.099.172-.202.25-.31.392-.52.604-1.154.604-1.806 0-1.646-1.354-3-3-3-.324 0-.646.053-.954.156z" fill="#fff" fill-rule="nonzero" transform="translate(225.322 -13.7865)"/><path d="m482.61 247.73h32.52c1.646 0 3-1.354 3-3s-1.354-3-3-3h-32.52c-1.646 0-3 1.354-3 3s1.354 3 3 3z" fill="#1580f2" fill-rule="nonzero" transform="translate(225.322 -13.7865)"/><path d="m482.61 262.82h32.52c1.646 0 3-1.354 3-3s-1.354-3-3-3h-32.52c-1.646 0-3 1.354-3 3s1.354 3 3 3z" fill="#1580f2" fill-rule="nonzero" transform="translate(225.322 -13.7865)"/><path d="m457.62 276c-7.636 0-13.92 6.284-13.92 13.92s6.284 13.92 13.92 13.92c7.606 0 13.876-6.234 13.92-13.84 0-.02 0-.04 0-.06 0-7.64-6.28-13.929-13.92-13.94z" fill="#1580f2" fill-rule="nonzero" transform="translate(225.322 -13.7865)"/><path d="m457.62 313.72c-.003 0-.007 0-.01 0-7.642 0-13.93 6.288-13.93 13.93s6.288 13.93 13.93 13.93 13.93-6.288 13.93-13.93c-.011-7.634-6.286-13.914-13.92-13.93zm7.66 11.94c-.08.1-.16.21-.25.31l-7.75 7.63c-.559.554-1.313.867-2.1.87h-.18c-.837-.049-1.619-.439-2.16-1.08l-2.79-3.39-1.18-1.42c-.452-.54-.699-1.222-.699-1.925 0-.89.395-1.735 1.079-2.305.433-.354.956-.582 1.51-.66 1.017-.156 2.046.223 2.72 1l1.91 2.3 5.42-5.35c.319-.306.701-.539 1.12-.68.308-.103.63-.156.954-.156 1.646 0 3 1.354 3 3 0 .652-.212 1.286-.604 1.806z" fill="#1580f2" fill-rule="nonzero" transform="translate(225.322 -13.7865)"/><path d="m461.93 321c-.419.141-.801.374-1.12.68l-5.42 5.32-1.91-2.3c-.674-.777-1.703-1.156-2.72-1-.554.078-1.077.306-1.51.66-.684.57-1.079 1.415-1.079 2.305 0 .703.247 1.385.699 1.925l1.18 1.42 2.82 3.38c.541.641 1.323 1.031 2.16 1.08h.15c.787-.003 1.541-.316 2.1-.87l7.72-7.6c.09-.1.17-.21.25-.31.392-.52.604-1.154.604-1.806 0-1.646-1.354-3-3-3-.324 0-.646.053-.954.156z" fill="#fff" fill-rule="nonzero" transform="translate(225.322 -13.7865)"/><path d="m515.13 317.11h-32.52c-1.646 0-3 1.354-3 3s1.354 3 3 3h32.52c1.646 0 3-1.354 3-3s-1.354-3-3-3z" fill="#1580f2" fill-rule="nonzero" transform="translate(225.322 -13.7865)"/><path d="m498.87 332.19h-16.26c-1.646 0-3 1.354-3 3s1.354 3 3 3h16.26c1.646 0 3-1.354 3-3s-1.354-3-3-3z" fill="#1580f2" fill-rule="nonzero" transform="translate(225.322 -13.7865)"/><path d="m498.74 202.13c10.637 0 19.39-8.753 19.39-19.39s-8.753-19.39-19.39-19.39-19.39 8.753-19.39 19.39c.011 10.633 8.757 19.379 19.39 19.39zm0-32.78c7.346 0 13.39 6.044 13.39 13.39s-6.044 13.39-13.39 13.39-13.39-6.044-13.39-13.39c.005-7.343 6.047-13.385 13.39-13.39z" fill="#1580f2" fill-rule="nonzero" transform="translate(225.322 -13.7865)"/><path d="m402 336.46v-45.88c0-1.646-1.354-3-3-3h-146c-1.646 0-3 1.354-3 3v45.88c0 1.646 1.354 3 3 3h146c1.646 0 3-1.354 3-3zm-6-3h-140v-39.88h140z" fill="#1580f2" fill-rule="nonzero" transform="translate(225.322 -13.7865)"/><path d="m496.032 294.9635h12.08v12.08h-12.08z" fill="#fff"/><g transform="translate(225.322 -13.7865)"><path d="m267.71 326.83h18.07c1.646 0 3-1.354 3-3v-18.08c0-1.646-1.354-3-3-3h-18.07c-1.646 0-3 1.354-3 3v18.08c0 1.646 1.354 3 3 3zm3-18.08h12.07v12.08h-12.07z" fill="#1580f2" fill-rule="nonzero"/><path d="m310.8 320.83c3.292 0 6-2.708 6-6s-2.708-6-6-6-6 2.708-6 6 2.708 6 6 6z" fill="#fff" fill-rule="nonzero"/><path d="m310.8 326.83c6.583 0 12-5.417 12-12s-5.417-12-12-12-12 5.417-12 12c.027 6.573 5.427 11.973 12 12zm0-18.08c3.292 0 6 2.708 6 6s-2.708 6-6 6-6-2.708-6-6 2.708-6 6-6z" fill="#1580f2" fill-rule="nonzero"/><path d="m335.68 317.79h47.44c1.646 0 3-1.354 3-3s-1.354-3-3-3h-47.44c-1.646 0-3 1.354-3 3s1.354 3 3 3z" fill="#1580f2" fill-rule="nonzero"/><path d="m550.3 248.27h37.4c1.644-.002 2.996-1.356 2.996-3 0-.562-.158-1.113-.456-1.59l-18.69-29.91c-.547-.877-1.511-1.412-2.545-1.412s-1.998.535-2.545 1.412l-18.7 29.91c-.298.477-.456 1.028-.456 1.59 0 1.644 1.352 2.998 2.996 3zm18.7-27.27 13.29 21.25h-26.57z" fill="#1580f2" fill-rule="nonzero"/><path d="m428.85 501.47c0-1.646 1.354-3 3-3h114.07v-12.36c0-1.646-1.354-3-3-3h-132.6c-1.646 0-3 1.354-3 3v52.2c0 1.646 1.354 3 3 3h18.53z" fill="#9eb1db" fill-rule="nonzero"/><path d="m544.33 635.9c0-10.637-8.753-19.39-19.39-19.39s-19.39 8.753-19.39 19.39 8.753 19.39 19.39 19.39c10.633-.011 19.379-8.757 19.39-19.39zm-32.78 0c0-7.346 6.044-13.39 13.39-13.39s13.39 6.044 13.39 13.39-6.044 13.39-13.39 13.39c-7.343-.005-13.385-6.047-13.39-13.39z" fill="#1580f2" fill-rule="nonzero"/><path d="m295.61 531.83c-.63.69-1.28 1.36-1.95 2-.081.068-.158.142-.23.22-.61.59-1.23 1.17-1.86 1.73l-.4.35c-.58.51-1.18 1-1.78 1.51l-.53.41c-.57.45-1.15.9-1.74 1.33l-.64.45c-.57.4-1.14.8-1.72 1.18l-.73.47-1.7 1-.82.47c-.56.32-1.13.63-1.7.93l-.89.45-1.7.82-1 .43c-.56.25-1.12.48-1.69.71l-1 .4c-.56.22-1.13.42-1.7.61l-1.08.37c-.56.18-1.14.35-1.71.51l-1.12.32-1.74.42c-.38.09-.76.19-1.15.27l-1.78.34-1.16.2c-.62.1-1.24.18-1.86.25l-1.12.15c-.69.07-1.39.11-2.08.16-.32 0-.63.06-.95.07-1 .06-2 .09-3.07.09s-2 0-3-.08l-.84-.07c-.72 0-1.44-.09-2.16-.17l-.94-.12c-.67-.08-1.35-.16-2-.26l-.93-.17c-.67-.11-1.33-.23-2-.36l-.86-.2c-.667-.153-1.333-.313-2-.48l-.77-.22c-.667-.187-1.333-.387-2-.6l-.69-.23c-.7-.23-1.39-.47-2.08-.73l-.58-.23c-.71-.28-1.42-.56-2.13-.87l-.47-.21c-.73-.33-1.45-.66-2.17-1l-.37-.19c-.74-.38-1.48-.76-2.2-1.17l-.29-.16c-.74-.43-1.48-.86-2.21-1.32l-.2-.13c-.75-.48-1.49-1-2.21-1.48l-.13-.09c-.75-.53-1.48-1.07-2.2-1.63h-.07c-.74-.58-1.46-1.17-2.17-1.78-.72-.62-1.42-1.26-2.1-1.91l-.44-.42 8.49 8.4c10.995 12.745 27.017 20.084 43.849 20.084 31.769 0 57.91-26.142 57.91-57.91 0-16.253-6.842-31.778-18.839-42.744l-8.35-8.3c20.043 22.068 19.934 56.191-.25 78.13z" fill="#2a1210" fill-rule="nonzero"/><path d="m212.8 525.71c2.8-7.6 12.29-8.45 14.84-9.63s5.41-5.8 4.22-14.37c-2.35-24.38 4.79-35.07 9.11-39 2.265-2.132 5.432-3.032 8.48-2.41s11-6.28 20.65 5.57c8.77 10.8 7.08 24.56 6.72 28.08s-2.21 8.52-.42 13.73c.933 2.948 1.385 6.028 1.34 9.12s14.62 7.19 16.77 11.78c.467 1.064.835 2.169 1.1 3.3 9.844-10.692 15.313-24.706 15.313-39.239 0-31.779-26.15-57.93-57.93-57.93-31.779 0-57.93 26.151-57.93 57.93 0 14.883 5.736 29.208 16.007 39.979.394-2.345.973-4.656 1.73-6.91z" fill="#f37a78" fill-rule="nonzero"/><path d="m211.67 533.18c.32.34.64.68 1 1l.44.42c-.51-.46-.97-.94-1.44-1.42z" fill="#f37a78" fill-rule="nonzero"/><path d="m295.57 531.88c-.63.69-1.28 1.36-1.95 2 .67-.64 1.32-1.31 1.95-2z" fill="#f37a78" fill-rule="nonzero"/><path d="m250 550.48c1 0 2 .08 3 .08s2.06 0 3.07-.09c-1 .06-2 .09-3.07.09s-2-.03-3-.08z" fill="#f37a78" fill-rule="nonzero"/><path d="m213.1 534.61c.68.65 1.38 1.29 2.1 1.91.71.61 1.43 1.2 2.17 1.78h.07c.72.56 1.45 1.1 2.2 1.63l.13.09c.72.51 1.46 1 2.21 1.48l.2.13c.73.46 1.47.89 2.21 1.32l.29.16c.72.41 1.46.79 2.2 1.17l.37.19c.72.36 1.44.69 2.17 1l.47.21c.71.31 1.42.59 2.13.87l.58.23c.69.26 1.38.5 2.08.73l.69.23c.667.207 1.333.407 2 .6l.77.22c.667.173 1.333.333 2 .48l.86.2c.66.13 1.32.25 2 .36l.93.17c.66.1 1.34.18 2 .26l.94.12c.72.08 1.44.12 2.16.17l.84.07c1 0 2 .08 3 .08s2.06 0 3.07-.09c.32 0 .63-.05.95-.07.69 0 1.39-.09 2.08-.16l1.12-.15c.62-.07 1.24-.15 1.86-.25l1.16-.2 1.78-.34c.39-.08.77-.18 1.15-.27l1.74-.42 1.12-.32c.57-.16 1.15-.33 1.71-.51l1.08-.37c.57-.19 1.14-.39 1.7-.61l1-.4c.57-.23 1.13-.46 1.69-.71l1-.43 1.7-.82.89-.45c.57-.3 1.14-.61 1.7-.93l.82-.47 1.7-1 .73-.47c.58-.38 1.15-.78 1.72-1.18l.64-.45c.59-.43 1.17-.88 1.74-1.33l.53-.41c.6-.49 1.2-1 1.78-1.51l.4-.35c.63-.56 1.25-1.14 1.86-1.73.072-.078.149-.152.23-.22.67-.66 1.32-1.33 1.95-2-.265-1.131-.633-2.236-1.1-3.3-2.15-4.59-16.77-11.78-16.77-11.78.045-3.092-.407-6.172-1.34-9.12-1.79-5.21.05-10.21.42-13.73s2.05-17.28-6.72-28.08c-9.64-11.85-20.65-5.57-20.65-5.57-3.048-.622-6.215.278-8.48 2.41-4.32 4-11.46 14.67-9.11 39 1.19 8.57-1.66 13.19-4.22 14.37s-12 2-14.84 9.63c-.755 2.238-1.333 4.532-1.73 6.86.19.21.4.4.6.6.47.48.93 1 1.42 1.42z" fill="#fff" fill-rule="nonzero"/><path d="m434.85 574h29.09c.34-.004.678.05 1 .16h58.06c1.646 0 3 1.354 3 3s-1.354 3-3 3h-56v14.14h115.26v-89.8h-147.41zm103.94-53.36h31.78c1.646 0 3 1.354 3 3s-1.354 3-3 3h-31.78c-1.646 0-3-1.354-3-3s1.354-3 3-3zm-90.06 0h74.27c1.646 0 3 1.354 3 3s-1.354 3-3 3h-74.27c-1.646 0-3-1.354-3-3s1.354-3 3-3zm0 17.84h47.91c1.646 0 3 1.354 3 3s-1.354 3-3 3h-47.91c-1.646 0-3-1.354-3-3s1.354-3 3-3zm0 17.84h121.84c1.646 0 3 1.354 3 3s-1.354 3-3 3h-121.84c-1.646 0-3-1.354-3-3s1.354-3 3-3z" fill="#fff" fill-rule="nonzero"/><path d="m588.26 501.47c0-1.646-1.354-3-3-3h-153.41c-1.646 0-3 1.354-3 3v72.53h-34.59c-1.646 0-3 1.354-3 3v69.68c0 1.646 1.354 3 3 3h69.68c1.646 0 3-1.354 3-3v-46.41h118.32c1.646 0 3-1.354 3-3zm-127.32 142.18h-63.68v-63.65h63.68zm121.32-49.38h-115.32v-14.14h56c1.646 0 3-1.354 3-3s-1.354-3-3-3h-58.04c-.322-.11-.66-.164-1-.16h-29.05v-69.5h147.41z" fill="#1580f2" fill-rule="nonzero"/><path d="m538.79 526.61h31.78c1.646 0 3-1.354 3-3s-1.354-3-3-3h-31.78c-1.646 0-3 1.354-3 3s1.354 3 3 3z" fill="#1580f2" fill-rule="nonzero"/><path d="m448.73 562.29h121.84c1.646 0 3-1.354 3-3s-1.354-3-3-3h-121.84c-1.646 0-3 1.354-3 3s1.354 3 3 3z" fill="#1580f2" fill-rule="nonzero"/><path d="m448.73 526.61h74.27c1.646 0 3-1.354 3-3s-1.354-3-3-3h-74.27c-1.646 0-3 1.354-3 3s1.354 3 3 3z" fill="#1580f2" fill-rule="nonzero"/><path d="m448.73 544.45h47.91c1.646 0 3-1.354 3-3s-1.354-3-3-3h-47.91c-1.646 0-3 1.354-3 3s1.354 3 3 3z" fill="#1580f2" fill-rule="nonzero"/><path d="m397.26 643.65h63.68v-63.65h-63.68zm16.1-52.65h31.48c1.646 0 3 1.354 3 3s-1.354 3-3 3h-31.48c-1.646 0-3-1.354-3-3s1.354-3 3-3zm0 17.84h31.48c1.646 0 3 1.354 3 3s-1.354 3-3 3h-31.48c-1.646 0-3-1.354-3-3s1.354-3 3-3zm0 17.84h31.48c1.646 0 3 1.354 3 3s-1.354 3-3 3h-31.48c-1.646 0-3-1.354-3-3s1.354-3 3-3z" fill="#fff" fill-rule="nonzero"/><path d="m413.36 614.81h31.48c1.646 0 3-1.354 3-3s-1.354-3-3-3h-31.48c-1.646 0-3 1.354-3 3s1.354 3 3 3z" fill="#1580f2" fill-rule="nonzero"/><path d="m413.36 597h31.48c1.646 0 3-1.354 3-3s-1.354-3-3-3h-31.48c-1.646 0-3 1.354-3 3s1.354 3 3 3z" fill="#1580f2" fill-rule="nonzero"/><path d="m413.36 632.65h31.48c1.646 0 3-1.354 3-3s-1.354-3-3-3h-31.48c-1.646 0-3 1.354-3 3s1.354 3 3 3z" fill="#1580f2" fill-rule="nonzero"/><path d="m349.47 507.57h37.4c1.644-.002 2.996-1.356 2.996-3 0-.562-.158-1.113-.456-1.59l-18.7-29.91c-.548-.873-1.509-1.404-2.54-1.404s-1.992.531-2.54 1.404l-18.7 29.93c-.298.477-.456 1.028-.456 1.59 0 1.644 1.352 2.998 2.996 3zm18.7-27.25 13.28 21.25h-26.57z" fill="#1580f2" fill-rule="nonzero"/><path d="m585.26 638.9c1.646 0 3-1.354 3-3s-1.354-3-3-3h-27.17c-1.646 0-3 1.354-3 3s1.354 3 3 3z" fill="#1580f2" fill-rule="nonzero"/><path d="m351.24 604.27c0-1.646-1.354-3-3-3h-94.9c-1.646 0-3 1.354-3 3s1.354 3 3 3h94.9c1.646 0 3-1.354 3-3z" fill="#1580f2" fill-rule="nonzero"/><path d="m282 580.51c0 1.646 1.354 3 3 3h63.22c1.646 0 3-1.354 3-3s-1.354-3-3-3h-63.22c-1.646 0-3 1.354-3 3z" fill="#1580f2" fill-rule="nonzero"/><path d="m253.34 625c-1.646 0-3 1.354-3 3s1.354 3 3 3h55.3c1.646 0 3-1.354 3-3s-1.354-3-3-3z" fill="#1580f2" fill-rule="nonzero"/><path d="m304.21 767.9-8.35-8.29c19.875 21.888 19.962 55.659.2 77.65-.5.56-1 1.1-1.52 1.63-1.556 1.599-3.202 3.109-4.93 4.52-.74.61-1.5 1.19-2.26 1.76l-.43.3c-.64.46-1.28.91-1.94 1.35l-.64.41c-.6.39-1.2.77-1.81 1.13l-.79.45c-.57.33-1.15.65-1.73 1l-.91.47c-.56.28-1.12.56-1.7.82-.32.16-.653.31-1 .45-.547.253-1.107.493-1.68.72l-1.06.42-1.68.61-1.13.38c-.56.18-1.12.35-1.69.51-.39.12-.77.23-1.16.33-.57.16-1.14.29-1.72.43-.4.09-.79.19-1.2.27-.58.13-1.17.23-1.75.34l-1.2.21c-.62.1-1.23.18-1.85.26l-1.16.14c-.68.07-1.36.12-2.05.17l-1 .08c-1 .05-2 .08-3.09.08-1 0-2.08 0-3.11-.09-.33 0-.66 0-1-.07-.7 0-1.4-.1-2.09-.17-.38 0-.75-.1-1.12-.15-.65-.08-1.29-.16-1.92-.26-.39-.06-.76-.14-1.14-.21-.63-.11-1.25-.22-1.86-.36l-1.11-.25c-.62-.15-1.24-.3-1.85-.47l-1-.29c-.63-.19-1.26-.38-1.88-.59l-.94-.32c-.66-.22-1.31-.47-2-.72l-.8-.31c-.667-.293-1.357-.593-2.07-.9l-.61-.27c-.78-.37-1.54-.75-2.3-1.14l-.32-.17c-.72-.38-1.42-.78-2.12-1.19l-.54-.32-1.58-1-.55-.37c-.57-.37-1.14-.76-1.69-1.16l-.31-.21c-.67-.49-1.32-1-2-1.49-.1-.08-.19-.17-.3-.25-.52-.42-1-.85-1.55-1.29l-.52-.45-1.36-1.23-.45-.43-.28-.26 8.49 8.39c10.973 12.114 26.577 19.034 42.921 19.034 31.769 0 57.91-26.141 57.91-57.91 0-15.726-6.406-30.793-17.731-41.704z" fill="#2a1210" fill-rule="nonzero"/><path d="m253 856.47c-1 0-2.08 0-3.11-.09 1.01.06 2.05.09 3.11.09z" fill="#1580f2" fill-rule="nonzero"/><path d="m219.08 845.5c-.67-.49-1.32-1-2-1.49.68.51 1.33.99 2 1.49z" fill="#1580f2" fill-rule="nonzero"/><path d="m216.81 843.76c-.52-.42-1-.85-1.55-1.29.51.44 1.03.87 1.55 1.29z" fill="#1580f2" fill-rule="nonzero"/><path d="m211 838.38-.91-1z" fill="#1580f2" fill-rule="nonzero"/><path d="m214.74 842-1.36-1.23z" fill="#1580f2" fill-rule="nonzero"/><path d="m225.87 849.73c-.71-.38-1.42-.78-2.12-1.19.7.46 1.4.81 2.12 1.19z" fill="#1580f2" fill-rule="nonzero"/><path d="m212 839.4c.23.23.45.47.69.7l.28.26c-.37-.31-.69-.64-.97-.96z" fill="#1580f2" fill-rule="nonzero"/><path d="m221.08 846.87c-.57-.37-1.14-.76-1.69-1.16.55.4 1.12.79 1.69 1.16z" fill="#1580f2" fill-rule="nonzero"/><path d="m211.6 833.65c3.63-3 19.71-8.14 23.81-9.42.604-.184 1.07-.669 1.23-1.28.32-1.14.84-3.06 1.18-4.49.186-1.186 1.109-2.129 2.29-2.34l-.05-4.45c-1.086-2.621-1.916-5.34-2.48-8.12-.877.466-1.964.298-2.66-.41-.66-.83.1-1.56-1.27-4.09-3-7.16.3-8.46.3-8.46-.6-3.422-.811-6.901-.63-10.37.11-3.62 4.31-9.76 7.69-12.61 3.74-3.15 8.81-2.94 11.52-2.93 4.12 0 11.24 1.59 14.61 7.83s3.14 13.35 2.55 17.22c0 0 2.89-.12 2.08 4.16s-1.58 3.66-1.74 5-.82 4.42-3.42 4.41c-.119 2.337-.522 4.65-1.2 6.89v5.46s2.1.42 2.64 1.93 1.19 5.47 2.33 6.49 17.31 6.08 22 8c1.11.44 2.38 2.36 3.68 5.2 9.576-10.637 14.879-24.454 14.879-38.766 0-31.785-26.155-57.94-57.94-57.94s-57.94 26.155-57.94 57.94c0 14.055 5.114 27.64 14.381 38.206.532-1.14 1.264-2.177 2.16-3.06z" fill="#1580f2" fill-rule="nonzero"/><path d="m223.21 848.22-1.58-1z" fill="#1580f2" fill-rule="nonzero"/><path d="m294.54 838.89c-1.556 1.599-3.202 3.109-4.93 4.52 1.728-1.411 3.374-2.921 4.93-4.52z" fill="#1580f2" fill-rule="nonzero"/><path d="m213.38 840.79 1.36 1.23.52.45c.51.44 1 .87 1.55 1.29.11.08.2.17.3.25.65.51 1.3 1 2 1.49l.31.21c.55.4 1.12.79 1.69 1.16l.55.37 1.58 1 .54.32c.7.41 1.41.81 2.12 1.19l.32.17c.76.39 1.52.77 2.3 1.14l.61.27c.667.313 1.357.613 2.07.9l.8.31c.65.25 1.3.5 2 .72l.94.32c.62.21 1.25.4 1.88.59l1 .29c.61.17 1.23.32 1.85.47l1.11.25c.61.14 1.23.25 1.86.36.38.07.75.15 1.14.21.63.1 1.27.18 1.92.26.37 0 .74.11 1.12.15.69.07 1.39.12 2.09.17.33 0 .66.06 1 .07 1 .06 2.07.09 3.11.09 1 0 2.07 0 3.09-.08l1-.08c.69 0 1.37-.1 2.05-.17l1.16-.14c.62-.08 1.23-.16 1.85-.26l1.2-.21c.58-.11 1.17-.21 1.75-.34.41-.08.8-.18 1.2-.27.58-.14 1.15-.27 1.72-.43.39-.1.77-.21 1.16-.33.57-.16 1.13-.33 1.69-.51l1.13-.38 1.68-.61 1.06-.42c.573-.233 1.133-.473 1.68-.72.34-.14.673-.29 1-.45.58-.26 1.14-.54 1.7-.82l.91-.47c.58-.31 1.16-.63 1.73-1l.79-.45c.61-.36 1.21-.74 1.81-1.13l.64-.41c.66-.44 1.3-.89 1.94-1.35l.43-.3c.76-.57 1.52-1.15 2.26-1.76 1.728-1.411 3.374-2.921 4.93-4.52.51-.53 1-1.07 1.52-1.63-1.3-2.84-2.57-4.76-3.68-5.2-4.69-1.88-20.86-6.93-22-8s-1.78-5-2.33-6.49-2.64-1.93-2.64-1.93v-5.46c.678-2.24 1.081-4.553 1.2-6.89 2.6 0 3.25-3 3.42-4.41s.93-.75 1.74-5-2.08-4.16-2.08-4.16c.59-3.87.82-11-2.55-17.22s-10.49-7.82-14.61-7.83c-2.71 0-7.78-.22-11.52 2.93-3.38 2.85-7.58 9-7.69 12.61-.181 3.469.03 6.948.63 10.37s-3.32 1.3-.3 8.46c1.37 2.53.61 3.26 1.27 4.09.696.708 1.783.876 2.66.41.564 2.78 1.394 5.499 2.48 8.12l.05 4.45c-1.181.211-2.104 1.154-2.29 2.34-.34 1.43-.86 3.35-1.18 4.49-.16.611-.626 1.096-1.23 1.28-4.1 1.28-20.18 6.41-23.81 9.42-.895.88-1.627 1.913-2.16 3.05.2.22.41.44.61.67l.91 1 1 1c.32.32.64.65 1 1z" fill="#fff" fill-rule="nonzero"/><path d="m606.2 861.42h-12.84v25.68c0 1.646-1.354 3-3 3h-84v20.76c0 1.646 1.354 3 3 3h96.84c1.646 0 3-1.354 3-3v-46.44c0-1.646-1.354-3-3-3z" fill="#9eb1db" fill-rule="nonzero"/><path d="m587.36 843.66h-90.85v40.44h90.85zm-35.43 13.71c1.163-1.162 3.077-1.162 4.24 0l4 4 10.14-10.14c.563-.564 1.328-.882 2.125-.882 1.647 0 3.002 1.355 3.002 3.002 0 .795-.316 1.557-.877 2.12l-12.26 12.28c-.319.318-.705.561-1.13.71-.134.047-.271.084-.41.11-.191.04-.385.06-.58.06-.795-.001-1.558-.317-2.12-.88l-6.13-6.14c-1.162-1.163-1.162-3.077 0-4.24zm-40.11-1.89c-.609-.567-.955-1.363-.955-2.195 0-1.646 1.354-3 3-3 .832 0 1.628.346 2.195.955l4 4 4-4c.555-.517 1.286-.805 2.045-.805 1.646 0 3 1.354 3 3 0 .759-.288 1.49-.805 2.045l-4 4 4 4c.609.567.955 1.363.955 2.195 0 1.646-1.354 3-3 3-.832 0-1.628-.346-2.195-.955l-4-4-4 4c-.562.563-1.325.879-2.12.88-1.645-.001-2.997-1.355-2.997-3 0-.795.315-1.558.877-2.12l4-4zm20.73 21.91h-24.24c-1.646 0-3-1.354-3-3s1.354-3 3-3h24.24c1.646 0 3 1.354 3 3s-1.354 3-3 3zm43.01 0h-24.24c-1.646 0-3-1.354-3-3s1.354-3 3-3h24.24c1.646 0 3 1.354 3 3s-1.354 3-3 3z" fill="#fff" fill-rule="nonzero"/><path d="m590.36 890.1c1.646 0 3-1.354 3-3v-46.44c0-1.646-1.354-3-3-3h-96.85c-1.646 0-3 1.354-3 3v46.44c0 1.646 1.354 3 3 3zm-93.85-6v-40.44h90.85v40.44z" fill="#1580f2" fill-rule="nonzero"/><path d="m511.82 867.75c.562.563 1.325.879 2.12.88.795-.001 1.558-.317 2.12-.88l4-4 4 4c.555.517 1.286.805 2.045.805 1.646 0 3-1.354 3-3 0-.759-.288-1.49-.805-2.045l-4-4 4-4c.517-.555.805-1.286.805-2.045 0-1.646-1.354-3-3-3-.759 0-1.49.288-2.045.805l-4 4-4-4c-.567-.609-1.363-.955-2.195-.955-1.646 0-3 1.354-3 3 0 .832.346 1.628.955 2.195l4 4-4 4c-1.162 1.163-1.162 3.077 0 4.24z" fill="#1580f2" fill-rule="nonzero"/><path d="m558.06 867.75c.562.563 1.325.879 2.12.88.195 0 .389-.02.58-.06.139-.026.276-.063.41-.11.425-.149.811-.392 1.13-.71l12.27-12.27c.561-.563.877-1.325.877-2.12 0-1.647-1.355-3.002-3.002-3.002-.797 0-1.562.318-2.125.882l-10.14 10.14-4-4c-.555-.517-1.286-.805-2.045-.805-1.646 0-3 1.354-3 3 0 .759.288 1.49.805 2.045z" fill="#1580f2" fill-rule="nonzero"/><path d="m532.55 871.39h-24.24c-1.646 0-3 1.354-3 3s1.354 3 3 3h24.24c1.646 0 3-1.354 3-3s-1.354-3-3-3z" fill="#1580f2" fill-rule="nonzero"/><path d="m575.56 871.39h-24.24c-1.646 0-3 1.354-3 3s1.354 3 3 3h24.24c1.646 0 3-1.354 3-3s-1.354-3-3-3z" fill="#1580f2" fill-rule="nonzero"/><path d="m340.28 920.68c4.005 0 7.3-3.295 7.3-7.3s-3.295-7.3-7.3-7.3-7.3 3.295-7.3 7.3 3.295 7.3 7.3 7.3z" fill="#fff" fill-rule="nonzero"/><path d="m321.76 931.65h37v-37h-37zm18.52-31.57c7.296 0 13.3 6.004 13.3 13.3s-6.004 13.3-13.3 13.3-13.3-6.004-13.3-13.3c.005-7.294 6.006-13.295 13.3-13.3z" fill="#fff" fill-rule="nonzero"/><path d="m361.8 888.61h-43c-1.646 0-3 1.354-3 3v43c0 1.646 1.354 3 3 3h43c1.646 0 3-1.354 3-3v-43c0-1.646-1.354-3-3-3zm-3 43h-37v-37h37z" fill="#1580f2" fill-rule="nonzero"/><path d="m340.28 926.68c7.296 0 13.3-6.004 13.3-13.3s-6.004-13.3-13.3-13.3-13.3 6.004-13.3 13.3c.005 7.294 6.006 13.295 13.3 13.3zm0-20.6c4.005 0 7.3 3.295 7.3 7.3s-3.295 7.3-7.3 7.3-7.3-3.295-7.3-7.3 3.295-7.3 7.3-7.3z" fill="#1580f2" fill-rule="nonzero"/><path d="m385.91 932.25h87.39v-120.25h-87.39zm74.68-14.87h-61.67c-1.646 0-3-1.354-3-3s1.354-3 3-3h61.67c1.646 0 3 1.354 3 3s-1.354 3-3 3zm-64.67-21.83c0-1.646 1.354-3 3-3h34.65c1.646 0 3 1.354 3 3s-1.354 3-3 3h-34.65c-1.646 0-3-1.354-3-3zm64.67 3h-11.18c-1.646 0-3-1.354-3-3s1.354-3 3-3h11.18c1.646 0 3 1.354 3 3s-1.354 3-3 3zm3-50.87c0 1.646-1.354 3-3 3h-61.67c-1.646 0-3-1.354-3-3s1.354-3 3-3h61.67c1.646 0 3 1.354 3 3zm-65.69-21.84h34c1.646 0 3 1.354 3 3s-1.354 3-3 3h-34c-1.646 0-3-1.354-3-3s1.354-3 3-3zm-3.68 40.27c0-1.646 1.354-3 3-3h64.78c1.646 0 3 1.354 3 3v11c0 1.646-1.354 3-3 3h-64.78c-1.646 0-3-1.354-3-3z" fill="#fff" fill-rule="nonzero"/><path d="m476.3 806h-93.39c-1.646 0-3 1.354-3 3v126.25c0 1.646 1.354 3 3 3h93.39c1.646 0 3-1.354 3-3v-126.25c0-1.646-1.354-3-3-3zm-3 126.29h-87.39v-120.29h87.39z" fill="#1580f2" fill-rule="nonzero"/><path d="m464.98 866.11c0-1.656-1.344-3-3-3h-64.76c-1.656 0-3 1.344-3 3v11.01c0 1.656 1.344 3 3 3h64.76c1.656 0 3-1.344 3-3z" fill="#1580f2"/><path d="m397.9 831.84h34c1.646 0 3-1.354 3-3s-1.354-3-3-3h-34c-1.646 0-3 1.354-3 3s1.354 3 3 3z" fill="#1580f2" fill-rule="nonzero"/><path d="m395.92 847.68c0 1.646 1.354 3 3 3h61.67c1.646 0 3-1.354 3-3s-1.354-3-3-3h-61.67c-1.646 0-3 1.354-3 3z" fill="#1580f2" fill-rule="nonzero"/><path d="m460.59 892.55h-11.18c-1.646 0-3 1.354-3 3s1.354 3 3 3h11.18c1.646 0 3-1.354 3-3s-1.354-3-3-3z" fill="#1580f2" fill-rule="nonzero"/><path d="m398.92 898.55h34.65c1.646 0 3-1.354 3-3s-1.354-3-3-3h-34.65c-1.646 0-3 1.354-3 3s1.354 3 3 3z" fill="#1580f2" fill-rule="nonzero"/><path d="m460.59 911.38h-61.67c-1.646 0-3 1.354-3 3s1.354 3 3 3h61.67c1.646 0 3-1.354 3-3s-1.354-3-3-3z" fill="#1580f2" fill-rule="nonzero"/><path d="m520.43 812.91h33.57c1.646 0 3-1.354 3-3v-33.59c0-1.646-1.354-3-3-3h-33.6c-1.646 0-3 1.354-3 3v33.59c0 1.646 1.354 3 3 3zm3-33.59h27.57v27.59h-27.6z" fill="#1580f2" fill-rule="nonzero"/><path d="m338.11 754.16c0 1.646 1.354 3 3 3h56.43c1.646 0 3-1.354 3-3s-1.354-3-3-3h-56.43c-1.646 0-3 1.354-3 3z" fill="#1580f2" fill-rule="nonzero"/><path d="m341.11 780.92h84c1.646 0 3-1.354 3-3s-1.354-3-3-3h-84c-1.646 0-3 1.354-3 3s1.354 3 3 3z" fill="#1580f2" fill-rule="nonzero"/></g><path d="m1389.5 656.37v-199h-24v226h161.44v-24h-134.44c-1.65 0-3-1.354-3-3z" fill="#fff" fill-rule="nonzero" transform="translate(-77.9677 -5.78818)"/><path d="m1419.5 626.37v-199h-24v226h161.44v-24h-134.44c-1.65 0-3-1.354-3-3z" fill="#fff" fill-rule="nonzero" transform="translate(-77.9677 -5.78818)"/><path d="m1425.5 623.37h161.44v-226h-161.44zm51.69-191h52.09c1.65 0 3 1.354 3 3s-1.35 3-3 3h-52.09c-1.65 0-3-1.354-3-3s1.35-3 3-3zm-28.76 30h115.57c1.65 0 3 1.354 3 3s-1.35 3-3 3h-115.57c-1.65 0-3-1.354-3-3s1.35-3 3-3zm116.57 73.63h-33.13l16.57-33.15zm-42.84-16.58v.01c0 9.09-7.48 16.57-16.57 16.57s-16.57-7.48-16.57-16.57 7.48-16.57 16.57-16.57c9.08-.022 16.58 7.428 16.61 16.51zm-42.85-16.56v33.13h-33.13v-33.18zm-30.92 49.56h115.61c1.65 0 3 1.354 3 3s-1.35 3-3 3h-115.57c-1.65 0-3-1.354-3-3s1.35-3 3-3zm0 30h54.81c1.65 0 3 1.354 3 3s-1.35 3-3 3h-54.81c-1.65 0-3-1.354-3-3s1.35-3 3-3z" fill="#fff" fill-rule="nonzero" transform="translate(-77.9677 -5.78818)"/><path d="m1589.94 391.38h-167.44c-1.65 0-3 1.354-3 3v27h-27c-1.65 0-3 1.354-3 3v27h-27c-1.65 0-3 1.354-3 3v232c0 1.646 1.35 3 3 3h167.44c1.65 0 3-1.354 3-3v-27h27c1.65 0 3-1.354 3-3v-27h27c1.65 0 3-1.354 3-3v-232c0-1.646-1.35-3-3-3zm-63 292h-161.44v-226h24v199c0 1.646 1.35 3 3 3h134.44zm30-30h-161.44v-226h24v199c0 1.646 1.35 3 3 3h134.44zm30-30h-161.44v-226h161.44z" fill="#1580f2" fill-rule="nonzero" transform="translate(-77.9677 -5.78818)"/><path d="m1477.19 438.37h52.09c1.65 0 3-1.354 3-3s-1.35-3-3-3h-52.09c-1.65 0-3 1.354-3 3s1.35 3 3 3z" fill="#1580f2" fill-rule="nonzero" transform="translate(-77.9677 -5.78818)"/><path d="m1448.43 468.37h115.57c1.65 0 3-1.354 3-3s-1.35-3-3-3h-115.57c-1.65 0-3 1.354-3 3s1.35 3 3 3z" fill="#1580f2" fill-rule="nonzero" transform="translate(-77.9677 -5.78818)"/><path d="m1448.43 558.37h115.57c1.65 0 3-1.354 3-3s-1.35-3-3-3h-115.57c-1.65 0-3 1.354-3 3s1.35 3 3 3z" fill="#1580f2" fill-rule="nonzero" transform="translate(-77.9677 -5.78818)"/><path d="m1448.43 588.37h54.81c1.65 0 3-1.354 3-3s-1.35-3-3-3h-54.81c-1.65 0-3 1.354-3 3s1.35 3 3 3z" fill="#1580f2" fill-rule="nonzero" transform="translate(-77.9677 -5.78818)"/><path d="m1007.13 514.78h-23.28c-28.966-.017-56.189-14.099-72.94-37.73l-127-179.41c-17.877-25.218-46.928-40.247-77.84-40.27h-27.24c-1.646 0-3 1.354-3 3s1.354 3 3 3h27.22c28.968.019 56.194 14.1 72.95 37.73l127 179.42c17.881 25.212 46.931 40.236 77.84 40.26h23.28c1.65 0 3-1.354 3-3s-1.35-3-3-3z" fill="#1580f2" fill-rule="nonzero" transform="translate(225.322 -13.7865)"/><path d="m1006.88 574h-26.57c-31.281 0-60.64 15.387-78.44 41.11l-123 177.77c-16.68 24.103-44.189 38.523-73.5 38.53h-26.54c-1.646 0-3 1.354-3 3s1.354 3 3 3h26.58c31.283-.002 60.642-15.393 78.44-41.12l122.95-177.79c16.685-24.098 44.199-38.508 73.51-38.5h26.57c1.65 0 3-1.354 3-3s-1.35-3-3-3z" fill="#1580f2" fill-rule="nonzero" transform="translate(225.322 -13.7865)"/><path d="m1006.88 546.37h-331.29c-1.646 0-3 1.354-3 3s1.354 3 3 3h331.29c1.65 0 3-1.354 3-3s-1.35-3-3-3z" fill="#1580f2" fill-rule="nonzero" transform="translate(225.322 -13.7865)"/><path d="m1368.2523 497.02182h33.13v33.13h-33.13z" fill="#1580f2"/><circle cx="1427.6623" cy="513.58182" fill="#453b69" r="16.57"/><path d="m1531.91 535.95h33.13l-16.57-33.15z" fill="#f37a78" fill-rule="nonzero" transform="translate(-77.9677 -5.78818)"/></svg>