<svg width="1440" height="691" xmlns="http://www.w3.org/2000/svg">
  <g id="Page-1" stroke="none" stroke-width="1" fill="none" fill-rule="evenodd">
    <g id="Option-3">
      <g id="Group-3" fill-rule="nonzero">
        <path id="Rectangle" fill="#F4F6F8" d="M.5.5h1439v689H.5z"/>
        <path d="M101 345c149.12 0 270 120.89 270 270 0 26.03-3.68 51.2-10.55 75H0V364.53A269.25 269.25 0 01101 345z" id="Combined-Shape" fill-opacity=".6" fill="#E9EBED"/>
        <path d="M1439 0v398.43A354.34 354.34 0 011256 449c-196.61 0-356-159.38-356-356 0-32.17 4.27-63.35 12.27-93H1439z" id="Combined-Shape" fill="#E9EBED"/>
      </g>
      <g id="undraw_noted_pc9f" transform="translate(377 35)" fill-rule="nonzero">
        <path d="M641.57 119.6c24.3 35.9 18.92 82.4 18.92 82.4s-44.77-11.7-69.06-47.6C567.13 118.5 572.5 72 572.5 72s44.77 11.7 69.06 47.6z" id="Path" fill="#2F2E41"/>
        <path d="M624.2 126.53c2.9 43.36 36.03 76.47 36.03 76.47s28.45-37.18 25.56-80.53C682.91 79.1 649.77 46 649.77 46s-28.45 37.18-25.56 80.53z" id="Path" fill="#007DF6"/>
        <path d="M342.66.9l333.65 168.72a15.89 15.89 0 018.65 15.24l-19.38 288.8a7.87 7.87 0 01-3.93 6.31 7.78 7.78 0 01-7.4.18L313 304.98 330.52 7.94a8.45 8.45 0 014.19-6.81 8.35 8.35 0 017.95-.23z" id="Path" fill="#D0CDE1"/>
        <path d="M347.79 8.88l323.78 164.15c5.5 2.8 8.81 8.64 8.4 14.84l-18.82 281a7.66 7.66 0 01-3.81 6.13 7.53 7.53 0 01-7.18.18L319 304.74l17-289.01a8.22 8.22 0 014.06-6.63 8.08 8.08 0 017.73-.22z" id="Path" fill="#3F3D56"/>
        <path d="M362.08 29.8l293.28 149.42a14.09 14.09 0 017.6 13.5l-17.03 255.79a6.97 6.97 0 01-3.46 5.58 6.8 6.8 0 01-6.5.16L336 299.11l15.4-263.08a7.49 7.49 0 013.68-6.03 7.29 7.29 0 017-.2z" id="Path" fill="#FFF"/>
        <path d="M57.1 448.05l333.18 168.57a22.1 22.1 0 0019.99-.02l246.48-125.7c2.9-2.9 2.5-7.2 1.57-10.44a23.31 23.31 0 00-1.83-4.51l-33.58-17.75L340.5 316.65l-16.87-9a31.12 31.12 0 00-29.02-.12l-237.62 124a9.28 9.28 0 00.1 16.52z" id="Path" fill="#D0CDE1"/>
        <path d="M57.1 446.84L390.29 616.6a21.95 21.95 0 0019.98-.03l246.48-126.6c2.9-2.91 2.5-7.25 1.57-10.5L412.57 608.7a21.22 21.22 0 01-19.45.17L52.12 437a9.33 9.33 0 004.98 9.84z" id="Path" fill="#000" opacity=".1"/>
        <path d="M373.82 497.72l-108.46-55.07a15.18 15.18 0 00-14.06.16l-62.92 33.78a4.53 4.53 0 00.1 8.02l110.58 56.04a12.47 12.47 0 0011.8-.27l63.17-35.76a3.91 3.91 0 00-.21-6.9zM628.59 488.49l-116.28 62.4a9.37 9.37 0 01-8.7.08L175.06 383.15a5.65 5.65 0 01.04-10.1l113.55-56.76a12.2 12.2 0 0111 .04l328.87 167.38a2.7 2.7 0 01.06 4.78z" id="Path" fill="#000" opacity=".1"/>
        <path d="M129 289.22s-26.45-12.2-38.87.7c-12.42 12.88 33.26 8.64 38.87-.7z" id="Path" fill="#3F3D56"/>
        <path d="M83 235.6c8.69-14.85 25.86-15.54 25.86-15.54s16.74-2.17 27.48 20.44c10 21.08 23.82 41.43 2.22 46.36l-3.9-12.28-2.41 13.2a83.5 83.5 0 01-9.24.16c-23.13-.76-45.16.22-44.45-8.18.94-11.17-3.91-29.88 4.44-44.16z" id="Path" fill="#2F2E41"/>
        <path d="M71.87 507s11 20.39 18.08 20.39c7.08 0 6.3 13.33 4.72 16.46-1.57 3.14-5.5 10.2.78 20.4 2.2 3.55 1.8 7.6.37 11.34-4.04 10.5-19.76 7.32-19.25-3.92 0-.12 0-.24.02-.37.78-12.55-5.5-32.15-11.8-36.86C58.5 529.74 53 517.2 53 517.2L71.87 507zM147.13 501s-11 20.39-18.08 20.39c-7.08 0-6.3 13.33-4.72 16.46 1.57 3.14 5.5 10.2-.78 20.4-2.2 3.55-1.8 7.6-.37 11.34 4.04 10.5 19.76 7.32 19.25-3.92 0-.12 0-.24-.02-.37-.78-12.55 5.5-32.15 11.8-36.86 6.29-4.7 11.79-17.25 11.79-17.25L147.13 501z" id="Path" fill="#FFB8B8"/>
        <path d="M137.78 398.8l4.73 10.4s69.4 23.2 63.08 50.4c-6.3 27.19-37.06 69.59-41.79 67.99-4.73-1.6-29.96-6.4-30.75-20-.79-13.6 18.14-37.6 18.14-37.6l-26.02-24-37.87-.8L55 470s33.9 30.4 18.92 42.4c-14.98 12-37.06 20-40.21 15.2-3.15-4.8-38.64-76-33.12-82.4 5.52-6.4 61.5-30.4 61.5-30.4l14.99-21.59 58.35-3.2 2.36 8.8z" id="Path" fill="#2F2E41"/>
        <path d="M123.37 267.1s-4 26.69 4 29.92c8 3.24-15.99 16.98-15.99 16.98H97.8L89 295.4s8-14.55 3.2-28.3c-4.8-13.74 31.17 0 31.17 0z" id="Path" fill="#FFB8B8"/>
        <path d="M123.37 267.1s-4 26.69 4 29.92c8 3.24-15.99 16.98-15.99 16.98H97.8L89 295.4s8-14.55 3.2-28.3c-4.8-13.74 31.17 0 31.17 0z" id="Path" fill="#000" opacity=".1"/>
        <path d="M130.3 291s-8.48 9.57-10.02 11.17c-1.54 1.6-8.47 10.36-23.1-2.4-14.64-12.76-16.18 2.4-16.18 2.4v95.7s12.32-5.58 22.34 0c10.01 5.59 30.8-1.6 30.8-1.6l3.86-98.89-7.7-6.38z" id="Path" fill="#D0CDE1"/>
        <path d="M123.9 289.42s7.22-3.2 13.39 0c6.17 3.2 27.77 19.23 26.22 26.44-1.54 7.2-21.6 57.67-7.71 81.7S172 428 172 428l-33.94-18.42s-26.23-16.82-23.92-27.24c2.32-10.41 9.77-92.92 9.77-92.92zM92.71 291s-16.57 1.59-17.36 3.17c-.79 1.59-24.86 8.33-23.29 15.46 1.58 7.14 23.3 70.96 13.82 82.86-9.47 11.89-25.26 28.54-19.74 30.12 5.53 1.59 15-2.37 24.48 0 9.47 2.38 31.57-17.44 29.2-38.85-2.36-21.4-.01-87.21-7.11-92.76z" id="Path" fill="#3F3D56"/>
        <path d="M131.43 441.05v8.1s3.84 18.63-8.45 17.82c-12.3-.8-4.6-22.68-4.6-22.68l.76-7.29 12.3 4.05zM97.32 444s8.28 18.27 0 19.85c-8.3 1.6-14.32-10.32-14.32-13.5 0-3.17 14.32-6.35 14.32-6.35z" id="Path" fill="#FFB8B8"/>
        <ellipse id="Oval" fill="#FFB8B8" cx="84.5" cy="257" rx="1.5" ry="3"/>
        <ellipse id="Oval" fill="#FFB8B8" cx="131.5" cy="257" rx="1.5" ry="3"/>
        <path d="M71.81 300s-19.57 0-18.79 8.02C53.81 316.04 79.64 454 79.64 454s10.96-10.43 20.36-8.02L71.81 300zM147.38 304S167 307.97 167 319.87c0 11.9-28.25 126.13-32.17 126.13-3.92 0-18.83-2.38-18.83-6.35C116 435.7 147.38 304 147.38 304z" id="Path" fill="#3F3D56"/>
        <path d="M142 327l-17 69s7.93-60.37 17-69zM74 318l18 91s-5.75-85.75-18-91z" id="Path" fill="#000" opacity=".2"/>
        <circle id="Oval" fill="#FFB8B8" cx="108" cy="259" r="23"/>
        <path id="Path" fill="#2F2E41" d="M86.82 233.87l17.32-8.87 23.91 3.63L133 250l-12.31-.46-3.45-7.85v7.72l-5.68-.22-3.3-12.5L106.2 250l-20.2-.4z"/>
      </g>
      <g id="Git-branching-2" opacity=".8" transform="rotate(-6 2106.26 -6967.94)">
        <g transform="translate(0 65.38)" id="Git-branching">
          <path id="Path" stroke="#3F3D56" stroke-width="3" d="M7.62 8.72l224.42 146.33M27.56 21.71s9.85 8.73 11.11-8.24c1.27-16.98 20.61-1 20.61-1M99.03 68.32s11.61 5.27-.77 15c-12.38 9.72 9.55 20.65 9.55 20.65M201.94 135.42s-9.85-8.72-11.11 8.25c-1.26 16.98-20.61 1-20.61 1M170.22 144.66L111 106.04"/>
          <path d="M3.73 16.31c3.62 2.36 8.3.87 10.44-3.32 2.14-4.2.95-9.51-2.67-11.87C7.88-1.24 3.21.25 1.07 4.44c-2.15 4.2-.95 9.51 2.66 11.87z" id="Oval" fill="#363449" fill-rule="nonzero"/>
          <path d="M55.57 20.04c3.62 2.36 8.29.87 10.43-3.33 2.15-4.2.95-9.5-2.67-11.86-3.62-2.36-8.29-.88-10.43 3.32-2.15 4.2-.95 9.5 2.67 11.87z" id="Oval" fill="#3ACC6C" fill-rule="nonzero"/>
          <path d="M44.04 42.6c3.62 2.35 8.29.86 10.43-3.33 2.15-4.2.95-9.51-2.67-11.87-3.62-2.36-8.29-.87-10.43 3.32-2.15 4.2-.95 9.51 2.67 11.87zM70.05 59.55c3.62 2.36 8.29.87 10.43-3.32 2.15-4.2.95-9.51-2.67-11.87-3.62-2.36-8.29-.87-10.43 3.32-2.15 4.2-.95 9.51 2.67 11.87z" id="Oval" fill="#1580F2" fill-rule="nonzero"/>
          <path d="M104.1 111.52c3.61 2.36 8.29.87 10.43-3.32 2.15-4.2.95-9.51-2.67-11.87-3.62-2.36-8.29-.87-10.43 3.32-2.15 4.2-.95 9.51 2.67 11.87zM138.45 133.92c3.62 2.36 8.29.87 10.43-3.32 2.15-4.2.95-9.51-2.67-11.87-3.61-2.36-8.29-.87-10.43 3.32-2.15 4.2-.95 9.51 2.67 11.87z" id="Oval" fill="#FF6584" fill-rule="nonzero"/>
          <path d="M148.07 110.43c3.62 2.36 8.3.87 10.44-3.33 2.14-4.2.94-9.5-2.67-11.87-3.62-2.35-8.3-.87-10.44 3.33-2.14 4.2-.95 9.5 2.67 11.87zM226.5 161.57c3.62 2.36 8.29.87 10.43-3.33 2.15-4.2.95-9.5-2.66-11.87-3.62-2.35-8.3-.87-10.44 3.33-2.14 4.2-.95 9.5 2.67 11.87zM194.42 140.65c3.61 2.36 8.29.87 10.43-3.33 2.15-4.2.95-9.5-2.67-11.87-3.62-2.36-8.29-.87-10.43 3.33-2.15 4.2-.95 9.5 2.67 11.87z" id="Oval" fill="#1580F2" fill-rule="nonzero"/>
        </g>
        <path id="Rectangle" fill="#363449" fill-rule="nonzero" d="M21.95 0l21.99 14.33-3.12 19.19-21.98-14.33z"/>
        <path id="Rectangle" fill="#3ACC6C" fill-rule="nonzero" d="M62.35 26.34l21.99 14.34-3.12 19.18-21.98-14.33z"/>
        <path id="Rectangle" fill="#FF6584" fill-rule="nonzero" d="M133.65 72.83l21.99 14.34-3.12 19.18-21.98-14.33z"/>
      </g>
      <g id="Group" transform="translate(709 63)" fill-rule="nonzero">
        <path id="Path" fill="#3F3D56" opacity=".2" d="M12.48 72.54L3 95.41 83.04 138 110 58"/>
        <path id="Path" fill="#007DF6" d="M79.76 123L115 39.93 34.01 0 0 81.05z"/>
        <path id="Rectangle" fill="#FFF" transform="rotate(-62.93 62.47 47.86)" d="M61.96 13.47h1.3L63 82.24h-1.3z"/>
        <path id="Rectangle" fill="#FFF" transform="rotate(-62.93 57.9 58.96)" d="M57.37 24.57h1.31l-.27 68.78H57.1z"/>
      </g>
    </g>
  </g>
</svg>