<svg clip-rule="evenodd" fill-rule="evenodd" stroke-linejoin="round" stroke-miterlimit="2" viewBox="0 0 210 45" xmlns="http://www.w3.org/2000/svg"><path d="m120.498 396.063h345.379v37.807h-345.379z" fill="#fff" transform="matrix(-.530858 0 0 .530858 263.607 -196.321)"/><g fill-rule="nonzero"><path d="m0 47.671c-2.209 0-4-1.791-4-4v-35.432c0-1.721 1.087-3.188 2.612-3.753-.385-.249-.751-.532-1.094-.85-1.116-1.026-2.46-2.909-2.46-5.998 0-3.051 1.346-4.925 2.475-5.96 1.54-1.425 3.505-2.186 5.669-2.186 2.153 0 4.115.757 5.673 2.19 1.65 1.526 2.517 3.583 2.517 5.956 0 2.403-.866 4.476-2.503 5.995-.336.309-.692.586-1.066.83 1.559.546 2.677 2.031 2.677 3.776v35.432c0 2.209-1.791 4-4 4zm63.416 0c-2.209 0-4-1.791-4-4v-18.558c0-1.834-.098-3.454-.291-4.814-.173-1.256-.464-1.956-.678-2.325-.223-.385-.431-.523-.622-.614-.147-.07-.771-.314-2.183-.314-1.523 0-2.757.162-3.675.482.073.409.138.824.196 1.247.211 1.612.316 3.278.316 4.968v19.928c0 2.209-1.791 4-4 4h-6.456c-2.209 0-4-1.791-4-4v-18.558c0-1.771-.11-3.372-.327-4.756-.193-1.263-.503-1.988-.729-2.377s-.439-.53-.636-.625c-.183-.087-.789-.309-2.082-.309-.435 0-.883.03-1.364.06 0 0-1.559.089-1.793.105v26.46c0 2.209-1.791 4-4 4h-6.457c-2.209 0-4-1.791-4-4v-34.438c0-1.84 1.255-3.443 3.042-3.884 1.61-.397 3.635-.765 6.182-1.195 2.171-.367 4.413-.591 6.661-.665.301-.008.591-.011.884-.011l1.551.009c2.893 0 5.281.384 7.301 1.174 1.064.413 2.051.921 2.952 1.521.642-.317 1.385-.635 2.273-.973 1.325-.496 2.596-.882 3.908-1.189 1.481-.356 3.111-.533 4.959-.533 3.415 0 6.187.501 8.475 1.532 2.413 1.085 4.365 2.691 5.798 4.772 1.328 1.926 2.227 4.205 2.671 6.77.39 2.207.581 4.56.581 7.182v19.928c0 2.209-1.791 4-4 4zm74.925.706c-5.05-.109-8.7-1.305-11.158-3.653-2.508-2.386-3.782-5.865-3.782-10.334v-43.018c0-2.209 1.791-4 4-4h6.5c2.209 0 4 1.791 4 4v42.029c0 .664.051 1.082.095 1.322.539.151 1.155.272 1.865.37 1.071.145 2.039.72 2.681 1.592.64.871.902 1.965.723 3.032l-.891 5.322c-.324 1.931-1.996 3.339-3.945 3.339-.029 0-.058 0-.088-.001m19.214-15.866c-.017.064-.05.223-.05.515 0 .802.151 1.251.257 1.315.483.288 1.63.76 4.034.76 1.199 0 2.181-.015 3.023-.045v-3.758c-.594-.043-1.265-.064-2.029-.064-.063 0-.126-.001-.188-.004-.657.015-1.442.081-2.445.202-.661.085-1.264.251-1.763.49-.384.18-.638.36-.839.589m3.489 15.92c-2.354 0-4.571-.245-6.586-.729-2.22-.522-4.195-1.382-5.851-2.552-1.789-1.255-3.213-2.964-4.224-5.073-.961-2.001-1.428-4.277-1.428-6.954 0-2.662.595-5.036 1.771-7.056 1.15-2.006 2.722-3.639 4.657-4.832 1.746-1.09 3.748-1.875 6.099-2.387 2.115-.469 4.389-.709 6.74-.709.693 0 1.386.028 2.067.083-.076-.139-.163-.273-.26-.402-.118-.155-.349-.399-.932-.667-.313-.142-1.054-.386-2.428-.386-1.776 0-3.421.136-4.89.405-1.713.311-2.485.56-2.792.68-.473.186-.968.277-1.462.277-.793 0-1.579-.235-2.253-.695-1.093-.745-1.747-1.982-1.747-3.305v-5.463c0-1.74 1.124-3.28 2.78-3.81 1.208-.387 2.44-.684 3.875-.934 2.203-.381 4.573-.574 7.049-.574 3.059 0 5.739.414 7.97 1.229 2.423.899 4.341 2.156 5.88 3.852 1.53 1.688 2.622 3.67 3.245 5.893.568 2.038.855 4.255.855 6.594v22.145c0 1.966-1.429 3.641-3.373 3.95l-2.368.377c-1.08.176-2.289.309-3.568.451-1.311.138-2.69.275-4.19.389-1.85.14-3.281.203-4.636.203m-186.538.044c-3.682 0-6.51-.299-8.646-.914-.923-.261-1.758-.523-2.607-.818-1.608-.558-2.687-2.075-2.687-3.778v-5.845c0-1.305.637-2.528 1.706-3.277.682-.477 1.484-.723 2.294-.723.461 0 .925.08 1.37.242.723.264 1.803.629 3.338 1.143.809.274 2.358.596 5.232.596 2.217 0 3.303-.282 3.766-.459-.01-.093-.025-.131-.026-.134v.001c-.001 0-.035-.047-.144-.126-.658-.477-2.116-1.31-5.344-2.583-1.498-.582-2.913-1.21-4.16-1.764-1.662-.735-3.049-1.575-4.237-2.564-1.334-1.092-2.475-2.518-3.272-4.103-.822-1.599-1.23-3.508-1.23-5.802 0-4.384 1.757-8.066 5.08-10.647 3.044-2.369 7.136-3.572 12.159-3.572 1.346 0 2.454.052 3.487.162 1.207.131 2.256.312 3.123.471.959.168 1.873.368 2.686.589.156.042.251.071.381.11 1.686.512 2.898 2.084 2.898 3.846v5.839c0 1.39-.722 2.681-1.907 3.409-.64.393-1.366.591-2.093.591-.619 0-1.239-.144-1.809-.433-.183-.093-.9-.426-2.436-.819-1.143-.3-2.552-.442-4.33-.442-1.119 0-2.049.172-2.767.514.005.043.011.06.012.06.029.056.065.126.238.259.229.175.678.46 1.514.822.801.357 1.768.71 3.082 1.171 1.65.608 3.184 1.241 4.893 2.016 1.712.775 3.209 1.711 4.45 2.779 1.367 1.174 2.451 2.65 3.214 4.384.738 1.666 1.098 3.583 1.098 5.852 0 4.61-1.895 8.331-5.48 10.761-3.18 2.146-7.379 3.186-12.846 3.186m224.744-13.683c.886.083 1.932.124 3.161.124 2.349 0 4.134-.691 5.455-2.114 1.377-1.485 2.046-3.722 2.046-6.843 0-1.654-.136-3.035-.416-4.221-.237-1.021-.627-1.897-1.195-2.691-.443-.612-1.034-1.104-1.791-1.482-.75-.371-1.754-.563-2.965-.563-1.243 0-2.349.199-3.382.609-.35.141-.652.27-.913.39zm3.257 13.683c-3.223 0-6.15-.226-8.698-.671-2.5-.444-4.486-.872-6.083-1.314-1.733-.479-2.934-2.056-2.934-3.855v-51.263c0-2.209 1.791-4 4-4h6.458c2.208 0 4 1.791 4 4v12.591c1.604-.38 3.327-.572 5.142-.572 3.15 0 6.033.58 8.571 1.723 2.563 1.15 4.762 2.788 6.534 4.866 1.716 2.02 3.037 4.467 3.925 7.277.842 2.654 1.27 5.583 1.27 8.702 0 3.28-.53 6.353-1.575 9.132-1.075 2.869-2.603 5.312-4.536 7.257-1.962 1.981-4.352 3.525-7.095 4.584-2.65 1.023-5.671 1.543-8.979 1.543m38.732 0c-3.682 0-6.51-.299-8.646-.914-1.065-.306-1.931-.574-2.616-.804-1.63-.546-2.728-2.073-2.728-3.792v-5.89c0-1.307.638-2.532 1.71-3.28.681-.475 1.482-.72 2.29-.72.464 0 .931.081 1.379.245.721.266 1.818.664 3.372 1.185.81.274 2.359.596 5.239.596 2.205 0 3.297-.283 3.767-.461-.015-.096-.065-.144-.221-.257-.683-.495-2.154-1.342-5.299-2.583-1.45-.566-2.809-1.166-4.122-1.746-1.779-.792-3.177-1.63-4.32-2.581-1.286-1.053-2.378-2.434-3.219-4.085-.849-1.649-1.283-3.612-1.283-5.821 0-4.362 1.772-8.043 5.125-10.647 3.052-2.371 7.127-3.572 12.113-3.572 1.346 0 2.455.052 3.487.162 1.009.11 2.045.264 3.175.471.952.168 1.861.367 2.676.587.06.016.12.034.179.053l.295.1c1.616.555 2.763 2.097 2.763 3.805v5.793c0 1.389-.721 2.679-1.902 3.407-.642.394-1.37.593-2.098.593-.616 0-1.233-.142-1.801-.428-.198-.1-.829-.376-2.397-.779-1.123-.295-2.589-.441-4.377-.441-1.109 0-2.001.168-2.722.513.009.052.018.073.018.074.021.041.054.107.217.23.254.194.705.481 1.528.835.827.368 1.825.733 3.082 1.174 1.647.607 3.229 1.259 4.9 2.016 1.642.743 3.121 1.679 4.4 2.78 1.408 1.208 2.506 2.68 3.258 4.367.743 1.698 1.098 3.609 1.098 5.868 0 4.606-1.892 8.326-5.47 10.758-3.18 2.148-7.38 3.189-12.85 3.189m-147.202-14.545c.252.115.538.239.865.368 1.036.411 2.187.618 3.426.618 1.214 0 2.215-.192 2.974-.571.757-.374 1.335-.857 1.781-1.481.514-.707.898-1.609 1.16-2.704.298-1.265.45-2.67.45-4.157 0-3.111-.662-5.329-2.025-6.781-1.314-1.399-3.103-2.08-5.467-2.08-1.321 0-2.368.025-3.164.077zm-10.5 26.369c-2.209 0-4-1.791-4-4v-46.97c0-1.848 1.266-3.456 3.063-3.889 1.937-.467 3.881-.883 5.944-1.272 1.939-.363 4.084-.59 6.385-.678.279-.011.573-.015.871-.015l1.496.012c3.342 0 6.267.506 8.94 1.547 2.775 1.072 5.179 2.615 7.134 4.58 1.94 1.961 3.465 4.402 4.538 7.263 1.015 2.724 1.529 5.792 1.529 9.126 0 3.186-.413 6.099-1.228 8.657-.86 2.712-2.195 5.144-3.968 7.225-1.804 2.108-3.991 3.746-6.503 4.872-2.519 1.138-5.419 1.718-8.608 1.718-1.86 0-3.542-.175-5.093-.533v8.357c0 2.209-1.791 4-4 4z" fill="#808285" transform="matrix(.530858 0 0 .530858 70.0876 10.2527)"/><path d="m0 14.15v-9.721c1.123.14 1.513.555 1.719.774.815.869.937 2.904.937 4.039 0 1.179-.117 2.276-.348 3.263-.174.725-.377 1.081-.481 1.225-.011.016-.022.031-.033.046-.031.043-.082.114-.29.217-.027.014-.336.163-1.213.163-.099 0-.196-.002-.291-.006m105.212-9.902c.097-.004.195-.006.297-.006.881 0 1.201.153 1.214.159.188.094.264.181.304.236.251.357.421.75.533 1.234.211.893.314 2.004.314 3.328 0 1.146-.127 3.205-.977 4.121-.206.222-.594.64-1.685.785zm-212.741-.261c.566-.428 1.066-.926 1.492-1.477v2.798c-.282-.282-.575-.554-.878-.815-.2-.171-.404-.34-.614-.506m204.741-37.376h-6.457c-4.418 0-8 3.582-8 8v18.336c-.736-1.433-1.655-2.758-2.751-3.966-1.955-2.153-4.455-3.803-7.434-4.908-2.706-.99-5.85-1.485-9.378-1.485-2.702 0-5.301.212-7.724.631-1.63.285-3.029.623-4.416 1.066-3.315 1.059-5.564 4.14-5.564 7.62v5.464c0 1.878.659 3.669 1.823 5.084-1.324 1.088-2.477 2.367-3.447 3.823v-31.665c0-4.418-3.582-8-8-8h-6.5c-4.419 0-8 3.582-8 8v19.487c-.925-1.492-1.988-2.846-3.185-4.054-2.362-2.376-5.235-4.225-8.549-5.505-3.124-1.217-6.523-1.812-10.37-1.812-.221 0-.442-.003-.66-.006-.282-.003-.561-.006-.836-.006-.353 0-.701.005-1.041.019-2.479.094-4.821.343-6.944.74-2.122.401-4.188.843-6.154 1.317-3.593.867-6.125 4.081-6.125 7.778v1.035c-.466-1.001-1.008-1.952-1.625-2.846-1.848-2.686-4.356-4.757-7.449-6.148-2.812-1.267-6.121-1.883-10.115-1.883-2.16 0-4.09.211-5.9.645-1.467.344-2.888.776-4.344 1.321-.016.006-.032.012-.048.018-.208.079-.409.158-.605.236-.567-.285-1.153-.545-1.76-.78-2.471-.966-5.336-1.44-8.736-1.44-.245 0-.484-.002-.72-.005-.281-.002-.557-.005-.831-.005-.333 0-.664.004-.995.014-2.445.079-4.868.321-7.219.719-2.636.445-4.747.829-6.474 1.256-2.088.516-3.814 1.827-4.886 3.561-.106-.239-.222-.473-.35-.7 1.249-1.941 1.912-4.235 1.912-6.689 0-3.467-1.346-6.622-3.789-8.883-2.33-2.141-5.228-3.263-8.401-3.263-3.189 0-6.094 1.128-8.401 3.263-1.692 1.552-3.743 4.378-3.743 8.883 0 2.926.851 5.144 1.915 6.774-.073.134-.143.271-.209.41-.972-1.861-2.664-3.315-4.773-3.953-.217-.066-.337-.102-.559-.162-.909-.248-1.934-.473-3.034-.667-.935-.171-2.065-.364-3.374-.506-1.194-.128-2.437-.186-3.926-.186-5.934 0-10.852 1.486-14.618 4.417-4.329 3.362-6.621 8.136-6.621 13.801 0 2.933.548 5.43 1.673 7.633.892 1.763 2.109 3.376 3.553 4.718-.382.185-.752.401-1.106.649-2.139 1.497-3.413 3.943-3.413 6.554v5.844c0 3.408 2.158 6.441 5.377 7.558.935.325 1.841.609 2.852.894 2.49.718 5.59 1.058 9.711 1.058 6.29 0 11.221-1.264 15.075-3.863 1.051-.713 1.996-1.518 2.829-2.404 1.061 3.175 4.058 5.464 7.59 5.464h6.5c3.063 0 5.724-1.721 7.068-4.248 1.344 2.527 4.005 4.248 7.068 4.248h6.456c3.403 0 6.309-2.124 7.466-5.118 1.156 2.994 4.062 5.118 7.465 5.118h6.457c3.405 0 6.313-2.127 7.468-5.125 1.155 2.998 4.063 5.125 7.468 5.125h6.457c2.212 0 4.215-.898 5.664-2.35v6.978c0 4.418 3.581 8 8 8h6.5c4.418 0 8-3.582 8-8v-3.843c.359.012.724.018 1.094.018 3.76 0 7.214-.699 10.265-2.078 3.033-1.358 5.691-3.348 7.878-5.903 1.106-1.299 2.067-2.704 2.879-4.204.973 3.521 2.727 5.861 4.28 7.338 3.199 3.059 7.725 4.617 13.822 4.749.058.001.117.002.175.002 3.108 0 5.863-1.79 7.18-4.473.23.181.466.356.707.525 2.06 1.455 4.502 2.526 7.241 3.17 2.29.549 4.82.831 7.486.831 1.458 0 2.982-.067 4.942-.215 1.599-.12 3.062-.268 4.282-.397l.125-.013c1.303-.146 2.534-.283 3.71-.473.618-.096 1.202-.19 1.686-.268l.641-.103c2.463-.39 4.515-1.878 5.687-3.918 1.04 1.574 2.63 2.773 4.545 3.302 1.717.474 3.823.93 6.437 1.394 2.795.488 5.953.734 9.408.734 3.804 0 7.31-.61 10.422-1.812 3.271-1.262 6.132-3.115 8.5-5.505.645-.649 1.252-1.343 1.82-2.08.048 3.392 2.232 6.391 5.456 7.472.792.266 1.732.555 2.794.859 2.52.726 5.619 1.066 9.74 1.066 6.293 0 11.225-1.264 15.077-3.865 4.679-3.181 7.243-8.176 7.243-14.08 0-2.824-.466-5.26-1.423-7.448-.007-.016-.014-.032-.021-.048-.994-2.231-2.444-4.176-4.311-5.78-.212-.182-.428-.36-.648-.535 2.003-1.501 3.199-3.868 3.199-6.399v-5.793c0-3.414-2.166-6.452-5.394-7.564-.153-.054-.26-.092-.427-.146-.123-.039-.247-.076-.372-.11-.923-.249-1.943-.473-3.032-.666-1.218-.223-2.339-.388-3.424-.506-1.194-.128-2.437-.186-3.926-.186-5.895 0-10.795 1.484-14.566 4.412-2.127 1.652-3.782 3.686-4.912 5.993-.539-.831-1.124-1.619-1.755-2.361-2.166-2.541-4.839-4.533-7.953-5.93-3.045-1.372-6.482-2.071-10.202-2.071-.384 0-.765.008-1.143.022v-8.042c0-4.418-3.581-8-8-8m-188.749 60.3h-6.5v-35.432h6.5zm26.904-36.194c.504 0 1.016.01 1.551.01 2.326 0 4.263.281 5.845.899 1.575.611 2.938 1.502 4.005 2.68.324-.228.81-.531 1.509-.942.692-.405 1.568-.788 2.592-1.178 1.023-.383 2.135-.737 3.394-1.031 1.251-.302 2.607-.428 4.048-.428 2.792 0 5.066.383 6.832 1.178 1.768.795 3.144 1.938 4.147 3.394 1 1.452 1.677 3.18 2.024 5.183.352 1.996.522 4.137.522 6.501v19.928h-6.457v-18.558c0-2.092-.117-3.873-.33-5.375-.207-1.502-.597-2.769-1.178-3.77-.582-1.001-1.355-1.737-2.356-2.216-1.002-.477-2.335-.707-3.91-.707-2.187 0-3.953.281-5.374.848-1.413.573-2.408 1.105-2.915 1.561.367 1.178.656 2.452.846 3.858.185 1.413.281 2.885.281 4.431v19.928h-6.457v-18.558c0-2.092-.14-3.873-.375-5.375-.23-1.502-.641-2.769-1.223-3.77-.581-1.001-1.363-1.737-2.356-2.216-1.001-.477-2.29-.707-3.82-.707-.649 0-1.325.053-2.07.096-.742.045-1.449.074-2.12.14-.677.068-1.282.149-1.84.235-.559.089-.942.192-1.127.236v29.919h-6.456v-34.439c1.487-.367 3.445-.721 5.889-1.134 1.826-.309 3.866-.537 6.125-.611.251-.007.501-.01.754-.01m64.924 31.439c1.862 0 3.437-.332 4.762-.993 1.325-.656 2.415-1.568 3.248-2.733.838-1.155 1.421-2.531 1.796-4.099.367-1.568.559-3.27.559-5.089 0-4.137-1.015-7.288-3.107-9.517-2.091-2.224-4.902-3.344-8.385-3.344-1.951 0-3.483.053-4.573.192-1.089.132-1.943.287-2.591.472v22.38c.788.633 1.907 1.244 3.394 1.832 1.487.59 3.136.899 4.897.899m-2.527-31.441c.488 0 .991.012 1.496.012 2.782 0 5.256.405 7.488 1.274 2.229.861 4.167 2.083 5.748 3.673 1.576 1.591 2.768 3.549 3.63 5.847.854 2.29 1.274 4.858 1.274 7.721 0 2.68-.317 5.178-1.039 7.445-.721 2.275-1.811 4.21-3.202 5.844-1.398 1.634-3.07 2.908-5.094 3.815-2.018.912-4.374 1.368-6.971 1.368-2.092 0-3.911-.258-5.515-.803-1.598-.544-2.791-1.051-3.579-1.553v14.181h-6.5v-46.97c1.532-.37 3.445-.796 5.75-1.231 1.723-.322 3.658-.53 5.793-.611.236-.009.477-.012.721-.012m-118.703-.127c1.023 0 2.039.03 3.062.139 1.023.111 1.943.266 2.827.428.882.155 1.685.332 2.356.515.139.037.205.058.33.096v5.838c-.699-.354-1.789-.752-3.253-1.127-1.487-.39-3.232-.567-5.322-.567-1.812 0-3.41.332-4.757 1.038-1.348.7-2.025 1.797-2.025 3.299 0 .772.162 1.479.472 2.069.301.596.737 1.125 1.362 1.604.626.479 1.427.914 2.356 1.317.927.413 2.047.818 3.349 1.274 1.715.634 3.217 1.274 4.565 1.885 1.347.611 2.539 1.348 3.488 2.166.95.816 1.657 1.811 2.166 2.966.514 1.163.758 2.561.758 4.241 0 3.275-1.237 5.763-3.725 7.45-2.489 1.679-6 2.495-10.601 2.495-3.204 0-5.727-.236-7.539-.758-.995-.28-1.76-.529-2.401-.752v-5.844c.745.271 1.857.648 3.438 1.178 1.628.552 3.807.803 6.502.803 2.65 0 4.616-.354 5.89-1.039 1.279-.678 1.884-1.745 1.884-3.247 0-1.545-.582-2.769-1.833-3.673-1.259-.912-3.344-1.928-6.222-3.063-1.398-.544-2.731-1.134-4.005-1.7-1.281-.567-2.371-1.208-3.298-1.981-.935-.765-1.707-1.73-2.26-2.827-.559-1.089-.803-2.406-.803-4.005 0-3.136 1.163-5.646 3.534-7.487 2.364-1.84 5.619-2.731 9.705-2.731m184.698 31.753c1.53 0 2.87-.023 4.056-.089 1.178-.073 2.171-.2 2.967-.382v-10.551c-.464-.228-1.222-.456-2.26-.61-1.046-.162-2.283-.236-3.77-.236v-.008c-.98.008-2.024.104-3.113.236-1.091.14-2.107.42-3.012.854-.912.428-1.664.993-2.267 1.737-.605.751-.891 1.746-.891 2.975 0 2.274.729 3.873 2.216 4.755 1.479.883 3.519 1.319 6.074 1.319m-.567-31.753c2.606 0 4.808.331 6.596.985 1.789.664 3.195 1.576 4.292 2.784 1.089 1.201 1.892 2.629 2.356 4.284.463 1.664.706 3.513.706 5.514v22.146c-.559.088-1.362.22-2.356.375-1 .162-2.142.288-3.394.427-1.251.132-2.591.266-4.048.375-1.465.112-2.901.193-4.337.193-2.047 0-3.939-.208-5.654-.619-1.722-.405-3.225-1.045-4.476-1.929-1.259-.884-2.224-2.075-2.923-3.534-.699-1.457-1.037-3.18-1.037-5.226 0-1.959.411-3.638 1.229-5.044.811-1.413 1.9-2.576 3.298-3.437 1.391-.869 2.989-1.48 4.852-1.885 1.856-.413 3.842-.618 5.889-.618.648 0 1.325.028 2.024.094.699.068 1.355.17 1.981.281.626.117 1.135.19 1.598.286.464.089.803.192.994.236v-1.789c0-1.046-.104-2.09-.332-3.113-.236-1.024-.669-1.938-1.272-2.733-.605-.793-1.408-1.406-2.452-1.885-1.046-.477-2.422-.75-4.094-.75-2.143 0-4.005.177-5.611.471-1.581.287-2.746.583-3.533.892v-5.464c.825-.264 1.864-.545 3.343-.803 1.951-.337 4.086-.514 6.361-.514m82.551 0c1.023 0 2.039.03 3.062.139 1.024.111 1.994.266 2.878.428.877.155 1.679.332 2.356.515.117.037.17.058.279.096v5.793c-.699-.352-1.773-.714-3.202-1.082-1.487-.39-3.283-.567-5.373-.567-1.811 0-3.366.332-4.712 1.038-1.347.7-2.026 1.797-2.026 3.299 0 .772.17 1.479.471 2.069.304.596.737 1.125 1.37 1.604.626.479 1.421.914 2.356 1.317.927.413 2.039.818 3.342 1.274 1.717.634 3.224 1.274 4.572 1.885s2.488 1.348 3.438 2.166c.949.816 1.701 1.811 2.216 2.966.509 1.163.752 2.561.752 4.241 0 3.275-1.238 5.763-3.718 7.45-2.488 1.679-6.009 2.495-10.602 2.495-3.209 0-5.727-.236-7.539-.758-1-.286-1.811-.537-2.451-.752v-5.889c.744.273 1.877.686 3.482 1.223 1.627.552 3.813.803 6.508.803 2.642 0 4.608-.354 5.89-1.039 1.274-.678 1.885-1.745 1.885-3.247 0-1.545-.634-2.769-1.885-3.673-1.259-.912-3.298-1.928-6.176-3.063-1.393-.544-2.726-1.134-4.005-1.7-1.274-.567-2.416-1.208-3.344-1.981-.934-.765-1.656-1.73-2.216-2.827-.56-1.089-.846-2.406-.846-4.005 0-3.136 1.208-5.646 3.579-7.487 2.369-1.84 5.573-2.731 9.659-2.731m-240.578-13.856c1.156 0 2.151.384 2.967 1.134.81.75 1.223 1.738 1.223 3.012 0 1.272-.413 2.311-1.223 3.062-.807.742-1.79 1.082-2.929 1.082h-.076c-1.146 0-2.127-.34-2.928-1.082-.818-.751-1.178-1.79-1.178-3.062 0-1.274.36-2.262 1.178-3.012.81-.75 1.803-1.134 2.966-1.134m130.699-2.121v42.031c0 1.046.096 1.907.286 2.591.185.678.479 1.193.892 1.598.418.413 1.001.743 1.7.943.692.205 1.517.382 2.541.522l-.892 5.322c-3.997-.087-6.809-.948-8.481-2.546-1.672-1.591-2.546-4.079-2.546-7.443v-43.018zm68.51 47.545c3.483 0 6.295-1.14 8.387-3.394 2.09-2.252 3.113-5.426 3.113-9.563 0-1.819-.147-3.549-.522-5.14-.369-1.588-1.002-2.936-1.834-4.099-.838-1.157-1.929-2.069-3.254-2.733-1.325-.654-2.901-.985-4.755-.985-1.768 0-3.372.301-4.859.891-1.487.596-2.65 1.199-3.438 1.84v22.425c.647.183 1.597.36 2.782.523 1.186.154 2.614.235 4.38.235m-7.162-47.545v18.421c.788-.494 1.979-1.008 3.585-1.553 1.598-.544 3.468-.848 5.558-.848 2.599 0 4.904.458 6.928 1.37 2.017.905 3.739 2.179 5.132 3.813 1.391 1.636 2.437 3.615 3.157 5.89.722 2.274 1.083 4.764 1.083 7.495 0 2.865-.458 5.433-1.319 7.723-.861 2.296-2.047 4.254-3.628 5.845-1.575 1.59-3.468 2.812-5.699 3.673-2.23.861-4.755 1.274-7.539 1.274-3.017 0-5.69-.205-8.01-.611-2.325-.412-4.218-.818-5.705-1.228v-51.264z" fill="#fff" transform="matrix(.530858 0 0 .530858 122.131 19.15)"/><path d="m-42.25-42.25c-23.334 0-42.25 18.916-42.25 42.25s18.916 42.25 42.25 42.25 42.25-18.916 42.25-42.25-18.916-42.25-42.25-42.25" fill="#fff" transform="matrix(0 -.530858 -.530858 0 22.4288 0)"/><path d="m0-53.382c-3.511 5.418-5.565 11.889-5.565 18.847 0 5.955 1.472 11.551 4.101 16.446.081.141.16.28.235.42 5.86 10.528 17.057 17.669 29.874 17.669h.611l2.026-40.564h-2.166l-3.724 2.731z" fill="#2d97d3" transform="matrix(.530858 0 0 .530858 7.23565 40.7505)"/><path d="m0-50.886-.096 28.977-10.366 4.712 39.91 17.197c2.703-4.881 4.241-10.454 4.241-16.394 0-6.516-1.877-12.613-5.087-17.809l.089-.045c-5.905-9.814-16.514-16.453-28.691-16.638" fill="#2d97d3" transform="matrix(.530858 0 0 .530858 22.6924 31.1204)"/><path d="m0-35.477v35.477c13.031-.256 24.235-7.906 29.778-18.935z" fill="#60b9e8" transform="matrix(.530858 0 0 .530858 22.7944 40.7342)"/><path d="m-28.62-33.335c12.227-.257 23.064 6.001 29.311 15.59l-29.311 18.053-.565-33.631z" fill="#1b77b9" transform="matrix(-.530741 .0111557 .0111557 .530741 7.60117 22.1308)"/></g></svg>