<svg clip-rule="evenodd" fill-rule="evenodd" stroke-linejoin="round" stroke-miterlimit="1.41421" viewBox="0 0 210 37" xmlns="http://www.w3.org/2000/svg"><g fill-rule="nonzero"><path d="m141.33 1v22.8c-.116 1.446.373 2.878 1.35 3.95.89.85 2.38 1.31 4.5 1.35l.47-2.82c-.456-.059-.908-.152-1.35-.28-.337-.089-.646-.261-.9-.5-.231-.235-.394-.529-.47-.85-.11-.448-.161-.909-.15-1.37v-22.28zm32.57 0v27.2c.79.22 1.79.43 3 .65 1.405.228 2.827.335 4.25.32 1.364.022 2.72-.209 4-.68 1.127-.429 2.15-1.094 3-1.95.854-.884 1.509-1.941 1.92-3.1.479-1.313.716-2.702.7-4.1.015-1.355-.18-2.705-.58-4-.343-1.141-.911-2.202-1.67-3.12-.746-.861-1.676-1.545-2.72-2-1.16-.504-2.415-.752-3.68-.73-1.001-.012-1.998.14-2.95.45-.661.203-1.298.478-1.9.82v-9.76zm-98.47 1.1c-.581-.011-1.145.204-1.57.6-.44.411-.672.999-.63 1.6-.037.609.193 1.204.63 1.63.907.761 2.243.761 3.15 0 .438-.422.675-1.012.65-1.62.029-.607-.213-1.197-.66-1.61-.426-.395-.989-.61-1.57-.6zm-13.85 7.35c-1.83-.106-3.644.405-5.15 1.45-1.24.945-1.94 2.442-1.87 4-.078 1.402.531 2.757 1.63 3.63.532.43 1.121.783 1.75 1.05.68.3 1.38.61 2.13.9 1.159.415 2.266.962 3.3 1.63.647.434 1.025 1.172 1 1.95.045.721-.351 1.402-1 1.72-.983.424-2.051.613-3.12.55-1.165.039-2.33-.107-3.45-.43l-1.82-.62v3.1c.34.12.75.25 1.27.4 1.31.31 2.655.444 4 .4 1.965.124 3.924-.335 5.63-1.32 1.332-.879 2.096-2.407 2-4 .025-.77-.111-1.536-.4-2.25-.26-.604-.653-1.14-1.15-1.57-.585-.472-1.235-.856-1.93-1.14-.72-.32-1.51-.66-2.42-1-.69-.24-1.28-.46-1.78-.68-.443-.183-.862-.418-1.25-.7-.302-.225-.548-.516-.72-.85-.171-.341-.256-.719-.25-1.1-.032-.745.393-1.439 1.07-1.75.783-.385 1.648-.574 2.52-.55.949-.02 1.897.081 2.82.3.596.14 1.176.341 1.73.6v-3.1l-.12-.07c-.36-.1-.78-.19-1.25-.27s-1-.17-1.5-.23c-.538-.052-1.079-.075-1.62-.07zm97.7 0c-1.129-.006-2.256.085-3.37.27-.599.102-1.191.245-1.77.43v2.9c.611-.214 1.24-.371 1.88-.47.99-.174 1.994-.258 3-.25.743-.021 1.483.115 2.17.4.51.219.957.563 1.3 1 .324.43.553.924.67 1.45.12.542.18 1.095.18 1.65v.95c-.1 0-.28-.08-.53-.12l-.85-.15c-.33-.06-.68-.11-1.05-.15s-.73 0-1.07 0c-1.049-.004-2.095.107-3.12.33-.908.182-1.778.52-2.57 1-.728.449-1.33 1.075-1.75 1.82-.452.819-.677 1.745-.65 2.68-.028.953.16 1.9.55 2.77.344.751.878 1.399 1.55 1.88.722.483 1.53.823 2.38 1 .984.227 1.991.338 3 .33.76 0 1.52 0 2.3-.1s1.48-.13 2.15-.2 1.27-.14 1.8-.23l1.25-.2v-11.79c.01-.989-.114-1.975-.37-2.93-.491-1.762-1.838-3.162-3.58-3.72-1.128-.375-2.312-.551-3.5-.52zm43.8 0c-1.807-.096-3.596.415-5.08 1.45-1.249.941-1.96 2.437-1.9 4-.053 1.395.547 2.738 1.62 3.63.54.429 1.135.782 1.77 1.05.68.3 1.39.61 2.13.9 1.153.414 2.254.961 3.28 1.63.644.436 1.021 1.173 1 1.95.043.721-.353 1.4-1 1.72-.983.424-2.051.612-3.12.55-1.165.038-2.33-.107-3.45-.43-.85-.28-1.45-.5-1.85-.65v3.13c.34.11.77.25 1.3.4 1.31.31 2.655.444 4 .4 1.965.124 3.924-.335 5.63-1.32 1.33-.88 2.094-2.407 2-4 .023-.77-.113-1.536-.4-2.25-.271-.605-.675-1.141-1.18-1.57-.549-.468-1.162-.855-1.82-1.15-.71-.32-1.51-.66-2.43-1-.69-.24-1.28-.46-1.77-.68-.443-.182-.863-.417-1.25-.7-.306-.223-.556-.514-.73-.85-.169-.342-.255-.719-.25-1.1-.027-.747.4-1.44 1.08-1.75.776-.386 1.634-.575 2.5-.55.959-.02 1.916.081 2.85.3.584.133 1.154.324 1.7.57v-3.05l-.15-.05c-.36-.1-.78-.19-1.25-.27s-1-.17-1.53-.23c-.538-.052-1.079-.075-1.62-.07zm-112 .07c-1.089.033-2.175.14-3.25.32-1.3.22-2.34.41-3.13.6v18.29h3.4v-15.88c.1 0 .3-.08.6-.12l1-.12c.36 0 .73 0 1.13-.07s.75-.05 1.1-.05c.686-.019 1.369.11 2 .38.521.243.956.636 1.25 1.13.339.62.559 1.299.65 2 .14.943.207 1.896.2 2.85v9.85h3.43v-10.55c.001-.786-.049-1.571-.15-2.35-.095-.678-.245-1.347-.45-2 .471-.354.994-.634 1.55-.83.913-.328 1.88-.481 2.85-.45.709-.024 1.416.105 2.07.38.517.234.953.617 1.25 1.1.337.62.551 1.299.63 2 .126.945.186 1.897.18 2.85v9.85h3.43v-10.55c.008-1.156-.086-2.31-.28-3.45-.165-.968-.537-1.889-1.09-2.7-.551-.793-1.314-1.416-2.2-1.8-1.15-.46-2.383-.674-3.62-.63-.723-.008-1.445.069-2.15.23-.611.144-1.213.328-1.8.55-.473.173-.931.384-1.37.63-.37.22-.63.38-.8.5-.582-.655-1.313-1.163-2.13-1.48-.995-.35-2.046-.512-3.1-.48h-1.22zm33.13 0c-1.03.032-2.056.139-3.07.32-1.22.23-2.24.46-3.05.65v24.94h3.45v-7.53c.601.343 1.238.618 1.9.82.946.303 1.936.449 2.93.43 1.271.021 2.532-.228 3.7-.73 1.038-.456 1.961-1.14 2.7-2 .769-.909 1.347-1.963 1.7-3.1.391-1.297.576-2.646.55-4 .021-1.396-.209-2.785-.68-4.1-.814-2.353-2.655-4.213-5-5.05-1.279-.477-2.636-.707-4-.68h-1.18zm-50.45.4v18.8h3.45v-18.79zm108 2.53c.869-.024 1.731.154 2.52.52.684.339 1.274.841 1.72 1.46.475.649.816 1.387 1 2.17.197.896.291 1.812.28 2.73.122 1.839-.469 3.655-1.65 5.07-1.153 1.214-2.777 1.871-4.45 1.8-.775.009-1.55-.031-2.32-.12-.499-.061-.993-.155-1.48-.28v-11.9c.555-.419 1.168-.756 1.82-1 .822-.32 1.698-.48 2.58-.47zm-56.43.07c1.668-.075 3.289.57 4.45 1.77 1.172 1.392 1.763 3.184 1.65 5 .004.909-.097 1.815-.3 2.7-.186.783-.526 1.52-1 2.17-.444.619-1.035 1.117-1.72 1.45-.79.372-1.657.554-2.53.53-1.583-.008-3.123-.515-4.4-1.45v-11.81c.45-.118.908-.201 1.37-.25.807-.081 1.619-.114 2.43-.1zm34.77 7.48c.669-.007 1.338.036 2 .13.413.048.818.156 1.2.32v5.6c-.517.108-1.042.175-1.57.2h-2.15c-1.116.056-2.228-.185-3.22-.7-.83-.555-1.285-1.527-1.18-2.52-.031-.565.135-1.124.47-1.58.324-.395.735-.709 1.2-.92.506-.234 1.046-.386 1.6-.45.548-.057 1.099-.084 1.65-.08z"/><g fill="#007df6"><path d="m20 21.33v15.07c5.127-.483 9.817-3.115 12.9-7.24z"/><path d="m34.71 26.22c1.232-2.487 1.876-5.224 1.88-8 .019-9.402-7.227-17.36-16.59-18.22v17.29zm-32.87-15.95c-1.208 2.469-1.838 5.181-1.84 7.93.006 9.377 7.234 17.302 16.57 18.17v-17.14z"/><path d="m16.57 15.19v-15.19c-5.158.489-9.871 3.153-12.95 7.32z"/></g></g></svg>