<?xml version="1.0" encoding="UTF-8"?>
<svg width="1000px" height="800px" viewBox="0 0 1000 800" version="1.1" xmlns="http://www.w3.org/2000/svg" xmlns:xlink="http://www.w3.org/1999/xlink">
    <!-- Generator: Sketch 51.1 (57501) - http://www.bohemiancoding.com/sketch -->
    <title>Qonto-Full-L-Colorlogo-TransparentBG</title>
    <desc>Created with Sketch.</desc>
    <defs></defs>
    <g id="Qonto-Full-L-Colorlogo-TransparentBG" stroke="none" stroke-width="1" fill="none" fill-rule="evenodd">
        <g id="Logo-Copy" transform="translate(88.000000, 289.000000)">
            <path d="M241.52,101.84 C241.52,108.240032 242.159994,114.199972 243.44,119.72 C244.720006,125.240028 246.799986,130.03998 249.68,134.12 C252.560014,138.20002 256.279977,141.399988 260.84,143.72 C265.400023,146.040012 270.879968,147.2 277.28,147.2 C283.36003,147.2 288.959974,146.16001 294.08,144.08 C299.200026,141.99999 303.119986,139.840011 305.84,137.6 L305.84,58.88 C303.599989,58.2399968 300.600019,57.6800024 296.84,57.2 C293.079981,56.7199976 287.840034,56.48 281.12,56.48 C269.11994,56.48 259.520036,60.3999608 252.32,68.24 C245.119964,76.0800392 241.52,87.2799272 241.52,101.84 L241.52,101.84 Z M222.68,74.6 C225.640015,66.5199596 229.839973,59.680028 235.28,54.08 C240.720027,48.479972 247.279962,44.1600152 254.96,41.12 C262.640038,38.0799848 271.279952,36.56 280.88,36.56 C291.280052,36.56 300.43996,37.3199924 308.36,38.84 C316.28004,40.3600076 322.879974,41.7599936 328.16,43.04 L328.159998,217.118167 L305.839998,221.207385 L305.84,158.48 C303.119986,160.240009 299.000028,162.07999 293.48,164 C287.959972,165.92001 281.600036,166.88 274.4,166.88 C265.439955,166.88 257.480035,165.280016 250.52,162.08 C243.559965,158.879984 237.680024,154.400029 232.88,148.64 C228.079976,142.879971 224.440012,136.00004 221.96,128 C219.479988,119.99996 218.24,111.280047 218.24,101.84 C218.24,91.7599496 219.719985,82.6800404 222.68,74.6 Z M469.72,101.6 C469.72,111.52005 468.280014,120.47996 465.4,128.48 C462.519986,136.48004 458.480026,143.359971 453.28,149.12 C448.079974,154.880029 441.880036,159.319984 434.68,162.44 C427.479964,165.560016 419.640042,167.12 411.16,167.12 C402.679958,167.12 394.840036,165.560016 387.64,162.44 C380.439964,159.319984 374.240026,154.880029 369.04,149.12 C363.839974,143.359971 359.800014,136.48004 356.92,128.48 C354.039986,120.47996 352.6,111.52005 352.6,101.6 C352.6,91.8399512 354.039986,82.9200404 356.92,74.84 C359.800014,66.7599596 363.839974,59.8400288 369.04,54.08 C374.240026,48.3199712 380.439964,43.8800156 387.64,40.76 C394.840036,37.6399844 402.679958,36.08 411.16,36.08 C419.640042,36.08 427.479964,37.6399844 434.68,40.76 C441.880036,43.8800156 448.079974,48.3199712 453.28,54.08 C458.480026,59.8400288 462.519986,66.7599596 465.4,74.84 C468.280014,82.9200404 469.72,91.8399512 469.72,101.6 L469.72,101.6 Z M446.44,101.6 C446.44,87.5199296 443.280032,76.3600412 436.96,68.12 C430.639968,59.8799588 422.040054,55.76 411.16,55.76 C400.279946,55.76 391.680032,59.8799588 385.36,68.12 C379.039968,76.3600412 375.88,87.5199296 375.88,101.6 C375.88,115.68007 379.039968,126.839959 385.36,135.08 C391.680032,143.320041 400.279946,147.44 411.16,147.44 C422.040054,147.44 430.639968,143.320041 436.96,135.08 C443.280032,126.839959 446.44,115.68007 446.44,101.6 L446.44,101.6 Z M494.16,42.8 C499.280026,41.5199936 506.079958,40.1600072 514.56,38.72 C523.040042,37.2799928 532.799945,36.56 543.84,36.56 C553.76005,36.56 561.999967,37.959986 568.56,40.76 C575.120033,43.560014 580.35998,47.4799748 584.28,52.52 C588.20002,57.5600252 590.959992,63.5999648 592.56,70.64 C594.160008,77.6800352 594.96,85.4399576 594.96,93.92 L594.96,164 L572.64,164 L572.64,98.72 C572.64,91.0399616 572.120005,84.4800272 571.08,79.04 C570.039995,73.5999728 568.320012,69.2000168 565.92,65.84 C563.519988,62.4799832 560.32002,60.0400076 556.32,58.52 C552.31998,56.9999924 547.36003,56.24 541.44,56.24 C539.039988,56.24 536.560013,56.3199992 534,56.48 C531.439987,56.6400008 529.000012,56.8399988 526.68,57.08 C524.359988,57.3200012 522.280009,57.5999984 520.44,57.92 C518.599991,58.2400016 517.280004,58.4799992 516.48,58.64 L516.48,164 L494.16,164 L494.16,42.8 Z M645.8,39.2 L693.08,39.2 L693.08,57.92 L645.8,57.92 L645.8,115.52 C645.8,121.760031 646.279995,126.91998 647.24,131 C648.200005,135.08002 649.63999,138.279988 651.56,140.6 C653.48001,142.920012 655.879986,144.559995 658.76,145.52 C661.640014,146.480005 664.999981,146.96 668.84,146.96 C675.560034,146.96 680.95998,146.200008 685.04,144.68 C689.12002,143.159992 691.959992,142.080003 693.56,141.44 L697.88,159.92 C695.639989,161.040006 691.720028,162.439992 686.12,164.12 C680.519972,165.800008 674.120036,166.64 666.92,166.64 C658.439958,166.64 651.440028,165.560011 645.92,163.4 C640.399972,161.239989 635.960017,158.000022 632.6,153.68 C629.239983,149.359978 626.880007,144.040032 625.52,137.72 C624.159993,131.399968 623.48,124.080042 623.48,115.76 L623.48,4.4 L645.8,0.56 L645.8,39.2 Z M824.56,101.6 C824.56,111.52005 823.120014,120.47996 820.24,128.48 C817.359986,136.48004 813.320026,143.359971 808.12,149.12 C802.919974,154.880029 796.720036,159.319984 789.52,162.44 C782.319964,165.560016 774.480042,167.12 766,167.12 C757.519958,167.12 749.680036,165.560016 742.48,162.44 C735.279964,159.319984 729.080026,154.880029 723.88,149.12 C718.679974,143.359971 714.640014,136.48004 711.76,128.48 C708.879986,120.47996 707.44,111.52005 707.44,101.6 C707.44,91.8399512 708.879986,82.9200404 711.76,74.84 C714.640014,66.7599596 718.679974,59.8400288 723.88,54.08 C729.080026,48.3199712 735.279964,43.8800156 742.48,40.76 C749.680036,37.6399844 757.519958,36.08 766,36.08 C774.480042,36.08 782.319964,37.6399844 789.52,40.76 C796.720036,43.8800156 802.919974,48.3199712 808.12,54.08 C813.320026,59.8400288 817.359986,66.7599596 820.24,74.84 C823.120014,82.9200404 824.56,91.8399512 824.56,101.6 L824.56,101.6 Z M801.28,101.6 C801.28,87.5199296 798.120032,76.3600412 791.8,68.12 C785.479968,59.8799588 776.880054,55.76 766,55.76 C755.119946,55.76 746.520032,59.8799588 740.2,68.12 C733.879968,76.3600412 730.72,87.5199296 730.72,101.6 C730.72,115.68007 733.879968,126.839959 740.2,135.08 C746.520032,143.320041 755.119946,147.44 766,147.44 C776.880054,147.44 785.479968,143.320041 791.8,135.08 C798.120032,126.839959 801.28,115.68007 801.28,101.6 L801.28,101.6 Z" id="qonto" fill="#414660"></path>
            <path d="M22.2165404,73.8218727 C8.91983267,60.5016425 1.01080362,42.7651889 0,24 C18.7492821,25.0407321 36.443172,32.984426 49.6516639,46.2911764 C62.9446556,59.6143499 70.8529993,77.3496222 71.8682043,96.1140477 C53.1188079,95.0729539 35.4249319,87.1289104 22.2165404,73.8218727 Z M129.78346,73.8218727 C116.575068,87.1289104 98.8811921,95.0729539 80.1317957,96.1140477 C81.1470007,77.3496222 89.0553444,59.6143499 102.348336,46.2911764 C115.556828,32.984426 133.250718,25.0407321 152,24 C150.989196,42.7651889 143.080167,60.5016425 129.78346,73.8218727 Z M129.78346,126.178127 C143.080167,139.498357 150.989196,157.234811 152,176 C133.250718,174.959268 115.556828,167.015574 102.348336,153.708824 C89.0553444,140.38565 81.1470007,122.650378 80.1317957,103.885952 C98.8811921,104.927046 116.575068,112.87109 129.78346,126.178127 Z M22.2165404,126.178127 C35.4249319,112.87109 53.3776107,104.919029 72.127007,103.877935 C71.1118021,122.64236 62.9446556,140.38565 49.6516639,153.708824 C36.443172,167.015574 18.7492821,174.959268 0,176 C1.01080362,157.234811 8.91983267,139.498357 22.2165404,126.178127 Z" id="Combined-Shape" fill="#6B5AED"></path>
        </g>
    </g>
</svg>