<?xml version="1.0" encoding="utf-8"?>
<!-- Generator: Adobe Illustrator 19.0.0, SVG Export Plug-In . SVG Version: 6.00 Build 0)  -->
<svg version="1.1" id="layer" xmlns="http://www.w3.org/2000/svg" xmlns:xlink="http://www.w3.org/1999/xlink" x="0px" y="0px"
	 viewBox="-153 -46 652 652" style="enable-background:new -153 -46 652 652;" xml:space="preserve">
<style type="text/css">
	.st0{fill:url(#SVGID_1_);}
	.st1{fill:#0D90EA;}
	.st2{fill:#DB0D1E;}
</style>
<linearGradient id="SVGID_1_" gradientUnits="userSpaceOnUse" x1="-132" y1="284.913" x2="427.2" y2="284.913" gradientTransform="matrix(1 0 0 -1 0 560)">
	<stop  offset="0" style="stop-color:#831F64"/>
	<stop  offset="1" style="stop-color:#DB0D1E"/>
</linearGradient>
<path class="st0" d="M283.6,242.6c-18.7,0-31,4.7-31,32.3c0,27.6,11.9,32.7,31,32.7c18.7,0,31-5.1,31-32.7
	C314.6,247.3,302.3,242.6,283.6,242.6z M-132,243.4v62.9h16.1v-17h9.3l11.9,17h19.1l-14-21.2c5.9-1.7,9.3-6.8,9.3-19.1
	c0-20-8.5-22.5-24.6-22.5H-132z M-50.6,243.4l-24.6,62.9h17l3-8.5h23.8l3,8.5h17.8l-24.6-62.9L-50.6,243.4L-50.6,243.4z M-6.9,243.4
	v62.9h17v-62.9H-6.9z M19.8,243.4v62.9h45v-14H36.4v-48.9C36.4,243.4,19.8,243.4,19.8,243.4z M75.8,243.4v7.7l16.9,6.8h28.1v-14.4
	H75.8z M128.8,243.4v41.2c0,18.7,8.5,22.5,28.4,22.5c19.5,0,27.6-4.7,27.6-22.9v-40.8h-16.1v39.9c0,8.5-3.8,8.9-11.4,8.9
	c-7.6,0-11.5-0.9-11.5-8.9v-39.9L128.8,243.4L128.8,243.4z M193.7,243.4v62.9h16.5v-17h8.9l11.9,17h19.1l-14-21.2
	c5.9-1.7,9.3-6.8,9.3-19.1c0-20-8.5-22.5-24.6-22.5C220.8,243.4,193.7,243.4,193.7,243.4z M321.8,243.4v62.5h17v-16.1h11
	c16.1,0,24.6-3.4,24.6-23.4s-8.5-22.9-24.6-22.9H321.8z M381.6,243.4v62.9h45v-14h-28v-10.2h22.9v-14.4h-22.9v-9.8h28v-14.4H381.6
	L381.6,243.4z M283.2,256.6c10.6,0,13.6,3.8,13.6,15.7v5.1c0,11.9-3,16.1-13.1,16.1c-10.6,0-13.6-4.2-13.6-16.1v-5.1
	C270,260.4,272.6,256.6,283.2,256.6L283.2,256.6z M-115.5,257h10.6c4.7,0,7.6,1.3,7.6,9.3c0,8.1-2.1,9.8-7.6,9.8h-10.6V257
	L-115.5,257z M210.2,257h10.6c4.7,0,7.6,1.3,7.6,9.3c0,8.1-2.1,9.8-7.6,9.8h-10.6V257L210.2,257z M338.7,257h11c3.4,0,7.6,0,7.6,9.8
	c0,9.8-3.8,10.2-7.6,10.2h-11V257z M-43.4,265.5l6.8,19.1h-14L-43.4,265.5L-43.4,265.5z M92.8,267.7l-17,6.8v31.9h45v-14h-28v-10.2
	h22.5v-14.4L92.8,267.7L92.8,267.7z"/>
<path class="st1" d="M48.9,279.7l42.4-17l-42.4-17V279.7z"/>
<path class="st2" d="M443.8,269.3h3.9v-6.9h1.9l4.3,6.9h4.1l-4.7-7.6c2.1-0.7,3.6-2.1,3.6-4.8v-0.1c0-3.7-2.7-5.4-6.8-5.4h-6.2
	L443.8,269.3z M447.7,259.7v-5.2h2.3c1.9,0,3.1,0.7,3.1,2.5v0.1c0,1.7-1.1,2.6-3.1,2.6H447.7z M450,275.7c-8.3,0-14.8-6-14.8-15
	c0-8.9,6.2-15.1,14.8-15.1s14.8,6.2,14.8,15.1C464.8,269.5,458.4,275.7,450,275.7z M450,278.6c10.1,0,18-7.8,18-18
	c0-10-7.8-18-18-18c-10.1,0-18,8.1-18,18.1C432,270.8,440,278.6,450,278.6z"/>
</svg>
