<svg width="162" height="30" viewBox="0 0 162 30" fill="none" xmlns="http://www.w3.org/2000/svg">
<g clip-path="url(#clip0)">
<path d="M54.6723 6.14807C49.826 6.14807 46.6528 9.46823 46.6528 14.9443C46.6528 21.7428 51.5062 23.6939 54.9709 23.6939C56.2591 23.6935 57.5339 23.4322 58.7181 22.9257C59.9023 22.4193 60.9714 21.6783 61.8607 20.7474L59.6265 18.5088C59.009 19.0803 58.2847 19.5246 57.4951 19.8162C56.7055 20.1078 55.8661 20.2411 55.0249 20.2084C52.3229 20.2084 50.5024 18.631 50.5024 16.4715H62.5371C62.5371 16.4715 64.6382 6.14807 54.6723 6.14807ZM50.5096 13.5358C50.5096 10.6324 52.7151 9.22389 55.0932 9.22389C57.4714 9.22389 59.6121 10.6612 59.6121 13.5358H50.5096Z" fill="#00DC00"/>
<path d="M10.3367 13.2447C8.79685 13.0507 4.33557 13.2268 4.33557 11.1966C4.33557 9.99285 6.20643 9.34247 7.93337 9.34247C9.74297 9.31527 11.5199 9.82553 13.0387 10.8085L15.352 8.49805C14.6649 7.94469 12.114 6.14807 7.94057 6.14807C4.13409 6.14807 0.712577 8.13514 0.712577 11.3223C0.712577 16.2092 6.62017 16.2092 9.08467 16.4499C10.5778 16.5972 11.9629 16.6978 11.9629 18.1603C11.9629 19.5221 9.87619 20.2767 8.26077 20.2767C5.62718 20.2767 4.05134 19.4143 2.50428 18.0273L0.0146027 20.5175C2.17122 22.5836 5.05306 23.7227 8.04131 23.6903C12.4594 23.6903 15.6866 21.7464 15.6866 17.8297C15.6866 15.2354 13.9381 13.6903 10.3619 13.2447" fill="#00DC00"/>
<path d="M23.0654 6.14805C20.5993 6.13217 18.2021 6.96024 16.2728 8.49444L18.6114 10.8193C19.9075 9.85236 21.4874 9.3407 23.105 9.36401C26.048 9.36401 26.9259 10.5354 26.9259 11.8577V13.507H21.6731C19.7339 13.507 15.9166 13.9957 15.9166 18.2573C15.9166 21.387 17.7155 23.6903 22.0041 23.6903C24.1628 23.6903 25.7854 22.9932 26.9115 21.6457V23.3453H30.7144V12.1128C30.7144 8.18183 28.3038 6.14805 23.0618 6.14805H23.0654ZM26.9367 17.2188C26.9367 20.4528 24.6197 20.2947 22.5473 20.2947C20.475 20.2947 19.1114 19.7377 19.1114 18.2788C19.1114 16.9206 20.1908 16.4822 22.4574 16.4822H26.9367V17.2188Z" fill="#00DC00"/>
<path d="M42.4685 6.51097V8.39383C41.8719 7.6626 41.1138 7.07931 40.2536 6.68968C39.3935 6.30005 38.4546 6.11467 37.5107 6.14805C33.9129 6.14805 32.0457 8.16746 31.4197 10.3198C31.1858 11.1211 31.1031 12.6482 31.1031 14.9048C31.1031 17.0284 31.1246 18.9616 31.8658 20.4492C32.8984 22.5297 35.4132 23.6831 37.5107 23.6831C38.4443 23.7051 39.3715 23.5237 40.2278 23.1513C41.084 22.779 41.8486 22.2247 42.4685 21.5271V22.5943C42.4981 23.109 42.4026 23.6232 42.1902 24.0931C41.9778 24.5629 41.6549 24.9745 41.2489 25.2929C40.3472 26.0107 39.217 26.3805 38.0648 26.3349C36.8092 26.3349 35.6039 25.6486 34.9167 25.1707L32.3587 27.7327C34.0173 29.0765 35.9997 29.9892 38.1404 30.0072C40.2036 30.0611 42.2191 29.3825 43.8285 28.092C45.3576 26.8919 46.3254 24.6317 46.3254 22.235V6.51097H42.4685ZM42.4685 14.912C42.5073 15.8333 42.47 16.7563 42.357 17.6716C42.1231 18.7496 40.8819 20.1869 38.6297 20.1869C38.0648 20.1869 35.1722 19.8635 34.8484 17.3626C34.7576 16.5418 34.7203 15.716 34.7368 14.8904C34.7368 12.9429 34.816 12.3212 34.9167 11.829C35.1146 10.848 36.399 9.40353 38.6297 9.40353C41.3604 9.40353 42.2275 11.2612 42.3642 11.9799C42.4696 12.9463 42.5105 13.9186 42.4865 14.8904" fill="#00DC00"/>
<path d="M74.7552 23.6939H73.1794V0H74.7552V23.6939Z" fill="#8E8E8E"/>
<path d="M92.8376 23.6939H91.233V12.5548C91.233 9.806 90.348 8.20341 87.5309 8.20341C85.1383 8.20341 82.5191 9.77366 81.4362 10.7905V23.6831H79.8316V7.06794H81.2419L81.3391 9.22389C83.2711 7.85127 85.4981 6.73737 87.8151 6.73737C91.3194 6.73737 92.8268 8.76755 92.8268 12.4866L92.8376 23.6939Z" fill="#8E8E8E"/>
<path d="M105.193 23.1046C104.405 23.658 102.8 24.0856 101.62 24.0856C98.5402 24.0856 97.3925 22.81 97.3925 19.8958V8.4765H94.7409V7.06795H97.4033V2.32487L99.0079 2.06256V7.06795H103.728V8.4765H98.9971V19.5688C98.9971 21.5667 99.4576 22.7417 101.717 22.7417C102.779 22.6989 103.814 22.3966 104.732 21.8613L105.193 23.1046Z" fill="#8E8E8E"/>
<path d="M117.871 21.3367C117.871 22.2529 118.033 22.7093 118.886 22.7093C119.232 22.696 119.574 22.6306 119.9 22.5153L120.034 23.5609C119.49 23.8484 118.878 23.9837 118.263 23.9525C116.824 23.9525 116.299 22.8746 116.364 21.8613C114.848 23.3164 112.818 24.1156 110.715 24.0855C106.455 24.0855 105.801 21.139 105.801 19.5688C105.801 14.8257 110.093 14.0064 113.957 14.0064C114.745 14.0064 115.497 14.0388 116.216 14.0711V12.5979C116.216 9.32804 115.4 8.08478 112.259 8.08478C109.474 8.08478 108.391 9.13041 108.031 11.1929L106.491 10.9306C107.017 7.85481 109.046 6.74091 112.388 6.74091C116.288 6.74091 117.861 8.1782 117.861 12.3032L117.871 21.3367ZM116.267 15.4473C115.511 15.3791 114.727 15.3467 113.709 15.3467C110.366 15.3467 107.517 16.0366 107.517 19.4071C107.517 21.2037 108.204 22.7093 110.956 22.7093C111.957 22.7098 112.947 22.5007 113.862 22.0953C114.776 21.6898 115.596 21.0972 116.267 20.3557V15.4473Z" fill="#8E8E8E"/>
<path d="M121.016 15.4473C121.016 9.59035 123.894 6.74091 128.747 6.74091C131.892 6.74091 134.482 8.53753 134.644 12.1308L132.91 12.3284C132.615 9.47896 131.237 8.13868 128.553 8.13868C125.765 8.13868 122.689 9.70892 122.689 15.2066C122.689 21.1283 125.567 22.5691 128.355 22.5691C130.91 22.5691 132.673 21.3906 133.137 18.7711L134.777 19.1017C134.155 22.6662 131.302 24.0747 128.388 24.0747C122.915 24.0855 121.016 20.4851 121.016 15.4473Z" fill="#8E8E8E"/>
<path d="M136.742 15.4473C136.742 9.59035 139.62 6.74091 144.473 6.74091C147.622 6.74091 150.208 8.53753 150.374 12.1308L148.636 12.3284C148.341 9.47896 146.963 8.13868 144.279 8.13868C141.494 8.13868 138.415 9.70892 138.415 15.2066C138.415 21.1283 141.293 22.5691 144.081 22.5691C146.636 22.5691 148.399 21.3906 148.866 18.7711L150.503 19.1017C149.881 22.6662 147.031 24.0747 144.114 24.0747C138.641 24.0855 136.742 20.4851 136.742 15.4473Z" fill="#8E8E8E"/>
<path d="M161.775 23.1046C160.987 23.658 159.383 24.0856 158.203 24.0856C155.123 24.0856 153.975 22.81 153.975 19.8958V8.4765H151.324V7.06795H153.975V2.32487L155.584 2.06256V7.06795H160.3V8.4765H155.584V19.5688C155.584 21.5667 156.041 22.7417 158.3 22.7417C159.362 22.6989 160.397 22.3966 161.315 21.8613L161.775 23.1046Z" fill="#8E8E8E"/>
</g>
<defs>
<clipPath id="clip0">
<rect width="161.775" height="30" fill="white"/>
</clipPath>
</defs>
</svg>
